G04*
G04 #@! TF.GenerationSoftware,Altium Limited,Altium Designer,21.6.4 (81)*
G04*
G04 Layer_Color=16711935*
%FSLAX44Y44*%
%MOMM*%
G71*
G04*
G04 #@! TF.SameCoordinates,27B0D74A-EB15-4392-BC8F-D98A40C3D817*
G04*
G04*
G04 #@! TF.FilePolarity,Positive*
G04*
G01*
G75*
%ADD13C,0.1000*%
%ADD79C,0.0500*%
%ADD80C,0.0500*%
D13*
X397000Y244000D02*
G03*
X397000Y244000I-5000J0D01*
G01*
X343900Y190000D02*
G03*
X343900Y190000I-5000J0D01*
G01*
X488500Y247000D02*
G03*
X488500Y247000I-5000J0D01*
G01*
X265800Y200000D02*
Y280000D01*
Y200000D02*
Y280000D01*
X212800Y283000D02*
X215800Y280000D01*
X209800Y283000D02*
X212800D01*
X209800Y197000D02*
Y283000D01*
Y197000D02*
X212800D01*
X215800Y200000D01*
X240800Y280000D02*
Y285720D01*
X230220D02*
X240800D01*
X230220Y280000D02*
Y285720D01*
X240800Y280000D02*
X265800D01*
X215800D02*
X230220D01*
X215800Y200000D02*
X230220D01*
X240800D02*
X265800D01*
X230220Y194280D02*
Y200000D01*
Y194280D02*
X240800D01*
Y200000D01*
X383000Y235000D02*
X429000D01*
X383000Y261000D02*
X429000D01*
X383000Y235000D02*
Y261000D01*
X429000Y235000D02*
Y261000D01*
X317900Y211000D02*
X347900D01*
X317900Y181000D02*
X347900D01*
X317900D02*
Y211000D01*
X347900Y181000D02*
Y211000D01*
X520500Y238000D02*
Y264000D01*
X474500Y238000D02*
Y264000D01*
X520500D01*
X474500Y238000D02*
X520500D01*
D79*
X582750Y282500D02*
G03*
X582750Y282500I-6000J0D01*
G01*
X622000Y211000D02*
G03*
X622000Y211000I-6000J0D01*
G01*
X469200Y267800D02*
G03*
X467930Y271610I-6350J0D01*
G01*
X432370D02*
G03*
X431100Y267800I5080J-3810D01*
G01*
X455230Y290660D02*
G03*
X445070Y290660I-5080J-3810D01*
G01*
X462850Y191600D02*
G03*
X469200Y197950I0J6350D01*
G01*
X431100D02*
G03*
X437450Y191600I6350J0D01*
G01*
X692538Y163158D02*
G03*
X692538Y163158I-1626J0D01*
G01*
X597500Y196000D02*
G03*
X597500Y196000I-6000J0D01*
G01*
X680000Y169000D02*
G03*
X680000Y169000I-6000J0D01*
G01*
X661000Y205000D02*
G03*
X661000Y205000I-6000J0D01*
G01*
X648400Y237900D02*
G03*
X648400Y237900I-6000J0D01*
G01*
X667000Y311000D02*
G03*
X667000Y311000I-6000J0D01*
G01*
X639300Y197800D02*
G03*
X639300Y197800I-6000J0D01*
G01*
X554400Y213400D02*
G03*
X554400Y213400I-6000J0D01*
G01*
X568100Y232700D02*
G03*
X568100Y232700I-6000J0D01*
G01*
X590000Y226000D02*
G03*
X590000Y226000I-6000J0D01*
G01*
X570500Y186500D02*
G03*
X570500Y186500I-6000J0D01*
G01*
X651250Y261500D02*
G03*
X651250Y261500I-6000J0D01*
G01*
X549000Y219000D02*
Y252000D01*
X565000Y219000D02*
Y252000D01*
X549000Y219000D02*
X565000D01*
X549000Y252000D02*
X565000D01*
X455230Y290660D02*
X467930Y271610D01*
X432370D02*
X445070Y290660D01*
X469200Y197950D02*
Y267800D01*
X431100Y197950D02*
Y267800D01*
X437450Y191600D02*
X462850D01*
X274500Y241500D02*
Y255000D01*
X291500Y241500D02*
Y255000D01*
X274500Y241500D02*
X291500D01*
X274500Y255000D02*
X291500D01*
X298000Y175000D02*
X310000D01*
X298000D02*
Y183000D01*
X310000D01*
Y175000D02*
Y183000D01*
X288800Y212200D02*
Y218200D01*
X299800Y212200D02*
Y218200D01*
X288800Y212200D02*
X299800D01*
X288800Y218200D02*
X299800D01*
X544900Y279600D02*
Y285900D01*
X541600Y279600D02*
X544900D01*
X541600D02*
Y285900D01*
X544900D01*
X570000Y186000D02*
Y290000D01*
X713000D01*
Y186000D02*
Y290000D01*
X570000Y186000D02*
X713000D01*
X570000Y193000D02*
X577500Y186000D01*
X260770Y178460D02*
Y183540D01*
X258230Y181000D02*
X260770Y183540D01*
X258230Y181000D02*
X260770Y178460D01*
X258230D02*
Y183540D01*
X251500Y177000D02*
Y185000D01*
X267500D01*
Y177000D02*
Y185000D01*
X251500Y177000D02*
X267500D01*
X704800Y160700D02*
Y177300D01*
X688200D02*
X704800D01*
X688200Y160700D02*
Y177300D01*
Y160700D02*
X704800D01*
X292500Y212000D02*
Y221000D01*
X275500D02*
X292500D01*
X275500Y212000D02*
X292500D01*
X275500D02*
Y221000D01*
X373250Y172800D02*
Y240800D01*
X338750Y172800D02*
Y240800D01*
Y172800D02*
X373250D01*
X338750Y240800D02*
X373250D01*
X362250Y186250D02*
Y195750D01*
X379750Y186250D02*
Y195750D01*
X362250D02*
X379750D01*
X362250Y186250D02*
X379750D01*
X296000Y248000D02*
Y259000D01*
X302000D01*
Y248000D02*
Y259000D01*
X296000Y248000D02*
X302000D01*
X266250Y295750D02*
X272550D01*
X266250D02*
Y299050D01*
X272550D01*
Y295750D02*
Y299050D01*
X307750Y192250D02*
Y201750D01*
X290250Y192250D02*
Y201750D01*
Y192250D02*
X307750D01*
X290250Y201750D02*
X307750D01*
X551000Y269000D02*
X562000D01*
Y263000D02*
Y269000D01*
X551000Y263000D02*
X562000D01*
X551000D02*
Y269000D01*
X551500Y207500D02*
X562500D01*
Y201500D02*
Y207500D01*
X551500Y201500D02*
X562500D01*
X551500D02*
Y207500D01*
X356000Y174000D02*
Y182000D01*
Y174000D02*
X368000D01*
Y182000D01*
X356000D02*
X368000D01*
X677000Y163500D02*
Y169500D01*
X666000Y163500D02*
Y169500D01*
Y163500D02*
X677000D01*
X666000Y169500D02*
X677000D01*
Y155000D02*
Y161000D01*
X666000Y155000D02*
Y161000D01*
Y155000D02*
X677000D01*
X666000Y161000D02*
X677000D01*
X252900Y188700D02*
X263900D01*
X252900Y194700D02*
X263900D01*
Y188700D02*
Y194700D01*
X252900Y188700D02*
Y194700D01*
X560000Y289500D02*
X566000D01*
X560000Y278500D02*
Y289500D01*
Y278500D02*
X566000D01*
Y289500D01*
X555850Y271850D02*
X562150D01*
X555850D02*
Y275150D01*
X562150D01*
Y271850D02*
Y275150D01*
X275350Y183100D02*
Y189400D01*
X278650D01*
Y183100D02*
Y189400D01*
X275350Y183100D02*
X278650D01*
X379350Y203350D02*
X385650D01*
X379350D02*
Y206650D01*
X385650D01*
Y203350D02*
Y206650D01*
X614850Y177150D02*
X621150D01*
Y173850D02*
Y177150D01*
X614850Y173850D02*
X621150D01*
X614850D02*
Y177150D01*
X528100Y174350D02*
X534400D01*
X528100D02*
Y177650D01*
X534400D01*
Y174350D02*
Y177650D01*
X531850Y203350D02*
Y206650D01*
Y203350D02*
X538150D01*
Y206650D01*
X531850D02*
X538150D01*
X380100Y226850D02*
X386400D01*
X380100D02*
Y230150D01*
X386400D01*
Y226850D02*
Y230150D01*
X380100Y268650D02*
X386400D01*
Y265350D02*
Y268650D01*
X380100Y265350D02*
X386400D01*
X380100D02*
Y268650D01*
X474850Y231650D02*
X478150D01*
X474850Y225350D02*
Y231650D01*
Y225350D02*
X478150D01*
Y231650D01*
X471700Y271050D02*
Y274350D01*
Y271050D02*
X478000D01*
Y274350D01*
X471700D02*
X478000D01*
X677000Y172000D02*
Y178000D01*
X666000Y172000D02*
Y178000D01*
Y172000D02*
X677000D01*
X666000Y178000D02*
X677000D01*
X439350Y186650D02*
X445650D01*
Y183350D02*
Y186650D01*
X439350Y183350D02*
X445650D01*
X439350D02*
Y186650D01*
X370350Y248350D02*
Y254650D01*
X373650D01*
Y248350D02*
Y254650D01*
X370350Y248350D02*
X373650D01*
X393150Y217350D02*
Y223650D01*
X389850Y217350D02*
X393150D01*
X389850D02*
Y223650D01*
X393150D01*
X395850Y211686D02*
X399150D01*
X395850Y205386D02*
Y211686D01*
Y205386D02*
X399150D01*
Y211686D01*
X404650Y205350D02*
Y211650D01*
X401350Y205350D02*
X404650D01*
X401350D02*
Y211650D01*
X404650D01*
X407850Y212650D02*
X414150D01*
Y209350D02*
Y212650D01*
X407850Y209350D02*
X414150D01*
X407850D02*
Y212650D01*
X410850Y218050D02*
X417150D01*
Y214750D02*
Y218050D01*
X410850Y214750D02*
X417150D01*
X410850D02*
Y218050D01*
X418950Y229250D02*
X425250D01*
Y225950D02*
Y229250D01*
X418950Y225950D02*
X425250D01*
X418950D02*
Y229250D01*
X433350Y237150D02*
Y243450D01*
X436650D01*
Y237150D02*
Y243450D01*
X433350Y237150D02*
X436650D01*
X555100Y183932D02*
X558400D01*
Y190232D01*
X555100D02*
X558400D01*
X555100Y183932D02*
Y190232D01*
X481350Y226900D02*
X484650D01*
X481350Y220600D02*
Y226900D01*
Y220600D02*
X484650D01*
Y226900D01*
X494850Y226850D02*
X498150D01*
X494850Y220550D02*
Y226850D01*
Y220550D02*
X498150D01*
Y226850D01*
X506850Y207850D02*
Y211150D01*
Y207850D02*
X513150D01*
Y211150D01*
X506850D02*
X513150D01*
X506850Y213350D02*
Y216650D01*
Y213350D02*
X513150D01*
Y216650D01*
X506850D02*
X513150D01*
X511100Y230850D02*
Y234150D01*
Y230850D02*
X517400D01*
Y234150D01*
X511100D02*
X517400D01*
X525350Y240100D02*
X528650D01*
Y246400D01*
X525350D02*
X528650D01*
X525350Y240100D02*
Y246400D01*
X301500Y205000D02*
Y211000D01*
X312500Y205000D02*
Y211000D01*
X301500D02*
X312500D01*
X301500Y205000D02*
X312500D01*
X302000Y237500D02*
X308000D01*
X302000Y226500D02*
X308000D01*
Y237500D01*
X302000Y226500D02*
Y237500D01*
X301500Y214000D02*
Y220000D01*
X312500Y214000D02*
Y220000D01*
X301500D02*
X312500D01*
X301500Y214000D02*
X312500D01*
X556350Y188182D02*
Y191482D01*
Y188182D02*
X562650D01*
Y191482D01*
X556350D02*
X562650D01*
X560600Y183932D02*
X563900D01*
Y190232D01*
X560600D02*
X563900D01*
X560600Y183932D02*
Y190232D01*
X562650Y182682D02*
Y185982D01*
X556350D02*
X562650D01*
X556350Y182682D02*
Y185982D01*
Y182682D02*
X562650D01*
X378000Y275500D02*
Y286500D01*
X372000Y275500D02*
Y286500D01*
X378000D01*
X372000Y275500D02*
X378000D01*
X380500D02*
Y286500D01*
X386500Y275500D02*
Y286500D01*
X380500Y275500D02*
X386500D01*
X380500Y286500D02*
X386500D01*
X374000Y279750D02*
X385000D01*
X374000Y273750D02*
X385000D01*
X374000D02*
Y279750D01*
X385000Y273750D02*
Y279750D01*
X374000Y288250D02*
X385000D01*
X374000Y282250D02*
X385000D01*
X374000D02*
Y288250D01*
X385000Y282250D02*
Y288250D01*
X463350Y236700D02*
X466650D01*
Y243000D01*
X463350D02*
X466650D01*
X463350Y236700D02*
Y243000D01*
X487350Y211650D02*
X490650D01*
X487350Y205350D02*
Y211650D01*
Y205350D02*
X490650D01*
Y211650D01*
X302850Y186350D02*
X309150D01*
X302850D02*
Y189650D01*
X309150D01*
Y186350D02*
Y189650D01*
X277150Y199850D02*
X283450D01*
X277150D02*
Y203150D01*
X283450D01*
Y199850D02*
Y203150D01*
X285350Y228150D02*
X291650D01*
Y224850D02*
Y228150D01*
X285350Y224850D02*
X291650D01*
X285350D02*
Y228150D01*
X461150Y181850D02*
Y185150D01*
X454850D02*
X461150D01*
X454850Y181850D02*
Y185150D01*
Y181850D02*
X461150D01*
X304350Y257900D02*
X307650D01*
X304350Y251600D02*
Y257900D01*
Y251600D02*
X307650D01*
Y257900D01*
X329400Y223350D02*
Y226650D01*
X323100D02*
X329400D01*
X323100Y223350D02*
Y226650D01*
Y223350D02*
X329400D01*
X359850Y234350D02*
X363150D01*
Y240650D01*
X359850D02*
X363150D01*
X359850Y234350D02*
Y240650D01*
X343100Y223350D02*
Y226650D01*
Y223350D02*
X349400D01*
Y226650D01*
X343100D02*
X349400D01*
X332850Y285930D02*
X336150D01*
X332850Y279630D02*
Y285930D01*
Y279630D02*
X336150D01*
Y285930D01*
X346600Y278380D02*
Y281680D01*
Y278380D02*
X352900D01*
Y281680D01*
X346600D02*
X352900D01*
X326850Y285930D02*
X330150D01*
X326850Y279630D02*
Y285930D01*
Y279630D02*
X330150D01*
Y285930D01*
X343100Y217850D02*
Y221150D01*
Y217850D02*
X349400D01*
Y221150D01*
X343100D02*
X349400D01*
X364150Y258350D02*
Y264650D01*
X360850Y258350D02*
X364150D01*
X360850D02*
Y264650D01*
X364150D01*
X326850Y291430D02*
X330150D01*
X326850Y285130D02*
Y291430D01*
Y285130D02*
X330150D01*
Y291430D01*
X332850Y285130D02*
X336150D01*
Y291430D01*
X332850D02*
X336150D01*
X332850Y285130D02*
Y291430D01*
X264000Y292500D02*
X275000D01*
X264000Y286500D02*
X275000D01*
X264000D02*
Y292500D01*
X275000Y286500D02*
Y292500D01*
X536100Y279600D02*
Y285900D01*
X539400D01*
Y279600D02*
Y285900D01*
X536100Y279600D02*
X539400D01*
X537350Y278350D02*
X543650D01*
X537350D02*
Y281650D01*
X543650D01*
Y278350D02*
Y281650D01*
X537350Y283850D02*
X543650D01*
X537350D02*
Y287150D01*
X543650D01*
Y283850D02*
Y287150D01*
X365000Y200500D02*
X371000D01*
X365000Y211500D02*
X371000D01*
X365000Y200500D02*
Y211500D01*
X371000Y200500D02*
Y211500D01*
X365000Y228200D02*
X371000D01*
X365000Y217200D02*
X371000D01*
Y228200D01*
X365000Y217200D02*
Y228200D01*
X475300Y276800D02*
Y282800D01*
X486300Y276800D02*
Y282800D01*
X475300D02*
X486300D01*
X475300Y276800D02*
X486300D01*
D80*
X661500Y331500D02*
X691500D01*
Y300500D02*
Y331500D01*
X661500Y300500D02*
X691500D01*
X661500D02*
Y331500D01*
M02*
