G04*
G04 #@! TF.GenerationSoftware,Altium Limited,Altium Designer,21.6.4 (81)*
G04*
G04 Layer_Color=2752767*
%FSLAX44Y44*%
%MOMM*%
G71*
G04*
G04 #@! TF.SameCoordinates,27B0D74A-EB15-4392-BC8F-D98A40C3D817*
G04*
G04*
G04 #@! TF.FilePolarity,Positive*
G04*
G01*
G75*
%ADD68C,0.2540*%
%ADD81C,0.0508*%
%ADD82C,0.3810*%
%ADD83C,0.4064*%
D68*
X933525Y249702D02*
G03*
X933525Y249702I-8467J0D01*
G01*
X925059Y279335D02*
X933525Y296268D01*
X916592D02*
X933525D01*
X916592D02*
X925059Y279335D01*
X916592Y203135D02*
X933525D01*
Y220068D01*
X916592D02*
X933525D01*
X916592Y203135D02*
Y220068D01*
Y165035D02*
X925059Y169268D01*
X933525Y165035D01*
X929292Y173502D02*
X933525Y165035D01*
X929292Y173502D02*
X933525Y181968D01*
X925059Y177735D02*
X933525Y181968D01*
X916592D02*
X925059Y177735D01*
X916592Y181968D02*
X920825Y173502D01*
X916592Y165035D02*
X920825Y173502D01*
X3261938Y177731D02*
X3264477Y180270D01*
X3269555D01*
X3272095Y177731D01*
Y167574D01*
X3269555Y165035D01*
X3264477D01*
X3261938Y167574D01*
Y177731D01*
X3279712Y162496D02*
X3282251Y165035D01*
Y167574D01*
X3279712D01*
Y165035D01*
X3282251D01*
X3279712Y162496D01*
X3277173Y159957D01*
X3292408Y165035D02*
X3297486D01*
X3294947D01*
Y180270D01*
X3292408Y177731D01*
X3305104D02*
X3307643Y180270D01*
X3312722D01*
X3315261Y177731D01*
Y167574D01*
X3312722Y165035D01*
X3307643D01*
X3305104Y167574D01*
Y177731D01*
X3320339D02*
X3322878Y180270D01*
X3327957D01*
X3330496Y177731D01*
Y167574D01*
X3327957Y165035D01*
X3322878D01*
X3320339Y167574D01*
Y177731D01*
X3335574Y165035D02*
Y175192D01*
X3338113D01*
X3340652Y172652D01*
Y165035D01*
Y172652D01*
X3343192Y175192D01*
X3345731Y172652D01*
Y165035D01*
X3350809D02*
Y175192D01*
X3353348D01*
X3355887Y172652D01*
Y165035D01*
Y172652D01*
X3358427Y175192D01*
X3360966Y172652D01*
Y165035D01*
X3386358D02*
X3381279Y170113D01*
Y175192D01*
X3386358Y180270D01*
X3393975Y177731D02*
X3396514Y180270D01*
X3401593D01*
X3404132Y177731D01*
Y175192D01*
X3401593Y172652D01*
X3399054D01*
X3401593D01*
X3404132Y170113D01*
Y167574D01*
X3401593Y165035D01*
X3396514D01*
X3393975Y167574D01*
X3411750Y162496D02*
X3414289Y165035D01*
Y167574D01*
X3411750D01*
Y165035D01*
X3414289D01*
X3411750Y162496D01*
X3409210Y159957D01*
X3424445Y167574D02*
X3426985Y165035D01*
X3432063D01*
X3434602Y167574D01*
Y177731D01*
X3432063Y180270D01*
X3426985D01*
X3424445Y177731D01*
Y175192D01*
X3426985Y172652D01*
X3434602D01*
X3447298Y165035D02*
Y180270D01*
X3439680Y172652D01*
X3449837D01*
X3454915Y165035D02*
Y175192D01*
X3457455D01*
X3459994Y172652D01*
Y165035D01*
Y172652D01*
X3462533Y175192D01*
X3465072Y172652D01*
Y165035D01*
X3470150D02*
X3475229D01*
X3472690D01*
Y175192D01*
X3470150D01*
X3482846Y165035D02*
X3487925D01*
X3485386D01*
Y180270D01*
X3482846D01*
X3495542Y165035D02*
X3500621Y170113D01*
Y175192D01*
X3495542Y180270D01*
X2923202Y177731D02*
X2925741Y180270D01*
X2930819D01*
X2933358Y177731D01*
Y167574D01*
X2930819Y165035D01*
X2925741D01*
X2923202Y167574D01*
Y177731D01*
X2940976Y162496D02*
X2943515Y165035D01*
Y167574D01*
X2940976D01*
Y165035D01*
X2943515D01*
X2940976Y162496D01*
X2938437Y159957D01*
X2953672Y165035D02*
X2958750D01*
X2956211D01*
Y180270D01*
X2953672Y177731D01*
X2966367D02*
X2968907Y180270D01*
X2973985D01*
X2976524Y177731D01*
Y167574D01*
X2973985Y165035D01*
X2968907D01*
X2966367Y167574D01*
Y177731D01*
X2981602D02*
X2984142Y180270D01*
X2989220D01*
X2991759Y177731D01*
Y167574D01*
X2989220Y165035D01*
X2984142D01*
X2981602Y167574D01*
Y177731D01*
X2996838Y165035D02*
Y175192D01*
X2999377D01*
X3001916Y172652D01*
Y165035D01*
Y172652D01*
X3004455Y175192D01*
X3006994Y172652D01*
Y165035D01*
X3012073D02*
Y175192D01*
X3014612D01*
X3017151Y172652D01*
Y165035D01*
Y172652D01*
X3019690Y175192D01*
X3022230Y172652D01*
Y165035D01*
X3047621D02*
X3042543Y170113D01*
Y175192D01*
X3047621Y180270D01*
X3055239Y177731D02*
X3057778Y180270D01*
X3062856D01*
X3065396Y177731D01*
Y175192D01*
X3062856Y172652D01*
X3060317D01*
X3062856D01*
X3065396Y170113D01*
Y167574D01*
X3062856Y165035D01*
X3057778D01*
X3055239Y167574D01*
X3073013Y162496D02*
X3075552Y165035D01*
Y167574D01*
X3073013D01*
Y165035D01*
X3075552D01*
X3073013Y162496D01*
X3070474Y159957D01*
X3085709Y167574D02*
X3088248Y165035D01*
X3093326D01*
X3095866Y167574D01*
Y177731D01*
X3093326Y180270D01*
X3088248D01*
X3085709Y177731D01*
Y175192D01*
X3088248Y172652D01*
X3095866D01*
X3108562Y165035D02*
Y180270D01*
X3100944Y172652D01*
X3111101D01*
X3116179Y165035D02*
Y175192D01*
X3118718D01*
X3121258Y172652D01*
Y165035D01*
Y172652D01*
X3123797Y175192D01*
X3126336Y172652D01*
Y165035D01*
X3131414D02*
X3136493D01*
X3133954D01*
Y175192D01*
X3131414D01*
X3144110Y165035D02*
X3149189D01*
X3146649D01*
Y180270D01*
X3144110D01*
X3156806Y165035D02*
X3161884Y170113D01*
Y175192D01*
X3156806Y180270D01*
X2702284D02*
X2712441D01*
X2707362D01*
Y165035D01*
X2717519Y180270D02*
Y165035D01*
Y172652D01*
X2727676D01*
Y180270D01*
Y165035D01*
X2732754Y162496D02*
X2742911D01*
X2747989Y177731D02*
X2750528Y180270D01*
X2755607D01*
X2758146Y177731D01*
Y175192D01*
X2755607Y172652D01*
X2753068D01*
X2755607D01*
X2758146Y170113D01*
Y167574D01*
X2755607Y165035D01*
X2750528D01*
X2747989Y167574D01*
X2763224Y177731D02*
X2765764Y180270D01*
X2770842D01*
X2773381Y177731D01*
Y167574D01*
X2770842Y165035D01*
X2765764D01*
X2763224Y167574D01*
Y177731D01*
X2778459D02*
X2780999Y180270D01*
X2786077D01*
X2788616Y177731D01*
Y167574D01*
X2786077Y165035D01*
X2780999D01*
X2778459Y167574D01*
Y177731D01*
X2793694Y162496D02*
X2803851D01*
X2819086Y180270D02*
X2808929D01*
Y172652D01*
X2814008Y175192D01*
X2816547D01*
X2819086Y172652D01*
Y167574D01*
X2816547Y165035D01*
X2811469D01*
X2808929Y167574D01*
X2834321Y180270D02*
X2824164D01*
Y172652D01*
X2829243Y175192D01*
X2831782D01*
X2834321Y172652D01*
Y167574D01*
X2831782Y165035D01*
X2826704D01*
X2824164Y167574D01*
X2839400Y177731D02*
X2841939Y180270D01*
X2847017D01*
X2849556Y177731D01*
Y167574D01*
X2847017Y165035D01*
X2841939D01*
X2839400Y167574D01*
Y177731D01*
X2854635Y162496D02*
X2864791D01*
X2869870Y175192D02*
Y167574D01*
X2872409Y165035D01*
X2880027D01*
Y175192D01*
X2885105Y165035D02*
Y175192D01*
X2887644D01*
X2890183Y172652D01*
Y165035D01*
Y172652D01*
X2892722Y175192D01*
X2895262Y172652D01*
Y165035D01*
X2532150Y289492D02*
X2524532D01*
X2521993Y286952D01*
Y281874D01*
X2524532Y279335D01*
X2532150D01*
X2537228D02*
X2542307D01*
X2539767D01*
Y294570D01*
X2537228Y292031D01*
X2549924D02*
X2552463Y294570D01*
X2557542D01*
X2560081Y292031D01*
Y281874D01*
X2557542Y279335D01*
X2552463D01*
X2549924Y281874D01*
Y292031D01*
X2565159D02*
X2567698Y294570D01*
X2572777D01*
X2575316Y292031D01*
Y281874D01*
X2572777Y279335D01*
X2567698D01*
X2565159Y281874D01*
Y292031D01*
X2580394Y294570D02*
Y279335D01*
Y286952D01*
X2582933Y289492D01*
X2588012D01*
X2590551Y286952D01*
Y279335D01*
X2595629D02*
X2600708D01*
X2598169D01*
Y294570D01*
X2595629Y292031D01*
X2608325D02*
X2610865Y294570D01*
X2615943D01*
X2618482Y292031D01*
Y281874D01*
X2615943Y279335D01*
X2610865D01*
X2608325Y281874D01*
Y292031D01*
X2623560D02*
X2626100Y294570D01*
X2631178D01*
X2633717Y292031D01*
Y281874D01*
X2631178Y279335D01*
X2626100D01*
X2623560Y281874D01*
Y292031D01*
X2638795Y274257D02*
Y289492D01*
X2646413D01*
X2648952Y286952D01*
Y281874D01*
X2646413Y279335D01*
X2638795D01*
X2654030Y286952D02*
X2664187D01*
X2669266Y279335D02*
X2674344D01*
X2671805D01*
Y294570D01*
X2669266Y292031D01*
X2532150Y251392D02*
X2524532D01*
X2521993Y248853D01*
Y243774D01*
X2524532Y241235D01*
X2532150D01*
X2537228D02*
X2542307D01*
X2539767D01*
Y256470D01*
X2537228Y253931D01*
X2549924D02*
X2552463Y256470D01*
X2557542D01*
X2560081Y253931D01*
Y251392D01*
X2557542Y248853D01*
X2560081Y246313D01*
Y243774D01*
X2557542Y241235D01*
X2552463D01*
X2549924Y243774D01*
Y246313D01*
X2552463Y248853D01*
X2549924Y251392D01*
Y253931D01*
X2552463Y248853D02*
X2557542D01*
X2565159Y253931D02*
X2567698Y256470D01*
X2572777D01*
X2575316Y253931D01*
Y243774D01*
X2572777Y241235D01*
X2567698D01*
X2565159Y243774D01*
Y253931D01*
X2580394Y256470D02*
Y241235D01*
Y248853D01*
X2582933Y251392D01*
X2588012D01*
X2590551Y248853D01*
Y241235D01*
X2595629D02*
Y251392D01*
X2603247D01*
X2605786Y248853D01*
Y241235D01*
X2610865D02*
X2615943D01*
X2613404D01*
Y256470D01*
X2610865Y253931D01*
X2623560D02*
X2626100Y256470D01*
X2631178D01*
X2633717Y253931D01*
Y251392D01*
X2631178Y248853D01*
X2633717Y246313D01*
Y243774D01*
X2631178Y241235D01*
X2626100D01*
X2623560Y243774D01*
Y246313D01*
X2626100Y248853D01*
X2623560Y251392D01*
Y253931D01*
X2626100Y248853D02*
X2631178D01*
X2638795Y253931D02*
X2641335Y256470D01*
X2646413D01*
X2648952Y253931D01*
Y243774D01*
X2646413Y241235D01*
X2641335D01*
X2638795Y243774D01*
Y253931D01*
X2527072Y203135D02*
X2521993Y208213D01*
Y213292D01*
X2527072Y218370D01*
X2534689Y203135D02*
Y218370D01*
X2539767Y213292D01*
X2544846Y218370D01*
Y203135D01*
X2549924D02*
X2555003D01*
X2552463D01*
Y213292D01*
X2549924D01*
X2562620D02*
X2572777Y203135D01*
X2567698Y208213D01*
X2572777Y213292D01*
X2562620Y203135D01*
X2585473D02*
X2580394D01*
X2577855Y205674D01*
Y210753D01*
X2580394Y213292D01*
X2585473D01*
X2588012Y210753D01*
Y208213D01*
X2577855D01*
X2603247Y218370D02*
Y203135D01*
X2595629D01*
X2593090Y205674D01*
Y210753D01*
X2595629Y213292D01*
X2603247D01*
X2608325Y203135D02*
X2613404Y208213D01*
Y213292D01*
X2608325Y218370D01*
X2521993Y175192D02*
X2527072Y165035D01*
X2532150Y175192D01*
X2547385Y180270D02*
X2537228D01*
Y172652D01*
X2542307Y175192D01*
X2544846D01*
X2547385Y172652D01*
Y167574D01*
X2544846Y165035D01*
X2539767D01*
X2537228Y167574D01*
X2562620Y180270D02*
X2552463D01*
Y172652D01*
X2557542Y175192D01*
X2560081D01*
X2562620Y172652D01*
Y167574D01*
X2560081Y165035D01*
X2555003D01*
X2552463Y167574D01*
X2567698Y177731D02*
X2570238Y180270D01*
X2575316D01*
X2577855Y177731D01*
Y167574D01*
X2575316Y165035D01*
X2570238D01*
X2567698Y167574D01*
Y177731D01*
X2582933Y180270D02*
Y165035D01*
Y172652D01*
X2585473Y175192D01*
X2590551D01*
X2593090Y172652D01*
Y165035D01*
X2598169Y177731D02*
X2600708Y180270D01*
X2605786D01*
X2608325Y177731D01*
Y167574D01*
X2605786Y165035D01*
X2600708D01*
X2598169Y167574D01*
Y177731D01*
X2613404D02*
X2615943Y180270D01*
X2621021D01*
X2623560Y177731D01*
Y175192D01*
X2621021Y172652D01*
X2618482D01*
X2621021D01*
X2623560Y170113D01*
Y167574D01*
X2621021Y165035D01*
X2615943D01*
X2613404Y167574D01*
X2628639Y177731D02*
X2631178Y180270D01*
X2636256D01*
X2638795Y177731D01*
Y167574D01*
X2636256Y165035D01*
X2631178D01*
X2628639Y167574D01*
Y177731D01*
X2643874D02*
X2646413Y180270D01*
X2651491D01*
X2654030Y177731D01*
Y167574D01*
X2651491Y165035D01*
X2646413D01*
X2643874Y167574D01*
Y177731D01*
X2332560Y279335D02*
Y294570D01*
X2340178D01*
X2342717Y292031D01*
Y286952D01*
X2340178Y284413D01*
X2332560D01*
X2337639D02*
X2342717Y279335D01*
X2350335D02*
X2355413D01*
X2357952Y281874D01*
Y286952D01*
X2355413Y289492D01*
X2350335D01*
X2347796Y286952D01*
Y281874D01*
X2350335Y279335D01*
X2363031Y289492D02*
Y281874D01*
X2365570Y279335D01*
X2373187D01*
Y289492D01*
X2378266Y279335D02*
Y289492D01*
X2385883D01*
X2388423Y286952D01*
Y279335D01*
X2403658Y294570D02*
Y279335D01*
X2396040D01*
X2393501Y281874D01*
Y286952D01*
X2396040Y289492D01*
X2403658D01*
X2416353Y279335D02*
X2411275D01*
X2408736Y281874D01*
Y286952D01*
X2411275Y289492D01*
X2416353D01*
X2418893Y286952D01*
Y284413D01*
X2408736D01*
X2434128Y294570D02*
Y279335D01*
X2426510D01*
X2423971Y281874D01*
Y286952D01*
X2426510Y289492D01*
X2434128D01*
X2332560Y241235D02*
Y256470D01*
X2340178D01*
X2342717Y253931D01*
Y248853D01*
X2340178Y246313D01*
X2332560D01*
X2337639D02*
X2342717Y241235D01*
X2350335D02*
X2355413D01*
X2357952Y243774D01*
Y248853D01*
X2355413Y251392D01*
X2350335D01*
X2347796Y248853D01*
Y243774D01*
X2350335Y241235D01*
X2363031Y251392D02*
Y243774D01*
X2365570Y241235D01*
X2373187D01*
Y251392D01*
X2378266Y241235D02*
Y251392D01*
X2385883D01*
X2388423Y248853D01*
Y241235D01*
X2403658Y256470D02*
Y241235D01*
X2396040D01*
X2393501Y243774D01*
Y248853D01*
X2396040Y251392D01*
X2403658D01*
X2416353Y241235D02*
X2411275D01*
X2408736Y243774D01*
Y248853D01*
X2411275Y251392D01*
X2416353D01*
X2418893Y248853D01*
Y246313D01*
X2408736D01*
X2434128Y256470D02*
Y241235D01*
X2426510D01*
X2423971Y243774D01*
Y248853D01*
X2426510Y251392D01*
X2434128D01*
X2337639Y203135D02*
X2332560Y208213D01*
Y213292D01*
X2337639Y218370D01*
X2345256Y203135D02*
Y218370D01*
X2350335Y213292D01*
X2355413Y218370D01*
Y203135D01*
X2360491D02*
X2365570D01*
X2363031D01*
Y213292D01*
X2360491D01*
X2373187D02*
X2383344Y203135D01*
X2378266Y208213D01*
X2383344Y213292D01*
X2373187Y203135D01*
X2396040D02*
X2390962D01*
X2388423Y205674D01*
Y210753D01*
X2390962Y213292D01*
X2396040D01*
X2398579Y210753D01*
Y208213D01*
X2388423D01*
X2413814Y218370D02*
Y203135D01*
X2406197D01*
X2403658Y205674D01*
Y210753D01*
X2406197Y213292D01*
X2413814D01*
X2418893Y203135D02*
X2423971Y208213D01*
Y213292D01*
X2418893Y218370D01*
X2332560Y165035D02*
Y180270D01*
X2340178D01*
X2342717Y177731D01*
Y172652D01*
X2340178Y170113D01*
X2332560D01*
X2337639D02*
X2342717Y165035D01*
X2350335D02*
X2355413D01*
X2357952Y167574D01*
Y172652D01*
X2355413Y175192D01*
X2350335D01*
X2347796Y172652D01*
Y167574D01*
X2350335Y165035D01*
X2363031Y175192D02*
Y167574D01*
X2365570Y165035D01*
X2373187D01*
Y175192D01*
X2378266Y165035D02*
Y175192D01*
X2385883D01*
X2388423Y172652D01*
Y165035D01*
X2403658Y180270D02*
Y165035D01*
X2396040D01*
X2393501Y167574D01*
Y172652D01*
X2396040Y175192D01*
X2403658D01*
X2416353Y165035D02*
X2411275D01*
X2408736Y167574D01*
Y172652D01*
X2411275Y175192D01*
X2416353D01*
X2418893Y172652D01*
Y170113D01*
X2408736D01*
X2434128Y180270D02*
Y165035D01*
X2426510D01*
X2423971Y167574D01*
Y172652D01*
X2426510Y175192D01*
X2434128D01*
X2182739Y279335D02*
Y294570D01*
X2190356D01*
X2192896Y292031D01*
Y286952D01*
X2190356Y284413D01*
X2182739D01*
X2200513Y289492D02*
X2205592D01*
X2208131Y286952D01*
Y279335D01*
X2200513D01*
X2197974Y281874D01*
X2200513Y284413D01*
X2208131D01*
X2223366Y294570D02*
Y279335D01*
X2215748D01*
X2213209Y281874D01*
Y286952D01*
X2215748Y289492D01*
X2223366D01*
X2182739Y241235D02*
Y256470D01*
X2190356D01*
X2192896Y253931D01*
Y248853D01*
X2190356Y246313D01*
X2182739D01*
X2200513Y251392D02*
X2205592D01*
X2208131Y248853D01*
Y241235D01*
X2200513D01*
X2197974Y243774D01*
X2200513Y246313D01*
X2208131D01*
X2223366Y256470D02*
Y241235D01*
X2215748D01*
X2213209Y243774D01*
Y248853D01*
X2215748Y251392D01*
X2223366D01*
X2182739Y203135D02*
Y218370D01*
X2190356D01*
X2192896Y215831D01*
Y210753D01*
X2190356Y208213D01*
X2182739D01*
X2200513Y213292D02*
X2205592D01*
X2208131Y210753D01*
Y203135D01*
X2200513D01*
X2197974Y205674D01*
X2200513Y208213D01*
X2208131D01*
X2223366Y218370D02*
Y203135D01*
X2215748D01*
X2213209Y205674D01*
Y210753D01*
X2215748Y213292D01*
X2223366D01*
X2182739Y180270D02*
Y170113D01*
X2187817Y165035D01*
X2192896Y170113D01*
Y180270D01*
X2197974Y165035D02*
X2203052D01*
X2200513D01*
Y175192D01*
X2197974D01*
X2213209D02*
X2218288D01*
X2220827Y172652D01*
Y165035D01*
X2213209D01*
X2210670Y167574D01*
X2213209Y170113D01*
X2220827D01*
X1801853Y294570D02*
X1812010D01*
X1806931D01*
Y279335D01*
X1819627D02*
X1824706D01*
X1827245Y281874D01*
Y286952D01*
X1824706Y289492D01*
X1819627D01*
X1817088Y286952D01*
Y281874D01*
X1819627Y279335D01*
X1832323Y274257D02*
Y289492D01*
X1839941D01*
X1842480Y286952D01*
Y281874D01*
X1839941Y279335D01*
X1832323D01*
X1862793Y294570D02*
Y279335D01*
X1872950D01*
X1880568Y289492D02*
X1885646D01*
X1888185Y286952D01*
Y279335D01*
X1880568D01*
X1878029Y281874D01*
X1880568Y284413D01*
X1888185D01*
X1893264Y289492D02*
Y281874D01*
X1895803Y279335D01*
X1903420D01*
Y276796D01*
X1900881Y274257D01*
X1898342D01*
X1903420Y279335D02*
Y289492D01*
X1916116Y279335D02*
X1911038D01*
X1908499Y281874D01*
Y286952D01*
X1911038Y289492D01*
X1916116D01*
X1918655Y286952D01*
Y284413D01*
X1908499D01*
X1923734Y289492D02*
Y279335D01*
Y284413D01*
X1926273Y286952D01*
X1928812Y289492D01*
X1931351D01*
X1954204Y286952D02*
X1964361D01*
X1984674Y294570D02*
Y279335D01*
X1992292D01*
X1994831Y281874D01*
Y284413D01*
X1992292Y286952D01*
X1984674D01*
X1992292D01*
X1994831Y289492D01*
Y292031D01*
X1992292Y294570D01*
X1984674D01*
X2002448Y279335D02*
X2007527D01*
X2010066Y281874D01*
Y286952D01*
X2007527Y289492D01*
X2002448D01*
X1999909Y286952D01*
Y281874D01*
X2002448Y279335D01*
X2017683Y292031D02*
Y289492D01*
X2015144D01*
X2020222D01*
X2017683D01*
Y281874D01*
X2020222Y279335D01*
X2030379Y292031D02*
Y289492D01*
X2027840D01*
X2032918D01*
X2030379D01*
Y281874D01*
X2032918Y279335D01*
X2043075D02*
X2048154D01*
X2050693Y281874D01*
Y286952D01*
X2048154Y289492D01*
X2043075D01*
X2040536Y286952D01*
Y281874D01*
X2043075Y279335D01*
X2055771D02*
Y289492D01*
X2058310D01*
X2060849Y286952D01*
Y279335D01*
Y286952D01*
X2063389Y289492D01*
X2065928Y286952D01*
Y279335D01*
X2086241Y294570D02*
Y279335D01*
X2096398D01*
X2104015Y289492D02*
X2109094D01*
X2111633Y286952D01*
Y279335D01*
X2104015D01*
X2101476Y281874D01*
X2104015Y284413D01*
X2111633D01*
X2116711Y289492D02*
Y281874D01*
X2119250Y279335D01*
X2126868D01*
Y276796D01*
X2124329Y274257D01*
X2121790D01*
X2126868Y279335D02*
Y289492D01*
X2139564Y279335D02*
X2134486D01*
X2131946Y281874D01*
Y286952D01*
X2134486Y289492D01*
X2139564D01*
X2142103Y286952D01*
Y284413D01*
X2131946D01*
X2147182Y289492D02*
Y279335D01*
Y284413D01*
X2149721Y286952D01*
X2152260Y289492D01*
X2154799D01*
X1801853Y256470D02*
X1812010D01*
X1806931D01*
Y241235D01*
X1819627D02*
X1824706D01*
X1827245Y243774D01*
Y248853D01*
X1824706Y251392D01*
X1819627D01*
X1817088Y248853D01*
Y243774D01*
X1819627Y241235D01*
X1832323Y236157D02*
Y251392D01*
X1839941D01*
X1842480Y248853D01*
Y243774D01*
X1839941Y241235D01*
X1832323D01*
X1862793Y256470D02*
Y241235D01*
X1872950D01*
X1880568Y251392D02*
X1885646D01*
X1888185Y248853D01*
Y241235D01*
X1880568D01*
X1878029Y243774D01*
X1880568Y246313D01*
X1888185D01*
X1893264Y251392D02*
Y243774D01*
X1895803Y241235D01*
X1903420D01*
Y238696D01*
X1900881Y236157D01*
X1898342D01*
X1903420Y241235D02*
Y251392D01*
X1916116Y241235D02*
X1911038D01*
X1908499Y243774D01*
Y248853D01*
X1911038Y251392D01*
X1916116D01*
X1918655Y248853D01*
Y246313D01*
X1908499D01*
X1923734Y251392D02*
Y241235D01*
Y246313D01*
X1926273Y248853D01*
X1928812Y251392D01*
X1931351D01*
X1954204Y248853D02*
X1964361D01*
X1984674Y256470D02*
Y241235D01*
X1992292D01*
X1994831Y243774D01*
Y246313D01*
X1992292Y248853D01*
X1984674D01*
X1992292D01*
X1994831Y251392D01*
Y253931D01*
X1992292Y256470D01*
X1984674D01*
X2002448Y241235D02*
X2007527D01*
X2010066Y243774D01*
Y248853D01*
X2007527Y251392D01*
X2002448D01*
X1999909Y248853D01*
Y243774D01*
X2002448Y241235D01*
X2017683Y253931D02*
Y251392D01*
X2015144D01*
X2020222D01*
X2017683D01*
Y243774D01*
X2020222Y241235D01*
X2030379Y253931D02*
Y251392D01*
X2027840D01*
X2032918D01*
X2030379D01*
Y243774D01*
X2032918Y241235D01*
X2043075D02*
X2048154D01*
X2050693Y243774D01*
Y248853D01*
X2048154Y251392D01*
X2043075D01*
X2040536Y248853D01*
Y243774D01*
X2043075Y241235D01*
X2055771D02*
Y251392D01*
X2058310D01*
X2060849Y248853D01*
Y241235D01*
Y248853D01*
X2063389Y251392D01*
X2065928Y248853D01*
Y241235D01*
X2086241Y256470D02*
Y241235D01*
X2096398D01*
X2104015Y251392D02*
X2109094D01*
X2111633Y248853D01*
Y241235D01*
X2104015D01*
X2101476Y243774D01*
X2104015Y246313D01*
X2111633D01*
X2116711Y251392D02*
Y243774D01*
X2119250Y241235D01*
X2126868D01*
Y238696D01*
X2124329Y236157D01*
X2121790D01*
X2126868Y241235D02*
Y251392D01*
X2139564Y241235D02*
X2134486D01*
X2131946Y243774D01*
Y248853D01*
X2134486Y251392D01*
X2139564D01*
X2142103Y248853D01*
Y246313D01*
X2131946D01*
X2147182Y251392D02*
Y241235D01*
Y246313D01*
X2149721Y248853D01*
X2152260Y251392D01*
X2154799D01*
X1801853Y218370D02*
X1812010D01*
X1806931D01*
Y203135D01*
X1819627D02*
X1824706D01*
X1827245Y205674D01*
Y210753D01*
X1824706Y213292D01*
X1819627D01*
X1817088Y210753D01*
Y205674D01*
X1819627Y203135D01*
X1832323Y198057D02*
Y213292D01*
X1839941D01*
X1842480Y210753D01*
Y205674D01*
X1839941Y203135D01*
X1832323D01*
X1862793Y218370D02*
Y203135D01*
X1872950D01*
X1880568Y213292D02*
X1885646D01*
X1888185Y210753D01*
Y203135D01*
X1880568D01*
X1878029Y205674D01*
X1880568Y208213D01*
X1888185D01*
X1893264Y213292D02*
Y205674D01*
X1895803Y203135D01*
X1903420D01*
Y200596D01*
X1900881Y198057D01*
X1898342D01*
X1903420Y203135D02*
Y213292D01*
X1916116Y203135D02*
X1911038D01*
X1908499Y205674D01*
Y210753D01*
X1911038Y213292D01*
X1916116D01*
X1918655Y210753D01*
Y208213D01*
X1908499D01*
X1923734Y213292D02*
Y203135D01*
Y208213D01*
X1926273Y210753D01*
X1928812Y213292D01*
X1931351D01*
X1954204Y210753D02*
X1964361D01*
X1984674Y218370D02*
Y203135D01*
X1992292D01*
X1994831Y205674D01*
Y208213D01*
X1992292Y210753D01*
X1984674D01*
X1992292D01*
X1994831Y213292D01*
Y215831D01*
X1992292Y218370D01*
X1984674D01*
X2002448Y203135D02*
X2007527D01*
X2010066Y205674D01*
Y210753D01*
X2007527Y213292D01*
X2002448D01*
X1999909Y210753D01*
Y205674D01*
X2002448Y203135D01*
X2017683Y215831D02*
Y213292D01*
X2015144D01*
X2020222D01*
X2017683D01*
Y205674D01*
X2020222Y203135D01*
X2030379Y215831D02*
Y213292D01*
X2027840D01*
X2032918D01*
X2030379D01*
Y205674D01*
X2032918Y203135D01*
X2043075D02*
X2048154D01*
X2050693Y205674D01*
Y210753D01*
X2048154Y213292D01*
X2043075D01*
X2040536Y210753D01*
Y205674D01*
X2043075Y203135D01*
X2055771D02*
Y213292D01*
X2058310D01*
X2060849Y210753D01*
Y203135D01*
Y210753D01*
X2063389Y213292D01*
X2065928Y210753D01*
Y203135D01*
X2086241Y218370D02*
Y203135D01*
X2096398D01*
X2104015Y213292D02*
X2109094D01*
X2111633Y210753D01*
Y203135D01*
X2104015D01*
X2101476Y205674D01*
X2104015Y208213D01*
X2111633D01*
X2116711Y213292D02*
Y205674D01*
X2119250Y203135D01*
X2126868D01*
Y200596D01*
X2124329Y198057D01*
X2121790D01*
X2126868Y203135D02*
Y213292D01*
X2139564Y203135D02*
X2134486D01*
X2131946Y205674D01*
Y210753D01*
X2134486Y213292D01*
X2139564D01*
X2142103Y210753D01*
Y208213D01*
X2131946D01*
X2147182Y213292D02*
Y203135D01*
Y208213D01*
X2149721Y210753D01*
X2152260Y213292D01*
X2154799D01*
X1801853Y180270D02*
X1812010D01*
X1806931D01*
Y165035D01*
X1819627D02*
X1824706D01*
X1827245Y167574D01*
Y172652D01*
X1824706Y175192D01*
X1819627D01*
X1817088Y172652D01*
Y167574D01*
X1819627Y165035D01*
X1832323Y159957D02*
Y175192D01*
X1839941D01*
X1842480Y172652D01*
Y167574D01*
X1839941Y165035D01*
X1832323D01*
X1862793Y180270D02*
Y165035D01*
X1872950D01*
X1880568Y175192D02*
X1885646D01*
X1888185Y172652D01*
Y165035D01*
X1880568D01*
X1878029Y167574D01*
X1880568Y170113D01*
X1888185D01*
X1893264Y175192D02*
Y167574D01*
X1895803Y165035D01*
X1903420D01*
Y162496D01*
X1900881Y159957D01*
X1898342D01*
X1903420Y165035D02*
Y175192D01*
X1916116Y165035D02*
X1911038D01*
X1908499Y167574D01*
Y172652D01*
X1911038Y175192D01*
X1916116D01*
X1918655Y172652D01*
Y170113D01*
X1908499D01*
X1923734Y175192D02*
Y165035D01*
Y170113D01*
X1926273Y172652D01*
X1928812Y175192D01*
X1931351D01*
X1954204Y172652D02*
X1964361D01*
X1984674Y180270D02*
Y165035D01*
X1992292D01*
X1994831Y167574D01*
Y170113D01*
X1992292Y172652D01*
X1984674D01*
X1992292D01*
X1994831Y175192D01*
Y177731D01*
X1992292Y180270D01*
X1984674D01*
X2002448Y165035D02*
X2007527D01*
X2010066Y167574D01*
Y172652D01*
X2007527Y175192D01*
X2002448D01*
X1999909Y172652D01*
Y167574D01*
X2002448Y165035D01*
X2017683Y177731D02*
Y175192D01*
X2015144D01*
X2020222D01*
X2017683D01*
Y167574D01*
X2020222Y165035D01*
X2030379Y177731D02*
Y175192D01*
X2027840D01*
X2032918D01*
X2030379D01*
Y167574D01*
X2032918Y165035D01*
X2043075D02*
X2048154D01*
X2050693Y167574D01*
Y172652D01*
X2048154Y175192D01*
X2043075D01*
X2040536Y172652D01*
Y167574D01*
X2043075Y165035D01*
X2055771D02*
Y175192D01*
X2058310D01*
X2060849Y172652D01*
Y165035D01*
Y172652D01*
X2063389Y175192D01*
X2065928Y172652D01*
Y165035D01*
X2086241Y180270D02*
Y165035D01*
X2096398D01*
X2104015Y175192D02*
X2109094D01*
X2111633Y172652D01*
Y165035D01*
X2104015D01*
X2101476Y167574D01*
X2104015Y170113D01*
X2111633D01*
X2116711Y175192D02*
Y167574D01*
X2119250Y165035D01*
X2126868D01*
Y162496D01*
X2124329Y159957D01*
X2121790D01*
X2126868Y165035D02*
Y175192D01*
X2139564Y165035D02*
X2134486D01*
X2131946Y167574D01*
Y172652D01*
X2134486Y175192D01*
X2139564D01*
X2142103Y172652D01*
Y170113D01*
X2131946D01*
X2147182Y175192D02*
Y165035D01*
Y170113D01*
X2149721Y172652D01*
X2152260Y175192D01*
X2154799D01*
X1615468Y279335D02*
Y294570D01*
X1623085D01*
X1625624Y292031D01*
Y286952D01*
X1623085Y284413D01*
X1615468D01*
X1620546D02*
X1625624Y279335D01*
X1633242D02*
X1638320D01*
X1640859Y281874D01*
Y286952D01*
X1638320Y289492D01*
X1633242D01*
X1630703Y286952D01*
Y281874D01*
X1633242Y279335D01*
X1645938Y289492D02*
Y281874D01*
X1648477Y279335D01*
X1656094D01*
Y289492D01*
X1661173Y279335D02*
Y289492D01*
X1668790D01*
X1671329Y286952D01*
Y279335D01*
X1686564Y294570D02*
Y279335D01*
X1678947D01*
X1676408Y281874D01*
Y286952D01*
X1678947Y289492D01*
X1686564D01*
X1615468Y241235D02*
Y256470D01*
X1623085D01*
X1625624Y253931D01*
Y248853D01*
X1623085Y246313D01*
X1615468D01*
X1620546D02*
X1625624Y241235D01*
X1633242D02*
X1638320D01*
X1640859Y243774D01*
Y248853D01*
X1638320Y251392D01*
X1633242D01*
X1630703Y248853D01*
Y243774D01*
X1633242Y241235D01*
X1645938Y251392D02*
Y243774D01*
X1648477Y241235D01*
X1656094D01*
Y251392D01*
X1661173Y241235D02*
Y251392D01*
X1668790D01*
X1671329Y248853D01*
Y241235D01*
X1686564Y256470D02*
Y241235D01*
X1678947D01*
X1676408Y243774D01*
Y248853D01*
X1678947Y251392D01*
X1686564D01*
X1615468Y203135D02*
Y218370D01*
X1623085D01*
X1625624Y215831D01*
Y210753D01*
X1623085Y208213D01*
X1615468D01*
X1620546D02*
X1625624Y203135D01*
X1633242D02*
X1638320D01*
X1640859Y205674D01*
Y210753D01*
X1638320Y213292D01*
X1633242D01*
X1630703Y210753D01*
Y205674D01*
X1633242Y203135D01*
X1645938Y213292D02*
Y205674D01*
X1648477Y203135D01*
X1656094D01*
Y213292D01*
X1661173Y203135D02*
Y213292D01*
X1668790D01*
X1671329Y210753D01*
Y203135D01*
X1686564Y218370D02*
Y203135D01*
X1678947D01*
X1676408Y205674D01*
Y210753D01*
X1678947Y213292D01*
X1686564D01*
X1615468Y165035D02*
Y180270D01*
X1623085D01*
X1625624Y177731D01*
Y172652D01*
X1623085Y170113D01*
X1615468D01*
X1620546D02*
X1625624Y165035D01*
X1633242D02*
X1638320D01*
X1640859Y167574D01*
Y172652D01*
X1638320Y175192D01*
X1633242D01*
X1630703Y172652D01*
Y167574D01*
X1633242Y165035D01*
X1645938Y175192D02*
Y167574D01*
X1648477Y165035D01*
X1656094D01*
Y175192D01*
X1661173Y165035D02*
Y175192D01*
X1668790D01*
X1671329Y172652D01*
Y165035D01*
X1686564Y180270D02*
Y165035D01*
X1678947D01*
X1676408Y167574D01*
Y172652D01*
X1678947Y175192D01*
X1686564D01*
X1486975Y279335D02*
Y294570D01*
X1494592D01*
X1497132Y292031D01*
Y286952D01*
X1494592Y284413D01*
X1486975D01*
X1502210Y294570D02*
X1512367D01*
X1507288D01*
Y279335D01*
X1517445Y294570D02*
Y279335D01*
Y286952D01*
X1527602D01*
Y294570D01*
Y279335D01*
X1486975Y241235D02*
Y256470D01*
X1497132Y241235D01*
Y256470D01*
X1502210Y241235D02*
Y256470D01*
X1509828D01*
X1512367Y253931D01*
Y248853D01*
X1509828Y246313D01*
X1502210D01*
X1517445Y256470D02*
X1527602D01*
X1522523D01*
Y241235D01*
X1532680Y256470D02*
Y241235D01*
Y248853D01*
X1542837D01*
Y256470D01*
Y241235D01*
X1486975Y203135D02*
Y218370D01*
X1494592D01*
X1497132Y215831D01*
Y210753D01*
X1494592Y208213D01*
X1486975D01*
X1502210Y218370D02*
X1512367D01*
X1507288D01*
Y203135D01*
X1517445Y218370D02*
Y203135D01*
Y210753D01*
X1527602D01*
Y218370D01*
Y203135D01*
X1486975Y165035D02*
Y180270D01*
X1494592D01*
X1497132Y177731D01*
Y172652D01*
X1494592Y170113D01*
X1486975D01*
X1502210Y180270D02*
X1512367D01*
X1507288D01*
Y165035D01*
X1517445Y180270D02*
Y165035D01*
Y172652D01*
X1527602D01*
Y180270D01*
Y165035D01*
X1205117Y279335D02*
X1210195D01*
X1207656D01*
Y294570D01*
X1205117Y292031D01*
X1220352Y276796D02*
X1222891Y279335D01*
Y281874D01*
X1220352D01*
Y279335D01*
X1222891D01*
X1220352Y276796D01*
X1217813Y274257D01*
X1233048Y292031D02*
X1235587Y294570D01*
X1240666D01*
X1243205Y292031D01*
Y281874D01*
X1240666Y279335D01*
X1235587D01*
X1233048Y281874D01*
Y292031D01*
X1248283D02*
X1250822Y294570D01*
X1255901D01*
X1258440Y292031D01*
Y281874D01*
X1255901Y279335D01*
X1250822D01*
X1248283Y281874D01*
Y292031D01*
X1263518D02*
X1266058Y294570D01*
X1271136D01*
X1273675Y292031D01*
Y281874D01*
X1271136Y279335D01*
X1266058D01*
X1263518Y281874D01*
Y292031D01*
X1278753Y279335D02*
Y289492D01*
X1281293D01*
X1283832Y286952D01*
Y279335D01*
Y286952D01*
X1286371Y289492D01*
X1288910Y286952D01*
Y279335D01*
X1293988D02*
Y289492D01*
X1296528D01*
X1299067Y286952D01*
Y279335D01*
Y286952D01*
X1301606Y289492D01*
X1304145Y286952D01*
Y279335D01*
X1329537D02*
X1324459Y284413D01*
Y289492D01*
X1329537Y294570D01*
X1337155Y292031D02*
X1339694Y294570D01*
X1344772D01*
X1347311Y292031D01*
Y289492D01*
X1344772Y286952D01*
X1342233D01*
X1344772D01*
X1347311Y284413D01*
Y281874D01*
X1344772Y279335D01*
X1339694D01*
X1337155Y281874D01*
X1352390D02*
X1354929Y279335D01*
X1360007D01*
X1362546Y281874D01*
Y292031D01*
X1360007Y294570D01*
X1354929D01*
X1352390Y292031D01*
Y289492D01*
X1354929Y286952D01*
X1362546D01*
X1370164Y276796D02*
X1372703Y279335D01*
Y281874D01*
X1370164D01*
Y279335D01*
X1372703D01*
X1370164Y276796D01*
X1367625Y274257D01*
X1382860Y292031D02*
X1385399Y294570D01*
X1390477D01*
X1393016Y292031D01*
Y289492D01*
X1390477Y286952D01*
X1387938D01*
X1390477D01*
X1393016Y284413D01*
Y281874D01*
X1390477Y279335D01*
X1385399D01*
X1382860Y281874D01*
X1398095Y294570D02*
X1408251D01*
Y292031D01*
X1398095Y281874D01*
Y279335D01*
X1413330D02*
Y289492D01*
X1415869D01*
X1418408Y286952D01*
Y279335D01*
Y286952D01*
X1420947Y289492D01*
X1423486Y286952D01*
Y279335D01*
X1428565D02*
X1433643D01*
X1431104D01*
Y289492D01*
X1428565D01*
X1441261Y279335D02*
X1446339D01*
X1443800D01*
Y294570D01*
X1441261D01*
X1453957Y279335D02*
X1459035Y284413D01*
Y289492D01*
X1453957Y294570D01*
X1205117Y241235D02*
X1210195D01*
X1207656D01*
Y256470D01*
X1205117Y253931D01*
X1220352Y238696D02*
X1222891Y241235D01*
Y243774D01*
X1220352D01*
Y241235D01*
X1222891D01*
X1220352Y238696D01*
X1217813Y236157D01*
X1233048Y253931D02*
X1235587Y256470D01*
X1240666D01*
X1243205Y253931D01*
Y251392D01*
X1240666Y248853D01*
X1243205Y246313D01*
Y243774D01*
X1240666Y241235D01*
X1235587D01*
X1233048Y243774D01*
Y246313D01*
X1235587Y248853D01*
X1233048Y251392D01*
Y253931D01*
X1235587Y248853D02*
X1240666D01*
X1248283Y253931D02*
X1250822Y256470D01*
X1255901D01*
X1258440Y253931D01*
Y243774D01*
X1255901Y241235D01*
X1250822D01*
X1248283Y243774D01*
Y253931D01*
X1263518D02*
X1266058Y256470D01*
X1271136D01*
X1273675Y253931D01*
Y243774D01*
X1271136Y241235D01*
X1266058D01*
X1263518Y243774D01*
Y253931D01*
X1278753Y241235D02*
Y251392D01*
X1281293D01*
X1283832Y248853D01*
Y241235D01*
Y248853D01*
X1286371Y251392D01*
X1288910Y248853D01*
Y241235D01*
X1293988D02*
Y251392D01*
X1296528D01*
X1299067Y248853D01*
Y241235D01*
Y248853D01*
X1301606Y251392D01*
X1304145Y248853D01*
Y241235D01*
X1329537D02*
X1324459Y246313D01*
Y251392D01*
X1329537Y256470D01*
X1337155D02*
X1347311D01*
Y253931D01*
X1337155Y243774D01*
Y241235D01*
X1352390Y253931D02*
X1354929Y256470D01*
X1360007D01*
X1362546Y253931D01*
Y243774D01*
X1360007Y241235D01*
X1354929D01*
X1352390Y243774D01*
Y253931D01*
X1370164Y238696D02*
X1372703Y241235D01*
Y243774D01*
X1370164D01*
Y241235D01*
X1372703D01*
X1370164Y238696D01*
X1367625Y236157D01*
X1382860Y253931D02*
X1385399Y256470D01*
X1390477D01*
X1393016Y253931D01*
Y251392D01*
X1390477Y248853D01*
X1393016Y246313D01*
Y243774D01*
X1390477Y241235D01*
X1385399D01*
X1382860Y243774D01*
Y246313D01*
X1385399Y248853D01*
X1382860Y251392D01*
Y253931D01*
X1385399Y248853D02*
X1390477D01*
X1398095Y256470D02*
X1408251D01*
Y253931D01*
X1398095Y243774D01*
Y241235D01*
X1413330D02*
Y251392D01*
X1415869D01*
X1418408Y248853D01*
Y241235D01*
Y248853D01*
X1420947Y251392D01*
X1423486Y248853D01*
Y241235D01*
X1428565D02*
X1433643D01*
X1431104D01*
Y251392D01*
X1428565D01*
X1441261Y241235D02*
X1446339D01*
X1443800D01*
Y256470D01*
X1441261D01*
X1453957Y241235D02*
X1459035Y246313D01*
Y251392D01*
X1453957Y256470D01*
X1205117Y215831D02*
X1207656Y218370D01*
X1212735D01*
X1215274Y215831D01*
Y205674D01*
X1212735Y203135D01*
X1207656D01*
X1205117Y205674D01*
Y215831D01*
X1222891Y200596D02*
X1225431Y203135D01*
Y205674D01*
X1222891D01*
Y203135D01*
X1225431D01*
X1222891Y200596D01*
X1220352Y198057D01*
X1235587Y205674D02*
X1238127Y203135D01*
X1243205D01*
X1245744Y205674D01*
Y215831D01*
X1243205Y218370D01*
X1238127D01*
X1235587Y215831D01*
Y213292D01*
X1238127Y210753D01*
X1245744D01*
X1250822Y203135D02*
X1255901D01*
X1253362D01*
Y218370D01*
X1250822Y215831D01*
X1271136Y203135D02*
Y218370D01*
X1263518Y210753D01*
X1273675D01*
X1278753Y203135D02*
Y213292D01*
X1281293D01*
X1283832Y210753D01*
Y203135D01*
Y210753D01*
X1286371Y213292D01*
X1288910Y210753D01*
Y203135D01*
X1293988D02*
Y213292D01*
X1296528D01*
X1299067Y210753D01*
Y203135D01*
Y210753D01*
X1301606Y213292D01*
X1304145Y210753D01*
Y203135D01*
X1329537D02*
X1324459Y208213D01*
Y213292D01*
X1329537Y218370D01*
X1337155Y215831D02*
X1339694Y218370D01*
X1344772D01*
X1347311Y215831D01*
Y213292D01*
X1344772Y210753D01*
X1342233D01*
X1344772D01*
X1347311Y208213D01*
Y205674D01*
X1344772Y203135D01*
X1339694D01*
X1337155Y205674D01*
X1362546Y218370D02*
X1352390D01*
Y210753D01*
X1357468Y213292D01*
X1360007D01*
X1362546Y210753D01*
Y205674D01*
X1360007Y203135D01*
X1354929D01*
X1352390Y205674D01*
X1370164Y200596D02*
X1372703Y203135D01*
Y205674D01*
X1370164D01*
Y203135D01*
X1372703D01*
X1370164Y200596D01*
X1367625Y198057D01*
X1382860Y205674D02*
X1385399Y203135D01*
X1390477D01*
X1393016Y205674D01*
Y215831D01*
X1390477Y218370D01*
X1385399D01*
X1382860Y215831D01*
Y213292D01*
X1385399Y210753D01*
X1393016D01*
X1398095Y215831D02*
X1400634Y218370D01*
X1405712D01*
X1408251Y215831D01*
Y213292D01*
X1405712Y210753D01*
X1408251Y208213D01*
Y205674D01*
X1405712Y203135D01*
X1400634D01*
X1398095Y205674D01*
Y208213D01*
X1400634Y210753D01*
X1398095Y213292D01*
Y215831D01*
X1400634Y210753D02*
X1405712D01*
X1413330Y203135D02*
Y213292D01*
X1415869D01*
X1418408Y210753D01*
Y203135D01*
Y210753D01*
X1420947Y213292D01*
X1423486Y210753D01*
Y203135D01*
X1428565D02*
X1433643D01*
X1431104D01*
Y213292D01*
X1428565D01*
X1441261Y203135D02*
X1446339D01*
X1443800D01*
Y218370D01*
X1441261D01*
X1453957Y203135D02*
X1459035Y208213D01*
Y213292D01*
X1453957Y218370D01*
X1205117Y177731D02*
X1207656Y180270D01*
X1212735D01*
X1215274Y177731D01*
Y167574D01*
X1212735Y165035D01*
X1207656D01*
X1205117Y167574D01*
Y177731D01*
X1222891Y162496D02*
X1225431Y165035D01*
Y167574D01*
X1222891D01*
Y165035D01*
X1225431D01*
X1222891Y162496D01*
X1220352Y159957D01*
X1235587Y177731D02*
X1238127Y180270D01*
X1243205D01*
X1245744Y177731D01*
Y175192D01*
X1243205Y172652D01*
X1240666D01*
X1243205D01*
X1245744Y170113D01*
Y167574D01*
X1243205Y165035D01*
X1238127D01*
X1235587Y167574D01*
X1250822Y177731D02*
X1253362Y180270D01*
X1258440D01*
X1260979Y177731D01*
Y167574D01*
X1258440Y165035D01*
X1253362D01*
X1250822Y167574D01*
Y177731D01*
X1266058D02*
X1268597Y180270D01*
X1273675D01*
X1276214Y177731D01*
Y167574D01*
X1273675Y165035D01*
X1268597D01*
X1266058Y167574D01*
Y177731D01*
X1281293Y165035D02*
Y175192D01*
X1283832D01*
X1286371Y172652D01*
Y165035D01*
Y172652D01*
X1288910Y175192D01*
X1291449Y172652D01*
Y165035D01*
X1296528D02*
Y175192D01*
X1299067D01*
X1301606Y172652D01*
Y165035D01*
Y172652D01*
X1304145Y175192D01*
X1306684Y172652D01*
Y165035D01*
X1332076D02*
X1326998Y170113D01*
Y175192D01*
X1332076Y180270D01*
X1339694Y165035D02*
X1344772D01*
X1342233D01*
Y180270D01*
X1339694Y177731D01*
X1352390Y165035D02*
X1357468D01*
X1354929D01*
Y180270D01*
X1352390Y177731D01*
X1367625Y162496D02*
X1370164Y165035D01*
Y167574D01*
X1367625D01*
Y165035D01*
X1370164D01*
X1367625Y162496D01*
X1365085Y159957D01*
X1380320Y177731D02*
X1382860Y180270D01*
X1387938D01*
X1390477Y177731D01*
Y175192D01*
X1387938Y172652D01*
X1390477Y170113D01*
Y167574D01*
X1387938Y165035D01*
X1382860D01*
X1380320Y167574D01*
Y170113D01*
X1382860Y172652D01*
X1380320Y175192D01*
Y177731D01*
X1382860Y172652D02*
X1387938D01*
X1395556Y165035D02*
X1400634D01*
X1398095D01*
Y180270D01*
X1395556Y177731D01*
X1408251Y165035D02*
Y175192D01*
X1410791D01*
X1413330Y172652D01*
Y165035D01*
Y172652D01*
X1415869Y175192D01*
X1418408Y172652D01*
Y165035D01*
X1423486D02*
X1428565D01*
X1426026D01*
Y175192D01*
X1423486D01*
X1436182Y165035D02*
X1441261D01*
X1438722D01*
Y180270D01*
X1436182D01*
X1448878Y165035D02*
X1453957Y170113D01*
Y175192D01*
X1448878Y180270D01*
X1062914Y126935D02*
X1052757D01*
X1062914Y137092D01*
Y139631D01*
X1060375Y142170D01*
X1055297D01*
X1052757Y139631D01*
X1067992Y129474D02*
X1070532Y126935D01*
X1075610D01*
X1078149Y129474D01*
Y139631D01*
X1075610Y142170D01*
X1070532D01*
X1067992Y139631D01*
Y137092D01*
X1070532Y134552D01*
X1078149D01*
X1083228Y129474D02*
X1085767Y126935D01*
X1090845D01*
X1093384Y129474D01*
Y139631D01*
X1090845Y142170D01*
X1085767D01*
X1083228Y139631D01*
Y137092D01*
X1085767Y134552D01*
X1093384D01*
X1113698Y142170D02*
X1123854D01*
X1118776D01*
Y126935D01*
X1131472D02*
X1136550D01*
X1139090Y129474D01*
Y134552D01*
X1136550Y137092D01*
X1131472D01*
X1128933Y134552D01*
Y129474D01*
X1131472Y126935D01*
X1146707Y139631D02*
Y137092D01*
X1144168D01*
X1149246D01*
X1146707D01*
Y129474D01*
X1149246Y126935D01*
X1159403Y137092D02*
X1164481D01*
X1167020Y134552D01*
Y126935D01*
X1159403D01*
X1156864Y129474D01*
X1159403Y132013D01*
X1167020D01*
X1172099Y126935D02*
X1177177D01*
X1174638D01*
Y142170D01*
X1172099D01*
X1052757Y292031D02*
X1055297Y294570D01*
X1060375D01*
X1062914Y292031D01*
Y289492D01*
X1060375Y286952D01*
X1057836D01*
X1060375D01*
X1062914Y284413D01*
Y281874D01*
X1060375Y279335D01*
X1055297D01*
X1052757Y281874D01*
X1060375Y241235D02*
Y256470D01*
X1052757Y248853D01*
X1062914D01*
X1052757Y215831D02*
X1055297Y218370D01*
X1060375D01*
X1062914Y215831D01*
Y213292D01*
X1060375Y210753D01*
X1057836D01*
X1060375D01*
X1062914Y208213D01*
Y205674D01*
X1060375Y203135D01*
X1055297D01*
X1052757Y205674D01*
X1067992Y215831D02*
X1070532Y218370D01*
X1075610D01*
X1078149Y215831D01*
Y205674D01*
X1075610Y203135D01*
X1070532D01*
X1067992Y205674D01*
Y215831D01*
X1062914Y165035D02*
X1052757D01*
X1062914Y175192D01*
Y177731D01*
X1060375Y180270D01*
X1055297D01*
X1052757Y177731D01*
X1078149Y180270D02*
X1073071Y177731D01*
X1067992Y172652D01*
Y167574D01*
X1070532Y165035D01*
X1075610D01*
X1078149Y167574D01*
Y170113D01*
X1075610Y172652D01*
X1067992D01*
X1093384Y165035D02*
X1083228D01*
X1093384Y175192D01*
Y177731D01*
X1090845Y180270D01*
X1085767D01*
X1083228Y177731D01*
D81*
X236810Y163800D02*
G03*
X236810Y163800I-2540J0D01*
G01*
X643220D02*
G03*
X643220Y163800I-2540J0D01*
G01*
Y316200D02*
G03*
X643220Y316200I-2540J0D01*
G01*
X236810D02*
G03*
X236810Y316200I-2540J0D01*
G01*
X569460Y287460D02*
X572000Y288730D01*
X574540Y287460D01*
X573270Y290000D02*
X574540Y287460D01*
X573270Y290000D02*
X574540Y292540D01*
X572000Y291270D02*
X574540Y292540D01*
X569460D02*
X572000Y291270D01*
X569460Y292540D02*
X570730Y290000D01*
X569460Y287460D02*
X570730Y290000D01*
X271960Y168960D02*
X274500Y170230D01*
X277040Y168960D01*
X275770Y171500D02*
X277040Y168960D01*
X275770Y171500D02*
X277040Y174040D01*
X274500Y172770D02*
X277040Y174040D01*
X271960D02*
X274500Y172770D01*
X271960Y174040D02*
X273230Y171500D01*
X271960Y168960D02*
X273230Y171500D01*
X277460Y174460D02*
X280000Y175730D01*
X282540Y174460D01*
X281270Y177000D02*
X282540Y174460D01*
X281270Y177000D02*
X282540Y179540D01*
X280000Y178270D02*
X282540Y179540D01*
X277460D02*
X280000Y178270D01*
X277460Y179540D02*
X278730Y177000D01*
X277460Y174460D02*
X278730Y177000D01*
X303960Y263710D02*
X306500Y264980D01*
X309040Y263710D01*
X307770Y266250D02*
X309040Y263710D01*
X307770Y266250D02*
X309040Y268790D01*
X306500Y267520D02*
X309040Y268790D01*
X303960D02*
X306500Y267520D01*
X303960Y268790D02*
X305230Y266250D01*
X303960Y263710D02*
X305230Y266250D01*
X313710Y268460D02*
X316250Y269730D01*
X318790Y268460D01*
X317520Y271000D02*
X318790Y268460D01*
X317520Y271000D02*
X318790Y273540D01*
X316250Y272270D02*
X318790Y273540D01*
X313710D02*
X316250Y272270D01*
X313710Y273540D02*
X314980Y271000D01*
X313710Y268460D02*
X314980Y271000D01*
X380460Y236960D02*
X383000Y238230D01*
X385540Y236960D01*
X384270Y239500D02*
X385540Y236960D01*
X384270Y239500D02*
X385540Y242040D01*
X383000Y240770D02*
X385540Y242040D01*
X380460D02*
X383000Y240770D01*
X380460Y242040D02*
X381730Y239500D01*
X380460Y236960D02*
X381730Y239500D01*
X518210Y240210D02*
X520750Y241480D01*
X523290Y240210D01*
X522020Y242750D02*
X523290Y240210D01*
X522020Y242750D02*
X523290Y245290D01*
X520750Y244020D02*
X523290Y245290D01*
X518210D02*
X520750Y244020D01*
X518210Y245290D02*
X519480Y242750D01*
X518210Y240210D02*
X519480Y242750D01*
X701960Y153960D02*
X704500Y155230D01*
X707040Y153960D01*
X705770Y156500D02*
X707040Y153960D01*
X705770Y156500D02*
X707040Y159040D01*
X704500Y157770D02*
X707040Y159040D01*
X701960D02*
X704500Y157770D01*
X701960Y159040D02*
X703230Y156500D01*
X701960Y153960D02*
X703230Y156500D01*
X273460Y192460D02*
X276000Y193730D01*
X278540Y192460D01*
X277270Y195000D02*
X278540Y192460D01*
X277270Y195000D02*
X278540Y197540D01*
X276000Y196270D02*
X278540Y197540D01*
X273460D02*
X276000Y196270D01*
X273460Y197540D02*
X274730Y195000D01*
X273460Y192460D02*
X274730Y195000D01*
X302460Y240460D02*
X305000Y241730D01*
X307540Y240460D01*
X306270Y243000D02*
X307540Y240460D01*
X306270Y243000D02*
X307540Y245540D01*
X305000Y244270D02*
X307540Y245540D01*
X302460D02*
X305000Y244270D01*
X302460Y245540D02*
X303730Y243000D01*
X302460Y240460D02*
X303730Y243000D01*
X353960Y287460D02*
X356500Y288730D01*
X359040Y287460D01*
X357770Y290000D02*
X359040Y287460D01*
X357770Y290000D02*
X359040Y292540D01*
X356500Y291270D02*
X359040Y292540D01*
X353960D02*
X356500Y291270D01*
X353960Y292540D02*
X355230Y290000D01*
X353960Y287460D02*
X355230Y290000D01*
X375960Y250960D02*
X378500Y252230D01*
X381040Y250960D01*
X379770Y253500D02*
X381040Y250960D01*
X379770Y253500D02*
X381040Y256040D01*
X378500Y254770D02*
X381040Y256040D01*
X375960D02*
X378500Y254770D01*
X375960Y256040D02*
X377230Y253500D01*
X375960Y250960D02*
X377230Y253500D01*
X372460Y308460D02*
X375000Y309730D01*
X377540Y308460D01*
X376270Y311000D02*
X377540Y308460D01*
X376270Y311000D02*
X377540Y313540D01*
X375000Y312270D02*
X377540Y313540D01*
X372460D02*
X375000Y312270D01*
X372460Y313540D02*
X373730Y311000D01*
X372460Y308460D02*
X373730Y311000D01*
X397460Y308460D02*
X400000Y309730D01*
X402540Y308460D01*
X401270Y311000D02*
X402540Y308460D01*
X401270Y311000D02*
X402540Y313540D01*
X400000Y312270D02*
X402540Y313540D01*
X397460D02*
X400000Y312270D01*
X397460Y313540D02*
X398730Y311000D01*
X397460Y308460D02*
X398730Y311000D01*
X422460Y308460D02*
X425000Y309730D01*
X427540Y308460D01*
X426270Y311000D02*
X427540Y308460D01*
X426270Y311000D02*
X427540Y313540D01*
X425000Y312270D02*
X427540Y313540D01*
X422460D02*
X425000Y312270D01*
X422460Y313540D02*
X423730Y311000D01*
X422460Y308460D02*
X423730Y311000D01*
X447460Y308460D02*
X450000Y309730D01*
X452540Y308460D01*
X451270Y311000D02*
X452540Y308460D01*
X451270Y311000D02*
X452540Y313540D01*
X450000Y312270D02*
X452540Y313540D01*
X447460D02*
X450000Y312270D01*
X447460Y313540D02*
X448730Y311000D01*
X447460Y308460D02*
X448730Y311000D01*
X570760Y181960D02*
X573300Y183230D01*
X575840Y181960D01*
X574570Y184500D02*
X575840Y181960D01*
X574570Y184500D02*
X575840Y187040D01*
X573300Y185770D02*
X575840Y187040D01*
X570760D02*
X573300Y185770D01*
X570760Y187040D02*
X572030Y184500D01*
X570760Y181960D02*
X572030Y184500D01*
X578210Y181960D02*
X580750Y183230D01*
X583290Y181960D01*
X582020Y184500D02*
X583290Y181960D01*
X582020Y184500D02*
X583290Y187040D01*
X580750Y185770D02*
X583290Y187040D01*
X578210D02*
X580750Y185770D01*
X578210Y187040D02*
X579480Y184500D01*
X578210Y181960D02*
X579480Y184500D01*
X546460Y195460D02*
X549000Y196730D01*
X551540Y195460D01*
X550270Y198000D02*
X551540Y195460D01*
X550270Y198000D02*
X551540Y200540D01*
X549000Y199270D02*
X551540Y200540D01*
X546460D02*
X549000Y199270D01*
X546460Y200540D02*
X547730Y198000D01*
X546460Y195460D02*
X547730Y198000D01*
X680960Y191460D02*
X683500Y192730D01*
X686040Y191460D01*
X684770Y194000D02*
X686040Y191460D01*
X684770Y194000D02*
X686040Y196540D01*
X683500Y195270D02*
X686040Y196540D01*
X680960D02*
X683500Y195270D01*
X680960Y196540D02*
X682230Y194000D01*
X680960Y191460D02*
X682230Y194000D01*
X691960Y184460D02*
X694500Y185730D01*
X697040Y184460D01*
X695770Y187000D02*
X697040Y184460D01*
X695770Y187000D02*
X697040Y189540D01*
X694500Y188270D02*
X697040Y189540D01*
X691960D02*
X694500Y188270D01*
X691960Y189540D02*
X693230Y187000D01*
X691960Y184460D02*
X693230Y187000D01*
X703460Y184460D02*
X706000Y185730D01*
X708540Y184460D01*
X707270Y187000D02*
X708540Y184460D01*
X707270Y187000D02*
X708540Y189540D01*
X706000Y188270D02*
X708540Y189540D01*
X703460D02*
X706000Y188270D01*
X703460Y189540D02*
X704730Y187000D01*
X703460Y184460D02*
X704730Y187000D01*
X696460Y191460D02*
X699000Y192730D01*
X701540Y191460D01*
X700270Y194000D02*
X701540Y191460D01*
X700270Y194000D02*
X701540Y196540D01*
X699000Y195270D02*
X701540Y196540D01*
X696460D02*
X699000Y195270D01*
X696460Y196540D02*
X697730Y194000D01*
X696460Y191460D02*
X697730Y194000D01*
X484460Y287960D02*
X487000Y289230D01*
X489540Y287960D01*
X488270Y290500D02*
X489540Y287960D01*
X488270Y290500D02*
X489540Y293040D01*
X487000Y291770D02*
X489540Y293040D01*
X484460D02*
X487000Y291770D01*
X484460Y293040D02*
X485730Y290500D01*
X484460Y287960D02*
X485730Y290500D01*
X473460Y309460D02*
X476000Y310730D01*
X478540Y309460D01*
X477270Y312000D02*
X478540Y309460D01*
X477270Y312000D02*
X478540Y314540D01*
X476000Y313270D02*
X478540Y314540D01*
X473460D02*
X476000Y313270D01*
X473460Y314540D02*
X474730Y312000D01*
X473460Y309460D02*
X474730Y312000D01*
X498460Y309460D02*
X501000Y310730D01*
X503540Y309460D01*
X502270Y312000D02*
X503540Y309460D01*
X502270Y312000D02*
X503540Y314540D01*
X501000Y313270D02*
X503540Y314540D01*
X498460D02*
X501000Y313270D01*
X498460Y314540D02*
X499730Y312000D01*
X498460Y309460D02*
X499730Y312000D01*
X523460Y309460D02*
X526000Y310730D01*
X528540Y309460D01*
X527270Y312000D02*
X528540Y309460D01*
X527270Y312000D02*
X528540Y314540D01*
X526000Y313270D02*
X528540Y314540D01*
X523460D02*
X526000Y313270D01*
X523460Y314540D02*
X524730Y312000D01*
X523460Y309460D02*
X524730Y312000D01*
X549460Y309460D02*
X552000Y310730D01*
X554540Y309460D01*
X553270Y312000D02*
X554540Y309460D01*
X553270Y312000D02*
X554540Y314540D01*
X552000Y313270D02*
X554540Y314540D01*
X549460D02*
X552000Y313270D01*
X549460Y314540D02*
X550730Y312000D01*
X549460Y309460D02*
X550730Y312000D01*
X634660Y247360D02*
X637200Y248630D01*
X639740Y247360D01*
X638470Y249900D02*
X639740Y247360D01*
X638470Y249900D02*
X639740Y252440D01*
X637200Y251170D02*
X639740Y252440D01*
X634660D02*
X637200Y251170D01*
X634660Y252440D02*
X635930Y249900D01*
X634660Y247360D02*
X635930Y249900D01*
X666460Y249960D02*
X669000Y251230D01*
X671540Y249960D01*
X670270Y252500D02*
X671540Y249960D01*
X670270Y252500D02*
X671540Y255040D01*
X669000Y253770D02*
X671540Y255040D01*
X666460D02*
X669000Y253770D01*
X666460Y255040D02*
X667730Y252500D01*
X666460Y249960D02*
X667730Y252500D01*
X687460Y294460D02*
X690000Y295730D01*
X692540Y294460D01*
X691270Y297000D02*
X692540Y294460D01*
X691270Y297000D02*
X692540Y299540D01*
X690000Y298270D02*
X692540Y299540D01*
X687460D02*
X690000Y298270D01*
X687460Y299540D02*
X688730Y297000D01*
X687460Y294460D02*
X688730Y297000D01*
X695960Y279960D02*
X698500Y281230D01*
X701040Y279960D01*
X699770Y282500D02*
X701040Y279960D01*
X699770Y282500D02*
X701040Y285040D01*
X698500Y283770D02*
X701040Y285040D01*
X695960D02*
X698500Y283770D01*
X695960Y285040D02*
X697230Y282500D01*
X695960Y279960D02*
X697230Y282500D01*
X691460Y286460D02*
X694000Y287730D01*
X696540Y286460D01*
X695270Y289000D02*
X696540Y286460D01*
X695270Y289000D02*
X696540Y291540D01*
X694000Y290270D02*
X696540Y291540D01*
X691460D02*
X694000Y290270D01*
X691460Y291540D02*
X692730Y289000D01*
X691460Y286460D02*
X692730Y289000D01*
X703460Y286460D02*
X706000Y287730D01*
X708540Y286460D01*
X707270Y289000D02*
X708540Y286460D01*
X707270Y289000D02*
X708540Y291540D01*
X706000Y290270D02*
X708540Y291540D01*
X703460D02*
X706000Y290270D01*
X703460Y291540D02*
X704730Y289000D01*
X703460Y286460D02*
X704730Y289000D01*
X522960Y250960D02*
X525500Y252230D01*
X528040Y250960D01*
X526770Y253500D02*
X528040Y250960D01*
X526770Y253500D02*
X528040Y256040D01*
X525500Y254770D02*
X528040Y256040D01*
X522960D02*
X525500Y254770D01*
X522960Y256040D02*
X524230Y253500D01*
X522960Y250960D02*
X524230Y253500D01*
X567460Y202460D02*
X570000Y203730D01*
X572540Y202460D01*
X571270Y205000D02*
X572540Y202460D01*
X571270Y205000D02*
X572540Y207540D01*
X570000Y206270D02*
X572540Y207540D01*
X567460D02*
X570000Y206270D01*
X567460Y207540D02*
X568730Y205000D01*
X567460Y202460D02*
X568730Y205000D01*
X618460Y184460D02*
X621000Y185730D01*
X623540Y184460D01*
X622270Y187000D02*
X623540Y184460D01*
X622270Y187000D02*
X623540Y189540D01*
X621000Y188270D02*
X623540Y189540D01*
X618460D02*
X621000Y188270D01*
X618460Y189540D02*
X619730Y187000D01*
X618460Y184460D02*
X619730Y187000D01*
X640460Y184460D02*
X643000Y185730D01*
X645540Y184460D01*
X644270Y187000D02*
X645540Y184460D01*
X644270Y187000D02*
X645540Y189540D01*
X643000Y188270D02*
X645540Y189540D01*
X640460D02*
X643000Y188270D01*
X640460Y189540D02*
X641730Y187000D01*
X640460Y184460D02*
X641730Y187000D01*
X651460Y184460D02*
X654000Y185730D01*
X656540Y184460D01*
X655270Y187000D02*
X656540Y184460D01*
X655270Y187000D02*
X656540Y189540D01*
X654000Y188270D02*
X656540Y189540D01*
X651460D02*
X654000Y188270D01*
X651460Y189540D02*
X652730Y187000D01*
X651460Y184460D02*
X652730Y187000D01*
X492460Y230460D02*
X495000Y231730D01*
X497540Y230460D01*
X496270Y233000D02*
X497540Y230460D01*
X496270Y233000D02*
X497540Y235540D01*
X495000Y234270D02*
X497540Y235540D01*
X492460D02*
X495000Y234270D01*
X492460Y235540D02*
X493730Y233000D01*
X492460Y230460D02*
X493730Y233000D01*
X618960Y286525D02*
X621500Y287795D01*
X624040Y286525D01*
X622770Y289065D02*
X624040Y286525D01*
X622770Y289065D02*
X624040Y291605D01*
X621500Y290335D02*
X624040Y291605D01*
X618960D02*
X621500Y290335D01*
X618960Y291605D02*
X620230Y289065D01*
X618960Y286525D02*
X620230Y289065D01*
X627960Y250460D02*
X630500Y251730D01*
X633040Y250460D01*
X631770Y253000D02*
X633040Y250460D01*
X631770Y253000D02*
X633040Y255540D01*
X630500Y254270D02*
X633040Y255540D01*
X627960D02*
X630500Y254270D01*
X627960Y255540D02*
X629230Y253000D01*
X627960Y250460D02*
X629230Y253000D01*
X314960Y227960D02*
X317500Y229230D01*
X320040Y227960D01*
X318770Y230500D02*
X320040Y227960D01*
X318770Y230500D02*
X320040Y233040D01*
X317500Y231770D02*
X320040Y233040D01*
X314960D02*
X317500Y231770D01*
X314960Y233040D02*
X316230Y230500D01*
X314960Y227960D02*
X316230Y230500D01*
X640960Y286393D02*
X643500Y287663D01*
X646040Y286393D01*
X644770Y288933D02*
X646040Y286393D01*
X644770Y288933D02*
X646040Y291473D01*
X643500Y290203D02*
X646040Y291473D01*
X640960D02*
X643500Y290203D01*
X640960Y291473D02*
X642230Y288933D01*
X640960Y286393D02*
X642230Y288933D01*
X618460Y250460D02*
X621000Y251730D01*
X623540Y250460D01*
X622270Y253000D02*
X623540Y250460D01*
X622270Y253000D02*
X623540Y255540D01*
X621000Y254270D02*
X623540Y255540D01*
X618460D02*
X621000Y254270D01*
X618460Y255540D02*
X619730Y253000D01*
X618460Y250460D02*
X619730Y253000D01*
X598960Y209460D02*
X601500Y210730D01*
X604040Y209460D01*
X602770Y212000D02*
X604040Y209460D01*
X602770Y212000D02*
X604040Y214540D01*
X601500Y213270D02*
X604040Y214540D01*
X598960D02*
X601500Y213270D01*
X598960Y214540D02*
X600230Y212000D01*
X598960Y209460D02*
X600230Y212000D01*
X510460Y223460D02*
X513000Y224730D01*
X515540Y223460D01*
X514270Y226000D02*
X515540Y223460D01*
X514270Y226000D02*
X515540Y228540D01*
X513000Y227270D02*
X515540Y228540D01*
X510460D02*
X513000Y227270D01*
X510460Y228540D02*
X511730Y226000D01*
X510460Y223460D02*
X511730Y226000D01*
X607460Y184460D02*
X610000Y185730D01*
X612540Y184460D01*
X611270Y187000D02*
X612540Y184460D01*
X611270Y187000D02*
X612540Y189540D01*
X610000Y188270D02*
X612540Y189540D01*
X607460D02*
X610000Y188270D01*
X607460Y189540D02*
X608730Y187000D01*
X607460Y184460D02*
X608730Y187000D01*
X502460Y230460D02*
X505000Y231730D01*
X507540Y230460D01*
X506270Y233000D02*
X507540Y230460D01*
X506270Y233000D02*
X507540Y235540D01*
X505000Y234270D02*
X507540Y235540D01*
X502460D02*
X505000Y234270D01*
X502460Y235540D02*
X503730Y233000D01*
X502460Y230460D02*
X503730Y233000D01*
X591460Y287460D02*
X594000Y288730D01*
X596540Y287460D01*
X595270Y290000D02*
X596540Y287460D01*
X595270Y290000D02*
X596540Y292540D01*
X594000Y291270D02*
X596540Y292540D01*
X591460D02*
X594000Y291270D01*
X591460Y292540D02*
X592730Y290000D01*
X591460Y287460D02*
X592730Y290000D01*
X629960Y286393D02*
X632500Y287663D01*
X635040Y286393D01*
X633770Y288933D02*
X635040Y286393D01*
X633770Y288933D02*
X635040Y291473D01*
X632500Y290203D02*
X635040Y291473D01*
X629960D02*
X632500Y290203D01*
X629960Y291473D02*
X631230Y288933D01*
X629960Y286393D02*
X631230Y288933D01*
X596460Y184460D02*
X599000Y185730D01*
X601540Y184460D01*
X600270Y187000D02*
X601540Y184460D01*
X600270Y187000D02*
X601540Y189540D01*
X599000Y188270D02*
X601540Y189540D01*
X596460D02*
X599000Y188270D01*
X596460Y189540D02*
X597730Y187000D01*
X596460Y184460D02*
X597730Y187000D01*
X585460Y184460D02*
X588000Y185730D01*
X590540Y184460D01*
X589270Y187000D02*
X590540Y184460D01*
X589270Y187000D02*
X590540Y189540D01*
X588000Y188270D02*
X590540Y189540D01*
X585460D02*
X588000Y188270D01*
X585460Y189540D02*
X586730Y187000D01*
X585460Y184460D02*
X586730Y187000D01*
X629460Y184460D02*
X632000Y185730D01*
X634540Y184460D01*
X633270Y187000D02*
X634540Y184460D01*
X633270Y187000D02*
X634540Y189540D01*
X632000Y188270D02*
X634540Y189540D01*
X629460D02*
X632000Y188270D01*
X629460Y189540D02*
X630730Y187000D01*
X629460Y184460D02*
X630730Y187000D01*
X644710Y292210D02*
X647250Y293480D01*
X649790Y292210D01*
X648520Y294750D02*
X649790Y292210D01*
X648520Y294750D02*
X649790Y297290D01*
X647250Y296020D02*
X649790Y297290D01*
X644710D02*
X647250Y296020D01*
X644710Y297290D02*
X645980Y294750D01*
X644710Y292210D02*
X645980Y294750D01*
X399710Y215210D02*
X402250Y216480D01*
X404790Y215210D01*
X403520Y217750D02*
X404790Y215210D01*
X403520Y217750D02*
X404790Y220290D01*
X402250Y219020D02*
X404790Y220290D01*
X399710D02*
X402250Y219020D01*
X399710Y220290D02*
X400980Y217750D01*
X399710Y215210D02*
X400980Y217750D01*
X411210Y226960D02*
X413750Y228230D01*
X416290Y226960D01*
X415020Y229500D02*
X416290Y226960D01*
X415020Y229500D02*
X416290Y232040D01*
X413750Y230770D02*
X416290Y232040D01*
X411210D02*
X413750Y230770D01*
X411210Y232040D02*
X412480Y229500D01*
X411210Y226960D02*
X412480Y229500D01*
X611760Y230560D02*
X614300Y231830D01*
X616840Y230560D01*
X615570Y233100D02*
X616840Y230560D01*
X615570Y233100D02*
X616840Y235640D01*
X614300Y234370D02*
X616840Y235640D01*
X611760D02*
X614300Y234370D01*
X611760Y235640D02*
X613030Y233100D01*
X611760Y230560D02*
X613030Y233100D01*
X593460Y254960D02*
X596000Y256230D01*
X598540Y254960D01*
X597270Y257500D02*
X598540Y254960D01*
X597270Y257500D02*
X598540Y260040D01*
X596000Y258770D02*
X598540Y260040D01*
X593460D02*
X596000Y258770D01*
X593460Y260040D02*
X594730Y257500D01*
X593460Y254960D02*
X594730Y257500D01*
X555210Y194460D02*
X557750Y195730D01*
X560290Y194460D01*
X559020Y197000D02*
X560290Y194460D01*
X559020Y197000D02*
X560290Y199540D01*
X557750Y198270D02*
X560290Y199540D01*
X555210D02*
X557750Y198270D01*
X555210Y199540D02*
X556480Y197000D01*
X555210Y194460D02*
X556480Y197000D01*
X409210Y275960D02*
X411750Y277230D01*
X414290Y275960D01*
X413020Y278500D02*
X414290Y275960D01*
X413020Y278500D02*
X414290Y281040D01*
X411750Y279770D02*
X414290Y281040D01*
X409210D02*
X411750Y279770D01*
X409210Y281040D02*
X410480Y278500D01*
X409210Y275960D02*
X410480Y278500D01*
X636960Y295960D02*
X639500Y297230D01*
X642040Y295960D01*
X640770Y298500D02*
X642040Y295960D01*
X640770Y298500D02*
X642040Y301040D01*
X639500Y299770D02*
X642040Y301040D01*
X636960D02*
X639500Y299770D01*
X636960Y301040D02*
X638230Y298500D01*
X636960Y295960D02*
X638230Y298500D01*
X662260Y287960D02*
X664800Y289230D01*
X667340Y287960D01*
X666070Y290500D02*
X667340Y287960D01*
X666070Y290500D02*
X667340Y293040D01*
X664800Y291770D02*
X667340Y293040D01*
X662260D02*
X664800Y291770D01*
X662260Y293040D02*
X663530Y290500D01*
X662260Y287960D02*
X663530Y290500D01*
X388960Y285710D02*
X391500Y286980D01*
X394040Y285710D01*
X392770Y288250D02*
X394040Y285710D01*
X392770Y288250D02*
X394040Y290790D01*
X391500Y289520D02*
X394040Y290790D01*
X388960D02*
X391500Y289520D01*
X388960Y290790D02*
X390230Y288250D01*
X388960Y285710D02*
X390230Y288250D01*
X402710Y282960D02*
X405250Y284230D01*
X407790Y282960D01*
X406520Y285500D02*
X407790Y282960D01*
X406520Y285500D02*
X407790Y288040D01*
X405250Y286770D02*
X407790Y288040D01*
X402710D02*
X405250Y286770D01*
X402710Y288040D02*
X403980Y285500D01*
X402710Y282960D02*
X403980Y285500D01*
X566710Y217460D02*
X569250Y218730D01*
X571790Y217460D01*
X570520Y220000D02*
X571790Y217460D01*
X570520Y220000D02*
X571790Y222540D01*
X569250Y221270D02*
X571790Y222540D01*
X566710D02*
X569250Y221270D01*
X566710Y222540D02*
X567980Y220000D01*
X566710Y217460D02*
X567980Y220000D01*
X598960Y260210D02*
X601500Y261480D01*
X604040Y260210D01*
X602770Y262750D02*
X604040Y260210D01*
X602770Y262750D02*
X604040Y265290D01*
X601500Y264020D02*
X604040Y265290D01*
X598960D02*
X601500Y264020D01*
X598960Y265290D02*
X600230Y262750D01*
X598960Y260210D02*
X600230Y262750D01*
X494460Y285960D02*
X497000Y287230D01*
X499540Y285960D01*
X498270Y288500D02*
X499540Y285960D01*
X498270Y288500D02*
X499540Y291040D01*
X497000Y289770D02*
X499540Y291040D01*
X494460D02*
X497000Y289770D01*
X494460Y291040D02*
X495730Y288500D01*
X494460Y285960D02*
X495730Y288500D01*
X361460Y287210D02*
X364000Y288480D01*
X366540Y287210D01*
X365270Y289750D02*
X366540Y287210D01*
X365270Y289750D02*
X366540Y292290D01*
X364000Y291020D02*
X366540Y292290D01*
X361460D02*
X364000Y291020D01*
X361460Y292290D02*
X362730Y289750D01*
X361460Y287210D02*
X362730Y289750D01*
X522960Y226710D02*
X525500Y227980D01*
X528040Y226710D01*
X526770Y229250D02*
X528040Y226710D01*
X526770Y229250D02*
X528040Y231790D01*
X525500Y230520D02*
X528040Y231790D01*
X522960D02*
X525500Y230520D01*
X522960Y231790D02*
X524230Y229250D01*
X522960Y226710D02*
X524230Y229250D01*
X359210Y243460D02*
X361750Y244730D01*
X364290Y243460D01*
X363020Y246000D02*
X364290Y243460D01*
X363020Y246000D02*
X364290Y248540D01*
X361750Y247270D02*
X364290Y248540D01*
X359210D02*
X361750Y247270D01*
X359210Y248540D02*
X360480Y246000D01*
X359210Y243460D02*
X360480Y246000D01*
X365460Y258460D02*
X368000Y259730D01*
X370540Y258460D01*
X369270Y261000D02*
X370540Y258460D01*
X369270Y261000D02*
X370540Y263540D01*
X368000Y262270D02*
X370540Y263540D01*
X365460D02*
X368000Y262270D01*
X365460Y263540D02*
X366730Y261000D01*
X365460Y258460D02*
X366730Y261000D01*
X426960Y237710D02*
X429500Y238980D01*
X432040Y237710D01*
X430770Y240250D02*
X432040Y237710D01*
X430770Y240250D02*
X432040Y242790D01*
X429500Y241520D02*
X432040Y242790D01*
X426960D02*
X429500Y241520D01*
X426960Y242790D02*
X428230Y240250D01*
X426960Y237710D02*
X428230Y240250D01*
X350460Y230460D02*
X353000Y231730D01*
X355540Y230460D01*
X354270Y233000D02*
X355540Y230460D01*
X354270Y233000D02*
X355540Y235540D01*
X353000Y234270D02*
X355540Y235540D01*
X350460D02*
X353000Y234270D01*
X350460Y235540D02*
X351730Y233000D01*
X350460Y230460D02*
X351730Y233000D01*
X291360Y239060D02*
X293900Y240330D01*
X296440Y239060D01*
X295170Y241600D02*
X296440Y239060D01*
X295170Y241600D02*
X296440Y244140D01*
X293900Y242870D02*
X296440Y244140D01*
X291360D02*
X293900Y242870D01*
X291360Y244140D02*
X292630Y241600D01*
X291360Y239060D02*
X292630Y241600D01*
X284360Y230660D02*
X286900Y231930D01*
X289440Y230660D01*
X288170Y233200D02*
X289440Y230660D01*
X288170Y233200D02*
X289440Y235740D01*
X286900Y234470D02*
X289440Y235740D01*
X284360D02*
X286900Y234470D01*
X284360Y235740D02*
X285630Y233200D01*
X284360Y230660D02*
X285630Y233200D01*
X353260Y220160D02*
X355800Y221430D01*
X358340Y220160D01*
X357070Y222700D02*
X358340Y220160D01*
X357070Y222700D02*
X358340Y225240D01*
X355800Y223970D02*
X358340Y225240D01*
X353260D02*
X355800Y223970D01*
X353260Y225240D02*
X354530Y222700D01*
X353260Y220160D02*
X354530Y222700D01*
X291760Y185860D02*
X294300Y187130D01*
X296840Y185860D01*
X295570Y188400D02*
X296840Y185860D01*
X295570Y188400D02*
X296840Y190940D01*
X294300Y189670D02*
X296840Y190940D01*
X291760D02*
X294300Y189670D01*
X291760Y190940D02*
X293030Y188400D01*
X291760Y185860D02*
X293030Y188400D01*
X286360Y205760D02*
X288900Y207030D01*
X291440Y205760D01*
X290170Y208300D02*
X291440Y205760D01*
X290170Y208300D02*
X291440Y210840D01*
X288900Y209570D02*
X291440Y210840D01*
X286360D02*
X288900Y209570D01*
X286360Y210840D02*
X287630Y208300D01*
X286360Y205760D02*
X287630Y208300D01*
X352660Y213560D02*
X355200Y214830D01*
X357740Y213560D01*
X356470Y216100D02*
X357740Y213560D01*
X356470Y216100D02*
X357740Y218640D01*
X355200Y217370D02*
X357740Y218640D01*
X352660D02*
X355200Y217370D01*
X352660Y218640D02*
X353930Y216100D01*
X352660Y213560D02*
X353930Y216100D01*
X531560Y184960D02*
X534100Y186230D01*
X536640Y184960D01*
X535370Y187500D02*
X536640Y184960D01*
X535370Y187500D02*
X536640Y190040D01*
X534100Y188770D02*
X536640Y190040D01*
X531560D02*
X534100Y188770D01*
X531560Y190040D02*
X532830Y187500D01*
X531560Y184960D02*
X532830Y187500D01*
X522860Y167360D02*
X525400Y168630D01*
X527940Y167360D01*
X526670Y169900D02*
X527940Y167360D01*
X526670Y169900D02*
X527940Y172440D01*
X525400Y171170D02*
X527940Y172440D01*
X522860D02*
X525400Y171170D01*
X522860Y172440D02*
X524130Y169900D01*
X522860Y167360D02*
X524130Y169900D01*
X226960Y182960D02*
X229500Y184230D01*
X232040Y182960D01*
X230770Y185500D02*
X232040Y182960D01*
X230770Y185500D02*
X232040Y188040D01*
X229500Y186770D02*
X232040Y188040D01*
X226960D02*
X229500Y186770D01*
X226960Y188040D02*
X228230Y185500D01*
X226960Y182960D02*
X228230Y185500D01*
X277960Y287160D02*
X280500Y288430D01*
X283040Y287160D01*
X281770Y289700D02*
X283040Y287160D01*
X281770Y289700D02*
X283040Y292240D01*
X280500Y290970D02*
X283040Y292240D01*
X277960D02*
X280500Y290970D01*
X277960Y292240D02*
X279230Y289700D01*
X277960Y287160D02*
X279230Y289700D01*
X235960Y182960D02*
X238500Y184230D01*
X241040Y182960D01*
X239770Y185500D02*
X241040Y182960D01*
X239770Y185500D02*
X241040Y188040D01*
X238500Y186770D02*
X241040Y188040D01*
X235960D02*
X238500Y186770D01*
X235960Y188040D02*
X237230Y185500D01*
X235960Y182960D02*
X237230Y185500D01*
X235960Y175460D02*
X238500Y176730D01*
X241040Y175460D01*
X239770Y178000D02*
X241040Y175460D01*
X239770Y178000D02*
X241040Y180540D01*
X238500Y179270D02*
X241040Y180540D01*
X235960D02*
X238500Y179270D01*
X235960Y180540D02*
X237230Y178000D01*
X235960Y175460D02*
X237230Y178000D01*
X226960Y175460D02*
X229500Y176730D01*
X232040Y175460D01*
X230770Y178000D02*
X232040Y175460D01*
X230770Y178000D02*
X232040Y180540D01*
X229500Y179270D02*
X232040Y180540D01*
X226960D02*
X229500Y179270D01*
X226960Y180540D02*
X228230Y178000D01*
X226960Y175460D02*
X228230Y178000D01*
X226460Y290960D02*
X229000Y292230D01*
X231540Y290960D01*
X230270Y293500D02*
X231540Y290960D01*
X230270Y293500D02*
X231540Y296040D01*
X229000Y294770D02*
X231540Y296040D01*
X226460D02*
X229000Y294770D01*
X226460Y296040D02*
X227730Y293500D01*
X226460Y290960D02*
X227730Y293500D01*
X236460Y290960D02*
X239000Y292230D01*
X241540Y290960D01*
X240270Y293500D02*
X241540Y290960D01*
X240270Y293500D02*
X241540Y296040D01*
X239000Y294770D02*
X241540Y296040D01*
X236460D02*
X239000Y294770D01*
X236460Y296040D02*
X237730Y293500D01*
X236460Y290960D02*
X237730Y293500D01*
X236460Y298960D02*
X239000Y300230D01*
X241540Y298960D01*
X240270Y301500D02*
X241540Y298960D01*
X240270Y301500D02*
X241540Y304040D01*
X239000Y302770D02*
X241540Y304040D01*
X236460D02*
X239000Y302770D01*
X236460Y304040D02*
X237730Y301500D01*
X236460Y298960D02*
X237730Y301500D01*
X226460Y298960D02*
X229000Y300230D01*
X231540Y298960D01*
X230270Y301500D02*
X231540Y298960D01*
X230270Y301500D02*
X231540Y304040D01*
X229000Y302770D02*
X231540Y304040D01*
X226460D02*
X229000Y302770D01*
X226460Y304040D02*
X227730Y301500D01*
X226460Y298960D02*
X227730Y301500D01*
X254560Y287060D02*
X257100Y288330D01*
X259640Y287060D01*
X258370Y289600D02*
X259640Y287060D01*
X258370Y289600D02*
X259640Y292140D01*
X257100Y290870D02*
X259640Y292140D01*
X254560D02*
X257100Y290870D01*
X254560Y292140D02*
X255830Y289600D01*
X254560Y287060D02*
X255830Y289600D01*
X254360Y294660D02*
X256900Y295930D01*
X259440Y294660D01*
X258170Y297200D02*
X259440Y294660D01*
X258170Y297200D02*
X259440Y299740D01*
X256900Y298470D02*
X259440Y299740D01*
X254360D02*
X256900Y298470D01*
X254360Y299740D02*
X255630Y297200D01*
X254360Y294660D02*
X255630Y297200D01*
X267560Y188560D02*
X270100Y189830D01*
X272640Y188560D01*
X271370Y191100D02*
X272640Y188560D01*
X271370Y191100D02*
X272640Y193640D01*
X270100Y192370D02*
X272640Y193640D01*
X267560D02*
X270100Y192370D01*
X267560Y193640D02*
X268830Y191100D01*
X267560Y188560D02*
X268830Y191100D01*
X321160Y167660D02*
X323700Y168930D01*
X326240Y167660D01*
X324970Y170200D02*
X326240Y167660D01*
X324970Y170200D02*
X326240Y172740D01*
X323700Y171470D02*
X326240Y172740D01*
X321160D02*
X323700Y171470D01*
X321160Y172740D02*
X322430Y170200D01*
X321160Y167660D02*
X322430Y170200D01*
X316960Y210160D02*
X319500Y211430D01*
X322040Y210160D01*
X320770Y212700D02*
X322040Y210160D01*
X320770Y212700D02*
X322040Y215240D01*
X319500Y213970D02*
X322040Y215240D01*
X316960D02*
X319500Y213970D01*
X316960Y215240D02*
X318230Y212700D01*
X316960Y210160D02*
X318230Y212700D01*
X567060Y258960D02*
X569600Y260230D01*
X572140Y258960D01*
X570870Y261500D02*
X572140Y258960D01*
X570870Y261500D02*
X572140Y264040D01*
X569600Y262770D02*
X572140Y264040D01*
X567060D02*
X569600Y262770D01*
X567060Y264040D02*
X568330Y261500D01*
X567060Y258960D02*
X568330Y261500D01*
X567060Y265760D02*
X569600Y267030D01*
X572140Y265760D01*
X570870Y268300D02*
X572140Y265760D01*
X570870Y268300D02*
X572140Y270840D01*
X569600Y269570D02*
X572140Y270840D01*
X567060D02*
X569600Y269570D01*
X567060Y270840D02*
X568330Y268300D01*
X567060Y265760D02*
X568330Y268300D01*
X461460Y193460D02*
X464000Y194730D01*
X466540Y193460D01*
X465270Y196000D02*
X466540Y193460D01*
X465270Y196000D02*
X466540Y198540D01*
X464000Y197270D02*
X466540Y198540D01*
X461460D02*
X464000Y197270D01*
X461460Y198540D02*
X462730Y196000D01*
X461460Y193460D02*
X462730Y196000D01*
X427011Y229060D02*
X429551Y230330D01*
X432091Y229060D01*
X430821Y231600D02*
X432091Y229060D01*
X430821Y231600D02*
X432091Y234140D01*
X429551Y232870D02*
X432091Y234140D01*
X427011D02*
X429551Y232870D01*
X427011Y234140D02*
X428281Y231600D01*
X427011Y229060D02*
X428281Y231600D01*
X414360Y219360D02*
X416900Y220630D01*
X419440Y219360D01*
X418170Y221900D02*
X419440Y219360D01*
X418170Y221900D02*
X419440Y224440D01*
X416900Y223170D02*
X419440Y224440D01*
X414360D02*
X416900Y223170D01*
X414360Y224440D02*
X415630Y221900D01*
X414360Y219360D02*
X415630Y221900D01*
X525618Y184671D02*
X528158Y185941D01*
X530698Y184671D01*
X529428Y187211D02*
X530698Y184671D01*
X529428Y187211D02*
X530698Y189751D01*
X528158Y188481D02*
X530698Y189751D01*
X525618D02*
X528158Y188481D01*
X525618Y189751D02*
X526888Y187211D01*
X525618Y184671D02*
X526888Y187211D01*
X394860Y179560D02*
X397400Y180830D01*
X399940Y179560D01*
X398670Y182100D02*
X399940Y179560D01*
X398670Y182100D02*
X399940Y184640D01*
X397400Y183370D02*
X399940Y184640D01*
X394860D02*
X397400Y183370D01*
X394860Y184640D02*
X396130Y182100D01*
X394860Y179560D02*
X396130Y182100D01*
X403760Y179660D02*
X406300Y180930D01*
X408840Y179660D01*
X407570Y182200D02*
X408840Y179660D01*
X407570Y182200D02*
X408840Y184740D01*
X406300Y183470D02*
X408840Y184740D01*
X403760D02*
X406300Y183470D01*
X403760Y184740D02*
X405030Y182200D01*
X403760Y179660D02*
X405030Y182200D01*
X444960Y188460D02*
X447500Y189730D01*
X450040Y188460D01*
X448770Y191000D02*
X450040Y188460D01*
X448770Y191000D02*
X450040Y193540D01*
X447500Y192270D02*
X450040Y193540D01*
X444960D02*
X447500Y192270D01*
X444960Y193540D02*
X446230Y191000D01*
X444960Y188460D02*
X446230Y191000D01*
X477360Y265060D02*
X479900Y266330D01*
X482440Y265060D01*
X481170Y267600D02*
X482440Y265060D01*
X481170Y267600D02*
X482440Y270140D01*
X479900Y268870D02*
X482440Y270140D01*
X477360D02*
X479900Y268870D01*
X477360Y270140D02*
X478630Y267600D01*
X477360Y265060D02*
X478630Y267600D01*
X488960Y275360D02*
X491500Y276630D01*
X494040Y275360D01*
X492770Y277900D02*
X494040Y275360D01*
X492770Y277900D02*
X494040Y280440D01*
X491500Y279170D02*
X494040Y280440D01*
X488960D02*
X491500Y279170D01*
X488960Y280440D02*
X490230Y277900D01*
X488960Y275360D02*
X490230Y277900D01*
X494460Y266660D02*
X497000Y267930D01*
X499540Y266660D01*
X498270Y269200D02*
X499540Y266660D01*
X498270Y269200D02*
X499540Y271740D01*
X497000Y270470D02*
X499540Y271740D01*
X494460D02*
X497000Y270470D01*
X494460Y271740D02*
X495730Y269200D01*
X494460Y266660D02*
X495730Y269200D01*
X505060Y266960D02*
X507600Y268230D01*
X510140Y266960D01*
X508870Y269500D02*
X510140Y266960D01*
X508870Y269500D02*
X510140Y272040D01*
X507600Y270770D02*
X510140Y272040D01*
X505060D02*
X507600Y270770D01*
X505060Y272040D02*
X506330Y269500D01*
X505060Y266960D02*
X506330Y269500D01*
X517760Y257260D02*
X520300Y258530D01*
X522840Y257260D01*
X521570Y259800D02*
X522840Y257260D01*
X521570Y259800D02*
X522840Y262340D01*
X520300Y261070D02*
X522840Y262340D01*
X517760D02*
X520300Y261070D01*
X517760Y262340D02*
X519030Y259800D01*
X517760Y257260D02*
X519030Y259800D01*
X516660Y268560D02*
X519200Y269830D01*
X521740Y268560D01*
X520470Y271100D02*
X521740Y268560D01*
X520470Y271100D02*
X521740Y273640D01*
X519200Y272370D02*
X521740Y273640D01*
X516660D02*
X519200Y272370D01*
X516660Y273640D02*
X517930Y271100D01*
X516660Y268560D02*
X517930Y271100D01*
X389260Y264160D02*
X391800Y265430D01*
X394340Y264160D01*
X393070Y266700D02*
X394340Y264160D01*
X393070Y266700D02*
X394340Y269240D01*
X391800Y267970D02*
X394340Y269240D01*
X389260D02*
X391800Y267970D01*
X389260Y269240D02*
X390530Y266700D01*
X389260Y264160D02*
X390530Y266700D01*
X401460Y271260D02*
X404000Y272530D01*
X406540Y271260D01*
X405270Y273800D02*
X406540Y271260D01*
X405270Y273800D02*
X406540Y276340D01*
X404000Y275070D02*
X406540Y276340D01*
X401460D02*
X404000Y275070D01*
X401460Y276340D02*
X402730Y273800D01*
X401460Y271260D02*
X402730Y273800D01*
X410660Y262460D02*
X413200Y263730D01*
X415740Y262460D01*
X414470Y265000D02*
X415740Y262460D01*
X414470Y265000D02*
X415740Y267540D01*
X413200Y266270D02*
X415740Y267540D01*
X410660D02*
X413200Y266270D01*
X410660Y267540D02*
X411930Y265000D01*
X410660Y262460D02*
X411930Y265000D01*
X488860Y214560D02*
X491400Y215830D01*
X493940Y214560D01*
X492670Y217100D02*
X493940Y214560D01*
X492670Y217100D02*
X493940Y219640D01*
X491400Y218370D02*
X493940Y219640D01*
X488860D02*
X491400Y218370D01*
X488860Y219640D02*
X490130Y217100D01*
X488860Y214560D02*
X490130Y217100D01*
X482960Y229860D02*
X485500Y231130D01*
X488040Y229860D01*
X486770Y232400D02*
X488040Y229860D01*
X486770Y232400D02*
X488040Y234940D01*
X485500Y233670D02*
X488040Y234940D01*
X482960D02*
X485500Y233670D01*
X482960Y234940D02*
X484230Y232400D01*
X482960Y229860D02*
X484230Y232400D01*
X499460Y206560D02*
X502000Y207830D01*
X504540Y206560D01*
X503270Y209100D02*
X504540Y206560D01*
X503270Y209100D02*
X504540Y211640D01*
X502000Y210370D02*
X504540Y211640D01*
X499460D02*
X502000Y210370D01*
X499460Y211640D02*
X500730Y209100D01*
X499460Y206560D02*
X500730Y209100D01*
X471460Y256160D02*
X474000Y257430D01*
X476540Y256160D01*
X475270Y258700D02*
X476540Y256160D01*
X475270Y258700D02*
X476540Y261240D01*
X474000Y259970D02*
X476540Y261240D01*
X471460D02*
X474000Y259970D01*
X471460Y261240D02*
X472730Y258700D01*
X471460Y256160D02*
X472730Y258700D01*
X469160Y241460D02*
X471700Y242730D01*
X474240Y241460D01*
X472970Y244000D02*
X474240Y241460D01*
X472970Y244000D02*
X474240Y246540D01*
X471700Y245270D02*
X474240Y246540D01*
X469160D02*
X471700Y245270D01*
X469160Y246540D02*
X470430Y244000D01*
X469160Y241460D02*
X470430Y244000D01*
X463160Y262060D02*
X465700Y263330D01*
X468240Y262060D01*
X466970Y264600D02*
X468240Y262060D01*
X466970Y264600D02*
X468240Y267140D01*
X465700Y265870D02*
X468240Y267140D01*
X463160D02*
X465700Y265870D01*
X463160Y267140D02*
X464430Y264600D01*
X463160Y262060D02*
X464430Y264600D01*
X461360Y280460D02*
X463900Y281730D01*
X466440Y280460D01*
X465170Y283000D02*
X466440Y280460D01*
X465170Y283000D02*
X466440Y285540D01*
X463900Y284270D02*
X466440Y285540D01*
X461360D02*
X463900Y284270D01*
X461360Y285540D02*
X462630Y283000D01*
X461360Y280460D02*
X462630Y283000D01*
X547760Y185360D02*
X550300Y186630D01*
X552840Y185360D01*
X551570Y187900D02*
X552840Y185360D01*
X551570Y187900D02*
X552840Y190440D01*
X550300Y189170D02*
X552840Y190440D01*
X547760D02*
X550300Y189170D01*
X547760Y190440D02*
X549030Y187900D01*
X547760Y185360D02*
X549030Y187900D01*
X464722Y255747D02*
X467262Y257017D01*
X469802Y255747D01*
X468532Y258287D02*
X469802Y255747D01*
X468532Y258287D02*
X469802Y260827D01*
X467262Y259557D02*
X469802Y260827D01*
X464722D02*
X467262Y259557D01*
X464722Y260827D02*
X465992Y258287D01*
X464722Y255747D02*
X465992Y258287D01*
X472260Y234060D02*
X474800Y235330D01*
X477340Y234060D01*
X476070Y236600D02*
X477340Y234060D01*
X476070Y236600D02*
X477340Y239140D01*
X474800Y237870D02*
X477340Y239140D01*
X472260D02*
X474800Y237870D01*
X472260Y239140D02*
X473530Y236600D01*
X472260Y234060D02*
X473530Y236600D01*
X542760Y261660D02*
X545300Y262930D01*
X547840Y261660D01*
X546570Y264200D02*
X547840Y261660D01*
X546570Y264200D02*
X547840Y266740D01*
X545300Y265470D02*
X547840Y266740D01*
X542760D02*
X545300Y265470D01*
X542760Y266740D02*
X544030Y264200D01*
X542760Y261660D02*
X544030Y264200D01*
X316160Y290960D02*
X318700Y292230D01*
X321240Y290960D01*
X319970Y293500D02*
X321240Y290960D01*
X319970Y293500D02*
X321240Y296040D01*
X318700Y294770D02*
X321240Y296040D01*
X316160D02*
X318700Y294770D01*
X316160Y296040D02*
X317430Y293500D01*
X316160Y290960D02*
X317430Y293500D01*
X320760Y301760D02*
X323300Y303030D01*
X325840Y301760D01*
X324570Y304300D02*
X325840Y301760D01*
X324570Y304300D02*
X325840Y306840D01*
X323300Y305570D02*
X325840Y306840D01*
X320760D02*
X323300Y305570D01*
X320760Y306840D02*
X322030Y304300D01*
X320760Y301760D02*
X322030Y304300D01*
X346460Y308460D02*
X349000Y309730D01*
X351540Y308460D01*
X350270Y311000D02*
X351540Y308460D01*
X350270Y311000D02*
X351540Y313540D01*
X349000Y312270D02*
X351540Y313540D01*
X346460D02*
X349000Y312270D01*
X346460Y313540D02*
X347730Y311000D01*
X346460Y308460D02*
X347730Y311000D01*
X356460Y275460D02*
X359000Y276730D01*
X361540Y275460D01*
X360270Y278000D02*
X361540Y275460D01*
X360270Y278000D02*
X361540Y280540D01*
X359000Y279270D02*
X361540Y280540D01*
X356460D02*
X359000Y279270D01*
X356460Y280540D02*
X357730Y278000D01*
X356460Y275460D02*
X357730Y278000D01*
X431460Y246460D02*
X434000Y247730D01*
X436540Y246460D01*
X435270Y249000D02*
X436540Y246460D01*
X435270Y249000D02*
X436540Y251540D01*
X434000Y250270D02*
X436540Y251540D01*
X431460D02*
X434000Y250270D01*
X431460Y251540D02*
X432730Y249000D01*
X431460Y246460D02*
X432730Y249000D01*
X426210Y253710D02*
X428750Y254980D01*
X431290Y253710D01*
X430020Y256250D02*
X431290Y253710D01*
X430020Y256250D02*
X431290Y258790D01*
X428750Y257520D02*
X431290Y258790D01*
X426210D02*
X428750Y257520D01*
X426210Y258790D02*
X427480Y256250D01*
X426210Y253710D02*
X427480Y256250D01*
X581960Y287460D02*
X584500Y288730D01*
X587040Y287460D01*
X585770Y290000D02*
X587040Y287460D01*
X585770Y290000D02*
X587040Y292540D01*
X584500Y291270D02*
X587040Y292540D01*
X581960D02*
X584500Y291270D01*
X581960Y292540D02*
X583230Y290000D01*
X581960Y287460D02*
X583230Y290000D01*
X651710Y250460D02*
X654250Y251730D01*
X656790Y250460D01*
X655520Y253000D02*
X656790Y250460D01*
X655520Y253000D02*
X656790Y255540D01*
X654250Y254270D02*
X656790Y255540D01*
X651710D02*
X654250Y254270D01*
X651710Y255540D02*
X652980Y253000D01*
X651710Y250460D02*
X652980Y253000D01*
X624210Y295960D02*
X626750Y297230D01*
X629290Y295960D01*
X628020Y298500D02*
X629290Y295960D01*
X628020Y298500D02*
X629290Y301040D01*
X626750Y299770D02*
X629290Y301040D01*
X624210D02*
X626750Y299770D01*
X624210Y301040D02*
X625480Y298500D01*
X624210Y295960D02*
X625480Y298500D01*
X502460Y277210D02*
X505000Y278480D01*
X507540Y277210D01*
X506270Y279750D02*
X507540Y277210D01*
X506270Y279750D02*
X507540Y282290D01*
X505000Y281020D02*
X507540Y282290D01*
X502460D02*
X505000Y281020D01*
X502460Y282290D02*
X503730Y279750D01*
X502460Y277210D02*
X503730Y279750D01*
X359210Y250460D02*
X361750Y251730D01*
X364290Y250460D01*
X363020Y253000D02*
X364290Y250460D01*
X363020Y253000D02*
X364290Y255540D01*
X361750Y254270D02*
X364290Y255540D01*
X359210D02*
X361750Y254270D01*
X359210Y255540D02*
X360480Y253000D01*
X359210Y250460D02*
X360480Y253000D01*
X395460Y220210D02*
X398000Y221480D01*
X400540Y220210D01*
X399270Y222750D02*
X400540Y220210D01*
X399270Y222750D02*
X400540Y225290D01*
X398000Y224020D02*
X400540Y225290D01*
X395460D02*
X398000Y224020D01*
X395460Y225290D02*
X396730Y222750D01*
X395460Y220210D02*
X396730Y222750D01*
X404710Y226460D02*
X407250Y227730D01*
X409790Y226460D01*
X408520Y229000D02*
X409790Y226460D01*
X408520Y229000D02*
X409790Y231540D01*
X407250Y230270D02*
X409790Y231540D01*
X404710D02*
X407250Y230270D01*
X404710Y231540D02*
X405980Y229000D01*
X404710Y226460D02*
X405980Y229000D01*
X392210Y227710D02*
X394750Y228980D01*
X397290Y227710D01*
X396020Y230250D02*
X397290Y227710D01*
X396020Y230250D02*
X397290Y232790D01*
X394750Y231520D02*
X397290Y232790D01*
X392210D02*
X394750Y231520D01*
X392210Y232790D02*
X393480Y230250D01*
X392210Y227710D02*
X393480Y230250D01*
X373085Y264335D02*
X375625Y265605D01*
X378165Y264335D01*
X376895Y266875D02*
X378165Y264335D01*
X376895Y266875D02*
X378165Y269415D01*
X375625Y268145D02*
X378165Y269415D01*
X373085D02*
X375625Y268145D01*
X373085Y269415D02*
X374355Y266875D01*
X373085Y264335D02*
X374355Y266875D01*
X351460Y190210D02*
X354000Y191480D01*
X356540Y190210D01*
X355270Y192750D02*
X356540Y190210D01*
X355270Y192750D02*
X356540Y195290D01*
X354000Y194020D02*
X356540Y195290D01*
X351460D02*
X354000Y194020D01*
X351460Y195290D02*
X352730Y192750D01*
X351460Y190210D02*
X352730Y192750D01*
X624710Y165710D02*
X627250Y166980D01*
X629790Y165710D01*
X628520Y168250D02*
X629790Y165710D01*
X628520Y168250D02*
X629790Y170790D01*
X627250Y169520D02*
X629790Y170790D01*
X624710D02*
X627250Y169520D01*
X624710Y170790D02*
X625980Y168250D01*
X624710Y165710D02*
X625980Y168250D01*
X278960Y302710D02*
X281500Y303980D01*
X284040Y302710D01*
X282770Y305250D02*
X284040Y302710D01*
X282770Y305250D02*
X284040Y307790D01*
X281500Y306520D02*
X284040Y307790D01*
X278960D02*
X281500Y306520D01*
X278960Y307790D02*
X280230Y305250D01*
X278960Y302710D02*
X280230Y305250D01*
X287210Y291710D02*
X289750Y292980D01*
X292290Y291710D01*
X291020Y294250D02*
X292290Y291710D01*
X291020Y294250D02*
X292290Y296790D01*
X289750Y295520D02*
X292290Y296790D01*
X287210D02*
X289750Y295520D01*
X287210Y296790D02*
X288480Y294250D01*
X287210Y291710D02*
X288480Y294250D01*
X302460Y291460D02*
X305000Y292730D01*
X307540Y291460D01*
X306270Y294000D02*
X307540Y291460D01*
X306270Y294000D02*
X307540Y296540D01*
X305000Y295270D02*
X307540Y296540D01*
X302460D02*
X305000Y295270D01*
X302460Y296540D02*
X303730Y294000D01*
X302460Y291460D02*
X303730Y294000D01*
X282460Y267460D02*
X285000Y268730D01*
X287540Y267460D01*
X286270Y270000D02*
X287540Y267460D01*
X286270Y270000D02*
X287540Y272540D01*
X285000Y271270D02*
X287540Y272540D01*
X282460D02*
X285000Y271270D01*
X282460Y272540D02*
X283730Y270000D01*
X282460Y267460D02*
X283730Y270000D01*
X296460Y269460D02*
X299000Y270730D01*
X301540Y269460D01*
X300270Y272000D02*
X301540Y269460D01*
X300270Y272000D02*
X301540Y274540D01*
X299000Y273270D02*
X301540Y274540D01*
X296460D02*
X299000Y273270D01*
X296460Y274540D02*
X297730Y272000D01*
X296460Y269460D02*
X297730Y272000D01*
X309460Y279460D02*
X312000Y280730D01*
X314540Y279460D01*
X313270Y282000D02*
X314540Y279460D01*
X313270Y282000D02*
X314540Y284540D01*
X312000Y283270D02*
X314540Y284540D01*
X309460D02*
X312000Y283270D01*
X309460Y284540D02*
X310730Y282000D01*
X309460Y279460D02*
X310730Y282000D01*
X291460Y280460D02*
X294000Y281730D01*
X296540Y280460D01*
X295270Y283000D02*
X296540Y280460D01*
X295270Y283000D02*
X296540Y285540D01*
X294000Y284270D02*
X296540Y285540D01*
X291460D02*
X294000Y284270D01*
X291460Y285540D02*
X292730Y283000D01*
X291460Y280460D02*
X292730Y283000D01*
X270460Y275460D02*
X273000Y276730D01*
X275540Y275460D01*
X274270Y278000D02*
X275540Y275460D01*
X274270Y278000D02*
X275540Y280540D01*
X273000Y279270D02*
X275540Y280540D01*
X270460D02*
X273000Y279270D01*
X270460Y280540D02*
X271730Y278000D01*
X270460Y275460D02*
X271730Y278000D01*
X270460Y266460D02*
X273000Y267730D01*
X275540Y266460D01*
X274270Y269000D02*
X275540Y266460D01*
X274270Y269000D02*
X275540Y271540D01*
X273000Y270270D02*
X275540Y271540D01*
X270460D02*
X273000Y270270D01*
X270460Y271540D02*
X271730Y269000D01*
X270460Y266460D02*
X271730Y269000D01*
X422460Y163460D02*
X425000Y164730D01*
X427540Y163460D01*
X426270Y166000D02*
X427540Y163460D01*
X426270Y166000D02*
X427540Y168540D01*
X425000Y167270D02*
X427540Y168540D01*
X422460D02*
X425000Y167270D01*
X422460Y168540D02*
X423730Y166000D01*
X422460Y163460D02*
X423730Y166000D01*
X397460Y164460D02*
X400000Y165730D01*
X402540Y164460D01*
X401270Y167000D02*
X402540Y164460D01*
X401270Y167000D02*
X402540Y169540D01*
X400000Y168270D02*
X402540Y169540D01*
X397460D02*
X400000Y168270D01*
X397460Y169540D02*
X398730Y167000D01*
X397460Y164460D02*
X398730Y167000D01*
X448460Y164460D02*
X451000Y165730D01*
X453540Y164460D01*
X452270Y167000D02*
X453540Y164460D01*
X452270Y167000D02*
X453540Y169540D01*
X451000Y168270D02*
X453540Y169540D01*
X448460D02*
X451000Y168270D01*
X448460Y169540D02*
X449730Y167000D01*
X448460Y164460D02*
X449730Y167000D01*
X472460Y164460D02*
X475000Y165730D01*
X477540Y164460D01*
X476270Y167000D02*
X477540Y164460D01*
X476270Y167000D02*
X477540Y169540D01*
X475000Y168270D02*
X477540Y169540D01*
X472460D02*
X475000Y168270D01*
X472460Y169540D02*
X473730Y167000D01*
X472460Y164460D02*
X473730Y167000D01*
X498460Y164460D02*
X501000Y165730D01*
X503540Y164460D01*
X502270Y167000D02*
X503540Y164460D01*
X502270Y167000D02*
X503540Y169540D01*
X501000Y168270D02*
X503540Y169540D01*
X498460D02*
X501000Y168270D01*
X498460Y169540D02*
X499730Y167000D01*
X498460Y164460D02*
X499730Y167000D01*
X549460Y154460D02*
X552000Y155730D01*
X554540Y154460D01*
X553270Y157000D02*
X554540Y154460D01*
X553270Y157000D02*
X554540Y159540D01*
X552000Y158270D02*
X554540Y159540D01*
X549460D02*
X552000Y158270D01*
X549460Y159540D02*
X550730Y157000D01*
X549460Y154460D02*
X550730Y157000D01*
X599460Y154460D02*
X602000Y155730D01*
X604540Y154460D01*
X603270Y157000D02*
X604540Y154460D01*
X603270Y157000D02*
X604540Y159540D01*
X602000Y158270D02*
X604540Y159540D01*
X599460D02*
X602000Y158270D01*
X599460Y159540D02*
X600730Y157000D01*
X599460Y154460D02*
X600730Y157000D01*
X576460Y155460D02*
X579000Y156730D01*
X581540Y155460D01*
X580270Y158000D02*
X581540Y155460D01*
X580270Y158000D02*
X581540Y160540D01*
X579000Y159270D02*
X581540Y160540D01*
X576460D02*
X579000Y159270D01*
X576460Y160540D02*
X577730Y158000D01*
X576460Y155460D02*
X577730Y158000D01*
X703460Y295460D02*
X706000Y296730D01*
X708540Y295460D01*
X707270Y298000D02*
X708540Y295460D01*
X707270Y298000D02*
X708540Y300540D01*
X706000Y299270D02*
X708540Y300540D01*
X703460D02*
X706000Y299270D01*
X703460Y300540D02*
X704730Y298000D01*
X703460Y295460D02*
X704730Y298000D01*
X702460Y307460D02*
X705000Y308730D01*
X707540Y307460D01*
X706270Y310000D02*
X707540Y307460D01*
X706270Y310000D02*
X707540Y312540D01*
X705000Y311270D02*
X707540Y312540D01*
X702460D02*
X705000Y311270D01*
X702460Y312540D02*
X703730Y310000D01*
X702460Y307460D02*
X703730Y310000D01*
X705460Y320460D02*
X708000Y321730D01*
X710540Y320460D01*
X709270Y323000D02*
X710540Y320460D01*
X709270Y323000D02*
X710540Y325540D01*
X708000Y324270D02*
X710540Y325540D01*
X705460D02*
X708000Y324270D01*
X705460Y325540D02*
X706730Y323000D01*
X705460Y320460D02*
X706730Y323000D01*
X648460Y303460D02*
X651000Y304730D01*
X653540Y303460D01*
X652270Y306000D02*
X653540Y303460D01*
X652270Y306000D02*
X653540Y308540D01*
X651000Y307270D02*
X653540Y308540D01*
X648460D02*
X651000Y307270D01*
X648460Y308540D02*
X649730Y306000D01*
X648460Y303460D02*
X649730Y306000D01*
X624460Y319460D02*
X627000Y320730D01*
X629540Y319460D01*
X628270Y322000D02*
X629540Y319460D01*
X628270Y322000D02*
X629540Y324540D01*
X627000Y323270D02*
X629540Y324540D01*
X624460D02*
X627000Y323270D01*
X624460Y324540D02*
X625730Y322000D01*
X624460Y319460D02*
X625730Y322000D01*
X600460Y320460D02*
X603000Y321730D01*
X605540Y320460D01*
X604270Y323000D02*
X605540Y320460D01*
X604270Y323000D02*
X605540Y325540D01*
X603000Y324270D02*
X605540Y325540D01*
X600460D02*
X603000Y324270D01*
X600460Y325540D02*
X601730Y323000D01*
X600460Y320460D02*
X601730Y323000D01*
X652460Y286460D02*
X655000Y287730D01*
X657540Y286460D01*
X656270Y289000D02*
X657540Y286460D01*
X656270Y289000D02*
X657540Y291540D01*
X655000Y290270D02*
X657540Y291540D01*
X652460D02*
X655000Y290270D01*
X652460Y291540D02*
X653730Y289000D01*
X652460Y286460D02*
X653730Y289000D01*
X659460Y295460D02*
X662000Y296730D01*
X664540Y295460D01*
X663270Y298000D02*
X664540Y295460D01*
X663270Y298000D02*
X664540Y300540D01*
X662000Y299270D02*
X664540Y300540D01*
X659460D02*
X662000Y299270D01*
X659460Y300540D02*
X660730Y298000D01*
X659460Y295460D02*
X660730Y298000D01*
X349460Y266460D02*
X352000Y267730D01*
X354540Y266460D01*
X353270Y269000D02*
X354540Y266460D01*
X353270Y269000D02*
X354540Y271540D01*
X352000Y270270D02*
X354540Y271540D01*
X349460D02*
X352000Y270270D01*
X349460Y271540D02*
X350730Y269000D01*
X349460Y266460D02*
X350730Y269000D01*
X646960Y219960D02*
X649500Y221230D01*
X652040Y219960D01*
X650770Y222500D02*
X652040Y219960D01*
X650770Y222500D02*
X652040Y225040D01*
X649500Y223770D02*
X652040Y225040D01*
X646960D02*
X649500Y223770D01*
X646960Y225040D02*
X648230Y222500D01*
X646960Y219960D02*
X648230Y222500D01*
X640460Y219960D02*
X643000Y221230D01*
X645540Y219960D01*
X644270Y222500D02*
X645540Y219960D01*
X644270Y222500D02*
X645540Y225040D01*
X643000Y223770D02*
X645540Y225040D01*
X640460D02*
X643000Y223770D01*
X640460Y225040D02*
X641730Y222500D01*
X640460Y219960D02*
X641730Y222500D01*
X633960Y219960D02*
X636500Y221230D01*
X639040Y219960D01*
X637770Y222500D02*
X639040Y219960D01*
X637770Y222500D02*
X639040Y225040D01*
X636500Y223770D02*
X639040Y225040D01*
X633960D02*
X636500Y223770D01*
X633960Y225040D02*
X635230Y222500D01*
X633960Y219960D02*
X635230Y222500D01*
X628160Y223160D02*
X630700Y224430D01*
X633240Y223160D01*
X631970Y225700D02*
X633240Y223160D01*
X631970Y225700D02*
X633240Y228240D01*
X630700Y226970D02*
X633240Y228240D01*
X628160D02*
X630700Y226970D01*
X628160Y228240D02*
X629430Y225700D01*
X628160Y223160D02*
X629430Y225700D01*
X566960Y235710D02*
X569500Y236980D01*
X572040Y235710D01*
X570770Y238250D02*
X572040Y235710D01*
X570770Y238250D02*
X572040Y240790D01*
X569500Y239520D02*
X572040Y240790D01*
X566960D02*
X569500Y239520D01*
X566960Y240790D02*
X568230Y238250D01*
X566960Y235710D02*
X568230Y238250D01*
X529960Y287960D02*
X532500Y289230D01*
X535040Y287960D01*
X533770Y290500D02*
X535040Y287960D01*
X533770Y290500D02*
X535040Y293040D01*
X532500Y291770D02*
X535040Y293040D01*
X529960D02*
X532500Y291770D01*
X529960Y293040D02*
X531230Y290500D01*
X529960Y287960D02*
X531230Y290500D01*
X540960Y269460D02*
X543500Y270730D01*
X546040Y269460D01*
X544770Y272000D02*
X546040Y269460D01*
X544770Y272000D02*
X546040Y274540D01*
X543500Y273270D02*
X546040Y274540D01*
X540960D02*
X543500Y273270D01*
X540960Y274540D02*
X542230Y272000D01*
X540960Y269460D02*
X542230Y272000D01*
X546460Y287960D02*
X549000Y289230D01*
X551540Y287960D01*
X550270Y290500D02*
X551540Y287960D01*
X550270Y290500D02*
X551540Y293040D01*
X549000Y291770D02*
X551540Y293040D01*
X546460D02*
X549000Y291770D01*
X546460Y293040D02*
X547730Y290500D01*
X546460Y287960D02*
X547730Y290500D01*
X552960Y287960D02*
X555500Y289230D01*
X558040Y287960D01*
X556770Y290500D02*
X558040Y287960D01*
X556770Y290500D02*
X558040Y293040D01*
X555500Y291770D02*
X558040Y293040D01*
X552960D02*
X555500Y291770D01*
X552960Y293040D02*
X554230Y290500D01*
X552960Y287960D02*
X554230Y290500D01*
X547560Y281160D02*
X550100Y282430D01*
X552640Y281160D01*
X551370Y283700D02*
X552640Y281160D01*
X551370Y283700D02*
X552640Y286240D01*
X550100Y284970D02*
X552640Y286240D01*
X547560D02*
X550100Y284970D01*
X547560Y286240D02*
X548830Y283700D01*
X547560Y281160D02*
X548830Y283700D01*
X552260Y276560D02*
X554800Y277830D01*
X557340Y276560D01*
X556070Y279100D02*
X557340Y276560D01*
X556070Y279100D02*
X557340Y281640D01*
X554800Y280370D02*
X557340Y281640D01*
X552260D02*
X554800Y280370D01*
X552260Y281640D02*
X553530Y279100D01*
X552260Y276560D02*
X553530Y279100D01*
X246460Y168460D02*
X249000Y169730D01*
X251540Y168460D01*
X250270Y171000D02*
X251540Y168460D01*
X250270Y171000D02*
X251540Y173540D01*
X249000Y172270D02*
X251540Y173540D01*
X246460D02*
X249000Y172270D01*
X246460Y173540D02*
X247730Y171000D01*
X246460Y168460D02*
X247730Y171000D01*
X653260Y222060D02*
X655800Y223330D01*
X658340Y222060D01*
X657070Y224600D02*
X658340Y222060D01*
X657070Y224600D02*
X658340Y227140D01*
X655800Y225870D02*
X658340Y227140D01*
X653260D02*
X655800Y225870D01*
X653260Y227140D02*
X654530Y224600D01*
X653260Y222060D02*
X654530Y224600D01*
X670960Y179460D02*
X673500Y180730D01*
X676040Y179460D01*
X674770Y182000D02*
X676040Y179460D01*
X674770Y182000D02*
X676040Y184540D01*
X673500Y183270D02*
X676040Y184540D01*
X670960D02*
X673500Y183270D01*
X670960Y184540D02*
X672230Y182000D01*
X670960Y179460D02*
X672230Y182000D01*
X662460Y184760D02*
X665000Y186030D01*
X667540Y184760D01*
X666270Y187300D02*
X667540Y184760D01*
X666270Y187300D02*
X667540Y189840D01*
X665000Y188570D02*
X667540Y189840D01*
X662460D02*
X665000Y188570D01*
X662460Y189840D02*
X663730Y187300D01*
X662460Y184760D02*
X663730Y187300D01*
X567460Y224460D02*
X570000Y225730D01*
X572540Y224460D01*
X571270Y227000D02*
X572540Y224460D01*
X571270Y227000D02*
X572540Y229540D01*
X570000Y228270D02*
X572540Y229540D01*
X567460D02*
X570000Y228270D01*
X567460Y229540D02*
X568730Y227000D01*
X567460Y224460D02*
X568730Y227000D01*
X550260Y228560D02*
X552800Y229830D01*
X555340Y228560D01*
X554070Y231100D02*
X555340Y228560D01*
X554070Y231100D02*
X555340Y233640D01*
X552800Y232370D02*
X555340Y233640D01*
X550260D02*
X552800Y232370D01*
X550260Y233640D02*
X551530Y231100D01*
X550260Y228560D02*
X551530Y231100D01*
X500460Y180960D02*
X503000Y182230D01*
X505540Y180960D01*
X504270Y183500D02*
X505540Y180960D01*
X504270Y183500D02*
X505540Y186040D01*
X503000Y184770D02*
X505540Y186040D01*
X500460D02*
X503000Y184770D01*
X500460Y186040D02*
X501730Y183500D01*
X500460Y180960D02*
X501730Y183500D01*
X485360Y179160D02*
X487900Y180430D01*
X490440Y179160D01*
X489170Y181700D02*
X490440Y179160D01*
X489170Y181700D02*
X490440Y184240D01*
X487900Y182970D02*
X490440Y184240D01*
X485360D02*
X487900Y182970D01*
X485360Y184240D02*
X486630Y181700D01*
X485360Y179160D02*
X486630Y181700D01*
X460960Y210260D02*
X463500Y211530D01*
X466040Y210260D01*
X464770Y212800D02*
X466040Y210260D01*
X464770Y212800D02*
X466040Y215340D01*
X463500Y214070D02*
X466040Y215340D01*
X460960D02*
X463500Y214070D01*
X460960Y215340D02*
X462230Y212800D01*
X460960Y210260D02*
X462230Y212800D01*
X428160Y188460D02*
X430700Y189730D01*
X433240Y188460D01*
X431970Y191000D02*
X433240Y188460D01*
X431970Y191000D02*
X433240Y193540D01*
X430700Y192270D02*
X433240Y193540D01*
X428160D02*
X430700Y192270D01*
X428160Y193540D02*
X429430Y191000D01*
X428160Y188460D02*
X429430Y191000D01*
X434960Y188460D02*
X437500Y189730D01*
X440040Y188460D01*
X438770Y191000D02*
X440040Y188460D01*
X438770Y191000D02*
X440040Y193540D01*
X437500Y192270D02*
X440040Y193540D01*
X434960D02*
X437500Y192270D01*
X434960Y193540D02*
X436230Y191000D01*
X434960Y188460D02*
X436230Y191000D01*
X354960Y199960D02*
X357500Y201230D01*
X360040Y199960D01*
X358770Y202500D02*
X360040Y199960D01*
X358770Y202500D02*
X360040Y205040D01*
X357500Y203770D02*
X360040Y205040D01*
X354960D02*
X357500Y203770D01*
X354960Y205040D02*
X356230Y202500D01*
X354960Y199960D02*
X356230Y202500D01*
X399860Y189360D02*
X402400Y190630D01*
X404940Y189360D01*
X403670Y191900D02*
X404940Y189360D01*
X403670Y191900D02*
X404940Y194440D01*
X402400Y193170D02*
X404940Y194440D01*
X399860D02*
X402400Y193170D01*
X399860Y194440D02*
X401130Y191900D01*
X399860Y189360D02*
X401130Y191900D01*
X458460Y286560D02*
X461000Y287830D01*
X463540Y286560D01*
X462270Y289100D02*
X463540Y286560D01*
X462270Y289100D02*
X463540Y291640D01*
X461000Y290370D02*
X463540Y291640D01*
X458460D02*
X461000Y290370D01*
X458460Y291640D02*
X459730Y289100D01*
X458460Y286560D02*
X459730Y289100D01*
X656660Y179860D02*
X659200Y181130D01*
X661740Y179860D01*
X660470Y182400D02*
X661740Y179860D01*
X660470Y182400D02*
X661740Y184940D01*
X659200Y183670D02*
X661740Y184940D01*
X656660D02*
X659200Y183670D01*
X656660Y184940D02*
X657930Y182400D01*
X656660Y179860D02*
X657930Y182400D01*
X656460Y161860D02*
X659000Y163130D01*
X661540Y161860D01*
X660270Y164400D02*
X661540Y161860D01*
X660270Y164400D02*
X661540Y166940D01*
X659000Y165670D02*
X661540Y166940D01*
X656460D02*
X659000Y165670D01*
X656460Y166940D02*
X657730Y164400D01*
X656460Y161860D02*
X657730Y164400D01*
X654660Y154460D02*
X657200Y155730D01*
X659740Y154460D01*
X658470Y157000D02*
X659740Y154460D01*
X658470Y157000D02*
X659740Y159540D01*
X657200Y158270D02*
X659740Y159540D01*
X654660D02*
X657200Y158270D01*
X654660Y159540D02*
X655930Y157000D01*
X654660Y154460D02*
X655930Y157000D01*
X684860Y184160D02*
X687400Y185430D01*
X689940Y184160D01*
X688670Y186700D02*
X689940Y184160D01*
X688670Y186700D02*
X689940Y189240D01*
X687400Y187970D02*
X689940Y189240D01*
X684860D02*
X687400Y187970D01*
X684860Y189240D02*
X686130Y186700D01*
X684860Y184160D02*
X686130Y186700D01*
X659760Y220460D02*
X662300Y221730D01*
X664840Y220460D01*
X663570Y223000D02*
X664840Y220460D01*
X663570Y223000D02*
X664840Y225540D01*
X662300Y224270D02*
X664840Y225540D01*
X659760D02*
X662300Y224270D01*
X659760Y225540D02*
X661030Y223000D01*
X659760Y220460D02*
X661030Y223000D01*
X606060Y220160D02*
X608600Y221430D01*
X611140Y220160D01*
X609870Y222700D02*
X611140Y220160D01*
X609870Y222700D02*
X611140Y225240D01*
X608600Y223970D02*
X611140Y225240D01*
X606060D02*
X608600Y223970D01*
X606060Y225240D02*
X607330Y222700D01*
X606060Y220160D02*
X607330Y222700D01*
X612560Y220860D02*
X615100Y222130D01*
X617640Y220860D01*
X616370Y223400D02*
X617640Y220860D01*
X616370Y223400D02*
X617640Y225940D01*
X615100Y224670D02*
X617640Y225940D01*
X612560D02*
X615100Y224670D01*
X612560Y225940D02*
X613830Y223400D01*
X612560Y220860D02*
X613830Y223400D01*
X619360Y221760D02*
X621900Y223030D01*
X624440Y221760D01*
X623170Y224300D02*
X624440Y221760D01*
X623170Y224300D02*
X624440Y226840D01*
X621900Y225570D02*
X624440Y226840D01*
X619360D02*
X621900Y225570D01*
X619360Y226840D02*
X620630Y224300D01*
X619360Y221760D02*
X620630Y224300D01*
X645060Y250560D02*
X647600Y251830D01*
X650140Y250560D01*
X648870Y253100D02*
X650140Y250560D01*
X648870Y253100D02*
X650140Y255640D01*
X647600Y254370D02*
X650140Y255640D01*
X645060D02*
X647600Y254370D01*
X645060Y255640D02*
X646330Y253100D01*
X645060Y250560D02*
X646330Y253100D01*
X423710Y263210D02*
X426250Y264480D01*
X428790Y263210D01*
X427520Y265750D02*
X428790Y263210D01*
X427520Y265750D02*
X428790Y268290D01*
X426250Y267020D02*
X428790Y268290D01*
X423710D02*
X426250Y267020D01*
X423710Y268290D02*
X424980Y265750D01*
X423710Y263210D02*
X424980Y265750D01*
X430860Y285660D02*
X433400Y286930D01*
X435940Y285660D01*
X434670Y288200D02*
X435940Y285660D01*
X434670Y288200D02*
X435940Y290740D01*
X433400Y289470D02*
X435940Y290740D01*
X430860D02*
X433400Y289470D01*
X430860Y290740D02*
X432130Y288200D01*
X430860Y285660D02*
X432130Y288200D01*
X472660Y217160D02*
X475200Y218430D01*
X477740Y217160D01*
X476470Y219700D02*
X477740Y217160D01*
X476470Y219700D02*
X477740Y222240D01*
X475200Y220970D02*
X477740Y222240D01*
X472660D02*
X475200Y220970D01*
X472660Y222240D02*
X473930Y219700D01*
X472660Y217160D02*
X473930Y219700D01*
X479460Y205760D02*
X482000Y207030D01*
X484540Y205760D01*
X483270Y208300D02*
X484540Y205760D01*
X483270Y208300D02*
X484540Y210840D01*
X482000Y209570D02*
X484540Y210840D01*
X479460D02*
X482000Y209570D01*
X479460Y210840D02*
X480730Y208300D01*
X479460Y205760D02*
X480730Y208300D01*
X419060Y289560D02*
X421600Y290830D01*
X424140Y289560D01*
X422870Y292100D02*
X424140Y289560D01*
X422870Y292100D02*
X424140Y294640D01*
X421600Y293370D02*
X424140Y294640D01*
X419060D02*
X421600Y293370D01*
X419060Y294640D02*
X420330Y292100D01*
X419060Y289560D02*
X420330Y292100D01*
X502760Y290560D02*
X505300Y291830D01*
X507840Y290560D01*
X506570Y293100D02*
X507840Y290560D01*
X506570Y293100D02*
X507840Y295640D01*
X505300Y294370D02*
X507840Y295640D01*
X502760D02*
X505300Y294370D01*
X502760Y295640D02*
X504030Y293100D01*
X502760Y290560D02*
X504030Y293100D01*
X518660Y290960D02*
X521200Y292230D01*
X523740Y290960D01*
X522470Y293500D02*
X523740Y290960D01*
X522470Y293500D02*
X523740Y296040D01*
X521200Y294770D02*
X523740Y296040D01*
X518660D02*
X521200Y294770D01*
X518660Y296040D02*
X519930Y293500D01*
X518660Y290960D02*
X519930Y293500D01*
X646860Y174960D02*
X649400Y176230D01*
X651940Y174960D01*
X650670Y177500D02*
X651940Y174960D01*
X650670Y177500D02*
X651940Y180040D01*
X649400Y178770D02*
X651940Y180040D01*
X646860D02*
X649400Y178770D01*
X646860Y180040D02*
X648130Y177500D01*
X646860Y174960D02*
X648130Y177500D01*
X640660Y177260D02*
X643200Y178530D01*
X645740Y177260D01*
X644470Y179800D02*
X645740Y177260D01*
X644470Y179800D02*
X645740Y182340D01*
X643200Y181070D02*
X645740Y182340D01*
X640660D02*
X643200Y181070D01*
X640660Y182340D02*
X641930Y179800D01*
X640660Y177260D02*
X641930Y179800D01*
X653060Y167460D02*
X655600Y168730D01*
X658140Y167460D01*
X656870Y170000D02*
X658140Y167460D01*
X656870Y170000D02*
X658140Y172540D01*
X655600Y171270D02*
X658140Y172540D01*
X653060D02*
X655600Y171270D01*
X653060Y172540D02*
X654330Y170000D01*
X653060Y167460D02*
X654330Y170000D01*
X549360Y236460D02*
X551900Y237730D01*
X554440Y236460D01*
X553170Y239000D02*
X554440Y236460D01*
X553170Y239000D02*
X554440Y241540D01*
X551900Y240270D02*
X554440Y241540D01*
X549360D02*
X551900Y240270D01*
X549360Y241540D02*
X550630Y239000D01*
X549360Y236460D02*
X550630Y239000D01*
X595560Y215860D02*
X598100Y217130D01*
X600640Y215860D01*
X599370Y218400D02*
X600640Y215860D01*
X599370Y218400D02*
X600640Y220940D01*
X598100Y219670D02*
X600640Y220940D01*
X595560D02*
X598100Y219670D01*
X595560Y220940D02*
X596830Y218400D01*
X595560Y215860D02*
X596830Y218400D01*
X346160Y154560D02*
X348700Y155830D01*
X351240Y154560D01*
X349970Y157100D02*
X351240Y154560D01*
X349970Y157100D02*
X351240Y159640D01*
X348700Y158370D02*
X351240Y159640D01*
X346160D02*
X348700Y158370D01*
X346160Y159640D02*
X347430Y157100D01*
X346160Y154560D02*
X347430Y157100D01*
X320460Y154860D02*
X323000Y156130D01*
X325540Y154860D01*
X324270Y157400D02*
X325540Y154860D01*
X324270Y157400D02*
X325540Y159940D01*
X323000Y158670D02*
X325540Y159940D01*
X320460D02*
X323000Y158670D01*
X320460Y159940D02*
X321730Y157400D01*
X320460Y154860D02*
X321730Y157400D01*
X269960Y154760D02*
X272500Y156030D01*
X275040Y154760D01*
X273770Y157300D02*
X275040Y154760D01*
X273770Y157300D02*
X275040Y159840D01*
X272500Y158570D02*
X275040Y159840D01*
X269960D02*
X272500Y158570D01*
X269960Y159840D02*
X271230Y157300D01*
X269960Y154760D02*
X271230Y157300D01*
X295260Y154460D02*
X297800Y155730D01*
X300340Y154460D01*
X299070Y157000D02*
X300340Y154460D01*
X299070Y157000D02*
X300340Y159540D01*
X297800Y158270D02*
X300340Y159540D01*
X295260D02*
X297800Y158270D01*
X295260Y159540D02*
X296530Y157000D01*
X295260Y154460D02*
X296530Y157000D01*
X245460Y154260D02*
X248000Y155530D01*
X250540Y154260D01*
X249270Y156800D02*
X250540Y154260D01*
X249270Y156800D02*
X250540Y159340D01*
X248000Y158070D02*
X250540Y159340D01*
X245460D02*
X248000Y158070D01*
X245460Y159340D02*
X246730Y156800D01*
X245460Y154260D02*
X246730Y156800D01*
X371660Y154160D02*
X374200Y155430D01*
X376740Y154160D01*
X375470Y156700D02*
X376740Y154160D01*
X375470Y156700D02*
X376740Y159240D01*
X374200Y157970D02*
X376740Y159240D01*
X371660D02*
X374200Y157970D01*
X371660Y159240D02*
X372930Y156700D01*
X371660Y154160D02*
X372930Y156700D01*
X397160Y154360D02*
X399700Y155630D01*
X402240Y154360D01*
X400970Y156900D02*
X402240Y154360D01*
X400970Y156900D02*
X402240Y159440D01*
X399700Y158170D02*
X402240Y159440D01*
X397160D02*
X399700Y158170D01*
X397160Y159440D02*
X398430Y156900D01*
X397160Y154360D02*
X398430Y156900D01*
X422560Y154160D02*
X425100Y155430D01*
X427640Y154160D01*
X426370Y156700D02*
X427640Y154160D01*
X426370Y156700D02*
X427640Y159240D01*
X425100Y157970D02*
X427640Y159240D01*
X422560D02*
X425100Y157970D01*
X422560Y159240D02*
X423830Y156700D01*
X422560Y154160D02*
X423830Y156700D01*
X447860Y154160D02*
X450400Y155430D01*
X452940Y154160D01*
X451670Y156700D02*
X452940Y154160D01*
X451670Y156700D02*
X452940Y159240D01*
X450400Y157970D02*
X452940Y159240D01*
X447860D02*
X450400Y157970D01*
X447860Y159240D02*
X449130Y156700D01*
X447860Y154160D02*
X449130Y156700D01*
X473160Y154060D02*
X475700Y155330D01*
X478240Y154060D01*
X476970Y156600D02*
X478240Y154060D01*
X476970Y156600D02*
X478240Y159140D01*
X475700Y157870D02*
X478240Y159140D01*
X473160D02*
X475700Y157870D01*
X473160Y159140D02*
X474430Y156600D01*
X473160Y154060D02*
X474430Y156600D01*
X498660Y154060D02*
X501200Y155330D01*
X503740Y154060D01*
X502470Y156600D02*
X503740Y154060D01*
X502470Y156600D02*
X503740Y159140D01*
X501200Y157870D02*
X503740Y159140D01*
X498660D02*
X501200Y157870D01*
X498660Y159140D02*
X499930Y156600D01*
X498660Y154060D02*
X499930Y156600D01*
X523360Y154260D02*
X525900Y155530D01*
X528440Y154260D01*
X527170Y156800D02*
X528440Y154260D01*
X527170Y156800D02*
X528440Y159340D01*
X525900Y158070D02*
X528440Y159340D01*
X523360D02*
X525900Y158070D01*
X523360Y159340D02*
X524630Y156800D01*
X523360Y154260D02*
X524630Y156800D01*
X599160Y163760D02*
X601700Y165030D01*
X604240Y163760D01*
X602970Y166300D02*
X604240Y163760D01*
X602970Y166300D02*
X604240Y168840D01*
X601700Y167570D02*
X604240Y168840D01*
X599160D02*
X601700Y167570D01*
X599160Y168840D02*
X600430Y166300D01*
X599160Y163760D02*
X600430Y166300D01*
X624960Y154160D02*
X627500Y155430D01*
X630040Y154160D01*
X628770Y156700D02*
X630040Y154160D01*
X628770Y156700D02*
X630040Y159240D01*
X627500Y157970D02*
X630040Y159240D01*
X624960D02*
X627500Y157970D01*
X624960Y159240D02*
X626230Y156700D01*
X624960Y154160D02*
X626230Y156700D01*
X688360Y154060D02*
X690900Y155330D01*
X693440Y154060D01*
X692170Y156600D02*
X693440Y154060D01*
X692170Y156600D02*
X693440Y159140D01*
X690900Y157870D02*
X693440Y159140D01*
X688360D02*
X690900Y157870D01*
X688360Y159140D02*
X689630Y156600D01*
X688360Y154060D02*
X689630Y156600D01*
X697060Y320160D02*
X699600Y321430D01*
X702140Y320160D01*
X700870Y322700D02*
X702140Y320160D01*
X700870Y322700D02*
X702140Y325240D01*
X699600Y323970D02*
X702140Y325240D01*
X697060D02*
X699600Y323970D01*
X697060Y325240D02*
X698330Y322700D01*
X697060Y320160D02*
X698330Y322700D01*
X649660Y320660D02*
X652200Y321930D01*
X654740Y320660D01*
X653470Y323200D02*
X654740Y320660D01*
X653470Y323200D02*
X654740Y325740D01*
X652200Y324470D02*
X654740Y325740D01*
X649660D02*
X652200Y324470D01*
X649660Y325740D02*
X650930Y323200D01*
X649660Y320660D02*
X650930Y323200D01*
X574760Y320260D02*
X577300Y321530D01*
X579840Y320260D01*
X578570Y322800D02*
X579840Y320260D01*
X578570Y322800D02*
X579840Y325340D01*
X577300Y324070D02*
X579840Y325340D01*
X574760D02*
X577300Y324070D01*
X574760Y325340D02*
X576030Y322800D01*
X574760Y320260D02*
X576030Y322800D01*
X548460Y320260D02*
X551000Y321530D01*
X553540Y320260D01*
X552270Y322800D02*
X553540Y320260D01*
X552270Y322800D02*
X553540Y325340D01*
X551000Y324070D02*
X553540Y325340D01*
X548460D02*
X551000Y324070D01*
X548460Y325340D02*
X549730Y322800D01*
X548460Y320260D02*
X549730Y322800D01*
X524560Y320760D02*
X527100Y322030D01*
X529640Y320760D01*
X528370Y323300D02*
X529640Y320760D01*
X528370Y323300D02*
X529640Y325840D01*
X527100Y324570D02*
X529640Y325840D01*
X524560D02*
X527100Y324570D01*
X524560Y325840D02*
X525830Y323300D01*
X524560Y320760D02*
X525830Y323300D01*
X498560Y320660D02*
X501100Y321930D01*
X503640Y320660D01*
X502370Y323200D02*
X503640Y320660D01*
X502370Y323200D02*
X503640Y325740D01*
X501100Y324470D02*
X503640Y325740D01*
X498560D02*
X501100Y324470D01*
X498560Y325740D02*
X499830Y323200D01*
X498560Y320660D02*
X499830Y323200D01*
X472860Y320660D02*
X475400Y321930D01*
X477940Y320660D01*
X476670Y323200D02*
X477940Y320660D01*
X476670Y323200D02*
X477940Y325740D01*
X475400Y324470D02*
X477940Y325740D01*
X472860D02*
X475400Y324470D01*
X472860Y325740D02*
X474130Y323200D01*
X472860Y320660D02*
X474130Y323200D01*
X448060Y320760D02*
X450600Y322030D01*
X453140Y320760D01*
X451870Y323300D02*
X453140Y320760D01*
X451870Y323300D02*
X453140Y325840D01*
X450600Y324570D02*
X453140Y325840D01*
X448060D02*
X450600Y324570D01*
X448060Y325840D02*
X449330Y323300D01*
X448060Y320760D02*
X449330Y323300D01*
X422460Y321160D02*
X425000Y322430D01*
X427540Y321160D01*
X426270Y323700D02*
X427540Y321160D01*
X426270Y323700D02*
X427540Y326240D01*
X425000Y324970D02*
X427540Y326240D01*
X422460D02*
X425000Y324970D01*
X422460Y326240D02*
X423730Y323700D01*
X422460Y321160D02*
X423730Y323700D01*
X397060Y321160D02*
X399600Y322430D01*
X402140Y321160D01*
X400870Y323700D02*
X402140Y321160D01*
X400870Y323700D02*
X402140Y326240D01*
X399600Y324970D02*
X402140Y326240D01*
X397060D02*
X399600Y324970D01*
X397060Y326240D02*
X398330Y323700D01*
X397060Y321160D02*
X398330Y323700D01*
X371560Y320760D02*
X374100Y322030D01*
X376640Y320760D01*
X375370Y323300D02*
X376640Y320760D01*
X375370Y323300D02*
X376640Y325840D01*
X374100Y324570D02*
X376640Y325840D01*
X371560D02*
X374100Y324570D01*
X371560Y325840D02*
X372830Y323300D01*
X371560Y320760D02*
X372830Y323300D01*
X346160Y320760D02*
X348700Y322030D01*
X351240Y320760D01*
X349970Y323300D02*
X351240Y320760D01*
X349970Y323300D02*
X351240Y325840D01*
X348700Y324570D02*
X351240Y325840D01*
X346160D02*
X348700Y324570D01*
X346160Y325840D02*
X347430Y323300D01*
X346160Y320760D02*
X347430Y323300D01*
X320560Y320460D02*
X323100Y321730D01*
X325640Y320460D01*
X324370Y323000D02*
X325640Y320460D01*
X324370Y323000D02*
X325640Y325540D01*
X323100Y324270D02*
X325640Y325540D01*
X320560D02*
X323100Y324270D01*
X320560Y325540D02*
X321830Y323000D01*
X320560Y320460D02*
X321830Y323000D01*
X295560Y310060D02*
X298100Y311330D01*
X300640Y310060D01*
X299370Y312600D02*
X300640Y310060D01*
X299370Y312600D02*
X300640Y315140D01*
X298100Y313870D02*
X300640Y315140D01*
X295560D02*
X298100Y313870D01*
X295560Y315140D02*
X296830Y312600D01*
X295560Y310060D02*
X296830Y312600D01*
X295060Y320960D02*
X297600Y322230D01*
X300140Y320960D01*
X298870Y323500D02*
X300140Y320960D01*
X298870Y323500D02*
X300140Y326040D01*
X297600Y324770D02*
X300140Y326040D01*
X295060D02*
X297600Y324770D01*
X295060Y326040D02*
X296330Y323500D01*
X295060Y320960D02*
X296330Y323500D01*
X269660Y320660D02*
X272200Y321930D01*
X274740Y320660D01*
X273470Y323200D02*
X274740Y320660D01*
X273470Y323200D02*
X274740Y325740D01*
X272200Y324470D02*
X274740Y325740D01*
X269660D02*
X272200Y324470D01*
X269660Y325740D02*
X270930Y323200D01*
X269660Y320660D02*
X270930Y323200D01*
X270160Y310060D02*
X272700Y311330D01*
X275240Y310060D01*
X273970Y312600D02*
X275240Y310060D01*
X273970Y312600D02*
X275240Y315140D01*
X272700Y313870D02*
X275240Y315140D01*
X270160D02*
X272700Y313870D01*
X270160Y315140D02*
X271430Y312600D01*
X270160Y310060D02*
X271430Y312600D01*
X245360Y320760D02*
X247900Y322030D01*
X250440Y320760D01*
X249170Y323300D02*
X250440Y320760D01*
X249170Y323300D02*
X250440Y325840D01*
X247900Y324570D02*
X250440Y325840D01*
X245360D02*
X247900Y324570D01*
X245360Y325840D02*
X246630Y323300D01*
X245360Y320760D02*
X246630Y323300D01*
X245260Y306760D02*
X247800Y308030D01*
X250340Y306760D01*
X249070Y309300D02*
X250340Y306760D01*
X249070Y309300D02*
X250340Y311840D01*
X247800Y310570D02*
X250340Y311840D01*
X245260D02*
X247800Y310570D01*
X245260Y311840D02*
X246530Y309300D01*
X245260Y306760D02*
X246530Y309300D01*
X281160Y276760D02*
X283700Y278030D01*
X286240Y276760D01*
X284970Y279300D02*
X286240Y276760D01*
X284970Y279300D02*
X286240Y281840D01*
X283700Y280570D02*
X286240Y281840D01*
X281160D02*
X283700Y280570D01*
X281160Y281840D02*
X282430Y279300D01*
X281160Y276760D02*
X282430Y279300D01*
X310460Y198460D02*
X313000Y199730D01*
X315540Y198460D01*
X314270Y201000D02*
X315540Y198460D01*
X314270Y201000D02*
X315540Y203540D01*
X313000Y202270D02*
X315540Y203540D01*
X310460D02*
X313000Y202270D01*
X310460Y203540D02*
X311730Y201000D01*
X310460Y198460D02*
X311730Y201000D01*
X310460Y192460D02*
X313000Y193730D01*
X315540Y192460D01*
X314270Y195000D02*
X315540Y192460D01*
X314270Y195000D02*
X315540Y197540D01*
X313000Y196270D02*
X315540Y197540D01*
X310460D02*
X313000Y196270D01*
X310460Y197540D02*
X311730Y195000D01*
X310460Y192460D02*
X311730Y195000D01*
X293060Y203160D02*
X295600Y204430D01*
X298140Y203160D01*
X296870Y205700D02*
X298140Y203160D01*
X296870Y205700D02*
X298140Y208240D01*
X295600Y206970D02*
X298140Y208240D01*
X293060D02*
X295600Y206970D01*
X293060Y208240D02*
X294330Y205700D01*
X293060Y203160D02*
X294330Y205700D01*
X294860Y222460D02*
X297400Y223730D01*
X299940Y222460D01*
X298670Y225000D02*
X299940Y222460D01*
X298670Y225000D02*
X299940Y227540D01*
X297400Y226270D02*
X299940Y227540D01*
X294860D02*
X297400Y226270D01*
X294860Y227540D02*
X296130Y225000D01*
X294860Y222460D02*
X296130Y225000D01*
X372460Y237860D02*
X375000Y239130D01*
X377540Y237860D01*
X376270Y240400D02*
X377540Y237860D01*
X376270Y240400D02*
X377540Y242940D01*
X375000Y241670D02*
X377540Y242940D01*
X372460D02*
X375000Y241670D01*
X372460Y242940D02*
X373730Y240400D01*
X372460Y237860D02*
X373730Y240400D01*
X366060Y241060D02*
X368600Y242330D01*
X371140Y241060D01*
X369870Y243600D02*
X371140Y241060D01*
X369870Y243600D02*
X371140Y246140D01*
X368600Y244870D02*
X371140Y246140D01*
X366060D02*
X368600Y244870D01*
X366060Y246140D02*
X367330Y243600D01*
X366060Y241060D02*
X367330Y243600D01*
X473360Y284160D02*
X475900Y285430D01*
X478440Y284160D01*
X477170Y286700D02*
X478440Y284160D01*
X477170Y286700D02*
X478440Y289240D01*
X475900Y287970D02*
X478440Y289240D01*
X473360D02*
X475900Y287970D01*
X473360Y289240D02*
X474630Y286700D01*
X473360Y284160D02*
X474630Y286700D01*
X319960Y282990D02*
X322500Y284261D01*
X325040Y282990D01*
X323770Y285530D02*
X325040Y282990D01*
X323770Y285530D02*
X325040Y288071D01*
X322500Y286800D02*
X325040Y288071D01*
X319960D02*
X322500Y286800D01*
X319960Y288071D02*
X321230Y285530D01*
X319960Y282990D02*
X321230Y285530D01*
X337960Y282990D02*
X340500Y284261D01*
X343040Y282990D01*
X341770Y285530D02*
X343040Y282990D01*
X341770Y285530D02*
X343040Y288071D01*
X340500Y286800D02*
X343040Y288071D01*
X337960D02*
X340500Y286800D01*
X337960Y288071D02*
X339230Y285530D01*
X337960Y282990D02*
X339230Y285530D01*
X286460Y259960D02*
X289000Y261230D01*
X291540Y259960D01*
X290270Y262500D02*
X291540Y259960D01*
X290270Y262500D02*
X291540Y265040D01*
X289000Y263770D02*
X291540Y265040D01*
X286460D02*
X289000Y263770D01*
X286460Y265040D02*
X287730Y262500D01*
X286460Y259960D02*
X287730Y262500D01*
X278960Y259960D02*
X281500Y261230D01*
X284040Y259960D01*
X282770Y262500D02*
X284040Y259960D01*
X282770Y262500D02*
X284040Y265040D01*
X281500Y263770D02*
X284040Y265040D01*
X278960D02*
X281500Y263770D01*
X278960Y265040D02*
X280230Y262500D01*
X278960Y259960D02*
X280230Y262500D01*
X610160Y237860D02*
X612700Y239130D01*
X615240Y237860D01*
X613970Y240400D02*
X615240Y237860D01*
X613970Y240400D02*
X615240Y242940D01*
X612700Y241670D02*
X615240Y242940D01*
X610160D02*
X612700Y241670D01*
X610160Y242940D02*
X611430Y240400D01*
X610160Y237860D02*
X611430Y240400D01*
X610060Y246060D02*
X612600Y247330D01*
X615140Y246060D01*
X613870Y248600D02*
X615140Y246060D01*
X613870Y248600D02*
X615140Y251140D01*
X612600Y249870D02*
X615140Y251140D01*
X610060D02*
X612600Y249870D01*
X610060Y251140D02*
X611330Y248600D01*
X610060Y246060D02*
X611330Y248600D01*
X439990Y201760D02*
X442530Y206840D01*
X437450D02*
X442530D01*
X437450D02*
X439990Y201760D01*
X460310D02*
X462850Y206840D01*
X457770D02*
X462850D01*
X457770D02*
X460310Y201760D01*
X450150Y277960D02*
X452690Y283040D01*
X447610D02*
X452690D01*
X447610D02*
X450150Y277960D01*
X612735Y313660D02*
X617815D01*
Y318740D01*
X612735D02*
X617815D01*
X612735Y313660D02*
Y318740D01*
X587335Y313660D02*
X592415D01*
Y318740D01*
X587335D02*
X592415D01*
X587335Y313660D02*
Y318740D01*
X561935Y313660D02*
X567015D01*
Y318740D01*
X561935D02*
X567015D01*
X561935Y313660D02*
Y318740D01*
X536535Y313660D02*
X541615D01*
Y318740D01*
X536535D02*
X541615D01*
X536535Y313660D02*
Y318740D01*
X511135Y313660D02*
X516215D01*
Y318740D01*
X511135D02*
X516215D01*
X511135Y313660D02*
Y318740D01*
X485735Y313660D02*
X490815D01*
Y318740D01*
X485735D02*
X490815D01*
X485735Y313660D02*
Y318740D01*
X460335Y313660D02*
X465415D01*
Y318740D01*
X460335D02*
X465415D01*
X460335Y313660D02*
Y318740D01*
X434935Y313660D02*
X440015D01*
Y318740D01*
X434935D02*
X440015D01*
X434935Y313660D02*
Y318740D01*
X409535Y313660D02*
X414615D01*
Y318740D01*
X409535D02*
X414615D01*
X409535Y313660D02*
Y318740D01*
X384135Y313660D02*
X389215D01*
Y318740D01*
X384135D02*
X389215D01*
X384135Y313660D02*
Y318740D01*
X358735Y313660D02*
X363815D01*
Y318740D01*
X358735D02*
X363815D01*
X358735Y313660D02*
Y318740D01*
X333335Y313660D02*
X338415D01*
Y318740D01*
X333335D02*
X338415D01*
X333335Y313660D02*
Y318740D01*
X307935Y313660D02*
X313015D01*
Y318740D01*
X307935D02*
X313015D01*
X307935Y313660D02*
Y318740D01*
X282535Y313660D02*
X287615D01*
Y318740D01*
X282535D02*
X287615D01*
X282535Y313660D02*
Y318740D01*
X257135Y313660D02*
X262215D01*
Y318740D01*
X257135D02*
X262215D01*
X257135Y313660D02*
Y318740D01*
Y161260D02*
X262215D01*
Y166340D01*
X257135D02*
X262215D01*
X257135Y161260D02*
Y166340D01*
X282535Y161260D02*
X287615D01*
Y166340D01*
X282535D02*
X287615D01*
X282535Y161260D02*
Y166340D01*
X307935Y161260D02*
X313015D01*
Y166340D01*
X307935D02*
X313015D01*
X307935Y161260D02*
Y166340D01*
X333335Y161260D02*
X338415D01*
Y166340D01*
X333335D02*
X338415D01*
X333335Y161260D02*
Y166340D01*
X358735Y161260D02*
X363815D01*
Y166340D01*
X358735D02*
X363815D01*
X358735Y161260D02*
Y166340D01*
X384135Y161260D02*
X389215D01*
Y166340D01*
X384135D02*
X389215D01*
X384135Y161260D02*
Y166340D01*
X409535Y161260D02*
X414615D01*
Y166340D01*
X409535D02*
X414615D01*
X409535Y161260D02*
Y166340D01*
X434935Y161260D02*
X440015D01*
Y166340D01*
X434935D02*
X440015D01*
X434935Y161260D02*
Y166340D01*
X460335Y161260D02*
X465415D01*
Y166340D01*
X460335D02*
X465415D01*
X460335Y161260D02*
Y166340D01*
X485735Y161260D02*
X490815D01*
Y166340D01*
X485735D02*
X490815D01*
X485735Y161260D02*
Y166340D01*
X511135Y161260D02*
X516215D01*
Y166340D01*
X511135D02*
X516215D01*
X511135Y161260D02*
Y166340D01*
X536535Y161260D02*
X541615D01*
Y166340D01*
X536535D02*
X541615D01*
X536535Y161260D02*
Y166340D01*
X561935Y161260D02*
X567015D01*
Y166340D01*
X561935D02*
X567015D01*
X561935Y161260D02*
Y166340D01*
X587335Y161260D02*
X592415D01*
Y166340D01*
X587335D02*
X592415D01*
X587335Y161260D02*
Y166340D01*
X612735Y161260D02*
X617815D01*
Y166340D01*
X612735D02*
X617815D01*
X612735Y161260D02*
Y166340D01*
D82*
X901405Y306005D02*
X3600674D01*
X901405Y153605D02*
X3600674D01*
X901405Y115505D02*
X3600674D01*
Y344105D01*
X901405D02*
X3600674D01*
X901405Y115505D02*
Y344105D01*
X3250508Y115505D02*
Y344105D01*
X2911772Y115505D02*
Y344105D01*
X2690854Y115505D02*
Y344105D01*
X2510563Y115505D02*
Y344105D01*
X2321131Y115505D02*
Y344105D01*
X2171309Y115505D02*
Y344105D01*
X1790423Y115505D02*
Y344105D01*
X1604037Y115505D02*
Y344105D01*
X1475545Y115505D02*
Y344105D01*
X1193687Y115505D02*
Y344105D01*
X1041327Y115505D02*
Y344105D01*
D83*
X3261938Y335717D02*
Y317435D01*
Y326576D01*
X3274126D01*
Y335717D01*
Y317435D01*
X3283267D02*
X3289361D01*
X3292408Y320482D01*
Y326576D01*
X3289361Y329623D01*
X3283267D01*
X3280220Y326576D01*
Y320482D01*
X3283267Y317435D01*
X3298502D02*
X3304596D01*
X3301549D01*
Y335717D01*
X3298502D01*
X3322878Y317435D02*
X3316784D01*
X3313737Y320482D01*
Y326576D01*
X3316784Y329623D01*
X3322878D01*
X3325925Y326576D01*
Y323529D01*
X3313737D01*
X3350301Y335717D02*
X3362489D01*
X3356395D01*
Y317435D01*
X3371630D02*
X3377725D01*
X3380771Y320482D01*
Y326576D01*
X3377725Y329623D01*
X3371630D01*
X3368583Y326576D01*
Y320482D01*
X3371630Y317435D01*
X3386866D02*
X3392960D01*
X3389912D01*
Y335717D01*
X3386866D01*
X3411241Y317435D02*
X3405148D01*
X3402101Y320482D01*
Y326576D01*
X3405148Y329623D01*
X3411241D01*
X3414289Y326576D01*
Y323529D01*
X3402101D01*
X3420383Y329623D02*
Y317435D01*
Y323529D01*
X3423430Y326576D01*
X3426477Y329623D01*
X3429524D01*
X3441712D02*
X3447806D01*
X3450853Y326576D01*
Y317435D01*
X3441712D01*
X3438665Y320482D01*
X3441712Y323529D01*
X3450853D01*
X3456947Y317435D02*
Y329623D01*
X3466088D01*
X3469135Y326576D01*
Y317435D01*
X3487417Y329623D02*
X3478276D01*
X3475229Y326576D01*
Y320482D01*
X3478276Y317435D01*
X3487417D01*
X3502652D02*
X3496558D01*
X3493511Y320482D01*
Y326576D01*
X3496558Y329623D01*
X3502652D01*
X3505699Y326576D01*
Y323529D01*
X3493511D01*
X3536169Y317435D02*
X3530075Y323529D01*
Y329623D01*
X3536169Y335717D01*
X3545310Y326576D02*
X3557498D01*
X3563592Y317435D02*
X3569686Y323529D01*
Y329623D01*
X3563592Y335717D01*
X2923202D02*
Y317435D01*
Y326576D01*
X2935390D01*
Y335717D01*
Y317435D01*
X2944531D02*
X2950625D01*
X2953672Y320482D01*
Y326576D01*
X2950625Y329623D01*
X2944531D01*
X2941483Y326576D01*
Y320482D01*
X2944531Y317435D01*
X2959766D02*
X2965860D01*
X2962813D01*
Y335717D01*
X2959766D01*
X2984142Y317435D02*
X2978048D01*
X2975001Y320482D01*
Y326576D01*
X2978048Y329623D01*
X2984142D01*
X2987189Y326576D01*
Y323529D01*
X2975001D01*
X3011565Y335717D02*
X3023753D01*
X3017659D01*
Y317435D01*
X3032894D02*
X3038988D01*
X3042035Y320482D01*
Y326576D01*
X3038988Y329623D01*
X3032894D01*
X3029847Y326576D01*
Y320482D01*
X3032894Y317435D01*
X3048129D02*
X3054223D01*
X3051176D01*
Y335717D01*
X3048129D01*
X3072505Y317435D02*
X3066411D01*
X3063364Y320482D01*
Y326576D01*
X3066411Y329623D01*
X3072505D01*
X3075552Y326576D01*
Y323529D01*
X3063364D01*
X3081646Y329623D02*
Y317435D01*
Y323529D01*
X3084693Y326576D01*
X3087740Y329623D01*
X3090787D01*
X3102975D02*
X3109070D01*
X3112116Y326576D01*
Y317435D01*
X3102975D01*
X3099928Y320482D01*
X3102975Y323529D01*
X3112116D01*
X3118210Y317435D02*
Y329623D01*
X3127351D01*
X3130399Y326576D01*
Y317435D01*
X3148681Y329623D02*
X3139539D01*
X3136493Y326576D01*
Y320482D01*
X3139539Y317435D01*
X3148681D01*
X3163916D02*
X3157822D01*
X3154774Y320482D01*
Y326576D01*
X3157822Y329623D01*
X3163916D01*
X3166963Y326576D01*
Y323529D01*
X3154774D01*
X3197433Y317435D02*
X3191339Y323529D01*
Y329623D01*
X3197433Y335717D01*
X3206574Y326576D02*
X3218762D01*
X3212668Y332670D02*
Y320482D01*
X3224856Y317435D02*
X3230950Y323529D01*
Y329623D01*
X3224856Y335717D01*
X2702284D02*
Y317435D01*
X2711425D01*
X2714472Y320482D01*
Y332670D01*
X2711425Y335717D01*
X2702284D01*
X2729707Y317435D02*
X2723613D01*
X2720566Y320482D01*
Y326576D01*
X2723613Y329623D01*
X2729707D01*
X2732754Y326576D01*
Y323529D01*
X2720566D01*
X2738848Y317435D02*
X2747989D01*
X2751036Y320482D01*
X2747989Y323529D01*
X2741895D01*
X2738848Y326576D01*
X2741895Y329623D01*
X2751036D01*
X2769318D02*
X2760177D01*
X2757130Y326576D01*
Y320482D01*
X2760177Y317435D01*
X2769318D01*
X2775412Y329623D02*
Y317435D01*
Y323529D01*
X2778459Y326576D01*
X2781506Y329623D01*
X2784553D01*
X2793694Y317435D02*
X2799789D01*
X2796741D01*
Y329623D01*
X2793694D01*
X2808929Y311341D02*
Y329623D01*
X2818070D01*
X2821118Y326576D01*
Y320482D01*
X2818070Y317435D01*
X2808929D01*
X2830258Y332670D02*
Y329623D01*
X2827212D01*
X2833305D01*
X2830258D01*
Y320482D01*
X2833305Y317435D01*
X2842447D02*
X2848541D01*
X2845493D01*
Y329623D01*
X2842447D01*
X2860729Y317435D02*
X2866823D01*
X2869870Y320482D01*
Y326576D01*
X2866823Y329623D01*
X2860729D01*
X2857682Y326576D01*
Y320482D01*
X2860729Y317435D01*
X2875964D02*
Y329623D01*
X2885105D01*
X2888152Y326576D01*
Y317435D01*
X2521993Y335717D02*
X2534181D01*
X2528087D01*
Y317435D01*
X2549416D02*
X2543322D01*
X2540275Y320482D01*
Y326576D01*
X2543322Y329623D01*
X2549416D01*
X2552463Y326576D01*
Y323529D01*
X2540275D01*
X2558557Y317435D02*
Y329623D01*
X2561604D01*
X2564651Y326576D01*
Y317435D01*
Y326576D01*
X2567698Y329623D01*
X2570746Y326576D01*
Y317435D01*
X2576840Y311341D02*
Y329623D01*
X2585981D01*
X2589028Y326576D01*
Y320482D01*
X2585981Y317435D01*
X2576840D01*
X2595121D02*
X2601216D01*
X2598169D01*
Y335717D01*
X2595121D01*
X2613404Y329623D02*
X2619498D01*
X2622545Y326576D01*
Y317435D01*
X2613404D01*
X2610357Y320482D01*
X2613404Y323529D01*
X2622545D01*
X2631686Y332670D02*
Y329623D01*
X2628639D01*
X2634733D01*
X2631686D01*
Y320482D01*
X2634733Y317435D01*
X2653015D02*
X2646921D01*
X2643874Y320482D01*
Y326576D01*
X2646921Y329623D01*
X2653015D01*
X2656062Y326576D01*
Y323529D01*
X2643874D01*
X2332560Y317435D02*
Y335717D01*
X2341702D01*
X2344749Y332670D01*
Y326576D01*
X2341702Y323529D01*
X2332560D01*
X2353890Y329623D02*
X2359984D01*
X2363031Y326576D01*
Y317435D01*
X2353890D01*
X2350843Y320482D01*
X2353890Y323529D01*
X2363031D01*
X2381313Y335717D02*
Y317435D01*
X2372172D01*
X2369125Y320482D01*
Y326576D01*
X2372172Y329623D01*
X2381313D01*
X2417877Y332670D02*
X2414830Y335717D01*
X2408736D01*
X2405689Y332670D01*
Y329623D01*
X2408736Y326576D01*
X2414830D01*
X2417877Y323529D01*
Y320482D01*
X2414830Y317435D01*
X2408736D01*
X2405689Y320482D01*
X2423971Y335717D02*
Y317435D01*
Y326576D01*
X2427018Y329623D01*
X2433112D01*
X2436159Y326576D01*
Y317435D01*
X2445300Y329623D02*
X2451394D01*
X2454441Y326576D01*
Y317435D01*
X2445300D01*
X2442253Y320482D01*
X2445300Y323529D01*
X2454441D01*
X2460535Y311341D02*
Y329623D01*
X2469676D01*
X2472723Y326576D01*
Y320482D01*
X2469676Y317435D01*
X2460535D01*
X2487958D02*
X2481864D01*
X2478817Y320482D01*
Y326576D01*
X2481864Y329623D01*
X2487958D01*
X2491005Y326576D01*
Y323529D01*
X2478817D01*
X2182739Y335717D02*
Y323529D01*
X2188833Y317435D01*
X2194927Y323529D01*
Y335717D01*
X2201021Y317435D02*
X2207115D01*
X2204068D01*
Y329623D01*
X2201021D01*
X2219303D02*
X2225397D01*
X2228444Y326576D01*
Y317435D01*
X2219303D01*
X2216256Y320482D01*
X2219303Y323529D01*
X2228444D01*
X2234538Y317435D02*
X2246726Y329623D01*
X2252820Y317435D02*
Y335717D01*
X2261961D01*
X2265008Y332670D01*
Y326576D01*
X2261961Y323529D01*
X2252820D01*
X2274149Y329623D02*
X2280243D01*
X2283291Y326576D01*
Y317435D01*
X2274149D01*
X2271102Y320482D01*
X2274149Y323529D01*
X2283291D01*
X2301573Y335717D02*
Y317435D01*
X2292431D01*
X2289384Y320482D01*
Y326576D01*
X2292431Y329623D01*
X2301573D01*
X1801853Y335717D02*
Y317435D01*
X1810994D01*
X1814041Y320482D01*
Y332670D01*
X1810994Y335717D01*
X1801853D01*
X1820135Y329623D02*
Y317435D01*
Y323529D01*
X1823182Y326576D01*
X1826229Y329623D01*
X1829276D01*
X1838417Y317435D02*
X1844511D01*
X1841464D01*
Y329623D01*
X1838417D01*
X1853652Y317435D02*
X1859746D01*
X1856699D01*
Y335717D01*
X1853652D01*
X1868887Y317435D02*
X1874982D01*
X1871935D01*
Y335717D01*
X1868887D01*
X1902405D02*
Y317435D01*
X1914593D01*
X1923734Y329623D02*
X1929828D01*
X1932875Y326576D01*
Y317435D01*
X1923734D01*
X1920687Y320482D01*
X1923734Y323529D01*
X1932875D01*
X1938969Y329623D02*
Y320482D01*
X1942016Y317435D01*
X1951157D01*
Y314388D01*
X1948110Y311341D01*
X1945063D01*
X1951157Y317435D02*
Y329623D01*
X1966392Y317435D02*
X1960298D01*
X1957251Y320482D01*
Y326576D01*
X1960298Y329623D01*
X1966392D01*
X1969439Y326576D01*
Y323529D01*
X1957251D01*
X1975533Y329623D02*
Y317435D01*
Y323529D01*
X1978580Y326576D01*
X1981627Y329623D01*
X1984674D01*
X2012097Y317435D02*
Y335717D01*
X2021238D01*
X2024285Y332670D01*
Y326576D01*
X2021238Y323529D01*
X2012097D01*
X2033426Y329623D02*
X2039520D01*
X2042567Y326576D01*
Y317435D01*
X2033426D01*
X2030379Y320482D01*
X2033426Y323529D01*
X2042567D01*
X2048661Y317435D02*
X2054755D01*
X2051708D01*
Y329623D01*
X2048661D01*
X2063896D02*
Y317435D01*
Y323529D01*
X2066943Y326576D01*
X2069990Y329623D01*
X2073037D01*
X1615468Y335717D02*
Y317435D01*
Y326576D01*
X1627655D01*
Y335717D01*
Y317435D01*
X1636797D02*
X1642891D01*
X1645938Y320482D01*
Y326576D01*
X1642891Y329623D01*
X1636797D01*
X1633750Y326576D01*
Y320482D01*
X1636797Y317435D01*
X1652032D02*
X1658126D01*
X1655079D01*
Y335717D01*
X1652032D01*
X1676408Y317435D02*
X1670314D01*
X1667267Y320482D01*
Y326576D01*
X1670314Y329623D01*
X1676408D01*
X1679455Y326576D01*
Y323529D01*
X1667267D01*
X1703831Y335717D02*
X1716019D01*
X1709925D01*
Y317435D01*
X1722113Y329623D02*
Y320482D01*
X1725160Y317435D01*
X1734301D01*
Y314388D01*
X1731254Y311341D01*
X1728207D01*
X1734301Y317435D02*
Y329623D01*
X1740395Y311341D02*
Y329623D01*
X1749536D01*
X1752583Y326576D01*
Y320482D01*
X1749536Y317435D01*
X1740395D01*
X1767818D02*
X1761724D01*
X1758677Y320482D01*
Y326576D01*
X1761724Y329623D01*
X1767818D01*
X1770865Y326576D01*
Y323529D01*
X1758677D01*
X1486975Y317435D02*
Y335717D01*
X1496116D01*
X1499163Y332670D01*
Y326576D01*
X1496116Y323529D01*
X1486975D01*
X1505257Y317435D02*
X1511351D01*
X1508304D01*
Y335717D01*
X1505257D01*
X1523539Y329623D02*
X1529633D01*
X1532680Y326576D01*
Y317435D01*
X1523539D01*
X1520492Y320482D01*
X1523539Y323529D01*
X1532680D01*
X1541821Y332670D02*
Y329623D01*
X1538774D01*
X1544868D01*
X1541821D01*
Y320482D01*
X1544868Y317435D01*
X1563150D02*
X1557056D01*
X1554009Y320482D01*
Y326576D01*
X1557056Y329623D01*
X1563150D01*
X1566197Y326576D01*
Y323529D01*
X1554009D01*
X1584480Y335717D02*
Y317435D01*
X1575338D01*
X1572291Y320482D01*
Y326576D01*
X1575338Y329623D01*
X1584480D01*
X1205117Y335717D02*
Y317435D01*
Y326576D01*
X1217305D01*
Y335717D01*
Y317435D01*
X1226446D02*
X1232540D01*
X1235587Y320482D01*
Y326576D01*
X1232540Y329623D01*
X1226446D01*
X1223399Y326576D01*
Y320482D01*
X1226446Y317435D01*
X1241681D02*
X1247775D01*
X1244728D01*
Y335717D01*
X1241681D01*
X1266058Y317435D02*
X1259963D01*
X1256916Y320482D01*
Y326576D01*
X1259963Y329623D01*
X1266058D01*
X1269105Y326576D01*
Y323529D01*
X1256916D01*
X1305669Y332670D02*
X1302622Y335717D01*
X1296528D01*
X1293481Y332670D01*
Y329623D01*
X1296528Y326576D01*
X1302622D01*
X1305669Y323529D01*
Y320482D01*
X1302622Y317435D01*
X1296528D01*
X1293481Y320482D01*
X1311763Y317435D02*
X1317857D01*
X1314810D01*
Y329623D01*
X1311763D01*
X1326998D02*
X1339186D01*
X1326998Y317435D01*
X1339186D01*
X1354421D02*
X1348327D01*
X1345280Y320482D01*
Y326576D01*
X1348327Y329623D01*
X1354421D01*
X1357468Y326576D01*
Y323529D01*
X1345280D01*
X1064946Y332670D02*
X1061898Y335717D01*
X1055804D01*
X1052757Y332670D01*
Y320482D01*
X1055804Y317435D01*
X1061898D01*
X1064946Y320482D01*
X1074087Y317435D02*
X1080181D01*
X1083228Y320482D01*
Y326576D01*
X1080181Y329623D01*
X1074087D01*
X1071040Y326576D01*
Y320482D01*
X1074087Y317435D01*
X1089322Y329623D02*
Y320482D01*
X1092369Y317435D01*
X1101510D01*
Y329623D01*
X1107604Y317435D02*
Y329623D01*
X1116745D01*
X1119792Y326576D01*
Y317435D01*
X1128933Y332670D02*
Y329623D01*
X1125886D01*
X1131980D01*
X1128933D01*
Y320482D01*
X1131980Y317435D01*
X936453Y332670D02*
X933406Y335717D01*
X927312D01*
X924265Y332670D01*
Y329623D01*
X927312Y326576D01*
X933406D01*
X936453Y323529D01*
Y320482D01*
X933406Y317435D01*
X927312D01*
X924265Y320482D01*
X942547Y329623D02*
Y320482D01*
X945594Y317435D01*
X954735D01*
Y314388D01*
X951688Y311341D01*
X948641D01*
X954735Y317435D02*
Y329623D01*
X960829Y317435D02*
Y329623D01*
X963876D01*
X966923Y326576D01*
Y317435D01*
Y326576D01*
X969970Y329623D01*
X973017Y326576D01*
Y317435D01*
X979111Y335717D02*
Y317435D01*
X988252D01*
X991299Y320482D01*
Y323529D01*
Y326576D01*
X988252Y329623D01*
X979111D01*
X1000440Y317435D02*
X1006534D01*
X1009581Y320482D01*
Y326576D01*
X1006534Y329623D01*
X1000440D01*
X997393Y326576D01*
Y320482D01*
X1000440Y317435D01*
X1015675D02*
X1021769D01*
X1018722D01*
Y335717D01*
X1015675D01*
M02*
