G04*
G04 #@! TF.GenerationSoftware,Altium Limited,Altium Designer,21.6.4 (81)*
G04*
G04 Layer_Physical_Order=3*
G04 Layer_Color=36540*
%FSLAX44Y44*%
%MOMM*%
G71*
G04*
G04 #@! TF.SameCoordinates,27B0D74A-EB15-4392-BC8F-D98A40C3D817*
G04*
G04*
G04 #@! TF.FilePolarity,Positive*
G04*
G01*
G75*
%ADD15C,0.1500*%
%ADD63C,1.4140*%
%ADD64R,1.4140X1.4140*%
%ADD70C,0.4000*%
%ADD73C,0.5000*%
G36*
X608266Y314700D02*
X608251Y314842D01*
X608205Y314970D01*
X608128Y315082D01*
X608021Y315180D01*
X607883Y315263D01*
X607715Y315330D01*
X607516Y315382D01*
X607286Y315420D01*
X607026Y315443D01*
X606735Y315450D01*
Y316950D01*
X607026Y316957D01*
X607286Y316980D01*
X607516Y317017D01*
X607715Y317070D01*
X607883Y317138D01*
X608021Y317220D01*
X608128Y317318D01*
X608205Y317430D01*
X608251Y317558D01*
X608266Y317700D01*
Y314700D01*
D02*
G37*
G36*
X584826Y311251D02*
X584023Y312049D01*
X581855Y313938D01*
X581212Y314400D01*
X580610Y314778D01*
X580048Y315072D01*
X579526Y315282D01*
X579044Y315408D01*
X578603Y315450D01*
Y316950D01*
X579044Y316992D01*
X579526Y317118D01*
X580048Y317328D01*
X580610Y317622D01*
X581212Y318000D01*
X581855Y318462D01*
X583260Y319637D01*
X584023Y320351D01*
X584826Y321149D01*
X584826Y311251D01*
D02*
G37*
G36*
X292148Y314997D02*
X292345Y312128D01*
X292473Y311347D01*
X292632Y310654D01*
X292821Y310049D01*
X293042Y309531D01*
X293293Y309102D01*
X293576Y308760D01*
X292515Y307699D01*
X292173Y307982D01*
X291744Y308233D01*
X291226Y308454D01*
X290621Y308643D01*
X289928Y308802D01*
X289147Y308930D01*
X287322Y309092D01*
X286278Y309127D01*
X285146Y309130D01*
X292145Y316129D01*
X292148Y314997D01*
D02*
G37*
G36*
X266748D02*
X266945Y312128D01*
X267073Y311347D01*
X267232Y310654D01*
X267421Y310049D01*
X267642Y309531D01*
X267893Y309102D01*
X268176Y308760D01*
X267115Y307699D01*
X266773Y307982D01*
X266344Y308233D01*
X265826Y308454D01*
X265221Y308643D01*
X264528Y308802D01*
X263747Y308930D01*
X261922Y309092D01*
X260878Y309127D01*
X259746Y309130D01*
X266745Y316129D01*
X266748Y314997D01*
D02*
G37*
G36*
X711370Y268000D02*
X703500Y268000D01*
X703500Y279000D01*
X679500Y279000D01*
X679500Y197000D01*
X703500Y197000D01*
Y207986D01*
X711370Y208015D01*
Y153630D01*
X707286D01*
X707891Y154234D01*
X708500Y155704D01*
Y157296D01*
X707891Y158766D01*
X706766Y159891D01*
X705296Y160500D01*
X703704D01*
X702234Y159891D01*
X701109Y158766D01*
X700500Y157296D01*
Y155704D01*
X701109Y154234D01*
X701714Y153630D01*
X659486D01*
X660591Y154734D01*
X661200Y156204D01*
Y157796D01*
X660591Y159266D01*
X659466Y160391D01*
X659444Y160400D01*
X659796D01*
X661266Y161009D01*
X661625Y161368D01*
X661911Y161480D01*
X662072Y161635D01*
X662192Y161737D01*
X662303Y161819D01*
X662405Y161884D01*
X662498Y161933D01*
X662583Y161969D01*
X662661Y161994D01*
X662736Y162011D01*
X662809Y162021D01*
X662958Y162028D01*
X663124Y162106D01*
X676500D01*
X677378Y162281D01*
X678122Y162778D01*
X683622Y168278D01*
X684119Y169022D01*
X684148Y169168D01*
X684294Y169900D01*
X684294Y169900D01*
Y187500D01*
X684119Y188378D01*
X683622Y189122D01*
X679094Y193650D01*
Y232600D01*
X679094Y232600D01*
X678948Y233332D01*
X678919Y233478D01*
X678422Y234222D01*
X676494Y236150D01*
Y290400D01*
X676319Y291278D01*
X675822Y292022D01*
X668222Y299622D01*
X667478Y300119D01*
X666600Y300294D01*
X666124D01*
X665958Y300372D01*
X665809Y300379D01*
X665736Y300389D01*
X665661Y300406D01*
X665583Y300431D01*
X665498Y300467D01*
X665405Y300516D01*
X665303Y300581D01*
X665192Y300663D01*
X665072Y300765D01*
X664911Y300920D01*
X664625Y301032D01*
X664266Y301391D01*
X662796Y302000D01*
X661204D01*
X659734Y301391D01*
X658609Y300266D01*
X658000Y298796D01*
Y297204D01*
X658609Y295734D01*
X659734Y294609D01*
X661204Y294000D01*
X662796D01*
X664266Y294609D01*
X664625Y294968D01*
X664911Y295080D01*
X665072Y295235D01*
X665192Y295337D01*
X665303Y295419D01*
X665405Y295483D01*
X665498Y295532D01*
X665583Y295569D01*
X665661Y295594D01*
X665736Y295611D01*
X665743Y295612D01*
X671906Y289450D01*
Y235200D01*
X671946Y234998D01*
X666394Y240550D01*
Y279900D01*
X666219Y280778D01*
X665722Y281522D01*
X659538Y287706D01*
X659476Y287879D01*
X659375Y287989D01*
X659331Y288048D01*
X659290Y288112D01*
X659253Y288186D01*
X659219Y288271D01*
X659187Y288372D01*
X659161Y288489D01*
X659140Y288626D01*
X659128Y288783D01*
X659123Y289006D01*
X659000Y289288D01*
Y289796D01*
X658391Y291266D01*
X657266Y292391D01*
X655796Y293000D01*
X654435D01*
Y296859D01*
X654261Y297737D01*
X653763Y298481D01*
X647372Y304872D01*
X646628Y305369D01*
X645750Y305544D01*
X635950D01*
X632872Y308622D01*
X632128Y309119D01*
X631250Y309294D01*
X624250D01*
X623845Y309214D01*
Y324770D01*
X606705D01*
Y318573D01*
X606694Y318573D01*
X606516Y318494D01*
X605450D01*
X604572Y318319D01*
X603828Y317822D01*
X595050Y309044D01*
X594620D01*
X595137Y309342D01*
X596733Y310938D01*
X597861Y312892D01*
X598445Y315072D01*
Y317328D01*
X597861Y319508D01*
X596733Y321462D01*
X595137Y323058D01*
X593183Y324186D01*
X591003Y324770D01*
X588747D01*
X586567Y324186D01*
X584613Y323058D01*
X583977Y322422D01*
X583682Y322301D01*
X583678Y322297D01*
D01*
D01*
X582896Y321520D01*
X582184Y320854D01*
X580859Y319745D01*
X580306Y319348D01*
X579801Y319031D01*
X579367Y318804D01*
X579016Y318663D01*
X578760Y318596D01*
X578449Y318566D01*
X578313Y318494D01*
X577655D01*
X576777Y318319D01*
X576033Y317822D01*
X576033Y317822D01*
X572958Y314747D01*
X573045Y315072D01*
Y317328D01*
X572461Y319508D01*
X571333Y321462D01*
X569737Y323058D01*
X567783Y324186D01*
X565603Y324770D01*
X563347D01*
X561167Y324186D01*
X559213Y323058D01*
X557617Y321462D01*
X556489Y319508D01*
X555905Y317328D01*
Y315072D01*
X556489Y312892D01*
X557617Y310938D01*
X559213Y309342D01*
X561167Y308214D01*
X561429Y308144D01*
X516721D01*
X516983Y308214D01*
X518937Y309342D01*
X520533Y310938D01*
X521661Y312892D01*
X522245Y315072D01*
Y317328D01*
X521661Y319508D01*
X520533Y321462D01*
X518937Y323058D01*
X516983Y324186D01*
X514803Y324770D01*
X512547D01*
X510367Y324186D01*
X508413Y323058D01*
X506817Y321462D01*
X505689Y319508D01*
X505105Y317328D01*
Y315072D01*
X505689Y312892D01*
X506817Y310938D01*
X508413Y309342D01*
X510367Y308214D01*
X510629Y308144D01*
X491321D01*
X491583Y308214D01*
X493537Y309342D01*
X495133Y310938D01*
X496261Y312892D01*
X496845Y315072D01*
Y317328D01*
X496261Y319508D01*
X495133Y321462D01*
X493537Y323058D01*
X491583Y324186D01*
X489403Y324770D01*
X487147D01*
X484967Y324186D01*
X483013Y323058D01*
X481417Y321462D01*
X480289Y319508D01*
X479705Y317328D01*
Y315072D01*
X480289Y312892D01*
X481417Y310938D01*
X483013Y309342D01*
X484967Y308214D01*
X485229Y308144D01*
X465921D01*
X466183Y308214D01*
X468137Y309342D01*
X469733Y310938D01*
X470861Y312892D01*
X471445Y315072D01*
Y317328D01*
X470861Y319508D01*
X469733Y321462D01*
X468137Y323058D01*
X466183Y324186D01*
X464003Y324770D01*
X461747D01*
X459567Y324186D01*
X457613Y323058D01*
X456017Y321462D01*
X454889Y319508D01*
X454305Y317328D01*
Y315072D01*
X454889Y312892D01*
X456017Y310938D01*
X457613Y309342D01*
X459567Y308214D01*
X459829Y308144D01*
X440521D01*
X440783Y308214D01*
X442737Y309342D01*
X444333Y310938D01*
X445461Y312892D01*
X446045Y315072D01*
Y317328D01*
X445461Y319508D01*
X444333Y321462D01*
X442737Y323058D01*
X440783Y324186D01*
X438603Y324770D01*
X436347D01*
X434167Y324186D01*
X432213Y323058D01*
X430617Y321462D01*
X429489Y319508D01*
X428905Y317328D01*
Y315072D01*
X429489Y312892D01*
X430617Y310938D01*
X432213Y309342D01*
X434167Y308214D01*
X434429Y308144D01*
X415121D01*
X415383Y308214D01*
X417337Y309342D01*
X418933Y310938D01*
X420061Y312892D01*
X420645Y315072D01*
Y317328D01*
X420061Y319508D01*
X418933Y321462D01*
X417337Y323058D01*
X415383Y324186D01*
X413203Y324770D01*
X410947D01*
X408767Y324186D01*
X406813Y323058D01*
X405217Y321462D01*
X404089Y319508D01*
X403505Y317328D01*
Y315072D01*
X404089Y312892D01*
X405217Y310938D01*
X406813Y309342D01*
X408767Y308214D01*
X409029Y308144D01*
X389721D01*
X389983Y308214D01*
X391937Y309342D01*
X393533Y310938D01*
X394661Y312892D01*
X395245Y315072D01*
Y317328D01*
X394661Y319508D01*
X393533Y321462D01*
X391937Y323058D01*
X389983Y324186D01*
X387803Y324770D01*
X385547D01*
X383367Y324186D01*
X381413Y323058D01*
X379817Y321462D01*
X378689Y319508D01*
X378105Y317328D01*
Y315072D01*
X378689Y312892D01*
X379817Y310938D01*
X381413Y309342D01*
X383367Y308214D01*
X383629Y308144D01*
X380100D01*
X380100Y308144D01*
X379368Y307998D01*
X379222Y307969D01*
X378478Y307472D01*
X365294Y294288D01*
X365121Y294226D01*
X365011Y294125D01*
X364952Y294081D01*
X364888Y294040D01*
X364814Y294003D01*
X364729Y293968D01*
X364628Y293937D01*
X364511Y293911D01*
X364374Y293890D01*
X364217Y293877D01*
X363994Y293873D01*
X363712Y293750D01*
X363204D01*
X361734Y293141D01*
X360609Y292016D01*
X360000Y290546D01*
Y288954D01*
X360609Y287484D01*
X361734Y286359D01*
X363098Y285794D01*
X356345D01*
X334422Y307717D01*
X334747Y307630D01*
X337003D01*
X339183Y308214D01*
X341137Y309342D01*
X342733Y310938D01*
X343861Y312892D01*
X344445Y315072D01*
Y317328D01*
X343861Y319508D01*
X342733Y321462D01*
X341137Y323058D01*
X339183Y324186D01*
X337003Y324770D01*
X334747D01*
X332567Y324186D01*
X330613Y323058D01*
X329017Y321462D01*
X327889Y319508D01*
X327305Y317328D01*
Y315072D01*
X327889Y312892D01*
X328783Y311344D01*
X317567D01*
X318461Y312892D01*
X319045Y315072D01*
Y317328D01*
X318461Y319508D01*
X317333Y321462D01*
X315737Y323058D01*
X313783Y324186D01*
X311603Y324770D01*
X309347D01*
X307167Y324186D01*
X305213Y323058D01*
X303617Y321462D01*
X302489Y319508D01*
X301905Y317328D01*
Y315072D01*
X302489Y312892D01*
X303617Y310938D01*
X305213Y309342D01*
X305504Y309174D01*
X295345D01*
X294873Y309646D01*
X294827Y309794D01*
X294628Y310035D01*
X294495Y310263D01*
X294347Y310611D01*
X294200Y311078D01*
X294067Y311659D01*
X293960Y312315D01*
X293772Y315056D01*
X293768Y316134D01*
X293645Y316429D01*
Y317328D01*
X293061Y319508D01*
X291933Y321462D01*
X290337Y323058D01*
X288383Y324186D01*
X286203Y324770D01*
X283947D01*
X281767Y324186D01*
X279813Y323058D01*
X278217Y321462D01*
X277089Y319508D01*
X276505Y317328D01*
Y315072D01*
X277089Y312892D01*
X278217Y310938D01*
X279813Y309342D01*
X281767Y308214D01*
X283947Y307630D01*
X284845D01*
X285140Y307507D01*
X286248Y307503D01*
X287223Y307471D01*
X288944Y307318D01*
X289615Y307208D01*
X290196Y307075D01*
X290664Y306928D01*
X291012Y306780D01*
X291240Y306647D01*
X291481Y306448D01*
X291628Y306402D01*
X292773Y305258D01*
X293517Y304761D01*
X294395Y304586D01*
X314335D01*
X315213Y304761D01*
X315958Y305258D01*
X317456Y306756D01*
X328894D01*
X333957Y301693D01*
X333198Y301844D01*
X277275D01*
X269473Y309646D01*
X269428Y309794D01*
X269228Y310035D01*
X269095Y310263D01*
X268946Y310611D01*
X268800Y311078D01*
X268667Y311659D01*
X268560Y312315D01*
X268372Y315056D01*
X268368Y316134D01*
X268245Y316429D01*
Y317328D01*
X267661Y319508D01*
X266533Y321462D01*
X264937Y323058D01*
X262983Y324186D01*
X260803Y324770D01*
X258547D01*
X256367Y324186D01*
X254413Y323058D01*
X252817Y321462D01*
X251689Y319508D01*
X251105Y317328D01*
Y315072D01*
X251689Y312892D01*
X252817Y310938D01*
X254413Y309342D01*
X256367Y308214D01*
X258547Y307630D01*
X259445D01*
X259740Y307507D01*
X260848Y307503D01*
X261823Y307471D01*
X263544Y307318D01*
X264215Y307208D01*
X264796Y307075D01*
X265264Y306928D01*
X265612Y306780D01*
X265840Y306647D01*
X266081Y306448D01*
X266228Y306402D01*
X274703Y297928D01*
X274703Y297928D01*
X275447Y297431D01*
X276325Y297256D01*
X332248D01*
X339973Y289531D01*
X339705D01*
X338234Y288922D01*
X337109Y287796D01*
X336500Y286326D01*
Y284735D01*
X337109Y283265D01*
X338234Y282139D01*
X339705Y281531D01*
X341296D01*
X342766Y282139D01*
X343832Y283206D01*
X355410Y271628D01*
X356155Y271131D01*
X357033Y270956D01*
X368000D01*
X368878Y271131D01*
X369622Y271628D01*
X373200Y275206D01*
X373212D01*
X366378Y268372D01*
X365881Y267628D01*
X365706Y266750D01*
Y265124D01*
X365628Y264958D01*
X365621Y264809D01*
X365611Y264736D01*
X365594Y264661D01*
X365569Y264583D01*
X365532Y264498D01*
X365484Y264405D01*
X365419Y264303D01*
X365337Y264192D01*
X365235Y264072D01*
X365080Y263911D01*
X364968Y263625D01*
X364609Y263266D01*
X364000Y261796D01*
Y260204D01*
X364609Y258734D01*
X364832Y258511D01*
X364157Y258376D01*
X364122Y258369D01*
X363378Y257872D01*
X363044Y257538D01*
X362871Y257476D01*
X362761Y257375D01*
X362702Y257330D01*
X362638Y257290D01*
X362565Y257253D01*
X362479Y257218D01*
X362378Y257187D01*
X362261Y257161D01*
X362124Y257140D01*
X361967Y257127D01*
X361744Y257123D01*
X361462Y257000D01*
X360954D01*
X359484Y256391D01*
X358359Y255266D01*
X357750Y253796D01*
Y252204D01*
X358359Y250734D01*
X359484Y249609D01*
X359747Y249500D01*
X359484Y249391D01*
X358359Y248266D01*
X357750Y246796D01*
Y245204D01*
X358359Y243734D01*
X359484Y242609D01*
X360954Y242000D01*
X362546D01*
X364016Y242609D01*
X365141Y243734D01*
X365750Y245204D01*
Y245712D01*
X365873Y245994D01*
X365877Y246217D01*
X365890Y246374D01*
X365911Y246511D01*
X365937Y246628D01*
X365968Y246729D01*
X366003Y246814D01*
X366040Y246888D01*
X366081Y246952D01*
X366125Y247011D01*
X366226Y247121D01*
X366288Y247294D01*
X368450Y249456D01*
X370033D01*
X370910Y249631D01*
X371655Y250128D01*
X374500Y252973D01*
Y252705D01*
X375109Y251234D01*
X376234Y250109D01*
X377705Y249500D01*
X379296D01*
X380766Y250109D01*
X381891Y251234D01*
X382500Y252705D01*
Y254296D01*
X381891Y255766D01*
X381701Y255956D01*
X387800D01*
X389632Y254124D01*
X389600D01*
X388452Y253648D01*
X377686Y242882D01*
X377646Y242842D01*
X377522Y242543D01*
X377294Y242315D01*
Y241992D01*
X377170Y241694D01*
X377294Y241395D01*
Y241072D01*
X377376Y240873D01*
Y239927D01*
X377015Y239054D01*
X376346Y238385D01*
X375473Y238024D01*
X374527D01*
X373654Y238385D01*
X372757Y239282D01*
X372688Y239448D01*
X372390Y239572D01*
X372162Y239800D01*
X371839Y239800D01*
X371540Y239924D01*
X356472Y239924D01*
X321748Y274648D01*
X320600Y275124D01*
X309500D01*
X308352Y274648D01*
X291577Y257874D01*
X285000D01*
X283852Y257398D01*
X272852Y246398D01*
X272376Y245250D01*
Y203250D01*
X272852Y202102D01*
X278376Y196577D01*
Y184072D01*
X270652Y176348D01*
X270176Y175200D01*
Y166800D01*
X270652Y165652D01*
X281452Y154852D01*
X282600Y154376D01*
X287700D01*
X288848Y154852D01*
X317848Y183852D01*
X318324Y185000D01*
Y200900D01*
D01*
Y200900D01*
X318127Y201376D01*
X317848Y202048D01*
X317848D01*
Y202048D01*
X315248Y204648D01*
X314575Y204927D01*
X314100Y205124D01*
X314100D01*
D01*
D01*
X309600Y205124D01*
X308452Y204648D01*
X305152Y201348D01*
X304676Y200200D01*
X304676Y191072D01*
X295229Y181625D01*
X291671Y181625D01*
X290524Y182773D01*
X290523Y202100D01*
X290048Y203248D01*
X289420Y203876D01*
X290500D01*
X290500D01*
D01*
X291648Y204352D01*
X292822Y205526D01*
X292945Y205824D01*
X293174Y206052D01*
X293585Y207046D01*
X294254Y207715D01*
X295247Y208126D01*
X295476Y208354D01*
X295774Y208478D01*
X305373Y218076D01*
X314232D01*
X313078Y216922D01*
X312581Y216178D01*
X312406Y215300D01*
Y210783D01*
X312581Y209905D01*
X313078Y209160D01*
X315910Y206328D01*
X316655Y205831D01*
X317533Y205656D01*
X318300D01*
X321406Y202550D01*
Y174324D01*
X321328Y174158D01*
X321321Y174009D01*
X321311Y173936D01*
X321294Y173861D01*
X321269Y173783D01*
X321232Y173698D01*
X321184Y173605D01*
X321119Y173503D01*
X321037Y173392D01*
X320935Y173272D01*
X320780Y173111D01*
X320668Y172825D01*
X320309Y172466D01*
X319700Y170996D01*
Y169404D01*
X320309Y167934D01*
X321434Y166809D01*
X322904Y166200D01*
X324496D01*
X325966Y166809D01*
X327091Y167934D01*
X327700Y169404D01*
Y170996D01*
X327091Y172466D01*
X326732Y172825D01*
X326620Y173111D01*
X326465Y173272D01*
X326363Y173392D01*
X326281Y173503D01*
X326216Y173605D01*
X326167Y173698D01*
X326131Y173783D01*
X326106Y173861D01*
X326089Y173936D01*
X326079Y174009D01*
X326072Y174158D01*
X325994Y174324D01*
Y202962D01*
X328678Y200278D01*
X329422Y199781D01*
X330300Y199606D01*
X331750D01*
X344978Y186378D01*
X345722Y185881D01*
X346600Y185706D01*
X357710D01*
X358588Y185881D01*
X359332Y186378D01*
X367310Y194356D01*
X399199D01*
X399009Y194166D01*
X398400Y192696D01*
Y191104D01*
X399009Y189634D01*
X399199Y189444D01*
X385950D01*
X385072Y189269D01*
X384328Y188772D01*
X371850Y176294D01*
X355000D01*
X354122Y176119D01*
X353378Y175622D01*
X344631Y166875D01*
X344498Y166928D01*
X344327Y167021D01*
X344163Y167137D01*
X344000Y167284D01*
X343836Y167466D01*
X343672Y167691D01*
X343475Y168018D01*
X343258Y168179D01*
X343134Y168420D01*
X343096Y168433D01*
X342733Y169062D01*
X341137Y170658D01*
X339183Y171786D01*
X337003Y172370D01*
X334747D01*
X332567Y171786D01*
X330613Y170658D01*
X329017Y169062D01*
X327889Y167108D01*
X327305Y164928D01*
Y162672D01*
X327889Y160492D01*
X329017Y158538D01*
X330613Y156942D01*
X332567Y155814D01*
X334747Y155230D01*
X337003D01*
X339183Y155814D01*
X341137Y156942D01*
X342733Y158538D01*
X343861Y160492D01*
X343926Y160734D01*
X344059Y160870D01*
X344192Y161205D01*
X344304Y161420D01*
X344413Y161584D01*
X344518Y161705D01*
X344619Y161793D01*
X344722Y161861D01*
X344837Y161915D01*
X344979Y161958D01*
X345157Y161989D01*
X345464Y162006D01*
X345802Y162167D01*
X346255Y162257D01*
X346999Y162755D01*
X355950Y171706D01*
X357829D01*
X356013Y170658D01*
X354417Y169062D01*
X353289Y167108D01*
X352705Y164928D01*
Y162672D01*
X353289Y160492D01*
X354417Y158538D01*
X356013Y156942D01*
X357967Y155814D01*
X360147Y155230D01*
X362403D01*
X364583Y155814D01*
X366537Y156942D01*
X367528Y157934D01*
X367780Y158038D01*
X367792Y158068D01*
X367821Y158081D01*
X369076Y159432D01*
X369620Y159943D01*
X370142Y160383D01*
X370626Y160740D01*
X371067Y161015D01*
X371458Y161212D01*
X371795Y161338D01*
X372073Y161403D01*
X372431Y161432D01*
X372751Y161596D01*
X373178Y161681D01*
X373922Y162178D01*
X378629Y166885D01*
X378105Y164928D01*
Y162672D01*
X378689Y160492D01*
X379817Y158538D01*
X381413Y156942D01*
X383367Y155814D01*
X385547Y155230D01*
X387803D01*
X389983Y155814D01*
X391937Y156942D01*
X393533Y158538D01*
X394661Y160492D01*
X395245Y162672D01*
Y163571D01*
X395368Y163866D01*
X395372Y164973D01*
X395404Y165948D01*
X395557Y167669D01*
X395667Y168341D01*
X395800Y168922D01*
X395946Y169389D01*
X396095Y169737D01*
X396228Y169965D01*
X396427Y170206D01*
X396473Y170354D01*
X397725Y171606D01*
X408455D01*
X406813Y170658D01*
X405217Y169062D01*
X404089Y167108D01*
X403505Y164928D01*
Y162672D01*
X404089Y160492D01*
X405217Y158538D01*
X406813Y156942D01*
X408767Y155814D01*
X410947Y155230D01*
X413203D01*
X415383Y155814D01*
X417337Y156942D01*
X418933Y158538D01*
X420061Y160492D01*
X420645Y162672D01*
Y163410D01*
X420768Y163688D01*
X420768Y163692D01*
D01*
D01*
X420794Y164809D01*
X420845Y165796D01*
X421027Y167536D01*
X421147Y168216D01*
X421287Y168804D01*
X421439Y169277D01*
X421590Y169628D01*
X421723Y169856D01*
X421919Y170092D01*
X421964Y170239D01*
X423130Y171406D01*
X433509D01*
X432213Y170658D01*
X430617Y169062D01*
X429489Y167108D01*
X428905Y164928D01*
Y162672D01*
X429489Y160492D01*
X430617Y158538D01*
X432213Y156942D01*
X434167Y155814D01*
X436347Y155230D01*
X438603D01*
X440783Y155814D01*
X442737Y156942D01*
X444333Y158538D01*
X445461Y160492D01*
X446045Y162672D01*
Y164928D01*
X445461Y167108D01*
X444333Y169062D01*
X442737Y170658D01*
X441441Y171406D01*
X458909D01*
X457613Y170658D01*
X456017Y169062D01*
X454889Y167108D01*
X454305Y164928D01*
Y162672D01*
X454889Y160492D01*
X456017Y158538D01*
X457613Y156942D01*
X459567Y155814D01*
X461747Y155230D01*
X464003D01*
X466183Y155814D01*
X468137Y156942D01*
X469733Y158538D01*
X470861Y160492D01*
X471445Y162672D01*
Y164928D01*
X470861Y167108D01*
X469733Y169062D01*
X468137Y170658D01*
X466841Y171406D01*
X484309D01*
X483013Y170658D01*
X481417Y169062D01*
X480289Y167108D01*
X479705Y164928D01*
Y162672D01*
X480289Y160492D01*
X481417Y158538D01*
X483013Y156942D01*
X484967Y155814D01*
X487147Y155230D01*
X489403D01*
X491583Y155814D01*
X493537Y156942D01*
X495133Y158538D01*
X496261Y160492D01*
X496845Y162672D01*
Y164928D01*
X496261Y167108D01*
X495133Y169062D01*
X493537Y170658D01*
X492241Y171406D01*
X506700D01*
X507578Y171581D01*
X508322Y172078D01*
X512700Y176456D01*
X521994D01*
X519596Y174058D01*
X519451Y174014D01*
X519238Y173839D01*
X519016Y173709D01*
X518654Y173546D01*
X518161Y173373D01*
X517589Y173210D01*
X513936Y172574D01*
X512796Y172449D01*
X512796Y172449D01*
X512795Y172449D01*
X512652Y172370D01*
X512547D01*
X510367Y171786D01*
X508413Y170658D01*
X506817Y169062D01*
X505689Y167108D01*
X505105Y164928D01*
Y162672D01*
X505689Y160492D01*
X506817Y158538D01*
X508413Y156942D01*
X510367Y155814D01*
X512547Y155230D01*
X514803D01*
X516983Y155814D01*
X518937Y156942D01*
X520533Y158538D01*
X521661Y160492D01*
X522245Y162672D01*
Y164568D01*
X522312Y164780D01*
X522142Y166788D01*
X522126Y167606D01*
X522150Y168346D01*
X522213Y168988D01*
X522308Y169528D01*
X522427Y169963D01*
X522560Y170292D01*
X522691Y170518D01*
X522907Y170778D01*
X522912Y170792D01*
X522925Y170800D01*
X522966Y170939D01*
X524633Y172606D01*
X582256D01*
X575824Y166174D01*
X575590Y166196D01*
X575334Y166263D01*
X574983Y166404D01*
X574549Y166631D01*
X574044Y166948D01*
X573505Y167336D01*
X571434Y169140D01*
X570668Y169901D01*
X570373Y170022D01*
X569737Y170658D01*
X567783Y171786D01*
X565603Y172370D01*
X563347D01*
X561167Y171786D01*
X559213Y170658D01*
X557617Y169062D01*
X556489Y167108D01*
X555905Y164928D01*
Y162672D01*
X556489Y160492D01*
X557617Y158538D01*
X559213Y156942D01*
X561167Y155814D01*
X563347Y155230D01*
X565603D01*
X567783Y155814D01*
X569737Y156942D01*
X570373Y157578D01*
X570668Y157699D01*
X570672Y157703D01*
D01*
D01*
X571454Y158480D01*
X572166Y159146D01*
X573491Y160255D01*
X574044Y160652D01*
X574549Y160969D01*
X574983Y161196D01*
X575334Y161337D01*
X575590Y161404D01*
X575901Y161434D01*
X576037Y161506D01*
X576694D01*
X577572Y161681D01*
X578317Y162178D01*
X588145Y172006D01*
X608300D01*
X609178Y172181D01*
X609922Y172678D01*
X617872Y180628D01*
X618369Y181372D01*
X618544Y182250D01*
Y183799D01*
X618734Y183609D01*
X620204Y183000D01*
X621796D01*
X623266Y183609D01*
X624391Y184734D01*
X625000Y186204D01*
Y187796D01*
X624391Y189266D01*
X623266Y190391D01*
X621796Y191000D01*
X620204D01*
X618734Y190391D01*
X618544Y190201D01*
Y194300D01*
X623250Y199006D01*
X640600D01*
X641478Y199181D01*
X642222Y199678D01*
X661006Y218462D01*
X661179Y218524D01*
X661289Y218625D01*
X661348Y218669D01*
X661412Y218710D01*
X661486Y218747D01*
X661571Y218782D01*
X661672Y218813D01*
X661789Y218839D01*
X661926Y218860D01*
X662083Y218873D01*
X662306Y218877D01*
X662588Y219000D01*
X663096D01*
X664566Y219609D01*
X664906Y219949D01*
Y216150D01*
X652378Y203622D01*
X651881Y202878D01*
X651706Y202000D01*
Y191124D01*
X651628Y190958D01*
X651622Y190809D01*
X651612Y190735D01*
X651594Y190661D01*
X651569Y190583D01*
X651533Y190498D01*
X651484Y190405D01*
X651419Y190303D01*
X651337Y190192D01*
X651235Y190072D01*
X651080Y189911D01*
X650968Y189625D01*
X650609Y189266D01*
X650000Y187796D01*
Y186204D01*
X650609Y184734D01*
X651734Y183609D01*
X653205Y183000D01*
X654796D01*
X655200Y183167D01*
Y181604D01*
X655784Y180194D01*
X653354D01*
X653185Y180272D01*
X653035Y180278D01*
X652944Y180289D01*
X652843Y180309D01*
X652733Y180339D01*
X652612Y180382D01*
X652479Y180438D01*
X652355Y180499D01*
X652001Y180711D01*
X651816Y180842D01*
X651686Y180870D01*
X651666Y180891D01*
X650196Y181500D01*
X648604D01*
X647134Y180891D01*
X647094Y180851D01*
X646591Y182066D01*
X645466Y183191D01*
X644861Y183441D01*
X645266Y183609D01*
X646391Y184734D01*
X647000Y186204D01*
Y187796D01*
X646391Y189266D01*
X645266Y190391D01*
X643796Y191000D01*
X642204D01*
X640734Y190391D01*
X639609Y189266D01*
X639000Y187796D01*
Y186204D01*
X639609Y184734D01*
X640734Y183609D01*
X641339Y183358D01*
X640934Y183191D01*
X639809Y182066D01*
X639200Y180596D01*
Y179004D01*
X639809Y177534D01*
X640934Y176409D01*
X642404Y175800D01*
X643996D01*
X645466Y176409D01*
X645506Y176449D01*
X646009Y175234D01*
X647134Y174109D01*
X648604Y173500D01*
X650196D01*
X651666Y174109D01*
X652488Y174931D01*
X652734Y175074D01*
X652853Y175231D01*
X652931Y175318D01*
X652999Y175382D01*
X653058Y175429D01*
X653110Y175461D01*
X653156Y175484D01*
X653200Y175500D01*
X653248Y175513D01*
X653305Y175521D01*
X653453Y175528D01*
X653547Y175573D01*
X653648Y175550D01*
X653738Y175606D01*
X656242D01*
X656355Y175531D01*
X657233Y175356D01*
X662067D01*
X662945Y175531D01*
X663690Y176028D01*
X671822Y184160D01*
X672319Y184905D01*
X672494Y185783D01*
Y188562D01*
X676706Y184350D01*
Y174550D01*
X674450Y172294D01*
X659724D01*
X659558Y172372D01*
X659409Y172379D01*
X659336Y172389D01*
X659261Y172406D01*
X659183Y172431D01*
X659098Y172467D01*
X659005Y172516D01*
X658903Y172581D01*
X658792Y172663D01*
X658672Y172765D01*
X658511Y172920D01*
X658225Y173032D01*
X657866Y173391D01*
X656396Y174000D01*
X654804D01*
X653334Y173391D01*
X652209Y172266D01*
X651600Y170796D01*
Y169204D01*
X652209Y167734D01*
X653334Y166609D01*
X654804Y166000D01*
X655333D01*
X655000Y165196D01*
Y163604D01*
X655609Y162134D01*
X656734Y161009D01*
X656756Y161000D01*
X656404D01*
X654934Y160391D01*
X653809Y159266D01*
X653200Y157796D01*
Y156204D01*
X653809Y154734D01*
X654913Y153630D01*
X643292D01*
X644733Y154016D01*
X647127Y155398D01*
X649082Y157353D01*
X650464Y159747D01*
X651180Y162418D01*
Y165182D01*
X650464Y167853D01*
X649082Y170247D01*
X647127Y172202D01*
X644733Y173584D01*
X642062Y174300D01*
X639298D01*
X636627Y173584D01*
X634233Y172202D01*
X632278Y170247D01*
X630896Y167853D01*
X630180Y165182D01*
Y162418D01*
X630896Y159747D01*
X632278Y157353D01*
X634233Y155398D01*
X636627Y154016D01*
X638068Y153630D01*
X236882D01*
X238323Y154016D01*
X240717Y155398D01*
X242672Y157353D01*
X244054Y159747D01*
X244770Y162418D01*
Y165182D01*
X244054Y167853D01*
X242672Y170247D01*
X240717Y172202D01*
X239549Y172876D01*
X240000D01*
X241148Y173352D01*
X245748Y177952D01*
X246224Y179100D01*
Y194328D01*
X248272Y196376D01*
X268600D01*
X269748Y196852D01*
X270224Y198000D01*
Y220000D01*
X269748Y221148D01*
X268600Y221624D01*
X249224D01*
Y258376D01*
X268600D01*
X269748Y258852D01*
X270224Y260000D01*
Y299300D01*
X269748Y300448D01*
X264048Y306148D01*
X262900Y306624D01*
X238683D01*
X240717Y307798D01*
X242672Y309753D01*
X244054Y312147D01*
X244770Y314818D01*
Y317582D01*
X244054Y320253D01*
X242672Y322647D01*
X240717Y324602D01*
X238323Y325984D01*
X236882Y326370D01*
X638068D01*
X636627Y325984D01*
X634233Y324602D01*
X632278Y322647D01*
X630896Y320253D01*
X630180Y317582D01*
Y314818D01*
X630896Y312147D01*
X632278Y309753D01*
X634233Y307798D01*
X636627Y306416D01*
X639298Y305700D01*
X642062D01*
X644733Y306416D01*
X647127Y307798D01*
X649082Y309753D01*
X650464Y312147D01*
X651180Y314818D01*
Y317582D01*
X650464Y320253D01*
X649082Y322647D01*
X647127Y324602D01*
X644733Y325984D01*
X643292Y326370D01*
X711370D01*
Y268000D01*
D02*
G37*
G36*
X568057Y300544D02*
X545250D01*
X545250Y300544D01*
X544518Y300399D01*
X544372Y300370D01*
X543628Y299872D01*
X543628Y299872D01*
X538378Y294622D01*
X537881Y293878D01*
X537706Y293000D01*
Y287950D01*
X534550Y284794D01*
X530038D01*
X531206Y285962D01*
X531379Y286024D01*
X531489Y286125D01*
X531548Y286169D01*
X531612Y286210D01*
X531685Y286247D01*
X531771Y286282D01*
X531872Y286313D01*
X531989Y286339D01*
X532126Y286360D01*
X532283Y286373D01*
X532506Y286377D01*
X532788Y286500D01*
X533296D01*
X534766Y287109D01*
X535891Y288234D01*
X536500Y289704D01*
Y291296D01*
X535891Y292766D01*
X534766Y293891D01*
X533296Y294500D01*
X531704D01*
X530234Y293891D01*
X529109Y292766D01*
X528500Y291296D01*
Y290788D01*
X528377Y290506D01*
X528373Y290283D01*
X528360Y290126D01*
X528339Y289989D01*
X528313Y289872D01*
X528282Y289771D01*
X528247Y289686D01*
X528210Y289612D01*
X528170Y289548D01*
X528125Y289489D01*
X528024Y289379D01*
X527962Y289206D01*
X526800Y288044D01*
X504282D01*
X503404Y287869D01*
X502660Y287372D01*
X501082Y285794D01*
X499951D01*
X500391Y286234D01*
X501000Y287704D01*
Y289296D01*
X500391Y290766D01*
X499266Y291891D01*
X497796Y292500D01*
X497288D01*
X497006Y292623D01*
X496783Y292628D01*
X496626Y292640D01*
X496489Y292661D01*
X496371Y292687D01*
X496271Y292718D01*
X496186Y292753D01*
X496112Y292790D01*
X496048Y292831D01*
X495989Y292875D01*
X495879Y292976D01*
X495706Y293038D01*
X488188Y300556D01*
X568069D01*
X568057Y300544D01*
D02*
G37*
G36*
X637715Y296750D02*
X637517Y296940D01*
X637317Y297110D01*
X637114Y297260D01*
X636908Y297390D01*
X636700Y297500D01*
X636488Y297590D01*
X636274Y297660D01*
X636057Y297710D01*
X635838Y297740D01*
X635615Y297750D01*
Y299250D01*
X635838Y299260D01*
X636057Y299290D01*
X636274Y299340D01*
X636488Y299410D01*
X636700Y299500D01*
X636908Y299610D01*
X637114Y299740D01*
X637317Y299890D01*
X637517Y300060D01*
X637715Y300250D01*
Y296750D01*
D02*
G37*
G36*
X624965D02*
X624767Y296940D01*
X624567Y297110D01*
X624364Y297260D01*
X624158Y297390D01*
X623950Y297500D01*
X623738Y297590D01*
X623524Y297660D01*
X623307Y297710D01*
X623088Y297740D01*
X622865Y297750D01*
Y299250D01*
X623088Y299260D01*
X623307Y299290D01*
X623524Y299340D01*
X623738Y299410D01*
X623950Y299500D01*
X624158Y299610D01*
X624364Y299740D01*
X624567Y299890D01*
X624767Y300060D01*
X624965Y300250D01*
Y296750D01*
D02*
G37*
G36*
X663983Y299560D02*
X664183Y299390D01*
X664386Y299240D01*
X664592Y299110D01*
X664800Y299000D01*
X665012Y298910D01*
X665226Y298840D01*
X665443Y298790D01*
X665662Y298760D01*
X665885Y298750D01*
Y297250D01*
X665662Y297240D01*
X665443Y297210D01*
X665226Y297160D01*
X665012Y297090D01*
X664800Y297000D01*
X664592Y296890D01*
X664386Y296760D01*
X664183Y296610D01*
X663983Y296440D01*
X663785Y296250D01*
Y299750D01*
X663983Y299560D01*
D02*
G37*
G36*
X645582Y292888D02*
X645369Y293069D01*
X645156Y293230D01*
X644942Y293373D01*
X644727Y293496D01*
X644512Y293601D01*
X644295Y293686D01*
X644078Y293753D01*
X643860Y293800D01*
X643642Y293829D01*
X643422Y293838D01*
X643320Y295338D01*
X643545Y295349D01*
X643766Y295380D01*
X643981Y295432D01*
X644192Y295505D01*
X644398Y295599D01*
X644599Y295714D01*
X644795Y295849D01*
X644987Y296005D01*
X645173Y296183D01*
X645355Y296381D01*
X645582Y292888D01*
D02*
G37*
G36*
X367277Y291967D02*
X367127Y291802D01*
X366993Y291626D01*
X366875Y291437D01*
X366773Y291236D01*
X366687Y291023D01*
X366618Y290798D01*
X366564Y290560D01*
X366526Y290311D01*
X366505Y290049D01*
X366500Y289775D01*
X364025Y292250D01*
X364299Y292255D01*
X364561Y292276D01*
X364810Y292314D01*
X365048Y292367D01*
X365273Y292437D01*
X365486Y292523D01*
X365687Y292625D01*
X365876Y292743D01*
X366052Y292877D01*
X366217Y293027D01*
X367277Y291967D01*
D02*
G37*
G36*
X494948Y291627D02*
X495124Y291493D01*
X495313Y291375D01*
X495514Y291273D01*
X495727Y291187D01*
X495952Y291118D01*
X496190Y291064D01*
X496439Y291026D01*
X496701Y291005D01*
X496975Y291000D01*
X494500Y288525D01*
X494495Y288799D01*
X494473Y289061D01*
X494436Y289310D01*
X494383Y289548D01*
X494313Y289773D01*
X494227Y289986D01*
X494125Y290187D01*
X494007Y290376D01*
X493873Y290552D01*
X493723Y290717D01*
X494783Y291777D01*
X494948Y291627D01*
D02*
G37*
G36*
X394777Y290467D02*
X394627Y290302D01*
X394493Y290126D01*
X394375Y289937D01*
X394273Y289736D01*
X394187Y289523D01*
X394118Y289298D01*
X394064Y289060D01*
X394026Y288811D01*
X394005Y288549D01*
X394000Y288275D01*
X391525Y290750D01*
X391799Y290755D01*
X392061Y290777D01*
X392310Y290814D01*
X392548Y290868D01*
X392773Y290937D01*
X392986Y291023D01*
X393187Y291125D01*
X393376Y291243D01*
X393552Y291377D01*
X393717Y291527D01*
X394777Y290467D01*
D02*
G37*
G36*
X593622Y287529D02*
X593361Y287559D01*
X593111Y287569D01*
X592870Y287559D01*
X592640Y287528D01*
X592420Y287477D01*
X592211Y287405D01*
X592011Y287313D01*
X591822Y287200D01*
X591643Y287067D01*
X591474Y286914D01*
X590573Y288133D01*
X590719Y288292D01*
X590853Y288464D01*
X590977Y288650D01*
X591089Y288849D01*
X591189Y289061D01*
X591278Y289288D01*
X591356Y289528D01*
X591423Y289781D01*
X591478Y290048D01*
X591522Y290329D01*
X593622Y287529D01*
D02*
G37*
G36*
X619715Y287315D02*
X619517Y287505D01*
X619317Y287675D01*
X619114Y287825D01*
X618908Y287955D01*
X618700Y288065D01*
X618488Y288155D01*
X618274Y288225D01*
X618057Y288275D01*
X617838Y288305D01*
X617615Y288315D01*
Y289815D01*
X617838Y289825D01*
X618057Y289855D01*
X618274Y289905D01*
X618488Y289975D01*
X618700Y290065D01*
X618908Y290175D01*
X619114Y290305D01*
X619317Y290455D01*
X619517Y290625D01*
X619715Y290815D01*
Y287315D01*
D02*
G37*
G36*
X532475Y288000D02*
X532201Y287995D01*
X531939Y287973D01*
X531690Y287936D01*
X531452Y287882D01*
X531227Y287813D01*
X531014Y287727D01*
X530813Y287625D01*
X530624Y287507D01*
X530448Y287373D01*
X530283Y287223D01*
X529223Y288283D01*
X529373Y288448D01*
X529507Y288624D01*
X529625Y288813D01*
X529727Y289014D01*
X529813Y289227D01*
X529883Y289452D01*
X529936Y289690D01*
X529973Y289939D01*
X529995Y290201D01*
X530000Y290475D01*
X532475Y288000D01*
D02*
G37*
G36*
X643122Y286462D02*
X642861Y286492D01*
X642611Y286502D01*
X642370Y286492D01*
X642140Y286461D01*
X641920Y286410D01*
X641711Y286338D01*
X641511Y286246D01*
X641322Y286133D01*
X641143Y286000D01*
X640974Y285847D01*
X640073Y287067D01*
X640219Y287225D01*
X640353Y287397D01*
X640477Y287583D01*
X640589Y287782D01*
X640689Y287995D01*
X640778Y288221D01*
X640856Y288461D01*
X640923Y288714D01*
X640978Y288981D01*
X641022Y289262D01*
X643122Y286462D01*
D02*
G37*
G36*
X632122Y286462D02*
X631861Y286492D01*
X631611Y286502D01*
X631371Y286492D01*
X631140Y286461D01*
X630921Y286410D01*
X630711Y286338D01*
X630512Y286246D01*
X630322Y286133D01*
X630143Y286000D01*
X629974Y285847D01*
X629073Y287066D01*
X629219Y287225D01*
X629353Y287397D01*
X629477Y287582D01*
X629589Y287782D01*
X629689Y287994D01*
X629778Y288221D01*
X629856Y288461D01*
X629923Y288714D01*
X629978Y288981D01*
X630022Y289262D01*
X632122Y286462D01*
D02*
G37*
G36*
X424032Y288794D02*
X412900D01*
X412022Y288619D01*
X411278Y288122D01*
X411278Y288122D01*
X409250Y286094D01*
Y286296D01*
X408641Y287766D01*
X407516Y288891D01*
X406046Y289500D01*
X405777D01*
X410833Y294556D01*
X429794D01*
X424032Y288794D01*
D02*
G37*
G36*
X492462Y289794D02*
X492524Y289621D01*
X492625Y289511D01*
X492669Y289452D01*
X492710Y289388D01*
X492747Y289314D01*
X492781Y289229D01*
X492813Y289128D01*
X492839Y289011D01*
X492860Y288874D01*
X492873Y288717D01*
X492877Y288494D01*
X493000Y288212D01*
Y287704D01*
X493609Y286234D01*
X494049Y285794D01*
X487650D01*
X475888Y297556D01*
X484700D01*
X492462Y289794D01*
D02*
G37*
G36*
X657505Y288701D02*
X657526Y288439D01*
X657564Y288190D01*
X657618Y287952D01*
X657687Y287727D01*
X657773Y287514D01*
X657875Y287313D01*
X657993Y287124D01*
X658127Y286948D01*
X658277Y286783D01*
X657217Y285723D01*
X657052Y285873D01*
X656876Y286007D01*
X656687Y286125D01*
X656486Y286227D01*
X656273Y286313D01*
X656048Y286383D01*
X655810Y286436D01*
X655561Y286474D01*
X655299Y286495D01*
X655025Y286500D01*
X657500Y288975D01*
X657505Y288701D01*
D02*
G37*
G36*
X646781Y286322D02*
X647278Y285578D01*
X658406Y274450D01*
Y236800D01*
X658581Y235922D01*
X659078Y235178D01*
X661962Y232294D01*
X645550D01*
X628236Y249609D01*
X629705Y249000D01*
X631296D01*
X632766Y249609D01*
X633891Y250734D01*
X634500Y252205D01*
Y253796D01*
X633891Y255266D01*
X632766Y256391D01*
X631296Y257000D01*
X629705D01*
X628234Y256391D01*
X627797Y255954D01*
X627372Y256590D01*
X627372Y256590D01*
X624590Y259372D01*
X623845Y259870D01*
X622967Y260044D01*
X607350D01*
X607350Y260044D01*
X606618Y259899D01*
X606472Y259870D01*
X605728Y259372D01*
X605728Y259372D01*
X603794Y257438D01*
Y258626D01*
X603872Y258792D01*
X603879Y258941D01*
X603889Y259014D01*
X603906Y259089D01*
X603931Y259167D01*
X603968Y259252D01*
X604016Y259345D01*
X604081Y259447D01*
X604163Y259558D01*
X604265Y259678D01*
X604420Y259839D01*
X604532Y260125D01*
X604891Y260484D01*
X605500Y261954D01*
Y263546D01*
X604891Y265016D01*
X603766Y266141D01*
X602296Y266750D01*
X600704D01*
X599234Y266141D01*
X598109Y265016D01*
X597500Y263546D01*
Y261954D01*
X597873Y261054D01*
X596796Y261500D01*
X595204D01*
X593734Y260891D01*
X592609Y259766D01*
X592544Y259609D01*
Y259800D01*
X607950Y275206D01*
X631567D01*
X632445Y275381D01*
X633189Y275878D01*
X641823Y284512D01*
X641939Y284541D01*
X641984Y284616D01*
X642066Y284646D01*
X642176Y284745D01*
X642224Y284781D01*
X642269Y284808D01*
X642316Y284829D01*
X642369Y284847D01*
X642433Y284862D01*
X642514Y284873D01*
X642613Y284877D01*
X642734Y284873D01*
X642933Y284849D01*
X643229Y284933D01*
X644296D01*
X645766Y285542D01*
X646742Y286518D01*
X646781Y286322D01*
D02*
G37*
G36*
X462115Y281250D02*
X461917Y281440D01*
X461717Y281610D01*
X461514Y281760D01*
X461308Y281890D01*
X461100Y282000D01*
X460888Y282090D01*
X460674Y282160D01*
X460457Y282210D01*
X460238Y282240D01*
X460015Y282250D01*
Y283750D01*
X460238Y283760D01*
X460457Y283790D01*
X460674Y283840D01*
X460888Y283910D01*
X461100Y284000D01*
X461308Y284110D01*
X461514Y284240D01*
X461717Y284390D01*
X461917Y284560D01*
X462115Y284750D01*
Y281250D01*
D02*
G37*
G36*
X466420Y282886D02*
X466459Y282621D01*
X466512Y282368D01*
X466579Y282129D01*
X466659Y281903D01*
X466752Y281689D01*
X466860Y281489D01*
X466981Y281301D01*
X467115Y281127D01*
X467263Y280965D01*
X466287Y279820D01*
X466120Y279972D01*
X465942Y280106D01*
X465753Y280221D01*
X465552Y280318D01*
X465341Y280396D01*
X465118Y280455D01*
X464884Y280497D01*
X464638Y280519D01*
X464382Y280523D01*
X464114Y280509D01*
X466395Y283165D01*
X466420Y282886D01*
D02*
G37*
G36*
X575128Y296572D02*
X574631Y295828D01*
X574456Y294950D01*
Y288983D01*
X561167Y275694D01*
X554733D01*
X553663Y276763D01*
X552919Y277261D01*
X552041Y277435D01*
X548209D01*
X545772Y279872D01*
X545028Y280369D01*
X544150Y280544D01*
X536623D01*
X537122Y280878D01*
X541622Y285378D01*
X541622Y285378D01*
X542119Y286122D01*
X542148Y286268D01*
X542294Y287000D01*
X542294Y287000D01*
Y292050D01*
X546200Y295956D01*
X550994D01*
X549538Y294500D01*
X548204D01*
X546734Y293891D01*
X545609Y292766D01*
X545000Y291296D01*
Y289704D01*
X545609Y288234D01*
X546734Y287109D01*
X547525Y286782D01*
X546709Y285966D01*
X546100Y284496D01*
Y282904D01*
X546709Y281434D01*
X547834Y280309D01*
X549304Y279700D01*
X550896D01*
X552366Y280309D01*
X553491Y281434D01*
X554100Y282904D01*
Y284496D01*
X553491Y285966D01*
X552366Y287091D01*
X551575Y287418D01*
X552391Y288234D01*
X553000Y289704D01*
Y291078D01*
X553044Y291300D01*
Y291517D01*
X554483Y292956D01*
X570250D01*
X571128Y293131D01*
X571872Y293628D01*
X576700Y298456D01*
X577012D01*
X575128Y296572D01*
D02*
G37*
G36*
X489022Y280737D02*
X489201Y280604D01*
X489390Y280494D01*
X489588Y280406D01*
X489795Y280340D01*
X490011Y280296D01*
X490237Y280274D01*
X490471Y280275D01*
X490715Y280298D01*
X490968Y280343D01*
X489047Y277417D01*
X488986Y277698D01*
X488836Y278218D01*
X488747Y278458D01*
X488649Y278683D01*
X488542Y278894D01*
X488426Y279091D01*
X488300Y279275D01*
X488166Y279444D01*
X488022Y279599D01*
X488851Y280891D01*
X489022Y280737D01*
D02*
G37*
G36*
X360983Y279560D02*
X361183Y279390D01*
X361386Y279240D01*
X361592Y279110D01*
X361800Y279000D01*
X362012Y278910D01*
X362226Y278840D01*
X362443Y278790D01*
X362662Y278760D01*
X362885Y278750D01*
Y277250D01*
X362662Y277240D01*
X362443Y277210D01*
X362226Y277160D01*
X362012Y277090D01*
X361800Y277000D01*
X361592Y276890D01*
X361386Y276760D01*
X361183Y276610D01*
X360983Y276440D01*
X360785Y276250D01*
Y279750D01*
X360983Y279560D01*
D02*
G37*
G36*
X590609Y292266D02*
X590000Y290796D01*
Y290714D01*
X589918Y290579D01*
X589880Y290337D01*
X589841Y290152D01*
X589798Y289985D01*
X589749Y289837D01*
X589698Y289707D01*
X589645Y289594D01*
X589591Y289498D01*
X589536Y289415D01*
X589481Y289344D01*
X589379Y289234D01*
X589315Y289059D01*
X578128Y277872D01*
X577631Y277128D01*
X577456Y276250D01*
Y268590D01*
X572898Y273148D01*
X572225Y273427D01*
X571750Y273624D01*
X570068D01*
X581372Y284928D01*
X581870Y285672D01*
X582044Y286550D01*
Y291017D01*
X583483Y292456D01*
X590799D01*
X590609Y292266D01*
D02*
G37*
G36*
X368760Y264662D02*
X368790Y264443D01*
X368840Y264226D01*
X368910Y264012D01*
X369000Y263800D01*
X369110Y263592D01*
X369240Y263386D01*
X369390Y263183D01*
X369560Y262983D01*
X369750Y262785D01*
X366250D01*
X366440Y262983D01*
X366610Y263183D01*
X366760Y263386D01*
X366890Y263592D01*
X367000Y263800D01*
X367090Y264012D01*
X367160Y264226D01*
X367210Y264443D01*
X367240Y264662D01*
X367250Y264885D01*
X368750D01*
X368760Y264662D01*
D02*
G37*
G36*
X541234Y275391D02*
X540109Y274266D01*
X539500Y272796D01*
Y271204D01*
X540109Y269734D01*
X541234Y268609D01*
X542704Y268000D01*
X544296D01*
X545766Y268609D01*
X546891Y269734D01*
X547500Y271204D01*
Y272796D01*
X547479Y272847D01*
X551091D01*
X552160Y271778D01*
X552160Y271778D01*
X552905Y271281D01*
X553050Y271252D01*
X553783Y271106D01*
X553783Y271106D01*
X561062D01*
X551550Y261594D01*
X534850D01*
X528472Y267972D01*
X527728Y268469D01*
X526850Y268644D01*
X522401D01*
X522591Y268834D01*
X523200Y270304D01*
Y271896D01*
X522591Y273366D01*
X521466Y274491D01*
X519996Y275100D01*
X519094D01*
X519950Y275956D01*
X542598D01*
X541234Y275391D01*
D02*
G37*
G36*
X377300Y263544D02*
X375000D01*
X374122Y263370D01*
X373378Y262872D01*
X372000Y261494D01*
Y261796D01*
X371391Y263266D01*
X371032Y263625D01*
X370920Y263911D01*
X370765Y264072D01*
X370663Y264192D01*
X370581Y264303D01*
X370517Y264405D01*
X370467Y264498D01*
X370431Y264583D01*
X370406Y264661D01*
X370389Y264736D01*
X370379Y264809D01*
X370372Y264958D01*
X370294Y265124D01*
Y265800D01*
X376700Y272206D01*
X385962D01*
X377300Y263544D01*
D02*
G37*
G36*
X603060Y260767D02*
X602890Y260567D01*
X602740Y260364D01*
X602610Y260158D01*
X602500Y259950D01*
X602410Y259738D01*
X602340Y259524D01*
X602290Y259307D01*
X602260Y259088D01*
X602250Y258865D01*
X600750D01*
X600740Y259088D01*
X600710Y259307D01*
X600660Y259524D01*
X600590Y259738D01*
X600500Y259950D01*
X600390Y260158D01*
X600260Y260364D01*
X600110Y260567D01*
X599940Y260767D01*
X599750Y260965D01*
X603250D01*
X603060Y260767D01*
D02*
G37*
G36*
X438727Y265227D02*
X439884Y264453D01*
X441250Y264181D01*
X456250D01*
X457616Y264453D01*
X458773Y265227D01*
X461378Y267831D01*
X465907D01*
X468471Y265268D01*
X469628Y264494D01*
X470994Y264223D01*
X477620D01*
X477634Y264209D01*
X479104Y263600D01*
X480696D01*
X482166Y264209D01*
X483291Y265334D01*
X483900Y266804D01*
Y267756D01*
X489278Y262378D01*
X489278Y262378D01*
X490022Y261881D01*
X490900Y261706D01*
X510462D01*
X505800Y257044D01*
X476768D01*
X475890Y256869D01*
X475145Y256372D01*
X474604Y255831D01*
X470463D01*
X470653Y256021D01*
X471262Y257491D01*
Y259083D01*
X470653Y260553D01*
X469528Y261678D01*
X468058Y262287D01*
X466466D01*
X464996Y261678D01*
X463871Y260553D01*
X463262Y259083D01*
Y258814D01*
X459454Y262622D01*
X458709Y263119D01*
X457831Y263294D01*
X429451D01*
X429641Y263484D01*
X430250Y264954D01*
Y266546D01*
X429641Y268016D01*
X429475Y268181D01*
X435772D01*
X438727Y265227D01*
D02*
G37*
G36*
X532278Y257678D02*
X532520Y257516D01*
X529441Y254438D01*
X528891Y255766D01*
X527766Y256891D01*
X526296Y257500D01*
X524704D01*
X523234Y256891D01*
X522109Y255766D01*
X521500Y254296D01*
Y252874D01*
X507992D01*
X508372Y253128D01*
X519300Y264056D01*
X525900D01*
X532278Y257678D01*
D02*
G37*
G36*
X431816Y258522D02*
X431517Y258398D01*
X431394Y258100D01*
X431165Y257871D01*
Y257548D01*
X431042Y257250D01*
X431126Y257046D01*
D01*
Y255777D01*
X430765Y254904D01*
X430096Y254235D01*
X429223Y253874D01*
X428277D01*
X427404Y254235D01*
X426735Y254904D01*
X426691Y255011D01*
X426432Y255270D01*
X426273Y255600D01*
X426010Y255692D01*
X425812Y255890D01*
X425446D01*
X425101Y256011D01*
X424979Y255952D01*
X427733Y258706D01*
X432000D01*
X431816Y258522D01*
D02*
G37*
G36*
X365027Y255217D02*
X364877Y255052D01*
X364743Y254876D01*
X364625Y254687D01*
X364523Y254486D01*
X364437Y254273D01*
X364367Y254048D01*
X364314Y253810D01*
X364277Y253561D01*
X364255Y253299D01*
X364250Y253025D01*
X361775Y255500D01*
X362049Y255505D01*
X362311Y255527D01*
X362560Y255564D01*
X362798Y255618D01*
X363023Y255687D01*
X363236Y255773D01*
X363437Y255875D01*
X363626Y255993D01*
X363802Y256127D01*
X363967Y256277D01*
X365027Y255217D01*
D02*
G37*
G36*
Y248217D02*
X364877Y248052D01*
X364743Y247876D01*
X364625Y247687D01*
X364523Y247486D01*
X364437Y247273D01*
X364367Y247048D01*
X364314Y246810D01*
X364277Y246561D01*
X364255Y246299D01*
X364250Y246025D01*
X361775Y248500D01*
X362049Y248505D01*
X362311Y248526D01*
X362560Y248564D01*
X362798Y248617D01*
X363023Y248687D01*
X363236Y248773D01*
X363437Y248875D01*
X363626Y248993D01*
X363802Y249127D01*
X363967Y249277D01*
X365027Y248217D01*
D02*
G37*
G36*
X306346Y245014D02*
X306509Y244852D01*
X307212Y244561D01*
X307136Y244376D01*
X307260Y244078D01*
Y243755D01*
X307377Y243472D01*
Y242527D01*
X307015Y241654D01*
X306346Y240985D01*
X305473Y240623D01*
X304527D01*
X303654Y240985D01*
X302985Y241654D01*
X302624Y242527D01*
Y243472D01*
X302741Y243755D01*
Y244078D01*
X302864Y244376D01*
X302788Y244561D01*
X303492Y244852D01*
X303654Y245014D01*
X304527Y245376D01*
X305473D01*
X306346Y245014D01*
D02*
G37*
G36*
X351289Y217111D02*
X351200Y216896D01*
Y215304D01*
X351809Y213834D01*
X352934Y212709D01*
X354404Y212100D01*
X355996D01*
X357466Y212709D01*
X358591Y213834D01*
X359200Y215304D01*
Y216176D01*
X385700Y216176D01*
X386848Y216652D01*
X386896Y216700D01*
X398355D01*
X398859Y215484D01*
X399984Y214359D01*
X401454Y213750D01*
X403046D01*
X403721Y214030D01*
X405750Y212000D01*
X412966D01*
X413690Y211856D01*
X413690Y211856D01*
X420110D01*
X420834Y212000D01*
X421157D01*
X421640Y212466D01*
X421732Y212528D01*
X422529Y213325D01*
X424478Y215206D01*
X435800D01*
X436678Y215381D01*
X437002Y215597D01*
X437170Y215631D01*
X437915Y216128D01*
X438193Y216406D01*
X464150D01*
X470100Y210456D01*
Y195850D01*
X466344Y192094D01*
X456368D01*
X451090Y197372D01*
X450345Y197869D01*
X450327Y197873D01*
X446400Y201800D01*
X446049D01*
X446490Y203444D01*
Y205156D01*
X446047Y206809D01*
X445191Y208291D01*
X443981Y209501D01*
X442499Y210357D01*
X440846Y210800D01*
X439134D01*
X437481Y210357D01*
X435999Y209501D01*
X434789Y208291D01*
X433933Y206809D01*
X433490Y205156D01*
Y203444D01*
X433892Y201944D01*
X365118D01*
X365117Y201944D01*
X364393Y201800D01*
X361500D01*
Y203296D01*
X360891Y204766D01*
X359766Y205891D01*
X358296Y206500D01*
X356704D01*
X355234Y205891D01*
X354109Y204766D01*
X353500Y203296D01*
Y201800D01*
X341800D01*
X323900Y219700D01*
X323072D01*
X322850Y219744D01*
X316850D01*
X316850Y219744D01*
X316628Y219700D01*
X304700D01*
X294626Y209626D01*
X293334Y209091D01*
X292209Y207966D01*
X291674Y206674D01*
X290500Y205500D01*
X287796Y205500D01*
X284624Y208673D01*
Y232163D01*
X284524Y232404D01*
Y233996D01*
X284624Y234237D01*
Y236327D01*
X292672Y244376D01*
X301241D01*
X301000Y243795D01*
Y242204D01*
X301609Y240734D01*
X302734Y239609D01*
X304205Y239000D01*
X305796D01*
X307266Y239609D01*
X308391Y240734D01*
X309000Y242204D01*
Y243795D01*
X308759Y244376D01*
X324024D01*
X351289Y217111D01*
D02*
G37*
G36*
X551875Y236500D02*
X551601Y236495D01*
X551339Y236474D01*
X551090Y236436D01*
X550852Y236383D01*
X550627Y236313D01*
X550414Y236227D01*
X550213Y236125D01*
X550024Y236007D01*
X549848Y235873D01*
X549683Y235723D01*
X548623Y236783D01*
X548773Y236948D01*
X548907Y237124D01*
X549025Y237313D01*
X549127Y237514D01*
X549213Y237727D01*
X549282Y237952D01*
X549336Y238190D01*
X549374Y238439D01*
X549395Y238701D01*
X549400Y238975D01*
X551875Y236500D01*
D02*
G37*
G36*
X355800Y238300D02*
X371540Y238300D01*
X371609Y238134D01*
X372734Y237009D01*
X374204Y236400D01*
X375796D01*
X377266Y237009D01*
X378391Y238134D01*
X379000Y239604D01*
Y241196D01*
X378794Y241694D01*
X378834Y241734D01*
X389600Y252500D01*
X391319D01*
X391872Y252131D01*
X392750Y251956D01*
X420033D01*
X420910Y252131D01*
X421463Y252500D01*
X423500D01*
X425191Y254390D01*
X425359Y253984D01*
X426484Y252859D01*
X427954Y252250D01*
X429546D01*
X431016Y252859D01*
X432141Y253984D01*
X432750Y255454D01*
Y257046D01*
X432665Y257250D01*
X458337D01*
X463672Y251915D01*
X464337Y251250D01*
X465259D01*
X465294Y251243D01*
X475555D01*
X475590Y251250D01*
X522103D01*
X522109Y251234D01*
X523234Y250109D01*
X524704Y249500D01*
X526296D01*
X527766Y250109D01*
X528891Y251234D01*
X529143Y251843D01*
X534306Y257006D01*
X552500D01*
X553378Y257181D01*
X554122Y257678D01*
X568444Y272000D01*
X571750D01*
X576750Y267000D01*
Y261750D01*
X561094Y246094D01*
X549600D01*
X549127Y246000D01*
X546880D01*
X536359Y235000D01*
X513774Y235000D01*
X513596Y235119D01*
X512718Y235294D01*
X509124D01*
X508958Y235372D01*
X508809Y235378D01*
X508736Y235388D01*
X508662Y235406D01*
X508583Y235431D01*
X508498Y235467D01*
X508406Y235516D01*
X508303Y235581D01*
X508192Y235663D01*
X508072Y235765D01*
X507912Y235919D01*
X507625Y236032D01*
X507266Y236391D01*
X505796Y237000D01*
X504205D01*
X502734Y236391D01*
X501609Y235266D01*
X501499Y235000D01*
X498956D01*
X498501D01*
X498391Y235266D01*
X497266Y236391D01*
X495796Y237000D01*
X494205D01*
X492734Y236391D01*
X491609Y235266D01*
X491499Y235000D01*
X490000D01*
X489118Y234118D01*
X488891Y234666D01*
X487766Y235791D01*
X486296Y236400D01*
X484704D01*
X483234Y235791D01*
X482109Y234666D01*
X481730Y233750D01*
X480307D01*
X479582Y233894D01*
X433675D01*
X433508Y233972D01*
X433360Y233979D01*
X433287Y233989D01*
X433212Y234006D01*
X433134Y234031D01*
X433049Y234067D01*
X432956Y234116D01*
X432854Y234181D01*
X432743Y234263D01*
X432623Y234365D01*
X432462Y234520D01*
X432176Y234632D01*
X431817Y234991D01*
X430346Y235600D01*
X428755D01*
X427285Y234991D01*
X426160Y233866D01*
X426112Y233750D01*
X401650D01*
X399979Y232079D01*
X399797Y232200D01*
X398967Y232365D01*
X398797Y232450D01*
X398776Y232443D01*
X398757Y232453D01*
X398609Y232459D01*
X398542Y232469D01*
X398479Y232484D01*
X398415Y232506D01*
X398347Y232538D01*
X398271Y232581D01*
X398187Y232639D01*
X398094Y232715D01*
X397993Y232812D01*
X397849Y232969D01*
X397545Y233112D01*
X397016Y233641D01*
X395546Y234250D01*
X393954D01*
X392484Y233641D01*
X391359Y232516D01*
X390750Y231046D01*
Y229454D01*
X391359Y227984D01*
X392484Y226859D01*
X393954Y226250D01*
X394150D01*
X385700Y217800D01*
X358825Y217800D01*
X358591Y218366D01*
X357770Y219187D01*
X358066Y219309D01*
X359191Y220434D01*
X359800Y221904D01*
Y223496D01*
X359191Y224966D01*
X358066Y226091D01*
X356596Y226700D01*
X355004D01*
X353534Y226091D01*
X352409Y224966D01*
X351800Y223496D01*
Y221904D01*
X352409Y220434D01*
X353230Y219613D01*
X352934Y219491D01*
X352097Y218653D01*
X324750Y246000D01*
X307657D01*
X307266Y246391D01*
X305796Y247000D01*
X304205D01*
X302734Y246391D01*
X302344Y246000D01*
X292000D01*
X283000Y237000D01*
Y234237D01*
X282900Y233996D01*
Y232404D01*
X283000Y232163D01*
Y208000D01*
X288900Y202100D01*
X288900Y182100D01*
X290999Y180001D01*
X295902Y180002D01*
X306300Y190400D01*
X306300Y200200D01*
X309600Y203500D01*
X314100Y203500D01*
X316700Y200900D01*
Y185000D01*
X287700Y156000D01*
X282600D01*
X271800Y166800D01*
Y175200D01*
X280000Y183400D01*
Y197250D01*
X274000Y203250D01*
Y245250D01*
X285000Y256250D01*
X292250D01*
X309500Y273500D01*
X320600D01*
X355800Y238300D01*
D02*
G37*
G36*
X506983Y234560D02*
X507183Y234390D01*
X507386Y234240D01*
X507592Y234110D01*
X507801Y234000D01*
X508012Y233910D01*
X508226Y233840D01*
X508443Y233790D01*
X508663Y233760D01*
X508885Y233750D01*
Y232250D01*
X508663Y232240D01*
X508443Y232210D01*
X508226Y232160D01*
X508012Y232090D01*
X507801Y232000D01*
X507592Y231890D01*
X507386Y231760D01*
X507183Y231610D01*
X506983Y231440D01*
X506786Y231250D01*
Y234750D01*
X506983Y234560D01*
D02*
G37*
G36*
X431534Y233160D02*
X431734Y232990D01*
X431937Y232840D01*
X432143Y232710D01*
X432351Y232600D01*
X432562Y232510D01*
X432777Y232440D01*
X432994Y232390D01*
X433213Y232360D01*
X433436Y232350D01*
Y230850D01*
X433213Y230840D01*
X432994Y230810D01*
X432777Y230760D01*
X432562Y230690D01*
X432351Y230600D01*
X432143Y230490D01*
X431937Y230360D01*
X431734Y230210D01*
X431534Y230040D01*
X431336Y229850D01*
Y233350D01*
X431534Y233160D01*
D02*
G37*
G36*
X396831Y231677D02*
X397017Y231499D01*
X397208Y231342D01*
X397404Y231207D01*
X397604Y231092D01*
X397810Y230998D01*
X398021Y230925D01*
X398236Y230872D01*
X398456Y230841D01*
X398682Y230831D01*
X398575Y229331D01*
X398355Y229321D01*
X398137Y229293D01*
X397919Y229245D01*
X397702Y229179D01*
X397485Y229094D01*
X397269Y228990D01*
X397054Y228866D01*
X396840Y228724D01*
X396626Y228563D01*
X396413Y228383D01*
X396650Y231875D01*
X396831Y231677D01*
D02*
G37*
G36*
X415733Y231060D02*
X415933Y230890D01*
X416136Y230740D01*
X416342Y230610D01*
X416550Y230500D01*
X416762Y230410D01*
X416976Y230340D01*
X417193Y230290D01*
X417412Y230260D01*
X417635Y230250D01*
Y228750D01*
X417412Y228740D01*
X417193Y228710D01*
X416976Y228660D01*
X416762Y228590D01*
X416550Y228500D01*
X416342Y228390D01*
X416136Y228260D01*
X415933Y228110D01*
X415733Y227940D01*
X415535Y227750D01*
Y231250D01*
X415733Y231060D01*
D02*
G37*
G36*
X408937Y227124D02*
X408776Y226910D01*
X408634Y226696D01*
X408511Y226481D01*
X408406Y226265D01*
X408321Y226048D01*
X408255Y225831D01*
X408208Y225613D01*
X408179Y225395D01*
X408170Y225175D01*
X406670Y225068D01*
X406659Y225294D01*
X406628Y225514D01*
X406576Y225729D01*
X406503Y225940D01*
X406409Y226145D01*
X406294Y226346D01*
X406158Y226542D01*
X406001Y226733D01*
X405824Y226919D01*
X405625Y227100D01*
X409117Y227337D01*
X408937Y227124D01*
D02*
G37*
G36*
X420051Y224333D02*
X419898Y224165D01*
X419765Y223987D01*
X419650Y223797D01*
X419555Y223597D01*
X419479Y223386D01*
X419422Y223164D01*
X419384Y222931D01*
X419366Y222687D01*
X419366Y222433D01*
X419386Y222167D01*
X416683Y224391D01*
X416962Y224422D01*
X417228Y224466D01*
X417481Y224523D01*
X417721Y224594D01*
X417947Y224676D01*
X418160Y224772D01*
X418360Y224881D01*
X418547Y225003D01*
X418721Y225137D01*
X418882Y225285D01*
X420051Y224333D01*
D02*
G37*
G36*
X662275Y220500D02*
X662001Y220495D01*
X661739Y220473D01*
X661490Y220436D01*
X661252Y220382D01*
X661027Y220313D01*
X660814Y220227D01*
X660613Y220125D01*
X660424Y220007D01*
X660248Y219873D01*
X660083Y219723D01*
X659023Y220783D01*
X659173Y220948D01*
X659307Y221124D01*
X659425Y221313D01*
X659527Y221514D01*
X659613Y221727D01*
X659682Y221952D01*
X659736Y222190D01*
X659773Y222439D01*
X659795Y222701D01*
X659800Y222975D01*
X662275Y220500D01*
D02*
G37*
G36*
X649629Y220003D02*
X649351Y219982D01*
X649086Y219946D01*
X648834Y219896D01*
X648595Y219832D01*
X648369Y219754D01*
X648155Y219662D01*
X647955Y219555D01*
X647767Y219435D01*
X647592Y219301D01*
X647430Y219152D01*
X646301Y220144D01*
X646453Y220311D01*
X646586Y220488D01*
X646702Y220678D01*
X646800Y220878D01*
X646879Y221090D01*
X646941Y221314D01*
X646984Y221549D01*
X647010Y221795D01*
X647017Y222052D01*
X647006Y222321D01*
X649629Y220003D01*
D02*
G37*
G36*
X643400Y220032D02*
X643119Y219980D01*
X642598Y219846D01*
X642358Y219763D01*
X642132Y219670D01*
X641920Y219566D01*
X641721Y219452D01*
X641537Y219328D01*
X641366Y219193D01*
X641209Y219048D01*
X639956Y219917D01*
X640110Y220087D01*
X640243Y220266D01*
X640355Y220455D01*
X640445Y220654D01*
X640514Y220862D01*
X640562Y221081D01*
X640589Y221309D01*
X640594Y221546D01*
X640578Y221794D01*
X640541Y222051D01*
X643400Y220032D01*
D02*
G37*
G36*
X610160Y220717D02*
X609990Y220517D01*
X609840Y220314D01*
X609710Y220108D01*
X609600Y219900D01*
X609510Y219688D01*
X609440Y219474D01*
X609390Y219257D01*
X609360Y219038D01*
X609350Y218815D01*
X607850D01*
X607840Y219038D01*
X607810Y219257D01*
X607760Y219474D01*
X607690Y219688D01*
X607600Y219900D01*
X607490Y220108D01*
X607360Y220314D01*
X607210Y220517D01*
X607040Y220717D01*
X606850Y220915D01*
X610350D01*
X610160Y220717D01*
D02*
G37*
G36*
X567465Y218250D02*
X567267Y218440D01*
X567067Y218610D01*
X566864Y218760D01*
X566658Y218890D01*
X566450Y219000D01*
X566238Y219090D01*
X566024Y219160D01*
X565807Y219210D01*
X565588Y219240D01*
X565365Y219250D01*
Y220750D01*
X565588Y220760D01*
X565807Y220790D01*
X566024Y220840D01*
X566238Y220910D01*
X566450Y221000D01*
X566658Y221110D01*
X566864Y221240D01*
X567067Y221390D01*
X567267Y221560D01*
X567465Y221750D01*
Y218250D01*
D02*
G37*
G36*
X478345Y220028D02*
X479090Y219531D01*
X479235Y219502D01*
X479967Y219356D01*
X479968Y219356D01*
X488005D01*
X487400Y217896D01*
Y217579D01*
X487307Y217672D01*
X486563Y218169D01*
X485685Y218344D01*
X478790D01*
X477912Y218169D01*
X477168Y217672D01*
X476740Y217244D01*
X474100D01*
X468238Y223106D01*
X475267D01*
X478345Y220028D01*
D02*
G37*
G36*
X322005Y212401D02*
X322026Y212139D01*
X322064Y211890D01*
X322118Y211652D01*
X322187Y211427D01*
X322273Y211214D01*
X322375Y211013D01*
X322493Y210824D01*
X322627Y210648D01*
X322777Y210483D01*
X321717Y209423D01*
X321552Y209573D01*
X321376Y209707D01*
X321187Y209825D01*
X320986Y209927D01*
X320773Y210013D01*
X320548Y210082D01*
X320310Y210136D01*
X320061Y210173D01*
X319799Y210195D01*
X319525Y210200D01*
X322000Y212675D01*
X322005Y212401D01*
D02*
G37*
G36*
X483736Y206501D02*
X483545Y206306D01*
X483374Y206107D01*
X483223Y205905D01*
X483093Y205701D01*
X482982Y205493D01*
X482892Y205282D01*
X482821Y205068D01*
X482771Y204852D01*
X482741Y204632D01*
X482731Y204409D01*
X481231Y204421D01*
X481221Y204643D01*
X481191Y204863D01*
X481141Y205080D01*
X481072Y205295D01*
X480982Y205507D01*
X480873Y205716D01*
X480743Y205923D01*
X480594Y206127D01*
X480425Y206329D01*
X480236Y206528D01*
X483736Y206501D01*
D02*
G37*
G36*
X613195Y251478D02*
X613940Y250981D01*
X614818Y250806D01*
X617579D01*
X617609Y250734D01*
X618734Y249609D01*
X620204Y249000D01*
X621796D01*
X623266Y249609D01*
X623456Y249799D01*
Y248850D01*
X623631Y247972D01*
X624128Y247228D01*
X642978Y228378D01*
X642978Y228378D01*
X643722Y227881D01*
X643868Y227852D01*
X644600Y227706D01*
X644600Y227706D01*
X661067D01*
X661773Y227000D01*
X661504D01*
X660034Y226391D01*
X658909Y225266D01*
X658300Y223796D01*
Y223288D01*
X658177Y223006D01*
X658173Y222783D01*
X658160Y222626D01*
X658139Y222489D01*
X658113Y222372D01*
X658082Y222271D01*
X658047Y222186D01*
X658010Y222112D01*
X657970Y222048D01*
X657925Y221989D01*
X657824Y221879D01*
X657762Y221706D01*
X639650Y203594D01*
X622300D01*
X622300Y203594D01*
X621568Y203448D01*
X621422Y203419D01*
X620678Y202922D01*
X614628Y196872D01*
X614131Y196128D01*
X613956Y195250D01*
Y187901D01*
X613391Y189266D01*
X612266Y190391D01*
X610796Y191000D01*
X609204D01*
X607734Y190391D01*
X607544Y190201D01*
Y193000D01*
X619692Y205147D01*
X634659D01*
X635537Y205322D01*
X636281Y205819D01*
X648354Y217892D01*
X648528Y217955D01*
X648638Y218056D01*
X648702Y218106D01*
X648774Y218152D01*
X648858Y218197D01*
X648956Y218239D01*
X649070Y218278D01*
X649202Y218314D01*
X649353Y218344D01*
X649523Y218367D01*
X649755Y218385D01*
X649982Y218500D01*
X650296D01*
X651766Y219109D01*
X652891Y220234D01*
X653500Y221704D01*
Y223296D01*
X652891Y224766D01*
X651766Y225891D01*
X650296Y226500D01*
X648704D01*
X647234Y225891D01*
X646250Y224907D01*
X645266Y225891D01*
X643796Y226500D01*
X642204D01*
X640734Y225891D01*
X639750Y224907D01*
X638766Y225891D01*
X637296Y226500D01*
X635704D01*
X634234Y225891D01*
X633109Y224766D01*
X632500Y223296D01*
Y221704D01*
X633109Y220234D01*
X634234Y219109D01*
X635704Y218500D01*
X636356D01*
X635650Y217794D01*
X618000D01*
X617122Y217619D01*
X616378Y217122D01*
X610894Y211638D01*
Y218576D01*
X610972Y218742D01*
X610979Y218891D01*
X610989Y218964D01*
X611006Y219039D01*
X611031Y219117D01*
X611068Y219202D01*
X611116Y219295D01*
X611181Y219397D01*
X611263Y219508D01*
X611365Y219628D01*
X611520Y219789D01*
X611632Y220075D01*
X611991Y220434D01*
X612113Y220730D01*
X612834Y220009D01*
X614304Y219400D01*
X615896D01*
X617366Y220009D01*
X618491Y221134D01*
X618760Y221783D01*
X619634Y220909D01*
X621104Y220300D01*
X622696D01*
X624166Y220909D01*
X625291Y222034D01*
X625900Y223504D01*
Y225096D01*
X625291Y226566D01*
X624166Y227691D01*
X622696Y228300D01*
X621104D01*
X619634Y227691D01*
X618509Y226566D01*
X618240Y225917D01*
X617366Y226791D01*
X615896Y227400D01*
X614304D01*
X612834Y226791D01*
X611709Y225666D01*
X611587Y225370D01*
X610866Y226091D01*
X609396Y226700D01*
X607804D01*
X606334Y226091D01*
X605209Y224966D01*
X604600Y223496D01*
Y221904D01*
X605209Y220434D01*
X605568Y220075D01*
X605680Y219789D01*
X605835Y219628D01*
X605937Y219508D01*
X606019Y219397D01*
X606083Y219295D01*
X606133Y219202D01*
X606169Y219117D01*
X606194Y219039D01*
X606211Y218964D01*
X606221Y218891D01*
X606228Y218742D01*
X606306Y218576D01*
Y211650D01*
X605245Y210590D01*
X605500Y211204D01*
Y212796D01*
X604891Y214266D01*
X603766Y215391D01*
X602296Y216000D01*
X601357D01*
X601491Y216134D01*
X602100Y217604D01*
Y219196D01*
X601491Y220666D01*
X600366Y221791D01*
X598896Y222400D01*
X597304D01*
X595834Y221791D01*
X594709Y220666D01*
X594294Y219664D01*
Y236050D01*
X609950Y251706D01*
X612967D01*
X613195Y251478D01*
D02*
G37*
G36*
X358846Y204515D02*
X359515Y203846D01*
X359876Y202973D01*
Y201800D01*
X360352Y200652D01*
X361500Y200176D01*
X362400D01*
X362217Y199994D01*
X343550D01*
X343368Y200176D01*
X353500D01*
X354648Y200652D01*
X355124Y201800D01*
Y202973D01*
X355485Y203846D01*
X356154Y204515D01*
X357027Y204876D01*
X357973D01*
X358846Y204515D01*
D02*
G37*
G36*
X555484Y200391D02*
X554359Y199266D01*
X553750Y197796D01*
Y196204D01*
X554086Y195394D01*
X542600D01*
X541722Y195219D01*
X540978Y194722D01*
X540800Y194544D01*
X540288D01*
X546450Y200706D01*
X556244D01*
X555484Y200391D01*
D02*
G37*
G36*
X435395Y194098D02*
X435572Y193964D01*
X435761Y193847D01*
X435962Y193746D01*
X436175Y193663D01*
X436399Y193596D01*
X436636Y193547D01*
X436884Y193514D01*
X437145Y193498D01*
X437417Y193499D01*
X435000Y190967D01*
X434989Y191242D01*
X434962Y191505D01*
X434920Y191756D01*
X434862Y191994D01*
X434790Y192220D01*
X434701Y192433D01*
X434598Y192634D01*
X434479Y192822D01*
X434345Y192998D01*
X434195Y193162D01*
X435230Y194249D01*
X435395Y194098D01*
D02*
G37*
G36*
X342600Y195406D02*
X361872D01*
X356760Y190294D01*
X347550D01*
X342398Y195446D01*
X342600Y195406D01*
D02*
G37*
G36*
X524767Y189477D02*
X524158Y188006D01*
Y186415D01*
X524767Y184945D01*
X525418Y184294D01*
X509900D01*
X509022Y184119D01*
X508278Y183622D01*
X503650Y178994D01*
X490851D01*
X491291Y179434D01*
X491900Y180904D01*
Y182496D01*
X491291Y183966D01*
X490166Y185091D01*
X488696Y185700D01*
X487104D01*
X485634Y185091D01*
X484509Y183966D01*
X483900Y182496D01*
Y180904D01*
X484509Y179434D01*
X484949Y178994D01*
X477238D01*
X488182Y189938D01*
Y189863D01*
X488279Y189903D01*
X488226Y189956D01*
X525246D01*
X524767Y189477D01*
D02*
G37*
G36*
X654760Y190662D02*
X654790Y190443D01*
X654840Y190226D01*
X654910Y190012D01*
X655000Y189800D01*
X655110Y189592D01*
X655240Y189386D01*
X655390Y189183D01*
X655560Y188983D01*
X655750Y188785D01*
X652250D01*
X652440Y188983D01*
X652610Y189183D01*
X652760Y189386D01*
X652890Y189592D01*
X653000Y189800D01*
X653090Y190012D01*
X653160Y190226D01*
X653210Y190443D01*
X653240Y190662D01*
X653250Y190885D01*
X654750D01*
X654760Y190662D01*
D02*
G37*
G36*
X591956Y187901D02*
X591391Y189266D01*
X590266Y190391D01*
X588796Y191000D01*
X587204D01*
X585734Y190391D01*
X584609Y189266D01*
X584000Y187796D01*
Y186204D01*
X584609Y184734D01*
X585734Y183609D01*
X585770Y183594D01*
X584500D01*
X583622Y183419D01*
X582878Y182922D01*
X581000Y181044D01*
X555888D01*
X561800Y186956D01*
X575243D01*
X576120Y187131D01*
X576865Y187628D01*
X580543Y191306D01*
X591500D01*
X591956Y191397D01*
Y187901D01*
D02*
G37*
G36*
X407863Y184180D02*
X408348Y183931D01*
X408584Y183830D01*
X409042Y183674D01*
X409265Y183620D01*
X409482Y183581D01*
X409696Y183558D01*
X409904Y183550D01*
X410295Y182050D01*
X410064Y182039D01*
X409844Y182005D01*
X409633Y181949D01*
X409434Y181871D01*
X409244Y181770D01*
X409065Y181647D01*
X408897Y181501D01*
X408738Y181333D01*
X408591Y181143D01*
X408453Y180930D01*
X407613Y184327D01*
X407863Y184180D01*
D02*
G37*
G36*
X402909Y184466D02*
X402300Y182996D01*
Y181404D01*
X402909Y179934D01*
X403199Y179644D01*
X385850D01*
X385850Y179644D01*
X385118Y179498D01*
X384972Y179469D01*
X384228Y178972D01*
X384228Y178972D01*
X371593Y166337D01*
X371458Y166388D01*
X371067Y166585D01*
X370626Y166860D01*
X370142Y167217D01*
X369635Y167644D01*
X368464Y168800D01*
X367842Y169496D01*
X367798Y169517D01*
X367780Y169562D01*
X367528Y169666D01*
X366537Y170658D01*
X364721Y171706D01*
X372800D01*
X373678Y171881D01*
X374422Y172378D01*
X386900Y184856D01*
X403299D01*
X402909Y184466D01*
D02*
G37*
G36*
X651116Y179349D02*
X651576Y179073D01*
X651803Y178961D01*
X652028Y178866D01*
X652251Y178788D01*
X652471Y178728D01*
X652689Y178685D01*
X652906Y178659D01*
X653120Y178650D01*
X653375Y177150D01*
X653147Y177139D01*
X652926Y177106D01*
X652713Y177052D01*
X652508Y176975D01*
X652311Y176877D01*
X652122Y176757D01*
X651940Y176615D01*
X651766Y176451D01*
X651600Y176266D01*
X651442Y176058D01*
X650882Y179513D01*
X651116Y179349D01*
D02*
G37*
G36*
X268600Y299300D02*
Y260000D01*
X247600D01*
Y220000D01*
X268600D01*
Y198000D01*
X247600D01*
X244600Y195000D01*
Y179100D01*
X240000Y174500D01*
X223630D01*
Y180000D01*
Y300000D01*
Y305000D01*
X262900D01*
X268600Y299300D01*
D02*
G37*
G36*
X324460Y173862D02*
X324490Y173643D01*
X324540Y173426D01*
X324610Y173212D01*
X324700Y173000D01*
X324810Y172792D01*
X324940Y172586D01*
X325090Y172383D01*
X325260Y172183D01*
X325450Y171985D01*
X321950D01*
X322140Y172183D01*
X322310Y172383D01*
X322460Y172586D01*
X322590Y172792D01*
X322700Y173000D01*
X322790Y173212D01*
X322860Y173426D01*
X322910Y173643D01*
X322940Y173862D01*
X322950Y174085D01*
X324450D01*
X324460Y173862D01*
D02*
G37*
G36*
X420666Y171126D02*
X420388Y170789D01*
X420139Y170363D01*
X419916Y169847D01*
X419722Y169241D01*
X419556Y168546D01*
X419418Y167761D01*
X419226Y165923D01*
X419171Y164869D01*
X419145Y163726D01*
X412291Y170867D01*
X413411Y170848D01*
X416257Y170996D01*
X417034Y171113D01*
X417724Y171264D01*
X418329Y171450D01*
X418848Y171668D01*
X419281Y171921D01*
X419628Y172208D01*
X420666Y171126D01*
D02*
G37*
G36*
X657583Y171560D02*
X657783Y171390D01*
X657986Y171240D01*
X658192Y171110D01*
X658400Y171000D01*
X658612Y170910D01*
X658826Y170840D01*
X659043Y170790D01*
X659262Y170760D01*
X659485Y170750D01*
Y169250D01*
X659262Y169240D01*
X659043Y169210D01*
X658826Y169160D01*
X658612Y169090D01*
X658400Y169000D01*
X658192Y168890D01*
X657986Y168760D01*
X657783Y168610D01*
X657583Y168440D01*
X657385Y168250D01*
Y171750D01*
X657583Y171560D01*
D02*
G37*
G36*
X521658Y171815D02*
X521355Y171450D01*
X521098Y171007D01*
X520887Y170485D01*
X520722Y169885D01*
X520603Y169207D01*
X520529Y168451D01*
X520502Y167616D01*
X520520Y166703D01*
X520695Y164643D01*
X512973Y170835D01*
X514165Y170966D01*
X517951Y171625D01*
X518653Y171824D01*
X519257Y172037D01*
X519762Y172264D01*
X520170Y172504D01*
X520480Y172758D01*
X521658Y171815D01*
D02*
G37*
G36*
X395176Y171240D02*
X394893Y170898D01*
X394642Y170469D01*
X394421Y169951D01*
X394232Y169346D01*
X394073Y168653D01*
X393945Y167872D01*
X393783Y166047D01*
X393748Y165003D01*
X393745Y163871D01*
X386746Y170870D01*
X387878Y170873D01*
X390747Y171070D01*
X391528Y171198D01*
X392221Y171357D01*
X392826Y171546D01*
X393344Y171767D01*
X393773Y172019D01*
X394115Y172301D01*
X395176Y171240D01*
D02*
G37*
G36*
X660983Y165960D02*
X661183Y165790D01*
X661386Y165640D01*
X661592Y165510D01*
X661800Y165400D01*
X662012Y165310D01*
X662226Y165240D01*
X662443Y165190D01*
X662662Y165160D01*
X662885Y165150D01*
Y163650D01*
X662662Y163640D01*
X662443Y163610D01*
X662226Y163560D01*
X662012Y163490D01*
X661800Y163400D01*
X661592Y163290D01*
X661386Y163160D01*
X661183Y163010D01*
X660983Y162840D01*
X660785Y162650D01*
Y166150D01*
X660983Y165960D01*
D02*
G37*
G36*
X342318Y166792D02*
X342574Y166442D01*
X342850Y166134D01*
X343148Y165867D01*
X343467Y165641D01*
X343807Y165456D01*
X344168Y165312D01*
X344550Y165209D01*
X344953Y165147D01*
X345377Y165127D01*
Y163627D01*
X344975Y163605D01*
X344600Y163541D01*
X344251Y163433D01*
X343929Y163282D01*
X343633Y163088D01*
X343364Y162851D01*
X343121Y162571D01*
X342904Y162248D01*
X342714Y161882D01*
X342551Y161472D01*
X342083Y167182D01*
X342318Y166792D01*
D02*
G37*
G36*
X367287Y167680D02*
X368540Y166444D01*
X369136Y165941D01*
X369713Y165516D01*
X370270Y165168D01*
X370807Y164898D01*
X371325Y164705D01*
X371822Y164589D01*
X372300Y164550D01*
Y163050D01*
X371822Y163011D01*
X371325Y162896D01*
X370807Y162702D01*
X370270Y162432D01*
X369713Y162084D01*
X369136Y161659D01*
X368540Y161157D01*
X367924Y160577D01*
X366632Y159186D01*
X366632Y168414D01*
X367287Y167680D01*
D02*
G37*
G36*
X570327Y167951D02*
X572495Y166062D01*
X573138Y165600D01*
X573740Y165222D01*
X574302Y164928D01*
X574824Y164718D01*
X575306Y164592D01*
X575747Y164550D01*
Y163050D01*
X575306Y163008D01*
X574824Y162882D01*
X574302Y162672D01*
X573740Y162378D01*
X573138Y162000D01*
X572495Y161538D01*
X571090Y160363D01*
X570327Y159649D01*
X569524Y158851D01*
X569524Y168749D01*
X570327Y167951D01*
D02*
G37*
%LPC*%
G36*
X362403Y324770D02*
X360147D01*
X357967Y324186D01*
X356013Y323058D01*
X354417Y321462D01*
X353289Y319508D01*
X352705Y317328D01*
Y315072D01*
X353289Y312892D01*
X354417Y310938D01*
X356013Y309342D01*
X357967Y308214D01*
X360147Y307630D01*
X362403D01*
X364583Y308214D01*
X366537Y309342D01*
X368133Y310938D01*
X369261Y312892D01*
X369845Y315072D01*
Y317328D01*
X369261Y319508D01*
X368133Y321462D01*
X366537Y323058D01*
X364583Y324186D01*
X362403Y324770D01*
D02*
G37*
G36*
X665596Y294500D02*
X664004D01*
X662534Y293891D01*
X661409Y292766D01*
X660800Y291296D01*
Y289704D01*
X661409Y288234D01*
X662534Y287109D01*
X664004Y286500D01*
X665596D01*
X667066Y287109D01*
X668191Y288234D01*
X668800Y289704D01*
Y291296D01*
X668191Y292766D01*
X667066Y293891D01*
X665596Y294500D01*
D02*
G37*
G36*
X323296Y289531D02*
X321705D01*
X320234Y288922D01*
X319109Y287796D01*
X318500Y286326D01*
Y284735D01*
X319109Y283265D01*
X320234Y282139D01*
X321705Y281531D01*
X323296D01*
X324766Y282139D01*
X325891Y283265D01*
X326500Y284735D01*
Y286326D01*
X325891Y287796D01*
X324766Y288922D01*
X323296Y289531D01*
D02*
G37*
G36*
X289796Y266500D02*
X288204D01*
X286734Y265891D01*
X285609Y264766D01*
X285250Y263899D01*
X284891Y264766D01*
X283766Y265891D01*
X282296Y266500D01*
X280704D01*
X279234Y265891D01*
X278109Y264766D01*
X277500Y263295D01*
Y261704D01*
X278109Y260234D01*
X279234Y259109D01*
X280704Y258500D01*
X282296D01*
X283766Y259109D01*
X284891Y260234D01*
X285250Y261101D01*
X285609Y260234D01*
X286734Y259109D01*
X288204Y258500D01*
X289796D01*
X291266Y259109D01*
X292391Y260234D01*
X293000Y261704D01*
Y263295D01*
X292391Y264766D01*
X291266Y265891D01*
X289796Y266500D01*
D02*
G37*
G36*
X632796Y191000D02*
X631204D01*
X629734Y190391D01*
X628609Y189266D01*
X628000Y187796D01*
Y186204D01*
X628609Y184734D01*
X629734Y183609D01*
X631204Y183000D01*
X632796D01*
X634266Y183609D01*
X635391Y184734D01*
X636000Y186204D01*
Y187796D01*
X635391Y189266D01*
X634266Y190391D01*
X632796Y191000D01*
D02*
G37*
G36*
X616403Y172370D02*
X614147D01*
X611967Y171786D01*
X610013Y170658D01*
X608417Y169062D01*
X607289Y167108D01*
X606705Y164928D01*
Y162672D01*
X607289Y160492D01*
X608417Y158538D01*
X610013Y156942D01*
X611967Y155814D01*
X614147Y155230D01*
X616403D01*
X618583Y155814D01*
X620537Y156942D01*
X622133Y158538D01*
X623261Y160492D01*
X623845Y162672D01*
Y164928D01*
X623261Y167108D01*
X622133Y169062D01*
X620537Y170658D01*
X618583Y171786D01*
X616403Y172370D01*
D02*
G37*
G36*
X540203D02*
X537947D01*
X535767Y171786D01*
X533813Y170658D01*
X532217Y169062D01*
X531089Y167108D01*
X530505Y164928D01*
Y162672D01*
X531089Y160492D01*
X532217Y158538D01*
X533813Y156942D01*
X535767Y155814D01*
X537947Y155230D01*
X540203D01*
X542383Y155814D01*
X544337Y156942D01*
X545933Y158538D01*
X547061Y160492D01*
X547645Y162672D01*
Y164928D01*
X547061Y167108D01*
X545933Y169062D01*
X544337Y170658D01*
X542383Y171786D01*
X540203Y172370D01*
D02*
G37*
G36*
X311603D02*
X309347D01*
X307167Y171786D01*
X305213Y170658D01*
X303617Y169062D01*
X302489Y167108D01*
X301905Y164928D01*
Y162672D01*
X302489Y160492D01*
X303617Y158538D01*
X305213Y156942D01*
X307167Y155814D01*
X309347Y155230D01*
X311603D01*
X313783Y155814D01*
X315737Y156942D01*
X317333Y158538D01*
X318461Y160492D01*
X319045Y162672D01*
Y164928D01*
X318461Y167108D01*
X317333Y169062D01*
X315737Y170658D01*
X313783Y171786D01*
X311603Y172370D01*
D02*
G37*
G36*
X260803D02*
X258547D01*
X256367Y171786D01*
X254413Y170658D01*
X252817Y169062D01*
X251689Y167108D01*
X251105Y164928D01*
Y162672D01*
X251689Y160492D01*
X252817Y158538D01*
X254413Y156942D01*
X256367Y155814D01*
X258547Y155230D01*
X260803D01*
X262983Y155814D01*
X264937Y156942D01*
X266533Y158538D01*
X267661Y160492D01*
X268245Y162672D01*
Y164928D01*
X267661Y167108D01*
X266533Y169062D01*
X264937Y170658D01*
X262983Y171786D01*
X260803Y172370D01*
D02*
G37*
G36*
X648396Y257100D02*
X646804D01*
X645334Y256491D01*
X644209Y255366D01*
X643600Y253896D01*
Y252304D01*
X644209Y250834D01*
X645334Y249709D01*
X646804Y249100D01*
X648396D01*
X649866Y249709D01*
X650875Y250718D01*
X651984Y249609D01*
X653454Y249000D01*
X655046D01*
X656516Y249609D01*
X657641Y250734D01*
X658250Y252204D01*
Y253796D01*
X657641Y255266D01*
X656516Y256391D01*
X655046Y257000D01*
X653454D01*
X651984Y256391D01*
X650975Y255382D01*
X649866Y256491D01*
X648396Y257100D01*
D02*
G37*
G36*
X318296Y234500D02*
X316704D01*
X315234Y233891D01*
X314109Y232766D01*
X313500Y231296D01*
Y229704D01*
X314109Y228234D01*
X315234Y227109D01*
X316704Y226500D01*
X318296D01*
X319766Y227109D01*
X320891Y228234D01*
X321500Y229704D01*
Y231296D01*
X320891Y232766D01*
X319766Y233891D01*
X318296Y234500D01*
D02*
G37*
G36*
X298196Y229000D02*
X296604D01*
X295134Y228391D01*
X294009Y227266D01*
X293400Y225796D01*
Y224204D01*
X294009Y222734D01*
X295134Y221609D01*
X296604Y221000D01*
X298196D01*
X299666Y221609D01*
X300791Y222734D01*
X301400Y224204D01*
Y225796D01*
X300791Y227266D01*
X299666Y228391D01*
X298196Y229000D01*
D02*
G37*
G36*
X461166Y210800D02*
X459454D01*
X457801Y210357D01*
X456319Y209501D01*
X455109Y208291D01*
X454253Y206809D01*
X453810Y205156D01*
Y203444D01*
X454253Y201791D01*
X455109Y200309D01*
X456319Y199099D01*
X457801Y198243D01*
X459454Y197800D01*
X461166D01*
X462819Y198243D01*
X464301Y199099D01*
X465511Y200309D01*
X466367Y201791D01*
X466810Y203444D01*
Y205156D01*
X466367Y206809D01*
X465511Y208291D01*
X464301Y209501D01*
X462819Y210357D01*
X461166Y210800D01*
D02*
G37*
%LPD*%
G36*
X298746Y227015D02*
X299415Y226346D01*
X299776Y225473D01*
Y224527D01*
X299415Y223654D01*
X298746Y222985D01*
X297873Y222624D01*
X296927D01*
X296054Y222985D01*
X295385Y223654D01*
X295024Y224527D01*
Y225473D01*
X295385Y226346D01*
X296054Y227015D01*
X296927Y227376D01*
X297873D01*
X298746Y227015D01*
D02*
G37*
%LPC*%
G36*
X434796Y253000D02*
X433204D01*
X431734Y252391D01*
X430609Y251266D01*
X430000Y249796D01*
Y248204D01*
X430609Y246734D01*
X431734Y245609D01*
X433204Y245000D01*
X434796D01*
X436266Y245609D01*
X437391Y246734D01*
X438000Y248204D01*
Y249796D01*
X437391Y251266D01*
X436266Y252391D01*
X434796Y253000D01*
D02*
G37*
G36*
X472496Y248000D02*
X470904D01*
X469434Y247391D01*
X468309Y246266D01*
X467700Y244796D01*
Y243204D01*
X468309Y241734D01*
X469434Y240609D01*
X470904Y240000D01*
X472496D01*
X473966Y240609D01*
X475091Y241734D01*
X475700Y243204D01*
Y244796D01*
X475091Y246266D01*
X473966Y247391D01*
X472496Y248000D01*
D02*
G37*
G36*
X613496Y244400D02*
X611904D01*
X610434Y243791D01*
X609309Y242666D01*
X608700Y241196D01*
Y239604D01*
X609309Y238134D01*
X610434Y237009D01*
X611904Y236400D01*
X613496D01*
X614966Y237009D01*
X616091Y238134D01*
X616700Y239604D01*
Y241196D01*
X616091Y242666D01*
X614966Y243791D01*
X613496Y244400D01*
D02*
G37*
%LPD*%
D15*
X488182Y192250D02*
G03*
X486597Y191597I0J-2250D01*
G01*
X592000Y237000D02*
X609000Y254000D01*
X613918D01*
X592000Y210400D02*
Y237000D01*
X613918Y254000D02*
X614818Y253100D01*
X620900D01*
X607350Y257750D02*
X622967D01*
X584200Y238843D02*
X601500Y256143D01*
X588000Y238400D02*
X607350Y257750D01*
X649500Y222283D02*
Y222303D01*
X634659Y207441D02*
X649500Y222283D01*
X618741Y207441D02*
X634659D01*
X601500Y256143D02*
Y262750D01*
X660700Y236800D02*
Y275400D01*
X648900Y287200D02*
X660700Y275400D01*
X648900Y287200D02*
Y289618D01*
X652141Y292859D01*
X474540Y277100D02*
X483500D01*
X471640Y280000D02*
X474540Y277100D01*
X475382Y280500D02*
X484343D01*
X468450Y287432D02*
X475382Y280500D01*
X467168Y280000D02*
X471640D01*
X468450Y287432D02*
Y291150D01*
X465750Y293850D02*
X468450Y291150D01*
X432332Y293850D02*
X465750D01*
X488182Y280500D02*
X490782Y277900D01*
X484343Y280500D02*
X488182D01*
X483500Y277100D02*
X488120Y272480D01*
X469800Y277000D02*
X473700Y273100D01*
X459000Y277000D02*
X469800D01*
X459500Y283000D02*
X464168D01*
X467168Y280000D01*
X473350Y296850D02*
X486700Y283500D01*
X502033D01*
X426782Y261000D02*
X457831D01*
X465294Y253537D01*
X420033Y254250D02*
X426782Y261000D01*
X481800Y273100D02*
X490900Y264000D01*
X473700Y273100D02*
X481800D01*
X488120Y272480D02*
X493562D01*
X490900Y264000D02*
X510750D01*
X409882Y296850D02*
X473350D01*
X433700Y228400D02*
X477460D01*
X432150Y226850D02*
X433700Y228400D01*
X427583Y226850D02*
X432150D01*
X435100Y225400D02*
X476217D01*
X433550Y223850D02*
X435100Y225400D01*
X426341Y223850D02*
X433550D01*
X436293Y217750D02*
X437243Y218700D01*
X435800Y217500D02*
X436050Y217750D01*
X436300Y222000D02*
X466100D01*
X435050Y220750D02*
X436300Y222000D01*
X422467Y220750D02*
X435050D01*
X437243Y218700D02*
X465100D01*
X436050Y217750D02*
X436293D01*
X423460Y217500D02*
X435800D01*
X477460Y228400D02*
X481210Y224650D01*
X429551Y231600D02*
X479582D01*
X476217Y225400D02*
X479967Y221650D01*
X466100Y222000D02*
X473150Y214950D01*
X465100Y218700D02*
X471850Y211950D01*
X314700Y210783D02*
Y215300D01*
Y210783D02*
X317533Y207950D01*
X314700Y215300D02*
X316850Y217450D01*
X317533Y207950D02*
X319250D01*
X323700Y203500D01*
Y170200D02*
Y203500D01*
X319500Y212700D02*
X330300Y201900D01*
X537900Y232100D02*
X549600Y243800D01*
X562300D01*
X535067Y232100D02*
X537900D01*
X527467Y224500D02*
X535067Y232100D01*
X512718Y233000D02*
X521218Y224500D01*
X527467D01*
X505000Y233000D02*
X512718D01*
X529350Y221250D02*
X536500Y228400D01*
X541300D01*
X551900Y239000D01*
X553600Y224800D02*
X564500Y235700D01*
X538100Y224800D02*
X553600D01*
X531550Y218250D02*
X538100Y224800D01*
X540100Y210700D02*
X573200D01*
X532650Y203250D02*
X540100Y210700D01*
X573200D02*
X580000Y217500D01*
X483750Y200000D02*
X536000D01*
X542500Y206500D02*
X561782D01*
X536000Y200000D02*
X542500Y206500D01*
X494050Y203250D02*
X532650D01*
X508055Y211500D02*
X535800D01*
X538700Y214400D02*
X570368D01*
X535800Y211500D02*
X538700Y214400D01*
X570368D02*
X575250Y219282D01*
X485685Y216050D02*
X489385Y212350D01*
X533000Y214500D02*
X538500Y220000D01*
X509298Y214500D02*
X533000D01*
X538500Y220000D02*
X569250D01*
X564500Y235700D02*
Y239967D01*
X509790Y218250D02*
X531550D01*
X511033Y221250D02*
X529350D01*
X561782Y206500D02*
X568032Y200250D01*
X562300Y243800D02*
X579750Y261250D01*
X322850Y217450D02*
X342600Y197700D01*
X363167D02*
X365117Y199650D01*
X342600Y197700D02*
X363167D01*
X330300Y201900D02*
X332700D01*
X573850Y192250D02*
X592000Y210400D01*
X588000Y211750D02*
Y238400D01*
X573500Y197250D02*
X588000Y211750D01*
X585200Y177600D02*
X598100D01*
X582500Y174900D02*
X585200Y177600D01*
X523683Y174900D02*
X582500D01*
X581950Y178750D02*
X584500Y181300D01*
X511750Y178750D02*
X581950D01*
X594250Y185550D02*
Y191750D01*
X584500Y181300D02*
X590000D01*
X594250Y185550D01*
X513675Y164892D02*
X523683Y174900D01*
X657233Y177650D02*
X662067D01*
X670200Y185783D01*
Y227300D01*
X656982Y177900D02*
X657233Y177650D01*
X649800Y177900D02*
X656982D01*
X649400Y177500D02*
X649800Y177900D01*
X679000Y173600D02*
Y185300D01*
X675400Y170000D02*
X679000Y173600D01*
X655600Y170000D02*
X675400D01*
X659000Y164400D02*
X676500D01*
X682000Y169900D02*
Y187500D01*
X676500Y164400D02*
X682000Y169900D01*
X424982Y286500D02*
X432332Y293850D01*
X412900Y286500D02*
X424982D01*
X410000Y283600D02*
X412900Y286500D01*
X442067Y288067D02*
X454432D01*
X437200Y283200D02*
X442067Y288067D01*
X454432D02*
X459500Y283000D01*
X471850Y211950D02*
X478932D01*
X473150Y214950D02*
X477690D01*
X484250Y213050D02*
X494050Y203250D01*
X480033Y213050D02*
X484250D01*
X467800Y189800D02*
X481981Y203981D01*
Y208281D01*
X482000Y208300D01*
X455418Y189800D02*
X467800D01*
X478932Y211950D02*
X480033Y213050D01*
X498295Y213850D02*
X505705D01*
X489385Y212350D02*
X496795D01*
X477690Y214950D02*
X478790Y216050D01*
X505705Y213850D02*
X508055Y211500D01*
X478790Y216050D02*
X485685D01*
X496795Y212350D02*
X498295Y213850D01*
X424933Y229500D02*
X427583Y226850D01*
X489310Y225250D02*
X502790D01*
X489953Y221650D02*
X490552Y222250D01*
X479582Y231600D02*
X483532Y227650D01*
X488710Y224650D02*
X489310Y225250D01*
X487467Y227650D02*
X488067Y228250D01*
X483532Y227650D02*
X487467D01*
X481210Y224650D02*
X488710D01*
X575250Y219282D02*
Y244000D01*
X488067Y228250D02*
X504033D01*
X479967Y221650D02*
X489953D01*
X490552Y222250D02*
X501548D01*
X509298Y214500D01*
X676800Y192700D02*
Y232600D01*
X674200Y235200D02*
Y290400D01*
Y235200D02*
X676800Y232600D01*
X664100Y239600D02*
Y279900D01*
X673700Y190600D02*
Y230000D01*
X664100Y239600D02*
X673700Y230000D01*
X666600Y298000D02*
X674200Y290400D01*
X662000Y298000D02*
X666600D01*
X676800Y192700D02*
X682000Y187500D01*
X673700Y190600D02*
X679000Y185300D01*
X644600Y230000D02*
X662017D01*
X625750Y248850D02*
X644600Y230000D01*
X625750Y248850D02*
Y254968D01*
X662017Y230000D02*
X667200Y224817D01*
X622300Y201300D02*
X640600D01*
X662300Y223000D01*
X636600Y215500D02*
X643000Y221900D01*
X618000Y215500D02*
X636600D01*
X605250Y184750D02*
Y193950D01*
X618741Y207441D01*
X643000Y221900D02*
Y222500D01*
X616250Y182250D02*
Y195250D01*
X622300Y201300D01*
X608300Y174300D02*
X616250Y182250D01*
X587194Y174300D02*
X608300D01*
X576694Y163800D02*
X587194Y174300D01*
X598100Y177600D02*
X605250Y184750D01*
X594250Y191750D02*
X618000Y215500D01*
X572000Y200250D02*
X584200Y212450D01*
Y238843D01*
X555000Y192250D02*
X573850D01*
X591500Y193600D02*
X608600Y210700D01*
X579593Y193600D02*
X591500D01*
X575243Y189250D02*
X579593Y193600D01*
X608600Y210700D02*
Y222700D01*
X560850Y189250D02*
X575243D01*
X553600Y182000D02*
X560850Y189250D01*
X509900Y182000D02*
X553600D01*
X554150Y193100D02*
X555000Y192250D01*
X542600Y193100D02*
X554150D01*
X541750Y192250D02*
X542600Y193100D01*
X488182Y192250D02*
X541750D01*
X504600Y176700D02*
X509900Y182000D01*
X416200Y176700D02*
X504600D01*
X422180Y173700D02*
X506700D01*
X511750Y178750D01*
X413400Y173900D02*
X416200Y176700D01*
X396775Y173900D02*
X413400D01*
X386675Y163800D02*
X396775Y173900D01*
X410617Y179800D02*
X474800D01*
X472050Y182800D02*
X485250Y196000D01*
X406900Y182800D02*
X472050D01*
X474800Y179800D02*
X486597Y191597D01*
X412280Y163800D02*
X422180Y173700D01*
X408167Y177350D02*
X410617Y179800D01*
X406300Y182200D02*
X406900Y182800D01*
X385850Y177350D02*
X408167D01*
X372300Y163800D02*
X385850Y177350D01*
X408068Y187150D02*
X409118Y186100D01*
X469850D01*
X483750Y200000D01*
X423962Y283200D02*
X437200D01*
X414512Y273750D02*
X423962Y283200D01*
X410000Y283533D02*
Y283600D01*
X407217Y280750D02*
X410000Y283533D01*
X404232Y280750D02*
X407217D01*
X400500Y287467D02*
X409882Y296850D01*
X397500Y288710D02*
X408640Y299850D01*
X485650D01*
X497000Y288500D01*
X406100Y302850D02*
X568548D01*
X572448Y306750D01*
X391500Y288250D02*
X406100Y302850D01*
X380100Y305850D02*
X567305D01*
X577655Y316200D01*
X364000Y289750D02*
X380100Y305850D01*
X346600Y188000D02*
X357710D01*
X332700Y201900D02*
X346600Y188000D01*
X434387Y199650D02*
X438287Y195750D01*
X449468D01*
X455418Y189800D01*
X316850Y217450D02*
X322850D01*
X366360Y196650D02*
X431768D01*
X357710Y188000D02*
X366360Y196650D01*
X431768D02*
X437417Y191000D01*
X365117Y199650D02*
X434387D01*
X385950Y187150D02*
X408068D01*
X372800Y174000D02*
X385950Y187150D01*
X654000Y187000D02*
Y202000D01*
X667200Y215200D02*
Y224817D01*
X654000Y202000D02*
X667200Y215200D01*
X660700Y236800D02*
X670200Y227300D01*
X564475Y163800D02*
X576694D01*
X437417Y191000D02*
X437500D01*
X412075Y163800D02*
X412280D01*
X355000Y174000D02*
X372800D01*
X533900Y259300D02*
X552500D01*
X526850Y266350D02*
X533900Y259300D01*
X552500D02*
X579750Y286550D01*
X655000Y289000D02*
X664100Y279900D01*
X579750Y286550D02*
Y291967D01*
X562118Y273400D02*
X576750Y288032D01*
X553783Y273400D02*
X562118D01*
X552041Y275141D02*
X553783Y273400D01*
X519000Y278250D02*
X544150D01*
X547259Y275141D01*
X552041D01*
X576750Y288032D02*
Y288793D01*
X576750Y288793D01*
Y294950D01*
X518350Y266350D02*
X526850D01*
X502033Y283500D02*
X504282Y285750D01*
X512750D01*
X579550Y297750D02*
X618500D01*
X576750Y294950D02*
X579550Y297750D01*
X582533Y294750D02*
X622032D01*
X570250Y295250D02*
X575750Y300750D01*
X553532Y295250D02*
X570250D01*
X569007Y298250D02*
X574507Y303750D01*
X545250Y298250D02*
X569007D01*
X550750Y291300D02*
Y292467D01*
X549000Y290500D02*
X549950D01*
X550750Y292467D02*
X553532Y295250D01*
X549950Y290500D02*
X550750Y291300D01*
X540000Y293000D02*
X545250Y298250D01*
X535500Y282500D02*
X540000Y287000D01*
X516500Y282500D02*
X535500D01*
X540000Y287000D02*
Y293000D01*
X527750Y285750D02*
X532500Y290500D01*
X512750Y285750D02*
X527750D01*
X596000Y306750D02*
X605450Y316200D01*
X572448Y306750D02*
X596000D01*
X574507Y303750D02*
X611500D01*
X613500Y305750D01*
X575750Y300750D02*
X613750D01*
X579750Y291967D02*
X582533Y294750D01*
X607065Y289065D02*
X621000D01*
X615750Y302750D02*
X624243D01*
X583500Y265500D02*
X607065Y289065D01*
X613750Y300750D02*
X615750Y302750D01*
X645750Y303250D02*
X652141Y296859D01*
Y292859D02*
Y296859D01*
X635000Y303250D02*
X645750D01*
X394919Y230081D02*
X398919D01*
X404420Y224580D01*
Y223420D02*
Y224580D01*
X368000Y266750D02*
X375750Y274500D01*
X368000Y261000D02*
Y266750D01*
X375000Y261250D02*
X378250D01*
X370000Y256250D02*
X375000Y261250D01*
X365000Y256250D02*
X370000D01*
X370033Y251750D02*
X376533Y258250D01*
X388750D01*
X394750Y230250D02*
X394919Y230081D01*
X407420Y224663D02*
X414933Y217150D01*
X407250Y229000D02*
X407420Y228830D01*
Y224663D02*
Y228830D01*
X413690Y214150D02*
X420110D01*
X361750Y253000D02*
X365000Y256250D01*
X345377Y164377D02*
X355000Y174000D01*
X335875Y163800D02*
X336452Y164377D01*
X345377D01*
X361275Y163800D02*
X372300D01*
X613500Y305750D02*
X623000D01*
X625243Y303750D02*
X628750D01*
X624250Y307000D02*
X631250D01*
X623000Y305750D02*
X624250Y307000D01*
X624243Y302750D02*
X625243Y303750D01*
X538500Y196000D02*
X545500Y203000D01*
X561040D01*
X485250Y196000D02*
X538500D01*
X561040Y203000D02*
X566790Y197250D01*
X573500D01*
X568032Y200250D02*
X572000D01*
X502790Y225250D02*
X509790Y218250D01*
X504033Y228250D02*
X511033Y221250D01*
X580000Y217500D02*
Y243000D01*
X420110Y214150D02*
X423460Y217500D01*
X418867Y217150D02*
X422467Y220750D01*
X414933Y217150D02*
X418867D01*
X404420Y223420D02*
X413690Y214150D01*
X454250Y272250D02*
X459000Y277000D01*
X444750Y272250D02*
X454250D01*
X465294Y253537D02*
X475555D01*
X506750Y254750D02*
X518350Y266350D01*
X475555Y253537D02*
X476768Y254750D01*
X506750D01*
X424441Y225750D02*
X426341Y223850D01*
X416900Y221900D02*
Y222243D01*
X420407Y225750D02*
X424441D01*
X416900Y222243D02*
X420407Y225750D01*
X361750Y246000D02*
X367500Y251750D01*
X370033D01*
X388750Y258250D02*
X392750Y254250D01*
X420033D01*
X378250Y261250D02*
X388450Y271450D01*
X366750Y280500D02*
X397000D01*
X359000Y278000D02*
X364250D01*
X366750Y280500D01*
X372250Y277500D02*
X400983D01*
X368000Y273250D02*
X372250Y277500D01*
X357033Y273250D02*
X368000D01*
X375750Y274500D02*
X394960D01*
X388450Y271450D02*
X393768D01*
X514450Y267700D02*
Y273700D01*
X510750Y264000D02*
X514450Y267700D01*
Y273700D02*
X519000Y278250D01*
X508500Y274500D02*
X516500Y282500D01*
X495583Y274500D02*
X508500D01*
X493562Y272480D02*
X495583Y274500D01*
X580000Y243000D02*
X590250Y253250D01*
Y260750D01*
X575250Y244000D02*
X586750Y255500D01*
Y263500D01*
X564500Y239967D02*
X583500Y258967D01*
Y265500D01*
X579750Y261250D02*
Y276250D01*
X590250Y260750D02*
X607000Y277500D01*
X631567D01*
X586750Y263500D02*
X606000Y282750D01*
X631567Y277500D02*
X643000Y288933D01*
X625817Y282750D02*
X632000Y288933D01*
X606000Y282750D02*
X625817D01*
X579750Y276250D02*
X593500Y290000D01*
X643073Y294588D02*
X647088D01*
X623032Y293750D02*
X642235D01*
X647088Y294588D02*
X647250Y294750D01*
X642235Y293750D02*
X643073Y294588D01*
X634000Y298500D02*
X639500D01*
X628750Y303750D02*
X634000Y298500D01*
X631250Y307000D02*
X635000Y303250D01*
X618500Y297750D02*
X619250Y298500D01*
X626750D01*
X622032Y294750D02*
X623032Y293750D01*
X605450Y316200D02*
X615275D01*
X490782Y277900D02*
X491500D01*
X441000Y276000D02*
X444750Y272250D01*
X421004Y276000D02*
X441000D01*
X397500Y286000D02*
Y288710D01*
X395000Y283500D02*
X397500Y286000D01*
X355395Y283500D02*
X395000D01*
X400500Y284000D02*
Y287467D01*
X397000Y280500D02*
X400500Y284000D01*
X259675Y316200D02*
X276325Y299550D01*
X329845Y309050D02*
X355395Y283500D01*
X316505Y309050D02*
X329845D01*
X345250Y285032D02*
X357033Y273250D01*
X333198Y299550D02*
X345250Y287498D01*
X276325Y299550D02*
X333198D01*
X513675Y163800D02*
Y164892D01*
X406290Y269050D02*
X410990Y273750D01*
X413750Y229500D02*
X424933D01*
X400410Y269050D02*
X406290D01*
X411232Y269750D02*
X414754D01*
X400983Y277500D02*
X404232Y280750D01*
X414754Y269750D02*
X421004Y276000D01*
X399168Y266050D02*
X407533D01*
X411232Y269750D01*
X391500Y288250D02*
Y288250D01*
X393768Y271450D02*
X399168Y266050D01*
X394960Y274500D02*
X400410Y269050D01*
X410990Y273750D02*
X414512D01*
X314335Y306880D02*
X316505Y309050D01*
X294395Y306880D02*
X314335D01*
X622967Y257750D02*
X625750Y254968D01*
X577655Y316200D02*
X589875D01*
X285075D02*
X294395Y306880D01*
X345250Y285032D02*
Y287498D01*
D63*
X589875Y163800D02*
D03*
X564475D02*
D03*
X513675D02*
D03*
X412075D02*
D03*
X386675D02*
D03*
X361275D02*
D03*
X335875D02*
D03*
X285075D02*
D03*
X259675Y316200D02*
D03*
X285075D02*
D03*
X539075D02*
D03*
X589875D02*
D03*
D64*
X615275D02*
D03*
D70*
X467385Y271400D02*
X470994Y267791D01*
X456250Y267750D02*
X459900Y271400D01*
X467385D01*
X470994Y267791D02*
X479709D01*
X441250Y267750D02*
X456250D01*
X437250Y271750D02*
X441250Y267750D01*
X423765Y271750D02*
X437250D01*
X391800Y266700D02*
X392071D01*
X419725Y263040D02*
Y267710D01*
X392071Y266700D02*
X399771Y259000D01*
X415685D02*
X419725Y263040D01*
Y267710D02*
X423765Y271750D01*
X399771Y259000D02*
X415685D01*
X479709Y267791D02*
X479900Y267600D01*
D73*
X612600Y248600D02*
D03*
X368600Y243600D02*
D03*
X375000Y240400D02*
D03*
X297400Y225000D02*
D03*
X295600Y205700D02*
D03*
X313000Y195000D02*
D03*
Y201000D02*
D03*
X283700Y279300D02*
D03*
X247800Y309300D02*
D03*
X247900Y323300D02*
D03*
X272700Y312600D02*
D03*
X272200Y323200D02*
D03*
X297600Y323500D02*
D03*
X298100Y312600D02*
D03*
X323100Y323000D02*
D03*
X348700Y323300D02*
D03*
X374100D02*
D03*
X399600Y323700D02*
D03*
X425000D02*
D03*
X450600Y323300D02*
D03*
X475400Y323200D02*
D03*
X501100D02*
D03*
X527100Y323300D02*
D03*
X551000Y322800D02*
D03*
X577300D02*
D03*
X652200Y323200D02*
D03*
X699600Y322700D02*
D03*
X690900Y156600D02*
D03*
X627500Y156700D02*
D03*
X601700Y166300D02*
D03*
X525900Y156800D02*
D03*
X501200Y156600D02*
D03*
X475700D02*
D03*
X450400Y156700D02*
D03*
X425100D02*
D03*
X399700Y156900D02*
D03*
X374200Y156700D02*
D03*
X248000Y156800D02*
D03*
X297800Y157000D02*
D03*
X272500Y157300D02*
D03*
X323000Y157400D02*
D03*
X348700Y157100D02*
D03*
X551900Y239000D02*
D03*
X655600Y170000D02*
D03*
X649400Y177500D02*
D03*
X521200Y293500D02*
D03*
X505300Y293100D02*
D03*
X421600Y292100D02*
D03*
X482000Y208300D02*
D03*
X475200Y219700D02*
D03*
X608600Y222700D02*
D03*
X662300Y223000D02*
D03*
X687400Y186700D02*
D03*
X659000Y164400D02*
D03*
X357500Y202500D02*
D03*
X437500Y191000D02*
D03*
X463500Y212800D02*
D03*
X503000Y183500D02*
D03*
X673500Y182000D02*
D03*
X655800Y224600D02*
D03*
X249000Y171000D02*
D03*
X554800Y279100D02*
D03*
X555500Y290500D02*
D03*
X549000D02*
D03*
X532500D02*
D03*
X630700Y225700D02*
D03*
X643000Y222500D02*
D03*
X649500D02*
D03*
X352000Y269000D02*
D03*
X662000Y298000D02*
D03*
X655000Y289000D02*
D03*
X603000Y323000D02*
D03*
X627000Y322000D02*
D03*
X651000Y306000D02*
D03*
X708000Y323000D02*
D03*
X705000Y310000D02*
D03*
X706000Y298000D02*
D03*
X579000Y158000D02*
D03*
X602000Y157000D02*
D03*
X552000D02*
D03*
X501000Y167000D02*
D03*
X475000D02*
D03*
X451000D02*
D03*
X400000D02*
D03*
X425000Y166000D02*
D03*
X273000Y269000D02*
D03*
Y278000D02*
D03*
X294000Y283000D02*
D03*
X312000Y282000D02*
D03*
X299000Y272000D02*
D03*
X285000Y270000D02*
D03*
X305000Y294000D02*
D03*
X289750Y294250D02*
D03*
X281500Y305250D02*
D03*
X627250Y168250D02*
D03*
X354000Y192750D02*
D03*
X375625Y266875D02*
D03*
X394750Y230250D02*
D03*
X407250Y229000D02*
D03*
X361750Y253000D02*
D03*
X626750Y298500D02*
D03*
X584500Y290000D02*
D03*
X428750Y256250D02*
D03*
X359000Y278000D02*
D03*
X349000Y311000D02*
D03*
X323300Y304300D02*
D03*
X318700Y293500D02*
D03*
X545300Y264200D02*
D03*
X474800Y236600D02*
D03*
X463900Y283000D02*
D03*
X465700Y264600D02*
D03*
X474000Y258700D02*
D03*
X391800Y266700D02*
D03*
X520300Y259800D02*
D03*
X491500Y277900D02*
D03*
X479900Y267600D02*
D03*
X406300Y182200D02*
D03*
X397400Y182100D02*
D03*
X416900Y221900D02*
D03*
X429551Y231600D02*
D03*
X464000Y196000D02*
D03*
X569600Y268300D02*
D03*
Y261500D02*
D03*
X319500Y212700D02*
D03*
X323700Y170200D02*
D03*
X270100Y191100D02*
D03*
X256900Y297200D02*
D03*
X257100Y289600D02*
D03*
X229000Y301500D02*
D03*
X239000D02*
D03*
Y293500D02*
D03*
X229000D02*
D03*
X229500Y178000D02*
D03*
X238500D02*
D03*
Y185500D02*
D03*
X280500Y289700D02*
D03*
X229500Y185500D02*
D03*
X525400Y169900D02*
D03*
X288900Y208300D02*
D03*
X294300Y188400D02*
D03*
X286900Y233200D02*
D03*
X293900Y241600D02*
D03*
X353000Y233000D02*
D03*
X429500Y240250D02*
D03*
X368000Y261000D02*
D03*
X361750Y246000D02*
D03*
X364000Y289750D02*
D03*
X497000Y288500D02*
D03*
X601500Y262750D02*
D03*
X569250Y220000D02*
D03*
X391500Y288250D02*
D03*
X639500Y298500D02*
D03*
X614300Y233100D02*
D03*
X413750Y229500D02*
D03*
X647250Y294750D02*
D03*
X632500Y288933D02*
D03*
X594000Y290000D02*
D03*
X505000Y233000D02*
D03*
X621000Y253000D02*
D03*
X643500Y288933D02*
D03*
X621500Y289065D02*
D03*
X654000Y187000D02*
D03*
X706000Y289000D02*
D03*
X694000D02*
D03*
X698500Y282500D02*
D03*
X690000Y297000D02*
D03*
X669000Y252500D02*
D03*
X637200Y249900D02*
D03*
X552000Y312000D02*
D03*
X526000D02*
D03*
X501000D02*
D03*
X476000D02*
D03*
X487000Y290500D02*
D03*
X699000Y194000D02*
D03*
X706000Y187000D02*
D03*
X694500D02*
D03*
X683500Y194000D02*
D03*
X549000Y198000D02*
D03*
X580750Y184500D02*
D03*
X573300D02*
D03*
X450000Y311000D02*
D03*
X425000D02*
D03*
X400000D02*
D03*
X375000D02*
D03*
X356500Y290000D02*
D03*
X305000Y243000D02*
D03*
X276000Y195000D02*
D03*
X520750Y242750D02*
D03*
X383000Y239500D02*
D03*
X316250Y271000D02*
D03*
X306500Y266250D02*
D03*
X280000Y177000D02*
D03*
X274500Y171500D02*
D03*
X572000Y290000D02*
D03*
M02*
