G04*
G04 #@! TF.GenerationSoftware,Altium Limited,Altium Designer,21.6.4 (81)*
G04*
G04 Layer_Color=16711935*
%FSLAX44Y44*%
%MOMM*%
G71*
G04*
G04 #@! TF.SameCoordinates,27B0D74A-EB15-4392-BC8F-D98A40C3D817*
G04*
G04*
G04 #@! TF.FilePolarity,Negative*
G04*
G01*
G75*
%ADD59R,0.6200X0.6500*%
%ADD63C,1.4140*%
%ADD64R,1.4140X1.4140*%
%ADD65C,1.1000*%
%ADD66C,1.9000*%
%ADD75R,2.4000X0.7600*%
%ADD76C,0.9000*%
%ADD77R,2.5000X0.8600*%
G36*
X596945Y316200D02*
X582805D01*
Y326370D01*
X596945D01*
Y316200D01*
D02*
G37*
G36*
X419145D02*
X405005D01*
Y326370D01*
X419145D01*
Y316200D01*
D02*
G37*
G36*
X368345D02*
X354205D01*
Y326370D01*
X368345D01*
Y316200D01*
D02*
G37*
G36*
X266745D02*
X252605D01*
Y326370D01*
X266745D01*
Y316200D01*
D02*
G37*
G36*
X622345Y316200D02*
X608205D01*
Y326370D01*
X622345D01*
Y316200D01*
D02*
G37*
G36*
X571545D02*
X557405D01*
Y326370D01*
X571545D01*
Y316200D01*
D02*
G37*
G36*
X546145D02*
X532005D01*
Y326370D01*
X546145D01*
Y316200D01*
D02*
G37*
G36*
X520745D02*
X506605D01*
Y326370D01*
X520745D01*
Y316200D01*
D02*
G37*
G36*
X495345D02*
X481205D01*
Y326370D01*
X495345D01*
Y316200D01*
D02*
G37*
G36*
X469945D02*
X455805D01*
Y326370D01*
X469945D01*
Y316200D01*
D02*
G37*
G36*
X444545D02*
X430405D01*
Y326370D01*
X444545D01*
Y316200D01*
D02*
G37*
G36*
X393745D02*
X379605D01*
Y326370D01*
X393745D01*
Y316200D01*
D02*
G37*
G36*
X342945D02*
X328805D01*
Y326370D01*
X342945D01*
Y316200D01*
D02*
G37*
G36*
X317545D02*
X303405D01*
Y326370D01*
X317545D01*
Y316200D01*
D02*
G37*
G36*
X292145D02*
X278005D01*
Y326370D01*
X292145D01*
Y316200D01*
D02*
G37*
G36*
X622345Y153630D02*
X608205D01*
Y163800D01*
X622345D01*
Y153630D01*
D02*
G37*
G36*
X596945D02*
X582805D01*
Y163800D01*
X596945D01*
Y153630D01*
D02*
G37*
G36*
X571545D02*
X557405D01*
Y163800D01*
X571545D01*
Y153630D01*
D02*
G37*
G36*
X546145D02*
X532005D01*
Y163800D01*
X546145D01*
Y153630D01*
D02*
G37*
G36*
X520745D02*
X506605D01*
Y163800D01*
X520745D01*
Y153630D01*
D02*
G37*
G36*
X495345D02*
X481205D01*
Y163800D01*
X495345D01*
Y153630D01*
D02*
G37*
G36*
X469945D02*
X455805D01*
Y163800D01*
X469945D01*
Y153630D01*
D02*
G37*
G36*
X444545D02*
X430405D01*
Y163800D01*
X444545D01*
Y153630D01*
D02*
G37*
G36*
X419145D02*
X405005D01*
Y163800D01*
X419145D01*
Y153630D01*
D02*
G37*
G36*
X393745D02*
X379605D01*
Y163800D01*
X393745D01*
Y153630D01*
D02*
G37*
G36*
X368345D02*
X354205D01*
Y163800D01*
X368345D01*
Y153630D01*
D02*
G37*
G36*
X342945D02*
X328805D01*
Y163800D01*
X342945D01*
Y153630D01*
D02*
G37*
G36*
X317551D02*
X303411D01*
Y163800D01*
X317551D01*
Y153630D01*
D02*
G37*
G36*
X292145D02*
X278005D01*
Y163800D01*
X292145D01*
Y153630D01*
D02*
G37*
G36*
X266745D02*
X252605D01*
Y163800D01*
X266745D01*
Y153630D01*
D02*
G37*
D59*
X290300Y215200D02*
D03*
X298300D02*
D03*
D63*
X615275Y163800D02*
D03*
X589875D02*
D03*
X564475D02*
D03*
X539075D02*
D03*
X513675D02*
D03*
X488275D02*
D03*
X462875D02*
D03*
X437475D02*
D03*
X412075D02*
D03*
X386675D02*
D03*
X361275D02*
D03*
X335875D02*
D03*
X310475D02*
D03*
X285075D02*
D03*
X259675D02*
D03*
Y316200D02*
D03*
X285075D02*
D03*
X310475D02*
D03*
X335875D02*
D03*
X361275D02*
D03*
X386675D02*
D03*
X412075D02*
D03*
X437475D02*
D03*
X462875D02*
D03*
X488275D02*
D03*
X513675D02*
D03*
X539075D02*
D03*
X564475D02*
D03*
X589875D02*
D03*
D64*
X615275D02*
D03*
D65*
X576750Y281500D02*
D03*
X616000Y211000D02*
D03*
X591500Y196000D02*
D03*
X674000Y169000D02*
D03*
X655000Y205000D02*
D03*
X642400Y237900D02*
D03*
X661000Y311000D02*
D03*
X633300Y197800D02*
D03*
X548400Y213400D02*
D03*
X562100Y232700D02*
D03*
X584000Y226000D02*
D03*
X564500Y186500D02*
D03*
X645250Y261500D02*
D03*
X450150Y280500D02*
D03*
X460310Y204300D02*
D03*
X439990D02*
D03*
D66*
X234270Y316200D02*
D03*
X640680D02*
D03*
Y163800D02*
D03*
X234270D02*
D03*
D75*
X375500Y206800D02*
D03*
Y219500D02*
D03*
Y181400D02*
D03*
D76*
X456500Y255100D02*
D03*
X443800Y242400D02*
D03*
Y217000D02*
D03*
X456500Y229700D02*
D03*
Y217000D02*
D03*
Y242400D02*
D03*
Y267800D02*
D03*
X443800Y229700D02*
D03*
Y255100D02*
D03*
Y267800D02*
D03*
D77*
X336500Y232200D02*
D03*
Y194100D02*
D03*
Y206800D02*
D03*
Y219500D02*
D03*
X375500Y232200D02*
D03*
X336500Y181400D02*
D03*
X375500Y194100D02*
D03*
M02*
