G04*
G04 #@! TF.GenerationSoftware,Altium Limited,Altium Designer,21.6.4 (81)*
G04*
G04 Layer_Color=8388736*
%FSLAX44Y44*%
%MOMM*%
G71*
G04*
G04 #@! TF.SameCoordinates,27B0D74A-EB15-4392-BC8F-D98A40C3D817*
G04*
G04*
G04 #@! TF.FilePolarity,Negative*
G04*
G01*
G75*
%ADD18R,2.0000X2.1000*%
%ADD19R,1.9000X1.6000*%
%ADD20R,1.9000X1.2000*%
%ADD21R,1.3500X0.4000*%
%ADD22R,1.0500X2.2000*%
%ADD24R,0.3000X0.4500*%
%ADD25R,0.4000X0.5000*%
%ADD26R,0.3000X0.3000*%
%ADD27R,0.2500X0.4000*%
%ADD28R,0.4000X0.2500*%
G04:AMPARAMS|DCode=30|XSize=0.2425mm|YSize=0.7397mm|CornerRadius=0.1212mm|HoleSize=0mm|Usage=FLASHONLY|Rotation=180.000|XOffset=0mm|YOffset=0mm|HoleType=Round|Shape=RoundedRectangle|*
%AMROUNDEDRECTD30*
21,1,0.2425,0.4972,0,0,180.0*
21,1,0.0000,0.7397,0,0,180.0*
1,1,0.2425,0.0000,0.2486*
1,1,0.2425,0.0000,0.2486*
1,1,0.2425,0.0000,-0.2486*
1,1,0.2425,0.0000,-0.2486*
%
%ADD30ROUNDEDRECTD30*%
G04:AMPARAMS|DCode=31|XSize=0.7397mm|YSize=0.2425mm|CornerRadius=0.1212mm|HoleSize=0mm|Usage=FLASHONLY|Rotation=180.000|XOffset=0mm|YOffset=0mm|HoleType=Round|Shape=RoundedRectangle|*
%AMROUNDEDRECTD31*
21,1,0.7397,0.0000,0,0,180.0*
21,1,0.4972,0.2425,0,0,180.0*
1,1,0.2425,-0.2486,0.0000*
1,1,0.2425,0.2486,0.0000*
1,1,0.2425,0.2486,0.0000*
1,1,0.2425,-0.2486,0.0000*
%
%ADD31ROUNDEDRECTD31*%
%ADD32R,0.7397X0.2425*%
%ADD33R,0.6000X0.6000*%
%ADD34R,0.6000X0.6000*%
%ADD35R,0.8000X0.8000*%
%ADD37R,0.7500X0.9000*%
%ADD38R,0.8000X1.7000*%
%ADD39R,0.6300X0.4500*%
%ADD40R,1.2200X2.6000*%
%ADD41R,0.5500X0.5200*%
%ADD42R,0.5200X0.5500*%
%ADD43R,0.3000X0.3000*%
%ADD44R,1.6500X1.1000*%
%ADD45R,1.4500X0.5000*%
%ADD46R,1.1000X1.1500*%
%ADD47R,0.4000X0.5500*%
%ADD48R,0.4000X0.4000*%
%ADD49R,0.3500X0.5000*%
%ADD50R,0.5000X0.3500*%
%ADD51R,3.1000X1.1000*%
%ADD52R,2.0500X2.0500*%
%ADD53R,0.7000X0.7000*%
%ADD54R,0.9000X0.9000*%
%ADD55R,0.9500X0.7500*%
%ADD56R,0.9000X1.8000*%
%ADD57R,0.7300X0.5500*%
%ADD58R,0.8500X1.0000*%
%ADD59R,0.6200X0.6500*%
%ADD60R,0.5000X0.6000*%
%ADD61R,0.6500X0.6200*%
%ADD62R,0.4000X0.4000*%
%ADD63C,1.4140*%
%ADD64R,1.4140X1.4140*%
%ADD65C,1.1000*%
%ADD66C,1.9000*%
G36*
X596945Y316200D02*
X582805D01*
Y326370D01*
X596945D01*
Y316200D01*
D02*
G37*
G36*
X419145D02*
X405005D01*
Y326370D01*
X419145D01*
Y316200D01*
D02*
G37*
G36*
X368345D02*
X354205D01*
Y326370D01*
X368345D01*
Y316200D01*
D02*
G37*
G36*
X266745D02*
X252605D01*
Y326370D01*
X266745D01*
Y316200D01*
D02*
G37*
G36*
X622345Y316200D02*
X608205D01*
Y326370D01*
X622345D01*
Y316200D01*
D02*
G37*
G36*
X571545D02*
X557405D01*
Y326370D01*
X571545D01*
Y316200D01*
D02*
G37*
G36*
X546145D02*
X532005D01*
Y326370D01*
X546145D01*
Y316200D01*
D02*
G37*
G36*
X520745D02*
X506605D01*
Y326370D01*
X520745D01*
Y316200D01*
D02*
G37*
G36*
X495345D02*
X481205D01*
Y326370D01*
X495345D01*
Y316200D01*
D02*
G37*
G36*
X469945D02*
X455805D01*
Y326370D01*
X469945D01*
Y316200D01*
D02*
G37*
G36*
X444545D02*
X430405D01*
Y326370D01*
X444545D01*
Y316200D01*
D02*
G37*
G36*
X393745D02*
X379605D01*
Y326370D01*
X393745D01*
Y316200D01*
D02*
G37*
G36*
X342945D02*
X328805D01*
Y326370D01*
X342945D01*
Y316200D01*
D02*
G37*
G36*
X317545D02*
X303405D01*
Y326370D01*
X317545D01*
Y316200D01*
D02*
G37*
G36*
X292145D02*
X278005D01*
Y326370D01*
X292145D01*
Y316200D01*
D02*
G37*
G36*
X622345Y153630D02*
X608205D01*
Y163800D01*
X622345D01*
Y153630D01*
D02*
G37*
G36*
X596945D02*
X582805D01*
Y163800D01*
X596945D01*
Y153630D01*
D02*
G37*
G36*
X571545D02*
X557405D01*
Y163800D01*
X571545D01*
Y153630D01*
D02*
G37*
G36*
X546145D02*
X532005D01*
Y163800D01*
X546145D01*
Y153630D01*
D02*
G37*
G36*
X520745D02*
X506605D01*
Y163800D01*
X520745D01*
Y153630D01*
D02*
G37*
G36*
X495345D02*
X481205D01*
Y163800D01*
X495345D01*
Y153630D01*
D02*
G37*
G36*
X469945D02*
X455805D01*
Y163800D01*
X469945D01*
Y153630D01*
D02*
G37*
G36*
X444545D02*
X430405D01*
Y163800D01*
X444545D01*
Y153630D01*
D02*
G37*
G36*
X419145D02*
X405005D01*
Y163800D01*
X419145D01*
Y153630D01*
D02*
G37*
G36*
X393745D02*
X379605D01*
Y163800D01*
X393745D01*
Y153630D01*
D02*
G37*
G36*
X368345D02*
X354205D01*
Y163800D01*
X368345D01*
Y153630D01*
D02*
G37*
G36*
X342945D02*
X328805D01*
Y163800D01*
X342945D01*
Y153630D01*
D02*
G37*
G36*
X317551D02*
X303411D01*
Y163800D01*
X317551D01*
Y153630D01*
D02*
G37*
G36*
X292145D02*
X278005D01*
Y163800D01*
X292145D01*
Y153630D01*
D02*
G37*
G36*
X266745D02*
X252605D01*
Y163800D01*
X266745D01*
Y153630D01*
D02*
G37*
D18*
X258125Y271000D02*
D03*
Y209000D02*
D03*
D19*
X234625Y281000D02*
D03*
Y199000D02*
D03*
D20*
Y248500D02*
D03*
Y231500D02*
D03*
D21*
X261375Y227000D02*
D03*
Y253000D02*
D03*
D22*
X661750Y316000D02*
D03*
X691250D02*
D03*
D24*
X288000Y241500D02*
D03*
X278000Y255000D02*
D03*
Y241500D02*
D03*
D25*
X311000Y179000D02*
D03*
X297000D02*
D03*
X355000Y178000D02*
D03*
D26*
X266650Y297400D02*
D03*
X272150D02*
D03*
X561750Y273500D02*
D03*
X379750Y205000D02*
D03*
X620750Y175500D02*
D03*
X528500Y176000D02*
D03*
X537750Y205000D02*
D03*
X380500Y228500D02*
D03*
X386000D02*
D03*
X380500Y267000D02*
D03*
X472100Y272700D02*
D03*
X303250Y188000D02*
D03*
X308750D02*
D03*
X283050Y201500D02*
D03*
X277550D02*
D03*
X285750Y226500D02*
D03*
X291250D02*
D03*
D27*
X388500Y237500D02*
D03*
X480000Y240500D02*
D03*
D28*
X426500Y250500D02*
D03*
Y245500D02*
D03*
X518000Y253500D02*
D03*
Y248500D02*
D03*
D30*
X324000Y233845D02*
D03*
X339000Y271155D02*
D03*
X344000Y233845D02*
D03*
X324000Y271155D02*
D03*
X339000Y233845D02*
D03*
X329000Y271155D02*
D03*
X334000D02*
D03*
X329000Y233845D02*
D03*
X344000Y271155D02*
D03*
X334000Y233845D02*
D03*
D31*
X315345Y242500D02*
D03*
Y247500D02*
D03*
X352655Y262500D02*
D03*
Y247500D02*
D03*
X315345Y257500D02*
D03*
Y262500D02*
D03*
Y252500D02*
D03*
X352655D02*
D03*
Y257500D02*
D03*
D32*
Y242500D02*
D03*
D33*
X706500Y282000D02*
D03*
X691500D02*
D03*
X577500D02*
D03*
X706500Y271000D02*
D03*
X676500D02*
D03*
Y260000D02*
D03*
Y249000D02*
D03*
X588500Y271000D02*
D03*
X676500Y238000D02*
D03*
Y227000D02*
D03*
X632500Y243500D02*
D03*
X621500D02*
D03*
X632500Y232500D02*
D03*
X621500D02*
D03*
X706500Y205000D02*
D03*
Y194000D02*
D03*
X691500D02*
D03*
X676500Y216000D02*
D03*
Y205000D02*
D03*
X588500D02*
D03*
X577500Y194000D02*
D03*
Y271000D02*
D03*
Y260000D02*
D03*
X588500D02*
D03*
D34*
X654500Y243500D02*
D03*
Y232500D02*
D03*
D35*
X267500Y181000D02*
D03*
D37*
X290500Y216500D02*
D03*
X277500D02*
D03*
X364500Y191000D02*
D03*
X305500Y197000D02*
D03*
X292500D02*
D03*
D38*
X389000Y187000D02*
D03*
X511500D02*
D03*
D39*
X319500Y186500D02*
D03*
X346300D02*
D03*
Y196000D02*
D03*
X319500D02*
D03*
D40*
X332900D02*
D03*
D41*
X299000Y249500D02*
D03*
Y257500D02*
D03*
X563000Y280000D02*
D03*
X368000Y202000D02*
D03*
Y226700D02*
D03*
D42*
X553000Y204500D02*
D03*
X262400Y191700D02*
D03*
X303000Y208000D02*
D03*
Y217000D02*
D03*
X265500Y289500D02*
D03*
X273500D02*
D03*
D43*
X277000Y189000D02*
D03*
Y183500D02*
D03*
X476500Y225750D02*
D03*
Y231250D02*
D03*
X445250Y185000D02*
D03*
X455250Y183500D02*
D03*
X306000Y252000D02*
D03*
Y257500D02*
D03*
D44*
X557000Y248500D02*
D03*
Y222500D02*
D03*
D45*
X261375Y240000D02*
D03*
Y233500D02*
D03*
Y246500D02*
D03*
D46*
X676500Y301000D02*
D03*
D47*
X283000Y255000D02*
D03*
X288000D02*
D03*
D48*
X543250Y285500D02*
D03*
Y280000D02*
D03*
X556250Y273500D02*
D03*
X385250Y205000D02*
D03*
X615250Y175500D02*
D03*
X534000Y176000D02*
D03*
X532250Y205000D02*
D03*
X386000Y267000D02*
D03*
X477600Y272700D02*
D03*
X372000Y248750D02*
D03*
Y254250D02*
D03*
X391500Y223250D02*
D03*
Y217750D02*
D03*
X397500Y211286D02*
D03*
Y205786D02*
D03*
X403000Y211250D02*
D03*
Y205750D02*
D03*
X435000Y243050D02*
D03*
Y237550D02*
D03*
X556750Y184332D02*
D03*
Y189832D02*
D03*
X483000Y226500D02*
D03*
Y221000D02*
D03*
X496500Y226450D02*
D03*
Y220950D02*
D03*
X527000Y240500D02*
D03*
Y246000D02*
D03*
X562250Y184332D02*
D03*
Y189832D02*
D03*
X465000Y237100D02*
D03*
Y242600D02*
D03*
X489000Y211250D02*
D03*
Y205750D02*
D03*
X361500Y240250D02*
D03*
Y234750D02*
D03*
X334500Y280030D02*
D03*
Y285530D02*
D03*
X328500Y280030D02*
D03*
Y285530D02*
D03*
X362500Y258750D02*
D03*
Y264250D02*
D03*
X328500Y291030D02*
D03*
Y285530D02*
D03*
X334500Y291030D02*
D03*
Y285530D02*
D03*
X537750Y280000D02*
D03*
Y285500D02*
D03*
D49*
X413500Y237500D02*
D03*
X408500D02*
D03*
X388500Y258500D02*
D03*
X393500Y237500D02*
D03*
X398500Y258500D02*
D03*
X393500D02*
D03*
X418500D02*
D03*
X403500Y237500D02*
D03*
X408500Y258500D02*
D03*
X413500D02*
D03*
X398500Y237500D02*
D03*
X403500Y258500D02*
D03*
X423500Y237500D02*
D03*
X418500D02*
D03*
X423500Y258500D02*
D03*
X505000Y240500D02*
D03*
X510000Y261500D02*
D03*
X500000Y240500D02*
D03*
X510000D02*
D03*
X505000Y261500D02*
D03*
X485000Y240500D02*
D03*
X490000Y261500D02*
D03*
Y240500D02*
D03*
X495000Y261500D02*
D03*
Y240500D02*
D03*
X500000Y261500D02*
D03*
X480000D02*
D03*
X485000D02*
D03*
X515000D02*
D03*
Y240500D02*
D03*
D50*
X385500Y245500D02*
D03*
Y250500D02*
D03*
X477000Y248500D02*
D03*
Y253500D02*
D03*
D51*
X406000Y248000D02*
D03*
X497500Y251000D02*
D03*
D52*
X334000Y252500D02*
D03*
D53*
X632500Y282000D02*
D03*
Y271000D02*
D03*
X599500D02*
D03*
Y249000D02*
D03*
X588500D02*
D03*
X632500Y205000D02*
D03*
X610500D02*
D03*
X654500Y216000D02*
D03*
X610500Y194000D02*
D03*
X621500Y205000D02*
D03*
X643500Y260000D02*
D03*
X599500Y194000D02*
D03*
X588500Y216000D02*
D03*
X577500Y227000D02*
D03*
X588500Y194000D02*
D03*
X599500Y205000D02*
D03*
X577500Y238000D02*
D03*
X621500Y260000D02*
D03*
X665500Y282000D02*
D03*
X610500Y271000D02*
D03*
X665500Y194000D02*
D03*
X643500Y271000D02*
D03*
Y282000D02*
D03*
X632500Y260000D02*
D03*
X621500Y271000D02*
D03*
Y282000D02*
D03*
X676500D02*
D03*
X599500D02*
D03*
X610500D02*
D03*
X621500Y216000D02*
D03*
X632500D02*
D03*
X654500Y205000D02*
D03*
Y194000D02*
D03*
X643500D02*
D03*
X665500Y205000D02*
D03*
X632500Y194000D02*
D03*
X621500D02*
D03*
X577500Y205000D02*
D03*
X588500Y227000D02*
D03*
X577500Y216000D02*
D03*
X599500Y227000D02*
D03*
X610500Y216000D02*
D03*
X643500Y205000D02*
D03*
Y216000D02*
D03*
X654500Y271000D02*
D03*
X665500D02*
D03*
X654500Y282000D02*
D03*
X643500Y232500D02*
D03*
X665500D02*
D03*
X676500Y194000D02*
D03*
X665500Y216000D02*
D03*
X588500Y238000D02*
D03*
X599500D02*
D03*
X643500Y243500D02*
D03*
X577500Y249000D02*
D03*
X610500Y260000D02*
D03*
X654500D02*
D03*
X665500D02*
D03*
X588500Y282000D02*
D03*
X665500Y243500D02*
D03*
D54*
X251500Y181000D02*
D03*
D55*
X689250Y164750D02*
D03*
Y173250D02*
D03*
X703750D02*
D03*
Y164750D02*
D03*
D56*
X423000Y187000D02*
D03*
X477500D02*
D03*
D57*
X319500Y205500D02*
D03*
X346300D02*
D03*
D58*
X377500Y191000D02*
D03*
D59*
X552500Y266000D02*
D03*
X560500D02*
D03*
X561000Y204500D02*
D03*
X675500Y166500D02*
D03*
X667500D02*
D03*
X675500Y158000D02*
D03*
X667500D02*
D03*
X254400Y191700D02*
D03*
X675500Y175000D02*
D03*
X667500D02*
D03*
X311000Y208000D02*
D03*
Y217000D02*
D03*
X383500Y276750D02*
D03*
X375500D02*
D03*
X375500Y285250D02*
D03*
X383500D02*
D03*
X476800Y279800D02*
D03*
X484800D02*
D03*
D60*
X369000Y178000D02*
D03*
D61*
X563000Y288000D02*
D03*
X305000Y228000D02*
D03*
X375000Y285000D02*
D03*
Y277000D02*
D03*
X383500D02*
D03*
Y285000D02*
D03*
X368000Y210000D02*
D03*
Y218700D02*
D03*
D62*
X439750Y185000D02*
D03*
X408250Y211000D02*
D03*
X413750D02*
D03*
X411250Y216400D02*
D03*
X416750D02*
D03*
X419350Y227600D02*
D03*
X424850D02*
D03*
X507250Y209500D02*
D03*
X512750D02*
D03*
X507250Y215000D02*
D03*
X512750D02*
D03*
X511500Y232500D02*
D03*
X517000D02*
D03*
X562250Y189832D02*
D03*
X556750D02*
D03*
Y184332D02*
D03*
X562250D02*
D03*
X460750Y183500D02*
D03*
X329000Y225000D02*
D03*
X323500D02*
D03*
X349000D02*
D03*
X343500D02*
D03*
X347000Y280030D02*
D03*
X352500D02*
D03*
X343500Y219500D02*
D03*
X349000D02*
D03*
X537750Y280000D02*
D03*
X543250D02*
D03*
Y285500D02*
D03*
X537750D02*
D03*
D63*
X615275Y163800D02*
D03*
X589875D02*
D03*
X564475D02*
D03*
X539075D02*
D03*
X513675D02*
D03*
X488275D02*
D03*
X462875D02*
D03*
X437475D02*
D03*
X412075D02*
D03*
X386675D02*
D03*
X361275D02*
D03*
X335875D02*
D03*
X310475D02*
D03*
X285075D02*
D03*
X259675D02*
D03*
Y316200D02*
D03*
X285075D02*
D03*
X310475D02*
D03*
X335875D02*
D03*
X361275D02*
D03*
X386675D02*
D03*
X412075D02*
D03*
X437475D02*
D03*
X462875D02*
D03*
X488275D02*
D03*
X513675D02*
D03*
X539075D02*
D03*
X564475D02*
D03*
X589875D02*
D03*
D64*
X615275D02*
D03*
D65*
X450150Y280500D02*
D03*
X460310Y204300D02*
D03*
X439990D02*
D03*
D66*
X234270Y316200D02*
D03*
X640680D02*
D03*
Y163800D02*
D03*
X234270D02*
D03*
M02*
