M48
;Layer_Color=9474304
;FILE_FORMAT=4:4
METRIC,LZ
;TYPE=PLATED
T02F00S00C0.2540
;TYPE=NON_PLATED
%
T02
X00146319Y00290546
X00148465Y00313527
X00193996Y00316342
X00198852Y003087
X00194338Y0030375
X0020775Y00304204
X00202802Y00294042
X00214834Y00290223
X0022Y00294704
X00226491Y00295781
X00226722Y00287512
X00221756Y00281244
X00207323Y0028001
X0019751Y0027785
X002365Y002778
Y002843
X00233219Y00298296
X00239362Y00301218
X00246764Y00308958
X00254895Y00313249
X00255539Y003198
X00243512Y00323719
X00244417Y0033252
X00232679Y00324686
X00224156Y00331818
X00219576Y00339215
X00212166Y00331572
X00207883Y00319723
X00220793Y00306673
X00246485Y00292604
X00252635Y00269884
X00239262Y00263571
X00228868Y00261046
X0022715Y00267398
X00228544Y00245057
X00235087Y0024575
X00240858Y00248912
X00264479Y00310392
X00233361Y00371
X00212686Y00366977
X00204948Y0037858
X00198379Y0037819
X00193583Y00382695
X00188424Y00378572
X00181856Y00378968
X00177628Y00373923
X001834Y00363658
M30
