M48
;Layer_Color=9474304
;FILE_FORMAT=4:4
METRIC,LZ
;TYPE=PLATED
T02F00S00C0.2540
T04F00S00C1.0160
;TYPE=NON_PLATED
T05F00S00C0.9000
T06F00S00C1.0000
T07F00S00C3.2000
%
T02
X0093599Y0001778
X00964946
X0097028Y00036068
X0095504Y00046736
X0094165Y000424
X00946273Y00087191
X00935736Y00112257
X009475Y00130077
X00936044Y00155674
X00971589
X00991
X00979932Y00170147
X00993Y001305
X00975096Y00111871
X01016278
X01031893Y001245
X01051105Y00133056
X01069Y00129
X01083Y0012425
X0108465Y00146619
X01069Y00152
X01051299Y00165557
X0108425Y00169
X0107Y001105
X0105775Y0009775
X01043178Y0010033
X0105175Y0007575
X01051904Y0005025
X0105175Y0002875
X010465Y0001175
X01018032Y00017018
X00995Y0001125
X00995808Y00028866
X00995172Y00060452
X0098225Y0005775
X0096975Y00064
X00995131Y000889
X01025Y0008475
X01017Y0007125
X01020248Y00144298
X00919206Y00133056
X0090575Y001425
X0090375Y0010975
X00879057Y00086871
X00897Y000625
X008585Y0006325
X00844804Y00047752
X0083045Y000424
X00839707Y000295
X0085344Y00018034
X008615Y000105
X00894Y0001
X00905256Y0001778
X00877824Y00028194
X00875284Y00042672
X00919734Y0004318
X00817118Y00032766
X00815398Y0001687
X0082775Y00011
X0080516Y00052241
X00791791Y0005435
X00793Y00066548
Y00076683
X00782Y00069
X0078516Y00042077
X00764325Y00041673
X00746163Y00041778
X0074016Y00053241
X00722791Y0005493
X00727774Y00043619
X00721918Y0003302
X00711Y000335
X00701548Y0003993
X00701937Y00047396
X0069175Y00039974
X00683347Y00042077
X0068368Y00026164
X0068175Y000115
X0069175Y00016
X00701548Y00016002
X00713232Y00011176
X006625Y00012
X0066294Y00026164
X0065294Y00018702
X00634073Y00016
X00623964
X00626451Y00039926
X0061537Y00036448
X00608497Y0004433
X006017Y00038052
X0059944Y00049276
X00593344Y00068072
X00575056Y0006985
X0056388Y00050292
X00562102Y00036322
X00574155Y00031924
X00590663Y0003144
X00583Y00010116
X005525Y0001075
X0054203Y00038285
X00546308Y00060764
X00543724Y00109211
X00571146Y0010946
X00574835Y00124934
X0057775Y00142518
X00574835Y00152255
X00569281Y00148727
X005635Y00152264
X0059675Y00161
X00632709Y00146674
X0064904Y00146
X006545Y00152264
X0064936Y00158361
X006685Y00157607
X006775Y001585
X0067675Y00169919
X00694244Y00152264
X00710185Y0016222
X00717148Y00160758
X00733505Y00154068
X00745375Y00160758
X00755239Y00162463
X00777341Y001624
X0077741Y00123952
X00768165Y00123571
X00752773Y00124185
X00741273Y00120392
X0074422Y00110295
X00752729Y00104419
X00762Y00104569
X00779878Y001035
X007905Y00111871
X007985Y0012275
X008195Y0012125
X00826106Y0011225
X00815928Y00104419
X0081725Y0009475
X0080375Y00092331
X0082425Y000855
X008165Y00073
X00769937Y00092556
X0075275Y00066548
X0071602Y00074481
X00700792Y00074045
X00690279Y0008643
X00672528Y00082315
X00663137Y00073301
X00642835Y0007294
X0062992Y00076814
X00631419Y00102929
X0062068Y00113066
X0059559Y001035
X00589352Y00092331
X00646826Y00089
X00653392Y0009546
X00662303Y00104419
X0067775Y00102
X006731Y00119328
X006635Y00124807
X0065412Y00119569
X00692774Y0012425
X00714984Y00124973
X00723184Y0010975
X00705309Y001016
X0068199Y00060554
X00662822Y0005025
X00639Y000508
X00643Y00032491
X008195Y00162335
X00853704Y00162439
X0088011Y00162172
X00860556Y00122152
X005315Y0012532
X0051575Y0012885
X0051025Y0012425
X00512119Y00091944
X00530387Y00076248
X005334Y000381
X005207
X00508
X004953
X004826
X004699
X004572
X004445
X004318
X004191
X00406384Y00038052
X003965Y000505
X0037925Y000555
X00396Y000725
X0042146Y00065669
X0041375Y0008936
X004105Y00101854
X0042775Y00103645
X00416977Y00121666
X00411491Y00128389
X00416977Y0013461
X00411983Y00140881
X00416977Y00147066
X004154Y0015825
X0040125Y0016175
X00385924Y00163076
X0039275Y00138489
X003793Y00134363
X00364072Y00152035
X00350927Y00142518
X003435Y00145
X00330277Y0014475
X00338208Y0012827
X003494Y00127329
X00356179Y0010706
X003435Y00101702
X00337436Y00109764
X00327754Y00102362
X00320362Y000862
X00295413Y00086734
X003048Y0006858
X003302
X0035627Y00069436
X00377953Y00089529
X003937Y00028
X00417Y0000925
X00367
X0033025Y000085
X0030475
X003048Y0003806
X00292703Y00028377
X0029208Y0005
X00279401Y0003806
X00267052Y00027074
X0026475Y000115
X00241046Y0001431
X00242533Y00042551
X00254Y00038432
X0026691Y00049913
X00262774Y00097155
X00280832Y00105854
X00275932Y00110854
X00277432Y0012257
X0028387Y0012065
X0028887Y00134858
X00296509Y00135454
X00277578Y00136686
X00267974Y00136871
X002585Y00147256
X00246436Y00141334
X00237844Y0015556
X0024192Y0016891
X00218655Y00167657
X00188761Y00165787
X0017575Y00150138
X00193266Y00140952
X00202846Y00150463
X0020175Y00128391
X00199612Y00112768
X00217761Y00115134
X002245Y00108915
X00239299Y0011557
X00251924Y0011625
X0023375Y00081584
X00222249Y00081435
X002159Y000762
X0021275Y00096774
X00185275Y00099297
X0017225
X00155281Y00095872
X00142897Y00095854
X00142243Y00084984
X0015501Y00074295
X001778Y000762
X0016775Y00045122
X00190146
X0021629Y00040546
X0019075Y0000975
X00153829Y00034296
X0014675Y0005125
X00159758Y00118756
X0018675Y00121666
X00214536Y00136686
X00267052Y00162613
X00277485
X00278932Y0015572
X00282837Y00150138
X00277326Y00170987
X00308585Y00168473
X00319505Y00164107
X00346226Y00163097
X00316458Y00130177
X00309454Y00127616
X00317654Y0005275
X003302Y0003806
X00342283Y00027948
X004685Y000095
X00518Y000105
X0049875Y000625
X0048775Y0007275
X004745Y0010125
X00457962Y00120904
X004542Y00138647
X00450716Y00166983
X00489186Y0014878
X00499049Y00156515
X00448Y00079891
X00137358Y000665
X00130275Y00066595
X00119703Y00070306
X00107223Y00070638
X00105435Y000605
X00109555Y0004445
X0010025Y00026274
X00086399Y00019926
X000877Y00011541
X0010795Y0001143
X00133822Y0000964
X00136416Y00024016
X00056134Y00017272
X0006073Y00046654
X0005975Y0008725
X00047067Y00075
X000474Y0010827
X00057912Y00128778
X00072113Y00131303
X00102149Y00133924
X00084789Y0015494
X00111935Y00163811
X00134097Y00117675
X00108308Y00096291
X0009054Y00091135
X00083121Y00102645
X00089109Y0006731
X00011176Y00073152
X00010922Y00033782
X00028448Y00009906
X000127Y0011684
X000095Y0016
X00047899Y00169244
X00051117Y00178308
X00070421Y0018325
X00075517Y001875
X00067284Y00209351
X00053252Y00212694
X00030422Y00214296
X000313Y00226868
X00037146Y00248696
X00018181Y002478
X0000889Y0023622
X00053126Y00242815
X00070866Y00245872
X00065082Y00263262
X00079565Y00261112
X00082359Y0028829
X00065341Y00280924
X00057179Y002735
X00041503
X00041836Y0029675
X0004168Y0031242
X00039624Y00337312
X00042227Y00351619
X00026928Y0034575
X00018854Y0033975
X00013716Y0035941
X00054816Y00367328
X00071727Y00381128
Y00389128
X00072086Y00401828
X0008636Y00419458
X00075901Y00430772
X00076681Y0044489
X00072517Y00457174
X0007575Y0047333
X00057404Y0048006
X00047498Y00459486
X00054Y00437
X00033Y00435433
Y00421928
X00039116Y00407924
X00035378Y00387408
X00094098Y00384278
X00095284Y003911
X0010175Y004055
X00111404Y00418386
X00101995Y0043375
X00124251Y00441342
X00117283Y00467258
X00107348Y00475
X00099147Y00462024
X0008925Y004545
X001345Y004695
X0012446Y00508
X0013716Y005207
X0012446Y005334
X0012225Y00548
X0009906Y005334
Y00508
X0011176Y005207
X0008636Y005207
X00070613Y005005
X00076Y005485
X0004875Y0054925
X00007874Y00532638
X0001016Y00502412
X0001143Y00459994
X00011938Y00436372
X00073591Y00354874
X00065087Y0033147
X00088963Y00332994
X00105076Y00351053
X00119021Y00351478
X00134509Y0034539
X00134097Y00320889
X00116072Y00325805
X00111935Y00292284
X00129703Y00293957
X00138974Y00263053
X00116333Y00242774
X00113847Y00224097
X0012725Y00217885
X00114888Y0019225
X00075517Y00220726
X00095539Y00304477
X0011298Y0036814
X000095Y00178
X00148257Y00178009
X0015339Y0020211
X0016386Y00215867
X0016925Y00227553
X00187488Y00224529
X00199889Y00224328
X0019904Y00248702
X00187642Y00254803
X0017148Y00248189
X0016975Y00270247
X0017075Y00281078
X00170052Y00291382
X00168908Y00308712
X00184154Y00312509
X00170814Y00326735
X00171703Y0034761
X00167455Y00363171
X00153374Y00354203
X00143893Y00327974
X00141749Y00276938
X00142897Y002535
X00146165Y00232497
X00178244Y001965
X00179128Y00180948
X001707Y0018575
X00206435Y00187398
X00230044Y00189818
X00239279Y00186977
X002433Y0019052
X00251687
X00266263Y00189009
X00267548Y0019883
X0025975
X00275374Y00198929
X00283986Y00191007
X00289018Y00176432
X00295455Y00174368
X00308718Y00176219
X00317164Y00184768
X0029845Y0019731
X00300014Y0020387
X0031496Y00222687
X00324793Y00232505
X00324088Y0024
X00321661Y00252818
X00338164Y00250086
X00336552Y00235865
X00347045Y00232776
X00361339Y00236522
X00359288Y00223097
X00371264Y00223871
X00381921Y00231227
X00395418Y00230757
X003955Y00221
X00402578Y00221635
X00411983Y0021652
X00424303Y00222066
Y00240757
X00418568Y00244821
X0041177Y00247012
X003955Y00247906
X00382879Y00244409
X0038663Y0025944
X00386723Y00266138
X0039525Y00272778
X00394529Y00280057
X00380098Y00282553
X00366586Y00289639
X00366875Y0029725
X00358394Y00290322
X00358Y00274053
X00365648Y00275221
X0035004Y00275155
X00352151Y00265553
X00357612Y00250053
X00367642Y002585
X00339861Y0028212
X00330257Y00283649
X0033025Y00291553
X00322609Y00299748
X00320743Y00310154
X00340078Y00312812
X00346653Y00312553
X00350031Y0035575
X0037175Y00357
X00389128Y00345006
X00384636Y00325503
X00386081Y0030464
X00390695Y00299255
X00398728Y00305448
X0041275Y00318176
Y00325289
X00420722Y00311641
X00432307Y00310738
X00440367Y00310994
X0044704Y00303808
Y0029718
X0045339Y00291176
X00440367Y00285421
X00436692Y00251614
X00448411Y00238901
X00465229Y00224301
X0048991Y00220298
X00490732Y00238565
X00489457Y0024575
X00494796Y00251695
X00501793Y00252468
X00502524Y00262263
X00499598Y00268539
X00486259Y00268154
X00487172Y0028321
X00482672Y00289129
X00472601Y00293861
X00473068Y00300532
X00472601Y0030861
X004662Y00327974
X004575Y0032815
X00452Y00320946
X00446291Y00325114
X00442455Y0034175
X00434883Y00348688
X00426554Y00348639
X00411184Y00354465
X00405437Y00360187
X00394759Y00388191
X00407728Y00407673
X00401173Y00425713
X0040386Y00438404
X00381216Y00432632
X00375879Y00437165
X00352953Y00434702
X00330018Y00434552
X0030299Y00434702
Y00461064
X0032196Y0047325
X003165Y00478869
X00286595Y0047733
X0027575Y004675
X00260422Y0046375
X0024576Y004695
X00246658Y00439552
X00246507Y00419
X00229402Y00416493
X00225788Y00391686
X00248012Y00396555
X00254803
X00252329Y0038318
X00259298Y00383031
X0026575Y00380201
X0027325Y0037756
X00278191Y00351622
X00290273Y00345053
X0029675Y00350242
X00309321Y003544
X003105Y003625
X0032625Y00351672
X00320831Y00344486
X00327234Y00373042
X00331558Y0038864
X00340087Y0038886
X0032925Y00404
X00352953Y00403477
X0037846Y0040875
X00426554Y00421224
X00432562Y0041594
X00434398Y00429133
X004445Y00438404
X004505Y00434552
X00459036Y00433005
X00469572Y00428052
X0047725Y004228
X00491Y0042175
X0049675Y00416806
X00501Y00438404
X00489774Y0043592
X00484528Y0044075
X0047725
X00479726Y00450354
X0047225Y00448948
X00475694Y00484206
X00497194Y00483365
X004953Y00508
X00508Y005207
X004953Y005334
X00495Y0054775
X0047Y0054725
X004699Y005334
Y00508
X004826Y005207
X004572
X004445Y00508
X004191
X00425676Y00490307
X00394337Y00490428
X003937Y00508
X004064Y005207
X003937Y005334
X0039275Y00547
X004195Y0054725
X004191Y005334
X004318Y005207
X004445Y005334
X00452434Y00485046
X00421965Y0046125
X00391694Y00464041
X00367493Y00463117
X00368725Y00489952
X003683Y00508
X00381Y005207
X003683Y005334
X0036525Y005465
X003556Y005207
X0033655Y005334
X0032475Y005465
X0030226Y005334
X0031496Y005207
X0030226Y00508
X0027686
X0028956Y005207
X0027686Y005334
X002795Y005475
X0024875Y0054675
X0025146Y005334
X0026416Y005207
X0025146Y00508
X0022606
X0023876Y005207
X0022606Y005334
X0020066
X002015Y0054725
X001725
X0017526Y005334
Y00508
X0018796Y005207
X0020066Y00508
X0021336Y005207
X0016256Y005207
X0014986Y00508
Y005334
X001475Y0046175
X0014986Y00441924
X00174674Y00464982
X00184Y00483
X0020625Y00467258
X0021537Y004635
X00200525Y00416493
X0017525
X00174907Y00387145
X00213761Y00347649
X00277485Y00313042
X00285184Y003054
X00291879Y00294972
X00295413Y002815
X00296798Y00274952
X00295419Y00268508
X00296988Y00262118
X0029675Y00255203
X00288322Y00256624
X00279753Y00266765
X00271381Y0028212
X00266854Y00247083
X00295537Y00242784
X00280631Y00223697
X00331346Y002115
X00351507Y00208165
X0036111Y0019685
X00370159Y00198364
X00381757Y00190387
X0039525Y00201728
X00428839Y0020675
X0045525Y0020525
X0045289Y00190982
X00465995Y0019092
X00484703Y0019712
X0051417Y00196038
X00513197Y00213785
X005315Y00191007
X00531231Y00172528
X00519039Y00172655
X0049875Y00172235
X00439541Y00185952
X00417085Y00176565
X00366249Y00172779
X00349754Y00173094
X00342999Y00173025
X00411951Y00274585
X00467993Y00267708
X00478479Y00251614
X00512245Y00256053
X00503776Y00340789
X005068Y00346767
X004935Y00343952
X00486258Y00343965
X00480198Y0033772
X0049375Y0033666
X00473826Y00347795
X00482656Y00367797
X00496723Y00382649
X00464366Y00387541
X00437403Y00388191
X004505Y00368524
X00457962Y00415
X00510755Y00430266
X00519724Y00455302
X0052517Y00460052
X0053125Y00463076
X005205Y0046625
X005207Y00508
X005334Y005207
X005207Y005334
X0033655Y00508
X0031473Y00419
X00302524Y00408603
X00294802Y00389462
X00313381Y0038864
X00296509Y00312912
X0021577Y00249556
X00218403Y00234884
X0056106Y00235835
X0057103Y00220425
X00549218Y00219424
X0054975Y001907
Y0017275
X00538422
X00569365Y00181096
X00569174Y00188078
Y00195565
X00577258Y0020264
X00587029Y0019451
X00585763Y0018768
X00579528Y00184259
X00584953Y0024464
X0056942Y0025652
X00549474Y0025552
X0056957Y00304816
X0058081Y00352104
X00585518Y00356701
X0058248Y00362538
X00584411Y0037215
X0058623Y00378792
Y00385965
X005865Y0039325
X00586563Y00405
X005865Y00436846
X00611448Y00437165
X0061678Y00433021
X00629666Y00434552
X00632978Y00426538
X00625373Y00419945
X0063961Y00409
X00661067Y00408639
X00657398Y00395255
X00680572Y00397506
X0070202Y00397798
X0069541Y0040668
X00686805Y00414849
X00673458Y00419431
X0068025Y00430552
X00655318Y00433995
X00655963Y00481483
X00641333
X00621Y004855
X00623062Y00506222
X00647192Y00506984
X00635Y005207
X006223Y005334
X005969
X005995Y0054725
X0057325Y00547
X005435Y0054625
X0055675Y005075
X005645Y0048625
X00596646Y00503936
X005842Y005207
X006096Y005207
X006604
X006477Y005334
X0064475Y005475
X00673Y0054775
X006731Y005334
X006858Y005207
X007112Y005207
X00720598Y00506222
X00698754Y0050419
X00696214Y0049149
X0070202Y0048166
X00711822Y0048826
X007181Y00482103
X007386Y00481483
X00752401Y00489659
X00773888Y00481483
X0079475Y0048125
X00795131Y00488638
X00791325Y0049929
X0082475Y0051275
X00851959Y00513197
X00852925Y00495046
X00842701
X00864616Y004953
X00851959Y00471743
X00843552Y0046971
X00842701Y00449715
X00842483Y00442852
X00853704Y00442485
X0086396Y00441766
X00858629Y00420052
X00857346Y00405534
X00846887Y0040452
X00842058Y0039173
X00851837Y00391406
X00864897Y00393679
X00866223Y003799
X0088051Y0037825
X00896596Y0038144
X00900291Y00388419
X00899504Y00395164
X00908888Y0038606
X00908944Y00368543
X00925794Y00374975
X009295Y0038175
X00917027Y00409222
X00927802Y00423283
X00933066Y0042752
X00923462Y00430022
X00932604Y00441
X00934642Y00462301
X00929189Y00474881
X00926473Y0049459
X00925576Y00505968
X00922663Y005145
X00918337Y00532348
X00925322Y00539949
X00906Y0054925
X0088225Y005465
X00868659Y0052931
X00840345Y00530416
X00849Y0054675
X008175
X007835Y0054725
X0075125Y00548
X007493Y005334
X0074947Y00516608
X00762Y005207
X007366
X007239Y005334
X006985
X007015Y0054775
X00674Y00501853
X006786Y0048166
X00721424Y00434671
X00730483Y00418029
X00746986Y00421004
X0075035Y00405534
X00750214Y0038956
X00759427Y00398034
X00781737Y0039755
X00803185Y00400168
X00804759Y00393608
X00807631Y00386898
X0081133Y00403574
X00823614Y00382194
X00833501Y00378
X00833882Y00352552
X008195Y00354731
X00798289Y00363768
X00787966Y00350542
X00787733Y00335893
X0081075Y00331106
X0084075Y00333694
X00851861Y0033946
X00851789Y00351767
X00865Y00351866
X00864876Y00343027
X0086542Y00317756
X00859899Y00312822
X0085475Y00317353
X00851789Y00323518
X00841556Y00317353
X0083185Y00307919
X00841877Y00295001
X0084139Y00286519
X00840639Y0026798
X00842058Y0025185
X0083825Y00241924
X00839145Y0022862
X00842854Y00208371
X00850791Y0020351
X0085598Y00217094
X00865107Y00218677
X00863896Y002324
Y0025735
X00863648Y0026394
X00871675Y00252081
X00879064Y0027678
X00863896Y00291294
X00852174Y00295244
X00809174Y00276
X0080966Y00251044
X0081191Y0022862
X00809174Y00206905
X00786406Y00208209
X00776314Y0020776
X00781737Y00199533
X00791539Y0019976
X0079591Y001945
X00792539Y00187849
X00798577Y00184523
X00804485Y00181628
X00786737Y00182364
X00764713Y00183161
X00753331Y00185171
X00746163Y00182564
X00746986Y00193
X00748228Y0019976
X00741786Y0020776
X00749931Y00213462
X00756537Y0021351
X00762749Y00216324
X00775616Y00222264
X0076915Y00234202
X00766837Y00246726
X00752401Y00226302
X00741273Y00234202
X00728557Y00238498
X00722556Y00222879
X00724993Y00214261
X00717067Y00214282
X00696666Y00217932
X00699659Y00237433
X00690107Y00252056
X0066839Y00255774
X00668105Y00248296
X0064904Y0025411
X00639834Y00269753
X00634144Y0026545
X00627138Y00264246
Y00231128
X0062894Y00207162
X0064262Y002159
X00653144Y00213
X0065786Y00200569
X00664299Y00202781
X006825Y00200569
X0070575Y00192259
X00713113Y00182345
X00719822Y00185577
X0073275Y0018325
X00736246Y00219964
X00727834Y00287226
X00728553Y0030194
X00740966Y00299491
X00754491Y0029635
X00753921Y00282653
X00776543Y00277076
X00783628Y0027455
X0071374Y0027686
X0070866Y0028235
X00700731Y00274259
X00693756Y00305153
X00717388Y00307423
X00716662Y00319489
X00717759Y00332509
X00736674Y00333652
X00736598Y00344053
X00730064Y00355678
X00702599Y00358116
X0069302Y00364424
X00683018Y00362463
X006918Y00347499
X00697797Y00341036
Y00333175
X00679535Y00319387
X0066882Y00308081
X00654777Y00293104
X00644113Y00323608
X0064339Y00330436
X00622579Y00329667
X00625215Y00362564
X00608852Y00374897
X0062625Y00394229
X0065679Y00360096
X00730483Y00392532
X007215Y00406114
X00761532Y00434598
X00768425Y00435068
X00788609Y00452901
X00803004Y00445512
X00842483Y00418879
X00897589Y00422523
X00906615Y00448279
X0089822Y00469052
X0090375Y00523613
X00908922Y00337685
X00921146Y00339749
X00929051Y00321179
X00920525Y0031325
X00917653Y00292
X00919747Y00277959
X00913716Y00274913
X00917027Y00248666
X00914339Y00233026
X0091672Y0021775
X0092468Y00209644
X00929795Y00223261
X0089753Y00231241
X00893911Y002159
X00888354Y00181628
X00896283Y00260497
X00897816Y00326437
X00903012Y0032124
X00851789Y00368524
X00772312Y00363716
X0076519Y00345486
X00656305Y00234645
X00539733Y00351799
X00539076Y00386936
X00563215Y00391864
X00547774Y00412668
X00539076Y0042967
X00558314Y00434102
X00542978Y0045499
X00937796Y00436521
X00952547Y00430419
X00958Y00449
X00951349Y004633
X00953444Y00491355
X00934789Y00495554
X009524Y00516608
X00967486Y00512508
X0098207Y00516
X01011258
X0101725Y005315
X010095Y00541
X010135Y0054975
X01031
X010465Y005455
X0104925Y0052425
X0105113Y00507026
Y00489754
X01034207Y00489585
X01042162Y00478536
X01051Y00462
X01042162Y0044323
X0104775Y00432308
X01030371Y00433743
X01008888Y00428752
Y00420878
X009999Y00413741
X01000094Y00390371
X00988881Y00395831
X00984837Y00401578
X00948263Y00388506
X0094577Y00382271
X009365Y003845
X0093544Y00364808
X00958636Y00368921
X00973782Y00354544
X00990729Y00337166
X01007274Y00324904
X01002472Y00315494
X01036145Y00321
X01043178Y00320653
X01044939Y0032825
Y00340652
X0103632Y00332995
X0103738Y00349613
X0104246Y00363522
X010285Y0036475
X0102997Y00380019
X01014371Y0037575
X010385Y00393982
X0105275Y00407564
X01063Y00417
X010685Y00394137
X0108175Y00398723
X01077Y003795
X0108325Y003675
X01083Y0034975
X01068Y0035275
X010685Y00364229
X0106375Y003374
X0106925Y0032603
X0106277Y00318273
X01069651Y00311705
X010835Y0031175
X0107775Y003043
X010615Y0030425
X01053962Y00275313
X01053861Y00267683
Y00253106
Y0024569
X01046301Y00247762
X01039801Y00244762
X01034038Y00248666
X01034132Y00256782
Y0026564
X01026973Y0026559
X01027036Y0025485
X01028981Y00244457
X01017Y0024635
X01009799Y00248666
X01004549Y00244397
X00997452
X00988994Y00244517
X00982966Y00251802
X00982625Y0025875
X0098426Y00274913
X00991386Y00276
X009989Y0027275
X01008859Y00274913
X01015657
X01022658
X01032764Y00275298
X01043Y0027375
X01014Y00260565
X0100425
X00977694Y002406
X00972763Y00235077
X00942306Y0023613
X0093964Y00226098
X00946296Y00226261
X00949376Y00216434
X00954628Y00211181
X00943046Y00203478
X0093971Y001726
X0095765Y0017865
X0096565Y00173802
X00973046Y00173445
X00987427Y00180357
X00995131Y00180414
X00992912Y00190071
X01000094Y0019325
X01007274
X0100425Y00201062
X00998549Y0020451
X01026121Y002045
X01031907Y001905
X01020073Y00190524
X01019307Y00175489
X01036145Y00179864
X010545Y00190345
X01053861Y00201646
X0105365Y00208977
X0104725Y0020875
X0106175Y00216295
X0106965Y00208977
X0108425Y00209
X0107775Y00216492
X01071Y00190971
X0108425Y0018713
X01068Y00173369
X0098225Y00190071
X0094913Y00248623
X00942099
X00948741Y00260985
X00949403Y00283441
X00948263Y00294239
X00948407Y00304202
X0095468Y00310272
X00964136Y0031075
X0096625Y00319104
X009605Y003275
X00951362Y00330081
X00942364Y00324352
X00973046Y00286021
X00980298Y00285764
X0108375Y0032925
X01003808Y00434086
X01002538Y00441706
Y00459865
X010075Y0048525
X00981526Y004872
X00967486Y00534162
X00967804Y0054893
X0093875Y00532
X00999386Y00532186
X0103Y00519
T04
X00015748Y00195326
Y00220726
T05
X0016527Y0003335
X0008527Y0003335
T06
X00419862Y003908
Y0041112
X00496062Y0040096
T07
X005588Y000889
X000381Y000381
X000508Y005207
X005588Y003683
X008001Y005207
M30
