M48
;Layer_Color=9474304
;FILE_FORMAT=4:4
METRIC,LZ
;TYPE=PLATED
T01F00S00C0.2000
;TYPE=NON_PLATED
%
T01
X0012Y0038975
X00124251
X00178831Y00392238
X00200613Y00392224
X00206937Y00392226
X00212964Y00392226
X00218464Y00392224
X0023807Y00390571
X0024273Y00369876
X00210082Y00370944
X00205488Y00373968
X00199988
X00194256Y00373777
X00188768Y00373415
X00183678Y0037133
X00180042Y00367203
X0018975Y00358519
X00191909Y00335426
X00201354Y00319253
X0021037Y00325805
X00207682Y00349553
X00223628
X00225245Y00341298
X00228027Y00336553
X00233513Y00335763
X00239515Y00333947
X00249016Y00328091
X00231513Y00315789
X00227069Y00303341
X0024665Y00269073
X00241038Y00244262
X00244885Y00240332
X0023634Y00235736
X00231547Y00235561
X00228555Y00238553
X0023634Y0021922
Y00214797
X00257628Y00226871
X00259993Y0023247
X00265029Y00221799
X00304551Y00227152
X00323707Y002115
X00332328Y00367867
X00268744Y00419003
X00257827Y00438741
X00239124Y00439927
X00234421Y00420892
X00284684Y00438741
M30
