M48
;Layer_Color=9474304
;FILE_FORMAT=4:4
METRIC,LZ
;TYPE=PLATED
T01F00S00C0.2000
;TYPE=NON_PLATED
%
T01
X00141763Y00290572
X00143909Y00313553
X00176017Y00308404
X0018175Y00304677
X00186669Y00300083
X001905Y0030675
X00194822Y00310359
X00194193Y00320579
X00203003Y00324514
X00214632Y00325503
X00223156Y00324686
X00227875Y00328346
X00229944Y0033403
X00235684Y00333844
X00244208Y00336582
X00251595Y00331914
X00247232Y00326401
X0024625Y0031355
X0023975
X00233511Y00313515
X0023325Y0030705
X0023975
X0024625Y0030055
X0025275
X0025925
Y0030705
X0025275
X0025925Y0031355
X00262252Y00324067
X00266837Y00328269
X0027Y00316797
X00269676Y00310454
X00269865Y00303707
Y00297207
Y00290707
X0025925Y0028755
Y0029405
X0025275
X0023975
Y0028755
Y0028105
X0023325
Y00287529
X0022675Y0028105
X00213791
X0022025Y0028755
Y0030055
X00226294Y00300753
X0022675Y0030705
Y0031355
X00219786Y00313364
X0021375Y00313394
Y0030705
Y00300553
Y0029405
X0020725
X00207247Y0028759
X0020075Y00281053
X00191766Y0028007
X00195389Y0028575
X00194009Y00296684
X00183Y0028073
X00179Y0027262
X00175881Y00286588
X00195532Y00268778
X0023325Y00268043
Y00261543
Y00255043
X00234846Y00241233
X00229397Y00240485
X00240987Y00244457
X00243511Y00237178
X00248623Y00223847
X0023575Y00223456
X00254Y00249802
X0025925Y00261543
X0025275Y0027454
X0023975Y00268043
X00266854Y00240178
X0028991Y00233479
X00289808Y00227553
X00298623
X00298725Y00233291
X0031213Y0021313
X00321808Y00211158
X00338208Y00210655
X00336824Y00172592
X00322609Y00181096
X00285413Y00320065
X00281697Y00335763
X0029675Y00332047
X00245632Y00351897
X00234724Y00345668
X00218894Y0034375
X00208709Y00344339
X00203186Y00345138
X0020708Y00339086
X0020725Y00313553
X00233219Y00320053
X0023825Y00369453
X00237276Y00377284
X00234846Y00386445
X00218655Y00383515
X00210342Y00375206
X0020825Y00367553
X00203251Y0037013
X0019825Y00367553
X00193248Y00370209
X0018825Y00367553
X00183249Y00370123
X0017825Y00367297
X0017325Y00369762
X00185233Y00385412
X00248109Y00374801
M30
