M48
;Layer_Color=9474304
;FILE_FORMAT=4:4
METRIC,LZ
;TYPE=PLATED
T01F00S00C0.2500
T03F00S00C1.0000
T04F00S00C1.0160
T05F00S00C3.0000
;TYPE=NON_PLATED
T06F00S00C0.6500
%
T01
X0002032Y0002032
X0005588Y000254
X000762
Y000508
X001016
X00127
X001524
Y000762
X00127
Y001016
X0009652
X00107Y001187
Y00144017
Y00169417
X0011684Y0016764
X0009144Y0015748
Y0013208
X00125984
X001524Y001397
Y0016256
X001778Y001524
Y00127
Y001016
X00178308Y00082296
X001778Y000635
Y000254
X001524
X00127
X001016
Y000762
X00053594Y00085852
X0006604Y001016
X0004064
X0001524
X00025146Y00085598
X0001524Y0013208
Y0015748
X0005588
X00053Y00169417
Y00144017
X0005588Y0013208
X00053Y001187
X001524Y001143
X002032
Y001397
Y0016764
X002286Y001524
Y00127
Y001016
X00254Y001143
Y001397
X0025273Y0016764
X002794Y001524
Y00127
Y001016
X003048Y001143
X003302
X00351282Y00121158
X00350012Y00101092
X0036449
X0036576Y001143
X00376428Y00106172
X0039116Y0011684
X0039878Y00125222
X0039751Y00141986
X00410718Y00142748
X004064Y001524
X00405892Y00170688
X0039624Y0016256
X00382016Y00164084
X0038608Y0014732
Y0013462
X00364236Y0013208
X003683Y0014478
X00363474Y00156972
X003556Y0016764
X0033274Y00164846
X003048Y0016637
Y001397
X00322072Y00145542
X003429Y001397
X0033782Y00088392
X00343662Y00083566
X00352044Y0008763
X00356158Y0008295
X00382524Y00084074
X0038862Y0009144
X00407162Y00089916
X00411226Y00095758
X0041529Y00084074
X0043815Y00085598
Y00094234
X00435356Y00075692
X0044196Y0006604
X004572
X00456946Y00051054
X00464058Y000508
X0044196
Y0003556
Y0002032
X0047752Y0001524
X0049276
X0051308
X0054356Y000254
Y0004064
X0055372Y0004572
X0056388Y0004064
Y0005588
X0055372Y0006604
X0053848
Y0008128
X00543306Y00092964
X00558546
X005588Y0008128
X00573786Y00092964
X0058166Y00112776
X0056896Y00117348
X00561848Y00123698
X0055499Y00131064
X0054229Y0013208
X00543306Y00143764
X00548894
X00548386Y00155448
X00532638Y0014986
X00534162Y00163068
X00535178Y00171704
X00520446Y00162052
X00517398Y00144018
X00517906Y00134112
X00498856Y0014224
X0047752Y00137922
X00475488Y0011938
X00470916Y00115316
X00459232Y00096266
X00462026Y00084074
X0045085Y00078486
X00473964Y00076708
Y0006858
X00475488Y000889
X0049276Y0008636
X00522224Y00080772
X0052324Y0006604
X00522224Y000508
X00530352Y00051308
X00528066Y00092964
X005334Y0011176
X0055372
X00574548Y00135636
X0057686Y001458
X0056797Y00145796
X0058293Y00130302
X00481584Y00155194
Y00162306
X00481838Y00170942
X00455676Y00144018
X00446278Y00145034
X00440436Y00154432
X00429568Y00154994
X00431346Y00148136
X00442722Y00128778
X00418338Y00122428
Y0011557
X00377698Y00063754
X003175Y000762
X003048Y000889
Y000508
X0031496
X003048Y000254
X002794
X00254
Y000508
X002794Y000635
X00254Y000889
X002286Y000635
X002032Y000508
Y000254
X002286
X002032Y000889
X005588Y000254
X00584962Y00085852
Y00092202
X00594868Y0009144
Y00085344
X0059309Y0011303
X00604774Y00113284
X0061722Y00108204
X00631444Y00106934
X00637286Y00101092
X00651764Y00095504
X006477Y0009017
X00653542Y00083566
X006731Y00077724
X00672846Y00069342
X00673354Y0005461
X0068453Y0005207
X00689864Y00047498
X00696214
X00699262Y00037846
X00719383Y00037842
X007366Y000254
X0074676Y00035306
X00770382Y00036576
X00788162Y00023114
X008128Y000254
X0080518Y00037592
X00823468Y00037846
X0083312Y0004572
X0083439Y00029464
X00839216Y0005715
X0085852Y0005588
Y0004064
X00869696Y00037592
X0088646Y000381
X00889762Y00048768
X00903986Y00054356
X00910501Y00041154
X00926338Y000381
X00928116Y00054864
X009144Y0006604
X0089154Y00068072
Y00078232
X00879094Y00090678
X0088138Y00118618
X00886968
X0089292Y00118783
X00893572Y00133858
X0089292Y00144183
X0088646Y0014418
X00882142Y00133858
X00865124Y00135636
X00862076Y0014097
X00868426
X0083693Y00142494
X0083312Y0013081
X00838708Y00113538
X00817626Y00119634
X00788179Y0011519
X00781321
X00774717
X00774446Y00129794
X00764286Y0012954
X00745857Y00115452
X00748929Y00076031
X00734935Y00076202
X00761746Y0008509
X00769366
X0077724
X00786892Y00077978
X00794512
X00801116
X00823722Y00079756
X0086487Y00068072
X008636Y000254
X00875792Y00018288
X009144Y000254
X009398
X0097536
X009652Y0009144
Y0010668
X00947928Y00118618
X0095123Y00131826
X00946815Y00144183
X00959612Y00156718
X0094666Y00169583
X0089292
X00858012Y00169164
X008382Y0017018
X0082931
X00820126Y00170057
X00800862Y00149352
X00759714Y00171958
X00752602
X00725678Y00169418
X00717042
X00724408Y00153416
X00677672Y00156718
Y00146812
X00682498Y00135636
X0066421Y00131826
X00643382Y00128778
X00634828Y00134101
X00643128Y00146812
X00650748Y00154686
X0062992Y0015748
X006223Y0014986
X00614172Y00150622
X0060477Y001458
X0059538
X0058674
X0059563Y00130556
X0061019Y00134101
X00613918Y00172212
X0062357Y00174498
X00632714
X0062103Y00165608
X00686562Y00174244
X00680466Y0010541
X0067437Y00111506
X00668528Y00101854
X00662686Y001016
X00698246Y00102108
X00677672Y00037846
X006858Y000254
X00617728Y00063754
X0062357Y00084328
X0092837Y00082042
X0094488Y0009144
X0098552
Y0010668
Y0013208
Y0015748
Y0018288
Y0020828
Y0023368
Y0025908
Y0028448
Y0030988
Y0033528
Y0036068
Y0038608
Y0041148
Y0043688
Y0046228
Y0048768
Y0051308
Y0053848
Y0056388
X0095504
X0094666Y00550583
X0095504Y0053848
X0094666Y00525183
X0095504Y0051308
X0094666Y00499676
X0095511Y00488229
X0094666Y00474383
X0095504Y0046228
X0094666Y00448983
X0095504Y0043688
X00946659Y00423582
X00955123Y0041148
X00946659Y00398182
X0095325Y0038608
X00946659Y00372782
X00953516Y00360426
X00946659Y00347382
X00953235Y0033528
X00946659Y00321982
X00950626Y0030861
X0094666Y00296583
X0095504Y0028448
X0094666Y00271183
X0095504Y0025908
X0094666Y00245783
X0095504Y0023368
X0094666Y00220383
X0095504Y0020828
X00947452Y00194901
X00958342Y00182372
X0093853Y00179832
X00925322Y0020955
X00929386Y00232156
X00915162Y00235712
X0089408Y0023368
X0089292Y00245783
Y00220383
Y00194983
X00887476Y00178816
X008255Y0018669
X00797814Y00189992
X00791972Y00192786
X00785368
X00775462Y0021971
X00798576Y00221488
X00800862Y00261874
X008001Y00283972
X007877Y00303992
X00788416Y0031623
X00784352Y0033782
X0076327Y00336804
X00751332Y00345948
X00758444Y00319278
X00755904Y0030607
X00768858Y00302768
X008131Y00303992
X008385
X008639
X0089292Y00296583
Y00271183
Y00321983
Y00347383
Y00372783
X0089281Y00398018
X0089292Y00424012
X00893826Y00436372
X0089292Y00448983
X00893064Y00474218
X0089292Y00499783
Y00525183
X00893064Y00550418
X00863092Y0053213
X00824992Y00506476
X00798068Y00534162
X007747Y00543306
X00762508Y00537972
X00737616Y00539496
X00709168Y0053848
X00698246Y00550164
X00691642Y00569976
X00685591
X0065532Y0056134
X00646684Y00566928
X006335Y00570738
X00633476Y0053975
Y00532384
X00641604Y0052832
X00633504Y00519684
X00651256Y00520446
X0065278Y0053594
X00645922Y00507238
X0064616Y0047371
X00646159Y00461039
X0064616Y00448327
X0066129Y00443928
X0066129Y00427928
X0065491Y0040853
Y0039553
X00674116Y00395478
X00674272Y0040853
X0067437Y00378714
X00674272Y003717
X00674624Y00358648
X0065491Y003587
Y003717
X00634746Y00367538
X0062738Y0034417
X0062992Y00334772
X00610108Y0032893
X00605176Y00338074
X00615188Y00346964
X00607568Y0036068
X0059436Y00346202
X00588518Y00305816
X0060071Y0030607
X00622452Y00303538
X00652018Y00305308
X00686054Y0030226
X0071139Y0031388
X0071882Y00313944
Y00339852
X00710692
X0070485Y0036703
Y0040386
X00719328Y00427228
X0072644Y004318
X00733806Y00426466
X00751234Y00424786
X0076581Y00410718
Y00400304
X00758854Y00397608
X0075885Y0037297
X0076581Y00378968
X0072925Y0038475
X00698246Y00441706
X00698754Y00454914
X0070612Y00450596
X00680466Y00450088
X00684739Y00440484
Y00431594
X00670712Y00454233
Y00463377
X00674624Y00478282
X0068834Y00470408
X00695198Y00465836
X00699262Y00476758
X00736854Y00468884
X00762762
X00773176Y00456438
X00784098Y00446278
X00797306Y00456692
X00804418Y00451612
X0080137Y0043561
X0081788Y00434594
X00812878Y00417913
X00815Y0041175
X008128Y00405213
X00815Y00399
X008128Y00392513
Y00379813
Y0037211
X0081305Y0036486
X008128Y0035052
X00810514Y00334518
X00845058Y00326136
X008509Y0033782
X00852087Y00346793
X00857504Y0036703
X0085471Y0037973
Y0039243
X00863092Y0040513
X00866394Y0041783
X00859282Y00426212
X00865632Y0044196
X00860806Y00454914
X00852932Y00463296
X0084201Y00463042
X00914146Y00460502
X00912368Y00436372
X00775462Y00480739
X00799846Y0056515
X00811784Y00565658
X0074041Y00571754
X00686054Y00530606
X00631698Y00408178
X00635762Y00402082
X00631444Y00395732
X0060833Y0039751
Y00407416
X00611632Y00270256
X00617728
X00627634Y00277368
X00640588Y00278384
X00634746Y00270002
X0064008Y0025908
Y0024384
X00650959Y00241765
X00657352Y00241808
X00658545Y00227869
X00668807Y00218465
Y00203732
X00667004Y00191516
X00655602Y00207271
X00644652Y00216408
X0063754Y0022479
X00634238Y0023368
X00605314Y00224758
X00606838Y00217646
X00598932Y00207518
X0058928
X00599948Y00196342
Y0018542
X00589026
X00624586Y00194818
X0064008Y001905
X0069723Y00197866
X00716534Y00194818
X00723392Y00194564
X0073152Y0019177
Y00183896
X00750824Y00219456
X0068326Y00236982
X006731Y00245618
X00675132Y00259334
X006604Y0025908
Y00275844
X0060833Y0026035
X005969Y002413
X005842Y00251866
X00834136Y00239522
X0086487Y0023495
X0057023Y0024765
X00566153Y0025324
X0057658Y00254254
X00541274Y00253238
X0054483Y00245872
X00546354Y00236474
X00536956Y00236982
X0052451Y00236728
X0051308Y0023622
X0050165
X0048895
X0047625Y00233934
X004699Y00227076
X00465582Y00245364
X0045466Y0025273
X00444754Y00250698
Y0024257
X00452374Y00236474
X0044704Y00221742
X0044958Y00203708
X0046355Y00204216
X00463804Y00181864
X00481076
X0048768Y0019685
X0049403Y0020574
X0049784Y00219202
X00520954Y00218948
X0052705Y00218694
X00517144Y00205994
X0051816Y00188722
X0052324Y00183388
X0052832Y00196088
X00549942Y00201898
X00550164Y0021082
X0054991Y00219202
X00550164Y00185674
X005588Y0017653
X00539242Y00176022
X00578104Y00185674
X0057785Y00195834
X00581152Y00207264
X0052451Y00249428
X005334Y00260604
X00535432Y002794
X00535686Y00292354
X00532638Y00299212
X00530888Y00306832
X0051308Y0030988
X00520192Y00322834
X00535714Y00325628
X00547398Y00328168
X00545592Y003175
X00556542Y00333502
X0056467Y00330962
X00573278Y00334772
X00581152Y00348234
X0057023Y00357124
X00563476Y00354076
X00547626Y00366012
X00541274Y0034036
X00518414
X00515366Y00354076
X00525018
X00493776Y0035382
X0047498Y00353822
X00479806Y0034036
X00463804Y00341376
X00449326Y00333248
X0043688Y0034036
X00436626Y00326136
X00426466Y00332486
X0041656Y0034036
X00402336Y00333502
X0038608Y0033528
X0039116Y0032004
X0037592Y0032512
X0036576Y0033274
X003683Y0034798
X0035052
X003429Y0033528
X0033528Y0032258
Y0030988
X00336042Y00297688
X00337058Y00282448
X0032385Y00282702
X00316738Y00306832
X00309118Y00311658
X0032004Y0032004
Y0033528
X00300115Y00331112
X0028448Y00334264
X00288544Y00322326
Y00315976
X00275082Y00324104
X00262382Y0033401
X00254508Y00315468
X0024892Y003048
X00237744Y0030607
X0023876Y0031496
X00239268Y00325882
X00208534Y00325374
X00190246Y00324104
X0019939Y00314452
X00199418Y00305816
X0021844Y0031496
X0022352Y0029464
X00225044Y0026289
X0022352Y0023876
Y0021844
X00227838Y0019939
X00228092Y00181102
X00253492
X00252984Y00198628
X00254Y0021844
X0024892Y0023876
X0025019Y00262382
X0027559Y00262128
X0027432Y0023876
X002794Y0021844
X00277114Y0019812
X0029464
X0030988Y002032
Y0018796
X00300482Y00181356
X00278892Y00181102
X0032512Y001778
X003429
X0033782Y0018542
X0033528Y0019812
Y002159
X0032512Y0021844
Y0023368
X0033528Y0023114
Y00240792
X003556Y00240538
Y0023114
X0036604Y00230886
X00379476Y0023495
X0038735Y0023698
X00393192Y00236982
X00389128Y002591
X00381
X00371618Y00259096
X00354584Y0025908
X003556Y0028194
Y0029972
Y0030988
Y0032004
X0037084Y0030988
Y0029972
X00381Y003048
X003758Y00282353
X00403634Y00285496
X00420213Y00283718
X00421132Y00262636
X00413766
X00406654Y002591
X00397764
X00441452Y00263652
X00461264
X0048641
X00478536Y00252984
X004953Y0024892
X0050927Y0026162
X0051308Y0028956
X0049784Y0028448
X0050292Y0029972
X00493776Y00311912
X00489458Y00322834
X00474472Y00323596
X00475234Y00311658
X00475742Y00299212
X0047625Y00283718
X0045085Y00287528
X00443738Y00282702
X00429768Y00315722
X00411762Y00320802
X00423926Y0035687
X00430022
X00452006Y00363941
X004581
X0046609Y0039243
Y0040259
X004445Y0040132
Y0041021
X00446532Y00428498
X00466852Y00427228
X00461264Y00441452
X00482601Y00435645
Y00448345
Y00461045
X00505968Y004572
X00515112Y00453898
X00527558
X00529082Y00461264
X0052908Y00469646
X00535686Y00485394
X00533146Y00508
X00512092Y004887
X00503428Y00488696
X00490301Y004887
X00457962Y00505968
X00452628Y0051943
X00452624Y0052578
X0046355
Y0051943
X0047117Y00526034
X00485394Y00543052
X00491744
X004889Y00554482
X00514096Y00550164
X00517906Y0053721
X00557784Y00557784
X00564134Y00551688
X005507Y005724
X0055347Y00473693
Y00460993
X00553468Y00448293
X0053721Y00453898
X00537718Y00425196
X0052705Y00431038
X00526542Y00418084
X00533146Y00409956
X0053213Y0039751
X0051943
X00522478Y004055
X00516244
X00506984Y00438912
X00499328Y00431328
X00493776Y00382778
Y00375918
X00503936Y00327914
X00466308Y0031848
X0042672Y003937
X0041656Y00393446
X004191Y004064
X0042799
X0042672Y004318
X00430276Y00442976
X00416052
X00415036Y00461518
X00414528Y00474218
X00430784Y00473964
X00431038Y00461772
X00421132Y0049403
X00408714Y00507238
Y00519684
Y00532384
Y0054483
X00442747Y00545871
Y00537489
X00441452Y00513334
X00437417Y00509299
X00433324Y0051816
X00437134Y00564388
X00453136Y00554736
X00367868Y00557832
X00367566Y0054483
X00367868Y00532432
X0036807Y00519684
X00366014Y00506222
X0035052Y0050546
Y0051816
Y0052832
X0034544Y0054102
X00347218Y00548894
X00345186Y0055753
X0032639Y00562356
X0032512Y005461
X0032766Y0053594
X00313944Y00531114
X00302768Y00540004
X00301244Y00518922
X0030226Y00503682
X00275844Y00501904
X0027432Y004826
X0027686Y00462788
X00281178Y00467106
X0026289Y0046863
X00254762Y00452628
X00237744Y00468122
X00220218Y00465582
X00223012Y00448056
X00213868Y004445
X00204216Y00445008
X00197104Y00442468
X00188722Y00444754
X00191516Y00414528
X00216916
X00231648Y00430276
X00240538Y00431546
X00279908Y00427736
X00307848Y00430022
X0030734Y00418084
X00320548Y00418592
X0033147Y0041021
X0035052Y0041656
X003683
X0036322Y0042926
X003556Y0043688
X00363756Y0044831
X00364041Y004572
Y00465836
X00363728Y00473456
X00366776Y00485902
X0035179Y00485648
X00350266Y00468122
X0035052Y0045212
X003302Y00457454
X0032766Y0047244
X0033274Y0048514
Y0050546
Y0051816
X00274574Y0052832
X0028067Y00538988
X002794Y00556768
X00267716Y00563626
X00251968Y00551942
X00254Y0053848
X0024892Y0052832
X0022352Y005334
X0020828Y0053848
X00199136Y00556514
X00225552Y00557276
X0022352Y0050292
X0019812
Y00471932
X00250698Y00487172
X00303784Y00467106
X00314198Y00467614
X0033274Y0043688
X0034036Y0042672
X00378714Y00426212
X00388874Y0043561
X00389156Y00448564
Y0046101
Y0047371
X0039878Y00424434
X0041529Y0042291
X0039116Y00410972
Y00400812
X00382016Y00396494
X003683Y0039624
Y0037846
Y003683
X0035052
Y0037846
Y0039624
X00331978Y00384302
X00331724Y00371856
X0033226Y00359156
X00387858Y00370332
Y0037846
X00293116Y00409956
X002564Y00397012
X00256463Y00384312
X00256588Y00371358
X00256463Y00358912
X00213614Y003556
X00262636Y00305308
X00277876Y00302768
X00301244Y00261874
X003048Y0023368
X00313944Y0024003
X003556Y002159
X00366042Y00211836
X0036604Y00204216
Y00196088
X003556Y0019812
X0036068Y0018796
X003683Y001778
X0038433Y00182118
X00392684Y00184658
X0039957Y00182626
X00410464Y00184912
X00413258Y0019431
X00427736Y00203962
X0043942Y00191262
Y00185166
X004318Y00231394
X0048133Y0021082
X00203962Y0019939
X00202692Y00181102
X0019812Y0021844
Y0023876
X00199136Y00262636
X0029591Y0056388
X00167894Y00562356
X00143764Y00563626
X0012192Y005588
X00107Y00550417
X0009652Y0053848
X00107Y00525017
X0012192Y005334
X0013716Y0053848
X00161544Y00531622
X0018288Y005334
X0017272Y0049784
X0014732
X00117856Y00501142
X00107Y00499617
Y00474217
X00124206Y00468122
X00135636Y00467614
X0012192Y004826
X0011938Y00442722
X00119529Y00424662
X00132334Y00424434
X00144364Y00421774
X00148336Y00404622
X00134112
X00115824Y00404876
X00107Y00397876
Y00372617
X00118181Y00370177
X0009652Y0036068
X00107Y00347217
X00120491Y00338026
X00127254Y00319786
X00107Y00321817
X00105918Y00296418
X00112014
X00102616Y00277622
X00107Y00271017
X00103378Y0025273
X00107Y00245617
X00115824Y00239014
X00107Y00220217
X0009652Y0020828
X00107Y00194817
X00118364Y00192532
X00127Y001778
X0014224Y0019304
X001524Y002032
X00131572Y0020701
X0017272Y0021844
X001778Y0023876
X00174244Y00263144
X00145542
X00126238Y00262128
X00148618Y00306578
X00161544Y00305816
X00163068Y00318008
X00181356Y0030988
X00174752Y00295402
X0017653Y00358902
X00156972Y00351536
X00154432Y0037084
X00141478Y00357886
X0014224Y003302
X00139954Y00391414
X00153924Y00441198
X00161798Y00445008
X00178816
X00179324Y00453898
X0016764Y00466852
X00107Y00448817
Y00423417
X00053
X000508Y0041148
X00053Y00398017
X000508Y0038608
X00053Y00372617
X000508Y0036068
X00053Y00346833
X000508Y0033528
X00053Y00321817
X000508Y0030988
X00053Y00296417
X000508Y0028448
X00053Y00271017
X000508Y0025908
X00053Y00245617
X000508Y0023368
X00053Y00220217
X0005588Y0020828
X00053Y00194818
X0005588Y0018288
X0009652
X0016256
X00178562Y00180848
X0018288Y0019812
X0001524Y0020828
Y0018288
Y0023368
Y0025908
Y0028448
Y0030988
X0001531Y00334719
X0001524Y0036068
Y0038608
Y0041148
Y0043688
Y0046228
Y0048768
Y0051308
Y0053848
Y0056388
X000508
X00053Y00550417
X000508Y0053848
X00053Y00524731
X000508Y0051308
X00053Y00499617
X000508Y0048768
X00053Y00474175
X000508Y0046228
X00053Y00449072
X000508Y0043688
X0009652Y0056388
X00107Y00575817
X0012192Y0057404
X0013716
Y0058928
X0011684
X0009652
X00106718Y00600709
X00106426Y00611632
X00113538Y0061976
X00123952
X00139954Y00633476
X00140208Y00642366
X001524Y0064516
Y0062992
X00152146Y00616966
X001524Y0060452
X001778
X00178308Y00616712
X001778Y0062992
Y0064516
Y0067056
Y006858
X001524
X00127
Y0067056
X0011176
Y006858
X00091186Y00684784
X00089662Y00667258
X00099568Y00659384
X0009144Y0065024
X00098044Y00642366
X00098834Y0063373
X00076334Y00614413
X0005588Y0061468
X00053Y00601217
X000508Y0058928
X00053Y00575817
X0001524Y0058928
Y0061468
Y0062992
X0004572
X0003556Y0061468
X0007366Y00660908
X0007239Y00686562
X00137922Y00659638
X0018288Y0058928
X00182474Y00573322
X002032Y0057404
X0020828Y0058928
X0021844Y0060452
X0019812
X0020828Y0061976
X0023368
X0025908
X0028448
X0029464Y00635
X00311658Y0064643
X00326644Y0065278
X0032385Y00667258
X0034544Y0066548
X0036068
X00357632Y00653288
X00367538Y00653542
X0038227Y00645414
X00388112Y00656336
X0040132Y006604
X00401066Y00675894
X004064Y006858
X004191
X004318
X00441706Y00683768
X00443738Y00692658
X004614Y006904
X00456184Y00682752
Y00667512
X0044831
X00448056Y006494
X00444246Y0064389
X00448056Y006384
X00444246Y00632968
X0044806Y006274
Y006164
X0044425Y0061087
X00448056Y006054
X00433832Y0059944
X00432054Y00617474
X0043307Y0062484
X00432562Y00639826
X00432816Y006477
X00426974Y00634492
X00416814Y00636524
X00406146Y00633984
X00400812Y00623824
X00402082Y0061341
X00407924Y00608076
X00416814Y00605536
X00390144Y00613664
X00393954Y00630174
X00400812Y0064516
X00380492Y00667512
X00392938Y006858
X0036576Y00685546
X00340868Y00686562
X003048Y006858
X002794
Y0067056
X00254
X00254254Y00655574
X00228854
X002286Y0067056
Y006858
X00254
X002032
Y0067056
X00203454Y00655574
X0024892Y0060452
X0027432
X00265492Y00590005
X00238687Y00589226
X0023368Y0057404
X00312928Y0058039
X00326136Y00594106
X00338582Y00581914
X003556Y00595884
X00367868Y00595932
X0036449Y0061341
X00355854Y00620522
X00327152Y00633476
X0030099Y00604266
X0048641Y0060452
X00486156Y00597916
X00492252Y00593344
X00498348Y00597916
X004999Y0059004
X0050546Y00594614
X005109Y0059004
X00526034Y00586994
X00518922Y00579628
X0051384Y006054
Y00613
Y00621
Y00642112
X00513842Y00648716
X0050038Y00643636
X005054Y0063398
X004944Y00633984
X0048641Y00634492
Y00627888
X00486156Y0061722
X00499872Y0061087
X0048641Y00641096
Y006477
Y00654304
X00483362Y00660654
X00494284
X0050546
X00527304
X0054356Y00667512
X00550164Y0067056
X0054356Y00683006
X005384Y006904
X00558292Y00692404
X00561848Y00682752
X00568452Y00677926
X00568706Y00644398
X00564896Y00638302
X00564134Y0061595
X0055553Y0061087
X005507Y00616204
X00554Y00622046
X005507Y006054
X0056032
Y00598678
X00560324Y00583438
X005507Y005834
X00571754Y00606044
X00478028Y00587248
X00475996Y00579882
X004724Y006604
X00433578Y00674878
X005842Y006858
X00598678Y00677672
X006096Y006858
X00628142Y00677418
X006477Y006858
X006731
X00680974Y00677672
X006985Y006858
X007239
X007493
X007747
X008001
X00790194Y00671322
X008255Y00673862
Y006858
Y006604
X00848106Y00662178
X00846328Y0064008
X00821182Y00637794
X0081661Y006096
X00819404Y00593852
X0079502Y0059055
Y0058039
Y0061358
X0077978Y0060706
X0078232Y00640334
X00761492Y0062992
X0075184Y00644144
X00748284Y00614934
X00735838Y00599186
X00730504Y00590804
X00710438Y00591312
X0069469Y00590804
X00679704
X00666496
X0066929Y00575564
X0067691Y0057785
X00700024Y00578612
X00696976Y00608076
X0071374Y00616712
X00707644Y00628904
X0072263Y0062992
X00689864Y00629412
X0067437Y00626364
X0067564Y0061214
X00661416Y0061341
X00655066Y006223
X0064516Y0061341
X00632896Y00620522
X00638302Y00630174
X006223Y0062992
X00628396Y00645414
X00642112
X00668528
X00684784
X00613918
X00602996Y0064516
X00608838Y00620522
Y006096
X00621538Y00609092
X00633504Y00595884
X00649478Y00596392
X00633504Y00579
X00590578Y00583184
X00588518Y00605536
X00593598Y00610616
X00837184Y00617728
X00863854Y0062484
X0087376Y0061468
Y0063627
X00903224Y00630682
X0091948Y00632206
X00929132Y00647446
X00900176Y00649732
X00902716Y00683006
X0091948
X008763Y006858
X00866394Y00676656
X008509Y006858
X0085344Y00599186
X00862838Y00593598
X00858012Y00576072
X0084201Y0058166
X00893064Y00575818
X00896874Y00588772
X0089292Y00601165
X00892302Y00618744
X0090932Y0061468
X0093472
X0095504
X0094666Y00601383
X0095504Y0058928
X0094666Y00575983
X0092329Y00589534
X009525Y00635
X00968248Y00624332
X0098552Y0062992
Y0061468
Y0058928
T03
X0022939Y00331216
Y00351536
X00229644Y00419862
Y00440182
X00153444Y00430022
X0015319Y00341376
T04
X0048339Y001016
X0050879
T05
X0004Y00055
X0096
X0004Y00665
X0096
T06
X003511Y000628
X004089
X005911
X006489
M30
