M48
;Layer_Color=9474304
;FILE_FORMAT=4:4
METRIC,LZ
;TYPE=PLATED
T1F00S00C0.2500
;TYPE=NON_PLATED
T2F00S00C0.9906
%
T01
X00112Y000145
X00128Y0000675
X0015
X00149Y00031275
X00142Y00036
X0013575Y00031351
X00130756Y00046002
X00135439Y00051276
X00118232Y00046
X00121078Y00087422
X00109Y000955
X0010025
X000905Y0009525
X00121Y00113
X00145Y0011
X00165Y0010325
X00169027Y000935
X00164268Y00084
X0015731Y0008519
X00148Y000842
X001375Y0008
X00145Y000655
X0018025Y00064218
Y00053732
X0018125Y00042
X0019Y00047462
Y0003505
Y0001225
X001825Y000075
X00215
X00225Y000115
Y000265
X00222Y0003505
X002265Y0004125
X00222Y00047462
Y0006045
X00234Y00059
X0024275Y0005907
X002595Y00058375
Y00066
X002585Y000855
X00258Y00103
X00271865Y0011394
X00283018Y00113784
X003005Y0011376
X0030875Y0011375
X0029555Y000941
X00288Y0009
X00280719Y0009375
X002875Y0007925
X0029675Y00079
X002945Y0006625
X0028748Y000635
X0027975Y0006375
X00281Y00044
X00274263Y00041752
X0026725Y00043
X00259697Y00045104
X0028275Y000325
X0027753Y000265
X00277593Y00017687
X00285Y0002
X002825Y000075
X002675
X0025
X0024
X00240833Y000215
X00246089Y000165
X0020575Y0001725
Y000265
X00165Y00033
X0015825Y0003725
X001825Y0007575
X001895Y000755
X00178175Y0008775
X00179575Y0010325
X002045Y00098745
X002135
X0022275Y0009875
X00231636Y0009825
Y0011165
X00223561
X002135
X002054Y001105
X002165Y0007618
X00316412Y0007245
X003238
X00324Y0006525
X003238Y0005825
X00316546Y000571
X00316901Y00065389
X0032Y000425
Y00025
Y000075
X003
X0034
Y00025
Y000425
X0036
Y00025
Y000075
T02
X0019549Y0002235
X0021581
X0020565Y0007315
M30
