M48
;Layer_Color=9474304
;FILE_FORMAT=4:4
METRIC,LZ
;TYPE=PLATED
T1F00S00C0.3000
T2F00S00C0.9140
T3F00S00C1.0000
;TYPE=NON_PLATED
T4F00S00C1.8000
%
T01
X00248Y001568
X00249Y00171
X002385Y00178
Y001855
X002295
Y00178
X0028Y00177
X002745Y001715
X002725Y001573
X002978Y00157
X00323Y001574
X003237Y001702
X00313Y00195
Y00201
X003195Y002127
X003175Y002305
X00305Y00243
X002939Y002416
X002869Y002332
X002974Y00225
X002956Y002057
X002889Y002083
X002943Y001884
X00276Y00195
X002701Y001911
X00273Y00269
Y00278
X002837Y002793
X00285Y0027
X002815Y002625
X00289
X00299Y00272
X003065Y0026625
X0031625Y00271
X00312Y00282
X003225Y0028553
X003187Y002935
X00305Y00294
X0028975Y0029425
X002805Y002897
X002815Y0030525
X002727Y003126
X002722Y003232
X002479Y003233
X002478Y003093
X00239Y003015
Y002935
X00229
Y003015
X002569Y002972
X002571Y002896
X00294Y00283
X002981Y003126
X002976Y003235
X003231Y00323
X003233Y003043
X00349Y00311
X003487Y003233
X003741
X00375Y00311
X00364Y0028975
X003565Y0029
X00359Y00278
X00352Y00269
X00368Y00261
X00375625Y00266875
X003785Y002535
X00375Y002404
X00383Y002395
X003686Y002436
X0036175Y00246
Y00253
X00353Y00233
X003558Y002227
X003552Y002161
X003575Y002025
X00354Y0019275
X003487Y001571
X003742Y001567
X0039475Y0023025
X003918Y002667
X003915Y0028825
X003405Y0028553
X0040525Y002855
X00404Y002738
X0041175Y002785
X004132Y00265
X0042625Y0026575
X0042875Y0025625
X00434Y00249
X004295Y0024025
X00429551Y002316
X0041375Y002295
X0040725Y00229
X00398Y0022275
X0040225Y0021775
X004169Y002219
X004024Y001919
X004063Y001822
X003974Y001821
X004Y00167
X003997Y001569
X004251Y001567
X00425Y00166
X00451Y00167
X004504Y001567
X004757Y001566
X00475Y00167
X00501
X005012Y001566
X005259Y001568
X005254Y001699
X00528158Y00187211
X005341Y001875
X005503Y001879
X00549Y00198
X0055775Y00197
X0057Y00205
X0056925Y0022
X0057Y00227
X005695Y0023825
X005519Y00239
X005528Y002311
X005255Y0022925
X00513Y00226
X00505Y00233
X00495
X004855Y002324
X004748Y002366
X004717Y00244
X00474Y002587
X00467262Y00258287
X004657Y002646
X004799Y002676
X00497Y002692
X005076Y002695
X00505Y0027975
X005053Y002931
X00497Y002885
X00487Y002905
X004759Y002867
X004639Y00283
X00461Y002891
X004334Y002882
X004216Y002921
X00425Y00311
Y003237
X003996
X004Y00311
X0045
X004506Y003233
X004754Y003232
X00476Y00312
X00501
X005011Y003232
X005271Y003233
X00526Y00312
X005212Y002935
X005325Y002905
X00549
X005555
X005548Y002791
X005501Y002837
X005435Y00272
X005453Y002642
X005696Y002615
Y002683
X00572Y0029
X005845Y0029
X00594
X006215Y00289065
X006325Y00288933
X006435
X0064725Y0029475
X006395Y002985
X0062675
X00627Y00322
X00603Y00323
X005773Y003228
X00551
X00552Y00312
X005192Y002711
X005203Y002598
X005255Y002535
X0052075Y0024275
X00502Y002091
X004914Y002171
X00482Y002083
X004752Y002197
X004635Y002128
X00464Y00196
X004475Y00191
X004375
X004307
X004879Y001817
X00503Y001835
X005733Y001845
X0058075
X00588Y00187
X00599
X0061
X00621
X00632Y00187
X00643Y00187
X006432Y001798
X006494Y001775
X006556Y0017
X00659Y001644
X006572Y00157
X006592Y001824
X00654Y00187
X00665Y001873
X006735Y00182
X006874Y001867
X006945Y00187
X00699Y00194
X00706Y00187
X006835Y00194
X006909Y001566
X007045Y001565
X006275Y001567
X0062725Y0016825
X006017Y001663
X00602Y00157
X00579Y00158
X00552Y00157
X006015Y00212
X005981Y002184
X006086Y002227
X006151Y002234
X006219Y002243
X006307Y002257
X006365Y002225
X00643
X006495
X006558Y002246
X006623Y00223
X00669Y002525
X0065425Y00253
X006476Y002531
X006372Y002499
X006305Y00253
X00621
X006126Y002486
X006127Y002404
X006143Y002331
X006015Y0026275
X00596Y002575
X00655Y00289
X006648Y002905
X00662Y00298
X00651Y00306
X006522Y003232
X006996Y003227
X00708Y00323
X00705Y0031
X00706Y00298
X00706Y00289
X00694
X006985Y002825
X0069Y00297
X004915Y002779
T02
X00259675Y001638
X00285075
X00310475
X00335875
X00361275
X00386675
Y003162
X00361275
X00335875
X00310475
X00285075
X00259675
X00412075
X00437475
X00462875
X00488275
X00513675
X00539075
X00564475
X00589875
X00615275
Y001638
X00589875
X00564475
X00539075
X00513675
X00488275
X00462875
X00437475
X00412075
T03
X0043999Y002043
X0046031
X0045015Y002805
T04
X0023427Y001638
Y003162
X0064068
Y001638
M30
