G04*
G04 #@! TF.GenerationSoftware,Altium Limited,Altium Designer,24.5.2 (23)*
G04*
G04 Layer_Color=16711935*
%FSLAX44Y44*%
%MOMM*%
G71*
G04*
G04 #@! TF.SameCoordinates,0C5A4069-AE43-482B-AD25-CF0848805004*
G04*
G04*
G04 #@! TF.FilePolarity,Positive*
G04*
G01*
G75*
%ADD10C,0.1270*%
%ADD14C,0.2540*%
%ADD15C,0.2000*%
%ADD17R,4.8260X2.4130*%
%ADD18C,0.1778*%
%ADD19C,0.2997*%
%ADD167C,0.0508*%
%ADD197C,0.0500*%
%ADD198C,0.1000*%
%ADD201C,0.0500*%
G36*
X885250Y-150059D02*
X889786D01*
Y-150512D01*
X892507D01*
Y-150966D01*
X894775D01*
Y-151419D01*
X896589D01*
Y-151873D01*
X898403D01*
Y-152327D01*
X899764D01*
Y-152780D01*
X901124D01*
Y-153234D01*
X902485D01*
Y-153687D01*
X903392D01*
Y-154141D01*
X904753D01*
Y-154594D01*
X905660D01*
Y-155048D01*
X906567D01*
Y-155501D01*
X907474D01*
Y-155955D01*
X908381D01*
Y-156409D01*
X909288D01*
Y-156862D01*
X909742D01*
Y-157316D01*
X910649D01*
Y-157769D01*
X911556D01*
Y-158223D01*
X912010D01*
Y-158676D01*
X912917D01*
Y-159130D01*
X913371D01*
Y-159584D01*
X914278D01*
Y-160037D01*
X914731D01*
Y-160491D01*
X915185D01*
Y-160944D01*
X916092D01*
Y-161398D01*
X916545D01*
Y-161851D01*
X916999D01*
Y-162305D01*
X917452D01*
Y-162758D01*
X918360D01*
Y-163212D01*
X918813D01*
Y-163666D01*
X919267D01*
Y-164119D01*
X919720D01*
Y-164573D01*
X920174D01*
Y-165026D01*
X920627D01*
Y-165480D01*
X921081D01*
Y-165933D01*
X921535D01*
Y-166387D01*
X921988D01*
Y-166840D01*
X922442D01*
Y-167294D01*
X922895D01*
Y-167747D01*
X923349D01*
Y-168201D01*
Y-168655D01*
X923802D01*
Y-169108D01*
X924256D01*
Y-169562D01*
X924709D01*
Y-170015D01*
X925163D01*
Y-170469D01*
Y-170922D01*
X925617D01*
Y-171376D01*
X926070D01*
Y-171830D01*
X926524D01*
Y-172283D01*
Y-172737D01*
X926977D01*
Y-173190D01*
X927431D01*
Y-173644D01*
Y-174097D01*
X927884D01*
Y-174551D01*
X928338D01*
Y-175004D01*
Y-175458D01*
X928791D01*
Y-175912D01*
X929245D01*
Y-176365D01*
Y-176819D01*
X929698D01*
Y-177272D01*
Y-177726D01*
X930152D01*
Y-178179D01*
Y-178633D01*
X930606D01*
Y-179086D01*
Y-179540D01*
X931059D01*
Y-179993D01*
Y-180447D01*
X931513D01*
Y-180901D01*
Y-181354D01*
X931966D01*
Y-181808D01*
Y-182261D01*
X932420D01*
Y-182715D01*
Y-183168D01*
Y-183622D01*
X932873D01*
Y-184076D01*
Y-184529D01*
X933327D01*
Y-184983D01*
Y-185436D01*
Y-185890D01*
X933781D01*
Y-186343D01*
Y-186797D01*
Y-187250D01*
X934234D01*
Y-187704D01*
Y-188158D01*
Y-188611D01*
Y-189065D01*
X934688D01*
Y-189518D01*
Y-189972D01*
Y-190425D01*
Y-190879D01*
X935141D01*
Y-191332D01*
Y-191786D01*
Y-192240D01*
Y-192693D01*
X935595D01*
Y-193147D01*
Y-193600D01*
Y-194054D01*
Y-194507D01*
Y-194961D01*
Y-195414D01*
Y-195868D01*
X936048D01*
Y-196322D01*
Y-196775D01*
Y-197229D01*
Y-197682D01*
Y-198136D01*
Y-198589D01*
Y-199043D01*
Y-199496D01*
Y-199950D01*
Y-200404D01*
Y-200857D01*
X936502D01*
Y-201311D01*
Y-201764D01*
Y-202218D01*
Y-202671D01*
Y-203125D01*
Y-203578D01*
Y-204032D01*
Y-204486D01*
Y-204939D01*
Y-205393D01*
X936048D01*
Y-205846D01*
Y-206300D01*
Y-206753D01*
Y-207207D01*
Y-207661D01*
Y-208114D01*
Y-208568D01*
Y-209021D01*
Y-209475D01*
Y-209928D01*
Y-210382D01*
X935595D01*
Y-210835D01*
Y-211289D01*
Y-211742D01*
Y-212196D01*
Y-212650D01*
Y-213103D01*
X935141D01*
Y-213557D01*
Y-214010D01*
Y-214464D01*
Y-214917D01*
Y-215371D01*
X934688D01*
Y-215825D01*
Y-216278D01*
Y-216732D01*
Y-217185D01*
X934234D01*
Y-217639D01*
Y-218092D01*
Y-218546D01*
Y-218999D01*
X933781D01*
Y-219453D01*
Y-219907D01*
Y-220360D01*
X933327D01*
Y-220814D01*
Y-221267D01*
X932873D01*
Y-221721D01*
Y-222174D01*
Y-222628D01*
X932420D01*
Y-223081D01*
Y-223535D01*
X931966D01*
Y-223988D01*
Y-224442D01*
Y-224896D01*
X931513D01*
Y-225349D01*
Y-225803D01*
X931059D01*
Y-226256D01*
Y-226710D01*
X930606D01*
Y-227163D01*
Y-227617D01*
X930152D01*
Y-228071D01*
Y-228524D01*
X929698D01*
Y-228071D01*
Y-227617D01*
Y-227163D01*
Y-226710D01*
Y-226256D01*
Y-225803D01*
Y-225349D01*
Y-224896D01*
Y-224442D01*
Y-223988D01*
Y-223535D01*
Y-223081D01*
Y-222628D01*
Y-222174D01*
Y-221721D01*
Y-221267D01*
Y-220814D01*
Y-220360D01*
Y-219907D01*
Y-219453D01*
Y-218999D01*
Y-218546D01*
Y-218092D01*
Y-217639D01*
Y-217185D01*
Y-216732D01*
Y-216278D01*
Y-215825D01*
Y-215371D01*
Y-214917D01*
Y-214464D01*
Y-214010D01*
Y-213557D01*
Y-213103D01*
Y-212650D01*
Y-212196D01*
Y-211742D01*
Y-211289D01*
Y-210835D01*
Y-210382D01*
Y-209928D01*
Y-209475D01*
Y-209021D01*
Y-208568D01*
Y-208114D01*
Y-207661D01*
Y-207207D01*
Y-206753D01*
Y-206300D01*
Y-205846D01*
Y-205393D01*
Y-204939D01*
Y-204486D01*
Y-204032D01*
Y-203578D01*
Y-203125D01*
Y-202671D01*
Y-202218D01*
Y-201764D01*
Y-201311D01*
Y-200857D01*
Y-200404D01*
Y-199950D01*
Y-199496D01*
Y-199043D01*
Y-198589D01*
Y-198136D01*
Y-197682D01*
Y-197229D01*
Y-196775D01*
Y-196322D01*
Y-195868D01*
Y-195414D01*
Y-194961D01*
Y-194507D01*
Y-194054D01*
X916999D01*
Y-194507D01*
Y-194961D01*
Y-195414D01*
Y-195868D01*
Y-196322D01*
Y-196775D01*
Y-197229D01*
Y-197682D01*
Y-198136D01*
Y-198589D01*
Y-199043D01*
Y-199496D01*
Y-199950D01*
Y-200404D01*
Y-200857D01*
Y-201311D01*
Y-201764D01*
Y-202218D01*
Y-202671D01*
Y-203125D01*
Y-203578D01*
Y-204032D01*
Y-204486D01*
Y-204939D01*
Y-205393D01*
Y-205846D01*
Y-206300D01*
Y-206753D01*
Y-207207D01*
Y-207661D01*
Y-208114D01*
Y-208568D01*
Y-209021D01*
Y-209475D01*
Y-209928D01*
Y-210382D01*
Y-210835D01*
Y-211289D01*
Y-211742D01*
Y-212196D01*
Y-212650D01*
Y-213103D01*
Y-213557D01*
Y-214010D01*
Y-214464D01*
Y-214917D01*
Y-215371D01*
Y-215825D01*
Y-216278D01*
Y-216732D01*
Y-217185D01*
Y-217639D01*
Y-218092D01*
Y-218546D01*
Y-218999D01*
Y-219453D01*
Y-219907D01*
Y-220360D01*
Y-220814D01*
Y-221267D01*
Y-221721D01*
X916545D01*
Y-222174D01*
Y-222628D01*
Y-223081D01*
Y-223535D01*
X916092D01*
Y-223988D01*
Y-224442D01*
X915638D01*
Y-224896D01*
Y-225349D01*
X915185D01*
Y-225803D01*
X914731D01*
Y-226256D01*
X914278D01*
Y-226710D01*
X913824D01*
Y-227163D01*
X913371D01*
Y-227617D01*
X912463D01*
Y-228071D01*
X911103D01*
Y-228524D01*
X904753D01*
Y-228071D01*
X903392D01*
Y-227617D01*
X902485D01*
Y-227163D01*
X902032D01*
Y-226710D01*
X901578D01*
Y-226256D01*
X901124D01*
Y-225803D01*
Y-225349D01*
X900671D01*
Y-224896D01*
Y-224442D01*
X900217D01*
Y-223988D01*
Y-223535D01*
Y-223081D01*
Y-222628D01*
X899764D01*
Y-222174D01*
Y-221721D01*
Y-221267D01*
Y-220814D01*
Y-220360D01*
Y-219907D01*
Y-219453D01*
Y-218999D01*
Y-218546D01*
Y-218092D01*
Y-217639D01*
Y-217185D01*
Y-216732D01*
Y-216278D01*
Y-215825D01*
Y-215371D01*
Y-214917D01*
Y-214464D01*
Y-214010D01*
Y-213557D01*
Y-213103D01*
Y-212650D01*
Y-212196D01*
Y-211742D01*
Y-211289D01*
Y-210835D01*
Y-210382D01*
Y-209928D01*
Y-209475D01*
Y-209021D01*
Y-208568D01*
Y-208114D01*
Y-207661D01*
Y-207207D01*
Y-206753D01*
Y-206300D01*
Y-205846D01*
Y-205393D01*
Y-204939D01*
Y-204486D01*
Y-204032D01*
Y-203578D01*
Y-203125D01*
Y-202671D01*
Y-202218D01*
Y-201764D01*
Y-201311D01*
Y-200857D01*
Y-200404D01*
Y-199950D01*
Y-199496D01*
Y-199043D01*
Y-198589D01*
Y-198136D01*
Y-197682D01*
Y-197229D01*
Y-196775D01*
Y-196322D01*
Y-195868D01*
Y-195414D01*
Y-194961D01*
Y-194507D01*
Y-194054D01*
X887064D01*
Y-194507D01*
Y-194961D01*
Y-195414D01*
Y-195868D01*
Y-196322D01*
Y-196775D01*
Y-197229D01*
Y-197682D01*
Y-198136D01*
Y-198589D01*
Y-199043D01*
Y-199496D01*
Y-199950D01*
Y-200404D01*
Y-200857D01*
Y-201311D01*
Y-201764D01*
Y-202218D01*
Y-202671D01*
Y-203125D01*
Y-203578D01*
Y-204032D01*
Y-204486D01*
Y-204939D01*
Y-205393D01*
Y-205846D01*
Y-206300D01*
Y-206753D01*
Y-207207D01*
Y-207661D01*
Y-208114D01*
Y-208568D01*
Y-209021D01*
Y-209475D01*
Y-209928D01*
Y-210382D01*
Y-210835D01*
Y-211289D01*
Y-211742D01*
Y-212196D01*
Y-212650D01*
Y-213103D01*
Y-213557D01*
Y-214010D01*
Y-214464D01*
Y-214917D01*
Y-215371D01*
Y-215825D01*
Y-216278D01*
Y-216732D01*
Y-217185D01*
Y-217639D01*
Y-218092D01*
Y-218546D01*
Y-218999D01*
Y-219453D01*
Y-219907D01*
Y-220360D01*
Y-220814D01*
Y-221267D01*
Y-221721D01*
Y-222174D01*
Y-222628D01*
Y-223081D01*
Y-223535D01*
Y-223988D01*
Y-224442D01*
Y-224896D01*
Y-225349D01*
Y-225803D01*
Y-226256D01*
Y-226710D01*
Y-227163D01*
X887518D01*
Y-227617D01*
Y-228071D01*
Y-228524D01*
Y-228978D01*
X887971D01*
Y-229431D01*
Y-229885D01*
Y-230338D01*
X888425D01*
Y-230792D01*
Y-231245D01*
Y-231699D01*
X888878D01*
Y-232153D01*
Y-232606D01*
X889332D01*
Y-233060D01*
X889786D01*
Y-233513D01*
Y-233967D01*
X890239D01*
Y-234420D01*
X890693D01*
Y-234874D01*
X891146D01*
Y-235327D01*
X891600D01*
Y-235781D01*
X892053D01*
Y-236234D01*
X892507D01*
Y-236688D01*
X893414D01*
Y-237142D01*
X893868D01*
Y-237595D01*
X894775D01*
Y-238049D01*
X895682D01*
Y-238502D01*
X896589D01*
Y-238956D01*
X897950D01*
Y-239409D01*
X899764D01*
Y-239863D01*
X908835D01*
Y-239409D01*
X910649D01*
Y-238956D01*
X911556D01*
Y-238502D01*
X912917D01*
Y-238049D01*
X913371D01*
Y-237595D01*
X914278D01*
Y-237142D01*
X914731D01*
Y-236688D01*
X915185D01*
Y-236234D01*
X916092D01*
Y-235781D01*
X916545D01*
Y-235327D01*
X916999D01*
Y-234874D01*
Y-234420D01*
X917452D01*
Y-234874D01*
Y-235327D01*
Y-235781D01*
Y-236234D01*
Y-236688D01*
Y-237142D01*
Y-237595D01*
Y-238049D01*
Y-238502D01*
Y-238956D01*
X922442D01*
Y-239409D01*
X921988D01*
Y-239863D01*
X921535D01*
Y-240317D01*
X921081D01*
Y-240770D01*
X920627D01*
Y-241224D01*
X920174D01*
Y-241677D01*
X919720D01*
Y-242131D01*
X919267D01*
Y-242584D01*
X918813D01*
Y-243038D01*
X917906D01*
Y-243491D01*
X917452D01*
Y-243945D01*
X916999D01*
Y-244398D01*
X916545D01*
Y-244852D01*
X915638D01*
Y-245306D01*
X915185D01*
Y-245759D01*
X914731D01*
Y-246213D01*
X913824D01*
Y-246666D01*
X913371D01*
Y-247120D01*
X912463D01*
Y-247573D01*
X912010D01*
Y-248027D01*
X911103D01*
Y-248480D01*
X910649D01*
Y-248934D01*
X909742D01*
Y-249388D01*
X908835D01*
Y-249841D01*
X907928D01*
Y-250295D01*
X907474D01*
Y-250748D01*
X906567D01*
Y-251202D01*
X905206D01*
Y-251655D01*
X904299D01*
Y-252109D01*
X903392D01*
Y-252563D01*
X902032D01*
Y-253016D01*
X901124D01*
Y-253470D01*
X899764D01*
Y-253923D01*
X897950D01*
Y-254377D01*
X896589D01*
Y-254830D01*
X894775D01*
Y-255284D01*
X892053D01*
Y-255737D01*
X888878D01*
Y-256191D01*
X877086D01*
Y-255737D01*
X873911D01*
Y-255284D01*
X871643D01*
Y-254830D01*
X869829D01*
Y-254377D01*
X868015D01*
Y-253923D01*
X866654D01*
Y-253470D01*
X865294D01*
Y-253016D01*
X863933D01*
Y-252563D01*
X863026D01*
Y-252109D01*
X861665D01*
Y-251655D01*
X860758D01*
Y-251202D01*
X859851D01*
Y-250748D01*
X858944D01*
Y-250295D01*
X858037D01*
Y-249841D01*
X857130D01*
Y-249388D01*
X856222D01*
Y-248934D01*
X855769D01*
Y-248480D01*
X854862D01*
Y-248027D01*
X853955D01*
Y-247573D01*
X853501D01*
Y-247120D01*
X852594D01*
Y-246666D01*
X852140D01*
Y-246213D01*
X851687D01*
Y-245759D01*
X850780D01*
Y-245306D01*
X850326D01*
Y-244852D01*
X849873D01*
Y-244398D01*
X848966D01*
Y-243945D01*
X848512D01*
Y-243491D01*
X848058D01*
Y-243038D01*
X847605D01*
Y-242584D01*
X847151D01*
Y-242131D01*
X846698D01*
Y-241677D01*
X846244D01*
Y-241224D01*
X845791D01*
Y-240770D01*
X845337D01*
Y-240317D01*
X844883D01*
Y-239863D01*
X844430D01*
Y-239409D01*
X843976D01*
Y-238956D01*
X843523D01*
Y-238502D01*
X843069D01*
Y-238049D01*
X842616D01*
Y-237595D01*
X842162D01*
Y-237142D01*
X841709D01*
Y-236688D01*
Y-236234D01*
X841255D01*
Y-235781D01*
X840801D01*
Y-235327D01*
X840348D01*
Y-234874D01*
X839894D01*
Y-234420D01*
Y-233967D01*
X839441D01*
Y-233513D01*
X838987D01*
Y-233060D01*
Y-232606D01*
X838534D01*
Y-232153D01*
X838080D01*
Y-231699D01*
Y-231245D01*
X837627D01*
Y-230792D01*
X837173D01*
Y-230338D01*
Y-229885D01*
X836720D01*
Y-229431D01*
Y-228978D01*
X836266D01*
Y-228524D01*
Y-228071D01*
X835812D01*
Y-227617D01*
Y-227163D01*
X835359D01*
Y-226710D01*
Y-226256D01*
X834905D01*
Y-225803D01*
Y-225349D01*
X834452D01*
Y-224896D01*
Y-224442D01*
X833998D01*
Y-223988D01*
Y-223535D01*
X833545D01*
Y-223081D01*
Y-222628D01*
Y-222174D01*
X833091D01*
Y-221721D01*
Y-221267D01*
Y-220814D01*
X832637D01*
Y-220360D01*
Y-219907D01*
X832184D01*
Y-219453D01*
Y-218999D01*
Y-218546D01*
Y-218092D01*
X831730D01*
Y-217639D01*
Y-217185D01*
Y-216732D01*
X831277D01*
Y-216278D01*
Y-215825D01*
Y-215371D01*
Y-214917D01*
X830823D01*
Y-214464D01*
Y-214010D01*
Y-213557D01*
Y-213103D01*
Y-212650D01*
X830370D01*
Y-212196D01*
Y-211742D01*
Y-211289D01*
Y-210835D01*
Y-210382D01*
Y-209928D01*
Y-209475D01*
X829916D01*
Y-209021D01*
Y-208568D01*
Y-208114D01*
Y-207661D01*
Y-207207D01*
Y-206753D01*
Y-206300D01*
Y-205846D01*
Y-205393D01*
Y-204939D01*
X829463D01*
Y-204486D01*
Y-204032D01*
Y-203578D01*
Y-203125D01*
Y-202671D01*
Y-202218D01*
Y-201764D01*
Y-201311D01*
Y-200857D01*
X829916D01*
Y-200404D01*
Y-199950D01*
Y-199496D01*
Y-199043D01*
Y-198589D01*
Y-198136D01*
Y-197682D01*
Y-197229D01*
Y-196775D01*
X830370D01*
Y-196322D01*
Y-195868D01*
Y-195414D01*
Y-194961D01*
Y-194507D01*
Y-194054D01*
Y-193600D01*
X830823D01*
Y-193147D01*
Y-192693D01*
Y-192240D01*
Y-191786D01*
Y-191332D01*
X831277D01*
Y-190879D01*
Y-190425D01*
Y-189972D01*
Y-189518D01*
X831730D01*
Y-189065D01*
Y-188611D01*
Y-188158D01*
Y-187704D01*
X832184D01*
Y-187250D01*
Y-186797D01*
Y-186343D01*
X832637D01*
Y-185890D01*
Y-185436D01*
Y-184983D01*
X833091D01*
Y-184529D01*
Y-184076D01*
X833545D01*
Y-183622D01*
Y-183168D01*
Y-182715D01*
X833998D01*
Y-182261D01*
Y-181808D01*
X834452D01*
Y-181354D01*
Y-180901D01*
Y-180447D01*
X834905D01*
Y-179993D01*
Y-179540D01*
X835359D01*
Y-179086D01*
Y-178633D01*
X835812D01*
Y-178179D01*
Y-177726D01*
X836266D01*
Y-177272D01*
X836720D01*
Y-176819D01*
Y-176365D01*
X837173D01*
Y-175912D01*
Y-175458D01*
X837627D01*
Y-175004D01*
X838080D01*
Y-174551D01*
Y-174097D01*
X838534D01*
Y-173644D01*
X838987D01*
Y-173190D01*
Y-172737D01*
X839441D01*
Y-172283D01*
X839894D01*
Y-171830D01*
Y-171376D01*
X840348D01*
Y-170922D01*
X840801D01*
Y-170469D01*
X841255D01*
Y-170015D01*
Y-169562D01*
X841709D01*
Y-169108D01*
X842162D01*
Y-168655D01*
X842616D01*
Y-168201D01*
X843069D01*
Y-167747D01*
X843523D01*
Y-167294D01*
X843976D01*
Y-166840D01*
X844430D01*
Y-166387D01*
Y-165933D01*
X844883D01*
Y-165480D01*
X845337D01*
Y-165026D01*
X845791D01*
Y-164573D01*
X846698D01*
Y-164119D01*
X847151D01*
Y-163666D01*
X847605D01*
Y-163212D01*
X848058D01*
Y-162758D01*
X848512D01*
Y-162305D01*
X848966D01*
Y-161851D01*
X849419D01*
Y-161398D01*
X850326D01*
Y-160944D01*
X850780D01*
Y-160491D01*
X851233D01*
Y-160037D01*
X852140D01*
Y-159584D01*
X852594D01*
Y-159130D01*
X853501D01*
Y-158676D01*
X853955D01*
Y-158223D01*
X854862D01*
Y-157769D01*
X855315D01*
Y-157316D01*
X856222D01*
Y-156862D01*
X857130D01*
Y-156409D01*
X857583D01*
Y-155955D01*
X858944D01*
Y-155501D01*
X859851D01*
Y-155048D01*
X860758D01*
Y-154594D01*
X861665D01*
Y-154141D01*
X862572D01*
Y-153687D01*
X863933D01*
Y-153234D01*
X864840D01*
Y-152780D01*
X866201D01*
Y-152327D01*
X867561D01*
Y-151873D01*
X869376D01*
Y-151419D01*
X871190D01*
Y-150966D01*
X873457D01*
Y-150512D01*
X876632D01*
Y-150059D01*
X881168D01*
Y-149605D01*
X885250D01*
Y-150059D01*
D02*
G37*
G36*
X955551Y-177272D02*
Y-177726D01*
Y-178179D01*
Y-178633D01*
Y-179086D01*
Y-179540D01*
Y-179993D01*
Y-180447D01*
Y-180901D01*
Y-181354D01*
Y-181808D01*
Y-182261D01*
Y-182715D01*
Y-183168D01*
Y-183622D01*
Y-184076D01*
Y-184529D01*
Y-184983D01*
Y-185436D01*
Y-185890D01*
Y-186343D01*
Y-186797D01*
Y-187250D01*
Y-187704D01*
Y-188158D01*
Y-188611D01*
Y-189065D01*
Y-189518D01*
Y-189972D01*
Y-190425D01*
Y-190879D01*
Y-191332D01*
Y-191786D01*
Y-192240D01*
Y-192693D01*
Y-193147D01*
Y-193600D01*
Y-194054D01*
Y-194507D01*
Y-194961D01*
Y-195414D01*
Y-195868D01*
Y-196322D01*
Y-196775D01*
Y-197229D01*
Y-197682D01*
Y-198136D01*
Y-198589D01*
Y-199043D01*
Y-199496D01*
X956458D01*
Y-199043D01*
X956912D01*
Y-198589D01*
X957365D01*
Y-198136D01*
X957819D01*
Y-197682D01*
X958272D01*
Y-197229D01*
X958726D01*
Y-196775D01*
X959180D01*
Y-196322D01*
X960087D01*
Y-195868D01*
X960540D01*
Y-195414D01*
X961447D01*
Y-194961D01*
X962355D01*
Y-194507D01*
X963715D01*
Y-194054D01*
X965529D01*
Y-193600D01*
X974147D01*
Y-194054D01*
X975961D01*
Y-194507D01*
X977322D01*
Y-194961D01*
X978682D01*
Y-195414D01*
X979590D01*
Y-195868D01*
X980043D01*
Y-196322D01*
X980950D01*
Y-196775D01*
X981404D01*
Y-197229D01*
X982311D01*
Y-197682D01*
X982765D01*
Y-198136D01*
X983218D01*
Y-198589D01*
X983672D01*
Y-199043D01*
X984125D01*
Y-199496D01*
X984579D01*
Y-199950D01*
Y-200404D01*
X985032D01*
Y-200857D01*
X985486D01*
Y-201311D01*
X985939D01*
Y-201764D01*
Y-202218D01*
X986393D01*
Y-202671D01*
Y-203125D01*
X986846D01*
Y-203578D01*
Y-204032D01*
X987300D01*
Y-204486D01*
Y-204939D01*
X987754D01*
Y-205393D01*
Y-205846D01*
Y-206300D01*
X988207D01*
Y-206753D01*
Y-207207D01*
Y-207661D01*
Y-208114D01*
X988661D01*
Y-208568D01*
Y-209021D01*
Y-209475D01*
Y-209928D01*
Y-210382D01*
X989114D01*
Y-210835D01*
Y-211289D01*
Y-211742D01*
Y-212196D01*
Y-212650D01*
Y-213103D01*
Y-213557D01*
Y-214010D01*
Y-214464D01*
X989568D01*
Y-214917D01*
X989114D01*
Y-215371D01*
Y-215825D01*
Y-216278D01*
Y-216732D01*
Y-217185D01*
Y-217639D01*
Y-218092D01*
Y-218546D01*
Y-218999D01*
Y-219453D01*
Y-219907D01*
Y-220360D01*
Y-220814D01*
Y-221267D01*
Y-221721D01*
Y-222174D01*
Y-222628D01*
X988661D01*
Y-223081D01*
Y-223535D01*
Y-223988D01*
Y-224442D01*
Y-224896D01*
X988207D01*
Y-225349D01*
Y-225803D01*
Y-226256D01*
X987754D01*
Y-226710D01*
Y-227163D01*
Y-227617D01*
X987300D01*
Y-228071D01*
Y-228524D01*
Y-228978D01*
X986846D01*
Y-229431D01*
Y-229885D01*
X986393D01*
Y-230338D01*
Y-230792D01*
X985939D01*
Y-231245D01*
X985486D01*
Y-231699D01*
Y-232153D01*
X985032D01*
Y-232606D01*
X984579D01*
Y-233060D01*
X984125D01*
Y-233513D01*
X983672D01*
Y-233967D01*
Y-234420D01*
X982765D01*
Y-234874D01*
X982311D01*
Y-235327D01*
X981857D01*
Y-235781D01*
X981404D01*
Y-236234D01*
X980497D01*
Y-236688D01*
X980043D01*
Y-237142D01*
X979136D01*
Y-237595D01*
X978229D01*
Y-238049D01*
X977322D01*
Y-238502D01*
X975961D01*
Y-238956D01*
X973693D01*
Y-239409D01*
X965983D01*
Y-238956D01*
X963715D01*
Y-238502D01*
X962808D01*
Y-238049D01*
X961447D01*
Y-237595D01*
X960994D01*
Y-237142D01*
X960087D01*
Y-236688D01*
X959633D01*
Y-236234D01*
X958726D01*
Y-235781D01*
X958272D01*
Y-235327D01*
X957819D01*
Y-234874D01*
X957365D01*
Y-234420D01*
X956912D01*
Y-233967D01*
X956458D01*
Y-233513D01*
X956005D01*
Y-233060D01*
Y-232606D01*
X955098D01*
Y-233060D01*
Y-233513D01*
Y-233967D01*
Y-234420D01*
Y-234874D01*
Y-235327D01*
Y-235781D01*
Y-236234D01*
Y-236688D01*
Y-237142D01*
Y-237595D01*
Y-238049D01*
Y-238502D01*
X943759D01*
Y-238049D01*
Y-237595D01*
Y-237142D01*
Y-236688D01*
Y-236234D01*
Y-235781D01*
Y-235327D01*
Y-234874D01*
Y-234420D01*
Y-233967D01*
Y-233513D01*
Y-233060D01*
Y-232606D01*
Y-232153D01*
Y-231699D01*
Y-231245D01*
Y-230792D01*
Y-230338D01*
Y-229885D01*
Y-229431D01*
Y-228978D01*
Y-228524D01*
Y-228071D01*
Y-227617D01*
Y-227163D01*
Y-226710D01*
Y-226256D01*
Y-225803D01*
Y-225349D01*
Y-224896D01*
Y-224442D01*
Y-223988D01*
Y-223535D01*
Y-223081D01*
Y-222628D01*
Y-222174D01*
Y-221721D01*
Y-221267D01*
Y-220814D01*
Y-220360D01*
Y-219907D01*
Y-219453D01*
Y-218999D01*
Y-218546D01*
Y-218092D01*
Y-217639D01*
Y-217185D01*
Y-216732D01*
Y-216278D01*
Y-215825D01*
Y-215371D01*
Y-214917D01*
Y-214464D01*
Y-214010D01*
Y-213557D01*
Y-213103D01*
Y-212650D01*
Y-212196D01*
Y-211742D01*
Y-211289D01*
Y-210835D01*
Y-210382D01*
Y-209928D01*
Y-209475D01*
Y-209021D01*
Y-208568D01*
Y-208114D01*
Y-207661D01*
Y-207207D01*
Y-206753D01*
Y-206300D01*
Y-205846D01*
Y-205393D01*
Y-204939D01*
Y-204486D01*
Y-204032D01*
Y-203578D01*
Y-203125D01*
Y-202671D01*
Y-202218D01*
Y-201764D01*
Y-201311D01*
Y-200857D01*
Y-200404D01*
Y-199950D01*
Y-199496D01*
Y-199043D01*
Y-198589D01*
Y-198136D01*
Y-197682D01*
Y-197229D01*
Y-196775D01*
Y-196322D01*
Y-195868D01*
Y-195414D01*
Y-194961D01*
Y-194507D01*
Y-194054D01*
Y-193600D01*
Y-193147D01*
Y-192693D01*
Y-192240D01*
Y-191786D01*
Y-191332D01*
Y-190879D01*
Y-190425D01*
Y-189972D01*
Y-189518D01*
Y-189065D01*
Y-188611D01*
Y-188158D01*
Y-187704D01*
Y-187250D01*
Y-186797D01*
Y-186343D01*
Y-185890D01*
Y-185436D01*
Y-184983D01*
Y-184529D01*
Y-184076D01*
Y-183622D01*
Y-183168D01*
Y-182715D01*
Y-182261D01*
Y-181808D01*
Y-181354D01*
Y-180901D01*
Y-180447D01*
Y-179993D01*
Y-179540D01*
Y-179086D01*
Y-178633D01*
Y-178179D01*
Y-177726D01*
Y-177272D01*
Y-176819D01*
X955551D01*
Y-177272D01*
D02*
G37*
G36*
X1009071D02*
Y-177726D01*
Y-178179D01*
Y-178633D01*
Y-179086D01*
Y-179540D01*
Y-179993D01*
Y-180447D01*
Y-180901D01*
Y-181354D01*
Y-181808D01*
Y-182261D01*
Y-182715D01*
Y-183168D01*
Y-183622D01*
Y-184076D01*
Y-184529D01*
Y-184983D01*
Y-185436D01*
Y-185890D01*
Y-186343D01*
Y-186797D01*
Y-187250D01*
Y-187704D01*
Y-188158D01*
Y-188611D01*
Y-189065D01*
Y-189518D01*
Y-189972D01*
Y-190425D01*
Y-190879D01*
Y-191332D01*
Y-191786D01*
Y-192240D01*
Y-192693D01*
Y-193147D01*
Y-193600D01*
Y-194054D01*
Y-194507D01*
Y-194961D01*
Y-195414D01*
Y-195868D01*
Y-196322D01*
Y-196775D01*
Y-197229D01*
Y-197682D01*
Y-198136D01*
Y-198589D01*
Y-199043D01*
Y-199496D01*
Y-199950D01*
Y-200404D01*
Y-200857D01*
Y-201311D01*
Y-201764D01*
Y-202218D01*
Y-202671D01*
Y-203125D01*
Y-203578D01*
Y-204032D01*
Y-204486D01*
Y-204939D01*
Y-205393D01*
Y-205846D01*
Y-206300D01*
Y-206753D01*
Y-207207D01*
Y-207661D01*
Y-208114D01*
Y-208568D01*
Y-209021D01*
Y-209475D01*
Y-209928D01*
Y-210382D01*
Y-210835D01*
Y-211289D01*
Y-211742D01*
Y-212196D01*
Y-212650D01*
Y-213103D01*
Y-213557D01*
Y-214010D01*
Y-214464D01*
Y-214917D01*
Y-215371D01*
Y-215825D01*
Y-216278D01*
Y-216732D01*
Y-217185D01*
Y-217639D01*
Y-218092D01*
Y-218546D01*
Y-218999D01*
Y-219453D01*
Y-219907D01*
Y-220360D01*
Y-220814D01*
Y-221267D01*
Y-221721D01*
Y-222174D01*
Y-222628D01*
Y-223081D01*
Y-223535D01*
Y-223988D01*
Y-224442D01*
Y-224896D01*
Y-225349D01*
Y-225803D01*
Y-226256D01*
Y-226710D01*
Y-227163D01*
Y-227617D01*
Y-228071D01*
Y-228524D01*
Y-228978D01*
Y-229431D01*
Y-229885D01*
Y-230338D01*
Y-230792D01*
Y-231245D01*
Y-231699D01*
Y-232153D01*
Y-232606D01*
Y-233060D01*
Y-233513D01*
Y-233967D01*
Y-234420D01*
Y-234874D01*
Y-235327D01*
Y-235781D01*
Y-236234D01*
Y-236688D01*
Y-237142D01*
Y-237595D01*
Y-238049D01*
Y-238502D01*
X997732D01*
Y-238049D01*
Y-237595D01*
Y-237142D01*
Y-236688D01*
Y-236234D01*
Y-235781D01*
Y-235327D01*
Y-234874D01*
Y-234420D01*
Y-233967D01*
Y-233513D01*
Y-233060D01*
Y-232606D01*
Y-232153D01*
Y-231699D01*
Y-231245D01*
Y-230792D01*
Y-230338D01*
Y-229885D01*
Y-229431D01*
Y-228978D01*
Y-228524D01*
Y-228071D01*
Y-227617D01*
Y-227163D01*
Y-226710D01*
Y-226256D01*
Y-225803D01*
Y-225349D01*
Y-224896D01*
Y-224442D01*
Y-223988D01*
Y-223535D01*
Y-223081D01*
Y-222628D01*
Y-222174D01*
Y-221721D01*
Y-221267D01*
Y-220814D01*
Y-220360D01*
Y-219907D01*
Y-219453D01*
Y-218999D01*
Y-218546D01*
Y-218092D01*
Y-217639D01*
Y-217185D01*
Y-216732D01*
Y-216278D01*
Y-215825D01*
Y-215371D01*
Y-214917D01*
Y-214464D01*
Y-214010D01*
Y-213557D01*
Y-213103D01*
Y-212650D01*
Y-212196D01*
Y-211742D01*
Y-211289D01*
Y-210835D01*
Y-210382D01*
Y-209928D01*
Y-209475D01*
Y-209021D01*
Y-208568D01*
Y-208114D01*
Y-207661D01*
Y-207207D01*
Y-206753D01*
Y-206300D01*
Y-205846D01*
Y-205393D01*
Y-204939D01*
Y-204486D01*
Y-204032D01*
Y-203578D01*
Y-203125D01*
Y-202671D01*
Y-202218D01*
Y-201764D01*
Y-201311D01*
Y-200857D01*
Y-200404D01*
Y-199950D01*
Y-199496D01*
Y-199043D01*
Y-198589D01*
Y-198136D01*
Y-197682D01*
Y-197229D01*
Y-196775D01*
Y-196322D01*
Y-195868D01*
Y-195414D01*
Y-194961D01*
Y-194507D01*
Y-194054D01*
Y-193600D01*
Y-193147D01*
Y-192693D01*
Y-192240D01*
Y-191786D01*
Y-191332D01*
Y-190879D01*
Y-190425D01*
Y-189972D01*
Y-189518D01*
Y-189065D01*
Y-188611D01*
Y-188158D01*
Y-187704D01*
Y-187250D01*
Y-186797D01*
Y-186343D01*
Y-185890D01*
Y-185436D01*
Y-184983D01*
Y-184529D01*
Y-184076D01*
Y-183622D01*
Y-183168D01*
Y-182715D01*
Y-182261D01*
Y-181808D01*
Y-181354D01*
Y-180901D01*
Y-180447D01*
Y-179993D01*
Y-179540D01*
Y-179086D01*
Y-178633D01*
Y-178179D01*
Y-177726D01*
Y-177272D01*
Y-176819D01*
X1009071D01*
Y-177272D01*
D02*
G37*
G36*
X1045355Y-194054D02*
X1047623D01*
Y-194507D01*
X1048984D01*
Y-194961D01*
X1050344D01*
Y-195414D01*
X1051252D01*
Y-195868D01*
X1052159D01*
Y-196322D01*
X1053066D01*
Y-196775D01*
X1053973D01*
Y-197229D01*
X1054426D01*
Y-197682D01*
X1055333D01*
Y-198136D01*
X1055787D01*
Y-198589D01*
X1056241D01*
Y-199043D01*
X1056694D01*
Y-199496D01*
X1057148D01*
Y-199950D01*
X1057601D01*
Y-200404D01*
X1058055D01*
Y-200857D01*
X1058508D01*
Y-201311D01*
X1058962D01*
Y-201764D01*
Y-202218D01*
X1059416D01*
Y-202671D01*
X1059869D01*
Y-203125D01*
Y-203578D01*
X1060323D01*
Y-204032D01*
Y-204486D01*
X1060776D01*
Y-204939D01*
Y-205393D01*
X1061230D01*
Y-205846D01*
Y-206300D01*
X1061683D01*
Y-206753D01*
Y-207207D01*
Y-207661D01*
X1062137D01*
Y-208114D01*
Y-208568D01*
Y-209021D01*
Y-209475D01*
Y-209928D01*
X1062590D01*
Y-210382D01*
Y-210835D01*
Y-211289D01*
Y-211742D01*
Y-212196D01*
Y-212650D01*
Y-213103D01*
X1063044D01*
Y-213557D01*
Y-214010D01*
Y-214464D01*
Y-214917D01*
Y-215371D01*
Y-215825D01*
Y-216278D01*
Y-216732D01*
Y-217185D01*
Y-217639D01*
Y-218092D01*
Y-218546D01*
Y-218999D01*
Y-219453D01*
Y-219907D01*
X1062590D01*
Y-220360D01*
Y-220814D01*
Y-221267D01*
Y-221721D01*
Y-222174D01*
Y-222628D01*
Y-223081D01*
X1062137D01*
Y-223535D01*
Y-223988D01*
Y-224442D01*
Y-224896D01*
X1061683D01*
Y-225349D01*
Y-225803D01*
Y-226256D01*
X1061230D01*
Y-226710D01*
Y-227163D01*
Y-227617D01*
X1060776D01*
Y-228071D01*
Y-228524D01*
X1060323D01*
Y-228978D01*
Y-229431D01*
X1059869D01*
Y-229885D01*
Y-230338D01*
X1059416D01*
Y-230792D01*
X1058962D01*
Y-231245D01*
X1058508D01*
Y-231699D01*
Y-232153D01*
X1058055D01*
Y-232606D01*
X1057601D01*
Y-233060D01*
X1057148D01*
Y-233513D01*
X1056694D01*
Y-233967D01*
X1056241D01*
Y-234420D01*
X1055787D01*
Y-234874D01*
X1054880D01*
Y-235327D01*
X1054426D01*
Y-235781D01*
X1053519D01*
Y-236234D01*
X1053066D01*
Y-236688D01*
X1052159D01*
Y-237142D01*
X1051252D01*
Y-237595D01*
X1049891D01*
Y-238049D01*
X1048530D01*
Y-238502D01*
X1047169D01*
Y-238956D01*
X1044902D01*
Y-239409D01*
X1035377D01*
Y-238956D01*
X1032656D01*
Y-238502D01*
X1030841D01*
Y-238049D01*
X1029934D01*
Y-237595D01*
X1028574D01*
Y-237142D01*
X1027667D01*
Y-236688D01*
X1026759D01*
Y-236234D01*
X1026306D01*
Y-235781D01*
X1025399D01*
Y-235327D01*
X1024945D01*
Y-234874D01*
X1024038D01*
Y-234420D01*
X1023585D01*
Y-233967D01*
X1023131D01*
Y-233513D01*
X1022678D01*
Y-233060D01*
X1022224D01*
Y-232606D01*
X1021770D01*
Y-232153D01*
X1021317D01*
Y-231699D01*
Y-231245D01*
X1020863D01*
Y-230792D01*
X1020410D01*
Y-230338D01*
X1019956D01*
Y-229885D01*
Y-229431D01*
X1019503D01*
Y-228978D01*
Y-228524D01*
X1019049D01*
Y-228071D01*
Y-227617D01*
X1018595D01*
Y-227163D01*
Y-226710D01*
Y-226256D01*
X1018142D01*
Y-225803D01*
Y-225349D01*
Y-224896D01*
X1017688D01*
Y-224442D01*
Y-223988D01*
Y-223535D01*
Y-223081D01*
X1017235D01*
Y-222628D01*
Y-222174D01*
Y-221721D01*
Y-221267D01*
Y-220814D01*
Y-220360D01*
Y-219907D01*
Y-219453D01*
X1016781D01*
Y-218999D01*
Y-218546D01*
Y-218092D01*
Y-217639D01*
Y-217185D01*
Y-216732D01*
Y-216278D01*
Y-215825D01*
Y-215371D01*
Y-214917D01*
Y-214464D01*
Y-214010D01*
Y-213557D01*
X1017235D01*
Y-213103D01*
Y-212650D01*
Y-212196D01*
Y-211742D01*
Y-211289D01*
Y-210835D01*
Y-210382D01*
Y-209928D01*
X1017688D01*
Y-209475D01*
Y-209021D01*
Y-208568D01*
Y-208114D01*
X1018142D01*
Y-207661D01*
Y-207207D01*
Y-206753D01*
X1018595D01*
Y-206300D01*
Y-205846D01*
Y-205393D01*
X1019049D01*
Y-204939D01*
Y-204486D01*
X1019503D01*
Y-204032D01*
Y-203578D01*
X1019956D01*
Y-203125D01*
Y-202671D01*
X1020410D01*
Y-202218D01*
X1020863D01*
Y-201764D01*
Y-201311D01*
X1021317D01*
Y-200857D01*
X1021770D01*
Y-200404D01*
X1022224D01*
Y-199950D01*
X1022678D01*
Y-199496D01*
X1023131D01*
Y-199043D01*
X1023585D01*
Y-198589D01*
X1024038D01*
Y-198136D01*
X1024492D01*
Y-197682D01*
X1025399D01*
Y-197229D01*
X1025852D01*
Y-196775D01*
X1026759D01*
Y-196322D01*
X1027667D01*
Y-195868D01*
X1028574D01*
Y-195414D01*
X1029481D01*
Y-194961D01*
X1030841D01*
Y-194507D01*
X1032202D01*
Y-194054D01*
X1034470D01*
Y-193600D01*
X1045355D01*
Y-194054D01*
D02*
G37*
G36*
X1111121Y-194961D02*
X1110667D01*
Y-195414D01*
Y-195868D01*
X1110214D01*
Y-196322D01*
X1109760D01*
Y-196775D01*
X1109307D01*
Y-197229D01*
Y-197682D01*
X1108853D01*
Y-198136D01*
X1108400D01*
Y-198589D01*
Y-199043D01*
X1107946D01*
Y-199496D01*
X1107492D01*
Y-199950D01*
X1107039D01*
Y-200404D01*
Y-200857D01*
X1106585D01*
Y-201311D01*
X1106132D01*
Y-201764D01*
X1105678D01*
Y-202218D01*
Y-202671D01*
X1105225D01*
Y-203125D01*
X1104771D01*
Y-203578D01*
X1104317D01*
Y-204032D01*
Y-204486D01*
X1103864D01*
Y-204939D01*
X1103410D01*
Y-205393D01*
Y-205846D01*
X1102957D01*
Y-206300D01*
X1102503D01*
Y-206753D01*
X1102050D01*
Y-207207D01*
Y-207661D01*
X1101596D01*
Y-208114D01*
X1101143D01*
Y-208568D01*
X1100689D01*
Y-209021D01*
Y-209475D01*
X1100236D01*
Y-209928D01*
X1099782D01*
Y-210382D01*
Y-210835D01*
X1099328D01*
Y-211289D01*
X1098875D01*
Y-211742D01*
X1098421D01*
Y-212196D01*
Y-212650D01*
X1097968D01*
Y-213103D01*
X1097514D01*
Y-213557D01*
X1097061D01*
Y-214010D01*
Y-214464D01*
X1096607D01*
Y-214917D01*
X1096153D01*
Y-215371D01*
X1095700D01*
Y-215825D01*
Y-216278D01*
Y-216732D01*
X1096153D01*
Y-217185D01*
Y-217639D01*
X1096607D01*
Y-218092D01*
X1097061D01*
Y-218546D01*
X1097514D01*
Y-218999D01*
Y-219453D01*
X1097968D01*
Y-219907D01*
X1098421D01*
Y-220360D01*
X1098875D01*
Y-220814D01*
Y-221267D01*
X1099328D01*
Y-221721D01*
X1099782D01*
Y-222174D01*
Y-222628D01*
X1100236D01*
Y-223081D01*
X1100689D01*
Y-223535D01*
X1101143D01*
Y-223988D01*
Y-224442D01*
X1101596D01*
Y-224896D01*
X1102050D01*
Y-225349D01*
X1102503D01*
Y-225803D01*
Y-226256D01*
X1102957D01*
Y-226710D01*
X1103410D01*
Y-227163D01*
X1103864D01*
Y-227617D01*
Y-228071D01*
X1104317D01*
Y-228524D01*
X1104771D01*
Y-228978D01*
X1105225D01*
Y-229431D01*
Y-229885D01*
X1105678D01*
Y-230338D01*
X1106132D01*
Y-230792D01*
X1106585D01*
Y-231245D01*
Y-231699D01*
X1107039D01*
Y-232153D01*
X1107492D01*
Y-232606D01*
X1107946D01*
Y-233060D01*
Y-233513D01*
X1108400D01*
Y-233967D01*
X1108853D01*
Y-234420D01*
Y-234874D01*
X1109307D01*
Y-235327D01*
X1109760D01*
Y-235781D01*
X1110214D01*
Y-236234D01*
Y-236688D01*
X1110667D01*
Y-237142D01*
X1111121D01*
Y-237595D01*
X1111574D01*
Y-238049D01*
X1112028D01*
Y-238502D01*
X1097514D01*
Y-238049D01*
Y-237595D01*
X1097061D01*
Y-237142D01*
X1096607D01*
Y-236688D01*
X1096153D01*
Y-236234D01*
Y-235781D01*
X1095700D01*
Y-235327D01*
X1095246D01*
Y-234874D01*
X1094793D01*
Y-234420D01*
Y-233967D01*
X1094339D01*
Y-233513D01*
X1093886D01*
Y-233060D01*
Y-232606D01*
X1093432D01*
Y-232153D01*
X1092979D01*
Y-231699D01*
X1092525D01*
Y-231245D01*
Y-230792D01*
X1092072D01*
Y-230338D01*
X1091618D01*
Y-229885D01*
X1091164D01*
Y-229431D01*
Y-228978D01*
X1090711D01*
Y-228524D01*
X1090257D01*
Y-228071D01*
Y-227617D01*
X1089804D01*
Y-227163D01*
X1089350D01*
Y-226710D01*
X1088897D01*
Y-226256D01*
Y-225803D01*
X1088443D01*
Y-225349D01*
X1087990D01*
Y-224896D01*
X1087536D01*
Y-224442D01*
X1087082D01*
Y-224896D01*
Y-225349D01*
X1086629D01*
Y-225803D01*
X1086175D01*
Y-226256D01*
X1085722D01*
Y-226710D01*
Y-227163D01*
X1085268D01*
Y-227617D01*
X1084815D01*
Y-228071D01*
Y-228524D01*
X1084361D01*
Y-228978D01*
X1083907D01*
Y-229431D01*
X1083454D01*
Y-229885D01*
Y-230338D01*
X1083000D01*
Y-230792D01*
X1082547D01*
Y-231245D01*
Y-231699D01*
X1082093D01*
Y-232153D01*
X1081640D01*
Y-232606D01*
X1081186D01*
Y-233060D01*
Y-233513D01*
X1080733D01*
Y-233967D01*
X1080279D01*
Y-234420D01*
Y-234874D01*
X1079826D01*
Y-235327D01*
X1079372D01*
Y-235781D01*
X1078918D01*
Y-236234D01*
Y-236688D01*
X1078465D01*
Y-237142D01*
X1078011D01*
Y-237595D01*
Y-238049D01*
X1077558D01*
Y-238502D01*
X1064405D01*
Y-238049D01*
X1064858D01*
Y-237595D01*
X1065312D01*
Y-237142D01*
Y-236688D01*
X1065765D01*
Y-236234D01*
X1066219D01*
Y-235781D01*
X1066672D01*
Y-235327D01*
Y-234874D01*
X1067126D01*
Y-234420D01*
X1067579D01*
Y-233967D01*
Y-233513D01*
X1068033D01*
Y-233060D01*
X1068487D01*
Y-232606D01*
X1068940D01*
Y-232153D01*
X1069394D01*
Y-231699D01*
Y-231245D01*
X1069847D01*
Y-230792D01*
X1070301D01*
Y-230338D01*
Y-229885D01*
X1070754D01*
Y-229431D01*
X1071208D01*
Y-228978D01*
X1071662D01*
Y-228524D01*
Y-228071D01*
X1072115D01*
Y-227617D01*
X1072569D01*
Y-227163D01*
X1073022D01*
Y-226710D01*
Y-226256D01*
X1073476D01*
Y-225803D01*
X1073929D01*
Y-225349D01*
X1074383D01*
Y-224896D01*
Y-224442D01*
X1074836D01*
Y-223988D01*
X1075290D01*
Y-223535D01*
X1075743D01*
Y-223081D01*
Y-222628D01*
X1076197D01*
Y-222174D01*
X1076651D01*
Y-221721D01*
X1077104D01*
Y-221267D01*
Y-220814D01*
X1077558D01*
Y-220360D01*
X1078011D01*
Y-219907D01*
X1078465D01*
Y-219453D01*
Y-218999D01*
X1078918D01*
Y-218546D01*
X1079372D01*
Y-218092D01*
Y-217639D01*
X1079826D01*
Y-217185D01*
X1080279D01*
Y-216732D01*
X1080733D01*
Y-216278D01*
Y-215825D01*
X1080279D01*
Y-215371D01*
X1079826D01*
Y-214917D01*
X1079372D01*
Y-214464D01*
Y-214010D01*
X1078918D01*
Y-213557D01*
X1078465D01*
Y-213103D01*
X1078011D01*
Y-212650D01*
Y-212196D01*
X1077558D01*
Y-211742D01*
X1077104D01*
Y-211289D01*
Y-210835D01*
X1076651D01*
Y-210382D01*
X1076197D01*
Y-209928D01*
X1075743D01*
Y-209475D01*
Y-209021D01*
X1075290D01*
Y-208568D01*
X1074836D01*
Y-208114D01*
X1074383D01*
Y-207661D01*
Y-207207D01*
X1073929D01*
Y-206753D01*
X1073476D01*
Y-206300D01*
Y-205846D01*
X1073022D01*
Y-205393D01*
X1072569D01*
Y-204939D01*
X1072115D01*
Y-204486D01*
Y-204032D01*
X1071662D01*
Y-203578D01*
X1071208D01*
Y-203125D01*
X1070754D01*
Y-202671D01*
Y-202218D01*
X1070301D01*
Y-201764D01*
X1069847D01*
Y-201311D01*
Y-200857D01*
X1069394D01*
Y-200404D01*
X1068940D01*
Y-199950D01*
X1068487D01*
Y-199496D01*
Y-199043D01*
X1068033D01*
Y-198589D01*
X1067579D01*
Y-198136D01*
X1067126D01*
Y-197682D01*
Y-197229D01*
X1066672D01*
Y-196775D01*
X1066219D01*
Y-196322D01*
Y-195868D01*
X1065765D01*
Y-195414D01*
X1065312D01*
Y-194961D01*
X1064858D01*
Y-194507D01*
X1078918D01*
Y-194961D01*
X1079372D01*
Y-195414D01*
X1079826D01*
Y-195868D01*
Y-196322D01*
X1080279D01*
Y-196775D01*
X1080733D01*
Y-197229D01*
X1081186D01*
Y-197682D01*
Y-198136D01*
X1081640D01*
Y-198589D01*
X1082093D01*
Y-199043D01*
Y-199496D01*
X1082547D01*
Y-199950D01*
X1083000D01*
Y-200404D01*
Y-200857D01*
X1083454D01*
Y-201311D01*
X1083907D01*
Y-201764D01*
X1084361D01*
Y-202218D01*
Y-202671D01*
X1084815D01*
Y-203125D01*
X1085268D01*
Y-203578D01*
Y-204032D01*
X1085722D01*
Y-204486D01*
X1086175D01*
Y-204939D01*
X1086629D01*
Y-205393D01*
Y-205846D01*
X1087082D01*
Y-206300D01*
X1087536D01*
Y-206753D01*
Y-207207D01*
X1087990D01*
Y-207661D01*
X1088443D01*
Y-208114D01*
X1088897D01*
Y-207661D01*
X1089350D01*
Y-207207D01*
Y-206753D01*
X1089804D01*
Y-206300D01*
X1090257D01*
Y-205846D01*
X1090711D01*
Y-205393D01*
Y-204939D01*
X1091164D01*
Y-204486D01*
X1091618D01*
Y-204032D01*
Y-203578D01*
X1092072D01*
Y-203125D01*
X1092525D01*
Y-202671D01*
X1092979D01*
Y-202218D01*
Y-201764D01*
X1093432D01*
Y-201311D01*
X1093886D01*
Y-200857D01*
Y-200404D01*
X1094339D01*
Y-199950D01*
X1094793D01*
Y-199496D01*
X1095246D01*
Y-199043D01*
Y-198589D01*
X1095700D01*
Y-198136D01*
X1096153D01*
Y-197682D01*
Y-197229D01*
X1096607D01*
Y-196775D01*
X1097061D01*
Y-196322D01*
X1097514D01*
Y-195868D01*
Y-195414D01*
X1097968D01*
Y-194961D01*
X1098421D01*
Y-194507D01*
X1111121D01*
Y-194961D01*
D02*
G37*
%LPC*%
G36*
X873457Y-173644D02*
X871190D01*
Y-174097D01*
X869376D01*
Y-174551D01*
X868468D01*
Y-175004D01*
X867561D01*
Y-175458D01*
X866654D01*
Y-175912D01*
X866201D01*
Y-176365D01*
X865747D01*
Y-176819D01*
X865294D01*
Y-177272D01*
X864840D01*
Y-177726D01*
Y-178179D01*
X864386D01*
Y-178633D01*
X863933D01*
Y-179086D01*
Y-179540D01*
X863479D01*
Y-179993D01*
Y-180447D01*
Y-180901D01*
Y-181354D01*
X863026D01*
Y-181808D01*
Y-182261D01*
Y-182715D01*
Y-183168D01*
Y-183622D01*
Y-184076D01*
Y-184529D01*
Y-184983D01*
X863479D01*
Y-185436D01*
Y-185890D01*
Y-186343D01*
X863933D01*
Y-186797D01*
Y-187250D01*
X864386D01*
Y-187704D01*
Y-188158D01*
X864840D01*
Y-188611D01*
X865294D01*
Y-189065D01*
X865747D01*
Y-189518D01*
X866201D01*
Y-189972D01*
X866654D01*
Y-190425D01*
X867108D01*
Y-190879D01*
X868015D01*
Y-191332D01*
X868922D01*
Y-191786D01*
X870283D01*
Y-192240D01*
X874365D01*
Y-191786D01*
X875725D01*
Y-191332D01*
X876632D01*
Y-190879D01*
X877540D01*
Y-190425D01*
X877993D01*
Y-189972D01*
X878447D01*
Y-189518D01*
X879354D01*
Y-189065D01*
Y-188611D01*
X879807D01*
Y-188158D01*
X880261D01*
Y-187704D01*
Y-187250D01*
X880714D01*
Y-186797D01*
Y-186343D01*
X881168D01*
Y-185890D01*
Y-185436D01*
Y-184983D01*
X881622D01*
Y-184529D01*
Y-184076D01*
Y-183622D01*
Y-183168D01*
Y-182715D01*
Y-182261D01*
Y-181808D01*
Y-181354D01*
X881168D01*
Y-180901D01*
Y-180447D01*
Y-179993D01*
Y-179540D01*
X880714D01*
Y-179086D01*
Y-178633D01*
X880261D01*
Y-178179D01*
Y-177726D01*
X879807D01*
Y-177272D01*
X879354D01*
Y-176819D01*
X878900D01*
Y-176365D01*
X878447D01*
Y-175912D01*
X877993D01*
Y-175458D01*
X877086D01*
Y-175004D01*
X876632D01*
Y-174551D01*
X875272D01*
Y-174097D01*
X873457D01*
Y-173644D01*
D02*
G37*
G36*
X968251Y-203578D02*
X964169D01*
Y-204032D01*
X962355D01*
Y-204486D01*
X960994D01*
Y-204939D01*
X960087D01*
Y-205393D01*
X959633D01*
Y-205846D01*
X958726D01*
Y-206300D01*
X958272D01*
Y-206753D01*
X957819D01*
Y-207207D01*
Y-207661D01*
X957365D01*
Y-208114D01*
X956912D01*
Y-208568D01*
Y-209021D01*
X956458D01*
Y-209475D01*
Y-209928D01*
X956005D01*
Y-210382D01*
Y-210835D01*
Y-211289D01*
X955551D01*
Y-211742D01*
Y-212196D01*
Y-212650D01*
Y-213103D01*
Y-213557D01*
X955098D01*
Y-214010D01*
Y-214464D01*
Y-214917D01*
Y-215371D01*
Y-215825D01*
Y-216278D01*
Y-216732D01*
Y-217185D01*
Y-217639D01*
Y-218092D01*
Y-218546D01*
Y-218999D01*
Y-219453D01*
X955551D01*
Y-219907D01*
Y-220360D01*
Y-220814D01*
Y-221267D01*
Y-221721D01*
X956005D01*
Y-222174D01*
Y-222628D01*
Y-223081D01*
X956458D01*
Y-223535D01*
Y-223988D01*
X956912D01*
Y-224442D01*
Y-224896D01*
X957365D01*
Y-225349D01*
X957819D01*
Y-225803D01*
X958272D01*
Y-226256D01*
X958726D01*
Y-226710D01*
X959180D01*
Y-227163D01*
X959633D01*
Y-227617D01*
X960540D01*
Y-228071D01*
X961447D01*
Y-228524D01*
X962355D01*
Y-228978D01*
X964622D01*
Y-229431D01*
X967797D01*
Y-228978D01*
X970065D01*
Y-228524D01*
X971426D01*
Y-228071D01*
X972333D01*
Y-227617D01*
X972786D01*
Y-227163D01*
X973693D01*
Y-226710D01*
X974147D01*
Y-226256D01*
X974601D01*
Y-225803D01*
X975054D01*
Y-225349D01*
Y-224896D01*
X975508D01*
Y-224442D01*
X975961D01*
Y-223988D01*
Y-223535D01*
X976415D01*
Y-223081D01*
Y-222628D01*
Y-222174D01*
X976868D01*
Y-221721D01*
Y-221267D01*
Y-220814D01*
Y-220360D01*
X977322D01*
Y-219907D01*
Y-219453D01*
Y-218999D01*
Y-218546D01*
Y-218092D01*
Y-217639D01*
Y-217185D01*
Y-216732D01*
Y-216278D01*
Y-215825D01*
Y-215371D01*
Y-214917D01*
Y-214464D01*
Y-214010D01*
Y-213557D01*
Y-213103D01*
Y-212650D01*
Y-212196D01*
X976868D01*
Y-211742D01*
Y-211289D01*
Y-210835D01*
Y-210382D01*
X976415D01*
Y-209928D01*
Y-209475D01*
X975961D01*
Y-209021D01*
Y-208568D01*
X975508D01*
Y-208114D01*
Y-207661D01*
X975054D01*
Y-207207D01*
X974601D01*
Y-206753D01*
X974147D01*
Y-206300D01*
X973693D01*
Y-205846D01*
X973240D01*
Y-205393D01*
X972333D01*
Y-204939D01*
X971426D01*
Y-204486D01*
X970518D01*
Y-204032D01*
X968251D01*
Y-203578D01*
D02*
G37*
G36*
X1042180D02*
X1037645D01*
Y-204032D01*
X1035831D01*
Y-204486D01*
X1034470D01*
Y-204939D01*
X1033563D01*
Y-205393D01*
X1033109D01*
Y-205846D01*
X1032656D01*
Y-206300D01*
X1032202D01*
Y-206753D01*
X1031749D01*
Y-207207D01*
X1031295D01*
Y-207661D01*
X1030841D01*
Y-208114D01*
X1030388D01*
Y-208568D01*
Y-209021D01*
X1029934D01*
Y-209475D01*
Y-209928D01*
X1029481D01*
Y-210382D01*
Y-210835D01*
Y-211289D01*
X1029027D01*
Y-211742D01*
Y-212196D01*
Y-212650D01*
Y-213103D01*
Y-213557D01*
Y-214010D01*
Y-214464D01*
X1028574D01*
Y-214917D01*
Y-215371D01*
Y-215825D01*
Y-216278D01*
Y-216732D01*
Y-217185D01*
Y-217639D01*
Y-218092D01*
X1029027D01*
Y-218546D01*
Y-218999D01*
Y-219453D01*
Y-219907D01*
Y-220360D01*
Y-220814D01*
Y-221267D01*
X1029481D01*
Y-221721D01*
Y-222174D01*
Y-222628D01*
X1029934D01*
Y-223081D01*
Y-223535D01*
Y-223988D01*
X1030388D01*
Y-224442D01*
X1030841D01*
Y-224896D01*
Y-225349D01*
X1031295D01*
Y-225803D01*
X1031749D01*
Y-226256D01*
X1032202D01*
Y-226710D01*
X1032656D01*
Y-227163D01*
X1033109D01*
Y-227617D01*
X1034016D01*
Y-228071D01*
X1034923D01*
Y-228524D01*
X1036284D01*
Y-228978D01*
X1038552D01*
Y-229431D01*
X1041273D01*
Y-228978D01*
X1043541D01*
Y-228524D01*
X1044902D01*
Y-228071D01*
X1045809D01*
Y-227617D01*
X1046716D01*
Y-227163D01*
X1047169D01*
Y-226710D01*
X1047623D01*
Y-226256D01*
X1048077D01*
Y-225803D01*
X1048530D01*
Y-225349D01*
X1048984D01*
Y-224896D01*
Y-224442D01*
X1049437D01*
Y-223988D01*
X1049891D01*
Y-223535D01*
Y-223081D01*
Y-222628D01*
X1050344D01*
Y-222174D01*
Y-221721D01*
Y-221267D01*
X1050798D01*
Y-220814D01*
Y-220360D01*
Y-219907D01*
Y-219453D01*
Y-218999D01*
X1051252D01*
Y-218546D01*
Y-218092D01*
Y-217639D01*
Y-217185D01*
Y-216732D01*
Y-216278D01*
Y-215825D01*
Y-215371D01*
Y-214917D01*
Y-214464D01*
Y-214010D01*
X1050798D01*
Y-213557D01*
Y-213103D01*
Y-212650D01*
Y-212196D01*
Y-211742D01*
Y-211289D01*
X1050344D01*
Y-210835D01*
Y-210382D01*
Y-209928D01*
X1049891D01*
Y-209475D01*
Y-209021D01*
X1049437D01*
Y-208568D01*
Y-208114D01*
X1048984D01*
Y-207661D01*
X1048530D01*
Y-207207D01*
X1048077D01*
Y-206753D01*
X1047623D01*
Y-206300D01*
X1047169D01*
Y-205846D01*
X1046716D01*
Y-205393D01*
X1045809D01*
Y-204939D01*
X1045355D01*
Y-204486D01*
X1043995D01*
Y-204032D01*
X1042180D01*
Y-203578D01*
D02*
G37*
%LPD*%
D10*
X702322Y3250D02*
Y73250D01*
X623072Y3250D02*
X702322D01*
X623072D02*
Y73250D01*
X702322D01*
X2118913Y432683D02*
X2115044Y442841D01*
X2111174Y432683D01*
X2112625Y436069D02*
X2117462D01*
X2126604Y438004D02*
X2126121Y438971D01*
X2124669Y439455D01*
X2123218D01*
X2121767Y438971D01*
X2121284Y438004D01*
X2121767Y437036D01*
X2122735Y436553D01*
X2125153Y436069D01*
X2126121Y435585D01*
X2126604Y434618D01*
Y434134D01*
X2126121Y433167D01*
X2124669Y432683D01*
X2123218D01*
X2121767Y433167D01*
X2121284Y434134D01*
X2134053Y438004D02*
X2133570Y438971D01*
X2132119Y439455D01*
X2130668D01*
X2129216Y438971D01*
X2128733Y438004D01*
X2129216Y437036D01*
X2130184Y436553D01*
X2132602Y436069D01*
X2133570Y435585D01*
X2134053Y434618D01*
Y434134D01*
X2133570Y433167D01*
X2132119Y432683D01*
X2130668D01*
X2129216Y433167D01*
X2128733Y434134D01*
X2136182Y436553D02*
X2141986D01*
Y437520D01*
X2141503Y438488D01*
X2141019Y438971D01*
X2140051Y439455D01*
X2138600D01*
X2137633Y438971D01*
X2136665Y438004D01*
X2136182Y436553D01*
Y435585D01*
X2136665Y434134D01*
X2137633Y433167D01*
X2138600Y432683D01*
X2140051D01*
X2141019Y433167D01*
X2141986Y434134D01*
X2144163Y439455D02*
Y432683D01*
Y437520D02*
X2145614Y438971D01*
X2146581Y439455D01*
X2148033D01*
X2149000Y438971D01*
X2149484Y437520D01*
Y432683D01*
Y437520D02*
X2150935Y438971D01*
X2151902Y439455D01*
X2153353D01*
X2154321Y438971D01*
X2154804Y437520D01*
Y432683D01*
X2157997Y442841D02*
Y432683D01*
Y438004D02*
X2158964Y438971D01*
X2159932Y439455D01*
X2161383D01*
X2162350Y438971D01*
X2163318Y438004D01*
X2163801Y436553D01*
Y435585D01*
X2163318Y434134D01*
X2162350Y433167D01*
X2161383Y432683D01*
X2159932D01*
X2158964Y433167D01*
X2157997Y434134D01*
X2165978Y442841D02*
Y432683D01*
X2168590Y439455D02*
X2171492Y432683D01*
X2174395Y439455D02*
X2171492Y432683D01*
X2170525Y430748D01*
X2169557Y429781D01*
X2168590Y429297D01*
X2168106D01*
X2187455Y442841D02*
Y432683D01*
X2184069Y442841D02*
X2190840D01*
X2194468Y439455D02*
X2193501Y438971D01*
X2192533Y438004D01*
X2192050Y436553D01*
Y435585D01*
X2192533Y434134D01*
X2193501Y433167D01*
X2194468Y432683D01*
X2195919D01*
X2196887Y433167D01*
X2197854Y434134D01*
X2198338Y435585D01*
Y436553D01*
X2197854Y438004D01*
X2196887Y438971D01*
X2195919Y439455D01*
X2194468D01*
X2200563D02*
Y429297D01*
Y438004D02*
X2201530Y438971D01*
X2202498Y439455D01*
X2203949D01*
X2204916Y438971D01*
X2205884Y438004D01*
X2206367Y436553D01*
Y435585D01*
X2205884Y434134D01*
X2204916Y433167D01*
X2203949Y432683D01*
X2202498D01*
X2201530Y433167D01*
X2200563Y434134D01*
X2227580Y1448258D02*
Y1524508D01*
X2057400Y1448258D02*
Y1524508D01*
X1562100Y1448258D02*
Y1524508D01*
X1470660Y1448258D02*
Y1524508D01*
Y1448258D02*
X2344420D01*
X1470660Y1486358D02*
X2344360D01*
X1582360Y-165262D02*
Y-128686D01*
X1201360D02*
X1582360D01*
X772160D02*
X1201360D01*
X1582360Y-317662D02*
Y-165262D01*
X2115760Y-317662D02*
Y-187868D01*
X1201360Y-317662D02*
Y-128686D01*
X2344360Y-317662D02*
Y-128686D01*
X1582360D02*
X2344360D01*
X1201360Y-187106D02*
X2344360D01*
X1201360Y-250352D02*
X2344360D01*
X1201360Y-317662D02*
X2344360D01*
X772160D02*
Y-128686D01*
Y-317662D02*
X1201360D01*
X2227580Y1524508D02*
Y1681988D01*
X2057400Y1524508D02*
Y1681988D01*
X1562100Y1524508D02*
Y1681988D01*
X1470660D02*
X2344360D01*
X1470660Y1600708D02*
X2344360D01*
X1470660Y1638808D02*
X2344420D01*
X1470660Y1562608D02*
X2344360D01*
X1470660Y1524508D02*
X2344420D01*
X1470660D02*
Y1740408D01*
X-398780Y-367792D02*
X2395220D01*
X2344360Y171288D02*
X2395160D01*
X2344360Y711038D02*
X2395160D01*
X2344360Y1250788D02*
X2395160D01*
X2344360Y-317662D02*
Y1739738D01*
X2395220Y-367792D02*
Y1791208D01*
X-398780D02*
X2395220D01*
X1696660Y1739738D02*
Y1790538D01*
X998160Y1739738D02*
Y1790538D01*
X299660Y1739738D02*
Y1790538D01*
X-348040Y1739738D02*
X2344360D01*
X1696660Y-368462D02*
Y-317662D01*
X998160Y-368462D02*
Y-317662D01*
X299660Y-368462D02*
Y-317662D01*
X-398840Y171288D02*
X-348040D01*
X-398840Y711038D02*
X-348040D01*
X-398840Y1250788D02*
X-348040D01*
X-398780Y-367792D02*
Y1791208D01*
X-348040Y-317662D02*
Y1739738D01*
Y-317662D02*
X2344360D01*
X1588202Y-207172D02*
Y-194476D01*
X1594550D01*
X1596666Y-196592D01*
Y-200824D01*
X1594550Y-202940D01*
X1588202D01*
X1609362Y-196592D02*
X1607246Y-194476D01*
X1603014D01*
X1600898Y-196592D01*
Y-205056D01*
X1603014Y-207172D01*
X1607246D01*
X1609362Y-205056D01*
X1613594Y-194476D02*
Y-207172D01*
X1619942D01*
X1622058Y-205056D01*
Y-202940D01*
X1619942Y-200824D01*
X1613594D01*
X1619942D01*
X1622058Y-198708D01*
Y-196592D01*
X1619942Y-194476D01*
X1613594D01*
X1638985Y-207172D02*
Y-194476D01*
X1647449Y-207172D01*
Y-194476D01*
X1651681Y-207172D02*
Y-198708D01*
X1655913Y-194476D01*
X1660145Y-198708D01*
Y-207172D01*
Y-200824D01*
X1651681D01*
X1664377Y-207172D02*
Y-194476D01*
X1668609Y-198708D01*
X1672841Y-194476D01*
Y-207172D01*
X1685537Y-194476D02*
X1677073D01*
Y-207172D01*
X1685537D01*
X1677073Y-200824D02*
X1681305D01*
X1689769Y-198708D02*
X1691885D01*
Y-200824D01*
X1689769D01*
Y-198708D01*
Y-205056D02*
X1691885D01*
Y-207172D01*
X1689769D01*
Y-205056D01*
X2128542Y-262632D02*
X2126426Y-260516D01*
X2122194D01*
X2120078Y-262632D01*
Y-264748D01*
X2122194Y-266864D01*
X2126426D01*
X2128542Y-268980D01*
Y-271096D01*
X2126426Y-273212D01*
X2122194D01*
X2120078Y-271096D01*
X2141238Y-262632D02*
X2139122Y-260516D01*
X2134890D01*
X2132774Y-262632D01*
Y-271096D01*
X2134890Y-273212D01*
X2139122D01*
X2141238Y-271096D01*
X2145470Y-273212D02*
Y-264748D01*
X2149702Y-260516D01*
X2153934Y-264748D01*
Y-273212D01*
Y-266864D01*
X2145470D01*
X2158166Y-260516D02*
Y-273212D01*
X2166630D01*
X2179326Y-260516D02*
X2170862D01*
Y-273212D01*
X2179326D01*
X2170862Y-266864D02*
X2175094D01*
X2183557Y-264748D02*
X2185673D01*
Y-266864D01*
X2183557D01*
Y-264748D01*
Y-271096D02*
X2185673D01*
Y-273212D01*
X2183557D01*
Y-271096D01*
X1595964Y-258576D02*
X1587500D01*
Y-264924D01*
X1591732D01*
X1587500D01*
Y-271272D01*
X1600196Y-258576D02*
X1604428D01*
X1602312D01*
Y-271272D01*
X1600196D01*
X1604428D01*
X1610776Y-258576D02*
Y-271272D01*
X1619240D01*
X1631936Y-258576D02*
X1623472D01*
Y-271272D01*
X1631936D01*
X1623472Y-264924D02*
X1627704D01*
X1648864Y-271272D02*
Y-258576D01*
X1657327Y-271272D01*
Y-258576D01*
X1661559Y-271272D02*
Y-262808D01*
X1665791Y-258576D01*
X1670023Y-262808D01*
Y-271272D01*
Y-264924D01*
X1661559D01*
X1674255Y-271272D02*
Y-258576D01*
X1678487Y-262808D01*
X1682719Y-258576D01*
Y-271272D01*
X1695415Y-258576D02*
X1686951D01*
Y-271272D01*
X1695415D01*
X1686951Y-264924D02*
X1691183D01*
X1699647Y-262808D02*
X1701763D01*
Y-264924D01*
X1699647D01*
Y-262808D01*
Y-269156D02*
X1701763D01*
Y-271272D01*
X1699647D01*
Y-269156D01*
X1589472Y-152816D02*
Y-140120D01*
X1595820D01*
X1597936Y-142236D01*
Y-146468D01*
X1595820Y-148584D01*
X1589472D01*
X1602168Y-152816D02*
Y-140120D01*
X1608516D01*
X1610632Y-142236D01*
Y-146468D01*
X1608516Y-148584D01*
X1602168D01*
X1606400D02*
X1610632Y-152816D01*
X1621212Y-140120D02*
X1616980D01*
X1614864Y-142236D01*
Y-150700D01*
X1616980Y-152816D01*
X1621212D01*
X1623328Y-150700D01*
Y-142236D01*
X1621212Y-140120D01*
X1636024D02*
X1631792D01*
X1633908D01*
Y-150700D01*
X1631792Y-152816D01*
X1629676D01*
X1627560Y-150700D01*
X1648719Y-140120D02*
X1640255D01*
Y-152816D01*
X1648719D01*
X1640255Y-146468D02*
X1644487D01*
X1661415Y-142236D02*
X1659299Y-140120D01*
X1655067D01*
X1652951Y-142236D01*
Y-150700D01*
X1655067Y-152816D01*
X1659299D01*
X1661415Y-150700D01*
X1665647Y-140120D02*
X1674111D01*
X1669879D01*
Y-152816D01*
X1678343Y-144352D02*
X1680459D01*
Y-146468D01*
X1678343D01*
Y-144352D01*
Y-150700D02*
X1680459D01*
Y-152816D01*
X1678343D01*
Y-150700D01*
X1212872Y-140374D02*
X1204408D01*
Y-153070D01*
X1212872D01*
X1204408Y-146722D02*
X1208640D01*
X1217104Y-153070D02*
Y-140374D01*
X1225568Y-153070D01*
Y-140374D01*
X1238264Y-142490D02*
X1236148Y-140374D01*
X1231916D01*
X1229800Y-142490D01*
Y-150954D01*
X1231916Y-153070D01*
X1236148D01*
X1238264Y-150954D01*
Y-146722D01*
X1234032D01*
X1242496Y-140374D02*
X1246728D01*
X1244612D01*
Y-153070D01*
X1242496D01*
X1246728D01*
X1253076D02*
Y-140374D01*
X1261540Y-153070D01*
Y-140374D01*
X1274235D02*
X1265771D01*
Y-153070D01*
X1274235D01*
X1265771Y-146722D02*
X1270003D01*
X1286931Y-140374D02*
X1278467D01*
Y-153070D01*
X1286931D01*
X1278467Y-146722D02*
X1282699D01*
X1291163Y-153070D02*
Y-140374D01*
X1297511D01*
X1299627Y-142490D01*
Y-146722D01*
X1297511Y-148838D01*
X1291163D01*
X1295395D02*
X1299627Y-153070D01*
X1303859Y-144606D02*
X1305975D01*
Y-146722D01*
X1303859D01*
Y-144606D01*
Y-150954D02*
X1305975D01*
Y-153070D01*
X1303859D01*
Y-150954D01*
X1206500Y-258576D02*
Y-271272D01*
X1212848D01*
X1214964Y-269156D01*
Y-260692D01*
X1212848Y-258576D01*
X1206500D01*
X1219196D02*
Y-271272D01*
X1223428Y-267040D01*
X1227660Y-271272D01*
Y-258576D01*
X1240356Y-260692D02*
X1238240Y-258576D01*
X1234008D01*
X1231892Y-260692D01*
Y-269156D01*
X1234008Y-271272D01*
X1238240D01*
X1240356Y-269156D01*
Y-264924D01*
X1236124D01*
X1257283Y-271272D02*
Y-258576D01*
X1265748Y-271272D01*
Y-258576D01*
X1276327D02*
X1272095D01*
X1269979Y-260692D01*
Y-269156D01*
X1272095Y-271272D01*
X1276327D01*
X1278443Y-269156D01*
Y-260692D01*
X1276327Y-258576D01*
X1282675Y-262808D02*
X1284791D01*
Y-264924D01*
X1282675D01*
Y-262808D01*
Y-269156D02*
X1284791D01*
Y-271272D01*
X1282675D01*
Y-269156D01*
X2121348Y-210474D02*
Y-197778D01*
X2127696D01*
X2129812Y-199894D01*
Y-204126D01*
X2127696Y-206242D01*
X2121348D01*
X2125580D02*
X2129812Y-210474D01*
X2142508Y-197778D02*
X2134044D01*
Y-210474D01*
X2142508D01*
X2134044Y-204126D02*
X2138276D01*
X2146740Y-197778D02*
Y-206242D01*
X2150972Y-210474D01*
X2155204Y-206242D01*
Y-197778D01*
X2159436Y-202010D02*
X2161552D01*
Y-204126D01*
X2159436D01*
Y-202010D01*
Y-208358D02*
X2161552D01*
Y-210474D01*
X2159436D01*
Y-208358D01*
X1205170Y-195492D02*
Y-208188D01*
X1211518D01*
X1213634Y-206072D01*
Y-197608D01*
X1211518Y-195492D01*
X1205170D01*
X1217866Y-208188D02*
Y-199724D01*
X1222098Y-195492D01*
X1226330Y-199724D01*
Y-208188D01*
Y-201840D01*
X1217866D01*
X1230562Y-195492D02*
X1239026D01*
X1234794D01*
Y-208188D01*
X1251722Y-195492D02*
X1243258D01*
Y-208188D01*
X1251722D01*
X1243258Y-201840D02*
X1247490D01*
X1255954Y-199724D02*
X1258070D01*
Y-201840D01*
X1255954D01*
Y-199724D01*
Y-206072D02*
X1258070D01*
Y-208188D01*
X1255954D01*
Y-206072D01*
D14*
X2017194Y-103632D02*
Y643128D01*
X2304214D01*
Y-103632D02*
Y643128D01*
X2017194Y-103632D02*
X2304214D01*
X2057834Y605657D02*
X2253414D01*
X2253824Y1514294D02*
X2245360D01*
Y1501598D01*
X2253824D01*
X2245360Y1507946D02*
X2249592D01*
X2258056Y1501598D02*
Y1514294D01*
X2262288Y1510062D01*
X2266520Y1514294D01*
Y1501598D01*
X2277100Y1514294D02*
X2272868D01*
X2270752Y1512178D01*
Y1503714D01*
X2272868Y1501598D01*
X2277100D01*
X2279216Y1503714D01*
Y1512178D01*
X2277100Y1514294D01*
X2289796D02*
X2285564D01*
X2283448Y1512178D01*
Y1503714D01*
X2285564Y1501598D01*
X2289796D01*
X2291912Y1503714D01*
Y1512178D01*
X2289796Y1514294D01*
X2077720Y1512178D02*
X2079836Y1514294D01*
X2084068D01*
X2086184Y1512178D01*
Y1510062D01*
X2084068Y1507946D01*
X2081952D01*
X2084068D01*
X2086184Y1505830D01*
Y1503714D01*
X2084068Y1501598D01*
X2079836D01*
X2077720Y1503714D01*
X2090416Y1501598D02*
X2098880Y1510062D01*
X2103112Y1501598D02*
X2107344D01*
X2105228D01*
Y1514294D01*
X2103112Y1512178D01*
X2122156Y1514294D02*
X2117924Y1512178D01*
X2113692Y1507946D01*
Y1503714D01*
X2115808Y1501598D01*
X2120040D01*
X2122156Y1503714D01*
Y1505830D01*
X2120040Y1507946D01*
X2113692D01*
X2126388Y1501598D02*
X2134852Y1510062D01*
X2147547Y1501598D02*
X2139084D01*
X2147547Y1510062D01*
Y1512178D01*
X2145431Y1514294D01*
X2141199D01*
X2139084Y1512178D01*
X2151779D02*
X2153895Y1514294D01*
X2158127D01*
X2160243Y1512178D01*
Y1503714D01*
X2158127Y1501598D01*
X2153895D01*
X2151779Y1503714D01*
Y1512178D01*
X2172939Y1501598D02*
X2164475D01*
X2172939Y1510062D01*
Y1512178D01*
X2170823Y1514294D01*
X2166591D01*
X2164475Y1512178D01*
X2177171Y1501598D02*
X2181403D01*
X2179287D01*
Y1514294D01*
X2177171Y1512178D01*
X1600200Y1514294D02*
X1604432D01*
X1602316D01*
Y1501598D01*
X1600200D01*
X1604432D01*
X1610780D02*
Y1510062D01*
X1617128D01*
X1619244Y1507946D01*
Y1501598D01*
X1623476D02*
X1627708D01*
X1625592D01*
Y1510062D01*
X1623476D01*
X1636172Y1512178D02*
Y1510062D01*
X1634056D01*
X1638288D01*
X1636172D01*
Y1503714D01*
X1638288Y1501598D01*
X1644636D02*
X1648868D01*
X1646752D01*
Y1510062D01*
X1644636D01*
X1657332D02*
X1661564D01*
X1663680Y1507946D01*
Y1501598D01*
X1657332D01*
X1655215Y1503714D01*
X1657332Y1505830D01*
X1663680D01*
X1667911Y1501598D02*
X1672143D01*
X1670027D01*
Y1514294D01*
X1667911D01*
X1691187Y1501598D02*
Y1514294D01*
X1697535D01*
X1699651Y1512178D01*
Y1507946D01*
X1697535Y1505830D01*
X1691187D01*
X1703883Y1510062D02*
Y1501598D01*
Y1505830D01*
X1705999Y1507946D01*
X1708115Y1510062D01*
X1710231D01*
X1718695Y1501598D02*
X1722927D01*
X1725043Y1503714D01*
Y1507946D01*
X1722927Y1510062D01*
X1718695D01*
X1716579Y1507946D01*
Y1503714D01*
X1718695Y1501598D01*
X1737739Y1514294D02*
Y1501598D01*
X1731391D01*
X1729275Y1503714D01*
Y1507946D01*
X1731391Y1510062D01*
X1737739D01*
X1741971D02*
Y1503714D01*
X1744087Y1501598D01*
X1750435D01*
Y1510062D01*
X1763131D02*
X1756783D01*
X1754667Y1507946D01*
Y1503714D01*
X1756783Y1501598D01*
X1763131D01*
X1769478Y1512178D02*
Y1510062D01*
X1767363D01*
X1771595D01*
X1769478D01*
Y1503714D01*
X1771595Y1501598D01*
X1777942D02*
X1782174D01*
X1780058D01*
Y1510062D01*
X1777942D01*
X1790638Y1501598D02*
X1794870D01*
X1796986Y1503714D01*
Y1507946D01*
X1794870Y1510062D01*
X1790638D01*
X1788522Y1507946D01*
Y1503714D01*
X1790638Y1501598D01*
X1801218D02*
Y1510062D01*
X1807566D01*
X1809682Y1507946D01*
Y1501598D01*
X1826610D02*
Y1514294D01*
X1832958D01*
X1835074Y1512178D01*
Y1507946D01*
X1832958Y1505830D01*
X1826610D01*
X1830842D02*
X1835074Y1501598D01*
X1845654D02*
X1841422D01*
X1839306Y1503714D01*
Y1507946D01*
X1841422Y1510062D01*
X1845654D01*
X1847770Y1507946D01*
Y1505830D01*
X1839306D01*
X1852002Y1501598D02*
X1856234D01*
X1854118D01*
Y1514294D01*
X1852002D01*
X1868930Y1501598D02*
X1864698D01*
X1862582Y1503714D01*
Y1507946D01*
X1864698Y1510062D01*
X1868930D01*
X1871046Y1507946D01*
Y1505830D01*
X1862582D01*
X1877394Y1510062D02*
X1881626D01*
X1883741Y1507946D01*
Y1501598D01*
X1877394D01*
X1875278Y1503714D01*
X1877394Y1505830D01*
X1883741D01*
X1887973Y1501598D02*
X1894321D01*
X1896437Y1503714D01*
X1894321Y1505830D01*
X1890089D01*
X1887973Y1507946D01*
X1890089Y1510062D01*
X1896437D01*
X1907017Y1501598D02*
X1902785D01*
X1900669Y1503714D01*
Y1507946D01*
X1902785Y1510062D01*
X1907017D01*
X1909133Y1507946D01*
Y1505830D01*
X1900669D01*
X1490980Y1501598D02*
Y1514294D01*
X1497328D01*
X1499444Y1512178D01*
Y1507946D01*
X1497328Y1505830D01*
X1490980D01*
X1495212D02*
X1499444Y1501598D01*
X1510024D02*
X1505792D01*
X1503676Y1503714D01*
Y1507946D01*
X1505792Y1510062D01*
X1510024D01*
X1512140Y1507946D01*
Y1505830D01*
X1503676D01*
X1516372Y1510062D02*
X1520604Y1501598D01*
X1524836Y1510062D01*
X1541763Y1514294D02*
Y1501598D01*
X1548112D01*
X1550228Y1503714D01*
Y1512178D01*
X1548112Y1514294D01*
X1541763D01*
X1490980Y1463498D02*
Y1476194D01*
X1497328D01*
X1499444Y1474078D01*
Y1469846D01*
X1497328Y1467730D01*
X1490980D01*
X1495212D02*
X1499444Y1463498D01*
X1510024D02*
X1505792D01*
X1503676Y1465614D01*
Y1469846D01*
X1505792Y1471962D01*
X1510024D01*
X1512140Y1469846D01*
Y1467730D01*
X1503676D01*
X1516372Y1471962D02*
X1520604Y1463498D01*
X1524836Y1471962D01*
X1550228Y1476194D02*
X1541763D01*
Y1463498D01*
X1550228D01*
X1541763Y1469846D02*
X1545995D01*
X1600200Y1463498D02*
Y1471962D01*
X1604432Y1476194D01*
X1608664Y1471962D01*
Y1463498D01*
Y1469846D01*
X1600200D01*
X1621360Y1476194D02*
Y1463498D01*
X1615012D01*
X1612896Y1465614D01*
Y1469846D01*
X1615012Y1471962D01*
X1621360D01*
X1634056Y1476194D02*
Y1463498D01*
X1627708D01*
X1625592Y1465614D01*
Y1469846D01*
X1627708Y1471962D01*
X1634056D01*
X1638288Y1463498D02*
X1642520D01*
X1640404D01*
Y1471962D01*
X1638288D01*
X1650983Y1474078D02*
Y1471962D01*
X1648868D01*
X1653100D01*
X1650983D01*
Y1465614D01*
X1653100Y1463498D01*
X1659447D02*
X1663680D01*
X1661564D01*
Y1471962D01*
X1659447D01*
X1672143Y1463498D02*
X1676375D01*
X1678491Y1465614D01*
Y1469846D01*
X1676375Y1471962D01*
X1672143D01*
X1670027Y1469846D01*
Y1465614D01*
X1672143Y1463498D01*
X1682723D02*
Y1471962D01*
X1689071D01*
X1691187Y1469846D01*
Y1463498D01*
X1710231D02*
X1714463D01*
X1716579Y1465614D01*
Y1469846D01*
X1714463Y1471962D01*
X1710231D01*
X1708115Y1469846D01*
Y1465614D01*
X1710231Y1463498D01*
X1722927D02*
Y1474078D01*
Y1469846D01*
X1720811D01*
X1725043D01*
X1722927D01*
Y1474078D01*
X1725043Y1476194D01*
X1744087D02*
Y1463498D01*
X1750435D01*
X1752551Y1465614D01*
Y1467730D01*
X1750435Y1469846D01*
X1744087D01*
X1750435D01*
X1752551Y1471962D01*
Y1474078D01*
X1750435Y1476194D01*
X1744087D01*
X1765247Y1474078D02*
X1763131Y1476194D01*
X1758899D01*
X1756783Y1474078D01*
Y1465614D01*
X1758899Y1463498D01*
X1763131D01*
X1765247Y1465614D01*
Y1469846D01*
X1761015D01*
X1769478Y1463498D02*
Y1471962D01*
X1773710Y1476194D01*
X1777942Y1471962D01*
Y1463498D01*
Y1469846D01*
X1769478D01*
X1782174D02*
X1790638D01*
X1794870Y1463498D02*
X1799102D01*
X1796986D01*
Y1476194D01*
X1794870Y1474078D01*
X1813914Y1463498D02*
X1805450D01*
X1813914Y1471962D01*
Y1474078D01*
X1811798Y1476194D01*
X1807566D01*
X1805450Y1474078D01*
X1818146Y1463498D02*
X1822378D01*
X1820262D01*
Y1476194D01*
X1818146Y1474078D01*
X1841422Y1476194D02*
X1845654D01*
X1843538D01*
Y1463498D01*
X1841422D01*
X1845654D01*
X1852002D02*
Y1471962D01*
X1858350D01*
X1860466Y1469846D01*
Y1463498D01*
X1866814Y1474078D02*
Y1471962D01*
X1864698D01*
X1868930D01*
X1866814D01*
Y1465614D01*
X1868930Y1463498D01*
X1881626D02*
X1877394D01*
X1875278Y1465614D01*
Y1469846D01*
X1877394Y1471962D01*
X1881626D01*
X1883741Y1469846D01*
Y1467730D01*
X1875278D01*
X1887973Y1471962D02*
Y1463498D01*
Y1467730D01*
X1890089Y1469846D01*
X1892205Y1471962D01*
X1894321D01*
X1902785Y1463498D02*
Y1474078D01*
Y1469846D01*
X1900669D01*
X1904901D01*
X1902785D01*
Y1474078D01*
X1904901Y1476194D01*
X1913365Y1471962D02*
X1917597D01*
X1919713Y1469846D01*
Y1463498D01*
X1913365D01*
X1911249Y1465614D01*
X1913365Y1467730D01*
X1919713D01*
X1932409Y1471962D02*
X1926061D01*
X1923945Y1469846D01*
Y1465614D01*
X1926061Y1463498D01*
X1932409D01*
X1942989D02*
X1938757D01*
X1936641Y1465614D01*
Y1469846D01*
X1938757Y1471962D01*
X1942989D01*
X1945105Y1469846D01*
Y1467730D01*
X1936641D01*
X1962033Y1476194D02*
X1966265D01*
X1964149D01*
Y1463498D01*
X1962033D01*
X1966265D01*
X1981077Y1474078D02*
X1978961Y1476194D01*
X1974729D01*
X1972613Y1474078D01*
Y1465614D01*
X1974729Y1463498D01*
X1978961D01*
X1981077Y1465614D01*
X2084068Y1463498D02*
Y1476194D01*
X2077720Y1469846D01*
X2086184D01*
X2090416Y1463498D02*
X2098880Y1471962D01*
X2111576Y1463498D02*
X2103112D01*
X2111576Y1471962D01*
Y1474078D01*
X2109460Y1476194D01*
X2105228D01*
X2103112Y1474078D01*
X2115808D02*
X2117924Y1476194D01*
X2122156D01*
X2124272Y1474078D01*
Y1471962D01*
X2122156Y1469846D01*
X2124272Y1467730D01*
Y1465614D01*
X2122156Y1463498D01*
X2117924D01*
X2115808Y1465614D01*
Y1467730D01*
X2117924Y1469846D01*
X2115808Y1471962D01*
Y1474078D01*
X2117924Y1469846D02*
X2122156D01*
X2128504Y1463498D02*
X2136967Y1471962D01*
X2149663Y1463498D02*
X2141199D01*
X2149663Y1471962D01*
Y1474078D01*
X2147547Y1476194D01*
X2143315D01*
X2141199Y1474078D01*
X2153895D02*
X2156011Y1476194D01*
X2160243D01*
X2162359Y1474078D01*
Y1465614D01*
X2160243Y1463498D01*
X2156011D01*
X2153895Y1465614D01*
Y1474078D01*
X2175055Y1463498D02*
X2166591D01*
X2175055Y1471962D01*
Y1474078D01*
X2172939Y1476194D01*
X2168707D01*
X2166591Y1474078D01*
X2179287Y1463498D02*
X2183519D01*
X2181403D01*
Y1476194D01*
X2179287Y1474078D01*
X2253824Y1476194D02*
X2245360D01*
Y1463498D01*
X2253824D01*
X2245360Y1469846D02*
X2249592D01*
X2258056Y1463498D02*
Y1476194D01*
X2262288Y1471962D01*
X2266520Y1476194D01*
Y1463498D01*
X2277100Y1476194D02*
X2272868D01*
X2270752Y1474078D01*
Y1465614D01*
X2272868Y1463498D01*
X2277100D01*
X2279216Y1465614D01*
Y1474078D01*
X2277100Y1476194D01*
X2289796D02*
X2285564D01*
X2283448Y1474078D01*
Y1465614D01*
X2285564Y1463498D01*
X2289796D01*
X2291912Y1465614D01*
Y1474078D01*
X2289796Y1476194D01*
X1272540Y-286517D02*
Y-299213D01*
X1275079Y-301752D01*
X1280157D01*
X1282697Y-299213D01*
Y-286517D01*
X1287775D02*
Y-301752D01*
X1295393D01*
X1297932Y-299213D01*
Y-296674D01*
X1295393Y-294135D01*
X1287775D01*
X1295393D01*
X1297932Y-291595D01*
Y-289056D01*
X1295393Y-286517D01*
X1287775D01*
X1303010D02*
X1313167Y-301752D01*
Y-286517D02*
X1303010Y-301752D01*
X1318245Y-286517D02*
Y-301752D01*
Y-294135D01*
X1328402D01*
Y-286517D01*
Y-301752D01*
X1343637Y-286517D02*
X1338559Y-289056D01*
X1333480Y-294135D01*
Y-299213D01*
X1336019Y-301752D01*
X1341098D01*
X1343637Y-299213D01*
Y-296674D01*
X1341098Y-294135D01*
X1333480D01*
X1348715Y-289056D02*
X1351254Y-286517D01*
X1356333D01*
X1358872Y-289056D01*
Y-299213D01*
X1356333Y-301752D01*
X1351254D01*
X1348715Y-299213D01*
Y-289056D01*
X1363950Y-294135D02*
X1374107D01*
X1379185Y-289056D02*
X1381725Y-286517D01*
X1386803D01*
X1389342Y-289056D01*
Y-299213D01*
X1386803Y-301752D01*
X1381725D01*
X1379185Y-299213D01*
Y-289056D01*
X1394421D02*
X1396960Y-286517D01*
X1402038D01*
X1404577Y-289056D01*
Y-299213D01*
X1402038Y-301752D01*
X1396960D01*
X1394421Y-299213D01*
Y-289056D01*
X1409656D02*
X1412195Y-286517D01*
X1417273D01*
X1419812Y-289056D01*
Y-299213D01*
X1417273Y-301752D01*
X1412195D01*
X1409656Y-299213D01*
Y-289056D01*
X1424891D02*
X1427430Y-286517D01*
X1432508D01*
X1435047Y-289056D01*
Y-299213D01*
X1432508Y-301752D01*
X1427430D01*
X1424891Y-299213D01*
Y-289056D01*
X1440126Y-286517D02*
X1450282D01*
Y-289056D01*
X1440126Y-299213D01*
Y-301752D01*
X1455361Y-289056D02*
X1457900Y-286517D01*
X1462978D01*
X1465518Y-289056D01*
Y-299213D01*
X1462978Y-301752D01*
X1457900D01*
X1455361Y-299213D01*
Y-289056D01*
X1480753Y-301752D02*
X1470596D01*
X1480753Y-291595D01*
Y-289056D01*
X1478214Y-286517D01*
X1473135D01*
X1470596Y-289056D01*
X1712802Y-210319D02*
X1699260D01*
Y-230632D01*
X1712802D01*
X1699260Y-220475D02*
X1706031D01*
X1719573Y-210319D02*
Y-223861D01*
X1726345Y-230632D01*
X1733116Y-223861D01*
Y-210319D01*
X1739887D02*
Y-230632D01*
Y-223861D01*
X1753429Y-210319D01*
X1743272Y-220475D01*
X1753429Y-230632D01*
X1760200Y-220475D02*
X1773743D01*
X1780514Y-230632D02*
Y-210319D01*
X1794056Y-230632D01*
Y-210319D01*
X1810984D02*
X1804213D01*
X1800827Y-213704D01*
Y-227246D01*
X1804213Y-230632D01*
X1810984D01*
X1814369Y-227246D01*
Y-213704D01*
X1810984Y-210319D01*
X1821140Y-230632D02*
Y-210319D01*
X1831297D01*
X1834683Y-213704D01*
Y-220475D01*
X1831297Y-223861D01*
X1821140D01*
X1827912D02*
X1834683Y-230632D01*
X1841454D02*
Y-217090D01*
X1848225Y-210319D01*
X1854996Y-217090D01*
Y-230632D01*
Y-220475D01*
X1841454D01*
X1861767D02*
X1875310D01*
X1882081Y-210319D02*
Y-230632D01*
X1892238D01*
X1895623Y-227246D01*
Y-223861D01*
X1892238Y-220475D01*
X1882081D01*
X1892238D01*
X1895623Y-217090D01*
Y-213704D01*
X1892238Y-210319D01*
X1882081D01*
X1902394Y-230632D02*
X1909165D01*
X1905780D01*
Y-210319D01*
X1902394Y-213704D01*
X1919322D02*
X1922708Y-210319D01*
X1929479D01*
X1932864Y-213704D01*
Y-227246D01*
X1929479Y-230632D01*
X1922708D01*
X1919322Y-227246D01*
Y-213704D01*
X2193840Y-229422D02*
Y-209109D01*
X2203997D01*
X2207382Y-212494D01*
Y-219265D01*
X2203997Y-222651D01*
X2193840D01*
X2200611D02*
X2207382Y-229422D01*
X2224310D02*
X2217539D01*
X2214153Y-226036D01*
Y-219265D01*
X2217539Y-215880D01*
X2224310D01*
X2227696Y-219265D01*
Y-222651D01*
X2214153D01*
X2234467Y-215880D02*
X2241238Y-229422D01*
X2248009Y-215880D01*
X2288636Y-209109D02*
X2275094D01*
Y-229422D01*
X2288636D01*
X2275094Y-219265D02*
X2281865D01*
X1699260Y-149359D02*
X1712802D01*
X1706031D01*
Y-169672D01*
X1733116Y-149359D02*
X1719573D01*
Y-169672D01*
X1733116D01*
X1719573Y-159515D02*
X1726345D01*
X1739887D02*
X1753429D01*
X1760200Y-169672D02*
Y-149359D01*
X1770357D01*
X1773743Y-152744D01*
Y-159515D01*
X1770357Y-162901D01*
X1760200D01*
X1766971D02*
X1773743Y-169672D01*
X1780514Y-149359D02*
Y-169672D01*
X1790670D01*
X1794056Y-166286D01*
Y-162901D01*
X1790670Y-159515D01*
X1780514D01*
X1790670D01*
X1794056Y-156130D01*
Y-152744D01*
X1790670Y-149359D01*
X1780514D01*
X1800827Y-169672D02*
X1807598D01*
X1804213D01*
Y-149359D01*
X1800827Y-152744D01*
X1332650Y-151898D02*
X1320800D01*
Y-169672D01*
X1332650D01*
X1320800Y-160785D02*
X1326725D01*
X1338574Y-169672D02*
Y-151898D01*
X1344499Y-157823D01*
X1350424Y-151898D01*
Y-169672D01*
X1365236Y-151898D02*
X1359311D01*
X1356349Y-154860D01*
Y-166710D01*
X1359311Y-169672D01*
X1365236D01*
X1368198Y-166710D01*
Y-154860D01*
X1365236Y-151898D01*
X1383010D02*
X1377085D01*
X1374123Y-154860D01*
Y-166710D01*
X1377085Y-169672D01*
X1383010D01*
X1385972Y-166710D01*
Y-154860D01*
X1383010Y-151898D01*
X1286507Y-230632D02*
Y-212858D01*
X1277620Y-221745D01*
X1289469D01*
X1295394Y-230632D02*
X1307244Y-218783D01*
X1325018Y-230632D02*
X1313168D01*
X1325018Y-218783D01*
Y-215820D01*
X1322056Y-212858D01*
X1316131D01*
X1313168Y-215820D01*
X1330943D02*
X1333905Y-212858D01*
X1339830D01*
X1342792Y-215820D01*
Y-218783D01*
X1339830Y-221745D01*
X1342792Y-224707D01*
Y-227670D01*
X1339830Y-230632D01*
X1333905D01*
X1330943Y-227670D01*
Y-224707D01*
X1333905Y-221745D01*
X1330943Y-218783D01*
Y-215820D01*
X1333905Y-221745D02*
X1339830D01*
X1348717Y-230632D02*
X1360567Y-218783D01*
X1378341Y-230632D02*
X1366491D01*
X1378341Y-218783D01*
Y-215820D01*
X1375378Y-212858D01*
X1369454D01*
X1366491Y-215820D01*
X1384266D02*
X1387228Y-212858D01*
X1393153D01*
X1396115Y-215820D01*
Y-227670D01*
X1393153Y-230632D01*
X1387228D01*
X1384266Y-227670D01*
Y-215820D01*
X1413889Y-230632D02*
X1402040D01*
X1413889Y-218783D01*
Y-215820D01*
X1410927Y-212858D01*
X1405002D01*
X1402040Y-215820D01*
X1419814Y-230632D02*
X1425739D01*
X1422776D01*
Y-212858D01*
X1419814Y-215820D01*
X1610360Y-299212D02*
Y-283977D01*
X1620517Y-299212D01*
Y-283977D01*
X1633213D02*
X1628134D01*
X1625595Y-286516D01*
Y-296673D01*
X1628134Y-299212D01*
X1633213D01*
X1635752Y-296673D01*
Y-286516D01*
X1633213Y-283977D01*
X1640830Y-299212D02*
Y-283977D01*
X1648448D01*
X1650987Y-286516D01*
Y-291595D01*
X1648448Y-294134D01*
X1640830D01*
X1645909D02*
X1650987Y-299212D01*
X1656065D02*
Y-289055D01*
X1661144Y-283977D01*
X1666222Y-289055D01*
Y-299212D01*
Y-291595D01*
X1656065D01*
X1671300D02*
X1681457D01*
X1686535Y-283977D02*
Y-299212D01*
X1694153D01*
X1696692Y-296673D01*
Y-294134D01*
X1694153Y-291595D01*
X1686535D01*
X1694153D01*
X1696692Y-289055D01*
Y-286516D01*
X1694153Y-283977D01*
X1686535D01*
X1701770Y-299212D02*
X1706849D01*
X1704310D01*
Y-283977D01*
X1701770Y-286516D01*
X1714466Y-291595D02*
X1724623D01*
X1739858Y-283977D02*
X1729701D01*
Y-299212D01*
X1739858D01*
X1729701Y-291595D02*
X1734780D01*
X1744937Y-283977D02*
Y-294134D01*
X1750015Y-299212D01*
X1755093Y-294134D01*
Y-283977D01*
X1760172D02*
Y-299212D01*
Y-294134D01*
X1770328Y-283977D01*
X1762711Y-291595D01*
X1770328Y-299212D01*
X1775407D02*
Y-296673D01*
X1777946D01*
Y-299212D01*
X1775407D01*
X1788103D02*
Y-283977D01*
X1795720D01*
X1798259Y-286516D01*
Y-291595D01*
X1795720Y-294134D01*
X1788103D01*
X1813494Y-289055D02*
X1805877D01*
X1803338Y-291595D01*
Y-296673D01*
X1805877Y-299212D01*
X1813494D01*
X1818573Y-283977D02*
Y-299212D01*
X1826190D01*
X1828729Y-296673D01*
Y-294134D01*
Y-291595D01*
X1826190Y-289055D01*
X1818573D01*
X1833808Y-283977D02*
Y-299212D01*
X1841425D01*
X1843964Y-296673D01*
Y-286516D01*
X1841425Y-283977D01*
X1833808D01*
X1851582Y-299212D02*
X1856660D01*
X1859200Y-296673D01*
Y-291595D01*
X1856660Y-289055D01*
X1851582D01*
X1849043Y-291595D01*
Y-296673D01*
X1851582Y-299212D01*
X1874435Y-289055D02*
X1866817D01*
X1864278Y-291595D01*
Y-296673D01*
X1866817Y-299212D01*
X1874435D01*
X924933Y-277057D02*
X923966Y-275123D01*
X922031Y-273188D01*
X920096Y-272220D01*
X916226D01*
X914292Y-273188D01*
X912357Y-275123D01*
X911389Y-277057D01*
X910422Y-279960D01*
Y-284797D01*
X911389Y-287699D01*
X912357Y-289634D01*
X914292Y-291569D01*
X916226Y-292536D01*
X920096D01*
X922031Y-291569D01*
X923966Y-289634D01*
X924933Y-287699D01*
X936445Y-272220D02*
X934510Y-273188D01*
X932576Y-275123D01*
X931608Y-277057D01*
X930641Y-279960D01*
Y-284797D01*
X931608Y-287699D01*
X932576Y-289634D01*
X934510Y-291569D01*
X936445Y-292536D01*
X940315D01*
X942250Y-291569D01*
X944185Y-289634D01*
X945152Y-287699D01*
X946120Y-284797D01*
Y-279960D01*
X945152Y-277057D01*
X944185Y-275123D01*
X942250Y-273188D01*
X940315Y-272220D01*
X936445D01*
X950860D02*
Y-292536D01*
Y-272220D02*
X964404Y-292536D01*
Y-272220D02*
Y-292536D01*
X970014Y-272220D02*
Y-292536D01*
Y-272220D02*
X982591D01*
X970014Y-281894D02*
X977754D01*
X984913Y-272220D02*
Y-292536D01*
X989169Y-272220D02*
Y-292536D01*
Y-272220D02*
X995941D01*
X998843Y-273188D01*
X1000778Y-275123D01*
X1001746Y-277057D01*
X1002713Y-279960D01*
Y-284797D01*
X1001746Y-287699D01*
X1000778Y-289634D01*
X998843Y-291569D01*
X995941Y-292536D01*
X989169D01*
X1019836Y-272220D02*
X1007260D01*
Y-292536D01*
X1019836D01*
X1007260Y-281894D02*
X1014999D01*
X1023222Y-272220D02*
Y-292536D01*
Y-272220D02*
X1036766Y-292536D01*
Y-272220D02*
Y-292536D01*
X1049149Y-272220D02*
Y-292536D01*
X1042377Y-272220D02*
X1055921D01*
X1058339D02*
Y-292536D01*
X1078074D02*
X1070335Y-272220D01*
X1062596Y-292536D01*
X1065498Y-285764D02*
X1075172D01*
X1082815Y-272220D02*
Y-292536D01*
X1094424D01*
X2253824Y1552444D02*
X2245360D01*
Y1539748D01*
X2253824D01*
X2245360Y1546096D02*
X2249592D01*
X2258056Y1539748D02*
Y1552444D01*
X2262288Y1548212D01*
X2266520Y1552444D01*
Y1539748D01*
X2277100Y1552444D02*
X2272868D01*
X2270752Y1550328D01*
Y1541864D01*
X2272868Y1539748D01*
X2277100D01*
X2279216Y1541864D01*
Y1550328D01*
X2277100Y1552444D01*
X2289796D02*
X2285564D01*
X2283448Y1550328D01*
Y1541864D01*
X2285564Y1539748D01*
X2289796D01*
X2291912Y1541864D01*
Y1550328D01*
X2289796Y1552444D01*
X2077720Y1539748D02*
X2081952D01*
X2079836D01*
Y1552444D01*
X2077720Y1550328D01*
X2088300Y1539748D02*
X2092532D01*
X2090416D01*
Y1552444D01*
X2088300Y1550328D01*
X2098880Y1539748D02*
X2107344Y1548212D01*
X2111576Y1539748D02*
X2115808D01*
X2113692D01*
Y1552444D01*
X2111576Y1550328D01*
X2130620Y1552444D02*
X2126388Y1550328D01*
X2122156Y1546096D01*
Y1541864D01*
X2124272Y1539748D01*
X2128504D01*
X2130620Y1541864D01*
Y1543980D01*
X2128504Y1546096D01*
X2122156D01*
X2134852Y1539748D02*
X2143315Y1548212D01*
X2156011Y1539748D02*
X2147547D01*
X2156011Y1548212D01*
Y1550328D01*
X2153895Y1552444D01*
X2149663D01*
X2147547Y1550328D01*
X2160243D02*
X2162359Y1552444D01*
X2166591D01*
X2168707Y1550328D01*
Y1541864D01*
X2166591Y1539748D01*
X2162359D01*
X2160243Y1541864D01*
Y1550328D01*
X2181403Y1539748D02*
X2172939D01*
X2181403Y1548212D01*
Y1550328D01*
X2179287Y1552444D01*
X2175055D01*
X2172939Y1550328D01*
X2185635D02*
X2187751Y1552444D01*
X2191983D01*
X2194099Y1550328D01*
Y1541864D01*
X2191983Y1539748D01*
X2187751D01*
X2185635Y1541864D01*
Y1550328D01*
X1608664Y1552444D02*
X1600200D01*
Y1539748D01*
X1608664D01*
X1600200Y1546096D02*
X1604432D01*
X1612896Y1539748D02*
Y1548212D01*
X1619244D01*
X1621360Y1546096D01*
Y1539748D01*
X1629824Y1535516D02*
X1631940D01*
X1634056Y1537632D01*
Y1548212D01*
X1627708D01*
X1625592Y1546096D01*
Y1541864D01*
X1627708Y1539748D01*
X1634056D01*
X1638288D02*
X1642520D01*
X1640404D01*
Y1548212D01*
X1638288D01*
X1648868Y1539748D02*
Y1548212D01*
X1655215D01*
X1657332Y1546096D01*
Y1539748D01*
X1667911D02*
X1663679D01*
X1661564Y1541864D01*
Y1546096D01*
X1663679Y1548212D01*
X1667911D01*
X1670027Y1546096D01*
Y1543980D01*
X1661564D01*
X1680607Y1539748D02*
X1676375D01*
X1674259Y1541864D01*
Y1546096D01*
X1676375Y1548212D01*
X1680607D01*
X1682723Y1546096D01*
Y1543980D01*
X1674259D01*
X1686955Y1548212D02*
Y1539748D01*
Y1543980D01*
X1689071Y1546096D01*
X1691187Y1548212D01*
X1693303D01*
X1699651Y1539748D02*
X1703883D01*
X1701767D01*
Y1548212D01*
X1699651D01*
X1710231Y1539748D02*
Y1548212D01*
X1716579D01*
X1718695Y1546096D01*
Y1539748D01*
X1727159Y1535516D02*
X1729275D01*
X1731391Y1537632D01*
Y1548212D01*
X1725043D01*
X1722927Y1546096D01*
Y1541864D01*
X1725043Y1539748D01*
X1731391D01*
X1756783Y1550328D02*
X1754667Y1552444D01*
X1750435D01*
X1748319Y1550328D01*
Y1548212D01*
X1750435Y1546096D01*
X1754667D01*
X1756783Y1543980D01*
Y1541864D01*
X1754667Y1539748D01*
X1750435D01*
X1748319Y1541864D01*
X1763130Y1548212D02*
X1767363D01*
X1769478Y1546096D01*
Y1539748D01*
X1763130D01*
X1761015Y1541864D01*
X1763130Y1543980D01*
X1769478D01*
X1773710Y1539748D02*
Y1548212D01*
X1775826D01*
X1777942Y1546096D01*
Y1539748D01*
Y1546096D01*
X1780058Y1548212D01*
X1782174Y1546096D01*
Y1539748D01*
X1786406Y1535516D02*
Y1548212D01*
X1792754D01*
X1794870Y1546096D01*
Y1541864D01*
X1792754Y1539748D01*
X1786406D01*
X1799102D02*
X1803334D01*
X1801218D01*
Y1552444D01*
X1799102D01*
X1816030Y1539748D02*
X1811798D01*
X1809682Y1541864D01*
Y1546096D01*
X1811798Y1548212D01*
X1816030D01*
X1818146Y1546096D01*
Y1543980D01*
X1809682D01*
X1835074Y1539748D02*
Y1552444D01*
X1841422D01*
X1843538Y1550328D01*
Y1546096D01*
X1841422Y1543980D01*
X1835074D01*
X1839306D02*
X1843538Y1539748D01*
X1854118D02*
X1849886D01*
X1847770Y1541864D01*
Y1546096D01*
X1849886Y1548212D01*
X1854118D01*
X1856234Y1546096D01*
Y1543980D01*
X1847770D01*
X1860466Y1539748D02*
X1864698D01*
X1862582D01*
Y1552444D01*
X1860466D01*
X1877393Y1539748D02*
X1873162D01*
X1871046Y1541864D01*
Y1546096D01*
X1873162Y1548212D01*
X1877393D01*
X1879509Y1546096D01*
Y1543980D01*
X1871046D01*
X1885857Y1548212D02*
X1890089D01*
X1892205Y1546096D01*
Y1539748D01*
X1885857D01*
X1883741Y1541864D01*
X1885857Y1543980D01*
X1892205D01*
X1896437Y1539748D02*
X1902785D01*
X1904901Y1541864D01*
X1902785Y1543980D01*
X1898553D01*
X1896437Y1546096D01*
X1898553Y1548212D01*
X1904901D01*
X1915481Y1539748D02*
X1911249D01*
X1909133Y1541864D01*
Y1546096D01*
X1911249Y1548212D01*
X1915481D01*
X1917597Y1546096D01*
Y1543980D01*
X1909133D01*
X1490980Y1539748D02*
Y1552444D01*
X1497328D01*
X1499444Y1550328D01*
Y1546096D01*
X1497328Y1543980D01*
X1490980D01*
X1495212D02*
X1499444Y1539748D01*
X1510024D02*
X1505792D01*
X1503676Y1541864D01*
Y1546096D01*
X1505792Y1548212D01*
X1510024D01*
X1512140Y1546096D01*
Y1543980D01*
X1503676D01*
X1516372Y1548212D02*
X1520604Y1539748D01*
X1524836Y1548212D01*
X1550228Y1550328D02*
X1548112Y1552444D01*
X1543880D01*
X1541763Y1550328D01*
Y1541864D01*
X1543880Y1539748D01*
X1548112D01*
X1550228Y1541864D01*
X1490980Y1577848D02*
Y1590544D01*
X1497328D01*
X1499444Y1588428D01*
Y1584196D01*
X1497328Y1582080D01*
X1490980D01*
X1495212D02*
X1499444Y1577848D01*
X1510024D02*
X1505792D01*
X1503676Y1579964D01*
Y1584196D01*
X1505792Y1586312D01*
X1510024D01*
X1512140Y1584196D01*
Y1582080D01*
X1503676D01*
X1516372Y1586312D02*
X1520604Y1577848D01*
X1524836Y1586312D01*
X1541763Y1590544D02*
Y1577848D01*
X1548112D01*
X1550228Y1579964D01*
Y1582080D01*
X1548112Y1584196D01*
X1541763D01*
X1548112D01*
X1550228Y1586312D01*
Y1588428D01*
X1548112Y1590544D01*
X1541763D01*
X1608664Y1588428D02*
X1606548Y1590544D01*
X1602316D01*
X1600200Y1588428D01*
Y1586312D01*
X1602316Y1584196D01*
X1606548D01*
X1608664Y1582080D01*
Y1579964D01*
X1606548Y1577848D01*
X1602316D01*
X1600200Y1579964D01*
X1619244Y1577848D02*
X1615012D01*
X1612896Y1579964D01*
Y1584196D01*
X1615012Y1586312D01*
X1619244D01*
X1621360Y1584196D01*
Y1582080D01*
X1612896D01*
X1634056Y1586312D02*
X1627708D01*
X1625592Y1584196D01*
Y1579964D01*
X1627708Y1577848D01*
X1634056D01*
X1640404D02*
X1644636D01*
X1646752Y1579964D01*
Y1584196D01*
X1644636Y1586312D01*
X1640404D01*
X1638288Y1584196D01*
Y1579964D01*
X1640404Y1577848D01*
X1650983D02*
Y1586312D01*
X1657332D01*
X1659447Y1584196D01*
Y1577848D01*
X1672143Y1590544D02*
Y1577848D01*
X1665795D01*
X1663679Y1579964D01*
Y1584196D01*
X1665795Y1586312D01*
X1672143D01*
X1689071Y1577848D02*
Y1590544D01*
X1695419D01*
X1697535Y1588428D01*
Y1584196D01*
X1695419Y1582080D01*
X1689071D01*
X1701767Y1586312D02*
Y1577848D01*
Y1582080D01*
X1703883Y1584196D01*
X1705999Y1586312D01*
X1708115D01*
X1716579Y1577848D02*
X1720811D01*
X1722927Y1579964D01*
Y1584196D01*
X1720811Y1586312D01*
X1716579D01*
X1714463Y1584196D01*
Y1579964D01*
X1716579Y1577848D01*
X1729275Y1588428D02*
Y1586312D01*
X1727159D01*
X1731391D01*
X1729275D01*
Y1579964D01*
X1731391Y1577848D01*
X1739855D02*
X1744087D01*
X1746203Y1579964D01*
Y1584196D01*
X1744087Y1586312D01*
X1739855D01*
X1737739Y1584196D01*
Y1579964D01*
X1739855Y1577848D01*
X1752551Y1588428D02*
Y1586312D01*
X1750435D01*
X1754667D01*
X1752551D01*
Y1579964D01*
X1754667Y1577848D01*
X1761015Y1586312D02*
Y1579964D01*
X1763130Y1577848D01*
X1769478D01*
Y1575732D01*
X1767363Y1573616D01*
X1765246D01*
X1769478Y1577848D02*
Y1586312D01*
X1773710Y1573616D02*
Y1586312D01*
X1780058D01*
X1782174Y1584196D01*
Y1579964D01*
X1780058Y1577848D01*
X1773710D01*
X1792754D02*
X1788522D01*
X1786406Y1579964D01*
Y1584196D01*
X1788522Y1586312D01*
X1792754D01*
X1794870Y1584196D01*
Y1582080D01*
X1786406D01*
X1811798Y1577848D02*
Y1590544D01*
X1818146D01*
X1820262Y1588428D01*
Y1584196D01*
X1818146Y1582080D01*
X1811798D01*
X1816030D02*
X1820262Y1577848D01*
X1830842D02*
X1826610D01*
X1824494Y1579964D01*
Y1584196D01*
X1826610Y1586312D01*
X1830842D01*
X1832958Y1584196D01*
Y1582080D01*
X1824494D01*
X1837190Y1577848D02*
X1841422D01*
X1839306D01*
Y1590544D01*
X1837190D01*
X1854118Y1577848D02*
X1849886D01*
X1847770Y1579964D01*
Y1584196D01*
X1849886Y1586312D01*
X1854118D01*
X1856234Y1584196D01*
Y1582080D01*
X1847770D01*
X1862582Y1586312D02*
X1866814D01*
X1868930Y1584196D01*
Y1577848D01*
X1862582D01*
X1860466Y1579964D01*
X1862582Y1582080D01*
X1868930D01*
X1873162Y1577848D02*
X1879509D01*
X1881626Y1579964D01*
X1879509Y1582080D01*
X1875278D01*
X1873162Y1584196D01*
X1875278Y1586312D01*
X1881626D01*
X1892205Y1577848D02*
X1887973D01*
X1885857Y1579964D01*
Y1584196D01*
X1887973Y1586312D01*
X1892205D01*
X1894321Y1584196D01*
Y1582080D01*
X1885857D01*
X2077720Y1579964D02*
X2079836Y1577848D01*
X2084068D01*
X2086184Y1579964D01*
Y1588428D01*
X2084068Y1590544D01*
X2079836D01*
X2077720Y1588428D01*
Y1586312D01*
X2079836Y1584196D01*
X2086184D01*
X2090416Y1577848D02*
X2098880Y1586312D01*
X2103112Y1577848D02*
X2107344D01*
X2105228D01*
Y1590544D01*
X2103112Y1588428D01*
X2122156Y1590544D02*
X2117924Y1588428D01*
X2113692Y1584196D01*
Y1579964D01*
X2115808Y1577848D01*
X2120040D01*
X2122156Y1579964D01*
Y1582080D01*
X2120040Y1584196D01*
X2113692D01*
X2126388Y1577848D02*
X2134852Y1586312D01*
X2147547Y1577848D02*
X2139084D01*
X2147547Y1586312D01*
Y1588428D01*
X2145431Y1590544D01*
X2141199D01*
X2139084Y1588428D01*
X2151779D02*
X2153895Y1590544D01*
X2158127D01*
X2160243Y1588428D01*
Y1579964D01*
X2158127Y1577848D01*
X2153895D01*
X2151779Y1579964D01*
Y1588428D01*
X2172939Y1577848D02*
X2164475D01*
X2172939Y1586312D01*
Y1588428D01*
X2170823Y1590544D01*
X2166591D01*
X2164475Y1588428D01*
X2177171D02*
X2179287Y1590544D01*
X2183519D01*
X2185635Y1588428D01*
Y1579964D01*
X2183519Y1577848D01*
X2179287D01*
X2177171Y1579964D01*
Y1588428D01*
X2253824Y1590544D02*
X2245360D01*
Y1577848D01*
X2253824D01*
X2245360Y1584196D02*
X2249592D01*
X2258056Y1577848D02*
Y1590544D01*
X2262288Y1586312D01*
X2266520Y1590544D01*
Y1577848D01*
X2277100Y1590544D02*
X2272868D01*
X2270752Y1588428D01*
Y1579964D01*
X2272868Y1577848D01*
X2277100D01*
X2279216Y1579964D01*
Y1588428D01*
X2277100Y1590544D01*
X2289796D02*
X2285564D01*
X2283448Y1588428D01*
Y1579964D01*
X2285564Y1577848D01*
X2289796D01*
X2291912Y1579964D01*
Y1588428D01*
X2289796Y1590544D01*
X2253824Y1628644D02*
X2245360D01*
Y1615948D01*
X2253824D01*
X2245360Y1622296D02*
X2249592D01*
X2258056Y1615948D02*
Y1628644D01*
X2262288Y1624412D01*
X2266520Y1628644D01*
Y1615948D01*
X2277100Y1628644D02*
X2272868D01*
X2270752Y1626528D01*
Y1618064D01*
X2272868Y1615948D01*
X2277100D01*
X2279216Y1618064D01*
Y1626528D01*
X2277100Y1628644D01*
X2289796D02*
X2285564D01*
X2283448Y1626528D01*
Y1618064D01*
X2285564Y1615948D01*
X2289796D01*
X2291912Y1618064D01*
Y1626528D01*
X2289796Y1628644D01*
X2077720Y1626104D02*
X2086184D01*
Y1623988D01*
X2077720Y1615524D01*
Y1613408D01*
X2090416D02*
X2098880Y1621872D01*
X2111576Y1613408D02*
X2103112D01*
X2111576Y1621872D01*
Y1623988D01*
X2109460Y1626104D01*
X2105228D01*
X2103112Y1623988D01*
X2115808D02*
X2117924Y1626104D01*
X2122156D01*
X2124272Y1623988D01*
Y1615524D01*
X2122156Y1613408D01*
X2117924D01*
X2115808Y1615524D01*
Y1623988D01*
X2128504Y1613408D02*
X2136967Y1621872D01*
X2149663Y1613408D02*
X2141199D01*
X2149663Y1621872D01*
Y1623988D01*
X2147547Y1626104D01*
X2143315D01*
X2141199Y1623988D01*
X2153895D02*
X2156011Y1626104D01*
X2160243D01*
X2162359Y1623988D01*
Y1615524D01*
X2160243Y1613408D01*
X2156011D01*
X2153895Y1615524D01*
Y1623988D01*
X2175055Y1613408D02*
X2166591D01*
X2175055Y1621872D01*
Y1623988D01*
X2172939Y1626104D01*
X2168707D01*
X2166591Y1623988D01*
X2179287D02*
X2181403Y1626104D01*
X2185635D01*
X2187751Y1623988D01*
Y1615524D01*
X2185635Y1613408D01*
X2181403D01*
X2179287Y1615524D01*
Y1623988D01*
X1600200Y1628644D02*
X1604432D01*
X1602316D01*
Y1615948D01*
X1600200D01*
X1604432D01*
X1610780D02*
Y1624412D01*
X1617128D01*
X1619244Y1622296D01*
Y1615948D01*
X1623476D02*
X1627708D01*
X1625592D01*
Y1624412D01*
X1623476D01*
X1636172Y1626528D02*
Y1624412D01*
X1634056D01*
X1638288D01*
X1636172D01*
Y1618064D01*
X1638288Y1615948D01*
X1644636D02*
X1648868D01*
X1646752D01*
Y1624412D01*
X1644636D01*
X1657332D02*
X1661564D01*
X1663680Y1622296D01*
Y1615948D01*
X1657332D01*
X1655215Y1618064D01*
X1657332Y1620180D01*
X1663680D01*
X1667911Y1615948D02*
X1672143D01*
X1670027D01*
Y1628644D01*
X1667911D01*
X1691187Y1615948D02*
Y1628644D01*
X1697535D01*
X1699651Y1626528D01*
Y1622296D01*
X1697535Y1620180D01*
X1691187D01*
X1703883Y1624412D02*
Y1615948D01*
Y1620180D01*
X1705999Y1622296D01*
X1708115Y1624412D01*
X1710231D01*
X1718695Y1615948D02*
X1722927D01*
X1725043Y1618064D01*
Y1622296D01*
X1722927Y1624412D01*
X1718695D01*
X1716579Y1622296D01*
Y1618064D01*
X1718695Y1615948D01*
X1731391Y1626528D02*
Y1624412D01*
X1729275D01*
X1733507D01*
X1731391D01*
Y1618064D01*
X1733507Y1615948D01*
X1741971D02*
X1746203D01*
X1748319Y1618064D01*
Y1622296D01*
X1746203Y1624412D01*
X1741971D01*
X1739855Y1622296D01*
Y1618064D01*
X1741971Y1615948D01*
X1754667Y1626528D02*
Y1624412D01*
X1752551D01*
X1756783D01*
X1754667D01*
Y1618064D01*
X1756783Y1615948D01*
X1763131Y1624412D02*
Y1618064D01*
X1765247Y1615948D01*
X1771595D01*
Y1613832D01*
X1769478Y1611716D01*
X1767363D01*
X1771595Y1615948D02*
Y1624412D01*
X1775827Y1611716D02*
Y1624412D01*
X1782174D01*
X1784290Y1622296D01*
Y1618064D01*
X1782174Y1615948D01*
X1775827D01*
X1794870D02*
X1790638D01*
X1788522Y1618064D01*
Y1622296D01*
X1790638Y1624412D01*
X1794870D01*
X1796986Y1622296D01*
Y1620180D01*
X1788522D01*
X1813914Y1615948D02*
Y1628644D01*
X1820262D01*
X1822378Y1626528D01*
Y1622296D01*
X1820262Y1620180D01*
X1813914D01*
X1818146D02*
X1822378Y1615948D01*
X1832958D02*
X1828726D01*
X1826610Y1618064D01*
Y1622296D01*
X1828726Y1624412D01*
X1832958D01*
X1835074Y1622296D01*
Y1620180D01*
X1826610D01*
X1839306Y1615948D02*
X1843538D01*
X1841422D01*
Y1628644D01*
X1839306D01*
X1856234Y1615948D02*
X1852002D01*
X1849886Y1618064D01*
Y1622296D01*
X1852002Y1624412D01*
X1856234D01*
X1858350Y1622296D01*
Y1620180D01*
X1849886D01*
X1864698Y1624412D02*
X1868930D01*
X1871046Y1622296D01*
Y1615948D01*
X1864698D01*
X1862582Y1618064D01*
X1864698Y1620180D01*
X1871046D01*
X1875278Y1615948D02*
X1881626D01*
X1883741Y1618064D01*
X1881626Y1620180D01*
X1877394D01*
X1875278Y1622296D01*
X1877394Y1624412D01*
X1883741D01*
X1894321Y1615948D02*
X1890089D01*
X1887973Y1618064D01*
Y1622296D01*
X1890089Y1624412D01*
X1894321D01*
X1896437Y1622296D01*
Y1620180D01*
X1887973D01*
X1490980Y1615948D02*
Y1628644D01*
X1497328D01*
X1499444Y1626528D01*
Y1622296D01*
X1497328Y1620180D01*
X1490980D01*
X1495212D02*
X1499444Y1615948D01*
X1510024D02*
X1505792D01*
X1503676Y1618064D01*
Y1622296D01*
X1505792Y1624412D01*
X1510024D01*
X1512140Y1622296D01*
Y1620180D01*
X1503676D01*
X1516372Y1624412D02*
X1520604Y1615948D01*
X1524836Y1624412D01*
X1541763Y1615948D02*
Y1624412D01*
X1545995Y1628644D01*
X1550228Y1624412D01*
Y1615948D01*
Y1622296D01*
X1541763D01*
X2258060Y1669283D02*
Y1654048D01*
X2265677D01*
X2268217Y1656587D01*
Y1659126D01*
X2265677Y1661665D01*
X2258060D01*
X2265677D01*
X2268217Y1664205D01*
Y1666744D01*
X2265677Y1669283D01*
X2258060D01*
X2273295D02*
Y1666744D01*
X2278373Y1661665D01*
X2283452Y1666744D01*
Y1669283D01*
X2278373Y1661665D02*
Y1654048D01*
X2098040Y1669283D02*
Y1654048D01*
X2105658D01*
X2108197Y1656587D01*
Y1666744D01*
X2105658Y1669283D01*
X2098040D01*
X2113275Y1654048D02*
Y1664205D01*
X2118353Y1669283D01*
X2123432Y1664205D01*
Y1654048D01*
Y1661665D01*
X2113275D01*
X2128510Y1669283D02*
X2138667D01*
X2133589D01*
Y1654048D01*
X2153902Y1669283D02*
X2143745D01*
Y1654048D01*
X2153902D01*
X2143745Y1661665D02*
X2148824D01*
X1600200Y1669283D02*
Y1654048D01*
X1607818D01*
X1610357Y1656587D01*
Y1666744D01*
X1607818Y1669283D01*
X1600200D01*
X1625592D02*
X1615435D01*
Y1654048D01*
X1625592D01*
X1615435Y1661665D02*
X1620513D01*
X1640827Y1666744D02*
X1638288Y1669283D01*
X1633209D01*
X1630670Y1666744D01*
Y1664205D01*
X1633209Y1661665D01*
X1638288D01*
X1640827Y1659126D01*
Y1656587D01*
X1638288Y1654048D01*
X1633209D01*
X1630670Y1656587D01*
X1656062Y1666744D02*
X1653523Y1669283D01*
X1648444D01*
X1645905Y1666744D01*
Y1656587D01*
X1648444Y1654048D01*
X1653523D01*
X1656062Y1656587D01*
X1661140Y1654048D02*
Y1669283D01*
X1668758D01*
X1671297Y1666744D01*
Y1661665D01*
X1668758Y1659126D01*
X1661140D01*
X1666219D02*
X1671297Y1654048D01*
X1676375Y1669283D02*
X1681454D01*
X1678914D01*
Y1654048D01*
X1676375D01*
X1681454D01*
X1689071D02*
Y1669283D01*
X1696689D01*
X1699228Y1666744D01*
Y1661665D01*
X1696689Y1659126D01*
X1689071D01*
X1704306Y1669283D02*
X1714463D01*
X1709385D01*
Y1654048D01*
X1719541Y1669283D02*
X1724620D01*
X1722081D01*
Y1654048D01*
X1719541D01*
X1724620D01*
X1739855Y1669283D02*
X1734776D01*
X1732237Y1666744D01*
Y1656587D01*
X1734776Y1654048D01*
X1739855D01*
X1742394Y1656587D01*
Y1666744D01*
X1739855Y1669283D01*
X1747472Y1654048D02*
Y1669283D01*
X1757629Y1654048D01*
Y1669283D01*
X1490980Y1654048D02*
Y1669283D01*
X1498598D01*
X1501137Y1666744D01*
Y1661665D01*
X1498598Y1659126D01*
X1490980D01*
X1496058D02*
X1501137Y1654048D01*
X1516372Y1669283D02*
X1506215D01*
Y1654048D01*
X1516372D01*
X1506215Y1661665D02*
X1511293D01*
X1521450Y1669283D02*
Y1659126D01*
X1526528Y1654048D01*
X1531607Y1659126D01*
Y1669283D01*
X1849120Y1697228D02*
Y1717541D01*
X1859277D01*
X1862662Y1714156D01*
Y1707385D01*
X1859277Y1703999D01*
X1849120D01*
X1855891D02*
X1862662Y1697228D01*
X1882976Y1717541D02*
X1869433D01*
Y1697228D01*
X1882976D01*
X1869433Y1707385D02*
X1876205D01*
X1889747Y1717541D02*
Y1703999D01*
X1896518Y1697228D01*
X1903289Y1703999D01*
Y1717541D01*
X1910060D02*
X1916831D01*
X1913446D01*
Y1697228D01*
X1910060D01*
X1916831D01*
X1940530Y1714156D02*
X1937145Y1717541D01*
X1930374D01*
X1926988Y1714156D01*
Y1710770D01*
X1930374Y1707385D01*
X1937145D01*
X1940530Y1703999D01*
Y1700614D01*
X1937145Y1697228D01*
X1930374D01*
X1926988Y1700614D01*
X1947301Y1717541D02*
X1954073D01*
X1950687D01*
Y1697228D01*
X1947301D01*
X1954073D01*
X1974386Y1717541D02*
X1967615D01*
X1964229Y1714156D01*
Y1700614D01*
X1967615Y1697228D01*
X1974386D01*
X1977772Y1700614D01*
Y1714156D01*
X1974386Y1717541D01*
X1984543Y1697228D02*
Y1717541D01*
X1998085Y1697228D01*
Y1717541D01*
D15*
X2045134Y449955D02*
X2278814D01*
X2045134Y425825D02*
Y449955D01*
Y425825D02*
X2278814D01*
Y449955D01*
D17*
X2069264Y437890D02*
D03*
D18*
X2207200Y-300390D02*
X2211432D01*
X2209316D01*
Y-287694D01*
X2207200Y-289810D01*
X2217780Y-291926D02*
X2219896D01*
Y-294042D01*
X2217780D01*
Y-291926D01*
Y-298274D02*
X2219896D01*
Y-300390D01*
X2217780D01*
Y-298274D01*
X2228360Y-300390D02*
X2232592D01*
X2230476D01*
Y-287694D01*
X2228360Y-289810D01*
X2363410Y-102528D02*
Y-120304D01*
Y-102528D02*
X2369335D01*
X2371875Y-103374D01*
X2373568Y-105067D01*
X2374414Y-106760D01*
X2375261Y-109300D01*
Y-113532D01*
X2374414Y-116072D01*
X2373568Y-117765D01*
X2371875Y-119458D01*
X2369335Y-120304D01*
X2363410D01*
X2376107Y431720D02*
X2375261Y433413D01*
X2373568Y435106D01*
X2371875Y435952D01*
X2368489D01*
X2366796Y435106D01*
X2365103Y433413D01*
X2364256Y431720D01*
X2363410Y429180D01*
Y424948D01*
X2364256Y422408D01*
X2365103Y420715D01*
X2366796Y419022D01*
X2368489Y418176D01*
X2371875D01*
X2373568Y419022D01*
X2375261Y420715D01*
X2376107Y422408D01*
X2363410Y975702D02*
Y957926D01*
Y975702D02*
X2371028D01*
X2373568Y974856D01*
X2374414Y974009D01*
X2375261Y972316D01*
Y970623D01*
X2374414Y968930D01*
X2373568Y968084D01*
X2371028Y967237D01*
X2363410D02*
X2371028D01*
X2373568Y966391D01*
X2374414Y965544D01*
X2375261Y963851D01*
Y961312D01*
X2374414Y959619D01*
X2373568Y958773D01*
X2371028Y957926D01*
X2363410D01*
X2376954Y1497676D02*
X2370182Y1515452D01*
X2363410Y1497676D01*
X2365950Y1503601D02*
X2374414D01*
X2047520Y1774024D02*
X2039055Y1762173D01*
X2051752D01*
X2047520Y1774024D02*
Y1756248D01*
X1341991Y1774024D02*
X1351302D01*
X1346223Y1767252D01*
X1348763D01*
X1350456Y1766406D01*
X1351302Y1765559D01*
X1352149Y1763020D01*
Y1761327D01*
X1351302Y1758788D01*
X1349609Y1757095D01*
X1347070Y1756248D01*
X1344530D01*
X1341991Y1757095D01*
X1341145Y1757941D01*
X1340298Y1759634D01*
X643914Y1769792D02*
Y1770638D01*
X644761Y1772331D01*
X645608Y1773178D01*
X647300Y1774024D01*
X650686D01*
X652379Y1773178D01*
X653226Y1772331D01*
X654072Y1770638D01*
Y1768945D01*
X653226Y1767252D01*
X651533Y1764713D01*
X643068Y1756248D01*
X654919D01*
X-55600Y1770638D02*
X-53907Y1771485D01*
X-51368Y1774024D01*
Y1756248D01*
X2047520Y-334176D02*
X2039055Y-346027D01*
X2051752D01*
X2047520Y-334176D02*
Y-351952D01*
X1341991Y-334176D02*
X1351302D01*
X1346223Y-340948D01*
X1348763D01*
X1350456Y-341794D01*
X1351302Y-342641D01*
X1352149Y-345180D01*
Y-346873D01*
X1351302Y-349412D01*
X1349609Y-351105D01*
X1347070Y-351952D01*
X1344530D01*
X1341991Y-351105D01*
X1341145Y-350259D01*
X1340298Y-348566D01*
X643914Y-338408D02*
Y-337562D01*
X644761Y-335869D01*
X645608Y-335022D01*
X647300Y-334176D01*
X650686D01*
X652379Y-335022D01*
X653226Y-335869D01*
X654072Y-337562D01*
Y-339255D01*
X653226Y-340948D01*
X651533Y-343487D01*
X643068Y-351952D01*
X654919D01*
X-55600Y-337562D02*
X-53907Y-336715D01*
X-51368Y-334176D01*
Y-351952D01*
X-379790Y-102528D02*
Y-120304D01*
Y-102528D02*
X-373865D01*
X-371325Y-103374D01*
X-369632Y-105067D01*
X-368786Y-106760D01*
X-367939Y-109300D01*
Y-113532D01*
X-368786Y-116072D01*
X-369632Y-117765D01*
X-371325Y-119458D01*
X-373865Y-120304D01*
X-379790D01*
X-367093Y431720D02*
X-367939Y433413D01*
X-369632Y435106D01*
X-371325Y435952D01*
X-374711D01*
X-376404Y435106D01*
X-378097Y433413D01*
X-378943Y431720D01*
X-379790Y429180D01*
Y424948D01*
X-378943Y422408D01*
X-378097Y420715D01*
X-376404Y419022D01*
X-374711Y418176D01*
X-371325D01*
X-369632Y419022D01*
X-367939Y420715D01*
X-367093Y422408D01*
X-379790Y975702D02*
Y957926D01*
Y975702D02*
X-372172D01*
X-369632Y974856D01*
X-368786Y974009D01*
X-367939Y972316D01*
Y970623D01*
X-368786Y968930D01*
X-369632Y968084D01*
X-372172Y967237D01*
X-379790D02*
X-372172D01*
X-369632Y966391D01*
X-368786Y965544D01*
X-367939Y963851D01*
Y961312D01*
X-368786Y959619D01*
X-369632Y958773D01*
X-372172Y957926D01*
X-379790D01*
X-366246Y1497676D02*
X-373018Y1515452D01*
X-379790Y1497676D01*
X-377251Y1503601D02*
X-368786D01*
D19*
X2057834Y633085D02*
Y612769D01*
X2069443D01*
X2087147D02*
X2079407Y633085D01*
X2071668Y612769D01*
X2074570Y619541D02*
X2084244D01*
X2091887Y633085D02*
X2099626Y623410D01*
Y612769D01*
X2107366Y633085D02*
X2099626Y623410D01*
X2122554Y633085D02*
X2109978D01*
Y612769D01*
X2122554D01*
X2109978Y623410D02*
X2117717D01*
X2125940Y633085D02*
Y612769D01*
Y633085D02*
X2134647D01*
X2137549Y632117D01*
X2138516Y631150D01*
X2139484Y629215D01*
Y627280D01*
X2138516Y625345D01*
X2137549Y624378D01*
X2134647Y623410D01*
X2125940D01*
X2132712D02*
X2139484Y612769D01*
X2159993Y633085D02*
Y618573D01*
X2160960Y615671D01*
X2162895Y613736D01*
X2165797Y612769D01*
X2167732D01*
X2170634Y613736D01*
X2172569Y615671D01*
X2173537Y618573D01*
Y633085D01*
X2192691Y630182D02*
X2190757Y632117D01*
X2187854Y633085D01*
X2183985D01*
X2181082Y632117D01*
X2179147Y630182D01*
Y628248D01*
X2180115Y626313D01*
X2181082Y625345D01*
X2183017Y624378D01*
X2188822Y622443D01*
X2190757Y621476D01*
X2191724Y620508D01*
X2192691Y618573D01*
Y615671D01*
X2190757Y613736D01*
X2187854Y612769D01*
X2183985D01*
X2181082Y613736D01*
X2179147Y615671D01*
X2212717Y612769D02*
X2204977Y633085D01*
X2197238Y612769D01*
X2200140Y619541D02*
X2209814D01*
X2231968Y628248D02*
X2231001Y630182D01*
X2229066Y632117D01*
X2227131Y633085D01*
X2223262D01*
X2221327Y632117D01*
X2219392Y630182D01*
X2218424Y628248D01*
X2217457Y625345D01*
Y620508D01*
X2218424Y617606D01*
X2219392Y615671D01*
X2221327Y613736D01*
X2223262Y612769D01*
X2227131D01*
X2229066Y613736D01*
X2231001Y615671D01*
X2231968Y617606D01*
Y620508D01*
X2227131D02*
X2231968D01*
X2249188Y633085D02*
X2236612D01*
Y612769D01*
X2249188D01*
X2236612Y623410D02*
X2244351D01*
D167*
X629920Y99060D02*
Y149860D01*
X706120D01*
Y99060D02*
Y149860D01*
X3048Y182626D02*
X28448D01*
X3048D02*
Y233426D01*
X28448D01*
Y183896D02*
Y233426D01*
X629920Y190500D02*
Y241300D01*
X706120D01*
Y190500D02*
Y241300D01*
X629920Y281940D02*
Y332740D01*
X706120D01*
Y281940D02*
Y332740D01*
D197*
X201750Y320050D02*
G03*
X201750Y320050I-1000J0D01*
G01*
X214536Y173316D02*
G03*
X214536Y173316I-6000J0D01*
G01*
X838120Y85249D02*
G03*
X838120Y85249I-5000J0D01*
G01*
X763206Y282792D02*
G03*
X763206Y282792I-2652J0D01*
G01*
X703750Y459452D02*
G03*
X703750Y459452I-6000J0D01*
G01*
X334179Y196250D02*
G03*
X334179Y196250I-6000J0D01*
G01*
X407162Y388260D02*
G03*
X413512Y381910I6350J0D01*
G01*
Y420010D02*
G03*
X407162Y413660I0J-6350D01*
G01*
X506222Y395880D02*
G03*
X506222Y406040I-3810J5080D01*
G01*
X483362Y381910D02*
G03*
X487172Y383180I0J6350D01*
G01*
Y418740D02*
G03*
X483362Y420010I-3810J-5080D01*
G01*
X90299Y131549D02*
G03*
X90299Y131549I-3900J0D01*
G01*
X106698Y465060D02*
G03*
X106698Y465060I-1250J0D01*
G01*
X64343Y223465D02*
G03*
X64343Y223465I-916J0D01*
G01*
X90176Y512700D02*
G03*
X90176Y512700I-4016J0D01*
G01*
X181208Y31100D02*
G03*
X181208Y31100I-3758J0D01*
G01*
X359008Y513700D02*
G03*
X359008Y513700I-3758J0D01*
G01*
X409400Y31850D02*
G03*
X409400Y31850I-3250J0D01*
G01*
X427537Y324067D02*
G03*
X427537Y324067I-1078J0D01*
G01*
X566436Y36918D02*
G03*
X566436Y36918I-2236J0D01*
G01*
X336104Y251528D02*
G03*
X336104Y251528I-1250J0D01*
G01*
X727436Y105469D02*
G03*
X727436Y105469I-1250J0D01*
G01*
X587608Y513700D02*
G03*
X587608Y513700I-3758J0D01*
G01*
X257861Y462874D02*
G03*
X257861Y462874I-1250J0D01*
G01*
X334168Y130810D02*
G03*
X334168Y130810I-6000J0D01*
G01*
Y115570D02*
G03*
X334168Y115570I-6000J0D01*
G01*
X574734Y407560D02*
G03*
X574734Y407560I-6000J0D01*
G01*
Y438040D02*
G03*
X574734Y438040I-6000J0D01*
G01*
Y422800D02*
G03*
X574734Y422800I-6000J0D01*
G01*
Y453280D02*
G03*
X574734Y453280I-6000J0D01*
G01*
X334168Y158750D02*
G03*
X334168Y158750I-6000J0D01*
G01*
Y173990D02*
G03*
X334168Y173990I-6000J0D01*
G01*
X278776Y79644D02*
G03*
X278776Y79644I-6000J0D01*
G01*
X430650Y274407D02*
G03*
X430650Y274407I-6000J0D01*
G01*
X465352D02*
G03*
X465352Y274407I-6000J0D01*
G01*
X448122D02*
G03*
X448122Y274407I-6000J0D01*
G01*
X395750Y93697D02*
G03*
X395750Y93697I-6000J0D01*
G01*
X260000Y79891D02*
G03*
X260000Y79891I-6000J0D01*
G01*
X710919Y420939D02*
G03*
X710919Y420939I-3900J0D01*
G01*
X482771Y274259D02*
G03*
X482771Y274259I-6000J0D01*
G01*
X570500Y124250D02*
G03*
X570500Y124250I-6000J0D01*
G01*
X296988Y120142D02*
G03*
X296988Y120142I-1078J0D01*
G01*
Y159512D02*
G03*
X296988Y159512I-1078J0D01*
G01*
X374078Y310072D02*
G03*
X374078Y310072I-1078J0D01*
G01*
X374719Y271571D02*
G03*
X374719Y271571I-1078J0D01*
G01*
X212810Y463124D02*
G03*
X212810Y463124I-1250J0D01*
G01*
X63848Y192162D02*
G03*
X63848Y192162I-916J0D01*
G01*
X784950Y146250D02*
G03*
X784950Y146250I-6000J0D01*
G01*
X766202Y147000D02*
G03*
X766202Y147000I-6000J0D01*
G01*
X749881Y146708D02*
G03*
X749881Y146708I-6000J0D01*
G01*
X733322Y146250D02*
G03*
X733322Y146250I-6000J0D01*
G01*
X760506Y197572D02*
G03*
X760506Y197572I-1078J0D01*
G01*
X727834Y197910D02*
G03*
X727834Y197910I-1078J0D01*
G01*
X444601Y184632D02*
G03*
X444601Y184632I-1250J0D01*
G01*
X372702Y452150D02*
G03*
X372702Y452150I-1250J0D01*
G01*
X461278Y303372D02*
G03*
X461278Y303372I-1078J0D01*
G01*
X106693Y260120D02*
Y277120D01*
X115693Y260120D02*
Y277120D01*
X106693Y260120D02*
X115693D01*
X106693Y277120D02*
X115693D01*
X988194Y457836D02*
Y473836D01*
X973194Y457836D02*
Y473836D01*
Y457836D02*
X988194D01*
X973194Y473836D02*
X988194D01*
X984250Y536655D02*
Y545655D01*
X1001250Y536655D02*
Y545655D01*
X984250D02*
X1001250D01*
X984250Y536655D02*
X1001250D01*
X950707Y536500D02*
Y545500D01*
X933707Y536500D02*
Y545500D01*
Y536500D02*
X950707D01*
X933707Y545500D02*
X950707D01*
X984386Y501468D02*
X1001386D01*
X984386Y510468D02*
X1001386D01*
Y501468D02*
Y510468D01*
X984386Y501468D02*
Y510468D01*
X933586D02*
X950586D01*
X933586Y501468D02*
X950586D01*
X933586D02*
Y510468D01*
X950586Y501468D02*
Y510468D01*
X18750Y367828D02*
X53250D01*
X18750Y435828D02*
X53250D01*
X18750Y367828D02*
Y435828D01*
X53250Y367828D02*
Y435828D01*
X55250Y455250D02*
Y472250D01*
X64250Y455250D02*
Y472250D01*
X55250Y455250D02*
X64250D01*
X55250Y472250D02*
X64250D01*
X435750Y212594D02*
X452750D01*
X435750Y221594D02*
X452750D01*
Y212594D02*
Y221594D01*
X435750Y212594D02*
Y221594D01*
X193250Y247550D02*
Y327550D01*
X273250Y247550D02*
Y327550D01*
X193250D02*
X273250D01*
X193250Y247550D02*
X273250D01*
X393328Y450564D02*
X410328D01*
X393328Y459564D02*
X410328D01*
Y450564D02*
Y459564D01*
X393328Y450564D02*
Y459564D01*
X126250Y119803D02*
X144250D01*
X126250Y150803D02*
X144250D01*
Y119803D02*
Y150803D01*
X126250Y119803D02*
Y150803D01*
X251500Y130460D02*
Y148460D01*
X220500Y130460D02*
Y148460D01*
X251500D01*
X220500Y130460D02*
X251500D01*
X605174Y161132D02*
Y170632D01*
X622174Y161132D02*
Y170632D01*
X605174D02*
X622174D01*
X605174Y161132D02*
X622174D01*
X628024Y339417D02*
Y348917D01*
X645024Y339417D02*
Y348917D01*
X628024D02*
X645024D01*
X628024Y339417D02*
X645024D01*
X589250Y109500D02*
X598750D01*
X589250Y126500D02*
X598750D01*
X589250Y109500D02*
Y126500D01*
X598750Y109500D02*
Y126500D01*
X947150Y208350D02*
Y312350D01*
X1090150D01*
Y208350D02*
Y312350D01*
X947150Y208350D02*
X1090150D01*
X436140Y113066D02*
X470640D01*
X436140Y181066D02*
X470640D01*
X436140Y113066D02*
Y181066D01*
X470640Y113066D02*
Y181066D01*
X924500Y188000D02*
X957500D01*
X924500Y204000D02*
X957500D01*
Y188000D02*
Y204000D01*
X924500Y188000D02*
Y204000D01*
X716250Y289932D02*
X766250D01*
X716250Y229932D02*
Y289932D01*
Y229932D02*
X766250D01*
Y289932D01*
X407162Y388260D02*
Y413660D01*
X413512Y381910D02*
X483362D01*
X413512Y420010D02*
X483362D01*
X487172Y383180D02*
X506222Y395880D01*
X487172Y418740D02*
X506222Y406040D01*
X66762Y9640D02*
X156762D01*
X66762D02*
Y71642D01*
X156762D01*
Y9640D02*
Y71642D01*
X2402Y137549D02*
X92399D01*
X2402Y101552D02*
Y137549D01*
Y101552D02*
X92399D01*
Y137549D01*
X885900Y203200D02*
Y507600D01*
X815900D02*
X885900D01*
X815900Y203200D02*
Y507600D01*
Y203200D02*
X885900D01*
X90848Y467500D02*
X107348D01*
X90848Y455000D02*
X107348D01*
Y467500D01*
X90848Y455000D02*
Y467500D01*
X779898Y69001D02*
Y82501D01*
X762898Y69001D02*
Y82501D01*
X779898D01*
X762898Y69001D02*
X779898D01*
X57396Y221053D02*
X65396D01*
X57396D02*
Y237053D01*
X65396D01*
Y221053D02*
Y237053D01*
X87147Y238553D02*
X115147D01*
Y209553D02*
Y238553D01*
X87147Y209553D02*
X115147D01*
X87147D02*
Y238553D01*
X500850Y230909D02*
X562850D01*
X500850Y168909D02*
X562850D01*
Y230909D01*
X500850Y168909D02*
Y230909D01*
X56901Y180250D02*
X64901D01*
X56901Y186250D02*
X64901D01*
Y180250D02*
Y186250D01*
X56901Y180250D02*
Y186250D01*
X125500Y450611D02*
Y458611D01*
X113500D02*
X125500D01*
X113500Y450611D02*
Y458611D01*
Y450611D02*
X125500D01*
X73662Y533450D02*
X327662D01*
Y507950D02*
Y533450D01*
X73662Y507950D02*
X327662D01*
X73662D02*
Y533450D01*
X165102Y25350D02*
Y50850D01*
Y25350D02*
X368302D01*
Y50850D01*
X165102D02*
X368302D01*
X342902Y507950D02*
Y533450D01*
Y507950D02*
X546102D01*
Y533450D01*
X342902D02*
X546102D01*
X393702Y25350D02*
Y50850D01*
Y25350D02*
X546102D01*
Y50850D01*
X393702D02*
X546102D01*
X411334Y436038D02*
X428334D01*
X411334Y426538D02*
X428334D01*
X411334D02*
Y436038D01*
X428334Y426538D02*
Y436038D01*
X329523Y265450D02*
X335523D01*
X329523Y276450D02*
X335523D01*
X329523Y265450D02*
Y276450D01*
X335523Y265450D02*
Y276450D01*
X366723Y226500D02*
X396723D01*
X366723Y196500D02*
Y226500D01*
Y196500D02*
X396723D01*
Y226500D01*
X420459Y312495D02*
Y326495D01*
Y312495D02*
X432459D01*
Y326495D01*
X420459D02*
X432459D01*
X559700Y2918D02*
Y40418D01*
X605700D01*
Y2918D02*
Y40418D01*
X559700Y2918D02*
X605700D01*
X521870Y253998D02*
Y330198D01*
X572870D01*
Y253998D02*
Y330198D01*
X521870Y253998D02*
X572870D01*
X629920Y99060D02*
X706120Y99060D01*
X153250Y452500D02*
X170750D01*
X153250Y462000D02*
X170750D01*
Y452500D02*
Y462000D01*
X153250Y452500D02*
Y462000D01*
X177500Y269620D02*
Y275620D01*
Y269620D02*
X188500D01*
Y275620D01*
X177500D02*
X188500D01*
X968804Y435444D02*
X974804D01*
X968804Y446444D02*
X974804D01*
X968804Y435444D02*
Y446444D01*
X974804Y435444D02*
Y446444D01*
X977694Y435444D02*
X983694D01*
X977694Y446444D02*
X983694D01*
X977694Y435444D02*
Y446444D01*
X983694Y435444D02*
Y446444D01*
X986584Y435444D02*
X992584D01*
X986584Y446444D02*
X992584D01*
X986584Y435444D02*
Y446444D01*
X992584Y435444D02*
Y446444D01*
X740986Y99285D02*
X746986D01*
X740986Y88285D02*
X746986D01*
Y99285D01*
X740986Y88285D02*
Y99285D01*
X324277Y140823D02*
X336277D01*
X324277D02*
Y148823D01*
X336277D01*
Y140823D02*
Y148823D01*
X321914Y97854D02*
X333914D01*
X321914D02*
Y105854D01*
X333914D01*
Y97854D02*
Y105854D01*
X321031Y265450D02*
X327031D01*
X321031Y276450D02*
X327031D01*
X321031Y265450D02*
Y276450D01*
X327031Y265450D02*
Y276450D01*
X321777Y223871D02*
Y229871D01*
X332777Y223871D02*
Y229871D01*
X321777D02*
X332777D01*
X321777Y223871D02*
X332777D01*
X332414Y236928D02*
Y253428D01*
X344914Y236928D02*
Y253428D01*
X332414D02*
X344914D01*
X332414Y236928D02*
X344914D01*
X974429Y318500D02*
X980429D01*
X974429Y329500D02*
X980429D01*
X974429Y318500D02*
Y329500D01*
X980429Y318500D02*
Y329500D01*
X983716Y318750D02*
X989716D01*
X983716Y329750D02*
X989716D01*
X983716Y318750D02*
Y329750D01*
X989716Y318750D02*
Y329750D01*
X286370Y97406D02*
Y103406D01*
X297370Y97406D02*
Y103406D01*
X286370D02*
X297370D01*
X286370Y97406D02*
X297370D01*
X275932Y140256D02*
Y146256D01*
X286932Y140256D02*
Y146256D01*
X275932D02*
X286932D01*
X275932Y140256D02*
X286932D01*
X384379Y247750D02*
Y253750D01*
X373379Y247750D02*
Y253750D01*
Y247750D02*
X384379D01*
X373379Y253750D02*
X384379D01*
X659000Y94250D02*
Y100250D01*
X670000Y94250D02*
Y100250D01*
X659000D02*
X670000D01*
X659000Y94250D02*
X670000D01*
X723746Y90869D02*
Y107369D01*
X736246Y90869D02*
Y107369D01*
X723746D02*
X736246D01*
X723746Y90869D02*
X736246D01*
X970836Y513818D02*
X976836D01*
X970836Y502818D02*
X976836D01*
Y513818D01*
X970836Y502818D02*
Y513818D01*
X571502Y507950D02*
Y533450D01*
Y507950D02*
X774702D01*
Y533450D01*
X571502D02*
X774702D01*
X629920Y190500D02*
X706120Y190500D01*
X629920Y281940D02*
X706120Y281940D01*
X568310Y54280D02*
X579310D01*
X568310D02*
Y60280D01*
X579310D01*
Y54280D02*
Y60280D01*
X586090Y54280D02*
X597090D01*
X586090D02*
Y60280D01*
X597090D01*
Y54280D02*
Y60280D01*
X227750Y374392D02*
X238750D01*
X227750D02*
Y380392D01*
X238750D01*
Y374392D02*
Y380392D01*
X327048Y282053D02*
Y293053D01*
X321048Y282053D02*
X327048D01*
X321048D02*
Y293053D01*
X327048D01*
X146909Y312053D02*
Y323053D01*
X140909Y312053D02*
X146909D01*
X140909D02*
Y323053D01*
X146909D01*
X319500Y353000D02*
Y364000D01*
X313500Y353000D02*
X319500D01*
X313500D02*
Y364000D01*
X319500D01*
X146165Y238236D02*
Y249236D01*
X140165Y238236D02*
X146165D01*
X140165D02*
Y249236D01*
X146165D01*
X241158Y194028D02*
X252158D01*
X241158D02*
Y200028D01*
X252158D01*
Y194028D02*
Y200028D01*
X182803Y199500D02*
X193803D01*
Y193500D02*
Y199500D01*
X182803Y193500D02*
X193803D01*
X182803D02*
Y199500D01*
X136203Y247303D02*
Y264803D01*
X126703Y247303D02*
Y264803D01*
X136203D01*
X126703Y247303D02*
X136203D01*
X71017Y334724D02*
X82017D01*
Y328724D02*
Y334724D01*
X71017Y328724D02*
X82017D01*
X71017D02*
Y334724D01*
X85839Y339992D02*
Y357492D01*
X76339Y339992D02*
Y357492D01*
X85839D01*
X76339Y339992D02*
X85839D01*
X69001Y271120D02*
Y282120D01*
X75001D01*
Y271120D02*
Y282120D01*
X69001Y271120D02*
X75001D01*
X156858Y135339D02*
Y146339D01*
X162858D01*
Y135339D02*
Y146339D01*
X156858Y135339D02*
X162858D01*
X91113Y304654D02*
Y318154D01*
X74113Y304654D02*
Y318154D01*
X91113D01*
X74113Y304654D02*
X91113D01*
X254172Y448274D02*
X266672D01*
X254172Y464774D02*
X266672D01*
Y448274D02*
Y464774D01*
X254172Y448274D02*
Y464774D01*
X706750Y340245D02*
X712750D01*
X706750Y351245D02*
X712750D01*
X706750Y340245D02*
Y351245D01*
X712750Y340245D02*
Y351245D01*
X717250Y340245D02*
X723250D01*
X717250Y351245D02*
X723250D01*
X717250Y340245D02*
Y351245D01*
X723250Y340245D02*
Y351245D01*
X958136Y543662D02*
X964136D01*
X958136Y532662D02*
X964136D01*
Y543662D01*
X958136Y532662D02*
Y543662D01*
Y514008D02*
X964136D01*
X958136Y503008D02*
X964136D01*
Y514008D01*
X958136Y503008D02*
Y514008D01*
X337802Y227385D02*
X343802D01*
X337802Y216385D02*
X343802D01*
Y227385D01*
X337802Y216385D02*
Y227385D01*
X118250Y277071D02*
X124250D01*
X118250Y266071D02*
X124250D01*
Y277071D01*
X118250Y266071D02*
Y277071D01*
X196750Y462674D02*
X202750D01*
X196750Y451674D02*
X202750D01*
Y462674D01*
X196750Y451674D02*
Y462674D01*
X241595Y451750D02*
Y462750D01*
X247595Y451750D02*
Y462750D01*
X241595Y451750D02*
X247595D01*
X241595Y462750D02*
X247595D01*
X281000Y451024D02*
Y462024D01*
X275000Y451024D02*
Y462024D01*
X281000D01*
X275000Y451024D02*
X281000D01*
X321777Y214885D02*
Y220885D01*
X332777Y214885D02*
Y220885D01*
X321777D02*
X332777D01*
X321777Y214885D02*
X332777D01*
X338176Y276553D02*
X344176D01*
X338176Y265553D02*
X344176D01*
Y276553D01*
X338176Y265553D02*
Y276553D01*
X103717Y297250D02*
X120717D01*
X103717Y306750D02*
X120717D01*
Y297250D02*
Y306750D01*
X103717Y297250D02*
Y306750D01*
X96935Y310300D02*
X113935D01*
X96935Y319800D02*
X113935D01*
Y310300D02*
Y319800D01*
X96935Y310300D02*
Y319800D01*
X77891Y271120D02*
X83891D01*
X77891Y282120D02*
X83891D01*
X77891Y271120D02*
Y282120D01*
X83891Y271120D02*
Y282120D01*
X706750Y356513D02*
Y367514D01*
X712750Y356513D02*
Y367514D01*
X706750Y356513D02*
X712750D01*
X706750Y367514D02*
X712750D01*
X717250Y356474D02*
Y367474D01*
X723250Y356474D02*
Y367474D01*
X717250Y356474D02*
X723250D01*
X717250Y367474D02*
X723250D01*
X835112Y103620D02*
X925111D01*
X835112D02*
Y165622D01*
X925111D01*
Y103620D02*
Y165622D01*
X946872Y103620D02*
X1036871D01*
X946872D02*
Y165622D01*
X1036871D01*
Y103620D02*
Y165622D01*
X835112Y9640D02*
X925111D01*
X835112D02*
Y71642D01*
X925111D01*
Y9640D02*
Y71642D01*
X946872Y9640D02*
X1036871D01*
X946872D02*
Y71642D01*
X1036871D01*
Y9640D02*
Y71642D01*
X50440Y466330D02*
Y496330D01*
X5440Y466330D02*
Y496330D01*
Y466330D02*
X50440D01*
X5440Y496330D02*
X50440D01*
X1015478Y439272D02*
X1045478D01*
X1015478Y484272D02*
X1045478D01*
X1015478Y439272D02*
Y484272D01*
X1045478Y439272D02*
Y484272D01*
X699774Y59981D02*
X727774D01*
X699774D02*
Y88981D01*
X727774D01*
Y59981D02*
Y88981D01*
X835252Y143759D02*
X841252D01*
X835252Y135759D02*
X841252D01*
Y143759D01*
X835252Y135759D02*
Y143759D01*
X944420Y144579D02*
X950420D01*
X944420Y136579D02*
X950420D01*
Y144579D01*
X944420Y136579D02*
Y144579D01*
X832660Y50599D02*
X838660D01*
X832660Y42599D02*
X838660D01*
Y50599D01*
X832660Y42599D02*
Y50599D01*
X944420D02*
X950420D01*
X944420Y42599D02*
X950420D01*
Y50599D01*
X944420Y42599D02*
Y50599D01*
X970836Y543472D02*
X976836D01*
X970836Y532472D02*
X976836D01*
Y543472D01*
X970836Y532472D02*
Y543472D01*
X942618Y277019D02*
Y286519D01*
X925118Y277019D02*
Y286519D01*
Y277019D02*
X942618D01*
X925118Y286519D02*
X942618D01*
X798410Y63099D02*
X809410D01*
X798410D02*
Y69099D01*
X809410D01*
Y63099D02*
Y69099D01*
X765000Y88285D02*
Y99285D01*
X759000Y88285D02*
X765000D01*
X759000D02*
Y99285D01*
X765000D01*
X738200Y64715D02*
Y82215D01*
X747700Y64715D02*
Y82215D01*
X738200Y64715D02*
X747700D01*
X738200Y82215D02*
X747700D01*
X942618Y291269D02*
Y300769D01*
X925118Y291269D02*
Y300769D01*
Y291269D02*
X942618D01*
X925118Y300769D02*
X942618D01*
X798410Y79513D02*
X809410D01*
X798410Y73513D02*
X809410D01*
X798410D02*
Y79513D01*
X809410Y73513D02*
Y79513D01*
X383716Y287322D02*
Y293322D01*
X372716Y287322D02*
Y293322D01*
Y287322D02*
X383716D01*
X372716Y293322D02*
X383716D01*
X713019Y390942D02*
Y426939D01*
X623022Y390942D02*
X713019D01*
X623022D02*
Y426939D01*
X713019D01*
X289910Y122570D02*
X301910D01*
Y108570D02*
Y122570D01*
X289910Y108570D02*
X301910D01*
X289910D02*
Y122570D01*
Y161940D02*
X301910D01*
Y147940D02*
Y161940D01*
X289910Y147940D02*
X301910D01*
X289910D02*
Y161940D01*
X367000Y312500D02*
X379000D01*
Y298500D02*
Y312500D01*
X367000Y298500D02*
X379000D01*
X367000D02*
Y312500D01*
X367642Y273999D02*
X379642D01*
Y259999D02*
Y273999D01*
X367642Y259999D02*
X379642D01*
X367642D02*
Y273999D01*
X759158Y219264D02*
X770158D01*
X759158D02*
Y225264D01*
X770158D01*
Y219264D02*
Y225264D01*
X774002Y259632D02*
Y270632D01*
X780002Y259632D02*
Y270632D01*
X774002Y259632D02*
X780002D01*
X774002Y270632D02*
X780002D01*
X755729Y88285D02*
Y99285D01*
X749729Y88285D02*
Y99285D01*
X755729D01*
X749729Y88285D02*
X755729D01*
X114520Y124553D02*
Y135553D01*
X108520Y124553D02*
X114520D01*
X108520D02*
Y135553D01*
X114520D01*
X189750Y125803D02*
Y136803D01*
X183750Y125803D02*
Y136803D01*
X189750D01*
X183750Y125803D02*
X189750D01*
X300133Y126049D02*
Y137049D01*
X306133D01*
Y126049D02*
Y137049D01*
X300133Y126049D02*
X306133D01*
X278932Y131303D02*
X289932D01*
Y125303D02*
Y131303D01*
X278932Y125303D02*
X289932D01*
X278932D02*
Y131303D01*
X299524Y166882D02*
Y177882D01*
X305524D01*
Y166882D02*
Y177882D01*
X299524Y166882D02*
X305524D01*
X384096Y309946D02*
Y320946D01*
X390096D01*
Y309946D02*
Y320946D01*
X384096Y309946D02*
X390096D01*
X368250Y320460D02*
X379250D01*
X368250D02*
Y326460D01*
X379250D01*
Y320460D02*
Y326460D01*
X385750Y271278D02*
Y282278D01*
X391750D01*
Y271278D02*
Y282278D01*
X385750Y271278D02*
X391750D01*
X364375Y285553D02*
X375375D01*
Y279553D02*
Y285553D01*
X364375Y279553D02*
X375375D01*
X364375D02*
Y285553D01*
X322341Y256520D02*
X333341D01*
X322341Y262520D02*
X333341D01*
Y256520D02*
Y262520D01*
X322341Y256520D02*
Y262520D01*
X355750Y267000D02*
X361750D01*
X355750Y256000D02*
X361750D01*
Y267000D01*
X355750Y256000D02*
Y267000D01*
X355394Y305249D02*
X361394D01*
X355394Y294249D02*
X361394D01*
Y305249D01*
X355394Y294249D02*
Y305249D01*
Y310141D02*
X361394D01*
X355394Y321141D02*
X361394D01*
X355394Y310141D02*
Y321141D01*
X361394Y310141D02*
Y321141D01*
X445750Y343175D02*
X451750D01*
X445750Y332175D02*
X451750D01*
X451750Y343175D02*
X451750Y332175D01*
X445750D02*
X445750Y343175D01*
X463250Y332250D02*
X469250D01*
X463250Y343250D02*
X469250D01*
X463250Y332250D02*
Y343250D01*
X469250Y332250D02*
Y343250D01*
X454500Y332250D02*
X460500D01*
X454500Y343250D02*
X460500D01*
X454500Y332250D02*
Y343250D01*
X460500Y332250D02*
Y343250D01*
X414437Y332495D02*
X420437D01*
X414437Y343495D02*
X420437D01*
X414437D02*
X414437Y332495D01*
X420437D02*
X420437Y343495D01*
X435650Y300527D02*
X441650D01*
X435650Y289527D02*
X441650D01*
Y300527D01*
X435650Y289527D02*
Y300527D01*
X417159Y294704D02*
Y305704D01*
X423159Y294704D02*
Y305704D01*
X417159Y294704D02*
X423159D01*
X417159Y305704D02*
X423159D01*
X23928Y361500D02*
X29928D01*
X23928Y350500D02*
X29928D01*
Y361500D01*
X23928Y350500D02*
Y361500D01*
X33000D02*
X39000D01*
X33000Y350500D02*
X39000D01*
Y361500D01*
X33000Y350500D02*
Y361500D01*
X78730Y381925D02*
Y387925D01*
X89730Y381925D02*
Y387925D01*
X78730D02*
X89730D01*
X78730Y381925D02*
X89730D01*
X52920Y440790D02*
Y446790D01*
X63920Y440790D02*
Y446790D01*
X52920D02*
X63920D01*
X52920Y440790D02*
X63920D01*
X354090Y217303D02*
X360090D01*
X354090Y206303D02*
Y217303D01*
Y206303D02*
X360090D01*
Y217303D01*
X209120Y448524D02*
X221620D01*
X209120Y465024D02*
X221620D01*
Y448524D02*
Y465024D01*
X209120Y448524D02*
Y465024D01*
X229630Y462274D02*
X235630D01*
X229630Y451274D02*
X235630D01*
Y462274D01*
X229630Y451274D02*
Y462274D01*
X718230Y51780D02*
Y57780D01*
X707230D02*
X718230D01*
X707230Y51780D02*
Y57780D01*
Y51780D02*
X718230D01*
X612750Y40750D02*
Y51750D01*
X618750D01*
Y40750D02*
Y51750D01*
X612750Y40750D02*
X618750D01*
X623680Y97250D02*
Y108250D01*
X617680Y97250D02*
X623680D01*
X617680D02*
Y108250D01*
X623680D01*
X131750Y350750D02*
X137750D01*
Y361750D01*
X131750D02*
X137750D01*
X131750Y350750D02*
Y361750D01*
X133147Y211750D02*
X139147D01*
X133147Y200750D02*
Y211750D01*
Y200750D02*
X139147D01*
Y211750D01*
X165610Y125803D02*
X171610D01*
Y136803D01*
X165610D02*
X171610D01*
X165610Y125803D02*
Y136803D01*
X323250Y356500D02*
X329250D01*
Y367500D01*
X323250D02*
X329250D01*
X323250Y356500D02*
Y367500D01*
X374988Y355500D02*
X380988D01*
Y366500D01*
X374988D02*
X380988D01*
X374988Y355500D02*
Y366500D01*
X72751Y192620D02*
Y203620D01*
X78751D01*
Y192620D02*
Y203620D01*
X72751Y192620D02*
X78751D01*
X124250Y211750D02*
X130250D01*
X124250Y200750D02*
Y211750D01*
Y200750D02*
X130250D01*
Y211750D01*
X72750Y225000D02*
Y236000D01*
X78750D01*
Y225000D02*
Y236000D01*
X72750Y225000D02*
X78750D01*
X124250Y224097D02*
Y235098D01*
X130250D01*
Y224097D02*
Y235098D01*
X124250Y224097D02*
X130250D01*
X180808Y125803D02*
Y136803D01*
X174808Y125803D02*
Y136803D01*
X180808D01*
X174808Y125803D02*
X180808D01*
X167750Y114938D02*
Y120938D01*
X178750Y114938D02*
Y120938D01*
X167750D02*
X178750D01*
X167750Y114938D02*
X178750D01*
X128546Y86379D02*
Y97379D01*
X134545Y86379D02*
Y97379D01*
X128546Y86379D02*
X134545D01*
X128546Y97379D02*
X134545D01*
X119951Y86379D02*
Y97379D01*
X125951Y86379D02*
Y97379D01*
X119951Y86379D02*
X125951D01*
X119951Y97379D02*
X125951D01*
X111500Y86379D02*
Y97379D01*
X117500Y86379D02*
Y97379D01*
X111500Y86379D02*
X117500D01*
X111500Y97379D02*
X117500D01*
X644420Y60255D02*
Y88255D01*
X615420Y60255D02*
X644420D01*
X615420D02*
Y88255D01*
X644420D01*
X94308Y365553D02*
X122308D01*
Y336553D02*
Y365553D01*
X94308Y336553D02*
X122308D01*
X94308D02*
Y365553D01*
X138358Y162720D02*
Y190720D01*
X167358D01*
Y162720D02*
Y190720D01*
X138358Y162720D02*
X167358D01*
X338750Y369973D02*
X366750D01*
Y340973D02*
Y369973D01*
X338750Y340973D02*
X366750D01*
X338750D02*
Y369973D01*
X87147Y207250D02*
X115147D01*
Y178250D02*
Y207250D01*
X87147Y178250D02*
X115147D01*
X87147D02*
Y207250D01*
X56900Y189750D02*
X64900D01*
X56900D02*
Y205750D01*
X64900D01*
Y189750D02*
Y205750D01*
X282932Y194120D02*
X293932D01*
X282932D02*
Y200120D01*
X293932D01*
Y194120D02*
Y200120D01*
X138763Y281072D02*
Y292072D01*
X144763D01*
Y281072D02*
Y292072D01*
X138763Y281072D02*
X144763D01*
X766871Y203350D02*
Y214350D01*
X772871D01*
Y203350D02*
Y214350D01*
X766871Y203350D02*
X772871D01*
X748263Y210350D02*
X759263D01*
Y204350D02*
Y210350D01*
X748263Y204350D02*
X759263D01*
X748263D02*
Y210350D01*
X733049Y203871D02*
Y214871D01*
X739049D01*
Y203871D02*
Y214871D01*
X733049Y203871D02*
X739049D01*
X715472Y210760D02*
X726472D01*
Y204760D02*
Y210760D01*
X715472Y204760D02*
X726472D01*
X715472D02*
Y210760D01*
X749936Y175015D02*
X760936D01*
X749936Y181015D02*
X760936D01*
Y175015D02*
Y181015D01*
X749936Y175015D02*
Y181015D01*
X717557Y181164D02*
X728557D01*
X717557Y175164D02*
X728557D01*
X717557D02*
Y181164D01*
X728557Y175164D02*
Y181164D01*
X753428Y200000D02*
X765428D01*
Y186000D02*
Y200000D01*
X753428Y186000D02*
X765428D01*
X753428D02*
Y200000D01*
X720757Y200338D02*
X732757D01*
Y186338D02*
Y200338D01*
X720757Y186338D02*
X732757D01*
X720757D02*
Y200338D01*
X281432Y172623D02*
X292432D01*
Y166623D02*
Y172623D01*
X281432Y166623D02*
X292432D01*
X281432D02*
Y172623D01*
X223390Y112570D02*
X234390D01*
X223390D02*
Y118570D01*
X234390D01*
Y112570D02*
Y118570D01*
X232420Y159541D02*
X243420D01*
X232420D02*
Y165541D01*
X243420D01*
Y159541D02*
Y165541D01*
X183400Y153210D02*
X194400D01*
X183400Y159210D02*
X194400D01*
Y153210D02*
Y159210D01*
X183400Y153210D02*
Y159210D01*
X403279Y203273D02*
X420779D01*
X403279Y193773D02*
X420779D01*
X403279D02*
Y203273D01*
X420779Y193773D02*
Y203273D01*
X326596Y480500D02*
X336096D01*
X326596Y463000D02*
X336096D01*
Y480500D01*
X326596Y463000D02*
Y480500D01*
X405500Y182500D02*
Y190500D01*
X393500D02*
X405500D01*
X393500Y182500D02*
Y190500D01*
Y182500D02*
X405500D01*
X321302Y450114D02*
X333302D01*
X321302D02*
Y458114D01*
X333302D01*
Y450114D02*
Y458114D01*
X445791Y182732D02*
Y199232D01*
X433291Y182732D02*
Y199232D01*
Y182732D02*
X445791D01*
X433291Y199232D02*
X445791D01*
X361392Y466750D02*
X373892D01*
X361392Y450250D02*
X373892D01*
X361392D02*
Y466750D01*
X373892Y450250D02*
Y466750D01*
X403937Y205880D02*
X414937Y205880D01*
X403937Y211880D02*
X414937Y211880D01*
Y205880D02*
Y211880D01*
X403937Y205880D02*
Y211880D01*
X415250Y182982D02*
X426250Y182982D01*
X415250Y188982D02*
X426250Y188982D01*
Y182982D02*
Y188982D01*
X415250Y182982D02*
Y188982D01*
X436196Y208670D02*
X447196Y208670D01*
X436196Y202670D02*
X447196Y202670D01*
X436196Y202670D02*
Y208670D01*
X447196Y202670D02*
Y208670D01*
X338750Y462768D02*
X344750D01*
X338750Y473768D02*
X344750D01*
X338750D02*
X338750Y462768D01*
X344750D02*
X344750Y473768D01*
X343033Y451250D02*
Y457250D01*
X354033Y451250D02*
Y457250D01*
X343033Y457250D02*
X354033Y457250D01*
X343033Y451250D02*
X354033Y451250D01*
X381750Y463250D02*
X387750D01*
X381750Y452250D02*
X387750D01*
X387750Y463250D02*
X387750Y452250D01*
X381750D02*
X381750Y463250D01*
X136263Y452500D02*
X147263Y452500D01*
X136263Y458500D02*
X147263Y458500D01*
Y452500D02*
Y458500D01*
X136263Y452500D02*
Y458500D01*
X128806Y463250D02*
X128806Y474250D01*
X122806D02*
X122806Y463250D01*
X122806Y474250D02*
X128806D01*
X122806Y463250D02*
X128806D01*
X102490Y475000D02*
X102490Y486000D01*
X96490D02*
X96490Y475000D01*
X96490Y486000D02*
X102490D01*
X96490Y475000D02*
X102490D01*
X404000Y145500D02*
Y156500D01*
X398000Y145500D02*
Y156500D01*
X404000D01*
X398000Y145500D02*
X404000D01*
X575770Y469656D02*
X575770Y480656D01*
X569770D02*
X569770Y469656D01*
X569770Y480656D02*
X575770D01*
X569770Y469656D02*
X575770D01*
X567500D02*
X567500Y480656D01*
X561500D02*
X561500Y469656D01*
X561500Y480656D02*
X567500D01*
X561500Y469656D02*
X567500D01*
X559400D02*
X559400Y480656D01*
X553400D02*
X553400Y469656D01*
X553400Y480656D02*
X559400D01*
X553400Y469656D02*
X559400D01*
X551500D02*
X551500Y480656D01*
X545500D02*
X545500Y469656D01*
X545500Y480656D02*
X551500D01*
X545500Y469656D02*
X551500D01*
X780551Y170254D02*
X780551Y181254D01*
X774551D02*
X774551Y170254D01*
X774551Y181254D02*
X780551D01*
X774551Y170254D02*
X780551D01*
X767126Y158250D02*
X767126Y169250D01*
X761126D02*
X761126Y158250D01*
X761126Y169250D02*
X767126D01*
X761126Y158250D02*
X767126D01*
X743000Y166250D02*
X754000Y166250D01*
X743000Y172250D02*
X754000Y172250D01*
Y166250D02*
Y172250D01*
X743000Y166250D02*
Y172250D01*
X719411Y170277D02*
X730411D01*
X719411Y164277D02*
X730411D01*
X719411D02*
Y170277D01*
X730411Y164277D02*
Y170277D01*
X1056650Y333960D02*
Y344960D01*
X1050650Y333960D02*
Y344960D01*
X1056650D01*
X1050650Y333960D02*
X1056650D01*
X1052250Y350000D02*
X1063250Y350000D01*
X1052250Y350000D02*
Y356000D01*
X1063250Y356000D01*
X1063250Y350000D01*
X1052000Y322564D02*
X1063000Y322564D01*
X1052000Y322564D02*
Y328564D01*
X1063000Y328564D01*
X1063000Y322564D01*
X403418Y126326D02*
X403418Y137326D01*
X397418D02*
X397418Y126326D01*
X397418Y137326D02*
X403418D01*
X397418Y126326D02*
X403418D01*
X188238Y451564D02*
X188238Y462564D01*
X194238D02*
X194238Y451564D01*
X188238D02*
X194238D01*
X188238Y462564D02*
X194238D01*
X47083Y350500D02*
X47083Y361500D01*
X53083D02*
X53083Y350500D01*
X47083D02*
X53083D01*
X47083Y361500D02*
X53083D01*
X455700Y322542D02*
X461700D01*
X455700Y311542D02*
X455700Y322542D01*
X455700Y311542D02*
X461700D01*
X461700Y322542D02*
X461700Y311542D01*
X463500Y311266D02*
X469500D01*
X469500Y322266D01*
X463500D02*
X469500D01*
X463500D02*
X463500Y311266D01*
X423459Y343495D02*
X429459D01*
X423459Y332495D02*
X423459Y343495D01*
X423459Y332495D02*
X429459D01*
X429459Y343495D02*
X429459Y332495D01*
X431659Y332495D02*
X437659D01*
X437659Y343495D01*
X431659D02*
X437659D01*
X431659D02*
X431659Y332495D01*
X632548Y242924D02*
X643548Y242924D01*
X632548Y248924D02*
X643548Y248924D01*
Y242924D02*
Y248924D01*
X632548Y242924D02*
Y248924D01*
X632654Y234122D02*
X643654D01*
X632654Y240122D02*
X643654D01*
Y234122D02*
Y240122D01*
X632654Y234122D02*
Y240122D01*
X443367Y315790D02*
X443367Y326790D01*
X437367D02*
X437367Y315790D01*
X437367Y326790D02*
X443367D01*
X437367Y315790D02*
X443367D01*
X632548Y251750D02*
X643548D01*
X632548Y257750D02*
X643548D01*
Y251750D02*
Y257750D01*
X632548Y251750D02*
Y257750D01*
X454200Y291800D02*
Y305800D01*
Y291800D02*
X466200D01*
Y305800D01*
X454200D02*
X466200D01*
X257354Y237178D02*
X268354D01*
X257354D02*
Y243178D01*
X268354D01*
Y237178D02*
Y243178D01*
D198*
X559100Y222159D02*
G03*
X559100Y222159I-5000J0D01*
G01*
X646Y253300D02*
Y332550D01*
Y253300D02*
X57402D01*
X646Y332550D02*
X57402D01*
Y253300D02*
Y332550D01*
X732660Y57247D02*
X811910D01*
X732660Y491D02*
Y57247D01*
X811910Y491D02*
Y57247D01*
X732660Y491D02*
X811910D01*
D201*
X1038500Y395000D02*
X1068500D01*
Y364000D02*
Y395000D01*
X1038500Y364000D02*
X1068500D01*
X1038500D02*
Y395000D01*
M02*
