G04*
G04 #@! TF.GenerationSoftware,Altium Limited,Altium Designer,24.5.2 (23)*
G04*
G04 Layer_Color=32768*
%FSLAX44Y44*%
%MOMM*%
G71*
G04*
G04 #@! TF.SameCoordinates,0C5A4069-AE43-482B-AD25-CF0848805004*
G04*
G04*
G04 #@! TF.FilePolarity,Positive*
G04*
G01*
G75*
%ADD10C,0.1270*%
%ADD14C,0.2540*%
%ADD15C,0.2000*%
%ADD17R,4.8260X2.4130*%
%ADD18C,0.1778*%
%ADD19C,0.2997*%
%ADD167C,0.0508*%
%ADD197C,0.0500*%
%ADD198C,0.1000*%
%ADD201C,0.0500*%
%ADD202C,0.0635*%
%ADD203C,0.0050*%
%ADD204C,0.0100*%
G36*
X885250Y-150059D02*
X889786D01*
Y-150512D01*
X892507D01*
Y-150966D01*
X894775D01*
Y-151419D01*
X896589D01*
Y-151873D01*
X898403D01*
Y-152327D01*
X899764D01*
Y-152780D01*
X901124D01*
Y-153234D01*
X902485D01*
Y-153687D01*
X903392D01*
Y-154141D01*
X904753D01*
Y-154594D01*
X905660D01*
Y-155048D01*
X906567D01*
Y-155501D01*
X907474D01*
Y-155955D01*
X908381D01*
Y-156409D01*
X909288D01*
Y-156862D01*
X909742D01*
Y-157316D01*
X910649D01*
Y-157769D01*
X911556D01*
Y-158223D01*
X912010D01*
Y-158676D01*
X912917D01*
Y-159130D01*
X913371D01*
Y-159584D01*
X914278D01*
Y-160037D01*
X914731D01*
Y-160491D01*
X915185D01*
Y-160944D01*
X916092D01*
Y-161398D01*
X916545D01*
Y-161851D01*
X916999D01*
Y-162305D01*
X917452D01*
Y-162758D01*
X918360D01*
Y-163212D01*
X918813D01*
Y-163666D01*
X919267D01*
Y-164119D01*
X919720D01*
Y-164573D01*
X920174D01*
Y-165026D01*
X920627D01*
Y-165480D01*
X921081D01*
Y-165933D01*
X921535D01*
Y-166387D01*
X921988D01*
Y-166840D01*
X922442D01*
Y-167294D01*
X922895D01*
Y-167747D01*
X923349D01*
Y-168201D01*
Y-168655D01*
X923802D01*
Y-169108D01*
X924256D01*
Y-169562D01*
X924709D01*
Y-170015D01*
X925163D01*
Y-170469D01*
Y-170922D01*
X925617D01*
Y-171376D01*
X926070D01*
Y-171830D01*
X926524D01*
Y-172283D01*
Y-172737D01*
X926977D01*
Y-173190D01*
X927431D01*
Y-173644D01*
Y-174097D01*
X927884D01*
Y-174551D01*
X928338D01*
Y-175004D01*
Y-175458D01*
X928791D01*
Y-175912D01*
X929245D01*
Y-176365D01*
Y-176819D01*
X929698D01*
Y-177272D01*
Y-177726D01*
X930152D01*
Y-178179D01*
Y-178633D01*
X930606D01*
Y-179086D01*
Y-179540D01*
X931059D01*
Y-179993D01*
Y-180447D01*
X931513D01*
Y-180901D01*
Y-181354D01*
X931966D01*
Y-181808D01*
Y-182261D01*
X932420D01*
Y-182715D01*
Y-183168D01*
Y-183622D01*
X932873D01*
Y-184076D01*
Y-184529D01*
X933327D01*
Y-184983D01*
Y-185436D01*
Y-185890D01*
X933781D01*
Y-186343D01*
Y-186797D01*
Y-187250D01*
X934234D01*
Y-187704D01*
Y-188158D01*
Y-188611D01*
Y-189065D01*
X934688D01*
Y-189518D01*
Y-189972D01*
Y-190425D01*
Y-190879D01*
X935141D01*
Y-191332D01*
Y-191786D01*
Y-192240D01*
Y-192693D01*
X935595D01*
Y-193147D01*
Y-193600D01*
Y-194054D01*
Y-194507D01*
Y-194961D01*
Y-195414D01*
Y-195868D01*
X936048D01*
Y-196322D01*
Y-196775D01*
Y-197229D01*
Y-197682D01*
Y-198136D01*
Y-198589D01*
Y-199043D01*
Y-199496D01*
Y-199950D01*
Y-200404D01*
Y-200857D01*
X936502D01*
Y-201311D01*
Y-201764D01*
Y-202218D01*
Y-202671D01*
Y-203125D01*
Y-203578D01*
Y-204032D01*
Y-204486D01*
Y-204939D01*
Y-205393D01*
X936048D01*
Y-205846D01*
Y-206300D01*
Y-206753D01*
Y-207207D01*
Y-207661D01*
Y-208114D01*
Y-208568D01*
Y-209021D01*
Y-209475D01*
Y-209928D01*
Y-210382D01*
X935595D01*
Y-210835D01*
Y-211289D01*
Y-211742D01*
Y-212196D01*
Y-212650D01*
Y-213103D01*
X935141D01*
Y-213557D01*
Y-214010D01*
Y-214464D01*
Y-214917D01*
Y-215371D01*
X934688D01*
Y-215825D01*
Y-216278D01*
Y-216732D01*
Y-217185D01*
X934234D01*
Y-217639D01*
Y-218092D01*
Y-218546D01*
Y-218999D01*
X933781D01*
Y-219453D01*
Y-219907D01*
Y-220360D01*
X933327D01*
Y-220814D01*
Y-221267D01*
X932873D01*
Y-221721D01*
Y-222174D01*
Y-222628D01*
X932420D01*
Y-223081D01*
Y-223535D01*
X931966D01*
Y-223988D01*
Y-224442D01*
Y-224896D01*
X931513D01*
Y-225349D01*
Y-225803D01*
X931059D01*
Y-226256D01*
Y-226710D01*
X930606D01*
Y-227163D01*
Y-227617D01*
X930152D01*
Y-228071D01*
Y-228524D01*
X929698D01*
Y-228071D01*
Y-227617D01*
Y-227163D01*
Y-226710D01*
Y-226256D01*
Y-225803D01*
Y-225349D01*
Y-224896D01*
Y-224442D01*
Y-223988D01*
Y-223535D01*
Y-223081D01*
Y-222628D01*
Y-222174D01*
Y-221721D01*
Y-221267D01*
Y-220814D01*
Y-220360D01*
Y-219907D01*
Y-219453D01*
Y-218999D01*
Y-218546D01*
Y-218092D01*
Y-217639D01*
Y-217185D01*
Y-216732D01*
Y-216278D01*
Y-215825D01*
Y-215371D01*
Y-214917D01*
Y-214464D01*
Y-214010D01*
Y-213557D01*
Y-213103D01*
Y-212650D01*
Y-212196D01*
Y-211742D01*
Y-211289D01*
Y-210835D01*
Y-210382D01*
Y-209928D01*
Y-209475D01*
Y-209021D01*
Y-208568D01*
Y-208114D01*
Y-207661D01*
Y-207207D01*
Y-206753D01*
Y-206300D01*
Y-205846D01*
Y-205393D01*
Y-204939D01*
Y-204486D01*
Y-204032D01*
Y-203578D01*
Y-203125D01*
Y-202671D01*
Y-202218D01*
Y-201764D01*
Y-201311D01*
Y-200857D01*
Y-200404D01*
Y-199950D01*
Y-199496D01*
Y-199043D01*
Y-198589D01*
Y-198136D01*
Y-197682D01*
Y-197229D01*
Y-196775D01*
Y-196322D01*
Y-195868D01*
Y-195414D01*
Y-194961D01*
Y-194507D01*
Y-194054D01*
X916999D01*
Y-194507D01*
Y-194961D01*
Y-195414D01*
Y-195868D01*
Y-196322D01*
Y-196775D01*
Y-197229D01*
Y-197682D01*
Y-198136D01*
Y-198589D01*
Y-199043D01*
Y-199496D01*
Y-199950D01*
Y-200404D01*
Y-200857D01*
Y-201311D01*
Y-201764D01*
Y-202218D01*
Y-202671D01*
Y-203125D01*
Y-203578D01*
Y-204032D01*
Y-204486D01*
Y-204939D01*
Y-205393D01*
Y-205846D01*
Y-206300D01*
Y-206753D01*
Y-207207D01*
Y-207661D01*
Y-208114D01*
Y-208568D01*
Y-209021D01*
Y-209475D01*
Y-209928D01*
Y-210382D01*
Y-210835D01*
Y-211289D01*
Y-211742D01*
Y-212196D01*
Y-212650D01*
Y-213103D01*
Y-213557D01*
Y-214010D01*
Y-214464D01*
Y-214917D01*
Y-215371D01*
Y-215825D01*
Y-216278D01*
Y-216732D01*
Y-217185D01*
Y-217639D01*
Y-218092D01*
Y-218546D01*
Y-218999D01*
Y-219453D01*
Y-219907D01*
Y-220360D01*
Y-220814D01*
Y-221267D01*
Y-221721D01*
X916545D01*
Y-222174D01*
Y-222628D01*
Y-223081D01*
Y-223535D01*
X916092D01*
Y-223988D01*
Y-224442D01*
X915638D01*
Y-224896D01*
Y-225349D01*
X915185D01*
Y-225803D01*
X914731D01*
Y-226256D01*
X914278D01*
Y-226710D01*
X913824D01*
Y-227163D01*
X913371D01*
Y-227617D01*
X912463D01*
Y-228071D01*
X911103D01*
Y-228524D01*
X904753D01*
Y-228071D01*
X903392D01*
Y-227617D01*
X902485D01*
Y-227163D01*
X902032D01*
Y-226710D01*
X901578D01*
Y-226256D01*
X901124D01*
Y-225803D01*
Y-225349D01*
X900671D01*
Y-224896D01*
Y-224442D01*
X900217D01*
Y-223988D01*
Y-223535D01*
Y-223081D01*
Y-222628D01*
X899764D01*
Y-222174D01*
Y-221721D01*
Y-221267D01*
Y-220814D01*
Y-220360D01*
Y-219907D01*
Y-219453D01*
Y-218999D01*
Y-218546D01*
Y-218092D01*
Y-217639D01*
Y-217185D01*
Y-216732D01*
Y-216278D01*
Y-215825D01*
Y-215371D01*
Y-214917D01*
Y-214464D01*
Y-214010D01*
Y-213557D01*
Y-213103D01*
Y-212650D01*
Y-212196D01*
Y-211742D01*
Y-211289D01*
Y-210835D01*
Y-210382D01*
Y-209928D01*
Y-209475D01*
Y-209021D01*
Y-208568D01*
Y-208114D01*
Y-207661D01*
Y-207207D01*
Y-206753D01*
Y-206300D01*
Y-205846D01*
Y-205393D01*
Y-204939D01*
Y-204486D01*
Y-204032D01*
Y-203578D01*
Y-203125D01*
Y-202671D01*
Y-202218D01*
Y-201764D01*
Y-201311D01*
Y-200857D01*
Y-200404D01*
Y-199950D01*
Y-199496D01*
Y-199043D01*
Y-198589D01*
Y-198136D01*
Y-197682D01*
Y-197229D01*
Y-196775D01*
Y-196322D01*
Y-195868D01*
Y-195414D01*
Y-194961D01*
Y-194507D01*
Y-194054D01*
X887064D01*
Y-194507D01*
Y-194961D01*
Y-195414D01*
Y-195868D01*
Y-196322D01*
Y-196775D01*
Y-197229D01*
Y-197682D01*
Y-198136D01*
Y-198589D01*
Y-199043D01*
Y-199496D01*
Y-199950D01*
Y-200404D01*
Y-200857D01*
Y-201311D01*
Y-201764D01*
Y-202218D01*
Y-202671D01*
Y-203125D01*
Y-203578D01*
Y-204032D01*
Y-204486D01*
Y-204939D01*
Y-205393D01*
Y-205846D01*
Y-206300D01*
Y-206753D01*
Y-207207D01*
Y-207661D01*
Y-208114D01*
Y-208568D01*
Y-209021D01*
Y-209475D01*
Y-209928D01*
Y-210382D01*
Y-210835D01*
Y-211289D01*
Y-211742D01*
Y-212196D01*
Y-212650D01*
Y-213103D01*
Y-213557D01*
Y-214010D01*
Y-214464D01*
Y-214917D01*
Y-215371D01*
Y-215825D01*
Y-216278D01*
Y-216732D01*
Y-217185D01*
Y-217639D01*
Y-218092D01*
Y-218546D01*
Y-218999D01*
Y-219453D01*
Y-219907D01*
Y-220360D01*
Y-220814D01*
Y-221267D01*
Y-221721D01*
Y-222174D01*
Y-222628D01*
Y-223081D01*
Y-223535D01*
Y-223988D01*
Y-224442D01*
Y-224896D01*
Y-225349D01*
Y-225803D01*
Y-226256D01*
Y-226710D01*
Y-227163D01*
X887518D01*
Y-227617D01*
Y-228071D01*
Y-228524D01*
Y-228978D01*
X887971D01*
Y-229431D01*
Y-229885D01*
Y-230338D01*
X888425D01*
Y-230792D01*
Y-231245D01*
Y-231699D01*
X888878D01*
Y-232153D01*
Y-232606D01*
X889332D01*
Y-233060D01*
X889786D01*
Y-233513D01*
Y-233967D01*
X890239D01*
Y-234420D01*
X890693D01*
Y-234874D01*
X891146D01*
Y-235327D01*
X891600D01*
Y-235781D01*
X892053D01*
Y-236234D01*
X892507D01*
Y-236688D01*
X893414D01*
Y-237142D01*
X893868D01*
Y-237595D01*
X894775D01*
Y-238049D01*
X895682D01*
Y-238502D01*
X896589D01*
Y-238956D01*
X897950D01*
Y-239409D01*
X899764D01*
Y-239863D01*
X908835D01*
Y-239409D01*
X910649D01*
Y-238956D01*
X911556D01*
Y-238502D01*
X912917D01*
Y-238049D01*
X913371D01*
Y-237595D01*
X914278D01*
Y-237142D01*
X914731D01*
Y-236688D01*
X915185D01*
Y-236234D01*
X916092D01*
Y-235781D01*
X916545D01*
Y-235327D01*
X916999D01*
Y-234874D01*
Y-234420D01*
X917452D01*
Y-234874D01*
Y-235327D01*
Y-235781D01*
Y-236234D01*
Y-236688D01*
Y-237142D01*
Y-237595D01*
Y-238049D01*
Y-238502D01*
Y-238956D01*
X922442D01*
Y-239409D01*
X921988D01*
Y-239863D01*
X921535D01*
Y-240317D01*
X921081D01*
Y-240770D01*
X920627D01*
Y-241224D01*
X920174D01*
Y-241677D01*
X919720D01*
Y-242131D01*
X919267D01*
Y-242584D01*
X918813D01*
Y-243038D01*
X917906D01*
Y-243491D01*
X917452D01*
Y-243945D01*
X916999D01*
Y-244398D01*
X916545D01*
Y-244852D01*
X915638D01*
Y-245306D01*
X915185D01*
Y-245759D01*
X914731D01*
Y-246213D01*
X913824D01*
Y-246666D01*
X913371D01*
Y-247120D01*
X912463D01*
Y-247573D01*
X912010D01*
Y-248027D01*
X911103D01*
Y-248480D01*
X910649D01*
Y-248934D01*
X909742D01*
Y-249388D01*
X908835D01*
Y-249841D01*
X907928D01*
Y-250295D01*
X907474D01*
Y-250748D01*
X906567D01*
Y-251202D01*
X905206D01*
Y-251655D01*
X904299D01*
Y-252109D01*
X903392D01*
Y-252563D01*
X902032D01*
Y-253016D01*
X901124D01*
Y-253470D01*
X899764D01*
Y-253923D01*
X897950D01*
Y-254377D01*
X896589D01*
Y-254830D01*
X894775D01*
Y-255284D01*
X892053D01*
Y-255737D01*
X888878D01*
Y-256191D01*
X877086D01*
Y-255737D01*
X873911D01*
Y-255284D01*
X871643D01*
Y-254830D01*
X869829D01*
Y-254377D01*
X868015D01*
Y-253923D01*
X866654D01*
Y-253470D01*
X865294D01*
Y-253016D01*
X863933D01*
Y-252563D01*
X863026D01*
Y-252109D01*
X861665D01*
Y-251655D01*
X860758D01*
Y-251202D01*
X859851D01*
Y-250748D01*
X858944D01*
Y-250295D01*
X858037D01*
Y-249841D01*
X857130D01*
Y-249388D01*
X856222D01*
Y-248934D01*
X855769D01*
Y-248480D01*
X854862D01*
Y-248027D01*
X853955D01*
Y-247573D01*
X853501D01*
Y-247120D01*
X852594D01*
Y-246666D01*
X852140D01*
Y-246213D01*
X851687D01*
Y-245759D01*
X850780D01*
Y-245306D01*
X850326D01*
Y-244852D01*
X849873D01*
Y-244398D01*
X848966D01*
Y-243945D01*
X848512D01*
Y-243491D01*
X848058D01*
Y-243038D01*
X847605D01*
Y-242584D01*
X847151D01*
Y-242131D01*
X846698D01*
Y-241677D01*
X846244D01*
Y-241224D01*
X845791D01*
Y-240770D01*
X845337D01*
Y-240317D01*
X844883D01*
Y-239863D01*
X844430D01*
Y-239409D01*
X843976D01*
Y-238956D01*
X843523D01*
Y-238502D01*
X843069D01*
Y-238049D01*
X842616D01*
Y-237595D01*
X842162D01*
Y-237142D01*
X841709D01*
Y-236688D01*
Y-236234D01*
X841255D01*
Y-235781D01*
X840801D01*
Y-235327D01*
X840348D01*
Y-234874D01*
X839894D01*
Y-234420D01*
Y-233967D01*
X839441D01*
Y-233513D01*
X838987D01*
Y-233060D01*
Y-232606D01*
X838534D01*
Y-232153D01*
X838080D01*
Y-231699D01*
Y-231245D01*
X837627D01*
Y-230792D01*
X837173D01*
Y-230338D01*
Y-229885D01*
X836720D01*
Y-229431D01*
Y-228978D01*
X836266D01*
Y-228524D01*
Y-228071D01*
X835812D01*
Y-227617D01*
Y-227163D01*
X835359D01*
Y-226710D01*
Y-226256D01*
X834905D01*
Y-225803D01*
Y-225349D01*
X834452D01*
Y-224896D01*
Y-224442D01*
X833998D01*
Y-223988D01*
Y-223535D01*
X833545D01*
Y-223081D01*
Y-222628D01*
Y-222174D01*
X833091D01*
Y-221721D01*
Y-221267D01*
Y-220814D01*
X832637D01*
Y-220360D01*
Y-219907D01*
X832184D01*
Y-219453D01*
Y-218999D01*
Y-218546D01*
Y-218092D01*
X831730D01*
Y-217639D01*
Y-217185D01*
Y-216732D01*
X831277D01*
Y-216278D01*
Y-215825D01*
Y-215371D01*
Y-214917D01*
X830823D01*
Y-214464D01*
Y-214010D01*
Y-213557D01*
Y-213103D01*
Y-212650D01*
X830370D01*
Y-212196D01*
Y-211742D01*
Y-211289D01*
Y-210835D01*
Y-210382D01*
Y-209928D01*
Y-209475D01*
X829916D01*
Y-209021D01*
Y-208568D01*
Y-208114D01*
Y-207661D01*
Y-207207D01*
Y-206753D01*
Y-206300D01*
Y-205846D01*
Y-205393D01*
Y-204939D01*
X829463D01*
Y-204486D01*
Y-204032D01*
Y-203578D01*
Y-203125D01*
Y-202671D01*
Y-202218D01*
Y-201764D01*
Y-201311D01*
Y-200857D01*
X829916D01*
Y-200404D01*
Y-199950D01*
Y-199496D01*
Y-199043D01*
Y-198589D01*
Y-198136D01*
Y-197682D01*
Y-197229D01*
Y-196775D01*
X830370D01*
Y-196322D01*
Y-195868D01*
Y-195414D01*
Y-194961D01*
Y-194507D01*
Y-194054D01*
Y-193600D01*
X830823D01*
Y-193147D01*
Y-192693D01*
Y-192240D01*
Y-191786D01*
Y-191332D01*
X831277D01*
Y-190879D01*
Y-190425D01*
Y-189972D01*
Y-189518D01*
X831730D01*
Y-189065D01*
Y-188611D01*
Y-188158D01*
Y-187704D01*
X832184D01*
Y-187250D01*
Y-186797D01*
Y-186343D01*
X832637D01*
Y-185890D01*
Y-185436D01*
Y-184983D01*
X833091D01*
Y-184529D01*
Y-184076D01*
X833545D01*
Y-183622D01*
Y-183168D01*
Y-182715D01*
X833998D01*
Y-182261D01*
Y-181808D01*
X834452D01*
Y-181354D01*
Y-180901D01*
Y-180447D01*
X834905D01*
Y-179993D01*
Y-179540D01*
X835359D01*
Y-179086D01*
Y-178633D01*
X835812D01*
Y-178179D01*
Y-177726D01*
X836266D01*
Y-177272D01*
X836720D01*
Y-176819D01*
Y-176365D01*
X837173D01*
Y-175912D01*
Y-175458D01*
X837627D01*
Y-175004D01*
X838080D01*
Y-174551D01*
Y-174097D01*
X838534D01*
Y-173644D01*
X838987D01*
Y-173190D01*
Y-172737D01*
X839441D01*
Y-172283D01*
X839894D01*
Y-171830D01*
Y-171376D01*
X840348D01*
Y-170922D01*
X840801D01*
Y-170469D01*
X841255D01*
Y-170015D01*
Y-169562D01*
X841709D01*
Y-169108D01*
X842162D01*
Y-168655D01*
X842616D01*
Y-168201D01*
X843069D01*
Y-167747D01*
X843523D01*
Y-167294D01*
X843976D01*
Y-166840D01*
X844430D01*
Y-166387D01*
Y-165933D01*
X844883D01*
Y-165480D01*
X845337D01*
Y-165026D01*
X845791D01*
Y-164573D01*
X846698D01*
Y-164119D01*
X847151D01*
Y-163666D01*
X847605D01*
Y-163212D01*
X848058D01*
Y-162758D01*
X848512D01*
Y-162305D01*
X848966D01*
Y-161851D01*
X849419D01*
Y-161398D01*
X850326D01*
Y-160944D01*
X850780D01*
Y-160491D01*
X851233D01*
Y-160037D01*
X852140D01*
Y-159584D01*
X852594D01*
Y-159130D01*
X853501D01*
Y-158676D01*
X853955D01*
Y-158223D01*
X854862D01*
Y-157769D01*
X855315D01*
Y-157316D01*
X856222D01*
Y-156862D01*
X857130D01*
Y-156409D01*
X857583D01*
Y-155955D01*
X858944D01*
Y-155501D01*
X859851D01*
Y-155048D01*
X860758D01*
Y-154594D01*
X861665D01*
Y-154141D01*
X862572D01*
Y-153687D01*
X863933D01*
Y-153234D01*
X864840D01*
Y-152780D01*
X866201D01*
Y-152327D01*
X867561D01*
Y-151873D01*
X869376D01*
Y-151419D01*
X871190D01*
Y-150966D01*
X873457D01*
Y-150512D01*
X876632D01*
Y-150059D01*
X881168D01*
Y-149605D01*
X885250D01*
Y-150059D01*
D02*
G37*
G36*
X955551Y-177272D02*
Y-177726D01*
Y-178179D01*
Y-178633D01*
Y-179086D01*
Y-179540D01*
Y-179993D01*
Y-180447D01*
Y-180901D01*
Y-181354D01*
Y-181808D01*
Y-182261D01*
Y-182715D01*
Y-183168D01*
Y-183622D01*
Y-184076D01*
Y-184529D01*
Y-184983D01*
Y-185436D01*
Y-185890D01*
Y-186343D01*
Y-186797D01*
Y-187250D01*
Y-187704D01*
Y-188158D01*
Y-188611D01*
Y-189065D01*
Y-189518D01*
Y-189972D01*
Y-190425D01*
Y-190879D01*
Y-191332D01*
Y-191786D01*
Y-192240D01*
Y-192693D01*
Y-193147D01*
Y-193600D01*
Y-194054D01*
Y-194507D01*
Y-194961D01*
Y-195414D01*
Y-195868D01*
Y-196322D01*
Y-196775D01*
Y-197229D01*
Y-197682D01*
Y-198136D01*
Y-198589D01*
Y-199043D01*
Y-199496D01*
X956458D01*
Y-199043D01*
X956912D01*
Y-198589D01*
X957365D01*
Y-198136D01*
X957819D01*
Y-197682D01*
X958272D01*
Y-197229D01*
X958726D01*
Y-196775D01*
X959180D01*
Y-196322D01*
X960087D01*
Y-195868D01*
X960540D01*
Y-195414D01*
X961447D01*
Y-194961D01*
X962355D01*
Y-194507D01*
X963715D01*
Y-194054D01*
X965529D01*
Y-193600D01*
X974147D01*
Y-194054D01*
X975961D01*
Y-194507D01*
X977322D01*
Y-194961D01*
X978682D01*
Y-195414D01*
X979590D01*
Y-195868D01*
X980043D01*
Y-196322D01*
X980950D01*
Y-196775D01*
X981404D01*
Y-197229D01*
X982311D01*
Y-197682D01*
X982765D01*
Y-198136D01*
X983218D01*
Y-198589D01*
X983672D01*
Y-199043D01*
X984125D01*
Y-199496D01*
X984579D01*
Y-199950D01*
Y-200404D01*
X985032D01*
Y-200857D01*
X985486D01*
Y-201311D01*
X985939D01*
Y-201764D01*
Y-202218D01*
X986393D01*
Y-202671D01*
Y-203125D01*
X986846D01*
Y-203578D01*
Y-204032D01*
X987300D01*
Y-204486D01*
Y-204939D01*
X987754D01*
Y-205393D01*
Y-205846D01*
Y-206300D01*
X988207D01*
Y-206753D01*
Y-207207D01*
Y-207661D01*
Y-208114D01*
X988661D01*
Y-208568D01*
Y-209021D01*
Y-209475D01*
Y-209928D01*
Y-210382D01*
X989114D01*
Y-210835D01*
Y-211289D01*
Y-211742D01*
Y-212196D01*
Y-212650D01*
Y-213103D01*
Y-213557D01*
Y-214010D01*
Y-214464D01*
X989568D01*
Y-214917D01*
X989114D01*
Y-215371D01*
Y-215825D01*
Y-216278D01*
Y-216732D01*
Y-217185D01*
Y-217639D01*
Y-218092D01*
Y-218546D01*
Y-218999D01*
Y-219453D01*
Y-219907D01*
Y-220360D01*
Y-220814D01*
Y-221267D01*
Y-221721D01*
Y-222174D01*
Y-222628D01*
X988661D01*
Y-223081D01*
Y-223535D01*
Y-223988D01*
Y-224442D01*
Y-224896D01*
X988207D01*
Y-225349D01*
Y-225803D01*
Y-226256D01*
X987754D01*
Y-226710D01*
Y-227163D01*
Y-227617D01*
X987300D01*
Y-228071D01*
Y-228524D01*
Y-228978D01*
X986846D01*
Y-229431D01*
Y-229885D01*
X986393D01*
Y-230338D01*
Y-230792D01*
X985939D01*
Y-231245D01*
X985486D01*
Y-231699D01*
Y-232153D01*
X985032D01*
Y-232606D01*
X984579D01*
Y-233060D01*
X984125D01*
Y-233513D01*
X983672D01*
Y-233967D01*
Y-234420D01*
X982765D01*
Y-234874D01*
X982311D01*
Y-235327D01*
X981857D01*
Y-235781D01*
X981404D01*
Y-236234D01*
X980497D01*
Y-236688D01*
X980043D01*
Y-237142D01*
X979136D01*
Y-237595D01*
X978229D01*
Y-238049D01*
X977322D01*
Y-238502D01*
X975961D01*
Y-238956D01*
X973693D01*
Y-239409D01*
X965983D01*
Y-238956D01*
X963715D01*
Y-238502D01*
X962808D01*
Y-238049D01*
X961447D01*
Y-237595D01*
X960994D01*
Y-237142D01*
X960087D01*
Y-236688D01*
X959633D01*
Y-236234D01*
X958726D01*
Y-235781D01*
X958272D01*
Y-235327D01*
X957819D01*
Y-234874D01*
X957365D01*
Y-234420D01*
X956912D01*
Y-233967D01*
X956458D01*
Y-233513D01*
X956005D01*
Y-233060D01*
Y-232606D01*
X955098D01*
Y-233060D01*
Y-233513D01*
Y-233967D01*
Y-234420D01*
Y-234874D01*
Y-235327D01*
Y-235781D01*
Y-236234D01*
Y-236688D01*
Y-237142D01*
Y-237595D01*
Y-238049D01*
Y-238502D01*
X943759D01*
Y-238049D01*
Y-237595D01*
Y-237142D01*
Y-236688D01*
Y-236234D01*
Y-235781D01*
Y-235327D01*
Y-234874D01*
Y-234420D01*
Y-233967D01*
Y-233513D01*
Y-233060D01*
Y-232606D01*
Y-232153D01*
Y-231699D01*
Y-231245D01*
Y-230792D01*
Y-230338D01*
Y-229885D01*
Y-229431D01*
Y-228978D01*
Y-228524D01*
Y-228071D01*
Y-227617D01*
Y-227163D01*
Y-226710D01*
Y-226256D01*
Y-225803D01*
Y-225349D01*
Y-224896D01*
Y-224442D01*
Y-223988D01*
Y-223535D01*
Y-223081D01*
Y-222628D01*
Y-222174D01*
Y-221721D01*
Y-221267D01*
Y-220814D01*
Y-220360D01*
Y-219907D01*
Y-219453D01*
Y-218999D01*
Y-218546D01*
Y-218092D01*
Y-217639D01*
Y-217185D01*
Y-216732D01*
Y-216278D01*
Y-215825D01*
Y-215371D01*
Y-214917D01*
Y-214464D01*
Y-214010D01*
Y-213557D01*
Y-213103D01*
Y-212650D01*
Y-212196D01*
Y-211742D01*
Y-211289D01*
Y-210835D01*
Y-210382D01*
Y-209928D01*
Y-209475D01*
Y-209021D01*
Y-208568D01*
Y-208114D01*
Y-207661D01*
Y-207207D01*
Y-206753D01*
Y-206300D01*
Y-205846D01*
Y-205393D01*
Y-204939D01*
Y-204486D01*
Y-204032D01*
Y-203578D01*
Y-203125D01*
Y-202671D01*
Y-202218D01*
Y-201764D01*
Y-201311D01*
Y-200857D01*
Y-200404D01*
Y-199950D01*
Y-199496D01*
Y-199043D01*
Y-198589D01*
Y-198136D01*
Y-197682D01*
Y-197229D01*
Y-196775D01*
Y-196322D01*
Y-195868D01*
Y-195414D01*
Y-194961D01*
Y-194507D01*
Y-194054D01*
Y-193600D01*
Y-193147D01*
Y-192693D01*
Y-192240D01*
Y-191786D01*
Y-191332D01*
Y-190879D01*
Y-190425D01*
Y-189972D01*
Y-189518D01*
Y-189065D01*
Y-188611D01*
Y-188158D01*
Y-187704D01*
Y-187250D01*
Y-186797D01*
Y-186343D01*
Y-185890D01*
Y-185436D01*
Y-184983D01*
Y-184529D01*
Y-184076D01*
Y-183622D01*
Y-183168D01*
Y-182715D01*
Y-182261D01*
Y-181808D01*
Y-181354D01*
Y-180901D01*
Y-180447D01*
Y-179993D01*
Y-179540D01*
Y-179086D01*
Y-178633D01*
Y-178179D01*
Y-177726D01*
Y-177272D01*
Y-176819D01*
X955551D01*
Y-177272D01*
D02*
G37*
G36*
X1009071D02*
Y-177726D01*
Y-178179D01*
Y-178633D01*
Y-179086D01*
Y-179540D01*
Y-179993D01*
Y-180447D01*
Y-180901D01*
Y-181354D01*
Y-181808D01*
Y-182261D01*
Y-182715D01*
Y-183168D01*
Y-183622D01*
Y-184076D01*
Y-184529D01*
Y-184983D01*
Y-185436D01*
Y-185890D01*
Y-186343D01*
Y-186797D01*
Y-187250D01*
Y-187704D01*
Y-188158D01*
Y-188611D01*
Y-189065D01*
Y-189518D01*
Y-189972D01*
Y-190425D01*
Y-190879D01*
Y-191332D01*
Y-191786D01*
Y-192240D01*
Y-192693D01*
Y-193147D01*
Y-193600D01*
Y-194054D01*
Y-194507D01*
Y-194961D01*
Y-195414D01*
Y-195868D01*
Y-196322D01*
Y-196775D01*
Y-197229D01*
Y-197682D01*
Y-198136D01*
Y-198589D01*
Y-199043D01*
Y-199496D01*
Y-199950D01*
Y-200404D01*
Y-200857D01*
Y-201311D01*
Y-201764D01*
Y-202218D01*
Y-202671D01*
Y-203125D01*
Y-203578D01*
Y-204032D01*
Y-204486D01*
Y-204939D01*
Y-205393D01*
Y-205846D01*
Y-206300D01*
Y-206753D01*
Y-207207D01*
Y-207661D01*
Y-208114D01*
Y-208568D01*
Y-209021D01*
Y-209475D01*
Y-209928D01*
Y-210382D01*
Y-210835D01*
Y-211289D01*
Y-211742D01*
Y-212196D01*
Y-212650D01*
Y-213103D01*
Y-213557D01*
Y-214010D01*
Y-214464D01*
Y-214917D01*
Y-215371D01*
Y-215825D01*
Y-216278D01*
Y-216732D01*
Y-217185D01*
Y-217639D01*
Y-218092D01*
Y-218546D01*
Y-218999D01*
Y-219453D01*
Y-219907D01*
Y-220360D01*
Y-220814D01*
Y-221267D01*
Y-221721D01*
Y-222174D01*
Y-222628D01*
Y-223081D01*
Y-223535D01*
Y-223988D01*
Y-224442D01*
Y-224896D01*
Y-225349D01*
Y-225803D01*
Y-226256D01*
Y-226710D01*
Y-227163D01*
Y-227617D01*
Y-228071D01*
Y-228524D01*
Y-228978D01*
Y-229431D01*
Y-229885D01*
Y-230338D01*
Y-230792D01*
Y-231245D01*
Y-231699D01*
Y-232153D01*
Y-232606D01*
Y-233060D01*
Y-233513D01*
Y-233967D01*
Y-234420D01*
Y-234874D01*
Y-235327D01*
Y-235781D01*
Y-236234D01*
Y-236688D01*
Y-237142D01*
Y-237595D01*
Y-238049D01*
Y-238502D01*
X997732D01*
Y-238049D01*
Y-237595D01*
Y-237142D01*
Y-236688D01*
Y-236234D01*
Y-235781D01*
Y-235327D01*
Y-234874D01*
Y-234420D01*
Y-233967D01*
Y-233513D01*
Y-233060D01*
Y-232606D01*
Y-232153D01*
Y-231699D01*
Y-231245D01*
Y-230792D01*
Y-230338D01*
Y-229885D01*
Y-229431D01*
Y-228978D01*
Y-228524D01*
Y-228071D01*
Y-227617D01*
Y-227163D01*
Y-226710D01*
Y-226256D01*
Y-225803D01*
Y-225349D01*
Y-224896D01*
Y-224442D01*
Y-223988D01*
Y-223535D01*
Y-223081D01*
Y-222628D01*
Y-222174D01*
Y-221721D01*
Y-221267D01*
Y-220814D01*
Y-220360D01*
Y-219907D01*
Y-219453D01*
Y-218999D01*
Y-218546D01*
Y-218092D01*
Y-217639D01*
Y-217185D01*
Y-216732D01*
Y-216278D01*
Y-215825D01*
Y-215371D01*
Y-214917D01*
Y-214464D01*
Y-214010D01*
Y-213557D01*
Y-213103D01*
Y-212650D01*
Y-212196D01*
Y-211742D01*
Y-211289D01*
Y-210835D01*
Y-210382D01*
Y-209928D01*
Y-209475D01*
Y-209021D01*
Y-208568D01*
Y-208114D01*
Y-207661D01*
Y-207207D01*
Y-206753D01*
Y-206300D01*
Y-205846D01*
Y-205393D01*
Y-204939D01*
Y-204486D01*
Y-204032D01*
Y-203578D01*
Y-203125D01*
Y-202671D01*
Y-202218D01*
Y-201764D01*
Y-201311D01*
Y-200857D01*
Y-200404D01*
Y-199950D01*
Y-199496D01*
Y-199043D01*
Y-198589D01*
Y-198136D01*
Y-197682D01*
Y-197229D01*
Y-196775D01*
Y-196322D01*
Y-195868D01*
Y-195414D01*
Y-194961D01*
Y-194507D01*
Y-194054D01*
Y-193600D01*
Y-193147D01*
Y-192693D01*
Y-192240D01*
Y-191786D01*
Y-191332D01*
Y-190879D01*
Y-190425D01*
Y-189972D01*
Y-189518D01*
Y-189065D01*
Y-188611D01*
Y-188158D01*
Y-187704D01*
Y-187250D01*
Y-186797D01*
Y-186343D01*
Y-185890D01*
Y-185436D01*
Y-184983D01*
Y-184529D01*
Y-184076D01*
Y-183622D01*
Y-183168D01*
Y-182715D01*
Y-182261D01*
Y-181808D01*
Y-181354D01*
Y-180901D01*
Y-180447D01*
Y-179993D01*
Y-179540D01*
Y-179086D01*
Y-178633D01*
Y-178179D01*
Y-177726D01*
Y-177272D01*
Y-176819D01*
X1009071D01*
Y-177272D01*
D02*
G37*
G36*
X1045355Y-194054D02*
X1047623D01*
Y-194507D01*
X1048984D01*
Y-194961D01*
X1050344D01*
Y-195414D01*
X1051252D01*
Y-195868D01*
X1052159D01*
Y-196322D01*
X1053066D01*
Y-196775D01*
X1053973D01*
Y-197229D01*
X1054426D01*
Y-197682D01*
X1055333D01*
Y-198136D01*
X1055787D01*
Y-198589D01*
X1056241D01*
Y-199043D01*
X1056694D01*
Y-199496D01*
X1057148D01*
Y-199950D01*
X1057601D01*
Y-200404D01*
X1058055D01*
Y-200857D01*
X1058508D01*
Y-201311D01*
X1058962D01*
Y-201764D01*
Y-202218D01*
X1059416D01*
Y-202671D01*
X1059869D01*
Y-203125D01*
Y-203578D01*
X1060323D01*
Y-204032D01*
Y-204486D01*
X1060776D01*
Y-204939D01*
Y-205393D01*
X1061230D01*
Y-205846D01*
Y-206300D01*
X1061683D01*
Y-206753D01*
Y-207207D01*
Y-207661D01*
X1062137D01*
Y-208114D01*
Y-208568D01*
Y-209021D01*
Y-209475D01*
Y-209928D01*
X1062590D01*
Y-210382D01*
Y-210835D01*
Y-211289D01*
Y-211742D01*
Y-212196D01*
Y-212650D01*
Y-213103D01*
X1063044D01*
Y-213557D01*
Y-214010D01*
Y-214464D01*
Y-214917D01*
Y-215371D01*
Y-215825D01*
Y-216278D01*
Y-216732D01*
Y-217185D01*
Y-217639D01*
Y-218092D01*
Y-218546D01*
Y-218999D01*
Y-219453D01*
Y-219907D01*
X1062590D01*
Y-220360D01*
Y-220814D01*
Y-221267D01*
Y-221721D01*
Y-222174D01*
Y-222628D01*
Y-223081D01*
X1062137D01*
Y-223535D01*
Y-223988D01*
Y-224442D01*
Y-224896D01*
X1061683D01*
Y-225349D01*
Y-225803D01*
Y-226256D01*
X1061230D01*
Y-226710D01*
Y-227163D01*
Y-227617D01*
X1060776D01*
Y-228071D01*
Y-228524D01*
X1060323D01*
Y-228978D01*
Y-229431D01*
X1059869D01*
Y-229885D01*
Y-230338D01*
X1059416D01*
Y-230792D01*
X1058962D01*
Y-231245D01*
X1058508D01*
Y-231699D01*
Y-232153D01*
X1058055D01*
Y-232606D01*
X1057601D01*
Y-233060D01*
X1057148D01*
Y-233513D01*
X1056694D01*
Y-233967D01*
X1056241D01*
Y-234420D01*
X1055787D01*
Y-234874D01*
X1054880D01*
Y-235327D01*
X1054426D01*
Y-235781D01*
X1053519D01*
Y-236234D01*
X1053066D01*
Y-236688D01*
X1052159D01*
Y-237142D01*
X1051252D01*
Y-237595D01*
X1049891D01*
Y-238049D01*
X1048530D01*
Y-238502D01*
X1047169D01*
Y-238956D01*
X1044902D01*
Y-239409D01*
X1035377D01*
Y-238956D01*
X1032656D01*
Y-238502D01*
X1030841D01*
Y-238049D01*
X1029934D01*
Y-237595D01*
X1028574D01*
Y-237142D01*
X1027667D01*
Y-236688D01*
X1026759D01*
Y-236234D01*
X1026306D01*
Y-235781D01*
X1025399D01*
Y-235327D01*
X1024945D01*
Y-234874D01*
X1024038D01*
Y-234420D01*
X1023585D01*
Y-233967D01*
X1023131D01*
Y-233513D01*
X1022678D01*
Y-233060D01*
X1022224D01*
Y-232606D01*
X1021770D01*
Y-232153D01*
X1021317D01*
Y-231699D01*
Y-231245D01*
X1020863D01*
Y-230792D01*
X1020410D01*
Y-230338D01*
X1019956D01*
Y-229885D01*
Y-229431D01*
X1019503D01*
Y-228978D01*
Y-228524D01*
X1019049D01*
Y-228071D01*
Y-227617D01*
X1018595D01*
Y-227163D01*
Y-226710D01*
Y-226256D01*
X1018142D01*
Y-225803D01*
Y-225349D01*
Y-224896D01*
X1017688D01*
Y-224442D01*
Y-223988D01*
Y-223535D01*
Y-223081D01*
X1017235D01*
Y-222628D01*
Y-222174D01*
Y-221721D01*
Y-221267D01*
Y-220814D01*
Y-220360D01*
Y-219907D01*
Y-219453D01*
X1016781D01*
Y-218999D01*
Y-218546D01*
Y-218092D01*
Y-217639D01*
Y-217185D01*
Y-216732D01*
Y-216278D01*
Y-215825D01*
Y-215371D01*
Y-214917D01*
Y-214464D01*
Y-214010D01*
Y-213557D01*
X1017235D01*
Y-213103D01*
Y-212650D01*
Y-212196D01*
Y-211742D01*
Y-211289D01*
Y-210835D01*
Y-210382D01*
Y-209928D01*
X1017688D01*
Y-209475D01*
Y-209021D01*
Y-208568D01*
Y-208114D01*
X1018142D01*
Y-207661D01*
Y-207207D01*
Y-206753D01*
X1018595D01*
Y-206300D01*
Y-205846D01*
Y-205393D01*
X1019049D01*
Y-204939D01*
Y-204486D01*
X1019503D01*
Y-204032D01*
Y-203578D01*
X1019956D01*
Y-203125D01*
Y-202671D01*
X1020410D01*
Y-202218D01*
X1020863D01*
Y-201764D01*
Y-201311D01*
X1021317D01*
Y-200857D01*
X1021770D01*
Y-200404D01*
X1022224D01*
Y-199950D01*
X1022678D01*
Y-199496D01*
X1023131D01*
Y-199043D01*
X1023585D01*
Y-198589D01*
X1024038D01*
Y-198136D01*
X1024492D01*
Y-197682D01*
X1025399D01*
Y-197229D01*
X1025852D01*
Y-196775D01*
X1026759D01*
Y-196322D01*
X1027667D01*
Y-195868D01*
X1028574D01*
Y-195414D01*
X1029481D01*
Y-194961D01*
X1030841D01*
Y-194507D01*
X1032202D01*
Y-194054D01*
X1034470D01*
Y-193600D01*
X1045355D01*
Y-194054D01*
D02*
G37*
G36*
X1111121Y-194961D02*
X1110667D01*
Y-195414D01*
Y-195868D01*
X1110214D01*
Y-196322D01*
X1109760D01*
Y-196775D01*
X1109307D01*
Y-197229D01*
Y-197682D01*
X1108853D01*
Y-198136D01*
X1108400D01*
Y-198589D01*
Y-199043D01*
X1107946D01*
Y-199496D01*
X1107492D01*
Y-199950D01*
X1107039D01*
Y-200404D01*
Y-200857D01*
X1106585D01*
Y-201311D01*
X1106132D01*
Y-201764D01*
X1105678D01*
Y-202218D01*
Y-202671D01*
X1105225D01*
Y-203125D01*
X1104771D01*
Y-203578D01*
X1104317D01*
Y-204032D01*
Y-204486D01*
X1103864D01*
Y-204939D01*
X1103410D01*
Y-205393D01*
Y-205846D01*
X1102957D01*
Y-206300D01*
X1102503D01*
Y-206753D01*
X1102050D01*
Y-207207D01*
Y-207661D01*
X1101596D01*
Y-208114D01*
X1101143D01*
Y-208568D01*
X1100689D01*
Y-209021D01*
Y-209475D01*
X1100236D01*
Y-209928D01*
X1099782D01*
Y-210382D01*
Y-210835D01*
X1099328D01*
Y-211289D01*
X1098875D01*
Y-211742D01*
X1098421D01*
Y-212196D01*
Y-212650D01*
X1097968D01*
Y-213103D01*
X1097514D01*
Y-213557D01*
X1097061D01*
Y-214010D01*
Y-214464D01*
X1096607D01*
Y-214917D01*
X1096153D01*
Y-215371D01*
X1095700D01*
Y-215825D01*
Y-216278D01*
Y-216732D01*
X1096153D01*
Y-217185D01*
Y-217639D01*
X1096607D01*
Y-218092D01*
X1097061D01*
Y-218546D01*
X1097514D01*
Y-218999D01*
Y-219453D01*
X1097968D01*
Y-219907D01*
X1098421D01*
Y-220360D01*
X1098875D01*
Y-220814D01*
Y-221267D01*
X1099328D01*
Y-221721D01*
X1099782D01*
Y-222174D01*
Y-222628D01*
X1100236D01*
Y-223081D01*
X1100689D01*
Y-223535D01*
X1101143D01*
Y-223988D01*
Y-224442D01*
X1101596D01*
Y-224896D01*
X1102050D01*
Y-225349D01*
X1102503D01*
Y-225803D01*
Y-226256D01*
X1102957D01*
Y-226710D01*
X1103410D01*
Y-227163D01*
X1103864D01*
Y-227617D01*
Y-228071D01*
X1104317D01*
Y-228524D01*
X1104771D01*
Y-228978D01*
X1105225D01*
Y-229431D01*
Y-229885D01*
X1105678D01*
Y-230338D01*
X1106132D01*
Y-230792D01*
X1106585D01*
Y-231245D01*
Y-231699D01*
X1107039D01*
Y-232153D01*
X1107492D01*
Y-232606D01*
X1107946D01*
Y-233060D01*
Y-233513D01*
X1108400D01*
Y-233967D01*
X1108853D01*
Y-234420D01*
Y-234874D01*
X1109307D01*
Y-235327D01*
X1109760D01*
Y-235781D01*
X1110214D01*
Y-236234D01*
Y-236688D01*
X1110667D01*
Y-237142D01*
X1111121D01*
Y-237595D01*
X1111574D01*
Y-238049D01*
X1112028D01*
Y-238502D01*
X1097514D01*
Y-238049D01*
Y-237595D01*
X1097061D01*
Y-237142D01*
X1096607D01*
Y-236688D01*
X1096153D01*
Y-236234D01*
Y-235781D01*
X1095700D01*
Y-235327D01*
X1095246D01*
Y-234874D01*
X1094793D01*
Y-234420D01*
Y-233967D01*
X1094339D01*
Y-233513D01*
X1093886D01*
Y-233060D01*
Y-232606D01*
X1093432D01*
Y-232153D01*
X1092979D01*
Y-231699D01*
X1092525D01*
Y-231245D01*
Y-230792D01*
X1092072D01*
Y-230338D01*
X1091618D01*
Y-229885D01*
X1091164D01*
Y-229431D01*
Y-228978D01*
X1090711D01*
Y-228524D01*
X1090257D01*
Y-228071D01*
Y-227617D01*
X1089804D01*
Y-227163D01*
X1089350D01*
Y-226710D01*
X1088897D01*
Y-226256D01*
Y-225803D01*
X1088443D01*
Y-225349D01*
X1087990D01*
Y-224896D01*
X1087536D01*
Y-224442D01*
X1087082D01*
Y-224896D01*
Y-225349D01*
X1086629D01*
Y-225803D01*
X1086175D01*
Y-226256D01*
X1085722D01*
Y-226710D01*
Y-227163D01*
X1085268D01*
Y-227617D01*
X1084815D01*
Y-228071D01*
Y-228524D01*
X1084361D01*
Y-228978D01*
X1083907D01*
Y-229431D01*
X1083454D01*
Y-229885D01*
Y-230338D01*
X1083000D01*
Y-230792D01*
X1082547D01*
Y-231245D01*
Y-231699D01*
X1082093D01*
Y-232153D01*
X1081640D01*
Y-232606D01*
X1081186D01*
Y-233060D01*
Y-233513D01*
X1080733D01*
Y-233967D01*
X1080279D01*
Y-234420D01*
Y-234874D01*
X1079826D01*
Y-235327D01*
X1079372D01*
Y-235781D01*
X1078918D01*
Y-236234D01*
Y-236688D01*
X1078465D01*
Y-237142D01*
X1078011D01*
Y-237595D01*
Y-238049D01*
X1077558D01*
Y-238502D01*
X1064405D01*
Y-238049D01*
X1064858D01*
Y-237595D01*
X1065312D01*
Y-237142D01*
Y-236688D01*
X1065765D01*
Y-236234D01*
X1066219D01*
Y-235781D01*
X1066672D01*
Y-235327D01*
Y-234874D01*
X1067126D01*
Y-234420D01*
X1067579D01*
Y-233967D01*
Y-233513D01*
X1068033D01*
Y-233060D01*
X1068487D01*
Y-232606D01*
X1068940D01*
Y-232153D01*
X1069394D01*
Y-231699D01*
Y-231245D01*
X1069847D01*
Y-230792D01*
X1070301D01*
Y-230338D01*
Y-229885D01*
X1070754D01*
Y-229431D01*
X1071208D01*
Y-228978D01*
X1071662D01*
Y-228524D01*
Y-228071D01*
X1072115D01*
Y-227617D01*
X1072569D01*
Y-227163D01*
X1073022D01*
Y-226710D01*
Y-226256D01*
X1073476D01*
Y-225803D01*
X1073929D01*
Y-225349D01*
X1074383D01*
Y-224896D01*
Y-224442D01*
X1074836D01*
Y-223988D01*
X1075290D01*
Y-223535D01*
X1075743D01*
Y-223081D01*
Y-222628D01*
X1076197D01*
Y-222174D01*
X1076651D01*
Y-221721D01*
X1077104D01*
Y-221267D01*
Y-220814D01*
X1077558D01*
Y-220360D01*
X1078011D01*
Y-219907D01*
X1078465D01*
Y-219453D01*
Y-218999D01*
X1078918D01*
Y-218546D01*
X1079372D01*
Y-218092D01*
Y-217639D01*
X1079826D01*
Y-217185D01*
X1080279D01*
Y-216732D01*
X1080733D01*
Y-216278D01*
Y-215825D01*
X1080279D01*
Y-215371D01*
X1079826D01*
Y-214917D01*
X1079372D01*
Y-214464D01*
Y-214010D01*
X1078918D01*
Y-213557D01*
X1078465D01*
Y-213103D01*
X1078011D01*
Y-212650D01*
Y-212196D01*
X1077558D01*
Y-211742D01*
X1077104D01*
Y-211289D01*
Y-210835D01*
X1076651D01*
Y-210382D01*
X1076197D01*
Y-209928D01*
X1075743D01*
Y-209475D01*
Y-209021D01*
X1075290D01*
Y-208568D01*
X1074836D01*
Y-208114D01*
X1074383D01*
Y-207661D01*
Y-207207D01*
X1073929D01*
Y-206753D01*
X1073476D01*
Y-206300D01*
Y-205846D01*
X1073022D01*
Y-205393D01*
X1072569D01*
Y-204939D01*
X1072115D01*
Y-204486D01*
Y-204032D01*
X1071662D01*
Y-203578D01*
X1071208D01*
Y-203125D01*
X1070754D01*
Y-202671D01*
Y-202218D01*
X1070301D01*
Y-201764D01*
X1069847D01*
Y-201311D01*
Y-200857D01*
X1069394D01*
Y-200404D01*
X1068940D01*
Y-199950D01*
X1068487D01*
Y-199496D01*
Y-199043D01*
X1068033D01*
Y-198589D01*
X1067579D01*
Y-198136D01*
X1067126D01*
Y-197682D01*
Y-197229D01*
X1066672D01*
Y-196775D01*
X1066219D01*
Y-196322D01*
Y-195868D01*
X1065765D01*
Y-195414D01*
X1065312D01*
Y-194961D01*
X1064858D01*
Y-194507D01*
X1078918D01*
Y-194961D01*
X1079372D01*
Y-195414D01*
X1079826D01*
Y-195868D01*
Y-196322D01*
X1080279D01*
Y-196775D01*
X1080733D01*
Y-197229D01*
X1081186D01*
Y-197682D01*
Y-198136D01*
X1081640D01*
Y-198589D01*
X1082093D01*
Y-199043D01*
Y-199496D01*
X1082547D01*
Y-199950D01*
X1083000D01*
Y-200404D01*
Y-200857D01*
X1083454D01*
Y-201311D01*
X1083907D01*
Y-201764D01*
X1084361D01*
Y-202218D01*
Y-202671D01*
X1084815D01*
Y-203125D01*
X1085268D01*
Y-203578D01*
Y-204032D01*
X1085722D01*
Y-204486D01*
X1086175D01*
Y-204939D01*
X1086629D01*
Y-205393D01*
Y-205846D01*
X1087082D01*
Y-206300D01*
X1087536D01*
Y-206753D01*
Y-207207D01*
X1087990D01*
Y-207661D01*
X1088443D01*
Y-208114D01*
X1088897D01*
Y-207661D01*
X1089350D01*
Y-207207D01*
Y-206753D01*
X1089804D01*
Y-206300D01*
X1090257D01*
Y-205846D01*
X1090711D01*
Y-205393D01*
Y-204939D01*
X1091164D01*
Y-204486D01*
X1091618D01*
Y-204032D01*
Y-203578D01*
X1092072D01*
Y-203125D01*
X1092525D01*
Y-202671D01*
X1092979D01*
Y-202218D01*
Y-201764D01*
X1093432D01*
Y-201311D01*
X1093886D01*
Y-200857D01*
Y-200404D01*
X1094339D01*
Y-199950D01*
X1094793D01*
Y-199496D01*
X1095246D01*
Y-199043D01*
Y-198589D01*
X1095700D01*
Y-198136D01*
X1096153D01*
Y-197682D01*
Y-197229D01*
X1096607D01*
Y-196775D01*
X1097061D01*
Y-196322D01*
X1097514D01*
Y-195868D01*
Y-195414D01*
X1097968D01*
Y-194961D01*
X1098421D01*
Y-194507D01*
X1111121D01*
Y-194961D01*
D02*
G37*
%LPC*%
G36*
X873457Y-173644D02*
X871190D01*
Y-174097D01*
X869376D01*
Y-174551D01*
X868468D01*
Y-175004D01*
X867561D01*
Y-175458D01*
X866654D01*
Y-175912D01*
X866201D01*
Y-176365D01*
X865747D01*
Y-176819D01*
X865294D01*
Y-177272D01*
X864840D01*
Y-177726D01*
Y-178179D01*
X864386D01*
Y-178633D01*
X863933D01*
Y-179086D01*
Y-179540D01*
X863479D01*
Y-179993D01*
Y-180447D01*
Y-180901D01*
Y-181354D01*
X863026D01*
Y-181808D01*
Y-182261D01*
Y-182715D01*
Y-183168D01*
Y-183622D01*
Y-184076D01*
Y-184529D01*
Y-184983D01*
X863479D01*
Y-185436D01*
Y-185890D01*
Y-186343D01*
X863933D01*
Y-186797D01*
Y-187250D01*
X864386D01*
Y-187704D01*
Y-188158D01*
X864840D01*
Y-188611D01*
X865294D01*
Y-189065D01*
X865747D01*
Y-189518D01*
X866201D01*
Y-189972D01*
X866654D01*
Y-190425D01*
X867108D01*
Y-190879D01*
X868015D01*
Y-191332D01*
X868922D01*
Y-191786D01*
X870283D01*
Y-192240D01*
X874365D01*
Y-191786D01*
X875725D01*
Y-191332D01*
X876632D01*
Y-190879D01*
X877540D01*
Y-190425D01*
X877993D01*
Y-189972D01*
X878447D01*
Y-189518D01*
X879354D01*
Y-189065D01*
Y-188611D01*
X879807D01*
Y-188158D01*
X880261D01*
Y-187704D01*
Y-187250D01*
X880714D01*
Y-186797D01*
Y-186343D01*
X881168D01*
Y-185890D01*
Y-185436D01*
Y-184983D01*
X881622D01*
Y-184529D01*
Y-184076D01*
Y-183622D01*
Y-183168D01*
Y-182715D01*
Y-182261D01*
Y-181808D01*
Y-181354D01*
X881168D01*
Y-180901D01*
Y-180447D01*
Y-179993D01*
Y-179540D01*
X880714D01*
Y-179086D01*
Y-178633D01*
X880261D01*
Y-178179D01*
Y-177726D01*
X879807D01*
Y-177272D01*
X879354D01*
Y-176819D01*
X878900D01*
Y-176365D01*
X878447D01*
Y-175912D01*
X877993D01*
Y-175458D01*
X877086D01*
Y-175004D01*
X876632D01*
Y-174551D01*
X875272D01*
Y-174097D01*
X873457D01*
Y-173644D01*
D02*
G37*
G36*
X968251Y-203578D02*
X964169D01*
Y-204032D01*
X962355D01*
Y-204486D01*
X960994D01*
Y-204939D01*
X960087D01*
Y-205393D01*
X959633D01*
Y-205846D01*
X958726D01*
Y-206300D01*
X958272D01*
Y-206753D01*
X957819D01*
Y-207207D01*
Y-207661D01*
X957365D01*
Y-208114D01*
X956912D01*
Y-208568D01*
Y-209021D01*
X956458D01*
Y-209475D01*
Y-209928D01*
X956005D01*
Y-210382D01*
Y-210835D01*
Y-211289D01*
X955551D01*
Y-211742D01*
Y-212196D01*
Y-212650D01*
Y-213103D01*
Y-213557D01*
X955098D01*
Y-214010D01*
Y-214464D01*
Y-214917D01*
Y-215371D01*
Y-215825D01*
Y-216278D01*
Y-216732D01*
Y-217185D01*
Y-217639D01*
Y-218092D01*
Y-218546D01*
Y-218999D01*
Y-219453D01*
X955551D01*
Y-219907D01*
Y-220360D01*
Y-220814D01*
Y-221267D01*
Y-221721D01*
X956005D01*
Y-222174D01*
Y-222628D01*
Y-223081D01*
X956458D01*
Y-223535D01*
Y-223988D01*
X956912D01*
Y-224442D01*
Y-224896D01*
X957365D01*
Y-225349D01*
X957819D01*
Y-225803D01*
X958272D01*
Y-226256D01*
X958726D01*
Y-226710D01*
X959180D01*
Y-227163D01*
X959633D01*
Y-227617D01*
X960540D01*
Y-228071D01*
X961447D01*
Y-228524D01*
X962355D01*
Y-228978D01*
X964622D01*
Y-229431D01*
X967797D01*
Y-228978D01*
X970065D01*
Y-228524D01*
X971426D01*
Y-228071D01*
X972333D01*
Y-227617D01*
X972786D01*
Y-227163D01*
X973693D01*
Y-226710D01*
X974147D01*
Y-226256D01*
X974601D01*
Y-225803D01*
X975054D01*
Y-225349D01*
Y-224896D01*
X975508D01*
Y-224442D01*
X975961D01*
Y-223988D01*
Y-223535D01*
X976415D01*
Y-223081D01*
Y-222628D01*
Y-222174D01*
X976868D01*
Y-221721D01*
Y-221267D01*
Y-220814D01*
Y-220360D01*
X977322D01*
Y-219907D01*
Y-219453D01*
Y-218999D01*
Y-218546D01*
Y-218092D01*
Y-217639D01*
Y-217185D01*
Y-216732D01*
Y-216278D01*
Y-215825D01*
Y-215371D01*
Y-214917D01*
Y-214464D01*
Y-214010D01*
Y-213557D01*
Y-213103D01*
Y-212650D01*
Y-212196D01*
X976868D01*
Y-211742D01*
Y-211289D01*
Y-210835D01*
Y-210382D01*
X976415D01*
Y-209928D01*
Y-209475D01*
X975961D01*
Y-209021D01*
Y-208568D01*
X975508D01*
Y-208114D01*
Y-207661D01*
X975054D01*
Y-207207D01*
X974601D01*
Y-206753D01*
X974147D01*
Y-206300D01*
X973693D01*
Y-205846D01*
X973240D01*
Y-205393D01*
X972333D01*
Y-204939D01*
X971426D01*
Y-204486D01*
X970518D01*
Y-204032D01*
X968251D01*
Y-203578D01*
D02*
G37*
G36*
X1042180D02*
X1037645D01*
Y-204032D01*
X1035831D01*
Y-204486D01*
X1034470D01*
Y-204939D01*
X1033563D01*
Y-205393D01*
X1033109D01*
Y-205846D01*
X1032656D01*
Y-206300D01*
X1032202D01*
Y-206753D01*
X1031749D01*
Y-207207D01*
X1031295D01*
Y-207661D01*
X1030841D01*
Y-208114D01*
X1030388D01*
Y-208568D01*
Y-209021D01*
X1029934D01*
Y-209475D01*
Y-209928D01*
X1029481D01*
Y-210382D01*
Y-210835D01*
Y-211289D01*
X1029027D01*
Y-211742D01*
Y-212196D01*
Y-212650D01*
Y-213103D01*
Y-213557D01*
Y-214010D01*
Y-214464D01*
X1028574D01*
Y-214917D01*
Y-215371D01*
Y-215825D01*
Y-216278D01*
Y-216732D01*
Y-217185D01*
Y-217639D01*
Y-218092D01*
X1029027D01*
Y-218546D01*
Y-218999D01*
Y-219453D01*
Y-219907D01*
Y-220360D01*
Y-220814D01*
Y-221267D01*
X1029481D01*
Y-221721D01*
Y-222174D01*
Y-222628D01*
X1029934D01*
Y-223081D01*
Y-223535D01*
Y-223988D01*
X1030388D01*
Y-224442D01*
X1030841D01*
Y-224896D01*
Y-225349D01*
X1031295D01*
Y-225803D01*
X1031749D01*
Y-226256D01*
X1032202D01*
Y-226710D01*
X1032656D01*
Y-227163D01*
X1033109D01*
Y-227617D01*
X1034016D01*
Y-228071D01*
X1034923D01*
Y-228524D01*
X1036284D01*
Y-228978D01*
X1038552D01*
Y-229431D01*
X1041273D01*
Y-228978D01*
X1043541D01*
Y-228524D01*
X1044902D01*
Y-228071D01*
X1045809D01*
Y-227617D01*
X1046716D01*
Y-227163D01*
X1047169D01*
Y-226710D01*
X1047623D01*
Y-226256D01*
X1048077D01*
Y-225803D01*
X1048530D01*
Y-225349D01*
X1048984D01*
Y-224896D01*
Y-224442D01*
X1049437D01*
Y-223988D01*
X1049891D01*
Y-223535D01*
Y-223081D01*
Y-222628D01*
X1050344D01*
Y-222174D01*
Y-221721D01*
Y-221267D01*
X1050798D01*
Y-220814D01*
Y-220360D01*
Y-219907D01*
Y-219453D01*
Y-218999D01*
X1051252D01*
Y-218546D01*
Y-218092D01*
Y-217639D01*
Y-217185D01*
Y-216732D01*
Y-216278D01*
Y-215825D01*
Y-215371D01*
Y-214917D01*
Y-214464D01*
Y-214010D01*
X1050798D01*
Y-213557D01*
Y-213103D01*
Y-212650D01*
Y-212196D01*
Y-211742D01*
Y-211289D01*
X1050344D01*
Y-210835D01*
Y-210382D01*
Y-209928D01*
X1049891D01*
Y-209475D01*
Y-209021D01*
X1049437D01*
Y-208568D01*
Y-208114D01*
X1048984D01*
Y-207661D01*
X1048530D01*
Y-207207D01*
X1048077D01*
Y-206753D01*
X1047623D01*
Y-206300D01*
X1047169D01*
Y-205846D01*
X1046716D01*
Y-205393D01*
X1045809D01*
Y-204939D01*
X1045355D01*
Y-204486D01*
X1043995D01*
Y-204032D01*
X1042180D01*
Y-203578D01*
D02*
G37*
%LPD*%
D10*
X896620Y200660D02*
Y510540D01*
X805180Y200660D02*
X896620D01*
X805180D02*
Y510540D01*
X896620D01*
X2118430Y379970D02*
X2117946Y380938D01*
X2116978Y381905D01*
X2116011Y382389D01*
X2114076D01*
X2113109Y381905D01*
X2112141Y380938D01*
X2111658Y379970D01*
X2111174Y378519D01*
Y376101D01*
X2111658Y374650D01*
X2112141Y373682D01*
X2113109Y372715D01*
X2114076Y372231D01*
X2116011D01*
X2116978Y372715D01*
X2117946Y373682D01*
X2118430Y374650D01*
X2123702Y379003D02*
X2122735Y378519D01*
X2121767Y377552D01*
X2121284Y376101D01*
Y375133D01*
X2121767Y373682D01*
X2122735Y372715D01*
X2123702Y372231D01*
X2125153D01*
X2126120Y372715D01*
X2127088Y373682D01*
X2127572Y375133D01*
Y376101D01*
X2127088Y377552D01*
X2126120Y378519D01*
X2125153Y379003D01*
X2123702D01*
X2129797D02*
Y374166D01*
X2130280Y372715D01*
X2131248Y372231D01*
X2132699D01*
X2133666Y372715D01*
X2135117Y374166D01*
Y379003D02*
Y372231D01*
X2137778Y379003D02*
Y372231D01*
Y376101D02*
X2138262Y377552D01*
X2139229Y378519D01*
X2140196Y379003D01*
X2141647D01*
X2144018Y382389D02*
Y374166D01*
X2144501Y372715D01*
X2145469Y372231D01*
X2146436D01*
X2142567Y379003D02*
X2145952D01*
X2148371D02*
X2151273Y372231D01*
X2154176Y379003D02*
X2151273Y372231D01*
X2150306Y370296D01*
X2149338Y369329D01*
X2148371Y368845D01*
X2147887D01*
X2161673Y379003D02*
Y372231D01*
Y377552D02*
X2160706Y378519D01*
X2159738Y379003D01*
X2158287D01*
X2157320Y378519D01*
X2156352Y377552D01*
X2155868Y376101D01*
Y375133D01*
X2156352Y373682D01*
X2157320Y372715D01*
X2158287Y372231D01*
X2159738D01*
X2160706Y372715D01*
X2161673Y373682D01*
X2164382Y379003D02*
Y372231D01*
Y376101D02*
X2164865Y377552D01*
X2165833Y378519D01*
X2166800Y379003D01*
X2168251D01*
X2174975Y382389D02*
Y372231D01*
Y377552D02*
X2174007Y378519D01*
X2173040Y379003D01*
X2171589D01*
X2170621Y378519D01*
X2169654Y377552D01*
X2169170Y376101D01*
Y375133D01*
X2169654Y373682D01*
X2170621Y372715D01*
X2171589Y372231D01*
X2173040D01*
X2174007Y372715D01*
X2174975Y373682D01*
X2189051Y382389D02*
Y372231D01*
X2185665Y382389D02*
X2192437D01*
X2196064Y379003D02*
X2195097Y378519D01*
X2194129Y377552D01*
X2193646Y376101D01*
Y375133D01*
X2194129Y373682D01*
X2195097Y372715D01*
X2196064Y372231D01*
X2197516D01*
X2198483Y372715D01*
X2199450Y373682D01*
X2199934Y375133D01*
Y376101D01*
X2199450Y377552D01*
X2198483Y378519D01*
X2197516Y379003D01*
X2196064D01*
X2202159D02*
Y368845D01*
Y377552D02*
X2203127Y378519D01*
X2204094Y379003D01*
X2205545D01*
X2206512Y378519D01*
X2207480Y377552D01*
X2207964Y376101D01*
Y375133D01*
X2207480Y373682D01*
X2206512Y372715D01*
X2205545Y372231D01*
X2204094D01*
X2203127Y372715D01*
X2202159Y373682D01*
X2227580Y1448258D02*
Y1524508D01*
X2057400Y1448258D02*
Y1524508D01*
X1562100Y1448258D02*
Y1524508D01*
X1470660Y1448258D02*
Y1524508D01*
Y1448258D02*
X2344420D01*
X1470660Y1486358D02*
X2344360D01*
X1582360Y-165262D02*
Y-128686D01*
X1201360D02*
X1582360D01*
X772160D02*
X1201360D01*
X1582360Y-317662D02*
Y-165262D01*
X2115760Y-317662D02*
Y-187868D01*
X1201360Y-317662D02*
Y-128686D01*
X2344360Y-317662D02*
Y-128686D01*
X1582360D02*
X2344360D01*
X1201360Y-187106D02*
X2344360D01*
X1201360Y-250352D02*
X2344360D01*
X1201360Y-317662D02*
X2344360D01*
X772160D02*
Y-128686D01*
Y-317662D02*
X1201360D01*
X2227580Y1524508D02*
Y1681988D01*
X2057400Y1524508D02*
Y1681988D01*
X1562100Y1524508D02*
Y1681988D01*
X1470660D02*
X2344360D01*
X1470660Y1600708D02*
X2344360D01*
X1470660Y1638808D02*
X2344420D01*
X1470660Y1562608D02*
X2344360D01*
X1470660Y1524508D02*
X2344420D01*
X1470660D02*
Y1740408D01*
X-398780Y-367792D02*
X2395220D01*
X2344360Y171288D02*
X2395160D01*
X2344360Y711038D02*
X2395160D01*
X2344360Y1250788D02*
X2395160D01*
X2344360Y-317662D02*
Y1739738D01*
X2395220Y-367792D02*
Y1791208D01*
X-398780D02*
X2395220D01*
X1696660Y1739738D02*
Y1790538D01*
X998160Y1739738D02*
Y1790538D01*
X299660Y1739738D02*
Y1790538D01*
X-348040Y1739738D02*
X2344360D01*
X1696660Y-368462D02*
Y-317662D01*
X998160Y-368462D02*
Y-317662D01*
X299660Y-368462D02*
Y-317662D01*
X-398840Y171288D02*
X-348040D01*
X-398840Y711038D02*
X-348040D01*
X-398840Y1250788D02*
X-348040D01*
X-398780Y-367792D02*
Y1791208D01*
X-348040Y-317662D02*
Y1739738D01*
Y-317662D02*
X2344360D01*
X1588202Y-207172D02*
Y-194476D01*
X1594550D01*
X1596666Y-196592D01*
Y-200824D01*
X1594550Y-202940D01*
X1588202D01*
X1609362Y-196592D02*
X1607246Y-194476D01*
X1603014D01*
X1600898Y-196592D01*
Y-205056D01*
X1603014Y-207172D01*
X1607246D01*
X1609362Y-205056D01*
X1613594Y-194476D02*
Y-207172D01*
X1619942D01*
X1622058Y-205056D01*
Y-202940D01*
X1619942Y-200824D01*
X1613594D01*
X1619942D01*
X1622058Y-198708D01*
Y-196592D01*
X1619942Y-194476D01*
X1613594D01*
X1638985Y-207172D02*
Y-194476D01*
X1647449Y-207172D01*
Y-194476D01*
X1651681Y-207172D02*
Y-198708D01*
X1655913Y-194476D01*
X1660145Y-198708D01*
Y-207172D01*
Y-200824D01*
X1651681D01*
X1664377Y-207172D02*
Y-194476D01*
X1668609Y-198708D01*
X1672841Y-194476D01*
Y-207172D01*
X1685537Y-194476D02*
X1677073D01*
Y-207172D01*
X1685537D01*
X1677073Y-200824D02*
X1681305D01*
X1689769Y-198708D02*
X1691885D01*
Y-200824D01*
X1689769D01*
Y-198708D01*
Y-205056D02*
X1691885D01*
Y-207172D01*
X1689769D01*
Y-205056D01*
X2128542Y-262632D02*
X2126426Y-260516D01*
X2122194D01*
X2120078Y-262632D01*
Y-264748D01*
X2122194Y-266864D01*
X2126426D01*
X2128542Y-268980D01*
Y-271096D01*
X2126426Y-273212D01*
X2122194D01*
X2120078Y-271096D01*
X2141238Y-262632D02*
X2139122Y-260516D01*
X2134890D01*
X2132774Y-262632D01*
Y-271096D01*
X2134890Y-273212D01*
X2139122D01*
X2141238Y-271096D01*
X2145470Y-273212D02*
Y-264748D01*
X2149702Y-260516D01*
X2153934Y-264748D01*
Y-273212D01*
Y-266864D01*
X2145470D01*
X2158166Y-260516D02*
Y-273212D01*
X2166630D01*
X2179326Y-260516D02*
X2170862D01*
Y-273212D01*
X2179326D01*
X2170862Y-266864D02*
X2175094D01*
X2183557Y-264748D02*
X2185673D01*
Y-266864D01*
X2183557D01*
Y-264748D01*
Y-271096D02*
X2185673D01*
Y-273212D01*
X2183557D01*
Y-271096D01*
X1595964Y-258576D02*
X1587500D01*
Y-264924D01*
X1591732D01*
X1587500D01*
Y-271272D01*
X1600196Y-258576D02*
X1604428D01*
X1602312D01*
Y-271272D01*
X1600196D01*
X1604428D01*
X1610776Y-258576D02*
Y-271272D01*
X1619240D01*
X1631936Y-258576D02*
X1623472D01*
Y-271272D01*
X1631936D01*
X1623472Y-264924D02*
X1627704D01*
X1648864Y-271272D02*
Y-258576D01*
X1657327Y-271272D01*
Y-258576D01*
X1661559Y-271272D02*
Y-262808D01*
X1665791Y-258576D01*
X1670023Y-262808D01*
Y-271272D01*
Y-264924D01*
X1661559D01*
X1674255Y-271272D02*
Y-258576D01*
X1678487Y-262808D01*
X1682719Y-258576D01*
Y-271272D01*
X1695415Y-258576D02*
X1686951D01*
Y-271272D01*
X1695415D01*
X1686951Y-264924D02*
X1691183D01*
X1699647Y-262808D02*
X1701763D01*
Y-264924D01*
X1699647D01*
Y-262808D01*
Y-269156D02*
X1701763D01*
Y-271272D01*
X1699647D01*
Y-269156D01*
X1589472Y-152816D02*
Y-140120D01*
X1595820D01*
X1597936Y-142236D01*
Y-146468D01*
X1595820Y-148584D01*
X1589472D01*
X1602168Y-152816D02*
Y-140120D01*
X1608516D01*
X1610632Y-142236D01*
Y-146468D01*
X1608516Y-148584D01*
X1602168D01*
X1606400D02*
X1610632Y-152816D01*
X1621212Y-140120D02*
X1616980D01*
X1614864Y-142236D01*
Y-150700D01*
X1616980Y-152816D01*
X1621212D01*
X1623328Y-150700D01*
Y-142236D01*
X1621212Y-140120D01*
X1636024D02*
X1631792D01*
X1633908D01*
Y-150700D01*
X1631792Y-152816D01*
X1629676D01*
X1627560Y-150700D01*
X1648719Y-140120D02*
X1640255D01*
Y-152816D01*
X1648719D01*
X1640255Y-146468D02*
X1644487D01*
X1661415Y-142236D02*
X1659299Y-140120D01*
X1655067D01*
X1652951Y-142236D01*
Y-150700D01*
X1655067Y-152816D01*
X1659299D01*
X1661415Y-150700D01*
X1665647Y-140120D02*
X1674111D01*
X1669879D01*
Y-152816D01*
X1678343Y-144352D02*
X1680459D01*
Y-146468D01*
X1678343D01*
Y-144352D01*
Y-150700D02*
X1680459D01*
Y-152816D01*
X1678343D01*
Y-150700D01*
X1212872Y-140374D02*
X1204408D01*
Y-153070D01*
X1212872D01*
X1204408Y-146722D02*
X1208640D01*
X1217104Y-153070D02*
Y-140374D01*
X1225568Y-153070D01*
Y-140374D01*
X1238264Y-142490D02*
X1236148Y-140374D01*
X1231916D01*
X1229800Y-142490D01*
Y-150954D01*
X1231916Y-153070D01*
X1236148D01*
X1238264Y-150954D01*
Y-146722D01*
X1234032D01*
X1242496Y-140374D02*
X1246728D01*
X1244612D01*
Y-153070D01*
X1242496D01*
X1246728D01*
X1253076D02*
Y-140374D01*
X1261540Y-153070D01*
Y-140374D01*
X1274235D02*
X1265771D01*
Y-153070D01*
X1274235D01*
X1265771Y-146722D02*
X1270003D01*
X1286931Y-140374D02*
X1278467D01*
Y-153070D01*
X1286931D01*
X1278467Y-146722D02*
X1282699D01*
X1291163Y-153070D02*
Y-140374D01*
X1297511D01*
X1299627Y-142490D01*
Y-146722D01*
X1297511Y-148838D01*
X1291163D01*
X1295395D02*
X1299627Y-153070D01*
X1303859Y-144606D02*
X1305975D01*
Y-146722D01*
X1303859D01*
Y-144606D01*
Y-150954D02*
X1305975D01*
Y-153070D01*
X1303859D01*
Y-150954D01*
X1206500Y-258576D02*
Y-271272D01*
X1212848D01*
X1214964Y-269156D01*
Y-260692D01*
X1212848Y-258576D01*
X1206500D01*
X1219196D02*
Y-271272D01*
X1223428Y-267040D01*
X1227660Y-271272D01*
Y-258576D01*
X1240356Y-260692D02*
X1238240Y-258576D01*
X1234008D01*
X1231892Y-260692D01*
Y-269156D01*
X1234008Y-271272D01*
X1238240D01*
X1240356Y-269156D01*
Y-264924D01*
X1236124D01*
X1257283Y-271272D02*
Y-258576D01*
X1265748Y-271272D01*
Y-258576D01*
X1276327D02*
X1272095D01*
X1269979Y-260692D01*
Y-269156D01*
X1272095Y-271272D01*
X1276327D01*
X1278443Y-269156D01*
Y-260692D01*
X1276327Y-258576D01*
X1282675Y-262808D02*
X1284791D01*
Y-264924D01*
X1282675D01*
Y-262808D01*
Y-269156D02*
X1284791D01*
Y-271272D01*
X1282675D01*
Y-269156D01*
X2121348Y-210474D02*
Y-197778D01*
X2127696D01*
X2129812Y-199894D01*
Y-204126D01*
X2127696Y-206242D01*
X2121348D01*
X2125580D02*
X2129812Y-210474D01*
X2142508Y-197778D02*
X2134044D01*
Y-210474D01*
X2142508D01*
X2134044Y-204126D02*
X2138276D01*
X2146740Y-197778D02*
Y-206242D01*
X2150972Y-210474D01*
X2155204Y-206242D01*
Y-197778D01*
X2159436Y-202010D02*
X2161552D01*
Y-204126D01*
X2159436D01*
Y-202010D01*
Y-208358D02*
X2161552D01*
Y-210474D01*
X2159436D01*
Y-208358D01*
X1205170Y-195492D02*
Y-208188D01*
X1211518D01*
X1213634Y-206072D01*
Y-197608D01*
X1211518Y-195492D01*
X1205170D01*
X1217866Y-208188D02*
Y-199724D01*
X1222098Y-195492D01*
X1226330Y-199724D01*
Y-208188D01*
Y-201840D01*
X1217866D01*
X1230562Y-195492D02*
X1239026D01*
X1234794D01*
Y-208188D01*
X1251722Y-195492D02*
X1243258D01*
Y-208188D01*
X1251722D01*
X1243258Y-201840D02*
X1247490D01*
X1255954Y-199724D02*
X1258070D01*
Y-201840D01*
X1255954D01*
Y-199724D01*
Y-206072D02*
X1258070D01*
Y-208188D01*
X1255954D01*
Y-206072D01*
D14*
X2017194Y-103632D02*
Y643128D01*
X2304214D01*
Y-103632D02*
Y643128D01*
X2017194Y-103632D02*
X2304214D01*
X2057834Y605657D02*
X2253414D01*
X2253824Y1514294D02*
X2245360D01*
Y1501598D01*
X2253824D01*
X2245360Y1507946D02*
X2249592D01*
X2258056Y1501598D02*
Y1514294D01*
X2262288Y1510062D01*
X2266520Y1514294D01*
Y1501598D01*
X2277100Y1514294D02*
X2272868D01*
X2270752Y1512178D01*
Y1503714D01*
X2272868Y1501598D01*
X2277100D01*
X2279216Y1503714D01*
Y1512178D01*
X2277100Y1514294D01*
X2289796D02*
X2285564D01*
X2283448Y1512178D01*
Y1503714D01*
X2285564Y1501598D01*
X2289796D01*
X2291912Y1503714D01*
Y1512178D01*
X2289796Y1514294D01*
X2077720Y1512178D02*
X2079836Y1514294D01*
X2084068D01*
X2086184Y1512178D01*
Y1510062D01*
X2084068Y1507946D01*
X2081952D01*
X2084068D01*
X2086184Y1505830D01*
Y1503714D01*
X2084068Y1501598D01*
X2079836D01*
X2077720Y1503714D01*
X2090416Y1501598D02*
X2098880Y1510062D01*
X2103112Y1501598D02*
X2107344D01*
X2105228D01*
Y1514294D01*
X2103112Y1512178D01*
X2122156Y1514294D02*
X2117924Y1512178D01*
X2113692Y1507946D01*
Y1503714D01*
X2115808Y1501598D01*
X2120040D01*
X2122156Y1503714D01*
Y1505830D01*
X2120040Y1507946D01*
X2113692D01*
X2126388Y1501598D02*
X2134852Y1510062D01*
X2147547Y1501598D02*
X2139084D01*
X2147547Y1510062D01*
Y1512178D01*
X2145431Y1514294D01*
X2141199D01*
X2139084Y1512178D01*
X2151779D02*
X2153895Y1514294D01*
X2158127D01*
X2160243Y1512178D01*
Y1503714D01*
X2158127Y1501598D01*
X2153895D01*
X2151779Y1503714D01*
Y1512178D01*
X2172939Y1501598D02*
X2164475D01*
X2172939Y1510062D01*
Y1512178D01*
X2170823Y1514294D01*
X2166591D01*
X2164475Y1512178D01*
X2177171Y1501598D02*
X2181403D01*
X2179287D01*
Y1514294D01*
X2177171Y1512178D01*
X1600200Y1514294D02*
X1604432D01*
X1602316D01*
Y1501598D01*
X1600200D01*
X1604432D01*
X1610780D02*
Y1510062D01*
X1617128D01*
X1619244Y1507946D01*
Y1501598D01*
X1623476D02*
X1627708D01*
X1625592D01*
Y1510062D01*
X1623476D01*
X1636172Y1512178D02*
Y1510062D01*
X1634056D01*
X1638288D01*
X1636172D01*
Y1503714D01*
X1638288Y1501598D01*
X1644636D02*
X1648868D01*
X1646752D01*
Y1510062D01*
X1644636D01*
X1657332D02*
X1661564D01*
X1663680Y1507946D01*
Y1501598D01*
X1657332D01*
X1655215Y1503714D01*
X1657332Y1505830D01*
X1663680D01*
X1667911Y1501598D02*
X1672143D01*
X1670027D01*
Y1514294D01*
X1667911D01*
X1691187Y1501598D02*
Y1514294D01*
X1697535D01*
X1699651Y1512178D01*
Y1507946D01*
X1697535Y1505830D01*
X1691187D01*
X1703883Y1510062D02*
Y1501598D01*
Y1505830D01*
X1705999Y1507946D01*
X1708115Y1510062D01*
X1710231D01*
X1718695Y1501598D02*
X1722927D01*
X1725043Y1503714D01*
Y1507946D01*
X1722927Y1510062D01*
X1718695D01*
X1716579Y1507946D01*
Y1503714D01*
X1718695Y1501598D01*
X1737739Y1514294D02*
Y1501598D01*
X1731391D01*
X1729275Y1503714D01*
Y1507946D01*
X1731391Y1510062D01*
X1737739D01*
X1741971D02*
Y1503714D01*
X1744087Y1501598D01*
X1750435D01*
Y1510062D01*
X1763131D02*
X1756783D01*
X1754667Y1507946D01*
Y1503714D01*
X1756783Y1501598D01*
X1763131D01*
X1769478Y1512178D02*
Y1510062D01*
X1767363D01*
X1771595D01*
X1769478D01*
Y1503714D01*
X1771595Y1501598D01*
X1777942D02*
X1782174D01*
X1780058D01*
Y1510062D01*
X1777942D01*
X1790638Y1501598D02*
X1794870D01*
X1796986Y1503714D01*
Y1507946D01*
X1794870Y1510062D01*
X1790638D01*
X1788522Y1507946D01*
Y1503714D01*
X1790638Y1501598D01*
X1801218D02*
Y1510062D01*
X1807566D01*
X1809682Y1507946D01*
Y1501598D01*
X1826610D02*
Y1514294D01*
X1832958D01*
X1835074Y1512178D01*
Y1507946D01*
X1832958Y1505830D01*
X1826610D01*
X1830842D02*
X1835074Y1501598D01*
X1845654D02*
X1841422D01*
X1839306Y1503714D01*
Y1507946D01*
X1841422Y1510062D01*
X1845654D01*
X1847770Y1507946D01*
Y1505830D01*
X1839306D01*
X1852002Y1501598D02*
X1856234D01*
X1854118D01*
Y1514294D01*
X1852002D01*
X1868930Y1501598D02*
X1864698D01*
X1862582Y1503714D01*
Y1507946D01*
X1864698Y1510062D01*
X1868930D01*
X1871046Y1507946D01*
Y1505830D01*
X1862582D01*
X1877394Y1510062D02*
X1881626D01*
X1883741Y1507946D01*
Y1501598D01*
X1877394D01*
X1875278Y1503714D01*
X1877394Y1505830D01*
X1883741D01*
X1887973Y1501598D02*
X1894321D01*
X1896437Y1503714D01*
X1894321Y1505830D01*
X1890089D01*
X1887973Y1507946D01*
X1890089Y1510062D01*
X1896437D01*
X1907017Y1501598D02*
X1902785D01*
X1900669Y1503714D01*
Y1507946D01*
X1902785Y1510062D01*
X1907017D01*
X1909133Y1507946D01*
Y1505830D01*
X1900669D01*
X1490980Y1501598D02*
Y1514294D01*
X1497328D01*
X1499444Y1512178D01*
Y1507946D01*
X1497328Y1505830D01*
X1490980D01*
X1495212D02*
X1499444Y1501598D01*
X1510024D02*
X1505792D01*
X1503676Y1503714D01*
Y1507946D01*
X1505792Y1510062D01*
X1510024D01*
X1512140Y1507946D01*
Y1505830D01*
X1503676D01*
X1516372Y1510062D02*
X1520604Y1501598D01*
X1524836Y1510062D01*
X1541763Y1514294D02*
Y1501598D01*
X1548112D01*
X1550228Y1503714D01*
Y1512178D01*
X1548112Y1514294D01*
X1541763D01*
X1490980Y1463498D02*
Y1476194D01*
X1497328D01*
X1499444Y1474078D01*
Y1469846D01*
X1497328Y1467730D01*
X1490980D01*
X1495212D02*
X1499444Y1463498D01*
X1510024D02*
X1505792D01*
X1503676Y1465614D01*
Y1469846D01*
X1505792Y1471962D01*
X1510024D01*
X1512140Y1469846D01*
Y1467730D01*
X1503676D01*
X1516372Y1471962D02*
X1520604Y1463498D01*
X1524836Y1471962D01*
X1550228Y1476194D02*
X1541763D01*
Y1463498D01*
X1550228D01*
X1541763Y1469846D02*
X1545995D01*
X1600200Y1463498D02*
Y1471962D01*
X1604432Y1476194D01*
X1608664Y1471962D01*
Y1463498D01*
Y1469846D01*
X1600200D01*
X1621360Y1476194D02*
Y1463498D01*
X1615012D01*
X1612896Y1465614D01*
Y1469846D01*
X1615012Y1471962D01*
X1621360D01*
X1634056Y1476194D02*
Y1463498D01*
X1627708D01*
X1625592Y1465614D01*
Y1469846D01*
X1627708Y1471962D01*
X1634056D01*
X1638288Y1463498D02*
X1642520D01*
X1640404D01*
Y1471962D01*
X1638288D01*
X1650983Y1474078D02*
Y1471962D01*
X1648868D01*
X1653100D01*
X1650983D01*
Y1465614D01*
X1653100Y1463498D01*
X1659447D02*
X1663680D01*
X1661564D01*
Y1471962D01*
X1659447D01*
X1672143Y1463498D02*
X1676375D01*
X1678491Y1465614D01*
Y1469846D01*
X1676375Y1471962D01*
X1672143D01*
X1670027Y1469846D01*
Y1465614D01*
X1672143Y1463498D01*
X1682723D02*
Y1471962D01*
X1689071D01*
X1691187Y1469846D01*
Y1463498D01*
X1710231D02*
X1714463D01*
X1716579Y1465614D01*
Y1469846D01*
X1714463Y1471962D01*
X1710231D01*
X1708115Y1469846D01*
Y1465614D01*
X1710231Y1463498D01*
X1722927D02*
Y1474078D01*
Y1469846D01*
X1720811D01*
X1725043D01*
X1722927D01*
Y1474078D01*
X1725043Y1476194D01*
X1744087D02*
Y1463498D01*
X1750435D01*
X1752551Y1465614D01*
Y1467730D01*
X1750435Y1469846D01*
X1744087D01*
X1750435D01*
X1752551Y1471962D01*
Y1474078D01*
X1750435Y1476194D01*
X1744087D01*
X1765247Y1474078D02*
X1763131Y1476194D01*
X1758899D01*
X1756783Y1474078D01*
Y1465614D01*
X1758899Y1463498D01*
X1763131D01*
X1765247Y1465614D01*
Y1469846D01*
X1761015D01*
X1769478Y1463498D02*
Y1471962D01*
X1773710Y1476194D01*
X1777942Y1471962D01*
Y1463498D01*
Y1469846D01*
X1769478D01*
X1782174D02*
X1790638D01*
X1794870Y1463498D02*
X1799102D01*
X1796986D01*
Y1476194D01*
X1794870Y1474078D01*
X1813914Y1463498D02*
X1805450D01*
X1813914Y1471962D01*
Y1474078D01*
X1811798Y1476194D01*
X1807566D01*
X1805450Y1474078D01*
X1818146Y1463498D02*
X1822378D01*
X1820262D01*
Y1476194D01*
X1818146Y1474078D01*
X1841422Y1476194D02*
X1845654D01*
X1843538D01*
Y1463498D01*
X1841422D01*
X1845654D01*
X1852002D02*
Y1471962D01*
X1858350D01*
X1860466Y1469846D01*
Y1463498D01*
X1866814Y1474078D02*
Y1471962D01*
X1864698D01*
X1868930D01*
X1866814D01*
Y1465614D01*
X1868930Y1463498D01*
X1881626D02*
X1877394D01*
X1875278Y1465614D01*
Y1469846D01*
X1877394Y1471962D01*
X1881626D01*
X1883741Y1469846D01*
Y1467730D01*
X1875278D01*
X1887973Y1471962D02*
Y1463498D01*
Y1467730D01*
X1890089Y1469846D01*
X1892205Y1471962D01*
X1894321D01*
X1902785Y1463498D02*
Y1474078D01*
Y1469846D01*
X1900669D01*
X1904901D01*
X1902785D01*
Y1474078D01*
X1904901Y1476194D01*
X1913365Y1471962D02*
X1917597D01*
X1919713Y1469846D01*
Y1463498D01*
X1913365D01*
X1911249Y1465614D01*
X1913365Y1467730D01*
X1919713D01*
X1932409Y1471962D02*
X1926061D01*
X1923945Y1469846D01*
Y1465614D01*
X1926061Y1463498D01*
X1932409D01*
X1942989D02*
X1938757D01*
X1936641Y1465614D01*
Y1469846D01*
X1938757Y1471962D01*
X1942989D01*
X1945105Y1469846D01*
Y1467730D01*
X1936641D01*
X1962033Y1476194D02*
X1966265D01*
X1964149D01*
Y1463498D01*
X1962033D01*
X1966265D01*
X1981077Y1474078D02*
X1978961Y1476194D01*
X1974729D01*
X1972613Y1474078D01*
Y1465614D01*
X1974729Y1463498D01*
X1978961D01*
X1981077Y1465614D01*
X2084068Y1463498D02*
Y1476194D01*
X2077720Y1469846D01*
X2086184D01*
X2090416Y1463498D02*
X2098880Y1471962D01*
X2111576Y1463498D02*
X2103112D01*
X2111576Y1471962D01*
Y1474078D01*
X2109460Y1476194D01*
X2105228D01*
X2103112Y1474078D01*
X2115808D02*
X2117924Y1476194D01*
X2122156D01*
X2124272Y1474078D01*
Y1471962D01*
X2122156Y1469846D01*
X2124272Y1467730D01*
Y1465614D01*
X2122156Y1463498D01*
X2117924D01*
X2115808Y1465614D01*
Y1467730D01*
X2117924Y1469846D01*
X2115808Y1471962D01*
Y1474078D01*
X2117924Y1469846D02*
X2122156D01*
X2128504Y1463498D02*
X2136967Y1471962D01*
X2149663Y1463498D02*
X2141199D01*
X2149663Y1471962D01*
Y1474078D01*
X2147547Y1476194D01*
X2143315D01*
X2141199Y1474078D01*
X2153895D02*
X2156011Y1476194D01*
X2160243D01*
X2162359Y1474078D01*
Y1465614D01*
X2160243Y1463498D01*
X2156011D01*
X2153895Y1465614D01*
Y1474078D01*
X2175055Y1463498D02*
X2166591D01*
X2175055Y1471962D01*
Y1474078D01*
X2172939Y1476194D01*
X2168707D01*
X2166591Y1474078D01*
X2179287Y1463498D02*
X2183519D01*
X2181403D01*
Y1476194D01*
X2179287Y1474078D01*
X2253824Y1476194D02*
X2245360D01*
Y1463498D01*
X2253824D01*
X2245360Y1469846D02*
X2249592D01*
X2258056Y1463498D02*
Y1476194D01*
X2262288Y1471962D01*
X2266520Y1476194D01*
Y1463498D01*
X2277100Y1476194D02*
X2272868D01*
X2270752Y1474078D01*
Y1465614D01*
X2272868Y1463498D01*
X2277100D01*
X2279216Y1465614D01*
Y1474078D01*
X2277100Y1476194D01*
X2289796D02*
X2285564D01*
X2283448Y1474078D01*
Y1465614D01*
X2285564Y1463498D01*
X2289796D01*
X2291912Y1465614D01*
Y1474078D01*
X2289796Y1476194D01*
X1272540Y-286517D02*
Y-299213D01*
X1275079Y-301752D01*
X1280157D01*
X1282697Y-299213D01*
Y-286517D01*
X1287775D02*
Y-301752D01*
X1295393D01*
X1297932Y-299213D01*
Y-296674D01*
X1295393Y-294135D01*
X1287775D01*
X1295393D01*
X1297932Y-291595D01*
Y-289056D01*
X1295393Y-286517D01*
X1287775D01*
X1303010D02*
X1313167Y-301752D01*
Y-286517D02*
X1303010Y-301752D01*
X1318245Y-286517D02*
Y-301752D01*
Y-294135D01*
X1328402D01*
Y-286517D01*
Y-301752D01*
X1343637Y-286517D02*
X1338559Y-289056D01*
X1333480Y-294135D01*
Y-299213D01*
X1336019Y-301752D01*
X1341098D01*
X1343637Y-299213D01*
Y-296674D01*
X1341098Y-294135D01*
X1333480D01*
X1348715Y-289056D02*
X1351254Y-286517D01*
X1356333D01*
X1358872Y-289056D01*
Y-299213D01*
X1356333Y-301752D01*
X1351254D01*
X1348715Y-299213D01*
Y-289056D01*
X1363950Y-294135D02*
X1374107D01*
X1379185Y-289056D02*
X1381725Y-286517D01*
X1386803D01*
X1389342Y-289056D01*
Y-299213D01*
X1386803Y-301752D01*
X1381725D01*
X1379185Y-299213D01*
Y-289056D01*
X1394421D02*
X1396960Y-286517D01*
X1402038D01*
X1404577Y-289056D01*
Y-299213D01*
X1402038Y-301752D01*
X1396960D01*
X1394421Y-299213D01*
Y-289056D01*
X1409656D02*
X1412195Y-286517D01*
X1417273D01*
X1419812Y-289056D01*
Y-299213D01*
X1417273Y-301752D01*
X1412195D01*
X1409656Y-299213D01*
Y-289056D01*
X1424891D02*
X1427430Y-286517D01*
X1432508D01*
X1435047Y-289056D01*
Y-299213D01*
X1432508Y-301752D01*
X1427430D01*
X1424891Y-299213D01*
Y-289056D01*
X1440126Y-286517D02*
X1450282D01*
Y-289056D01*
X1440126Y-299213D01*
Y-301752D01*
X1455361Y-289056D02*
X1457900Y-286517D01*
X1462978D01*
X1465518Y-289056D01*
Y-299213D01*
X1462978Y-301752D01*
X1457900D01*
X1455361Y-299213D01*
Y-289056D01*
X1480753Y-301752D02*
X1470596D01*
X1480753Y-291595D01*
Y-289056D01*
X1478214Y-286517D01*
X1473135D01*
X1470596Y-289056D01*
X1712802Y-210319D02*
X1699260D01*
Y-230632D01*
X1712802D01*
X1699260Y-220475D02*
X1706031D01*
X1719573Y-210319D02*
Y-223861D01*
X1726345Y-230632D01*
X1733116Y-223861D01*
Y-210319D01*
X1739887D02*
Y-230632D01*
Y-223861D01*
X1753429Y-210319D01*
X1743272Y-220475D01*
X1753429Y-230632D01*
X1760200Y-220475D02*
X1773743D01*
X1780514Y-230632D02*
Y-210319D01*
X1794056Y-230632D01*
Y-210319D01*
X1810984D02*
X1804213D01*
X1800827Y-213704D01*
Y-227246D01*
X1804213Y-230632D01*
X1810984D01*
X1814369Y-227246D01*
Y-213704D01*
X1810984Y-210319D01*
X1821140Y-230632D02*
Y-210319D01*
X1831297D01*
X1834683Y-213704D01*
Y-220475D01*
X1831297Y-223861D01*
X1821140D01*
X1827912D02*
X1834683Y-230632D01*
X1841454D02*
Y-217090D01*
X1848225Y-210319D01*
X1854996Y-217090D01*
Y-230632D01*
Y-220475D01*
X1841454D01*
X1861767D02*
X1875310D01*
X1882081Y-210319D02*
Y-230632D01*
X1892238D01*
X1895623Y-227246D01*
Y-223861D01*
X1892238Y-220475D01*
X1882081D01*
X1892238D01*
X1895623Y-217090D01*
Y-213704D01*
X1892238Y-210319D01*
X1882081D01*
X1902394Y-230632D02*
X1909165D01*
X1905780D01*
Y-210319D01*
X1902394Y-213704D01*
X1919322D02*
X1922708Y-210319D01*
X1929479D01*
X1932864Y-213704D01*
Y-227246D01*
X1929479Y-230632D01*
X1922708D01*
X1919322Y-227246D01*
Y-213704D01*
X2193840Y-229422D02*
Y-209109D01*
X2203997D01*
X2207382Y-212494D01*
Y-219265D01*
X2203997Y-222651D01*
X2193840D01*
X2200611D02*
X2207382Y-229422D01*
X2224310D02*
X2217539D01*
X2214153Y-226036D01*
Y-219265D01*
X2217539Y-215880D01*
X2224310D01*
X2227696Y-219265D01*
Y-222651D01*
X2214153D01*
X2234467Y-215880D02*
X2241238Y-229422D01*
X2248009Y-215880D01*
X2288636Y-209109D02*
X2275094D01*
Y-229422D01*
X2288636D01*
X2275094Y-219265D02*
X2281865D01*
X1699260Y-149359D02*
X1712802D01*
X1706031D01*
Y-169672D01*
X1733116Y-149359D02*
X1719573D01*
Y-169672D01*
X1733116D01*
X1719573Y-159515D02*
X1726345D01*
X1739887D02*
X1753429D01*
X1760200Y-169672D02*
Y-149359D01*
X1770357D01*
X1773743Y-152744D01*
Y-159515D01*
X1770357Y-162901D01*
X1760200D01*
X1766971D02*
X1773743Y-169672D01*
X1780514Y-149359D02*
Y-169672D01*
X1790670D01*
X1794056Y-166286D01*
Y-162901D01*
X1790670Y-159515D01*
X1780514D01*
X1790670D01*
X1794056Y-156130D01*
Y-152744D01*
X1790670Y-149359D01*
X1780514D01*
X1800827Y-169672D02*
X1807598D01*
X1804213D01*
Y-149359D01*
X1800827Y-152744D01*
X1332650Y-151898D02*
X1320800D01*
Y-169672D01*
X1332650D01*
X1320800Y-160785D02*
X1326725D01*
X1338574Y-169672D02*
Y-151898D01*
X1344499Y-157823D01*
X1350424Y-151898D01*
Y-169672D01*
X1365236Y-151898D02*
X1359311D01*
X1356349Y-154860D01*
Y-166710D01*
X1359311Y-169672D01*
X1365236D01*
X1368198Y-166710D01*
Y-154860D01*
X1365236Y-151898D01*
X1383010D02*
X1377085D01*
X1374123Y-154860D01*
Y-166710D01*
X1377085Y-169672D01*
X1383010D01*
X1385972Y-166710D01*
Y-154860D01*
X1383010Y-151898D01*
X1286507Y-230632D02*
Y-212858D01*
X1277620Y-221745D01*
X1289469D01*
X1295394Y-230632D02*
X1307244Y-218783D01*
X1325018Y-230632D02*
X1313168D01*
X1325018Y-218783D01*
Y-215820D01*
X1322056Y-212858D01*
X1316131D01*
X1313168Y-215820D01*
X1330943D02*
X1333905Y-212858D01*
X1339830D01*
X1342792Y-215820D01*
Y-218783D01*
X1339830Y-221745D01*
X1342792Y-224707D01*
Y-227670D01*
X1339830Y-230632D01*
X1333905D01*
X1330943Y-227670D01*
Y-224707D01*
X1333905Y-221745D01*
X1330943Y-218783D01*
Y-215820D01*
X1333905Y-221745D02*
X1339830D01*
X1348717Y-230632D02*
X1360567Y-218783D01*
X1378341Y-230632D02*
X1366491D01*
X1378341Y-218783D01*
Y-215820D01*
X1375378Y-212858D01*
X1369454D01*
X1366491Y-215820D01*
X1384266D02*
X1387228Y-212858D01*
X1393153D01*
X1396115Y-215820D01*
Y-227670D01*
X1393153Y-230632D01*
X1387228D01*
X1384266Y-227670D01*
Y-215820D01*
X1413889Y-230632D02*
X1402040D01*
X1413889Y-218783D01*
Y-215820D01*
X1410927Y-212858D01*
X1405002D01*
X1402040Y-215820D01*
X1419814Y-230632D02*
X1425739D01*
X1422776D01*
Y-212858D01*
X1419814Y-215820D01*
X1610360Y-299212D02*
Y-283977D01*
X1620517Y-299212D01*
Y-283977D01*
X1633213D02*
X1628134D01*
X1625595Y-286516D01*
Y-296673D01*
X1628134Y-299212D01*
X1633213D01*
X1635752Y-296673D01*
Y-286516D01*
X1633213Y-283977D01*
X1640830Y-299212D02*
Y-283977D01*
X1648448D01*
X1650987Y-286516D01*
Y-291595D01*
X1648448Y-294134D01*
X1640830D01*
X1645909D02*
X1650987Y-299212D01*
X1656065D02*
Y-289055D01*
X1661144Y-283977D01*
X1666222Y-289055D01*
Y-299212D01*
Y-291595D01*
X1656065D01*
X1671300D02*
X1681457D01*
X1686535Y-283977D02*
Y-299212D01*
X1694153D01*
X1696692Y-296673D01*
Y-294134D01*
X1694153Y-291595D01*
X1686535D01*
X1694153D01*
X1696692Y-289055D01*
Y-286516D01*
X1694153Y-283977D01*
X1686535D01*
X1701770Y-299212D02*
X1706849D01*
X1704310D01*
Y-283977D01*
X1701770Y-286516D01*
X1714466Y-291595D02*
X1724623D01*
X1739858Y-283977D02*
X1729701D01*
Y-299212D01*
X1739858D01*
X1729701Y-291595D02*
X1734780D01*
X1744937Y-283977D02*
Y-294134D01*
X1750015Y-299212D01*
X1755093Y-294134D01*
Y-283977D01*
X1760172D02*
Y-299212D01*
Y-294134D01*
X1770328Y-283977D01*
X1762711Y-291595D01*
X1770328Y-299212D01*
X1775407D02*
Y-296673D01*
X1777946D01*
Y-299212D01*
X1775407D01*
X1788103D02*
Y-283977D01*
X1795720D01*
X1798259Y-286516D01*
Y-291595D01*
X1795720Y-294134D01*
X1788103D01*
X1813494Y-289055D02*
X1805877D01*
X1803338Y-291595D01*
Y-296673D01*
X1805877Y-299212D01*
X1813494D01*
X1818573Y-283977D02*
Y-299212D01*
X1826190D01*
X1828729Y-296673D01*
Y-294134D01*
Y-291595D01*
X1826190Y-289055D01*
X1818573D01*
X1833808Y-283977D02*
Y-299212D01*
X1841425D01*
X1843964Y-296673D01*
Y-286516D01*
X1841425Y-283977D01*
X1833808D01*
X1851582Y-299212D02*
X1856660D01*
X1859200Y-296673D01*
Y-291595D01*
X1856660Y-289055D01*
X1851582D01*
X1849043Y-291595D01*
Y-296673D01*
X1851582Y-299212D01*
X1874435Y-289055D02*
X1866817D01*
X1864278Y-291595D01*
Y-296673D01*
X1866817Y-299212D01*
X1874435D01*
X924933Y-277057D02*
X923966Y-275123D01*
X922031Y-273188D01*
X920096Y-272220D01*
X916226D01*
X914292Y-273188D01*
X912357Y-275123D01*
X911389Y-277057D01*
X910422Y-279960D01*
Y-284797D01*
X911389Y-287699D01*
X912357Y-289634D01*
X914292Y-291569D01*
X916226Y-292536D01*
X920096D01*
X922031Y-291569D01*
X923966Y-289634D01*
X924933Y-287699D01*
X936445Y-272220D02*
X934510Y-273188D01*
X932576Y-275123D01*
X931608Y-277057D01*
X930641Y-279960D01*
Y-284797D01*
X931608Y-287699D01*
X932576Y-289634D01*
X934510Y-291569D01*
X936445Y-292536D01*
X940315D01*
X942250Y-291569D01*
X944185Y-289634D01*
X945152Y-287699D01*
X946120Y-284797D01*
Y-279960D01*
X945152Y-277057D01*
X944185Y-275123D01*
X942250Y-273188D01*
X940315Y-272220D01*
X936445D01*
X950860D02*
Y-292536D01*
Y-272220D02*
X964404Y-292536D01*
Y-272220D02*
Y-292536D01*
X970014Y-272220D02*
Y-292536D01*
Y-272220D02*
X982591D01*
X970014Y-281894D02*
X977754D01*
X984913Y-272220D02*
Y-292536D01*
X989169Y-272220D02*
Y-292536D01*
Y-272220D02*
X995941D01*
X998843Y-273188D01*
X1000778Y-275123D01*
X1001746Y-277057D01*
X1002713Y-279960D01*
Y-284797D01*
X1001746Y-287699D01*
X1000778Y-289634D01*
X998843Y-291569D01*
X995941Y-292536D01*
X989169D01*
X1019836Y-272220D02*
X1007260D01*
Y-292536D01*
X1019836D01*
X1007260Y-281894D02*
X1014999D01*
X1023222Y-272220D02*
Y-292536D01*
Y-272220D02*
X1036766Y-292536D01*
Y-272220D02*
Y-292536D01*
X1049149Y-272220D02*
Y-292536D01*
X1042377Y-272220D02*
X1055921D01*
X1058339D02*
Y-292536D01*
X1078074D02*
X1070335Y-272220D01*
X1062596Y-292536D01*
X1065498Y-285764D02*
X1075172D01*
X1082815Y-272220D02*
Y-292536D01*
X1094424D01*
X2253824Y1552444D02*
X2245360D01*
Y1539748D01*
X2253824D01*
X2245360Y1546096D02*
X2249592D01*
X2258056Y1539748D02*
Y1552444D01*
X2262288Y1548212D01*
X2266520Y1552444D01*
Y1539748D01*
X2277100Y1552444D02*
X2272868D01*
X2270752Y1550328D01*
Y1541864D01*
X2272868Y1539748D01*
X2277100D01*
X2279216Y1541864D01*
Y1550328D01*
X2277100Y1552444D01*
X2289796D02*
X2285564D01*
X2283448Y1550328D01*
Y1541864D01*
X2285564Y1539748D01*
X2289796D01*
X2291912Y1541864D01*
Y1550328D01*
X2289796Y1552444D01*
X2077720Y1539748D02*
X2081952D01*
X2079836D01*
Y1552444D01*
X2077720Y1550328D01*
X2088300Y1539748D02*
X2092532D01*
X2090416D01*
Y1552444D01*
X2088300Y1550328D01*
X2098880Y1539748D02*
X2107344Y1548212D01*
X2111576Y1539748D02*
X2115808D01*
X2113692D01*
Y1552444D01*
X2111576Y1550328D01*
X2130620Y1552444D02*
X2126388Y1550328D01*
X2122156Y1546096D01*
Y1541864D01*
X2124272Y1539748D01*
X2128504D01*
X2130620Y1541864D01*
Y1543980D01*
X2128504Y1546096D01*
X2122156D01*
X2134852Y1539748D02*
X2143315Y1548212D01*
X2156011Y1539748D02*
X2147547D01*
X2156011Y1548212D01*
Y1550328D01*
X2153895Y1552444D01*
X2149663D01*
X2147547Y1550328D01*
X2160243D02*
X2162359Y1552444D01*
X2166591D01*
X2168707Y1550328D01*
Y1541864D01*
X2166591Y1539748D01*
X2162359D01*
X2160243Y1541864D01*
Y1550328D01*
X2181403Y1539748D02*
X2172939D01*
X2181403Y1548212D01*
Y1550328D01*
X2179287Y1552444D01*
X2175055D01*
X2172939Y1550328D01*
X2185635D02*
X2187751Y1552444D01*
X2191983D01*
X2194099Y1550328D01*
Y1541864D01*
X2191983Y1539748D01*
X2187751D01*
X2185635Y1541864D01*
Y1550328D01*
X1608664Y1552444D02*
X1600200D01*
Y1539748D01*
X1608664D01*
X1600200Y1546096D02*
X1604432D01*
X1612896Y1539748D02*
Y1548212D01*
X1619244D01*
X1621360Y1546096D01*
Y1539748D01*
X1629824Y1535516D02*
X1631940D01*
X1634056Y1537632D01*
Y1548212D01*
X1627708D01*
X1625592Y1546096D01*
Y1541864D01*
X1627708Y1539748D01*
X1634056D01*
X1638288D02*
X1642520D01*
X1640404D01*
Y1548212D01*
X1638288D01*
X1648868Y1539748D02*
Y1548212D01*
X1655215D01*
X1657332Y1546096D01*
Y1539748D01*
X1667911D02*
X1663679D01*
X1661564Y1541864D01*
Y1546096D01*
X1663679Y1548212D01*
X1667911D01*
X1670027Y1546096D01*
Y1543980D01*
X1661564D01*
X1680607Y1539748D02*
X1676375D01*
X1674259Y1541864D01*
Y1546096D01*
X1676375Y1548212D01*
X1680607D01*
X1682723Y1546096D01*
Y1543980D01*
X1674259D01*
X1686955Y1548212D02*
Y1539748D01*
Y1543980D01*
X1689071Y1546096D01*
X1691187Y1548212D01*
X1693303D01*
X1699651Y1539748D02*
X1703883D01*
X1701767D01*
Y1548212D01*
X1699651D01*
X1710231Y1539748D02*
Y1548212D01*
X1716579D01*
X1718695Y1546096D01*
Y1539748D01*
X1727159Y1535516D02*
X1729275D01*
X1731391Y1537632D01*
Y1548212D01*
X1725043D01*
X1722927Y1546096D01*
Y1541864D01*
X1725043Y1539748D01*
X1731391D01*
X1756783Y1550328D02*
X1754667Y1552444D01*
X1750435D01*
X1748319Y1550328D01*
Y1548212D01*
X1750435Y1546096D01*
X1754667D01*
X1756783Y1543980D01*
Y1541864D01*
X1754667Y1539748D01*
X1750435D01*
X1748319Y1541864D01*
X1763130Y1548212D02*
X1767363D01*
X1769478Y1546096D01*
Y1539748D01*
X1763130D01*
X1761015Y1541864D01*
X1763130Y1543980D01*
X1769478D01*
X1773710Y1539748D02*
Y1548212D01*
X1775826D01*
X1777942Y1546096D01*
Y1539748D01*
Y1546096D01*
X1780058Y1548212D01*
X1782174Y1546096D01*
Y1539748D01*
X1786406Y1535516D02*
Y1548212D01*
X1792754D01*
X1794870Y1546096D01*
Y1541864D01*
X1792754Y1539748D01*
X1786406D01*
X1799102D02*
X1803334D01*
X1801218D01*
Y1552444D01*
X1799102D01*
X1816030Y1539748D02*
X1811798D01*
X1809682Y1541864D01*
Y1546096D01*
X1811798Y1548212D01*
X1816030D01*
X1818146Y1546096D01*
Y1543980D01*
X1809682D01*
X1835074Y1539748D02*
Y1552444D01*
X1841422D01*
X1843538Y1550328D01*
Y1546096D01*
X1841422Y1543980D01*
X1835074D01*
X1839306D02*
X1843538Y1539748D01*
X1854118D02*
X1849886D01*
X1847770Y1541864D01*
Y1546096D01*
X1849886Y1548212D01*
X1854118D01*
X1856234Y1546096D01*
Y1543980D01*
X1847770D01*
X1860466Y1539748D02*
X1864698D01*
X1862582D01*
Y1552444D01*
X1860466D01*
X1877393Y1539748D02*
X1873162D01*
X1871046Y1541864D01*
Y1546096D01*
X1873162Y1548212D01*
X1877393D01*
X1879509Y1546096D01*
Y1543980D01*
X1871046D01*
X1885857Y1548212D02*
X1890089D01*
X1892205Y1546096D01*
Y1539748D01*
X1885857D01*
X1883741Y1541864D01*
X1885857Y1543980D01*
X1892205D01*
X1896437Y1539748D02*
X1902785D01*
X1904901Y1541864D01*
X1902785Y1543980D01*
X1898553D01*
X1896437Y1546096D01*
X1898553Y1548212D01*
X1904901D01*
X1915481Y1539748D02*
X1911249D01*
X1909133Y1541864D01*
Y1546096D01*
X1911249Y1548212D01*
X1915481D01*
X1917597Y1546096D01*
Y1543980D01*
X1909133D01*
X1490980Y1539748D02*
Y1552444D01*
X1497328D01*
X1499444Y1550328D01*
Y1546096D01*
X1497328Y1543980D01*
X1490980D01*
X1495212D02*
X1499444Y1539748D01*
X1510024D02*
X1505792D01*
X1503676Y1541864D01*
Y1546096D01*
X1505792Y1548212D01*
X1510024D01*
X1512140Y1546096D01*
Y1543980D01*
X1503676D01*
X1516372Y1548212D02*
X1520604Y1539748D01*
X1524836Y1548212D01*
X1550228Y1550328D02*
X1548112Y1552444D01*
X1543880D01*
X1541763Y1550328D01*
Y1541864D01*
X1543880Y1539748D01*
X1548112D01*
X1550228Y1541864D01*
X1490980Y1577848D02*
Y1590544D01*
X1497328D01*
X1499444Y1588428D01*
Y1584196D01*
X1497328Y1582080D01*
X1490980D01*
X1495212D02*
X1499444Y1577848D01*
X1510024D02*
X1505792D01*
X1503676Y1579964D01*
Y1584196D01*
X1505792Y1586312D01*
X1510024D01*
X1512140Y1584196D01*
Y1582080D01*
X1503676D01*
X1516372Y1586312D02*
X1520604Y1577848D01*
X1524836Y1586312D01*
X1541763Y1590544D02*
Y1577848D01*
X1548112D01*
X1550228Y1579964D01*
Y1582080D01*
X1548112Y1584196D01*
X1541763D01*
X1548112D01*
X1550228Y1586312D01*
Y1588428D01*
X1548112Y1590544D01*
X1541763D01*
X1608664Y1588428D02*
X1606548Y1590544D01*
X1602316D01*
X1600200Y1588428D01*
Y1586312D01*
X1602316Y1584196D01*
X1606548D01*
X1608664Y1582080D01*
Y1579964D01*
X1606548Y1577848D01*
X1602316D01*
X1600200Y1579964D01*
X1619244Y1577848D02*
X1615012D01*
X1612896Y1579964D01*
Y1584196D01*
X1615012Y1586312D01*
X1619244D01*
X1621360Y1584196D01*
Y1582080D01*
X1612896D01*
X1634056Y1586312D02*
X1627708D01*
X1625592Y1584196D01*
Y1579964D01*
X1627708Y1577848D01*
X1634056D01*
X1640404D02*
X1644636D01*
X1646752Y1579964D01*
Y1584196D01*
X1644636Y1586312D01*
X1640404D01*
X1638288Y1584196D01*
Y1579964D01*
X1640404Y1577848D01*
X1650983D02*
Y1586312D01*
X1657332D01*
X1659447Y1584196D01*
Y1577848D01*
X1672143Y1590544D02*
Y1577848D01*
X1665795D01*
X1663679Y1579964D01*
Y1584196D01*
X1665795Y1586312D01*
X1672143D01*
X1689071Y1577848D02*
Y1590544D01*
X1695419D01*
X1697535Y1588428D01*
Y1584196D01*
X1695419Y1582080D01*
X1689071D01*
X1701767Y1586312D02*
Y1577848D01*
Y1582080D01*
X1703883Y1584196D01*
X1705999Y1586312D01*
X1708115D01*
X1716579Y1577848D02*
X1720811D01*
X1722927Y1579964D01*
Y1584196D01*
X1720811Y1586312D01*
X1716579D01*
X1714463Y1584196D01*
Y1579964D01*
X1716579Y1577848D01*
X1729275Y1588428D02*
Y1586312D01*
X1727159D01*
X1731391D01*
X1729275D01*
Y1579964D01*
X1731391Y1577848D01*
X1739855D02*
X1744087D01*
X1746203Y1579964D01*
Y1584196D01*
X1744087Y1586312D01*
X1739855D01*
X1737739Y1584196D01*
Y1579964D01*
X1739855Y1577848D01*
X1752551Y1588428D02*
Y1586312D01*
X1750435D01*
X1754667D01*
X1752551D01*
Y1579964D01*
X1754667Y1577848D01*
X1761015Y1586312D02*
Y1579964D01*
X1763130Y1577848D01*
X1769478D01*
Y1575732D01*
X1767363Y1573616D01*
X1765246D01*
X1769478Y1577848D02*
Y1586312D01*
X1773710Y1573616D02*
Y1586312D01*
X1780058D01*
X1782174Y1584196D01*
Y1579964D01*
X1780058Y1577848D01*
X1773710D01*
X1792754D02*
X1788522D01*
X1786406Y1579964D01*
Y1584196D01*
X1788522Y1586312D01*
X1792754D01*
X1794870Y1584196D01*
Y1582080D01*
X1786406D01*
X1811798Y1577848D02*
Y1590544D01*
X1818146D01*
X1820262Y1588428D01*
Y1584196D01*
X1818146Y1582080D01*
X1811798D01*
X1816030D02*
X1820262Y1577848D01*
X1830842D02*
X1826610D01*
X1824494Y1579964D01*
Y1584196D01*
X1826610Y1586312D01*
X1830842D01*
X1832958Y1584196D01*
Y1582080D01*
X1824494D01*
X1837190Y1577848D02*
X1841422D01*
X1839306D01*
Y1590544D01*
X1837190D01*
X1854118Y1577848D02*
X1849886D01*
X1847770Y1579964D01*
Y1584196D01*
X1849886Y1586312D01*
X1854118D01*
X1856234Y1584196D01*
Y1582080D01*
X1847770D01*
X1862582Y1586312D02*
X1866814D01*
X1868930Y1584196D01*
Y1577848D01*
X1862582D01*
X1860466Y1579964D01*
X1862582Y1582080D01*
X1868930D01*
X1873162Y1577848D02*
X1879509D01*
X1881626Y1579964D01*
X1879509Y1582080D01*
X1875278D01*
X1873162Y1584196D01*
X1875278Y1586312D01*
X1881626D01*
X1892205Y1577848D02*
X1887973D01*
X1885857Y1579964D01*
Y1584196D01*
X1887973Y1586312D01*
X1892205D01*
X1894321Y1584196D01*
Y1582080D01*
X1885857D01*
X2077720Y1579964D02*
X2079836Y1577848D01*
X2084068D01*
X2086184Y1579964D01*
Y1588428D01*
X2084068Y1590544D01*
X2079836D01*
X2077720Y1588428D01*
Y1586312D01*
X2079836Y1584196D01*
X2086184D01*
X2090416Y1577848D02*
X2098880Y1586312D01*
X2103112Y1577848D02*
X2107344D01*
X2105228D01*
Y1590544D01*
X2103112Y1588428D01*
X2122156Y1590544D02*
X2117924Y1588428D01*
X2113692Y1584196D01*
Y1579964D01*
X2115808Y1577848D01*
X2120040D01*
X2122156Y1579964D01*
Y1582080D01*
X2120040Y1584196D01*
X2113692D01*
X2126388Y1577848D02*
X2134852Y1586312D01*
X2147547Y1577848D02*
X2139084D01*
X2147547Y1586312D01*
Y1588428D01*
X2145431Y1590544D01*
X2141199D01*
X2139084Y1588428D01*
X2151779D02*
X2153895Y1590544D01*
X2158127D01*
X2160243Y1588428D01*
Y1579964D01*
X2158127Y1577848D01*
X2153895D01*
X2151779Y1579964D01*
Y1588428D01*
X2172939Y1577848D02*
X2164475D01*
X2172939Y1586312D01*
Y1588428D01*
X2170823Y1590544D01*
X2166591D01*
X2164475Y1588428D01*
X2177171D02*
X2179287Y1590544D01*
X2183519D01*
X2185635Y1588428D01*
Y1579964D01*
X2183519Y1577848D01*
X2179287D01*
X2177171Y1579964D01*
Y1588428D01*
X2253824Y1590544D02*
X2245360D01*
Y1577848D01*
X2253824D01*
X2245360Y1584196D02*
X2249592D01*
X2258056Y1577848D02*
Y1590544D01*
X2262288Y1586312D01*
X2266520Y1590544D01*
Y1577848D01*
X2277100Y1590544D02*
X2272868D01*
X2270752Y1588428D01*
Y1579964D01*
X2272868Y1577848D01*
X2277100D01*
X2279216Y1579964D01*
Y1588428D01*
X2277100Y1590544D01*
X2289796D02*
X2285564D01*
X2283448Y1588428D01*
Y1579964D01*
X2285564Y1577848D01*
X2289796D01*
X2291912Y1579964D01*
Y1588428D01*
X2289796Y1590544D01*
X2253824Y1628644D02*
X2245360D01*
Y1615948D01*
X2253824D01*
X2245360Y1622296D02*
X2249592D01*
X2258056Y1615948D02*
Y1628644D01*
X2262288Y1624412D01*
X2266520Y1628644D01*
Y1615948D01*
X2277100Y1628644D02*
X2272868D01*
X2270752Y1626528D01*
Y1618064D01*
X2272868Y1615948D01*
X2277100D01*
X2279216Y1618064D01*
Y1626528D01*
X2277100Y1628644D01*
X2289796D02*
X2285564D01*
X2283448Y1626528D01*
Y1618064D01*
X2285564Y1615948D01*
X2289796D01*
X2291912Y1618064D01*
Y1626528D01*
X2289796Y1628644D01*
X2077720Y1626104D02*
X2086184D01*
Y1623988D01*
X2077720Y1615524D01*
Y1613408D01*
X2090416D02*
X2098880Y1621872D01*
X2111576Y1613408D02*
X2103112D01*
X2111576Y1621872D01*
Y1623988D01*
X2109460Y1626104D01*
X2105228D01*
X2103112Y1623988D01*
X2115808D02*
X2117924Y1626104D01*
X2122156D01*
X2124272Y1623988D01*
Y1615524D01*
X2122156Y1613408D01*
X2117924D01*
X2115808Y1615524D01*
Y1623988D01*
X2128504Y1613408D02*
X2136967Y1621872D01*
X2149663Y1613408D02*
X2141199D01*
X2149663Y1621872D01*
Y1623988D01*
X2147547Y1626104D01*
X2143315D01*
X2141199Y1623988D01*
X2153895D02*
X2156011Y1626104D01*
X2160243D01*
X2162359Y1623988D01*
Y1615524D01*
X2160243Y1613408D01*
X2156011D01*
X2153895Y1615524D01*
Y1623988D01*
X2175055Y1613408D02*
X2166591D01*
X2175055Y1621872D01*
Y1623988D01*
X2172939Y1626104D01*
X2168707D01*
X2166591Y1623988D01*
X2179287D02*
X2181403Y1626104D01*
X2185635D01*
X2187751Y1623988D01*
Y1615524D01*
X2185635Y1613408D01*
X2181403D01*
X2179287Y1615524D01*
Y1623988D01*
X1600200Y1628644D02*
X1604432D01*
X1602316D01*
Y1615948D01*
X1600200D01*
X1604432D01*
X1610780D02*
Y1624412D01*
X1617128D01*
X1619244Y1622296D01*
Y1615948D01*
X1623476D02*
X1627708D01*
X1625592D01*
Y1624412D01*
X1623476D01*
X1636172Y1626528D02*
Y1624412D01*
X1634056D01*
X1638288D01*
X1636172D01*
Y1618064D01*
X1638288Y1615948D01*
X1644636D02*
X1648868D01*
X1646752D01*
Y1624412D01*
X1644636D01*
X1657332D02*
X1661564D01*
X1663680Y1622296D01*
Y1615948D01*
X1657332D01*
X1655215Y1618064D01*
X1657332Y1620180D01*
X1663680D01*
X1667911Y1615948D02*
X1672143D01*
X1670027D01*
Y1628644D01*
X1667911D01*
X1691187Y1615948D02*
Y1628644D01*
X1697535D01*
X1699651Y1626528D01*
Y1622296D01*
X1697535Y1620180D01*
X1691187D01*
X1703883Y1624412D02*
Y1615948D01*
Y1620180D01*
X1705999Y1622296D01*
X1708115Y1624412D01*
X1710231D01*
X1718695Y1615948D02*
X1722927D01*
X1725043Y1618064D01*
Y1622296D01*
X1722927Y1624412D01*
X1718695D01*
X1716579Y1622296D01*
Y1618064D01*
X1718695Y1615948D01*
X1731391Y1626528D02*
Y1624412D01*
X1729275D01*
X1733507D01*
X1731391D01*
Y1618064D01*
X1733507Y1615948D01*
X1741971D02*
X1746203D01*
X1748319Y1618064D01*
Y1622296D01*
X1746203Y1624412D01*
X1741971D01*
X1739855Y1622296D01*
Y1618064D01*
X1741971Y1615948D01*
X1754667Y1626528D02*
Y1624412D01*
X1752551D01*
X1756783D01*
X1754667D01*
Y1618064D01*
X1756783Y1615948D01*
X1763131Y1624412D02*
Y1618064D01*
X1765247Y1615948D01*
X1771595D01*
Y1613832D01*
X1769478Y1611716D01*
X1767363D01*
X1771595Y1615948D02*
Y1624412D01*
X1775827Y1611716D02*
Y1624412D01*
X1782174D01*
X1784290Y1622296D01*
Y1618064D01*
X1782174Y1615948D01*
X1775827D01*
X1794870D02*
X1790638D01*
X1788522Y1618064D01*
Y1622296D01*
X1790638Y1624412D01*
X1794870D01*
X1796986Y1622296D01*
Y1620180D01*
X1788522D01*
X1813914Y1615948D02*
Y1628644D01*
X1820262D01*
X1822378Y1626528D01*
Y1622296D01*
X1820262Y1620180D01*
X1813914D01*
X1818146D02*
X1822378Y1615948D01*
X1832958D02*
X1828726D01*
X1826610Y1618064D01*
Y1622296D01*
X1828726Y1624412D01*
X1832958D01*
X1835074Y1622296D01*
Y1620180D01*
X1826610D01*
X1839306Y1615948D02*
X1843538D01*
X1841422D01*
Y1628644D01*
X1839306D01*
X1856234Y1615948D02*
X1852002D01*
X1849886Y1618064D01*
Y1622296D01*
X1852002Y1624412D01*
X1856234D01*
X1858350Y1622296D01*
Y1620180D01*
X1849886D01*
X1864698Y1624412D02*
X1868930D01*
X1871046Y1622296D01*
Y1615948D01*
X1864698D01*
X1862582Y1618064D01*
X1864698Y1620180D01*
X1871046D01*
X1875278Y1615948D02*
X1881626D01*
X1883741Y1618064D01*
X1881626Y1620180D01*
X1877394D01*
X1875278Y1622296D01*
X1877394Y1624412D01*
X1883741D01*
X1894321Y1615948D02*
X1890089D01*
X1887973Y1618064D01*
Y1622296D01*
X1890089Y1624412D01*
X1894321D01*
X1896437Y1622296D01*
Y1620180D01*
X1887973D01*
X1490980Y1615948D02*
Y1628644D01*
X1497328D01*
X1499444Y1626528D01*
Y1622296D01*
X1497328Y1620180D01*
X1490980D01*
X1495212D02*
X1499444Y1615948D01*
X1510024D02*
X1505792D01*
X1503676Y1618064D01*
Y1622296D01*
X1505792Y1624412D01*
X1510024D01*
X1512140Y1622296D01*
Y1620180D01*
X1503676D01*
X1516372Y1624412D02*
X1520604Y1615948D01*
X1524836Y1624412D01*
X1541763Y1615948D02*
Y1624412D01*
X1545995Y1628644D01*
X1550228Y1624412D01*
Y1615948D01*
Y1622296D01*
X1541763D01*
X2258060Y1669283D02*
Y1654048D01*
X2265677D01*
X2268217Y1656587D01*
Y1659126D01*
X2265677Y1661665D01*
X2258060D01*
X2265677D01*
X2268217Y1664205D01*
Y1666744D01*
X2265677Y1669283D01*
X2258060D01*
X2273295D02*
Y1666744D01*
X2278373Y1661665D01*
X2283452Y1666744D01*
Y1669283D01*
X2278373Y1661665D02*
Y1654048D01*
X2098040Y1669283D02*
Y1654048D01*
X2105658D01*
X2108197Y1656587D01*
Y1666744D01*
X2105658Y1669283D01*
X2098040D01*
X2113275Y1654048D02*
Y1664205D01*
X2118353Y1669283D01*
X2123432Y1664205D01*
Y1654048D01*
Y1661665D01*
X2113275D01*
X2128510Y1669283D02*
X2138667D01*
X2133589D01*
Y1654048D01*
X2153902Y1669283D02*
X2143745D01*
Y1654048D01*
X2153902D01*
X2143745Y1661665D02*
X2148824D01*
X1600200Y1669283D02*
Y1654048D01*
X1607818D01*
X1610357Y1656587D01*
Y1666744D01*
X1607818Y1669283D01*
X1600200D01*
X1625592D02*
X1615435D01*
Y1654048D01*
X1625592D01*
X1615435Y1661665D02*
X1620513D01*
X1640827Y1666744D02*
X1638288Y1669283D01*
X1633209D01*
X1630670Y1666744D01*
Y1664205D01*
X1633209Y1661665D01*
X1638288D01*
X1640827Y1659126D01*
Y1656587D01*
X1638288Y1654048D01*
X1633209D01*
X1630670Y1656587D01*
X1656062Y1666744D02*
X1653523Y1669283D01*
X1648444D01*
X1645905Y1666744D01*
Y1656587D01*
X1648444Y1654048D01*
X1653523D01*
X1656062Y1656587D01*
X1661140Y1654048D02*
Y1669283D01*
X1668758D01*
X1671297Y1666744D01*
Y1661665D01*
X1668758Y1659126D01*
X1661140D01*
X1666219D02*
X1671297Y1654048D01*
X1676375Y1669283D02*
X1681454D01*
X1678914D01*
Y1654048D01*
X1676375D01*
X1681454D01*
X1689071D02*
Y1669283D01*
X1696689D01*
X1699228Y1666744D01*
Y1661665D01*
X1696689Y1659126D01*
X1689071D01*
X1704306Y1669283D02*
X1714463D01*
X1709385D01*
Y1654048D01*
X1719541Y1669283D02*
X1724620D01*
X1722081D01*
Y1654048D01*
X1719541D01*
X1724620D01*
X1739855Y1669283D02*
X1734776D01*
X1732237Y1666744D01*
Y1656587D01*
X1734776Y1654048D01*
X1739855D01*
X1742394Y1656587D01*
Y1666744D01*
X1739855Y1669283D01*
X1747472Y1654048D02*
Y1669283D01*
X1757629Y1654048D01*
Y1669283D01*
X1490980Y1654048D02*
Y1669283D01*
X1498598D01*
X1501137Y1666744D01*
Y1661665D01*
X1498598Y1659126D01*
X1490980D01*
X1496058D02*
X1501137Y1654048D01*
X1516372Y1669283D02*
X1506215D01*
Y1654048D01*
X1516372D01*
X1506215Y1661665D02*
X1511293D01*
X1521450Y1669283D02*
Y1659126D01*
X1526528Y1654048D01*
X1531607Y1659126D01*
Y1669283D01*
X1849120Y1697228D02*
Y1717541D01*
X1859277D01*
X1862662Y1714156D01*
Y1707385D01*
X1859277Y1703999D01*
X1849120D01*
X1855891D02*
X1862662Y1697228D01*
X1882976Y1717541D02*
X1869433D01*
Y1697228D01*
X1882976D01*
X1869433Y1707385D02*
X1876205D01*
X1889747Y1717541D02*
Y1703999D01*
X1896518Y1697228D01*
X1903289Y1703999D01*
Y1717541D01*
X1910060D02*
X1916831D01*
X1913446D01*
Y1697228D01*
X1910060D01*
X1916831D01*
X1940530Y1714156D02*
X1937145Y1717541D01*
X1930374D01*
X1926988Y1714156D01*
Y1710770D01*
X1930374Y1707385D01*
X1937145D01*
X1940530Y1703999D01*
Y1700614D01*
X1937145Y1697228D01*
X1930374D01*
X1926988Y1700614D01*
X1947301Y1717541D02*
X1954073D01*
X1950687D01*
Y1697228D01*
X1947301D01*
X1954073D01*
X1974386Y1717541D02*
X1967615D01*
X1964229Y1714156D01*
Y1700614D01*
X1967615Y1697228D01*
X1974386D01*
X1977772Y1700614D01*
Y1714156D01*
X1974386Y1717541D01*
X1984543Y1697228D02*
Y1717541D01*
X1998085Y1697228D01*
Y1717541D01*
D15*
X2045134Y389503D02*
X2278814D01*
Y365373D02*
Y389503D01*
X2045134Y365373D02*
Y389503D01*
Y365373D02*
X2278814D01*
D17*
X2069264Y377438D02*
D03*
D18*
X2207200Y-300390D02*
X2211432D01*
X2209316D01*
Y-287694D01*
X2207200Y-289810D01*
X2217780Y-291926D02*
X2219896D01*
Y-294042D01*
X2217780D01*
Y-291926D01*
Y-298274D02*
X2219896D01*
Y-300390D01*
X2217780D01*
Y-298274D01*
X2228360Y-300390D02*
X2232592D01*
X2230476D01*
Y-287694D01*
X2228360Y-289810D01*
X2363410Y-102528D02*
Y-120304D01*
Y-102528D02*
X2369335D01*
X2371875Y-103374D01*
X2373568Y-105067D01*
X2374414Y-106760D01*
X2375261Y-109300D01*
Y-113532D01*
X2374414Y-116072D01*
X2373568Y-117765D01*
X2371875Y-119458D01*
X2369335Y-120304D01*
X2363410D01*
X2376107Y431720D02*
X2375261Y433413D01*
X2373568Y435106D01*
X2371875Y435952D01*
X2368489D01*
X2366796Y435106D01*
X2365103Y433413D01*
X2364256Y431720D01*
X2363410Y429180D01*
Y424948D01*
X2364256Y422408D01*
X2365103Y420715D01*
X2366796Y419022D01*
X2368489Y418176D01*
X2371875D01*
X2373568Y419022D01*
X2375261Y420715D01*
X2376107Y422408D01*
X2363410Y975702D02*
Y957926D01*
Y975702D02*
X2371028D01*
X2373568Y974856D01*
X2374414Y974009D01*
X2375261Y972316D01*
Y970623D01*
X2374414Y968930D01*
X2373568Y968084D01*
X2371028Y967237D01*
X2363410D02*
X2371028D01*
X2373568Y966391D01*
X2374414Y965544D01*
X2375261Y963851D01*
Y961312D01*
X2374414Y959619D01*
X2373568Y958773D01*
X2371028Y957926D01*
X2363410D01*
X2376954Y1497676D02*
X2370182Y1515452D01*
X2363410Y1497676D01*
X2365950Y1503601D02*
X2374414D01*
X2047520Y1774024D02*
X2039055Y1762173D01*
X2051752D01*
X2047520Y1774024D02*
Y1756248D01*
X1341991Y1774024D02*
X1351302D01*
X1346223Y1767252D01*
X1348763D01*
X1350456Y1766406D01*
X1351302Y1765559D01*
X1352149Y1763020D01*
Y1761327D01*
X1351302Y1758788D01*
X1349609Y1757095D01*
X1347070Y1756248D01*
X1344530D01*
X1341991Y1757095D01*
X1341145Y1757941D01*
X1340298Y1759634D01*
X643914Y1769792D02*
Y1770638D01*
X644761Y1772331D01*
X645608Y1773178D01*
X647300Y1774024D01*
X650686D01*
X652379Y1773178D01*
X653226Y1772331D01*
X654072Y1770638D01*
Y1768945D01*
X653226Y1767252D01*
X651533Y1764713D01*
X643068Y1756248D01*
X654919D01*
X-55600Y1770638D02*
X-53907Y1771485D01*
X-51368Y1774024D01*
Y1756248D01*
X2047520Y-334176D02*
X2039055Y-346027D01*
X2051752D01*
X2047520Y-334176D02*
Y-351952D01*
X1341991Y-334176D02*
X1351302D01*
X1346223Y-340948D01*
X1348763D01*
X1350456Y-341794D01*
X1351302Y-342641D01*
X1352149Y-345180D01*
Y-346873D01*
X1351302Y-349412D01*
X1349609Y-351105D01*
X1347070Y-351952D01*
X1344530D01*
X1341991Y-351105D01*
X1341145Y-350259D01*
X1340298Y-348566D01*
X643914Y-338408D02*
Y-337562D01*
X644761Y-335869D01*
X645608Y-335022D01*
X647300Y-334176D01*
X650686D01*
X652379Y-335022D01*
X653226Y-335869D01*
X654072Y-337562D01*
Y-339255D01*
X653226Y-340948D01*
X651533Y-343487D01*
X643068Y-351952D01*
X654919D01*
X-55600Y-337562D02*
X-53907Y-336715D01*
X-51368Y-334176D01*
Y-351952D01*
X-379790Y-102528D02*
Y-120304D01*
Y-102528D02*
X-373865D01*
X-371325Y-103374D01*
X-369632Y-105067D01*
X-368786Y-106760D01*
X-367939Y-109300D01*
Y-113532D01*
X-368786Y-116072D01*
X-369632Y-117765D01*
X-371325Y-119458D01*
X-373865Y-120304D01*
X-379790D01*
X-367093Y431720D02*
X-367939Y433413D01*
X-369632Y435106D01*
X-371325Y435952D01*
X-374711D01*
X-376404Y435106D01*
X-378097Y433413D01*
X-378943Y431720D01*
X-379790Y429180D01*
Y424948D01*
X-378943Y422408D01*
X-378097Y420715D01*
X-376404Y419022D01*
X-374711Y418176D01*
X-371325D01*
X-369632Y419022D01*
X-367939Y420715D01*
X-367093Y422408D01*
X-379790Y975702D02*
Y957926D01*
Y975702D02*
X-372172D01*
X-369632Y974856D01*
X-368786Y974009D01*
X-367939Y972316D01*
Y970623D01*
X-368786Y968930D01*
X-369632Y968084D01*
X-372172Y967237D01*
X-379790D02*
X-372172D01*
X-369632Y966391D01*
X-368786Y965544D01*
X-367939Y963851D01*
Y961312D01*
X-368786Y959619D01*
X-369632Y958773D01*
X-372172Y957926D01*
X-379790D01*
X-366246Y1497676D02*
X-373018Y1515452D01*
X-379790Y1497676D01*
X-377251Y1503601D02*
X-368786D01*
D19*
X2057834Y633085D02*
Y612769D01*
X2069443D01*
X2087147D02*
X2079407Y633085D01*
X2071668Y612769D01*
X2074570Y619541D02*
X2084244D01*
X2091887Y633085D02*
X2099626Y623410D01*
Y612769D01*
X2107366Y633085D02*
X2099626Y623410D01*
X2122554Y633085D02*
X2109978D01*
Y612769D01*
X2122554D01*
X2109978Y623410D02*
X2117717D01*
X2125940Y633085D02*
Y612769D01*
Y633085D02*
X2134647D01*
X2137549Y632117D01*
X2138516Y631150D01*
X2139484Y629215D01*
Y627280D01*
X2138516Y625345D01*
X2137549Y624378D01*
X2134647Y623410D01*
X2125940D01*
X2132712D02*
X2139484Y612769D01*
X2159993Y633085D02*
Y618573D01*
X2160960Y615671D01*
X2162895Y613736D01*
X2165797Y612769D01*
X2167732D01*
X2170634Y613736D01*
X2172569Y615671D01*
X2173537Y618573D01*
Y633085D01*
X2192691Y630182D02*
X2190757Y632117D01*
X2187854Y633085D01*
X2183985D01*
X2181082Y632117D01*
X2179147Y630182D01*
Y628248D01*
X2180115Y626313D01*
X2181082Y625345D01*
X2183017Y624378D01*
X2188822Y622443D01*
X2190757Y621476D01*
X2191724Y620508D01*
X2192691Y618573D01*
Y615671D01*
X2190757Y613736D01*
X2187854Y612769D01*
X2183985D01*
X2181082Y613736D01*
X2179147Y615671D01*
X2212717Y612769D02*
X2204977Y633085D01*
X2197238Y612769D01*
X2200140Y619541D02*
X2209814D01*
X2231968Y628248D02*
X2231001Y630182D01*
X2229066Y632117D01*
X2227131Y633085D01*
X2223262D01*
X2221327Y632117D01*
X2219392Y630182D01*
X2218424Y628248D01*
X2217457Y625345D01*
Y620508D01*
X2218424Y617606D01*
X2219392Y615671D01*
X2221327Y613736D01*
X2223262Y612769D01*
X2227131D01*
X2229066Y613736D01*
X2231001Y615671D01*
X2231968Y617606D01*
Y620508D01*
X2227131D02*
X2231968D01*
X2249188Y633085D02*
X2236612D01*
Y612769D01*
X2249188D01*
X2236612Y623410D02*
X2244351D01*
D167*
X628020Y95460D02*
Y153460D01*
Y95460D02*
X708020D01*
Y153460D01*
X628020D02*
X708020D01*
X1778Y181356D02*
X29718D01*
Y234696D01*
X1778D02*
X29718D01*
X1778Y181356D02*
Y234696D01*
X628020Y186900D02*
Y244900D01*
Y186900D02*
X708020D01*
Y244900D01*
X628020D02*
X708020D01*
X628020Y278340D02*
Y336340D01*
Y278340D02*
X708020D01*
Y336340D01*
X628020D02*
X708020D01*
D197*
X487172Y418740D02*
G03*
X483362Y420010I-3810J-5080D01*
G01*
Y381910D02*
G03*
X487172Y383180I0J6350D01*
G01*
X506222Y395880D02*
G03*
X506222Y406040I-3810J5080D01*
G01*
X413512Y420010D02*
G03*
X407162Y413660I0J-6350D01*
G01*
Y388260D02*
G03*
X413512Y381910I6350J0D01*
G01*
X105193Y256620D02*
Y280620D01*
X117193Y256620D02*
Y280620D01*
X105193Y256620D02*
X117193D01*
X105193Y280620D02*
X117193D01*
X106443Y268620D02*
X115943D01*
X111193Y263870D02*
Y273370D01*
X990694Y452086D02*
Y479586D01*
X970694Y452086D02*
Y479586D01*
Y452086D02*
X990694D01*
X970694Y479586D02*
X990694D01*
X975944Y465836D02*
X985444D01*
X980694Y461086D02*
Y470586D01*
X980750Y535155D02*
Y547155D01*
X1004750Y535155D02*
Y547155D01*
X980750D02*
X1004750D01*
X980750Y535155D02*
X1004750D01*
X988000Y541155D02*
X997500D01*
X992750Y536405D02*
Y545905D01*
X954207Y535000D02*
Y547000D01*
X930207Y535000D02*
Y547000D01*
Y535000D02*
X954207D01*
X930207Y547000D02*
X954207D01*
X937457Y541000D02*
X946957D01*
X942207Y536250D02*
Y545750D01*
X992886Y501218D02*
Y510718D01*
X988136Y505968D02*
X997636D01*
X980886Y499968D02*
X1004886D01*
X980886Y511968D02*
X1004886D01*
Y499968D02*
Y511968D01*
X980886Y499968D02*
Y511968D01*
X942086Y501218D02*
Y510718D01*
X937336Y505968D02*
X946836D01*
X930086Y511968D02*
X954086D01*
X930086Y499968D02*
X954086D01*
X930086D02*
Y511968D01*
X954086Y499968D02*
Y511968D01*
X69000Y366828D02*
Y436828D01*
X3000D02*
X69000D01*
X33000Y401828D02*
X39000D01*
X36000Y398828D02*
Y404828D01*
X3000Y366828D02*
X69000D01*
X3000D02*
Y436828D01*
X55000Y463750D02*
X64500D01*
X59750Y459000D02*
Y468500D01*
X53750Y451750D02*
Y475750D01*
X65750Y451750D02*
Y475750D01*
X53750Y451750D02*
X65750D01*
X53750Y475750D02*
X65750D01*
X444250Y212344D02*
Y221844D01*
X439500Y217094D02*
X449000D01*
X432250Y211094D02*
X456250D01*
X432250Y223094D02*
X456250D01*
Y211094D02*
Y223094D01*
X432250Y211094D02*
Y223094D01*
X278250Y242550D02*
Y332550D01*
X188250Y242550D02*
X278250D01*
X188250Y332550D02*
X278250D01*
X188250Y242550D02*
Y332550D01*
X401828Y450314D02*
Y459814D01*
X397078Y455064D02*
X406578D01*
X389828Y449064D02*
X413828D01*
X389828Y461064D02*
X413828D01*
Y449064D02*
Y461064D01*
X389828Y449064D02*
Y461064D01*
X662822Y47250D02*
Y53250D01*
X659822Y50250D02*
X665822D01*
X135250Y130303D02*
Y140303D01*
X130250Y135303D02*
X140250D01*
X116250Y119053D02*
X154250D01*
X116250Y151303D02*
X154250D01*
Y119053D02*
Y151303D01*
X116250Y119053D02*
Y151303D01*
X231000Y139460D02*
X241000D01*
X236000Y134460D02*
Y144460D01*
X252250Y120460D02*
Y158460D01*
X220000Y120460D02*
Y158460D01*
X252250D01*
X220000Y120460D02*
X252250D01*
X608924Y165882D02*
X618424D01*
X613674Y161132D02*
Y170632D01*
X631774Y344167D02*
X641274D01*
X636524Y339417D02*
Y348917D01*
X594000Y113250D02*
Y122750D01*
X589250Y118000D02*
X598750D01*
X945150Y206350D02*
X1092150D01*
X945150D02*
Y314350D01*
X1018650Y259350D02*
X1028650D01*
X1023650Y254350D02*
Y264350D01*
X1092150Y206350D02*
Y314350D01*
X945150D02*
X1092150D01*
X486390Y112066D02*
Y182066D01*
X420390D02*
X486390D01*
X450390Y147066D02*
X456390D01*
X453390Y144066D02*
Y150066D01*
X420390Y112066D02*
X486390D01*
X420390D02*
Y182066D01*
X941000Y191000D02*
Y201000D01*
X936000Y196000D02*
X946000D01*
X921000Y186750D02*
X961000D01*
X921000Y205500D02*
X961000D01*
Y186750D02*
Y205500D01*
X921000Y186750D02*
Y205500D01*
X737750Y259932D02*
X744750D01*
X741250Y256432D02*
Y263432D01*
X715342Y293968D02*
X767158D01*
X715342Y225896D02*
Y293968D01*
Y225896D02*
X767158D01*
Y293968D01*
X411Y245050D02*
X66151D01*
X411Y341050D02*
X66151Y341045D01*
X411Y245050D02*
Y341050D01*
X66151Y245050D02*
Y341050D01*
X724160Y65996D02*
X820160D01*
X724160Y256D02*
X820160D01*
X724160D02*
X724165Y65996D01*
X820160Y256D02*
Y65996D01*
X487172Y418740D02*
X506222Y406040D01*
X487172Y383180D02*
X506222Y395880D01*
X413512Y420010D02*
X483362D01*
X413512Y381910D02*
X483362D01*
X407162Y388260D02*
Y413660D01*
X61760Y73640D02*
X161760D01*
Y7640D02*
Y73640D01*
X106760Y40640D02*
X116760D01*
X111760Y35640D02*
Y45640D01*
X61760Y7640D02*
X161760D01*
X61760D02*
Y73640D01*
X410Y160190D02*
X94390D01*
X410Y78910D02*
Y160190D01*
Y78910D02*
X94390D01*
Y160190D01*
X848900Y355600D02*
X852900D01*
X850900Y353600D02*
Y357600D01*
X848900Y355600D02*
X852900D01*
X850900Y353600D02*
Y357600D01*
X89598Y471750D02*
X108598Y471750D01*
X89598Y450750D02*
X108598D01*
Y471750D01*
X89598Y450750D02*
Y471750D01*
X99098Y456250D02*
Y466250D01*
X94098Y461250D02*
X104098D01*
X781648Y65501D02*
Y86001D01*
X761148Y65501D02*
Y86001D01*
X781648D01*
X761148Y65501D02*
X781648D01*
X57896Y229053D02*
X64896D01*
X61396Y225553D02*
Y232553D01*
X72064Y219147D02*
Y238959D01*
X50728D02*
X72064D01*
X50728Y225497D02*
Y232609D01*
Y219147D02*
Y225497D01*
Y219147D02*
X72064D01*
X50728Y232609D02*
Y238959D01*
X80147Y209053D02*
Y239053D01*
X122147D01*
X80147Y209053D02*
X122147D01*
Y239053D01*
X99147Y224053D02*
X103147D01*
X101147Y222053D02*
Y226053D01*
X499350Y244409D02*
X564350D01*
X499350Y155409D02*
X564350D01*
Y156159D02*
Y243659D01*
X499350Y156159D02*
Y243659D01*
X60900Y180000D02*
Y186000D01*
X57900Y183250D02*
X64150D01*
X53400Y179250D02*
X67900D01*
X53400Y187250D02*
X67900D01*
Y179250D02*
Y187250D01*
X53400Y179250D02*
Y187250D01*
X108750Y448611D02*
X130250D01*
X108750D02*
Y460611D01*
X130250D01*
Y448611D02*
Y460611D01*
X71120Y549910D02*
X330200D01*
Y491490D02*
Y549910D01*
X71120Y491490D02*
X330200D01*
X71120D02*
Y549910D01*
X200660Y514350D02*
Y527050D01*
X194310Y520700D02*
X207010D01*
X162560Y10160D02*
Y67310D01*
Y10160D02*
X370840D01*
Y67310D01*
X162560D02*
X370840D01*
X260350Y38100D02*
X273050D01*
X260350D02*
X266700D01*
Y31750D02*
Y38100D01*
Y31750D02*
Y44450D01*
Y38100D02*
Y44450D01*
X340360Y492760D02*
Y549910D01*
Y492760D02*
X548640D01*
Y549910D01*
X340360D02*
X548640D01*
X438150Y520700D02*
X450850D01*
X438150D02*
X444500D01*
Y514350D02*
Y520700D01*
Y514350D02*
Y527050D01*
Y520700D02*
Y527050D01*
X463550Y38100D02*
X476250D01*
X469900D02*
X476250D01*
X469900Y31750D02*
Y38100D01*
Y31750D02*
Y38100D01*
Y44450D01*
Y38100D02*
Y44450D01*
X391160Y8890D02*
Y67310D01*
Y8890D02*
X548640D01*
Y67310D01*
X391160D02*
X548640D01*
X419834Y426538D02*
Y436038D01*
X415084Y431288D02*
X424584D01*
X407834Y437288D02*
X431834D01*
X407834Y425288D02*
X431834D01*
X407834D02*
Y437288D01*
X431834Y425288D02*
Y437288D01*
X328523Y262950D02*
X336523D01*
X328523Y278950D02*
X336523D01*
X328523Y262950D02*
Y278950D01*
X336523Y262950D02*
Y278950D01*
X332523Y267950D02*
Y273950D01*
X329523Y270950D02*
X335523D01*
X379723Y211500D02*
X383723D01*
X381723Y209500D02*
Y213500D01*
X365723Y195500D02*
X397723D01*
X365723D02*
Y227500D01*
X397723Y195500D02*
Y227500D01*
X365723D02*
X397723D01*
X426459Y315995D02*
Y322995D01*
X422959Y319495D02*
X429959D01*
X415537Y307557D02*
X437381D01*
Y331433D01*
X415537D02*
X437381D01*
X415537Y307557D02*
Y331433D01*
X557700Y918D02*
Y46668D01*
X607700D01*
Y918D02*
Y46668D01*
X557700Y918D02*
X607700D01*
X582700Y18418D02*
Y21418D01*
Y15418D02*
Y21418D01*
Y15418D02*
Y18418D01*
X585700D01*
X579700D02*
X582700D01*
X504370Y249100D02*
Y335100D01*
X590370D01*
Y249100D02*
Y335100D01*
X504370Y249100D02*
X590370D01*
X542370Y292100D02*
X552370D01*
X547370Y287100D02*
Y297100D01*
X162000Y452500D02*
Y462000D01*
X157250Y457250D02*
X166750D01*
X150000Y451250D02*
X174000D01*
X150000Y463250D02*
X174000D01*
Y451250D02*
Y463250D01*
X150000Y451250D02*
Y463250D01*
X967804Y432944D02*
X975804D01*
X967804Y448944D02*
X975804D01*
X967804Y432944D02*
Y448944D01*
X975804Y432944D02*
Y448944D01*
X971804Y437944D02*
Y443944D01*
X968804Y440944D02*
X974804D01*
X976694Y432944D02*
X984694D01*
X976694Y448944D02*
X984694D01*
X976694Y432944D02*
Y448944D01*
X984694Y432944D02*
Y448944D01*
X980694Y437944D02*
Y443944D01*
X977694Y440944D02*
X983694D01*
X985584Y432944D02*
X993584D01*
X985584Y448944D02*
X993584D01*
X985584Y432944D02*
Y448944D01*
X993584Y432944D02*
Y448944D01*
X989584Y437944D02*
Y443944D01*
X986584Y440944D02*
X992584D01*
X739986Y101785D02*
X747986D01*
X739986Y85785D02*
X747986D01*
Y101785D01*
X739986Y85785D02*
Y101785D01*
X743986Y90785D02*
Y96785D01*
X740986Y93785D02*
X746986D01*
X341027Y138823D02*
Y150823D01*
X319527D02*
X341027D01*
X319527Y138823D02*
Y150823D01*
Y138823D02*
X341027D01*
X338664Y95854D02*
Y107854D01*
X317164D02*
X338664D01*
X317164Y95854D02*
Y107854D01*
Y95854D02*
X338664D01*
X320031Y262950D02*
X328031D01*
X320031Y278950D02*
X328031D01*
X320031Y262950D02*
Y278950D01*
X328031Y262950D02*
Y278950D01*
X324031Y267950D02*
Y273950D01*
X321031Y270950D02*
X327031D01*
X319277Y222871D02*
Y230871D01*
X335277Y222871D02*
Y230871D01*
X319277D02*
X335277D01*
X319277Y222871D02*
X335277D01*
X324277Y226871D02*
X330277D01*
X327277Y223871D02*
Y229871D01*
X328164Y235678D02*
Y254678D01*
X349164Y235678D02*
Y254678D01*
X328164D02*
X349164D01*
X328164Y235678D02*
X349164D01*
X333664Y245178D02*
X343664D01*
X338664Y240178D02*
Y250178D01*
X973429Y316000D02*
X981429D01*
X973429Y332000D02*
X981429D01*
X973429Y316000D02*
Y332000D01*
X981429Y316000D02*
Y332000D01*
X977429Y321000D02*
Y327000D01*
X974429Y324000D02*
X980429D01*
X982716Y316250D02*
X990716D01*
X982716Y332250D02*
X990716D01*
X982716Y316250D02*
Y332250D01*
X990716Y316250D02*
Y332250D01*
X986716Y321250D02*
Y327250D01*
X983716Y324250D02*
X989716D01*
X283870Y96406D02*
Y104406D01*
X299870Y96406D02*
Y104406D01*
X283870D02*
X299870D01*
X283870Y96406D02*
X299870D01*
X288870Y100406D02*
X294870D01*
X291870Y97406D02*
Y103406D01*
X273432Y139256D02*
Y147256D01*
X289432Y139256D02*
Y147256D01*
X273432D02*
X289432D01*
X273432Y139256D02*
X289432D01*
X278432Y143256D02*
X284432D01*
X281432Y140256D02*
Y146256D01*
X386879Y246750D02*
Y254750D01*
X370879Y246750D02*
Y254750D01*
Y246750D02*
X386879D01*
X370879Y254750D02*
X386879D01*
X375879Y250750D02*
X381879D01*
X378879Y247750D02*
Y253750D01*
X656500Y93250D02*
Y101250D01*
X672500Y93250D02*
Y101250D01*
X656500D02*
X672500D01*
X656500Y93250D02*
X672500D01*
X661500Y97250D02*
X667500D01*
X664500Y94250D02*
Y100250D01*
X719496Y89619D02*
Y108619D01*
X740496Y89619D02*
Y108619D01*
X719496D02*
X740496D01*
X719496Y89619D02*
X740496D01*
X724996Y99119D02*
X734996D01*
X729996Y94119D02*
Y104119D01*
X969836Y516318D02*
X977836D01*
X969836Y500318D02*
X977836D01*
Y516318D01*
X969836Y500318D02*
Y516318D01*
X568960Y492760D02*
Y549910D01*
Y492760D02*
X777240D01*
Y549910D01*
X568960D02*
X777240D01*
X666750Y520700D02*
X679450D01*
X666750D02*
X673100D01*
Y514350D02*
Y520700D01*
Y514350D02*
Y527050D01*
Y520700D02*
Y527050D01*
X565810Y53280D02*
Y61280D01*
X581810Y53280D02*
Y61280D01*
X565810D02*
X581810D01*
X565810Y53280D02*
X581810D01*
X570810Y57280D02*
X576810D01*
X573810Y54280D02*
Y60280D01*
X583590Y53280D02*
Y61280D01*
X599590Y53280D02*
Y61280D01*
X583590D02*
X599590D01*
X583590Y53280D02*
X599590D01*
X588590Y57280D02*
X594590D01*
X591590Y54280D02*
Y60280D01*
X225250Y373392D02*
Y381392D01*
X241250Y373392D02*
Y381392D01*
X225250D02*
X241250D01*
X225250Y373392D02*
X241250D01*
X230250Y377392D02*
X236250D01*
X233250Y374392D02*
Y380392D01*
X320048Y279553D02*
X328048D01*
X320048Y295553D02*
X328048D01*
X320048Y279553D02*
Y295553D01*
X328048Y279553D02*
Y295553D01*
X324048Y284553D02*
Y290553D01*
X321048Y287553D02*
X327048D01*
X139909Y309553D02*
X147909D01*
X139909Y325553D02*
X147909D01*
X139909Y309553D02*
Y325553D01*
X147909Y309553D02*
Y325553D01*
X143909Y314553D02*
Y320553D01*
X140909Y317553D02*
X146909D01*
X312500Y350500D02*
X320500D01*
X312500Y366500D02*
X320500D01*
X312500Y350500D02*
Y366500D01*
X320500Y350500D02*
Y366500D01*
X316500Y355500D02*
Y361500D01*
X313500Y358500D02*
X319500D01*
X139165Y235736D02*
X147165D01*
X139165Y251736D02*
X147165D01*
X139165Y235736D02*
Y251736D01*
X147165Y235736D02*
Y251736D01*
X143165Y240736D02*
Y246736D01*
X140165Y243736D02*
X146165D01*
X238658Y193028D02*
Y201028D01*
X254658Y193028D02*
Y201028D01*
X238658D02*
X254658D01*
X238658Y193028D02*
X254658D01*
X243658Y197028D02*
X249658D01*
X246658Y194028D02*
Y200028D01*
X196303Y192500D02*
Y200500D01*
X180303Y192500D02*
Y200500D01*
Y192500D02*
X196303D01*
X180303Y200500D02*
X196303D01*
X185303Y196500D02*
X191303D01*
X188303Y193500D02*
Y199500D01*
X126703Y256053D02*
X136203D01*
X131453Y251303D02*
Y260803D01*
X137453Y244053D02*
Y268053D01*
X125453Y244053D02*
Y268053D01*
X137453D01*
X125453Y244053D02*
X137453D01*
X84517Y327724D02*
Y335724D01*
X68517Y327724D02*
Y335724D01*
Y327724D02*
X84517D01*
X68517Y335724D02*
X84517D01*
X73517Y331724D02*
X79517D01*
X76517Y328724D02*
Y334724D01*
X76339Y348742D02*
X85839D01*
X81089Y343992D02*
Y353492D01*
X87089Y336742D02*
Y360742D01*
X75089Y336742D02*
Y360742D01*
X87089D01*
X75089Y336742D02*
X87089D01*
X68001Y284620D02*
X76001D01*
X68001Y268620D02*
X76001D01*
Y284620D01*
X68001Y268620D02*
Y284620D01*
X72001Y273620D02*
Y279620D01*
X69001Y276620D02*
X75001D01*
X155858Y148840D02*
X163858D01*
X155858Y132839D02*
X163858D01*
Y148840D01*
X155858Y132839D02*
Y148840D01*
X159858Y137839D02*
Y143839D01*
X156858Y140839D02*
X162858D01*
X92863Y301154D02*
Y321654D01*
X72363Y301154D02*
Y321654D01*
X92863D01*
X72363Y301154D02*
X92863D01*
X255422Y456524D02*
X265422D01*
X249921Y447024D02*
Y466024D01*
X260422Y451524D02*
Y461524D01*
X249921Y447024D02*
X270921D01*
X249921Y466024D02*
X270921D01*
Y447024D02*
Y466024D01*
X705750Y337745D02*
X713750D01*
X705750Y353745D02*
X713750D01*
X705750Y337745D02*
Y353745D01*
X713750Y337745D02*
Y353745D01*
X716250Y337745D02*
X724250D01*
X716250Y353745D02*
X724250D01*
X716250Y337745D02*
Y353745D01*
X724250Y337745D02*
Y353745D01*
X957136Y546162D02*
X965136D01*
X957136Y530162D02*
X965136D01*
Y546162D01*
X957136Y530162D02*
Y546162D01*
Y516508D02*
X965136D01*
X957136Y500508D02*
X965136D01*
Y516508D01*
X957136Y500508D02*
Y516508D01*
X336802Y229885D02*
X344802D01*
X336802Y213885D02*
X344802D01*
Y229885D01*
X336802Y213885D02*
Y229885D01*
X117250Y279571D02*
X125250D01*
X117250Y263571D02*
X125250D01*
Y279571D01*
X117250Y263571D02*
Y279571D01*
X195750Y465174D02*
X203750D01*
X195750Y449174D02*
X203750D01*
Y465174D01*
X195750Y449174D02*
Y465174D01*
X240595Y449250D02*
Y465250D01*
X248595Y449250D02*
Y465250D01*
X240595Y449250D02*
X248595D01*
X240595Y465250D02*
X248595D01*
X282000Y448524D02*
Y464524D01*
X274000Y448524D02*
Y464524D01*
X282000D01*
X274000Y448524D02*
X282000D01*
X319277Y213885D02*
Y221885D01*
X335277Y213885D02*
Y221885D01*
X319277D02*
X335277D01*
X319277Y213885D02*
X335277D01*
X337176Y279053D02*
X345176D01*
X337176Y263053D02*
X345176D01*
Y279053D01*
X337176Y263053D02*
Y279053D01*
X112217Y297250D02*
Y306750D01*
X107467Y302000D02*
X116967D01*
X100217Y296000D02*
X124217D01*
X100217Y308000D02*
X124217D01*
Y296000D02*
Y308000D01*
X100217Y296000D02*
Y308000D01*
X105435Y310300D02*
Y319800D01*
X100685Y315050D02*
X110185D01*
X93435Y309050D02*
X117435D01*
X93435Y321050D02*
X117435D01*
Y309050D02*
Y321050D01*
X93435Y309050D02*
Y321050D01*
X76891Y268620D02*
X84891D01*
X76891Y284620D02*
X84891D01*
X76891Y268620D02*
Y284620D01*
X84891Y268620D02*
Y284620D01*
X706750Y362014D02*
X712750D01*
X709750Y359013D02*
Y365014D01*
X705750Y354013D02*
Y370014D01*
X713750Y354013D02*
Y370014D01*
X705750Y354013D02*
X713750D01*
X705750Y370014D02*
X713750D01*
X717250Y361974D02*
X723250D01*
X720250Y358974D02*
Y364974D01*
X716250Y353974D02*
Y369974D01*
X724250Y353974D02*
Y369974D01*
X716250Y353974D02*
X724250D01*
X716250Y369974D02*
X724250D01*
X830110Y167620D02*
X930110D01*
Y101620D02*
Y167620D01*
X875110Y134620D02*
X885110D01*
X880110Y129620D02*
Y139620D01*
X830110Y101620D02*
X930110D01*
X830110D02*
Y167620D01*
X941870D02*
X1041870D01*
Y101620D02*
Y167620D01*
X986870Y134620D02*
X996870D01*
X991870Y129620D02*
Y139620D01*
X941870Y101620D02*
X1041870D01*
X941870D02*
Y167620D01*
X830110Y73640D02*
X930110D01*
Y7640D02*
Y73640D01*
X875110Y40640D02*
X885110D01*
X880110Y35640D02*
Y45640D01*
X830110Y7640D02*
X930110D01*
X830110D02*
Y73640D01*
X941870D02*
X1041870D01*
Y7640D02*
Y73640D01*
X986870Y40640D02*
X996870D01*
X991870Y35640D02*
Y45640D01*
X941870Y7640D02*
X1041870D01*
X941870D02*
Y73640D01*
X27940Y478330D02*
Y484330D01*
X24940Y481330D02*
X30940D01*
X1027478Y461772D02*
X1033478D01*
X1030478Y458772D02*
Y464772D01*
X734774Y59481D02*
Y89481D01*
X692774Y59481D02*
X734774D01*
X692774Y89481D02*
X734774D01*
X692774Y59481D02*
Y89481D01*
X711774Y74481D02*
X715774D01*
X713774Y72481D02*
Y76481D01*
X834252Y147260D02*
X842252D01*
X834252Y132760D02*
X842252D01*
Y147260D01*
X834252Y132760D02*
Y147260D01*
X838252Y136510D02*
Y142760D01*
X835003Y139760D02*
X841003D01*
X943420Y148080D02*
X951420D01*
X943420Y133580D02*
X951420D01*
Y148080D01*
X943420Y133580D02*
Y148080D01*
X947420Y137330D02*
Y143580D01*
X944171Y140580D02*
X950171D01*
X831660Y54100D02*
X839660D01*
X831660Y39600D02*
X839660D01*
Y54100D01*
X831660Y39600D02*
Y54100D01*
X835660Y43350D02*
Y49600D01*
X832411Y46600D02*
X838411D01*
X943420Y54100D02*
X951420D01*
X943420Y39600D02*
X951420D01*
Y54100D01*
X943420Y39600D02*
Y54100D01*
X947420Y43350D02*
Y49600D01*
X944171Y46600D02*
X950171D01*
X969836Y545972D02*
X977836D01*
X969836Y529972D02*
X977836D01*
Y545972D01*
X969836Y529972D02*
Y545972D01*
X945868Y275769D02*
Y287769D01*
X921868Y275769D02*
Y287769D01*
Y275769D02*
X945868D01*
X921868Y287769D02*
X945868D01*
X929118Y281769D02*
X938618D01*
X933868Y277019D02*
Y286519D01*
X795910Y62099D02*
Y70099D01*
X811910Y62099D02*
Y70099D01*
X795910D02*
X811910D01*
X795910Y62099D02*
X811910D01*
X800910Y66099D02*
X806910D01*
X803910Y63099D02*
Y69099D01*
X758000Y85785D02*
X766000D01*
X758000Y101785D02*
X766000D01*
X758000Y85785D02*
Y101785D01*
X766000Y85785D02*
Y101785D01*
X762000Y90785D02*
Y96785D01*
X759000Y93785D02*
X765000D01*
X738200Y73465D02*
X747700D01*
X742950Y68715D02*
Y78215D01*
X736950Y61465D02*
Y85465D01*
X748950Y61465D02*
Y85465D01*
X736950Y61465D02*
X748950D01*
X736950Y85465D02*
X748950D01*
X945868Y290019D02*
Y302019D01*
X921868Y290019D02*
Y302019D01*
Y290019D02*
X945868D01*
X921868Y302019D02*
X945868D01*
X929118Y296019D02*
X938618D01*
X933868Y291269D02*
Y300769D01*
X803910Y73513D02*
Y79513D01*
X800910Y76513D02*
X806910D01*
X795910Y80513D02*
X811910D01*
X795910Y72513D02*
X811910D01*
X795910D02*
Y80513D01*
X811910Y72513D02*
Y80513D01*
X386216Y286322D02*
Y294322D01*
X370216Y286322D02*
Y294322D01*
Y286322D02*
X386216D01*
X370216Y294322D02*
X386216D01*
X375216Y290322D02*
X381216D01*
X378216Y287322D02*
Y293322D01*
X715010Y368300D02*
Y449580D01*
X621030Y368300D02*
X715010D01*
X621030D02*
Y449580D01*
X715010D01*
X284988Y103632D02*
Y127508D01*
X306832D01*
Y103632D02*
Y127508D01*
X284988Y103632D02*
X306832D01*
X292410Y115570D02*
X299410D01*
X295910Y112070D02*
Y119070D01*
X284988Y143002D02*
Y166878D01*
X306832D01*
Y143002D02*
Y166878D01*
X284988Y143002D02*
X306832D01*
X292410Y154940D02*
X299410D01*
X295910Y151440D02*
Y158440D01*
X362078Y293562D02*
Y317438D01*
X383922D01*
Y293562D02*
Y317438D01*
X362078Y293562D02*
X383922D01*
X369500Y305500D02*
X376500D01*
X373000Y302000D02*
Y309000D01*
X362720Y255061D02*
Y278937D01*
X384564D01*
Y255061D02*
Y278937D01*
X362720Y255061D02*
X384564D01*
X370142Y266999D02*
X377142D01*
X373642Y263499D02*
Y270499D01*
X756658Y218264D02*
Y226264D01*
X772658Y218264D02*
Y226264D01*
X756658D02*
X772658D01*
X756658Y218264D02*
X772658D01*
X761658Y222264D02*
X767658D01*
X764658Y219264D02*
Y225264D01*
X774002Y265132D02*
X780002D01*
X777002Y262132D02*
Y268132D01*
X773002Y257132D02*
Y273132D01*
X781002Y257132D02*
Y273132D01*
X773002Y257132D02*
X781002D01*
X773002Y273132D02*
X781002D01*
X749729Y93785D02*
X755729D01*
X752729Y90785D02*
Y96785D01*
X756729Y85785D02*
Y101785D01*
X748729Y85785D02*
Y101785D01*
X756729D01*
X748729Y85785D02*
X756729D01*
X107520Y122053D02*
X115520D01*
X107520Y138053D02*
X115520D01*
X107520Y122053D02*
Y138053D01*
X115520Y122053D02*
Y138053D01*
X111520Y127053D02*
Y133053D01*
X108520Y130053D02*
X114520D01*
X183750Y131303D02*
X189750D01*
X186750Y128303D02*
Y134303D01*
X190750Y123303D02*
Y139303D01*
X182750Y123303D02*
Y139303D01*
X190750D01*
X182750Y123303D02*
X190750D01*
X299133Y139549D02*
X307133D01*
X299133Y123549D02*
X307133D01*
Y139549D01*
X299133Y123549D02*
Y139549D01*
X303133Y128549D02*
Y134549D01*
X300133Y131549D02*
X306133D01*
X292432Y124303D02*
Y132303D01*
X276432Y124303D02*
Y132303D01*
Y124303D02*
X292432D01*
X276432Y132303D02*
X292432D01*
X281432Y128303D02*
X287432D01*
X284432Y125303D02*
Y131303D01*
X298524Y180382D02*
X306524D01*
X298524Y164382D02*
X306524D01*
Y180382D01*
X298524Y164382D02*
Y180382D01*
X302524Y169382D02*
Y175382D01*
X299524Y172382D02*
X305524D01*
X383096Y323446D02*
X391096D01*
X383096Y307446D02*
X391096D01*
Y323446D01*
X383096Y307446D02*
Y323446D01*
X387096Y312446D02*
Y318446D01*
X384096Y315446D02*
X390096D01*
X365750Y319459D02*
Y327459D01*
X381750Y319459D02*
Y327459D01*
X365750D02*
X381750D01*
X365750Y319459D02*
X381750D01*
X370750Y323460D02*
X376750D01*
X373750Y320460D02*
Y326460D01*
X384750Y284778D02*
X392750D01*
X384750Y268778D02*
X392750D01*
Y284778D01*
X384750Y268778D02*
Y284778D01*
X388750Y273778D02*
Y279778D01*
X385750Y276779D02*
X391750D01*
X377875Y278553D02*
Y286553D01*
X361875Y278553D02*
Y286553D01*
Y278553D02*
X377875D01*
X361875Y286553D02*
X377875D01*
X366875Y282553D02*
X372875D01*
X369875Y279553D02*
Y285553D01*
X327841Y256520D02*
Y262520D01*
X324841Y259520D02*
X330841D01*
X319841Y255520D02*
X335841D01*
X319841Y263520D02*
X335841D01*
Y255520D02*
Y263520D01*
X319841Y255520D02*
Y263520D01*
X354750Y269500D02*
X362750D01*
X354750Y253500D02*
X362750D01*
Y269500D01*
X354750Y253500D02*
Y269500D01*
X358750Y258500D02*
Y264500D01*
X355750Y261500D02*
X361750D01*
X354394Y307749D02*
X362394D01*
X354394Y291749D02*
X362394D01*
Y307749D01*
X354394Y291749D02*
Y307749D01*
X358394Y296749D02*
Y302749D01*
X355394Y299748D02*
X361394D01*
X354394Y307641D02*
X362394D01*
X354394Y323641D02*
X362394D01*
X354394Y307641D02*
Y323641D01*
X362394Y307641D02*
Y323641D01*
X358394Y312641D02*
Y318641D01*
X355394Y315641D02*
X361394D01*
X444750Y345675D02*
X452750D01*
X444750Y329675D02*
X452750D01*
Y345675D01*
X444750Y329675D02*
Y345675D01*
X448750Y334675D02*
Y340675D01*
X445750Y337675D02*
X451750D01*
X462250Y329750D02*
X470250D01*
X462250Y345750D02*
X470250D01*
X462250Y329750D02*
Y345750D01*
X470250Y329750D02*
Y345750D01*
X466250Y334750D02*
Y340750D01*
X463250Y337750D02*
X469250D01*
X453500Y329750D02*
X461500D01*
X453500Y345750D02*
X461500D01*
X453500Y329750D02*
Y345750D01*
X461500Y329750D02*
Y345750D01*
X457500Y334750D02*
Y340750D01*
X454500Y337750D02*
X460500D01*
X413437Y329995D02*
X421437D01*
X413437Y345995D02*
X421437D01*
X413437Y329995D02*
Y345995D01*
X421437Y329995D02*
Y345995D01*
X417437Y334995D02*
Y340995D01*
X414437Y337995D02*
X420437D01*
X434650Y303027D02*
X442650D01*
X434650Y287027D02*
X442650D01*
Y303027D01*
X434650Y287027D02*
Y303027D01*
X438650Y292027D02*
Y298027D01*
X435650Y295027D02*
X441650D01*
X417159Y300204D02*
X423159D01*
X420159Y297204D02*
Y303204D01*
X416159Y292204D02*
Y308204D01*
X424159Y292204D02*
Y308204D01*
X416159Y292204D02*
X424159D01*
X416159Y308204D02*
X424159D01*
X22928Y364000D02*
X30928D01*
X22928Y348000D02*
X30928D01*
Y364000D01*
X22928Y348000D02*
Y364000D01*
X26928Y353000D02*
Y359000D01*
X23928Y356000D02*
X29928D01*
X32000Y364000D02*
X40000D01*
X32000Y348000D02*
X40000D01*
Y364000D01*
X32000Y348000D02*
Y364000D01*
X36000Y353000D02*
Y359000D01*
X33000Y356000D02*
X39000D01*
X76230Y380925D02*
Y388925D01*
X92230Y380925D02*
Y388925D01*
X76230D02*
X92230D01*
X76230Y380925D02*
X92230D01*
X81230Y384925D02*
X87230D01*
X84230Y381925D02*
Y387925D01*
X50420Y439790D02*
Y447790D01*
X66420Y439790D02*
Y447790D01*
X50420D02*
X66420D01*
X50420Y439790D02*
X66420D01*
X55420Y443790D02*
X61420D01*
X58420Y440790D02*
Y446790D01*
X354090Y211803D02*
X360090D01*
X357090Y208803D02*
Y214803D01*
X361090Y204203D02*
Y219403D01*
X353090Y204203D02*
Y219403D01*
X361090D01*
X353090Y204203D02*
X361090D01*
X215370Y451774D02*
Y461774D01*
X210370Y456774D02*
X220370D01*
X204870Y447274D02*
X225870D01*
X204870Y466274D02*
X225870D01*
Y447274D02*
Y466274D01*
X204870Y447274D02*
Y466274D01*
X228630Y464774D02*
X236630D01*
X228630Y448774D02*
X236630D01*
Y464774D01*
X228630Y448774D02*
Y464774D01*
X232630Y453774D02*
Y459774D01*
X229630Y456774D02*
X235630D01*
X712730Y51780D02*
Y57780D01*
X709730Y54780D02*
X715730D01*
X705130Y50780D02*
X720330D01*
X705130Y58780D02*
X720330D01*
Y50780D02*
Y58780D01*
X705130Y50780D02*
Y58780D01*
X611750Y53850D02*
X619750D01*
X611750Y38650D02*
X619750D01*
Y53850D01*
X611750Y38650D02*
Y53850D01*
X615750Y43250D02*
Y49250D01*
X612750Y46250D02*
X618750D01*
X616680Y95150D02*
X624680D01*
X616680Y110350D02*
X624680D01*
X616680Y95150D02*
Y110350D01*
X624680Y95150D02*
Y110350D01*
X620680Y99750D02*
Y105750D01*
X617680Y102750D02*
X623680D01*
X131750Y356250D02*
X137750D01*
X134750Y353250D02*
Y359250D01*
X130750Y348650D02*
Y363850D01*
X138750Y348650D02*
Y363850D01*
X130750Y348650D02*
X138750D01*
X130750Y363850D02*
X138750D01*
X133147Y206250D02*
X139147D01*
X136147Y203250D02*
Y209250D01*
X140147Y198650D02*
Y213850D01*
X132147Y198650D02*
Y213850D01*
X140147D01*
X132147Y198650D02*
X140147D01*
X323250Y362000D02*
X329250D01*
X326250Y359000D02*
Y365000D01*
X322250Y354400D02*
Y369600D01*
X330250Y354400D02*
Y369600D01*
X322250Y354400D02*
X330250D01*
X322250Y369600D02*
X330250D01*
X374988Y361000D02*
X380988D01*
X377988Y358000D02*
Y364000D01*
X373988Y353400D02*
Y368600D01*
X381988Y353400D02*
Y368600D01*
X373988Y353400D02*
X381988D01*
X373988Y368600D02*
X381988D01*
X71751Y205720D02*
X79751D01*
X71751Y190520D02*
X79751D01*
Y205720D01*
X71751Y190520D02*
Y205720D01*
X75751Y195120D02*
Y201120D01*
X72751Y198120D02*
X78751D01*
X124250Y206250D02*
X130250D01*
X127250Y203250D02*
Y209250D01*
X131250Y198650D02*
Y213850D01*
X123250Y198650D02*
Y213850D01*
X131250D01*
X123250Y198650D02*
X131250D01*
X71750Y238100D02*
X79750D01*
X71750Y222900D02*
X79750D01*
Y238100D01*
X71750Y222900D02*
Y238100D01*
X75750Y227500D02*
Y233500D01*
X72750Y230500D02*
X78750D01*
X123250Y237197D02*
X131250D01*
X123250Y221998D02*
X131250D01*
Y237197D01*
X123250Y221998D02*
Y237197D01*
X127250Y226597D02*
Y232598D01*
X124250Y229597D02*
X130250D01*
X174808Y131303D02*
X180808D01*
X177808Y128303D02*
Y134303D01*
X181808Y123303D02*
Y139303D01*
X173808Y123303D02*
Y139303D01*
X181808D01*
X173808Y123303D02*
X181808D01*
X165250Y113938D02*
Y121938D01*
X181250Y113938D02*
Y121938D01*
X165250D02*
X181250D01*
X165250Y113938D02*
X181250D01*
X170250Y117938D02*
X176250D01*
X173250Y114938D02*
Y120938D01*
X128546Y91879D02*
X134545D01*
X131545Y88879D02*
Y94879D01*
X127545Y83879D02*
Y99879D01*
X135546Y83879D02*
Y99879D01*
X127545Y83879D02*
X135546D01*
X127545Y99879D02*
X135546D01*
X119951Y91879D02*
X125951D01*
X122951Y88879D02*
Y94879D01*
X118951Y83879D02*
Y99879D01*
X126951Y83879D02*
Y99879D01*
X118951Y83879D02*
X126951D01*
X118951Y99879D02*
X126951D01*
X111500Y91879D02*
X117500D01*
X114500Y88879D02*
Y94879D01*
X110500Y83879D02*
Y99879D01*
X118500Y83879D02*
Y99879D01*
X110500Y83879D02*
X118500D01*
X110500Y99879D02*
X118500D01*
X614920Y95255D02*
X644920D01*
Y53255D02*
Y95255D01*
X614920Y53255D02*
Y95255D01*
Y53255D02*
X644920D01*
X629920Y72255D02*
Y76255D01*
X627920Y74255D02*
X631920D01*
X87308Y336053D02*
Y366053D01*
X129308D01*
X87308Y336053D02*
X129308D01*
Y366053D01*
X106308Y351053D02*
X110308D01*
X108308Y349053D02*
Y353053D01*
X137858Y155720D02*
X167858D01*
X137858D02*
Y197720D01*
X167858Y155720D02*
Y197720D01*
X137858D02*
X167858D01*
X152858Y174720D02*
Y178720D01*
X150858Y176720D02*
X154858D01*
X331750Y340473D02*
Y370473D01*
X373750D01*
X331750Y340473D02*
X373750D01*
Y370473D01*
X350750Y355473D02*
X354750D01*
X352750Y353473D02*
Y357473D01*
X80147Y177750D02*
Y207750D01*
X122147D01*
X80147Y177750D02*
X122147D01*
Y207750D01*
X99147Y192750D02*
X103147D01*
X101147Y190750D02*
Y194750D01*
X57400Y197750D02*
X64400D01*
X60900Y194250D02*
Y201250D01*
X71568Y187844D02*
Y207656D01*
X50232D02*
X71568D01*
X50232Y194194D02*
Y201306D01*
Y187844D02*
Y194194D01*
Y187844D02*
X71568D01*
X50232Y201306D02*
Y207656D01*
X280832Y193120D02*
Y201120D01*
X296032Y193120D02*
Y201120D01*
X280832D02*
X296032D01*
X280832Y193120D02*
X296032D01*
X285432Y197120D02*
X291432D01*
X288432Y194120D02*
Y200120D01*
X137763Y294172D02*
X145763D01*
X137763Y278972D02*
X145763D01*
Y294172D01*
X137763Y278972D02*
Y294172D01*
X141763Y283572D02*
Y289572D01*
X138763Y286572D02*
X144763D01*
X765871Y216450D02*
X773871D01*
X765871Y201250D02*
X773871D01*
Y216450D01*
X765871Y201250D02*
Y216450D01*
X769871Y205850D02*
Y211850D01*
X766871Y208850D02*
X772871D01*
X761363Y203350D02*
Y211350D01*
X746163Y203350D02*
Y211350D01*
Y203350D02*
X761363D01*
X746163Y211350D02*
X761363D01*
X750763Y207350D02*
X756763D01*
X753763Y204350D02*
Y210350D01*
X732049Y216971D02*
X740049D01*
X732049Y201771D02*
X740049D01*
Y216971D01*
X732049Y201771D02*
Y216971D01*
X736049Y206371D02*
Y212371D01*
X733049Y209371D02*
X739049D01*
X728572Y203760D02*
Y211760D01*
X713372Y203760D02*
Y211760D01*
Y203760D02*
X728572D01*
X713372Y211760D02*
X728572D01*
X717972Y207760D02*
X723972D01*
X720972Y204760D02*
Y210760D01*
X755436Y175015D02*
Y181015D01*
X752436Y178015D02*
X758436D01*
X747436Y174015D02*
X763436D01*
X747436Y182015D02*
X763436D01*
Y174015D02*
Y182015D01*
X747436Y174015D02*
Y182015D01*
X723057Y175164D02*
Y181164D01*
X720057Y178164D02*
X726057D01*
X715057Y182164D02*
X731057D01*
X715057Y174164D02*
X731057D01*
X715057D02*
Y182164D01*
X731057Y174164D02*
Y182164D01*
X748506Y181062D02*
Y204938D01*
X770350D01*
Y181062D02*
Y204938D01*
X748506Y181062D02*
X770350D01*
X755928Y193000D02*
X762928D01*
X759428Y189500D02*
Y196500D01*
X715835Y181400D02*
Y205276D01*
X737679D01*
Y181400D02*
Y205276D01*
X715835Y181400D02*
X737679D01*
X723257Y193338D02*
X730257D01*
X726757Y189838D02*
Y196838D01*
X294932Y165623D02*
Y173623D01*
X278932Y165623D02*
Y173623D01*
Y165623D02*
X294932D01*
X278932Y173623D02*
X294932D01*
X283932Y169623D02*
X289932D01*
X286932Y166623D02*
Y172623D01*
X221290Y111570D02*
Y119570D01*
X236490Y111570D02*
Y119570D01*
X221290D02*
X236490D01*
X221290Y111570D02*
X236490D01*
X225890Y115570D02*
X231890D01*
X228890Y112570D02*
Y118570D01*
X230320Y158541D02*
Y166541D01*
X245520Y158541D02*
Y166541D01*
X230320D02*
X245520D01*
X230320Y158541D02*
X245520D01*
X234920Y162541D02*
X240920D01*
X237920Y159541D02*
Y165541D01*
X188900Y153210D02*
Y159210D01*
X185900Y156210D02*
X191900D01*
X180900Y152210D02*
X196900D01*
X180900Y160210D02*
X196900D01*
Y152210D02*
Y160210D01*
X180900Y152210D02*
Y160210D01*
X412029Y193773D02*
Y203273D01*
X407279Y198523D02*
X416779D01*
X400029Y204523D02*
X424029D01*
X400029Y192523D02*
X424029D01*
X400029D02*
Y204523D01*
X424029Y192523D02*
Y204523D01*
X325346Y483750D02*
X337346D01*
X325346Y459750D02*
X337346D01*
Y483750D01*
X325346Y459750D02*
Y483750D01*
X331346Y467000D02*
Y476500D01*
X326596Y471750D02*
X336096D01*
X388750Y180500D02*
X410250D01*
X388750D02*
Y192500D01*
X410250D01*
Y180500D02*
Y192500D01*
X338052Y448114D02*
Y460114D01*
X316553D02*
X338052D01*
X316553Y448114D02*
Y460114D01*
Y448114D02*
X338052D01*
X450041Y181482D02*
Y200482D01*
X429041Y181482D02*
Y200482D01*
Y181482D02*
X450041D01*
X429041Y200482D02*
X450041D01*
X434541Y190982D02*
X444542D01*
X439541Y185982D02*
Y195982D01*
X367642Y453500D02*
Y463500D01*
X362642Y458500D02*
X372642D01*
X357142Y468000D02*
X378142D01*
X357142Y449000D02*
X378142D01*
X357142D02*
Y468000D01*
X378142Y449000D02*
Y468000D01*
X409437Y205880D02*
Y211880D01*
X406437Y208880D02*
X412437D01*
X401437Y204880D02*
X417437D01*
X401437Y212880D02*
X417437D01*
Y204880D02*
Y212880D01*
X401437Y204880D02*
Y212880D01*
X420750Y182982D02*
Y188982D01*
X417750Y185982D02*
X423750D01*
X412750Y181982D02*
X428750D01*
X412750Y189982D02*
X428750D01*
Y181982D02*
Y189982D01*
X412750Y181982D02*
Y189982D01*
X441696Y202670D02*
Y208670D01*
X438696Y205670D02*
X444696D01*
X433696Y209670D02*
X449696D01*
X433696Y201670D02*
X449696D01*
X433696D02*
Y209670D01*
X449696Y201670D02*
Y209670D01*
X337750Y460268D02*
X345750D01*
X337750Y476268D02*
X345750D01*
X337750Y460268D02*
Y476268D01*
X345750Y460268D02*
Y476268D01*
X341750Y465268D02*
Y471268D01*
X338750Y468268D02*
X344750D01*
X340533Y450250D02*
Y458250D01*
X356533Y450250D02*
Y458250D01*
X340533D02*
X356533D01*
X340533Y450250D02*
X356533D01*
X345533Y454250D02*
X351533D01*
X348533Y451250D02*
Y457250D01*
X380750Y465750D02*
X388750D01*
X380750Y449750D02*
X388750D01*
Y465750D01*
X380750Y449750D02*
Y465750D01*
X384750Y454750D02*
Y460750D01*
X381750Y457750D02*
X387750D01*
X141763Y452500D02*
Y458500D01*
X138763Y455500D02*
X144763D01*
X133763Y451500D02*
X149763D01*
X133763Y459500D02*
X149763D01*
Y451500D02*
Y459500D01*
X133763Y451500D02*
Y459500D01*
X122806Y468750D02*
X128806D01*
X125806Y465750D02*
Y471750D01*
X129806Y460750D02*
Y476750D01*
X121806Y460750D02*
Y476750D01*
X129806D01*
X121806Y460750D02*
X129806D01*
X96490Y480500D02*
X102490D01*
X99490Y477500D02*
Y483500D01*
X103490Y472500D02*
Y488500D01*
X95490Y472500D02*
Y488500D01*
X103490D01*
X95490Y472500D02*
X103490D01*
X398000Y151000D02*
X404000D01*
X401000Y148000D02*
Y154000D01*
X405000Y143000D02*
Y159000D01*
X397000Y143000D02*
Y159000D01*
X405000D01*
X397000Y143000D02*
X405000D01*
X569770Y475156D02*
X575770D01*
X572770Y472156D02*
Y478156D01*
X576770Y467156D02*
Y483156D01*
X568770Y467156D02*
Y483156D01*
X576770D01*
X568770Y467156D02*
X576770D01*
X561500Y475156D02*
X567500D01*
X564500Y472156D02*
Y478156D01*
X568500Y467156D02*
Y483156D01*
X560500Y467156D02*
Y483156D01*
X568500D01*
X560500Y467156D02*
X568500D01*
X553400Y475156D02*
X559400D01*
X556400Y472156D02*
Y478156D01*
X560400Y467156D02*
Y483156D01*
X552400Y467156D02*
Y483156D01*
X560400D01*
X552400Y467156D02*
X560400D01*
X545500Y475156D02*
X551500D01*
X548500Y472156D02*
Y478156D01*
X552500Y467156D02*
Y483156D01*
X544500Y467156D02*
Y483156D01*
X552500D01*
X544500Y467156D02*
X552500D01*
X774551Y175754D02*
X780551D01*
X777551Y172754D02*
Y178754D01*
X781551Y167754D02*
Y183754D01*
X773551Y167754D02*
Y183754D01*
X781551D01*
X773551Y167754D02*
X781551D01*
X761126Y163750D02*
X767126D01*
X764126Y160750D02*
Y166750D01*
X768126Y155750D02*
Y171750D01*
X760126Y155750D02*
Y171750D01*
X768126D01*
X760126Y155750D02*
X768126D01*
X748500Y166250D02*
Y172250D01*
X745500Y169250D02*
X751500D01*
X740500Y165250D02*
X756500D01*
X740500Y173250D02*
X756500D01*
Y165250D02*
Y173250D01*
X740500Y165250D02*
Y173250D01*
X724911Y164277D02*
Y170277D01*
X721911Y167277D02*
X727911D01*
X716911Y171277D02*
X732911D01*
X716911Y163277D02*
X732911D01*
X716911D02*
Y171277D01*
X732911Y163277D02*
Y171277D01*
X1050650Y339460D02*
X1056650D01*
X1053650Y336460D02*
Y342460D01*
X1057650Y331460D02*
Y347460D01*
X1049650Y331460D02*
Y347460D01*
X1057650D01*
X1049650Y331460D02*
X1057650D01*
X397418Y131826D02*
X403418D01*
X400418Y128826D02*
Y134826D01*
X404418Y123826D02*
Y139826D01*
X396418Y123826D02*
Y139826D01*
X404418D01*
X396418Y123826D02*
X404418D01*
X188238Y457064D02*
X194238D01*
X191238Y454064D02*
Y460064D01*
X187238Y449064D02*
Y465064D01*
X195238Y449064D02*
Y465064D01*
X187238Y449064D02*
X195238D01*
X187238Y465064D02*
X195238D01*
X47083Y356000D02*
X53083D01*
X50083Y353000D02*
Y359000D01*
X46083Y348000D02*
Y364000D01*
X54083Y348000D02*
Y364000D01*
X46083Y348000D02*
X54083D01*
X46083Y364000D02*
X54083D01*
X638048Y242924D02*
Y248924D01*
X635048Y245924D02*
X641048D01*
X630048Y241924D02*
X646048D01*
X630048Y249924D02*
X646048D01*
Y241924D02*
Y249924D01*
X630048Y241924D02*
Y249924D01*
X638154Y234122D02*
Y240122D01*
X635154Y237122D02*
X641154D01*
X630154Y233122D02*
X646154D01*
X630154Y241122D02*
X646154D01*
Y233122D02*
Y241122D01*
X630154Y233122D02*
Y241122D01*
X437367Y321289D02*
X443367D01*
X440367Y318290D02*
Y324290D01*
X444367Y313290D02*
Y329290D01*
X436367Y313290D02*
Y329290D01*
X444367D01*
X436367Y313290D02*
X444367D01*
X638048Y251750D02*
Y257750D01*
X635048Y254750D02*
X641048D01*
X630048Y250750D02*
X646048D01*
X630048Y258750D02*
X646048D01*
Y250750D02*
Y258750D01*
X630048Y250750D02*
Y258750D01*
X460200Y295300D02*
Y302300D01*
X456700Y298800D02*
X463700D01*
X449278Y286862D02*
X471122D01*
Y310738D01*
X449278D02*
X471122D01*
X449278Y286862D02*
Y310738D01*
D198*
X228250Y287550D02*
X238250D01*
X233250Y282550D02*
Y292550D01*
X13146Y242250D02*
Y343850D01*
X27646Y288050D02*
Y298050D01*
X22646Y293050D02*
X32646D01*
X772160Y22491D02*
Y32491D01*
X767160Y27491D02*
X777160D01*
X721360Y12991D02*
X822960D01*
X146750Y201053D02*
Y374053D01*
X319750Y201053D02*
Y374053D01*
X146750D02*
X319750D01*
X146750Y201053D02*
X319750D01*
X228250Y287553D02*
X238250D01*
X233250Y282553D02*
Y292553D01*
X403860Y391100D02*
Y447100D01*
X73660Y391100D02*
X403860D01*
X73660Y447100D02*
X403860D01*
X73660Y391100D02*
Y447100D01*
X766398Y75751D02*
X776398D01*
X771398Y70751D02*
Y80751D01*
X531850Y194909D02*
Y204909D01*
X526850Y199909D02*
X536850D01*
X973836Y505318D02*
Y511318D01*
X970836Y508318D02*
X976836D01*
X77613Y311404D02*
X87613D01*
X82613Y306404D02*
Y316404D01*
X709750Y342745D02*
Y348745D01*
X706750Y345745D02*
X712750D01*
X720250Y342745D02*
Y348745D01*
X717250Y345745D02*
X723250D01*
X961136Y535162D02*
Y541162D01*
X958136Y538162D02*
X964136D01*
X961136Y505508D02*
Y511508D01*
X958136Y508508D02*
X964136D01*
X340802Y218885D02*
Y224885D01*
X337802Y221885D02*
X343802D01*
X121250Y268571D02*
Y274571D01*
X118250Y271571D02*
X124250D01*
X199750Y454174D02*
Y460174D01*
X196750Y457174D02*
X202750D01*
X241595Y457250D02*
X247595D01*
X244595Y454250D02*
Y460250D01*
X275000Y456524D02*
X281000D01*
X278000Y453524D02*
Y459524D01*
X324277Y217885D02*
X330277D01*
X327277Y214885D02*
Y220885D01*
X341176Y268053D02*
Y274053D01*
X338176Y271053D02*
X344176D01*
X80891Y273620D02*
Y279620D01*
X77891Y276620D02*
X83891D01*
X973836Y534972D02*
Y540972D01*
X970836Y537972D02*
X976836D01*
D201*
X1031500Y397500D02*
X1075500D01*
Y357500D02*
Y397500D01*
X1031500Y357500D02*
X1075500D01*
X1031500D02*
Y397500D01*
D202*
X618822Y-750D02*
X706822D01*
X618822D02*
Y81250D01*
X706822D01*
Y-750D02*
Y81250D01*
D203*
X616674Y171632D02*
Y171882D01*
X610674Y171632D02*
Y171882D01*
Y159882D02*
Y160132D01*
X616674Y159882D02*
Y160132D01*
X602674Y159882D02*
Y171882D01*
X624674Y159882D02*
Y171882D01*
X610674Y171632D02*
X616674D01*
X602674Y159882D02*
X610674D01*
X602674Y171882D02*
X610674D01*
Y160132D02*
X616674D01*
Y159882D02*
X624674D01*
X616674Y171882D02*
X624674D01*
X639524Y349917D02*
Y350167D01*
X633524Y349917D02*
Y350167D01*
Y338167D02*
Y338417D01*
X639524Y338167D02*
Y338417D01*
X625524Y338167D02*
Y350167D01*
X647524Y338167D02*
Y350167D01*
X633524Y349917D02*
X639524D01*
X625524Y338167D02*
X633524D01*
X625524Y350167D02*
X633524D01*
Y338417D02*
X639524D01*
Y338167D02*
X647524D01*
X639524Y350167D02*
X647524D01*
X588000Y121000D02*
X588250D01*
X588000Y115000D02*
X588250D01*
X599750D02*
X600000D01*
X599750Y121000D02*
X600000D01*
X588000Y107000D02*
X600000D01*
X588000Y129000D02*
X600000D01*
X588250Y115000D02*
Y121000D01*
X600000Y107000D02*
Y115000D01*
X588000Y107000D02*
Y115000D01*
X599750D02*
Y121000D01*
X600000D02*
Y129000D01*
X588000Y121000D02*
Y129000D01*
X175400Y276620D02*
X190600D01*
X175400Y268620D02*
X190600D01*
X175400D02*
Y276620D01*
X190600Y268620D02*
Y276620D01*
X164610Y123703D02*
Y138903D01*
X172610Y123703D02*
Y138903D01*
X164610Y123703D02*
X172610D01*
X164610Y138903D02*
X172610D01*
X1050150Y357000D02*
X1050150Y349000D01*
X1065350Y357000D02*
X1065350Y349000D01*
X1050150Y357000D02*
X1065350Y357000D01*
X1050150Y349000D02*
X1065350Y349000D01*
X1049900Y329564D02*
X1049900Y321564D01*
X1065100Y329564D02*
X1065100Y321564D01*
X1049900Y329564D02*
X1065100Y329564D01*
X1049900Y321564D02*
X1065100Y321564D01*
X462700Y309442D02*
Y324642D01*
X454700Y309442D02*
Y324642D01*
X462700D01*
X454700Y309442D02*
X462700D01*
X462500Y309166D02*
Y324366D01*
X470500Y309166D02*
Y324366D01*
X462500Y309166D02*
X470500D01*
X462500Y324366D02*
X470500D01*
X430459Y330395D02*
Y345595D01*
X422459Y330395D02*
Y345595D01*
X430459D01*
X422459Y330395D02*
X430459D01*
X430659D02*
Y345595D01*
X438659Y330395D02*
Y345595D01*
X430659Y330395D02*
X438659D01*
X430659Y345595D02*
X438659D01*
X255254Y236178D02*
Y244178D01*
X270454Y236178D02*
Y244178D01*
X255254D02*
X270454D01*
X255254Y236178D02*
X270454D01*
D204*
X183000Y269620D02*
Y275620D01*
X180000Y272620D02*
X186000D01*
X165610Y131303D02*
X171610D01*
X168610Y128303D02*
Y134303D01*
X1054750Y353000D02*
X1060750D01*
X1057750Y350000D02*
Y356000D01*
X1054500Y325564D02*
X1060500D01*
X1057500Y322564D02*
Y328564D01*
X455700Y317042D02*
X461700D01*
X458700Y314042D02*
Y320042D01*
X463500Y316766D02*
X469500D01*
X466500Y313766D02*
Y319766D01*
X423459Y337995D02*
X429459D01*
X426459Y334995D02*
Y340995D01*
X431659Y337995D02*
X437659D01*
X434659Y334995D02*
Y340995D01*
X259854Y240178D02*
X265854D01*
X262854Y237178D02*
Y243178D01*
M02*
