G04*
G04 #@! TF.GenerationSoftware,Altium Limited,Altium Designer,24.5.2 (23)*
G04*
G04 Layer_Color=65535*
%FSLAX44Y44*%
%MOMM*%
G71*
G04*
G04 #@! TF.SameCoordinates,0C5A4069-AE43-482B-AD25-CF0848805004*
G04*
G04*
G04 #@! TF.FilePolarity,Positive*
G04*
G01*
G75*
%ADD10C,0.1270*%
%ADD14C,0.2540*%
%ADD15C,0.2000*%
%ADD17R,4.8260X2.4130*%
%ADD18C,0.1778*%
%ADD19C,0.2997*%
%ADD197C,0.0500*%
G36*
X885250Y-150059D02*
X889786D01*
Y-150512D01*
X892507D01*
Y-150966D01*
X894775D01*
Y-151419D01*
X896589D01*
Y-151873D01*
X898403D01*
Y-152327D01*
X899764D01*
Y-152780D01*
X901124D01*
Y-153234D01*
X902485D01*
Y-153687D01*
X903392D01*
Y-154141D01*
X904753D01*
Y-154594D01*
X905660D01*
Y-155048D01*
X906567D01*
Y-155501D01*
X907474D01*
Y-155955D01*
X908381D01*
Y-156409D01*
X909288D01*
Y-156862D01*
X909742D01*
Y-157316D01*
X910649D01*
Y-157769D01*
X911556D01*
Y-158223D01*
X912010D01*
Y-158676D01*
X912917D01*
Y-159130D01*
X913371D01*
Y-159584D01*
X914278D01*
Y-160037D01*
X914731D01*
Y-160491D01*
X915185D01*
Y-160944D01*
X916092D01*
Y-161398D01*
X916545D01*
Y-161851D01*
X916999D01*
Y-162305D01*
X917452D01*
Y-162758D01*
X918360D01*
Y-163212D01*
X918813D01*
Y-163666D01*
X919267D01*
Y-164119D01*
X919720D01*
Y-164573D01*
X920174D01*
Y-165026D01*
X920627D01*
Y-165480D01*
X921081D01*
Y-165933D01*
X921535D01*
Y-166387D01*
X921988D01*
Y-166840D01*
X922442D01*
Y-167294D01*
X922895D01*
Y-167747D01*
X923349D01*
Y-168201D01*
Y-168655D01*
X923802D01*
Y-169108D01*
X924256D01*
Y-169562D01*
X924709D01*
Y-170015D01*
X925163D01*
Y-170469D01*
Y-170922D01*
X925617D01*
Y-171376D01*
X926070D01*
Y-171830D01*
X926524D01*
Y-172283D01*
Y-172737D01*
X926977D01*
Y-173190D01*
X927431D01*
Y-173644D01*
Y-174097D01*
X927884D01*
Y-174551D01*
X928338D01*
Y-175004D01*
Y-175458D01*
X928791D01*
Y-175912D01*
X929245D01*
Y-176365D01*
Y-176819D01*
X929698D01*
Y-177272D01*
Y-177726D01*
X930152D01*
Y-178179D01*
Y-178633D01*
X930606D01*
Y-179086D01*
Y-179540D01*
X931059D01*
Y-179993D01*
Y-180447D01*
X931513D01*
Y-180901D01*
Y-181354D01*
X931966D01*
Y-181808D01*
Y-182261D01*
X932420D01*
Y-182715D01*
Y-183168D01*
Y-183622D01*
X932873D01*
Y-184076D01*
Y-184529D01*
X933327D01*
Y-184983D01*
Y-185436D01*
Y-185890D01*
X933781D01*
Y-186343D01*
Y-186797D01*
Y-187250D01*
X934234D01*
Y-187704D01*
Y-188158D01*
Y-188611D01*
Y-189065D01*
X934688D01*
Y-189518D01*
Y-189972D01*
Y-190425D01*
Y-190879D01*
X935141D01*
Y-191332D01*
Y-191786D01*
Y-192240D01*
Y-192693D01*
X935595D01*
Y-193147D01*
Y-193600D01*
Y-194054D01*
Y-194507D01*
Y-194961D01*
Y-195414D01*
Y-195868D01*
X936048D01*
Y-196322D01*
Y-196775D01*
Y-197229D01*
Y-197682D01*
Y-198136D01*
Y-198589D01*
Y-199043D01*
Y-199496D01*
Y-199950D01*
Y-200404D01*
Y-200857D01*
X936502D01*
Y-201311D01*
Y-201764D01*
Y-202218D01*
Y-202671D01*
Y-203125D01*
Y-203578D01*
Y-204032D01*
Y-204486D01*
Y-204939D01*
Y-205393D01*
X936048D01*
Y-205846D01*
Y-206300D01*
Y-206753D01*
Y-207207D01*
Y-207661D01*
Y-208114D01*
Y-208568D01*
Y-209021D01*
Y-209475D01*
Y-209928D01*
Y-210382D01*
X935595D01*
Y-210835D01*
Y-211289D01*
Y-211742D01*
Y-212196D01*
Y-212650D01*
Y-213103D01*
X935141D01*
Y-213557D01*
Y-214010D01*
Y-214464D01*
Y-214917D01*
Y-215371D01*
X934688D01*
Y-215825D01*
Y-216278D01*
Y-216732D01*
Y-217185D01*
X934234D01*
Y-217639D01*
Y-218092D01*
Y-218546D01*
Y-218999D01*
X933781D01*
Y-219453D01*
Y-219907D01*
Y-220360D01*
X933327D01*
Y-220814D01*
Y-221267D01*
X932873D01*
Y-221721D01*
Y-222174D01*
Y-222628D01*
X932420D01*
Y-223081D01*
Y-223535D01*
X931966D01*
Y-223988D01*
Y-224442D01*
Y-224896D01*
X931513D01*
Y-225349D01*
Y-225803D01*
X931059D01*
Y-226256D01*
Y-226710D01*
X930606D01*
Y-227163D01*
Y-227617D01*
X930152D01*
Y-228071D01*
Y-228524D01*
X929698D01*
Y-228071D01*
Y-227617D01*
Y-227163D01*
Y-226710D01*
Y-226256D01*
Y-225803D01*
Y-225349D01*
Y-224896D01*
Y-224442D01*
Y-223988D01*
Y-223535D01*
Y-223081D01*
Y-222628D01*
Y-222174D01*
Y-221721D01*
Y-221267D01*
Y-220814D01*
Y-220360D01*
Y-219907D01*
Y-219453D01*
Y-218999D01*
Y-218546D01*
Y-218092D01*
Y-217639D01*
Y-217185D01*
Y-216732D01*
Y-216278D01*
Y-215825D01*
Y-215371D01*
Y-214917D01*
Y-214464D01*
Y-214010D01*
Y-213557D01*
Y-213103D01*
Y-212650D01*
Y-212196D01*
Y-211742D01*
Y-211289D01*
Y-210835D01*
Y-210382D01*
Y-209928D01*
Y-209475D01*
Y-209021D01*
Y-208568D01*
Y-208114D01*
Y-207661D01*
Y-207207D01*
Y-206753D01*
Y-206300D01*
Y-205846D01*
Y-205393D01*
Y-204939D01*
Y-204486D01*
Y-204032D01*
Y-203578D01*
Y-203125D01*
Y-202671D01*
Y-202218D01*
Y-201764D01*
Y-201311D01*
Y-200857D01*
Y-200404D01*
Y-199950D01*
Y-199496D01*
Y-199043D01*
Y-198589D01*
Y-198136D01*
Y-197682D01*
Y-197229D01*
Y-196775D01*
Y-196322D01*
Y-195868D01*
Y-195414D01*
Y-194961D01*
Y-194507D01*
Y-194054D01*
X916999D01*
Y-194507D01*
Y-194961D01*
Y-195414D01*
Y-195868D01*
Y-196322D01*
Y-196775D01*
Y-197229D01*
Y-197682D01*
Y-198136D01*
Y-198589D01*
Y-199043D01*
Y-199496D01*
Y-199950D01*
Y-200404D01*
Y-200857D01*
Y-201311D01*
Y-201764D01*
Y-202218D01*
Y-202671D01*
Y-203125D01*
Y-203578D01*
Y-204032D01*
Y-204486D01*
Y-204939D01*
Y-205393D01*
Y-205846D01*
Y-206300D01*
Y-206753D01*
Y-207207D01*
Y-207661D01*
Y-208114D01*
Y-208568D01*
Y-209021D01*
Y-209475D01*
Y-209928D01*
Y-210382D01*
Y-210835D01*
Y-211289D01*
Y-211742D01*
Y-212196D01*
Y-212650D01*
Y-213103D01*
Y-213557D01*
Y-214010D01*
Y-214464D01*
Y-214917D01*
Y-215371D01*
Y-215825D01*
Y-216278D01*
Y-216732D01*
Y-217185D01*
Y-217639D01*
Y-218092D01*
Y-218546D01*
Y-218999D01*
Y-219453D01*
Y-219907D01*
Y-220360D01*
Y-220814D01*
Y-221267D01*
Y-221721D01*
X916545D01*
Y-222174D01*
Y-222628D01*
Y-223081D01*
Y-223535D01*
X916092D01*
Y-223988D01*
Y-224442D01*
X915638D01*
Y-224896D01*
Y-225349D01*
X915185D01*
Y-225803D01*
X914731D01*
Y-226256D01*
X914278D01*
Y-226710D01*
X913824D01*
Y-227163D01*
X913371D01*
Y-227617D01*
X912463D01*
Y-228071D01*
X911103D01*
Y-228524D01*
X904753D01*
Y-228071D01*
X903392D01*
Y-227617D01*
X902485D01*
Y-227163D01*
X902032D01*
Y-226710D01*
X901578D01*
Y-226256D01*
X901124D01*
Y-225803D01*
Y-225349D01*
X900671D01*
Y-224896D01*
Y-224442D01*
X900217D01*
Y-223988D01*
Y-223535D01*
Y-223081D01*
Y-222628D01*
X899764D01*
Y-222174D01*
Y-221721D01*
Y-221267D01*
Y-220814D01*
Y-220360D01*
Y-219907D01*
Y-219453D01*
Y-218999D01*
Y-218546D01*
Y-218092D01*
Y-217639D01*
Y-217185D01*
Y-216732D01*
Y-216278D01*
Y-215825D01*
Y-215371D01*
Y-214917D01*
Y-214464D01*
Y-214010D01*
Y-213557D01*
Y-213103D01*
Y-212650D01*
Y-212196D01*
Y-211742D01*
Y-211289D01*
Y-210835D01*
Y-210382D01*
Y-209928D01*
Y-209475D01*
Y-209021D01*
Y-208568D01*
Y-208114D01*
Y-207661D01*
Y-207207D01*
Y-206753D01*
Y-206300D01*
Y-205846D01*
Y-205393D01*
Y-204939D01*
Y-204486D01*
Y-204032D01*
Y-203578D01*
Y-203125D01*
Y-202671D01*
Y-202218D01*
Y-201764D01*
Y-201311D01*
Y-200857D01*
Y-200404D01*
Y-199950D01*
Y-199496D01*
Y-199043D01*
Y-198589D01*
Y-198136D01*
Y-197682D01*
Y-197229D01*
Y-196775D01*
Y-196322D01*
Y-195868D01*
Y-195414D01*
Y-194961D01*
Y-194507D01*
Y-194054D01*
X887064D01*
Y-194507D01*
Y-194961D01*
Y-195414D01*
Y-195868D01*
Y-196322D01*
Y-196775D01*
Y-197229D01*
Y-197682D01*
Y-198136D01*
Y-198589D01*
Y-199043D01*
Y-199496D01*
Y-199950D01*
Y-200404D01*
Y-200857D01*
Y-201311D01*
Y-201764D01*
Y-202218D01*
Y-202671D01*
Y-203125D01*
Y-203578D01*
Y-204032D01*
Y-204486D01*
Y-204939D01*
Y-205393D01*
Y-205846D01*
Y-206300D01*
Y-206753D01*
Y-207207D01*
Y-207661D01*
Y-208114D01*
Y-208568D01*
Y-209021D01*
Y-209475D01*
Y-209928D01*
Y-210382D01*
Y-210835D01*
Y-211289D01*
Y-211742D01*
Y-212196D01*
Y-212650D01*
Y-213103D01*
Y-213557D01*
Y-214010D01*
Y-214464D01*
Y-214917D01*
Y-215371D01*
Y-215825D01*
Y-216278D01*
Y-216732D01*
Y-217185D01*
Y-217639D01*
Y-218092D01*
Y-218546D01*
Y-218999D01*
Y-219453D01*
Y-219907D01*
Y-220360D01*
Y-220814D01*
Y-221267D01*
Y-221721D01*
Y-222174D01*
Y-222628D01*
Y-223081D01*
Y-223535D01*
Y-223988D01*
Y-224442D01*
Y-224896D01*
Y-225349D01*
Y-225803D01*
Y-226256D01*
Y-226710D01*
Y-227163D01*
X887518D01*
Y-227617D01*
Y-228071D01*
Y-228524D01*
Y-228978D01*
X887971D01*
Y-229431D01*
Y-229885D01*
Y-230338D01*
X888425D01*
Y-230792D01*
Y-231245D01*
Y-231699D01*
X888878D01*
Y-232153D01*
Y-232606D01*
X889332D01*
Y-233060D01*
X889786D01*
Y-233513D01*
Y-233967D01*
X890239D01*
Y-234420D01*
X890693D01*
Y-234874D01*
X891146D01*
Y-235327D01*
X891600D01*
Y-235781D01*
X892053D01*
Y-236234D01*
X892507D01*
Y-236688D01*
X893414D01*
Y-237142D01*
X893868D01*
Y-237595D01*
X894775D01*
Y-238049D01*
X895682D01*
Y-238502D01*
X896589D01*
Y-238956D01*
X897950D01*
Y-239409D01*
X899764D01*
Y-239863D01*
X908835D01*
Y-239409D01*
X910649D01*
Y-238956D01*
X911556D01*
Y-238502D01*
X912917D01*
Y-238049D01*
X913371D01*
Y-237595D01*
X914278D01*
Y-237142D01*
X914731D01*
Y-236688D01*
X915185D01*
Y-236234D01*
X916092D01*
Y-235781D01*
X916545D01*
Y-235327D01*
X916999D01*
Y-234874D01*
Y-234420D01*
X917452D01*
Y-234874D01*
Y-235327D01*
Y-235781D01*
Y-236234D01*
Y-236688D01*
Y-237142D01*
Y-237595D01*
Y-238049D01*
Y-238502D01*
Y-238956D01*
X922442D01*
Y-239409D01*
X921988D01*
Y-239863D01*
X921535D01*
Y-240317D01*
X921081D01*
Y-240770D01*
X920627D01*
Y-241224D01*
X920174D01*
Y-241677D01*
X919720D01*
Y-242131D01*
X919267D01*
Y-242584D01*
X918813D01*
Y-243038D01*
X917906D01*
Y-243491D01*
X917452D01*
Y-243945D01*
X916999D01*
Y-244398D01*
X916545D01*
Y-244852D01*
X915638D01*
Y-245306D01*
X915185D01*
Y-245759D01*
X914731D01*
Y-246213D01*
X913824D01*
Y-246666D01*
X913371D01*
Y-247120D01*
X912463D01*
Y-247573D01*
X912010D01*
Y-248027D01*
X911103D01*
Y-248480D01*
X910649D01*
Y-248934D01*
X909742D01*
Y-249388D01*
X908835D01*
Y-249841D01*
X907928D01*
Y-250295D01*
X907474D01*
Y-250748D01*
X906567D01*
Y-251202D01*
X905206D01*
Y-251655D01*
X904299D01*
Y-252109D01*
X903392D01*
Y-252563D01*
X902032D01*
Y-253016D01*
X901124D01*
Y-253470D01*
X899764D01*
Y-253923D01*
X897950D01*
Y-254377D01*
X896589D01*
Y-254830D01*
X894775D01*
Y-255284D01*
X892053D01*
Y-255737D01*
X888878D01*
Y-256191D01*
X877086D01*
Y-255737D01*
X873911D01*
Y-255284D01*
X871643D01*
Y-254830D01*
X869829D01*
Y-254377D01*
X868015D01*
Y-253923D01*
X866654D01*
Y-253470D01*
X865294D01*
Y-253016D01*
X863933D01*
Y-252563D01*
X863026D01*
Y-252109D01*
X861665D01*
Y-251655D01*
X860758D01*
Y-251202D01*
X859851D01*
Y-250748D01*
X858944D01*
Y-250295D01*
X858037D01*
Y-249841D01*
X857130D01*
Y-249388D01*
X856222D01*
Y-248934D01*
X855769D01*
Y-248480D01*
X854862D01*
Y-248027D01*
X853955D01*
Y-247573D01*
X853501D01*
Y-247120D01*
X852594D01*
Y-246666D01*
X852140D01*
Y-246213D01*
X851687D01*
Y-245759D01*
X850780D01*
Y-245306D01*
X850326D01*
Y-244852D01*
X849873D01*
Y-244398D01*
X848966D01*
Y-243945D01*
X848512D01*
Y-243491D01*
X848058D01*
Y-243038D01*
X847605D01*
Y-242584D01*
X847151D01*
Y-242131D01*
X846698D01*
Y-241677D01*
X846244D01*
Y-241224D01*
X845791D01*
Y-240770D01*
X845337D01*
Y-240317D01*
X844883D01*
Y-239863D01*
X844430D01*
Y-239409D01*
X843976D01*
Y-238956D01*
X843523D01*
Y-238502D01*
X843069D01*
Y-238049D01*
X842616D01*
Y-237595D01*
X842162D01*
Y-237142D01*
X841709D01*
Y-236688D01*
Y-236234D01*
X841255D01*
Y-235781D01*
X840801D01*
Y-235327D01*
X840348D01*
Y-234874D01*
X839894D01*
Y-234420D01*
Y-233967D01*
X839441D01*
Y-233513D01*
X838987D01*
Y-233060D01*
Y-232606D01*
X838534D01*
Y-232153D01*
X838080D01*
Y-231699D01*
Y-231245D01*
X837627D01*
Y-230792D01*
X837173D01*
Y-230338D01*
Y-229885D01*
X836720D01*
Y-229431D01*
Y-228978D01*
X836266D01*
Y-228524D01*
Y-228071D01*
X835812D01*
Y-227617D01*
Y-227163D01*
X835359D01*
Y-226710D01*
Y-226256D01*
X834905D01*
Y-225803D01*
Y-225349D01*
X834452D01*
Y-224896D01*
Y-224442D01*
X833998D01*
Y-223988D01*
Y-223535D01*
X833545D01*
Y-223081D01*
Y-222628D01*
Y-222174D01*
X833091D01*
Y-221721D01*
Y-221267D01*
Y-220814D01*
X832637D01*
Y-220360D01*
Y-219907D01*
X832184D01*
Y-219453D01*
Y-218999D01*
Y-218546D01*
Y-218092D01*
X831730D01*
Y-217639D01*
Y-217185D01*
Y-216732D01*
X831277D01*
Y-216278D01*
Y-215825D01*
Y-215371D01*
Y-214917D01*
X830823D01*
Y-214464D01*
Y-214010D01*
Y-213557D01*
Y-213103D01*
Y-212650D01*
X830370D01*
Y-212196D01*
Y-211742D01*
Y-211289D01*
Y-210835D01*
Y-210382D01*
Y-209928D01*
Y-209475D01*
X829916D01*
Y-209021D01*
Y-208568D01*
Y-208114D01*
Y-207661D01*
Y-207207D01*
Y-206753D01*
Y-206300D01*
Y-205846D01*
Y-205393D01*
Y-204939D01*
X829463D01*
Y-204486D01*
Y-204032D01*
Y-203578D01*
Y-203125D01*
Y-202671D01*
Y-202218D01*
Y-201764D01*
Y-201311D01*
Y-200857D01*
X829916D01*
Y-200404D01*
Y-199950D01*
Y-199496D01*
Y-199043D01*
Y-198589D01*
Y-198136D01*
Y-197682D01*
Y-197229D01*
Y-196775D01*
X830370D01*
Y-196322D01*
Y-195868D01*
Y-195414D01*
Y-194961D01*
Y-194507D01*
Y-194054D01*
Y-193600D01*
X830823D01*
Y-193147D01*
Y-192693D01*
Y-192240D01*
Y-191786D01*
Y-191332D01*
X831277D01*
Y-190879D01*
Y-190425D01*
Y-189972D01*
Y-189518D01*
X831730D01*
Y-189065D01*
Y-188611D01*
Y-188158D01*
Y-187704D01*
X832184D01*
Y-187250D01*
Y-186797D01*
Y-186343D01*
X832637D01*
Y-185890D01*
Y-185436D01*
Y-184983D01*
X833091D01*
Y-184529D01*
Y-184076D01*
X833545D01*
Y-183622D01*
Y-183168D01*
Y-182715D01*
X833998D01*
Y-182261D01*
Y-181808D01*
X834452D01*
Y-181354D01*
Y-180901D01*
Y-180447D01*
X834905D01*
Y-179993D01*
Y-179540D01*
X835359D01*
Y-179086D01*
Y-178633D01*
X835812D01*
Y-178179D01*
Y-177726D01*
X836266D01*
Y-177272D01*
X836720D01*
Y-176819D01*
Y-176365D01*
X837173D01*
Y-175912D01*
Y-175458D01*
X837627D01*
Y-175004D01*
X838080D01*
Y-174551D01*
Y-174097D01*
X838534D01*
Y-173644D01*
X838987D01*
Y-173190D01*
Y-172737D01*
X839441D01*
Y-172283D01*
X839894D01*
Y-171830D01*
Y-171376D01*
X840348D01*
Y-170922D01*
X840801D01*
Y-170469D01*
X841255D01*
Y-170015D01*
Y-169562D01*
X841709D01*
Y-169108D01*
X842162D01*
Y-168655D01*
X842616D01*
Y-168201D01*
X843069D01*
Y-167747D01*
X843523D01*
Y-167294D01*
X843976D01*
Y-166840D01*
X844430D01*
Y-166387D01*
Y-165933D01*
X844883D01*
Y-165480D01*
X845337D01*
Y-165026D01*
X845791D01*
Y-164573D01*
X846698D01*
Y-164119D01*
X847151D01*
Y-163666D01*
X847605D01*
Y-163212D01*
X848058D01*
Y-162758D01*
X848512D01*
Y-162305D01*
X848966D01*
Y-161851D01*
X849419D01*
Y-161398D01*
X850326D01*
Y-160944D01*
X850780D01*
Y-160491D01*
X851233D01*
Y-160037D01*
X852140D01*
Y-159584D01*
X852594D01*
Y-159130D01*
X853501D01*
Y-158676D01*
X853955D01*
Y-158223D01*
X854862D01*
Y-157769D01*
X855315D01*
Y-157316D01*
X856222D01*
Y-156862D01*
X857130D01*
Y-156409D01*
X857583D01*
Y-155955D01*
X858944D01*
Y-155501D01*
X859851D01*
Y-155048D01*
X860758D01*
Y-154594D01*
X861665D01*
Y-154141D01*
X862572D01*
Y-153687D01*
X863933D01*
Y-153234D01*
X864840D01*
Y-152780D01*
X866201D01*
Y-152327D01*
X867561D01*
Y-151873D01*
X869376D01*
Y-151419D01*
X871190D01*
Y-150966D01*
X873457D01*
Y-150512D01*
X876632D01*
Y-150059D01*
X881168D01*
Y-149605D01*
X885250D01*
Y-150059D01*
D02*
G37*
G36*
X955551Y-177272D02*
Y-177726D01*
Y-178179D01*
Y-178633D01*
Y-179086D01*
Y-179540D01*
Y-179993D01*
Y-180447D01*
Y-180901D01*
Y-181354D01*
Y-181808D01*
Y-182261D01*
Y-182715D01*
Y-183168D01*
Y-183622D01*
Y-184076D01*
Y-184529D01*
Y-184983D01*
Y-185436D01*
Y-185890D01*
Y-186343D01*
Y-186797D01*
Y-187250D01*
Y-187704D01*
Y-188158D01*
Y-188611D01*
Y-189065D01*
Y-189518D01*
Y-189972D01*
Y-190425D01*
Y-190879D01*
Y-191332D01*
Y-191786D01*
Y-192240D01*
Y-192693D01*
Y-193147D01*
Y-193600D01*
Y-194054D01*
Y-194507D01*
Y-194961D01*
Y-195414D01*
Y-195868D01*
Y-196322D01*
Y-196775D01*
Y-197229D01*
Y-197682D01*
Y-198136D01*
Y-198589D01*
Y-199043D01*
Y-199496D01*
X956458D01*
Y-199043D01*
X956912D01*
Y-198589D01*
X957365D01*
Y-198136D01*
X957819D01*
Y-197682D01*
X958272D01*
Y-197229D01*
X958726D01*
Y-196775D01*
X959180D01*
Y-196322D01*
X960087D01*
Y-195868D01*
X960540D01*
Y-195414D01*
X961447D01*
Y-194961D01*
X962355D01*
Y-194507D01*
X963715D01*
Y-194054D01*
X965529D01*
Y-193600D01*
X974147D01*
Y-194054D01*
X975961D01*
Y-194507D01*
X977322D01*
Y-194961D01*
X978682D01*
Y-195414D01*
X979590D01*
Y-195868D01*
X980043D01*
Y-196322D01*
X980950D01*
Y-196775D01*
X981404D01*
Y-197229D01*
X982311D01*
Y-197682D01*
X982765D01*
Y-198136D01*
X983218D01*
Y-198589D01*
X983672D01*
Y-199043D01*
X984125D01*
Y-199496D01*
X984579D01*
Y-199950D01*
Y-200404D01*
X985032D01*
Y-200857D01*
X985486D01*
Y-201311D01*
X985939D01*
Y-201764D01*
Y-202218D01*
X986393D01*
Y-202671D01*
Y-203125D01*
X986846D01*
Y-203578D01*
Y-204032D01*
X987300D01*
Y-204486D01*
Y-204939D01*
X987754D01*
Y-205393D01*
Y-205846D01*
Y-206300D01*
X988207D01*
Y-206753D01*
Y-207207D01*
Y-207661D01*
Y-208114D01*
X988661D01*
Y-208568D01*
Y-209021D01*
Y-209475D01*
Y-209928D01*
Y-210382D01*
X989114D01*
Y-210835D01*
Y-211289D01*
Y-211742D01*
Y-212196D01*
Y-212650D01*
Y-213103D01*
Y-213557D01*
Y-214010D01*
Y-214464D01*
X989568D01*
Y-214917D01*
X989114D01*
Y-215371D01*
Y-215825D01*
Y-216278D01*
Y-216732D01*
Y-217185D01*
Y-217639D01*
Y-218092D01*
Y-218546D01*
Y-218999D01*
Y-219453D01*
Y-219907D01*
Y-220360D01*
Y-220814D01*
Y-221267D01*
Y-221721D01*
Y-222174D01*
Y-222628D01*
X988661D01*
Y-223081D01*
Y-223535D01*
Y-223988D01*
Y-224442D01*
Y-224896D01*
X988207D01*
Y-225349D01*
Y-225803D01*
Y-226256D01*
X987754D01*
Y-226710D01*
Y-227163D01*
Y-227617D01*
X987300D01*
Y-228071D01*
Y-228524D01*
Y-228978D01*
X986846D01*
Y-229431D01*
Y-229885D01*
X986393D01*
Y-230338D01*
Y-230792D01*
X985939D01*
Y-231245D01*
X985486D01*
Y-231699D01*
Y-232153D01*
X985032D01*
Y-232606D01*
X984579D01*
Y-233060D01*
X984125D01*
Y-233513D01*
X983672D01*
Y-233967D01*
Y-234420D01*
X982765D01*
Y-234874D01*
X982311D01*
Y-235327D01*
X981857D01*
Y-235781D01*
X981404D01*
Y-236234D01*
X980497D01*
Y-236688D01*
X980043D01*
Y-237142D01*
X979136D01*
Y-237595D01*
X978229D01*
Y-238049D01*
X977322D01*
Y-238502D01*
X975961D01*
Y-238956D01*
X973693D01*
Y-239409D01*
X965983D01*
Y-238956D01*
X963715D01*
Y-238502D01*
X962808D01*
Y-238049D01*
X961447D01*
Y-237595D01*
X960994D01*
Y-237142D01*
X960087D01*
Y-236688D01*
X959633D01*
Y-236234D01*
X958726D01*
Y-235781D01*
X958272D01*
Y-235327D01*
X957819D01*
Y-234874D01*
X957365D01*
Y-234420D01*
X956912D01*
Y-233967D01*
X956458D01*
Y-233513D01*
X956005D01*
Y-233060D01*
Y-232606D01*
X955098D01*
Y-233060D01*
Y-233513D01*
Y-233967D01*
Y-234420D01*
Y-234874D01*
Y-235327D01*
Y-235781D01*
Y-236234D01*
Y-236688D01*
Y-237142D01*
Y-237595D01*
Y-238049D01*
Y-238502D01*
X943759D01*
Y-238049D01*
Y-237595D01*
Y-237142D01*
Y-236688D01*
Y-236234D01*
Y-235781D01*
Y-235327D01*
Y-234874D01*
Y-234420D01*
Y-233967D01*
Y-233513D01*
Y-233060D01*
Y-232606D01*
Y-232153D01*
Y-231699D01*
Y-231245D01*
Y-230792D01*
Y-230338D01*
Y-229885D01*
Y-229431D01*
Y-228978D01*
Y-228524D01*
Y-228071D01*
Y-227617D01*
Y-227163D01*
Y-226710D01*
Y-226256D01*
Y-225803D01*
Y-225349D01*
Y-224896D01*
Y-224442D01*
Y-223988D01*
Y-223535D01*
Y-223081D01*
Y-222628D01*
Y-222174D01*
Y-221721D01*
Y-221267D01*
Y-220814D01*
Y-220360D01*
Y-219907D01*
Y-219453D01*
Y-218999D01*
Y-218546D01*
Y-218092D01*
Y-217639D01*
Y-217185D01*
Y-216732D01*
Y-216278D01*
Y-215825D01*
Y-215371D01*
Y-214917D01*
Y-214464D01*
Y-214010D01*
Y-213557D01*
Y-213103D01*
Y-212650D01*
Y-212196D01*
Y-211742D01*
Y-211289D01*
Y-210835D01*
Y-210382D01*
Y-209928D01*
Y-209475D01*
Y-209021D01*
Y-208568D01*
Y-208114D01*
Y-207661D01*
Y-207207D01*
Y-206753D01*
Y-206300D01*
Y-205846D01*
Y-205393D01*
Y-204939D01*
Y-204486D01*
Y-204032D01*
Y-203578D01*
Y-203125D01*
Y-202671D01*
Y-202218D01*
Y-201764D01*
Y-201311D01*
Y-200857D01*
Y-200404D01*
Y-199950D01*
Y-199496D01*
Y-199043D01*
Y-198589D01*
Y-198136D01*
Y-197682D01*
Y-197229D01*
Y-196775D01*
Y-196322D01*
Y-195868D01*
Y-195414D01*
Y-194961D01*
Y-194507D01*
Y-194054D01*
Y-193600D01*
Y-193147D01*
Y-192693D01*
Y-192240D01*
Y-191786D01*
Y-191332D01*
Y-190879D01*
Y-190425D01*
Y-189972D01*
Y-189518D01*
Y-189065D01*
Y-188611D01*
Y-188158D01*
Y-187704D01*
Y-187250D01*
Y-186797D01*
Y-186343D01*
Y-185890D01*
Y-185436D01*
Y-184983D01*
Y-184529D01*
Y-184076D01*
Y-183622D01*
Y-183168D01*
Y-182715D01*
Y-182261D01*
Y-181808D01*
Y-181354D01*
Y-180901D01*
Y-180447D01*
Y-179993D01*
Y-179540D01*
Y-179086D01*
Y-178633D01*
Y-178179D01*
Y-177726D01*
Y-177272D01*
Y-176819D01*
X955551D01*
Y-177272D01*
D02*
G37*
G36*
X1009071D02*
Y-177726D01*
Y-178179D01*
Y-178633D01*
Y-179086D01*
Y-179540D01*
Y-179993D01*
Y-180447D01*
Y-180901D01*
Y-181354D01*
Y-181808D01*
Y-182261D01*
Y-182715D01*
Y-183168D01*
Y-183622D01*
Y-184076D01*
Y-184529D01*
Y-184983D01*
Y-185436D01*
Y-185890D01*
Y-186343D01*
Y-186797D01*
Y-187250D01*
Y-187704D01*
Y-188158D01*
Y-188611D01*
Y-189065D01*
Y-189518D01*
Y-189972D01*
Y-190425D01*
Y-190879D01*
Y-191332D01*
Y-191786D01*
Y-192240D01*
Y-192693D01*
Y-193147D01*
Y-193600D01*
Y-194054D01*
Y-194507D01*
Y-194961D01*
Y-195414D01*
Y-195868D01*
Y-196322D01*
Y-196775D01*
Y-197229D01*
Y-197682D01*
Y-198136D01*
Y-198589D01*
Y-199043D01*
Y-199496D01*
Y-199950D01*
Y-200404D01*
Y-200857D01*
Y-201311D01*
Y-201764D01*
Y-202218D01*
Y-202671D01*
Y-203125D01*
Y-203578D01*
Y-204032D01*
Y-204486D01*
Y-204939D01*
Y-205393D01*
Y-205846D01*
Y-206300D01*
Y-206753D01*
Y-207207D01*
Y-207661D01*
Y-208114D01*
Y-208568D01*
Y-209021D01*
Y-209475D01*
Y-209928D01*
Y-210382D01*
Y-210835D01*
Y-211289D01*
Y-211742D01*
Y-212196D01*
Y-212650D01*
Y-213103D01*
Y-213557D01*
Y-214010D01*
Y-214464D01*
Y-214917D01*
Y-215371D01*
Y-215825D01*
Y-216278D01*
Y-216732D01*
Y-217185D01*
Y-217639D01*
Y-218092D01*
Y-218546D01*
Y-218999D01*
Y-219453D01*
Y-219907D01*
Y-220360D01*
Y-220814D01*
Y-221267D01*
Y-221721D01*
Y-222174D01*
Y-222628D01*
Y-223081D01*
Y-223535D01*
Y-223988D01*
Y-224442D01*
Y-224896D01*
Y-225349D01*
Y-225803D01*
Y-226256D01*
Y-226710D01*
Y-227163D01*
Y-227617D01*
Y-228071D01*
Y-228524D01*
Y-228978D01*
Y-229431D01*
Y-229885D01*
Y-230338D01*
Y-230792D01*
Y-231245D01*
Y-231699D01*
Y-232153D01*
Y-232606D01*
Y-233060D01*
Y-233513D01*
Y-233967D01*
Y-234420D01*
Y-234874D01*
Y-235327D01*
Y-235781D01*
Y-236234D01*
Y-236688D01*
Y-237142D01*
Y-237595D01*
Y-238049D01*
Y-238502D01*
X997732D01*
Y-238049D01*
Y-237595D01*
Y-237142D01*
Y-236688D01*
Y-236234D01*
Y-235781D01*
Y-235327D01*
Y-234874D01*
Y-234420D01*
Y-233967D01*
Y-233513D01*
Y-233060D01*
Y-232606D01*
Y-232153D01*
Y-231699D01*
Y-231245D01*
Y-230792D01*
Y-230338D01*
Y-229885D01*
Y-229431D01*
Y-228978D01*
Y-228524D01*
Y-228071D01*
Y-227617D01*
Y-227163D01*
Y-226710D01*
Y-226256D01*
Y-225803D01*
Y-225349D01*
Y-224896D01*
Y-224442D01*
Y-223988D01*
Y-223535D01*
Y-223081D01*
Y-222628D01*
Y-222174D01*
Y-221721D01*
Y-221267D01*
Y-220814D01*
Y-220360D01*
Y-219907D01*
Y-219453D01*
Y-218999D01*
Y-218546D01*
Y-218092D01*
Y-217639D01*
Y-217185D01*
Y-216732D01*
Y-216278D01*
Y-215825D01*
Y-215371D01*
Y-214917D01*
Y-214464D01*
Y-214010D01*
Y-213557D01*
Y-213103D01*
Y-212650D01*
Y-212196D01*
Y-211742D01*
Y-211289D01*
Y-210835D01*
Y-210382D01*
Y-209928D01*
Y-209475D01*
Y-209021D01*
Y-208568D01*
Y-208114D01*
Y-207661D01*
Y-207207D01*
Y-206753D01*
Y-206300D01*
Y-205846D01*
Y-205393D01*
Y-204939D01*
Y-204486D01*
Y-204032D01*
Y-203578D01*
Y-203125D01*
Y-202671D01*
Y-202218D01*
Y-201764D01*
Y-201311D01*
Y-200857D01*
Y-200404D01*
Y-199950D01*
Y-199496D01*
Y-199043D01*
Y-198589D01*
Y-198136D01*
Y-197682D01*
Y-197229D01*
Y-196775D01*
Y-196322D01*
Y-195868D01*
Y-195414D01*
Y-194961D01*
Y-194507D01*
Y-194054D01*
Y-193600D01*
Y-193147D01*
Y-192693D01*
Y-192240D01*
Y-191786D01*
Y-191332D01*
Y-190879D01*
Y-190425D01*
Y-189972D01*
Y-189518D01*
Y-189065D01*
Y-188611D01*
Y-188158D01*
Y-187704D01*
Y-187250D01*
Y-186797D01*
Y-186343D01*
Y-185890D01*
Y-185436D01*
Y-184983D01*
Y-184529D01*
Y-184076D01*
Y-183622D01*
Y-183168D01*
Y-182715D01*
Y-182261D01*
Y-181808D01*
Y-181354D01*
Y-180901D01*
Y-180447D01*
Y-179993D01*
Y-179540D01*
Y-179086D01*
Y-178633D01*
Y-178179D01*
Y-177726D01*
Y-177272D01*
Y-176819D01*
X1009071D01*
Y-177272D01*
D02*
G37*
G36*
X1045355Y-194054D02*
X1047623D01*
Y-194507D01*
X1048984D01*
Y-194961D01*
X1050344D01*
Y-195414D01*
X1051252D01*
Y-195868D01*
X1052159D01*
Y-196322D01*
X1053066D01*
Y-196775D01*
X1053973D01*
Y-197229D01*
X1054426D01*
Y-197682D01*
X1055333D01*
Y-198136D01*
X1055787D01*
Y-198589D01*
X1056241D01*
Y-199043D01*
X1056694D01*
Y-199496D01*
X1057148D01*
Y-199950D01*
X1057601D01*
Y-200404D01*
X1058055D01*
Y-200857D01*
X1058508D01*
Y-201311D01*
X1058962D01*
Y-201764D01*
Y-202218D01*
X1059416D01*
Y-202671D01*
X1059869D01*
Y-203125D01*
Y-203578D01*
X1060323D01*
Y-204032D01*
Y-204486D01*
X1060776D01*
Y-204939D01*
Y-205393D01*
X1061230D01*
Y-205846D01*
Y-206300D01*
X1061683D01*
Y-206753D01*
Y-207207D01*
Y-207661D01*
X1062137D01*
Y-208114D01*
Y-208568D01*
Y-209021D01*
Y-209475D01*
Y-209928D01*
X1062590D01*
Y-210382D01*
Y-210835D01*
Y-211289D01*
Y-211742D01*
Y-212196D01*
Y-212650D01*
Y-213103D01*
X1063044D01*
Y-213557D01*
Y-214010D01*
Y-214464D01*
Y-214917D01*
Y-215371D01*
Y-215825D01*
Y-216278D01*
Y-216732D01*
Y-217185D01*
Y-217639D01*
Y-218092D01*
Y-218546D01*
Y-218999D01*
Y-219453D01*
Y-219907D01*
X1062590D01*
Y-220360D01*
Y-220814D01*
Y-221267D01*
Y-221721D01*
Y-222174D01*
Y-222628D01*
Y-223081D01*
X1062137D01*
Y-223535D01*
Y-223988D01*
Y-224442D01*
Y-224896D01*
X1061683D01*
Y-225349D01*
Y-225803D01*
Y-226256D01*
X1061230D01*
Y-226710D01*
Y-227163D01*
Y-227617D01*
X1060776D01*
Y-228071D01*
Y-228524D01*
X1060323D01*
Y-228978D01*
Y-229431D01*
X1059869D01*
Y-229885D01*
Y-230338D01*
X1059416D01*
Y-230792D01*
X1058962D01*
Y-231245D01*
X1058508D01*
Y-231699D01*
Y-232153D01*
X1058055D01*
Y-232606D01*
X1057601D01*
Y-233060D01*
X1057148D01*
Y-233513D01*
X1056694D01*
Y-233967D01*
X1056241D01*
Y-234420D01*
X1055787D01*
Y-234874D01*
X1054880D01*
Y-235327D01*
X1054426D01*
Y-235781D01*
X1053519D01*
Y-236234D01*
X1053066D01*
Y-236688D01*
X1052159D01*
Y-237142D01*
X1051252D01*
Y-237595D01*
X1049891D01*
Y-238049D01*
X1048530D01*
Y-238502D01*
X1047169D01*
Y-238956D01*
X1044902D01*
Y-239409D01*
X1035377D01*
Y-238956D01*
X1032656D01*
Y-238502D01*
X1030841D01*
Y-238049D01*
X1029934D01*
Y-237595D01*
X1028574D01*
Y-237142D01*
X1027667D01*
Y-236688D01*
X1026759D01*
Y-236234D01*
X1026306D01*
Y-235781D01*
X1025399D01*
Y-235327D01*
X1024945D01*
Y-234874D01*
X1024038D01*
Y-234420D01*
X1023585D01*
Y-233967D01*
X1023131D01*
Y-233513D01*
X1022678D01*
Y-233060D01*
X1022224D01*
Y-232606D01*
X1021770D01*
Y-232153D01*
X1021317D01*
Y-231699D01*
Y-231245D01*
X1020863D01*
Y-230792D01*
X1020410D01*
Y-230338D01*
X1019956D01*
Y-229885D01*
Y-229431D01*
X1019503D01*
Y-228978D01*
Y-228524D01*
X1019049D01*
Y-228071D01*
Y-227617D01*
X1018595D01*
Y-227163D01*
Y-226710D01*
Y-226256D01*
X1018142D01*
Y-225803D01*
Y-225349D01*
Y-224896D01*
X1017688D01*
Y-224442D01*
Y-223988D01*
Y-223535D01*
Y-223081D01*
X1017235D01*
Y-222628D01*
Y-222174D01*
Y-221721D01*
Y-221267D01*
Y-220814D01*
Y-220360D01*
Y-219907D01*
Y-219453D01*
X1016781D01*
Y-218999D01*
Y-218546D01*
Y-218092D01*
Y-217639D01*
Y-217185D01*
Y-216732D01*
Y-216278D01*
Y-215825D01*
Y-215371D01*
Y-214917D01*
Y-214464D01*
Y-214010D01*
Y-213557D01*
X1017235D01*
Y-213103D01*
Y-212650D01*
Y-212196D01*
Y-211742D01*
Y-211289D01*
Y-210835D01*
Y-210382D01*
Y-209928D01*
X1017688D01*
Y-209475D01*
Y-209021D01*
Y-208568D01*
Y-208114D01*
X1018142D01*
Y-207661D01*
Y-207207D01*
Y-206753D01*
X1018595D01*
Y-206300D01*
Y-205846D01*
Y-205393D01*
X1019049D01*
Y-204939D01*
Y-204486D01*
X1019503D01*
Y-204032D01*
Y-203578D01*
X1019956D01*
Y-203125D01*
Y-202671D01*
X1020410D01*
Y-202218D01*
X1020863D01*
Y-201764D01*
Y-201311D01*
X1021317D01*
Y-200857D01*
X1021770D01*
Y-200404D01*
X1022224D01*
Y-199950D01*
X1022678D01*
Y-199496D01*
X1023131D01*
Y-199043D01*
X1023585D01*
Y-198589D01*
X1024038D01*
Y-198136D01*
X1024492D01*
Y-197682D01*
X1025399D01*
Y-197229D01*
X1025852D01*
Y-196775D01*
X1026759D01*
Y-196322D01*
X1027667D01*
Y-195868D01*
X1028574D01*
Y-195414D01*
X1029481D01*
Y-194961D01*
X1030841D01*
Y-194507D01*
X1032202D01*
Y-194054D01*
X1034470D01*
Y-193600D01*
X1045355D01*
Y-194054D01*
D02*
G37*
G36*
X1111121Y-194961D02*
X1110667D01*
Y-195414D01*
Y-195868D01*
X1110214D01*
Y-196322D01*
X1109760D01*
Y-196775D01*
X1109307D01*
Y-197229D01*
Y-197682D01*
X1108853D01*
Y-198136D01*
X1108400D01*
Y-198589D01*
Y-199043D01*
X1107946D01*
Y-199496D01*
X1107492D01*
Y-199950D01*
X1107039D01*
Y-200404D01*
Y-200857D01*
X1106585D01*
Y-201311D01*
X1106132D01*
Y-201764D01*
X1105678D01*
Y-202218D01*
Y-202671D01*
X1105225D01*
Y-203125D01*
X1104771D01*
Y-203578D01*
X1104317D01*
Y-204032D01*
Y-204486D01*
X1103864D01*
Y-204939D01*
X1103410D01*
Y-205393D01*
Y-205846D01*
X1102957D01*
Y-206300D01*
X1102503D01*
Y-206753D01*
X1102050D01*
Y-207207D01*
Y-207661D01*
X1101596D01*
Y-208114D01*
X1101143D01*
Y-208568D01*
X1100689D01*
Y-209021D01*
Y-209475D01*
X1100236D01*
Y-209928D01*
X1099782D01*
Y-210382D01*
Y-210835D01*
X1099328D01*
Y-211289D01*
X1098875D01*
Y-211742D01*
X1098421D01*
Y-212196D01*
Y-212650D01*
X1097968D01*
Y-213103D01*
X1097514D01*
Y-213557D01*
X1097061D01*
Y-214010D01*
Y-214464D01*
X1096607D01*
Y-214917D01*
X1096153D01*
Y-215371D01*
X1095700D01*
Y-215825D01*
Y-216278D01*
Y-216732D01*
X1096153D01*
Y-217185D01*
Y-217639D01*
X1096607D01*
Y-218092D01*
X1097061D01*
Y-218546D01*
X1097514D01*
Y-218999D01*
Y-219453D01*
X1097968D01*
Y-219907D01*
X1098421D01*
Y-220360D01*
X1098875D01*
Y-220814D01*
Y-221267D01*
X1099328D01*
Y-221721D01*
X1099782D01*
Y-222174D01*
Y-222628D01*
X1100236D01*
Y-223081D01*
X1100689D01*
Y-223535D01*
X1101143D01*
Y-223988D01*
Y-224442D01*
X1101596D01*
Y-224896D01*
X1102050D01*
Y-225349D01*
X1102503D01*
Y-225803D01*
Y-226256D01*
X1102957D01*
Y-226710D01*
X1103410D01*
Y-227163D01*
X1103864D01*
Y-227617D01*
Y-228071D01*
X1104317D01*
Y-228524D01*
X1104771D01*
Y-228978D01*
X1105225D01*
Y-229431D01*
Y-229885D01*
X1105678D01*
Y-230338D01*
X1106132D01*
Y-230792D01*
X1106585D01*
Y-231245D01*
Y-231699D01*
X1107039D01*
Y-232153D01*
X1107492D01*
Y-232606D01*
X1107946D01*
Y-233060D01*
Y-233513D01*
X1108400D01*
Y-233967D01*
X1108853D01*
Y-234420D01*
Y-234874D01*
X1109307D01*
Y-235327D01*
X1109760D01*
Y-235781D01*
X1110214D01*
Y-236234D01*
Y-236688D01*
X1110667D01*
Y-237142D01*
X1111121D01*
Y-237595D01*
X1111574D01*
Y-238049D01*
X1112028D01*
Y-238502D01*
X1097514D01*
Y-238049D01*
Y-237595D01*
X1097061D01*
Y-237142D01*
X1096607D01*
Y-236688D01*
X1096153D01*
Y-236234D01*
Y-235781D01*
X1095700D01*
Y-235327D01*
X1095246D01*
Y-234874D01*
X1094793D01*
Y-234420D01*
Y-233967D01*
X1094339D01*
Y-233513D01*
X1093886D01*
Y-233060D01*
Y-232606D01*
X1093432D01*
Y-232153D01*
X1092979D01*
Y-231699D01*
X1092525D01*
Y-231245D01*
Y-230792D01*
X1092072D01*
Y-230338D01*
X1091618D01*
Y-229885D01*
X1091164D01*
Y-229431D01*
Y-228978D01*
X1090711D01*
Y-228524D01*
X1090257D01*
Y-228071D01*
Y-227617D01*
X1089804D01*
Y-227163D01*
X1089350D01*
Y-226710D01*
X1088897D01*
Y-226256D01*
Y-225803D01*
X1088443D01*
Y-225349D01*
X1087990D01*
Y-224896D01*
X1087536D01*
Y-224442D01*
X1087082D01*
Y-224896D01*
Y-225349D01*
X1086629D01*
Y-225803D01*
X1086175D01*
Y-226256D01*
X1085722D01*
Y-226710D01*
Y-227163D01*
X1085268D01*
Y-227617D01*
X1084815D01*
Y-228071D01*
Y-228524D01*
X1084361D01*
Y-228978D01*
X1083907D01*
Y-229431D01*
X1083454D01*
Y-229885D01*
Y-230338D01*
X1083000D01*
Y-230792D01*
X1082547D01*
Y-231245D01*
Y-231699D01*
X1082093D01*
Y-232153D01*
X1081640D01*
Y-232606D01*
X1081186D01*
Y-233060D01*
Y-233513D01*
X1080733D01*
Y-233967D01*
X1080279D01*
Y-234420D01*
Y-234874D01*
X1079826D01*
Y-235327D01*
X1079372D01*
Y-235781D01*
X1078918D01*
Y-236234D01*
Y-236688D01*
X1078465D01*
Y-237142D01*
X1078011D01*
Y-237595D01*
Y-238049D01*
X1077558D01*
Y-238502D01*
X1064405D01*
Y-238049D01*
X1064858D01*
Y-237595D01*
X1065312D01*
Y-237142D01*
Y-236688D01*
X1065765D01*
Y-236234D01*
X1066219D01*
Y-235781D01*
X1066672D01*
Y-235327D01*
Y-234874D01*
X1067126D01*
Y-234420D01*
X1067579D01*
Y-233967D01*
Y-233513D01*
X1068033D01*
Y-233060D01*
X1068487D01*
Y-232606D01*
X1068940D01*
Y-232153D01*
X1069394D01*
Y-231699D01*
Y-231245D01*
X1069847D01*
Y-230792D01*
X1070301D01*
Y-230338D01*
Y-229885D01*
X1070754D01*
Y-229431D01*
X1071208D01*
Y-228978D01*
X1071662D01*
Y-228524D01*
Y-228071D01*
X1072115D01*
Y-227617D01*
X1072569D01*
Y-227163D01*
X1073022D01*
Y-226710D01*
Y-226256D01*
X1073476D01*
Y-225803D01*
X1073929D01*
Y-225349D01*
X1074383D01*
Y-224896D01*
Y-224442D01*
X1074836D01*
Y-223988D01*
X1075290D01*
Y-223535D01*
X1075743D01*
Y-223081D01*
Y-222628D01*
X1076197D01*
Y-222174D01*
X1076651D01*
Y-221721D01*
X1077104D01*
Y-221267D01*
Y-220814D01*
X1077558D01*
Y-220360D01*
X1078011D01*
Y-219907D01*
X1078465D01*
Y-219453D01*
Y-218999D01*
X1078918D01*
Y-218546D01*
X1079372D01*
Y-218092D01*
Y-217639D01*
X1079826D01*
Y-217185D01*
X1080279D01*
Y-216732D01*
X1080733D01*
Y-216278D01*
Y-215825D01*
X1080279D01*
Y-215371D01*
X1079826D01*
Y-214917D01*
X1079372D01*
Y-214464D01*
Y-214010D01*
X1078918D01*
Y-213557D01*
X1078465D01*
Y-213103D01*
X1078011D01*
Y-212650D01*
Y-212196D01*
X1077558D01*
Y-211742D01*
X1077104D01*
Y-211289D01*
Y-210835D01*
X1076651D01*
Y-210382D01*
X1076197D01*
Y-209928D01*
X1075743D01*
Y-209475D01*
Y-209021D01*
X1075290D01*
Y-208568D01*
X1074836D01*
Y-208114D01*
X1074383D01*
Y-207661D01*
Y-207207D01*
X1073929D01*
Y-206753D01*
X1073476D01*
Y-206300D01*
Y-205846D01*
X1073022D01*
Y-205393D01*
X1072569D01*
Y-204939D01*
X1072115D01*
Y-204486D01*
Y-204032D01*
X1071662D01*
Y-203578D01*
X1071208D01*
Y-203125D01*
X1070754D01*
Y-202671D01*
Y-202218D01*
X1070301D01*
Y-201764D01*
X1069847D01*
Y-201311D01*
Y-200857D01*
X1069394D01*
Y-200404D01*
X1068940D01*
Y-199950D01*
X1068487D01*
Y-199496D01*
Y-199043D01*
X1068033D01*
Y-198589D01*
X1067579D01*
Y-198136D01*
X1067126D01*
Y-197682D01*
Y-197229D01*
X1066672D01*
Y-196775D01*
X1066219D01*
Y-196322D01*
Y-195868D01*
X1065765D01*
Y-195414D01*
X1065312D01*
Y-194961D01*
X1064858D01*
Y-194507D01*
X1078918D01*
Y-194961D01*
X1079372D01*
Y-195414D01*
X1079826D01*
Y-195868D01*
Y-196322D01*
X1080279D01*
Y-196775D01*
X1080733D01*
Y-197229D01*
X1081186D01*
Y-197682D01*
Y-198136D01*
X1081640D01*
Y-198589D01*
X1082093D01*
Y-199043D01*
Y-199496D01*
X1082547D01*
Y-199950D01*
X1083000D01*
Y-200404D01*
Y-200857D01*
X1083454D01*
Y-201311D01*
X1083907D01*
Y-201764D01*
X1084361D01*
Y-202218D01*
Y-202671D01*
X1084815D01*
Y-203125D01*
X1085268D01*
Y-203578D01*
Y-204032D01*
X1085722D01*
Y-204486D01*
X1086175D01*
Y-204939D01*
X1086629D01*
Y-205393D01*
Y-205846D01*
X1087082D01*
Y-206300D01*
X1087536D01*
Y-206753D01*
Y-207207D01*
X1087990D01*
Y-207661D01*
X1088443D01*
Y-208114D01*
X1088897D01*
Y-207661D01*
X1089350D01*
Y-207207D01*
Y-206753D01*
X1089804D01*
Y-206300D01*
X1090257D01*
Y-205846D01*
X1090711D01*
Y-205393D01*
Y-204939D01*
X1091164D01*
Y-204486D01*
X1091618D01*
Y-204032D01*
Y-203578D01*
X1092072D01*
Y-203125D01*
X1092525D01*
Y-202671D01*
X1092979D01*
Y-202218D01*
Y-201764D01*
X1093432D01*
Y-201311D01*
X1093886D01*
Y-200857D01*
Y-200404D01*
X1094339D01*
Y-199950D01*
X1094793D01*
Y-199496D01*
X1095246D01*
Y-199043D01*
Y-198589D01*
X1095700D01*
Y-198136D01*
X1096153D01*
Y-197682D01*
Y-197229D01*
X1096607D01*
Y-196775D01*
X1097061D01*
Y-196322D01*
X1097514D01*
Y-195868D01*
Y-195414D01*
X1097968D01*
Y-194961D01*
X1098421D01*
Y-194507D01*
X1111121D01*
Y-194961D01*
D02*
G37*
%LPC*%
G36*
X873457Y-173644D02*
X871190D01*
Y-174097D01*
X869376D01*
Y-174551D01*
X868468D01*
Y-175004D01*
X867561D01*
Y-175458D01*
X866654D01*
Y-175912D01*
X866201D01*
Y-176365D01*
X865747D01*
Y-176819D01*
X865294D01*
Y-177272D01*
X864840D01*
Y-177726D01*
Y-178179D01*
X864386D01*
Y-178633D01*
X863933D01*
Y-179086D01*
Y-179540D01*
X863479D01*
Y-179993D01*
Y-180447D01*
Y-180901D01*
Y-181354D01*
X863026D01*
Y-181808D01*
Y-182261D01*
Y-182715D01*
Y-183168D01*
Y-183622D01*
Y-184076D01*
Y-184529D01*
Y-184983D01*
X863479D01*
Y-185436D01*
Y-185890D01*
Y-186343D01*
X863933D01*
Y-186797D01*
Y-187250D01*
X864386D01*
Y-187704D01*
Y-188158D01*
X864840D01*
Y-188611D01*
X865294D01*
Y-189065D01*
X865747D01*
Y-189518D01*
X866201D01*
Y-189972D01*
X866654D01*
Y-190425D01*
X867108D01*
Y-190879D01*
X868015D01*
Y-191332D01*
X868922D01*
Y-191786D01*
X870283D01*
Y-192240D01*
X874365D01*
Y-191786D01*
X875725D01*
Y-191332D01*
X876632D01*
Y-190879D01*
X877540D01*
Y-190425D01*
X877993D01*
Y-189972D01*
X878447D01*
Y-189518D01*
X879354D01*
Y-189065D01*
Y-188611D01*
X879807D01*
Y-188158D01*
X880261D01*
Y-187704D01*
Y-187250D01*
X880714D01*
Y-186797D01*
Y-186343D01*
X881168D01*
Y-185890D01*
Y-185436D01*
Y-184983D01*
X881622D01*
Y-184529D01*
Y-184076D01*
Y-183622D01*
Y-183168D01*
Y-182715D01*
Y-182261D01*
Y-181808D01*
Y-181354D01*
X881168D01*
Y-180901D01*
Y-180447D01*
Y-179993D01*
Y-179540D01*
X880714D01*
Y-179086D01*
Y-178633D01*
X880261D01*
Y-178179D01*
Y-177726D01*
X879807D01*
Y-177272D01*
X879354D01*
Y-176819D01*
X878900D01*
Y-176365D01*
X878447D01*
Y-175912D01*
X877993D01*
Y-175458D01*
X877086D01*
Y-175004D01*
X876632D01*
Y-174551D01*
X875272D01*
Y-174097D01*
X873457D01*
Y-173644D01*
D02*
G37*
G36*
X968251Y-203578D02*
X964169D01*
Y-204032D01*
X962355D01*
Y-204486D01*
X960994D01*
Y-204939D01*
X960087D01*
Y-205393D01*
X959633D01*
Y-205846D01*
X958726D01*
Y-206300D01*
X958272D01*
Y-206753D01*
X957819D01*
Y-207207D01*
Y-207661D01*
X957365D01*
Y-208114D01*
X956912D01*
Y-208568D01*
Y-209021D01*
X956458D01*
Y-209475D01*
Y-209928D01*
X956005D01*
Y-210382D01*
Y-210835D01*
Y-211289D01*
X955551D01*
Y-211742D01*
Y-212196D01*
Y-212650D01*
Y-213103D01*
Y-213557D01*
X955098D01*
Y-214010D01*
Y-214464D01*
Y-214917D01*
Y-215371D01*
Y-215825D01*
Y-216278D01*
Y-216732D01*
Y-217185D01*
Y-217639D01*
Y-218092D01*
Y-218546D01*
Y-218999D01*
Y-219453D01*
X955551D01*
Y-219907D01*
Y-220360D01*
Y-220814D01*
Y-221267D01*
Y-221721D01*
X956005D01*
Y-222174D01*
Y-222628D01*
Y-223081D01*
X956458D01*
Y-223535D01*
Y-223988D01*
X956912D01*
Y-224442D01*
Y-224896D01*
X957365D01*
Y-225349D01*
X957819D01*
Y-225803D01*
X958272D01*
Y-226256D01*
X958726D01*
Y-226710D01*
X959180D01*
Y-227163D01*
X959633D01*
Y-227617D01*
X960540D01*
Y-228071D01*
X961447D01*
Y-228524D01*
X962355D01*
Y-228978D01*
X964622D01*
Y-229431D01*
X967797D01*
Y-228978D01*
X970065D01*
Y-228524D01*
X971426D01*
Y-228071D01*
X972333D01*
Y-227617D01*
X972786D01*
Y-227163D01*
X973693D01*
Y-226710D01*
X974147D01*
Y-226256D01*
X974601D01*
Y-225803D01*
X975054D01*
Y-225349D01*
Y-224896D01*
X975508D01*
Y-224442D01*
X975961D01*
Y-223988D01*
Y-223535D01*
X976415D01*
Y-223081D01*
Y-222628D01*
Y-222174D01*
X976868D01*
Y-221721D01*
Y-221267D01*
Y-220814D01*
Y-220360D01*
X977322D01*
Y-219907D01*
Y-219453D01*
Y-218999D01*
Y-218546D01*
Y-218092D01*
Y-217639D01*
Y-217185D01*
Y-216732D01*
Y-216278D01*
Y-215825D01*
Y-215371D01*
Y-214917D01*
Y-214464D01*
Y-214010D01*
Y-213557D01*
Y-213103D01*
Y-212650D01*
Y-212196D01*
X976868D01*
Y-211742D01*
Y-211289D01*
Y-210835D01*
Y-210382D01*
X976415D01*
Y-209928D01*
Y-209475D01*
X975961D01*
Y-209021D01*
Y-208568D01*
X975508D01*
Y-208114D01*
Y-207661D01*
X975054D01*
Y-207207D01*
X974601D01*
Y-206753D01*
X974147D01*
Y-206300D01*
X973693D01*
Y-205846D01*
X973240D01*
Y-205393D01*
X972333D01*
Y-204939D01*
X971426D01*
Y-204486D01*
X970518D01*
Y-204032D01*
X968251D01*
Y-203578D01*
D02*
G37*
G36*
X1042180D02*
X1037645D01*
Y-204032D01*
X1035831D01*
Y-204486D01*
X1034470D01*
Y-204939D01*
X1033563D01*
Y-205393D01*
X1033109D01*
Y-205846D01*
X1032656D01*
Y-206300D01*
X1032202D01*
Y-206753D01*
X1031749D01*
Y-207207D01*
X1031295D01*
Y-207661D01*
X1030841D01*
Y-208114D01*
X1030388D01*
Y-208568D01*
Y-209021D01*
X1029934D01*
Y-209475D01*
Y-209928D01*
X1029481D01*
Y-210382D01*
Y-210835D01*
Y-211289D01*
X1029027D01*
Y-211742D01*
Y-212196D01*
Y-212650D01*
Y-213103D01*
Y-213557D01*
Y-214010D01*
Y-214464D01*
X1028574D01*
Y-214917D01*
Y-215371D01*
Y-215825D01*
Y-216278D01*
Y-216732D01*
Y-217185D01*
Y-217639D01*
Y-218092D01*
X1029027D01*
Y-218546D01*
Y-218999D01*
Y-219453D01*
Y-219907D01*
Y-220360D01*
Y-220814D01*
Y-221267D01*
X1029481D01*
Y-221721D01*
Y-222174D01*
Y-222628D01*
X1029934D01*
Y-223081D01*
Y-223535D01*
Y-223988D01*
X1030388D01*
Y-224442D01*
X1030841D01*
Y-224896D01*
Y-225349D01*
X1031295D01*
Y-225803D01*
X1031749D01*
Y-226256D01*
X1032202D01*
Y-226710D01*
X1032656D01*
Y-227163D01*
X1033109D01*
Y-227617D01*
X1034016D01*
Y-228071D01*
X1034923D01*
Y-228524D01*
X1036284D01*
Y-228978D01*
X1038552D01*
Y-229431D01*
X1041273D01*
Y-228978D01*
X1043541D01*
Y-228524D01*
X1044902D01*
Y-228071D01*
X1045809D01*
Y-227617D01*
X1046716D01*
Y-227163D01*
X1047169D01*
Y-226710D01*
X1047623D01*
Y-226256D01*
X1048077D01*
Y-225803D01*
X1048530D01*
Y-225349D01*
X1048984D01*
Y-224896D01*
Y-224442D01*
X1049437D01*
Y-223988D01*
X1049891D01*
Y-223535D01*
Y-223081D01*
Y-222628D01*
X1050344D01*
Y-222174D01*
Y-221721D01*
Y-221267D01*
X1050798D01*
Y-220814D01*
Y-220360D01*
Y-219907D01*
Y-219453D01*
Y-218999D01*
X1051252D01*
Y-218546D01*
Y-218092D01*
Y-217639D01*
Y-217185D01*
Y-216732D01*
Y-216278D01*
Y-215825D01*
Y-215371D01*
Y-214917D01*
Y-214464D01*
Y-214010D01*
X1050798D01*
Y-213557D01*
Y-213103D01*
Y-212650D01*
Y-212196D01*
Y-211742D01*
Y-211289D01*
X1050344D01*
Y-210835D01*
Y-210382D01*
Y-209928D01*
X1049891D01*
Y-209475D01*
Y-209021D01*
X1049437D01*
Y-208568D01*
Y-208114D01*
X1048984D01*
Y-207661D01*
X1048530D01*
Y-207207D01*
X1048077D01*
Y-206753D01*
X1047623D01*
Y-206300D01*
X1047169D01*
Y-205846D01*
X1046716D01*
Y-205393D01*
X1045809D01*
Y-204939D01*
X1045355D01*
Y-204486D01*
X1043995D01*
Y-204032D01*
X1042180D01*
Y-203578D01*
D02*
G37*
%LPD*%
D10*
X2111174Y472305D02*
Y462147D01*
Y472305D02*
X2115527D01*
X2116978Y471821D01*
X2117462Y471338D01*
X2117946Y470370D01*
Y469403D01*
X2117462Y468435D01*
X2116978Y467952D01*
X2115527Y467468D01*
X2111174D01*
X2114560D02*
X2117946Y462147D01*
X2120219Y466017D02*
X2126024D01*
Y466984D01*
X2125540Y467952D01*
X2125056Y468435D01*
X2124089Y468919D01*
X2122638D01*
X2121670Y468435D01*
X2120703Y467468D01*
X2120219Y466017D01*
Y465049D01*
X2120703Y463598D01*
X2121670Y462631D01*
X2122638Y462147D01*
X2124089D01*
X2125056Y462631D01*
X2126024Y463598D01*
X2132070Y472305D02*
X2131103D01*
X2130135Y471821D01*
X2129652Y470370D01*
Y462147D01*
X2128200Y468919D02*
X2131586D01*
X2141502Y472305D02*
Y462147D01*
Y472305D02*
X2144888D01*
X2146339Y471821D01*
X2147307Y470854D01*
X2147791Y469886D01*
X2148274Y468435D01*
Y466017D01*
X2147791Y464566D01*
X2147307Y463598D01*
X2146339Y462631D01*
X2144888Y462147D01*
X2141502D01*
X2150548Y466017D02*
X2156352D01*
Y466984D01*
X2155868Y467952D01*
X2155385Y468435D01*
X2154417Y468919D01*
X2152966D01*
X2151999Y468435D01*
X2151031Y467468D01*
X2150548Y466017D01*
Y465049D01*
X2151031Y463598D01*
X2151999Y462631D01*
X2152966Y462147D01*
X2154417D01*
X2155385Y462631D01*
X2156352Y463598D01*
X2163849Y467468D02*
X2163366Y468435D01*
X2161915Y468919D01*
X2160464D01*
X2159012Y468435D01*
X2158529Y467468D01*
X2159012Y466501D01*
X2159980Y466017D01*
X2162398Y465533D01*
X2163366Y465049D01*
X2163849Y464082D01*
Y463598D01*
X2163366Y462631D01*
X2161915Y462147D01*
X2160464D01*
X2159012Y462631D01*
X2158529Y463598D01*
X2173959Y472305D02*
Y462147D01*
Y472305D02*
X2178312D01*
X2179763Y471821D01*
X2180247Y471338D01*
X2180731Y470370D01*
Y469403D01*
X2180247Y468435D01*
X2179763Y467952D01*
X2178312Y467468D01*
X2173959D02*
X2178312D01*
X2179763Y466984D01*
X2180247Y466501D01*
X2180731Y465533D01*
Y464082D01*
X2180247Y463115D01*
X2179763Y462631D01*
X2178312Y462147D01*
X2173959D01*
X2185423Y468919D02*
X2184455Y468435D01*
X2183488Y467468D01*
X2183004Y466017D01*
Y465049D01*
X2183488Y463598D01*
X2184455Y462631D01*
X2185423Y462147D01*
X2186874D01*
X2187841Y462631D01*
X2188809Y463598D01*
X2189292Y465049D01*
Y466017D01*
X2188809Y467468D01*
X2187841Y468435D01*
X2186874Y468919D01*
X2185423D01*
X2192969Y472305D02*
Y464082D01*
X2193452Y462631D01*
X2194420Y462147D01*
X2195387D01*
X2191517Y468919D02*
X2194904D01*
X2198289Y472305D02*
Y464082D01*
X2198773Y462631D01*
X2199740Y462147D01*
X2200708D01*
X2196838Y468919D02*
X2200224D01*
X2204578D02*
X2203610Y468435D01*
X2202643Y467468D01*
X2202159Y466017D01*
Y465049D01*
X2202643Y463598D01*
X2203610Y462631D01*
X2204578Y462147D01*
X2206029D01*
X2206996Y462631D01*
X2207964Y463598D01*
X2208447Y465049D01*
Y466017D01*
X2207964Y467468D01*
X2206996Y468435D01*
X2206029Y468919D01*
X2204578D01*
X2210672D02*
Y462147D01*
Y466984D02*
X2212123Y468435D01*
X2213091Y468919D01*
X2214542D01*
X2215509Y468435D01*
X2215993Y466984D01*
Y462147D01*
Y466984D02*
X2217444Y468435D01*
X2218412Y468919D01*
X2219863D01*
X2220830Y468435D01*
X2221314Y466984D01*
Y462147D01*
X2227580Y1448258D02*
Y1524508D01*
X2057400Y1448258D02*
Y1524508D01*
X1562100Y1448258D02*
Y1524508D01*
X1470660Y1448258D02*
Y1524508D01*
Y1448258D02*
X2344420D01*
X1470660Y1486358D02*
X2344360D01*
X1582360Y-165262D02*
Y-128686D01*
X1201360D02*
X1582360D01*
X772160D02*
X1201360D01*
X1582360Y-317662D02*
Y-165262D01*
X2115760Y-317662D02*
Y-187868D01*
X1201360Y-317662D02*
Y-128686D01*
X2344360Y-317662D02*
Y-128686D01*
X1582360D02*
X2344360D01*
X1201360Y-187106D02*
X2344360D01*
X1201360Y-250352D02*
X2344360D01*
X1201360Y-317662D02*
X2344360D01*
X772160D02*
Y-128686D01*
Y-317662D02*
X1201360D01*
X2227580Y1524508D02*
Y1681988D01*
X2057400Y1524508D02*
Y1681988D01*
X1562100Y1524508D02*
Y1681988D01*
X1470660D02*
X2344360D01*
X1470660Y1600708D02*
X2344360D01*
X1470660Y1638808D02*
X2344420D01*
X1470660Y1562608D02*
X2344360D01*
X1470660Y1524508D02*
X2344420D01*
X1470660D02*
Y1740408D01*
X-398780Y-367792D02*
X2395220D01*
X2344360Y171288D02*
X2395160D01*
X2344360Y711038D02*
X2395160D01*
X2344360Y1250788D02*
X2395160D01*
X2344360Y-317662D02*
Y1739738D01*
X2395220Y-367792D02*
Y1791208D01*
X-398780D02*
X2395220D01*
X1696660Y1739738D02*
Y1790538D01*
X998160Y1739738D02*
Y1790538D01*
X299660Y1739738D02*
Y1790538D01*
X-348040Y1739738D02*
X2344360D01*
X1696660Y-368462D02*
Y-317662D01*
X998160Y-368462D02*
Y-317662D01*
X299660Y-368462D02*
Y-317662D01*
X-398840Y171288D02*
X-348040D01*
X-398840Y711038D02*
X-348040D01*
X-398840Y1250788D02*
X-348040D01*
X-398780Y-367792D02*
Y1791208D01*
X-348040Y-317662D02*
Y1739738D01*
Y-317662D02*
X2344360D01*
X1588202Y-207172D02*
Y-194476D01*
X1594550D01*
X1596666Y-196592D01*
Y-200824D01*
X1594550Y-202940D01*
X1588202D01*
X1609362Y-196592D02*
X1607246Y-194476D01*
X1603014D01*
X1600898Y-196592D01*
Y-205056D01*
X1603014Y-207172D01*
X1607246D01*
X1609362Y-205056D01*
X1613594Y-194476D02*
Y-207172D01*
X1619942D01*
X1622058Y-205056D01*
Y-202940D01*
X1619942Y-200824D01*
X1613594D01*
X1619942D01*
X1622058Y-198708D01*
Y-196592D01*
X1619942Y-194476D01*
X1613594D01*
X1638985Y-207172D02*
Y-194476D01*
X1647449Y-207172D01*
Y-194476D01*
X1651681Y-207172D02*
Y-198708D01*
X1655913Y-194476D01*
X1660145Y-198708D01*
Y-207172D01*
Y-200824D01*
X1651681D01*
X1664377Y-207172D02*
Y-194476D01*
X1668609Y-198708D01*
X1672841Y-194476D01*
Y-207172D01*
X1685537Y-194476D02*
X1677073D01*
Y-207172D01*
X1685537D01*
X1677073Y-200824D02*
X1681305D01*
X1689769Y-198708D02*
X1691885D01*
Y-200824D01*
X1689769D01*
Y-198708D01*
Y-205056D02*
X1691885D01*
Y-207172D01*
X1689769D01*
Y-205056D01*
X2128542Y-262632D02*
X2126426Y-260516D01*
X2122194D01*
X2120078Y-262632D01*
Y-264748D01*
X2122194Y-266864D01*
X2126426D01*
X2128542Y-268980D01*
Y-271096D01*
X2126426Y-273212D01*
X2122194D01*
X2120078Y-271096D01*
X2141238Y-262632D02*
X2139122Y-260516D01*
X2134890D01*
X2132774Y-262632D01*
Y-271096D01*
X2134890Y-273212D01*
X2139122D01*
X2141238Y-271096D01*
X2145470Y-273212D02*
Y-264748D01*
X2149702Y-260516D01*
X2153934Y-264748D01*
Y-273212D01*
Y-266864D01*
X2145470D01*
X2158166Y-260516D02*
Y-273212D01*
X2166630D01*
X2179326Y-260516D02*
X2170862D01*
Y-273212D01*
X2179326D01*
X2170862Y-266864D02*
X2175094D01*
X2183557Y-264748D02*
X2185673D01*
Y-266864D01*
X2183557D01*
Y-264748D01*
Y-271096D02*
X2185673D01*
Y-273212D01*
X2183557D01*
Y-271096D01*
X1595964Y-258576D02*
X1587500D01*
Y-264924D01*
X1591732D01*
X1587500D01*
Y-271272D01*
X1600196Y-258576D02*
X1604428D01*
X1602312D01*
Y-271272D01*
X1600196D01*
X1604428D01*
X1610776Y-258576D02*
Y-271272D01*
X1619240D01*
X1631936Y-258576D02*
X1623472D01*
Y-271272D01*
X1631936D01*
X1623472Y-264924D02*
X1627704D01*
X1648864Y-271272D02*
Y-258576D01*
X1657327Y-271272D01*
Y-258576D01*
X1661559Y-271272D02*
Y-262808D01*
X1665791Y-258576D01*
X1670023Y-262808D01*
Y-271272D01*
Y-264924D01*
X1661559D01*
X1674255Y-271272D02*
Y-258576D01*
X1678487Y-262808D01*
X1682719Y-258576D01*
Y-271272D01*
X1695415Y-258576D02*
X1686951D01*
Y-271272D01*
X1695415D01*
X1686951Y-264924D02*
X1691183D01*
X1699647Y-262808D02*
X1701763D01*
Y-264924D01*
X1699647D01*
Y-262808D01*
Y-269156D02*
X1701763D01*
Y-271272D01*
X1699647D01*
Y-269156D01*
X1589472Y-152816D02*
Y-140120D01*
X1595820D01*
X1597936Y-142236D01*
Y-146468D01*
X1595820Y-148584D01*
X1589472D01*
X1602168Y-152816D02*
Y-140120D01*
X1608516D01*
X1610632Y-142236D01*
Y-146468D01*
X1608516Y-148584D01*
X1602168D01*
X1606400D02*
X1610632Y-152816D01*
X1621212Y-140120D02*
X1616980D01*
X1614864Y-142236D01*
Y-150700D01*
X1616980Y-152816D01*
X1621212D01*
X1623328Y-150700D01*
Y-142236D01*
X1621212Y-140120D01*
X1636024D02*
X1631792D01*
X1633908D01*
Y-150700D01*
X1631792Y-152816D01*
X1629676D01*
X1627560Y-150700D01*
X1648719Y-140120D02*
X1640255D01*
Y-152816D01*
X1648719D01*
X1640255Y-146468D02*
X1644487D01*
X1661415Y-142236D02*
X1659299Y-140120D01*
X1655067D01*
X1652951Y-142236D01*
Y-150700D01*
X1655067Y-152816D01*
X1659299D01*
X1661415Y-150700D01*
X1665647Y-140120D02*
X1674111D01*
X1669879D01*
Y-152816D01*
X1678343Y-144352D02*
X1680459D01*
Y-146468D01*
X1678343D01*
Y-144352D01*
Y-150700D02*
X1680459D01*
Y-152816D01*
X1678343D01*
Y-150700D01*
X1212872Y-140374D02*
X1204408D01*
Y-153070D01*
X1212872D01*
X1204408Y-146722D02*
X1208640D01*
X1217104Y-153070D02*
Y-140374D01*
X1225568Y-153070D01*
Y-140374D01*
X1238264Y-142490D02*
X1236148Y-140374D01*
X1231916D01*
X1229800Y-142490D01*
Y-150954D01*
X1231916Y-153070D01*
X1236148D01*
X1238264Y-150954D01*
Y-146722D01*
X1234032D01*
X1242496Y-140374D02*
X1246728D01*
X1244612D01*
Y-153070D01*
X1242496D01*
X1246728D01*
X1253076D02*
Y-140374D01*
X1261540Y-153070D01*
Y-140374D01*
X1274235D02*
X1265771D01*
Y-153070D01*
X1274235D01*
X1265771Y-146722D02*
X1270003D01*
X1286931Y-140374D02*
X1278467D01*
Y-153070D01*
X1286931D01*
X1278467Y-146722D02*
X1282699D01*
X1291163Y-153070D02*
Y-140374D01*
X1297511D01*
X1299627Y-142490D01*
Y-146722D01*
X1297511Y-148838D01*
X1291163D01*
X1295395D02*
X1299627Y-153070D01*
X1303859Y-144606D02*
X1305975D01*
Y-146722D01*
X1303859D01*
Y-144606D01*
Y-150954D02*
X1305975D01*
Y-153070D01*
X1303859D01*
Y-150954D01*
X1206500Y-258576D02*
Y-271272D01*
X1212848D01*
X1214964Y-269156D01*
Y-260692D01*
X1212848Y-258576D01*
X1206500D01*
X1219196D02*
Y-271272D01*
X1223428Y-267040D01*
X1227660Y-271272D01*
Y-258576D01*
X1240356Y-260692D02*
X1238240Y-258576D01*
X1234008D01*
X1231892Y-260692D01*
Y-269156D01*
X1234008Y-271272D01*
X1238240D01*
X1240356Y-269156D01*
Y-264924D01*
X1236124D01*
X1257283Y-271272D02*
Y-258576D01*
X1265748Y-271272D01*
Y-258576D01*
X1276327D02*
X1272095D01*
X1269979Y-260692D01*
Y-269156D01*
X1272095Y-271272D01*
X1276327D01*
X1278443Y-269156D01*
Y-260692D01*
X1276327Y-258576D01*
X1282675Y-262808D02*
X1284791D01*
Y-264924D01*
X1282675D01*
Y-262808D01*
Y-269156D02*
X1284791D01*
Y-271272D01*
X1282675D01*
Y-269156D01*
X2121348Y-210474D02*
Y-197778D01*
X2127696D01*
X2129812Y-199894D01*
Y-204126D01*
X2127696Y-206242D01*
X2121348D01*
X2125580D02*
X2129812Y-210474D01*
X2142508Y-197778D02*
X2134044D01*
Y-210474D01*
X2142508D01*
X2134044Y-204126D02*
X2138276D01*
X2146740Y-197778D02*
Y-206242D01*
X2150972Y-210474D01*
X2155204Y-206242D01*
Y-197778D01*
X2159436Y-202010D02*
X2161552D01*
Y-204126D01*
X2159436D01*
Y-202010D01*
Y-208358D02*
X2161552D01*
Y-210474D01*
X2159436D01*
Y-208358D01*
X1205170Y-195492D02*
Y-208188D01*
X1211518D01*
X1213634Y-206072D01*
Y-197608D01*
X1211518Y-195492D01*
X1205170D01*
X1217866Y-208188D02*
Y-199724D01*
X1222098Y-195492D01*
X1226330Y-199724D01*
Y-208188D01*
Y-201840D01*
X1217866D01*
X1230562Y-195492D02*
X1239026D01*
X1234794D01*
Y-208188D01*
X1251722Y-195492D02*
X1243258D01*
Y-208188D01*
X1251722D01*
X1243258Y-201840D02*
X1247490D01*
X1255954Y-199724D02*
X1258070D01*
Y-201840D01*
X1255954D01*
Y-199724D01*
Y-206072D02*
X1258070D01*
Y-208188D01*
X1255954D01*
Y-206072D01*
D14*
X2017194Y-103632D02*
Y643128D01*
X2304214D01*
Y-103632D02*
Y643128D01*
X2017194Y-103632D02*
X2304214D01*
X2057834Y605657D02*
X2253414D01*
X2253824Y1514294D02*
X2245360D01*
Y1501598D01*
X2253824D01*
X2245360Y1507946D02*
X2249592D01*
X2258056Y1501598D02*
Y1514294D01*
X2262288Y1510062D01*
X2266520Y1514294D01*
Y1501598D01*
X2277100Y1514294D02*
X2272868D01*
X2270752Y1512178D01*
Y1503714D01*
X2272868Y1501598D01*
X2277100D01*
X2279216Y1503714D01*
Y1512178D01*
X2277100Y1514294D01*
X2289796D02*
X2285564D01*
X2283448Y1512178D01*
Y1503714D01*
X2285564Y1501598D01*
X2289796D01*
X2291912Y1503714D01*
Y1512178D01*
X2289796Y1514294D01*
X2077720Y1512178D02*
X2079836Y1514294D01*
X2084068D01*
X2086184Y1512178D01*
Y1510062D01*
X2084068Y1507946D01*
X2081952D01*
X2084068D01*
X2086184Y1505830D01*
Y1503714D01*
X2084068Y1501598D01*
X2079836D01*
X2077720Y1503714D01*
X2090416Y1501598D02*
X2098880Y1510062D01*
X2103112Y1501598D02*
X2107344D01*
X2105228D01*
Y1514294D01*
X2103112Y1512178D01*
X2122156Y1514294D02*
X2117924Y1512178D01*
X2113692Y1507946D01*
Y1503714D01*
X2115808Y1501598D01*
X2120040D01*
X2122156Y1503714D01*
Y1505830D01*
X2120040Y1507946D01*
X2113692D01*
X2126388Y1501598D02*
X2134852Y1510062D01*
X2147547Y1501598D02*
X2139084D01*
X2147547Y1510062D01*
Y1512178D01*
X2145431Y1514294D01*
X2141199D01*
X2139084Y1512178D01*
X2151779D02*
X2153895Y1514294D01*
X2158127D01*
X2160243Y1512178D01*
Y1503714D01*
X2158127Y1501598D01*
X2153895D01*
X2151779Y1503714D01*
Y1512178D01*
X2172939Y1501598D02*
X2164475D01*
X2172939Y1510062D01*
Y1512178D01*
X2170823Y1514294D01*
X2166591D01*
X2164475Y1512178D01*
X2177171Y1501598D02*
X2181403D01*
X2179287D01*
Y1514294D01*
X2177171Y1512178D01*
X1600200Y1514294D02*
X1604432D01*
X1602316D01*
Y1501598D01*
X1600200D01*
X1604432D01*
X1610780D02*
Y1510062D01*
X1617128D01*
X1619244Y1507946D01*
Y1501598D01*
X1623476D02*
X1627708D01*
X1625592D01*
Y1510062D01*
X1623476D01*
X1636172Y1512178D02*
Y1510062D01*
X1634056D01*
X1638288D01*
X1636172D01*
Y1503714D01*
X1638288Y1501598D01*
X1644636D02*
X1648868D01*
X1646752D01*
Y1510062D01*
X1644636D01*
X1657332D02*
X1661564D01*
X1663680Y1507946D01*
Y1501598D01*
X1657332D01*
X1655215Y1503714D01*
X1657332Y1505830D01*
X1663680D01*
X1667911Y1501598D02*
X1672143D01*
X1670027D01*
Y1514294D01*
X1667911D01*
X1691187Y1501598D02*
Y1514294D01*
X1697535D01*
X1699651Y1512178D01*
Y1507946D01*
X1697535Y1505830D01*
X1691187D01*
X1703883Y1510062D02*
Y1501598D01*
Y1505830D01*
X1705999Y1507946D01*
X1708115Y1510062D01*
X1710231D01*
X1718695Y1501598D02*
X1722927D01*
X1725043Y1503714D01*
Y1507946D01*
X1722927Y1510062D01*
X1718695D01*
X1716579Y1507946D01*
Y1503714D01*
X1718695Y1501598D01*
X1737739Y1514294D02*
Y1501598D01*
X1731391D01*
X1729275Y1503714D01*
Y1507946D01*
X1731391Y1510062D01*
X1737739D01*
X1741971D02*
Y1503714D01*
X1744087Y1501598D01*
X1750435D01*
Y1510062D01*
X1763131D02*
X1756783D01*
X1754667Y1507946D01*
Y1503714D01*
X1756783Y1501598D01*
X1763131D01*
X1769478Y1512178D02*
Y1510062D01*
X1767363D01*
X1771595D01*
X1769478D01*
Y1503714D01*
X1771595Y1501598D01*
X1777942D02*
X1782174D01*
X1780058D01*
Y1510062D01*
X1777942D01*
X1790638Y1501598D02*
X1794870D01*
X1796986Y1503714D01*
Y1507946D01*
X1794870Y1510062D01*
X1790638D01*
X1788522Y1507946D01*
Y1503714D01*
X1790638Y1501598D01*
X1801218D02*
Y1510062D01*
X1807566D01*
X1809682Y1507946D01*
Y1501598D01*
X1826610D02*
Y1514294D01*
X1832958D01*
X1835074Y1512178D01*
Y1507946D01*
X1832958Y1505830D01*
X1826610D01*
X1830842D02*
X1835074Y1501598D01*
X1845654D02*
X1841422D01*
X1839306Y1503714D01*
Y1507946D01*
X1841422Y1510062D01*
X1845654D01*
X1847770Y1507946D01*
Y1505830D01*
X1839306D01*
X1852002Y1501598D02*
X1856234D01*
X1854118D01*
Y1514294D01*
X1852002D01*
X1868930Y1501598D02*
X1864698D01*
X1862582Y1503714D01*
Y1507946D01*
X1864698Y1510062D01*
X1868930D01*
X1871046Y1507946D01*
Y1505830D01*
X1862582D01*
X1877394Y1510062D02*
X1881626D01*
X1883741Y1507946D01*
Y1501598D01*
X1877394D01*
X1875278Y1503714D01*
X1877394Y1505830D01*
X1883741D01*
X1887973Y1501598D02*
X1894321D01*
X1896437Y1503714D01*
X1894321Y1505830D01*
X1890089D01*
X1887973Y1507946D01*
X1890089Y1510062D01*
X1896437D01*
X1907017Y1501598D02*
X1902785D01*
X1900669Y1503714D01*
Y1507946D01*
X1902785Y1510062D01*
X1907017D01*
X1909133Y1507946D01*
Y1505830D01*
X1900669D01*
X1490980Y1501598D02*
Y1514294D01*
X1497328D01*
X1499444Y1512178D01*
Y1507946D01*
X1497328Y1505830D01*
X1490980D01*
X1495212D02*
X1499444Y1501598D01*
X1510024D02*
X1505792D01*
X1503676Y1503714D01*
Y1507946D01*
X1505792Y1510062D01*
X1510024D01*
X1512140Y1507946D01*
Y1505830D01*
X1503676D01*
X1516372Y1510062D02*
X1520604Y1501598D01*
X1524836Y1510062D01*
X1541763Y1514294D02*
Y1501598D01*
X1548112D01*
X1550228Y1503714D01*
Y1512178D01*
X1548112Y1514294D01*
X1541763D01*
X1490980Y1463498D02*
Y1476194D01*
X1497328D01*
X1499444Y1474078D01*
Y1469846D01*
X1497328Y1467730D01*
X1490980D01*
X1495212D02*
X1499444Y1463498D01*
X1510024D02*
X1505792D01*
X1503676Y1465614D01*
Y1469846D01*
X1505792Y1471962D01*
X1510024D01*
X1512140Y1469846D01*
Y1467730D01*
X1503676D01*
X1516372Y1471962D02*
X1520604Y1463498D01*
X1524836Y1471962D01*
X1550228Y1476194D02*
X1541763D01*
Y1463498D01*
X1550228D01*
X1541763Y1469846D02*
X1545995D01*
X1600200Y1463498D02*
Y1471962D01*
X1604432Y1476194D01*
X1608664Y1471962D01*
Y1463498D01*
Y1469846D01*
X1600200D01*
X1621360Y1476194D02*
Y1463498D01*
X1615012D01*
X1612896Y1465614D01*
Y1469846D01*
X1615012Y1471962D01*
X1621360D01*
X1634056Y1476194D02*
Y1463498D01*
X1627708D01*
X1625592Y1465614D01*
Y1469846D01*
X1627708Y1471962D01*
X1634056D01*
X1638288Y1463498D02*
X1642520D01*
X1640404D01*
Y1471962D01*
X1638288D01*
X1650983Y1474078D02*
Y1471962D01*
X1648868D01*
X1653100D01*
X1650983D01*
Y1465614D01*
X1653100Y1463498D01*
X1659447D02*
X1663680D01*
X1661564D01*
Y1471962D01*
X1659447D01*
X1672143Y1463498D02*
X1676375D01*
X1678491Y1465614D01*
Y1469846D01*
X1676375Y1471962D01*
X1672143D01*
X1670027Y1469846D01*
Y1465614D01*
X1672143Y1463498D01*
X1682723D02*
Y1471962D01*
X1689071D01*
X1691187Y1469846D01*
Y1463498D01*
X1710231D02*
X1714463D01*
X1716579Y1465614D01*
Y1469846D01*
X1714463Y1471962D01*
X1710231D01*
X1708115Y1469846D01*
Y1465614D01*
X1710231Y1463498D01*
X1722927D02*
Y1474078D01*
Y1469846D01*
X1720811D01*
X1725043D01*
X1722927D01*
Y1474078D01*
X1725043Y1476194D01*
X1744087D02*
Y1463498D01*
X1750435D01*
X1752551Y1465614D01*
Y1467730D01*
X1750435Y1469846D01*
X1744087D01*
X1750435D01*
X1752551Y1471962D01*
Y1474078D01*
X1750435Y1476194D01*
X1744087D01*
X1765247Y1474078D02*
X1763131Y1476194D01*
X1758899D01*
X1756783Y1474078D01*
Y1465614D01*
X1758899Y1463498D01*
X1763131D01*
X1765247Y1465614D01*
Y1469846D01*
X1761015D01*
X1769478Y1463498D02*
Y1471962D01*
X1773710Y1476194D01*
X1777942Y1471962D01*
Y1463498D01*
Y1469846D01*
X1769478D01*
X1782174D02*
X1790638D01*
X1794870Y1463498D02*
X1799102D01*
X1796986D01*
Y1476194D01*
X1794870Y1474078D01*
X1813914Y1463498D02*
X1805450D01*
X1813914Y1471962D01*
Y1474078D01*
X1811798Y1476194D01*
X1807566D01*
X1805450Y1474078D01*
X1818146Y1463498D02*
X1822378D01*
X1820262D01*
Y1476194D01*
X1818146Y1474078D01*
X1841422Y1476194D02*
X1845654D01*
X1843538D01*
Y1463498D01*
X1841422D01*
X1845654D01*
X1852002D02*
Y1471962D01*
X1858350D01*
X1860466Y1469846D01*
Y1463498D01*
X1866814Y1474078D02*
Y1471962D01*
X1864698D01*
X1868930D01*
X1866814D01*
Y1465614D01*
X1868930Y1463498D01*
X1881626D02*
X1877394D01*
X1875278Y1465614D01*
Y1469846D01*
X1877394Y1471962D01*
X1881626D01*
X1883741Y1469846D01*
Y1467730D01*
X1875278D01*
X1887973Y1471962D02*
Y1463498D01*
Y1467730D01*
X1890089Y1469846D01*
X1892205Y1471962D01*
X1894321D01*
X1902785Y1463498D02*
Y1474078D01*
Y1469846D01*
X1900669D01*
X1904901D01*
X1902785D01*
Y1474078D01*
X1904901Y1476194D01*
X1913365Y1471962D02*
X1917597D01*
X1919713Y1469846D01*
Y1463498D01*
X1913365D01*
X1911249Y1465614D01*
X1913365Y1467730D01*
X1919713D01*
X1932409Y1471962D02*
X1926061D01*
X1923945Y1469846D01*
Y1465614D01*
X1926061Y1463498D01*
X1932409D01*
X1942989D02*
X1938757D01*
X1936641Y1465614D01*
Y1469846D01*
X1938757Y1471962D01*
X1942989D01*
X1945105Y1469846D01*
Y1467730D01*
X1936641D01*
X1962033Y1476194D02*
X1966265D01*
X1964149D01*
Y1463498D01*
X1962033D01*
X1966265D01*
X1981077Y1474078D02*
X1978961Y1476194D01*
X1974729D01*
X1972613Y1474078D01*
Y1465614D01*
X1974729Y1463498D01*
X1978961D01*
X1981077Y1465614D01*
X2084068Y1463498D02*
Y1476194D01*
X2077720Y1469846D01*
X2086184D01*
X2090416Y1463498D02*
X2098880Y1471962D01*
X2111576Y1463498D02*
X2103112D01*
X2111576Y1471962D01*
Y1474078D01*
X2109460Y1476194D01*
X2105228D01*
X2103112Y1474078D01*
X2115808D02*
X2117924Y1476194D01*
X2122156D01*
X2124272Y1474078D01*
Y1471962D01*
X2122156Y1469846D01*
X2124272Y1467730D01*
Y1465614D01*
X2122156Y1463498D01*
X2117924D01*
X2115808Y1465614D01*
Y1467730D01*
X2117924Y1469846D01*
X2115808Y1471962D01*
Y1474078D01*
X2117924Y1469846D02*
X2122156D01*
X2128504Y1463498D02*
X2136967Y1471962D01*
X2149663Y1463498D02*
X2141199D01*
X2149663Y1471962D01*
Y1474078D01*
X2147547Y1476194D01*
X2143315D01*
X2141199Y1474078D01*
X2153895D02*
X2156011Y1476194D01*
X2160243D01*
X2162359Y1474078D01*
Y1465614D01*
X2160243Y1463498D01*
X2156011D01*
X2153895Y1465614D01*
Y1474078D01*
X2175055Y1463498D02*
X2166591D01*
X2175055Y1471962D01*
Y1474078D01*
X2172939Y1476194D01*
X2168707D01*
X2166591Y1474078D01*
X2179287Y1463498D02*
X2183519D01*
X2181403D01*
Y1476194D01*
X2179287Y1474078D01*
X2253824Y1476194D02*
X2245360D01*
Y1463498D01*
X2253824D01*
X2245360Y1469846D02*
X2249592D01*
X2258056Y1463498D02*
Y1476194D01*
X2262288Y1471962D01*
X2266520Y1476194D01*
Y1463498D01*
X2277100Y1476194D02*
X2272868D01*
X2270752Y1474078D01*
Y1465614D01*
X2272868Y1463498D01*
X2277100D01*
X2279216Y1465614D01*
Y1474078D01*
X2277100Y1476194D01*
X2289796D02*
X2285564D01*
X2283448Y1474078D01*
Y1465614D01*
X2285564Y1463498D01*
X2289796D01*
X2291912Y1465614D01*
Y1474078D01*
X2289796Y1476194D01*
X1272540Y-286517D02*
Y-299213D01*
X1275079Y-301752D01*
X1280157D01*
X1282697Y-299213D01*
Y-286517D01*
X1287775D02*
Y-301752D01*
X1295393D01*
X1297932Y-299213D01*
Y-296674D01*
X1295393Y-294135D01*
X1287775D01*
X1295393D01*
X1297932Y-291595D01*
Y-289056D01*
X1295393Y-286517D01*
X1287775D01*
X1303010D02*
X1313167Y-301752D01*
Y-286517D02*
X1303010Y-301752D01*
X1318245Y-286517D02*
Y-301752D01*
Y-294135D01*
X1328402D01*
Y-286517D01*
Y-301752D01*
X1343637Y-286517D02*
X1338559Y-289056D01*
X1333480Y-294135D01*
Y-299213D01*
X1336019Y-301752D01*
X1341098D01*
X1343637Y-299213D01*
Y-296674D01*
X1341098Y-294135D01*
X1333480D01*
X1348715Y-289056D02*
X1351254Y-286517D01*
X1356333D01*
X1358872Y-289056D01*
Y-299213D01*
X1356333Y-301752D01*
X1351254D01*
X1348715Y-299213D01*
Y-289056D01*
X1363950Y-294135D02*
X1374107D01*
X1379185Y-289056D02*
X1381725Y-286517D01*
X1386803D01*
X1389342Y-289056D01*
Y-299213D01*
X1386803Y-301752D01*
X1381725D01*
X1379185Y-299213D01*
Y-289056D01*
X1394421D02*
X1396960Y-286517D01*
X1402038D01*
X1404577Y-289056D01*
Y-299213D01*
X1402038Y-301752D01*
X1396960D01*
X1394421Y-299213D01*
Y-289056D01*
X1409656D02*
X1412195Y-286517D01*
X1417273D01*
X1419812Y-289056D01*
Y-299213D01*
X1417273Y-301752D01*
X1412195D01*
X1409656Y-299213D01*
Y-289056D01*
X1424891D02*
X1427430Y-286517D01*
X1432508D01*
X1435047Y-289056D01*
Y-299213D01*
X1432508Y-301752D01*
X1427430D01*
X1424891Y-299213D01*
Y-289056D01*
X1440126Y-286517D02*
X1450282D01*
Y-289056D01*
X1440126Y-299213D01*
Y-301752D01*
X1455361Y-289056D02*
X1457900Y-286517D01*
X1462978D01*
X1465518Y-289056D01*
Y-299213D01*
X1462978Y-301752D01*
X1457900D01*
X1455361Y-299213D01*
Y-289056D01*
X1480753Y-301752D02*
X1470596D01*
X1480753Y-291595D01*
Y-289056D01*
X1478214Y-286517D01*
X1473135D01*
X1470596Y-289056D01*
X1712802Y-210319D02*
X1699260D01*
Y-230632D01*
X1712802D01*
X1699260Y-220475D02*
X1706031D01*
X1719573Y-210319D02*
Y-223861D01*
X1726345Y-230632D01*
X1733116Y-223861D01*
Y-210319D01*
X1739887D02*
Y-230632D01*
Y-223861D01*
X1753429Y-210319D01*
X1743272Y-220475D01*
X1753429Y-230632D01*
X1760200Y-220475D02*
X1773743D01*
X1780514Y-230632D02*
Y-210319D01*
X1794056Y-230632D01*
Y-210319D01*
X1810984D02*
X1804213D01*
X1800827Y-213704D01*
Y-227246D01*
X1804213Y-230632D01*
X1810984D01*
X1814369Y-227246D01*
Y-213704D01*
X1810984Y-210319D01*
X1821140Y-230632D02*
Y-210319D01*
X1831297D01*
X1834683Y-213704D01*
Y-220475D01*
X1831297Y-223861D01*
X1821140D01*
X1827912D02*
X1834683Y-230632D01*
X1841454D02*
Y-217090D01*
X1848225Y-210319D01*
X1854996Y-217090D01*
Y-230632D01*
Y-220475D01*
X1841454D01*
X1861767D02*
X1875310D01*
X1882081Y-210319D02*
Y-230632D01*
X1892238D01*
X1895623Y-227246D01*
Y-223861D01*
X1892238Y-220475D01*
X1882081D01*
X1892238D01*
X1895623Y-217090D01*
Y-213704D01*
X1892238Y-210319D01*
X1882081D01*
X1902394Y-230632D02*
X1909165D01*
X1905780D01*
Y-210319D01*
X1902394Y-213704D01*
X1919322D02*
X1922708Y-210319D01*
X1929479D01*
X1932864Y-213704D01*
Y-227246D01*
X1929479Y-230632D01*
X1922708D01*
X1919322Y-227246D01*
Y-213704D01*
X2193840Y-229422D02*
Y-209109D01*
X2203997D01*
X2207382Y-212494D01*
Y-219265D01*
X2203997Y-222651D01*
X2193840D01*
X2200611D02*
X2207382Y-229422D01*
X2224310D02*
X2217539D01*
X2214153Y-226036D01*
Y-219265D01*
X2217539Y-215880D01*
X2224310D01*
X2227696Y-219265D01*
Y-222651D01*
X2214153D01*
X2234467Y-215880D02*
X2241238Y-229422D01*
X2248009Y-215880D01*
X2288636Y-209109D02*
X2275094D01*
Y-229422D01*
X2288636D01*
X2275094Y-219265D02*
X2281865D01*
X1699260Y-149359D02*
X1712802D01*
X1706031D01*
Y-169672D01*
X1733116Y-149359D02*
X1719573D01*
Y-169672D01*
X1733116D01*
X1719573Y-159515D02*
X1726345D01*
X1739887D02*
X1753429D01*
X1760200Y-169672D02*
Y-149359D01*
X1770357D01*
X1773743Y-152744D01*
Y-159515D01*
X1770357Y-162901D01*
X1760200D01*
X1766971D02*
X1773743Y-169672D01*
X1780514Y-149359D02*
Y-169672D01*
X1790670D01*
X1794056Y-166286D01*
Y-162901D01*
X1790670Y-159515D01*
X1780514D01*
X1790670D01*
X1794056Y-156130D01*
Y-152744D01*
X1790670Y-149359D01*
X1780514D01*
X1800827Y-169672D02*
X1807598D01*
X1804213D01*
Y-149359D01*
X1800827Y-152744D01*
X1332650Y-151898D02*
X1320800D01*
Y-169672D01*
X1332650D01*
X1320800Y-160785D02*
X1326725D01*
X1338574Y-169672D02*
Y-151898D01*
X1344499Y-157823D01*
X1350424Y-151898D01*
Y-169672D01*
X1365236Y-151898D02*
X1359311D01*
X1356349Y-154860D01*
Y-166710D01*
X1359311Y-169672D01*
X1365236D01*
X1368198Y-166710D01*
Y-154860D01*
X1365236Y-151898D01*
X1383010D02*
X1377085D01*
X1374123Y-154860D01*
Y-166710D01*
X1377085Y-169672D01*
X1383010D01*
X1385972Y-166710D01*
Y-154860D01*
X1383010Y-151898D01*
X1286507Y-230632D02*
Y-212858D01*
X1277620Y-221745D01*
X1289469D01*
X1295394Y-230632D02*
X1307244Y-218783D01*
X1325018Y-230632D02*
X1313168D01*
X1325018Y-218783D01*
Y-215820D01*
X1322056Y-212858D01*
X1316131D01*
X1313168Y-215820D01*
X1330943D02*
X1333905Y-212858D01*
X1339830D01*
X1342792Y-215820D01*
Y-218783D01*
X1339830Y-221745D01*
X1342792Y-224707D01*
Y-227670D01*
X1339830Y-230632D01*
X1333905D01*
X1330943Y-227670D01*
Y-224707D01*
X1333905Y-221745D01*
X1330943Y-218783D01*
Y-215820D01*
X1333905Y-221745D02*
X1339830D01*
X1348717Y-230632D02*
X1360567Y-218783D01*
X1378341Y-230632D02*
X1366491D01*
X1378341Y-218783D01*
Y-215820D01*
X1375378Y-212858D01*
X1369454D01*
X1366491Y-215820D01*
X1384266D02*
X1387228Y-212858D01*
X1393153D01*
X1396115Y-215820D01*
Y-227670D01*
X1393153Y-230632D01*
X1387228D01*
X1384266Y-227670D01*
Y-215820D01*
X1413889Y-230632D02*
X1402040D01*
X1413889Y-218783D01*
Y-215820D01*
X1410927Y-212858D01*
X1405002D01*
X1402040Y-215820D01*
X1419814Y-230632D02*
X1425739D01*
X1422776D01*
Y-212858D01*
X1419814Y-215820D01*
X1610360Y-299212D02*
Y-283977D01*
X1620517Y-299212D01*
Y-283977D01*
X1633213D02*
X1628134D01*
X1625595Y-286516D01*
Y-296673D01*
X1628134Y-299212D01*
X1633213D01*
X1635752Y-296673D01*
Y-286516D01*
X1633213Y-283977D01*
X1640830Y-299212D02*
Y-283977D01*
X1648448D01*
X1650987Y-286516D01*
Y-291595D01*
X1648448Y-294134D01*
X1640830D01*
X1645909D02*
X1650987Y-299212D01*
X1656065D02*
Y-289055D01*
X1661144Y-283977D01*
X1666222Y-289055D01*
Y-299212D01*
Y-291595D01*
X1656065D01*
X1671300D02*
X1681457D01*
X1686535Y-283977D02*
Y-299212D01*
X1694153D01*
X1696692Y-296673D01*
Y-294134D01*
X1694153Y-291595D01*
X1686535D01*
X1694153D01*
X1696692Y-289055D01*
Y-286516D01*
X1694153Y-283977D01*
X1686535D01*
X1701770Y-299212D02*
X1706849D01*
X1704310D01*
Y-283977D01*
X1701770Y-286516D01*
X1714466Y-291595D02*
X1724623D01*
X1739858Y-283977D02*
X1729701D01*
Y-299212D01*
X1739858D01*
X1729701Y-291595D02*
X1734780D01*
X1744937Y-283977D02*
Y-294134D01*
X1750015Y-299212D01*
X1755093Y-294134D01*
Y-283977D01*
X1760172D02*
Y-299212D01*
Y-294134D01*
X1770328Y-283977D01*
X1762711Y-291595D01*
X1770328Y-299212D01*
X1775407D02*
Y-296673D01*
X1777946D01*
Y-299212D01*
X1775407D01*
X1788103D02*
Y-283977D01*
X1795720D01*
X1798259Y-286516D01*
Y-291595D01*
X1795720Y-294134D01*
X1788103D01*
X1813494Y-289055D02*
X1805877D01*
X1803338Y-291595D01*
Y-296673D01*
X1805877Y-299212D01*
X1813494D01*
X1818573Y-283977D02*
Y-299212D01*
X1826190D01*
X1828729Y-296673D01*
Y-294134D01*
Y-291595D01*
X1826190Y-289055D01*
X1818573D01*
X1833808Y-283977D02*
Y-299212D01*
X1841425D01*
X1843964Y-296673D01*
Y-286516D01*
X1841425Y-283977D01*
X1833808D01*
X1851582Y-299212D02*
X1856660D01*
X1859200Y-296673D01*
Y-291595D01*
X1856660Y-289055D01*
X1851582D01*
X1849043Y-291595D01*
Y-296673D01*
X1851582Y-299212D01*
X1874435Y-289055D02*
X1866817D01*
X1864278Y-291595D01*
Y-296673D01*
X1866817Y-299212D01*
X1874435D01*
X924933Y-277057D02*
X923966Y-275123D01*
X922031Y-273188D01*
X920096Y-272220D01*
X916226D01*
X914292Y-273188D01*
X912357Y-275123D01*
X911389Y-277057D01*
X910422Y-279960D01*
Y-284797D01*
X911389Y-287699D01*
X912357Y-289634D01*
X914292Y-291569D01*
X916226Y-292536D01*
X920096D01*
X922031Y-291569D01*
X923966Y-289634D01*
X924933Y-287699D01*
X936445Y-272220D02*
X934510Y-273188D01*
X932576Y-275123D01*
X931608Y-277057D01*
X930641Y-279960D01*
Y-284797D01*
X931608Y-287699D01*
X932576Y-289634D01*
X934510Y-291569D01*
X936445Y-292536D01*
X940315D01*
X942250Y-291569D01*
X944185Y-289634D01*
X945152Y-287699D01*
X946120Y-284797D01*
Y-279960D01*
X945152Y-277057D01*
X944185Y-275123D01*
X942250Y-273188D01*
X940315Y-272220D01*
X936445D01*
X950860D02*
Y-292536D01*
Y-272220D02*
X964404Y-292536D01*
Y-272220D02*
Y-292536D01*
X970014Y-272220D02*
Y-292536D01*
Y-272220D02*
X982591D01*
X970014Y-281894D02*
X977754D01*
X984913Y-272220D02*
Y-292536D01*
X989169Y-272220D02*
Y-292536D01*
Y-272220D02*
X995941D01*
X998843Y-273188D01*
X1000778Y-275123D01*
X1001746Y-277057D01*
X1002713Y-279960D01*
Y-284797D01*
X1001746Y-287699D01*
X1000778Y-289634D01*
X998843Y-291569D01*
X995941Y-292536D01*
X989169D01*
X1019836Y-272220D02*
X1007260D01*
Y-292536D01*
X1019836D01*
X1007260Y-281894D02*
X1014999D01*
X1023222Y-272220D02*
Y-292536D01*
Y-272220D02*
X1036766Y-292536D01*
Y-272220D02*
Y-292536D01*
X1049149Y-272220D02*
Y-292536D01*
X1042377Y-272220D02*
X1055921D01*
X1058339D02*
Y-292536D01*
X1078074D02*
X1070335Y-272220D01*
X1062596Y-292536D01*
X1065498Y-285764D02*
X1075172D01*
X1082815Y-272220D02*
Y-292536D01*
X1094424D01*
X2253824Y1552444D02*
X2245360D01*
Y1539748D01*
X2253824D01*
X2245360Y1546096D02*
X2249592D01*
X2258056Y1539748D02*
Y1552444D01*
X2262288Y1548212D01*
X2266520Y1552444D01*
Y1539748D01*
X2277100Y1552444D02*
X2272868D01*
X2270752Y1550328D01*
Y1541864D01*
X2272868Y1539748D01*
X2277100D01*
X2279216Y1541864D01*
Y1550328D01*
X2277100Y1552444D01*
X2289796D02*
X2285564D01*
X2283448Y1550328D01*
Y1541864D01*
X2285564Y1539748D01*
X2289796D01*
X2291912Y1541864D01*
Y1550328D01*
X2289796Y1552444D01*
X2077720Y1539748D02*
X2081952D01*
X2079836D01*
Y1552444D01*
X2077720Y1550328D01*
X2088300Y1539748D02*
X2092532D01*
X2090416D01*
Y1552444D01*
X2088300Y1550328D01*
X2098880Y1539748D02*
X2107344Y1548212D01*
X2111576Y1539748D02*
X2115808D01*
X2113692D01*
Y1552444D01*
X2111576Y1550328D01*
X2130620Y1552444D02*
X2126388Y1550328D01*
X2122156Y1546096D01*
Y1541864D01*
X2124272Y1539748D01*
X2128504D01*
X2130620Y1541864D01*
Y1543980D01*
X2128504Y1546096D01*
X2122156D01*
X2134852Y1539748D02*
X2143315Y1548212D01*
X2156011Y1539748D02*
X2147547D01*
X2156011Y1548212D01*
Y1550328D01*
X2153895Y1552444D01*
X2149663D01*
X2147547Y1550328D01*
X2160243D02*
X2162359Y1552444D01*
X2166591D01*
X2168707Y1550328D01*
Y1541864D01*
X2166591Y1539748D01*
X2162359D01*
X2160243Y1541864D01*
Y1550328D01*
X2181403Y1539748D02*
X2172939D01*
X2181403Y1548212D01*
Y1550328D01*
X2179287Y1552444D01*
X2175055D01*
X2172939Y1550328D01*
X2185635D02*
X2187751Y1552444D01*
X2191983D01*
X2194099Y1550328D01*
Y1541864D01*
X2191983Y1539748D01*
X2187751D01*
X2185635Y1541864D01*
Y1550328D01*
X1608664Y1552444D02*
X1600200D01*
Y1539748D01*
X1608664D01*
X1600200Y1546096D02*
X1604432D01*
X1612896Y1539748D02*
Y1548212D01*
X1619244D01*
X1621360Y1546096D01*
Y1539748D01*
X1629824Y1535516D02*
X1631940D01*
X1634056Y1537632D01*
Y1548212D01*
X1627708D01*
X1625592Y1546096D01*
Y1541864D01*
X1627708Y1539748D01*
X1634056D01*
X1638288D02*
X1642520D01*
X1640404D01*
Y1548212D01*
X1638288D01*
X1648868Y1539748D02*
Y1548212D01*
X1655215D01*
X1657332Y1546096D01*
Y1539748D01*
X1667911D02*
X1663679D01*
X1661564Y1541864D01*
Y1546096D01*
X1663679Y1548212D01*
X1667911D01*
X1670027Y1546096D01*
Y1543980D01*
X1661564D01*
X1680607Y1539748D02*
X1676375D01*
X1674259Y1541864D01*
Y1546096D01*
X1676375Y1548212D01*
X1680607D01*
X1682723Y1546096D01*
Y1543980D01*
X1674259D01*
X1686955Y1548212D02*
Y1539748D01*
Y1543980D01*
X1689071Y1546096D01*
X1691187Y1548212D01*
X1693303D01*
X1699651Y1539748D02*
X1703883D01*
X1701767D01*
Y1548212D01*
X1699651D01*
X1710231Y1539748D02*
Y1548212D01*
X1716579D01*
X1718695Y1546096D01*
Y1539748D01*
X1727159Y1535516D02*
X1729275D01*
X1731391Y1537632D01*
Y1548212D01*
X1725043D01*
X1722927Y1546096D01*
Y1541864D01*
X1725043Y1539748D01*
X1731391D01*
X1756783Y1550328D02*
X1754667Y1552444D01*
X1750435D01*
X1748319Y1550328D01*
Y1548212D01*
X1750435Y1546096D01*
X1754667D01*
X1756783Y1543980D01*
Y1541864D01*
X1754667Y1539748D01*
X1750435D01*
X1748319Y1541864D01*
X1763130Y1548212D02*
X1767363D01*
X1769478Y1546096D01*
Y1539748D01*
X1763130D01*
X1761015Y1541864D01*
X1763130Y1543980D01*
X1769478D01*
X1773710Y1539748D02*
Y1548212D01*
X1775826D01*
X1777942Y1546096D01*
Y1539748D01*
Y1546096D01*
X1780058Y1548212D01*
X1782174Y1546096D01*
Y1539748D01*
X1786406Y1535516D02*
Y1548212D01*
X1792754D01*
X1794870Y1546096D01*
Y1541864D01*
X1792754Y1539748D01*
X1786406D01*
X1799102D02*
X1803334D01*
X1801218D01*
Y1552444D01*
X1799102D01*
X1816030Y1539748D02*
X1811798D01*
X1809682Y1541864D01*
Y1546096D01*
X1811798Y1548212D01*
X1816030D01*
X1818146Y1546096D01*
Y1543980D01*
X1809682D01*
X1835074Y1539748D02*
Y1552444D01*
X1841422D01*
X1843538Y1550328D01*
Y1546096D01*
X1841422Y1543980D01*
X1835074D01*
X1839306D02*
X1843538Y1539748D01*
X1854118D02*
X1849886D01*
X1847770Y1541864D01*
Y1546096D01*
X1849886Y1548212D01*
X1854118D01*
X1856234Y1546096D01*
Y1543980D01*
X1847770D01*
X1860466Y1539748D02*
X1864698D01*
X1862582D01*
Y1552444D01*
X1860466D01*
X1877393Y1539748D02*
X1873162D01*
X1871046Y1541864D01*
Y1546096D01*
X1873162Y1548212D01*
X1877393D01*
X1879509Y1546096D01*
Y1543980D01*
X1871046D01*
X1885857Y1548212D02*
X1890089D01*
X1892205Y1546096D01*
Y1539748D01*
X1885857D01*
X1883741Y1541864D01*
X1885857Y1543980D01*
X1892205D01*
X1896437Y1539748D02*
X1902785D01*
X1904901Y1541864D01*
X1902785Y1543980D01*
X1898553D01*
X1896437Y1546096D01*
X1898553Y1548212D01*
X1904901D01*
X1915481Y1539748D02*
X1911249D01*
X1909133Y1541864D01*
Y1546096D01*
X1911249Y1548212D01*
X1915481D01*
X1917597Y1546096D01*
Y1543980D01*
X1909133D01*
X1490980Y1539748D02*
Y1552444D01*
X1497328D01*
X1499444Y1550328D01*
Y1546096D01*
X1497328Y1543980D01*
X1490980D01*
X1495212D02*
X1499444Y1539748D01*
X1510024D02*
X1505792D01*
X1503676Y1541864D01*
Y1546096D01*
X1505792Y1548212D01*
X1510024D01*
X1512140Y1546096D01*
Y1543980D01*
X1503676D01*
X1516372Y1548212D02*
X1520604Y1539748D01*
X1524836Y1548212D01*
X1550228Y1550328D02*
X1548112Y1552444D01*
X1543880D01*
X1541763Y1550328D01*
Y1541864D01*
X1543880Y1539748D01*
X1548112D01*
X1550228Y1541864D01*
X1490980Y1577848D02*
Y1590544D01*
X1497328D01*
X1499444Y1588428D01*
Y1584196D01*
X1497328Y1582080D01*
X1490980D01*
X1495212D02*
X1499444Y1577848D01*
X1510024D02*
X1505792D01*
X1503676Y1579964D01*
Y1584196D01*
X1505792Y1586312D01*
X1510024D01*
X1512140Y1584196D01*
Y1582080D01*
X1503676D01*
X1516372Y1586312D02*
X1520604Y1577848D01*
X1524836Y1586312D01*
X1541763Y1590544D02*
Y1577848D01*
X1548112D01*
X1550228Y1579964D01*
Y1582080D01*
X1548112Y1584196D01*
X1541763D01*
X1548112D01*
X1550228Y1586312D01*
Y1588428D01*
X1548112Y1590544D01*
X1541763D01*
X1608664Y1588428D02*
X1606548Y1590544D01*
X1602316D01*
X1600200Y1588428D01*
Y1586312D01*
X1602316Y1584196D01*
X1606548D01*
X1608664Y1582080D01*
Y1579964D01*
X1606548Y1577848D01*
X1602316D01*
X1600200Y1579964D01*
X1619244Y1577848D02*
X1615012D01*
X1612896Y1579964D01*
Y1584196D01*
X1615012Y1586312D01*
X1619244D01*
X1621360Y1584196D01*
Y1582080D01*
X1612896D01*
X1634056Y1586312D02*
X1627708D01*
X1625592Y1584196D01*
Y1579964D01*
X1627708Y1577848D01*
X1634056D01*
X1640404D02*
X1644636D01*
X1646752Y1579964D01*
Y1584196D01*
X1644636Y1586312D01*
X1640404D01*
X1638288Y1584196D01*
Y1579964D01*
X1640404Y1577848D01*
X1650983D02*
Y1586312D01*
X1657332D01*
X1659447Y1584196D01*
Y1577848D01*
X1672143Y1590544D02*
Y1577848D01*
X1665795D01*
X1663679Y1579964D01*
Y1584196D01*
X1665795Y1586312D01*
X1672143D01*
X1689071Y1577848D02*
Y1590544D01*
X1695419D01*
X1697535Y1588428D01*
Y1584196D01*
X1695419Y1582080D01*
X1689071D01*
X1701767Y1586312D02*
Y1577848D01*
Y1582080D01*
X1703883Y1584196D01*
X1705999Y1586312D01*
X1708115D01*
X1716579Y1577848D02*
X1720811D01*
X1722927Y1579964D01*
Y1584196D01*
X1720811Y1586312D01*
X1716579D01*
X1714463Y1584196D01*
Y1579964D01*
X1716579Y1577848D01*
X1729275Y1588428D02*
Y1586312D01*
X1727159D01*
X1731391D01*
X1729275D01*
Y1579964D01*
X1731391Y1577848D01*
X1739855D02*
X1744087D01*
X1746203Y1579964D01*
Y1584196D01*
X1744087Y1586312D01*
X1739855D01*
X1737739Y1584196D01*
Y1579964D01*
X1739855Y1577848D01*
X1752551Y1588428D02*
Y1586312D01*
X1750435D01*
X1754667D01*
X1752551D01*
Y1579964D01*
X1754667Y1577848D01*
X1761015Y1586312D02*
Y1579964D01*
X1763130Y1577848D01*
X1769478D01*
Y1575732D01*
X1767363Y1573616D01*
X1765246D01*
X1769478Y1577848D02*
Y1586312D01*
X1773710Y1573616D02*
Y1586312D01*
X1780058D01*
X1782174Y1584196D01*
Y1579964D01*
X1780058Y1577848D01*
X1773710D01*
X1792754D02*
X1788522D01*
X1786406Y1579964D01*
Y1584196D01*
X1788522Y1586312D01*
X1792754D01*
X1794870Y1584196D01*
Y1582080D01*
X1786406D01*
X1811798Y1577848D02*
Y1590544D01*
X1818146D01*
X1820262Y1588428D01*
Y1584196D01*
X1818146Y1582080D01*
X1811798D01*
X1816030D02*
X1820262Y1577848D01*
X1830842D02*
X1826610D01*
X1824494Y1579964D01*
Y1584196D01*
X1826610Y1586312D01*
X1830842D01*
X1832958Y1584196D01*
Y1582080D01*
X1824494D01*
X1837190Y1577848D02*
X1841422D01*
X1839306D01*
Y1590544D01*
X1837190D01*
X1854118Y1577848D02*
X1849886D01*
X1847770Y1579964D01*
Y1584196D01*
X1849886Y1586312D01*
X1854118D01*
X1856234Y1584196D01*
Y1582080D01*
X1847770D01*
X1862582Y1586312D02*
X1866814D01*
X1868930Y1584196D01*
Y1577848D01*
X1862582D01*
X1860466Y1579964D01*
X1862582Y1582080D01*
X1868930D01*
X1873162Y1577848D02*
X1879509D01*
X1881626Y1579964D01*
X1879509Y1582080D01*
X1875278D01*
X1873162Y1584196D01*
X1875278Y1586312D01*
X1881626D01*
X1892205Y1577848D02*
X1887973D01*
X1885857Y1579964D01*
Y1584196D01*
X1887973Y1586312D01*
X1892205D01*
X1894321Y1584196D01*
Y1582080D01*
X1885857D01*
X2077720Y1579964D02*
X2079836Y1577848D01*
X2084068D01*
X2086184Y1579964D01*
Y1588428D01*
X2084068Y1590544D01*
X2079836D01*
X2077720Y1588428D01*
Y1586312D01*
X2079836Y1584196D01*
X2086184D01*
X2090416Y1577848D02*
X2098880Y1586312D01*
X2103112Y1577848D02*
X2107344D01*
X2105228D01*
Y1590544D01*
X2103112Y1588428D01*
X2122156Y1590544D02*
X2117924Y1588428D01*
X2113692Y1584196D01*
Y1579964D01*
X2115808Y1577848D01*
X2120040D01*
X2122156Y1579964D01*
Y1582080D01*
X2120040Y1584196D01*
X2113692D01*
X2126388Y1577848D02*
X2134852Y1586312D01*
X2147547Y1577848D02*
X2139084D01*
X2147547Y1586312D01*
Y1588428D01*
X2145431Y1590544D01*
X2141199D01*
X2139084Y1588428D01*
X2151779D02*
X2153895Y1590544D01*
X2158127D01*
X2160243Y1588428D01*
Y1579964D01*
X2158127Y1577848D01*
X2153895D01*
X2151779Y1579964D01*
Y1588428D01*
X2172939Y1577848D02*
X2164475D01*
X2172939Y1586312D01*
Y1588428D01*
X2170823Y1590544D01*
X2166591D01*
X2164475Y1588428D01*
X2177171D02*
X2179287Y1590544D01*
X2183519D01*
X2185635Y1588428D01*
Y1579964D01*
X2183519Y1577848D01*
X2179287D01*
X2177171Y1579964D01*
Y1588428D01*
X2253824Y1590544D02*
X2245360D01*
Y1577848D01*
X2253824D01*
X2245360Y1584196D02*
X2249592D01*
X2258056Y1577848D02*
Y1590544D01*
X2262288Y1586312D01*
X2266520Y1590544D01*
Y1577848D01*
X2277100Y1590544D02*
X2272868D01*
X2270752Y1588428D01*
Y1579964D01*
X2272868Y1577848D01*
X2277100D01*
X2279216Y1579964D01*
Y1588428D01*
X2277100Y1590544D01*
X2289796D02*
X2285564D01*
X2283448Y1588428D01*
Y1579964D01*
X2285564Y1577848D01*
X2289796D01*
X2291912Y1579964D01*
Y1588428D01*
X2289796Y1590544D01*
X2253824Y1628644D02*
X2245360D01*
Y1615948D01*
X2253824D01*
X2245360Y1622296D02*
X2249592D01*
X2258056Y1615948D02*
Y1628644D01*
X2262288Y1624412D01*
X2266520Y1628644D01*
Y1615948D01*
X2277100Y1628644D02*
X2272868D01*
X2270752Y1626528D01*
Y1618064D01*
X2272868Y1615948D01*
X2277100D01*
X2279216Y1618064D01*
Y1626528D01*
X2277100Y1628644D01*
X2289796D02*
X2285564D01*
X2283448Y1626528D01*
Y1618064D01*
X2285564Y1615948D01*
X2289796D01*
X2291912Y1618064D01*
Y1626528D01*
X2289796Y1628644D01*
X2077720Y1626104D02*
X2086184D01*
Y1623988D01*
X2077720Y1615524D01*
Y1613408D01*
X2090416D02*
X2098880Y1621872D01*
X2111576Y1613408D02*
X2103112D01*
X2111576Y1621872D01*
Y1623988D01*
X2109460Y1626104D01*
X2105228D01*
X2103112Y1623988D01*
X2115808D02*
X2117924Y1626104D01*
X2122156D01*
X2124272Y1623988D01*
Y1615524D01*
X2122156Y1613408D01*
X2117924D01*
X2115808Y1615524D01*
Y1623988D01*
X2128504Y1613408D02*
X2136967Y1621872D01*
X2149663Y1613408D02*
X2141199D01*
X2149663Y1621872D01*
Y1623988D01*
X2147547Y1626104D01*
X2143315D01*
X2141199Y1623988D01*
X2153895D02*
X2156011Y1626104D01*
X2160243D01*
X2162359Y1623988D01*
Y1615524D01*
X2160243Y1613408D01*
X2156011D01*
X2153895Y1615524D01*
Y1623988D01*
X2175055Y1613408D02*
X2166591D01*
X2175055Y1621872D01*
Y1623988D01*
X2172939Y1626104D01*
X2168707D01*
X2166591Y1623988D01*
X2179287D02*
X2181403Y1626104D01*
X2185635D01*
X2187751Y1623988D01*
Y1615524D01*
X2185635Y1613408D01*
X2181403D01*
X2179287Y1615524D01*
Y1623988D01*
X1600200Y1628644D02*
X1604432D01*
X1602316D01*
Y1615948D01*
X1600200D01*
X1604432D01*
X1610780D02*
Y1624412D01*
X1617128D01*
X1619244Y1622296D01*
Y1615948D01*
X1623476D02*
X1627708D01*
X1625592D01*
Y1624412D01*
X1623476D01*
X1636172Y1626528D02*
Y1624412D01*
X1634056D01*
X1638288D01*
X1636172D01*
Y1618064D01*
X1638288Y1615948D01*
X1644636D02*
X1648868D01*
X1646752D01*
Y1624412D01*
X1644636D01*
X1657332D02*
X1661564D01*
X1663680Y1622296D01*
Y1615948D01*
X1657332D01*
X1655215Y1618064D01*
X1657332Y1620180D01*
X1663680D01*
X1667911Y1615948D02*
X1672143D01*
X1670027D01*
Y1628644D01*
X1667911D01*
X1691187Y1615948D02*
Y1628644D01*
X1697535D01*
X1699651Y1626528D01*
Y1622296D01*
X1697535Y1620180D01*
X1691187D01*
X1703883Y1624412D02*
Y1615948D01*
Y1620180D01*
X1705999Y1622296D01*
X1708115Y1624412D01*
X1710231D01*
X1718695Y1615948D02*
X1722927D01*
X1725043Y1618064D01*
Y1622296D01*
X1722927Y1624412D01*
X1718695D01*
X1716579Y1622296D01*
Y1618064D01*
X1718695Y1615948D01*
X1731391Y1626528D02*
Y1624412D01*
X1729275D01*
X1733507D01*
X1731391D01*
Y1618064D01*
X1733507Y1615948D01*
X1741971D02*
X1746203D01*
X1748319Y1618064D01*
Y1622296D01*
X1746203Y1624412D01*
X1741971D01*
X1739855Y1622296D01*
Y1618064D01*
X1741971Y1615948D01*
X1754667Y1626528D02*
Y1624412D01*
X1752551D01*
X1756783D01*
X1754667D01*
Y1618064D01*
X1756783Y1615948D01*
X1763131Y1624412D02*
Y1618064D01*
X1765247Y1615948D01*
X1771595D01*
Y1613832D01*
X1769478Y1611716D01*
X1767363D01*
X1771595Y1615948D02*
Y1624412D01*
X1775827Y1611716D02*
Y1624412D01*
X1782174D01*
X1784290Y1622296D01*
Y1618064D01*
X1782174Y1615948D01*
X1775827D01*
X1794870D02*
X1790638D01*
X1788522Y1618064D01*
Y1622296D01*
X1790638Y1624412D01*
X1794870D01*
X1796986Y1622296D01*
Y1620180D01*
X1788522D01*
X1813914Y1615948D02*
Y1628644D01*
X1820262D01*
X1822378Y1626528D01*
Y1622296D01*
X1820262Y1620180D01*
X1813914D01*
X1818146D02*
X1822378Y1615948D01*
X1832958D02*
X1828726D01*
X1826610Y1618064D01*
Y1622296D01*
X1828726Y1624412D01*
X1832958D01*
X1835074Y1622296D01*
Y1620180D01*
X1826610D01*
X1839306Y1615948D02*
X1843538D01*
X1841422D01*
Y1628644D01*
X1839306D01*
X1856234Y1615948D02*
X1852002D01*
X1849886Y1618064D01*
Y1622296D01*
X1852002Y1624412D01*
X1856234D01*
X1858350Y1622296D01*
Y1620180D01*
X1849886D01*
X1864698Y1624412D02*
X1868930D01*
X1871046Y1622296D01*
Y1615948D01*
X1864698D01*
X1862582Y1618064D01*
X1864698Y1620180D01*
X1871046D01*
X1875278Y1615948D02*
X1881626D01*
X1883741Y1618064D01*
X1881626Y1620180D01*
X1877394D01*
X1875278Y1622296D01*
X1877394Y1624412D01*
X1883741D01*
X1894321Y1615948D02*
X1890089D01*
X1887973Y1618064D01*
Y1622296D01*
X1890089Y1624412D01*
X1894321D01*
X1896437Y1622296D01*
Y1620180D01*
X1887973D01*
X1490980Y1615948D02*
Y1628644D01*
X1497328D01*
X1499444Y1626528D01*
Y1622296D01*
X1497328Y1620180D01*
X1490980D01*
X1495212D02*
X1499444Y1615948D01*
X1510024D02*
X1505792D01*
X1503676Y1618064D01*
Y1622296D01*
X1505792Y1624412D01*
X1510024D01*
X1512140Y1622296D01*
Y1620180D01*
X1503676D01*
X1516372Y1624412D02*
X1520604Y1615948D01*
X1524836Y1624412D01*
X1541763Y1615948D02*
Y1624412D01*
X1545995Y1628644D01*
X1550228Y1624412D01*
Y1615948D01*
Y1622296D01*
X1541763D01*
X2258060Y1669283D02*
Y1654048D01*
X2265677D01*
X2268217Y1656587D01*
Y1659126D01*
X2265677Y1661665D01*
X2258060D01*
X2265677D01*
X2268217Y1664205D01*
Y1666744D01*
X2265677Y1669283D01*
X2258060D01*
X2273295D02*
Y1666744D01*
X2278373Y1661665D01*
X2283452Y1666744D01*
Y1669283D01*
X2278373Y1661665D02*
Y1654048D01*
X2098040Y1669283D02*
Y1654048D01*
X2105658D01*
X2108197Y1656587D01*
Y1666744D01*
X2105658Y1669283D01*
X2098040D01*
X2113275Y1654048D02*
Y1664205D01*
X2118353Y1669283D01*
X2123432Y1664205D01*
Y1654048D01*
Y1661665D01*
X2113275D01*
X2128510Y1669283D02*
X2138667D01*
X2133589D01*
Y1654048D01*
X2153902Y1669283D02*
X2143745D01*
Y1654048D01*
X2153902D01*
X2143745Y1661665D02*
X2148824D01*
X1600200Y1669283D02*
Y1654048D01*
X1607818D01*
X1610357Y1656587D01*
Y1666744D01*
X1607818Y1669283D01*
X1600200D01*
X1625592D02*
X1615435D01*
Y1654048D01*
X1625592D01*
X1615435Y1661665D02*
X1620513D01*
X1640827Y1666744D02*
X1638288Y1669283D01*
X1633209D01*
X1630670Y1666744D01*
Y1664205D01*
X1633209Y1661665D01*
X1638288D01*
X1640827Y1659126D01*
Y1656587D01*
X1638288Y1654048D01*
X1633209D01*
X1630670Y1656587D01*
X1656062Y1666744D02*
X1653523Y1669283D01*
X1648444D01*
X1645905Y1666744D01*
Y1656587D01*
X1648444Y1654048D01*
X1653523D01*
X1656062Y1656587D01*
X1661140Y1654048D02*
Y1669283D01*
X1668758D01*
X1671297Y1666744D01*
Y1661665D01*
X1668758Y1659126D01*
X1661140D01*
X1666219D02*
X1671297Y1654048D01*
X1676375Y1669283D02*
X1681454D01*
X1678914D01*
Y1654048D01*
X1676375D01*
X1681454D01*
X1689071D02*
Y1669283D01*
X1696689D01*
X1699228Y1666744D01*
Y1661665D01*
X1696689Y1659126D01*
X1689071D01*
X1704306Y1669283D02*
X1714463D01*
X1709385D01*
Y1654048D01*
X1719541Y1669283D02*
X1724620D01*
X1722081D01*
Y1654048D01*
X1719541D01*
X1724620D01*
X1739855Y1669283D02*
X1734776D01*
X1732237Y1666744D01*
Y1656587D01*
X1734776Y1654048D01*
X1739855D01*
X1742394Y1656587D01*
Y1666744D01*
X1739855Y1669283D01*
X1747472Y1654048D02*
Y1669283D01*
X1757629Y1654048D01*
Y1669283D01*
X1490980Y1654048D02*
Y1669283D01*
X1498598D01*
X1501137Y1666744D01*
Y1661665D01*
X1498598Y1659126D01*
X1490980D01*
X1496058D02*
X1501137Y1654048D01*
X1516372Y1669283D02*
X1506215D01*
Y1654048D01*
X1516372D01*
X1506215Y1661665D02*
X1511293D01*
X1521450Y1669283D02*
Y1659126D01*
X1526528Y1654048D01*
X1531607Y1659126D01*
Y1669283D01*
X1849120Y1697228D02*
Y1717541D01*
X1859277D01*
X1862662Y1714156D01*
Y1707385D01*
X1859277Y1703999D01*
X1849120D01*
X1855891D02*
X1862662Y1697228D01*
X1882976Y1717541D02*
X1869433D01*
Y1697228D01*
X1882976D01*
X1869433Y1707385D02*
X1876205D01*
X1889747Y1717541D02*
Y1703999D01*
X1896518Y1697228D01*
X1903289Y1703999D01*
Y1717541D01*
X1910060D02*
X1916831D01*
X1913446D01*
Y1697228D01*
X1910060D01*
X1916831D01*
X1940530Y1714156D02*
X1937145Y1717541D01*
X1930374D01*
X1926988Y1714156D01*
Y1710770D01*
X1930374Y1707385D01*
X1937145D01*
X1940530Y1703999D01*
Y1700614D01*
X1937145Y1697228D01*
X1930374D01*
X1926988Y1700614D01*
X1947301Y1717541D02*
X1954073D01*
X1950687D01*
Y1697228D01*
X1947301D01*
X1954073D01*
X1974386Y1717541D02*
X1967615D01*
X1964229Y1714156D01*
Y1700614D01*
X1967615Y1697228D01*
X1974386D01*
X1977772Y1700614D01*
Y1714156D01*
X1974386Y1717541D01*
X1984543Y1697228D02*
Y1717541D01*
X1998085Y1697228D01*
Y1717541D01*
D15*
X2045134Y455289D02*
X2278814D01*
X2045134D02*
Y479419D01*
X2278814Y455289D02*
Y479419D01*
X2045134D02*
X2278814D01*
D17*
X2069264Y467354D02*
D03*
D18*
X2207200Y-300390D02*
X2211432D01*
X2209316D01*
Y-287694D01*
X2207200Y-289810D01*
X2217780Y-291926D02*
X2219896D01*
Y-294042D01*
X2217780D01*
Y-291926D01*
Y-298274D02*
X2219896D01*
Y-300390D01*
X2217780D01*
Y-298274D01*
X2228360Y-300390D02*
X2232592D01*
X2230476D01*
Y-287694D01*
X2228360Y-289810D01*
X2363410Y-102528D02*
Y-120304D01*
Y-102528D02*
X2369335D01*
X2371875Y-103374D01*
X2373568Y-105067D01*
X2374414Y-106760D01*
X2375261Y-109300D01*
Y-113532D01*
X2374414Y-116072D01*
X2373568Y-117765D01*
X2371875Y-119458D01*
X2369335Y-120304D01*
X2363410D01*
X2376107Y431720D02*
X2375261Y433413D01*
X2373568Y435106D01*
X2371875Y435952D01*
X2368489D01*
X2366796Y435106D01*
X2365103Y433413D01*
X2364256Y431720D01*
X2363410Y429180D01*
Y424948D01*
X2364256Y422408D01*
X2365103Y420715D01*
X2366796Y419022D01*
X2368489Y418176D01*
X2371875D01*
X2373568Y419022D01*
X2375261Y420715D01*
X2376107Y422408D01*
X2363410Y975702D02*
Y957926D01*
Y975702D02*
X2371028D01*
X2373568Y974856D01*
X2374414Y974009D01*
X2375261Y972316D01*
Y970623D01*
X2374414Y968930D01*
X2373568Y968084D01*
X2371028Y967237D01*
X2363410D02*
X2371028D01*
X2373568Y966391D01*
X2374414Y965544D01*
X2375261Y963851D01*
Y961312D01*
X2374414Y959619D01*
X2373568Y958773D01*
X2371028Y957926D01*
X2363410D01*
X2376954Y1497676D02*
X2370182Y1515452D01*
X2363410Y1497676D01*
X2365950Y1503601D02*
X2374414D01*
X2047520Y1774024D02*
X2039055Y1762173D01*
X2051752D01*
X2047520Y1774024D02*
Y1756248D01*
X1341991Y1774024D02*
X1351302D01*
X1346223Y1767252D01*
X1348763D01*
X1350456Y1766406D01*
X1351302Y1765559D01*
X1352149Y1763020D01*
Y1761327D01*
X1351302Y1758788D01*
X1349609Y1757095D01*
X1347070Y1756248D01*
X1344530D01*
X1341991Y1757095D01*
X1341145Y1757941D01*
X1340298Y1759634D01*
X643914Y1769792D02*
Y1770638D01*
X644761Y1772331D01*
X645608Y1773178D01*
X647300Y1774024D01*
X650686D01*
X652379Y1773178D01*
X653226Y1772331D01*
X654072Y1770638D01*
Y1768945D01*
X653226Y1767252D01*
X651533Y1764713D01*
X643068Y1756248D01*
X654919D01*
X-55600Y1770638D02*
X-53907Y1771485D01*
X-51368Y1774024D01*
Y1756248D01*
X2047520Y-334176D02*
X2039055Y-346027D01*
X2051752D01*
X2047520Y-334176D02*
Y-351952D01*
X1341991Y-334176D02*
X1351302D01*
X1346223Y-340948D01*
X1348763D01*
X1350456Y-341794D01*
X1351302Y-342641D01*
X1352149Y-345180D01*
Y-346873D01*
X1351302Y-349412D01*
X1349609Y-351105D01*
X1347070Y-351952D01*
X1344530D01*
X1341991Y-351105D01*
X1341145Y-350259D01*
X1340298Y-348566D01*
X643914Y-338408D02*
Y-337562D01*
X644761Y-335869D01*
X645608Y-335022D01*
X647300Y-334176D01*
X650686D01*
X652379Y-335022D01*
X653226Y-335869D01*
X654072Y-337562D01*
Y-339255D01*
X653226Y-340948D01*
X651533Y-343487D01*
X643068Y-351952D01*
X654919D01*
X-55600Y-337562D02*
X-53907Y-336715D01*
X-51368Y-334176D01*
Y-351952D01*
X-379790Y-102528D02*
Y-120304D01*
Y-102528D02*
X-373865D01*
X-371325Y-103374D01*
X-369632Y-105067D01*
X-368786Y-106760D01*
X-367939Y-109300D01*
Y-113532D01*
X-368786Y-116072D01*
X-369632Y-117765D01*
X-371325Y-119458D01*
X-373865Y-120304D01*
X-379790D01*
X-367093Y431720D02*
X-367939Y433413D01*
X-369632Y435106D01*
X-371325Y435952D01*
X-374711D01*
X-376404Y435106D01*
X-378097Y433413D01*
X-378943Y431720D01*
X-379790Y429180D01*
Y424948D01*
X-378943Y422408D01*
X-378097Y420715D01*
X-376404Y419022D01*
X-374711Y418176D01*
X-371325D01*
X-369632Y419022D01*
X-367939Y420715D01*
X-367093Y422408D01*
X-379790Y975702D02*
Y957926D01*
Y975702D02*
X-372172D01*
X-369632Y974856D01*
X-368786Y974009D01*
X-367939Y972316D01*
Y970623D01*
X-368786Y968930D01*
X-369632Y968084D01*
X-372172Y967237D01*
X-379790D02*
X-372172D01*
X-369632Y966391D01*
X-368786Y965544D01*
X-367939Y963851D01*
Y961312D01*
X-368786Y959619D01*
X-369632Y958773D01*
X-372172Y957926D01*
X-379790D01*
X-366246Y1497676D02*
X-373018Y1515452D01*
X-379790Y1497676D01*
X-377251Y1503601D02*
X-368786D01*
D19*
X2057834Y633085D02*
Y612769D01*
X2069443D01*
X2087147D02*
X2079407Y633085D01*
X2071668Y612769D01*
X2074570Y619541D02*
X2084244D01*
X2091887Y633085D02*
X2099626Y623410D01*
Y612769D01*
X2107366Y633085D02*
X2099626Y623410D01*
X2122554Y633085D02*
X2109978D01*
Y612769D01*
X2122554D01*
X2109978Y623410D02*
X2117717D01*
X2125940Y633085D02*
Y612769D01*
Y633085D02*
X2134647D01*
X2137549Y632117D01*
X2138516Y631150D01*
X2139484Y629215D01*
Y627280D01*
X2138516Y625345D01*
X2137549Y624378D01*
X2134647Y623410D01*
X2125940D01*
X2132712D02*
X2139484Y612769D01*
X2159993Y633085D02*
Y618573D01*
X2160960Y615671D01*
X2162895Y613736D01*
X2165797Y612769D01*
X2167732D01*
X2170634Y613736D01*
X2172569Y615671D01*
X2173537Y618573D01*
Y633085D01*
X2192691Y630182D02*
X2190757Y632117D01*
X2187854Y633085D01*
X2183985D01*
X2181082Y632117D01*
X2179147Y630182D01*
Y628248D01*
X2180115Y626313D01*
X2181082Y625345D01*
X2183017Y624378D01*
X2188822Y622443D01*
X2190757Y621476D01*
X2191724Y620508D01*
X2192691Y618573D01*
Y615671D01*
X2190757Y613736D01*
X2187854Y612769D01*
X2183985D01*
X2181082Y613736D01*
X2179147Y615671D01*
X2212717Y612769D02*
X2204977Y633085D01*
X2197238Y612769D01*
X2200140Y619541D02*
X2209814D01*
X2231968Y628248D02*
X2231001Y630182D01*
X2229066Y632117D01*
X2227131Y633085D01*
X2223262D01*
X2221327Y632117D01*
X2219392Y630182D01*
X2218424Y628248D01*
X2217457Y625345D01*
Y620508D01*
X2218424Y617606D01*
X2219392Y615671D01*
X2221327Y613736D01*
X2223262Y612769D01*
X2227131D01*
X2229066Y613736D01*
X2231001Y615671D01*
X2231968Y617606D01*
Y620508D01*
X2227131D02*
X2231968D01*
X2249188Y633085D02*
X2236612D01*
Y612769D01*
X2249188D01*
X2236612Y623410D02*
X2244351D01*
D197*
X408858Y21590D02*
Y24922D01*
Y23256D01*
X403860D01*
Y26588D02*
X408858D01*
Y29088D01*
X408025Y29921D01*
X406359D01*
X405526Y29088D01*
Y26588D01*
X408025Y31587D02*
X408858Y32420D01*
Y34086D01*
X408025Y34919D01*
X407192D01*
X406359Y34086D01*
X405526Y34919D01*
X404693D01*
X403860Y34086D01*
Y32420D01*
X404693Y31587D01*
X405526D01*
X406359Y32420D01*
X407192Y31587D01*
X408025D01*
X406359Y32420D02*
Y34086D01*
X403860Y39917D02*
Y36585D01*
X407192Y39917D01*
X408025D01*
X408858Y39084D01*
Y37418D01*
X408025Y36585D01*
X434258Y21590D02*
Y24922D01*
Y23256D01*
X429260D01*
Y26588D02*
X434258D01*
Y29088D01*
X433425Y29921D01*
X431759D01*
X430926Y29088D01*
Y26588D01*
X433425Y31587D02*
X434258Y32420D01*
Y34086D01*
X433425Y34919D01*
X432592D01*
X431759Y34086D01*
X430926Y34919D01*
X430093D01*
X429260Y34086D01*
Y32420D01*
X430093Y31587D01*
X430926D01*
X431759Y32420D01*
X432592Y31587D01*
X433425D01*
X431759Y32420D02*
Y34086D01*
X429260Y36585D02*
Y38251D01*
Y37418D01*
X434258D01*
X433425Y36585D01*
X459658Y21590D02*
Y24922D01*
Y23256D01*
X454660D01*
Y26588D02*
X459658D01*
Y29088D01*
X458825Y29921D01*
X457159D01*
X456326Y29088D01*
Y26588D01*
X458825Y31587D02*
X459658Y32420D01*
Y34086D01*
X458825Y34919D01*
X457992D01*
X457159Y34086D01*
X456326Y34919D01*
X455493D01*
X454660Y34086D01*
Y32420D01*
X455493Y31587D01*
X456326D01*
X457159Y32420D01*
X457992Y31587D01*
X458825D01*
X457159Y32420D02*
Y34086D01*
X458825Y36585D02*
X459658Y37418D01*
Y39084D01*
X458825Y39917D01*
X455493D01*
X454660Y39084D01*
Y37418D01*
X455493Y36585D01*
X458825D01*
X510458Y21590D02*
Y24922D01*
Y23256D01*
X505460D01*
Y26588D02*
X510458D01*
Y29088D01*
X509625Y29921D01*
X507959D01*
X507126Y29088D01*
Y26588D01*
X510458Y31587D02*
Y34919D01*
X509625D01*
X506293Y31587D01*
X505460D01*
X506293Y36585D02*
X505460Y37418D01*
Y39084D01*
X506293Y39917D01*
X509625D01*
X510458Y39084D01*
Y37418D01*
X509625Y36585D01*
X508792D01*
X507959Y37418D01*
Y39917D01*
X535858Y21590D02*
Y24922D01*
Y23256D01*
X530860D01*
Y26588D02*
X535858D01*
Y29088D01*
X535025Y29921D01*
X533359D01*
X532526Y29088D01*
Y26588D01*
X535858Y31587D02*
Y34919D01*
X535025D01*
X531693Y31587D01*
X530860D01*
X535025Y36585D02*
X535858Y37418D01*
Y39084D01*
X535025Y39917D01*
X534192D01*
X533359Y39084D01*
X532526Y39917D01*
X531693D01*
X530860Y39084D01*
Y37418D01*
X531693Y36585D01*
X532526D01*
X533359Y37418D01*
X534192Y36585D01*
X535025D01*
X533359Y37418D02*
Y39084D01*
X835832Y286004D02*
Y289336D01*
Y287670D01*
X830834D01*
Y291002D02*
X835832D01*
Y293501D01*
X834999Y294335D01*
X833333D01*
X832500Y293501D01*
Y291002D01*
X835832Y296001D02*
Y299333D01*
X834999D01*
X831667Y296001D01*
X830834D01*
X835832Y304331D02*
Y300999D01*
X833333D01*
X834166Y302665D01*
Y303498D01*
X833333Y304331D01*
X831667D01*
X830834Y303498D01*
Y301832D01*
X831667Y300999D01*
X892982Y286004D02*
Y289336D01*
Y287670D01*
X887984D01*
Y291002D02*
X892982D01*
Y293501D01*
X892149Y294335D01*
X890483D01*
X889650Y293501D01*
Y291002D01*
X892982Y296001D02*
Y299333D01*
X892149D01*
X888817Y296001D01*
X887984D01*
Y303498D02*
X892982D01*
X890483Y300999D01*
Y304331D01*
X835832Y311341D02*
Y314673D01*
Y313007D01*
X830834D01*
Y316339D02*
X835832D01*
Y318838D01*
X834999Y319671D01*
X833333D01*
X832500Y318838D01*
Y316339D01*
X835832Y321337D02*
Y324669D01*
X834999D01*
X831667Y321337D01*
X830834D01*
X834999Y326336D02*
X835832Y327169D01*
Y328835D01*
X834999Y329668D01*
X834166D01*
X833333Y328835D01*
Y328002D01*
Y328835D01*
X832500Y329668D01*
X831667D01*
X830834Y328835D01*
Y327169D01*
X831667Y326336D01*
X892982Y311341D02*
Y314673D01*
Y313007D01*
X887984D01*
Y316339D02*
X892982D01*
Y318838D01*
X892149Y319671D01*
X890483D01*
X889650Y318838D01*
Y316339D01*
X892982Y321337D02*
Y324669D01*
X892149D01*
X888817Y321337D01*
X887984D01*
Y329668D02*
Y326336D01*
X891316Y329668D01*
X892149D01*
X892982Y328835D01*
Y327169D01*
X892149Y326336D01*
X835832Y336677D02*
Y340009D01*
Y338343D01*
X830834D01*
Y341675D02*
X835832D01*
Y344174D01*
X834999Y345008D01*
X833333D01*
X832500Y344174D01*
Y341675D01*
X835832Y346674D02*
Y350006D01*
X834999D01*
X831667Y346674D01*
X830834D01*
Y351672D02*
Y353338D01*
Y352505D01*
X835832D01*
X834999Y351672D01*
X892982Y336677D02*
Y340009D01*
Y338343D01*
X887984D01*
Y341675D02*
X892982D01*
Y344174D01*
X892149Y345008D01*
X890483D01*
X889650Y344174D01*
Y341675D01*
X892982Y346674D02*
Y350006D01*
X892149D01*
X888817Y346674D01*
X887984D01*
X892149Y351672D02*
X892982Y352505D01*
Y354171D01*
X892149Y355004D01*
X888817D01*
X887984Y354171D01*
Y352505D01*
X888817Y351672D01*
X892149D01*
X835832Y362014D02*
Y365346D01*
Y363680D01*
X830834D01*
Y367012D02*
X835832D01*
Y369511D01*
X834999Y370344D01*
X833333D01*
X832500Y369511D01*
Y367012D01*
X835832Y375342D02*
X834999Y373676D01*
X833333Y372010D01*
X831667D01*
X830834Y372843D01*
Y374509D01*
X831667Y375342D01*
X832500D01*
X833333Y374509D01*
Y372010D01*
X831667Y377009D02*
X830834Y377842D01*
Y379508D01*
X831667Y380341D01*
X834999D01*
X835832Y379508D01*
Y377842D01*
X834999Y377009D01*
X834166D01*
X833333Y377842D01*
Y380341D01*
X892982Y362014D02*
Y365346D01*
Y363680D01*
X887984D01*
Y367012D02*
X892982D01*
Y369511D01*
X892149Y370344D01*
X890483D01*
X889650Y369511D01*
Y367012D01*
X892982Y375342D02*
X892149Y373676D01*
X890483Y372010D01*
X888817D01*
X887984Y372843D01*
Y374509D01*
X888817Y375342D01*
X889650D01*
X890483Y374509D01*
Y372010D01*
X892149Y377009D02*
X892982Y377842D01*
Y379508D01*
X892149Y380341D01*
X891316D01*
X890483Y379508D01*
X889650Y380341D01*
X888817D01*
X887984Y379508D01*
Y377842D01*
X888817Y377009D01*
X889650D01*
X890483Y377842D01*
X891316Y377009D01*
X892149D01*
X890483Y377842D02*
Y379508D01*
X835832Y387350D02*
Y390682D01*
Y389016D01*
X830834D01*
Y392348D02*
X835832D01*
Y394847D01*
X834999Y395681D01*
X833333D01*
X832500Y394847D01*
Y392348D01*
X835832Y400679D02*
X834999Y399013D01*
X833333Y397347D01*
X831667D01*
X830834Y398180D01*
Y399846D01*
X831667Y400679D01*
X832500D01*
X833333Y399846D01*
Y397347D01*
X835832Y402345D02*
Y405677D01*
X834999D01*
X831667Y402345D01*
X830834D01*
X892982Y387350D02*
Y390682D01*
Y389016D01*
X887984D01*
Y392348D02*
X892982D01*
Y394847D01*
X892149Y395681D01*
X890483D01*
X889650Y394847D01*
Y392348D01*
X892982Y400679D02*
X892149Y399013D01*
X890483Y397347D01*
X888817D01*
X887984Y398180D01*
Y399846D01*
X888817Y400679D01*
X889650D01*
X890483Y399846D01*
Y397347D01*
X892982Y405677D02*
X892149Y404011D01*
X890483Y402345D01*
X888817D01*
X887984Y403178D01*
Y404844D01*
X888817Y405677D01*
X889650D01*
X890483Y404844D01*
Y402345D01*
X835832Y488696D02*
Y492028D01*
Y490362D01*
X830834D01*
Y493694D02*
X835832D01*
Y496194D01*
X834999Y497027D01*
X833333D01*
X832500Y496194D01*
Y493694D01*
X835832Y502025D02*
Y498693D01*
X833333D01*
X834166Y500359D01*
Y501192D01*
X833333Y502025D01*
X831667D01*
X830834Y501192D01*
Y499526D01*
X831667Y498693D01*
X835832Y503691D02*
Y507023D01*
X834999D01*
X831667Y503691D01*
X830834D01*
X892982Y488696D02*
Y492028D01*
Y490362D01*
X887984D01*
Y493694D02*
X892982D01*
Y496194D01*
X892149Y497027D01*
X890483D01*
X889650Y496194D01*
Y493694D01*
X892982Y502025D02*
Y498693D01*
X890483D01*
X891316Y500359D01*
Y501192D01*
X890483Y502025D01*
X888817D01*
X887984Y501192D01*
Y499526D01*
X888817Y498693D01*
X892982Y507023D02*
X892149Y505357D01*
X890483Y503691D01*
X888817D01*
X887984Y504524D01*
Y506190D01*
X888817Y507023D01*
X889650D01*
X890483Y506190D01*
Y503691D01*
X88818Y524510D02*
Y527842D01*
Y526176D01*
X83820D01*
Y529508D02*
X88818D01*
Y532007D01*
X87985Y532841D01*
X86319D01*
X85486Y532007D01*
Y529508D01*
X88818Y537839D02*
Y534507D01*
X86319D01*
X87152Y536173D01*
Y537006D01*
X86319Y537839D01*
X84653D01*
X83820Y537006D01*
Y535340D01*
X84653Y534507D01*
X88818Y542837D02*
Y539505D01*
X86319D01*
X87152Y541171D01*
Y542004D01*
X86319Y542837D01*
X84653D01*
X83820Y542004D01*
Y540338D01*
X84653Y539505D01*
X114218Y524510D02*
Y527842D01*
Y526176D01*
X109220D01*
Y529508D02*
X114218D01*
Y532007D01*
X113385Y532841D01*
X111719D01*
X110886Y532007D01*
Y529508D01*
X114218Y537839D02*
Y534507D01*
X111719D01*
X112552Y536173D01*
Y537006D01*
X111719Y537839D01*
X110053D01*
X109220Y537006D01*
Y535340D01*
X110053Y534507D01*
X109220Y542004D02*
X114218D01*
X111719Y539505D01*
Y542837D01*
X139618Y524510D02*
Y527842D01*
Y526176D01*
X134620D01*
Y529508D02*
X139618D01*
Y532007D01*
X138785Y532841D01*
X137119D01*
X136286Y532007D01*
Y529508D01*
X139618Y537839D02*
Y534507D01*
X137119D01*
X137952Y536173D01*
Y537006D01*
X137119Y537839D01*
X135453D01*
X134620Y537006D01*
Y535340D01*
X135453Y534507D01*
X138785Y539505D02*
X139618Y540338D01*
Y542004D01*
X138785Y542837D01*
X137952D01*
X137119Y542004D01*
Y541171D01*
Y542004D01*
X136286Y542837D01*
X135453D01*
X134620Y542004D01*
Y540338D01*
X135453Y539505D01*
X190418Y524510D02*
Y527842D01*
Y526176D01*
X185420D01*
Y529508D02*
X190418D01*
Y532007D01*
X189585Y532841D01*
X187919D01*
X187086Y532007D01*
Y529508D01*
X190418Y537839D02*
Y534507D01*
X187919D01*
X188752Y536173D01*
Y537006D01*
X187919Y537839D01*
X186253D01*
X185420Y537006D01*
Y535340D01*
X186253Y534507D01*
X185420Y539505D02*
Y541171D01*
Y540338D01*
X190418D01*
X189585Y539505D01*
X215818Y524510D02*
Y527842D01*
Y526176D01*
X210820D01*
Y529508D02*
X215818D01*
Y532007D01*
X214985Y532841D01*
X213319D01*
X212486Y532007D01*
Y529508D01*
X215818Y537839D02*
Y534507D01*
X213319D01*
X214152Y536173D01*
Y537006D01*
X213319Y537839D01*
X211653D01*
X210820Y537006D01*
Y535340D01*
X211653Y534507D01*
X214985Y539505D02*
X215818Y540338D01*
Y542004D01*
X214985Y542837D01*
X211653D01*
X210820Y542004D01*
Y540338D01*
X211653Y539505D01*
X214985D01*
X241218Y524510D02*
Y527842D01*
Y526176D01*
X236220D01*
Y529508D02*
X241218D01*
Y532007D01*
X240385Y532841D01*
X238719D01*
X237886Y532007D01*
Y529508D01*
X236220Y537006D02*
X241218D01*
X238719Y534507D01*
Y537839D01*
X237053Y539505D02*
X236220Y540338D01*
Y542004D01*
X237053Y542837D01*
X240385D01*
X241218Y542004D01*
Y540338D01*
X240385Y539505D01*
X239552D01*
X238719Y540338D01*
Y542837D01*
X266618Y524510D02*
Y527842D01*
Y526176D01*
X261620D01*
Y529508D02*
X266618D01*
Y532007D01*
X265785Y532841D01*
X264119D01*
X263286Y532007D01*
Y529508D01*
X261620Y537006D02*
X266618D01*
X264119Y534507D01*
Y537839D01*
X265785Y539505D02*
X266618Y540338D01*
Y542004D01*
X265785Y542837D01*
X264952D01*
X264119Y542004D01*
X263286Y542837D01*
X262453D01*
X261620Y542004D01*
Y540338D01*
X262453Y539505D01*
X263286D01*
X264119Y540338D01*
X264952Y539505D01*
X265785D01*
X264119Y540338D02*
Y542004D01*
X292018Y524510D02*
Y527842D01*
Y526176D01*
X287020D01*
Y529508D02*
X292018D01*
Y532007D01*
X291185Y532841D01*
X289519D01*
X288686Y532007D01*
Y529508D01*
X287020Y537006D02*
X292018D01*
X289519Y534507D01*
Y537839D01*
X292018Y539505D02*
Y542837D01*
X291185D01*
X287853Y539505D01*
X287020D01*
X317418Y524510D02*
Y527842D01*
Y526176D01*
X312420D01*
Y529508D02*
X317418D01*
Y532007D01*
X316585Y532841D01*
X314919D01*
X314086Y532007D01*
Y529508D01*
X312420Y537006D02*
X317418D01*
X314919Y534507D01*
Y537839D01*
X317418Y542837D02*
X316585Y541171D01*
X314919Y539505D01*
X313253D01*
X312420Y540338D01*
Y542004D01*
X313253Y542837D01*
X314086D01*
X314919Y542004D01*
Y539505D01*
X358058Y524510D02*
Y527842D01*
Y526176D01*
X353060D01*
Y529508D02*
X358058D01*
Y532007D01*
X357225Y532841D01*
X355559D01*
X354726Y532007D01*
Y529508D01*
X353060Y537006D02*
X358058D01*
X355559Y534507D01*
Y537839D01*
X358058Y542837D02*
Y539505D01*
X355559D01*
X356392Y541171D01*
Y542004D01*
X355559Y542837D01*
X353893D01*
X353060Y542004D01*
Y540338D01*
X353893Y539505D01*
X383458Y524510D02*
Y527842D01*
Y526176D01*
X378460D01*
Y529508D02*
X383458D01*
Y532007D01*
X382625Y532841D01*
X380959D01*
X380126Y532007D01*
Y529508D01*
X378460Y537006D02*
X383458D01*
X380959Y534507D01*
Y537839D01*
X378460Y542004D02*
X383458D01*
X380959Y539505D01*
Y542837D01*
X408858Y524510D02*
Y527842D01*
Y526176D01*
X403860D01*
Y529508D02*
X408858D01*
Y532007D01*
X408025Y532841D01*
X406359D01*
X405526Y532007D01*
Y529508D01*
X403860Y537006D02*
X408858D01*
X406359Y534507D01*
Y537839D01*
X408025Y539505D02*
X408858Y540338D01*
Y542004D01*
X408025Y542837D01*
X407192D01*
X406359Y542004D01*
Y541171D01*
Y542004D01*
X405526Y542837D01*
X404693D01*
X403860Y542004D01*
Y540338D01*
X404693Y539505D01*
X434258Y524510D02*
Y527842D01*
Y526176D01*
X429260D01*
Y529508D02*
X434258D01*
Y532007D01*
X433425Y532841D01*
X431759D01*
X430926Y532007D01*
Y529508D01*
X429260Y537006D02*
X434258D01*
X431759Y534507D01*
Y537839D01*
X429260Y542837D02*
Y539505D01*
X432592Y542837D01*
X433425D01*
X434258Y542004D01*
Y540338D01*
X433425Y539505D01*
X459658Y524510D02*
Y527842D01*
Y526176D01*
X454660D01*
Y529508D02*
X459658D01*
Y532007D01*
X458825Y532841D01*
X457159D01*
X456326Y532007D01*
Y529508D01*
X454660Y537006D02*
X459658D01*
X457159Y534507D01*
Y537839D01*
X454660Y539505D02*
Y541171D01*
Y540338D01*
X459658D01*
X458825Y539505D01*
X485058Y524510D02*
Y527842D01*
Y526176D01*
X480060D01*
Y529508D02*
X485058D01*
Y532007D01*
X484225Y532841D01*
X482559D01*
X481726Y532007D01*
Y529508D01*
X480060Y537006D02*
X485058D01*
X482559Y534507D01*
Y537839D01*
X484225Y539505D02*
X485058Y540338D01*
Y542004D01*
X484225Y542837D01*
X480893D01*
X480060Y542004D01*
Y540338D01*
X480893Y539505D01*
X484225D01*
X510458Y524510D02*
Y527842D01*
Y526176D01*
X505460D01*
Y529508D02*
X510458D01*
Y532007D01*
X509625Y532841D01*
X507959D01*
X507126Y532007D01*
Y529508D01*
X509625Y534507D02*
X510458Y535340D01*
Y537006D01*
X509625Y537839D01*
X508792D01*
X507959Y537006D01*
Y536173D01*
Y537006D01*
X507126Y537839D01*
X506293D01*
X505460Y537006D01*
Y535340D01*
X506293Y534507D01*
Y539505D02*
X505460Y540338D01*
Y542004D01*
X506293Y542837D01*
X509625D01*
X510458Y542004D01*
Y540338D01*
X509625Y539505D01*
X508792D01*
X507959Y540338D01*
Y542837D01*
X535858Y524510D02*
Y527842D01*
Y526176D01*
X530860D01*
Y529508D02*
X535858D01*
Y532007D01*
X535025Y532841D01*
X533359D01*
X532526Y532007D01*
Y529508D01*
X535025Y534507D02*
X535858Y535340D01*
Y537006D01*
X535025Y537839D01*
X534192D01*
X533359Y537006D01*
Y536173D01*
Y537006D01*
X532526Y537839D01*
X531693D01*
X530860Y537006D01*
Y535340D01*
X531693Y534507D01*
X535025Y539505D02*
X535858Y540338D01*
Y542004D01*
X535025Y542837D01*
X534192D01*
X533359Y542004D01*
X532526Y542837D01*
X531693D01*
X530860Y542004D01*
Y540338D01*
X531693Y539505D01*
X532526D01*
X533359Y540338D01*
X534192Y539505D01*
X535025D01*
X533359Y540338D02*
Y542004D01*
X586658Y524510D02*
Y527842D01*
Y526176D01*
X581660D01*
Y529508D02*
X586658D01*
Y532007D01*
X585825Y532841D01*
X584159D01*
X583326Y532007D01*
Y529508D01*
X585825Y534507D02*
X586658Y535340D01*
Y537006D01*
X585825Y537839D01*
X584992D01*
X584159Y537006D01*
Y536173D01*
Y537006D01*
X583326Y537839D01*
X582493D01*
X581660Y537006D01*
Y535340D01*
X582493Y534507D01*
X586658Y539505D02*
Y542837D01*
X585825D01*
X582493Y539505D01*
X581660D01*
X612058Y524510D02*
Y527842D01*
Y526176D01*
X607060D01*
Y529508D02*
X612058D01*
Y532007D01*
X611225Y532841D01*
X609559D01*
X608726Y532007D01*
Y529508D01*
X611225Y534507D02*
X612058Y535340D01*
Y537006D01*
X611225Y537839D01*
X610392D01*
X609559Y537006D01*
Y536173D01*
Y537006D01*
X608726Y537839D01*
X607893D01*
X607060Y537006D01*
Y535340D01*
X607893Y534507D01*
X612058Y542837D02*
X611225Y541171D01*
X609559Y539505D01*
X607893D01*
X607060Y540338D01*
Y542004D01*
X607893Y542837D01*
X608726D01*
X609559Y542004D01*
Y539505D01*
X637458Y524510D02*
Y527842D01*
Y526176D01*
X632460D01*
Y529508D02*
X637458D01*
Y532007D01*
X636625Y532841D01*
X634959D01*
X634126Y532007D01*
Y529508D01*
X636625Y534507D02*
X637458Y535340D01*
Y537006D01*
X636625Y537839D01*
X635792D01*
X634959Y537006D01*
Y536173D01*
Y537006D01*
X634126Y537839D01*
X633293D01*
X632460Y537006D01*
Y535340D01*
X633293Y534507D01*
X637458Y542837D02*
Y539505D01*
X634959D01*
X635792Y541171D01*
Y542004D01*
X634959Y542837D01*
X633293D01*
X632460Y542004D01*
Y540338D01*
X633293Y539505D01*
X662858Y524510D02*
Y527842D01*
Y526176D01*
X657860D01*
Y529508D02*
X662858D01*
Y532007D01*
X662025Y532841D01*
X660359D01*
X659526Y532007D01*
Y529508D01*
X662025Y534507D02*
X662858Y535340D01*
Y537006D01*
X662025Y537839D01*
X661192D01*
X660359Y537006D01*
Y536173D01*
Y537006D01*
X659526Y537839D01*
X658693D01*
X657860Y537006D01*
Y535340D01*
X658693Y534507D01*
X657860Y542004D02*
X662858D01*
X660359Y539505D01*
Y542837D01*
X739058Y524510D02*
Y527842D01*
Y526176D01*
X734060D01*
Y529508D02*
X739058D01*
Y532007D01*
X738225Y532841D01*
X736559D01*
X735726Y532007D01*
Y529508D01*
X738225Y534507D02*
X739058Y535340D01*
Y537006D01*
X738225Y537839D01*
X737392D01*
X736559Y537006D01*
Y536173D01*
Y537006D01*
X735726Y537839D01*
X734893D01*
X734060Y537006D01*
Y535340D01*
X734893Y534507D01*
X734060Y539505D02*
Y541171D01*
Y540338D01*
X739058D01*
X738225Y539505D01*
X764458Y524510D02*
Y527842D01*
Y526176D01*
X759460D01*
Y529508D02*
X764458D01*
Y532007D01*
X763625Y532841D01*
X761959D01*
X761126Y532007D01*
Y529508D01*
X763625Y534507D02*
X764458Y535340D01*
Y537006D01*
X763625Y537839D01*
X762792D01*
X761959Y537006D01*
Y536173D01*
Y537006D01*
X761126Y537839D01*
X760293D01*
X759460Y537006D01*
Y535340D01*
X760293Y534507D01*
X763625Y539505D02*
X764458Y540338D01*
Y542004D01*
X763625Y542837D01*
X760293D01*
X759460Y542004D01*
Y540338D01*
X760293Y539505D01*
X763625D01*
X256458Y21590D02*
Y24922D01*
Y23256D01*
X251460D01*
Y26588D02*
X256458D01*
Y29088D01*
X255625Y29921D01*
X253959D01*
X253126Y29088D01*
Y26588D01*
X255625Y31587D02*
X256458Y32420D01*
Y34086D01*
X255625Y34919D01*
X254792D01*
X253959Y34086D01*
X253126Y34919D01*
X252293D01*
X251460Y34086D01*
Y32420D01*
X252293Y31587D01*
X253126D01*
X253959Y32420D01*
X254792Y31587D01*
X255625D01*
X253959Y32420D02*
Y34086D01*
X256458Y39917D02*
Y36585D01*
X253959D01*
X254792Y38251D01*
Y39084D01*
X253959Y39917D01*
X252293D01*
X251460Y39084D01*
Y37418D01*
X252293Y36585D01*
X281858Y21590D02*
Y24922D01*
Y23256D01*
X276860D01*
Y26588D02*
X281858D01*
Y29088D01*
X281025Y29921D01*
X279359D01*
X278526Y29088D01*
Y26588D01*
X281025Y31587D02*
X281858Y32420D01*
Y34086D01*
X281025Y34919D01*
X280192D01*
X279359Y34086D01*
X278526Y34919D01*
X277693D01*
X276860Y34086D01*
Y32420D01*
X277693Y31587D01*
X278526D01*
X279359Y32420D01*
X280192Y31587D01*
X281025D01*
X279359Y32420D02*
Y34086D01*
X276860Y39084D02*
X281858D01*
X279359Y36585D01*
Y39917D01*
X307258Y21590D02*
Y24922D01*
Y23256D01*
X302260D01*
Y26588D02*
X307258D01*
Y29088D01*
X306425Y29921D01*
X304759D01*
X303926Y29088D01*
Y26588D01*
X306425Y31587D02*
X307258Y32420D01*
Y34086D01*
X306425Y34919D01*
X305592D01*
X304759Y34086D01*
X303926Y34919D01*
X303093D01*
X302260Y34086D01*
Y32420D01*
X303093Y31587D01*
X303926D01*
X304759Y32420D01*
X305592Y31587D01*
X306425D01*
X304759Y32420D02*
Y34086D01*
X306425Y36585D02*
X307258Y37418D01*
Y39084D01*
X306425Y39917D01*
X305592D01*
X304759Y39084D01*
Y38251D01*
Y39084D01*
X303926Y39917D01*
X303093D01*
X302260Y39084D01*
Y37418D01*
X303093Y36585D01*
X892982Y260604D02*
Y263936D01*
Y262270D01*
X887984D01*
Y265602D02*
X892982D01*
Y268102D01*
X892149Y268935D01*
X890483D01*
X889650Y268102D01*
Y265602D01*
X892982Y270601D02*
Y273933D01*
X892149D01*
X888817Y270601D01*
X887984D01*
X892982Y278931D02*
X892149Y277265D01*
X890483Y275599D01*
X888817D01*
X887984Y276432D01*
Y278098D01*
X888817Y278931D01*
X889650D01*
X890483Y278098D01*
Y275599D01*
X165018Y524510D02*
Y527842D01*
Y526176D01*
X160020D01*
Y529508D02*
X165018D01*
Y532007D01*
X164185Y532841D01*
X162519D01*
X161686Y532007D01*
Y529508D01*
X165018Y537839D02*
Y534507D01*
X162519D01*
X163352Y536173D01*
Y537006D01*
X162519Y537839D01*
X160853D01*
X160020Y537006D01*
Y535340D01*
X160853Y534507D01*
X160020Y542837D02*
Y539505D01*
X163352Y542837D01*
X164185D01*
X165018Y542004D01*
Y540338D01*
X164185Y539505D01*
X835832Y83342D02*
Y81676D01*
Y82509D01*
X831667D01*
X830834Y81676D01*
Y80843D01*
X831667Y80010D01*
X835832Y85008D02*
X832500D01*
X830834Y86674D01*
X832500Y88341D01*
X835832D01*
X833333Y90007D02*
Y93339D01*
X835832Y95005D02*
X831667D01*
X830834Y95838D01*
Y97504D01*
X831667Y98337D01*
X835832D01*
X834999Y103336D02*
X835832Y102503D01*
Y100836D01*
X834999Y100003D01*
X834166D01*
X833333Y100836D01*
Y102503D01*
X832500Y103336D01*
X831667D01*
X830834Y102503D01*
Y100836D01*
X831667Y100003D01*
X835832Y105002D02*
X830834D01*
Y107501D01*
X831667Y108334D01*
X832500D01*
X833333Y107501D01*
Y105002D01*
Y107501D01*
X834166Y108334D01*
X834999D01*
X835832Y107501D01*
Y105002D01*
X830834Y110000D02*
Y111666D01*
Y110833D01*
X835832D01*
X834999Y110000D01*
X1026481Y474022D02*
Y468690D01*
Y471356D01*
X1034478D01*
Y466025D02*
X1026481D01*
Y462026D01*
X1027813Y460693D01*
X1030479D01*
X1031812Y462026D01*
Y466025D01*
X1026481Y452696D02*
Y458027D01*
X1030479D01*
X1029146Y455361D01*
Y454028D01*
X1030479Y452696D01*
X1033145D01*
X1034478Y454028D01*
Y456694D01*
X1033145Y458027D01*
X1027813Y450030D02*
X1026481Y448697D01*
Y446031D01*
X1027813Y444698D01*
X1029146D01*
X1030479Y446031D01*
X1031812Y444698D01*
X1033145D01*
X1034478Y446031D01*
Y448697D01*
X1033145Y450030D01*
X1031812D01*
X1030479Y448697D01*
X1029146Y450030D01*
X1027813D01*
X1030479Y448697D02*
Y446031D01*
X116103Y31685D02*
X115269Y30852D01*
X113603D01*
X112770Y31685D01*
Y32518D01*
X113603Y33351D01*
X115269D01*
X116103Y34184D01*
Y35017D01*
X115269Y35850D01*
X113603D01*
X112770Y35017D01*
X117769Y30852D02*
Y35850D01*
X119435Y34184D01*
X121101Y35850D01*
Y30852D01*
X122767Y35017D02*
X123600Y35850D01*
X125266D01*
X126099Y35017D01*
Y31685D01*
X125266Y30852D01*
X123600D01*
X122767Y31685D01*
Y32518D01*
X123600Y33351D01*
X126099D01*
X205341Y420370D02*
Y423702D01*
Y422036D01*
X200343D01*
Y425368D02*
X205341D01*
Y427868D01*
X204508Y428701D01*
X202842D01*
X202009Y427868D01*
Y425368D01*
X205341Y430367D02*
X200343D01*
Y432866D01*
X201176Y433699D01*
X204508D01*
X205341Y432866D01*
Y430367D01*
Y435365D02*
Y437031D01*
Y436198D01*
X200343D01*
Y435365D01*
Y437031D01*
X205341Y442030D02*
Y440364D01*
X204508Y439530D01*
X201176D01*
X200343Y440364D01*
Y442030D01*
X201176Y442863D01*
X204508D01*
X205341Y442030D01*
X200343Y444529D02*
Y446195D01*
Y445362D01*
X205341D01*
X204508Y444529D01*
X234868Y439674D02*
Y443006D01*
Y441340D01*
X229870D01*
Y444672D02*
X234868D01*
Y447172D01*
X234035Y448005D01*
X232369D01*
X231536Y447172D01*
Y444672D01*
X234035Y453003D02*
X234868Y452170D01*
Y450504D01*
X234035Y449671D01*
X233202D01*
X232369Y450504D01*
Y452170D01*
X231536Y453003D01*
X230703D01*
X229870Y452170D01*
Y450504D01*
X230703Y449671D01*
X234868Y454669D02*
X229870D01*
X231536Y456335D01*
X229870Y458001D01*
X234868D01*
Y462167D02*
Y460500D01*
X234035Y459668D01*
X230703D01*
X229870Y460500D01*
Y462167D01*
X230703Y463000D01*
X234035D01*
X234868Y462167D01*
X229870Y464666D02*
Y466332D01*
Y465499D01*
X234868D01*
X234035Y464666D01*
X225026Y420370D02*
Y423702D01*
Y422036D01*
X220028D01*
Y425368D02*
X225026D01*
Y427868D01*
X224193Y428701D01*
X222527D01*
X221694Y427868D01*
Y425368D01*
X224193Y433699D02*
X225026Y432866D01*
Y431200D01*
X224193Y430367D01*
X220861D01*
X220028Y431200D01*
Y432866D01*
X220861Y433699D01*
X225026Y435365D02*
X220028D01*
Y438697D01*
X225026Y440364D02*
X220028D01*
X221694D01*
X225026Y443696D01*
X222527Y441197D01*
X220028Y443696D01*
Y445362D02*
Y447028D01*
Y446195D01*
X225026D01*
X224193Y445362D01*
X195498Y439674D02*
Y443006D01*
Y441340D01*
X190500D01*
Y444672D02*
X195498D01*
Y447172D01*
X194665Y448005D01*
X192999D01*
X192166Y447172D01*
Y444672D01*
X190500Y449671D02*
X195498D01*
Y452170D01*
X194665Y453003D01*
X192999D01*
X192166Y452170D01*
Y449671D01*
Y451337D02*
X190500Y453003D01*
X194665Y458001D02*
X195498Y457168D01*
Y455502D01*
X194665Y454669D01*
X193832D01*
X192999Y455502D01*
Y457168D01*
X192166Y458001D01*
X191333D01*
X190500Y457168D01*
Y455502D01*
X191333Y454669D01*
X195498Y459668D02*
Y463000D01*
Y461334D01*
X190500D01*
Y464666D02*
Y466332D01*
Y465499D01*
X195498D01*
X194665Y464666D01*
X957498Y379252D02*
Y377586D01*
Y378419D01*
X953333D01*
X952500Y377586D01*
Y376753D01*
X953333Y375920D01*
X952500Y380918D02*
X957498D01*
X955832Y382584D01*
X957498Y384251D01*
X952500D01*
X957498Y388416D02*
Y386750D01*
X956665Y385917D01*
X953333D01*
X952500Y386750D01*
Y388416D01*
X953333Y389249D01*
X956665D01*
X957498Y388416D01*
Y390915D02*
X952500D01*
Y393414D01*
X953333Y394247D01*
X956665D01*
X957498Y393414D01*
Y390915D01*
Y395914D02*
Y399246D01*
Y397580D01*
X952500D01*
Y400912D02*
Y402578D01*
Y401745D01*
X957498D01*
X956665Y400912D01*
X383458Y24922D02*
Y23256D01*
Y24089D01*
X379293D01*
X378460Y23256D01*
Y22423D01*
X379293Y21590D01*
X378460Y26588D02*
X383458D01*
X381792Y28254D01*
X383458Y29921D01*
X378460D01*
X383458Y34086D02*
Y32420D01*
X382625Y31587D01*
X379293D01*
X378460Y32420D01*
Y34086D01*
X379293Y34919D01*
X382625D01*
X383458Y34086D01*
Y36585D02*
X378460D01*
Y39084D01*
X379293Y39917D01*
X382625D01*
X383458Y39084D01*
Y36585D01*
Y41583D02*
X378460D01*
X380959D01*
Y44916D01*
X383458D01*
X378460D01*
X383458Y46582D02*
Y49914D01*
Y48248D01*
X378460D01*
Y51580D02*
Y53246D01*
Y52413D01*
X383458D01*
X382625Y51580D01*
X713658Y524510D02*
Y527842D01*
Y526176D01*
X708660D01*
Y529508D02*
X713658D01*
Y532007D01*
X712825Y532841D01*
X711159D01*
X710326Y532007D01*
Y529508D01*
X712825Y534507D02*
X713658Y535340D01*
Y537006D01*
X712825Y537839D01*
X711992D01*
X711159Y537006D01*
Y536173D01*
Y537006D01*
X710326Y537839D01*
X709493D01*
X708660Y537006D01*
Y535340D01*
X709493Y534507D01*
X708660Y542837D02*
Y539505D01*
X711992Y542837D01*
X712825D01*
X713658Y542004D01*
Y540338D01*
X712825Y539505D01*
X688258Y524510D02*
Y527842D01*
Y526176D01*
X683260D01*
Y529508D02*
X688258D01*
Y532007D01*
X687425Y532841D01*
X685759D01*
X684926Y532007D01*
Y529508D01*
X687425Y534507D02*
X688258Y535340D01*
Y537006D01*
X687425Y537839D01*
X686592D01*
X685759Y537006D01*
Y536173D01*
Y537006D01*
X684926Y537839D01*
X684093D01*
X683260Y537006D01*
Y535340D01*
X684093Y534507D01*
X687425Y539505D02*
X688258Y540338D01*
Y542004D01*
X687425Y542837D01*
X686592D01*
X685759Y542004D01*
Y541171D01*
Y542004D01*
X684926Y542837D01*
X684093D01*
X683260Y542004D01*
Y540338D01*
X684093Y539505D01*
X835832Y463359D02*
Y466692D01*
Y465026D01*
X830834D01*
Y468358D02*
X835832D01*
Y470857D01*
X834999Y471690D01*
X833333D01*
X832500Y470857D01*
Y468358D01*
X835832Y476688D02*
X834999Y475022D01*
X833333Y473356D01*
X831667D01*
X830834Y474189D01*
Y475855D01*
X831667Y476688D01*
X832500D01*
X833333Y475855D01*
Y473356D01*
X830834Y478355D02*
Y480021D01*
Y479188D01*
X835832D01*
X834999Y478355D01*
X892982Y463359D02*
Y466692D01*
Y465026D01*
X887984D01*
Y468358D02*
X892982D01*
Y470857D01*
X892149Y471690D01*
X890483D01*
X889650Y470857D01*
Y468358D01*
X892982Y476688D02*
X892149Y475022D01*
X890483Y473356D01*
X888817D01*
X887984Y474189D01*
Y475855D01*
X888817Y476688D01*
X889650D01*
X890483Y475855D01*
Y473356D01*
X892149Y478355D02*
X892982Y479188D01*
Y480854D01*
X892149Y481687D01*
X888817D01*
X887984Y480854D01*
Y479188D01*
X888817Y478355D01*
X892149D01*
X835832Y438023D02*
Y441355D01*
Y439689D01*
X830834D01*
Y443021D02*
X835832D01*
Y445521D01*
X834999Y446354D01*
X833333D01*
X832500Y445521D01*
Y443021D01*
X835832Y451352D02*
X834999Y449686D01*
X833333Y448020D01*
X831667D01*
X830834Y448853D01*
Y450519D01*
X831667Y451352D01*
X832500D01*
X833333Y450519D01*
Y448020D01*
X834999Y453018D02*
X835832Y453851D01*
Y455517D01*
X834999Y456350D01*
X834166D01*
X833333Y455517D01*
Y454684D01*
Y455517D01*
X832500Y456350D01*
X831667D01*
X830834Y455517D01*
Y453851D01*
X831667Y453018D01*
X892982Y438023D02*
Y441355D01*
Y439689D01*
X887984D01*
Y443021D02*
X892982D01*
Y445521D01*
X892149Y446354D01*
X890483D01*
X889650Y445521D01*
Y443021D01*
X892982Y451352D02*
X892149Y449686D01*
X890483Y448020D01*
X888817D01*
X887984Y448853D01*
Y450519D01*
X888817Y451352D01*
X889650D01*
X890483Y450519D01*
Y448020D01*
X887984Y456350D02*
Y453018D01*
X891316Y456350D01*
X892149D01*
X892982Y455517D01*
Y453851D01*
X892149Y453018D01*
X835832Y412687D02*
Y416019D01*
Y414353D01*
X830834D01*
Y417685D02*
X835832D01*
Y420184D01*
X834999Y421017D01*
X833333D01*
X832500Y420184D01*
Y417685D01*
X835832Y426016D02*
X834999Y424349D01*
X833333Y422683D01*
X831667D01*
X830834Y423516D01*
Y425182D01*
X831667Y426016D01*
X832500D01*
X833333Y425182D01*
Y422683D01*
X835832Y431014D02*
Y427682D01*
X833333D01*
X834166Y429348D01*
Y430181D01*
X833333Y431014D01*
X831667D01*
X830834Y430181D01*
Y428515D01*
X831667Y427682D01*
X892982Y412687D02*
Y416019D01*
Y414353D01*
X887984D01*
Y417685D02*
X892982D01*
Y420184D01*
X892149Y421017D01*
X890483D01*
X889650Y420184D01*
Y417685D01*
X892982Y426016D02*
X892149Y424349D01*
X890483Y422683D01*
X888817D01*
X887984Y423516D01*
Y425182D01*
X888817Y426016D01*
X889650D01*
X890483Y425182D01*
Y422683D01*
X887984Y430181D02*
X892982D01*
X890483Y427682D01*
Y431014D01*
X40190Y485327D02*
X34858D01*
X37524D01*
Y477330D01*
X32193D02*
Y485327D01*
X28194D01*
X26861Y483994D01*
Y481329D01*
X28194Y479996D01*
X32193D01*
X18864Y485327D02*
X24195D01*
Y481329D01*
X21529Y482662D01*
X20196D01*
X18864Y481329D01*
Y478663D01*
X20196Y477330D01*
X22862D01*
X24195Y478663D01*
X16198D02*
X14865Y477330D01*
X12199D01*
X10866Y478663D01*
Y483994D01*
X12199Y485327D01*
X14865D01*
X16198Y483994D01*
Y482662D01*
X14865Y481329D01*
X10866D01*
X348914Y76454D02*
Y79786D01*
Y78120D01*
X343916D01*
Y81452D02*
X348914D01*
Y83952D01*
X348081Y84785D01*
X346415D01*
X345582Y83952D01*
Y81452D01*
X348914Y86451D02*
Y89783D01*
X348081D01*
X344749Y86451D01*
X343916D01*
X348914Y91449D02*
Y94781D01*
X348081D01*
X344749Y91449D01*
X343916D01*
X144748Y274000D02*
X139750D01*
Y276499D01*
X140583Y277332D01*
X141416D01*
X142249Y276499D01*
Y274000D01*
Y276499D01*
X143082Y277332D01*
X143915D01*
X144748Y276499D01*
Y274000D01*
X139750Y278998D02*
X143082D01*
X144748Y280665D01*
X143082Y282331D01*
X139750D01*
X142249D01*
Y278998D01*
X144748Y283997D02*
Y287329D01*
Y285663D01*
X139750D01*
Y288995D02*
Y290661D01*
Y289828D01*
X144748D01*
X143915Y288995D01*
M02*
