G04*
G04 #@! TF.GenerationSoftware,Altium Limited,Altium Designer,24.5.2 (23)*
G04*
G04 Layer_Color=128*
%FSLAX44Y44*%
%MOMM*%
G71*
G04*
G04 #@! TF.SameCoordinates,0C5A4069-AE43-482B-AD25-CF0848805004*
G04*
G04*
G04 #@! TF.FilePolarity,Positive*
G04*
G01*
G75*
%ADD10C,0.1270*%
%ADD14C,0.2540*%
%ADD15C,0.2000*%
%ADD17R,4.8260X2.4130*%
%ADD18C,0.1778*%
%ADD19C,0.2997*%
%ADD167C,0.0508*%
G36*
X885250Y-150059D02*
X889786D01*
Y-150512D01*
X892507D01*
Y-150966D01*
X894775D01*
Y-151419D01*
X896589D01*
Y-151873D01*
X898403D01*
Y-152327D01*
X899764D01*
Y-152780D01*
X901124D01*
Y-153234D01*
X902485D01*
Y-153687D01*
X903392D01*
Y-154141D01*
X904753D01*
Y-154594D01*
X905660D01*
Y-155048D01*
X906567D01*
Y-155501D01*
X907474D01*
Y-155955D01*
X908381D01*
Y-156409D01*
X909288D01*
Y-156862D01*
X909742D01*
Y-157316D01*
X910649D01*
Y-157769D01*
X911556D01*
Y-158223D01*
X912010D01*
Y-158676D01*
X912917D01*
Y-159130D01*
X913371D01*
Y-159584D01*
X914278D01*
Y-160037D01*
X914731D01*
Y-160491D01*
X915185D01*
Y-160944D01*
X916092D01*
Y-161398D01*
X916545D01*
Y-161851D01*
X916999D01*
Y-162305D01*
X917452D01*
Y-162758D01*
X918360D01*
Y-163212D01*
X918813D01*
Y-163666D01*
X919267D01*
Y-164119D01*
X919720D01*
Y-164573D01*
X920174D01*
Y-165026D01*
X920627D01*
Y-165480D01*
X921081D01*
Y-165933D01*
X921535D01*
Y-166387D01*
X921988D01*
Y-166840D01*
X922442D01*
Y-167294D01*
X922895D01*
Y-167747D01*
X923349D01*
Y-168201D01*
Y-168655D01*
X923802D01*
Y-169108D01*
X924256D01*
Y-169562D01*
X924709D01*
Y-170015D01*
X925163D01*
Y-170469D01*
Y-170922D01*
X925617D01*
Y-171376D01*
X926070D01*
Y-171830D01*
X926524D01*
Y-172283D01*
Y-172737D01*
X926977D01*
Y-173190D01*
X927431D01*
Y-173644D01*
Y-174097D01*
X927884D01*
Y-174551D01*
X928338D01*
Y-175004D01*
Y-175458D01*
X928791D01*
Y-175912D01*
X929245D01*
Y-176365D01*
Y-176819D01*
X929698D01*
Y-177272D01*
Y-177726D01*
X930152D01*
Y-178179D01*
Y-178633D01*
X930606D01*
Y-179086D01*
Y-179540D01*
X931059D01*
Y-179993D01*
Y-180447D01*
X931513D01*
Y-180901D01*
Y-181354D01*
X931966D01*
Y-181808D01*
Y-182261D01*
X932420D01*
Y-182715D01*
Y-183168D01*
Y-183622D01*
X932873D01*
Y-184076D01*
Y-184529D01*
X933327D01*
Y-184983D01*
Y-185436D01*
Y-185890D01*
X933781D01*
Y-186343D01*
Y-186797D01*
Y-187250D01*
X934234D01*
Y-187704D01*
Y-188158D01*
Y-188611D01*
Y-189065D01*
X934688D01*
Y-189518D01*
Y-189972D01*
Y-190425D01*
Y-190879D01*
X935141D01*
Y-191332D01*
Y-191786D01*
Y-192240D01*
Y-192693D01*
X935595D01*
Y-193147D01*
Y-193600D01*
Y-194054D01*
Y-194507D01*
Y-194961D01*
Y-195414D01*
Y-195868D01*
X936048D01*
Y-196322D01*
Y-196775D01*
Y-197229D01*
Y-197682D01*
Y-198136D01*
Y-198589D01*
Y-199043D01*
Y-199496D01*
Y-199950D01*
Y-200404D01*
Y-200857D01*
X936502D01*
Y-201311D01*
Y-201764D01*
Y-202218D01*
Y-202671D01*
Y-203125D01*
Y-203578D01*
Y-204032D01*
Y-204486D01*
Y-204939D01*
Y-205393D01*
X936048D01*
Y-205846D01*
Y-206300D01*
Y-206753D01*
Y-207207D01*
Y-207661D01*
Y-208114D01*
Y-208568D01*
Y-209021D01*
Y-209475D01*
Y-209928D01*
Y-210382D01*
X935595D01*
Y-210835D01*
Y-211289D01*
Y-211742D01*
Y-212196D01*
Y-212650D01*
Y-213103D01*
X935141D01*
Y-213557D01*
Y-214010D01*
Y-214464D01*
Y-214917D01*
Y-215371D01*
X934688D01*
Y-215825D01*
Y-216278D01*
Y-216732D01*
Y-217185D01*
X934234D01*
Y-217639D01*
Y-218092D01*
Y-218546D01*
Y-218999D01*
X933781D01*
Y-219453D01*
Y-219907D01*
Y-220360D01*
X933327D01*
Y-220814D01*
Y-221267D01*
X932873D01*
Y-221721D01*
Y-222174D01*
Y-222628D01*
X932420D01*
Y-223081D01*
Y-223535D01*
X931966D01*
Y-223988D01*
Y-224442D01*
Y-224896D01*
X931513D01*
Y-225349D01*
Y-225803D01*
X931059D01*
Y-226256D01*
Y-226710D01*
X930606D01*
Y-227163D01*
Y-227617D01*
X930152D01*
Y-228071D01*
Y-228524D01*
X929698D01*
Y-228071D01*
Y-227617D01*
Y-227163D01*
Y-226710D01*
Y-226256D01*
Y-225803D01*
Y-225349D01*
Y-224896D01*
Y-224442D01*
Y-223988D01*
Y-223535D01*
Y-223081D01*
Y-222628D01*
Y-222174D01*
Y-221721D01*
Y-221267D01*
Y-220814D01*
Y-220360D01*
Y-219907D01*
Y-219453D01*
Y-218999D01*
Y-218546D01*
Y-218092D01*
Y-217639D01*
Y-217185D01*
Y-216732D01*
Y-216278D01*
Y-215825D01*
Y-215371D01*
Y-214917D01*
Y-214464D01*
Y-214010D01*
Y-213557D01*
Y-213103D01*
Y-212650D01*
Y-212196D01*
Y-211742D01*
Y-211289D01*
Y-210835D01*
Y-210382D01*
Y-209928D01*
Y-209475D01*
Y-209021D01*
Y-208568D01*
Y-208114D01*
Y-207661D01*
Y-207207D01*
Y-206753D01*
Y-206300D01*
Y-205846D01*
Y-205393D01*
Y-204939D01*
Y-204486D01*
Y-204032D01*
Y-203578D01*
Y-203125D01*
Y-202671D01*
Y-202218D01*
Y-201764D01*
Y-201311D01*
Y-200857D01*
Y-200404D01*
Y-199950D01*
Y-199496D01*
Y-199043D01*
Y-198589D01*
Y-198136D01*
Y-197682D01*
Y-197229D01*
Y-196775D01*
Y-196322D01*
Y-195868D01*
Y-195414D01*
Y-194961D01*
Y-194507D01*
Y-194054D01*
X916999D01*
Y-194507D01*
Y-194961D01*
Y-195414D01*
Y-195868D01*
Y-196322D01*
Y-196775D01*
Y-197229D01*
Y-197682D01*
Y-198136D01*
Y-198589D01*
Y-199043D01*
Y-199496D01*
Y-199950D01*
Y-200404D01*
Y-200857D01*
Y-201311D01*
Y-201764D01*
Y-202218D01*
Y-202671D01*
Y-203125D01*
Y-203578D01*
Y-204032D01*
Y-204486D01*
Y-204939D01*
Y-205393D01*
Y-205846D01*
Y-206300D01*
Y-206753D01*
Y-207207D01*
Y-207661D01*
Y-208114D01*
Y-208568D01*
Y-209021D01*
Y-209475D01*
Y-209928D01*
Y-210382D01*
Y-210835D01*
Y-211289D01*
Y-211742D01*
Y-212196D01*
Y-212650D01*
Y-213103D01*
Y-213557D01*
Y-214010D01*
Y-214464D01*
Y-214917D01*
Y-215371D01*
Y-215825D01*
Y-216278D01*
Y-216732D01*
Y-217185D01*
Y-217639D01*
Y-218092D01*
Y-218546D01*
Y-218999D01*
Y-219453D01*
Y-219907D01*
Y-220360D01*
Y-220814D01*
Y-221267D01*
Y-221721D01*
X916545D01*
Y-222174D01*
Y-222628D01*
Y-223081D01*
Y-223535D01*
X916092D01*
Y-223988D01*
Y-224442D01*
X915638D01*
Y-224896D01*
Y-225349D01*
X915185D01*
Y-225803D01*
X914731D01*
Y-226256D01*
X914278D01*
Y-226710D01*
X913824D01*
Y-227163D01*
X913371D01*
Y-227617D01*
X912463D01*
Y-228071D01*
X911103D01*
Y-228524D01*
X904753D01*
Y-228071D01*
X903392D01*
Y-227617D01*
X902485D01*
Y-227163D01*
X902032D01*
Y-226710D01*
X901578D01*
Y-226256D01*
X901124D01*
Y-225803D01*
Y-225349D01*
X900671D01*
Y-224896D01*
Y-224442D01*
X900217D01*
Y-223988D01*
Y-223535D01*
Y-223081D01*
Y-222628D01*
X899764D01*
Y-222174D01*
Y-221721D01*
Y-221267D01*
Y-220814D01*
Y-220360D01*
Y-219907D01*
Y-219453D01*
Y-218999D01*
Y-218546D01*
Y-218092D01*
Y-217639D01*
Y-217185D01*
Y-216732D01*
Y-216278D01*
Y-215825D01*
Y-215371D01*
Y-214917D01*
Y-214464D01*
Y-214010D01*
Y-213557D01*
Y-213103D01*
Y-212650D01*
Y-212196D01*
Y-211742D01*
Y-211289D01*
Y-210835D01*
Y-210382D01*
Y-209928D01*
Y-209475D01*
Y-209021D01*
Y-208568D01*
Y-208114D01*
Y-207661D01*
Y-207207D01*
Y-206753D01*
Y-206300D01*
Y-205846D01*
Y-205393D01*
Y-204939D01*
Y-204486D01*
Y-204032D01*
Y-203578D01*
Y-203125D01*
Y-202671D01*
Y-202218D01*
Y-201764D01*
Y-201311D01*
Y-200857D01*
Y-200404D01*
Y-199950D01*
Y-199496D01*
Y-199043D01*
Y-198589D01*
Y-198136D01*
Y-197682D01*
Y-197229D01*
Y-196775D01*
Y-196322D01*
Y-195868D01*
Y-195414D01*
Y-194961D01*
Y-194507D01*
Y-194054D01*
X887064D01*
Y-194507D01*
Y-194961D01*
Y-195414D01*
Y-195868D01*
Y-196322D01*
Y-196775D01*
Y-197229D01*
Y-197682D01*
Y-198136D01*
Y-198589D01*
Y-199043D01*
Y-199496D01*
Y-199950D01*
Y-200404D01*
Y-200857D01*
Y-201311D01*
Y-201764D01*
Y-202218D01*
Y-202671D01*
Y-203125D01*
Y-203578D01*
Y-204032D01*
Y-204486D01*
Y-204939D01*
Y-205393D01*
Y-205846D01*
Y-206300D01*
Y-206753D01*
Y-207207D01*
Y-207661D01*
Y-208114D01*
Y-208568D01*
Y-209021D01*
Y-209475D01*
Y-209928D01*
Y-210382D01*
Y-210835D01*
Y-211289D01*
Y-211742D01*
Y-212196D01*
Y-212650D01*
Y-213103D01*
Y-213557D01*
Y-214010D01*
Y-214464D01*
Y-214917D01*
Y-215371D01*
Y-215825D01*
Y-216278D01*
Y-216732D01*
Y-217185D01*
Y-217639D01*
Y-218092D01*
Y-218546D01*
Y-218999D01*
Y-219453D01*
Y-219907D01*
Y-220360D01*
Y-220814D01*
Y-221267D01*
Y-221721D01*
Y-222174D01*
Y-222628D01*
Y-223081D01*
Y-223535D01*
Y-223988D01*
Y-224442D01*
Y-224896D01*
Y-225349D01*
Y-225803D01*
Y-226256D01*
Y-226710D01*
Y-227163D01*
X887518D01*
Y-227617D01*
Y-228071D01*
Y-228524D01*
Y-228978D01*
X887971D01*
Y-229431D01*
Y-229885D01*
Y-230338D01*
X888425D01*
Y-230792D01*
Y-231245D01*
Y-231699D01*
X888878D01*
Y-232153D01*
Y-232606D01*
X889332D01*
Y-233060D01*
X889786D01*
Y-233513D01*
Y-233967D01*
X890239D01*
Y-234420D01*
X890693D01*
Y-234874D01*
X891146D01*
Y-235327D01*
X891600D01*
Y-235781D01*
X892053D01*
Y-236234D01*
X892507D01*
Y-236688D01*
X893414D01*
Y-237142D01*
X893868D01*
Y-237595D01*
X894775D01*
Y-238049D01*
X895682D01*
Y-238502D01*
X896589D01*
Y-238956D01*
X897950D01*
Y-239409D01*
X899764D01*
Y-239863D01*
X908835D01*
Y-239409D01*
X910649D01*
Y-238956D01*
X911556D01*
Y-238502D01*
X912917D01*
Y-238049D01*
X913371D01*
Y-237595D01*
X914278D01*
Y-237142D01*
X914731D01*
Y-236688D01*
X915185D01*
Y-236234D01*
X916092D01*
Y-235781D01*
X916545D01*
Y-235327D01*
X916999D01*
Y-234874D01*
Y-234420D01*
X917452D01*
Y-234874D01*
Y-235327D01*
Y-235781D01*
Y-236234D01*
Y-236688D01*
Y-237142D01*
Y-237595D01*
Y-238049D01*
Y-238502D01*
Y-238956D01*
X922442D01*
Y-239409D01*
X921988D01*
Y-239863D01*
X921535D01*
Y-240317D01*
X921081D01*
Y-240770D01*
X920627D01*
Y-241224D01*
X920174D01*
Y-241677D01*
X919720D01*
Y-242131D01*
X919267D01*
Y-242584D01*
X918813D01*
Y-243038D01*
X917906D01*
Y-243491D01*
X917452D01*
Y-243945D01*
X916999D01*
Y-244398D01*
X916545D01*
Y-244852D01*
X915638D01*
Y-245306D01*
X915185D01*
Y-245759D01*
X914731D01*
Y-246213D01*
X913824D01*
Y-246666D01*
X913371D01*
Y-247120D01*
X912463D01*
Y-247573D01*
X912010D01*
Y-248027D01*
X911103D01*
Y-248480D01*
X910649D01*
Y-248934D01*
X909742D01*
Y-249388D01*
X908835D01*
Y-249841D01*
X907928D01*
Y-250295D01*
X907474D01*
Y-250748D01*
X906567D01*
Y-251202D01*
X905206D01*
Y-251655D01*
X904299D01*
Y-252109D01*
X903392D01*
Y-252563D01*
X902032D01*
Y-253016D01*
X901124D01*
Y-253470D01*
X899764D01*
Y-253923D01*
X897950D01*
Y-254377D01*
X896589D01*
Y-254830D01*
X894775D01*
Y-255284D01*
X892053D01*
Y-255737D01*
X888878D01*
Y-256191D01*
X877086D01*
Y-255737D01*
X873911D01*
Y-255284D01*
X871643D01*
Y-254830D01*
X869829D01*
Y-254377D01*
X868015D01*
Y-253923D01*
X866654D01*
Y-253470D01*
X865294D01*
Y-253016D01*
X863933D01*
Y-252563D01*
X863026D01*
Y-252109D01*
X861665D01*
Y-251655D01*
X860758D01*
Y-251202D01*
X859851D01*
Y-250748D01*
X858944D01*
Y-250295D01*
X858037D01*
Y-249841D01*
X857130D01*
Y-249388D01*
X856222D01*
Y-248934D01*
X855769D01*
Y-248480D01*
X854862D01*
Y-248027D01*
X853955D01*
Y-247573D01*
X853501D01*
Y-247120D01*
X852594D01*
Y-246666D01*
X852140D01*
Y-246213D01*
X851687D01*
Y-245759D01*
X850780D01*
Y-245306D01*
X850326D01*
Y-244852D01*
X849873D01*
Y-244398D01*
X848966D01*
Y-243945D01*
X848512D01*
Y-243491D01*
X848058D01*
Y-243038D01*
X847605D01*
Y-242584D01*
X847151D01*
Y-242131D01*
X846698D01*
Y-241677D01*
X846244D01*
Y-241224D01*
X845791D01*
Y-240770D01*
X845337D01*
Y-240317D01*
X844883D01*
Y-239863D01*
X844430D01*
Y-239409D01*
X843976D01*
Y-238956D01*
X843523D01*
Y-238502D01*
X843069D01*
Y-238049D01*
X842616D01*
Y-237595D01*
X842162D01*
Y-237142D01*
X841709D01*
Y-236688D01*
Y-236234D01*
X841255D01*
Y-235781D01*
X840801D01*
Y-235327D01*
X840348D01*
Y-234874D01*
X839894D01*
Y-234420D01*
Y-233967D01*
X839441D01*
Y-233513D01*
X838987D01*
Y-233060D01*
Y-232606D01*
X838534D01*
Y-232153D01*
X838080D01*
Y-231699D01*
Y-231245D01*
X837627D01*
Y-230792D01*
X837173D01*
Y-230338D01*
Y-229885D01*
X836720D01*
Y-229431D01*
Y-228978D01*
X836266D01*
Y-228524D01*
Y-228071D01*
X835812D01*
Y-227617D01*
Y-227163D01*
X835359D01*
Y-226710D01*
Y-226256D01*
X834905D01*
Y-225803D01*
Y-225349D01*
X834452D01*
Y-224896D01*
Y-224442D01*
X833998D01*
Y-223988D01*
Y-223535D01*
X833545D01*
Y-223081D01*
Y-222628D01*
Y-222174D01*
X833091D01*
Y-221721D01*
Y-221267D01*
Y-220814D01*
X832637D01*
Y-220360D01*
Y-219907D01*
X832184D01*
Y-219453D01*
Y-218999D01*
Y-218546D01*
Y-218092D01*
X831730D01*
Y-217639D01*
Y-217185D01*
Y-216732D01*
X831277D01*
Y-216278D01*
Y-215825D01*
Y-215371D01*
Y-214917D01*
X830823D01*
Y-214464D01*
Y-214010D01*
Y-213557D01*
Y-213103D01*
Y-212650D01*
X830370D01*
Y-212196D01*
Y-211742D01*
Y-211289D01*
Y-210835D01*
Y-210382D01*
Y-209928D01*
Y-209475D01*
X829916D01*
Y-209021D01*
Y-208568D01*
Y-208114D01*
Y-207661D01*
Y-207207D01*
Y-206753D01*
Y-206300D01*
Y-205846D01*
Y-205393D01*
Y-204939D01*
X829463D01*
Y-204486D01*
Y-204032D01*
Y-203578D01*
Y-203125D01*
Y-202671D01*
Y-202218D01*
Y-201764D01*
Y-201311D01*
Y-200857D01*
X829916D01*
Y-200404D01*
Y-199950D01*
Y-199496D01*
Y-199043D01*
Y-198589D01*
Y-198136D01*
Y-197682D01*
Y-197229D01*
Y-196775D01*
X830370D01*
Y-196322D01*
Y-195868D01*
Y-195414D01*
Y-194961D01*
Y-194507D01*
Y-194054D01*
Y-193600D01*
X830823D01*
Y-193147D01*
Y-192693D01*
Y-192240D01*
Y-191786D01*
Y-191332D01*
X831277D01*
Y-190879D01*
Y-190425D01*
Y-189972D01*
Y-189518D01*
X831730D01*
Y-189065D01*
Y-188611D01*
Y-188158D01*
Y-187704D01*
X832184D01*
Y-187250D01*
Y-186797D01*
Y-186343D01*
X832637D01*
Y-185890D01*
Y-185436D01*
Y-184983D01*
X833091D01*
Y-184529D01*
Y-184076D01*
X833545D01*
Y-183622D01*
Y-183168D01*
Y-182715D01*
X833998D01*
Y-182261D01*
Y-181808D01*
X834452D01*
Y-181354D01*
Y-180901D01*
Y-180447D01*
X834905D01*
Y-179993D01*
Y-179540D01*
X835359D01*
Y-179086D01*
Y-178633D01*
X835812D01*
Y-178179D01*
Y-177726D01*
X836266D01*
Y-177272D01*
X836720D01*
Y-176819D01*
Y-176365D01*
X837173D01*
Y-175912D01*
Y-175458D01*
X837627D01*
Y-175004D01*
X838080D01*
Y-174551D01*
Y-174097D01*
X838534D01*
Y-173644D01*
X838987D01*
Y-173190D01*
Y-172737D01*
X839441D01*
Y-172283D01*
X839894D01*
Y-171830D01*
Y-171376D01*
X840348D01*
Y-170922D01*
X840801D01*
Y-170469D01*
X841255D01*
Y-170015D01*
Y-169562D01*
X841709D01*
Y-169108D01*
X842162D01*
Y-168655D01*
X842616D01*
Y-168201D01*
X843069D01*
Y-167747D01*
X843523D01*
Y-167294D01*
X843976D01*
Y-166840D01*
X844430D01*
Y-166387D01*
Y-165933D01*
X844883D01*
Y-165480D01*
X845337D01*
Y-165026D01*
X845791D01*
Y-164573D01*
X846698D01*
Y-164119D01*
X847151D01*
Y-163666D01*
X847605D01*
Y-163212D01*
X848058D01*
Y-162758D01*
X848512D01*
Y-162305D01*
X848966D01*
Y-161851D01*
X849419D01*
Y-161398D01*
X850326D01*
Y-160944D01*
X850780D01*
Y-160491D01*
X851233D01*
Y-160037D01*
X852140D01*
Y-159584D01*
X852594D01*
Y-159130D01*
X853501D01*
Y-158676D01*
X853955D01*
Y-158223D01*
X854862D01*
Y-157769D01*
X855315D01*
Y-157316D01*
X856222D01*
Y-156862D01*
X857130D01*
Y-156409D01*
X857583D01*
Y-155955D01*
X858944D01*
Y-155501D01*
X859851D01*
Y-155048D01*
X860758D01*
Y-154594D01*
X861665D01*
Y-154141D01*
X862572D01*
Y-153687D01*
X863933D01*
Y-153234D01*
X864840D01*
Y-152780D01*
X866201D01*
Y-152327D01*
X867561D01*
Y-151873D01*
X869376D01*
Y-151419D01*
X871190D01*
Y-150966D01*
X873457D01*
Y-150512D01*
X876632D01*
Y-150059D01*
X881168D01*
Y-149605D01*
X885250D01*
Y-150059D01*
D02*
G37*
G36*
X955551Y-177272D02*
Y-177726D01*
Y-178179D01*
Y-178633D01*
Y-179086D01*
Y-179540D01*
Y-179993D01*
Y-180447D01*
Y-180901D01*
Y-181354D01*
Y-181808D01*
Y-182261D01*
Y-182715D01*
Y-183168D01*
Y-183622D01*
Y-184076D01*
Y-184529D01*
Y-184983D01*
Y-185436D01*
Y-185890D01*
Y-186343D01*
Y-186797D01*
Y-187250D01*
Y-187704D01*
Y-188158D01*
Y-188611D01*
Y-189065D01*
Y-189518D01*
Y-189972D01*
Y-190425D01*
Y-190879D01*
Y-191332D01*
Y-191786D01*
Y-192240D01*
Y-192693D01*
Y-193147D01*
Y-193600D01*
Y-194054D01*
Y-194507D01*
Y-194961D01*
Y-195414D01*
Y-195868D01*
Y-196322D01*
Y-196775D01*
Y-197229D01*
Y-197682D01*
Y-198136D01*
Y-198589D01*
Y-199043D01*
Y-199496D01*
X956458D01*
Y-199043D01*
X956912D01*
Y-198589D01*
X957365D01*
Y-198136D01*
X957819D01*
Y-197682D01*
X958272D01*
Y-197229D01*
X958726D01*
Y-196775D01*
X959180D01*
Y-196322D01*
X960087D01*
Y-195868D01*
X960540D01*
Y-195414D01*
X961447D01*
Y-194961D01*
X962355D01*
Y-194507D01*
X963715D01*
Y-194054D01*
X965529D01*
Y-193600D01*
X974147D01*
Y-194054D01*
X975961D01*
Y-194507D01*
X977322D01*
Y-194961D01*
X978682D01*
Y-195414D01*
X979590D01*
Y-195868D01*
X980043D01*
Y-196322D01*
X980950D01*
Y-196775D01*
X981404D01*
Y-197229D01*
X982311D01*
Y-197682D01*
X982765D01*
Y-198136D01*
X983218D01*
Y-198589D01*
X983672D01*
Y-199043D01*
X984125D01*
Y-199496D01*
X984579D01*
Y-199950D01*
Y-200404D01*
X985032D01*
Y-200857D01*
X985486D01*
Y-201311D01*
X985939D01*
Y-201764D01*
Y-202218D01*
X986393D01*
Y-202671D01*
Y-203125D01*
X986846D01*
Y-203578D01*
Y-204032D01*
X987300D01*
Y-204486D01*
Y-204939D01*
X987754D01*
Y-205393D01*
Y-205846D01*
Y-206300D01*
X988207D01*
Y-206753D01*
Y-207207D01*
Y-207661D01*
Y-208114D01*
X988661D01*
Y-208568D01*
Y-209021D01*
Y-209475D01*
Y-209928D01*
Y-210382D01*
X989114D01*
Y-210835D01*
Y-211289D01*
Y-211742D01*
Y-212196D01*
Y-212650D01*
Y-213103D01*
Y-213557D01*
Y-214010D01*
Y-214464D01*
X989568D01*
Y-214917D01*
X989114D01*
Y-215371D01*
Y-215825D01*
Y-216278D01*
Y-216732D01*
Y-217185D01*
Y-217639D01*
Y-218092D01*
Y-218546D01*
Y-218999D01*
Y-219453D01*
Y-219907D01*
Y-220360D01*
Y-220814D01*
Y-221267D01*
Y-221721D01*
Y-222174D01*
Y-222628D01*
X988661D01*
Y-223081D01*
Y-223535D01*
Y-223988D01*
Y-224442D01*
Y-224896D01*
X988207D01*
Y-225349D01*
Y-225803D01*
Y-226256D01*
X987754D01*
Y-226710D01*
Y-227163D01*
Y-227617D01*
X987300D01*
Y-228071D01*
Y-228524D01*
Y-228978D01*
X986846D01*
Y-229431D01*
Y-229885D01*
X986393D01*
Y-230338D01*
Y-230792D01*
X985939D01*
Y-231245D01*
X985486D01*
Y-231699D01*
Y-232153D01*
X985032D01*
Y-232606D01*
X984579D01*
Y-233060D01*
X984125D01*
Y-233513D01*
X983672D01*
Y-233967D01*
Y-234420D01*
X982765D01*
Y-234874D01*
X982311D01*
Y-235327D01*
X981857D01*
Y-235781D01*
X981404D01*
Y-236234D01*
X980497D01*
Y-236688D01*
X980043D01*
Y-237142D01*
X979136D01*
Y-237595D01*
X978229D01*
Y-238049D01*
X977322D01*
Y-238502D01*
X975961D01*
Y-238956D01*
X973693D01*
Y-239409D01*
X965983D01*
Y-238956D01*
X963715D01*
Y-238502D01*
X962808D01*
Y-238049D01*
X961447D01*
Y-237595D01*
X960994D01*
Y-237142D01*
X960087D01*
Y-236688D01*
X959633D01*
Y-236234D01*
X958726D01*
Y-235781D01*
X958272D01*
Y-235327D01*
X957819D01*
Y-234874D01*
X957365D01*
Y-234420D01*
X956912D01*
Y-233967D01*
X956458D01*
Y-233513D01*
X956005D01*
Y-233060D01*
Y-232606D01*
X955098D01*
Y-233060D01*
Y-233513D01*
Y-233967D01*
Y-234420D01*
Y-234874D01*
Y-235327D01*
Y-235781D01*
Y-236234D01*
Y-236688D01*
Y-237142D01*
Y-237595D01*
Y-238049D01*
Y-238502D01*
X943759D01*
Y-238049D01*
Y-237595D01*
Y-237142D01*
Y-236688D01*
Y-236234D01*
Y-235781D01*
Y-235327D01*
Y-234874D01*
Y-234420D01*
Y-233967D01*
Y-233513D01*
Y-233060D01*
Y-232606D01*
Y-232153D01*
Y-231699D01*
Y-231245D01*
Y-230792D01*
Y-230338D01*
Y-229885D01*
Y-229431D01*
Y-228978D01*
Y-228524D01*
Y-228071D01*
Y-227617D01*
Y-227163D01*
Y-226710D01*
Y-226256D01*
Y-225803D01*
Y-225349D01*
Y-224896D01*
Y-224442D01*
Y-223988D01*
Y-223535D01*
Y-223081D01*
Y-222628D01*
Y-222174D01*
Y-221721D01*
Y-221267D01*
Y-220814D01*
Y-220360D01*
Y-219907D01*
Y-219453D01*
Y-218999D01*
Y-218546D01*
Y-218092D01*
Y-217639D01*
Y-217185D01*
Y-216732D01*
Y-216278D01*
Y-215825D01*
Y-215371D01*
Y-214917D01*
Y-214464D01*
Y-214010D01*
Y-213557D01*
Y-213103D01*
Y-212650D01*
Y-212196D01*
Y-211742D01*
Y-211289D01*
Y-210835D01*
Y-210382D01*
Y-209928D01*
Y-209475D01*
Y-209021D01*
Y-208568D01*
Y-208114D01*
Y-207661D01*
Y-207207D01*
Y-206753D01*
Y-206300D01*
Y-205846D01*
Y-205393D01*
Y-204939D01*
Y-204486D01*
Y-204032D01*
Y-203578D01*
Y-203125D01*
Y-202671D01*
Y-202218D01*
Y-201764D01*
Y-201311D01*
Y-200857D01*
Y-200404D01*
Y-199950D01*
Y-199496D01*
Y-199043D01*
Y-198589D01*
Y-198136D01*
Y-197682D01*
Y-197229D01*
Y-196775D01*
Y-196322D01*
Y-195868D01*
Y-195414D01*
Y-194961D01*
Y-194507D01*
Y-194054D01*
Y-193600D01*
Y-193147D01*
Y-192693D01*
Y-192240D01*
Y-191786D01*
Y-191332D01*
Y-190879D01*
Y-190425D01*
Y-189972D01*
Y-189518D01*
Y-189065D01*
Y-188611D01*
Y-188158D01*
Y-187704D01*
Y-187250D01*
Y-186797D01*
Y-186343D01*
Y-185890D01*
Y-185436D01*
Y-184983D01*
Y-184529D01*
Y-184076D01*
Y-183622D01*
Y-183168D01*
Y-182715D01*
Y-182261D01*
Y-181808D01*
Y-181354D01*
Y-180901D01*
Y-180447D01*
Y-179993D01*
Y-179540D01*
Y-179086D01*
Y-178633D01*
Y-178179D01*
Y-177726D01*
Y-177272D01*
Y-176819D01*
X955551D01*
Y-177272D01*
D02*
G37*
G36*
X1009071D02*
Y-177726D01*
Y-178179D01*
Y-178633D01*
Y-179086D01*
Y-179540D01*
Y-179993D01*
Y-180447D01*
Y-180901D01*
Y-181354D01*
Y-181808D01*
Y-182261D01*
Y-182715D01*
Y-183168D01*
Y-183622D01*
Y-184076D01*
Y-184529D01*
Y-184983D01*
Y-185436D01*
Y-185890D01*
Y-186343D01*
Y-186797D01*
Y-187250D01*
Y-187704D01*
Y-188158D01*
Y-188611D01*
Y-189065D01*
Y-189518D01*
Y-189972D01*
Y-190425D01*
Y-190879D01*
Y-191332D01*
Y-191786D01*
Y-192240D01*
Y-192693D01*
Y-193147D01*
Y-193600D01*
Y-194054D01*
Y-194507D01*
Y-194961D01*
Y-195414D01*
Y-195868D01*
Y-196322D01*
Y-196775D01*
Y-197229D01*
Y-197682D01*
Y-198136D01*
Y-198589D01*
Y-199043D01*
Y-199496D01*
Y-199950D01*
Y-200404D01*
Y-200857D01*
Y-201311D01*
Y-201764D01*
Y-202218D01*
Y-202671D01*
Y-203125D01*
Y-203578D01*
Y-204032D01*
Y-204486D01*
Y-204939D01*
Y-205393D01*
Y-205846D01*
Y-206300D01*
Y-206753D01*
Y-207207D01*
Y-207661D01*
Y-208114D01*
Y-208568D01*
Y-209021D01*
Y-209475D01*
Y-209928D01*
Y-210382D01*
Y-210835D01*
Y-211289D01*
Y-211742D01*
Y-212196D01*
Y-212650D01*
Y-213103D01*
Y-213557D01*
Y-214010D01*
Y-214464D01*
Y-214917D01*
Y-215371D01*
Y-215825D01*
Y-216278D01*
Y-216732D01*
Y-217185D01*
Y-217639D01*
Y-218092D01*
Y-218546D01*
Y-218999D01*
Y-219453D01*
Y-219907D01*
Y-220360D01*
Y-220814D01*
Y-221267D01*
Y-221721D01*
Y-222174D01*
Y-222628D01*
Y-223081D01*
Y-223535D01*
Y-223988D01*
Y-224442D01*
Y-224896D01*
Y-225349D01*
Y-225803D01*
Y-226256D01*
Y-226710D01*
Y-227163D01*
Y-227617D01*
Y-228071D01*
Y-228524D01*
Y-228978D01*
Y-229431D01*
Y-229885D01*
Y-230338D01*
Y-230792D01*
Y-231245D01*
Y-231699D01*
Y-232153D01*
Y-232606D01*
Y-233060D01*
Y-233513D01*
Y-233967D01*
Y-234420D01*
Y-234874D01*
Y-235327D01*
Y-235781D01*
Y-236234D01*
Y-236688D01*
Y-237142D01*
Y-237595D01*
Y-238049D01*
Y-238502D01*
X997732D01*
Y-238049D01*
Y-237595D01*
Y-237142D01*
Y-236688D01*
Y-236234D01*
Y-235781D01*
Y-235327D01*
Y-234874D01*
Y-234420D01*
Y-233967D01*
Y-233513D01*
Y-233060D01*
Y-232606D01*
Y-232153D01*
Y-231699D01*
Y-231245D01*
Y-230792D01*
Y-230338D01*
Y-229885D01*
Y-229431D01*
Y-228978D01*
Y-228524D01*
Y-228071D01*
Y-227617D01*
Y-227163D01*
Y-226710D01*
Y-226256D01*
Y-225803D01*
Y-225349D01*
Y-224896D01*
Y-224442D01*
Y-223988D01*
Y-223535D01*
Y-223081D01*
Y-222628D01*
Y-222174D01*
Y-221721D01*
Y-221267D01*
Y-220814D01*
Y-220360D01*
Y-219907D01*
Y-219453D01*
Y-218999D01*
Y-218546D01*
Y-218092D01*
Y-217639D01*
Y-217185D01*
Y-216732D01*
Y-216278D01*
Y-215825D01*
Y-215371D01*
Y-214917D01*
Y-214464D01*
Y-214010D01*
Y-213557D01*
Y-213103D01*
Y-212650D01*
Y-212196D01*
Y-211742D01*
Y-211289D01*
Y-210835D01*
Y-210382D01*
Y-209928D01*
Y-209475D01*
Y-209021D01*
Y-208568D01*
Y-208114D01*
Y-207661D01*
Y-207207D01*
Y-206753D01*
Y-206300D01*
Y-205846D01*
Y-205393D01*
Y-204939D01*
Y-204486D01*
Y-204032D01*
Y-203578D01*
Y-203125D01*
Y-202671D01*
Y-202218D01*
Y-201764D01*
Y-201311D01*
Y-200857D01*
Y-200404D01*
Y-199950D01*
Y-199496D01*
Y-199043D01*
Y-198589D01*
Y-198136D01*
Y-197682D01*
Y-197229D01*
Y-196775D01*
Y-196322D01*
Y-195868D01*
Y-195414D01*
Y-194961D01*
Y-194507D01*
Y-194054D01*
Y-193600D01*
Y-193147D01*
Y-192693D01*
Y-192240D01*
Y-191786D01*
Y-191332D01*
Y-190879D01*
Y-190425D01*
Y-189972D01*
Y-189518D01*
Y-189065D01*
Y-188611D01*
Y-188158D01*
Y-187704D01*
Y-187250D01*
Y-186797D01*
Y-186343D01*
Y-185890D01*
Y-185436D01*
Y-184983D01*
Y-184529D01*
Y-184076D01*
Y-183622D01*
Y-183168D01*
Y-182715D01*
Y-182261D01*
Y-181808D01*
Y-181354D01*
Y-180901D01*
Y-180447D01*
Y-179993D01*
Y-179540D01*
Y-179086D01*
Y-178633D01*
Y-178179D01*
Y-177726D01*
Y-177272D01*
Y-176819D01*
X1009071D01*
Y-177272D01*
D02*
G37*
G36*
X1045355Y-194054D02*
X1047623D01*
Y-194507D01*
X1048984D01*
Y-194961D01*
X1050344D01*
Y-195414D01*
X1051252D01*
Y-195868D01*
X1052159D01*
Y-196322D01*
X1053066D01*
Y-196775D01*
X1053973D01*
Y-197229D01*
X1054426D01*
Y-197682D01*
X1055333D01*
Y-198136D01*
X1055787D01*
Y-198589D01*
X1056241D01*
Y-199043D01*
X1056694D01*
Y-199496D01*
X1057148D01*
Y-199950D01*
X1057601D01*
Y-200404D01*
X1058055D01*
Y-200857D01*
X1058508D01*
Y-201311D01*
X1058962D01*
Y-201764D01*
Y-202218D01*
X1059416D01*
Y-202671D01*
X1059869D01*
Y-203125D01*
Y-203578D01*
X1060323D01*
Y-204032D01*
Y-204486D01*
X1060776D01*
Y-204939D01*
Y-205393D01*
X1061230D01*
Y-205846D01*
Y-206300D01*
X1061683D01*
Y-206753D01*
Y-207207D01*
Y-207661D01*
X1062137D01*
Y-208114D01*
Y-208568D01*
Y-209021D01*
Y-209475D01*
Y-209928D01*
X1062590D01*
Y-210382D01*
Y-210835D01*
Y-211289D01*
Y-211742D01*
Y-212196D01*
Y-212650D01*
Y-213103D01*
X1063044D01*
Y-213557D01*
Y-214010D01*
Y-214464D01*
Y-214917D01*
Y-215371D01*
Y-215825D01*
Y-216278D01*
Y-216732D01*
Y-217185D01*
Y-217639D01*
Y-218092D01*
Y-218546D01*
Y-218999D01*
Y-219453D01*
Y-219907D01*
X1062590D01*
Y-220360D01*
Y-220814D01*
Y-221267D01*
Y-221721D01*
Y-222174D01*
Y-222628D01*
Y-223081D01*
X1062137D01*
Y-223535D01*
Y-223988D01*
Y-224442D01*
Y-224896D01*
X1061683D01*
Y-225349D01*
Y-225803D01*
Y-226256D01*
X1061230D01*
Y-226710D01*
Y-227163D01*
Y-227617D01*
X1060776D01*
Y-228071D01*
Y-228524D01*
X1060323D01*
Y-228978D01*
Y-229431D01*
X1059869D01*
Y-229885D01*
Y-230338D01*
X1059416D01*
Y-230792D01*
X1058962D01*
Y-231245D01*
X1058508D01*
Y-231699D01*
Y-232153D01*
X1058055D01*
Y-232606D01*
X1057601D01*
Y-233060D01*
X1057148D01*
Y-233513D01*
X1056694D01*
Y-233967D01*
X1056241D01*
Y-234420D01*
X1055787D01*
Y-234874D01*
X1054880D01*
Y-235327D01*
X1054426D01*
Y-235781D01*
X1053519D01*
Y-236234D01*
X1053066D01*
Y-236688D01*
X1052159D01*
Y-237142D01*
X1051252D01*
Y-237595D01*
X1049891D01*
Y-238049D01*
X1048530D01*
Y-238502D01*
X1047169D01*
Y-238956D01*
X1044902D01*
Y-239409D01*
X1035377D01*
Y-238956D01*
X1032656D01*
Y-238502D01*
X1030841D01*
Y-238049D01*
X1029934D01*
Y-237595D01*
X1028574D01*
Y-237142D01*
X1027667D01*
Y-236688D01*
X1026759D01*
Y-236234D01*
X1026306D01*
Y-235781D01*
X1025399D01*
Y-235327D01*
X1024945D01*
Y-234874D01*
X1024038D01*
Y-234420D01*
X1023585D01*
Y-233967D01*
X1023131D01*
Y-233513D01*
X1022678D01*
Y-233060D01*
X1022224D01*
Y-232606D01*
X1021770D01*
Y-232153D01*
X1021317D01*
Y-231699D01*
Y-231245D01*
X1020863D01*
Y-230792D01*
X1020410D01*
Y-230338D01*
X1019956D01*
Y-229885D01*
Y-229431D01*
X1019503D01*
Y-228978D01*
Y-228524D01*
X1019049D01*
Y-228071D01*
Y-227617D01*
X1018595D01*
Y-227163D01*
Y-226710D01*
Y-226256D01*
X1018142D01*
Y-225803D01*
Y-225349D01*
Y-224896D01*
X1017688D01*
Y-224442D01*
Y-223988D01*
Y-223535D01*
Y-223081D01*
X1017235D01*
Y-222628D01*
Y-222174D01*
Y-221721D01*
Y-221267D01*
Y-220814D01*
Y-220360D01*
Y-219907D01*
Y-219453D01*
X1016781D01*
Y-218999D01*
Y-218546D01*
Y-218092D01*
Y-217639D01*
Y-217185D01*
Y-216732D01*
Y-216278D01*
Y-215825D01*
Y-215371D01*
Y-214917D01*
Y-214464D01*
Y-214010D01*
Y-213557D01*
X1017235D01*
Y-213103D01*
Y-212650D01*
Y-212196D01*
Y-211742D01*
Y-211289D01*
Y-210835D01*
Y-210382D01*
Y-209928D01*
X1017688D01*
Y-209475D01*
Y-209021D01*
Y-208568D01*
Y-208114D01*
X1018142D01*
Y-207661D01*
Y-207207D01*
Y-206753D01*
X1018595D01*
Y-206300D01*
Y-205846D01*
Y-205393D01*
X1019049D01*
Y-204939D01*
Y-204486D01*
X1019503D01*
Y-204032D01*
Y-203578D01*
X1019956D01*
Y-203125D01*
Y-202671D01*
X1020410D01*
Y-202218D01*
X1020863D01*
Y-201764D01*
Y-201311D01*
X1021317D01*
Y-200857D01*
X1021770D01*
Y-200404D01*
X1022224D01*
Y-199950D01*
X1022678D01*
Y-199496D01*
X1023131D01*
Y-199043D01*
X1023585D01*
Y-198589D01*
X1024038D01*
Y-198136D01*
X1024492D01*
Y-197682D01*
X1025399D01*
Y-197229D01*
X1025852D01*
Y-196775D01*
X1026759D01*
Y-196322D01*
X1027667D01*
Y-195868D01*
X1028574D01*
Y-195414D01*
X1029481D01*
Y-194961D01*
X1030841D01*
Y-194507D01*
X1032202D01*
Y-194054D01*
X1034470D01*
Y-193600D01*
X1045355D01*
Y-194054D01*
D02*
G37*
G36*
X1111121Y-194961D02*
X1110667D01*
Y-195414D01*
Y-195868D01*
X1110214D01*
Y-196322D01*
X1109760D01*
Y-196775D01*
X1109307D01*
Y-197229D01*
Y-197682D01*
X1108853D01*
Y-198136D01*
X1108400D01*
Y-198589D01*
Y-199043D01*
X1107946D01*
Y-199496D01*
X1107492D01*
Y-199950D01*
X1107039D01*
Y-200404D01*
Y-200857D01*
X1106585D01*
Y-201311D01*
X1106132D01*
Y-201764D01*
X1105678D01*
Y-202218D01*
Y-202671D01*
X1105225D01*
Y-203125D01*
X1104771D01*
Y-203578D01*
X1104317D01*
Y-204032D01*
Y-204486D01*
X1103864D01*
Y-204939D01*
X1103410D01*
Y-205393D01*
Y-205846D01*
X1102957D01*
Y-206300D01*
X1102503D01*
Y-206753D01*
X1102050D01*
Y-207207D01*
Y-207661D01*
X1101596D01*
Y-208114D01*
X1101143D01*
Y-208568D01*
X1100689D01*
Y-209021D01*
Y-209475D01*
X1100236D01*
Y-209928D01*
X1099782D01*
Y-210382D01*
Y-210835D01*
X1099328D01*
Y-211289D01*
X1098875D01*
Y-211742D01*
X1098421D01*
Y-212196D01*
Y-212650D01*
X1097968D01*
Y-213103D01*
X1097514D01*
Y-213557D01*
X1097061D01*
Y-214010D01*
Y-214464D01*
X1096607D01*
Y-214917D01*
X1096153D01*
Y-215371D01*
X1095700D01*
Y-215825D01*
Y-216278D01*
Y-216732D01*
X1096153D01*
Y-217185D01*
Y-217639D01*
X1096607D01*
Y-218092D01*
X1097061D01*
Y-218546D01*
X1097514D01*
Y-218999D01*
Y-219453D01*
X1097968D01*
Y-219907D01*
X1098421D01*
Y-220360D01*
X1098875D01*
Y-220814D01*
Y-221267D01*
X1099328D01*
Y-221721D01*
X1099782D01*
Y-222174D01*
Y-222628D01*
X1100236D01*
Y-223081D01*
X1100689D01*
Y-223535D01*
X1101143D01*
Y-223988D01*
Y-224442D01*
X1101596D01*
Y-224896D01*
X1102050D01*
Y-225349D01*
X1102503D01*
Y-225803D01*
Y-226256D01*
X1102957D01*
Y-226710D01*
X1103410D01*
Y-227163D01*
X1103864D01*
Y-227617D01*
Y-228071D01*
X1104317D01*
Y-228524D01*
X1104771D01*
Y-228978D01*
X1105225D01*
Y-229431D01*
Y-229885D01*
X1105678D01*
Y-230338D01*
X1106132D01*
Y-230792D01*
X1106585D01*
Y-231245D01*
Y-231699D01*
X1107039D01*
Y-232153D01*
X1107492D01*
Y-232606D01*
X1107946D01*
Y-233060D01*
Y-233513D01*
X1108400D01*
Y-233967D01*
X1108853D01*
Y-234420D01*
Y-234874D01*
X1109307D01*
Y-235327D01*
X1109760D01*
Y-235781D01*
X1110214D01*
Y-236234D01*
Y-236688D01*
X1110667D01*
Y-237142D01*
X1111121D01*
Y-237595D01*
X1111574D01*
Y-238049D01*
X1112028D01*
Y-238502D01*
X1097514D01*
Y-238049D01*
Y-237595D01*
X1097061D01*
Y-237142D01*
X1096607D01*
Y-236688D01*
X1096153D01*
Y-236234D01*
Y-235781D01*
X1095700D01*
Y-235327D01*
X1095246D01*
Y-234874D01*
X1094793D01*
Y-234420D01*
Y-233967D01*
X1094339D01*
Y-233513D01*
X1093886D01*
Y-233060D01*
Y-232606D01*
X1093432D01*
Y-232153D01*
X1092979D01*
Y-231699D01*
X1092525D01*
Y-231245D01*
Y-230792D01*
X1092072D01*
Y-230338D01*
X1091618D01*
Y-229885D01*
X1091164D01*
Y-229431D01*
Y-228978D01*
X1090711D01*
Y-228524D01*
X1090257D01*
Y-228071D01*
Y-227617D01*
X1089804D01*
Y-227163D01*
X1089350D01*
Y-226710D01*
X1088897D01*
Y-226256D01*
Y-225803D01*
X1088443D01*
Y-225349D01*
X1087990D01*
Y-224896D01*
X1087536D01*
Y-224442D01*
X1087082D01*
Y-224896D01*
Y-225349D01*
X1086629D01*
Y-225803D01*
X1086175D01*
Y-226256D01*
X1085722D01*
Y-226710D01*
Y-227163D01*
X1085268D01*
Y-227617D01*
X1084815D01*
Y-228071D01*
Y-228524D01*
X1084361D01*
Y-228978D01*
X1083907D01*
Y-229431D01*
X1083454D01*
Y-229885D01*
Y-230338D01*
X1083000D01*
Y-230792D01*
X1082547D01*
Y-231245D01*
Y-231699D01*
X1082093D01*
Y-232153D01*
X1081640D01*
Y-232606D01*
X1081186D01*
Y-233060D01*
Y-233513D01*
X1080733D01*
Y-233967D01*
X1080279D01*
Y-234420D01*
Y-234874D01*
X1079826D01*
Y-235327D01*
X1079372D01*
Y-235781D01*
X1078918D01*
Y-236234D01*
Y-236688D01*
X1078465D01*
Y-237142D01*
X1078011D01*
Y-237595D01*
Y-238049D01*
X1077558D01*
Y-238502D01*
X1064405D01*
Y-238049D01*
X1064858D01*
Y-237595D01*
X1065312D01*
Y-237142D01*
Y-236688D01*
X1065765D01*
Y-236234D01*
X1066219D01*
Y-235781D01*
X1066672D01*
Y-235327D01*
Y-234874D01*
X1067126D01*
Y-234420D01*
X1067579D01*
Y-233967D01*
Y-233513D01*
X1068033D01*
Y-233060D01*
X1068487D01*
Y-232606D01*
X1068940D01*
Y-232153D01*
X1069394D01*
Y-231699D01*
Y-231245D01*
X1069847D01*
Y-230792D01*
X1070301D01*
Y-230338D01*
Y-229885D01*
X1070754D01*
Y-229431D01*
X1071208D01*
Y-228978D01*
X1071662D01*
Y-228524D01*
Y-228071D01*
X1072115D01*
Y-227617D01*
X1072569D01*
Y-227163D01*
X1073022D01*
Y-226710D01*
Y-226256D01*
X1073476D01*
Y-225803D01*
X1073929D01*
Y-225349D01*
X1074383D01*
Y-224896D01*
Y-224442D01*
X1074836D01*
Y-223988D01*
X1075290D01*
Y-223535D01*
X1075743D01*
Y-223081D01*
Y-222628D01*
X1076197D01*
Y-222174D01*
X1076651D01*
Y-221721D01*
X1077104D01*
Y-221267D01*
Y-220814D01*
X1077558D01*
Y-220360D01*
X1078011D01*
Y-219907D01*
X1078465D01*
Y-219453D01*
Y-218999D01*
X1078918D01*
Y-218546D01*
X1079372D01*
Y-218092D01*
Y-217639D01*
X1079826D01*
Y-217185D01*
X1080279D01*
Y-216732D01*
X1080733D01*
Y-216278D01*
Y-215825D01*
X1080279D01*
Y-215371D01*
X1079826D01*
Y-214917D01*
X1079372D01*
Y-214464D01*
Y-214010D01*
X1078918D01*
Y-213557D01*
X1078465D01*
Y-213103D01*
X1078011D01*
Y-212650D01*
Y-212196D01*
X1077558D01*
Y-211742D01*
X1077104D01*
Y-211289D01*
Y-210835D01*
X1076651D01*
Y-210382D01*
X1076197D01*
Y-209928D01*
X1075743D01*
Y-209475D01*
Y-209021D01*
X1075290D01*
Y-208568D01*
X1074836D01*
Y-208114D01*
X1074383D01*
Y-207661D01*
Y-207207D01*
X1073929D01*
Y-206753D01*
X1073476D01*
Y-206300D01*
Y-205846D01*
X1073022D01*
Y-205393D01*
X1072569D01*
Y-204939D01*
X1072115D01*
Y-204486D01*
Y-204032D01*
X1071662D01*
Y-203578D01*
X1071208D01*
Y-203125D01*
X1070754D01*
Y-202671D01*
Y-202218D01*
X1070301D01*
Y-201764D01*
X1069847D01*
Y-201311D01*
Y-200857D01*
X1069394D01*
Y-200404D01*
X1068940D01*
Y-199950D01*
X1068487D01*
Y-199496D01*
Y-199043D01*
X1068033D01*
Y-198589D01*
X1067579D01*
Y-198136D01*
X1067126D01*
Y-197682D01*
Y-197229D01*
X1066672D01*
Y-196775D01*
X1066219D01*
Y-196322D01*
Y-195868D01*
X1065765D01*
Y-195414D01*
X1065312D01*
Y-194961D01*
X1064858D01*
Y-194507D01*
X1078918D01*
Y-194961D01*
X1079372D01*
Y-195414D01*
X1079826D01*
Y-195868D01*
Y-196322D01*
X1080279D01*
Y-196775D01*
X1080733D01*
Y-197229D01*
X1081186D01*
Y-197682D01*
Y-198136D01*
X1081640D01*
Y-198589D01*
X1082093D01*
Y-199043D01*
Y-199496D01*
X1082547D01*
Y-199950D01*
X1083000D01*
Y-200404D01*
Y-200857D01*
X1083454D01*
Y-201311D01*
X1083907D01*
Y-201764D01*
X1084361D01*
Y-202218D01*
Y-202671D01*
X1084815D01*
Y-203125D01*
X1085268D01*
Y-203578D01*
Y-204032D01*
X1085722D01*
Y-204486D01*
X1086175D01*
Y-204939D01*
X1086629D01*
Y-205393D01*
Y-205846D01*
X1087082D01*
Y-206300D01*
X1087536D01*
Y-206753D01*
Y-207207D01*
X1087990D01*
Y-207661D01*
X1088443D01*
Y-208114D01*
X1088897D01*
Y-207661D01*
X1089350D01*
Y-207207D01*
Y-206753D01*
X1089804D01*
Y-206300D01*
X1090257D01*
Y-205846D01*
X1090711D01*
Y-205393D01*
Y-204939D01*
X1091164D01*
Y-204486D01*
X1091618D01*
Y-204032D01*
Y-203578D01*
X1092072D01*
Y-203125D01*
X1092525D01*
Y-202671D01*
X1092979D01*
Y-202218D01*
Y-201764D01*
X1093432D01*
Y-201311D01*
X1093886D01*
Y-200857D01*
Y-200404D01*
X1094339D01*
Y-199950D01*
X1094793D01*
Y-199496D01*
X1095246D01*
Y-199043D01*
Y-198589D01*
X1095700D01*
Y-198136D01*
X1096153D01*
Y-197682D01*
Y-197229D01*
X1096607D01*
Y-196775D01*
X1097061D01*
Y-196322D01*
X1097514D01*
Y-195868D01*
Y-195414D01*
X1097968D01*
Y-194961D01*
X1098421D01*
Y-194507D01*
X1111121D01*
Y-194961D01*
D02*
G37*
%LPC*%
G36*
X873457Y-173644D02*
X871190D01*
Y-174097D01*
X869376D01*
Y-174551D01*
X868468D01*
Y-175004D01*
X867561D01*
Y-175458D01*
X866654D01*
Y-175912D01*
X866201D01*
Y-176365D01*
X865747D01*
Y-176819D01*
X865294D01*
Y-177272D01*
X864840D01*
Y-177726D01*
Y-178179D01*
X864386D01*
Y-178633D01*
X863933D01*
Y-179086D01*
Y-179540D01*
X863479D01*
Y-179993D01*
Y-180447D01*
Y-180901D01*
Y-181354D01*
X863026D01*
Y-181808D01*
Y-182261D01*
Y-182715D01*
Y-183168D01*
Y-183622D01*
Y-184076D01*
Y-184529D01*
Y-184983D01*
X863479D01*
Y-185436D01*
Y-185890D01*
Y-186343D01*
X863933D01*
Y-186797D01*
Y-187250D01*
X864386D01*
Y-187704D01*
Y-188158D01*
X864840D01*
Y-188611D01*
X865294D01*
Y-189065D01*
X865747D01*
Y-189518D01*
X866201D01*
Y-189972D01*
X866654D01*
Y-190425D01*
X867108D01*
Y-190879D01*
X868015D01*
Y-191332D01*
X868922D01*
Y-191786D01*
X870283D01*
Y-192240D01*
X874365D01*
Y-191786D01*
X875725D01*
Y-191332D01*
X876632D01*
Y-190879D01*
X877540D01*
Y-190425D01*
X877993D01*
Y-189972D01*
X878447D01*
Y-189518D01*
X879354D01*
Y-189065D01*
Y-188611D01*
X879807D01*
Y-188158D01*
X880261D01*
Y-187704D01*
Y-187250D01*
X880714D01*
Y-186797D01*
Y-186343D01*
X881168D01*
Y-185890D01*
Y-185436D01*
Y-184983D01*
X881622D01*
Y-184529D01*
Y-184076D01*
Y-183622D01*
Y-183168D01*
Y-182715D01*
Y-182261D01*
Y-181808D01*
Y-181354D01*
X881168D01*
Y-180901D01*
Y-180447D01*
Y-179993D01*
Y-179540D01*
X880714D01*
Y-179086D01*
Y-178633D01*
X880261D01*
Y-178179D01*
Y-177726D01*
X879807D01*
Y-177272D01*
X879354D01*
Y-176819D01*
X878900D01*
Y-176365D01*
X878447D01*
Y-175912D01*
X877993D01*
Y-175458D01*
X877086D01*
Y-175004D01*
X876632D01*
Y-174551D01*
X875272D01*
Y-174097D01*
X873457D01*
Y-173644D01*
D02*
G37*
G36*
X968251Y-203578D02*
X964169D01*
Y-204032D01*
X962355D01*
Y-204486D01*
X960994D01*
Y-204939D01*
X960087D01*
Y-205393D01*
X959633D01*
Y-205846D01*
X958726D01*
Y-206300D01*
X958272D01*
Y-206753D01*
X957819D01*
Y-207207D01*
Y-207661D01*
X957365D01*
Y-208114D01*
X956912D01*
Y-208568D01*
Y-209021D01*
X956458D01*
Y-209475D01*
Y-209928D01*
X956005D01*
Y-210382D01*
Y-210835D01*
Y-211289D01*
X955551D01*
Y-211742D01*
Y-212196D01*
Y-212650D01*
Y-213103D01*
Y-213557D01*
X955098D01*
Y-214010D01*
Y-214464D01*
Y-214917D01*
Y-215371D01*
Y-215825D01*
Y-216278D01*
Y-216732D01*
Y-217185D01*
Y-217639D01*
Y-218092D01*
Y-218546D01*
Y-218999D01*
Y-219453D01*
X955551D01*
Y-219907D01*
Y-220360D01*
Y-220814D01*
Y-221267D01*
Y-221721D01*
X956005D01*
Y-222174D01*
Y-222628D01*
Y-223081D01*
X956458D01*
Y-223535D01*
Y-223988D01*
X956912D01*
Y-224442D01*
Y-224896D01*
X957365D01*
Y-225349D01*
X957819D01*
Y-225803D01*
X958272D01*
Y-226256D01*
X958726D01*
Y-226710D01*
X959180D01*
Y-227163D01*
X959633D01*
Y-227617D01*
X960540D01*
Y-228071D01*
X961447D01*
Y-228524D01*
X962355D01*
Y-228978D01*
X964622D01*
Y-229431D01*
X967797D01*
Y-228978D01*
X970065D01*
Y-228524D01*
X971426D01*
Y-228071D01*
X972333D01*
Y-227617D01*
X972786D01*
Y-227163D01*
X973693D01*
Y-226710D01*
X974147D01*
Y-226256D01*
X974601D01*
Y-225803D01*
X975054D01*
Y-225349D01*
Y-224896D01*
X975508D01*
Y-224442D01*
X975961D01*
Y-223988D01*
Y-223535D01*
X976415D01*
Y-223081D01*
Y-222628D01*
Y-222174D01*
X976868D01*
Y-221721D01*
Y-221267D01*
Y-220814D01*
Y-220360D01*
X977322D01*
Y-219907D01*
Y-219453D01*
Y-218999D01*
Y-218546D01*
Y-218092D01*
Y-217639D01*
Y-217185D01*
Y-216732D01*
Y-216278D01*
Y-215825D01*
Y-215371D01*
Y-214917D01*
Y-214464D01*
Y-214010D01*
Y-213557D01*
Y-213103D01*
Y-212650D01*
Y-212196D01*
X976868D01*
Y-211742D01*
Y-211289D01*
Y-210835D01*
Y-210382D01*
X976415D01*
Y-209928D01*
Y-209475D01*
X975961D01*
Y-209021D01*
Y-208568D01*
X975508D01*
Y-208114D01*
Y-207661D01*
X975054D01*
Y-207207D01*
X974601D01*
Y-206753D01*
X974147D01*
Y-206300D01*
X973693D01*
Y-205846D01*
X973240D01*
Y-205393D01*
X972333D01*
Y-204939D01*
X971426D01*
Y-204486D01*
X970518D01*
Y-204032D01*
X968251D01*
Y-203578D01*
D02*
G37*
G36*
X1042180D02*
X1037645D01*
Y-204032D01*
X1035831D01*
Y-204486D01*
X1034470D01*
Y-204939D01*
X1033563D01*
Y-205393D01*
X1033109D01*
Y-205846D01*
X1032656D01*
Y-206300D01*
X1032202D01*
Y-206753D01*
X1031749D01*
Y-207207D01*
X1031295D01*
Y-207661D01*
X1030841D01*
Y-208114D01*
X1030388D01*
Y-208568D01*
Y-209021D01*
X1029934D01*
Y-209475D01*
Y-209928D01*
X1029481D01*
Y-210382D01*
Y-210835D01*
Y-211289D01*
X1029027D01*
Y-211742D01*
Y-212196D01*
Y-212650D01*
Y-213103D01*
Y-213557D01*
Y-214010D01*
Y-214464D01*
X1028574D01*
Y-214917D01*
Y-215371D01*
Y-215825D01*
Y-216278D01*
Y-216732D01*
Y-217185D01*
Y-217639D01*
Y-218092D01*
X1029027D01*
Y-218546D01*
Y-218999D01*
Y-219453D01*
Y-219907D01*
Y-220360D01*
Y-220814D01*
Y-221267D01*
X1029481D01*
Y-221721D01*
Y-222174D01*
Y-222628D01*
X1029934D01*
Y-223081D01*
Y-223535D01*
Y-223988D01*
X1030388D01*
Y-224442D01*
X1030841D01*
Y-224896D01*
Y-225349D01*
X1031295D01*
Y-225803D01*
X1031749D01*
Y-226256D01*
X1032202D01*
Y-226710D01*
X1032656D01*
Y-227163D01*
X1033109D01*
Y-227617D01*
X1034016D01*
Y-228071D01*
X1034923D01*
Y-228524D01*
X1036284D01*
Y-228978D01*
X1038552D01*
Y-229431D01*
X1041273D01*
Y-228978D01*
X1043541D01*
Y-228524D01*
X1044902D01*
Y-228071D01*
X1045809D01*
Y-227617D01*
X1046716D01*
Y-227163D01*
X1047169D01*
Y-226710D01*
X1047623D01*
Y-226256D01*
X1048077D01*
Y-225803D01*
X1048530D01*
Y-225349D01*
X1048984D01*
Y-224896D01*
Y-224442D01*
X1049437D01*
Y-223988D01*
X1049891D01*
Y-223535D01*
Y-223081D01*
Y-222628D01*
X1050344D01*
Y-222174D01*
Y-221721D01*
Y-221267D01*
X1050798D01*
Y-220814D01*
Y-220360D01*
Y-219907D01*
Y-219453D01*
Y-218999D01*
X1051252D01*
Y-218546D01*
Y-218092D01*
Y-217639D01*
Y-217185D01*
Y-216732D01*
Y-216278D01*
Y-215825D01*
Y-215371D01*
Y-214917D01*
Y-214464D01*
Y-214010D01*
X1050798D01*
Y-213557D01*
Y-213103D01*
Y-212650D01*
Y-212196D01*
Y-211742D01*
Y-211289D01*
X1050344D01*
Y-210835D01*
Y-210382D01*
Y-209928D01*
X1049891D01*
Y-209475D01*
Y-209021D01*
X1049437D01*
Y-208568D01*
Y-208114D01*
X1048984D01*
Y-207661D01*
X1048530D01*
Y-207207D01*
X1048077D01*
Y-206753D01*
X1047623D01*
Y-206300D01*
X1047169D01*
Y-205846D01*
X1046716D01*
Y-205393D01*
X1045809D01*
Y-204939D01*
X1045355D01*
Y-204486D01*
X1043995D01*
Y-204032D01*
X1042180D01*
Y-203578D01*
D02*
G37*
%LPD*%
D10*
X2227580Y1448258D02*
Y1524508D01*
X2057400Y1448258D02*
Y1524508D01*
X1562100Y1448258D02*
Y1524508D01*
X1470660Y1448258D02*
Y1524508D01*
Y1448258D02*
X2344420D01*
X1470660Y1486358D02*
X2344360D01*
X1582360Y-165262D02*
Y-128686D01*
X1201360D02*
X1582360D01*
X772160D02*
X1201360D01*
X1582360Y-317662D02*
Y-165262D01*
X2115760Y-317662D02*
Y-187868D01*
X1201360Y-317662D02*
Y-128686D01*
X2344360Y-317662D02*
Y-128686D01*
X1582360D02*
X2344360D01*
X1201360Y-187106D02*
X2344360D01*
X1201360Y-250352D02*
X2344360D01*
X1201360Y-317662D02*
X2344360D01*
X772160D02*
Y-128686D01*
Y-317662D02*
X1201360D01*
X2227580Y1524508D02*
Y1681988D01*
X2057400Y1524508D02*
Y1681988D01*
X1562100Y1524508D02*
Y1681988D01*
X1470660D02*
X2344360D01*
X1470660Y1600708D02*
X2344360D01*
X1470660Y1638808D02*
X2344420D01*
X1470660Y1562608D02*
X2344360D01*
X1470660Y1524508D02*
X2344420D01*
X1470660D02*
Y1740408D01*
X-398780Y-367792D02*
X2395220D01*
X2344360Y171288D02*
X2395160D01*
X2344360Y711038D02*
X2395160D01*
X2344360Y1250788D02*
X2395160D01*
X2344360Y-317662D02*
Y1739738D01*
X2395220Y-367792D02*
Y1791208D01*
X-398780D02*
X2395220D01*
X1696660Y1739738D02*
Y1790538D01*
X998160Y1739738D02*
Y1790538D01*
X299660Y1739738D02*
Y1790538D01*
X-348040Y1739738D02*
X2344360D01*
X1696660Y-368462D02*
Y-317662D01*
X998160Y-368462D02*
Y-317662D01*
X299660Y-368462D02*
Y-317662D01*
X-398840Y171288D02*
X-348040D01*
X-398840Y711038D02*
X-348040D01*
X-398840Y1250788D02*
X-348040D01*
X-398780Y-367792D02*
Y1791208D01*
X-348040Y-317662D02*
Y1739738D01*
Y-317662D02*
X2344360D01*
X1588202Y-207172D02*
Y-194476D01*
X1594550D01*
X1596666Y-196592D01*
Y-200824D01*
X1594550Y-202940D01*
X1588202D01*
X1609362Y-196592D02*
X1607246Y-194476D01*
X1603014D01*
X1600898Y-196592D01*
Y-205056D01*
X1603014Y-207172D01*
X1607246D01*
X1609362Y-205056D01*
X1613594Y-194476D02*
Y-207172D01*
X1619942D01*
X1622058Y-205056D01*
Y-202940D01*
X1619942Y-200824D01*
X1613594D01*
X1619942D01*
X1622058Y-198708D01*
Y-196592D01*
X1619942Y-194476D01*
X1613594D01*
X1638985Y-207172D02*
Y-194476D01*
X1647449Y-207172D01*
Y-194476D01*
X1651681Y-207172D02*
Y-198708D01*
X1655913Y-194476D01*
X1660145Y-198708D01*
Y-207172D01*
Y-200824D01*
X1651681D01*
X1664377Y-207172D02*
Y-194476D01*
X1668609Y-198708D01*
X1672841Y-194476D01*
Y-207172D01*
X1685537Y-194476D02*
X1677073D01*
Y-207172D01*
X1685537D01*
X1677073Y-200824D02*
X1681305D01*
X1689769Y-198708D02*
X1691885D01*
Y-200824D01*
X1689769D01*
Y-198708D01*
Y-205056D02*
X1691885D01*
Y-207172D01*
X1689769D01*
Y-205056D01*
X2128542Y-262632D02*
X2126426Y-260516D01*
X2122194D01*
X2120078Y-262632D01*
Y-264748D01*
X2122194Y-266864D01*
X2126426D01*
X2128542Y-268980D01*
Y-271096D01*
X2126426Y-273212D01*
X2122194D01*
X2120078Y-271096D01*
X2141238Y-262632D02*
X2139122Y-260516D01*
X2134890D01*
X2132774Y-262632D01*
Y-271096D01*
X2134890Y-273212D01*
X2139122D01*
X2141238Y-271096D01*
X2145470Y-273212D02*
Y-264748D01*
X2149702Y-260516D01*
X2153934Y-264748D01*
Y-273212D01*
Y-266864D01*
X2145470D01*
X2158166Y-260516D02*
Y-273212D01*
X2166630D01*
X2179326Y-260516D02*
X2170862D01*
Y-273212D01*
X2179326D01*
X2170862Y-266864D02*
X2175094D01*
X2183557Y-264748D02*
X2185673D01*
Y-266864D01*
X2183557D01*
Y-264748D01*
Y-271096D02*
X2185673D01*
Y-273212D01*
X2183557D01*
Y-271096D01*
X1595964Y-258576D02*
X1587500D01*
Y-264924D01*
X1591732D01*
X1587500D01*
Y-271272D01*
X1600196Y-258576D02*
X1604428D01*
X1602312D01*
Y-271272D01*
X1600196D01*
X1604428D01*
X1610776Y-258576D02*
Y-271272D01*
X1619240D01*
X1631936Y-258576D02*
X1623472D01*
Y-271272D01*
X1631936D01*
X1623472Y-264924D02*
X1627704D01*
X1648864Y-271272D02*
Y-258576D01*
X1657327Y-271272D01*
Y-258576D01*
X1661559Y-271272D02*
Y-262808D01*
X1665791Y-258576D01*
X1670023Y-262808D01*
Y-271272D01*
Y-264924D01*
X1661559D01*
X1674255Y-271272D02*
Y-258576D01*
X1678487Y-262808D01*
X1682719Y-258576D01*
Y-271272D01*
X1695415Y-258576D02*
X1686951D01*
Y-271272D01*
X1695415D01*
X1686951Y-264924D02*
X1691183D01*
X1699647Y-262808D02*
X1701763D01*
Y-264924D01*
X1699647D01*
Y-262808D01*
Y-269156D02*
X1701763D01*
Y-271272D01*
X1699647D01*
Y-269156D01*
X1589472Y-152816D02*
Y-140120D01*
X1595820D01*
X1597936Y-142236D01*
Y-146468D01*
X1595820Y-148584D01*
X1589472D01*
X1602168Y-152816D02*
Y-140120D01*
X1608516D01*
X1610632Y-142236D01*
Y-146468D01*
X1608516Y-148584D01*
X1602168D01*
X1606400D02*
X1610632Y-152816D01*
X1621212Y-140120D02*
X1616980D01*
X1614864Y-142236D01*
Y-150700D01*
X1616980Y-152816D01*
X1621212D01*
X1623328Y-150700D01*
Y-142236D01*
X1621212Y-140120D01*
X1636024D02*
X1631792D01*
X1633908D01*
Y-150700D01*
X1631792Y-152816D01*
X1629676D01*
X1627560Y-150700D01*
X1648719Y-140120D02*
X1640255D01*
Y-152816D01*
X1648719D01*
X1640255Y-146468D02*
X1644487D01*
X1661415Y-142236D02*
X1659299Y-140120D01*
X1655067D01*
X1652951Y-142236D01*
Y-150700D01*
X1655067Y-152816D01*
X1659299D01*
X1661415Y-150700D01*
X1665647Y-140120D02*
X1674111D01*
X1669879D01*
Y-152816D01*
X1678343Y-144352D02*
X1680459D01*
Y-146468D01*
X1678343D01*
Y-144352D01*
Y-150700D02*
X1680459D01*
Y-152816D01*
X1678343D01*
Y-150700D01*
X1212872Y-140374D02*
X1204408D01*
Y-153070D01*
X1212872D01*
X1204408Y-146722D02*
X1208640D01*
X1217104Y-153070D02*
Y-140374D01*
X1225568Y-153070D01*
Y-140374D01*
X1238264Y-142490D02*
X1236148Y-140374D01*
X1231916D01*
X1229800Y-142490D01*
Y-150954D01*
X1231916Y-153070D01*
X1236148D01*
X1238264Y-150954D01*
Y-146722D01*
X1234032D01*
X1242496Y-140374D02*
X1246728D01*
X1244612D01*
Y-153070D01*
X1242496D01*
X1246728D01*
X1253076D02*
Y-140374D01*
X1261540Y-153070D01*
Y-140374D01*
X1274235D02*
X1265771D01*
Y-153070D01*
X1274235D01*
X1265771Y-146722D02*
X1270003D01*
X1286931Y-140374D02*
X1278467D01*
Y-153070D01*
X1286931D01*
X1278467Y-146722D02*
X1282699D01*
X1291163Y-153070D02*
Y-140374D01*
X1297511D01*
X1299627Y-142490D01*
Y-146722D01*
X1297511Y-148838D01*
X1291163D01*
X1295395D02*
X1299627Y-153070D01*
X1303859Y-144606D02*
X1305975D01*
Y-146722D01*
X1303859D01*
Y-144606D01*
Y-150954D02*
X1305975D01*
Y-153070D01*
X1303859D01*
Y-150954D01*
X1206500Y-258576D02*
Y-271272D01*
X1212848D01*
X1214964Y-269156D01*
Y-260692D01*
X1212848Y-258576D01*
X1206500D01*
X1219196D02*
Y-271272D01*
X1223428Y-267040D01*
X1227660Y-271272D01*
Y-258576D01*
X1240356Y-260692D02*
X1238240Y-258576D01*
X1234008D01*
X1231892Y-260692D01*
Y-269156D01*
X1234008Y-271272D01*
X1238240D01*
X1240356Y-269156D01*
Y-264924D01*
X1236124D01*
X1257283Y-271272D02*
Y-258576D01*
X1265748Y-271272D01*
Y-258576D01*
X1276327D02*
X1272095D01*
X1269979Y-260692D01*
Y-269156D01*
X1272095Y-271272D01*
X1276327D01*
X1278443Y-269156D01*
Y-260692D01*
X1276327Y-258576D01*
X1282675Y-262808D02*
X1284791D01*
Y-264924D01*
X1282675D01*
Y-262808D01*
Y-269156D02*
X1284791D01*
Y-271272D01*
X1282675D01*
Y-269156D01*
X2121348Y-210474D02*
Y-197778D01*
X2127696D01*
X2129812Y-199894D01*
Y-204126D01*
X2127696Y-206242D01*
X2121348D01*
X2125580D02*
X2129812Y-210474D01*
X2142508Y-197778D02*
X2134044D01*
Y-210474D01*
X2142508D01*
X2134044Y-204126D02*
X2138276D01*
X2146740Y-197778D02*
Y-206242D01*
X2150972Y-210474D01*
X2155204Y-206242D01*
Y-197778D01*
X2159436Y-202010D02*
X2161552D01*
Y-204126D01*
X2159436D01*
Y-202010D01*
Y-208358D02*
X2161552D01*
Y-210474D01*
X2159436D01*
Y-208358D01*
X1205170Y-195492D02*
Y-208188D01*
X1211518D01*
X1213634Y-206072D01*
Y-197608D01*
X1211518Y-195492D01*
X1205170D01*
X1217866Y-208188D02*
Y-199724D01*
X1222098Y-195492D01*
X1226330Y-199724D01*
Y-208188D01*
Y-201840D01*
X1217866D01*
X1230562Y-195492D02*
X1239026D01*
X1234794D01*
Y-208188D01*
X1251722Y-195492D02*
X1243258D01*
Y-208188D01*
X1251722D01*
X1243258Y-201840D02*
X1247490D01*
X1255954Y-199724D02*
X1258070D01*
Y-201840D01*
X1255954D01*
Y-199724D01*
Y-206072D02*
X1258070D01*
Y-208188D01*
X1255954D01*
Y-206072D01*
X2111174Y21709D02*
Y11551D01*
Y21709D02*
X2114560D01*
X2116011Y21225D01*
X2116978Y20258D01*
X2117462Y19290D01*
X2117946Y17839D01*
Y15421D01*
X2117462Y13970D01*
X2116978Y13002D01*
X2116011Y12035D01*
X2114560Y11551D01*
X2111174D01*
X2120219Y18323D02*
Y11551D01*
Y15421D02*
X2120703Y16872D01*
X2121671Y17839D01*
X2122638Y18323D01*
X2124089D01*
X2125975Y21709D02*
X2126459Y21225D01*
X2126943Y21709D01*
X2126459Y22193D01*
X2125975Y21709D01*
X2126459Y18323D02*
Y11551D01*
X2128732Y21709D02*
Y11551D01*
X2130861Y21709D02*
Y11551D01*
X2148226Y19290D02*
X2147742Y20258D01*
X2146775Y21225D01*
X2145807Y21709D01*
X2143873D01*
X2142905Y21225D01*
X2141938Y20258D01*
X2141454Y19290D01*
X2140970Y17839D01*
Y15421D01*
X2141454Y13970D01*
X2141938Y13002D01*
X2142905Y12035D01*
X2143873Y11551D01*
X2145807D01*
X2146775Y12035D01*
X2147742Y13002D01*
X2148226Y13970D01*
Y15421D01*
X2145807D02*
X2148226D01*
X2150548Y18323D02*
Y13486D01*
X2151031Y12035D01*
X2151999Y11551D01*
X2153450D01*
X2154417Y12035D01*
X2155869Y13486D01*
Y18323D02*
Y11551D01*
X2159496Y21709D02*
X2159980Y21225D01*
X2160464Y21709D01*
X2159980Y22193D01*
X2159496Y21709D01*
X2159980Y18323D02*
Y11551D01*
X2168058Y21709D02*
Y11551D01*
Y16872D02*
X2167090Y17839D01*
X2166123Y18323D01*
X2164672D01*
X2163705Y17839D01*
X2162737Y16872D01*
X2162253Y15421D01*
Y14453D01*
X2162737Y13002D01*
X2163705Y12035D01*
X2164672Y11551D01*
X2166123D01*
X2167090Y12035D01*
X2168058Y13002D01*
X2170767Y15421D02*
X2176571D01*
Y16388D01*
X2176087Y17356D01*
X2175604Y17839D01*
X2174636Y18323D01*
X2173185D01*
X2172218Y17839D01*
X2171250Y16872D01*
X2170767Y15421D01*
Y14453D01*
X2171250Y13002D01*
X2172218Y12035D01*
X2173185Y11551D01*
X2174636D01*
X2175604Y12035D01*
X2176571Y13002D01*
D14*
X2017194Y-103632D02*
Y643128D01*
X2304214D01*
Y-103632D02*
Y643128D01*
X2017194Y-103632D02*
X2304214D01*
X2057834Y605657D02*
X2253414D01*
X2253824Y1514294D02*
X2245360D01*
Y1501598D01*
X2253824D01*
X2245360Y1507946D02*
X2249592D01*
X2258056Y1501598D02*
Y1514294D01*
X2262288Y1510062D01*
X2266520Y1514294D01*
Y1501598D01*
X2277100Y1514294D02*
X2272868D01*
X2270752Y1512178D01*
Y1503714D01*
X2272868Y1501598D01*
X2277100D01*
X2279216Y1503714D01*
Y1512178D01*
X2277100Y1514294D01*
X2289796D02*
X2285564D01*
X2283448Y1512178D01*
Y1503714D01*
X2285564Y1501598D01*
X2289796D01*
X2291912Y1503714D01*
Y1512178D01*
X2289796Y1514294D01*
X2077720Y1512178D02*
X2079836Y1514294D01*
X2084068D01*
X2086184Y1512178D01*
Y1510062D01*
X2084068Y1507946D01*
X2081952D01*
X2084068D01*
X2086184Y1505830D01*
Y1503714D01*
X2084068Y1501598D01*
X2079836D01*
X2077720Y1503714D01*
X2090416Y1501598D02*
X2098880Y1510062D01*
X2103112Y1501598D02*
X2107344D01*
X2105228D01*
Y1514294D01*
X2103112Y1512178D01*
X2122156Y1514294D02*
X2117924Y1512178D01*
X2113692Y1507946D01*
Y1503714D01*
X2115808Y1501598D01*
X2120040D01*
X2122156Y1503714D01*
Y1505830D01*
X2120040Y1507946D01*
X2113692D01*
X2126388Y1501598D02*
X2134852Y1510062D01*
X2147547Y1501598D02*
X2139084D01*
X2147547Y1510062D01*
Y1512178D01*
X2145431Y1514294D01*
X2141199D01*
X2139084Y1512178D01*
X2151779D02*
X2153895Y1514294D01*
X2158127D01*
X2160243Y1512178D01*
Y1503714D01*
X2158127Y1501598D01*
X2153895D01*
X2151779Y1503714D01*
Y1512178D01*
X2172939Y1501598D02*
X2164475D01*
X2172939Y1510062D01*
Y1512178D01*
X2170823Y1514294D01*
X2166591D01*
X2164475Y1512178D01*
X2177171Y1501598D02*
X2181403D01*
X2179287D01*
Y1514294D01*
X2177171Y1512178D01*
X1600200Y1514294D02*
X1604432D01*
X1602316D01*
Y1501598D01*
X1600200D01*
X1604432D01*
X1610780D02*
Y1510062D01*
X1617128D01*
X1619244Y1507946D01*
Y1501598D01*
X1623476D02*
X1627708D01*
X1625592D01*
Y1510062D01*
X1623476D01*
X1636172Y1512178D02*
Y1510062D01*
X1634056D01*
X1638288D01*
X1636172D01*
Y1503714D01*
X1638288Y1501598D01*
X1644636D02*
X1648868D01*
X1646752D01*
Y1510062D01*
X1644636D01*
X1657332D02*
X1661564D01*
X1663680Y1507946D01*
Y1501598D01*
X1657332D01*
X1655215Y1503714D01*
X1657332Y1505830D01*
X1663680D01*
X1667911Y1501598D02*
X1672143D01*
X1670027D01*
Y1514294D01*
X1667911D01*
X1691187Y1501598D02*
Y1514294D01*
X1697535D01*
X1699651Y1512178D01*
Y1507946D01*
X1697535Y1505830D01*
X1691187D01*
X1703883Y1510062D02*
Y1501598D01*
Y1505830D01*
X1705999Y1507946D01*
X1708115Y1510062D01*
X1710231D01*
X1718695Y1501598D02*
X1722927D01*
X1725043Y1503714D01*
Y1507946D01*
X1722927Y1510062D01*
X1718695D01*
X1716579Y1507946D01*
Y1503714D01*
X1718695Y1501598D01*
X1737739Y1514294D02*
Y1501598D01*
X1731391D01*
X1729275Y1503714D01*
Y1507946D01*
X1731391Y1510062D01*
X1737739D01*
X1741971D02*
Y1503714D01*
X1744087Y1501598D01*
X1750435D01*
Y1510062D01*
X1763131D02*
X1756783D01*
X1754667Y1507946D01*
Y1503714D01*
X1756783Y1501598D01*
X1763131D01*
X1769478Y1512178D02*
Y1510062D01*
X1767363D01*
X1771595D01*
X1769478D01*
Y1503714D01*
X1771595Y1501598D01*
X1777942D02*
X1782174D01*
X1780058D01*
Y1510062D01*
X1777942D01*
X1790638Y1501598D02*
X1794870D01*
X1796986Y1503714D01*
Y1507946D01*
X1794870Y1510062D01*
X1790638D01*
X1788522Y1507946D01*
Y1503714D01*
X1790638Y1501598D01*
X1801218D02*
Y1510062D01*
X1807566D01*
X1809682Y1507946D01*
Y1501598D01*
X1826610D02*
Y1514294D01*
X1832958D01*
X1835074Y1512178D01*
Y1507946D01*
X1832958Y1505830D01*
X1826610D01*
X1830842D02*
X1835074Y1501598D01*
X1845654D02*
X1841422D01*
X1839306Y1503714D01*
Y1507946D01*
X1841422Y1510062D01*
X1845654D01*
X1847770Y1507946D01*
Y1505830D01*
X1839306D01*
X1852002Y1501598D02*
X1856234D01*
X1854118D01*
Y1514294D01*
X1852002D01*
X1868930Y1501598D02*
X1864698D01*
X1862582Y1503714D01*
Y1507946D01*
X1864698Y1510062D01*
X1868930D01*
X1871046Y1507946D01*
Y1505830D01*
X1862582D01*
X1877394Y1510062D02*
X1881626D01*
X1883741Y1507946D01*
Y1501598D01*
X1877394D01*
X1875278Y1503714D01*
X1877394Y1505830D01*
X1883741D01*
X1887973Y1501598D02*
X1894321D01*
X1896437Y1503714D01*
X1894321Y1505830D01*
X1890089D01*
X1887973Y1507946D01*
X1890089Y1510062D01*
X1896437D01*
X1907017Y1501598D02*
X1902785D01*
X1900669Y1503714D01*
Y1507946D01*
X1902785Y1510062D01*
X1907017D01*
X1909133Y1507946D01*
Y1505830D01*
X1900669D01*
X1490980Y1501598D02*
Y1514294D01*
X1497328D01*
X1499444Y1512178D01*
Y1507946D01*
X1497328Y1505830D01*
X1490980D01*
X1495212D02*
X1499444Y1501598D01*
X1510024D02*
X1505792D01*
X1503676Y1503714D01*
Y1507946D01*
X1505792Y1510062D01*
X1510024D01*
X1512140Y1507946D01*
Y1505830D01*
X1503676D01*
X1516372Y1510062D02*
X1520604Y1501598D01*
X1524836Y1510062D01*
X1541763Y1514294D02*
Y1501598D01*
X1548112D01*
X1550228Y1503714D01*
Y1512178D01*
X1548112Y1514294D01*
X1541763D01*
X1490980Y1463498D02*
Y1476194D01*
X1497328D01*
X1499444Y1474078D01*
Y1469846D01*
X1497328Y1467730D01*
X1490980D01*
X1495212D02*
X1499444Y1463498D01*
X1510024D02*
X1505792D01*
X1503676Y1465614D01*
Y1469846D01*
X1505792Y1471962D01*
X1510024D01*
X1512140Y1469846D01*
Y1467730D01*
X1503676D01*
X1516372Y1471962D02*
X1520604Y1463498D01*
X1524836Y1471962D01*
X1550228Y1476194D02*
X1541763D01*
Y1463498D01*
X1550228D01*
X1541763Y1469846D02*
X1545995D01*
X1600200Y1463498D02*
Y1471962D01*
X1604432Y1476194D01*
X1608664Y1471962D01*
Y1463498D01*
Y1469846D01*
X1600200D01*
X1621360Y1476194D02*
Y1463498D01*
X1615012D01*
X1612896Y1465614D01*
Y1469846D01*
X1615012Y1471962D01*
X1621360D01*
X1634056Y1476194D02*
Y1463498D01*
X1627708D01*
X1625592Y1465614D01*
Y1469846D01*
X1627708Y1471962D01*
X1634056D01*
X1638288Y1463498D02*
X1642520D01*
X1640404D01*
Y1471962D01*
X1638288D01*
X1650983Y1474078D02*
Y1471962D01*
X1648868D01*
X1653100D01*
X1650983D01*
Y1465614D01*
X1653100Y1463498D01*
X1659447D02*
X1663680D01*
X1661564D01*
Y1471962D01*
X1659447D01*
X1672143Y1463498D02*
X1676375D01*
X1678491Y1465614D01*
Y1469846D01*
X1676375Y1471962D01*
X1672143D01*
X1670027Y1469846D01*
Y1465614D01*
X1672143Y1463498D01*
X1682723D02*
Y1471962D01*
X1689071D01*
X1691187Y1469846D01*
Y1463498D01*
X1710231D02*
X1714463D01*
X1716579Y1465614D01*
Y1469846D01*
X1714463Y1471962D01*
X1710231D01*
X1708115Y1469846D01*
Y1465614D01*
X1710231Y1463498D01*
X1722927D02*
Y1474078D01*
Y1469846D01*
X1720811D01*
X1725043D01*
X1722927D01*
Y1474078D01*
X1725043Y1476194D01*
X1744087D02*
Y1463498D01*
X1750435D01*
X1752551Y1465614D01*
Y1467730D01*
X1750435Y1469846D01*
X1744087D01*
X1750435D01*
X1752551Y1471962D01*
Y1474078D01*
X1750435Y1476194D01*
X1744087D01*
X1765247Y1474078D02*
X1763131Y1476194D01*
X1758899D01*
X1756783Y1474078D01*
Y1465614D01*
X1758899Y1463498D01*
X1763131D01*
X1765247Y1465614D01*
Y1469846D01*
X1761015D01*
X1769478Y1463498D02*
Y1471962D01*
X1773710Y1476194D01*
X1777942Y1471962D01*
Y1463498D01*
Y1469846D01*
X1769478D01*
X1782174D02*
X1790638D01*
X1794870Y1463498D02*
X1799102D01*
X1796986D01*
Y1476194D01*
X1794870Y1474078D01*
X1813914Y1463498D02*
X1805450D01*
X1813914Y1471962D01*
Y1474078D01*
X1811798Y1476194D01*
X1807566D01*
X1805450Y1474078D01*
X1818146Y1463498D02*
X1822378D01*
X1820262D01*
Y1476194D01*
X1818146Y1474078D01*
X1841422Y1476194D02*
X1845654D01*
X1843538D01*
Y1463498D01*
X1841422D01*
X1845654D01*
X1852002D02*
Y1471962D01*
X1858350D01*
X1860466Y1469846D01*
Y1463498D01*
X1866814Y1474078D02*
Y1471962D01*
X1864698D01*
X1868930D01*
X1866814D01*
Y1465614D01*
X1868930Y1463498D01*
X1881626D02*
X1877394D01*
X1875278Y1465614D01*
Y1469846D01*
X1877394Y1471962D01*
X1881626D01*
X1883741Y1469846D01*
Y1467730D01*
X1875278D01*
X1887973Y1471962D02*
Y1463498D01*
Y1467730D01*
X1890089Y1469846D01*
X1892205Y1471962D01*
X1894321D01*
X1902785Y1463498D02*
Y1474078D01*
Y1469846D01*
X1900669D01*
X1904901D01*
X1902785D01*
Y1474078D01*
X1904901Y1476194D01*
X1913365Y1471962D02*
X1917597D01*
X1919713Y1469846D01*
Y1463498D01*
X1913365D01*
X1911249Y1465614D01*
X1913365Y1467730D01*
X1919713D01*
X1932409Y1471962D02*
X1926061D01*
X1923945Y1469846D01*
Y1465614D01*
X1926061Y1463498D01*
X1932409D01*
X1942989D02*
X1938757D01*
X1936641Y1465614D01*
Y1469846D01*
X1938757Y1471962D01*
X1942989D01*
X1945105Y1469846D01*
Y1467730D01*
X1936641D01*
X1962033Y1476194D02*
X1966265D01*
X1964149D01*
Y1463498D01*
X1962033D01*
X1966265D01*
X1981077Y1474078D02*
X1978961Y1476194D01*
X1974729D01*
X1972613Y1474078D01*
Y1465614D01*
X1974729Y1463498D01*
X1978961D01*
X1981077Y1465614D01*
X2084068Y1463498D02*
Y1476194D01*
X2077720Y1469846D01*
X2086184D01*
X2090416Y1463498D02*
X2098880Y1471962D01*
X2111576Y1463498D02*
X2103112D01*
X2111576Y1471962D01*
Y1474078D01*
X2109460Y1476194D01*
X2105228D01*
X2103112Y1474078D01*
X2115808D02*
X2117924Y1476194D01*
X2122156D01*
X2124272Y1474078D01*
Y1471962D01*
X2122156Y1469846D01*
X2124272Y1467730D01*
Y1465614D01*
X2122156Y1463498D01*
X2117924D01*
X2115808Y1465614D01*
Y1467730D01*
X2117924Y1469846D01*
X2115808Y1471962D01*
Y1474078D01*
X2117924Y1469846D02*
X2122156D01*
X2128504Y1463498D02*
X2136967Y1471962D01*
X2149663Y1463498D02*
X2141199D01*
X2149663Y1471962D01*
Y1474078D01*
X2147547Y1476194D01*
X2143315D01*
X2141199Y1474078D01*
X2153895D02*
X2156011Y1476194D01*
X2160243D01*
X2162359Y1474078D01*
Y1465614D01*
X2160243Y1463498D01*
X2156011D01*
X2153895Y1465614D01*
Y1474078D01*
X2175055Y1463498D02*
X2166591D01*
X2175055Y1471962D01*
Y1474078D01*
X2172939Y1476194D01*
X2168707D01*
X2166591Y1474078D01*
X2179287Y1463498D02*
X2183519D01*
X2181403D01*
Y1476194D01*
X2179287Y1474078D01*
X2253824Y1476194D02*
X2245360D01*
Y1463498D01*
X2253824D01*
X2245360Y1469846D02*
X2249592D01*
X2258056Y1463498D02*
Y1476194D01*
X2262288Y1471962D01*
X2266520Y1476194D01*
Y1463498D01*
X2277100Y1476194D02*
X2272868D01*
X2270752Y1474078D01*
Y1465614D01*
X2272868Y1463498D01*
X2277100D01*
X2279216Y1465614D01*
Y1474078D01*
X2277100Y1476194D01*
X2289796D02*
X2285564D01*
X2283448Y1474078D01*
Y1465614D01*
X2285564Y1463498D01*
X2289796D01*
X2291912Y1465614D01*
Y1474078D01*
X2289796Y1476194D01*
X1272540Y-286517D02*
Y-299213D01*
X1275079Y-301752D01*
X1280157D01*
X1282697Y-299213D01*
Y-286517D01*
X1287775D02*
Y-301752D01*
X1295393D01*
X1297932Y-299213D01*
Y-296674D01*
X1295393Y-294135D01*
X1287775D01*
X1295393D01*
X1297932Y-291595D01*
Y-289056D01*
X1295393Y-286517D01*
X1287775D01*
X1303010D02*
X1313167Y-301752D01*
Y-286517D02*
X1303010Y-301752D01*
X1318245Y-286517D02*
Y-301752D01*
Y-294135D01*
X1328402D01*
Y-286517D01*
Y-301752D01*
X1343637Y-286517D02*
X1338559Y-289056D01*
X1333480Y-294135D01*
Y-299213D01*
X1336019Y-301752D01*
X1341098D01*
X1343637Y-299213D01*
Y-296674D01*
X1341098Y-294135D01*
X1333480D01*
X1348715Y-289056D02*
X1351254Y-286517D01*
X1356333D01*
X1358872Y-289056D01*
Y-299213D01*
X1356333Y-301752D01*
X1351254D01*
X1348715Y-299213D01*
Y-289056D01*
X1363950Y-294135D02*
X1374107D01*
X1379185Y-289056D02*
X1381725Y-286517D01*
X1386803D01*
X1389342Y-289056D01*
Y-299213D01*
X1386803Y-301752D01*
X1381725D01*
X1379185Y-299213D01*
Y-289056D01*
X1394421D02*
X1396960Y-286517D01*
X1402038D01*
X1404577Y-289056D01*
Y-299213D01*
X1402038Y-301752D01*
X1396960D01*
X1394421Y-299213D01*
Y-289056D01*
X1409656D02*
X1412195Y-286517D01*
X1417273D01*
X1419812Y-289056D01*
Y-299213D01*
X1417273Y-301752D01*
X1412195D01*
X1409656Y-299213D01*
Y-289056D01*
X1424891D02*
X1427430Y-286517D01*
X1432508D01*
X1435047Y-289056D01*
Y-299213D01*
X1432508Y-301752D01*
X1427430D01*
X1424891Y-299213D01*
Y-289056D01*
X1440126Y-286517D02*
X1450282D01*
Y-289056D01*
X1440126Y-299213D01*
Y-301752D01*
X1455361Y-289056D02*
X1457900Y-286517D01*
X1462978D01*
X1465518Y-289056D01*
Y-299213D01*
X1462978Y-301752D01*
X1457900D01*
X1455361Y-299213D01*
Y-289056D01*
X1480753Y-301752D02*
X1470596D01*
X1480753Y-291595D01*
Y-289056D01*
X1478214Y-286517D01*
X1473135D01*
X1470596Y-289056D01*
X1712802Y-210319D02*
X1699260D01*
Y-230632D01*
X1712802D01*
X1699260Y-220475D02*
X1706031D01*
X1719573Y-210319D02*
Y-223861D01*
X1726345Y-230632D01*
X1733116Y-223861D01*
Y-210319D01*
X1739887D02*
Y-230632D01*
Y-223861D01*
X1753429Y-210319D01*
X1743272Y-220475D01*
X1753429Y-230632D01*
X1760200Y-220475D02*
X1773743D01*
X1780514Y-230632D02*
Y-210319D01*
X1794056Y-230632D01*
Y-210319D01*
X1810984D02*
X1804213D01*
X1800827Y-213704D01*
Y-227246D01*
X1804213Y-230632D01*
X1810984D01*
X1814369Y-227246D01*
Y-213704D01*
X1810984Y-210319D01*
X1821140Y-230632D02*
Y-210319D01*
X1831297D01*
X1834683Y-213704D01*
Y-220475D01*
X1831297Y-223861D01*
X1821140D01*
X1827912D02*
X1834683Y-230632D01*
X1841454D02*
Y-217090D01*
X1848225Y-210319D01*
X1854996Y-217090D01*
Y-230632D01*
Y-220475D01*
X1841454D01*
X1861767D02*
X1875310D01*
X1882081Y-210319D02*
Y-230632D01*
X1892238D01*
X1895623Y-227246D01*
Y-223861D01*
X1892238Y-220475D01*
X1882081D01*
X1892238D01*
X1895623Y-217090D01*
Y-213704D01*
X1892238Y-210319D01*
X1882081D01*
X1902394Y-230632D02*
X1909165D01*
X1905780D01*
Y-210319D01*
X1902394Y-213704D01*
X1919322D02*
X1922708Y-210319D01*
X1929479D01*
X1932864Y-213704D01*
Y-227246D01*
X1929479Y-230632D01*
X1922708D01*
X1919322Y-227246D01*
Y-213704D01*
X2193840Y-229422D02*
Y-209109D01*
X2203997D01*
X2207382Y-212494D01*
Y-219265D01*
X2203997Y-222651D01*
X2193840D01*
X2200611D02*
X2207382Y-229422D01*
X2224310D02*
X2217539D01*
X2214153Y-226036D01*
Y-219265D01*
X2217539Y-215880D01*
X2224310D01*
X2227696Y-219265D01*
Y-222651D01*
X2214153D01*
X2234467Y-215880D02*
X2241238Y-229422D01*
X2248009Y-215880D01*
X2288636Y-209109D02*
X2275094D01*
Y-229422D01*
X2288636D01*
X2275094Y-219265D02*
X2281865D01*
X1699260Y-149359D02*
X1712802D01*
X1706031D01*
Y-169672D01*
X1733116Y-149359D02*
X1719573D01*
Y-169672D01*
X1733116D01*
X1719573Y-159515D02*
X1726345D01*
X1739887D02*
X1753429D01*
X1760200Y-169672D02*
Y-149359D01*
X1770357D01*
X1773743Y-152744D01*
Y-159515D01*
X1770357Y-162901D01*
X1760200D01*
X1766971D02*
X1773743Y-169672D01*
X1780514Y-149359D02*
Y-169672D01*
X1790670D01*
X1794056Y-166286D01*
Y-162901D01*
X1790670Y-159515D01*
X1780514D01*
X1790670D01*
X1794056Y-156130D01*
Y-152744D01*
X1790670Y-149359D01*
X1780514D01*
X1800827Y-169672D02*
X1807598D01*
X1804213D01*
Y-149359D01*
X1800827Y-152744D01*
X1332650Y-151898D02*
X1320800D01*
Y-169672D01*
X1332650D01*
X1320800Y-160785D02*
X1326725D01*
X1338574Y-169672D02*
Y-151898D01*
X1344499Y-157823D01*
X1350424Y-151898D01*
Y-169672D01*
X1365236Y-151898D02*
X1359311D01*
X1356349Y-154860D01*
Y-166710D01*
X1359311Y-169672D01*
X1365236D01*
X1368198Y-166710D01*
Y-154860D01*
X1365236Y-151898D01*
X1383010D02*
X1377085D01*
X1374123Y-154860D01*
Y-166710D01*
X1377085Y-169672D01*
X1383010D01*
X1385972Y-166710D01*
Y-154860D01*
X1383010Y-151898D01*
X1286507Y-230632D02*
Y-212858D01*
X1277620Y-221745D01*
X1289469D01*
X1295394Y-230632D02*
X1307244Y-218783D01*
X1325018Y-230632D02*
X1313168D01*
X1325018Y-218783D01*
Y-215820D01*
X1322056Y-212858D01*
X1316131D01*
X1313168Y-215820D01*
X1330943D02*
X1333905Y-212858D01*
X1339830D01*
X1342792Y-215820D01*
Y-218783D01*
X1339830Y-221745D01*
X1342792Y-224707D01*
Y-227670D01*
X1339830Y-230632D01*
X1333905D01*
X1330943Y-227670D01*
Y-224707D01*
X1333905Y-221745D01*
X1330943Y-218783D01*
Y-215820D01*
X1333905Y-221745D02*
X1339830D01*
X1348717Y-230632D02*
X1360567Y-218783D01*
X1378341Y-230632D02*
X1366491D01*
X1378341Y-218783D01*
Y-215820D01*
X1375378Y-212858D01*
X1369454D01*
X1366491Y-215820D01*
X1384266D02*
X1387228Y-212858D01*
X1393153D01*
X1396115Y-215820D01*
Y-227670D01*
X1393153Y-230632D01*
X1387228D01*
X1384266Y-227670D01*
Y-215820D01*
X1413889Y-230632D02*
X1402040D01*
X1413889Y-218783D01*
Y-215820D01*
X1410927Y-212858D01*
X1405002D01*
X1402040Y-215820D01*
X1419814Y-230632D02*
X1425739D01*
X1422776D01*
Y-212858D01*
X1419814Y-215820D01*
X1610360Y-299212D02*
Y-283977D01*
X1620517Y-299212D01*
Y-283977D01*
X1633213D02*
X1628134D01*
X1625595Y-286516D01*
Y-296673D01*
X1628134Y-299212D01*
X1633213D01*
X1635752Y-296673D01*
Y-286516D01*
X1633213Y-283977D01*
X1640830Y-299212D02*
Y-283977D01*
X1648448D01*
X1650987Y-286516D01*
Y-291595D01*
X1648448Y-294134D01*
X1640830D01*
X1645909D02*
X1650987Y-299212D01*
X1656065D02*
Y-289055D01*
X1661144Y-283977D01*
X1666222Y-289055D01*
Y-299212D01*
Y-291595D01*
X1656065D01*
X1671300D02*
X1681457D01*
X1686535Y-283977D02*
Y-299212D01*
X1694153D01*
X1696692Y-296673D01*
Y-294134D01*
X1694153Y-291595D01*
X1686535D01*
X1694153D01*
X1696692Y-289055D01*
Y-286516D01*
X1694153Y-283977D01*
X1686535D01*
X1701770Y-299212D02*
X1706849D01*
X1704310D01*
Y-283977D01*
X1701770Y-286516D01*
X1714466Y-291595D02*
X1724623D01*
X1739858Y-283977D02*
X1729701D01*
Y-299212D01*
X1739858D01*
X1729701Y-291595D02*
X1734780D01*
X1744937Y-283977D02*
Y-294134D01*
X1750015Y-299212D01*
X1755093Y-294134D01*
Y-283977D01*
X1760172D02*
Y-299212D01*
Y-294134D01*
X1770328Y-283977D01*
X1762711Y-291595D01*
X1770328Y-299212D01*
X1775407D02*
Y-296673D01*
X1777946D01*
Y-299212D01*
X1775407D01*
X1788103D02*
Y-283977D01*
X1795720D01*
X1798259Y-286516D01*
Y-291595D01*
X1795720Y-294134D01*
X1788103D01*
X1813494Y-289055D02*
X1805877D01*
X1803338Y-291595D01*
Y-296673D01*
X1805877Y-299212D01*
X1813494D01*
X1818573Y-283977D02*
Y-299212D01*
X1826190D01*
X1828729Y-296673D01*
Y-294134D01*
Y-291595D01*
X1826190Y-289055D01*
X1818573D01*
X1833808Y-283977D02*
Y-299212D01*
X1841425D01*
X1843964Y-296673D01*
Y-286516D01*
X1841425Y-283977D01*
X1833808D01*
X1851582Y-299212D02*
X1856660D01*
X1859200Y-296673D01*
Y-291595D01*
X1856660Y-289055D01*
X1851582D01*
X1849043Y-291595D01*
Y-296673D01*
X1851582Y-299212D01*
X1874435Y-289055D02*
X1866817D01*
X1864278Y-291595D01*
Y-296673D01*
X1866817Y-299212D01*
X1874435D01*
X924933Y-277057D02*
X923966Y-275123D01*
X922031Y-273188D01*
X920096Y-272220D01*
X916226D01*
X914292Y-273188D01*
X912357Y-275123D01*
X911389Y-277057D01*
X910422Y-279960D01*
Y-284797D01*
X911389Y-287699D01*
X912357Y-289634D01*
X914292Y-291569D01*
X916226Y-292536D01*
X920096D01*
X922031Y-291569D01*
X923966Y-289634D01*
X924933Y-287699D01*
X936445Y-272220D02*
X934510Y-273188D01*
X932576Y-275123D01*
X931608Y-277057D01*
X930641Y-279960D01*
Y-284797D01*
X931608Y-287699D01*
X932576Y-289634D01*
X934510Y-291569D01*
X936445Y-292536D01*
X940315D01*
X942250Y-291569D01*
X944185Y-289634D01*
X945152Y-287699D01*
X946120Y-284797D01*
Y-279960D01*
X945152Y-277057D01*
X944185Y-275123D01*
X942250Y-273188D01*
X940315Y-272220D01*
X936445D01*
X950860D02*
Y-292536D01*
Y-272220D02*
X964404Y-292536D01*
Y-272220D02*
Y-292536D01*
X970014Y-272220D02*
Y-292536D01*
Y-272220D02*
X982591D01*
X970014Y-281894D02*
X977754D01*
X984913Y-272220D02*
Y-292536D01*
X989169Y-272220D02*
Y-292536D01*
Y-272220D02*
X995941D01*
X998843Y-273188D01*
X1000778Y-275123D01*
X1001746Y-277057D01*
X1002713Y-279960D01*
Y-284797D01*
X1001746Y-287699D01*
X1000778Y-289634D01*
X998843Y-291569D01*
X995941Y-292536D01*
X989169D01*
X1019836Y-272220D02*
X1007260D01*
Y-292536D01*
X1019836D01*
X1007260Y-281894D02*
X1014999D01*
X1023222Y-272220D02*
Y-292536D01*
Y-272220D02*
X1036766Y-292536D01*
Y-272220D02*
Y-292536D01*
X1049149Y-272220D02*
Y-292536D01*
X1042377Y-272220D02*
X1055921D01*
X1058339D02*
Y-292536D01*
X1078074D02*
X1070335Y-272220D01*
X1062596Y-292536D01*
X1065498Y-285764D02*
X1075172D01*
X1082815Y-272220D02*
Y-292536D01*
X1094424D01*
X2253824Y1552444D02*
X2245360D01*
Y1539748D01*
X2253824D01*
X2245360Y1546096D02*
X2249592D01*
X2258056Y1539748D02*
Y1552444D01*
X2262288Y1548212D01*
X2266520Y1552444D01*
Y1539748D01*
X2277100Y1552444D02*
X2272868D01*
X2270752Y1550328D01*
Y1541864D01*
X2272868Y1539748D01*
X2277100D01*
X2279216Y1541864D01*
Y1550328D01*
X2277100Y1552444D01*
X2289796D02*
X2285564D01*
X2283448Y1550328D01*
Y1541864D01*
X2285564Y1539748D01*
X2289796D01*
X2291912Y1541864D01*
Y1550328D01*
X2289796Y1552444D01*
X2077720Y1539748D02*
X2081952D01*
X2079836D01*
Y1552444D01*
X2077720Y1550328D01*
X2088300Y1539748D02*
X2092532D01*
X2090416D01*
Y1552444D01*
X2088300Y1550328D01*
X2098880Y1539748D02*
X2107344Y1548212D01*
X2111576Y1539748D02*
X2115808D01*
X2113692D01*
Y1552444D01*
X2111576Y1550328D01*
X2130620Y1552444D02*
X2126388Y1550328D01*
X2122156Y1546096D01*
Y1541864D01*
X2124272Y1539748D01*
X2128504D01*
X2130620Y1541864D01*
Y1543980D01*
X2128504Y1546096D01*
X2122156D01*
X2134852Y1539748D02*
X2143315Y1548212D01*
X2156011Y1539748D02*
X2147547D01*
X2156011Y1548212D01*
Y1550328D01*
X2153895Y1552444D01*
X2149663D01*
X2147547Y1550328D01*
X2160243D02*
X2162359Y1552444D01*
X2166591D01*
X2168707Y1550328D01*
Y1541864D01*
X2166591Y1539748D01*
X2162359D01*
X2160243Y1541864D01*
Y1550328D01*
X2181403Y1539748D02*
X2172939D01*
X2181403Y1548212D01*
Y1550328D01*
X2179287Y1552444D01*
X2175055D01*
X2172939Y1550328D01*
X2185635D02*
X2187751Y1552444D01*
X2191983D01*
X2194099Y1550328D01*
Y1541864D01*
X2191983Y1539748D01*
X2187751D01*
X2185635Y1541864D01*
Y1550328D01*
X1608664Y1552444D02*
X1600200D01*
Y1539748D01*
X1608664D01*
X1600200Y1546096D02*
X1604432D01*
X1612896Y1539748D02*
Y1548212D01*
X1619244D01*
X1621360Y1546096D01*
Y1539748D01*
X1629824Y1535516D02*
X1631940D01*
X1634056Y1537632D01*
Y1548212D01*
X1627708D01*
X1625592Y1546096D01*
Y1541864D01*
X1627708Y1539748D01*
X1634056D01*
X1638288D02*
X1642520D01*
X1640404D01*
Y1548212D01*
X1638288D01*
X1648868Y1539748D02*
Y1548212D01*
X1655215D01*
X1657332Y1546096D01*
Y1539748D01*
X1667911D02*
X1663679D01*
X1661564Y1541864D01*
Y1546096D01*
X1663679Y1548212D01*
X1667911D01*
X1670027Y1546096D01*
Y1543980D01*
X1661564D01*
X1680607Y1539748D02*
X1676375D01*
X1674259Y1541864D01*
Y1546096D01*
X1676375Y1548212D01*
X1680607D01*
X1682723Y1546096D01*
Y1543980D01*
X1674259D01*
X1686955Y1548212D02*
Y1539748D01*
Y1543980D01*
X1689071Y1546096D01*
X1691187Y1548212D01*
X1693303D01*
X1699651Y1539748D02*
X1703883D01*
X1701767D01*
Y1548212D01*
X1699651D01*
X1710231Y1539748D02*
Y1548212D01*
X1716579D01*
X1718695Y1546096D01*
Y1539748D01*
X1727159Y1535516D02*
X1729275D01*
X1731391Y1537632D01*
Y1548212D01*
X1725043D01*
X1722927Y1546096D01*
Y1541864D01*
X1725043Y1539748D01*
X1731391D01*
X1756783Y1550328D02*
X1754667Y1552444D01*
X1750435D01*
X1748319Y1550328D01*
Y1548212D01*
X1750435Y1546096D01*
X1754667D01*
X1756783Y1543980D01*
Y1541864D01*
X1754667Y1539748D01*
X1750435D01*
X1748319Y1541864D01*
X1763130Y1548212D02*
X1767363D01*
X1769478Y1546096D01*
Y1539748D01*
X1763130D01*
X1761015Y1541864D01*
X1763130Y1543980D01*
X1769478D01*
X1773710Y1539748D02*
Y1548212D01*
X1775826D01*
X1777942Y1546096D01*
Y1539748D01*
Y1546096D01*
X1780058Y1548212D01*
X1782174Y1546096D01*
Y1539748D01*
X1786406Y1535516D02*
Y1548212D01*
X1792754D01*
X1794870Y1546096D01*
Y1541864D01*
X1792754Y1539748D01*
X1786406D01*
X1799102D02*
X1803334D01*
X1801218D01*
Y1552444D01*
X1799102D01*
X1816030Y1539748D02*
X1811798D01*
X1809682Y1541864D01*
Y1546096D01*
X1811798Y1548212D01*
X1816030D01*
X1818146Y1546096D01*
Y1543980D01*
X1809682D01*
X1835074Y1539748D02*
Y1552444D01*
X1841422D01*
X1843538Y1550328D01*
Y1546096D01*
X1841422Y1543980D01*
X1835074D01*
X1839306D02*
X1843538Y1539748D01*
X1854118D02*
X1849886D01*
X1847770Y1541864D01*
Y1546096D01*
X1849886Y1548212D01*
X1854118D01*
X1856234Y1546096D01*
Y1543980D01*
X1847770D01*
X1860466Y1539748D02*
X1864698D01*
X1862582D01*
Y1552444D01*
X1860466D01*
X1877393Y1539748D02*
X1873162D01*
X1871046Y1541864D01*
Y1546096D01*
X1873162Y1548212D01*
X1877393D01*
X1879509Y1546096D01*
Y1543980D01*
X1871046D01*
X1885857Y1548212D02*
X1890089D01*
X1892205Y1546096D01*
Y1539748D01*
X1885857D01*
X1883741Y1541864D01*
X1885857Y1543980D01*
X1892205D01*
X1896437Y1539748D02*
X1902785D01*
X1904901Y1541864D01*
X1902785Y1543980D01*
X1898553D01*
X1896437Y1546096D01*
X1898553Y1548212D01*
X1904901D01*
X1915481Y1539748D02*
X1911249D01*
X1909133Y1541864D01*
Y1546096D01*
X1911249Y1548212D01*
X1915481D01*
X1917597Y1546096D01*
Y1543980D01*
X1909133D01*
X1490980Y1539748D02*
Y1552444D01*
X1497328D01*
X1499444Y1550328D01*
Y1546096D01*
X1497328Y1543980D01*
X1490980D01*
X1495212D02*
X1499444Y1539748D01*
X1510024D02*
X1505792D01*
X1503676Y1541864D01*
Y1546096D01*
X1505792Y1548212D01*
X1510024D01*
X1512140Y1546096D01*
Y1543980D01*
X1503676D01*
X1516372Y1548212D02*
X1520604Y1539748D01*
X1524836Y1548212D01*
X1550228Y1550328D02*
X1548112Y1552444D01*
X1543880D01*
X1541763Y1550328D01*
Y1541864D01*
X1543880Y1539748D01*
X1548112D01*
X1550228Y1541864D01*
X1490980Y1577848D02*
Y1590544D01*
X1497328D01*
X1499444Y1588428D01*
Y1584196D01*
X1497328Y1582080D01*
X1490980D01*
X1495212D02*
X1499444Y1577848D01*
X1510024D02*
X1505792D01*
X1503676Y1579964D01*
Y1584196D01*
X1505792Y1586312D01*
X1510024D01*
X1512140Y1584196D01*
Y1582080D01*
X1503676D01*
X1516372Y1586312D02*
X1520604Y1577848D01*
X1524836Y1586312D01*
X1541763Y1590544D02*
Y1577848D01*
X1548112D01*
X1550228Y1579964D01*
Y1582080D01*
X1548112Y1584196D01*
X1541763D01*
X1548112D01*
X1550228Y1586312D01*
Y1588428D01*
X1548112Y1590544D01*
X1541763D01*
X1608664Y1588428D02*
X1606548Y1590544D01*
X1602316D01*
X1600200Y1588428D01*
Y1586312D01*
X1602316Y1584196D01*
X1606548D01*
X1608664Y1582080D01*
Y1579964D01*
X1606548Y1577848D01*
X1602316D01*
X1600200Y1579964D01*
X1619244Y1577848D02*
X1615012D01*
X1612896Y1579964D01*
Y1584196D01*
X1615012Y1586312D01*
X1619244D01*
X1621360Y1584196D01*
Y1582080D01*
X1612896D01*
X1634056Y1586312D02*
X1627708D01*
X1625592Y1584196D01*
Y1579964D01*
X1627708Y1577848D01*
X1634056D01*
X1640404D02*
X1644636D01*
X1646752Y1579964D01*
Y1584196D01*
X1644636Y1586312D01*
X1640404D01*
X1638288Y1584196D01*
Y1579964D01*
X1640404Y1577848D01*
X1650983D02*
Y1586312D01*
X1657332D01*
X1659447Y1584196D01*
Y1577848D01*
X1672143Y1590544D02*
Y1577848D01*
X1665795D01*
X1663679Y1579964D01*
Y1584196D01*
X1665795Y1586312D01*
X1672143D01*
X1689071Y1577848D02*
Y1590544D01*
X1695419D01*
X1697535Y1588428D01*
Y1584196D01*
X1695419Y1582080D01*
X1689071D01*
X1701767Y1586312D02*
Y1577848D01*
Y1582080D01*
X1703883Y1584196D01*
X1705999Y1586312D01*
X1708115D01*
X1716579Y1577848D02*
X1720811D01*
X1722927Y1579964D01*
Y1584196D01*
X1720811Y1586312D01*
X1716579D01*
X1714463Y1584196D01*
Y1579964D01*
X1716579Y1577848D01*
X1729275Y1588428D02*
Y1586312D01*
X1727159D01*
X1731391D01*
X1729275D01*
Y1579964D01*
X1731391Y1577848D01*
X1739855D02*
X1744087D01*
X1746203Y1579964D01*
Y1584196D01*
X1744087Y1586312D01*
X1739855D01*
X1737739Y1584196D01*
Y1579964D01*
X1739855Y1577848D01*
X1752551Y1588428D02*
Y1586312D01*
X1750435D01*
X1754667D01*
X1752551D01*
Y1579964D01*
X1754667Y1577848D01*
X1761015Y1586312D02*
Y1579964D01*
X1763130Y1577848D01*
X1769478D01*
Y1575732D01*
X1767363Y1573616D01*
X1765246D01*
X1769478Y1577848D02*
Y1586312D01*
X1773710Y1573616D02*
Y1586312D01*
X1780058D01*
X1782174Y1584196D01*
Y1579964D01*
X1780058Y1577848D01*
X1773710D01*
X1792754D02*
X1788522D01*
X1786406Y1579964D01*
Y1584196D01*
X1788522Y1586312D01*
X1792754D01*
X1794870Y1584196D01*
Y1582080D01*
X1786406D01*
X1811798Y1577848D02*
Y1590544D01*
X1818146D01*
X1820262Y1588428D01*
Y1584196D01*
X1818146Y1582080D01*
X1811798D01*
X1816030D02*
X1820262Y1577848D01*
X1830842D02*
X1826610D01*
X1824494Y1579964D01*
Y1584196D01*
X1826610Y1586312D01*
X1830842D01*
X1832958Y1584196D01*
Y1582080D01*
X1824494D01*
X1837190Y1577848D02*
X1841422D01*
X1839306D01*
Y1590544D01*
X1837190D01*
X1854118Y1577848D02*
X1849886D01*
X1847770Y1579964D01*
Y1584196D01*
X1849886Y1586312D01*
X1854118D01*
X1856234Y1584196D01*
Y1582080D01*
X1847770D01*
X1862582Y1586312D02*
X1866814D01*
X1868930Y1584196D01*
Y1577848D01*
X1862582D01*
X1860466Y1579964D01*
X1862582Y1582080D01*
X1868930D01*
X1873162Y1577848D02*
X1879509D01*
X1881626Y1579964D01*
X1879509Y1582080D01*
X1875278D01*
X1873162Y1584196D01*
X1875278Y1586312D01*
X1881626D01*
X1892205Y1577848D02*
X1887973D01*
X1885857Y1579964D01*
Y1584196D01*
X1887973Y1586312D01*
X1892205D01*
X1894321Y1584196D01*
Y1582080D01*
X1885857D01*
X2077720Y1579964D02*
X2079836Y1577848D01*
X2084068D01*
X2086184Y1579964D01*
Y1588428D01*
X2084068Y1590544D01*
X2079836D01*
X2077720Y1588428D01*
Y1586312D01*
X2079836Y1584196D01*
X2086184D01*
X2090416Y1577848D02*
X2098880Y1586312D01*
X2103112Y1577848D02*
X2107344D01*
X2105228D01*
Y1590544D01*
X2103112Y1588428D01*
X2122156Y1590544D02*
X2117924Y1588428D01*
X2113692Y1584196D01*
Y1579964D01*
X2115808Y1577848D01*
X2120040D01*
X2122156Y1579964D01*
Y1582080D01*
X2120040Y1584196D01*
X2113692D01*
X2126388Y1577848D02*
X2134852Y1586312D01*
X2147547Y1577848D02*
X2139084D01*
X2147547Y1586312D01*
Y1588428D01*
X2145431Y1590544D01*
X2141199D01*
X2139084Y1588428D01*
X2151779D02*
X2153895Y1590544D01*
X2158127D01*
X2160243Y1588428D01*
Y1579964D01*
X2158127Y1577848D01*
X2153895D01*
X2151779Y1579964D01*
Y1588428D01*
X2172939Y1577848D02*
X2164475D01*
X2172939Y1586312D01*
Y1588428D01*
X2170823Y1590544D01*
X2166591D01*
X2164475Y1588428D01*
X2177171D02*
X2179287Y1590544D01*
X2183519D01*
X2185635Y1588428D01*
Y1579964D01*
X2183519Y1577848D01*
X2179287D01*
X2177171Y1579964D01*
Y1588428D01*
X2253824Y1590544D02*
X2245360D01*
Y1577848D01*
X2253824D01*
X2245360Y1584196D02*
X2249592D01*
X2258056Y1577848D02*
Y1590544D01*
X2262288Y1586312D01*
X2266520Y1590544D01*
Y1577848D01*
X2277100Y1590544D02*
X2272868D01*
X2270752Y1588428D01*
Y1579964D01*
X2272868Y1577848D01*
X2277100D01*
X2279216Y1579964D01*
Y1588428D01*
X2277100Y1590544D01*
X2289796D02*
X2285564D01*
X2283448Y1588428D01*
Y1579964D01*
X2285564Y1577848D01*
X2289796D01*
X2291912Y1579964D01*
Y1588428D01*
X2289796Y1590544D01*
X2253824Y1628644D02*
X2245360D01*
Y1615948D01*
X2253824D01*
X2245360Y1622296D02*
X2249592D01*
X2258056Y1615948D02*
Y1628644D01*
X2262288Y1624412D01*
X2266520Y1628644D01*
Y1615948D01*
X2277100Y1628644D02*
X2272868D01*
X2270752Y1626528D01*
Y1618064D01*
X2272868Y1615948D01*
X2277100D01*
X2279216Y1618064D01*
Y1626528D01*
X2277100Y1628644D01*
X2289796D02*
X2285564D01*
X2283448Y1626528D01*
Y1618064D01*
X2285564Y1615948D01*
X2289796D01*
X2291912Y1618064D01*
Y1626528D01*
X2289796Y1628644D01*
X2077720Y1626104D02*
X2086184D01*
Y1623988D01*
X2077720Y1615524D01*
Y1613408D01*
X2090416D02*
X2098880Y1621872D01*
X2111576Y1613408D02*
X2103112D01*
X2111576Y1621872D01*
Y1623988D01*
X2109460Y1626104D01*
X2105228D01*
X2103112Y1623988D01*
X2115808D02*
X2117924Y1626104D01*
X2122156D01*
X2124272Y1623988D01*
Y1615524D01*
X2122156Y1613408D01*
X2117924D01*
X2115808Y1615524D01*
Y1623988D01*
X2128504Y1613408D02*
X2136967Y1621872D01*
X2149663Y1613408D02*
X2141199D01*
X2149663Y1621872D01*
Y1623988D01*
X2147547Y1626104D01*
X2143315D01*
X2141199Y1623988D01*
X2153895D02*
X2156011Y1626104D01*
X2160243D01*
X2162359Y1623988D01*
Y1615524D01*
X2160243Y1613408D01*
X2156011D01*
X2153895Y1615524D01*
Y1623988D01*
X2175055Y1613408D02*
X2166591D01*
X2175055Y1621872D01*
Y1623988D01*
X2172939Y1626104D01*
X2168707D01*
X2166591Y1623988D01*
X2179287D02*
X2181403Y1626104D01*
X2185635D01*
X2187751Y1623988D01*
Y1615524D01*
X2185635Y1613408D01*
X2181403D01*
X2179287Y1615524D01*
Y1623988D01*
X1600200Y1628644D02*
X1604432D01*
X1602316D01*
Y1615948D01*
X1600200D01*
X1604432D01*
X1610780D02*
Y1624412D01*
X1617128D01*
X1619244Y1622296D01*
Y1615948D01*
X1623476D02*
X1627708D01*
X1625592D01*
Y1624412D01*
X1623476D01*
X1636172Y1626528D02*
Y1624412D01*
X1634056D01*
X1638288D01*
X1636172D01*
Y1618064D01*
X1638288Y1615948D01*
X1644636D02*
X1648868D01*
X1646752D01*
Y1624412D01*
X1644636D01*
X1657332D02*
X1661564D01*
X1663680Y1622296D01*
Y1615948D01*
X1657332D01*
X1655215Y1618064D01*
X1657332Y1620180D01*
X1663680D01*
X1667911Y1615948D02*
X1672143D01*
X1670027D01*
Y1628644D01*
X1667911D01*
X1691187Y1615948D02*
Y1628644D01*
X1697535D01*
X1699651Y1626528D01*
Y1622296D01*
X1697535Y1620180D01*
X1691187D01*
X1703883Y1624412D02*
Y1615948D01*
Y1620180D01*
X1705999Y1622296D01*
X1708115Y1624412D01*
X1710231D01*
X1718695Y1615948D02*
X1722927D01*
X1725043Y1618064D01*
Y1622296D01*
X1722927Y1624412D01*
X1718695D01*
X1716579Y1622296D01*
Y1618064D01*
X1718695Y1615948D01*
X1731391Y1626528D02*
Y1624412D01*
X1729275D01*
X1733507D01*
X1731391D01*
Y1618064D01*
X1733507Y1615948D01*
X1741971D02*
X1746203D01*
X1748319Y1618064D01*
Y1622296D01*
X1746203Y1624412D01*
X1741971D01*
X1739855Y1622296D01*
Y1618064D01*
X1741971Y1615948D01*
X1754667Y1626528D02*
Y1624412D01*
X1752551D01*
X1756783D01*
X1754667D01*
Y1618064D01*
X1756783Y1615948D01*
X1763131Y1624412D02*
Y1618064D01*
X1765247Y1615948D01*
X1771595D01*
Y1613832D01*
X1769478Y1611716D01*
X1767363D01*
X1771595Y1615948D02*
Y1624412D01*
X1775827Y1611716D02*
Y1624412D01*
X1782174D01*
X1784290Y1622296D01*
Y1618064D01*
X1782174Y1615948D01*
X1775827D01*
X1794870D02*
X1790638D01*
X1788522Y1618064D01*
Y1622296D01*
X1790638Y1624412D01*
X1794870D01*
X1796986Y1622296D01*
Y1620180D01*
X1788522D01*
X1813914Y1615948D02*
Y1628644D01*
X1820262D01*
X1822378Y1626528D01*
Y1622296D01*
X1820262Y1620180D01*
X1813914D01*
X1818146D02*
X1822378Y1615948D01*
X1832958D02*
X1828726D01*
X1826610Y1618064D01*
Y1622296D01*
X1828726Y1624412D01*
X1832958D01*
X1835074Y1622296D01*
Y1620180D01*
X1826610D01*
X1839306Y1615948D02*
X1843538D01*
X1841422D01*
Y1628644D01*
X1839306D01*
X1856234Y1615948D02*
X1852002D01*
X1849886Y1618064D01*
Y1622296D01*
X1852002Y1624412D01*
X1856234D01*
X1858350Y1622296D01*
Y1620180D01*
X1849886D01*
X1864698Y1624412D02*
X1868930D01*
X1871046Y1622296D01*
Y1615948D01*
X1864698D01*
X1862582Y1618064D01*
X1864698Y1620180D01*
X1871046D01*
X1875278Y1615948D02*
X1881626D01*
X1883741Y1618064D01*
X1881626Y1620180D01*
X1877394D01*
X1875278Y1622296D01*
X1877394Y1624412D01*
X1883741D01*
X1894321Y1615948D02*
X1890089D01*
X1887973Y1618064D01*
Y1622296D01*
X1890089Y1624412D01*
X1894321D01*
X1896437Y1622296D01*
Y1620180D01*
X1887973D01*
X1490980Y1615948D02*
Y1628644D01*
X1497328D01*
X1499444Y1626528D01*
Y1622296D01*
X1497328Y1620180D01*
X1490980D01*
X1495212D02*
X1499444Y1615948D01*
X1510024D02*
X1505792D01*
X1503676Y1618064D01*
Y1622296D01*
X1505792Y1624412D01*
X1510024D01*
X1512140Y1622296D01*
Y1620180D01*
X1503676D01*
X1516372Y1624412D02*
X1520604Y1615948D01*
X1524836Y1624412D01*
X1541763Y1615948D02*
Y1624412D01*
X1545995Y1628644D01*
X1550228Y1624412D01*
Y1615948D01*
Y1622296D01*
X1541763D01*
X2258060Y1669283D02*
Y1654048D01*
X2265677D01*
X2268217Y1656587D01*
Y1659126D01*
X2265677Y1661665D01*
X2258060D01*
X2265677D01*
X2268217Y1664205D01*
Y1666744D01*
X2265677Y1669283D01*
X2258060D01*
X2273295D02*
Y1666744D01*
X2278373Y1661665D01*
X2283452Y1666744D01*
Y1669283D01*
X2278373Y1661665D02*
Y1654048D01*
X2098040Y1669283D02*
Y1654048D01*
X2105658D01*
X2108197Y1656587D01*
Y1666744D01*
X2105658Y1669283D01*
X2098040D01*
X2113275Y1654048D02*
Y1664205D01*
X2118353Y1669283D01*
X2123432Y1664205D01*
Y1654048D01*
Y1661665D01*
X2113275D01*
X2128510Y1669283D02*
X2138667D01*
X2133589D01*
Y1654048D01*
X2153902Y1669283D02*
X2143745D01*
Y1654048D01*
X2153902D01*
X2143745Y1661665D02*
X2148824D01*
X1600200Y1669283D02*
Y1654048D01*
X1607818D01*
X1610357Y1656587D01*
Y1666744D01*
X1607818Y1669283D01*
X1600200D01*
X1625592D02*
X1615435D01*
Y1654048D01*
X1625592D01*
X1615435Y1661665D02*
X1620513D01*
X1640827Y1666744D02*
X1638288Y1669283D01*
X1633209D01*
X1630670Y1666744D01*
Y1664205D01*
X1633209Y1661665D01*
X1638288D01*
X1640827Y1659126D01*
Y1656587D01*
X1638288Y1654048D01*
X1633209D01*
X1630670Y1656587D01*
X1656062Y1666744D02*
X1653523Y1669283D01*
X1648444D01*
X1645905Y1666744D01*
Y1656587D01*
X1648444Y1654048D01*
X1653523D01*
X1656062Y1656587D01*
X1661140Y1654048D02*
Y1669283D01*
X1668758D01*
X1671297Y1666744D01*
Y1661665D01*
X1668758Y1659126D01*
X1661140D01*
X1666219D02*
X1671297Y1654048D01*
X1676375Y1669283D02*
X1681454D01*
X1678914D01*
Y1654048D01*
X1676375D01*
X1681454D01*
X1689071D02*
Y1669283D01*
X1696689D01*
X1699228Y1666744D01*
Y1661665D01*
X1696689Y1659126D01*
X1689071D01*
X1704306Y1669283D02*
X1714463D01*
X1709385D01*
Y1654048D01*
X1719541Y1669283D02*
X1724620D01*
X1722081D01*
Y1654048D01*
X1719541D01*
X1724620D01*
X1739855Y1669283D02*
X1734776D01*
X1732237Y1666744D01*
Y1656587D01*
X1734776Y1654048D01*
X1739855D01*
X1742394Y1656587D01*
Y1666744D01*
X1739855Y1669283D01*
X1747472Y1654048D02*
Y1669283D01*
X1757629Y1654048D01*
Y1669283D01*
X1490980Y1654048D02*
Y1669283D01*
X1498598D01*
X1501137Y1666744D01*
Y1661665D01*
X1498598Y1659126D01*
X1490980D01*
X1496058D02*
X1501137Y1654048D01*
X1516372Y1669283D02*
X1506215D01*
Y1654048D01*
X1516372D01*
X1506215Y1661665D02*
X1511293D01*
X1521450Y1669283D02*
Y1659126D01*
X1526528Y1654048D01*
X1531607Y1659126D01*
Y1669283D01*
X1849120Y1697228D02*
Y1717541D01*
X1859277D01*
X1862662Y1714156D01*
Y1707385D01*
X1859277Y1703999D01*
X1849120D01*
X1855891D02*
X1862662Y1697228D01*
X1882976Y1717541D02*
X1869433D01*
Y1697228D01*
X1882976D01*
X1869433Y1707385D02*
X1876205D01*
X1889747Y1717541D02*
Y1703999D01*
X1896518Y1697228D01*
X1903289Y1703999D01*
Y1717541D01*
X1910060D02*
X1916831D01*
X1913446D01*
Y1697228D01*
X1910060D01*
X1916831D01*
X1940530Y1714156D02*
X1937145Y1717541D01*
X1930374D01*
X1926988Y1714156D01*
Y1710770D01*
X1930374Y1707385D01*
X1937145D01*
X1940530Y1703999D01*
Y1700614D01*
X1937145Y1697228D01*
X1930374D01*
X1926988Y1700614D01*
X1947301Y1717541D02*
X1954073D01*
X1950687D01*
Y1697228D01*
X1947301D01*
X1954073D01*
X1974386Y1717541D02*
X1967615D01*
X1964229Y1714156D01*
Y1700614D01*
X1967615Y1697228D01*
X1974386D01*
X1977772Y1700614D01*
Y1714156D01*
X1974386Y1717541D01*
X1984543Y1697228D02*
Y1717541D01*
X1998085Y1697228D01*
Y1717541D01*
D15*
X2045134Y28823D02*
X2278814D01*
Y4693D02*
Y28823D01*
X2045134Y4693D02*
Y28823D01*
Y4693D02*
X2278814D01*
D17*
X2069264Y16758D02*
D03*
D18*
X2207200Y-300390D02*
X2211432D01*
X2209316D01*
Y-287694D01*
X2207200Y-289810D01*
X2217780Y-291926D02*
X2219896D01*
Y-294042D01*
X2217780D01*
Y-291926D01*
Y-298274D02*
X2219896D01*
Y-300390D01*
X2217780D01*
Y-298274D01*
X2228360Y-300390D02*
X2232592D01*
X2230476D01*
Y-287694D01*
X2228360Y-289810D01*
X2363410Y-102528D02*
Y-120304D01*
Y-102528D02*
X2369335D01*
X2371875Y-103374D01*
X2373568Y-105067D01*
X2374414Y-106760D01*
X2375261Y-109300D01*
Y-113532D01*
X2374414Y-116072D01*
X2373568Y-117765D01*
X2371875Y-119458D01*
X2369335Y-120304D01*
X2363410D01*
X2376107Y431720D02*
X2375261Y433413D01*
X2373568Y435106D01*
X2371875Y435952D01*
X2368489D01*
X2366796Y435106D01*
X2365103Y433413D01*
X2364256Y431720D01*
X2363410Y429180D01*
Y424948D01*
X2364256Y422408D01*
X2365103Y420715D01*
X2366796Y419022D01*
X2368489Y418176D01*
X2371875D01*
X2373568Y419022D01*
X2375261Y420715D01*
X2376107Y422408D01*
X2363410Y975702D02*
Y957926D01*
Y975702D02*
X2371028D01*
X2373568Y974856D01*
X2374414Y974009D01*
X2375261Y972316D01*
Y970623D01*
X2374414Y968930D01*
X2373568Y968084D01*
X2371028Y967237D01*
X2363410D02*
X2371028D01*
X2373568Y966391D01*
X2374414Y965544D01*
X2375261Y963851D01*
Y961312D01*
X2374414Y959619D01*
X2373568Y958773D01*
X2371028Y957926D01*
X2363410D01*
X2376954Y1497676D02*
X2370182Y1515452D01*
X2363410Y1497676D01*
X2365950Y1503601D02*
X2374414D01*
X2047520Y1774024D02*
X2039055Y1762173D01*
X2051752D01*
X2047520Y1774024D02*
Y1756248D01*
X1341991Y1774024D02*
X1351302D01*
X1346223Y1767252D01*
X1348763D01*
X1350456Y1766406D01*
X1351302Y1765559D01*
X1352149Y1763020D01*
Y1761327D01*
X1351302Y1758788D01*
X1349609Y1757095D01*
X1347070Y1756248D01*
X1344530D01*
X1341991Y1757095D01*
X1341145Y1757941D01*
X1340298Y1759634D01*
X643914Y1769792D02*
Y1770638D01*
X644761Y1772331D01*
X645608Y1773178D01*
X647300Y1774024D01*
X650686D01*
X652379Y1773178D01*
X653226Y1772331D01*
X654072Y1770638D01*
Y1768945D01*
X653226Y1767252D01*
X651533Y1764713D01*
X643068Y1756248D01*
X654919D01*
X-55600Y1770638D02*
X-53907Y1771485D01*
X-51368Y1774024D01*
Y1756248D01*
X2047520Y-334176D02*
X2039055Y-346027D01*
X2051752D01*
X2047520Y-334176D02*
Y-351952D01*
X1341991Y-334176D02*
X1351302D01*
X1346223Y-340948D01*
X1348763D01*
X1350456Y-341794D01*
X1351302Y-342641D01*
X1352149Y-345180D01*
Y-346873D01*
X1351302Y-349412D01*
X1349609Y-351105D01*
X1347070Y-351952D01*
X1344530D01*
X1341991Y-351105D01*
X1341145Y-350259D01*
X1340298Y-348566D01*
X643914Y-338408D02*
Y-337562D01*
X644761Y-335869D01*
X645608Y-335022D01*
X647300Y-334176D01*
X650686D01*
X652379Y-335022D01*
X653226Y-335869D01*
X654072Y-337562D01*
Y-339255D01*
X653226Y-340948D01*
X651533Y-343487D01*
X643068Y-351952D01*
X654919D01*
X-55600Y-337562D02*
X-53907Y-336715D01*
X-51368Y-334176D01*
Y-351952D01*
X-379790Y-102528D02*
Y-120304D01*
Y-102528D02*
X-373865D01*
X-371325Y-103374D01*
X-369632Y-105067D01*
X-368786Y-106760D01*
X-367939Y-109300D01*
Y-113532D01*
X-368786Y-116072D01*
X-369632Y-117765D01*
X-371325Y-119458D01*
X-373865Y-120304D01*
X-379790D01*
X-367093Y431720D02*
X-367939Y433413D01*
X-369632Y435106D01*
X-371325Y435952D01*
X-374711D01*
X-376404Y435106D01*
X-378097Y433413D01*
X-378943Y431720D01*
X-379790Y429180D01*
Y424948D01*
X-378943Y422408D01*
X-378097Y420715D01*
X-376404Y419022D01*
X-374711Y418176D01*
X-371325D01*
X-369632Y419022D01*
X-367939Y420715D01*
X-367093Y422408D01*
X-379790Y975702D02*
Y957926D01*
Y975702D02*
X-372172D01*
X-369632Y974856D01*
X-368786Y974009D01*
X-367939Y972316D01*
Y970623D01*
X-368786Y968930D01*
X-369632Y968084D01*
X-372172Y967237D01*
X-379790D02*
X-372172D01*
X-369632Y966391D01*
X-368786Y965544D01*
X-367939Y963851D01*
Y961312D01*
X-368786Y959619D01*
X-369632Y958773D01*
X-372172Y957926D01*
X-379790D01*
X-366246Y1497676D02*
X-373018Y1515452D01*
X-379790Y1497676D01*
X-377251Y1503601D02*
X-368786D01*
D19*
X2057834Y633085D02*
Y612769D01*
X2069443D01*
X2087147D02*
X2079407Y633085D01*
X2071668Y612769D01*
X2074570Y619541D02*
X2084244D01*
X2091887Y633085D02*
X2099626Y623410D01*
Y612769D01*
X2107366Y633085D02*
X2099626Y623410D01*
X2122554Y633085D02*
X2109978D01*
Y612769D01*
X2122554D01*
X2109978Y623410D02*
X2117717D01*
X2125940Y633085D02*
Y612769D01*
Y633085D02*
X2134647D01*
X2137549Y632117D01*
X2138516Y631150D01*
X2139484Y629215D01*
Y627280D01*
X2138516Y625345D01*
X2137549Y624378D01*
X2134647Y623410D01*
X2125940D01*
X2132712D02*
X2139484Y612769D01*
X2159993Y633085D02*
Y618573D01*
X2160960Y615671D01*
X2162895Y613736D01*
X2165797Y612769D01*
X2167732D01*
X2170634Y613736D01*
X2172569Y615671D01*
X2173537Y618573D01*
Y633085D01*
X2192691Y630182D02*
X2190757Y632117D01*
X2187854Y633085D01*
X2183985D01*
X2181082Y632117D01*
X2179147Y630182D01*
Y628248D01*
X2180115Y626313D01*
X2181082Y625345D01*
X2183017Y624378D01*
X2188822Y622443D01*
X2190757Y621476D01*
X2191724Y620508D01*
X2192691Y618573D01*
Y615671D01*
X2190757Y613736D01*
X2187854Y612769D01*
X2183985D01*
X2181082Y613736D01*
X2179147Y615671D01*
X2212717Y612769D02*
X2204977Y633085D01*
X2197238Y612769D01*
X2200140Y619541D02*
X2209814D01*
X2231968Y628248D02*
X2231001Y630182D01*
X2229066Y632117D01*
X2227131Y633085D01*
X2223262D01*
X2221327Y632117D01*
X2219392Y630182D01*
X2218424Y628248D01*
X2217457Y625345D01*
Y620508D01*
X2218424Y617606D01*
X2219392Y615671D01*
X2221327Y613736D01*
X2223262Y612769D01*
X2227131D01*
X2229066Y613736D01*
X2231001Y615671D01*
X2231968Y617606D01*
Y620508D01*
X2227131D02*
X2231968D01*
X2249188Y633085D02*
X2236612D01*
Y612769D01*
X2249188D01*
X2236612Y623410D02*
X2244351D01*
D167*
X24146Y326050D02*
X31146D01*
X27646Y322550D02*
Y329550D01*
X24151Y260050D02*
X31151D01*
X27651Y256550D02*
Y263550D01*
X801660Y27496D02*
X808660D01*
X805160Y23996D02*
Y30996D01*
X735660Y27491D02*
X742660D01*
X739160Y23991D02*
Y30991D01*
X414862Y390800D02*
X424862D01*
X419862Y385800D02*
Y395800D01*
X414862Y411120D02*
X424862D01*
X419862Y406120D02*
Y416120D01*
X491062Y400960D02*
X501062D01*
X496062Y395960D02*
Y405960D01*
X10668Y195326D02*
X20828D01*
X15748Y190246D02*
Y200406D01*
X10668Y220726D02*
X20828D01*
X15748Y215646D02*
Y225806D01*
X160770Y33350D02*
X169770D01*
X165270Y28850D02*
Y37850D01*
X80770Y33350D02*
X89770D01*
X85270Y28850D02*
Y37850D01*
X784100Y520700D02*
X816100D01*
X800100Y504700D02*
Y536700D01*
X34800Y520700D02*
X66800D01*
X50800Y504700D02*
Y536700D01*
X22100Y38100D02*
X54100D01*
X38100Y22100D02*
Y54100D01*
X542800Y368300D02*
X574800D01*
X558800Y352300D02*
Y384300D01*
X542800Y88900D02*
X574800D01*
X558800Y72900D02*
Y104900D01*
X622694Y16000D02*
X625234D01*
X623964Y14730D02*
Y17270D01*
X625181Y39926D02*
X627720D01*
X626451Y38656D02*
Y41196D01*
X700278Y39930D02*
X702818D01*
X701548Y38660D02*
Y41200D01*
X700278Y16002D02*
X702818D01*
X701548Y14732D02*
Y17272D01*
X690480Y39974D02*
X693020D01*
X691750Y38704D02*
Y41244D01*
X690480Y16000D02*
X693020D01*
X691750Y14730D02*
Y17270D01*
X632803Y16000D02*
X635343D01*
X634073Y14730D02*
Y17270D01*
X924052Y539949D02*
X926592D01*
X925322Y538679D02*
Y541219D01*
X1008230Y541000D02*
X1010770D01*
X1009500Y539730D02*
Y542270D01*
X239776Y14310D02*
X242316D01*
X241046Y13040D02*
Y15580D01*
X245237Y419000D02*
X247777D01*
X246507Y417730D02*
Y420270D01*
X264480Y380201D02*
X267020D01*
X265750Y378931D02*
Y381471D01*
X359840Y196850D02*
X362380D01*
X361110Y195580D02*
Y198120D01*
X236574Y155560D02*
X239114D01*
X237844Y154290D02*
Y156830D01*
X133239Y345390D02*
X135779D01*
X134509Y344120D02*
Y346660D01*
X182884Y312509D02*
X185424D01*
X184154Y311239D02*
Y313779D01*
X169544Y326735D02*
X172084D01*
X170814Y325465D02*
Y328005D01*
X290609Y294972D02*
X293149D01*
X291879Y293702D02*
Y296242D01*
X283913Y305400D02*
X286453D01*
X285184Y304130D02*
Y306670D01*
X295239Y312912D02*
X297779D01*
X296509Y311642D02*
Y314182D01*
X276215Y313042D02*
X278755D01*
X277485Y311772D02*
Y314312D01*
X289003Y345053D02*
X291543D01*
X290273Y343783D02*
Y346323D01*
X278483Y266765D02*
X281023D01*
X279753Y265495D02*
Y268035D01*
X287052Y256624D02*
X289592D01*
X288322Y255354D02*
Y257894D01*
X294267Y242784D02*
X296807D01*
X295537Y241514D02*
Y244054D01*
X270111Y282120D02*
X272651D01*
X271381Y280850D02*
Y283390D01*
X279361Y223697D02*
X281901D01*
X280631Y222427D02*
Y224967D01*
X391480Y138489D02*
X394020D01*
X392750Y137219D02*
Y139759D01*
X378030Y134363D02*
X380570D01*
X379300Y133093D02*
Y135633D01*
X384655Y163076D02*
X387195D01*
X385924Y161806D02*
Y164346D01*
X380487Y190387D02*
X383027D01*
X381757Y189117D02*
Y191657D01*
X348484Y173094D02*
X351024D01*
X349754Y171824D02*
Y174364D01*
X341729Y173025D02*
X344269D01*
X342999Y171756D02*
Y174296D01*
X344956Y163097D02*
X347496D01*
X346226Y161826D02*
Y164366D01*
X349657Y142518D02*
X352197D01*
X350927Y141248D02*
Y143788D01*
X399980Y161750D02*
X402520D01*
X401250Y160480D02*
Y163020D01*
X348770Y275155D02*
X351310D01*
X350040Y273885D02*
Y276425D01*
X345775Y232776D02*
X348315D01*
X347045Y231506D02*
Y234046D01*
X358018Y223097D02*
X360559D01*
X359288Y221827D02*
Y224367D01*
X197770Y248702D02*
X200310D01*
X199040Y247432D02*
Y249972D01*
X238009Y186977D02*
X240549D01*
X239279Y185707D02*
Y188247D01*
X167638Y308712D02*
X170178D01*
X168908Y307442D02*
Y309982D01*
X92828Y384278D02*
X95368D01*
X94098Y383008D02*
Y385548D01*
X265584Y247083D02*
X268124D01*
X266854Y245813D02*
Y248353D01*
X186373Y254803D02*
X188913D01*
X187642Y253533D02*
Y256073D01*
X186218Y224529D02*
X188758D01*
X187488Y223259D02*
Y225799D01*
X217133Y234884D02*
X219673D01*
X218403Y233614D02*
Y236154D01*
X198619Y224328D02*
X201159D01*
X199889Y223057D02*
Y225597D01*
X214500Y249556D02*
X217040D01*
X215770Y248286D02*
Y250826D01*
X110665Y292284D02*
X113205D01*
X111935Y291014D02*
Y293554D01*
X166185Y363171D02*
X168725D01*
X167455Y361901D02*
Y364441D01*
X170433Y347610D02*
X172973D01*
X171703Y346340D02*
Y348880D01*
X168782Y291382D02*
X171322D01*
X170052Y290112D02*
Y292652D01*
X212491Y347649D02*
X215031D01*
X213761Y346379D02*
Y348919D01*
X368889Y198364D02*
X371429D01*
X370159Y197094D02*
Y199634D01*
X345383Y312553D02*
X347923D01*
X346653Y311283D02*
Y313823D01*
X338808Y312812D02*
X341348D01*
X340078Y311542D02*
Y314083D01*
X318235Y164107D02*
X320775D01*
X319505Y162837D02*
Y165377D01*
X364978Y172779D02*
X367519D01*
X366249Y171509D02*
Y174049D01*
X325964Y373042D02*
X328504D01*
X327234Y371772D02*
Y374312D01*
X271980Y377560D02*
X274520D01*
X273250Y376290D02*
Y378830D01*
X94014Y391100D02*
X96554D01*
X95284Y389830D02*
Y392370D01*
X312111Y388640D02*
X314651D01*
X313381Y387370D02*
Y389910D01*
X330288Y388640D02*
X332828D01*
X331558Y387370D02*
Y389910D01*
X338817Y388860D02*
X341357D01*
X340087Y387590D02*
Y390130D01*
X293532Y389462D02*
X296072D01*
X294802Y388192D02*
Y390732D01*
X199255Y416493D02*
X201795D01*
X200525Y415223D02*
Y417763D01*
X228132Y416493D02*
X230672D01*
X229402Y415223D02*
Y417763D01*
X173980Y416493D02*
X176520D01*
X175250Y415223D02*
Y417763D01*
X324980Y351672D02*
X327520D01*
X326250Y350402D02*
Y352942D01*
X319473Y310154D02*
X322014D01*
X320743Y308884D02*
Y311424D01*
X328987Y283649D02*
X331527D01*
X330257Y282379D02*
Y284919D01*
X338591Y282120D02*
X341131D01*
X339861Y280850D02*
Y283390D01*
X328980Y291553D02*
X331520D01*
X330250Y290283D02*
Y292823D01*
X385360Y259440D02*
X387900D01*
X386630Y258171D02*
Y260711D01*
X393980Y201728D02*
X396520D01*
X395250Y200458D02*
Y202998D01*
X253533Y396555D02*
X256073D01*
X254803Y395285D02*
Y397825D01*
X251059Y383180D02*
X253599D01*
X252329Y381910D02*
Y384450D01*
X258028Y383031D02*
X260568D01*
X259298Y381761D02*
Y384301D01*
X224519Y391686D02*
X227059D01*
X225788Y390416D02*
Y392956D01*
X173637Y387145D02*
X176177D01*
X174907Y385875D02*
Y388415D01*
X246742Y396555D02*
X249282D01*
X248012Y395285D02*
Y397825D01*
X313690Y222687D02*
X316230D01*
X314960Y221417D02*
Y223957D01*
X351683Y403477D02*
X354223D01*
X352953Y402207D02*
Y404747D01*
X294143Y281500D02*
X296683D01*
X295413Y280230D02*
Y282770D01*
X295528Y274952D02*
X298068D01*
X296798Y273682D02*
Y276222D01*
X295718Y262118D02*
X298258D01*
X296988Y260848D02*
Y263388D01*
X294149Y268508D02*
X296689D01*
X295419Y267238D02*
Y269778D01*
X295480Y255203D02*
X298020D01*
X296750Y253932D02*
Y256472D01*
X242030Y190520D02*
X244570D01*
X243300Y189250D02*
Y191790D01*
X295480Y350242D02*
X298020D01*
X296750Y348972D02*
Y351512D01*
X276921Y351622D02*
X279461D01*
X278191Y350352D02*
Y352892D01*
X177858Y180948D02*
X180398D01*
X179128Y179678D02*
Y182218D01*
X169430Y185750D02*
X171970D01*
X170700Y184480D02*
Y187020D01*
X169480Y281078D02*
X172020D01*
X170750Y279808D02*
Y282348D01*
X319561Y344486D02*
X322101D01*
X320831Y343216D02*
Y345756D01*
X335282Y235865D02*
X337822D01*
X336552Y234595D02*
Y237135D01*
X322818Y240000D02*
X325358D01*
X324088Y238730D02*
Y241270D01*
X451620Y190982D02*
X454160D01*
X452890Y189712D02*
Y192252D01*
X274662Y110854D02*
X277202D01*
X275932Y109584D02*
Y112124D01*
X279562Y105854D02*
X282102D01*
X280832Y104584D02*
Y107124D01*
X276162Y122570D02*
X278702D01*
X277432Y121300D02*
Y123840D01*
X744105Y160758D02*
X746645D01*
X745375Y159488D02*
Y162028D01*
X732235Y154068D02*
X734775D01*
X733505Y152798D02*
Y155338D01*
X715878Y160758D02*
X718418D01*
X717148Y159488D02*
Y162028D01*
X766895Y123571D02*
X769435D01*
X768165Y122301D02*
Y124841D01*
X797230Y122750D02*
X799770D01*
X798500Y121480D02*
Y124020D01*
X776140Y123952D02*
X778680D01*
X777410Y122682D02*
Y125222D01*
X818230Y121250D02*
X820770D01*
X819500Y119980D02*
Y122520D01*
X753969Y162463D02*
X756509D01*
X755239Y161193D02*
Y163733D01*
X688837Y252056D02*
X691377D01*
X690107Y250786D02*
Y253326D01*
X678265Y319387D02*
X680805D01*
X679535Y318117D02*
Y320657D01*
X667550Y308081D02*
X670090D01*
X668820Y306811D02*
Y309351D01*
X653507Y293104D02*
X656047D01*
X654777Y291834D02*
Y294374D01*
X642843Y323608D02*
X645384D01*
X644113Y322338D02*
Y324878D01*
X466723Y267708D02*
X469263D01*
X467993Y266438D02*
Y268978D01*
X410681Y274585D02*
X413221D01*
X411951Y273315D02*
Y275855D01*
X387858Y345006D02*
X390398D01*
X389128Y343736D02*
Y346276D01*
X409914Y354465D02*
X412454D01*
X411184Y353195D02*
Y355735D01*
X449230Y368524D02*
X451770D01*
X450500Y367254D02*
Y369794D01*
X472556Y347795D02*
X475096D01*
X473826Y346525D02*
Y349065D01*
X425285Y348639D02*
X427825D01*
X426554Y347369D02*
Y349909D01*
X433613Y348688D02*
X436153D01*
X434883Y347417D02*
Y349958D01*
X404167Y360187D02*
X406707D01*
X405437Y358917D02*
Y361457D01*
X450730Y320946D02*
X453270D01*
X452000Y319676D02*
Y322216D01*
X445021Y325114D02*
X447561D01*
X446291Y323844D02*
Y326384D01*
X441185Y341750D02*
X443725D01*
X442455Y340480D02*
Y343020D01*
X439097Y310994D02*
X441637D01*
X440367Y309724D02*
Y312264D01*
X445770Y303808D02*
X448310D01*
X447040Y302538D02*
Y305078D01*
X431037Y310738D02*
X433577D01*
X432307Y309468D02*
Y312008D01*
X411480Y318176D02*
X414020D01*
X412750Y316906D02*
Y319446D01*
X411480Y325289D02*
X414020D01*
X412750Y324020D02*
Y326559D01*
X419452Y311641D02*
X421992D01*
X420722Y310371D02*
Y312911D01*
X464930Y327974D02*
X467470D01*
X466200Y326704D02*
Y329244D01*
X456230Y328150D02*
X458770D01*
X457500Y326880D02*
Y329420D01*
X471798Y300532D02*
X474338D01*
X473068Y299263D02*
Y301803D01*
X481402Y289129D02*
X483942D01*
X482672Y287859D02*
Y290399D01*
X471331Y293861D02*
X473871D01*
X472601Y292591D02*
Y295131D01*
X484989Y268154D02*
X487529D01*
X486259Y266884D02*
Y269424D01*
X471331Y308610D02*
X473871D01*
X472601Y307340D02*
Y309880D01*
X397458Y305448D02*
X399998D01*
X398728Y304178D02*
Y306718D01*
X445770Y297180D02*
X448310D01*
X447040Y295910D02*
Y298450D01*
X452120Y291176D02*
X454660D01*
X453390Y289906D02*
Y292446D01*
X439097Y285421D02*
X441637D01*
X440367Y284151D02*
Y286691D01*
X478928Y337720D02*
X481468D01*
X480198Y336450D02*
Y338990D01*
X625868Y264246D02*
X628408D01*
X627138Y262976D02*
Y265516D01*
X632874Y265450D02*
X635414D01*
X634144Y264180D02*
Y266720D01*
X638564Y269753D02*
X641104D01*
X639834Y268483D02*
Y271023D01*
X647770Y254110D02*
X650310D01*
X649040Y252840D02*
Y255380D01*
X699461Y274259D02*
X702001D01*
X700731Y272989D02*
Y275529D01*
X568300Y304816D02*
X570840D01*
X569570Y303546D02*
Y306086D01*
X707390Y282350D02*
X709930D01*
X708660Y281080D02*
Y283620D01*
X712470Y276860D02*
X715010D01*
X713740Y275590D02*
Y278130D01*
X715797Y214282D02*
X718337D01*
X717067Y213012D02*
Y215552D01*
X721286Y222879D02*
X723826D01*
X722556Y221609D02*
Y224149D01*
X667120Y255774D02*
X669660D01*
X668390Y254504D02*
Y257044D01*
X666835Y248296D02*
X669375D01*
X668105Y247026D02*
Y249566D01*
X775273Y277076D02*
X777813D01*
X776543Y275806D02*
Y278346D01*
X692486Y305153D02*
X695026D01*
X693756Y303883D02*
Y306423D01*
X782358Y274550D02*
X784898D01*
X783628Y273280D02*
Y275820D01*
X698389Y237433D02*
X700929D01*
X699659Y236163D02*
Y238703D01*
X726564Y287226D02*
X729105D01*
X727834Y285956D02*
Y288496D01*
X808390Y251044D02*
X810930D01*
X809660Y249774D02*
Y252314D01*
X642120Y330436D02*
X644660D01*
X643390Y329166D02*
Y331706D01*
X621309Y329667D02*
X623849D01*
X622579Y328397D02*
Y330937D01*
X393259Y280057D02*
X395799D01*
X394529Y278787D02*
Y281327D01*
X389425Y299255D02*
X391965D01*
X390695Y297985D02*
Y300525D01*
X485902Y283210D02*
X488442D01*
X487172Y281940D02*
Y284480D01*
X393489Y388191D02*
X396029D01*
X394759Y386921D02*
Y389461D01*
X436133Y388191D02*
X438673D01*
X437403Y386921D02*
Y389461D01*
X384811Y304640D02*
X387351D01*
X386081Y303370D02*
Y305910D01*
X383366Y325503D02*
X385906D01*
X384636Y324233D02*
Y326773D01*
X862626Y257350D02*
X865166D01*
X863896Y256080D02*
Y258620D01*
X839369Y267980D02*
X841909D01*
X840639Y266709D02*
Y269249D01*
X862378Y263940D02*
X864918D01*
X863648Y262670D02*
Y265210D01*
X836980Y241924D02*
X839520D01*
X838250Y240654D02*
Y243194D01*
X840788Y251850D02*
X843328D01*
X842058Y250580D02*
Y253120D01*
X840120Y286519D02*
X842660D01*
X841390Y285249D02*
Y287789D01*
X840607Y295001D02*
X843147D01*
X841877Y293731D02*
Y296271D01*
X830580Y307919D02*
X833120D01*
X831850Y306649D02*
Y309189D01*
X858629Y312822D02*
X861169D01*
X859899Y311551D02*
Y314091D01*
X919255Y313250D02*
X921795D01*
X920525Y311980D02*
Y314520D01*
X850904Y295244D02*
X853444D01*
X852174Y293974D02*
Y296514D01*
X841584Y208371D02*
X844124D01*
X842854Y207101D02*
Y209641D01*
X530230Y125320D02*
X532770D01*
X531500Y124050D02*
Y126590D01*
X410713Y216520D02*
X413253D01*
X411983Y215250D02*
Y217790D01*
X401308Y221635D02*
X403848D01*
X402578Y220365D02*
Y222905D01*
X394148Y230757D02*
X396688D01*
X395418Y229487D02*
Y232027D01*
X381609Y244409D02*
X384149D01*
X382879Y243139D02*
Y245679D01*
X380651Y231227D02*
X383191D01*
X381921Y229957D02*
Y232497D01*
X369994Y223871D02*
X372534D01*
X371264Y222601D02*
Y225141D01*
X320690Y473250D02*
X323230D01*
X321960Y471980D02*
Y474520D01*
X244490Y469500D02*
X247030D01*
X245760Y468230D02*
Y470770D01*
X146230Y461750D02*
X148770D01*
X147500Y460480D02*
Y463020D01*
X87980Y454500D02*
X90520D01*
X89250Y453230D02*
Y455770D01*
X647770Y146000D02*
X650310D01*
X649040Y144730D02*
Y147270D01*
X148590Y441924D02*
X151130D01*
X149860Y440654D02*
Y443194D01*
X173403Y464982D02*
X175944D01*
X174674Y463712D02*
Y466252D01*
X53545Y367328D02*
X56086D01*
X54816Y366058D02*
Y368598D01*
X115063Y242774D02*
X117603D01*
X116333Y241504D02*
Y244044D01*
X1041190Y363522D02*
X1043730D01*
X1042460Y362253D02*
Y364793D01*
X98980Y26274D02*
X101520D01*
X100250Y25004D02*
Y27544D01*
X135146Y24016D02*
X137686D01*
X136416Y22746D02*
Y25286D01*
X152559Y34296D02*
X155099D01*
X153829Y33026D02*
Y35566D01*
X129005Y66595D02*
X131545D01*
X130275Y65325D02*
Y67865D01*
X118433Y70306D02*
X120973D01*
X119703Y69036D02*
Y71576D01*
X87839Y67310D02*
X90379D01*
X89109Y66040D02*
Y68580D01*
X136088Y66500D02*
X138628D01*
X137358Y65230D02*
Y67770D01*
X108285Y44450D02*
X110824D01*
X109555Y43180D02*
Y45720D01*
X104165Y60500D02*
X106705D01*
X105435Y59230D02*
Y61770D01*
X85129Y19926D02*
X87669D01*
X86399Y18656D02*
Y21196D01*
X189480Y9750D02*
X192020D01*
X190750Y8480D02*
Y11020D01*
X1081980Y367500D02*
X1084520D01*
X1083250Y366230D02*
Y368770D01*
X1028700Y380019D02*
X1031240D01*
X1029970Y378749D02*
Y381289D01*
X1037230Y393982D02*
X1039770D01*
X1038500Y392712D02*
Y395252D01*
X1067230Y394137D02*
X1069770D01*
X1068500Y392867D02*
Y395407D01*
X1067980Y326030D02*
X1070520D01*
X1069250Y324760D02*
Y327300D01*
X100879Y133924D02*
X103419D01*
X102149Y132654D02*
Y135194D01*
X58480Y87250D02*
X61020D01*
X59750Y85980D02*
Y88520D01*
X145480Y51250D02*
X148020D01*
X146750Y49980D02*
Y52520D01*
X241263Y42551D02*
X243803D01*
X242533Y41281D02*
Y43821D01*
X166480Y45122D02*
X169020D01*
X167750Y43852D02*
Y46392D01*
X215020Y40546D02*
X217560D01*
X216290Y39276D02*
Y41816D01*
X132552Y9640D02*
X135092D01*
X133822Y8370D02*
Y10910D01*
X581210Y362538D02*
X583750D01*
X582480Y361268D02*
Y363808D01*
X584248Y356701D02*
X586788D01*
X585518Y355431D02*
Y357971D01*
X579540Y352104D02*
X582080D01*
X580810Y350834D02*
Y353374D01*
X588082Y92331D02*
X590622D01*
X589352Y91061D02*
Y93601D01*
X594320Y103500D02*
X596860D01*
X595590Y102230D02*
Y104770D01*
X614100Y36448D02*
X616640D01*
X615370Y35178D02*
Y37718D01*
X569759Y220425D02*
X572299D01*
X571030Y219155D02*
Y221695D01*
X517769Y172655D02*
X520309D01*
X519039Y171385D02*
Y173925D01*
X529961Y172528D02*
X532501D01*
X531231Y171258D02*
Y173798D01*
X301720Y461064D02*
X304260D01*
X302990Y459794D02*
Y462334D01*
X366223Y463117D02*
X368763D01*
X367493Y461847D02*
Y464387D01*
X390424Y464041D02*
X392964D01*
X391694Y462771D02*
Y465311D01*
X420695Y461250D02*
X423235D01*
X421965Y459980D02*
Y462520D01*
X315230Y478869D02*
X317770D01*
X316500Y477599D02*
Y480139D01*
X106078Y475000D02*
X108618D01*
X107348Y473730D02*
Y476270D01*
X619410Y113066D02*
X621950D01*
X620680Y111796D02*
Y114336D01*
X327980Y404000D02*
X330520D01*
X329250Y402730D02*
Y405270D01*
X374609Y437165D02*
X377149D01*
X375879Y435895D02*
Y438435D01*
X379946Y432632D02*
X382486D01*
X381216Y431362D02*
Y433903D01*
X301720Y434702D02*
X304260D01*
X302990Y433432D02*
Y435972D01*
X328748Y434552D02*
X331288D01*
X330018Y433282D02*
Y435822D01*
X351683Y434702D02*
X354223D01*
X352953Y433432D02*
Y435972D01*
X274480Y467500D02*
X277020D01*
X275750Y466230D02*
Y468770D01*
X259151Y463750D02*
X261691D01*
X260422Y462480D02*
Y465020D01*
X204980Y467258D02*
X207520D01*
X206250Y465988D02*
Y468528D01*
X493526Y251695D02*
X496066D01*
X494796Y250425D02*
Y252965D01*
X500523Y252468D02*
X503063D01*
X501793Y251198D02*
Y253738D01*
X488187Y245750D02*
X490727D01*
X489457Y244480D02*
Y247020D01*
X488640Y220298D02*
X491180D01*
X489910Y219028D02*
Y221568D01*
X512900Y196038D02*
X515440D01*
X514170Y194768D02*
Y197308D01*
X410500Y247012D02*
X413040D01*
X411770Y245742D02*
Y248282D01*
X394230Y247906D02*
X396770D01*
X395500Y246636D02*
Y249176D01*
X385453Y266138D02*
X387993D01*
X386723Y264869D02*
Y267409D01*
X559790Y235835D02*
X562330D01*
X561060Y234565D02*
Y237105D01*
X578258Y184259D02*
X580798D01*
X579528Y182989D02*
Y185529D01*
X585759Y194510D02*
X588299D01*
X587029Y193239D02*
Y195779D01*
X584493Y187680D02*
X587033D01*
X585763Y186410D02*
Y188950D01*
X323523Y232505D02*
X326063D01*
X324793Y231235D02*
Y233775D01*
X360070Y236522D02*
X362609D01*
X361339Y235252D02*
Y237792D01*
X573565Y124934D02*
X576105D01*
X574835Y123664D02*
Y126204D01*
X662230Y124807D02*
X664770D01*
X663500Y123537D02*
Y126077D01*
X537152Y172750D02*
X539692D01*
X538422Y171480D02*
Y174020D01*
X548480Y172750D02*
X551020D01*
X549750Y171480D02*
Y174020D01*
X548480Y190700D02*
X551020D01*
X549750Y189430D02*
Y191970D01*
X497480Y172235D02*
X500020D01*
X498750Y170965D02*
Y173505D01*
X631439Y146674D02*
X633979D01*
X632709Y145404D02*
Y147944D01*
X573565Y152255D02*
X576105D01*
X574835Y150985D02*
Y153525D01*
X568011Y148727D02*
X570551D01*
X569281Y147457D02*
Y149997D01*
X653230Y152264D02*
X655770D01*
X654500Y150994D02*
Y153534D01*
X692974Y152264D02*
X695514D01*
X694244Y150994D02*
Y153534D01*
X731480Y183250D02*
X734020D01*
X732750Y181980D02*
Y184520D01*
X744893Y182564D02*
X747433D01*
X746163Y181294D02*
Y183834D01*
X745716Y193000D02*
X748256D01*
X746986Y191730D02*
Y194270D01*
X752061Y185171D02*
X754601D01*
X753331Y183901D02*
Y186441D01*
X676230Y158500D02*
X678770D01*
X677500Y157230D02*
Y159770D01*
X675480Y169919D02*
X678020D01*
X676750Y168649D02*
Y171189D01*
X648090Y158361D02*
X650630D01*
X649360Y157091D02*
Y159631D01*
X562230Y152264D02*
X564770D01*
X563500Y150994D02*
Y153534D01*
X763443Y183161D02*
X765983D01*
X764713Y181891D02*
Y184431D01*
X776071Y162400D02*
X778611D01*
X777341Y161130D02*
Y163670D01*
X667230Y157607D02*
X669770D01*
X668500Y156337D02*
Y158877D01*
X711843Y182345D02*
X714383D01*
X713113Y181075D02*
Y183615D01*
X250654Y116250D02*
X253194D01*
X251924Y114980D02*
Y117520D01*
X427569Y206750D02*
X430109D01*
X428839Y205480D02*
Y208020D01*
X438271Y185952D02*
X440811D01*
X439541Y184682D02*
Y187222D01*
X97877Y462024D02*
X100417D01*
X99147Y460754D02*
Y463294D01*
X69343Y500500D02*
X71883D01*
X70613Y499230D02*
Y501770D01*
X133230Y469500D02*
X135770D01*
X134500Y468230D02*
Y470770D01*
X74480Y473330D02*
X77020D01*
X75750Y472060D02*
Y474600D01*
X75411Y444890D02*
X77951D01*
X76681Y443620D02*
Y446160D01*
X85090Y419458D02*
X87630D01*
X86360Y418188D02*
Y420728D01*
X100480Y405500D02*
X103020D01*
X101750Y404230D02*
Y406770D01*
X182730Y483000D02*
X185270D01*
X184000Y481730D02*
Y484270D01*
X116013Y467258D02*
X118553D01*
X117283Y465988D02*
Y468528D01*
X576480Y142518D02*
X579020D01*
X577750Y141248D02*
Y143788D01*
X567904Y188078D02*
X570444D01*
X569174Y186808D02*
Y189348D01*
X575988Y202640D02*
X578528D01*
X577258Y201370D02*
Y203910D01*
X568095Y181096D02*
X570635D01*
X569365Y179826D02*
Y182366D01*
X483433Y197120D02*
X485973D01*
X484703Y195850D02*
Y198390D01*
X567904Y195565D02*
X570444D01*
X569174Y194295D02*
Y196835D01*
X619730Y485500D02*
X622270D01*
X621000Y484230D02*
Y486770D01*
X640063Y481483D02*
X642603D01*
X641333Y480213D02*
Y482752D01*
X563230Y486250D02*
X565770D01*
X564500Y484980D02*
Y487520D01*
X557044Y434102D02*
X559584D01*
X558314Y432832D02*
Y435372D01*
X623945Y362564D02*
X626485D01*
X625215Y361294D02*
Y363834D01*
X607582Y374897D02*
X610122D01*
X608852Y373627D02*
Y376167D01*
X583141Y372150D02*
X585681D01*
X584411Y370880D02*
Y373420D01*
X498328Y268539D02*
X500868D01*
X499598Y267269D02*
Y269809D01*
X501255Y262263D02*
X503795D01*
X502524Y260993D02*
Y263533D01*
X510975Y256053D02*
X513515D01*
X512245Y254783D02*
Y257323D01*
X435422Y251614D02*
X437962D01*
X436692Y250345D02*
Y252885D01*
X477209Y251614D02*
X479749D01*
X478479Y250345D02*
Y252885D01*
X245388Y439552D02*
X247928D01*
X246658Y438282D02*
Y440822D01*
X514480Y128850D02*
X517020D01*
X515750Y127580D02*
Y130120D01*
X1038531Y244762D02*
X1041071D01*
X1039801Y243492D02*
Y246032D01*
X489730Y421750D02*
X492270D01*
X491000Y420480D02*
Y423020D01*
X264993Y189009D02*
X267533D01*
X266263Y187739D02*
Y190279D01*
X257230Y147256D02*
X259770D01*
X258500Y145986D02*
Y148526D01*
X170980Y99297D02*
X173520D01*
X172250Y98027D02*
Y100567D01*
X720648Y33020D02*
X723188D01*
X721918Y31750D02*
Y34290D01*
X807904Y276000D02*
X810444D01*
X809174Y274730D02*
Y277270D01*
X752651Y282653D02*
X755191D01*
X753921Y281383D02*
Y283923D01*
X807904Y206905D02*
X810444D01*
X809174Y205635D02*
Y208175D01*
X740003Y234202D02*
X742543D01*
X741273Y232932D02*
Y235473D01*
X716118Y307423D02*
X718658D01*
X717388Y306153D02*
Y308693D01*
X727283Y301940D02*
X729823D01*
X728553Y300670D02*
Y303210D01*
X739696Y299491D02*
X742236D01*
X740966Y298221D02*
Y300761D01*
X810060Y403574D02*
X812600D01*
X811330Y402304D02*
Y404844D01*
X822344Y382194D02*
X824884D01*
X823614Y380924D02*
Y383464D01*
X856076Y405534D02*
X858616D01*
X857346Y404264D02*
Y406804D01*
X850567Y391406D02*
X853107D01*
X851837Y390136D02*
Y392676D01*
X850519Y368524D02*
X853059D01*
X851789Y367254D02*
Y369794D01*
X850519Y351767D02*
X853059D01*
X851789Y350497D02*
Y353037D01*
X850591Y339460D02*
X853131D01*
X851861Y338190D02*
Y340730D01*
X850519Y323518D02*
X853059D01*
X851789Y322248D02*
Y324788D01*
X751503Y124185D02*
X754043D01*
X752773Y122915D02*
Y125455D01*
X768667Y92556D02*
X771207D01*
X769937Y91285D02*
Y93826D01*
X721914Y109750D02*
X724454D01*
X723184Y108480D02*
Y111020D01*
X713714Y124973D02*
X716254D01*
X714984Y123703D02*
Y126243D01*
X878840Y162172D02*
X881380D01*
X880110Y160902D02*
Y163442D01*
X852434Y162439D02*
X854974D01*
X853704Y161168D02*
Y163708D01*
X818230Y162335D02*
X820770D01*
X819500Y161065D02*
Y163605D01*
X708915Y162220D02*
X711455D01*
X710185Y160950D02*
Y163490D01*
X859286Y122152D02*
X861826D01*
X860556Y120882D02*
Y123422D01*
X917936Y133056D02*
X920476D01*
X919206Y131786D02*
Y134326D01*
X904480Y142500D02*
X907020D01*
X905750Y141230D02*
Y143770D01*
X291433Y28377D02*
X293973D01*
X292703Y27107D02*
Y29647D01*
X265782Y27074D02*
X268322D01*
X267052Y25804D02*
Y28344D01*
X319092Y86200D02*
X321632D01*
X320362Y84930D02*
Y87470D01*
X463959Y224301D02*
X466499D01*
X465229Y223031D02*
Y225571D01*
X31730Y435433D02*
X34270D01*
X33000Y434163D02*
Y436703D01*
X31730Y421928D02*
X34270D01*
X33000Y420658D02*
Y423198D01*
X34108Y387408D02*
X36648D01*
X35378Y386138D02*
Y388678D01*
X51856Y242815D02*
X54396D01*
X53126Y241545D02*
Y244085D01*
X66014Y209351D02*
X68554D01*
X67284Y208081D02*
Y210621D01*
X51982Y212694D02*
X54522D01*
X53252Y211424D02*
Y213964D01*
X153740Y74295D02*
X156280D01*
X155010Y73025D02*
Y75565D01*
X154011Y95872D02*
X156551D01*
X155281Y94602D02*
Y97142D01*
X191996Y140952D02*
X194536D01*
X193266Y139682D02*
Y142222D01*
X201576Y150463D02*
X204116D01*
X202846Y149193D02*
Y151733D01*
X200480Y128391D02*
X203020D01*
X201750Y127121D02*
Y129661D01*
X216491Y115134D02*
X219031D01*
X217761Y113864D02*
Y116404D01*
X198342Y112768D02*
X200882D01*
X199612Y111498D02*
Y114038D01*
X184005Y99297D02*
X186545D01*
X185275Y98027D02*
Y100567D01*
X287748Y176432D02*
X290288D01*
X289018Y175162D02*
Y177702D01*
X540760Y38285D02*
X543300D01*
X542030Y37015D02*
Y39555D01*
X589393Y31440D02*
X591933D01*
X590663Y30170D02*
Y32710D01*
X572885Y31924D02*
X575425D01*
X574155Y30654D02*
Y33194D01*
X545038Y60764D02*
X547578D01*
X546308Y59494D02*
Y62034D01*
X569876Y109460D02*
X572416D01*
X571146Y108190D02*
Y110730D01*
X671830Y119328D02*
X674370D01*
X673100Y118058D02*
Y120598D01*
X661033Y104419D02*
X663573D01*
X662303Y103149D02*
Y105689D01*
X645556Y89000D02*
X648096D01*
X646826Y87730D02*
Y90270D01*
X671258Y82315D02*
X673798D01*
X672528Y81045D02*
Y83585D01*
X652122Y95460D02*
X654662D01*
X653392Y94190D02*
Y96730D01*
X641565Y72940D02*
X644105D01*
X642835Y71670D02*
Y74210D01*
X661552Y50250D02*
X664092D01*
X662822Y48980D02*
Y51520D01*
X661867Y73301D02*
X664407D01*
X663137Y72031D02*
Y74571D01*
X689009Y86430D02*
X691549D01*
X690279Y85160D02*
Y87700D01*
X680720Y60554D02*
X683260D01*
X681990Y59284D02*
Y61824D01*
X700667Y47396D02*
X703207D01*
X701937Y46126D02*
Y48666D01*
X682410Y26164D02*
X684950D01*
X683680Y24894D02*
Y27434D01*
X661670Y26164D02*
X664210D01*
X662940Y24894D02*
Y27434D01*
X661230Y12000D02*
X663770D01*
X662500Y10730D02*
Y13270D01*
X763055Y41673D02*
X765595D01*
X764325Y40403D02*
Y42943D01*
X744893Y41778D02*
X747433D01*
X746163Y40508D02*
Y43048D01*
X790521Y54350D02*
X793061D01*
X791791Y53080D02*
Y55620D01*
X783890Y42077D02*
X786430D01*
X785160Y40807D02*
Y43347D01*
X838437Y29500D02*
X840977D01*
X839707Y28230D02*
Y30770D01*
X826480Y11000D02*
X829020D01*
X827750Y9730D02*
Y12270D01*
X814128Y16870D02*
X816668D01*
X815398Y15600D02*
Y18140D01*
X860230Y10500D02*
X862770D01*
X861500Y9230D02*
Y11770D01*
X892730Y10000D02*
X895270D01*
X894000Y8730D02*
Y11270D01*
X994538Y28866D02*
X997078D01*
X995808Y27596D02*
Y30136D01*
X993730Y11250D02*
X996270D01*
X995000Y9980D02*
Y12520D01*
X1030623Y124500D02*
X1033164D01*
X1031893Y123230D02*
Y125770D01*
X1081730Y349750D02*
X1084270D01*
X1083000Y348480D02*
Y351020D01*
X1082480Y329250D02*
X1085020D01*
X1083750Y327980D02*
Y330520D01*
X951277Y430419D02*
X953817D01*
X952547Y429149D02*
Y431689D01*
X356342Y250053D02*
X358882D01*
X357612Y248783D02*
Y251323D01*
X362802Y152035D02*
X365342D01*
X364072Y150765D02*
Y153305D01*
X449446Y166983D02*
X451986D01*
X450716Y165713D02*
Y168253D01*
X453980Y205250D02*
X456520D01*
X455250Y203980D02*
Y206520D01*
X415815Y176565D02*
X418355D01*
X417085Y175295D02*
Y177835D01*
X423033Y222066D02*
X425573D01*
X424303Y220795D02*
Y223335D01*
X423033Y240757D02*
X425573D01*
X424303Y239487D02*
Y242027D01*
X652850Y119569D02*
X655390D01*
X654120Y118299D02*
Y120839D01*
X655035Y234645D02*
X657575D01*
X656305Y233375D02*
Y235915D01*
X625868Y231128D02*
X628408D01*
X627138Y229858D02*
Y232398D01*
X690530Y347499D02*
X693070D01*
X691800Y346229D02*
Y348769D01*
X656128Y395255D02*
X658668D01*
X657398Y393985D02*
Y396525D01*
X672188Y419431D02*
X674728D01*
X673458Y418161D02*
Y420700D01*
X685535Y414849D02*
X688075D01*
X686805Y413578D02*
Y416119D01*
X694140Y406680D02*
X696680D01*
X695410Y405410D02*
Y407950D01*
X700750Y397798D02*
X703290D01*
X702020Y396528D02*
Y399068D01*
X748944Y389560D02*
X751484D01*
X750214Y388290D02*
Y390830D01*
X760262Y434598D02*
X762802D01*
X761532Y433327D02*
Y435868D01*
X801734Y445512D02*
X804274D01*
X803004Y444242D02*
Y446782D01*
X787339Y452901D02*
X789879D01*
X788609Y451631D02*
Y454171D01*
X841431Y449715D02*
X843971D01*
X842701Y448445D02*
Y450985D01*
X841213Y442852D02*
X843753D01*
X842483Y441582D02*
Y444122D01*
X852434Y442485D02*
X854974D01*
X853704Y441214D02*
Y443755D01*
X862690Y441766D02*
X865229D01*
X863960Y440496D02*
Y443036D01*
X905345Y448279D02*
X907885D01*
X906615Y447009D02*
Y449549D01*
X857359Y420052D02*
X859899D01*
X858629Y418782D02*
Y421322D01*
X907618Y386060D02*
X910158D01*
X908888Y384790D02*
Y387330D01*
X957366Y368921D02*
X959906D01*
X958636Y367651D02*
Y370191D01*
X870405Y252081D02*
X872945D01*
X871675Y250811D02*
Y253351D01*
X663029Y202781D02*
X665569D01*
X664299Y201511D02*
Y204051D01*
X655520Y360096D02*
X658060D01*
X656790Y358826D02*
Y361366D01*
X624980Y394229D02*
X627520D01*
X626250Y392958D02*
Y395499D01*
X624103Y419945D02*
X626643D01*
X625373Y418675D02*
Y421216D01*
X659797Y408639D02*
X662337D01*
X661067Y407369D02*
Y409909D01*
X654693Y481483D02*
X657233D01*
X655963Y480213D02*
Y482752D01*
X677330Y481660D02*
X679870D01*
X678600Y480390D02*
Y482930D01*
X700750Y481660D02*
X703290D01*
X702020Y480390D02*
Y482930D01*
X716830Y482103D02*
X719370D01*
X718100Y480833D02*
Y483373D01*
X772618Y481483D02*
X775158D01*
X773888Y480213D02*
Y482752D01*
X737330Y481483D02*
X739870D01*
X738600Y480213D02*
Y482752D01*
X720154Y434671D02*
X722694D01*
X721424Y433401D02*
Y435941D01*
X729213Y418029D02*
X731753D01*
X730483Y416759D02*
Y419299D01*
X720230Y406114D02*
X722770D01*
X721500Y404844D02*
Y407384D01*
X729213Y392532D02*
X731753D01*
X730483Y391262D02*
Y393802D01*
X786696Y350542D02*
X789236D01*
X787966Y349272D02*
Y351812D01*
X763920Y345486D02*
X766460D01*
X765190Y344216D02*
Y346756D01*
X786463Y335893D02*
X789003D01*
X787733Y334623D02*
Y337163D01*
X818230Y354731D02*
X820770D01*
X819500Y353461D02*
Y356001D01*
X907674Y368543D02*
X910214D01*
X908944Y367273D02*
Y369813D01*
X806361Y386898D02*
X808901D01*
X807631Y385628D02*
Y388168D01*
X863730Y351866D02*
X866270D01*
X865000Y350596D02*
Y353136D01*
X863606Y343027D02*
X866146D01*
X864876Y341757D02*
Y344297D01*
X863627Y393679D02*
X866167D01*
X864897Y392409D02*
Y394949D01*
X801915Y400168D02*
X804455D01*
X803185Y398898D02*
Y401438D01*
X780467Y397550D02*
X783007D01*
X781737Y396280D02*
Y398820D01*
X749080Y405534D02*
X751620D01*
X750350Y404264D02*
Y406804D01*
X758157Y398034D02*
X760697D01*
X759427Y396764D02*
Y399304D01*
X765567Y246726D02*
X768108D01*
X766837Y245456D02*
Y247996D01*
X837875Y228620D02*
X840415D01*
X839145Y227350D02*
Y229890D01*
X810640Y228620D02*
X813180D01*
X811910Y227350D02*
Y229890D01*
X923410Y209644D02*
X925950D01*
X924680Y208374D02*
Y210914D01*
X941776Y203478D02*
X944316D01*
X943046Y202208D02*
Y204748D01*
X953358Y211181D02*
X955898D01*
X954628Y209911D02*
Y212451D01*
X849521Y203510D02*
X852061D01*
X850791Y202240D02*
Y204780D01*
X790269Y199760D02*
X792809D01*
X791539Y198490D02*
Y201030D01*
X785136Y208209D02*
X787676D01*
X786406Y206939D02*
Y209479D01*
X753221Y296350D02*
X755761D01*
X754491Y295080D02*
Y297620D01*
X735328Y344053D02*
X737868D01*
X736598Y342783D02*
Y345323D01*
X728794Y355678D02*
X731334D01*
X730064Y354408D02*
Y356949D01*
X793861Y488638D02*
X796401D01*
X795131Y487368D02*
Y489908D01*
X735404Y333652D02*
X737944D01*
X736674Y332382D02*
Y334922D01*
X715392Y319489D02*
X717932D01*
X716662Y318219D02*
Y320759D01*
X716489Y332509D02*
X719029D01*
X717759Y331239D02*
Y333779D01*
X809480Y331106D02*
X812020D01*
X810750Y329836D02*
Y332376D01*
X797019Y363768D02*
X799559D01*
X798289Y362498D02*
Y365038D01*
X841213Y418879D02*
X843753D01*
X842483Y417608D02*
Y420149D01*
X696527Y341036D02*
X699067D01*
X697797Y339767D02*
Y342307D01*
X696527Y333175D02*
X699067D01*
X697797Y331905D02*
Y334445D01*
X710552Y488260D02*
X713092D01*
X711822Y486990D02*
Y489530D01*
X896319Y422523D02*
X898859D01*
X897589Y421253D02*
Y423793D01*
X896950Y469052D02*
X899490D01*
X898220Y467782D02*
Y470322D01*
X842282Y469710D02*
X844822D01*
X843552Y468439D02*
Y470979D01*
X1043669Y328250D02*
X1046209D01*
X1044939Y326980D02*
Y329520D01*
X1043669Y340652D02*
X1046209D01*
X1044939Y339382D02*
Y341922D01*
X217385Y167657D02*
X219925D01*
X218655Y166387D02*
Y168927D01*
X245166Y141334D02*
X247706D01*
X246436Y140064D02*
Y142604D01*
X962866Y310750D02*
X965406D01*
X964136Y309480D02*
Y312020D01*
X187491Y165787D02*
X190031D01*
X188761Y164517D02*
Y167057D01*
X174480Y150138D02*
X177020D01*
X175750Y148868D02*
Y151408D01*
X107038Y96291D02*
X109578D01*
X108308Y95021D02*
Y97561D01*
X140973Y84984D02*
X143513D01*
X142243Y83714D02*
Y86254D01*
X913069Y233026D02*
X915609D01*
X914339Y231756D02*
Y234296D01*
X896260Y231241D02*
X898800D01*
X897530Y229971D02*
Y232511D01*
X132827Y117675D02*
X135367D01*
X134097Y116405D02*
Y118945D01*
X301254Y408603D02*
X303794D01*
X302524Y407333D02*
Y409873D01*
X682077Y42077D02*
X684617D01*
X683347Y40807D02*
Y43347D01*
X699522Y74045D02*
X702062D01*
X700792Y72775D02*
Y75315D01*
X342230Y145000D02*
X344770D01*
X343500Y143730D02*
Y146270D01*
X607227Y44330D02*
X609767D01*
X608497Y43060D02*
Y45600D01*
X214100Y463500D02*
X216640D01*
X215370Y462230D02*
Y464770D01*
X285325Y477330D02*
X287865D01*
X286595Y476060D02*
Y478600D01*
X745716Y421004D02*
X748256D01*
X746986Y419734D02*
Y422275D01*
X261504Y97155D02*
X264044D01*
X262774Y95885D02*
Y98425D01*
X211480Y96774D02*
X214020D01*
X212750Y95504D02*
Y98044D01*
X213266Y136686D02*
X215806D01*
X214536Y135416D02*
Y137956D01*
X927919Y474881D02*
X930459D01*
X929189Y473611D02*
Y476151D01*
X915757Y248666D02*
X918297D01*
X917027Y247396D02*
Y249936D01*
X294143Y86734D02*
X296683D01*
X295413Y85464D02*
Y88004D01*
X290809Y50000D02*
X293349D01*
X292080Y48730D02*
Y51270D01*
X265640Y49913D02*
X268180D01*
X266910Y48643D02*
Y51183D01*
X188876Y45122D02*
X191416D01*
X190146Y43852D02*
Y46392D01*
X59460Y46654D02*
X62000D01*
X60730Y45384D02*
Y47924D01*
X89270Y91135D02*
X91810D01*
X90540Y89865D02*
Y92405D01*
X105953Y70638D02*
X108493D01*
X107223Y69368D02*
Y71908D01*
X46629Y169244D02*
X49169D01*
X47899Y167974D02*
Y170514D01*
X546504Y412668D02*
X549044D01*
X547774Y411398D02*
Y413938D01*
X495924Y483365D02*
X498464D01*
X497194Y482095D02*
Y484635D01*
X474424Y484206D02*
X476964D01*
X475694Y482936D02*
Y485476D01*
X451164Y485046D02*
X453704D01*
X452434Y483776D02*
Y486316D01*
X424406Y490307D02*
X426946D01*
X425676Y489037D02*
Y491577D01*
X367455Y489952D02*
X369995D01*
X368725Y488682D02*
Y491222D01*
X393067Y490428D02*
X395607D01*
X394337Y489158D02*
Y491698D01*
X402590Y438404D02*
X405130D01*
X403860Y437134D02*
Y439674D01*
X399903Y425713D02*
X402443D01*
X401173Y424443D02*
Y426983D01*
X425285Y421224D02*
X427825D01*
X426554Y419954D02*
Y422494D01*
X433128Y429133D02*
X435668D01*
X434398Y427863D02*
Y430403D01*
X406458Y407673D02*
X408998D01*
X407728Y406403D02*
Y408942D01*
X377190Y408750D02*
X379730D01*
X378460Y407480D02*
Y410020D01*
X321339Y299748D02*
X323880D01*
X322609Y298479D02*
Y301019D01*
X170210Y248189D02*
X172750D01*
X171480Y246919D02*
Y249459D01*
X205165Y187398D02*
X207705D01*
X206435Y186128D02*
Y188668D01*
X228774Y189818D02*
X231314D01*
X230044Y188548D02*
Y191088D01*
X152120Y202110D02*
X154660D01*
X153390Y200840D02*
Y203380D01*
X162589Y215867D02*
X165130D01*
X163860Y214597D02*
Y217136D01*
X74631Y430772D02*
X77171D01*
X75901Y429502D02*
Y432042D01*
X100725Y433750D02*
X103265D01*
X101995Y432480D02*
Y435020D01*
X122981Y441342D02*
X125521D01*
X124251Y440072D02*
Y442612D01*
X152104Y354203D02*
X154644D01*
X153374Y352933D02*
Y355473D01*
X114802Y325805D02*
X117341D01*
X116072Y324535D02*
Y327075D01*
X87694Y332994D02*
X90233D01*
X88963Y331724D02*
Y334264D01*
X117751Y351478D02*
X120291D01*
X119021Y350208D02*
Y352748D01*
X132827Y320889D02*
X135367D01*
X134097Y319619D02*
Y322159D01*
X110665Y163811D02*
X113205D01*
X111935Y162541D02*
Y165081D01*
X83519Y154940D02*
X86059D01*
X84789Y153670D02*
Y156210D01*
X112577Y224097D02*
X115117D01*
X113847Y222827D02*
Y225368D01*
X8230Y160000D02*
X10770D01*
X9500Y158730D02*
Y161270D01*
X8230Y178000D02*
X10770D01*
X9500Y176730D02*
Y179270D01*
X29152Y214296D02*
X31692D01*
X30422Y213026D02*
Y215566D01*
X30030Y226868D02*
X32570D01*
X31300Y225597D02*
Y228137D01*
X63812Y263262D02*
X66352D01*
X65082Y261992D02*
Y264532D01*
X94269Y304477D02*
X96809D01*
X95539Y303207D02*
Y305747D01*
X128433Y293957D02*
X130973D01*
X129703Y292687D02*
Y295227D01*
X168480Y270247D02*
X171020D01*
X169750Y268977D02*
Y271517D01*
X727287Y238498D02*
X729827D01*
X728557Y237228D02*
Y239768D01*
X481386Y367797D02*
X483926D01*
X482656Y366527D02*
Y369067D01*
X463096Y387541D02*
X465636D01*
X464366Y386271D02*
Y388811D01*
X495453Y382649D02*
X497993D01*
X496723Y381379D02*
Y383919D01*
X583683Y244640D02*
X586223D01*
X584953Y243370D02*
Y245910D01*
X548204Y255520D02*
X550745D01*
X549474Y254250D02*
Y256790D01*
X447141Y238901D02*
X449681D01*
X448411Y237631D02*
Y240171D01*
X489462Y238565D02*
X492002D01*
X490732Y237295D02*
Y239835D01*
X511927Y213785D02*
X514467D01*
X513197Y212515D02*
Y215055D01*
X464725Y190920D02*
X467266D01*
X465995Y189650D02*
Y192190D01*
X547948Y219424D02*
X550488D01*
X549218Y218154D02*
Y220694D01*
X530230Y191007D02*
X532770D01*
X531500Y189737D02*
Y192277D01*
X595480Y161000D02*
X598020D01*
X596750Y159730D02*
Y162270D01*
X542454Y109211D02*
X544994D01*
X543724Y107941D02*
Y110481D01*
X487916Y148780D02*
X490456D01*
X489186Y147510D02*
Y150050D01*
X452930Y138647D02*
X455470D01*
X454200Y137377D02*
Y139917D01*
X376683Y89529D02*
X379223D01*
X377953Y88259D02*
Y90800D01*
X355000Y69436D02*
X357540D01*
X356270Y68166D02*
Y70706D01*
X928525Y223261D02*
X931065D01*
X929795Y221991D02*
Y224531D01*
X945026Y226261D02*
X947566D01*
X946296Y224991D02*
Y227531D01*
X948106Y216434D02*
X950646D01*
X949376Y215163D02*
Y217703D01*
X316384Y52750D02*
X318924D01*
X317654Y51480D02*
Y54020D01*
X341013Y27948D02*
X343553D01*
X342283Y26678D02*
Y29218D01*
X354909Y107060D02*
X357449D01*
X356179Y105790D02*
Y108330D01*
X336166Y109764D02*
X338706D01*
X337436Y108494D02*
Y111034D01*
X326484Y102362D02*
X329024D01*
X327754Y101092D02*
Y103632D01*
X336938Y128270D02*
X339478D01*
X338208Y127000D02*
Y129540D01*
X315188Y130177D02*
X317728D01*
X316458Y128907D02*
Y131447D01*
X329007Y144750D02*
X331547D01*
X330277Y143480D02*
Y146020D01*
X348130Y127329D02*
X350670D01*
X349400Y126059D02*
Y128599D01*
X410221Y128389D02*
X412761D01*
X411491Y127119D02*
Y129659D01*
X410713Y140881D02*
X413253D01*
X411983Y139611D02*
Y142151D01*
X651670Y18702D02*
X654210D01*
X652940Y17432D02*
Y19972D01*
X641730Y32491D02*
X644270D01*
X643000Y31221D02*
Y33761D01*
X278131Y38060D02*
X280671D01*
X279401Y36790D02*
Y39330D01*
X328930Y38060D02*
X331470D01*
X330200Y36790D02*
Y39330D01*
X303530Y38060D02*
X306070D01*
X304800Y36790D02*
Y39330D01*
X561945Y391864D02*
X564485D01*
X563215Y390594D02*
Y393134D01*
X538463Y351799D02*
X541003D01*
X539733Y350529D02*
Y353069D01*
X110133Y418386D02*
X112674D01*
X111404Y417116D02*
Y419656D01*
X313460Y419000D02*
X316000D01*
X314730Y417730D02*
Y420270D01*
X417298Y244821D02*
X419838D01*
X418568Y243551D02*
Y246091D01*
X630149Y102929D02*
X632689D01*
X631419Y101659D02*
Y104199D01*
X656590Y200569D02*
X659130D01*
X657860Y199299D02*
Y201839D01*
X315894Y184768D02*
X318434D01*
X317164Y183498D02*
Y186038D01*
X330076Y211500D02*
X332616D01*
X331346Y210230D02*
Y212770D01*
X220979Y81435D02*
X223519D01*
X222249Y80165D02*
Y82705D01*
X223230Y108915D02*
X225770D01*
X224500Y107645D02*
Y110185D01*
X238029Y115570D02*
X240569D01*
X239299Y114300D02*
Y116840D01*
X240650Y168910D02*
X243190D01*
X241920Y167640D02*
Y170180D01*
X111710Y368140D02*
X114250D01*
X112980Y366870D02*
Y369410D01*
X276056Y170987D02*
X278596D01*
X277326Y169717D02*
Y172257D01*
X294185Y174368D02*
X296725D01*
X295455Y173098D02*
Y175638D01*
X307448Y176219D02*
X309988D01*
X308718Y174949D02*
Y177489D01*
X297180Y197310D02*
X299720D01*
X298450Y196040D02*
Y198580D01*
X298744Y203870D02*
X301284D01*
X300014Y202600D02*
Y205140D01*
X281567Y150138D02*
X284107D01*
X282837Y148868D02*
Y151408D01*
X282716Y191007D02*
X285256D01*
X283986Y189737D02*
Y192277D01*
X265782Y162613D02*
X268322D01*
X267052Y161343D02*
Y163883D01*
X276308Y136686D02*
X278848D01*
X277578Y135416D02*
Y137956D01*
X266704Y136871D02*
X269244D01*
X267974Y135601D02*
Y138141D01*
X307315Y168473D02*
X309855D01*
X308585Y167203D02*
Y169743D01*
X350237Y208165D02*
X352777D01*
X351507Y206895D02*
Y209435D01*
X232480Y81584D02*
X235020D01*
X233750Y80314D02*
Y82854D01*
X276215Y162613D02*
X278755D01*
X277485Y161343D02*
Y163883D01*
X250417Y190520D02*
X252957D01*
X251687Y189250D02*
Y191790D01*
X266278Y198830D02*
X268818D01*
X267548Y197560D02*
Y200100D01*
X365316Y289639D02*
X367856D01*
X366586Y288369D02*
Y290909D01*
X537806Y429670D02*
X540346D01*
X539076Y428400D02*
Y430940D01*
X615510Y433021D02*
X618050D01*
X616780Y431751D02*
Y434291D01*
X610178Y437165D02*
X612718D01*
X611448Y435895D02*
Y438435D01*
X631708Y426538D02*
X634248D01*
X632978Y425268D02*
Y427808D01*
X678980Y430552D02*
X681520D01*
X680250Y429282D02*
Y431822D01*
X70843Y131303D02*
X73383D01*
X72113Y130033D02*
Y132573D01*
X158488Y118756D02*
X161028D01*
X159758Y117486D02*
Y120026D01*
X81851Y102645D02*
X84391D01*
X83121Y101375D02*
Y103915D01*
X252730Y38432D02*
X255270D01*
X254000Y37162D02*
Y39702D01*
X46130Y108270D02*
X48670D01*
X47400Y107000D02*
Y109540D01*
X45797Y75000D02*
X48337D01*
X47067Y73730D02*
Y76270D01*
X56642Y128778D02*
X59182D01*
X57912Y127508D02*
Y130048D01*
X35876Y248696D02*
X38416D01*
X37146Y247426D02*
Y249966D01*
X40566Y296750D02*
X43106D01*
X41836Y295480D02*
Y298020D01*
X40233Y273500D02*
X42773D01*
X41503Y272230D02*
Y274770D01*
X38354Y337312D02*
X40894D01*
X39624Y336042D02*
Y338582D01*
X40957Y351619D02*
X43497D01*
X42227Y350349D02*
Y352889D01*
X72321Y354874D02*
X74861D01*
X73591Y353604D02*
Y356144D01*
X40410Y312420D02*
X42950D01*
X41680Y311150D02*
Y313690D01*
X103806Y351053D02*
X106346D01*
X105076Y349783D02*
Y352323D01*
X495480Y416806D02*
X498020D01*
X496750Y415536D02*
Y418076D01*
X468302Y428052D02*
X470842D01*
X469572Y426782D02*
Y429322D01*
X475980Y422800D02*
X478520D01*
X477250Y421530D02*
Y424070D01*
X537806Y386936D02*
X540346D01*
X539076Y385666D02*
Y388206D01*
X258480Y198830D02*
X261020D01*
X259750Y197560D02*
Y200100D01*
X146987Y178009D02*
X149527D01*
X148257Y176739D02*
Y179279D01*
X144895Y232497D02*
X147435D01*
X146165Y231227D02*
Y233767D01*
X167980Y227553D02*
X170520D01*
X169250Y226283D02*
Y228823D01*
X137704Y263053D02*
X140244D01*
X138974Y261783D02*
Y264323D01*
X141627Y253500D02*
X144167D01*
X142897Y252230D02*
Y254770D01*
X140479Y276938D02*
X143019D01*
X141749Y275668D02*
Y278208D01*
X573786Y69850D02*
X576326D01*
X575056Y68580D02*
Y71120D01*
X892641Y215900D02*
X895181D01*
X893911Y214630D02*
Y217170D01*
X864953Y379900D02*
X867493D01*
X866223Y378630D02*
Y381170D01*
X924524Y374975D02*
X927064D01*
X925794Y373705D02*
Y376245D01*
X1036110Y349613D02*
X1038650D01*
X1037380Y348344D02*
Y350883D01*
X1067230Y364229D02*
X1069770D01*
X1068500Y362959D02*
Y365499D01*
X1066730Y352750D02*
X1069270D01*
X1068000Y351480D02*
Y354020D01*
X1061500Y318273D02*
X1064040D01*
X1062770Y317003D02*
Y319543D01*
X1062480Y337400D02*
X1065020D01*
X1063750Y336130D02*
Y338670D01*
X785467Y182364D02*
X788007D01*
X786737Y181094D02*
Y183634D01*
X970319Y155674D02*
X972859D01*
X971589Y154404D02*
Y156944D01*
X989730Y155674D02*
X992270D01*
X991000Y154404D02*
Y156944D01*
X993861Y180414D02*
X996401D01*
X995131Y179144D02*
Y181684D01*
X980980Y190071D02*
X983520D01*
X982250Y188801D02*
Y191341D01*
X991642Y190071D02*
X994182D01*
X992912Y188801D02*
Y191341D01*
X982990Y274913D02*
X985530D01*
X984260Y273643D02*
Y276183D01*
X990116Y276000D02*
X992656D01*
X991386Y274730D02*
Y277270D01*
X1052591Y201646D02*
X1055131D01*
X1053861Y200376D02*
Y202916D01*
X1045980Y208750D02*
X1048520D01*
X1047250Y207480D02*
Y210020D01*
X1041730Y273750D02*
X1044270D01*
X1043000Y272480D02*
Y275020D01*
X1032862Y265640D02*
X1035402D01*
X1034132Y264370D02*
Y266910D01*
X1032862Y256782D02*
X1035402D01*
X1034132Y255512D02*
Y258052D01*
X1012730Y260565D02*
X1015270D01*
X1014000Y259295D02*
Y261835D01*
X1015730Y246350D02*
X1018270D01*
X1017000Y245080D02*
Y247620D01*
X997630Y272750D02*
X1000170D01*
X998900Y271480D02*
Y274020D01*
X1008529Y248666D02*
X1011069D01*
X1009799Y247396D02*
Y249936D01*
X997279Y204510D02*
X999819D01*
X998549Y203240D02*
Y205780D01*
X934774Y155674D02*
X937314D01*
X936044Y154404D02*
Y156944D01*
X938440Y172600D02*
X940980D01*
X939710Y171330D02*
Y173870D01*
X956380Y178650D02*
X958920D01*
X957650Y177380D02*
Y179920D01*
X1024851Y204500D02*
X1027391D01*
X1026121Y203230D02*
Y205770D01*
X1018803Y190524D02*
X1021343D01*
X1020073Y189254D02*
Y191794D01*
X1030637Y190500D02*
X1033177D01*
X1031907Y189230D02*
Y191770D01*
X971776Y173445D02*
X974316D01*
X973046Y172175D02*
Y174715D01*
X964380Y173802D02*
X966920D01*
X965650Y172532D02*
Y175072D01*
X986156Y180357D02*
X988697D01*
X987427Y179087D02*
Y181627D01*
X1027711Y244457D02*
X1030251D01*
X1028981Y243187D02*
Y245727D01*
X1032768Y248666D02*
X1035308D01*
X1034038Y247396D02*
Y249936D01*
X1006004Y193250D02*
X1008544D01*
X1007274Y191980D02*
Y194520D01*
X1002980Y201062D02*
X1005520D01*
X1004250Y199792D02*
Y202332D01*
X1018037Y175489D02*
X1020577D01*
X1019307Y174219D02*
Y176759D01*
X863837Y218677D02*
X866377D01*
X865107Y217407D02*
Y219947D01*
X854710Y217094D02*
X857250D01*
X855980Y215824D02*
Y218364D01*
X896546Y326437D02*
X899086D01*
X897816Y325167D02*
Y327707D01*
X864150Y317756D02*
X866690D01*
X865420Y316486D02*
Y319026D01*
X853480Y317353D02*
X856020D01*
X854750Y316083D02*
Y318623D01*
X840788Y391730D02*
X843328D01*
X842058Y390460D02*
Y393000D01*
X775044Y207760D02*
X777584D01*
X776314Y206490D02*
Y209030D01*
X740516Y207760D02*
X743056D01*
X741786Y206490D02*
Y209030D01*
X755267Y213510D02*
X757807D01*
X756537Y212240D02*
Y214780D01*
X723723Y214261D02*
X726263D01*
X724993Y212992D02*
Y215532D01*
X734976Y219964D02*
X737516D01*
X736246Y218694D02*
Y221234D01*
X751131Y226302D02*
X753671D01*
X752401Y225032D02*
Y227572D01*
X695396Y217932D02*
X697936D01*
X696666Y216662D02*
Y219202D01*
X761479Y216324D02*
X764019D01*
X762749Y215054D02*
Y217594D01*
X748661Y213462D02*
X751201D01*
X749931Y212192D02*
Y214732D01*
X681230Y200569D02*
X683770D01*
X682500Y199299D02*
Y201839D01*
X780467Y199533D02*
X783007D01*
X781737Y198263D02*
Y200803D01*
X704480Y192259D02*
X707020D01*
X705750Y190989D02*
Y193529D01*
X718552Y185577D02*
X721092D01*
X719822Y184307D02*
Y186847D01*
X746958Y199760D02*
X749498D01*
X748228Y198490D02*
Y201030D01*
X1035050Y332995D02*
X1037590D01*
X1036320Y331725D02*
Y334265D01*
X1041908Y320653D02*
X1044448D01*
X1043178Y319383D02*
Y321923D01*
X938370Y226098D02*
X940910D01*
X939640Y224828D02*
Y227368D01*
X947860Y248623D02*
X950400D01*
X949130Y247353D02*
Y249893D01*
X940829Y248623D02*
X943369D01*
X942099Y247353D02*
Y249893D01*
X941036Y236130D02*
X943576D01*
X942306Y234860D02*
Y237400D01*
X845617Y404520D02*
X848157D01*
X846887Y403250D02*
Y405790D01*
X863346Y495300D02*
X865886D01*
X864616Y494030D02*
Y496570D01*
X767155Y435068D02*
X769695D01*
X768425Y433798D02*
Y436338D01*
X506730Y38100D02*
X509270D01*
X508000Y36830D02*
Y39370D01*
X532130Y38100D02*
X534670D01*
X533400Y36830D02*
Y39370D01*
X1034875Y179864D02*
X1037415D01*
X1036145Y178594D02*
Y181134D01*
X971493Y235077D02*
X974033D01*
X972763Y233807D02*
Y236347D01*
X1003279Y244397D02*
X1005819D01*
X1004549Y243127D02*
Y245667D01*
X987724Y244517D02*
X990264D01*
X988994Y243247D02*
Y245787D01*
X996182Y244397D02*
X998722D01*
X997452Y243127D02*
Y245667D01*
X901742Y321240D02*
X904282D01*
X903012Y319970D02*
Y322510D01*
X948133Y283441D02*
X950673D01*
X949403Y282171D02*
Y284711D01*
X907652Y337685D02*
X910192D01*
X908922Y336415D02*
Y338955D01*
X918477Y277959D02*
X921017D01*
X919747Y276689D02*
Y279229D01*
X981355Y258750D02*
X983895D01*
X982625Y257480D02*
Y260020D01*
X839480Y333694D02*
X842020D01*
X840750Y332424D02*
Y334964D01*
X981696Y251802D02*
X984236D01*
X982966Y250532D02*
Y253072D01*
X1025766Y254850D02*
X1028306D01*
X1027036Y253580D02*
Y256120D01*
X987611Y395831D02*
X990151D01*
X988881Y394561D02*
Y397101D01*
X983567Y401578D02*
X986107D01*
X984837Y400308D02*
Y402848D01*
X1034875Y321000D02*
X1037415D01*
X1036145Y319730D02*
Y322270D01*
X998824Y390371D02*
X1001364D01*
X1000094Y389101D02*
Y391641D01*
X1027230Y364750D02*
X1029770D01*
X1028500Y363480D02*
Y366020D01*
X1013102Y375750D02*
X1015641D01*
X1014371Y374480D02*
Y377020D01*
X926532Y423283D02*
X929072D01*
X927802Y422013D02*
Y424553D01*
X1021388Y274913D02*
X1023928D01*
X1022658Y273643D02*
Y276183D01*
X1014387Y274913D02*
X1016927D01*
X1015657Y273643D02*
Y276183D01*
X1025703Y265590D02*
X1028243D01*
X1026973Y264320D02*
Y266860D01*
X1031494Y275298D02*
X1034034D01*
X1032764Y274028D02*
Y276568D01*
X1006004Y324904D02*
X1008544D01*
X1007274Y323634D02*
Y326174D01*
X989459Y337166D02*
X991999D01*
X990729Y335896D02*
Y338436D01*
X931334Y441000D02*
X933874D01*
X932604Y439730D02*
Y442270D01*
X936526Y436521D02*
X939066D01*
X937796Y435251D02*
Y437791D01*
X931796Y427520D02*
X934336D01*
X933066Y426250D02*
Y428790D01*
X972512Y354544D02*
X975052D01*
X973782Y353274D02*
Y355814D01*
X922192Y430022D02*
X924732D01*
X923462Y428752D02*
Y431292D01*
X1001202Y315494D02*
X1003742D01*
X1002472Y314224D02*
Y316764D01*
X1007589Y274913D02*
X1010129D01*
X1008859Y273643D02*
Y276183D01*
X277662Y155720D02*
X280202D01*
X278932Y154450D02*
Y156990D01*
X394230Y221000D02*
X396770D01*
X395500Y219730D02*
Y222270D01*
X70457Y381128D02*
X72997D01*
X71727Y379858D02*
Y382398D01*
X142623Y327974D02*
X145163D01*
X143893Y326704D02*
Y329244D01*
X508980Y124250D02*
X511520D01*
X510250Y122980D02*
Y125520D01*
X641350Y215900D02*
X643890D01*
X642620Y214630D02*
Y217170D01*
X651874Y213000D02*
X654414D01*
X653144Y211730D02*
Y214270D01*
X342230Y101702D02*
X344770D01*
X343500Y100432D02*
Y102972D01*
X426480Y103645D02*
X429020D01*
X427750Y102375D02*
Y104915D01*
X409230Y101854D02*
X411770D01*
X410500Y100584D02*
Y103124D01*
X176974Y196500D02*
X179514D01*
X178244Y195230D02*
Y197770D01*
X282600Y120650D02*
X285140D01*
X283870Y119380D02*
Y121920D01*
X295239Y135454D02*
X297779D01*
X296509Y134184D02*
Y136724D01*
X274104Y198929D02*
X276644D01*
X275374Y197659D02*
Y200199D01*
X308184Y127616D02*
X310724D01*
X309454Y126346D02*
Y128886D01*
X287600Y134858D02*
X290140D01*
X288870Y133588D02*
Y136128D01*
X366372Y258500D02*
X368912D01*
X367642Y257230D02*
Y259770D01*
X214630Y76200D02*
X217170D01*
X215900Y74930D02*
Y77470D01*
X185480Y121666D02*
X188020D01*
X186750Y120396D02*
Y122936D01*
X25658Y345750D02*
X28198D01*
X26928Y344480D02*
Y347020D01*
X356730Y274053D02*
X359270D01*
X358000Y272783D02*
Y275323D01*
X364378Y275221D02*
X366918D01*
X365648Y273951D02*
Y276491D01*
X357124Y290322D02*
X359664D01*
X358394Y289052D02*
Y291592D01*
X365605Y297250D02*
X368145D01*
X366875Y295980D02*
Y298520D01*
X378828Y282553D02*
X381368D01*
X380098Y281283D02*
Y283823D01*
X320391Y252818D02*
X322931D01*
X321661Y251548D02*
Y254088D01*
X350881Y265553D02*
X353421D01*
X352151Y264283D02*
Y266823D01*
X393980Y272778D02*
X396520D01*
X395250Y271509D02*
Y274049D01*
X484988Y343965D02*
X487528D01*
X486258Y342695D02*
Y345234D01*
X492480Y336660D02*
X495020D01*
X493750Y335390D02*
Y337930D01*
X492230Y343952D02*
X494770D01*
X493500Y342682D02*
Y345222D01*
X502506Y340789D02*
X505046D01*
X503776Y339519D02*
Y342059D01*
X505530Y346767D02*
X508070D01*
X506800Y345497D02*
Y348037D01*
X370480Y357000D02*
X373020D01*
X371750Y355730D02*
Y358270D01*
X348761Y355750D02*
X351301D01*
X350031Y354480D02*
Y357020D01*
X309230Y362500D02*
X311770D01*
X310500Y361230D02*
Y363770D01*
X803215Y181628D02*
X805755D01*
X804485Y180358D02*
Y182898D01*
X887084Y181628D02*
X889624D01*
X888354Y180358D02*
Y182898D01*
X627670Y207162D02*
X630210D01*
X628940Y205892D02*
Y208432D01*
X518454Y455302D02*
X520994D01*
X519724Y454032D02*
Y456572D01*
X523900Y460052D02*
X526440D01*
X525170Y458782D02*
Y461322D01*
X541708Y454990D02*
X544248D01*
X542978Y453720D02*
Y456260D01*
X483258Y440750D02*
X485798D01*
X484528Y439480D02*
Y442020D01*
X499730Y438404D02*
X502270D01*
X501000Y437134D02*
Y439674D01*
X488504Y435920D02*
X491044D01*
X489774Y434650D02*
Y437190D01*
X681748Y362463D02*
X684288D01*
X683018Y361193D02*
Y363733D01*
X998824Y193250D02*
X1001364D01*
X1000094Y191980D02*
Y194520D01*
X797307Y184523D02*
X799847D01*
X798577Y183253D02*
Y185793D01*
X791269Y187849D02*
X793809D01*
X792539Y186579D02*
Y189119D01*
X794640Y194500D02*
X797180D01*
X795910Y193230D02*
Y195770D01*
X862626Y232400D02*
X865166D01*
X863896Y231130D02*
Y233670D01*
X840286Y317353D02*
X842826D01*
X841556Y316083D02*
Y318623D01*
X803489Y393608D02*
X806029D01*
X804759Y392338D02*
Y394878D01*
X771042Y363716D02*
X773582D01*
X772312Y362445D02*
Y364986D01*
X915450Y217750D02*
X917990D01*
X916720Y216480D02*
Y219020D01*
X877794Y276780D02*
X880334D01*
X879064Y275510D02*
Y278050D01*
X947471Y260985D02*
X950011D01*
X948741Y259715D02*
Y262255D01*
X449230Y434552D02*
X451770D01*
X450500Y433282D02*
Y435822D01*
X457766Y433005D02*
X460306D01*
X459036Y431735D02*
Y434275D01*
X456692Y415000D02*
X459232D01*
X457962Y413730D02*
Y416270D01*
X568150Y256520D02*
X570690D01*
X569420Y255250D02*
Y257790D01*
X740003Y120392D02*
X742543D01*
X741273Y119122D02*
Y121662D01*
X585230Y393250D02*
X587770D01*
X586500Y391980D02*
Y394520D01*
X585230Y436846D02*
X587770D01*
X586500Y435576D02*
Y438116D01*
X585293Y405000D02*
X587833D01*
X586563Y403730D02*
Y406270D01*
X767880Y234202D02*
X770420D01*
X769150Y232932D02*
Y235473D01*
X978662Y170147D02*
X981202D01*
X979932Y168877D02*
Y171417D01*
X850689Y513197D02*
X853229D01*
X851959Y511927D02*
Y514467D01*
X751131Y489659D02*
X753671D01*
X752401Y488389D02*
Y490929D01*
X701329Y358116D02*
X703869D01*
X702599Y356846D02*
Y359386D01*
X691750Y364424D02*
X694290D01*
X693020Y363154D02*
Y365694D01*
X679302Y397506D02*
X681842D01*
X680572Y396236D02*
Y398776D01*
X947137Y304202D02*
X949677D01*
X948407Y302932D02*
Y305472D01*
X953410Y310272D02*
X955950D01*
X954680Y309002D02*
Y311542D01*
X671830Y533400D02*
X674370D01*
X673100Y532130D02*
Y534670D01*
X719328Y506222D02*
X721868D01*
X720598Y504952D02*
Y507492D01*
X709930Y520700D02*
X712470D01*
X711200Y519430D02*
Y521970D01*
X431292Y415940D02*
X433832D01*
X432562Y414670D02*
Y417210D01*
X443230Y438404D02*
X445770D01*
X444500Y437134D02*
Y439674D01*
X709730Y33500D02*
X712270D01*
X711000Y32230D02*
Y34770D01*
X584960Y385965D02*
X587500D01*
X586230Y384695D02*
Y387235D01*
X584960Y378792D02*
X587500D01*
X586230Y377522D02*
Y380062D01*
X726504Y43619D02*
X729044D01*
X727774Y42349D02*
Y44889D01*
X721521Y54930D02*
X724061D01*
X722791Y53660D02*
Y56200D01*
X637730Y50800D02*
X640270D01*
X639000Y49530D02*
Y52070D01*
X714750Y74481D02*
X717290D01*
X716020Y73211D02*
Y75751D01*
X628650Y76814D02*
X631190D01*
X629920Y75544D02*
Y78084D01*
X125980Y217885D02*
X128520D01*
X127250Y216615D02*
Y219155D01*
X74247Y220726D02*
X76787D01*
X75517Y219456D02*
Y221996D01*
X113618Y192250D02*
X116158D01*
X114888Y190980D02*
Y193520D01*
X74247Y187500D02*
X76787D01*
X75517Y186230D02*
Y188770D01*
X69151Y183250D02*
X71691D01*
X70421Y181980D02*
Y184520D01*
X49847Y178308D02*
X52387D01*
X51117Y177038D02*
Y179578D01*
X336894Y250086D02*
X339434D01*
X338164Y248816D02*
Y251356D01*
X308051Y354400D02*
X310591D01*
X309321Y353130D02*
Y355670D01*
X141627Y95854D02*
X144167D01*
X142897Y94584D02*
Y97124D01*
X46228Y459486D02*
X48768D01*
X47498Y458216D02*
Y460756D01*
X70457Y389128D02*
X72997D01*
X71727Y387858D02*
Y390398D01*
X895326Y381440D02*
X897866D01*
X896596Y380170D02*
Y382710D01*
X916383Y292000D02*
X918923D01*
X917653Y290730D02*
Y293270D01*
X946993Y294239D02*
X949533D01*
X948263Y292969D02*
Y295509D01*
X915757Y409222D02*
X918297D01*
X917027Y407952D02*
Y410492D01*
X898234Y395164D02*
X900774D01*
X899504Y393894D02*
Y396434D01*
X946993Y388506D02*
X949533D01*
X948263Y387235D02*
Y389776D01*
X944501Y382271D02*
X947040D01*
X945770Y381001D02*
Y383540D01*
X928230Y381750D02*
X930770D01*
X929500Y380480D02*
Y383020D01*
X935230Y384500D02*
X937770D01*
X936500Y383230D02*
Y385770D01*
X70816Y401828D02*
X73356D01*
X72086Y400558D02*
Y403098D01*
X275590Y508000D02*
X278130D01*
X276860Y506730D02*
Y509270D01*
X628396Y434552D02*
X630936D01*
X629666Y433282D02*
Y435822D01*
X895013Y260497D02*
X897553D01*
X896283Y259227D02*
Y261767D01*
X1052591Y267683D02*
X1055131D01*
X1053861Y266413D02*
Y268953D01*
X879240Y378250D02*
X881780D01*
X880510Y376980D02*
Y379520D01*
X934170Y364808D02*
X936710D01*
X935440Y363537D02*
Y366077D01*
X964980Y319104D02*
X967520D01*
X966250Y317834D02*
Y320374D01*
X971776Y286021D02*
X974316D01*
X973046Y284751D02*
Y287291D01*
X1002980Y260565D02*
X1005520D01*
X1004250Y259295D02*
Y261835D01*
X979028Y285764D02*
X981568D01*
X980298Y284494D02*
Y287034D01*
X927781Y321179D02*
X930321D01*
X929051Y319909D02*
Y322449D01*
X959230Y327500D02*
X961770D01*
X960500Y326230D02*
Y328770D01*
X1045031Y247762D02*
X1047571D01*
X1046301Y246492D02*
Y249032D01*
X555480Y507500D02*
X558020D01*
X556750Y506230D02*
Y508770D01*
X950092Y330081D02*
X952632D01*
X951362Y328811D02*
Y331351D01*
X941094Y324352D02*
X943634D01*
X942364Y323082D02*
Y325622D01*
X1006230Y485250D02*
X1008770D01*
X1007500Y483980D02*
Y486520D01*
X1009988Y516000D02*
X1012528D01*
X1011258Y514730D02*
Y517270D01*
X921393Y514500D02*
X923933D01*
X922663Y513230D02*
Y515770D01*
X933519Y495554D02*
X936059D01*
X934789Y494284D02*
Y496824D01*
X904730Y549250D02*
X907270D01*
X906000Y547980D02*
Y550520D01*
X1029730Y549750D02*
X1032270D01*
X1031000Y548480D02*
Y551020D01*
X1028730Y519000D02*
X1031270D01*
X1030000Y517730D02*
Y520270D01*
X902480Y523613D02*
X905020D01*
X903750Y522343D02*
Y524883D01*
X839075Y530416D02*
X841615D01*
X840345Y529146D02*
Y531686D01*
X867389Y529310D02*
X869929D01*
X868659Y528040D02*
Y530580D01*
X880980Y546500D02*
X883520D01*
X882250Y545230D02*
Y547770D01*
X847730Y546750D02*
X850270D01*
X849000Y545480D02*
Y548020D01*
X823480Y512750D02*
X826020D01*
X824750Y511480D02*
Y514020D01*
X816230Y546750D02*
X818770D01*
X817500Y545480D02*
Y548020D01*
X782230Y547250D02*
X784770D01*
X783500Y545980D02*
Y548520D01*
X790055Y499290D02*
X792595D01*
X791325Y498020D02*
Y500560D01*
X412480Y89360D02*
X415020D01*
X413750Y88090D02*
Y90630D01*
X414130Y158250D02*
X416670D01*
X415400Y156980D02*
Y159520D01*
X497779Y156515D02*
X500319D01*
X499049Y155245D02*
Y157785D01*
X877787Y86871D02*
X880327D01*
X879057Y85601D02*
Y88141D01*
X945003Y87191D02*
X947543D01*
X946273Y85920D02*
Y88461D01*
X993861Y88900D02*
X996401D01*
X995131Y87630D02*
Y90170D01*
X1015008Y111871D02*
X1017548D01*
X1016278Y110601D02*
Y113141D01*
X1018978Y144298D02*
X1021518D01*
X1020248Y143028D02*
Y145568D01*
X991730Y130500D02*
X994270D01*
X993000Y129230D02*
Y131770D01*
X946230Y130077D02*
X948770D01*
X947500Y128807D02*
Y131347D01*
X973826Y111871D02*
X976366D01*
X975096Y110601D02*
Y113141D01*
X934466Y112257D02*
X937006D01*
X935736Y110987D02*
Y113527D01*
X902480Y109750D02*
X905020D01*
X903750Y108480D02*
Y111020D01*
X789230Y111871D02*
X791770D01*
X790500Y110601D02*
Y113141D01*
X814658Y104419D02*
X817198D01*
X815928Y103149D02*
Y105689D01*
X802480Y92331D02*
X805020D01*
X803750Y91061D02*
Y93601D01*
X778608Y103500D02*
X781148D01*
X779878Y102230D02*
Y104770D01*
X824836Y112250D02*
X827376D01*
X826106Y110980D02*
Y113520D01*
X815980Y94750D02*
X818520D01*
X817250Y93480D02*
Y96020D01*
X446730Y79891D02*
X449270D01*
X448000Y78621D02*
Y81161D01*
X473230Y101250D02*
X475770D01*
X474500Y99980D02*
Y102520D01*
X510849Y91944D02*
X513389D01*
X512119Y90674D02*
Y93214D01*
X529117Y76248D02*
X531656D01*
X530387Y74978D02*
Y77518D01*
X691504Y124250D02*
X694044D01*
X692774Y122980D02*
Y125520D01*
X638340Y409000D02*
X640880D01*
X639610Y407730D02*
Y410270D01*
X654048Y433995D02*
X656588D01*
X655318Y432725D02*
Y435265D01*
X774346Y222264D02*
X776886D01*
X775616Y220994D02*
Y223534D01*
X1053230Y190345D02*
X1055770D01*
X1054500Y189074D02*
Y191614D01*
X976424Y240600D02*
X978964D01*
X977694Y239330D02*
Y241870D01*
X919876Y339749D02*
X922416D01*
X921146Y338479D02*
Y341019D01*
X850689Y471743D02*
X853229D01*
X851959Y470472D02*
Y473013D01*
X851655Y495046D02*
X854195D01*
X852925Y493776D02*
Y496316D01*
X925203Y494590D02*
X927743D01*
X926473Y493320D02*
Y495860D01*
X950079Y463300D02*
X952619D01*
X951349Y462030D02*
Y464570D01*
X998630Y413741D02*
X1001170D01*
X999900Y412471D02*
Y415011D01*
X1051480Y407564D02*
X1054020D01*
X1052750Y406294D02*
Y408834D01*
X1050029Y165557D02*
X1052569D01*
X1051299Y164287D02*
Y166827D01*
X1049835Y133056D02*
X1052375D01*
X1051105Y131786D02*
Y134326D01*
X1067730Y129000D02*
X1070270D01*
X1069000Y127730D02*
Y130270D01*
X1067730Y152000D02*
X1070270D01*
X1069000Y150730D02*
Y153270D01*
X1066730Y173369D02*
X1069270D01*
X1068000Y172099D02*
Y174639D01*
X1069730Y190971D02*
X1072270D01*
X1071000Y189701D02*
Y192241D01*
X1083380Y146619D02*
X1085920D01*
X1084650Y145349D02*
Y147889D01*
X1082980Y169000D02*
X1085520D01*
X1084250Y167730D02*
Y170270D01*
X1082980Y187130D02*
X1085520D01*
X1084250Y185860D02*
Y188400D01*
X1049730Y462000D02*
X1052270D01*
X1051000Y460730D02*
Y463270D01*
X1032937Y489585D02*
X1035477D01*
X1034207Y488315D02*
Y490855D01*
X1029101Y433743D02*
X1031641D01*
X1030371Y432473D02*
Y435013D01*
X1001268Y459865D02*
X1003808D01*
X1002538Y458595D02*
Y461134D01*
X980256Y487200D02*
X982796D01*
X981526Y485930D02*
Y488470D01*
X952174Y491355D02*
X954714D01*
X953444Y490085D02*
Y492625D01*
X951130Y516608D02*
X953670D01*
X952400Y515338D02*
Y517878D01*
X980800Y516000D02*
X983340D01*
X982070Y514730D02*
Y517270D01*
X1012230Y549750D02*
X1014770D01*
X1013500Y548480D02*
Y551020D01*
X998116Y532186D02*
X1000656D01*
X999386Y530916D02*
Y533456D01*
X1015980Y531500D02*
X1018520D01*
X1017250Y530230D02*
Y532770D01*
X937480Y532000D02*
X940020D01*
X938750Y530730D02*
Y533270D01*
X917067Y532348D02*
X919607D01*
X918337Y531078D02*
Y533618D01*
X966534Y548930D02*
X969074D01*
X967804Y547660D02*
Y550200D01*
X509485Y430266D02*
X512025D01*
X510755Y428996D02*
Y431536D01*
X475980Y440750D02*
X478520D01*
X477250Y439480D02*
Y442020D01*
X519230Y466250D02*
X521770D01*
X520500Y464980D02*
Y467520D01*
X456692Y120904D02*
X459232D01*
X457962Y119634D02*
Y122174D01*
X497480Y62500D02*
X500020D01*
X498750Y61230D02*
Y63770D01*
X486480Y72750D02*
X489020D01*
X487750Y71480D02*
Y74020D01*
X592074Y68072D02*
X594614D01*
X593344Y66802D02*
Y69342D01*
X912446Y274913D02*
X914986D01*
X913716Y273643D02*
Y276183D01*
X862626Y291294D02*
X865166D01*
X863896Y290024D02*
Y292564D01*
X751459Y104419D02*
X753999D01*
X752729Y103149D02*
Y105689D01*
X760730Y104569D02*
X763270D01*
X762000Y103299D02*
Y105839D01*
X791730Y76683D02*
X794270D01*
X793000Y75413D02*
Y77953D01*
X742950Y110295D02*
X745490D01*
X744220Y109025D02*
Y111565D01*
X415707Y147066D02*
X418247D01*
X416977Y145796D02*
Y148336D01*
X415707Y121666D02*
X418247D01*
X416977Y120396D02*
Y122936D01*
X415707Y134610D02*
X418247D01*
X416977Y133340D02*
Y135880D01*
X420190Y65669D02*
X422729D01*
X421460Y64398D02*
Y66939D01*
X793480Y481250D02*
X796020D01*
X794750Y479980D02*
Y482520D01*
X933372Y462301D02*
X935912D01*
X934642Y461031D02*
Y463571D01*
X956730Y449000D02*
X959270D01*
X958000Y447730D02*
Y450270D01*
X924306Y505968D02*
X926846D01*
X925576Y504698D02*
Y507238D01*
X832612Y352552D02*
X835152D01*
X833882Y351282D02*
Y353822D01*
X832231Y378000D02*
X834771D01*
X833501Y376730D02*
Y379270D01*
X899021Y388419D02*
X901561D01*
X900291Y387150D02*
Y389689D01*
X791730Y66548D02*
X794270D01*
X793000Y65278D02*
Y67818D01*
X478456Y450354D02*
X480996D01*
X479726Y449084D02*
Y451624D01*
X470980Y448948D02*
X473520D01*
X472250Y447678D02*
Y450218D01*
X55909Y273500D02*
X58449D01*
X57179Y272230D02*
Y274770D01*
X1082980Y209000D02*
X1085520D01*
X1084250Y207730D02*
Y210270D01*
X1068380Y208977D02*
X1070920D01*
X1069650Y207707D02*
Y210247D01*
X1052380Y208977D02*
X1054920D01*
X1053650Y207707D02*
Y210247D01*
X1060480Y216295D02*
X1063020D01*
X1061750Y215025D02*
Y217565D01*
X1076480Y216492D02*
X1079020D01*
X1077750Y215222D02*
Y217762D01*
X1082230Y311750D02*
X1084770D01*
X1083500Y310480D02*
Y313020D01*
X1068382Y311705D02*
X1070921D01*
X1069651Y310434D02*
Y312974D01*
X1060230Y304250D02*
X1062770D01*
X1061500Y302980D02*
Y305520D01*
X1076480Y304300D02*
X1079020D01*
X1077750Y303030D02*
Y305570D01*
X1052591Y245690D02*
X1055131D01*
X1053861Y244420D02*
Y246960D01*
X1052591Y253106D02*
X1055131D01*
X1053861Y251836D02*
Y254376D01*
X1052692Y275313D02*
X1055232D01*
X1053962Y274044D02*
Y276583D01*
X529980Y463076D02*
X532520D01*
X531250Y461806D02*
Y464346D01*
X694944Y491490D02*
X697484D01*
X696214Y490220D02*
Y492760D01*
X697484Y504190D02*
X700024D01*
X698754Y502920D02*
Y505460D01*
X672730Y501853D02*
X675270D01*
X674000Y500583D02*
Y503123D01*
X97790Y508000D02*
X100330D01*
X99060Y506730D02*
Y509270D01*
X199390Y508000D02*
X201930D01*
X200660Y506730D02*
Y509270D01*
X224790Y508000D02*
X227330D01*
X226060Y506730D02*
Y509270D01*
X250190Y508000D02*
X252730D01*
X251460Y506730D02*
Y509270D01*
X300990Y508000D02*
X303530D01*
X302260Y506730D02*
Y509270D01*
X288290Y520700D02*
X290830D01*
X289560Y519430D02*
Y521970D01*
X684530Y520700D02*
X687070D01*
X685800Y519430D02*
Y521970D01*
X354330Y520700D02*
X356870D01*
X355600Y519430D02*
Y521970D01*
X313690Y520700D02*
X316230D01*
X314960Y519430D02*
Y521970D01*
X841431Y495046D02*
X843971D01*
X842701Y493776D02*
Y496316D01*
X506730Y520700D02*
X509270D01*
X508000Y519430D02*
Y521970D01*
X405114Y38052D02*
X407654D01*
X406384Y36782D02*
Y39322D01*
X395230Y50500D02*
X397770D01*
X396500Y49230D02*
Y51770D01*
X392430Y28000D02*
X394970D01*
X393700Y26730D02*
Y29270D01*
X968480Y64000D02*
X971020D01*
X969750Y62730D02*
Y65270D01*
X1015730Y71250D02*
X1018270D01*
X1017000Y69980D02*
Y72520D01*
X895730Y62500D02*
X898270D01*
X897000Y61230D02*
Y63770D01*
X857230Y63250D02*
X859770D01*
X858500Y61980D02*
Y64520D01*
X394730Y72500D02*
X397270D01*
X396000Y71230D02*
Y73770D01*
X377980Y55500D02*
X380520D01*
X379250Y54230D02*
Y56770D01*
X1080480Y398723D02*
X1083020D01*
X1081750Y397453D02*
Y399993D01*
X1061730Y417000D02*
X1064270D01*
X1063000Y415730D02*
Y418270D01*
X1075730Y379500D02*
X1078270D01*
X1077000Y378230D02*
Y380770D01*
X676480Y102000D02*
X679020D01*
X677750Y100730D02*
Y103270D01*
X1056480Y97750D02*
X1059020D01*
X1057750Y96480D02*
Y99020D01*
X1068730Y110500D02*
X1071270D01*
X1070000Y109230D02*
Y111770D01*
X1081730Y124250D02*
X1084270D01*
X1083000Y122980D02*
Y125520D01*
X1023730Y84750D02*
X1026270D01*
X1025000Y83480D02*
Y86020D01*
X980980Y57750D02*
X983520D01*
X982250Y56480D02*
Y59020D01*
X822980Y85500D02*
X825520D01*
X824250Y84230D02*
Y86770D01*
X704039Y101600D02*
X706579D01*
X705309Y100330D02*
Y102870D01*
X532130Y520700D02*
X534670D01*
X533400Y519430D02*
Y521970D01*
X176530Y76200D02*
X179070D01*
X177800Y74930D02*
Y77470D01*
X519430Y38100D02*
X521970D01*
X520700Y36830D02*
Y39370D01*
X494030Y38100D02*
X496570D01*
X495300Y36830D02*
Y39370D01*
X468630Y38100D02*
X471170D01*
X469900Y36830D02*
Y39370D01*
X443230Y38100D02*
X445770D01*
X444500Y36830D02*
Y39370D01*
X417830Y38100D02*
X420370D01*
X419100Y36830D02*
Y39370D01*
X123190Y508000D02*
X125730D01*
X124460Y506730D02*
Y509270D01*
X148590Y508000D02*
X151130D01*
X149860Y506730D02*
Y509270D01*
X173990Y508000D02*
X176530D01*
X175260Y506730D02*
Y509270D01*
X335280Y508000D02*
X337820D01*
X336550Y506730D02*
Y509270D01*
X367030Y508000D02*
X369570D01*
X368300Y506730D02*
Y509270D01*
X392430Y508000D02*
X394970D01*
X393700Y506730D02*
Y509270D01*
X417830Y508000D02*
X420370D01*
X419100Y506730D02*
Y509270D01*
X443230Y508000D02*
X445770D01*
X444500Y506730D02*
Y509270D01*
X468630Y508000D02*
X471170D01*
X469900Y506730D02*
Y509270D01*
X494030Y508000D02*
X496570D01*
X495300Y506730D02*
Y509270D01*
X519430Y508000D02*
X521970D01*
X520700Y506730D02*
Y509270D01*
X97790Y533400D02*
X100330D01*
X99060Y532130D02*
Y534670D01*
X123190Y533400D02*
X125730D01*
X124460Y532130D02*
Y534670D01*
X148590Y533400D02*
X151130D01*
X149860Y532130D02*
Y534670D01*
X173990Y533400D02*
X176530D01*
X175260Y532130D02*
Y534670D01*
X199390Y533400D02*
X201930D01*
X200660Y532130D02*
Y534670D01*
X224790Y533400D02*
X227330D01*
X226060Y532130D02*
Y534670D01*
X250190Y533400D02*
X252730D01*
X251460Y532130D02*
Y534670D01*
X275590Y533400D02*
X278130D01*
X276860Y532130D02*
Y534670D01*
X300990Y533400D02*
X303530D01*
X302260Y532130D02*
Y534670D01*
X335280Y533400D02*
X337820D01*
X336550Y532130D02*
Y534670D01*
X367030Y533400D02*
X369570D01*
X368300Y532130D02*
Y534670D01*
X392430Y533400D02*
X394970D01*
X393700Y532130D02*
Y534670D01*
X417830Y533400D02*
X420370D01*
X419100Y532130D02*
Y534670D01*
X443230Y533400D02*
X445770D01*
X444500Y532130D02*
Y534670D01*
X468630Y533400D02*
X471170D01*
X469900Y532130D02*
Y534670D01*
X494030Y533400D02*
X496570D01*
X495300Y532130D02*
Y534670D01*
X519430Y533400D02*
X521970D01*
X520700Y532130D02*
Y534670D01*
X595630Y533400D02*
X598170D01*
X596900Y532130D02*
Y534670D01*
X621030Y533400D02*
X623570D01*
X622300Y532130D02*
Y534670D01*
X646430Y533400D02*
X648970D01*
X647700Y532130D02*
Y534670D01*
X697230Y533400D02*
X699770D01*
X698500Y532130D02*
Y534670D01*
X722630Y533400D02*
X725170D01*
X723900Y532130D02*
Y534670D01*
X748030Y533400D02*
X750570D01*
X749300Y532130D02*
Y534670D01*
X1040892Y443230D02*
X1043432D01*
X1042162Y441960D02*
Y444500D01*
X1040892Y478536D02*
X1043432D01*
X1042162Y477266D02*
Y479806D01*
X815230Y73000D02*
X817770D01*
X816500Y71730D02*
Y74271D01*
X711962Y11176D02*
X714502D01*
X713232Y9906D02*
Y12446D01*
X1046480Y432308D02*
X1049020D01*
X1047750Y431038D02*
Y433578D01*
X1045230Y545500D02*
X1047770D01*
X1046500Y544230D02*
Y546770D01*
X1047980Y524250D02*
X1050520D01*
X1049250Y522980D02*
Y525520D01*
X1049860Y507026D02*
X1052400D01*
X1051130Y505756D02*
Y508296D01*
X1049860Y489754D02*
X1052400D01*
X1051130Y488484D02*
Y491024D01*
X760730Y520700D02*
X763270D01*
X762000Y519430D02*
Y521970D01*
X17584Y339750D02*
X20124D01*
X18854Y338480D02*
Y341020D01*
X63817Y331470D02*
X66357D01*
X65087Y330200D02*
Y332740D01*
X659130Y520700D02*
X661670D01*
X660400Y519430D02*
Y521970D01*
X633730Y520700D02*
X636270D01*
X635000Y519430D02*
Y521970D01*
X608330Y520700D02*
X610870D01*
X609600Y519430D02*
Y521970D01*
X582930Y520700D02*
X585470D01*
X584200Y519430D02*
Y521970D01*
X161290Y520700D02*
X163830D01*
X162560Y519430D02*
Y521970D01*
X135890Y520700D02*
X138430D01*
X137160Y519430D02*
Y521970D01*
X110490Y520700D02*
X113030D01*
X111760Y519430D02*
Y521970D01*
X85090Y520700D02*
X87630D01*
X86360Y519430D02*
Y521970D01*
X481330Y38100D02*
X483870D01*
X482600Y36830D02*
Y39370D01*
X455930Y38100D02*
X458470D01*
X457200Y36830D02*
Y39370D01*
X430530Y38100D02*
X433070D01*
X431800Y36830D02*
Y39370D01*
X940380Y42400D02*
X942920D01*
X941650Y41130D02*
Y43670D01*
X829180Y42400D02*
X831720D01*
X830450Y41130D02*
Y43670D01*
X9652Y33782D02*
X12192D01*
X10922Y32512D02*
Y35052D01*
X27178Y9906D02*
X29718D01*
X28448Y8636D02*
Y11176D01*
X54864Y17272D02*
X57404D01*
X56134Y16002D02*
Y18542D01*
X86430Y11541D02*
X88970D01*
X87700Y10271D02*
Y12811D01*
X106680Y11430D02*
X109220D01*
X107950Y10160D02*
Y12700D01*
X263480Y11500D02*
X266020D01*
X264750Y10230D02*
Y12770D01*
X303480Y8500D02*
X306020D01*
X304750Y7230D02*
Y9770D01*
X328980Y8500D02*
X331520D01*
X330250Y7230D02*
Y9770D01*
X365730Y9250D02*
X368270D01*
X367000Y7980D02*
Y10520D01*
X415730Y9250D02*
X418270D01*
X417000Y7980D02*
Y10520D01*
X467230Y9500D02*
X469770D01*
X468500Y8230D02*
Y10770D01*
X516730Y10500D02*
X519270D01*
X518000Y9230D02*
Y11770D01*
X551230Y10750D02*
X553770D01*
X552500Y9480D02*
Y12020D01*
X581730Y10116D02*
X584270D01*
X583000Y8846D02*
Y11386D01*
X560832Y36322D02*
X563372D01*
X562102Y35052D02*
Y37592D01*
X600430Y38052D02*
X602970D01*
X601700Y36782D02*
Y39322D01*
X852170Y18034D02*
X854710D01*
X853440Y16764D02*
Y19304D01*
X903986Y17780D02*
X906526D01*
X905256Y16510D02*
Y19050D01*
X934720Y17780D02*
X937260D01*
X935990Y16510D02*
Y19050D01*
X963676Y17780D02*
X966216D01*
X964946Y16510D02*
Y19050D01*
X1016762Y17018D02*
X1019302D01*
X1018032Y15748D02*
Y18288D01*
X1045230Y11750D02*
X1047770D01*
X1046500Y10480D02*
Y13020D01*
X1050480Y28750D02*
X1053020D01*
X1051750Y27480D02*
Y30020D01*
X1050634Y50250D02*
X1053174D01*
X1051904Y48980D02*
Y51520D01*
X1050480Y75750D02*
X1053020D01*
X1051750Y74480D02*
Y77020D01*
X1041908Y100330D02*
X1044448D01*
X1043178Y99060D02*
Y101600D01*
X749980Y548000D02*
X752520D01*
X751250Y546730D02*
Y549270D01*
X700230Y547750D02*
X702770D01*
X701500Y546480D02*
Y549020D01*
X671730Y547750D02*
X674270D01*
X673000Y546480D02*
Y549020D01*
X643480Y547500D02*
X646020D01*
X644750Y546230D02*
Y548770D01*
X598230Y547250D02*
X600770D01*
X599500Y545980D02*
Y548520D01*
X571980Y547000D02*
X574520D01*
X573250Y545730D02*
Y548270D01*
X542230Y546250D02*
X544770D01*
X543500Y544980D02*
Y547520D01*
X493730Y547750D02*
X496270D01*
X495000Y546480D02*
Y549020D01*
X468730Y547250D02*
X471270D01*
X470000Y545980D02*
Y548520D01*
X418230Y547250D02*
X420770D01*
X419500Y545980D02*
Y548520D01*
X391480Y547000D02*
X394020D01*
X392750Y545730D02*
Y548270D01*
X363980Y546500D02*
X366520D01*
X365250Y545230D02*
Y547770D01*
X323480Y546500D02*
X326020D01*
X324750Y545230D02*
Y547770D01*
X278230Y547500D02*
X280770D01*
X279500Y546230D02*
Y548770D01*
X247480Y546750D02*
X250020D01*
X248750Y545480D02*
Y548020D01*
X200230Y547250D02*
X202770D01*
X201500Y545980D02*
Y548520D01*
X171230Y547250D02*
X173770D01*
X172500Y545980D02*
Y548520D01*
X120980Y548000D02*
X123520D01*
X122250Y546730D02*
Y549270D01*
X74730Y548500D02*
X77270D01*
X76000Y547230D02*
Y549770D01*
X47480Y549250D02*
X50020D01*
X48750Y547980D02*
Y550520D01*
X6604Y532638D02*
X9144D01*
X7874Y531368D02*
Y533908D01*
X8890Y502412D02*
X11430D01*
X10160Y501142D02*
Y503682D01*
X10668Y436372D02*
X13208D01*
X11938Y435102D02*
Y437642D01*
X56134Y480060D02*
X58674D01*
X57404Y478790D02*
Y481330D01*
X52730Y437000D02*
X55270D01*
X54000Y435730D02*
Y438270D01*
X37846Y407924D02*
X40386D01*
X39116Y406654D02*
Y409194D01*
X64071Y280924D02*
X66611D01*
X65341Y279654D02*
Y282194D01*
X81089Y288290D02*
X83629D01*
X82359Y287020D02*
Y289560D01*
X303530Y68580D02*
X306070D01*
X304800Y67310D02*
Y69850D01*
X328930Y68580D02*
X331470D01*
X330200Y67310D02*
Y69850D01*
X953770Y46736D02*
X956310D01*
X955040Y45466D02*
Y48006D01*
X918464Y43180D02*
X921004D01*
X919734Y41910D02*
Y44450D01*
X843534Y47752D02*
X846074D01*
X844804Y46482D02*
Y49022D01*
X993902Y60452D02*
X996442D01*
X995172Y59182D02*
Y61722D01*
X969010Y36068D02*
X971550D01*
X970280Y34798D02*
Y37338D01*
X874014Y42672D02*
X876554D01*
X875284Y41402D02*
Y43942D01*
X876554Y28194D02*
X879094D01*
X877824Y26924D02*
Y29464D01*
X562610Y50292D02*
X565150D01*
X563880Y49022D02*
Y51562D01*
X598170Y49276D02*
X600710D01*
X599440Y48006D02*
Y50546D01*
X748200Y516608D02*
X750740D01*
X749470Y515338D02*
Y517878D01*
X645922Y506984D02*
X648462D01*
X647192Y505714D02*
Y508254D01*
X621792Y506222D02*
X624332D01*
X623062Y504952D02*
Y507492D01*
X595376Y503936D02*
X597916D01*
X596646Y502666D02*
Y505206D01*
X11430Y116840D02*
X13970D01*
X12700Y115570D02*
Y118110D01*
X9906Y73152D02*
X12446D01*
X11176Y71882D02*
Y74422D01*
X7620Y236220D02*
X10160D01*
X8890Y234950D02*
Y237490D01*
X16911Y247800D02*
X19451D01*
X18181Y246530D02*
Y249070D01*
X735330Y520700D02*
X737870D01*
X736600Y519430D02*
Y521970D01*
X481330Y520700D02*
X483870D01*
X482600Y519430D02*
Y521970D01*
X455930Y520700D02*
X458470D01*
X457200Y519430D02*
Y521970D01*
X430530Y520700D02*
X433070D01*
X431800Y519430D02*
Y521970D01*
X405130Y520700D02*
X407670D01*
X406400Y519430D02*
Y521970D01*
X379730Y520700D02*
X382270D01*
X381000Y519430D02*
Y521970D01*
X262890Y520700D02*
X265430D01*
X264160Y519430D02*
Y521970D01*
X237490Y520700D02*
X240030D01*
X238760Y519430D02*
Y521970D01*
X212090Y520700D02*
X214630D01*
X213360Y519430D02*
Y521970D01*
X186690Y520700D02*
X189230D01*
X187960Y519430D02*
Y521970D01*
X815848Y32766D02*
X818388D01*
X817118Y31496D02*
Y34036D01*
X680480Y11500D02*
X683020D01*
X681750Y10230D02*
Y12770D01*
X69596Y245872D02*
X72136D01*
X70866Y244602D02*
Y247142D01*
X78295Y261112D02*
X80835D01*
X79565Y259842D02*
Y262382D01*
X12446Y359410D02*
X14986D01*
X13716Y358140D02*
Y360680D01*
X10160Y459994D02*
X12700D01*
X11430Y458724D02*
Y461264D01*
X71247Y457174D02*
X73787D01*
X72517Y455904D02*
Y458444D01*
X738890Y53241D02*
X741430D01*
X740160Y51971D02*
Y54511D01*
X803890Y52241D02*
X806430D01*
X805160Y50971D02*
Y53511D01*
X780730Y69000D02*
X783270D01*
X782000Y67730D02*
Y70270D01*
X751480Y66548D02*
X754020D01*
X752750Y65278D02*
Y67818D01*
X966216Y512508D02*
X968756D01*
X967486Y511238D02*
Y513778D01*
X966216Y534162D02*
X968756D01*
X967486Y532892D02*
Y535432D01*
X1001268Y441706D02*
X1003808D01*
X1002538Y440436D02*
Y442976D01*
Y434086D02*
X1005078D01*
X1003808Y432816D02*
Y435356D01*
X1007618Y420878D02*
X1010158D01*
X1008888Y419608D02*
Y422148D01*
X1007618Y428752D02*
X1010158D01*
X1008888Y427482D02*
Y430022D01*
M02*
