G04*
G04 #@! TF.GenerationSoftware,Altium Limited,Altium Designer,24.5.2 (23)*
G04*
G04 Layer_Color=2752767*
%FSLAX44Y44*%
%MOMM*%
G71*
G04*
G04 #@! TF.SameCoordinates,0C5A4069-AE43-482B-AD25-CF0848805004*
G04*
G04*
G04 #@! TF.FilePolarity,Positive*
G04*
G01*
G75*
%ADD10C,0.1270*%
%ADD14C,0.2540*%
%ADD15C,0.2000*%
%ADD17R,4.8260X2.4130*%
%ADD18C,0.1778*%
%ADD19C,0.2997*%
%ADD146C,0.3810*%
%ADD150C,0.4064*%
%ADD167C,0.0508*%
G36*
X885250Y-150059D02*
X889786D01*
Y-150512D01*
X892507D01*
Y-150966D01*
X894775D01*
Y-151419D01*
X896589D01*
Y-151873D01*
X898403D01*
Y-152327D01*
X899764D01*
Y-152780D01*
X901124D01*
Y-153234D01*
X902485D01*
Y-153687D01*
X903392D01*
Y-154141D01*
X904753D01*
Y-154594D01*
X905660D01*
Y-155048D01*
X906567D01*
Y-155501D01*
X907474D01*
Y-155955D01*
X908381D01*
Y-156409D01*
X909288D01*
Y-156862D01*
X909742D01*
Y-157316D01*
X910649D01*
Y-157769D01*
X911556D01*
Y-158223D01*
X912010D01*
Y-158676D01*
X912917D01*
Y-159130D01*
X913371D01*
Y-159584D01*
X914278D01*
Y-160037D01*
X914731D01*
Y-160491D01*
X915185D01*
Y-160944D01*
X916092D01*
Y-161398D01*
X916545D01*
Y-161851D01*
X916999D01*
Y-162305D01*
X917452D01*
Y-162758D01*
X918360D01*
Y-163212D01*
X918813D01*
Y-163666D01*
X919267D01*
Y-164119D01*
X919720D01*
Y-164573D01*
X920174D01*
Y-165026D01*
X920627D01*
Y-165480D01*
X921081D01*
Y-165933D01*
X921535D01*
Y-166387D01*
X921988D01*
Y-166840D01*
X922442D01*
Y-167294D01*
X922895D01*
Y-167747D01*
X923349D01*
Y-168201D01*
Y-168655D01*
X923802D01*
Y-169108D01*
X924256D01*
Y-169562D01*
X924709D01*
Y-170015D01*
X925163D01*
Y-170469D01*
Y-170922D01*
X925617D01*
Y-171376D01*
X926070D01*
Y-171830D01*
X926524D01*
Y-172283D01*
Y-172737D01*
X926977D01*
Y-173190D01*
X927431D01*
Y-173644D01*
Y-174097D01*
X927884D01*
Y-174551D01*
X928338D01*
Y-175004D01*
Y-175458D01*
X928791D01*
Y-175912D01*
X929245D01*
Y-176365D01*
Y-176819D01*
X929698D01*
Y-177272D01*
Y-177726D01*
X930152D01*
Y-178179D01*
Y-178633D01*
X930606D01*
Y-179086D01*
Y-179540D01*
X931059D01*
Y-179993D01*
Y-180447D01*
X931513D01*
Y-180901D01*
Y-181354D01*
X931966D01*
Y-181808D01*
Y-182261D01*
X932420D01*
Y-182715D01*
Y-183168D01*
Y-183622D01*
X932873D01*
Y-184076D01*
Y-184529D01*
X933327D01*
Y-184983D01*
Y-185436D01*
Y-185890D01*
X933781D01*
Y-186343D01*
Y-186797D01*
Y-187250D01*
X934234D01*
Y-187704D01*
Y-188158D01*
Y-188611D01*
Y-189065D01*
X934688D01*
Y-189518D01*
Y-189972D01*
Y-190425D01*
Y-190879D01*
X935141D01*
Y-191332D01*
Y-191786D01*
Y-192240D01*
Y-192693D01*
X935595D01*
Y-193147D01*
Y-193600D01*
Y-194054D01*
Y-194507D01*
Y-194961D01*
Y-195414D01*
Y-195868D01*
X936048D01*
Y-196322D01*
Y-196775D01*
Y-197229D01*
Y-197682D01*
Y-198136D01*
Y-198589D01*
Y-199043D01*
Y-199496D01*
Y-199950D01*
Y-200404D01*
Y-200857D01*
X936502D01*
Y-201311D01*
Y-201764D01*
Y-202218D01*
Y-202671D01*
Y-203125D01*
Y-203578D01*
Y-204032D01*
Y-204486D01*
Y-204939D01*
Y-205393D01*
X936048D01*
Y-205846D01*
Y-206300D01*
Y-206753D01*
Y-207207D01*
Y-207661D01*
Y-208114D01*
Y-208568D01*
Y-209021D01*
Y-209475D01*
Y-209928D01*
Y-210382D01*
X935595D01*
Y-210835D01*
Y-211289D01*
Y-211742D01*
Y-212196D01*
Y-212650D01*
Y-213103D01*
X935141D01*
Y-213557D01*
Y-214010D01*
Y-214464D01*
Y-214917D01*
Y-215371D01*
X934688D01*
Y-215825D01*
Y-216278D01*
Y-216732D01*
Y-217185D01*
X934234D01*
Y-217639D01*
Y-218092D01*
Y-218546D01*
Y-218999D01*
X933781D01*
Y-219453D01*
Y-219907D01*
Y-220360D01*
X933327D01*
Y-220814D01*
Y-221267D01*
X932873D01*
Y-221721D01*
Y-222174D01*
Y-222628D01*
X932420D01*
Y-223081D01*
Y-223535D01*
X931966D01*
Y-223988D01*
Y-224442D01*
Y-224896D01*
X931513D01*
Y-225349D01*
Y-225803D01*
X931059D01*
Y-226256D01*
Y-226710D01*
X930606D01*
Y-227163D01*
Y-227617D01*
X930152D01*
Y-228071D01*
Y-228524D01*
X929698D01*
Y-228071D01*
Y-227617D01*
Y-227163D01*
Y-226710D01*
Y-226256D01*
Y-225803D01*
Y-225349D01*
Y-224896D01*
Y-224442D01*
Y-223988D01*
Y-223535D01*
Y-223081D01*
Y-222628D01*
Y-222174D01*
Y-221721D01*
Y-221267D01*
Y-220814D01*
Y-220360D01*
Y-219907D01*
Y-219453D01*
Y-218999D01*
Y-218546D01*
Y-218092D01*
Y-217639D01*
Y-217185D01*
Y-216732D01*
Y-216278D01*
Y-215825D01*
Y-215371D01*
Y-214917D01*
Y-214464D01*
Y-214010D01*
Y-213557D01*
Y-213103D01*
Y-212650D01*
Y-212196D01*
Y-211742D01*
Y-211289D01*
Y-210835D01*
Y-210382D01*
Y-209928D01*
Y-209475D01*
Y-209021D01*
Y-208568D01*
Y-208114D01*
Y-207661D01*
Y-207207D01*
Y-206753D01*
Y-206300D01*
Y-205846D01*
Y-205393D01*
Y-204939D01*
Y-204486D01*
Y-204032D01*
Y-203578D01*
Y-203125D01*
Y-202671D01*
Y-202218D01*
Y-201764D01*
Y-201311D01*
Y-200857D01*
Y-200404D01*
Y-199950D01*
Y-199496D01*
Y-199043D01*
Y-198589D01*
Y-198136D01*
Y-197682D01*
Y-197229D01*
Y-196775D01*
Y-196322D01*
Y-195868D01*
Y-195414D01*
Y-194961D01*
Y-194507D01*
Y-194054D01*
X916999D01*
Y-194507D01*
Y-194961D01*
Y-195414D01*
Y-195868D01*
Y-196322D01*
Y-196775D01*
Y-197229D01*
Y-197682D01*
Y-198136D01*
Y-198589D01*
Y-199043D01*
Y-199496D01*
Y-199950D01*
Y-200404D01*
Y-200857D01*
Y-201311D01*
Y-201764D01*
Y-202218D01*
Y-202671D01*
Y-203125D01*
Y-203578D01*
Y-204032D01*
Y-204486D01*
Y-204939D01*
Y-205393D01*
Y-205846D01*
Y-206300D01*
Y-206753D01*
Y-207207D01*
Y-207661D01*
Y-208114D01*
Y-208568D01*
Y-209021D01*
Y-209475D01*
Y-209928D01*
Y-210382D01*
Y-210835D01*
Y-211289D01*
Y-211742D01*
Y-212196D01*
Y-212650D01*
Y-213103D01*
Y-213557D01*
Y-214010D01*
Y-214464D01*
Y-214917D01*
Y-215371D01*
Y-215825D01*
Y-216278D01*
Y-216732D01*
Y-217185D01*
Y-217639D01*
Y-218092D01*
Y-218546D01*
Y-218999D01*
Y-219453D01*
Y-219907D01*
Y-220360D01*
Y-220814D01*
Y-221267D01*
Y-221721D01*
X916545D01*
Y-222174D01*
Y-222628D01*
Y-223081D01*
Y-223535D01*
X916092D01*
Y-223988D01*
Y-224442D01*
X915638D01*
Y-224896D01*
Y-225349D01*
X915185D01*
Y-225803D01*
X914731D01*
Y-226256D01*
X914278D01*
Y-226710D01*
X913824D01*
Y-227163D01*
X913371D01*
Y-227617D01*
X912463D01*
Y-228071D01*
X911103D01*
Y-228524D01*
X904753D01*
Y-228071D01*
X903392D01*
Y-227617D01*
X902485D01*
Y-227163D01*
X902032D01*
Y-226710D01*
X901578D01*
Y-226256D01*
X901124D01*
Y-225803D01*
Y-225349D01*
X900671D01*
Y-224896D01*
Y-224442D01*
X900217D01*
Y-223988D01*
Y-223535D01*
Y-223081D01*
Y-222628D01*
X899764D01*
Y-222174D01*
Y-221721D01*
Y-221267D01*
Y-220814D01*
Y-220360D01*
Y-219907D01*
Y-219453D01*
Y-218999D01*
Y-218546D01*
Y-218092D01*
Y-217639D01*
Y-217185D01*
Y-216732D01*
Y-216278D01*
Y-215825D01*
Y-215371D01*
Y-214917D01*
Y-214464D01*
Y-214010D01*
Y-213557D01*
Y-213103D01*
Y-212650D01*
Y-212196D01*
Y-211742D01*
Y-211289D01*
Y-210835D01*
Y-210382D01*
Y-209928D01*
Y-209475D01*
Y-209021D01*
Y-208568D01*
Y-208114D01*
Y-207661D01*
Y-207207D01*
Y-206753D01*
Y-206300D01*
Y-205846D01*
Y-205393D01*
Y-204939D01*
Y-204486D01*
Y-204032D01*
Y-203578D01*
Y-203125D01*
Y-202671D01*
Y-202218D01*
Y-201764D01*
Y-201311D01*
Y-200857D01*
Y-200404D01*
Y-199950D01*
Y-199496D01*
Y-199043D01*
Y-198589D01*
Y-198136D01*
Y-197682D01*
Y-197229D01*
Y-196775D01*
Y-196322D01*
Y-195868D01*
Y-195414D01*
Y-194961D01*
Y-194507D01*
Y-194054D01*
X887064D01*
Y-194507D01*
Y-194961D01*
Y-195414D01*
Y-195868D01*
Y-196322D01*
Y-196775D01*
Y-197229D01*
Y-197682D01*
Y-198136D01*
Y-198589D01*
Y-199043D01*
Y-199496D01*
Y-199950D01*
Y-200404D01*
Y-200857D01*
Y-201311D01*
Y-201764D01*
Y-202218D01*
Y-202671D01*
Y-203125D01*
Y-203578D01*
Y-204032D01*
Y-204486D01*
Y-204939D01*
Y-205393D01*
Y-205846D01*
Y-206300D01*
Y-206753D01*
Y-207207D01*
Y-207661D01*
Y-208114D01*
Y-208568D01*
Y-209021D01*
Y-209475D01*
Y-209928D01*
Y-210382D01*
Y-210835D01*
Y-211289D01*
Y-211742D01*
Y-212196D01*
Y-212650D01*
Y-213103D01*
Y-213557D01*
Y-214010D01*
Y-214464D01*
Y-214917D01*
Y-215371D01*
Y-215825D01*
Y-216278D01*
Y-216732D01*
Y-217185D01*
Y-217639D01*
Y-218092D01*
Y-218546D01*
Y-218999D01*
Y-219453D01*
Y-219907D01*
Y-220360D01*
Y-220814D01*
Y-221267D01*
Y-221721D01*
Y-222174D01*
Y-222628D01*
Y-223081D01*
Y-223535D01*
Y-223988D01*
Y-224442D01*
Y-224896D01*
Y-225349D01*
Y-225803D01*
Y-226256D01*
Y-226710D01*
Y-227163D01*
X887518D01*
Y-227617D01*
Y-228071D01*
Y-228524D01*
Y-228978D01*
X887971D01*
Y-229431D01*
Y-229885D01*
Y-230338D01*
X888425D01*
Y-230792D01*
Y-231245D01*
Y-231699D01*
X888878D01*
Y-232153D01*
Y-232606D01*
X889332D01*
Y-233060D01*
X889786D01*
Y-233513D01*
Y-233967D01*
X890239D01*
Y-234420D01*
X890693D01*
Y-234874D01*
X891146D01*
Y-235327D01*
X891600D01*
Y-235781D01*
X892053D01*
Y-236234D01*
X892507D01*
Y-236688D01*
X893414D01*
Y-237142D01*
X893868D01*
Y-237595D01*
X894775D01*
Y-238049D01*
X895682D01*
Y-238502D01*
X896589D01*
Y-238956D01*
X897950D01*
Y-239409D01*
X899764D01*
Y-239863D01*
X908835D01*
Y-239409D01*
X910649D01*
Y-238956D01*
X911556D01*
Y-238502D01*
X912917D01*
Y-238049D01*
X913371D01*
Y-237595D01*
X914278D01*
Y-237142D01*
X914731D01*
Y-236688D01*
X915185D01*
Y-236234D01*
X916092D01*
Y-235781D01*
X916545D01*
Y-235327D01*
X916999D01*
Y-234874D01*
Y-234420D01*
X917452D01*
Y-234874D01*
Y-235327D01*
Y-235781D01*
Y-236234D01*
Y-236688D01*
Y-237142D01*
Y-237595D01*
Y-238049D01*
Y-238502D01*
Y-238956D01*
X922442D01*
Y-239409D01*
X921988D01*
Y-239863D01*
X921535D01*
Y-240317D01*
X921081D01*
Y-240770D01*
X920627D01*
Y-241224D01*
X920174D01*
Y-241677D01*
X919720D01*
Y-242131D01*
X919267D01*
Y-242584D01*
X918813D01*
Y-243038D01*
X917906D01*
Y-243491D01*
X917452D01*
Y-243945D01*
X916999D01*
Y-244398D01*
X916545D01*
Y-244852D01*
X915638D01*
Y-245306D01*
X915185D01*
Y-245759D01*
X914731D01*
Y-246213D01*
X913824D01*
Y-246666D01*
X913371D01*
Y-247120D01*
X912463D01*
Y-247573D01*
X912010D01*
Y-248027D01*
X911103D01*
Y-248480D01*
X910649D01*
Y-248934D01*
X909742D01*
Y-249388D01*
X908835D01*
Y-249841D01*
X907928D01*
Y-250295D01*
X907474D01*
Y-250748D01*
X906567D01*
Y-251202D01*
X905206D01*
Y-251655D01*
X904299D01*
Y-252109D01*
X903392D01*
Y-252563D01*
X902032D01*
Y-253016D01*
X901124D01*
Y-253470D01*
X899764D01*
Y-253923D01*
X897950D01*
Y-254377D01*
X896589D01*
Y-254830D01*
X894775D01*
Y-255284D01*
X892053D01*
Y-255737D01*
X888878D01*
Y-256191D01*
X877086D01*
Y-255737D01*
X873911D01*
Y-255284D01*
X871643D01*
Y-254830D01*
X869829D01*
Y-254377D01*
X868015D01*
Y-253923D01*
X866654D01*
Y-253470D01*
X865294D01*
Y-253016D01*
X863933D01*
Y-252563D01*
X863026D01*
Y-252109D01*
X861665D01*
Y-251655D01*
X860758D01*
Y-251202D01*
X859851D01*
Y-250748D01*
X858944D01*
Y-250295D01*
X858037D01*
Y-249841D01*
X857130D01*
Y-249388D01*
X856222D01*
Y-248934D01*
X855769D01*
Y-248480D01*
X854862D01*
Y-248027D01*
X853955D01*
Y-247573D01*
X853501D01*
Y-247120D01*
X852594D01*
Y-246666D01*
X852140D01*
Y-246213D01*
X851687D01*
Y-245759D01*
X850780D01*
Y-245306D01*
X850326D01*
Y-244852D01*
X849873D01*
Y-244398D01*
X848966D01*
Y-243945D01*
X848512D01*
Y-243491D01*
X848058D01*
Y-243038D01*
X847605D01*
Y-242584D01*
X847151D01*
Y-242131D01*
X846698D01*
Y-241677D01*
X846244D01*
Y-241224D01*
X845791D01*
Y-240770D01*
X845337D01*
Y-240317D01*
X844883D01*
Y-239863D01*
X844430D01*
Y-239409D01*
X843976D01*
Y-238956D01*
X843523D01*
Y-238502D01*
X843069D01*
Y-238049D01*
X842616D01*
Y-237595D01*
X842162D01*
Y-237142D01*
X841709D01*
Y-236688D01*
Y-236234D01*
X841255D01*
Y-235781D01*
X840801D01*
Y-235327D01*
X840348D01*
Y-234874D01*
X839894D01*
Y-234420D01*
Y-233967D01*
X839441D01*
Y-233513D01*
X838987D01*
Y-233060D01*
Y-232606D01*
X838534D01*
Y-232153D01*
X838080D01*
Y-231699D01*
Y-231245D01*
X837627D01*
Y-230792D01*
X837173D01*
Y-230338D01*
Y-229885D01*
X836720D01*
Y-229431D01*
Y-228978D01*
X836266D01*
Y-228524D01*
Y-228071D01*
X835812D01*
Y-227617D01*
Y-227163D01*
X835359D01*
Y-226710D01*
Y-226256D01*
X834905D01*
Y-225803D01*
Y-225349D01*
X834452D01*
Y-224896D01*
Y-224442D01*
X833998D01*
Y-223988D01*
Y-223535D01*
X833545D01*
Y-223081D01*
Y-222628D01*
Y-222174D01*
X833091D01*
Y-221721D01*
Y-221267D01*
Y-220814D01*
X832637D01*
Y-220360D01*
Y-219907D01*
X832184D01*
Y-219453D01*
Y-218999D01*
Y-218546D01*
Y-218092D01*
X831730D01*
Y-217639D01*
Y-217185D01*
Y-216732D01*
X831277D01*
Y-216278D01*
Y-215825D01*
Y-215371D01*
Y-214917D01*
X830823D01*
Y-214464D01*
Y-214010D01*
Y-213557D01*
Y-213103D01*
Y-212650D01*
X830370D01*
Y-212196D01*
Y-211742D01*
Y-211289D01*
Y-210835D01*
Y-210382D01*
Y-209928D01*
Y-209475D01*
X829916D01*
Y-209021D01*
Y-208568D01*
Y-208114D01*
Y-207661D01*
Y-207207D01*
Y-206753D01*
Y-206300D01*
Y-205846D01*
Y-205393D01*
Y-204939D01*
X829463D01*
Y-204486D01*
Y-204032D01*
Y-203578D01*
Y-203125D01*
Y-202671D01*
Y-202218D01*
Y-201764D01*
Y-201311D01*
Y-200857D01*
X829916D01*
Y-200404D01*
Y-199950D01*
Y-199496D01*
Y-199043D01*
Y-198589D01*
Y-198136D01*
Y-197682D01*
Y-197229D01*
Y-196775D01*
X830370D01*
Y-196322D01*
Y-195868D01*
Y-195414D01*
Y-194961D01*
Y-194507D01*
Y-194054D01*
Y-193600D01*
X830823D01*
Y-193147D01*
Y-192693D01*
Y-192240D01*
Y-191786D01*
Y-191332D01*
X831277D01*
Y-190879D01*
Y-190425D01*
Y-189972D01*
Y-189518D01*
X831730D01*
Y-189065D01*
Y-188611D01*
Y-188158D01*
Y-187704D01*
X832184D01*
Y-187250D01*
Y-186797D01*
Y-186343D01*
X832637D01*
Y-185890D01*
Y-185436D01*
Y-184983D01*
X833091D01*
Y-184529D01*
Y-184076D01*
X833545D01*
Y-183622D01*
Y-183168D01*
Y-182715D01*
X833998D01*
Y-182261D01*
Y-181808D01*
X834452D01*
Y-181354D01*
Y-180901D01*
Y-180447D01*
X834905D01*
Y-179993D01*
Y-179540D01*
X835359D01*
Y-179086D01*
Y-178633D01*
X835812D01*
Y-178179D01*
Y-177726D01*
X836266D01*
Y-177272D01*
X836720D01*
Y-176819D01*
Y-176365D01*
X837173D01*
Y-175912D01*
Y-175458D01*
X837627D01*
Y-175004D01*
X838080D01*
Y-174551D01*
Y-174097D01*
X838534D01*
Y-173644D01*
X838987D01*
Y-173190D01*
Y-172737D01*
X839441D01*
Y-172283D01*
X839894D01*
Y-171830D01*
Y-171376D01*
X840348D01*
Y-170922D01*
X840801D01*
Y-170469D01*
X841255D01*
Y-170015D01*
Y-169562D01*
X841709D01*
Y-169108D01*
X842162D01*
Y-168655D01*
X842616D01*
Y-168201D01*
X843069D01*
Y-167747D01*
X843523D01*
Y-167294D01*
X843976D01*
Y-166840D01*
X844430D01*
Y-166387D01*
Y-165933D01*
X844883D01*
Y-165480D01*
X845337D01*
Y-165026D01*
X845791D01*
Y-164573D01*
X846698D01*
Y-164119D01*
X847151D01*
Y-163666D01*
X847605D01*
Y-163212D01*
X848058D01*
Y-162758D01*
X848512D01*
Y-162305D01*
X848966D01*
Y-161851D01*
X849419D01*
Y-161398D01*
X850326D01*
Y-160944D01*
X850780D01*
Y-160491D01*
X851233D01*
Y-160037D01*
X852140D01*
Y-159584D01*
X852594D01*
Y-159130D01*
X853501D01*
Y-158676D01*
X853955D01*
Y-158223D01*
X854862D01*
Y-157769D01*
X855315D01*
Y-157316D01*
X856222D01*
Y-156862D01*
X857130D01*
Y-156409D01*
X857583D01*
Y-155955D01*
X858944D01*
Y-155501D01*
X859851D01*
Y-155048D01*
X860758D01*
Y-154594D01*
X861665D01*
Y-154141D01*
X862572D01*
Y-153687D01*
X863933D01*
Y-153234D01*
X864840D01*
Y-152780D01*
X866201D01*
Y-152327D01*
X867561D01*
Y-151873D01*
X869376D01*
Y-151419D01*
X871190D01*
Y-150966D01*
X873457D01*
Y-150512D01*
X876632D01*
Y-150059D01*
X881168D01*
Y-149605D01*
X885250D01*
Y-150059D01*
D02*
G37*
G36*
X955551Y-177272D02*
Y-177726D01*
Y-178179D01*
Y-178633D01*
Y-179086D01*
Y-179540D01*
Y-179993D01*
Y-180447D01*
Y-180901D01*
Y-181354D01*
Y-181808D01*
Y-182261D01*
Y-182715D01*
Y-183168D01*
Y-183622D01*
Y-184076D01*
Y-184529D01*
Y-184983D01*
Y-185436D01*
Y-185890D01*
Y-186343D01*
Y-186797D01*
Y-187250D01*
Y-187704D01*
Y-188158D01*
Y-188611D01*
Y-189065D01*
Y-189518D01*
Y-189972D01*
Y-190425D01*
Y-190879D01*
Y-191332D01*
Y-191786D01*
Y-192240D01*
Y-192693D01*
Y-193147D01*
Y-193600D01*
Y-194054D01*
Y-194507D01*
Y-194961D01*
Y-195414D01*
Y-195868D01*
Y-196322D01*
Y-196775D01*
Y-197229D01*
Y-197682D01*
Y-198136D01*
Y-198589D01*
Y-199043D01*
Y-199496D01*
X956458D01*
Y-199043D01*
X956912D01*
Y-198589D01*
X957365D01*
Y-198136D01*
X957819D01*
Y-197682D01*
X958272D01*
Y-197229D01*
X958726D01*
Y-196775D01*
X959180D01*
Y-196322D01*
X960087D01*
Y-195868D01*
X960540D01*
Y-195414D01*
X961447D01*
Y-194961D01*
X962355D01*
Y-194507D01*
X963715D01*
Y-194054D01*
X965529D01*
Y-193600D01*
X974147D01*
Y-194054D01*
X975961D01*
Y-194507D01*
X977322D01*
Y-194961D01*
X978682D01*
Y-195414D01*
X979590D01*
Y-195868D01*
X980043D01*
Y-196322D01*
X980950D01*
Y-196775D01*
X981404D01*
Y-197229D01*
X982311D01*
Y-197682D01*
X982765D01*
Y-198136D01*
X983218D01*
Y-198589D01*
X983672D01*
Y-199043D01*
X984125D01*
Y-199496D01*
X984579D01*
Y-199950D01*
Y-200404D01*
X985032D01*
Y-200857D01*
X985486D01*
Y-201311D01*
X985939D01*
Y-201764D01*
Y-202218D01*
X986393D01*
Y-202671D01*
Y-203125D01*
X986846D01*
Y-203578D01*
Y-204032D01*
X987300D01*
Y-204486D01*
Y-204939D01*
X987754D01*
Y-205393D01*
Y-205846D01*
Y-206300D01*
X988207D01*
Y-206753D01*
Y-207207D01*
Y-207661D01*
Y-208114D01*
X988661D01*
Y-208568D01*
Y-209021D01*
Y-209475D01*
Y-209928D01*
Y-210382D01*
X989114D01*
Y-210835D01*
Y-211289D01*
Y-211742D01*
Y-212196D01*
Y-212650D01*
Y-213103D01*
Y-213557D01*
Y-214010D01*
Y-214464D01*
X989568D01*
Y-214917D01*
X989114D01*
Y-215371D01*
Y-215825D01*
Y-216278D01*
Y-216732D01*
Y-217185D01*
Y-217639D01*
Y-218092D01*
Y-218546D01*
Y-218999D01*
Y-219453D01*
Y-219907D01*
Y-220360D01*
Y-220814D01*
Y-221267D01*
Y-221721D01*
Y-222174D01*
Y-222628D01*
X988661D01*
Y-223081D01*
Y-223535D01*
Y-223988D01*
Y-224442D01*
Y-224896D01*
X988207D01*
Y-225349D01*
Y-225803D01*
Y-226256D01*
X987754D01*
Y-226710D01*
Y-227163D01*
Y-227617D01*
X987300D01*
Y-228071D01*
Y-228524D01*
Y-228978D01*
X986846D01*
Y-229431D01*
Y-229885D01*
X986393D01*
Y-230338D01*
Y-230792D01*
X985939D01*
Y-231245D01*
X985486D01*
Y-231699D01*
Y-232153D01*
X985032D01*
Y-232606D01*
X984579D01*
Y-233060D01*
X984125D01*
Y-233513D01*
X983672D01*
Y-233967D01*
Y-234420D01*
X982765D01*
Y-234874D01*
X982311D01*
Y-235327D01*
X981857D01*
Y-235781D01*
X981404D01*
Y-236234D01*
X980497D01*
Y-236688D01*
X980043D01*
Y-237142D01*
X979136D01*
Y-237595D01*
X978229D01*
Y-238049D01*
X977322D01*
Y-238502D01*
X975961D01*
Y-238956D01*
X973693D01*
Y-239409D01*
X965983D01*
Y-238956D01*
X963715D01*
Y-238502D01*
X962808D01*
Y-238049D01*
X961447D01*
Y-237595D01*
X960994D01*
Y-237142D01*
X960087D01*
Y-236688D01*
X959633D01*
Y-236234D01*
X958726D01*
Y-235781D01*
X958272D01*
Y-235327D01*
X957819D01*
Y-234874D01*
X957365D01*
Y-234420D01*
X956912D01*
Y-233967D01*
X956458D01*
Y-233513D01*
X956005D01*
Y-233060D01*
Y-232606D01*
X955098D01*
Y-233060D01*
Y-233513D01*
Y-233967D01*
Y-234420D01*
Y-234874D01*
Y-235327D01*
Y-235781D01*
Y-236234D01*
Y-236688D01*
Y-237142D01*
Y-237595D01*
Y-238049D01*
Y-238502D01*
X943759D01*
Y-238049D01*
Y-237595D01*
Y-237142D01*
Y-236688D01*
Y-236234D01*
Y-235781D01*
Y-235327D01*
Y-234874D01*
Y-234420D01*
Y-233967D01*
Y-233513D01*
Y-233060D01*
Y-232606D01*
Y-232153D01*
Y-231699D01*
Y-231245D01*
Y-230792D01*
Y-230338D01*
Y-229885D01*
Y-229431D01*
Y-228978D01*
Y-228524D01*
Y-228071D01*
Y-227617D01*
Y-227163D01*
Y-226710D01*
Y-226256D01*
Y-225803D01*
Y-225349D01*
Y-224896D01*
Y-224442D01*
Y-223988D01*
Y-223535D01*
Y-223081D01*
Y-222628D01*
Y-222174D01*
Y-221721D01*
Y-221267D01*
Y-220814D01*
Y-220360D01*
Y-219907D01*
Y-219453D01*
Y-218999D01*
Y-218546D01*
Y-218092D01*
Y-217639D01*
Y-217185D01*
Y-216732D01*
Y-216278D01*
Y-215825D01*
Y-215371D01*
Y-214917D01*
Y-214464D01*
Y-214010D01*
Y-213557D01*
Y-213103D01*
Y-212650D01*
Y-212196D01*
Y-211742D01*
Y-211289D01*
Y-210835D01*
Y-210382D01*
Y-209928D01*
Y-209475D01*
Y-209021D01*
Y-208568D01*
Y-208114D01*
Y-207661D01*
Y-207207D01*
Y-206753D01*
Y-206300D01*
Y-205846D01*
Y-205393D01*
Y-204939D01*
Y-204486D01*
Y-204032D01*
Y-203578D01*
Y-203125D01*
Y-202671D01*
Y-202218D01*
Y-201764D01*
Y-201311D01*
Y-200857D01*
Y-200404D01*
Y-199950D01*
Y-199496D01*
Y-199043D01*
Y-198589D01*
Y-198136D01*
Y-197682D01*
Y-197229D01*
Y-196775D01*
Y-196322D01*
Y-195868D01*
Y-195414D01*
Y-194961D01*
Y-194507D01*
Y-194054D01*
Y-193600D01*
Y-193147D01*
Y-192693D01*
Y-192240D01*
Y-191786D01*
Y-191332D01*
Y-190879D01*
Y-190425D01*
Y-189972D01*
Y-189518D01*
Y-189065D01*
Y-188611D01*
Y-188158D01*
Y-187704D01*
Y-187250D01*
Y-186797D01*
Y-186343D01*
Y-185890D01*
Y-185436D01*
Y-184983D01*
Y-184529D01*
Y-184076D01*
Y-183622D01*
Y-183168D01*
Y-182715D01*
Y-182261D01*
Y-181808D01*
Y-181354D01*
Y-180901D01*
Y-180447D01*
Y-179993D01*
Y-179540D01*
Y-179086D01*
Y-178633D01*
Y-178179D01*
Y-177726D01*
Y-177272D01*
Y-176819D01*
X955551D01*
Y-177272D01*
D02*
G37*
G36*
X1009071D02*
Y-177726D01*
Y-178179D01*
Y-178633D01*
Y-179086D01*
Y-179540D01*
Y-179993D01*
Y-180447D01*
Y-180901D01*
Y-181354D01*
Y-181808D01*
Y-182261D01*
Y-182715D01*
Y-183168D01*
Y-183622D01*
Y-184076D01*
Y-184529D01*
Y-184983D01*
Y-185436D01*
Y-185890D01*
Y-186343D01*
Y-186797D01*
Y-187250D01*
Y-187704D01*
Y-188158D01*
Y-188611D01*
Y-189065D01*
Y-189518D01*
Y-189972D01*
Y-190425D01*
Y-190879D01*
Y-191332D01*
Y-191786D01*
Y-192240D01*
Y-192693D01*
Y-193147D01*
Y-193600D01*
Y-194054D01*
Y-194507D01*
Y-194961D01*
Y-195414D01*
Y-195868D01*
Y-196322D01*
Y-196775D01*
Y-197229D01*
Y-197682D01*
Y-198136D01*
Y-198589D01*
Y-199043D01*
Y-199496D01*
Y-199950D01*
Y-200404D01*
Y-200857D01*
Y-201311D01*
Y-201764D01*
Y-202218D01*
Y-202671D01*
Y-203125D01*
Y-203578D01*
Y-204032D01*
Y-204486D01*
Y-204939D01*
Y-205393D01*
Y-205846D01*
Y-206300D01*
Y-206753D01*
Y-207207D01*
Y-207661D01*
Y-208114D01*
Y-208568D01*
Y-209021D01*
Y-209475D01*
Y-209928D01*
Y-210382D01*
Y-210835D01*
Y-211289D01*
Y-211742D01*
Y-212196D01*
Y-212650D01*
Y-213103D01*
Y-213557D01*
Y-214010D01*
Y-214464D01*
Y-214917D01*
Y-215371D01*
Y-215825D01*
Y-216278D01*
Y-216732D01*
Y-217185D01*
Y-217639D01*
Y-218092D01*
Y-218546D01*
Y-218999D01*
Y-219453D01*
Y-219907D01*
Y-220360D01*
Y-220814D01*
Y-221267D01*
Y-221721D01*
Y-222174D01*
Y-222628D01*
Y-223081D01*
Y-223535D01*
Y-223988D01*
Y-224442D01*
Y-224896D01*
Y-225349D01*
Y-225803D01*
Y-226256D01*
Y-226710D01*
Y-227163D01*
Y-227617D01*
Y-228071D01*
Y-228524D01*
Y-228978D01*
Y-229431D01*
Y-229885D01*
Y-230338D01*
Y-230792D01*
Y-231245D01*
Y-231699D01*
Y-232153D01*
Y-232606D01*
Y-233060D01*
Y-233513D01*
Y-233967D01*
Y-234420D01*
Y-234874D01*
Y-235327D01*
Y-235781D01*
Y-236234D01*
Y-236688D01*
Y-237142D01*
Y-237595D01*
Y-238049D01*
Y-238502D01*
X997732D01*
Y-238049D01*
Y-237595D01*
Y-237142D01*
Y-236688D01*
Y-236234D01*
Y-235781D01*
Y-235327D01*
Y-234874D01*
Y-234420D01*
Y-233967D01*
Y-233513D01*
Y-233060D01*
Y-232606D01*
Y-232153D01*
Y-231699D01*
Y-231245D01*
Y-230792D01*
Y-230338D01*
Y-229885D01*
Y-229431D01*
Y-228978D01*
Y-228524D01*
Y-228071D01*
Y-227617D01*
Y-227163D01*
Y-226710D01*
Y-226256D01*
Y-225803D01*
Y-225349D01*
Y-224896D01*
Y-224442D01*
Y-223988D01*
Y-223535D01*
Y-223081D01*
Y-222628D01*
Y-222174D01*
Y-221721D01*
Y-221267D01*
Y-220814D01*
Y-220360D01*
Y-219907D01*
Y-219453D01*
Y-218999D01*
Y-218546D01*
Y-218092D01*
Y-217639D01*
Y-217185D01*
Y-216732D01*
Y-216278D01*
Y-215825D01*
Y-215371D01*
Y-214917D01*
Y-214464D01*
Y-214010D01*
Y-213557D01*
Y-213103D01*
Y-212650D01*
Y-212196D01*
Y-211742D01*
Y-211289D01*
Y-210835D01*
Y-210382D01*
Y-209928D01*
Y-209475D01*
Y-209021D01*
Y-208568D01*
Y-208114D01*
Y-207661D01*
Y-207207D01*
Y-206753D01*
Y-206300D01*
Y-205846D01*
Y-205393D01*
Y-204939D01*
Y-204486D01*
Y-204032D01*
Y-203578D01*
Y-203125D01*
Y-202671D01*
Y-202218D01*
Y-201764D01*
Y-201311D01*
Y-200857D01*
Y-200404D01*
Y-199950D01*
Y-199496D01*
Y-199043D01*
Y-198589D01*
Y-198136D01*
Y-197682D01*
Y-197229D01*
Y-196775D01*
Y-196322D01*
Y-195868D01*
Y-195414D01*
Y-194961D01*
Y-194507D01*
Y-194054D01*
Y-193600D01*
Y-193147D01*
Y-192693D01*
Y-192240D01*
Y-191786D01*
Y-191332D01*
Y-190879D01*
Y-190425D01*
Y-189972D01*
Y-189518D01*
Y-189065D01*
Y-188611D01*
Y-188158D01*
Y-187704D01*
Y-187250D01*
Y-186797D01*
Y-186343D01*
Y-185890D01*
Y-185436D01*
Y-184983D01*
Y-184529D01*
Y-184076D01*
Y-183622D01*
Y-183168D01*
Y-182715D01*
Y-182261D01*
Y-181808D01*
Y-181354D01*
Y-180901D01*
Y-180447D01*
Y-179993D01*
Y-179540D01*
Y-179086D01*
Y-178633D01*
Y-178179D01*
Y-177726D01*
Y-177272D01*
Y-176819D01*
X1009071D01*
Y-177272D01*
D02*
G37*
G36*
X1045355Y-194054D02*
X1047623D01*
Y-194507D01*
X1048984D01*
Y-194961D01*
X1050344D01*
Y-195414D01*
X1051252D01*
Y-195868D01*
X1052159D01*
Y-196322D01*
X1053066D01*
Y-196775D01*
X1053973D01*
Y-197229D01*
X1054426D01*
Y-197682D01*
X1055333D01*
Y-198136D01*
X1055787D01*
Y-198589D01*
X1056241D01*
Y-199043D01*
X1056694D01*
Y-199496D01*
X1057148D01*
Y-199950D01*
X1057601D01*
Y-200404D01*
X1058055D01*
Y-200857D01*
X1058508D01*
Y-201311D01*
X1058962D01*
Y-201764D01*
Y-202218D01*
X1059416D01*
Y-202671D01*
X1059869D01*
Y-203125D01*
Y-203578D01*
X1060323D01*
Y-204032D01*
Y-204486D01*
X1060776D01*
Y-204939D01*
Y-205393D01*
X1061230D01*
Y-205846D01*
Y-206300D01*
X1061683D01*
Y-206753D01*
Y-207207D01*
Y-207661D01*
X1062137D01*
Y-208114D01*
Y-208568D01*
Y-209021D01*
Y-209475D01*
Y-209928D01*
X1062590D01*
Y-210382D01*
Y-210835D01*
Y-211289D01*
Y-211742D01*
Y-212196D01*
Y-212650D01*
Y-213103D01*
X1063044D01*
Y-213557D01*
Y-214010D01*
Y-214464D01*
Y-214917D01*
Y-215371D01*
Y-215825D01*
Y-216278D01*
Y-216732D01*
Y-217185D01*
Y-217639D01*
Y-218092D01*
Y-218546D01*
Y-218999D01*
Y-219453D01*
Y-219907D01*
X1062590D01*
Y-220360D01*
Y-220814D01*
Y-221267D01*
Y-221721D01*
Y-222174D01*
Y-222628D01*
Y-223081D01*
X1062137D01*
Y-223535D01*
Y-223988D01*
Y-224442D01*
Y-224896D01*
X1061683D01*
Y-225349D01*
Y-225803D01*
Y-226256D01*
X1061230D01*
Y-226710D01*
Y-227163D01*
Y-227617D01*
X1060776D01*
Y-228071D01*
Y-228524D01*
X1060323D01*
Y-228978D01*
Y-229431D01*
X1059869D01*
Y-229885D01*
Y-230338D01*
X1059416D01*
Y-230792D01*
X1058962D01*
Y-231245D01*
X1058508D01*
Y-231699D01*
Y-232153D01*
X1058055D01*
Y-232606D01*
X1057601D01*
Y-233060D01*
X1057148D01*
Y-233513D01*
X1056694D01*
Y-233967D01*
X1056241D01*
Y-234420D01*
X1055787D01*
Y-234874D01*
X1054880D01*
Y-235327D01*
X1054426D01*
Y-235781D01*
X1053519D01*
Y-236234D01*
X1053066D01*
Y-236688D01*
X1052159D01*
Y-237142D01*
X1051252D01*
Y-237595D01*
X1049891D01*
Y-238049D01*
X1048530D01*
Y-238502D01*
X1047169D01*
Y-238956D01*
X1044902D01*
Y-239409D01*
X1035377D01*
Y-238956D01*
X1032656D01*
Y-238502D01*
X1030841D01*
Y-238049D01*
X1029934D01*
Y-237595D01*
X1028574D01*
Y-237142D01*
X1027667D01*
Y-236688D01*
X1026759D01*
Y-236234D01*
X1026306D01*
Y-235781D01*
X1025399D01*
Y-235327D01*
X1024945D01*
Y-234874D01*
X1024038D01*
Y-234420D01*
X1023585D01*
Y-233967D01*
X1023131D01*
Y-233513D01*
X1022678D01*
Y-233060D01*
X1022224D01*
Y-232606D01*
X1021770D01*
Y-232153D01*
X1021317D01*
Y-231699D01*
Y-231245D01*
X1020863D01*
Y-230792D01*
X1020410D01*
Y-230338D01*
X1019956D01*
Y-229885D01*
Y-229431D01*
X1019503D01*
Y-228978D01*
Y-228524D01*
X1019049D01*
Y-228071D01*
Y-227617D01*
X1018595D01*
Y-227163D01*
Y-226710D01*
Y-226256D01*
X1018142D01*
Y-225803D01*
Y-225349D01*
Y-224896D01*
X1017688D01*
Y-224442D01*
Y-223988D01*
Y-223535D01*
Y-223081D01*
X1017235D01*
Y-222628D01*
Y-222174D01*
Y-221721D01*
Y-221267D01*
Y-220814D01*
Y-220360D01*
Y-219907D01*
Y-219453D01*
X1016781D01*
Y-218999D01*
Y-218546D01*
Y-218092D01*
Y-217639D01*
Y-217185D01*
Y-216732D01*
Y-216278D01*
Y-215825D01*
Y-215371D01*
Y-214917D01*
Y-214464D01*
Y-214010D01*
Y-213557D01*
X1017235D01*
Y-213103D01*
Y-212650D01*
Y-212196D01*
Y-211742D01*
Y-211289D01*
Y-210835D01*
Y-210382D01*
Y-209928D01*
X1017688D01*
Y-209475D01*
Y-209021D01*
Y-208568D01*
Y-208114D01*
X1018142D01*
Y-207661D01*
Y-207207D01*
Y-206753D01*
X1018595D01*
Y-206300D01*
Y-205846D01*
Y-205393D01*
X1019049D01*
Y-204939D01*
Y-204486D01*
X1019503D01*
Y-204032D01*
Y-203578D01*
X1019956D01*
Y-203125D01*
Y-202671D01*
X1020410D01*
Y-202218D01*
X1020863D01*
Y-201764D01*
Y-201311D01*
X1021317D01*
Y-200857D01*
X1021770D01*
Y-200404D01*
X1022224D01*
Y-199950D01*
X1022678D01*
Y-199496D01*
X1023131D01*
Y-199043D01*
X1023585D01*
Y-198589D01*
X1024038D01*
Y-198136D01*
X1024492D01*
Y-197682D01*
X1025399D01*
Y-197229D01*
X1025852D01*
Y-196775D01*
X1026759D01*
Y-196322D01*
X1027667D01*
Y-195868D01*
X1028574D01*
Y-195414D01*
X1029481D01*
Y-194961D01*
X1030841D01*
Y-194507D01*
X1032202D01*
Y-194054D01*
X1034470D01*
Y-193600D01*
X1045355D01*
Y-194054D01*
D02*
G37*
G36*
X1111121Y-194961D02*
X1110667D01*
Y-195414D01*
Y-195868D01*
X1110214D01*
Y-196322D01*
X1109760D01*
Y-196775D01*
X1109307D01*
Y-197229D01*
Y-197682D01*
X1108853D01*
Y-198136D01*
X1108400D01*
Y-198589D01*
Y-199043D01*
X1107946D01*
Y-199496D01*
X1107492D01*
Y-199950D01*
X1107039D01*
Y-200404D01*
Y-200857D01*
X1106585D01*
Y-201311D01*
X1106132D01*
Y-201764D01*
X1105678D01*
Y-202218D01*
Y-202671D01*
X1105225D01*
Y-203125D01*
X1104771D01*
Y-203578D01*
X1104317D01*
Y-204032D01*
Y-204486D01*
X1103864D01*
Y-204939D01*
X1103410D01*
Y-205393D01*
Y-205846D01*
X1102957D01*
Y-206300D01*
X1102503D01*
Y-206753D01*
X1102050D01*
Y-207207D01*
Y-207661D01*
X1101596D01*
Y-208114D01*
X1101143D01*
Y-208568D01*
X1100689D01*
Y-209021D01*
Y-209475D01*
X1100236D01*
Y-209928D01*
X1099782D01*
Y-210382D01*
Y-210835D01*
X1099328D01*
Y-211289D01*
X1098875D01*
Y-211742D01*
X1098421D01*
Y-212196D01*
Y-212650D01*
X1097968D01*
Y-213103D01*
X1097514D01*
Y-213557D01*
X1097061D01*
Y-214010D01*
Y-214464D01*
X1096607D01*
Y-214917D01*
X1096153D01*
Y-215371D01*
X1095700D01*
Y-215825D01*
Y-216278D01*
Y-216732D01*
X1096153D01*
Y-217185D01*
Y-217639D01*
X1096607D01*
Y-218092D01*
X1097061D01*
Y-218546D01*
X1097514D01*
Y-218999D01*
Y-219453D01*
X1097968D01*
Y-219907D01*
X1098421D01*
Y-220360D01*
X1098875D01*
Y-220814D01*
Y-221267D01*
X1099328D01*
Y-221721D01*
X1099782D01*
Y-222174D01*
Y-222628D01*
X1100236D01*
Y-223081D01*
X1100689D01*
Y-223535D01*
X1101143D01*
Y-223988D01*
Y-224442D01*
X1101596D01*
Y-224896D01*
X1102050D01*
Y-225349D01*
X1102503D01*
Y-225803D01*
Y-226256D01*
X1102957D01*
Y-226710D01*
X1103410D01*
Y-227163D01*
X1103864D01*
Y-227617D01*
Y-228071D01*
X1104317D01*
Y-228524D01*
X1104771D01*
Y-228978D01*
X1105225D01*
Y-229431D01*
Y-229885D01*
X1105678D01*
Y-230338D01*
X1106132D01*
Y-230792D01*
X1106585D01*
Y-231245D01*
Y-231699D01*
X1107039D01*
Y-232153D01*
X1107492D01*
Y-232606D01*
X1107946D01*
Y-233060D01*
Y-233513D01*
X1108400D01*
Y-233967D01*
X1108853D01*
Y-234420D01*
Y-234874D01*
X1109307D01*
Y-235327D01*
X1109760D01*
Y-235781D01*
X1110214D01*
Y-236234D01*
Y-236688D01*
X1110667D01*
Y-237142D01*
X1111121D01*
Y-237595D01*
X1111574D01*
Y-238049D01*
X1112028D01*
Y-238502D01*
X1097514D01*
Y-238049D01*
Y-237595D01*
X1097061D01*
Y-237142D01*
X1096607D01*
Y-236688D01*
X1096153D01*
Y-236234D01*
Y-235781D01*
X1095700D01*
Y-235327D01*
X1095246D01*
Y-234874D01*
X1094793D01*
Y-234420D01*
Y-233967D01*
X1094339D01*
Y-233513D01*
X1093886D01*
Y-233060D01*
Y-232606D01*
X1093432D01*
Y-232153D01*
X1092979D01*
Y-231699D01*
X1092525D01*
Y-231245D01*
Y-230792D01*
X1092072D01*
Y-230338D01*
X1091618D01*
Y-229885D01*
X1091164D01*
Y-229431D01*
Y-228978D01*
X1090711D01*
Y-228524D01*
X1090257D01*
Y-228071D01*
Y-227617D01*
X1089804D01*
Y-227163D01*
X1089350D01*
Y-226710D01*
X1088897D01*
Y-226256D01*
Y-225803D01*
X1088443D01*
Y-225349D01*
X1087990D01*
Y-224896D01*
X1087536D01*
Y-224442D01*
X1087082D01*
Y-224896D01*
Y-225349D01*
X1086629D01*
Y-225803D01*
X1086175D01*
Y-226256D01*
X1085722D01*
Y-226710D01*
Y-227163D01*
X1085268D01*
Y-227617D01*
X1084815D01*
Y-228071D01*
Y-228524D01*
X1084361D01*
Y-228978D01*
X1083907D01*
Y-229431D01*
X1083454D01*
Y-229885D01*
Y-230338D01*
X1083000D01*
Y-230792D01*
X1082547D01*
Y-231245D01*
Y-231699D01*
X1082093D01*
Y-232153D01*
X1081640D01*
Y-232606D01*
X1081186D01*
Y-233060D01*
Y-233513D01*
X1080733D01*
Y-233967D01*
X1080279D01*
Y-234420D01*
Y-234874D01*
X1079826D01*
Y-235327D01*
X1079372D01*
Y-235781D01*
X1078918D01*
Y-236234D01*
Y-236688D01*
X1078465D01*
Y-237142D01*
X1078011D01*
Y-237595D01*
Y-238049D01*
X1077558D01*
Y-238502D01*
X1064405D01*
Y-238049D01*
X1064858D01*
Y-237595D01*
X1065312D01*
Y-237142D01*
Y-236688D01*
X1065765D01*
Y-236234D01*
X1066219D01*
Y-235781D01*
X1066672D01*
Y-235327D01*
Y-234874D01*
X1067126D01*
Y-234420D01*
X1067579D01*
Y-233967D01*
Y-233513D01*
X1068033D01*
Y-233060D01*
X1068487D01*
Y-232606D01*
X1068940D01*
Y-232153D01*
X1069394D01*
Y-231699D01*
Y-231245D01*
X1069847D01*
Y-230792D01*
X1070301D01*
Y-230338D01*
Y-229885D01*
X1070754D01*
Y-229431D01*
X1071208D01*
Y-228978D01*
X1071662D01*
Y-228524D01*
Y-228071D01*
X1072115D01*
Y-227617D01*
X1072569D01*
Y-227163D01*
X1073022D01*
Y-226710D01*
Y-226256D01*
X1073476D01*
Y-225803D01*
X1073929D01*
Y-225349D01*
X1074383D01*
Y-224896D01*
Y-224442D01*
X1074836D01*
Y-223988D01*
X1075290D01*
Y-223535D01*
X1075743D01*
Y-223081D01*
Y-222628D01*
X1076197D01*
Y-222174D01*
X1076651D01*
Y-221721D01*
X1077104D01*
Y-221267D01*
Y-220814D01*
X1077558D01*
Y-220360D01*
X1078011D01*
Y-219907D01*
X1078465D01*
Y-219453D01*
Y-218999D01*
X1078918D01*
Y-218546D01*
X1079372D01*
Y-218092D01*
Y-217639D01*
X1079826D01*
Y-217185D01*
X1080279D01*
Y-216732D01*
X1080733D01*
Y-216278D01*
Y-215825D01*
X1080279D01*
Y-215371D01*
X1079826D01*
Y-214917D01*
X1079372D01*
Y-214464D01*
Y-214010D01*
X1078918D01*
Y-213557D01*
X1078465D01*
Y-213103D01*
X1078011D01*
Y-212650D01*
Y-212196D01*
X1077558D01*
Y-211742D01*
X1077104D01*
Y-211289D01*
Y-210835D01*
X1076651D01*
Y-210382D01*
X1076197D01*
Y-209928D01*
X1075743D01*
Y-209475D01*
Y-209021D01*
X1075290D01*
Y-208568D01*
X1074836D01*
Y-208114D01*
X1074383D01*
Y-207661D01*
Y-207207D01*
X1073929D01*
Y-206753D01*
X1073476D01*
Y-206300D01*
Y-205846D01*
X1073022D01*
Y-205393D01*
X1072569D01*
Y-204939D01*
X1072115D01*
Y-204486D01*
Y-204032D01*
X1071662D01*
Y-203578D01*
X1071208D01*
Y-203125D01*
X1070754D01*
Y-202671D01*
Y-202218D01*
X1070301D01*
Y-201764D01*
X1069847D01*
Y-201311D01*
Y-200857D01*
X1069394D01*
Y-200404D01*
X1068940D01*
Y-199950D01*
X1068487D01*
Y-199496D01*
Y-199043D01*
X1068033D01*
Y-198589D01*
X1067579D01*
Y-198136D01*
X1067126D01*
Y-197682D01*
Y-197229D01*
X1066672D01*
Y-196775D01*
X1066219D01*
Y-196322D01*
Y-195868D01*
X1065765D01*
Y-195414D01*
X1065312D01*
Y-194961D01*
X1064858D01*
Y-194507D01*
X1078918D01*
Y-194961D01*
X1079372D01*
Y-195414D01*
X1079826D01*
Y-195868D01*
Y-196322D01*
X1080279D01*
Y-196775D01*
X1080733D01*
Y-197229D01*
X1081186D01*
Y-197682D01*
Y-198136D01*
X1081640D01*
Y-198589D01*
X1082093D01*
Y-199043D01*
Y-199496D01*
X1082547D01*
Y-199950D01*
X1083000D01*
Y-200404D01*
Y-200857D01*
X1083454D01*
Y-201311D01*
X1083907D01*
Y-201764D01*
X1084361D01*
Y-202218D01*
Y-202671D01*
X1084815D01*
Y-203125D01*
X1085268D01*
Y-203578D01*
Y-204032D01*
X1085722D01*
Y-204486D01*
X1086175D01*
Y-204939D01*
X1086629D01*
Y-205393D01*
Y-205846D01*
X1087082D01*
Y-206300D01*
X1087536D01*
Y-206753D01*
Y-207207D01*
X1087990D01*
Y-207661D01*
X1088443D01*
Y-208114D01*
X1088897D01*
Y-207661D01*
X1089350D01*
Y-207207D01*
Y-206753D01*
X1089804D01*
Y-206300D01*
X1090257D01*
Y-205846D01*
X1090711D01*
Y-205393D01*
Y-204939D01*
X1091164D01*
Y-204486D01*
X1091618D01*
Y-204032D01*
Y-203578D01*
X1092072D01*
Y-203125D01*
X1092525D01*
Y-202671D01*
X1092979D01*
Y-202218D01*
Y-201764D01*
X1093432D01*
Y-201311D01*
X1093886D01*
Y-200857D01*
Y-200404D01*
X1094339D01*
Y-199950D01*
X1094793D01*
Y-199496D01*
X1095246D01*
Y-199043D01*
Y-198589D01*
X1095700D01*
Y-198136D01*
X1096153D01*
Y-197682D01*
Y-197229D01*
X1096607D01*
Y-196775D01*
X1097061D01*
Y-196322D01*
X1097514D01*
Y-195868D01*
Y-195414D01*
X1097968D01*
Y-194961D01*
X1098421D01*
Y-194507D01*
X1111121D01*
Y-194961D01*
D02*
G37*
%LPC*%
G36*
X873457Y-173644D02*
X871190D01*
Y-174097D01*
X869376D01*
Y-174551D01*
X868468D01*
Y-175004D01*
X867561D01*
Y-175458D01*
X866654D01*
Y-175912D01*
X866201D01*
Y-176365D01*
X865747D01*
Y-176819D01*
X865294D01*
Y-177272D01*
X864840D01*
Y-177726D01*
Y-178179D01*
X864386D01*
Y-178633D01*
X863933D01*
Y-179086D01*
Y-179540D01*
X863479D01*
Y-179993D01*
Y-180447D01*
Y-180901D01*
Y-181354D01*
X863026D01*
Y-181808D01*
Y-182261D01*
Y-182715D01*
Y-183168D01*
Y-183622D01*
Y-184076D01*
Y-184529D01*
Y-184983D01*
X863479D01*
Y-185436D01*
Y-185890D01*
Y-186343D01*
X863933D01*
Y-186797D01*
Y-187250D01*
X864386D01*
Y-187704D01*
Y-188158D01*
X864840D01*
Y-188611D01*
X865294D01*
Y-189065D01*
X865747D01*
Y-189518D01*
X866201D01*
Y-189972D01*
X866654D01*
Y-190425D01*
X867108D01*
Y-190879D01*
X868015D01*
Y-191332D01*
X868922D01*
Y-191786D01*
X870283D01*
Y-192240D01*
X874365D01*
Y-191786D01*
X875725D01*
Y-191332D01*
X876632D01*
Y-190879D01*
X877540D01*
Y-190425D01*
X877993D01*
Y-189972D01*
X878447D01*
Y-189518D01*
X879354D01*
Y-189065D01*
Y-188611D01*
X879807D01*
Y-188158D01*
X880261D01*
Y-187704D01*
Y-187250D01*
X880714D01*
Y-186797D01*
Y-186343D01*
X881168D01*
Y-185890D01*
Y-185436D01*
Y-184983D01*
X881622D01*
Y-184529D01*
Y-184076D01*
Y-183622D01*
Y-183168D01*
Y-182715D01*
Y-182261D01*
Y-181808D01*
Y-181354D01*
X881168D01*
Y-180901D01*
Y-180447D01*
Y-179993D01*
Y-179540D01*
X880714D01*
Y-179086D01*
Y-178633D01*
X880261D01*
Y-178179D01*
Y-177726D01*
X879807D01*
Y-177272D01*
X879354D01*
Y-176819D01*
X878900D01*
Y-176365D01*
X878447D01*
Y-175912D01*
X877993D01*
Y-175458D01*
X877086D01*
Y-175004D01*
X876632D01*
Y-174551D01*
X875272D01*
Y-174097D01*
X873457D01*
Y-173644D01*
D02*
G37*
G36*
X968251Y-203578D02*
X964169D01*
Y-204032D01*
X962355D01*
Y-204486D01*
X960994D01*
Y-204939D01*
X960087D01*
Y-205393D01*
X959633D01*
Y-205846D01*
X958726D01*
Y-206300D01*
X958272D01*
Y-206753D01*
X957819D01*
Y-207207D01*
Y-207661D01*
X957365D01*
Y-208114D01*
X956912D01*
Y-208568D01*
Y-209021D01*
X956458D01*
Y-209475D01*
Y-209928D01*
X956005D01*
Y-210382D01*
Y-210835D01*
Y-211289D01*
X955551D01*
Y-211742D01*
Y-212196D01*
Y-212650D01*
Y-213103D01*
Y-213557D01*
X955098D01*
Y-214010D01*
Y-214464D01*
Y-214917D01*
Y-215371D01*
Y-215825D01*
Y-216278D01*
Y-216732D01*
Y-217185D01*
Y-217639D01*
Y-218092D01*
Y-218546D01*
Y-218999D01*
Y-219453D01*
X955551D01*
Y-219907D01*
Y-220360D01*
Y-220814D01*
Y-221267D01*
Y-221721D01*
X956005D01*
Y-222174D01*
Y-222628D01*
Y-223081D01*
X956458D01*
Y-223535D01*
Y-223988D01*
X956912D01*
Y-224442D01*
Y-224896D01*
X957365D01*
Y-225349D01*
X957819D01*
Y-225803D01*
X958272D01*
Y-226256D01*
X958726D01*
Y-226710D01*
X959180D01*
Y-227163D01*
X959633D01*
Y-227617D01*
X960540D01*
Y-228071D01*
X961447D01*
Y-228524D01*
X962355D01*
Y-228978D01*
X964622D01*
Y-229431D01*
X967797D01*
Y-228978D01*
X970065D01*
Y-228524D01*
X971426D01*
Y-228071D01*
X972333D01*
Y-227617D01*
X972786D01*
Y-227163D01*
X973693D01*
Y-226710D01*
X974147D01*
Y-226256D01*
X974601D01*
Y-225803D01*
X975054D01*
Y-225349D01*
Y-224896D01*
X975508D01*
Y-224442D01*
X975961D01*
Y-223988D01*
Y-223535D01*
X976415D01*
Y-223081D01*
Y-222628D01*
Y-222174D01*
X976868D01*
Y-221721D01*
Y-221267D01*
Y-220814D01*
Y-220360D01*
X977322D01*
Y-219907D01*
Y-219453D01*
Y-218999D01*
Y-218546D01*
Y-218092D01*
Y-217639D01*
Y-217185D01*
Y-216732D01*
Y-216278D01*
Y-215825D01*
Y-215371D01*
Y-214917D01*
Y-214464D01*
Y-214010D01*
Y-213557D01*
Y-213103D01*
Y-212650D01*
Y-212196D01*
X976868D01*
Y-211742D01*
Y-211289D01*
Y-210835D01*
Y-210382D01*
X976415D01*
Y-209928D01*
Y-209475D01*
X975961D01*
Y-209021D01*
Y-208568D01*
X975508D01*
Y-208114D01*
Y-207661D01*
X975054D01*
Y-207207D01*
X974601D01*
Y-206753D01*
X974147D01*
Y-206300D01*
X973693D01*
Y-205846D01*
X973240D01*
Y-205393D01*
X972333D01*
Y-204939D01*
X971426D01*
Y-204486D01*
X970518D01*
Y-204032D01*
X968251D01*
Y-203578D01*
D02*
G37*
G36*
X1042180D02*
X1037645D01*
Y-204032D01*
X1035831D01*
Y-204486D01*
X1034470D01*
Y-204939D01*
X1033563D01*
Y-205393D01*
X1033109D01*
Y-205846D01*
X1032656D01*
Y-206300D01*
X1032202D01*
Y-206753D01*
X1031749D01*
Y-207207D01*
X1031295D01*
Y-207661D01*
X1030841D01*
Y-208114D01*
X1030388D01*
Y-208568D01*
Y-209021D01*
X1029934D01*
Y-209475D01*
Y-209928D01*
X1029481D01*
Y-210382D01*
Y-210835D01*
Y-211289D01*
X1029027D01*
Y-211742D01*
Y-212196D01*
Y-212650D01*
Y-213103D01*
Y-213557D01*
Y-214010D01*
Y-214464D01*
X1028574D01*
Y-214917D01*
Y-215371D01*
Y-215825D01*
Y-216278D01*
Y-216732D01*
Y-217185D01*
Y-217639D01*
Y-218092D01*
X1029027D01*
Y-218546D01*
Y-218999D01*
Y-219453D01*
Y-219907D01*
Y-220360D01*
Y-220814D01*
Y-221267D01*
X1029481D01*
Y-221721D01*
Y-222174D01*
Y-222628D01*
X1029934D01*
Y-223081D01*
Y-223535D01*
Y-223988D01*
X1030388D01*
Y-224442D01*
X1030841D01*
Y-224896D01*
Y-225349D01*
X1031295D01*
Y-225803D01*
X1031749D01*
Y-226256D01*
X1032202D01*
Y-226710D01*
X1032656D01*
Y-227163D01*
X1033109D01*
Y-227617D01*
X1034016D01*
Y-228071D01*
X1034923D01*
Y-228524D01*
X1036284D01*
Y-228978D01*
X1038552D01*
Y-229431D01*
X1041273D01*
Y-228978D01*
X1043541D01*
Y-228524D01*
X1044902D01*
Y-228071D01*
X1045809D01*
Y-227617D01*
X1046716D01*
Y-227163D01*
X1047169D01*
Y-226710D01*
X1047623D01*
Y-226256D01*
X1048077D01*
Y-225803D01*
X1048530D01*
Y-225349D01*
X1048984D01*
Y-224896D01*
Y-224442D01*
X1049437D01*
Y-223988D01*
X1049891D01*
Y-223535D01*
Y-223081D01*
Y-222628D01*
X1050344D01*
Y-222174D01*
Y-221721D01*
Y-221267D01*
X1050798D01*
Y-220814D01*
Y-220360D01*
Y-219907D01*
Y-219453D01*
Y-218999D01*
X1051252D01*
Y-218546D01*
Y-218092D01*
Y-217639D01*
Y-217185D01*
Y-216732D01*
Y-216278D01*
Y-215825D01*
Y-215371D01*
Y-214917D01*
Y-214464D01*
Y-214010D01*
X1050798D01*
Y-213557D01*
Y-213103D01*
Y-212650D01*
Y-212196D01*
Y-211742D01*
Y-211289D01*
X1050344D01*
Y-210835D01*
Y-210382D01*
Y-209928D01*
X1049891D01*
Y-209475D01*
Y-209021D01*
X1049437D01*
Y-208568D01*
Y-208114D01*
X1048984D01*
Y-207661D01*
X1048530D01*
Y-207207D01*
X1048077D01*
Y-206753D01*
X1047623D01*
Y-206300D01*
X1047169D01*
Y-205846D01*
X1046716D01*
Y-205393D01*
X1045809D01*
Y-204939D01*
X1045355D01*
Y-204486D01*
X1043995D01*
Y-204032D01*
X1042180D01*
Y-203578D01*
D02*
G37*
%LPD*%
D10*
X2227580Y1448258D02*
Y1524508D01*
X2057400Y1448258D02*
Y1524508D01*
X1562100Y1448258D02*
Y1524508D01*
X1470660Y1448258D02*
Y1524508D01*
Y1448258D02*
X2344420D01*
X1470660Y1486358D02*
X2344360D01*
X1582360Y-165262D02*
Y-128686D01*
X1201360D02*
X1582360D01*
X772160D02*
X1201360D01*
X1582360Y-317662D02*
Y-165262D01*
X2115760Y-317662D02*
Y-187868D01*
X1201360Y-317662D02*
Y-128686D01*
X2344360Y-317662D02*
Y-128686D01*
X1582360D02*
X2344360D01*
X1201360Y-187106D02*
X2344360D01*
X1201360Y-250352D02*
X2344360D01*
X1201360Y-317662D02*
X2344360D01*
X772160D02*
Y-128686D01*
Y-317662D02*
X1201360D01*
X2227580Y1524508D02*
Y1681988D01*
X2057400Y1524508D02*
Y1681988D01*
X1562100Y1524508D02*
Y1681988D01*
X1470660D02*
X2344360D01*
X1470660Y1600708D02*
X2344360D01*
X1470660Y1638808D02*
X2344420D01*
X1470660Y1562608D02*
X2344360D01*
X1470660Y1524508D02*
X2344420D01*
X1470660D02*
Y1740408D01*
X-398780Y-367792D02*
X2395220D01*
X2344360Y171288D02*
X2395160D01*
X2344360Y711038D02*
X2395160D01*
X2344360Y1250788D02*
X2395160D01*
X2344360Y-317662D02*
Y1739738D01*
X2395220Y-367792D02*
Y1791208D01*
X-398780D02*
X2395220D01*
X1696660Y1739738D02*
Y1790538D01*
X998160Y1739738D02*
Y1790538D01*
X299660Y1739738D02*
Y1790538D01*
X-348040Y1739738D02*
X2344360D01*
X1696660Y-368462D02*
Y-317662D01*
X998160Y-368462D02*
Y-317662D01*
X299660Y-368462D02*
Y-317662D01*
X-398840Y171288D02*
X-348040D01*
X-398840Y711038D02*
X-348040D01*
X-398840Y1250788D02*
X-348040D01*
X-398780Y-367792D02*
Y1791208D01*
X-348040Y-317662D02*
Y1739738D01*
Y-317662D02*
X2344360D01*
X1588202Y-207172D02*
Y-194476D01*
X1594550D01*
X1596666Y-196592D01*
Y-200824D01*
X1594550Y-202940D01*
X1588202D01*
X1609362Y-196592D02*
X1607246Y-194476D01*
X1603014D01*
X1600898Y-196592D01*
Y-205056D01*
X1603014Y-207172D01*
X1607246D01*
X1609362Y-205056D01*
X1613594Y-194476D02*
Y-207172D01*
X1619942D01*
X1622058Y-205056D01*
Y-202940D01*
X1619942Y-200824D01*
X1613594D01*
X1619942D01*
X1622058Y-198708D01*
Y-196592D01*
X1619942Y-194476D01*
X1613594D01*
X1638985Y-207172D02*
Y-194476D01*
X1647449Y-207172D01*
Y-194476D01*
X1651681Y-207172D02*
Y-198708D01*
X1655913Y-194476D01*
X1660145Y-198708D01*
Y-207172D01*
Y-200824D01*
X1651681D01*
X1664377Y-207172D02*
Y-194476D01*
X1668609Y-198708D01*
X1672841Y-194476D01*
Y-207172D01*
X1685537Y-194476D02*
X1677073D01*
Y-207172D01*
X1685537D01*
X1677073Y-200824D02*
X1681305D01*
X1689769Y-198708D02*
X1691885D01*
Y-200824D01*
X1689769D01*
Y-198708D01*
Y-205056D02*
X1691885D01*
Y-207172D01*
X1689769D01*
Y-205056D01*
X2128542Y-262632D02*
X2126426Y-260516D01*
X2122194D01*
X2120078Y-262632D01*
Y-264748D01*
X2122194Y-266864D01*
X2126426D01*
X2128542Y-268980D01*
Y-271096D01*
X2126426Y-273212D01*
X2122194D01*
X2120078Y-271096D01*
X2141238Y-262632D02*
X2139122Y-260516D01*
X2134890D01*
X2132774Y-262632D01*
Y-271096D01*
X2134890Y-273212D01*
X2139122D01*
X2141238Y-271096D01*
X2145470Y-273212D02*
Y-264748D01*
X2149702Y-260516D01*
X2153934Y-264748D01*
Y-273212D01*
Y-266864D01*
X2145470D01*
X2158166Y-260516D02*
Y-273212D01*
X2166630D01*
X2179326Y-260516D02*
X2170862D01*
Y-273212D01*
X2179326D01*
X2170862Y-266864D02*
X2175094D01*
X2183557Y-264748D02*
X2185673D01*
Y-266864D01*
X2183557D01*
Y-264748D01*
Y-271096D02*
X2185673D01*
Y-273212D01*
X2183557D01*
Y-271096D01*
X1595964Y-258576D02*
X1587500D01*
Y-264924D01*
X1591732D01*
X1587500D01*
Y-271272D01*
X1600196Y-258576D02*
X1604428D01*
X1602312D01*
Y-271272D01*
X1600196D01*
X1604428D01*
X1610776Y-258576D02*
Y-271272D01*
X1619240D01*
X1631936Y-258576D02*
X1623472D01*
Y-271272D01*
X1631936D01*
X1623472Y-264924D02*
X1627704D01*
X1648864Y-271272D02*
Y-258576D01*
X1657327Y-271272D01*
Y-258576D01*
X1661559Y-271272D02*
Y-262808D01*
X1665791Y-258576D01*
X1670023Y-262808D01*
Y-271272D01*
Y-264924D01*
X1661559D01*
X1674255Y-271272D02*
Y-258576D01*
X1678487Y-262808D01*
X1682719Y-258576D01*
Y-271272D01*
X1695415Y-258576D02*
X1686951D01*
Y-271272D01*
X1695415D01*
X1686951Y-264924D02*
X1691183D01*
X1699647Y-262808D02*
X1701763D01*
Y-264924D01*
X1699647D01*
Y-262808D01*
Y-269156D02*
X1701763D01*
Y-271272D01*
X1699647D01*
Y-269156D01*
X1589472Y-152816D02*
Y-140120D01*
X1595820D01*
X1597936Y-142236D01*
Y-146468D01*
X1595820Y-148584D01*
X1589472D01*
X1602168Y-152816D02*
Y-140120D01*
X1608516D01*
X1610632Y-142236D01*
Y-146468D01*
X1608516Y-148584D01*
X1602168D01*
X1606400D02*
X1610632Y-152816D01*
X1621212Y-140120D02*
X1616980D01*
X1614864Y-142236D01*
Y-150700D01*
X1616980Y-152816D01*
X1621212D01*
X1623328Y-150700D01*
Y-142236D01*
X1621212Y-140120D01*
X1636024D02*
X1631792D01*
X1633908D01*
Y-150700D01*
X1631792Y-152816D01*
X1629676D01*
X1627560Y-150700D01*
X1648719Y-140120D02*
X1640255D01*
Y-152816D01*
X1648719D01*
X1640255Y-146468D02*
X1644487D01*
X1661415Y-142236D02*
X1659299Y-140120D01*
X1655067D01*
X1652951Y-142236D01*
Y-150700D01*
X1655067Y-152816D01*
X1659299D01*
X1661415Y-150700D01*
X1665647Y-140120D02*
X1674111D01*
X1669879D01*
Y-152816D01*
X1678343Y-144352D02*
X1680459D01*
Y-146468D01*
X1678343D01*
Y-144352D01*
Y-150700D02*
X1680459D01*
Y-152816D01*
X1678343D01*
Y-150700D01*
X1212872Y-140374D02*
X1204408D01*
Y-153070D01*
X1212872D01*
X1204408Y-146722D02*
X1208640D01*
X1217104Y-153070D02*
Y-140374D01*
X1225568Y-153070D01*
Y-140374D01*
X1238264Y-142490D02*
X1236148Y-140374D01*
X1231916D01*
X1229800Y-142490D01*
Y-150954D01*
X1231916Y-153070D01*
X1236148D01*
X1238264Y-150954D01*
Y-146722D01*
X1234032D01*
X1242496Y-140374D02*
X1246728D01*
X1244612D01*
Y-153070D01*
X1242496D01*
X1246728D01*
X1253076D02*
Y-140374D01*
X1261540Y-153070D01*
Y-140374D01*
X1274235D02*
X1265771D01*
Y-153070D01*
X1274235D01*
X1265771Y-146722D02*
X1270003D01*
X1286931Y-140374D02*
X1278467D01*
Y-153070D01*
X1286931D01*
X1278467Y-146722D02*
X1282699D01*
X1291163Y-153070D02*
Y-140374D01*
X1297511D01*
X1299627Y-142490D01*
Y-146722D01*
X1297511Y-148838D01*
X1291163D01*
X1295395D02*
X1299627Y-153070D01*
X1303859Y-144606D02*
X1305975D01*
Y-146722D01*
X1303859D01*
Y-144606D01*
Y-150954D02*
X1305975D01*
Y-153070D01*
X1303859D01*
Y-150954D01*
X1206500Y-258576D02*
Y-271272D01*
X1212848D01*
X1214964Y-269156D01*
Y-260692D01*
X1212848Y-258576D01*
X1206500D01*
X1219196D02*
Y-271272D01*
X1223428Y-267040D01*
X1227660Y-271272D01*
Y-258576D01*
X1240356Y-260692D02*
X1238240Y-258576D01*
X1234008D01*
X1231892Y-260692D01*
Y-269156D01*
X1234008Y-271272D01*
X1238240D01*
X1240356Y-269156D01*
Y-264924D01*
X1236124D01*
X1257283Y-271272D02*
Y-258576D01*
X1265748Y-271272D01*
Y-258576D01*
X1276327D02*
X1272095D01*
X1269979Y-260692D01*
Y-269156D01*
X1272095Y-271272D01*
X1276327D01*
X1278443Y-269156D01*
Y-260692D01*
X1276327Y-258576D01*
X1282675Y-262808D02*
X1284791D01*
Y-264924D01*
X1282675D01*
Y-262808D01*
Y-269156D02*
X1284791D01*
Y-271272D01*
X1282675D01*
Y-269156D01*
X2121348Y-210474D02*
Y-197778D01*
X2127696D01*
X2129812Y-199894D01*
Y-204126D01*
X2127696Y-206242D01*
X2121348D01*
X2125580D02*
X2129812Y-210474D01*
X2142508Y-197778D02*
X2134044D01*
Y-210474D01*
X2142508D01*
X2134044Y-204126D02*
X2138276D01*
X2146740Y-197778D02*
Y-206242D01*
X2150972Y-210474D01*
X2155204Y-206242D01*
Y-197778D01*
X2159436Y-202010D02*
X2161552D01*
Y-204126D01*
X2159436D01*
Y-202010D01*
Y-208358D02*
X2161552D01*
Y-210474D01*
X2159436D01*
Y-208358D01*
X1205170Y-195492D02*
Y-208188D01*
X1211518D01*
X1213634Y-206072D01*
Y-197608D01*
X1211518Y-195492D01*
X1205170D01*
X1217866Y-208188D02*
Y-199724D01*
X1222098Y-195492D01*
X1226330Y-199724D01*
Y-208188D01*
Y-201840D01*
X1217866D01*
X1230562Y-195492D02*
X1239026D01*
X1234794D01*
Y-208188D01*
X1251722Y-195492D02*
X1243258D01*
Y-208188D01*
X1251722D01*
X1243258Y-201840D02*
X1247490D01*
X1255954Y-199724D02*
X1258070D01*
Y-201840D01*
X1255954D01*
Y-199724D01*
Y-206072D02*
X1258070D01*
Y-208188D01*
X1255954D01*
Y-206072D01*
X2111174Y-8263D02*
Y-18421D01*
Y-8263D02*
X2114560D01*
X2116011Y-8747D01*
X2116979Y-9714D01*
X2117462Y-10682D01*
X2117946Y-12133D01*
Y-14551D01*
X2117462Y-16003D01*
X2116979Y-16970D01*
X2116011Y-17937D01*
X2114560Y-18421D01*
X2111174D01*
X2120219Y-11649D02*
Y-18421D01*
Y-14551D02*
X2120703Y-13100D01*
X2121671Y-12133D01*
X2122638Y-11649D01*
X2124089D01*
X2125975Y-8263D02*
X2126459Y-8747D01*
X2126943Y-8263D01*
X2126459Y-7779D01*
X2125975Y-8263D01*
X2126459Y-11649D02*
Y-18421D01*
X2128733Y-8263D02*
Y-18421D01*
X2130861Y-8263D02*
Y-18421D01*
X2140970Y-8263D02*
Y-18421D01*
Y-8263D02*
X2144356D01*
X2145807Y-8747D01*
X2146775Y-9714D01*
X2147259Y-10682D01*
X2147742Y-12133D01*
Y-14551D01*
X2147259Y-16003D01*
X2146775Y-16970D01*
X2145807Y-17937D01*
X2144356Y-18421D01*
X2140970D01*
X2150016Y-11649D02*
Y-18421D01*
Y-14551D02*
X2150499Y-13100D01*
X2151467Y-12133D01*
X2152434Y-11649D01*
X2153885D01*
X2160609D02*
Y-18421D01*
Y-13100D02*
X2159641Y-12133D01*
X2158674Y-11649D01*
X2157223D01*
X2156255Y-12133D01*
X2155288Y-13100D01*
X2154804Y-14551D01*
Y-15519D01*
X2155288Y-16970D01*
X2156255Y-17937D01*
X2157223Y-18421D01*
X2158674D01*
X2159641Y-17937D01*
X2160609Y-16970D01*
X2163318Y-11649D02*
X2165252Y-18421D01*
X2167187Y-11649D02*
X2165252Y-18421D01*
X2167187Y-11649D02*
X2169122Y-18421D01*
X2171057Y-11649D02*
X2169122Y-18421D01*
X2174395Y-8263D02*
X2174878Y-8747D01*
X2175362Y-8263D01*
X2174878Y-7779D01*
X2174395Y-8263D01*
X2174878Y-11649D02*
Y-18421D01*
X2177152Y-11649D02*
Y-18421D01*
Y-13584D02*
X2178603Y-12133D01*
X2179570Y-11649D01*
X2181021D01*
X2181989Y-12133D01*
X2182472Y-13584D01*
Y-18421D01*
X2190937Y-11649D02*
Y-19388D01*
X2190453Y-20840D01*
X2189970Y-21323D01*
X2189002Y-21807D01*
X2187551D01*
X2186584Y-21323D01*
X2190937Y-13100D02*
X2189970Y-12133D01*
X2189002Y-11649D01*
X2187551D01*
X2186584Y-12133D01*
X2185616Y-13100D01*
X2185133Y-14551D01*
Y-15519D01*
X2185616Y-16970D01*
X2186584Y-17937D01*
X2187551Y-18421D01*
X2189002D01*
X2189970Y-17937D01*
X2190937Y-16970D01*
D14*
X2017194Y-103632D02*
Y643128D01*
X2304214D01*
Y-103632D02*
Y643128D01*
X2017194Y-103632D02*
X2304214D01*
X2057834Y605657D02*
X2253414D01*
X2253824Y1514294D02*
X2245360D01*
Y1501598D01*
X2253824D01*
X2245360Y1507946D02*
X2249592D01*
X2258056Y1501598D02*
Y1514294D01*
X2262288Y1510062D01*
X2266520Y1514294D01*
Y1501598D01*
X2277100Y1514294D02*
X2272868D01*
X2270752Y1512178D01*
Y1503714D01*
X2272868Y1501598D01*
X2277100D01*
X2279216Y1503714D01*
Y1512178D01*
X2277100Y1514294D01*
X2289796D02*
X2285564D01*
X2283448Y1512178D01*
Y1503714D01*
X2285564Y1501598D01*
X2289796D01*
X2291912Y1503714D01*
Y1512178D01*
X2289796Y1514294D01*
X2077720Y1512178D02*
X2079836Y1514294D01*
X2084068D01*
X2086184Y1512178D01*
Y1510062D01*
X2084068Y1507946D01*
X2081952D01*
X2084068D01*
X2086184Y1505830D01*
Y1503714D01*
X2084068Y1501598D01*
X2079836D01*
X2077720Y1503714D01*
X2090416Y1501598D02*
X2098880Y1510062D01*
X2103112Y1501598D02*
X2107344D01*
X2105228D01*
Y1514294D01*
X2103112Y1512178D01*
X2122156Y1514294D02*
X2117924Y1512178D01*
X2113692Y1507946D01*
Y1503714D01*
X2115808Y1501598D01*
X2120040D01*
X2122156Y1503714D01*
Y1505830D01*
X2120040Y1507946D01*
X2113692D01*
X2126388Y1501598D02*
X2134852Y1510062D01*
X2147547Y1501598D02*
X2139084D01*
X2147547Y1510062D01*
Y1512178D01*
X2145431Y1514294D01*
X2141199D01*
X2139084Y1512178D01*
X2151779D02*
X2153895Y1514294D01*
X2158127D01*
X2160243Y1512178D01*
Y1503714D01*
X2158127Y1501598D01*
X2153895D01*
X2151779Y1503714D01*
Y1512178D01*
X2172939Y1501598D02*
X2164475D01*
X2172939Y1510062D01*
Y1512178D01*
X2170823Y1514294D01*
X2166591D01*
X2164475Y1512178D01*
X2177171Y1501598D02*
X2181403D01*
X2179287D01*
Y1514294D01*
X2177171Y1512178D01*
X1600200Y1514294D02*
X1604432D01*
X1602316D01*
Y1501598D01*
X1600200D01*
X1604432D01*
X1610780D02*
Y1510062D01*
X1617128D01*
X1619244Y1507946D01*
Y1501598D01*
X1623476D02*
X1627708D01*
X1625592D01*
Y1510062D01*
X1623476D01*
X1636172Y1512178D02*
Y1510062D01*
X1634056D01*
X1638288D01*
X1636172D01*
Y1503714D01*
X1638288Y1501598D01*
X1644636D02*
X1648868D01*
X1646752D01*
Y1510062D01*
X1644636D01*
X1657332D02*
X1661564D01*
X1663680Y1507946D01*
Y1501598D01*
X1657332D01*
X1655215Y1503714D01*
X1657332Y1505830D01*
X1663680D01*
X1667911Y1501598D02*
X1672143D01*
X1670027D01*
Y1514294D01*
X1667911D01*
X1691187Y1501598D02*
Y1514294D01*
X1697535D01*
X1699651Y1512178D01*
Y1507946D01*
X1697535Y1505830D01*
X1691187D01*
X1703883Y1510062D02*
Y1501598D01*
Y1505830D01*
X1705999Y1507946D01*
X1708115Y1510062D01*
X1710231D01*
X1718695Y1501598D02*
X1722927D01*
X1725043Y1503714D01*
Y1507946D01*
X1722927Y1510062D01*
X1718695D01*
X1716579Y1507946D01*
Y1503714D01*
X1718695Y1501598D01*
X1737739Y1514294D02*
Y1501598D01*
X1731391D01*
X1729275Y1503714D01*
Y1507946D01*
X1731391Y1510062D01*
X1737739D01*
X1741971D02*
Y1503714D01*
X1744087Y1501598D01*
X1750435D01*
Y1510062D01*
X1763131D02*
X1756783D01*
X1754667Y1507946D01*
Y1503714D01*
X1756783Y1501598D01*
X1763131D01*
X1769478Y1512178D02*
Y1510062D01*
X1767363D01*
X1771595D01*
X1769478D01*
Y1503714D01*
X1771595Y1501598D01*
X1777942D02*
X1782174D01*
X1780058D01*
Y1510062D01*
X1777942D01*
X1790638Y1501598D02*
X1794870D01*
X1796986Y1503714D01*
Y1507946D01*
X1794870Y1510062D01*
X1790638D01*
X1788522Y1507946D01*
Y1503714D01*
X1790638Y1501598D01*
X1801218D02*
Y1510062D01*
X1807566D01*
X1809682Y1507946D01*
Y1501598D01*
X1826610D02*
Y1514294D01*
X1832958D01*
X1835074Y1512178D01*
Y1507946D01*
X1832958Y1505830D01*
X1826610D01*
X1830842D02*
X1835074Y1501598D01*
X1845654D02*
X1841422D01*
X1839306Y1503714D01*
Y1507946D01*
X1841422Y1510062D01*
X1845654D01*
X1847770Y1507946D01*
Y1505830D01*
X1839306D01*
X1852002Y1501598D02*
X1856234D01*
X1854118D01*
Y1514294D01*
X1852002D01*
X1868930Y1501598D02*
X1864698D01*
X1862582Y1503714D01*
Y1507946D01*
X1864698Y1510062D01*
X1868930D01*
X1871046Y1507946D01*
Y1505830D01*
X1862582D01*
X1877394Y1510062D02*
X1881626D01*
X1883741Y1507946D01*
Y1501598D01*
X1877394D01*
X1875278Y1503714D01*
X1877394Y1505830D01*
X1883741D01*
X1887973Y1501598D02*
X1894321D01*
X1896437Y1503714D01*
X1894321Y1505830D01*
X1890089D01*
X1887973Y1507946D01*
X1890089Y1510062D01*
X1896437D01*
X1907017Y1501598D02*
X1902785D01*
X1900669Y1503714D01*
Y1507946D01*
X1902785Y1510062D01*
X1907017D01*
X1909133Y1507946D01*
Y1505830D01*
X1900669D01*
X1490980Y1501598D02*
Y1514294D01*
X1497328D01*
X1499444Y1512178D01*
Y1507946D01*
X1497328Y1505830D01*
X1490980D01*
X1495212D02*
X1499444Y1501598D01*
X1510024D02*
X1505792D01*
X1503676Y1503714D01*
Y1507946D01*
X1505792Y1510062D01*
X1510024D01*
X1512140Y1507946D01*
Y1505830D01*
X1503676D01*
X1516372Y1510062D02*
X1520604Y1501598D01*
X1524836Y1510062D01*
X1541763Y1514294D02*
Y1501598D01*
X1548112D01*
X1550228Y1503714D01*
Y1512178D01*
X1548112Y1514294D01*
X1541763D01*
X1490980Y1463498D02*
Y1476194D01*
X1497328D01*
X1499444Y1474078D01*
Y1469846D01*
X1497328Y1467730D01*
X1490980D01*
X1495212D02*
X1499444Y1463498D01*
X1510024D02*
X1505792D01*
X1503676Y1465614D01*
Y1469846D01*
X1505792Y1471962D01*
X1510024D01*
X1512140Y1469846D01*
Y1467730D01*
X1503676D01*
X1516372Y1471962D02*
X1520604Y1463498D01*
X1524836Y1471962D01*
X1550228Y1476194D02*
X1541763D01*
Y1463498D01*
X1550228D01*
X1541763Y1469846D02*
X1545995D01*
X1600200Y1463498D02*
Y1471962D01*
X1604432Y1476194D01*
X1608664Y1471962D01*
Y1463498D01*
Y1469846D01*
X1600200D01*
X1621360Y1476194D02*
Y1463498D01*
X1615012D01*
X1612896Y1465614D01*
Y1469846D01*
X1615012Y1471962D01*
X1621360D01*
X1634056Y1476194D02*
Y1463498D01*
X1627708D01*
X1625592Y1465614D01*
Y1469846D01*
X1627708Y1471962D01*
X1634056D01*
X1638288Y1463498D02*
X1642520D01*
X1640404D01*
Y1471962D01*
X1638288D01*
X1650983Y1474078D02*
Y1471962D01*
X1648868D01*
X1653100D01*
X1650983D01*
Y1465614D01*
X1653100Y1463498D01*
X1659447D02*
X1663680D01*
X1661564D01*
Y1471962D01*
X1659447D01*
X1672143Y1463498D02*
X1676375D01*
X1678491Y1465614D01*
Y1469846D01*
X1676375Y1471962D01*
X1672143D01*
X1670027Y1469846D01*
Y1465614D01*
X1672143Y1463498D01*
X1682723D02*
Y1471962D01*
X1689071D01*
X1691187Y1469846D01*
Y1463498D01*
X1710231D02*
X1714463D01*
X1716579Y1465614D01*
Y1469846D01*
X1714463Y1471962D01*
X1710231D01*
X1708115Y1469846D01*
Y1465614D01*
X1710231Y1463498D01*
X1722927D02*
Y1474078D01*
Y1469846D01*
X1720811D01*
X1725043D01*
X1722927D01*
Y1474078D01*
X1725043Y1476194D01*
X1744087D02*
Y1463498D01*
X1750435D01*
X1752551Y1465614D01*
Y1467730D01*
X1750435Y1469846D01*
X1744087D01*
X1750435D01*
X1752551Y1471962D01*
Y1474078D01*
X1750435Y1476194D01*
X1744087D01*
X1765247Y1474078D02*
X1763131Y1476194D01*
X1758899D01*
X1756783Y1474078D01*
Y1465614D01*
X1758899Y1463498D01*
X1763131D01*
X1765247Y1465614D01*
Y1469846D01*
X1761015D01*
X1769478Y1463498D02*
Y1471962D01*
X1773710Y1476194D01*
X1777942Y1471962D01*
Y1463498D01*
Y1469846D01*
X1769478D01*
X1782174D02*
X1790638D01*
X1794870Y1463498D02*
X1799102D01*
X1796986D01*
Y1476194D01*
X1794870Y1474078D01*
X1813914Y1463498D02*
X1805450D01*
X1813914Y1471962D01*
Y1474078D01*
X1811798Y1476194D01*
X1807566D01*
X1805450Y1474078D01*
X1818146Y1463498D02*
X1822378D01*
X1820262D01*
Y1476194D01*
X1818146Y1474078D01*
X1841422Y1476194D02*
X1845654D01*
X1843538D01*
Y1463498D01*
X1841422D01*
X1845654D01*
X1852002D02*
Y1471962D01*
X1858350D01*
X1860466Y1469846D01*
Y1463498D01*
X1866814Y1474078D02*
Y1471962D01*
X1864698D01*
X1868930D01*
X1866814D01*
Y1465614D01*
X1868930Y1463498D01*
X1881626D02*
X1877394D01*
X1875278Y1465614D01*
Y1469846D01*
X1877394Y1471962D01*
X1881626D01*
X1883741Y1469846D01*
Y1467730D01*
X1875278D01*
X1887973Y1471962D02*
Y1463498D01*
Y1467730D01*
X1890089Y1469846D01*
X1892205Y1471962D01*
X1894321D01*
X1902785Y1463498D02*
Y1474078D01*
Y1469846D01*
X1900669D01*
X1904901D01*
X1902785D01*
Y1474078D01*
X1904901Y1476194D01*
X1913365Y1471962D02*
X1917597D01*
X1919713Y1469846D01*
Y1463498D01*
X1913365D01*
X1911249Y1465614D01*
X1913365Y1467730D01*
X1919713D01*
X1932409Y1471962D02*
X1926061D01*
X1923945Y1469846D01*
Y1465614D01*
X1926061Y1463498D01*
X1932409D01*
X1942989D02*
X1938757D01*
X1936641Y1465614D01*
Y1469846D01*
X1938757Y1471962D01*
X1942989D01*
X1945105Y1469846D01*
Y1467730D01*
X1936641D01*
X1962033Y1476194D02*
X1966265D01*
X1964149D01*
Y1463498D01*
X1962033D01*
X1966265D01*
X1981077Y1474078D02*
X1978961Y1476194D01*
X1974729D01*
X1972613Y1474078D01*
Y1465614D01*
X1974729Y1463498D01*
X1978961D01*
X1981077Y1465614D01*
X2084068Y1463498D02*
Y1476194D01*
X2077720Y1469846D01*
X2086184D01*
X2090416Y1463498D02*
X2098880Y1471962D01*
X2111576Y1463498D02*
X2103112D01*
X2111576Y1471962D01*
Y1474078D01*
X2109460Y1476194D01*
X2105228D01*
X2103112Y1474078D01*
X2115808D02*
X2117924Y1476194D01*
X2122156D01*
X2124272Y1474078D01*
Y1471962D01*
X2122156Y1469846D01*
X2124272Y1467730D01*
Y1465614D01*
X2122156Y1463498D01*
X2117924D01*
X2115808Y1465614D01*
Y1467730D01*
X2117924Y1469846D01*
X2115808Y1471962D01*
Y1474078D01*
X2117924Y1469846D02*
X2122156D01*
X2128504Y1463498D02*
X2136967Y1471962D01*
X2149663Y1463498D02*
X2141199D01*
X2149663Y1471962D01*
Y1474078D01*
X2147547Y1476194D01*
X2143315D01*
X2141199Y1474078D01*
X2153895D02*
X2156011Y1476194D01*
X2160243D01*
X2162359Y1474078D01*
Y1465614D01*
X2160243Y1463498D01*
X2156011D01*
X2153895Y1465614D01*
Y1474078D01*
X2175055Y1463498D02*
X2166591D01*
X2175055Y1471962D01*
Y1474078D01*
X2172939Y1476194D01*
X2168707D01*
X2166591Y1474078D01*
X2179287Y1463498D02*
X2183519D01*
X2181403D01*
Y1476194D01*
X2179287Y1474078D01*
X2253824Y1476194D02*
X2245360D01*
Y1463498D01*
X2253824D01*
X2245360Y1469846D02*
X2249592D01*
X2258056Y1463498D02*
Y1476194D01*
X2262288Y1471962D01*
X2266520Y1476194D01*
Y1463498D01*
X2277100Y1476194D02*
X2272868D01*
X2270752Y1474078D01*
Y1465614D01*
X2272868Y1463498D01*
X2277100D01*
X2279216Y1465614D01*
Y1474078D01*
X2277100Y1476194D01*
X2289796D02*
X2285564D01*
X2283448Y1474078D01*
Y1465614D01*
X2285564Y1463498D01*
X2289796D01*
X2291912Y1465614D01*
Y1474078D01*
X2289796Y1476194D01*
X1272540Y-286517D02*
Y-299213D01*
X1275079Y-301752D01*
X1280157D01*
X1282697Y-299213D01*
Y-286517D01*
X1287775D02*
Y-301752D01*
X1295393D01*
X1297932Y-299213D01*
Y-296674D01*
X1295393Y-294135D01*
X1287775D01*
X1295393D01*
X1297932Y-291595D01*
Y-289056D01*
X1295393Y-286517D01*
X1287775D01*
X1303010D02*
X1313167Y-301752D01*
Y-286517D02*
X1303010Y-301752D01*
X1318245Y-286517D02*
Y-301752D01*
Y-294135D01*
X1328402D01*
Y-286517D01*
Y-301752D01*
X1343637Y-286517D02*
X1338559Y-289056D01*
X1333480Y-294135D01*
Y-299213D01*
X1336019Y-301752D01*
X1341098D01*
X1343637Y-299213D01*
Y-296674D01*
X1341098Y-294135D01*
X1333480D01*
X1348715Y-289056D02*
X1351254Y-286517D01*
X1356333D01*
X1358872Y-289056D01*
Y-299213D01*
X1356333Y-301752D01*
X1351254D01*
X1348715Y-299213D01*
Y-289056D01*
X1363950Y-294135D02*
X1374107D01*
X1379185Y-289056D02*
X1381725Y-286517D01*
X1386803D01*
X1389342Y-289056D01*
Y-299213D01*
X1386803Y-301752D01*
X1381725D01*
X1379185Y-299213D01*
Y-289056D01*
X1394421D02*
X1396960Y-286517D01*
X1402038D01*
X1404577Y-289056D01*
Y-299213D01*
X1402038Y-301752D01*
X1396960D01*
X1394421Y-299213D01*
Y-289056D01*
X1409656D02*
X1412195Y-286517D01*
X1417273D01*
X1419812Y-289056D01*
Y-299213D01*
X1417273Y-301752D01*
X1412195D01*
X1409656Y-299213D01*
Y-289056D01*
X1424891D02*
X1427430Y-286517D01*
X1432508D01*
X1435047Y-289056D01*
Y-299213D01*
X1432508Y-301752D01*
X1427430D01*
X1424891Y-299213D01*
Y-289056D01*
X1440126Y-286517D02*
X1450282D01*
Y-289056D01*
X1440126Y-299213D01*
Y-301752D01*
X1455361Y-289056D02*
X1457900Y-286517D01*
X1462978D01*
X1465518Y-289056D01*
Y-299213D01*
X1462978Y-301752D01*
X1457900D01*
X1455361Y-299213D01*
Y-289056D01*
X1480753Y-301752D02*
X1470596D01*
X1480753Y-291595D01*
Y-289056D01*
X1478214Y-286517D01*
X1473135D01*
X1470596Y-289056D01*
X1712802Y-210319D02*
X1699260D01*
Y-230632D01*
X1712802D01*
X1699260Y-220475D02*
X1706031D01*
X1719573Y-210319D02*
Y-223861D01*
X1726345Y-230632D01*
X1733116Y-223861D01*
Y-210319D01*
X1739887D02*
Y-230632D01*
Y-223861D01*
X1753429Y-210319D01*
X1743272Y-220475D01*
X1753429Y-230632D01*
X1760200Y-220475D02*
X1773743D01*
X1780514Y-230632D02*
Y-210319D01*
X1794056Y-230632D01*
Y-210319D01*
X1810984D02*
X1804213D01*
X1800827Y-213704D01*
Y-227246D01*
X1804213Y-230632D01*
X1810984D01*
X1814369Y-227246D01*
Y-213704D01*
X1810984Y-210319D01*
X1821140Y-230632D02*
Y-210319D01*
X1831297D01*
X1834683Y-213704D01*
Y-220475D01*
X1831297Y-223861D01*
X1821140D01*
X1827912D02*
X1834683Y-230632D01*
X1841454D02*
Y-217090D01*
X1848225Y-210319D01*
X1854996Y-217090D01*
Y-230632D01*
Y-220475D01*
X1841454D01*
X1861767D02*
X1875310D01*
X1882081Y-210319D02*
Y-230632D01*
X1892238D01*
X1895623Y-227246D01*
Y-223861D01*
X1892238Y-220475D01*
X1882081D01*
X1892238D01*
X1895623Y-217090D01*
Y-213704D01*
X1892238Y-210319D01*
X1882081D01*
X1902394Y-230632D02*
X1909165D01*
X1905780D01*
Y-210319D01*
X1902394Y-213704D01*
X1919322D02*
X1922708Y-210319D01*
X1929479D01*
X1932864Y-213704D01*
Y-227246D01*
X1929479Y-230632D01*
X1922708D01*
X1919322Y-227246D01*
Y-213704D01*
X2193840Y-229422D02*
Y-209109D01*
X2203997D01*
X2207382Y-212494D01*
Y-219265D01*
X2203997Y-222651D01*
X2193840D01*
X2200611D02*
X2207382Y-229422D01*
X2224310D02*
X2217539D01*
X2214153Y-226036D01*
Y-219265D01*
X2217539Y-215880D01*
X2224310D01*
X2227696Y-219265D01*
Y-222651D01*
X2214153D01*
X2234467Y-215880D02*
X2241238Y-229422D01*
X2248009Y-215880D01*
X2288636Y-209109D02*
X2275094D01*
Y-229422D01*
X2288636D01*
X2275094Y-219265D02*
X2281865D01*
X1699260Y-149359D02*
X1712802D01*
X1706031D01*
Y-169672D01*
X1733116Y-149359D02*
X1719573D01*
Y-169672D01*
X1733116D01*
X1719573Y-159515D02*
X1726345D01*
X1739887D02*
X1753429D01*
X1760200Y-169672D02*
Y-149359D01*
X1770357D01*
X1773743Y-152744D01*
Y-159515D01*
X1770357Y-162901D01*
X1760200D01*
X1766971D02*
X1773743Y-169672D01*
X1780514Y-149359D02*
Y-169672D01*
X1790670D01*
X1794056Y-166286D01*
Y-162901D01*
X1790670Y-159515D01*
X1780514D01*
X1790670D01*
X1794056Y-156130D01*
Y-152744D01*
X1790670Y-149359D01*
X1780514D01*
X1800827Y-169672D02*
X1807598D01*
X1804213D01*
Y-149359D01*
X1800827Y-152744D01*
X1332650Y-151898D02*
X1320800D01*
Y-169672D01*
X1332650D01*
X1320800Y-160785D02*
X1326725D01*
X1338574Y-169672D02*
Y-151898D01*
X1344499Y-157823D01*
X1350424Y-151898D01*
Y-169672D01*
X1365236Y-151898D02*
X1359311D01*
X1356349Y-154860D01*
Y-166710D01*
X1359311Y-169672D01*
X1365236D01*
X1368198Y-166710D01*
Y-154860D01*
X1365236Y-151898D01*
X1383010D02*
X1377085D01*
X1374123Y-154860D01*
Y-166710D01*
X1377085Y-169672D01*
X1383010D01*
X1385972Y-166710D01*
Y-154860D01*
X1383010Y-151898D01*
X1286507Y-230632D02*
Y-212858D01*
X1277620Y-221745D01*
X1289469D01*
X1295394Y-230632D02*
X1307244Y-218783D01*
X1325018Y-230632D02*
X1313168D01*
X1325018Y-218783D01*
Y-215820D01*
X1322056Y-212858D01*
X1316131D01*
X1313168Y-215820D01*
X1330943D02*
X1333905Y-212858D01*
X1339830D01*
X1342792Y-215820D01*
Y-218783D01*
X1339830Y-221745D01*
X1342792Y-224707D01*
Y-227670D01*
X1339830Y-230632D01*
X1333905D01*
X1330943Y-227670D01*
Y-224707D01*
X1333905Y-221745D01*
X1330943Y-218783D01*
Y-215820D01*
X1333905Y-221745D02*
X1339830D01*
X1348717Y-230632D02*
X1360567Y-218783D01*
X1378341Y-230632D02*
X1366491D01*
X1378341Y-218783D01*
Y-215820D01*
X1375378Y-212858D01*
X1369454D01*
X1366491Y-215820D01*
X1384266D02*
X1387228Y-212858D01*
X1393153D01*
X1396115Y-215820D01*
Y-227670D01*
X1393153Y-230632D01*
X1387228D01*
X1384266Y-227670D01*
Y-215820D01*
X1413889Y-230632D02*
X1402040D01*
X1413889Y-218783D01*
Y-215820D01*
X1410927Y-212858D01*
X1405002D01*
X1402040Y-215820D01*
X1419814Y-230632D02*
X1425739D01*
X1422776D01*
Y-212858D01*
X1419814Y-215820D01*
X1610360Y-299212D02*
Y-283977D01*
X1620517Y-299212D01*
Y-283977D01*
X1633213D02*
X1628134D01*
X1625595Y-286516D01*
Y-296673D01*
X1628134Y-299212D01*
X1633213D01*
X1635752Y-296673D01*
Y-286516D01*
X1633213Y-283977D01*
X1640830Y-299212D02*
Y-283977D01*
X1648448D01*
X1650987Y-286516D01*
Y-291595D01*
X1648448Y-294134D01*
X1640830D01*
X1645909D02*
X1650987Y-299212D01*
X1656065D02*
Y-289055D01*
X1661144Y-283977D01*
X1666222Y-289055D01*
Y-299212D01*
Y-291595D01*
X1656065D01*
X1671300D02*
X1681457D01*
X1686535Y-283977D02*
Y-299212D01*
X1694153D01*
X1696692Y-296673D01*
Y-294134D01*
X1694153Y-291595D01*
X1686535D01*
X1694153D01*
X1696692Y-289055D01*
Y-286516D01*
X1694153Y-283977D01*
X1686535D01*
X1701770Y-299212D02*
X1706849D01*
X1704310D01*
Y-283977D01*
X1701770Y-286516D01*
X1714466Y-291595D02*
X1724623D01*
X1739858Y-283977D02*
X1729701D01*
Y-299212D01*
X1739858D01*
X1729701Y-291595D02*
X1734780D01*
X1744937Y-283977D02*
Y-294134D01*
X1750015Y-299212D01*
X1755093Y-294134D01*
Y-283977D01*
X1760172D02*
Y-299212D01*
Y-294134D01*
X1770328Y-283977D01*
X1762711Y-291595D01*
X1770328Y-299212D01*
X1775407D02*
Y-296673D01*
X1777946D01*
Y-299212D01*
X1775407D01*
X1788103D02*
Y-283977D01*
X1795720D01*
X1798259Y-286516D01*
Y-291595D01*
X1795720Y-294134D01*
X1788103D01*
X1813494Y-289055D02*
X1805877D01*
X1803338Y-291595D01*
Y-296673D01*
X1805877Y-299212D01*
X1813494D01*
X1818573Y-283977D02*
Y-299212D01*
X1826190D01*
X1828729Y-296673D01*
Y-294134D01*
Y-291595D01*
X1826190Y-289055D01*
X1818573D01*
X1833808Y-283977D02*
Y-299212D01*
X1841425D01*
X1843964Y-296673D01*
Y-286516D01*
X1841425Y-283977D01*
X1833808D01*
X1851582Y-299212D02*
X1856660D01*
X1859200Y-296673D01*
Y-291595D01*
X1856660Y-289055D01*
X1851582D01*
X1849043Y-291595D01*
Y-296673D01*
X1851582Y-299212D01*
X1874435Y-289055D02*
X1866817D01*
X1864278Y-291595D01*
Y-296673D01*
X1866817Y-299212D01*
X1874435D01*
X924933Y-277057D02*
X923966Y-275123D01*
X922031Y-273188D01*
X920096Y-272220D01*
X916226D01*
X914292Y-273188D01*
X912357Y-275123D01*
X911389Y-277057D01*
X910422Y-279960D01*
Y-284797D01*
X911389Y-287699D01*
X912357Y-289634D01*
X914292Y-291569D01*
X916226Y-292536D01*
X920096D01*
X922031Y-291569D01*
X923966Y-289634D01*
X924933Y-287699D01*
X936445Y-272220D02*
X934510Y-273188D01*
X932576Y-275123D01*
X931608Y-277057D01*
X930641Y-279960D01*
Y-284797D01*
X931608Y-287699D01*
X932576Y-289634D01*
X934510Y-291569D01*
X936445Y-292536D01*
X940315D01*
X942250Y-291569D01*
X944185Y-289634D01*
X945152Y-287699D01*
X946120Y-284797D01*
Y-279960D01*
X945152Y-277057D01*
X944185Y-275123D01*
X942250Y-273188D01*
X940315Y-272220D01*
X936445D01*
X950860D02*
Y-292536D01*
Y-272220D02*
X964404Y-292536D01*
Y-272220D02*
Y-292536D01*
X970014Y-272220D02*
Y-292536D01*
Y-272220D02*
X982591D01*
X970014Y-281894D02*
X977754D01*
X984913Y-272220D02*
Y-292536D01*
X989169Y-272220D02*
Y-292536D01*
Y-272220D02*
X995941D01*
X998843Y-273188D01*
X1000778Y-275123D01*
X1001746Y-277057D01*
X1002713Y-279960D01*
Y-284797D01*
X1001746Y-287699D01*
X1000778Y-289634D01*
X998843Y-291569D01*
X995941Y-292536D01*
X989169D01*
X1019836Y-272220D02*
X1007260D01*
Y-292536D01*
X1019836D01*
X1007260Y-281894D02*
X1014999D01*
X1023222Y-272220D02*
Y-292536D01*
Y-272220D02*
X1036766Y-292536D01*
Y-272220D02*
Y-292536D01*
X1049149Y-272220D02*
Y-292536D01*
X1042377Y-272220D02*
X1055921D01*
X1058339D02*
Y-292536D01*
X1078074D02*
X1070335Y-272220D01*
X1062596Y-292536D01*
X1065498Y-285764D02*
X1075172D01*
X1082815Y-272220D02*
Y-292536D01*
X1094424D01*
X2253824Y1552444D02*
X2245360D01*
Y1539748D01*
X2253824D01*
X2245360Y1546096D02*
X2249592D01*
X2258056Y1539748D02*
Y1552444D01*
X2262288Y1548212D01*
X2266520Y1552444D01*
Y1539748D01*
X2277100Y1552444D02*
X2272868D01*
X2270752Y1550328D01*
Y1541864D01*
X2272868Y1539748D01*
X2277100D01*
X2279216Y1541864D01*
Y1550328D01*
X2277100Y1552444D01*
X2289796D02*
X2285564D01*
X2283448Y1550328D01*
Y1541864D01*
X2285564Y1539748D01*
X2289796D01*
X2291912Y1541864D01*
Y1550328D01*
X2289796Y1552444D01*
X2077720Y1539748D02*
X2081952D01*
X2079836D01*
Y1552444D01*
X2077720Y1550328D01*
X2088300Y1539748D02*
X2092532D01*
X2090416D01*
Y1552444D01*
X2088300Y1550328D01*
X2098880Y1539748D02*
X2107344Y1548212D01*
X2111576Y1539748D02*
X2115808D01*
X2113692D01*
Y1552444D01*
X2111576Y1550328D01*
X2130620Y1552444D02*
X2126388Y1550328D01*
X2122156Y1546096D01*
Y1541864D01*
X2124272Y1539748D01*
X2128504D01*
X2130620Y1541864D01*
Y1543980D01*
X2128504Y1546096D01*
X2122156D01*
X2134852Y1539748D02*
X2143315Y1548212D01*
X2156011Y1539748D02*
X2147547D01*
X2156011Y1548212D01*
Y1550328D01*
X2153895Y1552444D01*
X2149663D01*
X2147547Y1550328D01*
X2160243D02*
X2162359Y1552444D01*
X2166591D01*
X2168707Y1550328D01*
Y1541864D01*
X2166591Y1539748D01*
X2162359D01*
X2160243Y1541864D01*
Y1550328D01*
X2181403Y1539748D02*
X2172939D01*
X2181403Y1548212D01*
Y1550328D01*
X2179287Y1552444D01*
X2175055D01*
X2172939Y1550328D01*
X2185635D02*
X2187751Y1552444D01*
X2191983D01*
X2194099Y1550328D01*
Y1541864D01*
X2191983Y1539748D01*
X2187751D01*
X2185635Y1541864D01*
Y1550328D01*
X1608664Y1552444D02*
X1600200D01*
Y1539748D01*
X1608664D01*
X1600200Y1546096D02*
X1604432D01*
X1612896Y1539748D02*
Y1548212D01*
X1619244D01*
X1621360Y1546096D01*
Y1539748D01*
X1629824Y1535516D02*
X1631940D01*
X1634056Y1537632D01*
Y1548212D01*
X1627708D01*
X1625592Y1546096D01*
Y1541864D01*
X1627708Y1539748D01*
X1634056D01*
X1638288D02*
X1642520D01*
X1640404D01*
Y1548212D01*
X1638288D01*
X1648868Y1539748D02*
Y1548212D01*
X1655215D01*
X1657332Y1546096D01*
Y1539748D01*
X1667911D02*
X1663679D01*
X1661564Y1541864D01*
Y1546096D01*
X1663679Y1548212D01*
X1667911D01*
X1670027Y1546096D01*
Y1543980D01*
X1661564D01*
X1680607Y1539748D02*
X1676375D01*
X1674259Y1541864D01*
Y1546096D01*
X1676375Y1548212D01*
X1680607D01*
X1682723Y1546096D01*
Y1543980D01*
X1674259D01*
X1686955Y1548212D02*
Y1539748D01*
Y1543980D01*
X1689071Y1546096D01*
X1691187Y1548212D01*
X1693303D01*
X1699651Y1539748D02*
X1703883D01*
X1701767D01*
Y1548212D01*
X1699651D01*
X1710231Y1539748D02*
Y1548212D01*
X1716579D01*
X1718695Y1546096D01*
Y1539748D01*
X1727159Y1535516D02*
X1729275D01*
X1731391Y1537632D01*
Y1548212D01*
X1725043D01*
X1722927Y1546096D01*
Y1541864D01*
X1725043Y1539748D01*
X1731391D01*
X1756783Y1550328D02*
X1754667Y1552444D01*
X1750435D01*
X1748319Y1550328D01*
Y1548212D01*
X1750435Y1546096D01*
X1754667D01*
X1756783Y1543980D01*
Y1541864D01*
X1754667Y1539748D01*
X1750435D01*
X1748319Y1541864D01*
X1763130Y1548212D02*
X1767363D01*
X1769478Y1546096D01*
Y1539748D01*
X1763130D01*
X1761015Y1541864D01*
X1763130Y1543980D01*
X1769478D01*
X1773710Y1539748D02*
Y1548212D01*
X1775826D01*
X1777942Y1546096D01*
Y1539748D01*
Y1546096D01*
X1780058Y1548212D01*
X1782174Y1546096D01*
Y1539748D01*
X1786406Y1535516D02*
Y1548212D01*
X1792754D01*
X1794870Y1546096D01*
Y1541864D01*
X1792754Y1539748D01*
X1786406D01*
X1799102D02*
X1803334D01*
X1801218D01*
Y1552444D01*
X1799102D01*
X1816030Y1539748D02*
X1811798D01*
X1809682Y1541864D01*
Y1546096D01*
X1811798Y1548212D01*
X1816030D01*
X1818146Y1546096D01*
Y1543980D01*
X1809682D01*
X1835074Y1539748D02*
Y1552444D01*
X1841422D01*
X1843538Y1550328D01*
Y1546096D01*
X1841422Y1543980D01*
X1835074D01*
X1839306D02*
X1843538Y1539748D01*
X1854118D02*
X1849886D01*
X1847770Y1541864D01*
Y1546096D01*
X1849886Y1548212D01*
X1854118D01*
X1856234Y1546096D01*
Y1543980D01*
X1847770D01*
X1860466Y1539748D02*
X1864698D01*
X1862582D01*
Y1552444D01*
X1860466D01*
X1877393Y1539748D02*
X1873162D01*
X1871046Y1541864D01*
Y1546096D01*
X1873162Y1548212D01*
X1877393D01*
X1879509Y1546096D01*
Y1543980D01*
X1871046D01*
X1885857Y1548212D02*
X1890089D01*
X1892205Y1546096D01*
Y1539748D01*
X1885857D01*
X1883741Y1541864D01*
X1885857Y1543980D01*
X1892205D01*
X1896437Y1539748D02*
X1902785D01*
X1904901Y1541864D01*
X1902785Y1543980D01*
X1898553D01*
X1896437Y1546096D01*
X1898553Y1548212D01*
X1904901D01*
X1915481Y1539748D02*
X1911249D01*
X1909133Y1541864D01*
Y1546096D01*
X1911249Y1548212D01*
X1915481D01*
X1917597Y1546096D01*
Y1543980D01*
X1909133D01*
X1490980Y1539748D02*
Y1552444D01*
X1497328D01*
X1499444Y1550328D01*
Y1546096D01*
X1497328Y1543980D01*
X1490980D01*
X1495212D02*
X1499444Y1539748D01*
X1510024D02*
X1505792D01*
X1503676Y1541864D01*
Y1546096D01*
X1505792Y1548212D01*
X1510024D01*
X1512140Y1546096D01*
Y1543980D01*
X1503676D01*
X1516372Y1548212D02*
X1520604Y1539748D01*
X1524836Y1548212D01*
X1550228Y1550328D02*
X1548112Y1552444D01*
X1543880D01*
X1541763Y1550328D01*
Y1541864D01*
X1543880Y1539748D01*
X1548112D01*
X1550228Y1541864D01*
X1490980Y1577848D02*
Y1590544D01*
X1497328D01*
X1499444Y1588428D01*
Y1584196D01*
X1497328Y1582080D01*
X1490980D01*
X1495212D02*
X1499444Y1577848D01*
X1510024D02*
X1505792D01*
X1503676Y1579964D01*
Y1584196D01*
X1505792Y1586312D01*
X1510024D01*
X1512140Y1584196D01*
Y1582080D01*
X1503676D01*
X1516372Y1586312D02*
X1520604Y1577848D01*
X1524836Y1586312D01*
X1541763Y1590544D02*
Y1577848D01*
X1548112D01*
X1550228Y1579964D01*
Y1582080D01*
X1548112Y1584196D01*
X1541763D01*
X1548112D01*
X1550228Y1586312D01*
Y1588428D01*
X1548112Y1590544D01*
X1541763D01*
X1608664Y1588428D02*
X1606548Y1590544D01*
X1602316D01*
X1600200Y1588428D01*
Y1586312D01*
X1602316Y1584196D01*
X1606548D01*
X1608664Y1582080D01*
Y1579964D01*
X1606548Y1577848D01*
X1602316D01*
X1600200Y1579964D01*
X1619244Y1577848D02*
X1615012D01*
X1612896Y1579964D01*
Y1584196D01*
X1615012Y1586312D01*
X1619244D01*
X1621360Y1584196D01*
Y1582080D01*
X1612896D01*
X1634056Y1586312D02*
X1627708D01*
X1625592Y1584196D01*
Y1579964D01*
X1627708Y1577848D01*
X1634056D01*
X1640404D02*
X1644636D01*
X1646752Y1579964D01*
Y1584196D01*
X1644636Y1586312D01*
X1640404D01*
X1638288Y1584196D01*
Y1579964D01*
X1640404Y1577848D01*
X1650983D02*
Y1586312D01*
X1657332D01*
X1659447Y1584196D01*
Y1577848D01*
X1672143Y1590544D02*
Y1577848D01*
X1665795D01*
X1663679Y1579964D01*
Y1584196D01*
X1665795Y1586312D01*
X1672143D01*
X1689071Y1577848D02*
Y1590544D01*
X1695419D01*
X1697535Y1588428D01*
Y1584196D01*
X1695419Y1582080D01*
X1689071D01*
X1701767Y1586312D02*
Y1577848D01*
Y1582080D01*
X1703883Y1584196D01*
X1705999Y1586312D01*
X1708115D01*
X1716579Y1577848D02*
X1720811D01*
X1722927Y1579964D01*
Y1584196D01*
X1720811Y1586312D01*
X1716579D01*
X1714463Y1584196D01*
Y1579964D01*
X1716579Y1577848D01*
X1729275Y1588428D02*
Y1586312D01*
X1727159D01*
X1731391D01*
X1729275D01*
Y1579964D01*
X1731391Y1577848D01*
X1739855D02*
X1744087D01*
X1746203Y1579964D01*
Y1584196D01*
X1744087Y1586312D01*
X1739855D01*
X1737739Y1584196D01*
Y1579964D01*
X1739855Y1577848D01*
X1752551Y1588428D02*
Y1586312D01*
X1750435D01*
X1754667D01*
X1752551D01*
Y1579964D01*
X1754667Y1577848D01*
X1761015Y1586312D02*
Y1579964D01*
X1763130Y1577848D01*
X1769478D01*
Y1575732D01*
X1767363Y1573616D01*
X1765246D01*
X1769478Y1577848D02*
Y1586312D01*
X1773710Y1573616D02*
Y1586312D01*
X1780058D01*
X1782174Y1584196D01*
Y1579964D01*
X1780058Y1577848D01*
X1773710D01*
X1792754D02*
X1788522D01*
X1786406Y1579964D01*
Y1584196D01*
X1788522Y1586312D01*
X1792754D01*
X1794870Y1584196D01*
Y1582080D01*
X1786406D01*
X1811798Y1577848D02*
Y1590544D01*
X1818146D01*
X1820262Y1588428D01*
Y1584196D01*
X1818146Y1582080D01*
X1811798D01*
X1816030D02*
X1820262Y1577848D01*
X1830842D02*
X1826610D01*
X1824494Y1579964D01*
Y1584196D01*
X1826610Y1586312D01*
X1830842D01*
X1832958Y1584196D01*
Y1582080D01*
X1824494D01*
X1837190Y1577848D02*
X1841422D01*
X1839306D01*
Y1590544D01*
X1837190D01*
X1854118Y1577848D02*
X1849886D01*
X1847770Y1579964D01*
Y1584196D01*
X1849886Y1586312D01*
X1854118D01*
X1856234Y1584196D01*
Y1582080D01*
X1847770D01*
X1862582Y1586312D02*
X1866814D01*
X1868930Y1584196D01*
Y1577848D01*
X1862582D01*
X1860466Y1579964D01*
X1862582Y1582080D01*
X1868930D01*
X1873162Y1577848D02*
X1879509D01*
X1881626Y1579964D01*
X1879509Y1582080D01*
X1875278D01*
X1873162Y1584196D01*
X1875278Y1586312D01*
X1881626D01*
X1892205Y1577848D02*
X1887973D01*
X1885857Y1579964D01*
Y1584196D01*
X1887973Y1586312D01*
X1892205D01*
X1894321Y1584196D01*
Y1582080D01*
X1885857D01*
X2077720Y1579964D02*
X2079836Y1577848D01*
X2084068D01*
X2086184Y1579964D01*
Y1588428D01*
X2084068Y1590544D01*
X2079836D01*
X2077720Y1588428D01*
Y1586312D01*
X2079836Y1584196D01*
X2086184D01*
X2090416Y1577848D02*
X2098880Y1586312D01*
X2103112Y1577848D02*
X2107344D01*
X2105228D01*
Y1590544D01*
X2103112Y1588428D01*
X2122156Y1590544D02*
X2117924Y1588428D01*
X2113692Y1584196D01*
Y1579964D01*
X2115808Y1577848D01*
X2120040D01*
X2122156Y1579964D01*
Y1582080D01*
X2120040Y1584196D01*
X2113692D01*
X2126388Y1577848D02*
X2134852Y1586312D01*
X2147547Y1577848D02*
X2139084D01*
X2147547Y1586312D01*
Y1588428D01*
X2145431Y1590544D01*
X2141199D01*
X2139084Y1588428D01*
X2151779D02*
X2153895Y1590544D01*
X2158127D01*
X2160243Y1588428D01*
Y1579964D01*
X2158127Y1577848D01*
X2153895D01*
X2151779Y1579964D01*
Y1588428D01*
X2172939Y1577848D02*
X2164475D01*
X2172939Y1586312D01*
Y1588428D01*
X2170823Y1590544D01*
X2166591D01*
X2164475Y1588428D01*
X2177171D02*
X2179287Y1590544D01*
X2183519D01*
X2185635Y1588428D01*
Y1579964D01*
X2183519Y1577848D01*
X2179287D01*
X2177171Y1579964D01*
Y1588428D01*
X2253824Y1590544D02*
X2245360D01*
Y1577848D01*
X2253824D01*
X2245360Y1584196D02*
X2249592D01*
X2258056Y1577848D02*
Y1590544D01*
X2262288Y1586312D01*
X2266520Y1590544D01*
Y1577848D01*
X2277100Y1590544D02*
X2272868D01*
X2270752Y1588428D01*
Y1579964D01*
X2272868Y1577848D01*
X2277100D01*
X2279216Y1579964D01*
Y1588428D01*
X2277100Y1590544D01*
X2289796D02*
X2285564D01*
X2283448Y1588428D01*
Y1579964D01*
X2285564Y1577848D01*
X2289796D01*
X2291912Y1579964D01*
Y1588428D01*
X2289796Y1590544D01*
X2253824Y1628644D02*
X2245360D01*
Y1615948D01*
X2253824D01*
X2245360Y1622296D02*
X2249592D01*
X2258056Y1615948D02*
Y1628644D01*
X2262288Y1624412D01*
X2266520Y1628644D01*
Y1615948D01*
X2277100Y1628644D02*
X2272868D01*
X2270752Y1626528D01*
Y1618064D01*
X2272868Y1615948D01*
X2277100D01*
X2279216Y1618064D01*
Y1626528D01*
X2277100Y1628644D01*
X2289796D02*
X2285564D01*
X2283448Y1626528D01*
Y1618064D01*
X2285564Y1615948D01*
X2289796D01*
X2291912Y1618064D01*
Y1626528D01*
X2289796Y1628644D01*
X2077720Y1626104D02*
X2086184D01*
Y1623988D01*
X2077720Y1615524D01*
Y1613408D01*
X2090416D02*
X2098880Y1621872D01*
X2111576Y1613408D02*
X2103112D01*
X2111576Y1621872D01*
Y1623988D01*
X2109460Y1626104D01*
X2105228D01*
X2103112Y1623988D01*
X2115808D02*
X2117924Y1626104D01*
X2122156D01*
X2124272Y1623988D01*
Y1615524D01*
X2122156Y1613408D01*
X2117924D01*
X2115808Y1615524D01*
Y1623988D01*
X2128504Y1613408D02*
X2136967Y1621872D01*
X2149663Y1613408D02*
X2141199D01*
X2149663Y1621872D01*
Y1623988D01*
X2147547Y1626104D01*
X2143315D01*
X2141199Y1623988D01*
X2153895D02*
X2156011Y1626104D01*
X2160243D01*
X2162359Y1623988D01*
Y1615524D01*
X2160243Y1613408D01*
X2156011D01*
X2153895Y1615524D01*
Y1623988D01*
X2175055Y1613408D02*
X2166591D01*
X2175055Y1621872D01*
Y1623988D01*
X2172939Y1626104D01*
X2168707D01*
X2166591Y1623988D01*
X2179287D02*
X2181403Y1626104D01*
X2185635D01*
X2187751Y1623988D01*
Y1615524D01*
X2185635Y1613408D01*
X2181403D01*
X2179287Y1615524D01*
Y1623988D01*
X1600200Y1628644D02*
X1604432D01*
X1602316D01*
Y1615948D01*
X1600200D01*
X1604432D01*
X1610780D02*
Y1624412D01*
X1617128D01*
X1619244Y1622296D01*
Y1615948D01*
X1623476D02*
X1627708D01*
X1625592D01*
Y1624412D01*
X1623476D01*
X1636172Y1626528D02*
Y1624412D01*
X1634056D01*
X1638288D01*
X1636172D01*
Y1618064D01*
X1638288Y1615948D01*
X1644636D02*
X1648868D01*
X1646752D01*
Y1624412D01*
X1644636D01*
X1657332D02*
X1661564D01*
X1663680Y1622296D01*
Y1615948D01*
X1657332D01*
X1655215Y1618064D01*
X1657332Y1620180D01*
X1663680D01*
X1667911Y1615948D02*
X1672143D01*
X1670027D01*
Y1628644D01*
X1667911D01*
X1691187Y1615948D02*
Y1628644D01*
X1697535D01*
X1699651Y1626528D01*
Y1622296D01*
X1697535Y1620180D01*
X1691187D01*
X1703883Y1624412D02*
Y1615948D01*
Y1620180D01*
X1705999Y1622296D01*
X1708115Y1624412D01*
X1710231D01*
X1718695Y1615948D02*
X1722927D01*
X1725043Y1618064D01*
Y1622296D01*
X1722927Y1624412D01*
X1718695D01*
X1716579Y1622296D01*
Y1618064D01*
X1718695Y1615948D01*
X1731391Y1626528D02*
Y1624412D01*
X1729275D01*
X1733507D01*
X1731391D01*
Y1618064D01*
X1733507Y1615948D01*
X1741971D02*
X1746203D01*
X1748319Y1618064D01*
Y1622296D01*
X1746203Y1624412D01*
X1741971D01*
X1739855Y1622296D01*
Y1618064D01*
X1741971Y1615948D01*
X1754667Y1626528D02*
Y1624412D01*
X1752551D01*
X1756783D01*
X1754667D01*
Y1618064D01*
X1756783Y1615948D01*
X1763131Y1624412D02*
Y1618064D01*
X1765247Y1615948D01*
X1771595D01*
Y1613832D01*
X1769478Y1611716D01*
X1767363D01*
X1771595Y1615948D02*
Y1624412D01*
X1775827Y1611716D02*
Y1624412D01*
X1782174D01*
X1784290Y1622296D01*
Y1618064D01*
X1782174Y1615948D01*
X1775827D01*
X1794870D02*
X1790638D01*
X1788522Y1618064D01*
Y1622296D01*
X1790638Y1624412D01*
X1794870D01*
X1796986Y1622296D01*
Y1620180D01*
X1788522D01*
X1813914Y1615948D02*
Y1628644D01*
X1820262D01*
X1822378Y1626528D01*
Y1622296D01*
X1820262Y1620180D01*
X1813914D01*
X1818146D02*
X1822378Y1615948D01*
X1832958D02*
X1828726D01*
X1826610Y1618064D01*
Y1622296D01*
X1828726Y1624412D01*
X1832958D01*
X1835074Y1622296D01*
Y1620180D01*
X1826610D01*
X1839306Y1615948D02*
X1843538D01*
X1841422D01*
Y1628644D01*
X1839306D01*
X1856234Y1615948D02*
X1852002D01*
X1849886Y1618064D01*
Y1622296D01*
X1852002Y1624412D01*
X1856234D01*
X1858350Y1622296D01*
Y1620180D01*
X1849886D01*
X1864698Y1624412D02*
X1868930D01*
X1871046Y1622296D01*
Y1615948D01*
X1864698D01*
X1862582Y1618064D01*
X1864698Y1620180D01*
X1871046D01*
X1875278Y1615948D02*
X1881626D01*
X1883741Y1618064D01*
X1881626Y1620180D01*
X1877394D01*
X1875278Y1622296D01*
X1877394Y1624412D01*
X1883741D01*
X1894321Y1615948D02*
X1890089D01*
X1887973Y1618064D01*
Y1622296D01*
X1890089Y1624412D01*
X1894321D01*
X1896437Y1622296D01*
Y1620180D01*
X1887973D01*
X1490980Y1615948D02*
Y1628644D01*
X1497328D01*
X1499444Y1626528D01*
Y1622296D01*
X1497328Y1620180D01*
X1490980D01*
X1495212D02*
X1499444Y1615948D01*
X1510024D02*
X1505792D01*
X1503676Y1618064D01*
Y1622296D01*
X1505792Y1624412D01*
X1510024D01*
X1512140Y1622296D01*
Y1620180D01*
X1503676D01*
X1516372Y1624412D02*
X1520604Y1615948D01*
X1524836Y1624412D01*
X1541763Y1615948D02*
Y1624412D01*
X1545995Y1628644D01*
X1550228Y1624412D01*
Y1615948D01*
Y1622296D01*
X1541763D01*
X2258060Y1669283D02*
Y1654048D01*
X2265677D01*
X2268217Y1656587D01*
Y1659126D01*
X2265677Y1661665D01*
X2258060D01*
X2265677D01*
X2268217Y1664205D01*
Y1666744D01*
X2265677Y1669283D01*
X2258060D01*
X2273295D02*
Y1666744D01*
X2278373Y1661665D01*
X2283452Y1666744D01*
Y1669283D01*
X2278373Y1661665D02*
Y1654048D01*
X2098040Y1669283D02*
Y1654048D01*
X2105658D01*
X2108197Y1656587D01*
Y1666744D01*
X2105658Y1669283D01*
X2098040D01*
X2113275Y1654048D02*
Y1664205D01*
X2118353Y1669283D01*
X2123432Y1664205D01*
Y1654048D01*
Y1661665D01*
X2113275D01*
X2128510Y1669283D02*
X2138667D01*
X2133589D01*
Y1654048D01*
X2153902Y1669283D02*
X2143745D01*
Y1654048D01*
X2153902D01*
X2143745Y1661665D02*
X2148824D01*
X1600200Y1669283D02*
Y1654048D01*
X1607818D01*
X1610357Y1656587D01*
Y1666744D01*
X1607818Y1669283D01*
X1600200D01*
X1625592D02*
X1615435D01*
Y1654048D01*
X1625592D01*
X1615435Y1661665D02*
X1620513D01*
X1640827Y1666744D02*
X1638288Y1669283D01*
X1633209D01*
X1630670Y1666744D01*
Y1664205D01*
X1633209Y1661665D01*
X1638288D01*
X1640827Y1659126D01*
Y1656587D01*
X1638288Y1654048D01*
X1633209D01*
X1630670Y1656587D01*
X1656062Y1666744D02*
X1653523Y1669283D01*
X1648444D01*
X1645905Y1666744D01*
Y1656587D01*
X1648444Y1654048D01*
X1653523D01*
X1656062Y1656587D01*
X1661140Y1654048D02*
Y1669283D01*
X1668758D01*
X1671297Y1666744D01*
Y1661665D01*
X1668758Y1659126D01*
X1661140D01*
X1666219D02*
X1671297Y1654048D01*
X1676375Y1669283D02*
X1681454D01*
X1678914D01*
Y1654048D01*
X1676375D01*
X1681454D01*
X1689071D02*
Y1669283D01*
X1696689D01*
X1699228Y1666744D01*
Y1661665D01*
X1696689Y1659126D01*
X1689071D01*
X1704306Y1669283D02*
X1714463D01*
X1709385D01*
Y1654048D01*
X1719541Y1669283D02*
X1724620D01*
X1722081D01*
Y1654048D01*
X1719541D01*
X1724620D01*
X1739855Y1669283D02*
X1734776D01*
X1732237Y1666744D01*
Y1656587D01*
X1734776Y1654048D01*
X1739855D01*
X1742394Y1656587D01*
Y1666744D01*
X1739855Y1669283D01*
X1747472Y1654048D02*
Y1669283D01*
X1757629Y1654048D01*
Y1669283D01*
X1490980Y1654048D02*
Y1669283D01*
X1498598D01*
X1501137Y1666744D01*
Y1661665D01*
X1498598Y1659126D01*
X1490980D01*
X1496058D02*
X1501137Y1654048D01*
X1516372Y1669283D02*
X1506215D01*
Y1654048D01*
X1516372D01*
X1506215Y1661665D02*
X1511293D01*
X1521450Y1669283D02*
Y1659126D01*
X1526528Y1654048D01*
X1531607Y1659126D01*
Y1669283D01*
X1849120Y1697228D02*
Y1717541D01*
X1859277D01*
X1862662Y1714156D01*
Y1707385D01*
X1859277Y1703999D01*
X1849120D01*
X1855891D02*
X1862662Y1697228D01*
X1882976Y1717541D02*
X1869433D01*
Y1697228D01*
X1882976D01*
X1869433Y1707385D02*
X1876205D01*
X1889747Y1717541D02*
Y1703999D01*
X1896518Y1697228D01*
X1903289Y1703999D01*
Y1717541D01*
X1910060D02*
X1916831D01*
X1913446D01*
Y1697228D01*
X1910060D01*
X1916831D01*
X1940530Y1714156D02*
X1937145Y1717541D01*
X1930374D01*
X1926988Y1714156D01*
Y1710770D01*
X1930374Y1707385D01*
X1937145D01*
X1940530Y1703999D01*
Y1700614D01*
X1937145Y1697228D01*
X1930374D01*
X1926988Y1700614D01*
X1947301Y1717541D02*
X1954073D01*
X1950687D01*
Y1697228D01*
X1947301D01*
X1954073D01*
X1974386Y1717541D02*
X1967615D01*
X1964229Y1714156D01*
Y1700614D01*
X1967615Y1697228D01*
X1974386D01*
X1977772Y1700614D01*
Y1714156D01*
X1974386Y1717541D01*
X1984543Y1697228D02*
Y1717541D01*
X1998085Y1697228D01*
Y1717541D01*
X900363Y926685D02*
Y930379D01*
X904057Y934073D01*
X900363Y937767D02*
X904057Y934073D01*
X900363Y937767D02*
Y941461D01*
X904057D01*
X907751Y937767D01*
X911445Y941461D01*
X915140D01*
Y937767D02*
Y941461D01*
X911445Y934073D02*
X915140Y937767D01*
X911445Y934073D02*
X915140Y930379D01*
Y926685D02*
Y930379D01*
X911445Y926685D02*
X915140D01*
X907751Y930379D02*
X911445Y926685D01*
X904057D02*
X907751Y930379D01*
X900363Y926685D02*
X904057D01*
X1751948Y939980D02*
Y926685D01*
X1760811D01*
X1774105D02*
X1765242D01*
X1774105Y935548D01*
Y937764D01*
X1771889Y939980D01*
X1767458D01*
X1765242Y937764D01*
X1791831Y933332D02*
X1800694D01*
X1818420Y939980D02*
Y926685D01*
X1827283D01*
X1831715Y937764D02*
X1833930Y939980D01*
X1838362D01*
X1840578Y937764D01*
Y935548D01*
X1838362Y933332D01*
X1836146D01*
X1838362D01*
X1840578Y931117D01*
Y928901D01*
X1838362Y926685D01*
X1833930D01*
X1831715Y928901D01*
X1588267Y926685D02*
Y939980D01*
X1594915D01*
X1597130Y937764D01*
Y933332D01*
X1594915Y931117D01*
X1588267D01*
X1592699D02*
X1597130Y926685D01*
X1603778D02*
X1608209D01*
X1610425Y928901D01*
Y933332D01*
X1608209Y935548D01*
X1603778D01*
X1601562Y933332D01*
Y928901D01*
X1603778Y926685D01*
X1614856Y935548D02*
Y928901D01*
X1617072Y926685D01*
X1623719D01*
Y935548D01*
X1628151Y926685D02*
Y935548D01*
X1634798D01*
X1637014Y933332D01*
Y926685D01*
X1650308Y939980D02*
Y926685D01*
X1643661D01*
X1641445Y928901D01*
Y933332D01*
X1643661Y935548D01*
X1650308D01*
X1475106Y926685D02*
Y939980D01*
X1481754D01*
X1483969Y937764D01*
Y933332D01*
X1481754Y931117D01*
X1475106D01*
X1488401Y939980D02*
X1497264D01*
X1492832D01*
Y926685D01*
X1501695Y939980D02*
Y926685D01*
Y933332D01*
X1510558D01*
Y939980D01*
Y926685D01*
X1175822D02*
X1180254D01*
X1178038D01*
Y939980D01*
X1175822Y937764D01*
X1186901D02*
X1189117Y939980D01*
X1193548D01*
X1195764Y937764D01*
Y928901D01*
X1193548Y926685D01*
X1189117D01*
X1186901Y928901D01*
Y937764D01*
X1200195Y926685D02*
Y928901D01*
X1202411D01*
Y926685D01*
X1200195D01*
X1211274Y937764D02*
X1213490Y939980D01*
X1217921D01*
X1220137Y937764D01*
Y928901D01*
X1217921Y926685D01*
X1213490D01*
X1211274Y928901D01*
Y937764D01*
X1224569D02*
X1226784Y939980D01*
X1231216D01*
X1233432Y937764D01*
Y928901D01*
X1231216Y926685D01*
X1226784D01*
X1224569Y928901D01*
Y937764D01*
X1237863Y926685D02*
Y935548D01*
X1240079D01*
X1242295Y933332D01*
Y926685D01*
Y933332D01*
X1244510Y935548D01*
X1246726Y933332D01*
Y926685D01*
X1251158D02*
X1255589D01*
X1253373D01*
Y935548D01*
X1251158D01*
X1262236Y926685D02*
X1266668D01*
X1264452D01*
Y939980D01*
X1262236D01*
X1291041Y926685D02*
X1286610Y931117D01*
Y935548D01*
X1291041Y939980D01*
X1297688Y937764D02*
X1299904Y939980D01*
X1304336D01*
X1306551Y937764D01*
Y928901D01*
X1304336Y926685D01*
X1299904D01*
X1297688Y928901D01*
Y937764D01*
X1310983Y926685D02*
Y928901D01*
X1313199D01*
Y926685D01*
X1310983D01*
X1330925D02*
X1322062D01*
X1330925Y935548D01*
Y937764D01*
X1328709Y939980D01*
X1324277D01*
X1322062Y937764D01*
X1344219Y939980D02*
X1335356D01*
Y933332D01*
X1339788Y935548D01*
X1342003D01*
X1344219Y933332D01*
Y928901D01*
X1342003Y926685D01*
X1337572D01*
X1335356Y928901D01*
X1355298Y926685D02*
Y939980D01*
X1348651Y933332D01*
X1357514D01*
X1361945Y926685D02*
Y935548D01*
X1364161D01*
X1366377Y933332D01*
Y926685D01*
Y933332D01*
X1368592Y935548D01*
X1370808Y933332D01*
Y926685D01*
X1375240D02*
Y935548D01*
X1377455D01*
X1379671Y933332D01*
Y926685D01*
Y933332D01*
X1381887Y935548D01*
X1384103Y933332D01*
Y926685D01*
X1388534D02*
X1392966Y931117D01*
Y935548D01*
X1388534Y939980D01*
X1026766Y893438D02*
Y906733D01*
X1020119Y900085D01*
X1028982D01*
X1033413Y906733D02*
X1042276D01*
Y904517D01*
X1033413Y895654D01*
Y893438D01*
X1060002Y906733D02*
X1068865D01*
X1064434D01*
Y893438D01*
X1075512D02*
X1079944D01*
X1082160Y895654D01*
Y900085D01*
X1079944Y902301D01*
X1075512D01*
X1073297Y900085D01*
Y895654D01*
X1075512Y893438D01*
X1088807Y904517D02*
Y902301D01*
X1086591D01*
X1091023D01*
X1088807D01*
Y895654D01*
X1091023Y893438D01*
X1099886Y902301D02*
X1104317D01*
X1106533Y900085D01*
Y893438D01*
X1099886D01*
X1097670Y895654D01*
X1099886Y897870D01*
X1106533D01*
X1110965Y893438D02*
X1115396D01*
X1113180D01*
Y906733D01*
X1110965D01*
X1026766Y926685D02*
Y939980D01*
X1020119Y933332D01*
X1028982D01*
X1033413Y939980D02*
X1042276D01*
Y937764D01*
X1033413Y928901D01*
Y926685D01*
X896620Y999490D02*
Y1009647D01*
X901698Y1014725D01*
X906777Y1009647D01*
Y999490D01*
Y1007107D01*
X896620D01*
X911855Y999490D02*
X916933D01*
X914394D01*
Y1014725D01*
X911855D01*
X924551Y999490D02*
X929629D01*
X927090D01*
Y1014725D01*
X924551D01*
X962639D02*
Y999490D01*
X955021D01*
X952482Y1002029D01*
Y1007107D01*
X955021Y1009647D01*
X962639D01*
X967717D02*
Y999490D01*
Y1004568D01*
X970256Y1007107D01*
X972795Y1009647D01*
X975334D01*
X982952Y999490D02*
X988030D01*
X985491D01*
Y1009647D01*
X982952D01*
X995648Y999490D02*
X1000726D01*
X998187D01*
Y1014725D01*
X995648D01*
X1008344Y999490D02*
X1013422D01*
X1010883D01*
Y1014725D01*
X1008344D01*
X1036275D02*
Y999490D01*
Y1007107D01*
X1038814Y1009647D01*
X1043892D01*
X1046432Y1007107D01*
Y999490D01*
X1054049D02*
X1059127D01*
X1061667Y1002029D01*
Y1007107D01*
X1059127Y1009647D01*
X1054049D01*
X1051510Y1007107D01*
Y1002029D01*
X1054049Y999490D01*
X1066745D02*
X1071823D01*
X1069284D01*
Y1014725D01*
X1066745D01*
X1087058Y999490D02*
X1081980D01*
X1079441Y1002029D01*
Y1007107D01*
X1081980Y1009647D01*
X1087058D01*
X1089597Y1007107D01*
Y1004568D01*
X1079441D01*
X1094676Y999490D02*
X1102293D01*
X1104833Y1002029D01*
X1102293Y1004568D01*
X1097215D01*
X1094676Y1007107D01*
X1097215Y1009647D01*
X1104833D01*
X1127685D02*
X1132764D01*
X1135303Y1007107D01*
Y999490D01*
X1127685D01*
X1125146Y1002029D01*
X1127685Y1004568D01*
X1135303D01*
X1140381Y999490D02*
Y1009647D01*
X1147999D01*
X1150538Y1007107D01*
Y999490D01*
X1165773Y1014725D02*
Y999490D01*
X1158155D01*
X1155616Y1002029D01*
Y1007107D01*
X1158155Y1009647D01*
X1165773D01*
X1186086Y999490D02*
X1193704D01*
X1196243Y1002029D01*
X1193704Y1004568D01*
X1188625D01*
X1186086Y1007107D01*
X1188625Y1009647D01*
X1196243D01*
X1201321Y999490D02*
X1206400D01*
X1203861D01*
Y1014725D01*
X1201321D01*
X1216556Y999490D02*
X1221635D01*
X1224174Y1002029D01*
Y1007107D01*
X1221635Y1009647D01*
X1216556D01*
X1214017Y1007107D01*
Y1002029D01*
X1216556Y999490D01*
X1231792Y1012186D02*
Y1009647D01*
X1229252D01*
X1234331D01*
X1231792D01*
Y1002029D01*
X1234331Y999490D01*
X1241948D02*
X1249566D01*
X1252105Y1002029D01*
X1249566Y1004568D01*
X1244487D01*
X1241948Y1007107D01*
X1244487Y1009647D01*
X1252105D01*
X1274958D02*
X1280036D01*
X1282575Y1007107D01*
Y999490D01*
X1274958D01*
X1272418Y1002029D01*
X1274958Y1004568D01*
X1282575D01*
X1287654Y1009647D02*
Y999490D01*
Y1004568D01*
X1290193Y1007107D01*
X1292732Y1009647D01*
X1295271D01*
X1310506Y999490D02*
X1305428D01*
X1302888Y1002029D01*
Y1007107D01*
X1305428Y1009647D01*
X1310506D01*
X1313045Y1007107D01*
Y1004568D01*
X1302888D01*
X1333359Y1007107D02*
X1343515D01*
X1338437Y1012186D02*
Y1002029D01*
X1348594Y999490D02*
X1358750Y1009647D01*
X1363829Y1007107D02*
X1373985D01*
X1404456Y1014725D02*
X1394299D01*
Y1007107D01*
X1399377Y1009647D01*
X1401917D01*
X1404456Y1007107D01*
Y1002029D01*
X1401917Y999490D01*
X1396838D01*
X1394299Y1002029D01*
X1409534Y999490D02*
Y1009647D01*
X1412073D01*
X1414612Y1007107D01*
Y999490D01*
Y1007107D01*
X1417152Y1009647D01*
X1419691Y1007107D01*
Y999490D01*
X1424769D02*
X1429848D01*
X1427308D01*
Y1009647D01*
X1424769D01*
X1437465Y999490D02*
X1442543D01*
X1440004D01*
Y1014725D01*
X1437465D01*
X1467935Y1012186D02*
Y1009647D01*
X1465396D01*
X1470474D01*
X1467935D01*
Y1002029D01*
X1470474Y999490D01*
X1480631D02*
X1485709D01*
X1488249Y1002029D01*
Y1007107D01*
X1485709Y1009647D01*
X1480631D01*
X1478092Y1007107D01*
Y1002029D01*
X1480631Y999490D01*
X1493327D02*
X1498405D01*
X1495866D01*
Y1014725D01*
X1493327D01*
X1513640Y999490D02*
X1508562D01*
X1506023Y1002029D01*
Y1007107D01*
X1508562Y1009647D01*
X1513640D01*
X1516180Y1007107D01*
Y1004568D01*
X1506023D01*
X1521258Y1009647D02*
Y999490D01*
Y1004568D01*
X1523797Y1007107D01*
X1526336Y1009647D01*
X1528875D01*
X1539032D02*
X1544111D01*
X1546650Y1007107D01*
Y999490D01*
X1539032D01*
X1536493Y1002029D01*
X1539032Y1004568D01*
X1546650D01*
X1551728Y999490D02*
Y1009647D01*
X1559346D01*
X1561885Y1007107D01*
Y999490D01*
X1577120Y1009647D02*
X1569502D01*
X1566963Y1007107D01*
Y1002029D01*
X1569502Y999490D01*
X1577120D01*
X1589816D02*
X1584737D01*
X1582198Y1002029D01*
Y1007107D01*
X1584737Y1009647D01*
X1589816D01*
X1592355Y1007107D01*
Y1004568D01*
X1582198D01*
D15*
X2278814Y-25279D02*
Y-1149D01*
X2045134Y-25279D02*
X2278814D01*
X2045134D02*
Y-1149D01*
X2278814D01*
D17*
X2069264Y-13214D02*
D03*
D18*
X2207200Y-300390D02*
X2211432D01*
X2209316D01*
Y-287694D01*
X2207200Y-289810D01*
X2217780Y-291926D02*
X2219896D01*
Y-294042D01*
X2217780D01*
Y-291926D01*
Y-298274D02*
X2219896D01*
Y-300390D01*
X2217780D01*
Y-298274D01*
X2228360Y-300390D02*
X2232592D01*
X2230476D01*
Y-287694D01*
X2228360Y-289810D01*
X2363410Y-102528D02*
Y-120304D01*
Y-102528D02*
X2369335D01*
X2371875Y-103374D01*
X2373568Y-105067D01*
X2374414Y-106760D01*
X2375261Y-109300D01*
Y-113532D01*
X2374414Y-116072D01*
X2373568Y-117765D01*
X2371875Y-119458D01*
X2369335Y-120304D01*
X2363410D01*
X2376107Y431720D02*
X2375261Y433413D01*
X2373568Y435106D01*
X2371875Y435952D01*
X2368489D01*
X2366796Y435106D01*
X2365103Y433413D01*
X2364256Y431720D01*
X2363410Y429180D01*
Y424948D01*
X2364256Y422408D01*
X2365103Y420715D01*
X2366796Y419022D01*
X2368489Y418176D01*
X2371875D01*
X2373568Y419022D01*
X2375261Y420715D01*
X2376107Y422408D01*
X2363410Y975702D02*
Y957926D01*
Y975702D02*
X2371028D01*
X2373568Y974856D01*
X2374414Y974009D01*
X2375261Y972316D01*
Y970623D01*
X2374414Y968930D01*
X2373568Y968084D01*
X2371028Y967237D01*
X2363410D02*
X2371028D01*
X2373568Y966391D01*
X2374414Y965544D01*
X2375261Y963851D01*
Y961312D01*
X2374414Y959619D01*
X2373568Y958773D01*
X2371028Y957926D01*
X2363410D01*
X2376954Y1497676D02*
X2370182Y1515452D01*
X2363410Y1497676D01*
X2365950Y1503601D02*
X2374414D01*
X2047520Y1774024D02*
X2039055Y1762173D01*
X2051752D01*
X2047520Y1774024D02*
Y1756248D01*
X1341991Y1774024D02*
X1351302D01*
X1346223Y1767252D01*
X1348763D01*
X1350456Y1766406D01*
X1351302Y1765559D01*
X1352149Y1763020D01*
Y1761327D01*
X1351302Y1758788D01*
X1349609Y1757095D01*
X1347070Y1756248D01*
X1344530D01*
X1341991Y1757095D01*
X1341145Y1757941D01*
X1340298Y1759634D01*
X643914Y1769792D02*
Y1770638D01*
X644761Y1772331D01*
X645608Y1773178D01*
X647300Y1774024D01*
X650686D01*
X652379Y1773178D01*
X653226Y1772331D01*
X654072Y1770638D01*
Y1768945D01*
X653226Y1767252D01*
X651533Y1764713D01*
X643068Y1756248D01*
X654919D01*
X-55600Y1770638D02*
X-53907Y1771485D01*
X-51368Y1774024D01*
Y1756248D01*
X2047520Y-334176D02*
X2039055Y-346027D01*
X2051752D01*
X2047520Y-334176D02*
Y-351952D01*
X1341991Y-334176D02*
X1351302D01*
X1346223Y-340948D01*
X1348763D01*
X1350456Y-341794D01*
X1351302Y-342641D01*
X1352149Y-345180D01*
Y-346873D01*
X1351302Y-349412D01*
X1349609Y-351105D01*
X1347070Y-351952D01*
X1344530D01*
X1341991Y-351105D01*
X1341145Y-350259D01*
X1340298Y-348566D01*
X643914Y-338408D02*
Y-337562D01*
X644761Y-335869D01*
X645608Y-335022D01*
X647300Y-334176D01*
X650686D01*
X652379Y-335022D01*
X653226Y-335869D01*
X654072Y-337562D01*
Y-339255D01*
X653226Y-340948D01*
X651533Y-343487D01*
X643068Y-351952D01*
X654919D01*
X-55600Y-337562D02*
X-53907Y-336715D01*
X-51368Y-334176D01*
Y-351952D01*
X-379790Y-102528D02*
Y-120304D01*
Y-102528D02*
X-373865D01*
X-371325Y-103374D01*
X-369632Y-105067D01*
X-368786Y-106760D01*
X-367939Y-109300D01*
Y-113532D01*
X-368786Y-116072D01*
X-369632Y-117765D01*
X-371325Y-119458D01*
X-373865Y-120304D01*
X-379790D01*
X-367093Y431720D02*
X-367939Y433413D01*
X-369632Y435106D01*
X-371325Y435952D01*
X-374711D01*
X-376404Y435106D01*
X-378097Y433413D01*
X-378943Y431720D01*
X-379790Y429180D01*
Y424948D01*
X-378943Y422408D01*
X-378097Y420715D01*
X-376404Y419022D01*
X-374711Y418176D01*
X-371325D01*
X-369632Y419022D01*
X-367939Y420715D01*
X-367093Y422408D01*
X-379790Y975702D02*
Y957926D01*
Y975702D02*
X-372172D01*
X-369632Y974856D01*
X-368786Y974009D01*
X-367939Y972316D01*
Y970623D01*
X-368786Y968930D01*
X-369632Y968084D01*
X-372172Y967237D01*
X-379790D02*
X-372172D01*
X-369632Y966391D01*
X-368786Y965544D01*
X-367939Y963851D01*
Y961312D01*
X-368786Y959619D01*
X-369632Y958773D01*
X-372172Y957926D01*
X-379790D01*
X-366246Y1497676D02*
X-373018Y1515452D01*
X-379790Y1497676D01*
X-377251Y1503601D02*
X-368786D01*
D19*
X2057834Y633085D02*
Y612769D01*
X2069443D01*
X2087147D02*
X2079407Y633085D01*
X2071668Y612769D01*
X2074570Y619541D02*
X2084244D01*
X2091887Y633085D02*
X2099626Y623410D01*
Y612769D01*
X2107366Y633085D02*
X2099626Y623410D01*
X2122554Y633085D02*
X2109978D01*
Y612769D01*
X2122554D01*
X2109978Y623410D02*
X2117717D01*
X2125940Y633085D02*
Y612769D01*
Y633085D02*
X2134647D01*
X2137549Y632117D01*
X2138516Y631150D01*
X2139484Y629215D01*
Y627280D01*
X2138516Y625345D01*
X2137549Y624378D01*
X2134647Y623410D01*
X2125940D01*
X2132712D02*
X2139484Y612769D01*
X2159993Y633085D02*
Y618573D01*
X2160960Y615671D01*
X2162895Y613736D01*
X2165797Y612769D01*
X2167732D01*
X2170634Y613736D01*
X2172569Y615671D01*
X2173537Y618573D01*
Y633085D01*
X2192691Y630182D02*
X2190757Y632117D01*
X2187854Y633085D01*
X2183985D01*
X2181082Y632117D01*
X2179147Y630182D01*
Y628248D01*
X2180115Y626313D01*
X2181082Y625345D01*
X2183017Y624378D01*
X2188822Y622443D01*
X2190757Y621476D01*
X2191724Y620508D01*
X2192691Y618573D01*
Y615671D01*
X2190757Y613736D01*
X2187854Y612769D01*
X2183985D01*
X2181082Y613736D01*
X2179147Y615671D01*
X2212717Y612769D02*
X2204977Y633085D01*
X2197238Y612769D01*
X2200140Y619541D02*
X2209814D01*
X2231968Y628248D02*
X2231001Y630182D01*
X2229066Y632117D01*
X2227131Y633085D01*
X2223262D01*
X2221327Y632117D01*
X2219392Y630182D01*
X2218424Y628248D01*
X2217457Y625345D01*
Y620508D01*
X2218424Y617606D01*
X2219392Y615671D01*
X2221327Y613736D01*
X2223262Y612769D01*
X2227131D01*
X2229066Y613736D01*
X2231001Y615671D01*
X2231968Y617606D01*
Y620508D01*
X2227131D02*
X2231968D01*
X2249188Y633085D02*
X2236612D01*
Y612769D01*
X2249188D01*
X2236612Y623410D02*
X2244351D01*
D146*
X887009Y949958D02*
X2016666D01*
X887009Y916711D02*
X2016666D01*
X887009Y883464D02*
X2016666D01*
Y983205D01*
X887009D02*
X2016666D01*
X887009Y883464D02*
Y983205D01*
X1741974Y883464D02*
Y983205D01*
X1578293Y883464D02*
Y983205D01*
X1465132Y883464D02*
Y983205D01*
X1165848Y883464D02*
Y983205D01*
X1010145Y883464D02*
Y983205D01*
D150*
X1751948Y975885D02*
Y959932D01*
X1759924D01*
X1762583Y962591D01*
Y973227D01*
X1759924Y975885D01*
X1751948D01*
X1767901Y970568D02*
Y959932D01*
Y965250D01*
X1770560Y967909D01*
X1773219Y970568D01*
X1775878D01*
X1783854Y959932D02*
X1789172D01*
X1786513D01*
Y970568D01*
X1783854D01*
X1797149Y959932D02*
X1802467D01*
X1799808D01*
Y975885D01*
X1797149D01*
X1810443Y959932D02*
X1815761D01*
X1813102D01*
Y975885D01*
X1810443D01*
X1839691D02*
Y959932D01*
X1850327D01*
X1858304Y970568D02*
X1863621D01*
X1866280Y967909D01*
Y959932D01*
X1858304D01*
X1855645Y962591D01*
X1858304Y965250D01*
X1866280D01*
X1871598Y970568D02*
Y962591D01*
X1874257Y959932D01*
X1882234D01*
Y957273D01*
X1879575Y954614D01*
X1876916D01*
X1882234Y959932D02*
Y970568D01*
X1895528Y959932D02*
X1890210D01*
X1887552Y962591D01*
Y967909D01*
X1890210Y970568D01*
X1895528D01*
X1898187Y967909D01*
Y965250D01*
X1887552D01*
X1903505Y970568D02*
Y959932D01*
Y965250D01*
X1906164Y967909D01*
X1908823Y970568D01*
X1911482D01*
X1935412Y959932D02*
Y975885D01*
X1943389D01*
X1946047Y973227D01*
Y967909D01*
X1943389Y965250D01*
X1935412D01*
X1954024Y970568D02*
X1959342D01*
X1962001Y967909D01*
Y959932D01*
X1954024D01*
X1951365Y962591D01*
X1954024Y965250D01*
X1962001D01*
X1967319Y959932D02*
X1972636D01*
X1969978D01*
Y970568D01*
X1967319D01*
X1980613D02*
Y959932D01*
Y965250D01*
X1983272Y967909D01*
X1985931Y970568D01*
X1988590D01*
X1588267Y975885D02*
Y959932D01*
Y967909D01*
X1598903D01*
Y975885D01*
Y959932D01*
X1606880D02*
X1612198D01*
X1614856Y962591D01*
Y967909D01*
X1612198Y970568D01*
X1606880D01*
X1604221Y967909D01*
Y962591D01*
X1606880Y959932D01*
X1620174D02*
X1625492D01*
X1622833D01*
Y975885D01*
X1620174D01*
X1641445Y959932D02*
X1636128D01*
X1633469Y962591D01*
Y967909D01*
X1636128Y970568D01*
X1641445D01*
X1644104Y967909D01*
Y965250D01*
X1633469D01*
X1665376Y975885D02*
X1676011D01*
X1670693D01*
Y959932D01*
X1681329Y970568D02*
Y962591D01*
X1683988Y959932D01*
X1691965D01*
Y957273D01*
X1689306Y954614D01*
X1686647D01*
X1691965Y959932D02*
Y970568D01*
X1697282Y954614D02*
Y970568D01*
X1705259D01*
X1707918Y967909D01*
Y962591D01*
X1705259Y959932D01*
X1697282D01*
X1721212D02*
X1715895D01*
X1713236Y962591D01*
Y967909D01*
X1715895Y970568D01*
X1721212D01*
X1723871Y967909D01*
Y965250D01*
X1713236D01*
X1475106Y959932D02*
Y975885D01*
X1483083D01*
X1485742Y973227D01*
Y967909D01*
X1483083Y965250D01*
X1475106D01*
X1491060Y959932D02*
X1496378D01*
X1493719D01*
Y975885D01*
X1491060D01*
X1507013Y970568D02*
X1512331D01*
X1514990Y967909D01*
Y959932D01*
X1507013D01*
X1504354Y962591D01*
X1507013Y965250D01*
X1514990D01*
X1522966Y973227D02*
Y970568D01*
X1520308D01*
X1525625D01*
X1522966D01*
Y962591D01*
X1525625Y959932D01*
X1541579D02*
X1536261D01*
X1533602Y962591D01*
Y967909D01*
X1536261Y970568D01*
X1541579D01*
X1544238Y967909D01*
Y965250D01*
X1533602D01*
X1560191Y975885D02*
Y959932D01*
X1552214D01*
X1549556Y962591D01*
Y967909D01*
X1552214Y970568D01*
X1560191D01*
X1186458Y975885D02*
X1175822D01*
Y967909D01*
X1181140D01*
X1175822D01*
Y959932D01*
X1191776D02*
X1197093D01*
X1194434D01*
Y970568D01*
X1191776D01*
X1205070Y959932D02*
Y970568D01*
X1213047D01*
X1215706Y967909D01*
Y959932D01*
X1221023D02*
X1226341D01*
X1223682D01*
Y970568D01*
X1221023D01*
X1234318Y959932D02*
X1242295D01*
X1244954Y962591D01*
X1242295Y965250D01*
X1236977D01*
X1234318Y967909D01*
X1236977Y970568D01*
X1244954D01*
X1250271Y975885D02*
Y959932D01*
Y967909D01*
X1252930Y970568D01*
X1258248D01*
X1260907Y967909D01*
Y959932D01*
X1274202D02*
X1268884D01*
X1266225Y962591D01*
Y967909D01*
X1268884Y970568D01*
X1274202D01*
X1276860Y967909D01*
Y965250D01*
X1266225D01*
X1292814Y975885D02*
Y959932D01*
X1284837D01*
X1282178Y962591D01*
Y967909D01*
X1284837Y970568D01*
X1292814D01*
X1314085Y975885D02*
Y959932D01*
Y967909D01*
X1324721D01*
Y975885D01*
Y959932D01*
X1332697D02*
X1338015D01*
X1340674Y962591D01*
Y967909D01*
X1338015Y970568D01*
X1332697D01*
X1330038Y967909D01*
Y962591D01*
X1332697Y959932D01*
X1345992D02*
X1351310D01*
X1348651D01*
Y975885D01*
X1345992D01*
X1367263Y959932D02*
X1361945D01*
X1359286Y962591D01*
Y967909D01*
X1361945Y970568D01*
X1367263D01*
X1369922Y967909D01*
Y965250D01*
X1359286D01*
X1401829Y973227D02*
X1399170Y975885D01*
X1393852D01*
X1391193Y973227D01*
Y970568D01*
X1393852Y967909D01*
X1399170D01*
X1401829Y965250D01*
Y962591D01*
X1399170Y959932D01*
X1393852D01*
X1391193Y962591D01*
X1407147Y959932D02*
X1412464D01*
X1409805D01*
Y970568D01*
X1407147D01*
X1420441D02*
X1431077D01*
X1420441Y959932D01*
X1431077D01*
X1444371D02*
X1439053D01*
X1436395Y962591D01*
Y967909D01*
X1439053Y970568D01*
X1444371D01*
X1447030Y967909D01*
Y965250D01*
X1436395D01*
X1020119Y975885D02*
Y959932D01*
Y967909D01*
X1030754D01*
Y975885D01*
Y959932D01*
X1036072D02*
X1041390D01*
X1038731D01*
Y970568D01*
X1036072D01*
X1052026Y973227D02*
Y970568D01*
X1049367D01*
X1054684D01*
X1052026D01*
Y962591D01*
X1054684Y959932D01*
X1089250Y973227D02*
X1086591Y975885D01*
X1081273D01*
X1078615Y973227D01*
Y962591D01*
X1081273Y959932D01*
X1086591D01*
X1089250Y962591D01*
X1097227Y959932D02*
X1102545D01*
X1105203Y962591D01*
Y967909D01*
X1102545Y970568D01*
X1097227D01*
X1094568Y967909D01*
Y962591D01*
X1097227Y959932D01*
X1110521Y970568D02*
Y962591D01*
X1113180Y959932D01*
X1121157D01*
Y970568D01*
X1126475Y959932D02*
Y970568D01*
X1134451D01*
X1137110Y967909D01*
Y959932D01*
X1145087Y973227D02*
Y970568D01*
X1142428D01*
X1147746D01*
X1145087D01*
Y962591D01*
X1147746Y959932D01*
X917593Y973227D02*
X914934Y975885D01*
X909616D01*
X906958Y973227D01*
Y970568D01*
X909616Y967909D01*
X914934D01*
X917593Y965250D01*
Y962591D01*
X914934Y959932D01*
X909616D01*
X906958Y962591D01*
X922911Y970568D02*
Y962591D01*
X925570Y959932D01*
X933547D01*
Y957273D01*
X930888Y954614D01*
X928229D01*
X933547Y959932D02*
Y970568D01*
X938864Y959932D02*
Y970568D01*
X941523D01*
X944182Y967909D01*
Y959932D01*
Y967909D01*
X946841Y970568D01*
X949500Y967909D01*
Y959932D01*
X954818Y975885D02*
Y959932D01*
X962794D01*
X965453Y962591D01*
Y965250D01*
Y967909D01*
X962794Y970568D01*
X954818D01*
X973430Y959932D02*
X978748D01*
X981407Y962591D01*
Y967909D01*
X978748Y970568D01*
X973430D01*
X970771Y967909D01*
Y962591D01*
X973430Y959932D01*
X986725D02*
X992042D01*
X989383D01*
Y975885D01*
X986725D01*
D167*
X143779Y288006D02*
Y289276D01*
X145049Y290546D01*
X143779Y291816D02*
X145049Y290546D01*
X143779Y291816D02*
Y293086D01*
X145049D01*
X146319Y291816D01*
X147589Y293086D01*
X148859D01*
Y291816D02*
Y293086D01*
X147589Y290546D02*
X148859Y291816D01*
X147589Y290546D02*
X148859Y289276D01*
Y288006D02*
Y289276D01*
X147589Y288006D02*
X148859D01*
X146319Y289276D02*
X147589Y288006D01*
X145049D02*
X146319Y289276D01*
X143779Y288006D02*
X145049D01*
X145925Y310987D02*
Y312257D01*
X147195Y313527D01*
X145925Y314797D02*
X147195Y313527D01*
X145925Y314797D02*
Y316067D01*
X147195D01*
X148465Y314797D01*
X149735Y316067D01*
X151005D01*
Y314797D02*
Y316067D01*
X149735Y313527D02*
X151005Y314797D01*
X149735Y313527D02*
X151005Y312257D01*
Y310987D02*
Y312257D01*
X149735Y310987D02*
X151005D01*
X148465Y312257D02*
X149735Y310987D01*
X147195D02*
X148465Y312257D01*
X145925Y310987D02*
X147195D01*
X236722Y261031D02*
Y262301D01*
X237992Y263571D01*
X236722Y264841D02*
X237992Y263571D01*
X236722Y264841D02*
Y266111D01*
X237992D01*
X239262Y264841D01*
X240532Y266111D01*
X241802D01*
Y264841D02*
Y266111D01*
X240532Y263571D02*
X241802Y264841D01*
X240532Y263571D02*
X241802Y262301D01*
Y261031D02*
Y262301D01*
X240532Y261031D02*
X241802D01*
X239262Y262301D02*
X240532Y261031D01*
X237992D02*
X239262Y262301D01*
X236722Y261031D02*
X237992D01*
X233960Y281760D02*
Y283030D01*
X235230Y284300D01*
X233960Y285570D02*
X235230Y284300D01*
X233960Y285570D02*
Y286840D01*
X235230D01*
X236500Y285570D01*
X237770Y286840D01*
X239040D01*
Y285570D02*
Y286840D01*
X237770Y284300D02*
X239040Y285570D01*
X237770Y284300D02*
X239040Y283030D01*
Y281760D02*
Y283030D01*
X237770Y281760D02*
X239040D01*
X236500Y283030D02*
X237770Y281760D01*
X235230D02*
X236500Y283030D01*
X233960Y281760D02*
X235230D01*
X243945Y290064D02*
Y291334D01*
X245215Y292604D01*
X243945Y293874D02*
X245215Y292604D01*
X243945Y293874D02*
Y295144D01*
X245215D01*
X246485Y293874D01*
X247755Y295144D01*
X249025D01*
Y293874D02*
Y295144D01*
X247755Y292604D02*
X249025Y293874D01*
X247755Y292604D02*
X249025Y291334D01*
Y290064D02*
Y291334D01*
X247755Y290064D02*
X249025D01*
X246485Y291334D02*
X247755Y290064D01*
X245215D02*
X246485Y291334D01*
X243945Y290064D02*
X245215D01*
X252355Y310709D02*
Y311979D01*
X253625Y313249D01*
X252355Y314519D02*
X253625Y313249D01*
X252355Y314519D02*
Y315789D01*
X253625D01*
X254895Y314519D01*
X256165Y315789D01*
X257435D01*
Y314519D02*
Y315789D01*
X256165Y313249D02*
X257435Y314519D01*
X256165Y313249D02*
X257435Y311979D01*
Y310709D02*
Y311979D01*
X256165Y310709D02*
X257435D01*
X254895Y311979D02*
X256165Y310709D01*
X253625D02*
X254895Y311979D01*
X252355Y310709D02*
X253625D01*
X252999Y317260D02*
Y318530D01*
X254269Y319800D01*
X252999Y321070D02*
X254269Y319800D01*
X252999Y321070D02*
Y322340D01*
X254269D01*
X255539Y321070D01*
X256809Y322340D01*
X258079D01*
Y321070D02*
Y322340D01*
X256809Y319800D02*
X258079Y321070D01*
X256809Y319800D02*
X258079Y318530D01*
Y317260D02*
Y318530D01*
X256809Y317260D02*
X258079D01*
X255539Y318530D02*
X256809Y317260D01*
X254269D02*
X255539Y318530D01*
X252999Y317260D02*
X254269D01*
X238318Y246372D02*
Y247642D01*
X239588Y248912D01*
X238318Y250182D02*
X239588Y248912D01*
X238318Y250182D02*
Y251452D01*
X239588D01*
X240858Y250182D01*
X242128Y251452D01*
X243398D01*
Y250182D02*
Y251452D01*
X242128Y248912D02*
X243398Y250182D01*
X242128Y248912D02*
X243398Y247642D01*
Y246372D02*
Y247642D01*
X242128Y246372D02*
X243398D01*
X240858Y247642D02*
X242128Y246372D01*
X239588D02*
X240858Y247642D01*
X238318Y246372D02*
X239588D01*
X261939Y307852D02*
Y309121D01*
X263209Y310392D01*
X261939Y311661D02*
X263209Y310392D01*
X261939Y311661D02*
Y312931D01*
X263209D01*
X264479Y311661D01*
X265749Y312931D01*
X267019D01*
Y311661D02*
Y312931D01*
X265749Y310392D02*
X267019Y311661D01*
X265749Y310392D02*
X267019Y309121D01*
Y307852D02*
Y309121D01*
X265749Y307852D02*
X267019D01*
X264479Y309121D02*
X265749Y307852D01*
X263209D02*
X264479Y309121D01*
X261939Y307852D02*
X263209D01*
X240972Y321179D02*
Y322449D01*
X242242Y323719D01*
X240972Y324989D02*
X242242Y323719D01*
X240972Y324989D02*
Y326259D01*
X242242D01*
X243512Y324989D01*
X244782Y326259D01*
X246052D01*
Y324989D02*
Y326259D01*
X244782Y323719D02*
X246052Y324989D01*
X244782Y323719D02*
X246052Y322449D01*
Y321179D02*
Y322449D01*
X244782Y321179D02*
X246052D01*
X243512Y322449D02*
X244782Y321179D01*
X242242D02*
X243512Y322449D01*
X240972Y321179D02*
X242242D01*
X230139Y322146D02*
Y323415D01*
X231409Y324686D01*
X230139Y325956D02*
X231409Y324686D01*
X230139Y325956D02*
Y327225D01*
X231409D01*
X232679Y325956D01*
X233949Y327225D01*
X235219D01*
Y325956D02*
Y327225D01*
X233949Y324686D02*
X235219Y325956D01*
X233949Y324686D02*
X235219Y323415D01*
Y322146D02*
Y323415D01*
X233949Y322146D02*
X235219D01*
X232679Y323415D02*
X233949Y322146D01*
X231409D02*
X232679Y323415D01*
X230139Y322146D02*
X231409D01*
X232547Y243210D02*
Y244480D01*
X233817Y245750D01*
X232547Y247020D02*
X233817Y245750D01*
X232547Y247020D02*
Y248290D01*
X233817D01*
X235087Y247020D01*
X236357Y248290D01*
X237627D01*
Y247020D02*
Y248290D01*
X236357Y245750D02*
X237627Y247020D01*
X236357Y245750D02*
X237627Y244480D01*
Y243210D02*
Y244480D01*
X236357Y243210D02*
X237627D01*
X235087Y244480D02*
X236357Y243210D01*
X233817D02*
X235087Y244480D01*
X232547Y243210D02*
X233817D01*
X250095Y267344D02*
Y268614D01*
X251365Y269884D01*
X250095Y271154D02*
X251365Y269884D01*
X250095Y271154D02*
Y272424D01*
X251365D01*
X252635Y271154D01*
X253905Y272424D01*
X255175D01*
Y271154D02*
Y272424D01*
X253905Y269884D02*
X255175Y271154D01*
X253905Y269884D02*
X255175Y268614D01*
Y267344D02*
Y268614D01*
X253905Y267344D02*
X255175D01*
X252635Y268614D02*
X253905Y267344D01*
X251365D02*
X252635Y268614D01*
X250095Y267344D02*
X251365D01*
X230821Y368460D02*
Y369730D01*
X232091Y371000D01*
X230821Y372270D02*
X232091Y371000D01*
X230821Y372270D02*
Y373540D01*
X232091D01*
X233361Y372270D01*
X234631Y373540D01*
X235901D01*
Y372270D02*
Y373540D01*
X234631Y371000D02*
X235901Y372270D01*
X234631Y371000D02*
X235901Y369730D01*
Y368460D02*
Y369730D01*
X234631Y368460D02*
X235901D01*
X233361Y369730D02*
X234631Y368460D01*
X232091D02*
X233361Y369730D01*
X230821Y368460D02*
X232091D01*
X217036Y336675D02*
Y337945D01*
X218306Y339215D01*
X217036Y340485D02*
X218306Y339215D01*
X217036Y340485D02*
Y341755D01*
X218306D01*
X219576Y340485D01*
X220846Y341755D01*
X222116D01*
Y340485D02*
Y341755D01*
X220846Y339215D02*
X222116Y340485D01*
X220846Y339215D02*
X222116Y337945D01*
Y336675D02*
Y337945D01*
X220846Y336675D02*
X222116D01*
X219576Y337945D02*
X220846Y336675D01*
X218306D02*
X219576Y337945D01*
X217036Y336675D02*
X218306D01*
X241877Y329980D02*
Y331250D01*
X243147Y332520D01*
X241877Y333790D02*
X243147Y332520D01*
X241877Y333790D02*
Y335060D01*
X243147D01*
X244417Y333790D01*
X245687Y335060D01*
X246957D01*
Y333790D02*
Y335060D01*
X245687Y332520D02*
X246957Y333790D01*
X245687Y332520D02*
X246957Y331250D01*
Y329980D02*
Y331250D01*
X245687Y329980D02*
X246957D01*
X244417Y331250D02*
X245687Y329980D01*
X243147D02*
X244417Y331250D01*
X241877Y329980D02*
X243147D01*
X195840Y375650D02*
Y376921D01*
X197110Y378190D01*
X195840Y379460D02*
X197110Y378190D01*
X195840Y379460D02*
Y380731D01*
X197110D01*
X198379Y379460D01*
X199650Y380731D01*
X200919D01*
Y379460D02*
Y380731D01*
X199650Y378190D02*
X200919Y379460D01*
X199650Y378190D02*
X200919Y376921D01*
Y375650D02*
Y376921D01*
X199650Y375650D02*
X200919D01*
X198379Y376921D02*
X199650Y375650D01*
X197110D02*
X198379Y376921D01*
X195840Y375650D02*
X197110D01*
X191043Y380155D02*
Y381425D01*
X192313Y382695D01*
X191043Y383965D02*
X192313Y382695D01*
X191043Y383965D02*
Y385235D01*
X192313D01*
X193583Y383965D01*
X194853Y385235D01*
X196123D01*
Y383965D02*
Y385235D01*
X194853Y382695D02*
X196123Y383965D01*
X194853Y382695D02*
X196123Y381425D01*
Y380155D02*
Y381425D01*
X194853Y380155D02*
X196123D01*
X193583Y381425D02*
X194853Y380155D01*
X192313D02*
X193583Y381425D01*
X191043Y380155D02*
X192313D01*
X180860Y361118D02*
Y362388D01*
X182130Y363658D01*
X180860Y364928D02*
X182130Y363658D01*
X180860Y364928D02*
Y366198D01*
X182130D01*
X183400Y364928D01*
X184670Y366198D01*
X185940D01*
Y364928D02*
Y366198D01*
X184670Y363658D02*
X185940Y364928D01*
X184670Y363658D02*
X185940Y362388D01*
Y361118D02*
Y362388D01*
X184670Y361118D02*
X185940D01*
X183400Y362388D02*
X184670Y361118D01*
X182130D02*
X183400Y362388D01*
X180860Y361118D02*
X182130D01*
X175089Y371383D02*
Y372653D01*
X176359Y373923D01*
X175089Y375193D02*
X176359Y373923D01*
X175089Y375193D02*
Y376463D01*
X176359D01*
X177628Y375193D01*
X178899Y376463D01*
X180168D01*
Y375193D02*
Y376463D01*
X178899Y373923D02*
X180168Y375193D01*
X178899Y373923D02*
X180168Y372653D01*
Y371383D02*
Y372653D01*
X178899Y371383D02*
X180168D01*
X177628Y372653D02*
X178899Y371383D01*
X176359D02*
X177628Y372653D01*
X175089Y371383D02*
X176359D01*
X179316Y376428D02*
Y377698D01*
X180586Y378968D01*
X179316Y380238D02*
X180586Y378968D01*
X179316Y380238D02*
Y381508D01*
X180586D01*
X181856Y380238D01*
X183126Y381508D01*
X184396D01*
Y380238D02*
Y381508D01*
X183126Y378968D02*
X184396Y380238D01*
X183126Y378968D02*
X184396Y377698D01*
Y376428D02*
Y377698D01*
X183126Y376428D02*
X184396D01*
X181856Y377698D02*
X183126Y376428D01*
X180586D02*
X181856Y377698D01*
X179316Y376428D02*
X180586D01*
X185884Y376032D02*
Y377302D01*
X187154Y378572D01*
X185884Y379842D02*
X187154Y378572D01*
X185884Y379842D02*
Y381112D01*
X187154D01*
X188424Y379842D01*
X189694Y381112D01*
X190964D01*
Y379842D02*
Y381112D01*
X189694Y378572D02*
X190964Y379842D01*
X189694Y378572D02*
X190964Y377302D01*
Y376032D02*
Y377302D01*
X189694Y376032D02*
X190964D01*
X188424Y377302D02*
X189694Y376032D01*
X187154D02*
X188424Y377302D01*
X185884Y376032D02*
X187154D01*
X202408Y376040D02*
Y377310D01*
X203678Y378580D01*
X202408Y379850D02*
X203678Y378580D01*
X202408Y379850D02*
Y381120D01*
X203678D01*
X204948Y379850D01*
X206218Y381120D01*
X207488D01*
Y379850D02*
Y381120D01*
X206218Y378580D02*
X207488Y379850D01*
X206218Y378580D02*
X207488Y377310D01*
Y376040D02*
Y377310D01*
X206218Y376040D02*
X207488D01*
X204948Y377310D02*
X206218Y376040D01*
X203678D02*
X204948Y377310D01*
X202408Y376040D02*
X203678D01*
X210145Y364437D02*
Y365707D01*
X211416Y366977D01*
X210145Y368247D02*
X211416Y366977D01*
X210145Y368247D02*
Y369517D01*
X211416D01*
X212686Y368247D01*
X213955Y369517D01*
X215226D01*
Y368247D02*
Y369517D01*
X213955Y366977D02*
X215226Y368247D01*
X213955Y366977D02*
X215226Y365707D01*
Y364437D02*
Y365707D01*
X213955Y364437D02*
X215226D01*
X212686Y365707D02*
X213955Y364437D01*
X211416D02*
X212686Y365707D01*
X210145Y364437D02*
X211416D01*
X191456Y313802D02*
Y315072D01*
X192726Y316342D01*
X191456Y317612D02*
X192726Y316342D01*
X191456Y317612D02*
Y318882D01*
X192726D01*
X193996Y317612D01*
X195266Y318882D01*
X196536D01*
Y317612D02*
Y318882D01*
X195266Y316342D02*
X196536Y317612D01*
X195266Y316342D02*
X196536Y315072D01*
Y313802D02*
Y315072D01*
X195266Y313802D02*
X196536D01*
X193996Y315072D02*
X195266Y313802D01*
X192726D02*
X193996Y315072D01*
X191456Y313802D02*
X192726D01*
X226004Y242517D02*
Y243787D01*
X227274Y245057D01*
X226004Y246327D02*
X227274Y245057D01*
X226004Y246327D02*
Y247597D01*
X227274D01*
X228544Y246327D01*
X229814Y247597D01*
X231084D01*
Y246327D02*
Y247597D01*
X229814Y245057D02*
X231084Y246327D01*
X229814Y245057D02*
X231084Y243787D01*
Y242517D02*
Y243787D01*
X229814Y242517D02*
X231084D01*
X228544Y243787D02*
X229814Y242517D01*
X227274D02*
X228544Y243787D01*
X226004Y242517D02*
X227274D01*
X244224Y306418D02*
Y307688D01*
X245494Y308958D01*
X244224Y310228D02*
X245494Y308958D01*
X244224Y310228D02*
Y311498D01*
X245494D01*
X246764Y310228D01*
X248034Y311498D01*
X249304D01*
Y310228D02*
Y311498D01*
X248034Y308958D02*
X249304Y310228D01*
X248034Y308958D02*
X249304Y307688D01*
Y306418D02*
Y307688D01*
X248034Y306418D02*
X249304D01*
X246764Y307688D02*
X248034Y306418D01*
X245494D02*
X246764Y307688D01*
X244224Y306418D02*
X245494D01*
X230679Y295756D02*
Y297026D01*
X231949Y298296D01*
X230679Y299566D02*
X231949Y298296D01*
X230679Y299566D02*
Y300836D01*
X231949D01*
X233219Y299566D01*
X234489Y300836D01*
X235759D01*
Y299566D02*
Y300836D01*
X234489Y298296D02*
X235759Y299566D01*
X234489Y298296D02*
X235759Y297026D01*
Y295756D02*
Y297026D01*
X234489Y295756D02*
X235759D01*
X233219Y297026D02*
X234489Y295756D01*
X231949D02*
X233219Y297026D01*
X230679Y295756D02*
X231949D01*
X236822Y298678D02*
Y299948D01*
X238092Y301218D01*
X236822Y302488D02*
X238092Y301218D01*
X236822Y302488D02*
Y303758D01*
X238092D01*
X239362Y302488D01*
X240632Y303758D01*
X241902D01*
Y302488D02*
Y303758D01*
X240632Y301218D02*
X241902Y302488D01*
X240632Y301218D02*
X241902Y299948D01*
Y298678D02*
Y299948D01*
X240632Y298678D02*
X241902D01*
X239362Y299948D02*
X240632Y298678D01*
X238092D02*
X239362Y299948D01*
X236822Y298678D02*
X238092D01*
X219216Y278704D02*
Y279974D01*
X220486Y281244D01*
X219216Y282514D02*
X220486Y281244D01*
X219216Y282514D02*
Y283784D01*
X220486D01*
X221756Y282514D01*
X223026Y283784D01*
X224296D01*
Y282514D02*
Y283784D01*
X223026Y281244D02*
X224296Y282514D01*
X223026Y281244D02*
X224296Y279974D01*
Y278704D02*
Y279974D01*
X223026Y278704D02*
X224296D01*
X221756Y279974D02*
X223026Y278704D01*
X220486D02*
X221756Y279974D01*
X219216Y278704D02*
X220486D01*
X204783Y277470D02*
Y278740D01*
X206053Y280010D01*
X204783Y281280D02*
X206053Y280010D01*
X204783Y281280D02*
Y282550D01*
X206053D01*
X207323Y281280D01*
X208593Y282550D01*
X209863D01*
Y281280D02*
Y282550D01*
X208593Y280010D02*
X209863Y281280D01*
X208593Y280010D02*
X209863Y278740D01*
Y277470D02*
Y278740D01*
X208593Y277470D02*
X209863D01*
X207323Y278740D02*
X208593Y277470D01*
X206053D02*
X207323Y278740D01*
X204783Y277470D02*
X206053D01*
X224182Y284972D02*
Y286242D01*
X225452Y287512D01*
X224182Y288782D02*
X225452Y287512D01*
X224182Y288782D02*
Y290052D01*
X225452D01*
X226722Y288782D01*
X227992Y290052D01*
X229262D01*
Y288782D02*
Y290052D01*
X227992Y287512D02*
X229262Y288782D01*
X227992Y287512D02*
X229262Y286242D01*
Y284972D02*
Y286242D01*
X227992Y284972D02*
X229262D01*
X226722Y286242D02*
X227992Y284972D01*
X225452D02*
X226722Y286242D01*
X224182Y284972D02*
X225452D01*
X212293Y287683D02*
Y288953D01*
X213563Y290223D01*
X212293Y291493D02*
X213563Y290223D01*
X212293Y291493D02*
Y292763D01*
X213563D01*
X214834Y291493D01*
X216103Y292763D01*
X217374D01*
Y291493D02*
Y292763D01*
X216103Y290223D02*
X217374Y291493D01*
X216103Y290223D02*
X217374Y288953D01*
Y287683D02*
Y288953D01*
X216103Y287683D02*
X217374D01*
X214834Y288953D02*
X216103Y287683D01*
X213563D02*
X214834Y288953D01*
X212293Y287683D02*
X213563D01*
X223951Y293241D02*
Y294511D01*
X225221Y295781D01*
X223951Y297051D02*
X225221Y295781D01*
X223951Y297051D02*
Y298321D01*
X225221D01*
X226491Y297051D01*
X227761Y298321D01*
X229031D01*
Y297051D02*
Y298321D01*
X227761Y295781D02*
X229031Y297051D01*
X227761Y295781D02*
X229031Y294511D01*
Y293241D02*
Y294511D01*
X227761Y293241D02*
X229031D01*
X226491Y294511D02*
X227761Y293241D01*
X225221D02*
X226491Y294511D01*
X223951Y293241D02*
X225221D01*
X200262Y291502D02*
Y292773D01*
X201532Y294042D01*
X200262Y295312D02*
X201532Y294042D01*
X200262Y295312D02*
Y296583D01*
X201532D01*
X202802Y295312D01*
X204072Y296583D01*
X205342D01*
Y295312D02*
Y296583D01*
X204072Y294042D02*
X205342Y295312D01*
X204072Y294042D02*
X205342Y292773D01*
Y291502D02*
Y292773D01*
X204072Y291502D02*
X205342D01*
X202802Y292773D02*
X204072Y291502D01*
X201532D02*
X202802Y292773D01*
X200262Y291502D02*
X201532D01*
X205210Y301664D02*
Y302934D01*
X206480Y304204D01*
X205210Y305474D02*
X206480Y304204D01*
X205210Y305474D02*
Y306744D01*
X206480D01*
X207750Y305474D01*
X209020Y306744D01*
X210290D01*
Y305474D02*
Y306744D01*
X209020Y304204D02*
X210290Y305474D01*
X209020Y304204D02*
X210290Y302934D01*
Y301664D02*
Y302934D01*
X209020Y301664D02*
X210290D01*
X207750Y302934D02*
X209020Y301664D01*
X206480D02*
X207750Y302934D01*
X205210Y301664D02*
X206480D01*
X196312Y306160D02*
Y307430D01*
X197582Y308700D01*
X196312Y309970D02*
X197582Y308700D01*
X196312Y309970D02*
Y311240D01*
X197582D01*
X198852Y309970D01*
X200122Y311240D01*
X201392D01*
Y309970D02*
Y311240D01*
X200122Y308700D02*
X201392Y309970D01*
X200122Y308700D02*
X201392Y307430D01*
Y306160D02*
Y307430D01*
X200122Y306160D02*
X201392D01*
X198852Y307430D02*
X200122Y306160D01*
X197582D02*
X198852Y307430D01*
X196312Y306160D02*
X197582D01*
X205343Y317183D02*
Y318453D01*
X206614Y319723D01*
X205343Y320993D02*
X206614Y319723D01*
X205343Y320993D02*
Y322263D01*
X206614D01*
X207883Y320993D01*
X209153Y322263D01*
X210424D01*
Y320993D02*
Y322263D01*
X209153Y319723D02*
X210424Y320993D01*
X209153Y319723D02*
X210424Y318453D01*
Y317183D02*
Y318453D01*
X209153Y317183D02*
X210424D01*
X207883Y318453D02*
X209153Y317183D01*
X206614D02*
X207883Y318453D01*
X205343Y317183D02*
X206614D01*
X217460Y292164D02*
Y293434D01*
X218730Y294704D01*
X217460Y295974D02*
X218730Y294704D01*
X217460Y295974D02*
Y297244D01*
X218730D01*
X220000Y295974D01*
X221270Y297244D01*
X222540D01*
Y295974D02*
Y297244D01*
X221270Y294704D02*
X222540Y295974D01*
X221270Y294704D02*
X222540Y293434D01*
Y292164D02*
Y293434D01*
X221270Y292164D02*
X222540D01*
X220000Y293434D02*
X221270Y292164D01*
X218730D02*
X220000Y293434D01*
X217460Y292164D02*
X218730D01*
X218253Y304133D02*
Y305403D01*
X219523Y306673D01*
X218253Y307943D02*
X219523Y306673D01*
X218253Y307943D02*
Y309213D01*
X219523D01*
X220793Y307943D01*
X222063Y309213D01*
X223333D01*
Y307943D02*
Y309213D01*
X222063Y306673D02*
X223333Y307943D01*
X222063Y306673D02*
X223333Y305403D01*
Y304133D02*
Y305403D01*
X222063Y304133D02*
X223333D01*
X220793Y305403D02*
X222063Y304133D01*
X219523D02*
X220793Y305403D01*
X218253Y304133D02*
X219523D01*
X221616Y329278D02*
Y330548D01*
X222886Y331818D01*
X221616Y333088D02*
X222886Y331818D01*
X221616Y333088D02*
Y334358D01*
X222886D01*
X224156Y333088D01*
X225426Y334358D01*
X226696D01*
Y333088D02*
Y334358D01*
X225426Y331818D02*
X226696Y333088D01*
X225426Y331818D02*
X226696Y330548D01*
Y329278D02*
Y330548D01*
X225426Y329278D02*
X226696D01*
X224156Y330548D02*
X225426Y329278D01*
X222886D02*
X224156Y330548D01*
X221616Y329278D02*
X222886D01*
X194970Y275310D02*
Y276580D01*
X196240Y277850D01*
X194970Y279120D02*
X196240Y277850D01*
X194970Y279120D02*
Y280390D01*
X196240D01*
X197510Y279120D01*
X198780Y280390D01*
X200050D01*
Y279120D02*
Y280390D01*
X198780Y277850D02*
X200050Y279120D01*
X198780Y277850D02*
X200050Y276580D01*
Y275310D02*
Y276580D01*
X198780Y275310D02*
X200050D01*
X197510Y276580D02*
X198780Y275310D01*
X196240D02*
X197510Y276580D01*
X194970Y275310D02*
X196240D01*
X191798Y301210D02*
Y302479D01*
X193068Y303750D01*
X191798Y305019D02*
X193068Y303750D01*
X191798Y305019D02*
Y306290D01*
X193068D01*
X194338Y305019D01*
X195608Y306290D01*
X196878D01*
Y305019D02*
Y306290D01*
X195608Y303750D02*
X196878Y305019D01*
X195608Y303750D02*
X196878Y302479D01*
Y301210D02*
Y302479D01*
X195608Y301210D02*
X196878D01*
X194338Y302479D02*
X195608Y301210D01*
X193068D02*
X194338Y302479D01*
X191798Y301210D02*
X193068D01*
X209626Y329032D02*
Y330302D01*
X210896Y331572D01*
X209626Y332842D02*
X210896Y331572D01*
X209626Y332842D02*
Y334112D01*
X210896D01*
X212166Y332842D01*
X213436Y334112D01*
X214706D01*
Y332842D02*
Y334112D01*
X213436Y331572D02*
X214706Y332842D01*
X213436Y331572D02*
X214706Y330302D01*
Y329032D02*
Y330302D01*
X213436Y329032D02*
X214706D01*
X212166Y330302D02*
X213436Y329032D01*
X210896D02*
X212166Y330302D01*
X209626Y329032D02*
X210896D01*
X233960Y275260D02*
Y276530D01*
X235230Y277800D01*
X233960Y279070D02*
X235230Y277800D01*
X233960Y279070D02*
Y280340D01*
X235230D01*
X236500Y279070D01*
X237770Y280340D01*
X239040D01*
Y279070D02*
Y280340D01*
X237770Y277800D02*
X239040Y279070D01*
X237770Y277800D02*
X239040Y276530D01*
Y275260D02*
Y276530D01*
X237770Y275260D02*
X239040D01*
X236500Y276530D02*
X237770Y275260D01*
X235230D02*
X236500Y276530D01*
X233960Y275260D02*
X235230D01*
X226328Y258506D02*
Y259776D01*
X227598Y261046D01*
X226328Y262316D02*
X227598Y261046D01*
X226328Y262316D02*
Y263586D01*
X227598D01*
X228868Y262316D01*
X230138Y263586D01*
X231408D01*
Y262316D02*
Y263586D01*
X230138Y261046D02*
X231408Y262316D01*
X230138Y261046D02*
X231408Y259776D01*
Y258506D02*
Y259776D01*
X230138Y258506D02*
X231408D01*
X228868Y259776D02*
X230138Y258506D01*
X227598D02*
X228868Y259776D01*
X226328Y258506D02*
X227598D01*
X224610Y264858D02*
Y266128D01*
X225880Y267398D01*
X224610Y268668D02*
X225880Y267398D01*
X224610Y268668D02*
Y269938D01*
X225880D01*
X227150Y268668D01*
X228420Y269938D01*
X229690D01*
Y268668D02*
Y269938D01*
X228420Y267398D02*
X229690Y268668D01*
X228420Y267398D02*
X229690Y266128D01*
Y264858D02*
Y266128D01*
X228420Y264858D02*
X229690D01*
X227150Y266128D02*
X228420Y264858D01*
X225880D02*
X227150Y266128D01*
X224610Y264858D02*
X225880D01*
M02*
