G04*
G04 #@! TF.GenerationSoftware,Altium Limited,Altium Designer,24.6.1 (21)*
G04*
G04 Layer_Color=1930808*
%FSLAX44Y44*%
%MOMM*%
G71*
G04*
G04 #@! TF.SameCoordinates,E70CDE82-3EE1-4166-B2EF-4B71CB92BF6A*
G04*
G04*
G04 #@! TF.FilePolarity,Positive*
G04*
G01*
G75*
%ADD10C,0.2000*%
%ADD12C,0.1270*%
%ADD14C,0.2540*%
%ADD16C,0.1000*%
%ADD19C,0.1500*%
%ADD21R,4.8260X2.4130*%
%ADD192C,0.0508*%
%ADD223C,0.0500*%
%ADD224C,0.0500*%
%ADD225C,0.0050*%
%ADD226C,0.0100*%
%ADD227C,0.0635*%
G36*
X930835Y-543861D02*
X935370D01*
Y-544314D01*
X938092D01*
Y-544768D01*
X940359D01*
Y-545221D01*
X942173D01*
Y-545675D01*
X943988D01*
Y-546128D01*
X945348D01*
Y-546582D01*
X946709D01*
Y-547035D01*
X948070D01*
Y-547489D01*
X948977D01*
Y-547943D01*
X950338D01*
Y-548396D01*
X951245D01*
Y-548850D01*
X952152D01*
Y-549303D01*
X953059D01*
Y-549757D01*
X953966D01*
Y-550210D01*
X954873D01*
Y-550664D01*
X955327D01*
Y-551117D01*
X956234D01*
Y-551571D01*
X957141D01*
Y-552024D01*
X957594D01*
Y-552478D01*
X958502D01*
Y-552932D01*
X958955D01*
Y-553385D01*
X959862D01*
Y-553839D01*
X960316D01*
Y-554292D01*
X960769D01*
Y-554746D01*
X961676D01*
Y-555199D01*
X962130D01*
Y-555653D01*
X962583D01*
Y-556106D01*
X963037D01*
Y-556560D01*
X963944D01*
Y-557014D01*
X964398D01*
Y-557467D01*
X964851D01*
Y-557921D01*
X965305D01*
Y-558374D01*
X965758D01*
Y-558828D01*
X966212D01*
Y-559281D01*
X966665D01*
Y-559735D01*
X967119D01*
Y-560188D01*
X967573D01*
Y-560642D01*
X968026D01*
Y-561096D01*
X968480D01*
Y-561549D01*
X968933D01*
Y-562003D01*
Y-562456D01*
X969387D01*
Y-562910D01*
X969840D01*
Y-563363D01*
X970294D01*
Y-563817D01*
X970748D01*
Y-564271D01*
Y-564724D01*
X971201D01*
Y-565178D01*
X971655D01*
Y-565631D01*
X972108D01*
Y-566085D01*
Y-566538D01*
X972562D01*
Y-566992D01*
X973015D01*
Y-567445D01*
Y-567899D01*
X973469D01*
Y-568353D01*
X973922D01*
Y-568806D01*
Y-569260D01*
X974376D01*
Y-569713D01*
X974829D01*
Y-570167D01*
Y-570620D01*
X975283D01*
Y-571074D01*
Y-571527D01*
X975737D01*
Y-571981D01*
Y-572435D01*
X976190D01*
Y-572888D01*
Y-573342D01*
X976644D01*
Y-573795D01*
Y-574249D01*
X977097D01*
Y-574702D01*
Y-575156D01*
X977551D01*
Y-575609D01*
Y-576063D01*
X978004D01*
Y-576516D01*
Y-576970D01*
Y-577424D01*
X978458D01*
Y-577877D01*
Y-578331D01*
X978912D01*
Y-578784D01*
Y-579238D01*
Y-579691D01*
X979365D01*
Y-580145D01*
Y-580598D01*
Y-581052D01*
X979819D01*
Y-581506D01*
Y-581959D01*
Y-582413D01*
Y-582866D01*
X980272D01*
Y-583320D01*
Y-583773D01*
Y-584227D01*
Y-584680D01*
X980726D01*
Y-585134D01*
Y-585588D01*
Y-586041D01*
Y-586495D01*
X981179D01*
Y-586948D01*
Y-587402D01*
Y-587855D01*
Y-588309D01*
Y-588763D01*
Y-589216D01*
Y-589670D01*
X981633D01*
Y-590123D01*
Y-590577D01*
Y-591030D01*
Y-591484D01*
Y-591937D01*
Y-592391D01*
Y-592845D01*
Y-593298D01*
Y-593752D01*
Y-594205D01*
Y-594659D01*
X982086D01*
Y-595112D01*
Y-595566D01*
Y-596019D01*
Y-596473D01*
Y-596926D01*
Y-597380D01*
Y-597834D01*
Y-598287D01*
Y-598741D01*
Y-599194D01*
X981633D01*
Y-599648D01*
Y-600101D01*
Y-600555D01*
Y-601008D01*
Y-601462D01*
Y-601916D01*
Y-602369D01*
Y-602823D01*
Y-603276D01*
Y-603730D01*
Y-604183D01*
X981179D01*
Y-604637D01*
Y-605090D01*
Y-605544D01*
Y-605998D01*
Y-606451D01*
Y-606905D01*
X980726D01*
Y-607358D01*
Y-607812D01*
Y-608265D01*
Y-608719D01*
Y-609173D01*
X980272D01*
Y-609626D01*
Y-610080D01*
Y-610533D01*
Y-610987D01*
X979819D01*
Y-611440D01*
Y-611894D01*
Y-612347D01*
Y-612801D01*
X979365D01*
Y-613255D01*
Y-613708D01*
Y-614162D01*
X978912D01*
Y-614615D01*
Y-615069D01*
X978458D01*
Y-615522D01*
Y-615976D01*
Y-616429D01*
X978004D01*
Y-616883D01*
Y-617337D01*
X977551D01*
Y-617790D01*
Y-618244D01*
Y-618697D01*
X977097D01*
Y-619151D01*
Y-619604D01*
X976644D01*
Y-620058D01*
Y-620511D01*
X976190D01*
Y-620965D01*
Y-621418D01*
X975737D01*
Y-621872D01*
Y-622326D01*
X975283D01*
Y-621872D01*
Y-621418D01*
Y-620965D01*
Y-620511D01*
Y-620058D01*
Y-619604D01*
Y-619151D01*
Y-618697D01*
Y-618244D01*
Y-617790D01*
Y-617337D01*
Y-616883D01*
Y-616429D01*
Y-615976D01*
Y-615522D01*
Y-615069D01*
Y-614615D01*
Y-614162D01*
Y-613708D01*
Y-613255D01*
Y-612801D01*
Y-612347D01*
Y-611894D01*
Y-611440D01*
Y-610987D01*
Y-610533D01*
Y-610080D01*
Y-609626D01*
Y-609173D01*
Y-608719D01*
Y-608265D01*
Y-607812D01*
Y-607358D01*
Y-606905D01*
Y-606451D01*
Y-605998D01*
Y-605544D01*
Y-605090D01*
Y-604637D01*
Y-604183D01*
Y-603730D01*
Y-603276D01*
Y-602823D01*
Y-602369D01*
Y-601916D01*
Y-601462D01*
Y-601008D01*
Y-600555D01*
Y-600101D01*
Y-599648D01*
Y-599194D01*
Y-598741D01*
Y-598287D01*
Y-597834D01*
Y-597380D01*
Y-596926D01*
Y-596473D01*
Y-596019D01*
Y-595566D01*
Y-595112D01*
Y-594659D01*
Y-594205D01*
Y-593752D01*
Y-593298D01*
Y-592845D01*
Y-592391D01*
Y-591937D01*
Y-591484D01*
Y-591030D01*
Y-590577D01*
Y-590123D01*
Y-589670D01*
Y-589216D01*
Y-588763D01*
Y-588309D01*
Y-587855D01*
X962583D01*
Y-588309D01*
Y-588763D01*
Y-589216D01*
Y-589670D01*
Y-590123D01*
Y-590577D01*
Y-591030D01*
Y-591484D01*
Y-591937D01*
Y-592391D01*
Y-592845D01*
Y-593298D01*
Y-593752D01*
Y-594205D01*
Y-594659D01*
Y-595112D01*
Y-595566D01*
Y-596019D01*
Y-596473D01*
Y-596926D01*
Y-597380D01*
Y-597834D01*
Y-598287D01*
Y-598741D01*
Y-599194D01*
Y-599648D01*
Y-600101D01*
Y-600555D01*
Y-601008D01*
Y-601462D01*
Y-601916D01*
Y-602369D01*
Y-602823D01*
Y-603276D01*
Y-603730D01*
Y-604183D01*
Y-604637D01*
Y-605090D01*
Y-605544D01*
Y-605998D01*
Y-606451D01*
Y-606905D01*
Y-607358D01*
Y-607812D01*
Y-608265D01*
Y-608719D01*
Y-609173D01*
Y-609626D01*
Y-610080D01*
Y-610533D01*
Y-610987D01*
Y-611440D01*
Y-611894D01*
Y-612347D01*
Y-612801D01*
Y-613255D01*
Y-613708D01*
Y-614162D01*
Y-614615D01*
Y-615069D01*
Y-615522D01*
X962130D01*
Y-615976D01*
Y-616429D01*
Y-616883D01*
Y-617337D01*
X961676D01*
Y-617790D01*
Y-618244D01*
X961223D01*
Y-618697D01*
Y-619151D01*
X960769D01*
Y-619604D01*
X960316D01*
Y-620058D01*
X959862D01*
Y-620511D01*
X959409D01*
Y-620965D01*
X958955D01*
Y-621418D01*
X958048D01*
Y-621872D01*
X956687D01*
Y-622326D01*
X950338D01*
Y-621872D01*
X948977D01*
Y-621418D01*
X948070D01*
Y-620965D01*
X947616D01*
Y-620511D01*
X947163D01*
Y-620058D01*
X946709D01*
Y-619604D01*
Y-619151D01*
X946255D01*
Y-618697D01*
Y-618244D01*
X945802D01*
Y-617790D01*
Y-617337D01*
Y-616883D01*
Y-616429D01*
X945348D01*
Y-615976D01*
Y-615522D01*
Y-615069D01*
Y-614615D01*
Y-614162D01*
Y-613708D01*
Y-613255D01*
Y-612801D01*
Y-612347D01*
Y-611894D01*
Y-611440D01*
Y-610987D01*
Y-610533D01*
Y-610080D01*
Y-609626D01*
Y-609173D01*
Y-608719D01*
Y-608265D01*
Y-607812D01*
Y-607358D01*
Y-606905D01*
Y-606451D01*
Y-605998D01*
Y-605544D01*
Y-605090D01*
Y-604637D01*
Y-604183D01*
Y-603730D01*
Y-603276D01*
Y-602823D01*
Y-602369D01*
Y-601916D01*
Y-601462D01*
Y-601008D01*
Y-600555D01*
Y-600101D01*
Y-599648D01*
Y-599194D01*
Y-598741D01*
Y-598287D01*
Y-597834D01*
Y-597380D01*
Y-596926D01*
Y-596473D01*
Y-596019D01*
Y-595566D01*
Y-595112D01*
Y-594659D01*
Y-594205D01*
Y-593752D01*
Y-593298D01*
Y-592845D01*
Y-592391D01*
Y-591937D01*
Y-591484D01*
Y-591030D01*
Y-590577D01*
Y-590123D01*
Y-589670D01*
Y-589216D01*
Y-588763D01*
Y-588309D01*
Y-587855D01*
X932649D01*
Y-588309D01*
Y-588763D01*
Y-589216D01*
Y-589670D01*
Y-590123D01*
Y-590577D01*
Y-591030D01*
Y-591484D01*
Y-591937D01*
Y-592391D01*
Y-592845D01*
Y-593298D01*
Y-593752D01*
Y-594205D01*
Y-594659D01*
Y-595112D01*
Y-595566D01*
Y-596019D01*
Y-596473D01*
Y-596926D01*
Y-597380D01*
Y-597834D01*
Y-598287D01*
Y-598741D01*
Y-599194D01*
Y-599648D01*
Y-600101D01*
Y-600555D01*
Y-601008D01*
Y-601462D01*
Y-601916D01*
Y-602369D01*
Y-602823D01*
Y-603276D01*
Y-603730D01*
Y-604183D01*
Y-604637D01*
Y-605090D01*
Y-605544D01*
Y-605998D01*
Y-606451D01*
Y-606905D01*
Y-607358D01*
Y-607812D01*
Y-608265D01*
Y-608719D01*
Y-609173D01*
Y-609626D01*
Y-610080D01*
Y-610533D01*
Y-610987D01*
Y-611440D01*
Y-611894D01*
Y-612347D01*
Y-612801D01*
Y-613255D01*
Y-613708D01*
Y-614162D01*
Y-614615D01*
Y-615069D01*
Y-615522D01*
Y-615976D01*
Y-616429D01*
Y-616883D01*
Y-617337D01*
Y-617790D01*
Y-618244D01*
Y-618697D01*
Y-619151D01*
Y-619604D01*
Y-620058D01*
Y-620511D01*
Y-620965D01*
X933102D01*
Y-621418D01*
Y-621872D01*
Y-622326D01*
Y-622779D01*
X933556D01*
Y-623233D01*
Y-623686D01*
Y-624140D01*
X934009D01*
Y-624593D01*
Y-625047D01*
Y-625501D01*
X934463D01*
Y-625954D01*
Y-626408D01*
X934917D01*
Y-626861D01*
X935370D01*
Y-627315D01*
Y-627768D01*
X935824D01*
Y-628222D01*
X936277D01*
Y-628675D01*
X936731D01*
Y-629129D01*
X937184D01*
Y-629583D01*
X937638D01*
Y-630036D01*
X938092D01*
Y-630490D01*
X938999D01*
Y-630943D01*
X939452D01*
Y-631397D01*
X940359D01*
Y-631850D01*
X941266D01*
Y-632304D01*
X942173D01*
Y-632757D01*
X943534D01*
Y-633211D01*
X945348D01*
Y-633665D01*
X954419D01*
Y-633211D01*
X956234D01*
Y-632757D01*
X957141D01*
Y-632304D01*
X958502D01*
Y-631850D01*
X958955D01*
Y-631397D01*
X959862D01*
Y-630943D01*
X960316D01*
Y-630490D01*
X960769D01*
Y-630036D01*
X961676D01*
Y-629583D01*
X962130D01*
Y-629129D01*
X962583D01*
Y-628675D01*
Y-628222D01*
X963037D01*
Y-628675D01*
Y-629129D01*
Y-629583D01*
Y-630036D01*
Y-630490D01*
Y-630943D01*
Y-631397D01*
Y-631850D01*
Y-632304D01*
Y-632757D01*
X968026D01*
Y-633211D01*
X967573D01*
Y-633665D01*
X967119D01*
Y-634118D01*
X966665D01*
Y-634572D01*
X966212D01*
Y-635025D01*
X965758D01*
Y-635479D01*
X965305D01*
Y-635932D01*
X964851D01*
Y-636386D01*
X964398D01*
Y-636839D01*
X963491D01*
Y-637293D01*
X963037D01*
Y-637747D01*
X962583D01*
Y-638200D01*
X962130D01*
Y-638654D01*
X961223D01*
Y-639107D01*
X960769D01*
Y-639561D01*
X960316D01*
Y-640014D01*
X959409D01*
Y-640468D01*
X958955D01*
Y-640921D01*
X958048D01*
Y-641375D01*
X957594D01*
Y-641829D01*
X956687D01*
Y-642282D01*
X956234D01*
Y-642736D01*
X955327D01*
Y-643189D01*
X954419D01*
Y-643643D01*
X953512D01*
Y-644096D01*
X953059D01*
Y-644550D01*
X952152D01*
Y-645004D01*
X950791D01*
Y-645457D01*
X949884D01*
Y-645911D01*
X948977D01*
Y-646364D01*
X947616D01*
Y-646818D01*
X946709D01*
Y-647271D01*
X945348D01*
Y-647725D01*
X943534D01*
Y-648178D01*
X942173D01*
Y-648632D01*
X940359D01*
Y-649085D01*
X937638D01*
Y-649539D01*
X934463D01*
Y-649993D01*
X922671D01*
Y-649539D01*
X919496D01*
Y-649085D01*
X917228D01*
Y-648632D01*
X915414D01*
Y-648178D01*
X913599D01*
Y-647725D01*
X912239D01*
Y-647271D01*
X910878D01*
Y-646818D01*
X909518D01*
Y-646364D01*
X908610D01*
Y-645911D01*
X907250D01*
Y-645457D01*
X906343D01*
Y-645004D01*
X905435D01*
Y-644550D01*
X904528D01*
Y-644096D01*
X903621D01*
Y-643643D01*
X902714D01*
Y-643189D01*
X901807D01*
Y-642736D01*
X901354D01*
Y-642282D01*
X900446D01*
Y-641829D01*
X899539D01*
Y-641375D01*
X899086D01*
Y-640921D01*
X898179D01*
Y-640468D01*
X897725D01*
Y-640014D01*
X897271D01*
Y-639561D01*
X896364D01*
Y-639107D01*
X895911D01*
Y-638654D01*
X895457D01*
Y-638200D01*
X894550D01*
Y-637747D01*
X894097D01*
Y-637293D01*
X893643D01*
Y-636839D01*
X893189D01*
Y-636386D01*
X892736D01*
Y-635932D01*
X892282D01*
Y-635479D01*
X891829D01*
Y-635025D01*
X891375D01*
Y-634572D01*
X890922D01*
Y-634118D01*
X890468D01*
Y-633665D01*
X890015D01*
Y-633211D01*
X889561D01*
Y-632757D01*
X889108D01*
Y-632304D01*
X888654D01*
Y-631850D01*
X888200D01*
Y-631397D01*
X887747D01*
Y-630943D01*
X887293D01*
Y-630490D01*
Y-630036D01*
X886840D01*
Y-629583D01*
X886386D01*
Y-629129D01*
X885933D01*
Y-628675D01*
X885479D01*
Y-628222D01*
Y-627768D01*
X885025D01*
Y-627315D01*
X884572D01*
Y-626861D01*
Y-626408D01*
X884118D01*
Y-625954D01*
X883665D01*
Y-625501D01*
Y-625047D01*
X883211D01*
Y-624593D01*
X882758D01*
Y-624140D01*
Y-623686D01*
X882304D01*
Y-623233D01*
Y-622779D01*
X881851D01*
Y-622326D01*
Y-621872D01*
X881397D01*
Y-621418D01*
Y-620965D01*
X880944D01*
Y-620511D01*
Y-620058D01*
X880490D01*
Y-619604D01*
Y-619151D01*
X880036D01*
Y-618697D01*
Y-618244D01*
X879583D01*
Y-617790D01*
Y-617337D01*
X879129D01*
Y-616883D01*
Y-616429D01*
Y-615976D01*
X878676D01*
Y-615522D01*
Y-615069D01*
Y-614615D01*
X878222D01*
Y-614162D01*
Y-613708D01*
X877769D01*
Y-613255D01*
Y-612801D01*
Y-612347D01*
Y-611894D01*
X877315D01*
Y-611440D01*
Y-610987D01*
Y-610533D01*
X876861D01*
Y-610080D01*
Y-609626D01*
Y-609173D01*
Y-608719D01*
X876408D01*
Y-608265D01*
Y-607812D01*
Y-607358D01*
Y-606905D01*
Y-606451D01*
X875954D01*
Y-605998D01*
Y-605544D01*
Y-605090D01*
Y-604637D01*
Y-604183D01*
Y-603730D01*
Y-603276D01*
X875501D01*
Y-602823D01*
Y-602369D01*
Y-601916D01*
Y-601462D01*
Y-601008D01*
Y-600555D01*
Y-600101D01*
Y-599648D01*
Y-599194D01*
Y-598741D01*
X875047D01*
Y-598287D01*
Y-597834D01*
Y-597380D01*
Y-596926D01*
Y-596473D01*
Y-596019D01*
Y-595566D01*
Y-595112D01*
Y-594659D01*
X875501D01*
Y-594205D01*
Y-593752D01*
Y-593298D01*
Y-592845D01*
Y-592391D01*
Y-591937D01*
Y-591484D01*
Y-591030D01*
Y-590577D01*
X875954D01*
Y-590123D01*
Y-589670D01*
Y-589216D01*
Y-588763D01*
Y-588309D01*
Y-587855D01*
Y-587402D01*
X876408D01*
Y-586948D01*
Y-586495D01*
Y-586041D01*
Y-585588D01*
Y-585134D01*
X876861D01*
Y-584680D01*
Y-584227D01*
Y-583773D01*
Y-583320D01*
X877315D01*
Y-582866D01*
Y-582413D01*
Y-581959D01*
Y-581506D01*
X877769D01*
Y-581052D01*
Y-580598D01*
Y-580145D01*
X878222D01*
Y-579691D01*
Y-579238D01*
Y-578784D01*
X878676D01*
Y-578331D01*
Y-577877D01*
X879129D01*
Y-577424D01*
Y-576970D01*
Y-576516D01*
X879583D01*
Y-576063D01*
Y-575609D01*
X880036D01*
Y-575156D01*
Y-574702D01*
Y-574249D01*
X880490D01*
Y-573795D01*
Y-573342D01*
X880944D01*
Y-572888D01*
Y-572435D01*
X881397D01*
Y-571981D01*
Y-571527D01*
X881851D01*
Y-571074D01*
X882304D01*
Y-570620D01*
Y-570167D01*
X882758D01*
Y-569713D01*
Y-569260D01*
X883211D01*
Y-568806D01*
X883665D01*
Y-568353D01*
Y-567899D01*
X884118D01*
Y-567445D01*
X884572D01*
Y-566992D01*
Y-566538D01*
X885025D01*
Y-566085D01*
X885479D01*
Y-565631D01*
Y-565178D01*
X885933D01*
Y-564724D01*
X886386D01*
Y-564271D01*
X886840D01*
Y-563817D01*
Y-563363D01*
X887293D01*
Y-562910D01*
X887747D01*
Y-562456D01*
X888200D01*
Y-562003D01*
X888654D01*
Y-561549D01*
X889108D01*
Y-561096D01*
X889561D01*
Y-560642D01*
X890015D01*
Y-560188D01*
Y-559735D01*
X890468D01*
Y-559281D01*
X890922D01*
Y-558828D01*
X891375D01*
Y-558374D01*
X892282D01*
Y-557921D01*
X892736D01*
Y-557467D01*
X893189D01*
Y-557014D01*
X893643D01*
Y-556560D01*
X894097D01*
Y-556106D01*
X894550D01*
Y-555653D01*
X895004D01*
Y-555199D01*
X895911D01*
Y-554746D01*
X896364D01*
Y-554292D01*
X896818D01*
Y-553839D01*
X897725D01*
Y-553385D01*
X898179D01*
Y-552932D01*
X899086D01*
Y-552478D01*
X899539D01*
Y-552024D01*
X900446D01*
Y-551571D01*
X900900D01*
Y-551117D01*
X901807D01*
Y-550664D01*
X902714D01*
Y-550210D01*
X903168D01*
Y-549757D01*
X904528D01*
Y-549303D01*
X905435D01*
Y-548850D01*
X906343D01*
Y-548396D01*
X907250D01*
Y-547943D01*
X908157D01*
Y-547489D01*
X909518D01*
Y-547035D01*
X910425D01*
Y-546582D01*
X911785D01*
Y-546128D01*
X913146D01*
Y-545675D01*
X914960D01*
Y-545221D01*
X916774D01*
Y-544768D01*
X919042D01*
Y-544314D01*
X922217D01*
Y-543861D01*
X926753D01*
Y-543407D01*
X930835D01*
Y-543861D01*
D02*
G37*
G36*
X1001136Y-571074D02*
Y-571527D01*
Y-571981D01*
Y-572435D01*
Y-572888D01*
Y-573342D01*
Y-573795D01*
Y-574249D01*
Y-574702D01*
Y-575156D01*
Y-575609D01*
Y-576063D01*
Y-576516D01*
Y-576970D01*
Y-577424D01*
Y-577877D01*
Y-578331D01*
Y-578784D01*
Y-579238D01*
Y-579691D01*
Y-580145D01*
Y-580598D01*
Y-581052D01*
Y-581506D01*
Y-581959D01*
Y-582413D01*
Y-582866D01*
Y-583320D01*
Y-583773D01*
Y-584227D01*
Y-584680D01*
Y-585134D01*
Y-585588D01*
Y-586041D01*
Y-586495D01*
Y-586948D01*
Y-587402D01*
Y-587855D01*
Y-588309D01*
Y-588763D01*
Y-589216D01*
Y-589670D01*
Y-590123D01*
Y-590577D01*
Y-591030D01*
Y-591484D01*
Y-591937D01*
Y-592391D01*
Y-592845D01*
Y-593298D01*
X1002043D01*
Y-592845D01*
X1002496D01*
Y-592391D01*
X1002950D01*
Y-591937D01*
X1003404D01*
Y-591484D01*
X1003857D01*
Y-591030D01*
X1004311D01*
Y-590577D01*
X1004764D01*
Y-590123D01*
X1005671D01*
Y-589670D01*
X1006125D01*
Y-589216D01*
X1007032D01*
Y-588763D01*
X1007939D01*
Y-588309D01*
X1009300D01*
Y-587855D01*
X1011114D01*
Y-587402D01*
X1019732D01*
Y-587855D01*
X1021546D01*
Y-588309D01*
X1022906D01*
Y-588763D01*
X1024267D01*
Y-589216D01*
X1025174D01*
Y-589670D01*
X1025628D01*
Y-590123D01*
X1026535D01*
Y-590577D01*
X1026989D01*
Y-591030D01*
X1027896D01*
Y-591484D01*
X1028349D01*
Y-591937D01*
X1028803D01*
Y-592391D01*
X1029256D01*
Y-592845D01*
X1029710D01*
Y-593298D01*
X1030163D01*
Y-593752D01*
Y-594205D01*
X1030617D01*
Y-594659D01*
X1031070D01*
Y-595112D01*
X1031524D01*
Y-595566D01*
Y-596019D01*
X1031978D01*
Y-596473D01*
Y-596926D01*
X1032431D01*
Y-597380D01*
Y-597834D01*
X1032885D01*
Y-598287D01*
Y-598741D01*
X1033338D01*
Y-599194D01*
Y-599648D01*
Y-600101D01*
X1033792D01*
Y-600555D01*
Y-601008D01*
Y-601462D01*
Y-601916D01*
X1034245D01*
Y-602369D01*
Y-602823D01*
Y-603276D01*
Y-603730D01*
Y-604183D01*
X1034699D01*
Y-604637D01*
Y-605090D01*
Y-605544D01*
Y-605998D01*
Y-606451D01*
Y-606905D01*
Y-607358D01*
Y-607812D01*
Y-608265D01*
X1035153D01*
Y-608719D01*
X1034699D01*
Y-609173D01*
Y-609626D01*
Y-610080D01*
Y-610533D01*
Y-610987D01*
Y-611440D01*
Y-611894D01*
Y-612347D01*
Y-612801D01*
Y-613255D01*
Y-613708D01*
Y-614162D01*
Y-614615D01*
Y-615069D01*
Y-615522D01*
Y-615976D01*
Y-616429D01*
X1034245D01*
Y-616883D01*
Y-617337D01*
Y-617790D01*
Y-618244D01*
Y-618697D01*
X1033792D01*
Y-619151D01*
Y-619604D01*
Y-620058D01*
X1033338D01*
Y-620511D01*
Y-620965D01*
Y-621418D01*
X1032885D01*
Y-621872D01*
Y-622326D01*
Y-622779D01*
X1032431D01*
Y-623233D01*
Y-623686D01*
X1031978D01*
Y-624140D01*
Y-624593D01*
X1031524D01*
Y-625047D01*
X1031070D01*
Y-625501D01*
Y-625954D01*
X1030617D01*
Y-626408D01*
X1030163D01*
Y-626861D01*
X1029710D01*
Y-627315D01*
X1029256D01*
Y-627768D01*
Y-628222D01*
X1028349D01*
Y-628675D01*
X1027896D01*
Y-629129D01*
X1027442D01*
Y-629583D01*
X1026989D01*
Y-630036D01*
X1026081D01*
Y-630490D01*
X1025628D01*
Y-630943D01*
X1024721D01*
Y-631397D01*
X1023814D01*
Y-631850D01*
X1022906D01*
Y-632304D01*
X1021546D01*
Y-632757D01*
X1019278D01*
Y-633211D01*
X1011568D01*
Y-632757D01*
X1009300D01*
Y-632304D01*
X1008393D01*
Y-631850D01*
X1007032D01*
Y-631397D01*
X1006579D01*
Y-630943D01*
X1005671D01*
Y-630490D01*
X1005218D01*
Y-630036D01*
X1004311D01*
Y-629583D01*
X1003857D01*
Y-629129D01*
X1003404D01*
Y-628675D01*
X1002950D01*
Y-628222D01*
X1002496D01*
Y-627768D01*
X1002043D01*
Y-627315D01*
X1001589D01*
Y-626861D01*
Y-626408D01*
X1000682D01*
Y-626861D01*
Y-627315D01*
Y-627768D01*
Y-628222D01*
Y-628675D01*
Y-629129D01*
Y-629583D01*
Y-630036D01*
Y-630490D01*
Y-630943D01*
Y-631397D01*
Y-631850D01*
Y-632304D01*
X989343D01*
Y-631850D01*
Y-631397D01*
Y-630943D01*
Y-630490D01*
Y-630036D01*
Y-629583D01*
Y-629129D01*
Y-628675D01*
Y-628222D01*
Y-627768D01*
Y-627315D01*
Y-626861D01*
Y-626408D01*
Y-625954D01*
Y-625501D01*
Y-625047D01*
Y-624593D01*
Y-624140D01*
Y-623686D01*
Y-623233D01*
Y-622779D01*
Y-622326D01*
Y-621872D01*
Y-621418D01*
Y-620965D01*
Y-620511D01*
Y-620058D01*
Y-619604D01*
Y-619151D01*
Y-618697D01*
Y-618244D01*
Y-617790D01*
Y-617337D01*
Y-616883D01*
Y-616429D01*
Y-615976D01*
Y-615522D01*
Y-615069D01*
Y-614615D01*
Y-614162D01*
Y-613708D01*
Y-613255D01*
Y-612801D01*
Y-612347D01*
Y-611894D01*
Y-611440D01*
Y-610987D01*
Y-610533D01*
Y-610080D01*
Y-609626D01*
Y-609173D01*
Y-608719D01*
Y-608265D01*
Y-607812D01*
Y-607358D01*
Y-606905D01*
Y-606451D01*
Y-605998D01*
Y-605544D01*
Y-605090D01*
Y-604637D01*
Y-604183D01*
Y-603730D01*
Y-603276D01*
Y-602823D01*
Y-602369D01*
Y-601916D01*
Y-601462D01*
Y-601008D01*
Y-600555D01*
Y-600101D01*
Y-599648D01*
Y-599194D01*
Y-598741D01*
Y-598287D01*
Y-597834D01*
Y-597380D01*
Y-596926D01*
Y-596473D01*
Y-596019D01*
Y-595566D01*
Y-595112D01*
Y-594659D01*
Y-594205D01*
Y-593752D01*
Y-593298D01*
Y-592845D01*
Y-592391D01*
Y-591937D01*
Y-591484D01*
Y-591030D01*
Y-590577D01*
Y-590123D01*
Y-589670D01*
Y-589216D01*
Y-588763D01*
Y-588309D01*
Y-587855D01*
Y-587402D01*
Y-586948D01*
Y-586495D01*
Y-586041D01*
Y-585588D01*
Y-585134D01*
Y-584680D01*
Y-584227D01*
Y-583773D01*
Y-583320D01*
Y-582866D01*
Y-582413D01*
Y-581959D01*
Y-581506D01*
Y-581052D01*
Y-580598D01*
Y-580145D01*
Y-579691D01*
Y-579238D01*
Y-578784D01*
Y-578331D01*
Y-577877D01*
Y-577424D01*
Y-576970D01*
Y-576516D01*
Y-576063D01*
Y-575609D01*
Y-575156D01*
Y-574702D01*
Y-574249D01*
Y-573795D01*
Y-573342D01*
Y-572888D01*
Y-572435D01*
Y-571981D01*
Y-571527D01*
Y-571074D01*
Y-570620D01*
X1001136D01*
Y-571074D01*
D02*
G37*
G36*
X1054655D02*
Y-571527D01*
Y-571981D01*
Y-572435D01*
Y-572888D01*
Y-573342D01*
Y-573795D01*
Y-574249D01*
Y-574702D01*
Y-575156D01*
Y-575609D01*
Y-576063D01*
Y-576516D01*
Y-576970D01*
Y-577424D01*
Y-577877D01*
Y-578331D01*
Y-578784D01*
Y-579238D01*
Y-579691D01*
Y-580145D01*
Y-580598D01*
Y-581052D01*
Y-581506D01*
Y-581959D01*
Y-582413D01*
Y-582866D01*
Y-583320D01*
Y-583773D01*
Y-584227D01*
Y-584680D01*
Y-585134D01*
Y-585588D01*
Y-586041D01*
Y-586495D01*
Y-586948D01*
Y-587402D01*
Y-587855D01*
Y-588309D01*
Y-588763D01*
Y-589216D01*
Y-589670D01*
Y-590123D01*
Y-590577D01*
Y-591030D01*
Y-591484D01*
Y-591937D01*
Y-592391D01*
Y-592845D01*
Y-593298D01*
Y-593752D01*
Y-594205D01*
Y-594659D01*
Y-595112D01*
Y-595566D01*
Y-596019D01*
Y-596473D01*
Y-596926D01*
Y-597380D01*
Y-597834D01*
Y-598287D01*
Y-598741D01*
Y-599194D01*
Y-599648D01*
Y-600101D01*
Y-600555D01*
Y-601008D01*
Y-601462D01*
Y-601916D01*
Y-602369D01*
Y-602823D01*
Y-603276D01*
Y-603730D01*
Y-604183D01*
Y-604637D01*
Y-605090D01*
Y-605544D01*
Y-605998D01*
Y-606451D01*
Y-606905D01*
Y-607358D01*
Y-607812D01*
Y-608265D01*
Y-608719D01*
Y-609173D01*
Y-609626D01*
Y-610080D01*
Y-610533D01*
Y-610987D01*
Y-611440D01*
Y-611894D01*
Y-612347D01*
Y-612801D01*
Y-613255D01*
Y-613708D01*
Y-614162D01*
Y-614615D01*
Y-615069D01*
Y-615522D01*
Y-615976D01*
Y-616429D01*
Y-616883D01*
Y-617337D01*
Y-617790D01*
Y-618244D01*
Y-618697D01*
Y-619151D01*
Y-619604D01*
Y-620058D01*
Y-620511D01*
Y-620965D01*
Y-621418D01*
Y-621872D01*
Y-622326D01*
Y-622779D01*
Y-623233D01*
Y-623686D01*
Y-624140D01*
Y-624593D01*
Y-625047D01*
Y-625501D01*
Y-625954D01*
Y-626408D01*
Y-626861D01*
Y-627315D01*
Y-627768D01*
Y-628222D01*
Y-628675D01*
Y-629129D01*
Y-629583D01*
Y-630036D01*
Y-630490D01*
Y-630943D01*
Y-631397D01*
Y-631850D01*
Y-632304D01*
X1043316D01*
Y-631850D01*
Y-631397D01*
Y-630943D01*
Y-630490D01*
Y-630036D01*
Y-629583D01*
Y-629129D01*
Y-628675D01*
Y-628222D01*
Y-627768D01*
Y-627315D01*
Y-626861D01*
Y-626408D01*
Y-625954D01*
Y-625501D01*
Y-625047D01*
Y-624593D01*
Y-624140D01*
Y-623686D01*
Y-623233D01*
Y-622779D01*
Y-622326D01*
Y-621872D01*
Y-621418D01*
Y-620965D01*
Y-620511D01*
Y-620058D01*
Y-619604D01*
Y-619151D01*
Y-618697D01*
Y-618244D01*
Y-617790D01*
Y-617337D01*
Y-616883D01*
Y-616429D01*
Y-615976D01*
Y-615522D01*
Y-615069D01*
Y-614615D01*
Y-614162D01*
Y-613708D01*
Y-613255D01*
Y-612801D01*
Y-612347D01*
Y-611894D01*
Y-611440D01*
Y-610987D01*
Y-610533D01*
Y-610080D01*
Y-609626D01*
Y-609173D01*
Y-608719D01*
Y-608265D01*
Y-607812D01*
Y-607358D01*
Y-606905D01*
Y-606451D01*
Y-605998D01*
Y-605544D01*
Y-605090D01*
Y-604637D01*
Y-604183D01*
Y-603730D01*
Y-603276D01*
Y-602823D01*
Y-602369D01*
Y-601916D01*
Y-601462D01*
Y-601008D01*
Y-600555D01*
Y-600101D01*
Y-599648D01*
Y-599194D01*
Y-598741D01*
Y-598287D01*
Y-597834D01*
Y-597380D01*
Y-596926D01*
Y-596473D01*
Y-596019D01*
Y-595566D01*
Y-595112D01*
Y-594659D01*
Y-594205D01*
Y-593752D01*
Y-593298D01*
Y-592845D01*
Y-592391D01*
Y-591937D01*
Y-591484D01*
Y-591030D01*
Y-590577D01*
Y-590123D01*
Y-589670D01*
Y-589216D01*
Y-588763D01*
Y-588309D01*
Y-587855D01*
Y-587402D01*
Y-586948D01*
Y-586495D01*
Y-586041D01*
Y-585588D01*
Y-585134D01*
Y-584680D01*
Y-584227D01*
Y-583773D01*
Y-583320D01*
Y-582866D01*
Y-582413D01*
Y-581959D01*
Y-581506D01*
Y-581052D01*
Y-580598D01*
Y-580145D01*
Y-579691D01*
Y-579238D01*
Y-578784D01*
Y-578331D01*
Y-577877D01*
Y-577424D01*
Y-576970D01*
Y-576516D01*
Y-576063D01*
Y-575609D01*
Y-575156D01*
Y-574702D01*
Y-574249D01*
Y-573795D01*
Y-573342D01*
Y-572888D01*
Y-572435D01*
Y-571981D01*
Y-571527D01*
Y-571074D01*
Y-570620D01*
X1054655D01*
Y-571074D01*
D02*
G37*
G36*
X1090940Y-587855D02*
X1093208D01*
Y-588309D01*
X1094568D01*
Y-588763D01*
X1095929D01*
Y-589216D01*
X1096836D01*
Y-589670D01*
X1097743D01*
Y-590123D01*
X1098650D01*
Y-590577D01*
X1099557D01*
Y-591030D01*
X1100011D01*
Y-591484D01*
X1100918D01*
Y-591937D01*
X1101372D01*
Y-592391D01*
X1101825D01*
Y-592845D01*
X1102279D01*
Y-593298D01*
X1102732D01*
Y-593752D01*
X1103186D01*
Y-594205D01*
X1103639D01*
Y-594659D01*
X1104093D01*
Y-595112D01*
X1104547D01*
Y-595566D01*
Y-596019D01*
X1105000D01*
Y-596473D01*
X1105454D01*
Y-596926D01*
Y-597380D01*
X1105907D01*
Y-597834D01*
Y-598287D01*
X1106361D01*
Y-598741D01*
Y-599194D01*
X1106814D01*
Y-599648D01*
Y-600101D01*
X1107268D01*
Y-600555D01*
Y-601008D01*
Y-601462D01*
X1107721D01*
Y-601916D01*
Y-602369D01*
Y-602823D01*
Y-603276D01*
Y-603730D01*
X1108175D01*
Y-604183D01*
Y-604637D01*
Y-605090D01*
Y-605544D01*
Y-605998D01*
Y-606451D01*
Y-606905D01*
X1108628D01*
Y-607358D01*
Y-607812D01*
Y-608265D01*
Y-608719D01*
Y-609173D01*
Y-609626D01*
Y-610080D01*
Y-610533D01*
Y-610987D01*
Y-611440D01*
Y-611894D01*
Y-612347D01*
Y-612801D01*
Y-613255D01*
Y-613708D01*
X1108175D01*
Y-614162D01*
Y-614615D01*
Y-615069D01*
Y-615522D01*
Y-615976D01*
Y-616429D01*
Y-616883D01*
X1107721D01*
Y-617337D01*
Y-617790D01*
Y-618244D01*
Y-618697D01*
X1107268D01*
Y-619151D01*
Y-619604D01*
Y-620058D01*
X1106814D01*
Y-620511D01*
Y-620965D01*
Y-621418D01*
X1106361D01*
Y-621872D01*
Y-622326D01*
X1105907D01*
Y-622779D01*
Y-623233D01*
X1105454D01*
Y-623686D01*
Y-624140D01*
X1105000D01*
Y-624593D01*
X1104547D01*
Y-625047D01*
X1104093D01*
Y-625501D01*
Y-625954D01*
X1103639D01*
Y-626408D01*
X1103186D01*
Y-626861D01*
X1102732D01*
Y-627315D01*
X1102279D01*
Y-627768D01*
X1101825D01*
Y-628222D01*
X1101372D01*
Y-628675D01*
X1100465D01*
Y-629129D01*
X1100011D01*
Y-629583D01*
X1099104D01*
Y-630036D01*
X1098650D01*
Y-630490D01*
X1097743D01*
Y-630943D01*
X1096836D01*
Y-631397D01*
X1095475D01*
Y-631850D01*
X1094115D01*
Y-632304D01*
X1092754D01*
Y-632757D01*
X1090486D01*
Y-633211D01*
X1080962D01*
Y-632757D01*
X1078240D01*
Y-632304D01*
X1076426D01*
Y-631850D01*
X1075519D01*
Y-631397D01*
X1074158D01*
Y-630943D01*
X1073251D01*
Y-630490D01*
X1072344D01*
Y-630036D01*
X1071890D01*
Y-629583D01*
X1070983D01*
Y-629129D01*
X1070530D01*
Y-628675D01*
X1069623D01*
Y-628222D01*
X1069169D01*
Y-627768D01*
X1068716D01*
Y-627315D01*
X1068262D01*
Y-626861D01*
X1067809D01*
Y-626408D01*
X1067355D01*
Y-625954D01*
X1066901D01*
Y-625501D01*
Y-625047D01*
X1066448D01*
Y-624593D01*
X1065994D01*
Y-624140D01*
X1065541D01*
Y-623686D01*
Y-623233D01*
X1065087D01*
Y-622779D01*
Y-622326D01*
X1064634D01*
Y-621872D01*
Y-621418D01*
X1064180D01*
Y-620965D01*
Y-620511D01*
Y-620058D01*
X1063727D01*
Y-619604D01*
Y-619151D01*
Y-618697D01*
X1063273D01*
Y-618244D01*
Y-617790D01*
Y-617337D01*
Y-616883D01*
X1062819D01*
Y-616429D01*
Y-615976D01*
Y-615522D01*
Y-615069D01*
Y-614615D01*
Y-614162D01*
Y-613708D01*
Y-613255D01*
X1062366D01*
Y-612801D01*
Y-612347D01*
Y-611894D01*
Y-611440D01*
Y-610987D01*
Y-610533D01*
Y-610080D01*
Y-609626D01*
Y-609173D01*
Y-608719D01*
Y-608265D01*
Y-607812D01*
Y-607358D01*
X1062819D01*
Y-606905D01*
Y-606451D01*
Y-605998D01*
Y-605544D01*
Y-605090D01*
Y-604637D01*
Y-604183D01*
Y-603730D01*
X1063273D01*
Y-603276D01*
Y-602823D01*
Y-602369D01*
Y-601916D01*
X1063727D01*
Y-601462D01*
Y-601008D01*
Y-600555D01*
X1064180D01*
Y-600101D01*
Y-599648D01*
Y-599194D01*
X1064634D01*
Y-598741D01*
Y-598287D01*
X1065087D01*
Y-597834D01*
Y-597380D01*
X1065541D01*
Y-596926D01*
Y-596473D01*
X1065994D01*
Y-596019D01*
X1066448D01*
Y-595566D01*
Y-595112D01*
X1066901D01*
Y-594659D01*
X1067355D01*
Y-594205D01*
X1067809D01*
Y-593752D01*
X1068262D01*
Y-593298D01*
X1068716D01*
Y-592845D01*
X1069169D01*
Y-592391D01*
X1069623D01*
Y-591937D01*
X1070076D01*
Y-591484D01*
X1070983D01*
Y-591030D01*
X1071437D01*
Y-590577D01*
X1072344D01*
Y-590123D01*
X1073251D01*
Y-589670D01*
X1074158D01*
Y-589216D01*
X1075065D01*
Y-588763D01*
X1076426D01*
Y-588309D01*
X1077787D01*
Y-587855D01*
X1080054D01*
Y-587402D01*
X1090940D01*
Y-587855D01*
D02*
G37*
G36*
X1156705Y-588763D02*
X1156252D01*
Y-589216D01*
Y-589670D01*
X1155798D01*
Y-590123D01*
X1155345D01*
Y-590577D01*
X1154891D01*
Y-591030D01*
Y-591484D01*
X1154438D01*
Y-591937D01*
X1153984D01*
Y-592391D01*
Y-592845D01*
X1153531D01*
Y-593298D01*
X1153077D01*
Y-593752D01*
X1152624D01*
Y-594205D01*
Y-594659D01*
X1152170D01*
Y-595112D01*
X1151716D01*
Y-595566D01*
X1151263D01*
Y-596019D01*
Y-596473D01*
X1150809D01*
Y-596926D01*
X1150356D01*
Y-597380D01*
X1149902D01*
Y-597834D01*
Y-598287D01*
X1149449D01*
Y-598741D01*
X1148995D01*
Y-599194D01*
Y-599648D01*
X1148541D01*
Y-600101D01*
X1148088D01*
Y-600555D01*
X1147634D01*
Y-601008D01*
Y-601462D01*
X1147181D01*
Y-601916D01*
X1146727D01*
Y-602369D01*
X1146274D01*
Y-602823D01*
Y-603276D01*
X1145820D01*
Y-603730D01*
X1145367D01*
Y-604183D01*
Y-604637D01*
X1144913D01*
Y-605090D01*
X1144460D01*
Y-605544D01*
X1144006D01*
Y-605998D01*
Y-606451D01*
X1143552D01*
Y-606905D01*
X1143099D01*
Y-607358D01*
X1142645D01*
Y-607812D01*
Y-608265D01*
X1142192D01*
Y-608719D01*
X1141738D01*
Y-609173D01*
X1141285D01*
Y-609626D01*
Y-610080D01*
Y-610533D01*
X1141738D01*
Y-610987D01*
Y-611440D01*
X1142192D01*
Y-611894D01*
X1142645D01*
Y-612347D01*
X1143099D01*
Y-612801D01*
Y-613255D01*
X1143552D01*
Y-613708D01*
X1144006D01*
Y-614162D01*
X1144460D01*
Y-614615D01*
Y-615069D01*
X1144913D01*
Y-615522D01*
X1145367D01*
Y-615976D01*
Y-616429D01*
X1145820D01*
Y-616883D01*
X1146274D01*
Y-617337D01*
X1146727D01*
Y-617790D01*
Y-618244D01*
X1147181D01*
Y-618697D01*
X1147634D01*
Y-619151D01*
X1148088D01*
Y-619604D01*
Y-620058D01*
X1148541D01*
Y-620511D01*
X1148995D01*
Y-620965D01*
X1149449D01*
Y-621418D01*
Y-621872D01*
X1149902D01*
Y-622326D01*
X1150356D01*
Y-622779D01*
X1150809D01*
Y-623233D01*
Y-623686D01*
X1151263D01*
Y-624140D01*
X1151716D01*
Y-624593D01*
X1152170D01*
Y-625047D01*
Y-625501D01*
X1152624D01*
Y-625954D01*
X1153077D01*
Y-626408D01*
X1153531D01*
Y-626861D01*
Y-627315D01*
X1153984D01*
Y-627768D01*
X1154438D01*
Y-628222D01*
Y-628675D01*
X1154891D01*
Y-629129D01*
X1155345D01*
Y-629583D01*
X1155798D01*
Y-630036D01*
Y-630490D01*
X1156252D01*
Y-630943D01*
X1156705D01*
Y-631397D01*
X1157159D01*
Y-631850D01*
X1157613D01*
Y-632304D01*
X1143099D01*
Y-631850D01*
Y-631397D01*
X1142645D01*
Y-630943D01*
X1142192D01*
Y-630490D01*
X1141738D01*
Y-630036D01*
Y-629583D01*
X1141285D01*
Y-629129D01*
X1140831D01*
Y-628675D01*
X1140378D01*
Y-628222D01*
Y-627768D01*
X1139924D01*
Y-627315D01*
X1139470D01*
Y-626861D01*
Y-626408D01*
X1139017D01*
Y-625954D01*
X1138563D01*
Y-625501D01*
X1138110D01*
Y-625047D01*
Y-624593D01*
X1137656D01*
Y-624140D01*
X1137203D01*
Y-623686D01*
X1136749D01*
Y-623233D01*
Y-622779D01*
X1136295D01*
Y-622326D01*
X1135842D01*
Y-621872D01*
Y-621418D01*
X1135388D01*
Y-620965D01*
X1134935D01*
Y-620511D01*
X1134481D01*
Y-620058D01*
Y-619604D01*
X1134028D01*
Y-619151D01*
X1133574D01*
Y-618697D01*
X1133121D01*
Y-618244D01*
X1132667D01*
Y-618697D01*
Y-619151D01*
X1132214D01*
Y-619604D01*
X1131760D01*
Y-620058D01*
X1131306D01*
Y-620511D01*
Y-620965D01*
X1130853D01*
Y-621418D01*
X1130399D01*
Y-621872D01*
Y-622326D01*
X1129946D01*
Y-622779D01*
X1129492D01*
Y-623233D01*
X1129039D01*
Y-623686D01*
Y-624140D01*
X1128585D01*
Y-624593D01*
X1128131D01*
Y-625047D01*
Y-625501D01*
X1127678D01*
Y-625954D01*
X1127224D01*
Y-626408D01*
X1126771D01*
Y-626861D01*
Y-627315D01*
X1126317D01*
Y-627768D01*
X1125864D01*
Y-628222D01*
Y-628675D01*
X1125410D01*
Y-629129D01*
X1124957D01*
Y-629583D01*
X1124503D01*
Y-630036D01*
Y-630490D01*
X1124049D01*
Y-630943D01*
X1123596D01*
Y-631397D01*
Y-631850D01*
X1123142D01*
Y-632304D01*
X1109989D01*
Y-631850D01*
X1110443D01*
Y-631397D01*
X1110896D01*
Y-630943D01*
Y-630490D01*
X1111350D01*
Y-630036D01*
X1111803D01*
Y-629583D01*
X1112257D01*
Y-629129D01*
Y-628675D01*
X1112711D01*
Y-628222D01*
X1113164D01*
Y-627768D01*
Y-627315D01*
X1113618D01*
Y-626861D01*
X1114071D01*
Y-626408D01*
X1114525D01*
Y-625954D01*
X1114978D01*
Y-625501D01*
Y-625047D01*
X1115432D01*
Y-624593D01*
X1115885D01*
Y-624140D01*
Y-623686D01*
X1116339D01*
Y-623233D01*
X1116793D01*
Y-622779D01*
X1117246D01*
Y-622326D01*
Y-621872D01*
X1117700D01*
Y-621418D01*
X1118153D01*
Y-620965D01*
X1118607D01*
Y-620511D01*
Y-620058D01*
X1119060D01*
Y-619604D01*
X1119514D01*
Y-619151D01*
X1119967D01*
Y-618697D01*
Y-618244D01*
X1120421D01*
Y-617790D01*
X1120875D01*
Y-617337D01*
X1121328D01*
Y-616883D01*
Y-616429D01*
X1121782D01*
Y-615976D01*
X1122235D01*
Y-615522D01*
X1122689D01*
Y-615069D01*
Y-614615D01*
X1123142D01*
Y-614162D01*
X1123596D01*
Y-613708D01*
X1124049D01*
Y-613255D01*
Y-612801D01*
X1124503D01*
Y-612347D01*
X1124957D01*
Y-611894D01*
Y-611440D01*
X1125410D01*
Y-610987D01*
X1125864D01*
Y-610533D01*
X1126317D01*
Y-610080D01*
Y-609626D01*
X1125864D01*
Y-609173D01*
X1125410D01*
Y-608719D01*
X1124957D01*
Y-608265D01*
Y-607812D01*
X1124503D01*
Y-607358D01*
X1124049D01*
Y-606905D01*
X1123596D01*
Y-606451D01*
Y-605998D01*
X1123142D01*
Y-605544D01*
X1122689D01*
Y-605090D01*
Y-604637D01*
X1122235D01*
Y-604183D01*
X1121782D01*
Y-603730D01*
X1121328D01*
Y-603276D01*
Y-602823D01*
X1120875D01*
Y-602369D01*
X1120421D01*
Y-601916D01*
X1119967D01*
Y-601462D01*
Y-601008D01*
X1119514D01*
Y-600555D01*
X1119060D01*
Y-600101D01*
Y-599648D01*
X1118607D01*
Y-599194D01*
X1118153D01*
Y-598741D01*
X1117700D01*
Y-598287D01*
Y-597834D01*
X1117246D01*
Y-597380D01*
X1116793D01*
Y-596926D01*
X1116339D01*
Y-596473D01*
Y-596019D01*
X1115885D01*
Y-595566D01*
X1115432D01*
Y-595112D01*
Y-594659D01*
X1114978D01*
Y-594205D01*
X1114525D01*
Y-593752D01*
X1114071D01*
Y-593298D01*
Y-592845D01*
X1113618D01*
Y-592391D01*
X1113164D01*
Y-591937D01*
X1112711D01*
Y-591484D01*
Y-591030D01*
X1112257D01*
Y-590577D01*
X1111803D01*
Y-590123D01*
Y-589670D01*
X1111350D01*
Y-589216D01*
X1110896D01*
Y-588763D01*
X1110443D01*
Y-588309D01*
X1124503D01*
Y-588763D01*
X1124957D01*
Y-589216D01*
X1125410D01*
Y-589670D01*
Y-590123D01*
X1125864D01*
Y-590577D01*
X1126317D01*
Y-591030D01*
X1126771D01*
Y-591484D01*
Y-591937D01*
X1127224D01*
Y-592391D01*
X1127678D01*
Y-592845D01*
Y-593298D01*
X1128131D01*
Y-593752D01*
X1128585D01*
Y-594205D01*
Y-594659D01*
X1129039D01*
Y-595112D01*
X1129492D01*
Y-595566D01*
X1129946D01*
Y-596019D01*
Y-596473D01*
X1130399D01*
Y-596926D01*
X1130853D01*
Y-597380D01*
Y-597834D01*
X1131306D01*
Y-598287D01*
X1131760D01*
Y-598741D01*
X1132214D01*
Y-599194D01*
Y-599648D01*
X1132667D01*
Y-600101D01*
X1133121D01*
Y-600555D01*
Y-601008D01*
X1133574D01*
Y-601462D01*
X1134028D01*
Y-601916D01*
X1134481D01*
Y-601462D01*
X1134935D01*
Y-601008D01*
Y-600555D01*
X1135388D01*
Y-600101D01*
X1135842D01*
Y-599648D01*
X1136295D01*
Y-599194D01*
Y-598741D01*
X1136749D01*
Y-598287D01*
X1137203D01*
Y-597834D01*
Y-597380D01*
X1137656D01*
Y-596926D01*
X1138110D01*
Y-596473D01*
X1138563D01*
Y-596019D01*
Y-595566D01*
X1139017D01*
Y-595112D01*
X1139470D01*
Y-594659D01*
Y-594205D01*
X1139924D01*
Y-593752D01*
X1140378D01*
Y-593298D01*
X1140831D01*
Y-592845D01*
Y-592391D01*
X1141285D01*
Y-591937D01*
X1141738D01*
Y-591484D01*
Y-591030D01*
X1142192D01*
Y-590577D01*
X1142645D01*
Y-590123D01*
X1143099D01*
Y-589670D01*
Y-589216D01*
X1143552D01*
Y-588763D01*
X1144006D01*
Y-588309D01*
X1156705D01*
Y-588763D01*
D02*
G37*
%LPC*%
G36*
X919042Y-567445D02*
X916774D01*
Y-567899D01*
X914960D01*
Y-568353D01*
X914053D01*
Y-568806D01*
X913146D01*
Y-569260D01*
X912239D01*
Y-569713D01*
X911785D01*
Y-570167D01*
X911332D01*
Y-570620D01*
X910878D01*
Y-571074D01*
X910425D01*
Y-571527D01*
Y-571981D01*
X909971D01*
Y-572435D01*
X909518D01*
Y-572888D01*
Y-573342D01*
X909064D01*
Y-573795D01*
Y-574249D01*
Y-574702D01*
Y-575156D01*
X908610D01*
Y-575609D01*
Y-576063D01*
Y-576516D01*
Y-576970D01*
Y-577424D01*
Y-577877D01*
Y-578331D01*
Y-578784D01*
X909064D01*
Y-579238D01*
Y-579691D01*
Y-580145D01*
X909518D01*
Y-580598D01*
Y-581052D01*
X909971D01*
Y-581506D01*
Y-581959D01*
X910425D01*
Y-582413D01*
X910878D01*
Y-582866D01*
X911332D01*
Y-583320D01*
X911785D01*
Y-583773D01*
X912239D01*
Y-584227D01*
X912692D01*
Y-584680D01*
X913599D01*
Y-585134D01*
X914507D01*
Y-585588D01*
X915867D01*
Y-586041D01*
X919949D01*
Y-585588D01*
X921310D01*
Y-585134D01*
X922217D01*
Y-584680D01*
X923124D01*
Y-584227D01*
X923578D01*
Y-583773D01*
X924031D01*
Y-583320D01*
X924938D01*
Y-582866D01*
Y-582413D01*
X925392D01*
Y-581959D01*
X925845D01*
Y-581506D01*
Y-581052D01*
X926299D01*
Y-580598D01*
Y-580145D01*
X926753D01*
Y-579691D01*
Y-579238D01*
Y-578784D01*
X927206D01*
Y-578331D01*
Y-577877D01*
Y-577424D01*
Y-576970D01*
Y-576516D01*
Y-576063D01*
Y-575609D01*
Y-575156D01*
X926753D01*
Y-574702D01*
Y-574249D01*
Y-573795D01*
Y-573342D01*
X926299D01*
Y-572888D01*
Y-572435D01*
X925845D01*
Y-571981D01*
Y-571527D01*
X925392D01*
Y-571074D01*
X924938D01*
Y-570620D01*
X924485D01*
Y-570167D01*
X924031D01*
Y-569713D01*
X923578D01*
Y-569260D01*
X922671D01*
Y-568806D01*
X922217D01*
Y-568353D01*
X920856D01*
Y-567899D01*
X919042D01*
Y-567445D01*
D02*
G37*
G36*
X1013835Y-597380D02*
X1009753D01*
Y-597834D01*
X1007939D01*
Y-598287D01*
X1006579D01*
Y-598741D01*
X1005671D01*
Y-599194D01*
X1005218D01*
Y-599648D01*
X1004311D01*
Y-600101D01*
X1003857D01*
Y-600555D01*
X1003404D01*
Y-601008D01*
Y-601462D01*
X1002950D01*
Y-601916D01*
X1002496D01*
Y-602369D01*
Y-602823D01*
X1002043D01*
Y-603276D01*
Y-603730D01*
X1001589D01*
Y-604183D01*
Y-604637D01*
Y-605090D01*
X1001136D01*
Y-605544D01*
Y-605998D01*
Y-606451D01*
Y-606905D01*
Y-607358D01*
X1000682D01*
Y-607812D01*
Y-608265D01*
Y-608719D01*
Y-609173D01*
Y-609626D01*
Y-610080D01*
Y-610533D01*
Y-610987D01*
Y-611440D01*
Y-611894D01*
Y-612347D01*
Y-612801D01*
Y-613255D01*
X1001136D01*
Y-613708D01*
Y-614162D01*
Y-614615D01*
Y-615069D01*
Y-615522D01*
X1001589D01*
Y-615976D01*
Y-616429D01*
Y-616883D01*
X1002043D01*
Y-617337D01*
Y-617790D01*
X1002496D01*
Y-618244D01*
Y-618697D01*
X1002950D01*
Y-619151D01*
X1003404D01*
Y-619604D01*
X1003857D01*
Y-620058D01*
X1004311D01*
Y-620511D01*
X1004764D01*
Y-620965D01*
X1005218D01*
Y-621418D01*
X1006125D01*
Y-621872D01*
X1007032D01*
Y-622326D01*
X1007939D01*
Y-622779D01*
X1010207D01*
Y-623233D01*
X1013382D01*
Y-622779D01*
X1015650D01*
Y-622326D01*
X1017010D01*
Y-621872D01*
X1017917D01*
Y-621418D01*
X1018371D01*
Y-620965D01*
X1019278D01*
Y-620511D01*
X1019732D01*
Y-620058D01*
X1020185D01*
Y-619604D01*
X1020639D01*
Y-619151D01*
Y-618697D01*
X1021092D01*
Y-618244D01*
X1021546D01*
Y-617790D01*
Y-617337D01*
X1021999D01*
Y-616883D01*
Y-616429D01*
Y-615976D01*
X1022453D01*
Y-615522D01*
Y-615069D01*
Y-614615D01*
Y-614162D01*
X1022906D01*
Y-613708D01*
Y-613255D01*
Y-612801D01*
Y-612347D01*
Y-611894D01*
Y-611440D01*
Y-610987D01*
Y-610533D01*
Y-610080D01*
Y-609626D01*
Y-609173D01*
Y-608719D01*
Y-608265D01*
Y-607812D01*
Y-607358D01*
Y-606905D01*
Y-606451D01*
Y-605998D01*
X1022453D01*
Y-605544D01*
Y-605090D01*
Y-604637D01*
Y-604183D01*
X1021999D01*
Y-603730D01*
Y-603276D01*
X1021546D01*
Y-602823D01*
Y-602369D01*
X1021092D01*
Y-601916D01*
Y-601462D01*
X1020639D01*
Y-601008D01*
X1020185D01*
Y-600555D01*
X1019732D01*
Y-600101D01*
X1019278D01*
Y-599648D01*
X1018824D01*
Y-599194D01*
X1017917D01*
Y-598741D01*
X1017010D01*
Y-598287D01*
X1016103D01*
Y-597834D01*
X1013835D01*
Y-597380D01*
D02*
G37*
G36*
X1087765D02*
X1083229D01*
Y-597834D01*
X1081415D01*
Y-598287D01*
X1080054D01*
Y-598741D01*
X1079147D01*
Y-599194D01*
X1078694D01*
Y-599648D01*
X1078240D01*
Y-600101D01*
X1077787D01*
Y-600555D01*
X1077333D01*
Y-601008D01*
X1076880D01*
Y-601462D01*
X1076426D01*
Y-601916D01*
X1075973D01*
Y-602369D01*
Y-602823D01*
X1075519D01*
Y-603276D01*
Y-603730D01*
X1075065D01*
Y-604183D01*
Y-604637D01*
Y-605090D01*
X1074612D01*
Y-605544D01*
Y-605998D01*
Y-606451D01*
Y-606905D01*
Y-607358D01*
Y-607812D01*
Y-608265D01*
X1074158D01*
Y-608719D01*
Y-609173D01*
Y-609626D01*
Y-610080D01*
Y-610533D01*
Y-610987D01*
Y-611440D01*
Y-611894D01*
X1074612D01*
Y-612347D01*
Y-612801D01*
Y-613255D01*
Y-613708D01*
Y-614162D01*
Y-614615D01*
Y-615069D01*
X1075065D01*
Y-615522D01*
Y-615976D01*
Y-616429D01*
X1075519D01*
Y-616883D01*
Y-617337D01*
Y-617790D01*
X1075973D01*
Y-618244D01*
X1076426D01*
Y-618697D01*
Y-619151D01*
X1076880D01*
Y-619604D01*
X1077333D01*
Y-620058D01*
X1077787D01*
Y-620511D01*
X1078240D01*
Y-620965D01*
X1078694D01*
Y-621418D01*
X1079601D01*
Y-621872D01*
X1080508D01*
Y-622326D01*
X1081869D01*
Y-622779D01*
X1084137D01*
Y-623233D01*
X1086858D01*
Y-622779D01*
X1089126D01*
Y-622326D01*
X1090486D01*
Y-621872D01*
X1091393D01*
Y-621418D01*
X1092300D01*
Y-620965D01*
X1092754D01*
Y-620511D01*
X1093208D01*
Y-620058D01*
X1093661D01*
Y-619604D01*
X1094115D01*
Y-619151D01*
X1094568D01*
Y-618697D01*
Y-618244D01*
X1095022D01*
Y-617790D01*
X1095475D01*
Y-617337D01*
Y-616883D01*
Y-616429D01*
X1095929D01*
Y-615976D01*
Y-615522D01*
Y-615069D01*
X1096383D01*
Y-614615D01*
Y-614162D01*
Y-613708D01*
Y-613255D01*
Y-612801D01*
X1096836D01*
Y-612347D01*
Y-611894D01*
Y-611440D01*
Y-610987D01*
Y-610533D01*
Y-610080D01*
Y-609626D01*
Y-609173D01*
Y-608719D01*
Y-608265D01*
Y-607812D01*
X1096383D01*
Y-607358D01*
Y-606905D01*
Y-606451D01*
Y-605998D01*
Y-605544D01*
Y-605090D01*
X1095929D01*
Y-604637D01*
Y-604183D01*
Y-603730D01*
X1095475D01*
Y-603276D01*
Y-602823D01*
X1095022D01*
Y-602369D01*
Y-601916D01*
X1094568D01*
Y-601462D01*
X1094115D01*
Y-601008D01*
X1093661D01*
Y-600555D01*
X1093208D01*
Y-600101D01*
X1092754D01*
Y-599648D01*
X1092300D01*
Y-599194D01*
X1091393D01*
Y-598741D01*
X1090940D01*
Y-598287D01*
X1089579D01*
Y-597834D01*
X1087765D01*
Y-597380D01*
D02*
G37*
%LPD*%
D10*
X387106Y134806D02*
X433814D01*
Y181514D01*
X387106D02*
X433814D01*
X387106Y134806D02*
Y181514D01*
X2090719Y-28429D02*
X2324399D01*
X2090719D02*
Y-4299D01*
X2324399Y-28429D02*
Y-4299D01*
X2090719D02*
X2324399D01*
D12*
X346960Y680130D02*
X357120D01*
X352040Y675050D02*
Y685210D01*
X109778Y59664D02*
X144778Y10664D01*
X232278Y100584D02*
Y110744D01*
X227198Y105664D02*
X237358D01*
X144778Y10664D02*
X232278D01*
X109778Y150664D02*
X164778Y205664D01*
X232278D01*
X109725Y59551D02*
X109778Y150664D01*
X109725Y59551D02*
X109778Y60664D01*
X319778Y10664D02*
X354778Y59664D01*
X232278Y10664D02*
X319778D01*
X299778Y205664D02*
X354778Y150664D01*
X232278Y205664D02*
X299778D01*
X354778Y150664D02*
X354831Y59551D01*
X354778Y60664D02*
X354831Y59551D01*
X2161115Y-16924D02*
X2160824Y-16343D01*
X2160244Y-15762D01*
X2159663Y-15472D01*
X2158501D01*
X2157920Y-15762D01*
X2157339Y-16343D01*
X2157049Y-16924D01*
X2156759Y-17795D01*
Y-19247D01*
X2157049Y-20119D01*
X2157339Y-20699D01*
X2157920Y-21280D01*
X2158501Y-21570D01*
X2159663D01*
X2160244Y-21280D01*
X2160824Y-20699D01*
X2161115Y-20119D01*
X2164280Y-17505D02*
X2163699Y-17795D01*
X2163119Y-18376D01*
X2162828Y-19247D01*
Y-19828D01*
X2163119Y-20699D01*
X2163699Y-21280D01*
X2164280Y-21570D01*
X2165152D01*
X2165732Y-21280D01*
X2166313Y-20699D01*
X2166604Y-19828D01*
Y-19247D01*
X2166313Y-18376D01*
X2165732Y-17795D01*
X2165152Y-17505D01*
X2164280D01*
X2167940D02*
Y-20409D01*
X2168230Y-21280D01*
X2168811Y-21570D01*
X2169682D01*
X2170263Y-21280D01*
X2171134Y-20409D01*
Y-17505D02*
Y-21570D01*
X2172731Y-17505D02*
Y-21570D01*
Y-19247D02*
X2173022Y-18376D01*
X2173603Y-17795D01*
X2174183Y-17505D01*
X2175055D01*
X2176478Y-15472D02*
Y-20409D01*
X2176768Y-21280D01*
X2177349Y-21570D01*
X2177930D01*
X2175607Y-17505D02*
X2177639D01*
X2179091D02*
X2180834Y-21570D01*
X2182576Y-17505D02*
X2180834Y-21570D01*
X2180253Y-22732D01*
X2179672Y-23313D01*
X2179091Y-23603D01*
X2178801D01*
X2187078Y-17505D02*
Y-21570D01*
Y-18376D02*
X2186497Y-17795D01*
X2185916Y-17505D01*
X2185045D01*
X2184464Y-17795D01*
X2183883Y-18376D01*
X2183593Y-19247D01*
Y-19828D01*
X2183883Y-20699D01*
X2184464Y-21280D01*
X2185045Y-21570D01*
X2185916D01*
X2186497Y-21280D01*
X2187078Y-20699D01*
X2188704Y-17505D02*
Y-21570D01*
Y-19247D02*
X2188994Y-18376D01*
X2189575Y-17795D01*
X2190156Y-17505D01*
X2191027D01*
X2195064Y-15472D02*
Y-21570D01*
Y-18376D02*
X2194483Y-17795D01*
X2193902Y-17505D01*
X2193031D01*
X2192451Y-17795D01*
X2191870Y-18376D01*
X2191579Y-19247D01*
Y-19828D01*
X2191870Y-20699D01*
X2192451Y-21280D01*
X2193031Y-21570D01*
X2193902D01*
X2194483Y-21280D01*
X2195064Y-20699D01*
X2203515Y-15472D02*
Y-21570D01*
X2201482Y-15472D02*
X2205548D01*
X2207726Y-17505D02*
X2207145Y-17795D01*
X2206564Y-18376D01*
X2206274Y-19247D01*
Y-19828D01*
X2206564Y-20699D01*
X2207145Y-21280D01*
X2207726Y-21570D01*
X2208597D01*
X2209178Y-21280D01*
X2209759Y-20699D01*
X2210049Y-19828D01*
Y-19247D01*
X2209759Y-18376D01*
X2209178Y-17795D01*
X2208597Y-17505D01*
X2207726D01*
X2211385D02*
Y-23603D01*
Y-18376D02*
X2211966Y-17795D01*
X2212547Y-17505D01*
X2213418D01*
X2213999Y-17795D01*
X2214580Y-18376D01*
X2214870Y-19247D01*
Y-19828D01*
X2214580Y-20699D01*
X2213999Y-21280D01*
X2213418Y-21570D01*
X2212547D01*
X2211966Y-21280D01*
X2211385Y-20699D01*
X-329559Y1103874D02*
X-331882Y1109973D01*
X-334205Y1103874D01*
X-333334Y1105907D02*
X-330430D01*
X-329849Y29021D02*
X-330140Y29602D01*
X-330720Y30183D01*
X-331301Y30473D01*
X-332463D01*
X-333044Y30183D01*
X-333625Y29602D01*
X-333915Y29021D01*
X-334205Y28150D01*
Y26698D01*
X-333915Y25826D01*
X-333625Y25246D01*
X-333044Y24665D01*
X-332463Y24374D01*
X-331301D01*
X-330720Y24665D01*
X-330140Y25246D01*
X-329849Y25826D01*
X-334205Y-508007D02*
Y-514106D01*
Y-508007D02*
X-332173D01*
X-331301Y-508297D01*
X-330720Y-508878D01*
X-330430Y-509459D01*
X-330140Y-510330D01*
Y-511782D01*
X-330430Y-512654D01*
X-330720Y-513234D01*
X-331301Y-513815D01*
X-332173Y-514106D01*
X-334205D01*
X-10016Y-740817D02*
X-9435Y-740526D01*
X-8564Y-739655D01*
Y-745754D01*
X688943Y-741107D02*
Y-740817D01*
X689233Y-740236D01*
X689524Y-739945D01*
X690105Y-739655D01*
X691266D01*
X691847Y-739945D01*
X692138Y-740236D01*
X692428Y-740817D01*
Y-741397D01*
X692138Y-741978D01*
X691557Y-742850D01*
X688653Y-745754D01*
X692718D01*
X1386463Y-739655D02*
X1389658D01*
X1387915Y-741978D01*
X1388787D01*
X1389368Y-742269D01*
X1389658Y-742559D01*
X1389948Y-743430D01*
Y-744011D01*
X1389658Y-744882D01*
X1389077Y-745463D01*
X1388206Y-745754D01*
X1387335D01*
X1386463Y-745463D01*
X1386173Y-745173D01*
X1385883Y-744592D01*
X2087543Y-739655D02*
X2084639Y-743721D01*
X2088996D01*
X2087543Y-739655D02*
Y-745754D01*
X-10016Y1367383D02*
X-9435Y1367674D01*
X-8564Y1368545D01*
Y1362446D01*
X688943Y1367093D02*
Y1367383D01*
X689233Y1367964D01*
X689524Y1368255D01*
X690105Y1368545D01*
X691266D01*
X691847Y1368255D01*
X692138Y1367964D01*
X692428Y1367383D01*
Y1366803D01*
X692138Y1366222D01*
X691557Y1365350D01*
X688653Y1362446D01*
X692718D01*
X1386463Y1368545D02*
X1389658D01*
X1387915Y1366222D01*
X1388787D01*
X1389368Y1365931D01*
X1389658Y1365641D01*
X1389948Y1364770D01*
Y1364189D01*
X1389658Y1363318D01*
X1389077Y1362737D01*
X1388206Y1362446D01*
X1387335D01*
X1386463Y1362737D01*
X1386173Y1363027D01*
X1385883Y1363608D01*
X2087543Y1368545D02*
X2084639Y1364479D01*
X2088996D01*
X2087543Y1368545D02*
Y1362446D01*
X2413641Y1103874D02*
X2411318Y1109973D01*
X2408995Y1103874D01*
X2409866Y1105907D02*
X2412770D01*
X2408995Y570223D02*
Y564124D01*
Y570223D02*
X2411608D01*
X2412480Y569933D01*
X2412770Y569642D01*
X2413060Y569061D01*
Y568481D01*
X2412770Y567900D01*
X2412480Y567609D01*
X2411608Y567319D01*
X2408995D02*
X2411608D01*
X2412480Y567029D01*
X2412770Y566738D01*
X2413060Y566157D01*
Y565286D01*
X2412770Y564705D01*
X2412480Y564415D01*
X2411608Y564124D01*
X2408995D01*
X2413351Y29021D02*
X2413060Y29602D01*
X2412480Y30183D01*
X2411899Y30473D01*
X2410737D01*
X2410156Y30183D01*
X2409575Y29602D01*
X2409285Y29021D01*
X2408995Y28150D01*
Y26698D01*
X2409285Y25826D01*
X2409575Y25246D01*
X2410156Y24665D01*
X2410737Y24374D01*
X2411899D01*
X2412480Y24665D01*
X2413060Y25246D01*
X2413351Y25826D01*
X2408995Y-508007D02*
Y-514106D01*
Y-508007D02*
X2411028D01*
X2411899Y-508297D01*
X2412480Y-508878D01*
X2412770Y-509459D01*
X2413060Y-510330D01*
Y-511782D01*
X2412770Y-512654D01*
X2412480Y-513234D01*
X2411899Y-513815D01*
X2411028Y-514106D01*
X2408995D01*
X2103419Y225066D02*
Y218967D01*
X2106904D01*
X2112218D02*
X2109895Y225066D01*
X2107572Y218967D01*
X2108443Y221000D02*
X2111347D01*
X2113641Y225066D02*
X2115965Y222162D01*
Y218967D01*
X2118288Y225066D02*
X2115965Y222162D01*
X2122847Y225066D02*
X2119072D01*
Y218967D01*
X2122847D01*
X2119072Y222162D02*
X2121395D01*
X2123864Y225066D02*
Y218967D01*
Y225066D02*
X2126478D01*
X2127349Y224776D01*
X2127639Y224485D01*
X2127930Y223904D01*
Y223324D01*
X2127639Y222743D01*
X2127349Y222452D01*
X2126478Y222162D01*
X2123864D01*
X2125897D02*
X2127930Y218967D01*
X2134086Y225066D02*
Y220710D01*
X2134377Y219839D01*
X2134958Y219258D01*
X2135829Y218967D01*
X2136410D01*
X2137281Y219258D01*
X2137862Y219839D01*
X2138152Y220710D01*
Y225066D01*
X2143902Y224195D02*
X2143322Y224776D01*
X2142450Y225066D01*
X2141289D01*
X2140417Y224776D01*
X2139836Y224195D01*
Y223614D01*
X2140127Y223033D01*
X2140417Y222743D01*
X2140998Y222452D01*
X2142741Y221871D01*
X2143322Y221581D01*
X2143612Y221291D01*
X2143902Y220710D01*
Y219839D01*
X2143322Y219258D01*
X2142450Y218967D01*
X2141289D01*
X2140417Y219258D01*
X2139836Y219839D01*
X2149914Y218967D02*
X2147590Y225066D01*
X2145267Y218967D01*
X2146138Y221000D02*
X2149043D01*
X2155693Y223614D02*
X2155403Y224195D01*
X2154822Y224776D01*
X2154241Y225066D01*
X2153079D01*
X2152498Y224776D01*
X2151918Y224195D01*
X2151627Y223614D01*
X2151337Y222743D01*
Y221291D01*
X2151627Y220419D01*
X2151918Y219839D01*
X2152498Y219258D01*
X2153079Y218967D01*
X2154241D01*
X2154822Y219258D01*
X2155403Y219839D01*
X2155693Y220419D01*
Y221291D01*
X2154241D02*
X2155693D01*
X2160862Y225066D02*
X2157087D01*
Y218967D01*
X2160862D01*
X2157087Y222162D02*
X2159410D01*
X1894705Y1303426D02*
Y1309524D01*
X1897754D01*
X1898770Y1308508D01*
Y1306475D01*
X1897754Y1305459D01*
X1894705D01*
X1896737D02*
X1898770Y1303426D01*
X1904868Y1309524D02*
X1900803D01*
Y1303426D01*
X1904868D01*
X1900803Y1306475D02*
X1902835D01*
X1906901Y1309524D02*
Y1305459D01*
X1908933Y1303426D01*
X1910966Y1305459D01*
Y1309524D01*
X1912999D02*
X1915031D01*
X1914015D01*
Y1303426D01*
X1912999D01*
X1915031D01*
X1922146Y1308508D02*
X1921129Y1309524D01*
X1919097D01*
X1918080Y1308508D01*
Y1307492D01*
X1919097Y1306475D01*
X1921129D01*
X1922146Y1305459D01*
Y1304443D01*
X1921129Y1303426D01*
X1919097D01*
X1918080Y1304443D01*
X1924178Y1309524D02*
X1926211D01*
X1925195D01*
Y1303426D01*
X1924178D01*
X1926211D01*
X1932309Y1309524D02*
X1930276D01*
X1929260Y1308508D01*
Y1304443D01*
X1930276Y1303426D01*
X1932309D01*
X1933325Y1304443D01*
Y1308508D01*
X1932309Y1309524D01*
X1935358Y1303426D02*
Y1309524D01*
X1939423Y1303426D01*
Y1309524D01*
X1536565Y1260246D02*
Y1266344D01*
X1539614D01*
X1540630Y1265328D01*
Y1263295D01*
X1539614Y1262279D01*
X1536565D01*
X1538597D02*
X1540630Y1260246D01*
X1546728Y1266344D02*
X1542663D01*
Y1260246D01*
X1546728D01*
X1542663Y1263295D02*
X1544695D01*
X1548761Y1266344D02*
Y1262279D01*
X1550793Y1260246D01*
X1552826Y1262279D01*
Y1266344D01*
X1645785D02*
Y1260246D01*
X1648834D01*
X1649850Y1261263D01*
Y1265328D01*
X1648834Y1266344D01*
X1645785D01*
X1655948D02*
X1651883D01*
Y1260246D01*
X1655948D01*
X1651883Y1263295D02*
X1653915D01*
X1662046Y1265328D02*
X1661030Y1266344D01*
X1658997D01*
X1657981Y1265328D01*
Y1264312D01*
X1658997Y1263295D01*
X1661030D01*
X1662046Y1262279D01*
Y1261263D01*
X1661030Y1260246D01*
X1658997D01*
X1657981Y1261263D01*
X1668144Y1265328D02*
X1667128Y1266344D01*
X1665095D01*
X1664079Y1265328D01*
Y1261263D01*
X1665095Y1260246D01*
X1667128D01*
X1668144Y1261263D01*
X1670177Y1260246D02*
Y1266344D01*
X1673226D01*
X1674242Y1265328D01*
Y1263295D01*
X1673226Y1262279D01*
X1670177D01*
X1672209D02*
X1674242Y1260246D01*
X1676275Y1266344D02*
X1678307D01*
X1677291D01*
Y1260246D01*
X1676275D01*
X1678307D01*
X1681356D02*
Y1266344D01*
X1684405D01*
X1685422Y1265328D01*
Y1263295D01*
X1684405Y1262279D01*
X1681356D01*
X1687454Y1266344D02*
X1691520D01*
X1689487D01*
Y1260246D01*
X1693552Y1266344D02*
X1695585D01*
X1694569D01*
Y1260246D01*
X1693552D01*
X1695585D01*
X1701683Y1266344D02*
X1699650D01*
X1698634Y1265328D01*
Y1261263D01*
X1699650Y1260246D01*
X1701683D01*
X1702699Y1261263D01*
Y1265328D01*
X1701683Y1266344D01*
X1704732Y1260246D02*
Y1266344D01*
X1708797Y1260246D01*
Y1266344D01*
X2143625D02*
Y1260246D01*
X2146674D01*
X2147690Y1261263D01*
Y1265328D01*
X2146674Y1266344D01*
X2143625D01*
X2149723Y1260246D02*
Y1264312D01*
X2151755Y1266344D01*
X2153788Y1264312D01*
Y1260246D01*
Y1263295D01*
X2149723D01*
X2155821Y1266344D02*
X2159886D01*
X2157853D01*
Y1260246D01*
X2165984Y1266344D02*
X2161919D01*
Y1260246D01*
X2165984D01*
X2161919Y1263295D02*
X2163951D01*
X2303645Y1266344D02*
Y1260246D01*
X2306694D01*
X2307710Y1261263D01*
Y1262279D01*
X2306694Y1263295D01*
X2303645D01*
X2306694D01*
X2307710Y1264312D01*
Y1265328D01*
X2306694Y1266344D01*
X2303645D01*
X2309743D02*
Y1265328D01*
X2311775Y1263295D01*
X2313808Y1265328D01*
Y1266344D01*
X2311775Y1263295D02*
Y1260246D01*
X1536565Y1222146D02*
Y1228244D01*
X1539614D01*
X1540630Y1227228D01*
Y1225195D01*
X1539614Y1224179D01*
X1536565D01*
X1538597D02*
X1540630Y1222146D01*
X1545712D02*
X1543679D01*
X1542663Y1223163D01*
Y1225195D01*
X1543679Y1226212D01*
X1545712D01*
X1546728Y1225195D01*
Y1224179D01*
X1542663D01*
X1548761Y1226212D02*
X1550793Y1222146D01*
X1552826Y1226212D01*
X1554859Y1222146D02*
X1556891D01*
X1555875D01*
Y1228244D01*
X1554859Y1227228D01*
X2123305Y1219606D02*
Y1220623D01*
X2124321D01*
Y1219606D01*
X2123305D01*
X2128386D02*
Y1225704D01*
X2131435D01*
X2132452Y1224688D01*
Y1222655D01*
X2131435Y1221639D01*
X2128386D01*
X2130419D02*
X2132452Y1219606D01*
X2137533D02*
X2135501D01*
X2134484Y1220623D01*
Y1222655D01*
X2135501Y1223672D01*
X2137533D01*
X2138550Y1222655D01*
Y1221639D01*
X2134484D01*
X2140582Y1219606D02*
X2142615D01*
X2141599D01*
Y1225704D01*
X2140582D01*
X2148713Y1219606D02*
X2146680D01*
X2145664Y1220623D01*
Y1222655D01*
X2146680Y1223672D01*
X2148713D01*
X2149729Y1222655D01*
Y1221639D01*
X2145664D01*
X2152778Y1223672D02*
X2154811D01*
X2155827Y1222655D01*
Y1219606D01*
X2152778D01*
X2151762Y1220623D01*
X2152778Y1221639D01*
X2155827D01*
X2157860Y1219606D02*
X2160909D01*
X2161925Y1220623D01*
X2160909Y1221639D01*
X2158876D01*
X2157860Y1222655D01*
X2158876Y1223672D01*
X2161925D01*
X2167007Y1219606D02*
X2164974D01*
X2163958Y1220623D01*
Y1222655D01*
X2164974Y1223672D01*
X2167007D01*
X2168023Y1222655D01*
Y1221639D01*
X2163958D01*
X2170056Y1225704D02*
Y1219606D01*
X2173105D01*
X2174121Y1220623D01*
Y1224688D01*
X2173105Y1225704D01*
X2170056D01*
X2177170Y1223672D02*
X2179203D01*
X2180219Y1222655D01*
Y1219606D01*
X2177170D01*
X2176154Y1220623D01*
X2177170Y1221639D01*
X2180219D01*
X2183268Y1224688D02*
Y1223672D01*
X2182252D01*
X2184285D01*
X2183268D01*
Y1220623D01*
X2184285Y1219606D01*
X2190383D02*
X2188350D01*
X2187334Y1220623D01*
Y1222655D01*
X2188350Y1223672D01*
X2190383D01*
X2191399Y1222655D01*
Y1221639D01*
X2187334D01*
X2193432Y1219606D02*
X2195464D01*
X2194448D01*
Y1225704D01*
X2193432Y1224688D01*
X2290945Y1222146D02*
Y1223163D01*
X2291961D01*
Y1222146D01*
X2290945D01*
X2296026D02*
Y1228244D01*
X2299075D01*
X2300092Y1227228D01*
Y1225195D01*
X2299075Y1224179D01*
X2296026D01*
X2298059D02*
X2300092Y1222146D01*
X2305173D02*
X2303141D01*
X2302124Y1223163D01*
Y1225195D01*
X2303141Y1226212D01*
X2305173D01*
X2306190Y1225195D01*
Y1224179D01*
X2302124D01*
X2308222Y1222146D02*
X2310255D01*
X2309239D01*
Y1228244D01*
X2308222D01*
X2316353Y1222146D02*
X2314320D01*
X2313304Y1223163D01*
Y1225195D01*
X2314320Y1226212D01*
X2316353D01*
X2317369Y1225195D01*
Y1224179D01*
X2313304D01*
X2320418Y1226212D02*
X2322451D01*
X2323467Y1225195D01*
Y1222146D01*
X2320418D01*
X2319402Y1223163D01*
X2320418Y1224179D01*
X2323467D01*
X2325500Y1222146D02*
X2328549D01*
X2329565Y1223163D01*
X2328549Y1224179D01*
X2326516D01*
X2325500Y1225195D01*
X2326516Y1226212D01*
X2329565D01*
X2334647Y1222146D02*
X2332614D01*
X2331598Y1223163D01*
Y1225195D01*
X2332614Y1226212D01*
X2334647D01*
X2335663Y1225195D01*
Y1224179D01*
X2331598D01*
X2337696Y1228244D02*
Y1222146D01*
X2340745D01*
X2341761Y1223163D01*
Y1224179D01*
X2340745Y1225195D01*
X2337696D01*
X2340745D01*
X2341761Y1226212D01*
Y1227228D01*
X2340745Y1228244D01*
X2337696D01*
X2343794Y1226212D02*
Y1223163D01*
X2344810Y1222146D01*
X2347859D01*
Y1221130D01*
X2346843Y1220114D01*
X2345827D01*
X2347859Y1222146D02*
Y1226212D01*
X2349892Y1222146D02*
X2351925D01*
X2350908D01*
Y1228244D01*
X2349892Y1227228D01*
X1528881Y1159884D02*
Y1153786D01*
X1531930D01*
X1532946Y1154803D01*
Y1155819D01*
X1531930Y1156835D01*
X1528881D01*
X1531930D01*
X1532946Y1157852D01*
Y1158868D01*
X1531930Y1159884D01*
X1528881D01*
X1532946Y1120768D02*
X1531930Y1121785D01*
X1529897D01*
X1528881Y1120768D01*
Y1116703D01*
X1529897Y1115686D01*
X1531930D01*
X1532946Y1116703D01*
X2123305Y1145946D02*
Y1146963D01*
X2124321D01*
Y1145946D01*
X2123305D01*
X2128386D02*
Y1152044D01*
X2131435D01*
X2132452Y1151028D01*
Y1148995D01*
X2131435Y1147979D01*
X2128386D01*
X2130419D02*
X2132452Y1145946D01*
X2137533D02*
X2135501D01*
X2134484Y1146963D01*
Y1148995D01*
X2135501Y1150012D01*
X2137533D01*
X2138550Y1148995D01*
Y1147979D01*
X2134484D01*
X2140582Y1145946D02*
X2142615D01*
X2141599D01*
Y1152044D01*
X2140582D01*
X2148713Y1145946D02*
X2146680D01*
X2145664Y1146963D01*
Y1148995D01*
X2146680Y1150012D01*
X2148713D01*
X2149729Y1148995D01*
Y1147979D01*
X2145664D01*
X2152778Y1150012D02*
X2154811D01*
X2155827Y1148995D01*
Y1145946D01*
X2152778D01*
X2151762Y1146963D01*
X2152778Y1147979D01*
X2155827D01*
X2157860Y1145946D02*
X2160909D01*
X2161925Y1146963D01*
X2160909Y1147979D01*
X2158876D01*
X2157860Y1148995D01*
X2158876Y1150012D01*
X2161925D01*
X2167007Y1145946D02*
X2164974D01*
X2163958Y1146963D01*
Y1148995D01*
X2164974Y1150012D01*
X2167007D01*
X2168023Y1148995D01*
Y1147979D01*
X2163958D01*
X2170056Y1152044D02*
Y1145946D01*
X2173105D01*
X2174121Y1146963D01*
Y1151028D01*
X2173105Y1152044D01*
X2170056D01*
X2177170Y1150012D02*
X2179203D01*
X2180219Y1148995D01*
Y1145946D01*
X2177170D01*
X2176154Y1146963D01*
X2177170Y1147979D01*
X2180219D01*
X2183268Y1151028D02*
Y1150012D01*
X2182252D01*
X2184285D01*
X2183268D01*
Y1146963D01*
X2184285Y1145946D01*
X2190383D02*
X2188350D01*
X2187334Y1146963D01*
Y1148995D01*
X2188350Y1150012D01*
X2190383D01*
X2191399Y1148995D01*
Y1147979D01*
X2187334D01*
X2193432Y1151028D02*
X2194448Y1152044D01*
X2196481D01*
X2197497Y1151028D01*
Y1150012D01*
X2196481Y1148995D01*
X2195464D01*
X2196481D01*
X2197497Y1147979D01*
Y1146963D01*
X2196481Y1145946D01*
X2194448D01*
X2193432Y1146963D01*
X2290945Y1145946D02*
Y1146963D01*
X2291961D01*
Y1145946D01*
X2290945D01*
X2296026D02*
Y1152044D01*
X2299075D01*
X2300092Y1151028D01*
Y1148995D01*
X2299075Y1147979D01*
X2296026D01*
X2298059D02*
X2300092Y1145946D01*
X2305173D02*
X2303141D01*
X2302124Y1146963D01*
Y1148995D01*
X2303141Y1150012D01*
X2305173D01*
X2306190Y1148995D01*
Y1147979D01*
X2302124D01*
X2308222Y1145946D02*
X2310255D01*
X2309239D01*
Y1152044D01*
X2308222D01*
X2316353Y1145946D02*
X2314320D01*
X2313304Y1146963D01*
Y1148995D01*
X2314320Y1150012D01*
X2316353D01*
X2317369Y1148995D01*
Y1147979D01*
X2313304D01*
X2320418Y1150012D02*
X2322451D01*
X2323467Y1148995D01*
Y1145946D01*
X2320418D01*
X2319402Y1146963D01*
X2320418Y1147979D01*
X2323467D01*
X2325500Y1145946D02*
X2328549D01*
X2329565Y1146963D01*
X2328549Y1147979D01*
X2326516D01*
X2325500Y1148995D01*
X2326516Y1150012D01*
X2329565D01*
X2334647Y1145946D02*
X2332614D01*
X2331598Y1146963D01*
Y1148995D01*
X2332614Y1150012D01*
X2334647D01*
X2335663Y1148995D01*
Y1147979D01*
X2331598D01*
X2337696Y1152044D02*
Y1145946D01*
X2340745D01*
X2341761Y1146963D01*
Y1147979D01*
X2340745Y1148995D01*
X2337696D01*
X2340745D01*
X2341761Y1150012D01*
Y1151028D01*
X2340745Y1152044D01*
X2337696D01*
X2343794Y1150012D02*
Y1146963D01*
X2344810Y1145946D01*
X2347859D01*
Y1144930D01*
X2346843Y1143914D01*
X2345827D01*
X2347859Y1145946D02*
Y1150012D01*
X2349892Y1151028D02*
X2350908Y1152044D01*
X2352941D01*
X2353957Y1151028D01*
Y1150012D01*
X2352941Y1148995D01*
X2351925D01*
X2352941D01*
X2353957Y1147979D01*
Y1146963D01*
X2352941Y1145946D01*
X2350908D01*
X2349892Y1146963D01*
X1318125Y-689456D02*
Y-694537D01*
X1319141Y-695554D01*
X1321174D01*
X1322190Y-694537D01*
Y-689456D01*
X1324223D02*
Y-695554D01*
X1327272D01*
X1328288Y-694537D01*
Y-693521D01*
X1327272Y-692505D01*
X1324223D01*
X1327272D01*
X1328288Y-691488D01*
Y-690472D01*
X1327272Y-689456D01*
X1324223D01*
X1330321D02*
X1334386Y-695554D01*
Y-689456D02*
X1330321Y-695554D01*
X1336419Y-689456D02*
Y-695554D01*
Y-692505D01*
X1340484D01*
Y-689456D01*
Y-695554D01*
X1346582Y-689456D02*
X1344549Y-690472D01*
X1342517Y-692505D01*
Y-694537D01*
X1343533Y-695554D01*
X1345566D01*
X1346582Y-694537D01*
Y-693521D01*
X1345566Y-692505D01*
X1342517D01*
X1348615Y-690472D02*
X1349631Y-689456D01*
X1351664D01*
X1352680Y-690472D01*
Y-694537D01*
X1351664Y-695554D01*
X1349631D01*
X1348615Y-694537D01*
Y-690472D01*
X1354713Y-692505D02*
X1358778D01*
X1360811Y-690472D02*
X1361827Y-689456D01*
X1363860D01*
X1364876Y-690472D01*
Y-694537D01*
X1363860Y-695554D01*
X1361827D01*
X1360811Y-694537D01*
Y-690472D01*
X1366909D02*
X1367925Y-689456D01*
X1369958D01*
X1370974Y-690472D01*
Y-694537D01*
X1369958Y-695554D01*
X1367925D01*
X1366909Y-694537D01*
Y-690472D01*
X1373007D02*
X1374023Y-689456D01*
X1376056D01*
X1377072Y-690472D01*
Y-694537D01*
X1376056Y-695554D01*
X1374023D01*
X1373007Y-694537D01*
Y-690472D01*
X1379105Y-695554D02*
X1381137D01*
X1380121D01*
Y-689456D01*
X1379105Y-690472D01*
X1384186Y-695554D02*
X1386219D01*
X1385203D01*
Y-689456D01*
X1384186Y-690472D01*
X1389268Y-694537D02*
X1390284Y-695554D01*
X1392317D01*
X1393333Y-694537D01*
Y-690472D01*
X1392317Y-689456D01*
X1390284D01*
X1389268Y-690472D01*
Y-691488D01*
X1390284Y-692505D01*
X1393333D01*
X1398415Y-695554D02*
Y-689456D01*
X1395366Y-692505D01*
X1399431D01*
X1748910Y-618336D02*
X1744845D01*
Y-624434D01*
X1748910D01*
X1744845Y-621385D02*
X1746877D01*
X1750943Y-618336D02*
Y-622401D01*
X1752975Y-624434D01*
X1755008Y-622401D01*
Y-618336D01*
X1757041D02*
Y-624434D01*
Y-622401D01*
X1761106Y-618336D01*
X1758057Y-621385D01*
X1761106Y-624434D01*
X1763139Y-621385D02*
X1767204D01*
X1769237Y-624434D02*
Y-618336D01*
X1773302Y-624434D01*
Y-618336D01*
X1778384D02*
X1776351D01*
X1775335Y-619352D01*
Y-623417D01*
X1776351Y-624434D01*
X1778384D01*
X1779400Y-623417D01*
Y-619352D01*
X1778384Y-618336D01*
X1781433Y-624434D02*
Y-618336D01*
X1784482D01*
X1785498Y-619352D01*
Y-621385D01*
X1784482Y-622401D01*
X1781433D01*
X1783465D02*
X1785498Y-624434D01*
X1787531D02*
Y-620368D01*
X1789563Y-618336D01*
X1791596Y-620368D01*
Y-624434D01*
Y-621385D01*
X1787531D01*
X1793629D02*
X1797694D01*
X1799727Y-618336D02*
Y-624434D01*
X1802776D01*
X1803792Y-623417D01*
Y-622401D01*
X1802776Y-621385D01*
X1799727D01*
X1802776D01*
X1803792Y-620368D01*
Y-619352D01*
X1802776Y-618336D01*
X1799727D01*
X1809890Y-624434D02*
X1805825D01*
X1809890Y-620368D01*
Y-619352D01*
X1808874Y-618336D01*
X1806841D01*
X1805825Y-619352D01*
X1811923D02*
X1812939Y-618336D01*
X1814972D01*
X1815988Y-619352D01*
Y-623417D01*
X1814972Y-624434D01*
X1812939D01*
X1811923Y-623417D01*
Y-619352D01*
X2239425Y-623224D02*
Y-617126D01*
X2242474D01*
X2243490Y-618142D01*
Y-620175D01*
X2242474Y-621191D01*
X2239425D01*
X2241457D02*
X2243490Y-623224D01*
X2248572D02*
X2246539D01*
X2245523Y-622207D01*
Y-620175D01*
X2246539Y-619158D01*
X2248572D01*
X2249588Y-620175D01*
Y-621191D01*
X2245523D01*
X2251621Y-619158D02*
X2253653Y-623224D01*
X2255686Y-619158D01*
X2267882Y-618142D02*
X2266866Y-617126D01*
X2264833D01*
X2263817Y-618142D01*
Y-622207D01*
X2264833Y-623224D01*
X2266866D01*
X2267882Y-622207D01*
X1744845Y-563474D02*
Y-557376D01*
X1748910Y-563474D01*
Y-557376D01*
X1753992D02*
X1751959D01*
X1750943Y-558392D01*
Y-562457D01*
X1751959Y-563474D01*
X1753992D01*
X1755008Y-562457D01*
Y-558392D01*
X1753992Y-557376D01*
X1757041Y-563474D02*
Y-557376D01*
X1760090D01*
X1761106Y-558392D01*
Y-560425D01*
X1760090Y-561441D01*
X1757041D01*
X1759073D02*
X1761106Y-563474D01*
X1763139D02*
Y-559408D01*
X1765171Y-557376D01*
X1767204Y-559408D01*
Y-563474D01*
Y-560425D01*
X1763139D01*
X1769237D02*
X1773302D01*
X1775335Y-557376D02*
Y-563474D01*
X1778384D01*
X1779400Y-562457D01*
Y-561441D01*
X1778384Y-560425D01*
X1775335D01*
X1778384D01*
X1779400Y-559408D01*
Y-558392D01*
X1778384Y-557376D01*
X1775335D01*
X1785498Y-563474D02*
X1781433D01*
X1785498Y-559408D01*
Y-558392D01*
X1784482Y-557376D01*
X1782449D01*
X1781433Y-558392D01*
X1366385Y-557376D02*
Y-563474D01*
Y-560425D01*
X1370450D01*
Y-557376D01*
Y-563474D01*
X1372483D02*
Y-559408D01*
X1374515Y-557376D01*
X1376548Y-559408D01*
Y-563474D01*
Y-560425D01*
X1372483D01*
X1378581Y-557376D02*
Y-563474D01*
X1381630D01*
X1382646Y-562457D01*
Y-561441D01*
X1381630Y-560425D01*
X1378581D01*
X1381630D01*
X1382646Y-559408D01*
Y-558392D01*
X1381630Y-557376D01*
X1378581D01*
X1384679D02*
Y-563474D01*
X1387728D01*
X1388744Y-562457D01*
Y-558392D01*
X1387728Y-557376D01*
X1384679D01*
X1633787Y-600974D02*
Y-594876D01*
X1636836D01*
X1637852Y-595892D01*
Y-597925D01*
X1636836Y-598941D01*
X1633787D01*
X1643950Y-595892D02*
X1642934Y-594876D01*
X1640901D01*
X1639885Y-595892D01*
Y-599957D01*
X1640901Y-600974D01*
X1642934D01*
X1643950Y-599957D01*
X1645983Y-594876D02*
Y-600974D01*
X1649032D01*
X1650048Y-599957D01*
Y-598941D01*
X1649032Y-597925D01*
X1645983D01*
X1649032D01*
X1650048Y-596908D01*
Y-595892D01*
X1649032Y-594876D01*
X1645983D01*
X1658179Y-600974D02*
Y-594876D01*
X1662244Y-600974D01*
Y-594876D01*
X1664277Y-600974D02*
Y-596908D01*
X1666309Y-594876D01*
X1668342Y-596908D01*
Y-600974D01*
Y-597925D01*
X1664277D01*
X1670375Y-600974D02*
Y-594876D01*
X1672407Y-596908D01*
X1674440Y-594876D01*
Y-600974D01*
X1680538Y-594876D02*
X1676473D01*
Y-600974D01*
X1680538D01*
X1676473Y-597925D02*
X1678505D01*
X1682571Y-596908D02*
X1683587D01*
Y-597925D01*
X1682571D01*
Y-596908D01*
Y-599957D02*
X1683587D01*
Y-600974D01*
X1682571D01*
Y-599957D01*
X2252785Y-694192D02*
X2254817D01*
X2253801D01*
Y-688094D01*
X2252785Y-689110D01*
X2257866Y-690126D02*
X2258883D01*
Y-691143D01*
X2257866D01*
Y-690126D01*
Y-693175D02*
X2258883D01*
Y-694192D01*
X2257866D01*
Y-693175D01*
X2262948Y-694192D02*
X2264981D01*
X2263964D01*
Y-688094D01*
X2262948Y-689110D01*
X2169728Y-661932D02*
X2168712Y-660916D01*
X2166679D01*
X2165663Y-661932D01*
Y-662948D01*
X2166679Y-663965D01*
X2168712D01*
X2169728Y-664981D01*
Y-665997D01*
X2168712Y-667014D01*
X2166679D01*
X2165663Y-665997D01*
X2175826Y-661932D02*
X2174810Y-660916D01*
X2172777D01*
X2171761Y-661932D01*
Y-665997D01*
X2172777Y-667014D01*
X2174810D01*
X2175826Y-665997D01*
X2177859Y-667014D02*
Y-662948D01*
X2179891Y-660916D01*
X2181924Y-662948D01*
Y-667014D01*
Y-663965D01*
X2177859D01*
X2183957Y-660916D02*
Y-667014D01*
X2188022D01*
X2194120Y-660916D02*
X2190055D01*
Y-667014D01*
X2194120D01*
X2190055Y-663965D02*
X2192087D01*
X2196153Y-662948D02*
X2197169D01*
Y-663965D01*
X2196153D01*
Y-662948D01*
Y-665997D02*
X2197169D01*
Y-667014D01*
X2196153D01*
Y-665997D01*
X1637150Y-658976D02*
X1633085D01*
Y-662025D01*
X1635117D01*
X1633085D01*
Y-665074D01*
X1639183Y-658976D02*
X1641215D01*
X1640199D01*
Y-665074D01*
X1639183D01*
X1641215D01*
X1644264Y-658976D02*
Y-665074D01*
X1648330D01*
X1654428Y-658976D02*
X1650362D01*
Y-665074D01*
X1654428D01*
X1650362Y-662025D02*
X1652395D01*
X1662558Y-665074D02*
Y-658976D01*
X1666624Y-665074D01*
Y-658976D01*
X1668656Y-665074D02*
Y-661008D01*
X1670689Y-658976D01*
X1672722Y-661008D01*
Y-665074D01*
Y-662025D01*
X1668656D01*
X1674754Y-665074D02*
Y-658976D01*
X1676787Y-661008D01*
X1678820Y-658976D01*
Y-665074D01*
X1684918Y-658976D02*
X1680852D01*
Y-665074D01*
X1684918D01*
X1680852Y-662025D02*
X1682885D01*
X1686950Y-661008D02*
X1687967D01*
Y-662025D01*
X1686950D01*
Y-661008D01*
Y-664057D02*
X1687967D01*
Y-665074D01*
X1686950D01*
Y-664057D01*
X1635057Y-546618D02*
Y-540520D01*
X1638106D01*
X1639122Y-541536D01*
Y-543569D01*
X1638106Y-544585D01*
X1635057D01*
X1641155Y-546618D02*
Y-540520D01*
X1644204D01*
X1645220Y-541536D01*
Y-543569D01*
X1644204Y-544585D01*
X1641155D01*
X1643187D02*
X1645220Y-546618D01*
X1650302Y-540520D02*
X1648269D01*
X1647253Y-541536D01*
Y-545601D01*
X1648269Y-546618D01*
X1650302D01*
X1651318Y-545601D01*
Y-541536D01*
X1650302Y-540520D01*
X1657416D02*
X1655383D01*
X1656400D01*
Y-545601D01*
X1655383Y-546618D01*
X1654367D01*
X1653351Y-545601D01*
X1663514Y-540520D02*
X1659449D01*
Y-546618D01*
X1663514D01*
X1659449Y-543569D02*
X1661481D01*
X1669612Y-541536D02*
X1668596Y-540520D01*
X1666563D01*
X1665547Y-541536D01*
Y-545601D01*
X1666563Y-546618D01*
X1668596D01*
X1669612Y-545601D01*
X1671645Y-540520D02*
X1675710D01*
X1673677D01*
Y-546618D01*
X1677743Y-542552D02*
X1678759D01*
Y-543569D01*
X1677743D01*
Y-542552D01*
Y-545601D02*
X1678759D01*
Y-546618D01*
X1677743D01*
Y-545601D01*
X1254058Y-540774D02*
X1249993D01*
Y-546872D01*
X1254058D01*
X1249993Y-543823D02*
X1252025D01*
X1256091Y-546872D02*
Y-540774D01*
X1260156Y-546872D01*
Y-540774D01*
X1266254Y-541790D02*
X1265238Y-540774D01*
X1263205D01*
X1262189Y-541790D01*
Y-545855D01*
X1263205Y-546872D01*
X1265238D01*
X1266254Y-545855D01*
Y-543823D01*
X1264221D01*
X1268287Y-540774D02*
X1270319D01*
X1269303D01*
Y-546872D01*
X1268287D01*
X1270319D01*
X1273368D02*
Y-540774D01*
X1277434Y-546872D01*
Y-540774D01*
X1283532D02*
X1279466D01*
Y-546872D01*
X1283532D01*
X1279466Y-543823D02*
X1281499D01*
X1289630Y-540774D02*
X1285564D01*
Y-546872D01*
X1289630D01*
X1285564Y-543823D02*
X1287597D01*
X1291662Y-546872D02*
Y-540774D01*
X1294711D01*
X1295728Y-541790D01*
Y-543823D01*
X1294711Y-544839D01*
X1291662D01*
X1293695D02*
X1295728Y-546872D01*
X1297760Y-542806D02*
X1298777D01*
Y-543823D01*
X1297760D01*
Y-542806D01*
Y-545855D02*
X1298777D01*
Y-546872D01*
X1297760D01*
Y-545855D01*
X1252085Y-658976D02*
Y-665074D01*
X1255134D01*
X1256150Y-664057D01*
Y-659992D01*
X1255134Y-658976D01*
X1252085D01*
X1258183D02*
Y-665074D01*
X1260215Y-663041D01*
X1262248Y-665074D01*
Y-658976D01*
X1268346Y-659992D02*
X1267330Y-658976D01*
X1265297D01*
X1264281Y-659992D01*
Y-664057D01*
X1265297Y-665074D01*
X1267330D01*
X1268346Y-664057D01*
Y-662025D01*
X1266313D01*
X1276477Y-665074D02*
Y-658976D01*
X1280542Y-665074D01*
Y-658976D01*
X1285624D02*
X1283591D01*
X1282575Y-659992D01*
Y-664057D01*
X1283591Y-665074D01*
X1285624D01*
X1286640Y-664057D01*
Y-659992D01*
X1285624Y-658976D01*
X1288673Y-661008D02*
X1289689D01*
Y-662025D01*
X1288673D01*
Y-661008D01*
Y-664057D02*
X1289689D01*
Y-665074D01*
X1288673D01*
Y-664057D01*
X2166933Y-604276D02*
Y-598178D01*
X2169982D01*
X2170998Y-599194D01*
Y-601227D01*
X2169982Y-602243D01*
X2166933D01*
X2168965D02*
X2170998Y-604276D01*
X2177096Y-598178D02*
X2173031D01*
Y-604276D01*
X2177096D01*
X2173031Y-601227D02*
X2175063D01*
X2179129Y-598178D02*
Y-602243D01*
X2181161Y-604276D01*
X2183194Y-602243D01*
Y-598178D01*
X2185227Y-600210D02*
X2186243D01*
Y-601227D01*
X2185227D01*
Y-600210D01*
Y-603259D02*
X2186243D01*
Y-604276D01*
X2185227D01*
Y-603259D01*
X1250755Y-595892D02*
Y-601990D01*
X1253804D01*
X1254820Y-600973D01*
Y-596908D01*
X1253804Y-595892D01*
X1250755D01*
X1256853Y-601990D02*
Y-597924D01*
X1258885Y-595892D01*
X1260918Y-597924D01*
Y-601990D01*
Y-598941D01*
X1256853D01*
X1262951Y-595892D02*
X1267016D01*
X1264983D01*
Y-601990D01*
X1273114Y-595892D02*
X1269049D01*
Y-601990D01*
X1273114D01*
X1269049Y-598941D02*
X1271081D01*
X1275147Y-597924D02*
X1276163D01*
Y-598941D01*
X1275147D01*
Y-597924D01*
Y-600973D02*
X1276163D01*
Y-601990D01*
X1275147D01*
Y-600973D01*
X1323205Y-619352D02*
X1324221Y-618336D01*
X1326254D01*
X1327270Y-619352D01*
Y-623417D01*
X1326254Y-624434D01*
X1324221D01*
X1323205Y-623417D01*
Y-619352D01*
X1332352Y-624434D02*
Y-618336D01*
X1329303Y-621385D01*
X1333368D01*
X1335401Y-624434D02*
X1339466Y-620368D01*
X1341499Y-619352D02*
X1342515Y-618336D01*
X1344548D01*
X1345564Y-619352D01*
Y-623417D01*
X1344548Y-624434D01*
X1342515D01*
X1341499Y-623417D01*
Y-619352D01*
X1350646Y-624434D02*
Y-618336D01*
X1347597Y-621385D01*
X1351662D01*
X1353695Y-624434D02*
X1357760Y-620368D01*
X1363858Y-624434D02*
X1359793D01*
X1363858Y-620368D01*
Y-619352D01*
X1362842Y-618336D01*
X1360809D01*
X1359793Y-619352D01*
X1365891D02*
X1366907Y-618336D01*
X1368940D01*
X1369956Y-619352D01*
Y-623417D01*
X1368940Y-624434D01*
X1366907D01*
X1365891Y-623417D01*
Y-619352D01*
X1376054Y-624434D02*
X1371989D01*
X1376054Y-620368D01*
Y-619352D01*
X1375038Y-618336D01*
X1373005D01*
X1371989Y-619352D01*
X1382152Y-618336D02*
X1378087D01*
Y-621385D01*
X1380119Y-620368D01*
X1381136D01*
X1382152Y-621385D01*
Y-623417D01*
X1381136Y-624434D01*
X1379103D01*
X1378087Y-623417D01*
X1660010Y-686916D02*
X1655945D01*
Y-693014D01*
X1660010D01*
X1655945Y-689965D02*
X1657977D01*
X1662043Y-686916D02*
Y-690981D01*
X1664075Y-693014D01*
X1666108Y-690981D01*
Y-686916D01*
X1668141D02*
Y-693014D01*
X1671190D01*
X1672206Y-691997D01*
Y-690981D01*
X1671190Y-689965D01*
X1668141D01*
X1671190D01*
X1672206Y-688948D01*
Y-687932D01*
X1671190Y-686916D01*
X1668141D01*
X1674239Y-689965D02*
X1678304D01*
X1680337Y-693014D02*
Y-686916D01*
X1684402Y-693014D01*
Y-686916D01*
X1689484D02*
X1687451D01*
X1686435Y-687932D01*
Y-691997D01*
X1687451Y-693014D01*
X1689484D01*
X1690500Y-691997D01*
Y-687932D01*
X1689484Y-686916D01*
X1692533Y-693014D02*
Y-686916D01*
X1695582D01*
X1696598Y-687932D01*
Y-689965D01*
X1695582Y-690981D01*
X1692533D01*
X1694565D02*
X1696598Y-693014D01*
X1698631D02*
Y-688948D01*
X1700663Y-686916D01*
X1702696Y-688948D01*
Y-693014D01*
Y-689965D01*
X1698631D01*
X1704729D02*
X1708794D01*
X1710827Y-686916D02*
Y-693014D01*
X1713876D01*
X1714892Y-691997D01*
Y-690981D01*
X1713876Y-689965D01*
X1710827D01*
X1713876D01*
X1714892Y-688948D01*
Y-687932D01*
X1713876Y-686916D01*
X1710827D01*
X1720990Y-693014D02*
X1716925D01*
X1720990Y-688948D01*
Y-687932D01*
X1719974Y-686916D01*
X1717941D01*
X1716925Y-687932D01*
X1723023D02*
X1724039Y-686916D01*
X1726072D01*
X1727088Y-687932D01*
Y-691997D01*
X1726072Y-693014D01*
X1724039D01*
X1723023Y-691997D01*
Y-687932D01*
X1729121Y-693014D02*
Y-691997D01*
X1730137D01*
Y-693014D01*
X1729121D01*
X1734202D02*
Y-686916D01*
X1737251D01*
X1738268Y-687932D01*
Y-689965D01*
X1737251Y-690981D01*
X1734202D01*
X1744366Y-688948D02*
X1741317D01*
X1740300Y-689965D01*
Y-691997D01*
X1741317Y-693014D01*
X1744366D01*
X1746398Y-686916D02*
Y-693014D01*
X1749447D01*
X1750464Y-691997D01*
Y-690981D01*
Y-689965D01*
X1749447Y-688948D01*
X1746398D01*
X1752496Y-686916D02*
Y-693014D01*
X1755545D01*
X1756562Y-691997D01*
Y-687932D01*
X1755545Y-686916D01*
X1752496D01*
X1759611Y-693014D02*
X1761643D01*
X1762660Y-691997D01*
Y-689965D01*
X1761643Y-688948D01*
X1759611D01*
X1758594Y-689965D01*
Y-691997D01*
X1759611Y-693014D01*
X1768758Y-688948D02*
X1765709D01*
X1764692Y-689965D01*
Y-691997D01*
X1765709Y-693014D01*
X1768758D01*
X960363Y-681691D02*
X960072Y-681110D01*
X959492Y-680529D01*
X958911Y-680239D01*
X957749D01*
X957168Y-680529D01*
X956587Y-681110D01*
X956297Y-681691D01*
X956007Y-682562D01*
Y-684014D01*
X956297Y-684885D01*
X956587Y-685466D01*
X957168Y-686047D01*
X957749Y-686338D01*
X958911D01*
X959492Y-686047D01*
X960072Y-685466D01*
X960363Y-684885D01*
X963819Y-680239D02*
X963238Y-680529D01*
X962657Y-681110D01*
X962367Y-681691D01*
X962076Y-682562D01*
Y-684014D01*
X962367Y-684885D01*
X962657Y-685466D01*
X963238Y-686047D01*
X963819Y-686338D01*
X964980D01*
X965561Y-686047D01*
X966142Y-685466D01*
X966432Y-684885D01*
X966723Y-684014D01*
Y-682562D01*
X966432Y-681691D01*
X966142Y-681110D01*
X965561Y-680529D01*
X964980Y-680239D01*
X963819D01*
X968146D02*
Y-686338D01*
Y-680239D02*
X972212Y-686338D01*
Y-680239D02*
Y-686338D01*
X973896Y-680239D02*
Y-686338D01*
Y-680239D02*
X977671D01*
X973896Y-683143D02*
X976219D01*
X978368Y-680239D02*
Y-686338D01*
X979646Y-680239D02*
Y-686338D01*
Y-680239D02*
X981679D01*
X982550Y-680529D01*
X983131Y-681110D01*
X983422Y-681691D01*
X983712Y-682562D01*
Y-684014D01*
X983422Y-684885D01*
X983131Y-685466D01*
X982550Y-686047D01*
X981679Y-686338D01*
X979646D01*
X988852Y-680239D02*
X985077D01*
Y-686338D01*
X988852D01*
X985077Y-683143D02*
X987400D01*
X989869Y-680239D02*
Y-686338D01*
Y-680239D02*
X993934Y-686338D01*
Y-680239D02*
Y-686338D01*
X997652Y-680239D02*
Y-686338D01*
X995619Y-680239D02*
X999685D01*
X1000411D02*
Y-686338D01*
X1006335D02*
X1004012Y-680239D01*
X1001689Y-686338D01*
X1002560Y-684305D02*
X1005464D01*
X1007758Y-680239D02*
Y-686338D01*
X1011243D01*
X2290945Y1184046D02*
Y1185063D01*
X2291961D01*
Y1184046D01*
X2290945D01*
X2296026D02*
Y1190144D01*
X2299075D01*
X2300092Y1189128D01*
Y1187095D01*
X2299075Y1186079D01*
X2296026D01*
X2298059D02*
X2300092Y1184046D01*
X2305173D02*
X2303141D01*
X2302124Y1185063D01*
Y1187095D01*
X2303141Y1188112D01*
X2305173D01*
X2306190Y1187095D01*
Y1186079D01*
X2302124D01*
X2308222Y1184046D02*
X2310255D01*
X2309239D01*
Y1190144D01*
X2308222D01*
X2316353Y1184046D02*
X2314320D01*
X2313304Y1185063D01*
Y1187095D01*
X2314320Y1188112D01*
X2316353D01*
X2317369Y1187095D01*
Y1186079D01*
X2313304D01*
X2320418Y1188112D02*
X2322451D01*
X2323467Y1187095D01*
Y1184046D01*
X2320418D01*
X2319402Y1185063D01*
X2320418Y1186079D01*
X2323467D01*
X2325500Y1184046D02*
X2328549D01*
X2329565Y1185063D01*
X2328549Y1186079D01*
X2326516D01*
X2325500Y1187095D01*
X2326516Y1188112D01*
X2329565D01*
X2334647Y1184046D02*
X2332614D01*
X2331598Y1185063D01*
Y1187095D01*
X2332614Y1188112D01*
X2334647D01*
X2335663Y1187095D01*
Y1186079D01*
X2331598D01*
X2337696Y1190144D02*
Y1184046D01*
X2340745D01*
X2341761Y1185063D01*
Y1186079D01*
X2340745Y1187095D01*
X2337696D01*
X2340745D01*
X2341761Y1188112D01*
Y1189128D01*
X2340745Y1190144D01*
X2337696D01*
X2343794Y1188112D02*
Y1185063D01*
X2344810Y1184046D01*
X2347859D01*
Y1183030D01*
X2346843Y1182014D01*
X2345827D01*
X2347859Y1184046D02*
Y1188112D01*
X2353957Y1184046D02*
X2349892D01*
X2353957Y1188112D01*
Y1189128D01*
X2352941Y1190144D01*
X2350908D01*
X2349892Y1189128D01*
X2123305Y1181506D02*
Y1182523D01*
X2124321D01*
Y1181506D01*
X2123305D01*
X2128386D02*
Y1187604D01*
X2131435D01*
X2132452Y1186588D01*
Y1184555D01*
X2131435Y1183539D01*
X2128386D01*
X2130419D02*
X2132452Y1181506D01*
X2137533D02*
X2135501D01*
X2134484Y1182523D01*
Y1184555D01*
X2135501Y1185572D01*
X2137533D01*
X2138550Y1184555D01*
Y1183539D01*
X2134484D01*
X2140582Y1181506D02*
X2142615D01*
X2141599D01*
Y1187604D01*
X2140582D01*
X2148713Y1181506D02*
X2146680D01*
X2145664Y1182523D01*
Y1184555D01*
X2146680Y1185572D01*
X2148713D01*
X2149729Y1184555D01*
Y1183539D01*
X2145664D01*
X2152778Y1185572D02*
X2154811D01*
X2155827Y1184555D01*
Y1181506D01*
X2152778D01*
X2151762Y1182523D01*
X2152778Y1183539D01*
X2155827D01*
X2157860Y1181506D02*
X2160909D01*
X2161925Y1182523D01*
X2160909Y1183539D01*
X2158876D01*
X2157860Y1184555D01*
X2158876Y1185572D01*
X2161925D01*
X2167007Y1181506D02*
X2164974D01*
X2163958Y1182523D01*
Y1184555D01*
X2164974Y1185572D01*
X2167007D01*
X2168023Y1184555D01*
Y1183539D01*
X2163958D01*
X2170056Y1187604D02*
Y1181506D01*
X2173105D01*
X2174121Y1182523D01*
Y1186588D01*
X2173105Y1187604D01*
X2170056D01*
X2177170Y1185572D02*
X2179203D01*
X2180219Y1184555D01*
Y1181506D01*
X2177170D01*
X2176154Y1182523D01*
X2177170Y1183539D01*
X2180219D01*
X2183268Y1186588D02*
Y1185572D01*
X2182252D01*
X2184285D01*
X2183268D01*
Y1182523D01*
X2184285Y1181506D01*
X2190383D02*
X2188350D01*
X2187334Y1182523D01*
Y1184555D01*
X2188350Y1185572D01*
X2190383D01*
X2191399Y1184555D01*
Y1183539D01*
X2187334D01*
X2197497Y1181506D02*
X2193432D01*
X2197497Y1185572D01*
Y1186588D01*
X2196481Y1187604D01*
X2194448D01*
X2193432Y1186588D01*
D14*
X2103419Y211855D02*
X2298999D01*
X2349799Y-497434D02*
Y249326D01*
X2062779D02*
X2349799D01*
X2062779Y-497434D02*
Y249326D01*
Y-497434D02*
X2349799D01*
D16*
X791286Y637134D02*
X862899D01*
X791286D02*
Y688940D01*
X862899D01*
Y637134D02*
Y688940D01*
X614460Y25410D02*
X624460D01*
X619460Y20410D02*
Y30410D01*
X261865Y210640D02*
Y220640D01*
X256865Y215640D02*
X266865D01*
X639825Y104926D02*
Y114926D01*
X634825Y109926D02*
X644825D01*
X660300Y592690D02*
X670300D01*
X665300Y587690D02*
Y597690D01*
X672900Y137000D02*
Y147000D01*
X667900Y142000D02*
X677900D01*
X312040Y695130D02*
X392040D01*
X312040Y625130D02*
Y695130D01*
Y625130D02*
X392040D01*
Y695130D01*
X405460Y158160D02*
X415460D01*
X410460Y153160D02*
Y163160D01*
X787969Y577954D02*
Y629760D01*
X716356D02*
X787969D01*
X716356Y577954D02*
Y629760D01*
Y577954D02*
X787969D01*
X489230Y272760D02*
Y282760D01*
X484230Y277760D02*
X494230D01*
X996000Y95400D02*
Y623400D01*
X894000Y95400D02*
X996000D01*
X894000D02*
Y623400D01*
X996000D01*
X376130Y502978D02*
X386130D01*
X381130Y497978D02*
Y507978D01*
X370880Y521228D02*
X391380D01*
X370880Y484728D02*
Y521228D01*
Y484728D02*
X391380D01*
Y521228D01*
X435493Y407432D02*
Y489920D01*
Y407432D02*
X563235D01*
X435493Y489920D02*
X563235D01*
Y407432D02*
Y489920D01*
X525236Y334261D02*
Y405874D01*
X473624D02*
X525236D01*
X473624Y334261D02*
X525236D01*
X473624D02*
Y405874D01*
X860120Y166370D02*
X870120D01*
X865120Y161370D02*
Y171370D01*
X686530Y70610D02*
Y80610D01*
X681530Y75610D02*
X691530D01*
X859656Y12694D02*
Y84307D01*
X807850Y12694D02*
X859656D01*
X807850D02*
Y84307D01*
X859656D01*
X791286Y577944D02*
X862899D01*
X791286D02*
Y629750D01*
X862899D01*
Y577944D02*
Y629750D01*
X80164Y60664D02*
X90164D01*
X85164Y55664D02*
Y65664D01*
X74914Y42414D02*
X95414D01*
Y78914D01*
X74914D02*
X95414D01*
X74914Y42414D02*
Y78914D01*
X716356Y637134D02*
X787969D01*
X716356D02*
Y688940D01*
X787969D01*
Y637134D02*
Y688940D01*
X4000Y623400D02*
X106000D01*
X4000Y95400D02*
Y623400D01*
Y95400D02*
X106000D01*
Y623400D01*
D19*
X-302455Y-711464D02*
X2389945D01*
X-353255Y856986D02*
X-302455D01*
X-353255Y-222514D02*
X-302455D01*
X345245Y-762264D02*
Y-711464D01*
X1043745Y-762264D02*
Y-711464D01*
X1742245Y-762264D02*
Y-711464D01*
X-302455Y1345936D02*
X2389945D01*
X345245D02*
Y1396736D01*
X1043745Y1345936D02*
Y1396736D01*
X1742245Y1345936D02*
Y1396736D01*
X-353195Y1397406D02*
X2440805D01*
Y-761594D02*
Y1397406D01*
X2389945Y-711464D02*
Y1345936D01*
Y856986D02*
X2440745D01*
X2389945Y317236D02*
X2440745D01*
X2389945Y-222514D02*
X2440745D01*
X-353195Y-761594D02*
X2440805D01*
X1516245Y1130706D02*
Y1346606D01*
Y1130706D02*
X2390005D01*
X1516245Y1168806D02*
X2389945D01*
X1516245Y1245006D02*
X2390005D01*
X1516245Y1206906D02*
X2389945D01*
X1516245Y1288186D02*
X2389945D01*
X1607685Y1130706D02*
Y1288186D01*
X2102985Y1130706D02*
Y1288186D01*
X2273165Y1130706D02*
Y1288186D01*
X1627945Y-559064D02*
Y-522488D01*
X1246945D02*
X1627945D01*
X817745D02*
X1246945D01*
X1627945Y-711464D02*
Y-559064D01*
X2161345Y-711464D02*
Y-581670D01*
X1246945Y-711464D02*
Y-522488D01*
X2389945Y-711464D02*
Y-522488D01*
X1627945D02*
X2389945D01*
X1246945Y-580908D02*
X2389945D01*
X1246945Y-644154D02*
X2389945D01*
X1246945Y-711464D02*
X2389945D01*
X817745D02*
Y-522488D01*
Y-711464D02*
X1246945D01*
D21*
X2114849Y-16364D02*
D03*
D192*
X469514Y347940D02*
Y405940D01*
X389514D02*
X469514D01*
X389514Y347940D02*
Y405940D01*
Y347940D02*
X469514D01*
X469420Y115570D02*
X522760D01*
Y87630D02*
Y115570D01*
X469420Y87630D02*
X522760D01*
X469420D02*
Y115570D01*
X616072Y347940D02*
Y405940D01*
X536072D02*
X616072D01*
X536072Y347940D02*
Y405940D01*
Y347940D02*
X616072D01*
D223*
X359170Y212215D02*
X368670D01*
X363920Y207465D02*
Y216965D01*
X499314Y506220D02*
Y516220D01*
X494314Y511220D02*
X504314D01*
X479314Y501970D02*
X519314D01*
X479314Y520720D02*
X519314D01*
Y501970D02*
Y520720D01*
X479314Y501970D02*
Y520720D01*
X570862Y149712D02*
X590362D01*
Y173212D01*
X570862D02*
X590362D01*
X570862Y149712D02*
Y173212D01*
X577612Y161462D02*
X583612D01*
X580612Y158462D02*
Y164462D01*
X421230Y224210D02*
X437230D01*
Y244210D01*
X421230D02*
X437230D01*
X421230Y224210D02*
Y244210D01*
X426230Y234210D02*
X432230D01*
X429230Y231210D02*
Y237210D01*
X569460Y-590D02*
Y79410D01*
X670460Y-590D02*
Y79410D01*
X569460D02*
X670460D01*
X569460Y-590D02*
X670460D01*
X676184Y336590D02*
Y346590D01*
X671184Y341590D02*
X681184D01*
X637184Y306090D02*
X715184D01*
X637184Y377090D02*
X715184D01*
Y306090D02*
Y377090D01*
X637184Y306090D02*
Y377090D01*
X449580Y2540D02*
Y96520D01*
X368300D02*
X449580D01*
X368300Y2540D02*
Y96520D01*
Y2540D02*
X449580D01*
X254365Y224890D02*
X269365D01*
X254365Y206390D02*
X269365D01*
Y224890D01*
X254365Y206390D02*
Y224890D01*
X552000Y302721D02*
Y321721D01*
X573000Y302721D02*
Y321721D01*
X552000D02*
X573000D01*
X552000Y302721D02*
X573000D01*
X557500Y312221D02*
X567500D01*
X562500Y307221D02*
Y317221D01*
X629575Y99676D02*
X650075D01*
X629575Y120176D02*
X650075D01*
X629575Y99676D02*
Y120176D01*
X650075Y99676D02*
Y120176D01*
X331011Y210770D02*
Y214770D01*
X329011Y212770D02*
X333011D01*
X352011Y197770D02*
Y227770D01*
X310011Y197770D02*
X352011D01*
X310011Y227770D02*
X352011D01*
X310011Y197770D02*
Y227770D01*
X313150Y313180D02*
Y323180D01*
X308150Y318180D02*
X318150D01*
X296150Y334180D02*
X330150D01*
X296150Y302180D02*
X330150D01*
X296150D02*
Y334180D01*
X330150Y302180D02*
Y334180D01*
X829544Y540168D02*
Y576168D01*
Y540168D02*
X883544D01*
Y576168D01*
X829544D02*
X883544D01*
X693300Y549690D02*
Y635690D01*
X637300Y549690D02*
Y635690D01*
X693300D01*
X637300Y549690D02*
X693300D01*
X717594Y604270D02*
X723594D01*
X720344Y601270D02*
Y607520D01*
X724344Y596770D02*
Y611270D01*
X716344Y596770D02*
Y611270D01*
X724344D01*
X716344Y596770D02*
X724344D01*
X662900Y165000D02*
X682900D01*
X662900Y119000D02*
X682900D01*
Y165000D01*
X662900Y119000D02*
Y165000D01*
X224460Y499410D02*
Y505760D01*
Y493060D02*
Y505760D01*
Y493060D02*
Y499410D01*
X218110D02*
X224460D01*
X218110D02*
X230810D01*
X120320Y528620D02*
X328600D01*
Y471470D02*
Y528620D01*
X120320Y471470D02*
X328600D01*
X120320D02*
Y528620D01*
X878600Y241600D02*
Y298750D01*
X670320D02*
X878600D01*
X670320Y241600D02*
Y298750D01*
Y241600D02*
X878600D01*
X768110Y270810D02*
X780810D01*
X774460D02*
X780810D01*
X774460D02*
Y277160D01*
Y264460D02*
Y277160D01*
Y264460D02*
Y270810D01*
X367712Y376403D02*
Y385903D01*
X362962Y381153D02*
X372462D01*
X440446Y322778D02*
Y328778D01*
X437446Y325778D02*
X443446D01*
X512706Y175012D02*
X565206D01*
X512706Y122512D02*
Y175012D01*
Y122512D02*
X565206D01*
Y175012D01*
X453730Y315260D02*
X528730D01*
X453730Y240260D02*
X528730D01*
X453730D02*
Y315260D01*
X528730Y240260D02*
Y315260D01*
X445360Y551310D02*
Y698310D01*
X553360D01*
X495360Y629810D02*
X505360D01*
X500360Y624810D02*
Y634810D01*
X445360Y551310D02*
X553360D01*
Y698310D01*
X888048Y646266D02*
Y653266D01*
X884548Y649766D02*
X891548D01*
X877126Y634780D02*
X898970D01*
Y664752D01*
X877126D02*
X898970D01*
X877126Y634780D02*
Y664752D01*
X743500Y399110D02*
Y408610D01*
X738750Y403860D02*
X748250D01*
X731500Y397860D02*
X755500D01*
X731500Y409860D02*
X755500D01*
Y397860D02*
Y409860D01*
X731500Y397860D02*
Y409860D01*
Y361030D02*
Y373030D01*
X755500Y361030D02*
Y373030D01*
X731500D02*
X755500D01*
X731500Y361030D02*
X755500D01*
X738750Y367030D02*
X748250D01*
X743500Y362280D02*
Y371780D01*
Y411810D02*
Y421310D01*
X738750Y416560D02*
X748250D01*
X731500Y410560D02*
X755500D01*
X731500Y422560D02*
X755500D01*
Y410560D02*
Y422560D01*
X731500Y410560D02*
Y422560D01*
X580200Y310160D02*
Y315240D01*
X577660Y312700D02*
X582740D01*
X433320Y189990D02*
Y199990D01*
X428320Y194990D02*
X438320D01*
X189460Y692090D02*
X259460D01*
X189460Y626090D02*
Y692090D01*
X221460Y659090D02*
X227460D01*
X224460Y656090D02*
Y662090D01*
X259460Y626090D02*
Y692090D01*
X189460Y626090D02*
X259460D01*
X157850Y312492D02*
X161850D01*
X159850Y310492D02*
Y314492D01*
X151100Y321242D02*
X168600D01*
X168600Y303742D01*
X151100D02*
X168600D01*
X151100D02*
X151100Y321242D01*
X707365Y165010D02*
X714365D01*
X710865Y161510D02*
Y168510D01*
X695371Y153326D02*
Y176694D01*
Y153326D02*
X726359D01*
X695371Y176694D02*
X726359D01*
Y153326D02*
Y176694D01*
X727710Y141260D02*
Y150760D01*
X722960Y146010D02*
X732460D01*
X494980Y50340D02*
Y56340D01*
X491980Y53340D02*
X497980D01*
X93360Y647590D02*
Y695090D01*
X143360Y695090D01*
Y647590D02*
Y695090D01*
X93360Y647590D02*
X143360Y647590D01*
X118360Y675590D02*
Y679590D01*
X116360Y677590D02*
X120360D01*
X812470Y146007D02*
X821970D01*
X817220Y141257D02*
Y150757D01*
X788492Y137050D02*
X797992D01*
X793242Y132300D02*
Y141800D01*
X875120Y143370D02*
Y189370D01*
X855120Y143370D02*
Y189370D01*
X875120D01*
X855120Y143370D02*
X875120D01*
X676530Y52610D02*
X696530D01*
X676530Y98610D02*
X696530D01*
X676530Y52610D02*
Y98610D01*
X696530Y52610D02*
Y98610D01*
X743500Y349580D02*
Y359080D01*
X738750Y354330D02*
X748250D01*
X731500Y348330D02*
X755500D01*
X731500Y360330D02*
X755500D01*
Y348330D02*
Y360330D01*
X731500Y348330D02*
Y360330D01*
X743500Y386410D02*
Y395910D01*
X738750Y391160D02*
X748250D01*
X731500Y385160D02*
X755500D01*
X731500Y397160D02*
X755500D01*
Y385160D02*
Y397160D01*
X731500Y385160D02*
Y397160D01*
Y372460D02*
Y384460D01*
X755500Y372460D02*
Y384460D01*
X731500D02*
X755500D01*
X731500Y372460D02*
X755500D01*
X738750Y378460D02*
X748250D01*
X743500Y373710D02*
Y383210D01*
X657260Y103700D02*
Y113700D01*
X652260Y108700D02*
X662260D01*
X153214Y353588D02*
X223214D01*
Y419588D01*
X188214Y383588D02*
Y389588D01*
X185214Y386588D02*
X191214D01*
X153214Y353588D02*
Y419588D01*
X223214D01*
X500480Y530290D02*
X506480D01*
X503480Y527290D02*
Y533290D01*
X507480Y522290D02*
Y538290D01*
X499480Y522290D02*
Y538290D01*
X507480D01*
X499480Y522290D02*
X507480D01*
X490950D02*
X498950D01*
X490950Y538290D02*
X498950D01*
X490950Y522290D02*
Y538290D01*
X498950Y522290D02*
Y538290D01*
X494950Y527290D02*
Y533290D01*
X491950Y530290D02*
X497950D01*
X582572Y528976D02*
Y534976D01*
X579572Y531976D02*
X585572D01*
X574572Y535976D02*
X590572D01*
X574572Y527976D02*
X590572D01*
X574572D02*
Y535976D01*
X590572Y527976D02*
Y535976D01*
X620750Y549836D02*
Y555836D01*
X617750Y552836D02*
X623750D01*
X612750Y556836D02*
X628750D01*
X612750Y548836D02*
X628750D01*
X612750D02*
Y556836D01*
X628750Y548836D02*
Y556836D01*
X490180Y531330D02*
Y537330D01*
X487180Y534330D02*
X493180D01*
X508210Y531330D02*
Y537330D01*
X505210Y534330D02*
X511210D01*
X582462Y519496D02*
Y525496D01*
X579462Y522496D02*
X585462D01*
X608940Y626336D02*
Y632336D01*
X605940Y629336D02*
X611940D01*
X600940Y625336D02*
X616940D01*
X600940Y633336D02*
X616940D01*
Y625336D02*
Y633336D01*
X600940Y625336D02*
Y633336D01*
X671662Y42030D02*
X677662D01*
X674662Y39030D02*
Y45030D01*
X678662Y34030D02*
Y50030D01*
X670662Y34030D02*
Y50030D01*
X678662D01*
X670662Y34030D02*
X678662D01*
X559909Y27743D02*
X567909D01*
X559909Y43743D02*
X567909D01*
X559909Y27743D02*
Y43743D01*
X567909Y27743D02*
Y43743D01*
X563909Y32743D02*
Y38743D01*
X560909Y35743D02*
X566909D01*
X658600Y89100D02*
Y97100D01*
X674600Y89100D02*
Y97100D01*
X658600D02*
X674600D01*
X658600Y89100D02*
X674600D01*
X663600Y93100D02*
X669600D01*
X666600Y90100D02*
Y96100D01*
X582572Y510646D02*
Y516646D01*
X579572Y513646D02*
X585572D01*
X574572Y509646D02*
X590572D01*
X574572Y517646D02*
X590572D01*
Y509646D02*
Y517646D01*
X574572Y509646D02*
Y517646D01*
X820496Y124460D02*
X829996D01*
X825246Y119710D02*
Y129210D01*
X775312Y161370D02*
X781312D01*
X778312Y158370D02*
Y164370D01*
X774312Y153370D02*
Y169370D01*
X782312Y153370D02*
Y169370D01*
X774312Y153370D02*
X782312D01*
X774312Y169370D02*
X782312D01*
X793129Y179374D02*
Y185374D01*
X790129Y182374D02*
X796129D01*
X819670Y161370D02*
X825670D01*
X822670Y158370D02*
Y164370D01*
X818670Y153370D02*
Y169370D01*
X826670Y153370D02*
Y169370D01*
X818670Y153370D02*
X826670D01*
X818670Y169370D02*
X826670D01*
X829612Y161290D02*
X835612D01*
X832612Y158290D02*
Y164290D01*
X836612Y153290D02*
Y169290D01*
X828612Y153290D02*
Y169290D01*
X836612D01*
X828612Y153290D02*
X836612D01*
X775256Y178562D02*
X781256D01*
X778256Y175562D02*
Y181562D01*
X730046Y161370D02*
X736046D01*
X733046Y158370D02*
Y164370D01*
X735663Y119710D02*
Y129210D01*
X730913Y124460D02*
X740413D01*
X703326Y179374D02*
Y185374D01*
X700326Y182374D02*
X706326D01*
X695326Y178374D02*
X711326D01*
X695326Y186374D02*
X711326D01*
Y178374D02*
Y186374D01*
X695326Y178374D02*
Y186374D01*
X628904Y654352D02*
Y660352D01*
X625904Y657352D02*
X631904D01*
X620904Y653352D02*
X636904D01*
X620904Y661352D02*
X636904D01*
Y653352D02*
Y661352D01*
X620904Y653352D02*
Y661352D01*
X515410Y443560D02*
X521410D01*
X518410Y440560D02*
Y446560D01*
X522410Y435560D02*
Y451560D01*
X514410Y435560D02*
Y451560D01*
X522410D01*
X514410Y435560D02*
X522410D01*
X501710D02*
X509710D01*
X501710Y451560D02*
X509710D01*
X501710Y435560D02*
Y451560D01*
X509710Y435560D02*
Y451560D01*
X505710Y440560D02*
Y446560D01*
X502710Y443560D02*
X508710D01*
X451914Y443561D02*
X457914D01*
X454914Y440561D02*
Y446561D01*
X458914Y435561D02*
Y451561D01*
X450914Y435561D02*
Y451561D01*
X458914D01*
X450914Y435561D02*
X458914D01*
X463614D02*
X471614D01*
X463614Y451561D02*
X471614D01*
X463614Y435561D02*
Y451561D01*
X471614Y435561D02*
Y451561D01*
X467614Y440561D02*
Y446561D01*
X464614Y443561D02*
X470614D01*
X477314D02*
X483314D01*
X480314Y440561D02*
Y446561D01*
X484314Y435561D02*
Y451561D01*
X476314Y435561D02*
Y451561D01*
X484314D01*
X476314Y435561D02*
X484314D01*
X489014D02*
X497014D01*
X489014Y451561D02*
X497014D01*
X489014Y435561D02*
Y451561D01*
X497014Y435561D02*
Y451561D01*
X493014Y440561D02*
Y446561D01*
X490014Y443561D02*
X496014D01*
X523792Y108884D02*
X529792D01*
X526792Y105884D02*
Y111884D01*
X522792Y100884D02*
Y116884D01*
X530792Y100884D02*
Y116884D01*
X522792Y100884D02*
X530792D01*
X522792Y116884D02*
X530792D01*
X541306D02*
X549306D01*
X541306Y100884D02*
X549306D01*
Y116884D01*
X541306Y100884D02*
Y116884D01*
X545306Y105884D02*
Y111884D01*
X542306Y108884D02*
X548306D01*
X492902Y128398D02*
X500902D01*
X492902Y144398D02*
X500902D01*
X492902Y128398D02*
Y144398D01*
X500902Y128398D02*
Y144398D01*
X496902Y133398D02*
Y139398D01*
X493902Y136398D02*
X499902D01*
X532670Y100884D02*
X540670D01*
X532670Y116884D02*
X540670D01*
X532670Y100884D02*
Y116884D01*
X540670Y100884D02*
Y116884D01*
X536670Y105884D02*
Y111884D01*
X533670Y108884D02*
X539670D01*
X511554Y117825D02*
Y125825D01*
X495555Y117825D02*
Y125825D01*
Y117825D02*
X511554D01*
X495555Y125825D02*
X511554D01*
X500555Y121825D02*
X506554D01*
X503554Y118825D02*
Y124825D01*
X551704Y108884D02*
X557704D01*
X554704Y105884D02*
Y111884D01*
X558704Y100884D02*
Y116884D01*
X550704Y100884D02*
Y116884D01*
X558704D01*
X550704Y100884D02*
X558704D01*
X449132Y185974D02*
X457132D01*
X449132Y201974D02*
X457132D01*
X449132Y185974D02*
Y201974D01*
X457132Y185974D02*
Y201974D01*
X453132Y190974D02*
Y196974D01*
X450132Y193974D02*
X456132D01*
X439988Y185974D02*
X447988D01*
X439988Y201974D02*
X447988D01*
X439988Y185974D02*
Y201974D01*
X447988Y185974D02*
Y201974D01*
X443988Y190974D02*
Y196974D01*
X440988Y193974D02*
X446988D01*
X574860Y183240D02*
X580860D01*
X577860Y180240D02*
Y186240D01*
X393304Y194404D02*
X399304D01*
X396304Y191404D02*
Y197404D01*
X379379Y191404D02*
Y197404D01*
X376379Y194404D02*
X382379D01*
X786312Y355998D02*
Y361998D01*
X783312Y358998D02*
X789312D01*
X786312Y364888D02*
Y370888D01*
X783312Y367888D02*
X789312D01*
X783312Y376778D02*
X789312D01*
X786312Y373778D02*
Y379778D01*
X783312Y397098D02*
X789312D01*
X786312Y394098D02*
Y400098D01*
X588667Y130665D02*
Y138665D01*
X604667Y130665D02*
Y138665D01*
X588667D02*
X604667D01*
X588667Y130665D02*
X604667D01*
X593667Y134665D02*
X599667D01*
X596667Y131665D02*
Y137665D01*
X783312Y405988D02*
X789312D01*
X786312Y402988D02*
Y408988D01*
X783312Y414878D02*
X789312D01*
X786312Y411878D02*
Y417878D01*
X854455Y343957D02*
Y351957D01*
X870455Y343957D02*
Y351957D01*
X854455D02*
X870455D01*
X854455Y343957D02*
X870455D01*
X859455Y347957D02*
X865455D01*
X862455Y344957D02*
Y350957D01*
X854455Y361657D02*
Y369657D01*
X870455Y361657D02*
Y369657D01*
X854455D02*
X870455D01*
X854455Y361657D02*
X870455D01*
X859455Y365657D02*
X865455D01*
X862455Y362657D02*
Y368657D01*
X854455Y374357D02*
Y382357D01*
X870455Y374357D02*
Y382357D01*
X854455D02*
X870455D01*
X854455Y374357D02*
X870455D01*
X859455Y378357D02*
X865455D01*
X862455Y375357D02*
Y381357D01*
X854455Y387057D02*
Y395057D01*
X870455Y387057D02*
Y395057D01*
X854455D02*
X870455D01*
X854455Y387057D02*
X870455D01*
X859455Y391057D02*
X865455D01*
X862455Y388057D02*
Y394057D01*
X854455Y399757D02*
Y407757D01*
X870455Y399757D02*
Y407757D01*
X854455D02*
X870455D01*
X854455Y399757D02*
X870455D01*
X859455Y403757D02*
X865455D01*
X862455Y400757D02*
Y406757D01*
X854455Y412457D02*
Y420457D01*
X870455Y412457D02*
Y420457D01*
X854455D02*
X870455D01*
X854455Y412457D02*
X870455D01*
X859455Y416457D02*
X865455D01*
X862455Y413457D02*
Y419457D01*
X868978Y652698D02*
X874978D01*
X871978Y649698D02*
Y655698D01*
X887980Y666716D02*
Y672716D01*
X884980Y669716D02*
X890980D01*
X896835Y626291D02*
Y632291D01*
X893835Y629291D02*
X899835D01*
X891254Y24350D02*
Y30350D01*
X888254Y27350D02*
X894254D01*
X796958Y165008D02*
X803958D01*
X800458Y161508D02*
Y168508D01*
X784964Y153324D02*
Y176692D01*
Y153324D02*
X815952D01*
X784964Y176692D02*
X815952D01*
Y153324D02*
Y176692D01*
X799756Y347490D02*
X853756D01*
X799756D02*
Y383490D01*
X853756D01*
Y347490D02*
Y383490D01*
Y384320D02*
Y420320D01*
X799756D02*
X853756D01*
X799756Y384320D02*
Y420320D01*
Y384320D02*
X853756D01*
X333832Y184404D02*
X343332D01*
X338582Y179654D02*
Y189154D01*
X295338Y207230D02*
Y213230D01*
X292338Y210480D02*
X298588D01*
X287838Y206480D02*
X302338D01*
X287838Y214480D02*
X302338D01*
Y206480D02*
Y214480D01*
X287838Y206480D02*
Y214480D01*
X791270Y655440D02*
X799270D01*
X791270Y669940D02*
X799270D01*
X791270Y655440D02*
Y669940D01*
X799270Y655440D02*
Y669940D01*
X795270Y659940D02*
Y666190D01*
X792520Y662940D02*
X798520D01*
X791000Y596770D02*
X799000D01*
X791000Y611270D02*
X799000D01*
X791000Y596770D02*
Y611270D01*
X799000Y596770D02*
Y611270D01*
X795000Y601270D02*
Y607520D01*
X792250Y604270D02*
X798250D01*
X888968Y17444D02*
X894048D01*
X891508Y14904D02*
Y19984D01*
X395554Y341122D02*
X405054D01*
X400304Y336372D02*
Y345872D01*
X572400Y415300D02*
Y421300D01*
X569400Y418300D02*
X575400D01*
X580467Y426300D02*
X588467D01*
X580467Y410300D02*
X588467D01*
Y426300D01*
X580467Y410300D02*
Y426300D01*
X584467Y415300D02*
Y421300D01*
X581467Y418300D02*
X587467D01*
X588667Y121972D02*
Y129972D01*
X604667Y121972D02*
Y129972D01*
X588667D02*
X604667D01*
X588667Y121972D02*
X604667D01*
X593667Y125972D02*
X599667D01*
X596667Y122972D02*
Y128972D01*
X684679Y169370D02*
X692679D01*
X684679Y153370D02*
X692679D01*
Y169370D01*
X684679Y153370D02*
Y169370D01*
X688679Y158370D02*
Y164370D01*
X685679Y161370D02*
X691679D01*
X685679Y178562D02*
X691679D01*
X688679Y175562D02*
Y181562D01*
X684679Y170562D02*
Y186562D01*
X692679Y170562D02*
Y186562D01*
X684679Y170562D02*
X692679D01*
X684679Y186562D02*
X692679D01*
X878600Y470200D02*
Y527350D01*
X670320D02*
X878600D01*
X670320Y470200D02*
Y527350D01*
Y470200D02*
X878600D01*
X768110Y499410D02*
X780810D01*
X774460D02*
X780810D01*
X774460D02*
Y505760D01*
Y493060D02*
Y505760D01*
Y493060D02*
Y499410D01*
X224460Y270810D02*
Y277160D01*
Y264460D02*
Y277160D01*
Y264460D02*
Y270810D01*
X218110D02*
X224460D01*
X218110D02*
X230810D01*
X120320Y300020D02*
X328600D01*
Y242870D02*
Y300020D01*
X120320Y242870D02*
X328600D01*
X120320D02*
Y300020D01*
X354060Y608680D02*
Y618180D01*
X349310Y613430D02*
X358810D01*
X329460Y608680D02*
Y618180D01*
X324710Y613430D02*
X334210D01*
X323050Y574870D02*
X331050D01*
X323050Y558870D02*
X331050D01*
Y574870D01*
X323050Y558870D02*
Y574870D01*
X327050Y563870D02*
Y569870D01*
X324050Y566870D02*
X330050D01*
X340980Y574870D02*
X348980D01*
X340980Y558870D02*
X348980D01*
Y574870D01*
X340980Y558870D02*
Y574870D01*
X344980Y563870D02*
Y569870D01*
X341980Y566870D02*
X347980D01*
X698820Y95930D02*
X780100D01*
Y1950D02*
Y95930D01*
X698820Y1950D02*
X780100D01*
X698820D02*
Y95930D01*
X848300Y85806D02*
Y93806D01*
X862800Y85806D02*
Y93806D01*
X848300D02*
X862800D01*
X848300Y85806D02*
X862800D01*
X852800Y89806D02*
X859050D01*
X855800Y86557D02*
Y92556D01*
X803237Y567518D02*
Y575518D01*
X787237Y567518D02*
Y575518D01*
Y567518D02*
X803237D01*
X787237Y575518D02*
X803237D01*
X792237Y571518D02*
X798237D01*
X795237Y568518D02*
Y574518D01*
Y559942D02*
Y565942D01*
X792237Y562942D02*
X798237D01*
X787237Y566942D02*
X803237D01*
X787237Y558942D02*
X803237D01*
X787237D02*
Y566942D01*
X803237Y558942D02*
Y566942D01*
X766255Y543400D02*
Y549400D01*
X763255Y546400D02*
X769255D01*
X758255Y550400D02*
X774255D01*
X758255Y542400D02*
X774255D01*
X758255D02*
Y550400D01*
X774255Y542400D02*
Y550400D01*
X384430Y630394D02*
Y636394D01*
X381430Y633394D02*
X387430D01*
X376430Y637394D02*
X392430D01*
X376430Y629394D02*
X392430D01*
X376430D02*
Y637394D01*
X392430Y629394D02*
Y637394D01*
X384430Y622012D02*
Y628012D01*
X381430Y625012D02*
X387430D01*
X376430Y629012D02*
X392430D01*
X376430Y621012D02*
X392430D01*
X376430D02*
Y629012D01*
X392430Y621012D02*
Y629012D01*
X538950Y532092D02*
Y538092D01*
X535950Y535092D02*
X541950D01*
X530950Y539092D02*
X546950D01*
X530950Y531092D02*
X546950D01*
X530950D02*
Y539092D01*
X546950Y531092D02*
Y539092D01*
X541520Y215380D02*
Y224880D01*
X536770Y220130D02*
X546270D01*
X529420Y215350D02*
Y224850D01*
X524670Y220100D02*
X534170D01*
X707083Y619800D02*
X713083D01*
X710083Y616800D02*
Y622800D01*
X705600Y645400D02*
Y651400D01*
X702600Y648400D02*
X708600D01*
X531081Y339000D02*
Y345000D01*
X528081Y342000D02*
X534081D01*
X494429Y327051D02*
Y333051D01*
X491429Y330051D02*
X497429D01*
X396270Y269767D02*
Y279267D01*
X391520Y274517D02*
X401020D01*
X405520D02*
X415020D01*
X410270Y269767D02*
Y279267D01*
X440234Y322882D02*
Y328882D01*
X437234Y325882D02*
X443234D01*
X445564D02*
X451564D01*
X448564Y322882D02*
Y328882D01*
X590800Y307100D02*
Y313100D01*
X587800Y310100D02*
X593800D01*
X440150Y266390D02*
Y272390D01*
X437150Y269390D02*
X443150D01*
X442620Y303670D02*
Y309670D01*
X439620Y306670D02*
X445620D01*
X675611Y434972D02*
Y440972D01*
X672611Y437972D02*
X678611D01*
X675611Y427026D02*
Y433026D01*
X672611Y430026D02*
X678611D01*
X675835Y419675D02*
Y425675D01*
X672835Y422675D02*
X678835D01*
X675835Y407931D02*
Y413931D01*
X672835Y410931D02*
X678835D01*
X675835Y396186D02*
Y402186D01*
X672835Y399186D02*
X678835D01*
X675835Y384442D02*
Y390442D01*
X672835Y387442D02*
X678835D01*
X623872Y405892D02*
X629872D01*
X626872Y402892D02*
Y408892D01*
X676181Y368376D02*
Y374376D01*
X673181Y371376D02*
X679181D01*
X676181Y358333D02*
Y364333D01*
X673181Y361333D02*
X679181D01*
X673181Y351291D02*
X679181D01*
X676181Y348291D02*
Y354291D01*
Y338248D02*
Y344248D01*
X673181Y341248D02*
X679181D01*
X676181Y328205D02*
Y334205D01*
X673181Y331205D02*
X679181D01*
X676181Y318162D02*
Y324162D01*
X673181Y321162D02*
X679181D01*
X676181Y308119D02*
Y314119D01*
X673181Y311119D02*
X679181D01*
X662965Y294760D02*
Y300760D01*
X659965Y297760D02*
X665965D01*
X284360Y349956D02*
Y355956D01*
X281360Y352956D02*
X287360D01*
X284360Y361011D02*
Y367011D01*
X281360Y364011D02*
X287360D01*
X284360Y372066D02*
Y378066D01*
X281360Y375066D02*
X287360D01*
X284360Y383121D02*
Y389121D01*
X281360Y386121D02*
X287360D01*
X284360Y394176D02*
Y400176D01*
X281360Y397176D02*
X287360D01*
X281360Y408231D02*
X287360D01*
X284360Y405231D02*
Y411231D01*
Y416286D02*
Y422286D01*
X281360Y419286D02*
X287360D01*
X284360Y427341D02*
Y433341D01*
X281360Y430341D02*
X287360D01*
X675833Y410532D02*
Y420532D01*
X670833Y415532D02*
X680833D01*
X636833Y380033D02*
X714833D01*
X636833Y451032D02*
X714833D01*
Y380033D02*
Y451032D01*
X636833Y380033D02*
Y451032D01*
X284365Y384856D02*
Y394856D01*
X279365Y389856D02*
X289365D01*
X245365Y425356D02*
X323365D01*
X245365Y354356D02*
X323365D01*
X245365D02*
Y425356D01*
X323365Y354356D02*
Y425356D01*
X531110Y440561D02*
Y446561D01*
X528110Y443561D02*
X534110D01*
X543810Y440561D02*
Y446561D01*
X540810Y443561D02*
X546810D01*
X567170Y331650D02*
Y337650D01*
X564170Y334650D02*
X570170D01*
X565116Y323189D02*
Y329189D01*
X562116Y326189D02*
X568116D01*
X571300Y290700D02*
Y296700D01*
X568300Y293700D02*
X574300D01*
X663690Y468136D02*
Y474136D01*
X660690Y471136D02*
X666690D01*
X653898Y468136D02*
Y474136D01*
X650898Y471136D02*
X656898D01*
X622523Y468136D02*
Y474136D01*
X619523Y471136D02*
X625523D01*
X588735Y495710D02*
X594735D01*
X591735Y492710D02*
Y498710D01*
X612732Y468136D02*
Y474136D01*
X609732Y471136D02*
X615732D01*
X599940D02*
X605940D01*
X602940Y468136D02*
Y474136D01*
X631315Y471136D02*
X637315D01*
X634315Y468136D02*
Y474136D01*
X641107Y471136D02*
X647107D01*
X644107Y468136D02*
Y474136D01*
X109470Y627866D02*
Y633866D01*
X106470Y630866D02*
X112470D01*
X392064Y449051D02*
Y455051D01*
X389064Y452051D02*
X395064D01*
X381122Y449051D02*
Y455051D01*
X378122Y452051D02*
X384122D01*
X156867Y656090D02*
X162867D01*
X159867Y653090D02*
Y659090D01*
X370180Y449051D02*
Y455051D01*
X367180Y452051D02*
X373180D01*
X359238Y449051D02*
Y455051D01*
X356238Y452051D02*
X362238D01*
X348296Y449051D02*
Y455051D01*
X345296Y452051D02*
X351296D01*
X337354Y449051D02*
Y455051D01*
X334354Y452051D02*
X340354D01*
X284360Y438396D02*
Y444396D01*
X281360Y441396D02*
X287360D01*
X399460Y560600D02*
Y568600D01*
X415460Y560600D02*
Y568600D01*
X399460D02*
X415460D01*
X399460Y560600D02*
X415460D01*
X404460Y564600D02*
X410460D01*
X407460Y561600D02*
Y567600D01*
X399460Y570680D02*
Y578680D01*
X415460Y570680D02*
Y578680D01*
X399460D02*
X415460D01*
X399460Y570680D02*
X415460D01*
X404460Y574680D02*
X410460D01*
X407460Y571680D02*
Y577680D01*
Y592260D02*
Y598260D01*
X404460Y595260D02*
X410460D01*
X399460Y591260D02*
X415460D01*
X399460Y599260D02*
X415460D01*
Y591260D02*
Y599260D01*
X399460Y591260D02*
Y599260D01*
X376430Y612020D02*
Y620020D01*
X392430Y612020D02*
Y620020D01*
X376430D02*
X392430D01*
X376430Y612020D02*
X392430D01*
X381430Y616020D02*
X387430D01*
X384430Y613020D02*
Y619020D01*
X399460Y581040D02*
Y589040D01*
X415460Y581040D02*
Y589040D01*
X399460D02*
X415460D01*
X399460Y581040D02*
X415460D01*
X404460Y585040D02*
X410460D01*
X407460Y582040D02*
Y588040D01*
X617670Y562526D02*
X623670D01*
X620670Y559526D02*
Y565526D01*
X579562Y550706D02*
X585562D01*
X582562Y547706D02*
Y553706D01*
X617670Y571626D02*
X623670D01*
X620670Y568626D02*
Y574626D01*
X579572Y559676D02*
X585572D01*
X582572Y556676D02*
Y562676D01*
X579472Y541816D02*
X585472D01*
X582472Y538816D02*
Y544816D01*
X582572Y501706D02*
Y507706D01*
X579572Y504706D02*
X585572D01*
X620730Y540986D02*
Y546986D01*
X617730Y543986D02*
X623730D01*
X618180Y534616D02*
X624180D01*
X621180Y531616D02*
Y537616D01*
X605940Y620356D02*
X611940D01*
X608940Y617356D02*
Y623356D01*
X535950Y525311D02*
X541950D01*
X538950Y522311D02*
Y528311D01*
X407460Y551376D02*
Y557376D01*
X404460Y554376D02*
X410460D01*
X354670Y593000D02*
Y599000D01*
X351670Y596000D02*
X357670D01*
X305701Y575410D02*
Y581410D01*
X302701Y578410D02*
X308701D01*
X284859D02*
X290859D01*
X287859Y575410D02*
Y581410D01*
X335170Y591460D02*
X339170D01*
X337170Y589460D02*
Y593460D01*
X328420Y600210D02*
X345920D01*
X345920Y582710D01*
X328420D02*
X345920D01*
X328420D02*
X328420Y600210D01*
X672387Y445972D02*
X678387D01*
X675387Y442972D02*
Y448972D01*
X174295Y653090D02*
Y659090D01*
X171295Y656090D02*
X177295D01*
X110200Y621793D02*
X116200D01*
X113200Y618793D02*
Y624793D01*
X320340Y548810D02*
X329840D01*
X325090Y544060D02*
Y553560D01*
X295753Y548810D02*
X305253D01*
X300503Y544060D02*
Y553560D01*
X252000Y316321D02*
X258000D01*
X255000Y313321D02*
Y319321D01*
Y334250D02*
Y340250D01*
X252000Y337251D02*
X258000D01*
X149114Y441590D02*
Y447590D01*
X146114Y444590D02*
X152114D01*
X172514D02*
X178514D01*
X175514Y441590D02*
Y447590D01*
X196450Y444590D02*
X202450D01*
X199450Y441590D02*
Y447590D01*
X395863Y97122D02*
Y127122D01*
X437863D01*
X395863Y97122D02*
X437863D01*
Y127122D01*
X414863Y112122D02*
X418863D01*
X416863Y110122D02*
Y114122D01*
X783412Y98298D02*
X792912D01*
X788162Y93548D02*
Y103048D01*
X553720Y215834D02*
Y225334D01*
X548970Y220584D02*
X558470D01*
X584467Y222977D02*
X590467D01*
X587467Y219977D02*
Y225977D01*
X576339Y222977D02*
X582339D01*
X579339Y219977D02*
Y225977D01*
X600850Y291738D02*
Y297738D01*
X597850Y294738D02*
X603850D01*
X717594Y662940D02*
X723594D01*
X720344Y659940D02*
Y666190D01*
X724344Y655440D02*
Y669940D01*
X716344Y655440D02*
Y669940D01*
X724344D01*
X716344Y655440D02*
X724344D01*
X710083Y625260D02*
Y631260D01*
X707083Y628260D02*
X713083D01*
X760833Y571810D02*
X766833D01*
X763833Y568810D02*
Y574810D01*
X732500Y572689D02*
X738500D01*
X735500Y569689D02*
Y575689D01*
X710946Y586788D02*
Y592788D01*
X707946Y589788D02*
X713946D01*
X740500Y572689D02*
X746500D01*
X743500Y569689D02*
Y575689D01*
X817928Y567944D02*
X823928D01*
X820928Y564944D02*
Y570944D01*
X882726Y534360D02*
X888726D01*
X885726Y531360D02*
Y537360D01*
X782197Y443191D02*
X788197D01*
X785197Y440191D02*
Y446191D01*
X607362Y325120D02*
X613362D01*
X610362Y322120D02*
Y328120D01*
X196200Y312570D02*
X200200D01*
X198200Y310570D02*
Y314570D01*
X189450Y321320D02*
X206950D01*
X206950Y303820D01*
X189450D02*
X206950D01*
X189450D02*
X189450Y321320D01*
X225392Y307522D02*
X231392D01*
X228392Y304522D02*
Y310522D01*
X212404Y308670D02*
Y314670D01*
X209404Y311670D02*
X215404D01*
X291338Y323136D02*
Y329136D01*
X288338Y326136D02*
X294338D01*
X440230Y322880D02*
Y328880D01*
X437230Y325880D02*
X443230D01*
X357962Y112124D02*
X367462D01*
X362712Y107374D02*
Y116874D01*
X453466Y99568D02*
X462966D01*
X458216Y94818D02*
Y104318D01*
X351600Y245506D02*
Y249506D01*
X349600Y247506D02*
X353600D01*
X330600Y232506D02*
Y262506D01*
X372600D01*
X330600Y232506D02*
X372600D01*
Y262506D01*
X658870Y604830D02*
Y610830D01*
X655870Y607830D02*
X661870D01*
X671650Y574090D02*
Y580090D01*
X668650Y577090D02*
X674650D01*
X658950Y574090D02*
Y580090D01*
X655950Y577090D02*
X661950D01*
X684350Y604830D02*
Y610830D01*
X681350Y607830D02*
X687350D01*
X646250Y574090D02*
Y580090D01*
X643250Y577090D02*
X649250D01*
X671650Y604830D02*
Y610830D01*
X668650Y607830D02*
X674650D01*
X228394Y395478D02*
X234394D01*
X231394Y392478D02*
Y398478D01*
X574658Y224244D02*
Y230245D01*
X571658Y227244D02*
X577658D01*
X591312Y224330D02*
Y230330D01*
X588312Y227330D02*
X594312D01*
X597710Y121920D02*
X603710D01*
X600710Y118920D02*
Y124920D01*
X597710Y138748D02*
X603710D01*
X600710Y135748D02*
Y141748D01*
X626666Y383032D02*
X632666D01*
X629666Y380032D02*
Y386032D01*
X628670Y308456D02*
Y314456D01*
X625670Y311456D02*
X631670D01*
X322261Y438538D02*
Y444538D01*
X319261Y441538D02*
X325261D01*
X453900Y529844D02*
X459901D01*
X456900Y526844D02*
Y532844D01*
X631745Y591500D02*
Y597500D01*
X628745Y594500D02*
X634745D01*
X740012Y161370D02*
X746012D01*
X743012Y158370D02*
Y164370D01*
X703563Y132512D02*
Y142012D01*
X698813Y137262D02*
X708313D01*
X629700Y307400D02*
X635700D01*
X632700Y304400D02*
Y310400D01*
X323400Y445700D02*
X329400D01*
X326400Y442700D02*
Y448700D01*
X570917Y264662D02*
Y270662D01*
X567917Y267662D02*
X573917D01*
X570917Y277556D02*
Y283556D01*
X567917Y280555D02*
X573917D01*
X369300Y324301D02*
Y330301D01*
X366300Y327301D02*
X372300D01*
X369300Y315051D02*
Y321051D01*
X366300Y318051D02*
X372300D01*
X373379Y345826D02*
X379379D01*
X376379Y342826D02*
Y348826D01*
X369300Y333550D02*
Y339550D01*
X366300Y336550D02*
X372300D01*
X613697Y121972D02*
X619697D01*
X616697Y118972D02*
Y124972D01*
X613052Y122972D02*
Y128972D01*
X610052Y125972D02*
X616052D01*
X613052Y131300D02*
Y137300D01*
X610052Y134300D02*
X616052D01*
X614188Y138300D02*
X620188D01*
X617188Y135300D02*
Y141300D01*
X384901Y194404D02*
X390901D01*
X387901Y191404D02*
Y197404D01*
X457300Y152700D02*
X463300D01*
X460300Y149700D02*
Y155700D01*
X464440Y153648D02*
Y159648D01*
X461440Y156648D02*
X467440D01*
X464440Y161962D02*
Y167962D01*
X461440Y164962D02*
X467440D01*
X457481Y168962D02*
X463481D01*
X460481Y165962D02*
Y171962D01*
X252000Y327282D02*
X258000D01*
X255000Y324282D02*
Y330282D01*
X819200Y554900D02*
X825200D01*
X822200Y551900D02*
Y557900D01*
X799270Y546688D02*
Y552688D01*
X796270Y549688D02*
X802270D01*
X873046Y585419D02*
X879046D01*
X876046Y582419D02*
Y588419D01*
D224*
X398542Y637810D02*
Y681810D01*
X438542D01*
Y637810D02*
Y681810D01*
X398542Y637810D02*
X438542D01*
D225*
X366920Y217965D02*
Y218215D01*
X360920Y217965D02*
Y218215D01*
Y206215D02*
Y206465D01*
X366920Y206215D02*
Y206465D01*
X352920Y206215D02*
Y218215D01*
X374920Y206215D02*
Y218215D01*
X360920Y217965D02*
X366920D01*
X352920Y206215D02*
X360920D01*
X352920Y218215D02*
X360920D01*
Y206465D02*
X366920D01*
Y206215D02*
X374920D01*
X366920Y218215D02*
X374920D01*
X356712Y375153D02*
X364712D01*
X356712Y387153D02*
X364712D01*
Y386903D02*
X370712D01*
Y375153D02*
X378712D01*
X370712Y387153D02*
X378712D01*
X364712Y375403D02*
X370712D01*
X356712Y375153D02*
Y387153D01*
X378712Y375153D02*
Y387153D01*
X364712Y386903D02*
Y387153D01*
X370712Y386903D02*
Y387153D01*
Y375153D02*
Y375403D01*
X364712Y375153D02*
Y375403D01*
X436446Y317778D02*
X444446D01*
X436446Y333778D02*
X444446D01*
X436446Y317778D02*
Y333778D01*
X444446Y317778D02*
Y333778D01*
X575200Y323700D02*
X585200D01*
X575200Y301700D02*
Y323700D01*
Y301700D02*
X585200D01*
Y323700D01*
X439070Y185240D02*
Y204740D01*
X427570Y185240D02*
Y204740D01*
X428320Y183990D02*
X438320D01*
X428320Y205990D02*
X438320D01*
Y204740D02*
Y205990D01*
X428320Y204740D02*
Y205990D01*
Y183990D02*
Y185240D01*
X438320Y183990D02*
Y185240D01*
X438320D02*
X439070D01*
X438320Y204740D02*
X439070D01*
X427570D02*
X428320D01*
X427570Y185240D02*
X428320D01*
X731210Y151760D02*
Y152010D01*
X724210Y151760D02*
Y152010D01*
Y140010D02*
Y140260D01*
X731210Y140010D02*
Y140260D01*
X716210Y152010D02*
X724210D01*
X716210Y140010D02*
X724210D01*
Y151760D02*
X731210D01*
X724210Y140260D02*
X731210D01*
Y152010D02*
X739210D01*
X731210Y140010D02*
X739210D01*
X716210D02*
Y152010D01*
X739210Y140010D02*
Y152010D01*
X307320Y216140D02*
Y231340D01*
X299320Y216140D02*
Y231340D01*
X307320D01*
X299320Y216140D02*
X307320D01*
X574176Y173544D02*
X582476D01*
X574176Y178844D02*
X582476D01*
X583576Y173694D02*
Y178694D01*
X573076Y173694D02*
Y178694D01*
X574176D02*
Y178844D01*
X573076Y178694D02*
X574176D01*
X582476D02*
Y178844D01*
Y178694D02*
X583576D01*
X574176Y173544D02*
Y173694D01*
X573076D02*
X574176D01*
X582476Y173544D02*
Y173694D01*
X583576D01*
X446044Y549084D02*
X461244D01*
X446044Y541084D02*
X461244D01*
X446044D02*
Y549084D01*
X461244Y541084D02*
Y549084D01*
X466872Y541084D02*
X482072D01*
X466872Y549084D02*
X482072D01*
Y541084D02*
Y549084D01*
X466872Y541084D02*
Y549084D01*
X828720Y140007D02*
Y152007D01*
X805720Y140007D02*
Y152007D01*
X820720Y140007D02*
X828720D01*
X820720Y152007D02*
X828720D01*
X813720Y140257D02*
X820720D01*
X813720Y151757D02*
X820720D01*
X805720Y140007D02*
X813720D01*
X805720Y152007D02*
X813720D01*
X820720Y140007D02*
Y140257D01*
X813720Y140007D02*
Y140257D01*
Y151757D02*
Y152007D01*
X820720Y151757D02*
Y152007D01*
X781742Y131050D02*
Y143050D01*
X804742Y131050D02*
Y143050D01*
X781742D02*
X789742D01*
X781742Y131050D02*
X789742D01*
Y142800D02*
X796742D01*
X789742Y131300D02*
X796742D01*
Y143050D02*
X804742D01*
X796742Y131050D02*
X804742D01*
X789742Y142800D02*
Y143050D01*
X796742Y142800D02*
Y143050D01*
Y131050D02*
Y131300D01*
X789742Y131050D02*
Y131300D01*
X818706Y171724D02*
X826706D01*
X818706Y186924D02*
X826706D01*
X818706Y171724D02*
Y186924D01*
X826706Y171724D02*
Y186924D01*
X729050Y186920D02*
X737050D01*
X729050Y171720D02*
X737050D01*
Y186920D01*
X729050Y171720D02*
Y186920D01*
X654200Y135100D02*
X662200D01*
X654200Y119900D02*
X662200D01*
Y135100D01*
X654200Y119900D02*
Y135100D01*
X621812Y644716D02*
X637012D01*
X621812Y652716D02*
X637012D01*
Y644716D02*
Y652716D01*
X621812Y644716D02*
Y652716D01*
Y636334D02*
X637012D01*
X621812Y644334D02*
X637012D01*
Y636334D02*
Y644334D01*
X621812Y636334D02*
Y644334D01*
X560102Y121310D02*
X568102D01*
X560102Y106110D02*
X568102D01*
Y121310D01*
X560102Y106110D02*
Y121310D01*
X503234Y150560D02*
X511234D01*
X503234Y165760D02*
X511234D01*
X503234Y150560D02*
Y165760D01*
X511234Y150560D02*
Y165760D01*
X501506Y134558D02*
Y149758D01*
X509506Y134558D02*
Y149758D01*
X501506Y134558D02*
X509506D01*
X501506Y149758D02*
X509506D01*
X596978Y153248D02*
Y161548D01*
X591678Y153248D02*
Y161548D01*
X591828Y162648D02*
X596828D01*
X591828Y152148D02*
X596828D01*
X591678Y153248D02*
X591828D01*
Y152148D02*
Y153248D01*
X591678Y161548D02*
X591828D01*
Y162648D01*
X596828Y153248D02*
X596978D01*
X596828Y152148D02*
Y153248D01*
Y161548D02*
X596978D01*
X596828D02*
Y162648D01*
X401380Y187390D02*
X409380D01*
X401380Y202590D02*
X409380D01*
X401380Y187390D02*
Y202590D01*
X409380Y187390D02*
Y202590D01*
X410270Y187390D02*
X418270D01*
X410270Y202590D02*
X418270D01*
X410270Y187390D02*
Y202590D01*
X418270Y187390D02*
Y202590D01*
X419160Y187390D02*
X427160D01*
X419160Y202590D02*
X427160D01*
X419160Y187390D02*
Y202590D01*
X427160Y187390D02*
Y202590D01*
X557280Y175260D02*
X565280D01*
X557280Y190460D02*
X565280D01*
X557280Y175260D02*
Y190460D01*
X565280Y175260D02*
Y190460D01*
X436940Y165800D02*
X444940D01*
X436940Y181000D02*
X444940D01*
X436940Y165800D02*
Y181000D01*
X444940Y165800D02*
Y181000D01*
X651510Y98950D02*
Y118450D01*
X663010Y98950D02*
Y118450D01*
X652260Y119700D02*
X662260D01*
X652260Y97700D02*
X662260D01*
X652260D02*
Y98950D01*
X662260Y97700D02*
Y98950D01*
Y118450D02*
Y119700D01*
X652260Y118450D02*
Y119700D01*
X651510Y118450D02*
X652260D01*
X651510Y98950D02*
X652260D01*
X662260D02*
X663010D01*
X662260Y118450D02*
X663010D01*
X482180Y530330D02*
X498180D01*
X482180Y538330D02*
X498180D01*
Y530330D02*
Y538330D01*
X482180Y530330D02*
Y538330D01*
X500210Y538330D02*
X516210D01*
X500210Y530330D02*
X516210D01*
X500210D02*
Y538330D01*
X516210Y530330D02*
Y538330D01*
X574462Y518496D02*
X590462D01*
X574462Y526496D02*
X590462D01*
Y518496D02*
Y526496D01*
X574462Y518496D02*
Y526496D01*
X819246Y127460D02*
Y135460D01*
X831246Y127460D02*
Y135460D01*
X830996Y121460D02*
Y127460D01*
X819246Y113460D02*
Y121460D01*
X831246Y113460D02*
Y121460D01*
X819496D02*
Y127460D01*
X819246Y135460D02*
X831246D01*
X819246Y113460D02*
X831246D01*
X830996Y127460D02*
X831246D01*
X830996Y121460D02*
X831246D01*
X819246D02*
X819496D01*
X819246Y127460D02*
X819496D01*
X729663D02*
X729913D01*
X729663Y121460D02*
X729913D01*
X741413D02*
X741663D01*
X741413Y127460D02*
X741663D01*
X729663Y113460D02*
X741663D01*
X729663Y135460D02*
X741663D01*
X729913Y121460D02*
Y127460D01*
X741663Y113460D02*
Y121460D01*
X729663Y113460D02*
Y121460D01*
X741413D02*
Y127460D01*
X741663D02*
Y135460D01*
X729663Y127460D02*
Y135460D01*
X585860Y179240D02*
Y187240D01*
X569860Y179240D02*
Y187240D01*
Y179240D02*
X585860D01*
X569860Y187240D02*
X585860D01*
X400304Y186404D02*
Y202404D01*
X392304Y186404D02*
Y202404D01*
X400304D01*
X392304Y186404D02*
X400304D01*
X375379D02*
X383379D01*
X375379Y202404D02*
X383379D01*
X375379Y186404D02*
Y202404D01*
X383379Y186404D02*
Y202404D01*
X778312Y362998D02*
X794312D01*
X778312Y354998D02*
X794312D01*
X778312D02*
Y362998D01*
X794312Y354998D02*
Y362998D01*
X778312Y371888D02*
X794312D01*
X778312Y363888D02*
X794312D01*
X778312D02*
Y371888D01*
X794312Y363888D02*
Y371888D01*
Y372778D02*
Y380778D01*
X778312Y372778D02*
Y380778D01*
Y372778D02*
X794312D01*
X778312Y380778D02*
X794312D01*
Y393098D02*
Y401098D01*
X778312Y393098D02*
Y401098D01*
Y393098D02*
X794312D01*
X778312Y401098D02*
X794312D01*
Y401988D02*
Y409988D01*
X778312Y401988D02*
Y409988D01*
Y401988D02*
X794312D01*
X778312Y409988D02*
X794312D01*
Y410878D02*
Y418878D01*
X778312Y410878D02*
Y418878D01*
Y410878D02*
X794312D01*
X778312Y418878D02*
X794312D01*
X875978Y644698D02*
Y660698D01*
X867978Y644698D02*
Y660698D01*
X875978D01*
X867978Y644698D02*
X875978D01*
X879980Y665716D02*
X895980D01*
X879980Y673716D02*
X895980D01*
Y665716D02*
Y673716D01*
X879980Y665716D02*
Y673716D01*
X888835Y633291D02*
X904835D01*
X888835Y625291D02*
X904835D01*
X888835D02*
Y633291D01*
X904835Y625291D02*
Y633291D01*
X883254Y23350D02*
X899254D01*
X883254Y31350D02*
X899254D01*
Y23350D02*
Y31350D01*
X883254Y23350D02*
Y31350D01*
X332582Y187404D02*
Y195404D01*
X344582Y187404D02*
Y195404D01*
X344332Y181404D02*
Y187404D01*
X332582Y173404D02*
Y181404D01*
X344582Y173404D02*
Y181404D01*
X332832D02*
Y187404D01*
X332582Y195404D02*
X344582D01*
X332582Y173404D02*
X344582D01*
X344332Y187404D02*
X344582D01*
X344332Y181404D02*
X344582D01*
X332582D02*
X332832D01*
X332582Y187404D02*
X332832D01*
X377090Y591136D02*
Y599136D01*
X392290Y591136D02*
Y599136D01*
X377090D02*
X392290D01*
X377090Y591136D02*
X392290D01*
X119650Y646228D02*
X134850D01*
X119650Y638228D02*
X134850D01*
X119650D02*
Y646228D01*
X134850Y638228D02*
Y646228D01*
X101870D02*
X117070D01*
X101870Y638228D02*
X117070D01*
X101870D02*
Y646228D01*
X117070Y638228D02*
Y646228D01*
X902508Y12444D02*
Y22444D01*
X880508D02*
X902508D01*
X880508Y12444D02*
Y22444D01*
Y12444D02*
X902508D01*
X403304Y346872D02*
Y347122D01*
X397304Y346872D02*
Y347122D01*
Y335122D02*
Y335372D01*
X403304Y335122D02*
Y335372D01*
X389304Y335122D02*
Y347122D01*
X411304Y335122D02*
Y347122D01*
X397304Y346872D02*
X403304D01*
X389304Y335122D02*
X397304D01*
X389304Y347122D02*
X397304D01*
Y335372D02*
X403304D01*
Y335122D02*
X411304D01*
X403304Y347122D02*
X411304D01*
X700298Y535876D02*
X715498D01*
X700298Y527876D02*
X715498D01*
X700298D02*
Y535876D01*
X715498Y527876D02*
Y535876D01*
X705310Y232570D02*
Y240570D01*
X720510Y232570D02*
Y240570D01*
X705310D02*
X720510D01*
X705310Y232570D02*
X720510D01*
X283738Y462852D02*
X298938D01*
X283738Y470852D02*
X298938D01*
Y462852D02*
Y470852D01*
X283738Y462852D02*
Y470852D01*
X291960Y302070D02*
Y310070D01*
X276760Y302070D02*
Y310070D01*
Y302070D02*
X291960D01*
X276760Y310070D02*
X291960D01*
X357060Y619430D02*
X365060D01*
X357060Y607430D02*
X365060D01*
X351060Y607680D02*
X357060D01*
X343060Y619430D02*
X351060D01*
X343060Y607430D02*
X351060D01*
Y619180D02*
X357060D01*
X365060Y607430D02*
Y619430D01*
X343060Y607430D02*
Y619430D01*
X357060Y607430D02*
Y607680D01*
X351060Y607430D02*
Y607680D01*
Y619180D02*
Y619430D01*
X357060Y619180D02*
Y619430D01*
X318460Y607430D02*
X326460D01*
X318460Y619430D02*
X326460D01*
Y619180D02*
X332460D01*
Y607430D02*
X340460D01*
X332460Y619430D02*
X340460D01*
X326460Y607680D02*
X332460D01*
X318460Y607430D02*
Y619430D01*
X340460Y607430D02*
Y619430D01*
X326460Y619180D02*
Y619430D01*
X332460Y619180D02*
Y619430D01*
Y607430D02*
Y607680D01*
X326460Y607430D02*
Y607680D01*
X674222Y80675D02*
Y88675D01*
X659022Y80675D02*
Y88675D01*
Y80675D02*
X674222D01*
X659022Y88675D02*
X674222D01*
X380800Y253600D02*
Y268800D01*
X372800Y253600D02*
Y268800D01*
X380800D01*
X372800Y253600D02*
X380800D01*
X530340Y244330D02*
X545540D01*
X530340Y252330D02*
X545540D01*
Y244330D02*
Y252330D01*
X530340Y244330D02*
Y252330D01*
Y274810D02*
X545540D01*
X530340Y282810D02*
X545540D01*
Y274810D02*
Y282810D01*
X530340Y274810D02*
Y282810D01*
Y301480D02*
X545540D01*
X530340Y309480D02*
X545540D01*
Y301480D02*
Y309480D01*
X530340Y301480D02*
Y309480D01*
X511322Y325438D02*
Y333438D01*
X526522Y325438D02*
Y333438D01*
X511322D02*
X526522D01*
X511322Y325438D02*
X526522D01*
X469550Y318200D02*
Y333400D01*
X461550Y318200D02*
Y333400D01*
X469550D01*
X461550Y318200D02*
X469550D01*
X433820Y281490D02*
X449020D01*
X433820Y273490D02*
X449020D01*
X433820D02*
Y281490D01*
X449020Y273490D02*
Y281490D01*
X449340Y243310D02*
Y258510D01*
X441340Y243310D02*
Y258510D01*
X449340D01*
X441340Y243310D02*
X449340D01*
X445090Y217740D02*
Y232940D01*
X453090Y217740D02*
Y232940D01*
X445090Y217740D02*
X453090D01*
X445090Y232940D02*
X453090D01*
X535520Y231630D02*
X547520D01*
X535520Y208630D02*
X547520D01*
Y223630D02*
Y231630D01*
X535520Y223630D02*
Y231630D01*
X547270Y216630D02*
Y223630D01*
X535770Y216630D02*
Y223630D01*
X547520Y208630D02*
Y216630D01*
X535520Y208630D02*
Y216630D01*
X547270Y223630D02*
X547520D01*
X547270Y216630D02*
X547520D01*
X535520D02*
X535770D01*
X535520Y223630D02*
X535770D01*
X523420Y231600D02*
X535420D01*
X523420Y208600D02*
X535420D01*
Y223600D02*
Y231600D01*
X523420Y223600D02*
Y231600D01*
X535170Y216600D02*
Y223600D01*
X523670Y216600D02*
Y223600D01*
X535420Y208600D02*
Y216600D01*
X523420Y208600D02*
Y216600D01*
X535170Y223600D02*
X535420D01*
X535170Y216600D02*
X535420D01*
X523420D02*
X523670D01*
X523420Y223600D02*
X523670D01*
X466840Y237090D02*
X482040D01*
X466840Y229090D02*
X482040D01*
X466840D02*
Y237090D01*
X482040Y229090D02*
Y237090D01*
X706083Y611800D02*
Y627800D01*
X714083Y611800D02*
Y627800D01*
X706083Y611800D02*
X714083D01*
X706083Y627800D02*
X714083D01*
X697600Y644400D02*
X713600D01*
X697600Y652400D02*
X713600D01*
Y644400D02*
Y652400D01*
X697600Y644400D02*
Y652400D01*
X385270Y268517D02*
X393270D01*
X385270Y280517D02*
X393270D01*
Y280267D02*
X399270D01*
Y268517D02*
X407270D01*
X399270Y280517D02*
X407270D01*
X393270Y268767D02*
X399270D01*
X385270Y268517D02*
Y280517D01*
X407270Y268517D02*
Y280517D01*
X393270Y280267D02*
Y280517D01*
X399270Y280267D02*
Y280517D01*
Y268517D02*
Y268767D01*
X393270Y268517D02*
Y268767D01*
X407270Y268517D02*
Y268767D01*
X413270Y268517D02*
Y268767D01*
Y280267D02*
Y280517D01*
X407270Y280267D02*
Y280517D01*
X421270Y268517D02*
Y280517D01*
X399270Y268517D02*
Y280517D01*
X407270Y268767D02*
X413270D01*
Y280517D02*
X421270D01*
X413270Y268517D02*
X421270D01*
X407270Y280267D02*
X413270D01*
X399270Y280517D02*
X407270D01*
X399270Y268517D02*
X407270D01*
X586800Y318100D02*
X594800D01*
X586800Y302100D02*
X594800D01*
Y318100D01*
X586800Y302100D02*
Y318100D01*
X432150Y265390D02*
X448150D01*
X432150Y273390D02*
X448150D01*
Y265390D02*
Y273390D01*
X432150Y265390D02*
Y273390D01*
X229560Y371088D02*
X244760D01*
X229560Y363088D02*
X244760D01*
X229560D02*
Y371088D01*
X244760Y363088D02*
Y371088D01*
X724510Y361026D02*
Y376226D01*
X716510Y361026D02*
Y376226D01*
X724510D01*
X716510Y361026D02*
X724510D01*
X715223Y434723D02*
X723223D01*
X715223Y449922D02*
X723223D01*
X715223Y434723D02*
Y449922D01*
X723223Y434723D02*
Y449922D01*
X322011Y363110D02*
X337211D01*
X322011Y371110D02*
X337211D01*
Y363110D02*
Y371110D01*
X322011Y363110D02*
Y371110D01*
X628862Y352851D02*
Y368051D01*
X636861Y352851D02*
Y368051D01*
X628862Y352851D02*
X636861D01*
X628862Y368051D02*
X636861D01*
X620883Y441183D02*
X628883D01*
X620883Y425983D02*
X628883D01*
Y441183D01*
X620883Y425983D02*
Y441183D01*
X563300Y297700D02*
X579300D01*
X563300Y289700D02*
X579300D01*
X563300D02*
Y297700D01*
X579300Y289700D02*
Y297700D01*
X574572Y500706D02*
X590572D01*
X574572Y508706D02*
X590572D01*
Y500706D02*
Y508706D01*
X574572Y500706D02*
Y508706D01*
X612730Y539986D02*
X628730D01*
X612730Y547986D02*
X628730D01*
Y539986D02*
Y547986D01*
X612730Y539986D02*
Y547986D01*
X327890Y591720D02*
Y599720D01*
X312690Y591720D02*
Y599720D01*
Y591720D02*
X327890D01*
X312690Y599720D02*
X327890D01*
X328150Y582630D02*
Y590630D01*
X312950Y582630D02*
Y590630D01*
Y582630D02*
X328150D01*
X312950Y590630D02*
X328150D01*
X322090Y542810D02*
Y543060D01*
X328090Y542810D02*
Y543060D01*
Y554560D02*
Y554810D01*
X322090Y554560D02*
Y554810D01*
X336090Y542810D02*
Y554810D01*
X314090Y542810D02*
Y554810D01*
X322090Y543060D02*
X328090D01*
Y554810D02*
X336090D01*
X328090Y542810D02*
X336090D01*
X322090Y554560D02*
X328090D01*
X314090Y554810D02*
X322090D01*
X314090Y542810D02*
X322090D01*
X303503Y554560D02*
Y554810D01*
X297503Y554560D02*
Y554810D01*
Y542810D02*
Y543060D01*
X303503Y542810D02*
Y543060D01*
X289503Y542810D02*
Y554810D01*
X311503Y542810D02*
Y554810D01*
X297503Y554560D02*
X303503D01*
X289503Y542810D02*
X297503D01*
X289503Y554810D02*
X297503D01*
Y543060D02*
X303503D01*
Y542810D02*
X311503D01*
X303503Y554810D02*
X311503D01*
X438214Y110002D02*
Y125202D01*
X446214Y110002D02*
Y125202D01*
X438214Y110002D02*
X446214D01*
X438214Y125202D02*
X446214D01*
X386901Y110212D02*
Y125412D01*
X394901Y110212D02*
Y125412D01*
X386901Y110212D02*
X394901D01*
X386901Y125412D02*
X394901D01*
X794162Y87298D02*
Y95298D01*
X782162Y87298D02*
Y95298D01*
X782412D02*
Y101298D01*
X794162D02*
Y109298D01*
X782162Y101298D02*
Y109298D01*
X793912Y95298D02*
Y101298D01*
X782162Y87298D02*
X794162D01*
X782162Y109298D02*
X794162D01*
X782162Y95298D02*
X782412D01*
X782162Y101298D02*
X782412D01*
X793912D02*
X794162D01*
X793912Y95298D02*
X794162D01*
X547720Y223584D02*
X547970D01*
X547720Y217584D02*
X547970D01*
X559470D02*
X559720D01*
X559470Y223584D02*
X559720D01*
X547720Y209584D02*
X559720D01*
X547720Y231584D02*
X559720D01*
X547970Y217584D02*
Y223584D01*
X559720Y209584D02*
Y217584D01*
X547720Y209584D02*
Y217584D01*
X559470D02*
Y223584D01*
X559720D02*
Y231584D01*
X547720Y223584D02*
Y231584D01*
X592850Y298738D02*
X608850D01*
X592850Y290738D02*
X608850D01*
X592850D02*
Y298738D01*
X608850Y290738D02*
Y298738D01*
X186854Y313585D02*
Y321585D01*
X171654Y313585D02*
Y321585D01*
Y313585D02*
X186854D01*
X171654Y321585D02*
X186854D01*
X150812Y317012D02*
Y332212D01*
X142812Y317012D02*
Y332212D01*
X150812D01*
X142812Y317012D02*
X150812D01*
X172994Y300292D02*
X188194D01*
X172994Y308292D02*
X188194D01*
Y300292D02*
Y308292D01*
X172994Y300292D02*
Y308292D01*
X134038Y303670D02*
X149238D01*
X134038Y311670D02*
X149238D01*
Y303670D02*
Y311670D01*
X134038Y303670D02*
Y311670D01*
X436230Y317880D02*
X444230D01*
X436230Y333880D02*
X444230D01*
X436230Y317880D02*
Y333880D01*
X444230Y317880D02*
Y333880D01*
X356712Y115124D02*
Y123124D01*
X368712Y115124D02*
Y123124D01*
X368462Y109124D02*
Y115124D01*
X356712Y101124D02*
Y109124D01*
X368712Y101124D02*
Y109124D01*
X356962D02*
Y115124D01*
X356712Y123124D02*
X368712D01*
X356712Y101124D02*
X368712D01*
X368462Y115124D02*
X368712D01*
X368462Y109124D02*
X368712D01*
X356712D02*
X356962D01*
X356712Y115124D02*
X356962D01*
X464216Y88568D02*
Y96568D01*
X452216Y88568D02*
Y96568D01*
X452466D02*
Y102568D01*
X464216D02*
Y110568D01*
X452216Y102568D02*
Y110568D01*
X463966Y96568D02*
Y102568D01*
X452216Y88568D02*
X464216D01*
X452216Y110568D02*
X464216D01*
X452216Y96568D02*
X452466D01*
X452216Y102568D02*
X452466D01*
X463966D02*
X464216D01*
X463966Y96568D02*
X464216D01*
X700063Y131262D02*
Y131512D01*
X707063Y131262D02*
Y131512D01*
Y143012D02*
Y143262D01*
X700063Y143012D02*
Y143262D01*
X707063Y131262D02*
X715063D01*
X707063Y143262D02*
X715063D01*
X700063Y131512D02*
X707063D01*
X700063Y143012D02*
X707063D01*
X692063Y131262D02*
X700063D01*
X692063Y143262D02*
X700063D01*
X715063Y131262D02*
Y143262D01*
X692063Y131262D02*
Y143262D01*
X562917Y263662D02*
X578917D01*
X562917Y271662D02*
X578917D01*
Y263662D02*
Y271662D01*
X562917Y263662D02*
Y271662D01*
Y284555D02*
X578917D01*
X562917Y276556D02*
X578917D01*
X562917D02*
Y284555D01*
X578917Y276556D02*
Y284555D01*
D226*
X300320Y223740D02*
X306320D01*
X303320Y220740D02*
Y226740D01*
X501110Y226280D02*
Y232280D01*
X498110Y229280D02*
X504110D01*
X492360Y225280D02*
X509860D01*
X492360Y233280D02*
X509860D01*
Y225280D02*
Y233280D01*
X492360Y225280D02*
Y233280D01*
X578326Y175394D02*
Y176994D01*
X577526Y176194D02*
X579126D01*
X453644Y542084D02*
Y548084D01*
X450644Y545084D02*
X456644D01*
X474472Y542084D02*
Y548084D01*
X471472Y545084D02*
X477472D01*
X519998Y520478D02*
X527998D01*
X519998Y502978D02*
X527998D01*
Y520478D01*
X519998Y502978D02*
Y520478D01*
X523998Y508728D02*
Y514728D01*
X520998Y511728D02*
X526998D01*
X470468Y520224D02*
X478468D01*
X470468Y502724D02*
X478468D01*
Y520224D01*
X470468Y502724D02*
Y520224D01*
X474468Y508474D02*
Y514474D01*
X471468Y511474D02*
X477468D01*
X822706Y176324D02*
Y182324D01*
X819706Y179324D02*
X825706D01*
X733050Y176320D02*
Y182320D01*
X730050Y179320D02*
X736050D01*
X658200Y124500D02*
Y130500D01*
X655200Y127500D02*
X661200D01*
X629412Y645716D02*
Y651716D01*
X626412Y648716D02*
X632412D01*
X629412Y637334D02*
Y643334D01*
X626412Y640334D02*
X632412D01*
X564102Y110710D02*
Y116710D01*
X561102Y113710D02*
X567102D01*
X507234Y155160D02*
Y161160D01*
X504234Y158160D02*
X510234D01*
X502506Y142158D02*
X508506D01*
X505506Y139158D02*
Y145158D01*
X593528Y157398D02*
X595128D01*
X594328Y156598D02*
Y158198D01*
X405380Y191990D02*
Y197990D01*
X402380Y194990D02*
X408380D01*
X414270Y191990D02*
Y197990D01*
X411270Y194990D02*
X417270D01*
X423160Y191990D02*
Y197990D01*
X420160Y194990D02*
X426160D01*
X561280Y179860D02*
Y185860D01*
X558280Y182860D02*
X564280D01*
X440940Y170400D02*
Y176400D01*
X437940Y173400D02*
X443940D01*
X785129Y178374D02*
X801129D01*
X785129Y186374D02*
X801129D01*
Y178374D02*
Y186374D01*
X785129Y178374D02*
Y186374D01*
X774256Y170562D02*
Y186562D01*
X782256Y170562D02*
Y186562D01*
X774256Y170562D02*
X782256D01*
X774256Y186562D02*
X782256D01*
X729046Y153370D02*
Y169370D01*
X737046Y153370D02*
Y169370D01*
X729046Y153370D02*
X737046D01*
X729046Y169370D02*
X737046D01*
X381690Y595136D02*
X387690D01*
X384690Y592136D02*
Y598136D01*
X127250Y639228D02*
Y645228D01*
X124250Y642228D02*
X130250D01*
X109470Y639228D02*
Y645228D01*
X106470Y642228D02*
X112470D01*
X568400Y426300D02*
X576400D01*
X568400Y410300D02*
X576400D01*
Y426300D01*
X568400Y410300D02*
Y426300D01*
X707898Y528876D02*
Y534876D01*
X704898Y531876D02*
X710898D01*
X709910Y236570D02*
X715910D01*
X712910Y233570D02*
Y239570D01*
X291338Y463852D02*
Y469852D01*
X288338Y466852D02*
X294338D01*
X281360Y306070D02*
X287360D01*
X284360Y303070D02*
Y309070D01*
X663622Y84675D02*
X669622D01*
X666622Y81675D02*
Y87675D01*
X373800Y261200D02*
X379800D01*
X376800Y258200D02*
Y264200D01*
X475250Y220390D02*
X481250D01*
X478250Y217390D02*
Y223390D01*
X474250Y211640D02*
Y229140D01*
X482250Y211640D02*
Y229140D01*
X474250Y211640D02*
X482250D01*
X474250Y229140D02*
X482250D01*
X537940Y245330D02*
Y251330D01*
X534940Y248330D02*
X540940D01*
X537940Y275810D02*
Y281810D01*
X534940Y278810D02*
X540940D01*
X537940Y302480D02*
Y308480D01*
X534940Y305480D02*
X540940D01*
X515922Y329438D02*
X521922D01*
X518922Y326438D02*
Y332438D01*
X458740Y226740D02*
X464740D01*
X461740Y223740D02*
Y229740D01*
X457740Y217990D02*
Y235490D01*
X465740Y217990D02*
Y235490D01*
X457740Y217990D02*
X465740D01*
X457740Y235490D02*
X465740D01*
X441680Y253240D02*
Y261240D01*
X424180Y253240D02*
Y261240D01*
Y253240D02*
X441680D01*
X424180Y261240D02*
X441680D01*
X429930Y257240D02*
X435930D01*
X432930Y254240D02*
Y260240D01*
X462550Y325800D02*
X468550D01*
X465550Y322800D02*
Y328800D01*
X441420Y274490D02*
Y280490D01*
X438420Y277490D02*
X444420D01*
X442340Y250910D02*
X448340D01*
X445340Y247910D02*
Y253910D01*
X446090Y225340D02*
X452090D01*
X449090Y222340D02*
Y228340D01*
X512080Y220390D02*
X518080D01*
X515080Y217390D02*
Y223390D01*
X511080Y211640D02*
Y229140D01*
X519080Y211640D02*
Y229140D01*
X511080Y211640D02*
X519080D01*
X511080Y229140D02*
X519080D01*
X497300Y216120D02*
Y222120D01*
X494300Y219120D02*
X500300D01*
X488550Y215120D02*
X506050D01*
X488550Y223120D02*
X506050D01*
Y215120D02*
Y223120D01*
X488550Y215120D02*
Y223120D01*
X474440Y230090D02*
Y236090D01*
X471440Y233090D02*
X477440D01*
X527081Y350000D02*
X535081D01*
X527081Y334000D02*
X535081D01*
Y350000D01*
X527081Y334000D02*
Y350000D01*
X486429Y334051D02*
X502429D01*
X486429Y326051D02*
X502429D01*
X486429D02*
Y334051D01*
X502429Y326051D02*
Y334051D01*
X436234Y317882D02*
X444234D01*
X436234Y333882D02*
X444234D01*
X436234Y317882D02*
Y333882D01*
X444234Y317882D02*
Y333882D01*
X452564Y317882D02*
Y333882D01*
X444564Y317882D02*
Y333882D01*
X452564D01*
X444564Y317882D02*
X452564D01*
X438620Y298670D02*
X446620D01*
X438620Y314670D02*
X446620D01*
X438620Y298670D02*
Y314670D01*
X446620Y298670D02*
Y314670D01*
X667611Y441972D02*
X683611D01*
X667611Y433972D02*
X683611D01*
X667611D02*
Y441972D01*
X683611Y433972D02*
Y441972D01*
X667611Y434026D02*
X683611D01*
X667611Y426026D02*
X683611D01*
X667611D02*
Y434026D01*
X683611Y426026D02*
Y434026D01*
X667835Y426675D02*
X683835D01*
X667835Y418675D02*
X683835D01*
X667835D02*
Y426675D01*
X683835Y418675D02*
Y426675D01*
X667835Y414931D02*
X683835D01*
X667835Y406931D02*
X683835D01*
X667835D02*
Y414931D01*
X683835Y406931D02*
Y414931D01*
X667835Y403186D02*
X683835D01*
X667835Y395186D02*
X683835D01*
X667835D02*
Y403186D01*
X683835Y395186D02*
Y403186D01*
X667835Y391442D02*
X683835D01*
X667835Y383442D02*
X683835D01*
X667835D02*
Y391442D01*
X683835Y383442D02*
Y391442D01*
X630872Y397892D02*
Y413892D01*
X622872Y397892D02*
Y413892D01*
X630872D01*
X622872Y397892D02*
X630872D01*
X668181Y375376D02*
X684181D01*
X668181Y367376D02*
X684181D01*
X668181D02*
Y375376D01*
X684181Y367376D02*
Y375376D01*
X668181Y365334D02*
X684181D01*
X668181Y357333D02*
X684181D01*
X668181D02*
Y365334D01*
X684181Y357333D02*
Y365334D01*
Y347291D02*
Y355291D01*
X668181Y347291D02*
Y355291D01*
Y347291D02*
X684181D01*
X668181Y355291D02*
X684181D01*
X668181Y345248D02*
X684181D01*
X668181Y337248D02*
X684181D01*
X668181D02*
Y345248D01*
X684181Y337248D02*
Y345248D01*
X668181Y335205D02*
X684181D01*
X668181Y327205D02*
X684181D01*
X668181D02*
Y335205D01*
X684181Y327205D02*
Y335205D01*
X668181Y325162D02*
X684181D01*
X668181Y317162D02*
X684181D01*
X668181D02*
Y325162D01*
X684181Y317162D02*
Y325162D01*
X668181Y315119D02*
X684181D01*
X668181Y307119D02*
X684181D01*
X668181D02*
Y315119D01*
X684181Y307119D02*
Y315119D01*
X658965Y289760D02*
X666965D01*
X658965Y305760D02*
X666965D01*
X658965Y289760D02*
Y305760D01*
X666965Y289760D02*
Y305760D01*
X276360Y348956D02*
X292360D01*
X276360Y356956D02*
X292360D01*
Y348956D02*
Y356956D01*
X276360Y348956D02*
Y356956D01*
Y360011D02*
X292360D01*
X276360Y368011D02*
X292360D01*
Y360011D02*
Y368011D01*
X276360Y360011D02*
Y368011D01*
Y371066D02*
X292360D01*
X276360Y379066D02*
X292360D01*
Y371066D02*
Y379066D01*
X276360Y371066D02*
Y379066D01*
Y382121D02*
X292360D01*
X276360Y390121D02*
X292360D01*
Y382121D02*
Y390121D01*
X276360Y382121D02*
Y390121D01*
Y393176D02*
X292360D01*
X276360Y401176D02*
X292360D01*
Y393176D02*
Y401176D01*
X276360Y393176D02*
Y401176D01*
Y404231D02*
Y412231D01*
X292360Y404231D02*
Y412231D01*
X276360D02*
X292360D01*
X276360Y404231D02*
X292360D01*
X276360Y415286D02*
X292360D01*
X276360Y423286D02*
X292360D01*
Y415286D02*
Y423286D01*
X276360Y415286D02*
Y423286D01*
Y426341D02*
X292360D01*
X276360Y434341D02*
X292360D01*
Y426341D02*
Y434341D01*
X276360Y426341D02*
Y434341D01*
X237160Y364088D02*
Y370088D01*
X234160Y367088D02*
X240160D01*
X717510Y368626D02*
X723510D01*
X720510Y365626D02*
Y371626D01*
X719223Y439323D02*
Y445322D01*
X716223Y442323D02*
X722223D01*
X329611Y364110D02*
Y370110D01*
X326611Y367110D02*
X332611D01*
X629861Y360451D02*
X635861D01*
X632861Y357451D02*
Y363451D01*
X624883Y430583D02*
Y436582D01*
X621883Y433582D02*
X627883D01*
X527110Y435561D02*
X535110D01*
X527110Y451561D02*
X535110D01*
X527110Y435561D02*
Y451561D01*
X535110Y435561D02*
Y451561D01*
X539810Y435561D02*
X547810D01*
X539810Y451561D02*
X547810D01*
X539810Y435561D02*
Y451561D01*
X547810Y435561D02*
Y451561D01*
X559170Y330650D02*
X575170D01*
X559170Y338650D02*
X575170D01*
Y330650D02*
Y338650D01*
X559170Y330650D02*
Y338650D01*
X557116Y322189D02*
X573116D01*
X557116Y330189D02*
X573116D01*
Y322189D02*
Y330189D01*
X557116Y322189D02*
Y330189D01*
X659690Y463136D02*
X667690D01*
X659690Y479136D02*
X667690D01*
X659690Y463136D02*
Y479136D01*
X667690Y463136D02*
Y479136D01*
X649898Y463136D02*
X657898D01*
X649898Y479136D02*
X657898D01*
X649898Y463136D02*
Y479136D01*
X657898Y463136D02*
Y479136D01*
X618523Y463136D02*
X626523D01*
X618523Y479136D02*
X626523D01*
X618523Y463136D02*
Y479136D01*
X626523Y463136D02*
Y479136D01*
X599735Y491710D02*
Y499710D01*
X583735Y491710D02*
Y499710D01*
Y491710D02*
X599735D01*
X583735Y499710D02*
X599735D01*
X608732Y463136D02*
X616732D01*
X608732Y479136D02*
X616732D01*
X608732Y463136D02*
Y479136D01*
X616732Y463136D02*
Y479136D01*
X606940Y463136D02*
Y479136D01*
X598940Y463136D02*
Y479136D01*
X606940D01*
X598940Y463136D02*
X606940D01*
X638315D02*
Y479136D01*
X630315Y463136D02*
Y479136D01*
X638315D01*
X630315Y463136D02*
X638315D01*
X648107D02*
Y479136D01*
X640107Y463136D02*
Y479136D01*
X648107D01*
X640107Y463136D02*
X648107D01*
X101470Y626866D02*
X117470D01*
X101470Y634866D02*
X117470D01*
Y626866D02*
Y634866D01*
X101470Y626866D02*
Y634866D01*
X388064Y444051D02*
X396064D01*
X388064Y460051D02*
X396064D01*
X388064Y444051D02*
Y460051D01*
X396064Y444051D02*
Y460051D01*
X377122Y444051D02*
X385122D01*
X377122Y460051D02*
X385122D01*
X377122Y444051D02*
Y460051D01*
X385122Y444051D02*
Y460051D01*
X155867Y648090D02*
Y664090D01*
X163867Y648090D02*
Y664090D01*
X155867Y648090D02*
X163867D01*
X155867Y664090D02*
X163867D01*
X366180Y444051D02*
X374180D01*
X366180Y460051D02*
X374180D01*
X366180Y444051D02*
Y460051D01*
X374180Y444051D02*
Y460051D01*
X355238Y444051D02*
X363238D01*
X355238Y460051D02*
X363238D01*
X355238Y444051D02*
Y460051D01*
X363238Y444051D02*
Y460051D01*
X344296Y444051D02*
X352296D01*
X344296Y460051D02*
X352296D01*
X344296Y444051D02*
Y460051D01*
X352296Y444051D02*
Y460051D01*
X333354Y444051D02*
X341354D01*
X333354Y460051D02*
X341354D01*
X333354Y444051D02*
Y460051D01*
X341354Y444051D02*
Y460051D01*
X276360Y445396D02*
X292360D01*
X276360Y437396D02*
X292360D01*
X276360D02*
Y445396D01*
X292360Y437396D02*
Y445396D01*
X628670Y558526D02*
Y566526D01*
X612670Y558526D02*
Y566526D01*
Y558526D02*
X628670D01*
X612670Y566526D02*
X628670D01*
X590562Y546706D02*
Y554706D01*
X574562Y546706D02*
Y554706D01*
Y546706D02*
X590562D01*
X574562Y554706D02*
X590562D01*
X628670Y567626D02*
Y575626D01*
X612670Y567626D02*
Y575626D01*
Y567626D02*
X628670D01*
X612670Y575626D02*
X628670D01*
X590572Y555676D02*
Y563676D01*
X574572Y555676D02*
Y563676D01*
Y555676D02*
X590572D01*
X574572Y563676D02*
X590572D01*
X590472Y537816D02*
Y545816D01*
X574472Y537816D02*
Y545816D01*
Y537816D02*
X590472D01*
X574472Y545816D02*
X590472D01*
X613180Y530616D02*
Y538616D01*
X629180Y530616D02*
Y538616D01*
X613180D02*
X629180D01*
X613180Y530616D02*
X629180D01*
X600940Y616356D02*
Y624356D01*
X616940Y616356D02*
Y624356D01*
X600940D02*
X616940D01*
X600940Y616356D02*
X616940D01*
X546950Y521311D02*
Y529311D01*
X530950Y521311D02*
Y529311D01*
Y521311D02*
X546950D01*
X530950Y529311D02*
X546950D01*
X399460Y550376D02*
X415460D01*
X399460Y558376D02*
X415460D01*
Y550376D02*
Y558376D01*
X399460Y550376D02*
Y558376D01*
X346670Y592000D02*
X362670D01*
X346670Y600000D02*
X362670D01*
Y592000D02*
Y600000D01*
X346670Y592000D02*
Y600000D01*
X297701Y574410D02*
X313701D01*
X297701Y582410D02*
X313701D01*
Y574410D02*
Y582410D01*
X297701Y574410D02*
Y582410D01*
X279859Y574410D02*
Y582410D01*
X295859Y574410D02*
Y582410D01*
X279859D02*
X295859D01*
X279859Y574410D02*
X295859D01*
X317290Y595720D02*
X323290D01*
X320290Y592720D02*
Y598720D01*
X317550Y586630D02*
X323550D01*
X320550Y583630D02*
Y589630D01*
X683387Y441972D02*
Y449972D01*
X667387Y441972D02*
Y449972D01*
Y441972D02*
X683387D01*
X667387Y449972D02*
X683387D01*
X170295Y664090D02*
X178295D01*
X170295Y648090D02*
X178295D01*
Y664090D01*
X170295Y648090D02*
Y664090D01*
X105200Y617793D02*
Y625793D01*
X121200Y617793D02*
Y625793D01*
X105200D02*
X121200D01*
X105200Y617793D02*
X121200D01*
X263000Y312321D02*
Y320321D01*
X247000Y312321D02*
Y320321D01*
Y312321D02*
X263000D01*
X247000Y320321D02*
X263000D01*
X247000Y333250D02*
X263000D01*
X247000Y341250D02*
X263000D01*
Y333250D02*
Y341250D01*
X247000Y333250D02*
Y341250D01*
X141114Y440590D02*
X157114D01*
X141114Y448590D02*
X157114D01*
Y440590D02*
Y448590D01*
X141114Y440590D02*
Y448590D01*
X183514Y440590D02*
Y448590D01*
X167514Y440590D02*
Y448590D01*
Y440590D02*
X183514D01*
X167514Y448590D02*
X183514D01*
X191450Y440590D02*
Y448590D01*
X207450Y440590D02*
Y448590D01*
X191450D02*
X207450D01*
X191450Y440590D02*
X207450D01*
X439214Y117602D02*
X445214D01*
X442214Y114602D02*
Y120602D01*
X387901Y117812D02*
X393901D01*
X390901Y114812D02*
Y120812D01*
X583467Y214977D02*
Y230977D01*
X591467Y214977D02*
Y230977D01*
X583467Y214977D02*
X591467D01*
X583467Y230977D02*
X591467D01*
X575339Y214977D02*
Y230977D01*
X583339Y214977D02*
Y230977D01*
X575339Y214977D02*
X583339D01*
X575339Y230977D02*
X583339D01*
X706083Y636260D02*
X714083D01*
X706083Y620260D02*
X714083D01*
Y636260D01*
X706083Y620260D02*
Y636260D01*
X755833Y567810D02*
Y575810D01*
X771833Y567810D02*
Y575810D01*
X755833D02*
X771833D01*
X755833Y567810D02*
X771833D01*
X743500Y568689D02*
Y576689D01*
X727500Y568689D02*
Y576689D01*
Y568689D02*
X743500D01*
X727500Y576689D02*
X743500D01*
X706946Y597788D02*
X714946D01*
X706946Y581788D02*
X714946D01*
Y597788D01*
X706946Y581788D02*
Y597788D01*
X735500Y568689D02*
Y576689D01*
X751500Y568689D02*
Y576689D01*
X735500D02*
X751500D01*
X735500Y568689D02*
X751500D01*
X828928Y563944D02*
Y571944D01*
X812928Y563944D02*
Y571944D01*
Y563944D02*
X828928D01*
X812928Y571944D02*
X828928D01*
X877726Y530360D02*
Y538360D01*
X893726Y530360D02*
Y538360D01*
X877726D02*
X893726D01*
X877726Y530360D02*
X893726D01*
X777197Y439192D02*
Y447192D01*
X793197Y439192D02*
Y447192D01*
X777197D02*
X793197D01*
X777197Y439192D02*
X793197D01*
X618362Y321120D02*
Y329120D01*
X602362Y321120D02*
Y329120D01*
Y321120D02*
X618362D01*
X602362Y329120D02*
X618362D01*
X176254Y317585D02*
X182254D01*
X179254Y314585D02*
Y320585D01*
X143812Y324612D02*
X149812D01*
X146812Y321612D02*
Y327612D01*
X180594Y301292D02*
Y307292D01*
X177594Y304292D02*
X183594D01*
X141638Y304670D02*
Y310670D01*
X138638Y307670D02*
X144638D01*
X236392Y303522D02*
Y311522D01*
X220392Y303522D02*
Y311522D01*
Y303522D02*
X236392D01*
X220392Y311522D02*
X236392D01*
X208404Y303670D02*
X216404D01*
X208404Y319670D02*
X216404D01*
X208404Y303670D02*
Y319670D01*
X216404Y303670D02*
Y319670D01*
X287338Y318136D02*
X295338D01*
X287338Y334136D02*
X295338D01*
X287338Y318136D02*
Y334136D01*
X295338Y318136D02*
Y334136D01*
X654870Y599830D02*
X662870D01*
X654870Y615830D02*
X662870D01*
X654870Y599830D02*
Y615830D01*
X662870Y599830D02*
Y615830D01*
X667650Y585090D02*
X675650D01*
X667650Y569090D02*
X675650D01*
Y585090D01*
X667650Y569090D02*
Y585090D01*
X654950D02*
X662950D01*
X654950Y569090D02*
X662950D01*
Y585090D01*
X654950Y569090D02*
Y585090D01*
X680350Y599830D02*
X688350D01*
X680350Y615830D02*
X688350D01*
X680350Y599830D02*
Y615830D01*
X688350Y599830D02*
Y615830D01*
X642250Y569090D02*
X650250D01*
X642250Y585090D02*
X650250D01*
X642250Y569090D02*
Y585090D01*
X650250Y569090D02*
Y585090D01*
X667650Y615830D02*
X675650D01*
X667650Y599830D02*
X675650D01*
Y615830D01*
X667650Y599830D02*
Y615830D01*
X223394Y391478D02*
Y399478D01*
X239394Y391478D02*
Y399478D01*
X223394D02*
X239394D01*
X223394Y391478D02*
X239394D01*
X566658Y231245D02*
X582658D01*
X566658Y223244D02*
X582658D01*
X566658D02*
Y231245D01*
X582658Y223244D02*
Y231245D01*
X583312Y223330D02*
X599312D01*
X583312Y231330D02*
X599312D01*
Y223330D02*
Y231330D01*
X583312Y223330D02*
Y231330D01*
X596710Y113920D02*
Y129920D01*
X604710Y113920D02*
Y129920D01*
X596710Y113920D02*
X604710D01*
X596710Y129920D02*
X604710D01*
X604710Y130748D02*
Y146748D01*
X596710Y130748D02*
Y146748D01*
X604710D01*
X596710Y130748D02*
X604710D01*
X633666Y375032D02*
Y391032D01*
X625666Y375032D02*
Y391032D01*
X633666D01*
X625666Y375032D02*
X633666D01*
X620670Y315456D02*
X636670D01*
X620670Y307456D02*
X636670D01*
X620670D02*
Y315456D01*
X636670Y307456D02*
Y315456D01*
X314261Y445538D02*
X330261D01*
X314261Y437538D02*
X330261D01*
X314261D02*
Y445538D01*
X330261Y437538D02*
Y445538D01*
X452901Y521844D02*
Y537844D01*
X460900Y521844D02*
Y537844D01*
X452901Y521844D02*
X460900D01*
X452901Y537844D02*
X460900D01*
X627745Y602500D02*
X635745D01*
X627745Y586500D02*
X635745D01*
Y602500D01*
X627745Y586500D02*
Y602500D01*
X747012Y153370D02*
Y169370D01*
X739012Y153370D02*
Y169370D01*
X747012D01*
X739012Y153370D02*
X747012D01*
X628700Y299400D02*
Y315400D01*
X636700Y299400D02*
Y315400D01*
X628700Y299400D02*
X636700D01*
X628700Y315400D02*
X636700D01*
X330400Y437700D02*
Y453700D01*
X322400Y437700D02*
Y453700D01*
X330400D01*
X322400Y437700D02*
X330400D01*
X361300Y331301D02*
X377300D01*
X361300Y323301D02*
X377300D01*
X361300D02*
Y331301D01*
X377300Y323301D02*
Y331301D01*
X361300Y322052D02*
X377300D01*
X361300Y314051D02*
X377300D01*
X361300D02*
Y322052D01*
X377300Y314051D02*
Y322052D01*
X384379Y341826D02*
Y349826D01*
X368379Y341826D02*
Y349826D01*
Y341826D02*
X384379D01*
X368379Y349826D02*
X384379D01*
X361300Y340550D02*
X377300D01*
X361300Y332550D02*
X377300D01*
X361300D02*
Y340550D01*
X377300Y332550D02*
Y340550D01*
X620697Y113972D02*
Y129972D01*
X612697Y113972D02*
Y129972D01*
X620697D01*
X612697Y113972D02*
X620697D01*
X605052Y121972D02*
X621052D01*
X605052Y129972D02*
X621052D01*
Y121972D02*
Y129972D01*
X605052Y121972D02*
Y129972D01*
Y130300D02*
X621052D01*
X605052Y138300D02*
X621052D01*
Y130300D02*
Y138300D01*
X605052Y130300D02*
Y138300D01*
X613188Y130300D02*
Y146300D01*
X621188Y130300D02*
Y146300D01*
X613188Y130300D02*
X621188D01*
X613188Y146300D02*
X621188D01*
X383901Y186404D02*
Y202404D01*
X391901Y186404D02*
Y202404D01*
X383901Y186404D02*
X391901D01*
X383901Y202404D02*
X391901D01*
X464300Y144700D02*
Y160700D01*
X456300Y144700D02*
Y160700D01*
X464300D01*
X456300Y144700D02*
X464300D01*
X456440Y152648D02*
X472440D01*
X456440Y160648D02*
X472440D01*
Y152648D02*
Y160648D01*
X456440Y152648D02*
Y160648D01*
Y160962D02*
X472440D01*
X456440Y168962D02*
X472440D01*
Y160962D02*
Y168962D01*
X456440Y160962D02*
Y168962D01*
X464481Y160962D02*
Y176962D01*
X456481Y160962D02*
Y176962D01*
X464481D01*
X456481Y160962D02*
X464481D01*
X247000Y323282D02*
Y331282D01*
X263000Y323282D02*
Y331282D01*
X247000D02*
X263000D01*
X247000Y323282D02*
X263000D01*
X826200Y546900D02*
Y562900D01*
X818200Y546900D02*
Y562900D01*
X826200D01*
X818200Y546900D02*
X826200D01*
X791270Y553688D02*
X807270D01*
X791270Y545688D02*
X807270D01*
X791270D02*
Y553688D01*
X807270Y545688D02*
Y553688D01*
X880046Y577419D02*
Y593419D01*
X872046Y577419D02*
Y593419D01*
X880046D01*
X872046Y577419D02*
X880046D01*
D227*
X450980Y2340D02*
X538980D01*
X450980D02*
Y84340D01*
X538980D01*
Y2340D02*
Y84340D01*
M02*
