G04*
G04 #@! TF.GenerationSoftware,Altium Limited,Altium Designer,24.6.1 (21)*
G04*
G04 Layer_Color=16711935*
%FSLAX44Y44*%
%MOMM*%
G71*
G04*
G04 #@! TF.SameCoordinates,E70CDE82-3EE1-4166-B2EF-4B71CB92BF6A*
G04*
G04*
G04 #@! TF.FilePolarity,Positive*
G04*
G01*
G75*
%ADD10C,0.2000*%
%ADD12C,0.1270*%
%ADD14C,0.2540*%
%ADD16C,0.1000*%
%ADD19C,0.1500*%
%ADD21R,4.8260X2.4130*%
%ADD192C,0.0508*%
%ADD223C,0.0500*%
%ADD224C,0.0500*%
G36*
X930835Y-543861D02*
X935370D01*
Y-544314D01*
X938092D01*
Y-544768D01*
X940359D01*
Y-545221D01*
X942173D01*
Y-545675D01*
X943988D01*
Y-546128D01*
X945348D01*
Y-546582D01*
X946709D01*
Y-547035D01*
X948070D01*
Y-547489D01*
X948977D01*
Y-547943D01*
X950338D01*
Y-548396D01*
X951245D01*
Y-548850D01*
X952152D01*
Y-549303D01*
X953059D01*
Y-549757D01*
X953966D01*
Y-550210D01*
X954873D01*
Y-550664D01*
X955327D01*
Y-551117D01*
X956234D01*
Y-551571D01*
X957141D01*
Y-552024D01*
X957594D01*
Y-552478D01*
X958502D01*
Y-552932D01*
X958955D01*
Y-553385D01*
X959862D01*
Y-553839D01*
X960316D01*
Y-554292D01*
X960769D01*
Y-554746D01*
X961676D01*
Y-555199D01*
X962130D01*
Y-555653D01*
X962583D01*
Y-556106D01*
X963037D01*
Y-556560D01*
X963944D01*
Y-557014D01*
X964398D01*
Y-557467D01*
X964851D01*
Y-557921D01*
X965305D01*
Y-558374D01*
X965758D01*
Y-558828D01*
X966212D01*
Y-559281D01*
X966665D01*
Y-559735D01*
X967119D01*
Y-560188D01*
X967573D01*
Y-560642D01*
X968026D01*
Y-561096D01*
X968480D01*
Y-561549D01*
X968933D01*
Y-562003D01*
Y-562456D01*
X969387D01*
Y-562910D01*
X969840D01*
Y-563363D01*
X970294D01*
Y-563817D01*
X970748D01*
Y-564271D01*
Y-564724D01*
X971201D01*
Y-565178D01*
X971655D01*
Y-565631D01*
X972108D01*
Y-566085D01*
Y-566538D01*
X972562D01*
Y-566992D01*
X973015D01*
Y-567445D01*
Y-567899D01*
X973469D01*
Y-568353D01*
X973922D01*
Y-568806D01*
Y-569260D01*
X974376D01*
Y-569713D01*
X974829D01*
Y-570167D01*
Y-570620D01*
X975283D01*
Y-571074D01*
Y-571527D01*
X975737D01*
Y-571981D01*
Y-572435D01*
X976190D01*
Y-572888D01*
Y-573342D01*
X976644D01*
Y-573795D01*
Y-574249D01*
X977097D01*
Y-574702D01*
Y-575156D01*
X977551D01*
Y-575609D01*
Y-576063D01*
X978004D01*
Y-576516D01*
Y-576970D01*
Y-577424D01*
X978458D01*
Y-577877D01*
Y-578331D01*
X978912D01*
Y-578784D01*
Y-579238D01*
Y-579691D01*
X979365D01*
Y-580145D01*
Y-580598D01*
Y-581052D01*
X979819D01*
Y-581506D01*
Y-581959D01*
Y-582413D01*
Y-582866D01*
X980272D01*
Y-583320D01*
Y-583773D01*
Y-584227D01*
Y-584680D01*
X980726D01*
Y-585134D01*
Y-585588D01*
Y-586041D01*
Y-586495D01*
X981179D01*
Y-586948D01*
Y-587402D01*
Y-587855D01*
Y-588309D01*
Y-588763D01*
Y-589216D01*
Y-589670D01*
X981633D01*
Y-590123D01*
Y-590577D01*
Y-591030D01*
Y-591484D01*
Y-591937D01*
Y-592391D01*
Y-592845D01*
Y-593298D01*
Y-593752D01*
Y-594205D01*
Y-594659D01*
X982086D01*
Y-595112D01*
Y-595566D01*
Y-596019D01*
Y-596473D01*
Y-596926D01*
Y-597380D01*
Y-597834D01*
Y-598287D01*
Y-598741D01*
Y-599194D01*
X981633D01*
Y-599648D01*
Y-600101D01*
Y-600555D01*
Y-601008D01*
Y-601462D01*
Y-601916D01*
Y-602369D01*
Y-602823D01*
Y-603276D01*
Y-603730D01*
Y-604183D01*
X981179D01*
Y-604637D01*
Y-605090D01*
Y-605544D01*
Y-605998D01*
Y-606451D01*
Y-606905D01*
X980726D01*
Y-607358D01*
Y-607812D01*
Y-608265D01*
Y-608719D01*
Y-609173D01*
X980272D01*
Y-609626D01*
Y-610080D01*
Y-610533D01*
Y-610987D01*
X979819D01*
Y-611440D01*
Y-611894D01*
Y-612347D01*
Y-612801D01*
X979365D01*
Y-613255D01*
Y-613708D01*
Y-614162D01*
X978912D01*
Y-614615D01*
Y-615069D01*
X978458D01*
Y-615522D01*
Y-615976D01*
Y-616429D01*
X978004D01*
Y-616883D01*
Y-617337D01*
X977551D01*
Y-617790D01*
Y-618244D01*
Y-618697D01*
X977097D01*
Y-619151D01*
Y-619604D01*
X976644D01*
Y-620058D01*
Y-620511D01*
X976190D01*
Y-620965D01*
Y-621418D01*
X975737D01*
Y-621872D01*
Y-622326D01*
X975283D01*
Y-621872D01*
Y-621418D01*
Y-620965D01*
Y-620511D01*
Y-620058D01*
Y-619604D01*
Y-619151D01*
Y-618697D01*
Y-618244D01*
Y-617790D01*
Y-617337D01*
Y-616883D01*
Y-616429D01*
Y-615976D01*
Y-615522D01*
Y-615069D01*
Y-614615D01*
Y-614162D01*
Y-613708D01*
Y-613255D01*
Y-612801D01*
Y-612347D01*
Y-611894D01*
Y-611440D01*
Y-610987D01*
Y-610533D01*
Y-610080D01*
Y-609626D01*
Y-609173D01*
Y-608719D01*
Y-608265D01*
Y-607812D01*
Y-607358D01*
Y-606905D01*
Y-606451D01*
Y-605998D01*
Y-605544D01*
Y-605090D01*
Y-604637D01*
Y-604183D01*
Y-603730D01*
Y-603276D01*
Y-602823D01*
Y-602369D01*
Y-601916D01*
Y-601462D01*
Y-601008D01*
Y-600555D01*
Y-600101D01*
Y-599648D01*
Y-599194D01*
Y-598741D01*
Y-598287D01*
Y-597834D01*
Y-597380D01*
Y-596926D01*
Y-596473D01*
Y-596019D01*
Y-595566D01*
Y-595112D01*
Y-594659D01*
Y-594205D01*
Y-593752D01*
Y-593298D01*
Y-592845D01*
Y-592391D01*
Y-591937D01*
Y-591484D01*
Y-591030D01*
Y-590577D01*
Y-590123D01*
Y-589670D01*
Y-589216D01*
Y-588763D01*
Y-588309D01*
Y-587855D01*
X962583D01*
Y-588309D01*
Y-588763D01*
Y-589216D01*
Y-589670D01*
Y-590123D01*
Y-590577D01*
Y-591030D01*
Y-591484D01*
Y-591937D01*
Y-592391D01*
Y-592845D01*
Y-593298D01*
Y-593752D01*
Y-594205D01*
Y-594659D01*
Y-595112D01*
Y-595566D01*
Y-596019D01*
Y-596473D01*
Y-596926D01*
Y-597380D01*
Y-597834D01*
Y-598287D01*
Y-598741D01*
Y-599194D01*
Y-599648D01*
Y-600101D01*
Y-600555D01*
Y-601008D01*
Y-601462D01*
Y-601916D01*
Y-602369D01*
Y-602823D01*
Y-603276D01*
Y-603730D01*
Y-604183D01*
Y-604637D01*
Y-605090D01*
Y-605544D01*
Y-605998D01*
Y-606451D01*
Y-606905D01*
Y-607358D01*
Y-607812D01*
Y-608265D01*
Y-608719D01*
Y-609173D01*
Y-609626D01*
Y-610080D01*
Y-610533D01*
Y-610987D01*
Y-611440D01*
Y-611894D01*
Y-612347D01*
Y-612801D01*
Y-613255D01*
Y-613708D01*
Y-614162D01*
Y-614615D01*
Y-615069D01*
Y-615522D01*
X962130D01*
Y-615976D01*
Y-616429D01*
Y-616883D01*
Y-617337D01*
X961676D01*
Y-617790D01*
Y-618244D01*
X961223D01*
Y-618697D01*
Y-619151D01*
X960769D01*
Y-619604D01*
X960316D01*
Y-620058D01*
X959862D01*
Y-620511D01*
X959409D01*
Y-620965D01*
X958955D01*
Y-621418D01*
X958048D01*
Y-621872D01*
X956687D01*
Y-622326D01*
X950338D01*
Y-621872D01*
X948977D01*
Y-621418D01*
X948070D01*
Y-620965D01*
X947616D01*
Y-620511D01*
X947163D01*
Y-620058D01*
X946709D01*
Y-619604D01*
Y-619151D01*
X946255D01*
Y-618697D01*
Y-618244D01*
X945802D01*
Y-617790D01*
Y-617337D01*
Y-616883D01*
Y-616429D01*
X945348D01*
Y-615976D01*
Y-615522D01*
Y-615069D01*
Y-614615D01*
Y-614162D01*
Y-613708D01*
Y-613255D01*
Y-612801D01*
Y-612347D01*
Y-611894D01*
Y-611440D01*
Y-610987D01*
Y-610533D01*
Y-610080D01*
Y-609626D01*
Y-609173D01*
Y-608719D01*
Y-608265D01*
Y-607812D01*
Y-607358D01*
Y-606905D01*
Y-606451D01*
Y-605998D01*
Y-605544D01*
Y-605090D01*
Y-604637D01*
Y-604183D01*
Y-603730D01*
Y-603276D01*
Y-602823D01*
Y-602369D01*
Y-601916D01*
Y-601462D01*
Y-601008D01*
Y-600555D01*
Y-600101D01*
Y-599648D01*
Y-599194D01*
Y-598741D01*
Y-598287D01*
Y-597834D01*
Y-597380D01*
Y-596926D01*
Y-596473D01*
Y-596019D01*
Y-595566D01*
Y-595112D01*
Y-594659D01*
Y-594205D01*
Y-593752D01*
Y-593298D01*
Y-592845D01*
Y-592391D01*
Y-591937D01*
Y-591484D01*
Y-591030D01*
Y-590577D01*
Y-590123D01*
Y-589670D01*
Y-589216D01*
Y-588763D01*
Y-588309D01*
Y-587855D01*
X932649D01*
Y-588309D01*
Y-588763D01*
Y-589216D01*
Y-589670D01*
Y-590123D01*
Y-590577D01*
Y-591030D01*
Y-591484D01*
Y-591937D01*
Y-592391D01*
Y-592845D01*
Y-593298D01*
Y-593752D01*
Y-594205D01*
Y-594659D01*
Y-595112D01*
Y-595566D01*
Y-596019D01*
Y-596473D01*
Y-596926D01*
Y-597380D01*
Y-597834D01*
Y-598287D01*
Y-598741D01*
Y-599194D01*
Y-599648D01*
Y-600101D01*
Y-600555D01*
Y-601008D01*
Y-601462D01*
Y-601916D01*
Y-602369D01*
Y-602823D01*
Y-603276D01*
Y-603730D01*
Y-604183D01*
Y-604637D01*
Y-605090D01*
Y-605544D01*
Y-605998D01*
Y-606451D01*
Y-606905D01*
Y-607358D01*
Y-607812D01*
Y-608265D01*
Y-608719D01*
Y-609173D01*
Y-609626D01*
Y-610080D01*
Y-610533D01*
Y-610987D01*
Y-611440D01*
Y-611894D01*
Y-612347D01*
Y-612801D01*
Y-613255D01*
Y-613708D01*
Y-614162D01*
Y-614615D01*
Y-615069D01*
Y-615522D01*
Y-615976D01*
Y-616429D01*
Y-616883D01*
Y-617337D01*
Y-617790D01*
Y-618244D01*
Y-618697D01*
Y-619151D01*
Y-619604D01*
Y-620058D01*
Y-620511D01*
Y-620965D01*
X933102D01*
Y-621418D01*
Y-621872D01*
Y-622326D01*
Y-622779D01*
X933556D01*
Y-623233D01*
Y-623686D01*
Y-624140D01*
X934009D01*
Y-624593D01*
Y-625047D01*
Y-625501D01*
X934463D01*
Y-625954D01*
Y-626408D01*
X934917D01*
Y-626861D01*
X935370D01*
Y-627315D01*
Y-627768D01*
X935824D01*
Y-628222D01*
X936277D01*
Y-628675D01*
X936731D01*
Y-629129D01*
X937184D01*
Y-629583D01*
X937638D01*
Y-630036D01*
X938092D01*
Y-630490D01*
X938999D01*
Y-630943D01*
X939452D01*
Y-631397D01*
X940359D01*
Y-631850D01*
X941266D01*
Y-632304D01*
X942173D01*
Y-632757D01*
X943534D01*
Y-633211D01*
X945348D01*
Y-633665D01*
X954419D01*
Y-633211D01*
X956234D01*
Y-632757D01*
X957141D01*
Y-632304D01*
X958502D01*
Y-631850D01*
X958955D01*
Y-631397D01*
X959862D01*
Y-630943D01*
X960316D01*
Y-630490D01*
X960769D01*
Y-630036D01*
X961676D01*
Y-629583D01*
X962130D01*
Y-629129D01*
X962583D01*
Y-628675D01*
Y-628222D01*
X963037D01*
Y-628675D01*
Y-629129D01*
Y-629583D01*
Y-630036D01*
Y-630490D01*
Y-630943D01*
Y-631397D01*
Y-631850D01*
Y-632304D01*
Y-632757D01*
X968026D01*
Y-633211D01*
X967573D01*
Y-633665D01*
X967119D01*
Y-634118D01*
X966665D01*
Y-634572D01*
X966212D01*
Y-635025D01*
X965758D01*
Y-635479D01*
X965305D01*
Y-635932D01*
X964851D01*
Y-636386D01*
X964398D01*
Y-636839D01*
X963491D01*
Y-637293D01*
X963037D01*
Y-637747D01*
X962583D01*
Y-638200D01*
X962130D01*
Y-638654D01*
X961223D01*
Y-639107D01*
X960769D01*
Y-639561D01*
X960316D01*
Y-640014D01*
X959409D01*
Y-640468D01*
X958955D01*
Y-640921D01*
X958048D01*
Y-641375D01*
X957594D01*
Y-641829D01*
X956687D01*
Y-642282D01*
X956234D01*
Y-642736D01*
X955327D01*
Y-643189D01*
X954419D01*
Y-643643D01*
X953512D01*
Y-644096D01*
X953059D01*
Y-644550D01*
X952152D01*
Y-645004D01*
X950791D01*
Y-645457D01*
X949884D01*
Y-645911D01*
X948977D01*
Y-646364D01*
X947616D01*
Y-646818D01*
X946709D01*
Y-647271D01*
X945348D01*
Y-647725D01*
X943534D01*
Y-648178D01*
X942173D01*
Y-648632D01*
X940359D01*
Y-649085D01*
X937638D01*
Y-649539D01*
X934463D01*
Y-649993D01*
X922671D01*
Y-649539D01*
X919496D01*
Y-649085D01*
X917228D01*
Y-648632D01*
X915414D01*
Y-648178D01*
X913599D01*
Y-647725D01*
X912239D01*
Y-647271D01*
X910878D01*
Y-646818D01*
X909518D01*
Y-646364D01*
X908610D01*
Y-645911D01*
X907250D01*
Y-645457D01*
X906343D01*
Y-645004D01*
X905435D01*
Y-644550D01*
X904528D01*
Y-644096D01*
X903621D01*
Y-643643D01*
X902714D01*
Y-643189D01*
X901807D01*
Y-642736D01*
X901354D01*
Y-642282D01*
X900446D01*
Y-641829D01*
X899539D01*
Y-641375D01*
X899086D01*
Y-640921D01*
X898179D01*
Y-640468D01*
X897725D01*
Y-640014D01*
X897271D01*
Y-639561D01*
X896364D01*
Y-639107D01*
X895911D01*
Y-638654D01*
X895457D01*
Y-638200D01*
X894550D01*
Y-637747D01*
X894097D01*
Y-637293D01*
X893643D01*
Y-636839D01*
X893189D01*
Y-636386D01*
X892736D01*
Y-635932D01*
X892282D01*
Y-635479D01*
X891829D01*
Y-635025D01*
X891375D01*
Y-634572D01*
X890922D01*
Y-634118D01*
X890468D01*
Y-633665D01*
X890015D01*
Y-633211D01*
X889561D01*
Y-632757D01*
X889108D01*
Y-632304D01*
X888654D01*
Y-631850D01*
X888200D01*
Y-631397D01*
X887747D01*
Y-630943D01*
X887293D01*
Y-630490D01*
Y-630036D01*
X886840D01*
Y-629583D01*
X886386D01*
Y-629129D01*
X885933D01*
Y-628675D01*
X885479D01*
Y-628222D01*
Y-627768D01*
X885025D01*
Y-627315D01*
X884572D01*
Y-626861D01*
Y-626408D01*
X884118D01*
Y-625954D01*
X883665D01*
Y-625501D01*
Y-625047D01*
X883211D01*
Y-624593D01*
X882758D01*
Y-624140D01*
Y-623686D01*
X882304D01*
Y-623233D01*
Y-622779D01*
X881851D01*
Y-622326D01*
Y-621872D01*
X881397D01*
Y-621418D01*
Y-620965D01*
X880944D01*
Y-620511D01*
Y-620058D01*
X880490D01*
Y-619604D01*
Y-619151D01*
X880036D01*
Y-618697D01*
Y-618244D01*
X879583D01*
Y-617790D01*
Y-617337D01*
X879129D01*
Y-616883D01*
Y-616429D01*
Y-615976D01*
X878676D01*
Y-615522D01*
Y-615069D01*
Y-614615D01*
X878222D01*
Y-614162D01*
Y-613708D01*
X877769D01*
Y-613255D01*
Y-612801D01*
Y-612347D01*
Y-611894D01*
X877315D01*
Y-611440D01*
Y-610987D01*
Y-610533D01*
X876861D01*
Y-610080D01*
Y-609626D01*
Y-609173D01*
Y-608719D01*
X876408D01*
Y-608265D01*
Y-607812D01*
Y-607358D01*
Y-606905D01*
Y-606451D01*
X875954D01*
Y-605998D01*
Y-605544D01*
Y-605090D01*
Y-604637D01*
Y-604183D01*
Y-603730D01*
Y-603276D01*
X875501D01*
Y-602823D01*
Y-602369D01*
Y-601916D01*
Y-601462D01*
Y-601008D01*
Y-600555D01*
Y-600101D01*
Y-599648D01*
Y-599194D01*
Y-598741D01*
X875047D01*
Y-598287D01*
Y-597834D01*
Y-597380D01*
Y-596926D01*
Y-596473D01*
Y-596019D01*
Y-595566D01*
Y-595112D01*
Y-594659D01*
X875501D01*
Y-594205D01*
Y-593752D01*
Y-593298D01*
Y-592845D01*
Y-592391D01*
Y-591937D01*
Y-591484D01*
Y-591030D01*
Y-590577D01*
X875954D01*
Y-590123D01*
Y-589670D01*
Y-589216D01*
Y-588763D01*
Y-588309D01*
Y-587855D01*
Y-587402D01*
X876408D01*
Y-586948D01*
Y-586495D01*
Y-586041D01*
Y-585588D01*
Y-585134D01*
X876861D01*
Y-584680D01*
Y-584227D01*
Y-583773D01*
Y-583320D01*
X877315D01*
Y-582866D01*
Y-582413D01*
Y-581959D01*
Y-581506D01*
X877769D01*
Y-581052D01*
Y-580598D01*
Y-580145D01*
X878222D01*
Y-579691D01*
Y-579238D01*
Y-578784D01*
X878676D01*
Y-578331D01*
Y-577877D01*
X879129D01*
Y-577424D01*
Y-576970D01*
Y-576516D01*
X879583D01*
Y-576063D01*
Y-575609D01*
X880036D01*
Y-575156D01*
Y-574702D01*
Y-574249D01*
X880490D01*
Y-573795D01*
Y-573342D01*
X880944D01*
Y-572888D01*
Y-572435D01*
X881397D01*
Y-571981D01*
Y-571527D01*
X881851D01*
Y-571074D01*
X882304D01*
Y-570620D01*
Y-570167D01*
X882758D01*
Y-569713D01*
Y-569260D01*
X883211D01*
Y-568806D01*
X883665D01*
Y-568353D01*
Y-567899D01*
X884118D01*
Y-567445D01*
X884572D01*
Y-566992D01*
Y-566538D01*
X885025D01*
Y-566085D01*
X885479D01*
Y-565631D01*
Y-565178D01*
X885933D01*
Y-564724D01*
X886386D01*
Y-564271D01*
X886840D01*
Y-563817D01*
Y-563363D01*
X887293D01*
Y-562910D01*
X887747D01*
Y-562456D01*
X888200D01*
Y-562003D01*
X888654D01*
Y-561549D01*
X889108D01*
Y-561096D01*
X889561D01*
Y-560642D01*
X890015D01*
Y-560188D01*
Y-559735D01*
X890468D01*
Y-559281D01*
X890922D01*
Y-558828D01*
X891375D01*
Y-558374D01*
X892282D01*
Y-557921D01*
X892736D01*
Y-557467D01*
X893189D01*
Y-557014D01*
X893643D01*
Y-556560D01*
X894097D01*
Y-556106D01*
X894550D01*
Y-555653D01*
X895004D01*
Y-555199D01*
X895911D01*
Y-554746D01*
X896364D01*
Y-554292D01*
X896818D01*
Y-553839D01*
X897725D01*
Y-553385D01*
X898179D01*
Y-552932D01*
X899086D01*
Y-552478D01*
X899539D01*
Y-552024D01*
X900446D01*
Y-551571D01*
X900900D01*
Y-551117D01*
X901807D01*
Y-550664D01*
X902714D01*
Y-550210D01*
X903168D01*
Y-549757D01*
X904528D01*
Y-549303D01*
X905435D01*
Y-548850D01*
X906343D01*
Y-548396D01*
X907250D01*
Y-547943D01*
X908157D01*
Y-547489D01*
X909518D01*
Y-547035D01*
X910425D01*
Y-546582D01*
X911785D01*
Y-546128D01*
X913146D01*
Y-545675D01*
X914960D01*
Y-545221D01*
X916774D01*
Y-544768D01*
X919042D01*
Y-544314D01*
X922217D01*
Y-543861D01*
X926753D01*
Y-543407D01*
X930835D01*
Y-543861D01*
D02*
G37*
G36*
X1001136Y-571074D02*
Y-571527D01*
Y-571981D01*
Y-572435D01*
Y-572888D01*
Y-573342D01*
Y-573795D01*
Y-574249D01*
Y-574702D01*
Y-575156D01*
Y-575609D01*
Y-576063D01*
Y-576516D01*
Y-576970D01*
Y-577424D01*
Y-577877D01*
Y-578331D01*
Y-578784D01*
Y-579238D01*
Y-579691D01*
Y-580145D01*
Y-580598D01*
Y-581052D01*
Y-581506D01*
Y-581959D01*
Y-582413D01*
Y-582866D01*
Y-583320D01*
Y-583773D01*
Y-584227D01*
Y-584680D01*
Y-585134D01*
Y-585588D01*
Y-586041D01*
Y-586495D01*
Y-586948D01*
Y-587402D01*
Y-587855D01*
Y-588309D01*
Y-588763D01*
Y-589216D01*
Y-589670D01*
Y-590123D01*
Y-590577D01*
Y-591030D01*
Y-591484D01*
Y-591937D01*
Y-592391D01*
Y-592845D01*
Y-593298D01*
X1002043D01*
Y-592845D01*
X1002496D01*
Y-592391D01*
X1002950D01*
Y-591937D01*
X1003404D01*
Y-591484D01*
X1003857D01*
Y-591030D01*
X1004311D01*
Y-590577D01*
X1004764D01*
Y-590123D01*
X1005671D01*
Y-589670D01*
X1006125D01*
Y-589216D01*
X1007032D01*
Y-588763D01*
X1007939D01*
Y-588309D01*
X1009300D01*
Y-587855D01*
X1011114D01*
Y-587402D01*
X1019732D01*
Y-587855D01*
X1021546D01*
Y-588309D01*
X1022906D01*
Y-588763D01*
X1024267D01*
Y-589216D01*
X1025174D01*
Y-589670D01*
X1025628D01*
Y-590123D01*
X1026535D01*
Y-590577D01*
X1026989D01*
Y-591030D01*
X1027896D01*
Y-591484D01*
X1028349D01*
Y-591937D01*
X1028803D01*
Y-592391D01*
X1029256D01*
Y-592845D01*
X1029710D01*
Y-593298D01*
X1030163D01*
Y-593752D01*
Y-594205D01*
X1030617D01*
Y-594659D01*
X1031070D01*
Y-595112D01*
X1031524D01*
Y-595566D01*
Y-596019D01*
X1031978D01*
Y-596473D01*
Y-596926D01*
X1032431D01*
Y-597380D01*
Y-597834D01*
X1032885D01*
Y-598287D01*
Y-598741D01*
X1033338D01*
Y-599194D01*
Y-599648D01*
Y-600101D01*
X1033792D01*
Y-600555D01*
Y-601008D01*
Y-601462D01*
Y-601916D01*
X1034245D01*
Y-602369D01*
Y-602823D01*
Y-603276D01*
Y-603730D01*
Y-604183D01*
X1034699D01*
Y-604637D01*
Y-605090D01*
Y-605544D01*
Y-605998D01*
Y-606451D01*
Y-606905D01*
Y-607358D01*
Y-607812D01*
Y-608265D01*
X1035153D01*
Y-608719D01*
X1034699D01*
Y-609173D01*
Y-609626D01*
Y-610080D01*
Y-610533D01*
Y-610987D01*
Y-611440D01*
Y-611894D01*
Y-612347D01*
Y-612801D01*
Y-613255D01*
Y-613708D01*
Y-614162D01*
Y-614615D01*
Y-615069D01*
Y-615522D01*
Y-615976D01*
Y-616429D01*
X1034245D01*
Y-616883D01*
Y-617337D01*
Y-617790D01*
Y-618244D01*
Y-618697D01*
X1033792D01*
Y-619151D01*
Y-619604D01*
Y-620058D01*
X1033338D01*
Y-620511D01*
Y-620965D01*
Y-621418D01*
X1032885D01*
Y-621872D01*
Y-622326D01*
Y-622779D01*
X1032431D01*
Y-623233D01*
Y-623686D01*
X1031978D01*
Y-624140D01*
Y-624593D01*
X1031524D01*
Y-625047D01*
X1031070D01*
Y-625501D01*
Y-625954D01*
X1030617D01*
Y-626408D01*
X1030163D01*
Y-626861D01*
X1029710D01*
Y-627315D01*
X1029256D01*
Y-627768D01*
Y-628222D01*
X1028349D01*
Y-628675D01*
X1027896D01*
Y-629129D01*
X1027442D01*
Y-629583D01*
X1026989D01*
Y-630036D01*
X1026081D01*
Y-630490D01*
X1025628D01*
Y-630943D01*
X1024721D01*
Y-631397D01*
X1023814D01*
Y-631850D01*
X1022906D01*
Y-632304D01*
X1021546D01*
Y-632757D01*
X1019278D01*
Y-633211D01*
X1011568D01*
Y-632757D01*
X1009300D01*
Y-632304D01*
X1008393D01*
Y-631850D01*
X1007032D01*
Y-631397D01*
X1006579D01*
Y-630943D01*
X1005671D01*
Y-630490D01*
X1005218D01*
Y-630036D01*
X1004311D01*
Y-629583D01*
X1003857D01*
Y-629129D01*
X1003404D01*
Y-628675D01*
X1002950D01*
Y-628222D01*
X1002496D01*
Y-627768D01*
X1002043D01*
Y-627315D01*
X1001589D01*
Y-626861D01*
Y-626408D01*
X1000682D01*
Y-626861D01*
Y-627315D01*
Y-627768D01*
Y-628222D01*
Y-628675D01*
Y-629129D01*
Y-629583D01*
Y-630036D01*
Y-630490D01*
Y-630943D01*
Y-631397D01*
Y-631850D01*
Y-632304D01*
X989343D01*
Y-631850D01*
Y-631397D01*
Y-630943D01*
Y-630490D01*
Y-630036D01*
Y-629583D01*
Y-629129D01*
Y-628675D01*
Y-628222D01*
Y-627768D01*
Y-627315D01*
Y-626861D01*
Y-626408D01*
Y-625954D01*
Y-625501D01*
Y-625047D01*
Y-624593D01*
Y-624140D01*
Y-623686D01*
Y-623233D01*
Y-622779D01*
Y-622326D01*
Y-621872D01*
Y-621418D01*
Y-620965D01*
Y-620511D01*
Y-620058D01*
Y-619604D01*
Y-619151D01*
Y-618697D01*
Y-618244D01*
Y-617790D01*
Y-617337D01*
Y-616883D01*
Y-616429D01*
Y-615976D01*
Y-615522D01*
Y-615069D01*
Y-614615D01*
Y-614162D01*
Y-613708D01*
Y-613255D01*
Y-612801D01*
Y-612347D01*
Y-611894D01*
Y-611440D01*
Y-610987D01*
Y-610533D01*
Y-610080D01*
Y-609626D01*
Y-609173D01*
Y-608719D01*
Y-608265D01*
Y-607812D01*
Y-607358D01*
Y-606905D01*
Y-606451D01*
Y-605998D01*
Y-605544D01*
Y-605090D01*
Y-604637D01*
Y-604183D01*
Y-603730D01*
Y-603276D01*
Y-602823D01*
Y-602369D01*
Y-601916D01*
Y-601462D01*
Y-601008D01*
Y-600555D01*
Y-600101D01*
Y-599648D01*
Y-599194D01*
Y-598741D01*
Y-598287D01*
Y-597834D01*
Y-597380D01*
Y-596926D01*
Y-596473D01*
Y-596019D01*
Y-595566D01*
Y-595112D01*
Y-594659D01*
Y-594205D01*
Y-593752D01*
Y-593298D01*
Y-592845D01*
Y-592391D01*
Y-591937D01*
Y-591484D01*
Y-591030D01*
Y-590577D01*
Y-590123D01*
Y-589670D01*
Y-589216D01*
Y-588763D01*
Y-588309D01*
Y-587855D01*
Y-587402D01*
Y-586948D01*
Y-586495D01*
Y-586041D01*
Y-585588D01*
Y-585134D01*
Y-584680D01*
Y-584227D01*
Y-583773D01*
Y-583320D01*
Y-582866D01*
Y-582413D01*
Y-581959D01*
Y-581506D01*
Y-581052D01*
Y-580598D01*
Y-580145D01*
Y-579691D01*
Y-579238D01*
Y-578784D01*
Y-578331D01*
Y-577877D01*
Y-577424D01*
Y-576970D01*
Y-576516D01*
Y-576063D01*
Y-575609D01*
Y-575156D01*
Y-574702D01*
Y-574249D01*
Y-573795D01*
Y-573342D01*
Y-572888D01*
Y-572435D01*
Y-571981D01*
Y-571527D01*
Y-571074D01*
Y-570620D01*
X1001136D01*
Y-571074D01*
D02*
G37*
G36*
X1054655D02*
Y-571527D01*
Y-571981D01*
Y-572435D01*
Y-572888D01*
Y-573342D01*
Y-573795D01*
Y-574249D01*
Y-574702D01*
Y-575156D01*
Y-575609D01*
Y-576063D01*
Y-576516D01*
Y-576970D01*
Y-577424D01*
Y-577877D01*
Y-578331D01*
Y-578784D01*
Y-579238D01*
Y-579691D01*
Y-580145D01*
Y-580598D01*
Y-581052D01*
Y-581506D01*
Y-581959D01*
Y-582413D01*
Y-582866D01*
Y-583320D01*
Y-583773D01*
Y-584227D01*
Y-584680D01*
Y-585134D01*
Y-585588D01*
Y-586041D01*
Y-586495D01*
Y-586948D01*
Y-587402D01*
Y-587855D01*
Y-588309D01*
Y-588763D01*
Y-589216D01*
Y-589670D01*
Y-590123D01*
Y-590577D01*
Y-591030D01*
Y-591484D01*
Y-591937D01*
Y-592391D01*
Y-592845D01*
Y-593298D01*
Y-593752D01*
Y-594205D01*
Y-594659D01*
Y-595112D01*
Y-595566D01*
Y-596019D01*
Y-596473D01*
Y-596926D01*
Y-597380D01*
Y-597834D01*
Y-598287D01*
Y-598741D01*
Y-599194D01*
Y-599648D01*
Y-600101D01*
Y-600555D01*
Y-601008D01*
Y-601462D01*
Y-601916D01*
Y-602369D01*
Y-602823D01*
Y-603276D01*
Y-603730D01*
Y-604183D01*
Y-604637D01*
Y-605090D01*
Y-605544D01*
Y-605998D01*
Y-606451D01*
Y-606905D01*
Y-607358D01*
Y-607812D01*
Y-608265D01*
Y-608719D01*
Y-609173D01*
Y-609626D01*
Y-610080D01*
Y-610533D01*
Y-610987D01*
Y-611440D01*
Y-611894D01*
Y-612347D01*
Y-612801D01*
Y-613255D01*
Y-613708D01*
Y-614162D01*
Y-614615D01*
Y-615069D01*
Y-615522D01*
Y-615976D01*
Y-616429D01*
Y-616883D01*
Y-617337D01*
Y-617790D01*
Y-618244D01*
Y-618697D01*
Y-619151D01*
Y-619604D01*
Y-620058D01*
Y-620511D01*
Y-620965D01*
Y-621418D01*
Y-621872D01*
Y-622326D01*
Y-622779D01*
Y-623233D01*
Y-623686D01*
Y-624140D01*
Y-624593D01*
Y-625047D01*
Y-625501D01*
Y-625954D01*
Y-626408D01*
Y-626861D01*
Y-627315D01*
Y-627768D01*
Y-628222D01*
Y-628675D01*
Y-629129D01*
Y-629583D01*
Y-630036D01*
Y-630490D01*
Y-630943D01*
Y-631397D01*
Y-631850D01*
Y-632304D01*
X1043316D01*
Y-631850D01*
Y-631397D01*
Y-630943D01*
Y-630490D01*
Y-630036D01*
Y-629583D01*
Y-629129D01*
Y-628675D01*
Y-628222D01*
Y-627768D01*
Y-627315D01*
Y-626861D01*
Y-626408D01*
Y-625954D01*
Y-625501D01*
Y-625047D01*
Y-624593D01*
Y-624140D01*
Y-623686D01*
Y-623233D01*
Y-622779D01*
Y-622326D01*
Y-621872D01*
Y-621418D01*
Y-620965D01*
Y-620511D01*
Y-620058D01*
Y-619604D01*
Y-619151D01*
Y-618697D01*
Y-618244D01*
Y-617790D01*
Y-617337D01*
Y-616883D01*
Y-616429D01*
Y-615976D01*
Y-615522D01*
Y-615069D01*
Y-614615D01*
Y-614162D01*
Y-613708D01*
Y-613255D01*
Y-612801D01*
Y-612347D01*
Y-611894D01*
Y-611440D01*
Y-610987D01*
Y-610533D01*
Y-610080D01*
Y-609626D01*
Y-609173D01*
Y-608719D01*
Y-608265D01*
Y-607812D01*
Y-607358D01*
Y-606905D01*
Y-606451D01*
Y-605998D01*
Y-605544D01*
Y-605090D01*
Y-604637D01*
Y-604183D01*
Y-603730D01*
Y-603276D01*
Y-602823D01*
Y-602369D01*
Y-601916D01*
Y-601462D01*
Y-601008D01*
Y-600555D01*
Y-600101D01*
Y-599648D01*
Y-599194D01*
Y-598741D01*
Y-598287D01*
Y-597834D01*
Y-597380D01*
Y-596926D01*
Y-596473D01*
Y-596019D01*
Y-595566D01*
Y-595112D01*
Y-594659D01*
Y-594205D01*
Y-593752D01*
Y-593298D01*
Y-592845D01*
Y-592391D01*
Y-591937D01*
Y-591484D01*
Y-591030D01*
Y-590577D01*
Y-590123D01*
Y-589670D01*
Y-589216D01*
Y-588763D01*
Y-588309D01*
Y-587855D01*
Y-587402D01*
Y-586948D01*
Y-586495D01*
Y-586041D01*
Y-585588D01*
Y-585134D01*
Y-584680D01*
Y-584227D01*
Y-583773D01*
Y-583320D01*
Y-582866D01*
Y-582413D01*
Y-581959D01*
Y-581506D01*
Y-581052D01*
Y-580598D01*
Y-580145D01*
Y-579691D01*
Y-579238D01*
Y-578784D01*
Y-578331D01*
Y-577877D01*
Y-577424D01*
Y-576970D01*
Y-576516D01*
Y-576063D01*
Y-575609D01*
Y-575156D01*
Y-574702D01*
Y-574249D01*
Y-573795D01*
Y-573342D01*
Y-572888D01*
Y-572435D01*
Y-571981D01*
Y-571527D01*
Y-571074D01*
Y-570620D01*
X1054655D01*
Y-571074D01*
D02*
G37*
G36*
X1090940Y-587855D02*
X1093208D01*
Y-588309D01*
X1094568D01*
Y-588763D01*
X1095929D01*
Y-589216D01*
X1096836D01*
Y-589670D01*
X1097743D01*
Y-590123D01*
X1098650D01*
Y-590577D01*
X1099557D01*
Y-591030D01*
X1100011D01*
Y-591484D01*
X1100918D01*
Y-591937D01*
X1101372D01*
Y-592391D01*
X1101825D01*
Y-592845D01*
X1102279D01*
Y-593298D01*
X1102732D01*
Y-593752D01*
X1103186D01*
Y-594205D01*
X1103639D01*
Y-594659D01*
X1104093D01*
Y-595112D01*
X1104547D01*
Y-595566D01*
Y-596019D01*
X1105000D01*
Y-596473D01*
X1105454D01*
Y-596926D01*
Y-597380D01*
X1105907D01*
Y-597834D01*
Y-598287D01*
X1106361D01*
Y-598741D01*
Y-599194D01*
X1106814D01*
Y-599648D01*
Y-600101D01*
X1107268D01*
Y-600555D01*
Y-601008D01*
Y-601462D01*
X1107721D01*
Y-601916D01*
Y-602369D01*
Y-602823D01*
Y-603276D01*
Y-603730D01*
X1108175D01*
Y-604183D01*
Y-604637D01*
Y-605090D01*
Y-605544D01*
Y-605998D01*
Y-606451D01*
Y-606905D01*
X1108628D01*
Y-607358D01*
Y-607812D01*
Y-608265D01*
Y-608719D01*
Y-609173D01*
Y-609626D01*
Y-610080D01*
Y-610533D01*
Y-610987D01*
Y-611440D01*
Y-611894D01*
Y-612347D01*
Y-612801D01*
Y-613255D01*
Y-613708D01*
X1108175D01*
Y-614162D01*
Y-614615D01*
Y-615069D01*
Y-615522D01*
Y-615976D01*
Y-616429D01*
Y-616883D01*
X1107721D01*
Y-617337D01*
Y-617790D01*
Y-618244D01*
Y-618697D01*
X1107268D01*
Y-619151D01*
Y-619604D01*
Y-620058D01*
X1106814D01*
Y-620511D01*
Y-620965D01*
Y-621418D01*
X1106361D01*
Y-621872D01*
Y-622326D01*
X1105907D01*
Y-622779D01*
Y-623233D01*
X1105454D01*
Y-623686D01*
Y-624140D01*
X1105000D01*
Y-624593D01*
X1104547D01*
Y-625047D01*
X1104093D01*
Y-625501D01*
Y-625954D01*
X1103639D01*
Y-626408D01*
X1103186D01*
Y-626861D01*
X1102732D01*
Y-627315D01*
X1102279D01*
Y-627768D01*
X1101825D01*
Y-628222D01*
X1101372D01*
Y-628675D01*
X1100465D01*
Y-629129D01*
X1100011D01*
Y-629583D01*
X1099104D01*
Y-630036D01*
X1098650D01*
Y-630490D01*
X1097743D01*
Y-630943D01*
X1096836D01*
Y-631397D01*
X1095475D01*
Y-631850D01*
X1094115D01*
Y-632304D01*
X1092754D01*
Y-632757D01*
X1090486D01*
Y-633211D01*
X1080962D01*
Y-632757D01*
X1078240D01*
Y-632304D01*
X1076426D01*
Y-631850D01*
X1075519D01*
Y-631397D01*
X1074158D01*
Y-630943D01*
X1073251D01*
Y-630490D01*
X1072344D01*
Y-630036D01*
X1071890D01*
Y-629583D01*
X1070983D01*
Y-629129D01*
X1070530D01*
Y-628675D01*
X1069623D01*
Y-628222D01*
X1069169D01*
Y-627768D01*
X1068716D01*
Y-627315D01*
X1068262D01*
Y-626861D01*
X1067809D01*
Y-626408D01*
X1067355D01*
Y-625954D01*
X1066901D01*
Y-625501D01*
Y-625047D01*
X1066448D01*
Y-624593D01*
X1065994D01*
Y-624140D01*
X1065541D01*
Y-623686D01*
Y-623233D01*
X1065087D01*
Y-622779D01*
Y-622326D01*
X1064634D01*
Y-621872D01*
Y-621418D01*
X1064180D01*
Y-620965D01*
Y-620511D01*
Y-620058D01*
X1063727D01*
Y-619604D01*
Y-619151D01*
Y-618697D01*
X1063273D01*
Y-618244D01*
Y-617790D01*
Y-617337D01*
Y-616883D01*
X1062819D01*
Y-616429D01*
Y-615976D01*
Y-615522D01*
Y-615069D01*
Y-614615D01*
Y-614162D01*
Y-613708D01*
Y-613255D01*
X1062366D01*
Y-612801D01*
Y-612347D01*
Y-611894D01*
Y-611440D01*
Y-610987D01*
Y-610533D01*
Y-610080D01*
Y-609626D01*
Y-609173D01*
Y-608719D01*
Y-608265D01*
Y-607812D01*
Y-607358D01*
X1062819D01*
Y-606905D01*
Y-606451D01*
Y-605998D01*
Y-605544D01*
Y-605090D01*
Y-604637D01*
Y-604183D01*
Y-603730D01*
X1063273D01*
Y-603276D01*
Y-602823D01*
Y-602369D01*
Y-601916D01*
X1063727D01*
Y-601462D01*
Y-601008D01*
Y-600555D01*
X1064180D01*
Y-600101D01*
Y-599648D01*
Y-599194D01*
X1064634D01*
Y-598741D01*
Y-598287D01*
X1065087D01*
Y-597834D01*
Y-597380D01*
X1065541D01*
Y-596926D01*
Y-596473D01*
X1065994D01*
Y-596019D01*
X1066448D01*
Y-595566D01*
Y-595112D01*
X1066901D01*
Y-594659D01*
X1067355D01*
Y-594205D01*
X1067809D01*
Y-593752D01*
X1068262D01*
Y-593298D01*
X1068716D01*
Y-592845D01*
X1069169D01*
Y-592391D01*
X1069623D01*
Y-591937D01*
X1070076D01*
Y-591484D01*
X1070983D01*
Y-591030D01*
X1071437D01*
Y-590577D01*
X1072344D01*
Y-590123D01*
X1073251D01*
Y-589670D01*
X1074158D01*
Y-589216D01*
X1075065D01*
Y-588763D01*
X1076426D01*
Y-588309D01*
X1077787D01*
Y-587855D01*
X1080054D01*
Y-587402D01*
X1090940D01*
Y-587855D01*
D02*
G37*
G36*
X1156705Y-588763D02*
X1156252D01*
Y-589216D01*
Y-589670D01*
X1155798D01*
Y-590123D01*
X1155345D01*
Y-590577D01*
X1154891D01*
Y-591030D01*
Y-591484D01*
X1154438D01*
Y-591937D01*
X1153984D01*
Y-592391D01*
Y-592845D01*
X1153531D01*
Y-593298D01*
X1153077D01*
Y-593752D01*
X1152624D01*
Y-594205D01*
Y-594659D01*
X1152170D01*
Y-595112D01*
X1151716D01*
Y-595566D01*
X1151263D01*
Y-596019D01*
Y-596473D01*
X1150809D01*
Y-596926D01*
X1150356D01*
Y-597380D01*
X1149902D01*
Y-597834D01*
Y-598287D01*
X1149449D01*
Y-598741D01*
X1148995D01*
Y-599194D01*
Y-599648D01*
X1148541D01*
Y-600101D01*
X1148088D01*
Y-600555D01*
X1147634D01*
Y-601008D01*
Y-601462D01*
X1147181D01*
Y-601916D01*
X1146727D01*
Y-602369D01*
X1146274D01*
Y-602823D01*
Y-603276D01*
X1145820D01*
Y-603730D01*
X1145367D01*
Y-604183D01*
Y-604637D01*
X1144913D01*
Y-605090D01*
X1144460D01*
Y-605544D01*
X1144006D01*
Y-605998D01*
Y-606451D01*
X1143552D01*
Y-606905D01*
X1143099D01*
Y-607358D01*
X1142645D01*
Y-607812D01*
Y-608265D01*
X1142192D01*
Y-608719D01*
X1141738D01*
Y-609173D01*
X1141285D01*
Y-609626D01*
Y-610080D01*
Y-610533D01*
X1141738D01*
Y-610987D01*
Y-611440D01*
X1142192D01*
Y-611894D01*
X1142645D01*
Y-612347D01*
X1143099D01*
Y-612801D01*
Y-613255D01*
X1143552D01*
Y-613708D01*
X1144006D01*
Y-614162D01*
X1144460D01*
Y-614615D01*
Y-615069D01*
X1144913D01*
Y-615522D01*
X1145367D01*
Y-615976D01*
Y-616429D01*
X1145820D01*
Y-616883D01*
X1146274D01*
Y-617337D01*
X1146727D01*
Y-617790D01*
Y-618244D01*
X1147181D01*
Y-618697D01*
X1147634D01*
Y-619151D01*
X1148088D01*
Y-619604D01*
Y-620058D01*
X1148541D01*
Y-620511D01*
X1148995D01*
Y-620965D01*
X1149449D01*
Y-621418D01*
Y-621872D01*
X1149902D01*
Y-622326D01*
X1150356D01*
Y-622779D01*
X1150809D01*
Y-623233D01*
Y-623686D01*
X1151263D01*
Y-624140D01*
X1151716D01*
Y-624593D01*
X1152170D01*
Y-625047D01*
Y-625501D01*
X1152624D01*
Y-625954D01*
X1153077D01*
Y-626408D01*
X1153531D01*
Y-626861D01*
Y-627315D01*
X1153984D01*
Y-627768D01*
X1154438D01*
Y-628222D01*
Y-628675D01*
X1154891D01*
Y-629129D01*
X1155345D01*
Y-629583D01*
X1155798D01*
Y-630036D01*
Y-630490D01*
X1156252D01*
Y-630943D01*
X1156705D01*
Y-631397D01*
X1157159D01*
Y-631850D01*
X1157613D01*
Y-632304D01*
X1143099D01*
Y-631850D01*
Y-631397D01*
X1142645D01*
Y-630943D01*
X1142192D01*
Y-630490D01*
X1141738D01*
Y-630036D01*
Y-629583D01*
X1141285D01*
Y-629129D01*
X1140831D01*
Y-628675D01*
X1140378D01*
Y-628222D01*
Y-627768D01*
X1139924D01*
Y-627315D01*
X1139470D01*
Y-626861D01*
Y-626408D01*
X1139017D01*
Y-625954D01*
X1138563D01*
Y-625501D01*
X1138110D01*
Y-625047D01*
Y-624593D01*
X1137656D01*
Y-624140D01*
X1137203D01*
Y-623686D01*
X1136749D01*
Y-623233D01*
Y-622779D01*
X1136295D01*
Y-622326D01*
X1135842D01*
Y-621872D01*
Y-621418D01*
X1135388D01*
Y-620965D01*
X1134935D01*
Y-620511D01*
X1134481D01*
Y-620058D01*
Y-619604D01*
X1134028D01*
Y-619151D01*
X1133574D01*
Y-618697D01*
X1133121D01*
Y-618244D01*
X1132667D01*
Y-618697D01*
Y-619151D01*
X1132214D01*
Y-619604D01*
X1131760D01*
Y-620058D01*
X1131306D01*
Y-620511D01*
Y-620965D01*
X1130853D01*
Y-621418D01*
X1130399D01*
Y-621872D01*
Y-622326D01*
X1129946D01*
Y-622779D01*
X1129492D01*
Y-623233D01*
X1129039D01*
Y-623686D01*
Y-624140D01*
X1128585D01*
Y-624593D01*
X1128131D01*
Y-625047D01*
Y-625501D01*
X1127678D01*
Y-625954D01*
X1127224D01*
Y-626408D01*
X1126771D01*
Y-626861D01*
Y-627315D01*
X1126317D01*
Y-627768D01*
X1125864D01*
Y-628222D01*
Y-628675D01*
X1125410D01*
Y-629129D01*
X1124957D01*
Y-629583D01*
X1124503D01*
Y-630036D01*
Y-630490D01*
X1124049D01*
Y-630943D01*
X1123596D01*
Y-631397D01*
Y-631850D01*
X1123142D01*
Y-632304D01*
X1109989D01*
Y-631850D01*
X1110443D01*
Y-631397D01*
X1110896D01*
Y-630943D01*
Y-630490D01*
X1111350D01*
Y-630036D01*
X1111803D01*
Y-629583D01*
X1112257D01*
Y-629129D01*
Y-628675D01*
X1112711D01*
Y-628222D01*
X1113164D01*
Y-627768D01*
Y-627315D01*
X1113618D01*
Y-626861D01*
X1114071D01*
Y-626408D01*
X1114525D01*
Y-625954D01*
X1114978D01*
Y-625501D01*
Y-625047D01*
X1115432D01*
Y-624593D01*
X1115885D01*
Y-624140D01*
Y-623686D01*
X1116339D01*
Y-623233D01*
X1116793D01*
Y-622779D01*
X1117246D01*
Y-622326D01*
Y-621872D01*
X1117700D01*
Y-621418D01*
X1118153D01*
Y-620965D01*
X1118607D01*
Y-620511D01*
Y-620058D01*
X1119060D01*
Y-619604D01*
X1119514D01*
Y-619151D01*
X1119967D01*
Y-618697D01*
Y-618244D01*
X1120421D01*
Y-617790D01*
X1120875D01*
Y-617337D01*
X1121328D01*
Y-616883D01*
Y-616429D01*
X1121782D01*
Y-615976D01*
X1122235D01*
Y-615522D01*
X1122689D01*
Y-615069D01*
Y-614615D01*
X1123142D01*
Y-614162D01*
X1123596D01*
Y-613708D01*
X1124049D01*
Y-613255D01*
Y-612801D01*
X1124503D01*
Y-612347D01*
X1124957D01*
Y-611894D01*
Y-611440D01*
X1125410D01*
Y-610987D01*
X1125864D01*
Y-610533D01*
X1126317D01*
Y-610080D01*
Y-609626D01*
X1125864D01*
Y-609173D01*
X1125410D01*
Y-608719D01*
X1124957D01*
Y-608265D01*
Y-607812D01*
X1124503D01*
Y-607358D01*
X1124049D01*
Y-606905D01*
X1123596D01*
Y-606451D01*
Y-605998D01*
X1123142D01*
Y-605544D01*
X1122689D01*
Y-605090D01*
Y-604637D01*
X1122235D01*
Y-604183D01*
X1121782D01*
Y-603730D01*
X1121328D01*
Y-603276D01*
Y-602823D01*
X1120875D01*
Y-602369D01*
X1120421D01*
Y-601916D01*
X1119967D01*
Y-601462D01*
Y-601008D01*
X1119514D01*
Y-600555D01*
X1119060D01*
Y-600101D01*
Y-599648D01*
X1118607D01*
Y-599194D01*
X1118153D01*
Y-598741D01*
X1117700D01*
Y-598287D01*
Y-597834D01*
X1117246D01*
Y-597380D01*
X1116793D01*
Y-596926D01*
X1116339D01*
Y-596473D01*
Y-596019D01*
X1115885D01*
Y-595566D01*
X1115432D01*
Y-595112D01*
Y-594659D01*
X1114978D01*
Y-594205D01*
X1114525D01*
Y-593752D01*
X1114071D01*
Y-593298D01*
Y-592845D01*
X1113618D01*
Y-592391D01*
X1113164D01*
Y-591937D01*
X1112711D01*
Y-591484D01*
Y-591030D01*
X1112257D01*
Y-590577D01*
X1111803D01*
Y-590123D01*
Y-589670D01*
X1111350D01*
Y-589216D01*
X1110896D01*
Y-588763D01*
X1110443D01*
Y-588309D01*
X1124503D01*
Y-588763D01*
X1124957D01*
Y-589216D01*
X1125410D01*
Y-589670D01*
Y-590123D01*
X1125864D01*
Y-590577D01*
X1126317D01*
Y-591030D01*
X1126771D01*
Y-591484D01*
Y-591937D01*
X1127224D01*
Y-592391D01*
X1127678D01*
Y-592845D01*
Y-593298D01*
X1128131D01*
Y-593752D01*
X1128585D01*
Y-594205D01*
Y-594659D01*
X1129039D01*
Y-595112D01*
X1129492D01*
Y-595566D01*
X1129946D01*
Y-596019D01*
Y-596473D01*
X1130399D01*
Y-596926D01*
X1130853D01*
Y-597380D01*
Y-597834D01*
X1131306D01*
Y-598287D01*
X1131760D01*
Y-598741D01*
X1132214D01*
Y-599194D01*
Y-599648D01*
X1132667D01*
Y-600101D01*
X1133121D01*
Y-600555D01*
Y-601008D01*
X1133574D01*
Y-601462D01*
X1134028D01*
Y-601916D01*
X1134481D01*
Y-601462D01*
X1134935D01*
Y-601008D01*
Y-600555D01*
X1135388D01*
Y-600101D01*
X1135842D01*
Y-599648D01*
X1136295D01*
Y-599194D01*
Y-598741D01*
X1136749D01*
Y-598287D01*
X1137203D01*
Y-597834D01*
Y-597380D01*
X1137656D01*
Y-596926D01*
X1138110D01*
Y-596473D01*
X1138563D01*
Y-596019D01*
Y-595566D01*
X1139017D01*
Y-595112D01*
X1139470D01*
Y-594659D01*
Y-594205D01*
X1139924D01*
Y-593752D01*
X1140378D01*
Y-593298D01*
X1140831D01*
Y-592845D01*
Y-592391D01*
X1141285D01*
Y-591937D01*
X1141738D01*
Y-591484D01*
Y-591030D01*
X1142192D01*
Y-590577D01*
X1142645D01*
Y-590123D01*
X1143099D01*
Y-589670D01*
Y-589216D01*
X1143552D01*
Y-588763D01*
X1144006D01*
Y-588309D01*
X1156705D01*
Y-588763D01*
D02*
G37*
%LPC*%
G36*
X919042Y-567445D02*
X916774D01*
Y-567899D01*
X914960D01*
Y-568353D01*
X914053D01*
Y-568806D01*
X913146D01*
Y-569260D01*
X912239D01*
Y-569713D01*
X911785D01*
Y-570167D01*
X911332D01*
Y-570620D01*
X910878D01*
Y-571074D01*
X910425D01*
Y-571527D01*
Y-571981D01*
X909971D01*
Y-572435D01*
X909518D01*
Y-572888D01*
Y-573342D01*
X909064D01*
Y-573795D01*
Y-574249D01*
Y-574702D01*
Y-575156D01*
X908610D01*
Y-575609D01*
Y-576063D01*
Y-576516D01*
Y-576970D01*
Y-577424D01*
Y-577877D01*
Y-578331D01*
Y-578784D01*
X909064D01*
Y-579238D01*
Y-579691D01*
Y-580145D01*
X909518D01*
Y-580598D01*
Y-581052D01*
X909971D01*
Y-581506D01*
Y-581959D01*
X910425D01*
Y-582413D01*
X910878D01*
Y-582866D01*
X911332D01*
Y-583320D01*
X911785D01*
Y-583773D01*
X912239D01*
Y-584227D01*
X912692D01*
Y-584680D01*
X913599D01*
Y-585134D01*
X914507D01*
Y-585588D01*
X915867D01*
Y-586041D01*
X919949D01*
Y-585588D01*
X921310D01*
Y-585134D01*
X922217D01*
Y-584680D01*
X923124D01*
Y-584227D01*
X923578D01*
Y-583773D01*
X924031D01*
Y-583320D01*
X924938D01*
Y-582866D01*
Y-582413D01*
X925392D01*
Y-581959D01*
X925845D01*
Y-581506D01*
Y-581052D01*
X926299D01*
Y-580598D01*
Y-580145D01*
X926753D01*
Y-579691D01*
Y-579238D01*
Y-578784D01*
X927206D01*
Y-578331D01*
Y-577877D01*
Y-577424D01*
Y-576970D01*
Y-576516D01*
Y-576063D01*
Y-575609D01*
Y-575156D01*
X926753D01*
Y-574702D01*
Y-574249D01*
Y-573795D01*
Y-573342D01*
X926299D01*
Y-572888D01*
Y-572435D01*
X925845D01*
Y-571981D01*
Y-571527D01*
X925392D01*
Y-571074D01*
X924938D01*
Y-570620D01*
X924485D01*
Y-570167D01*
X924031D01*
Y-569713D01*
X923578D01*
Y-569260D01*
X922671D01*
Y-568806D01*
X922217D01*
Y-568353D01*
X920856D01*
Y-567899D01*
X919042D01*
Y-567445D01*
D02*
G37*
G36*
X1013835Y-597380D02*
X1009753D01*
Y-597834D01*
X1007939D01*
Y-598287D01*
X1006579D01*
Y-598741D01*
X1005671D01*
Y-599194D01*
X1005218D01*
Y-599648D01*
X1004311D01*
Y-600101D01*
X1003857D01*
Y-600555D01*
X1003404D01*
Y-601008D01*
Y-601462D01*
X1002950D01*
Y-601916D01*
X1002496D01*
Y-602369D01*
Y-602823D01*
X1002043D01*
Y-603276D01*
Y-603730D01*
X1001589D01*
Y-604183D01*
Y-604637D01*
Y-605090D01*
X1001136D01*
Y-605544D01*
Y-605998D01*
Y-606451D01*
Y-606905D01*
Y-607358D01*
X1000682D01*
Y-607812D01*
Y-608265D01*
Y-608719D01*
Y-609173D01*
Y-609626D01*
Y-610080D01*
Y-610533D01*
Y-610987D01*
Y-611440D01*
Y-611894D01*
Y-612347D01*
Y-612801D01*
Y-613255D01*
X1001136D01*
Y-613708D01*
Y-614162D01*
Y-614615D01*
Y-615069D01*
Y-615522D01*
X1001589D01*
Y-615976D01*
Y-616429D01*
Y-616883D01*
X1002043D01*
Y-617337D01*
Y-617790D01*
X1002496D01*
Y-618244D01*
Y-618697D01*
X1002950D01*
Y-619151D01*
X1003404D01*
Y-619604D01*
X1003857D01*
Y-620058D01*
X1004311D01*
Y-620511D01*
X1004764D01*
Y-620965D01*
X1005218D01*
Y-621418D01*
X1006125D01*
Y-621872D01*
X1007032D01*
Y-622326D01*
X1007939D01*
Y-622779D01*
X1010207D01*
Y-623233D01*
X1013382D01*
Y-622779D01*
X1015650D01*
Y-622326D01*
X1017010D01*
Y-621872D01*
X1017917D01*
Y-621418D01*
X1018371D01*
Y-620965D01*
X1019278D01*
Y-620511D01*
X1019732D01*
Y-620058D01*
X1020185D01*
Y-619604D01*
X1020639D01*
Y-619151D01*
Y-618697D01*
X1021092D01*
Y-618244D01*
X1021546D01*
Y-617790D01*
Y-617337D01*
X1021999D01*
Y-616883D01*
Y-616429D01*
Y-615976D01*
X1022453D01*
Y-615522D01*
Y-615069D01*
Y-614615D01*
Y-614162D01*
X1022906D01*
Y-613708D01*
Y-613255D01*
Y-612801D01*
Y-612347D01*
Y-611894D01*
Y-611440D01*
Y-610987D01*
Y-610533D01*
Y-610080D01*
Y-609626D01*
Y-609173D01*
Y-608719D01*
Y-608265D01*
Y-607812D01*
Y-607358D01*
Y-606905D01*
Y-606451D01*
Y-605998D01*
X1022453D01*
Y-605544D01*
Y-605090D01*
Y-604637D01*
Y-604183D01*
X1021999D01*
Y-603730D01*
Y-603276D01*
X1021546D01*
Y-602823D01*
Y-602369D01*
X1021092D01*
Y-601916D01*
Y-601462D01*
X1020639D01*
Y-601008D01*
X1020185D01*
Y-600555D01*
X1019732D01*
Y-600101D01*
X1019278D01*
Y-599648D01*
X1018824D01*
Y-599194D01*
X1017917D01*
Y-598741D01*
X1017010D01*
Y-598287D01*
X1016103D01*
Y-597834D01*
X1013835D01*
Y-597380D01*
D02*
G37*
G36*
X1087765D02*
X1083229D01*
Y-597834D01*
X1081415D01*
Y-598287D01*
X1080054D01*
Y-598741D01*
X1079147D01*
Y-599194D01*
X1078694D01*
Y-599648D01*
X1078240D01*
Y-600101D01*
X1077787D01*
Y-600555D01*
X1077333D01*
Y-601008D01*
X1076880D01*
Y-601462D01*
X1076426D01*
Y-601916D01*
X1075973D01*
Y-602369D01*
Y-602823D01*
X1075519D01*
Y-603276D01*
Y-603730D01*
X1075065D01*
Y-604183D01*
Y-604637D01*
Y-605090D01*
X1074612D01*
Y-605544D01*
Y-605998D01*
Y-606451D01*
Y-606905D01*
Y-607358D01*
Y-607812D01*
Y-608265D01*
X1074158D01*
Y-608719D01*
Y-609173D01*
Y-609626D01*
Y-610080D01*
Y-610533D01*
Y-610987D01*
Y-611440D01*
Y-611894D01*
X1074612D01*
Y-612347D01*
Y-612801D01*
Y-613255D01*
Y-613708D01*
Y-614162D01*
Y-614615D01*
Y-615069D01*
X1075065D01*
Y-615522D01*
Y-615976D01*
Y-616429D01*
X1075519D01*
Y-616883D01*
Y-617337D01*
Y-617790D01*
X1075973D01*
Y-618244D01*
X1076426D01*
Y-618697D01*
Y-619151D01*
X1076880D01*
Y-619604D01*
X1077333D01*
Y-620058D01*
X1077787D01*
Y-620511D01*
X1078240D01*
Y-620965D01*
X1078694D01*
Y-621418D01*
X1079601D01*
Y-621872D01*
X1080508D01*
Y-622326D01*
X1081869D01*
Y-622779D01*
X1084137D01*
Y-623233D01*
X1086858D01*
Y-622779D01*
X1089126D01*
Y-622326D01*
X1090486D01*
Y-621872D01*
X1091393D01*
Y-621418D01*
X1092300D01*
Y-620965D01*
X1092754D01*
Y-620511D01*
X1093208D01*
Y-620058D01*
X1093661D01*
Y-619604D01*
X1094115D01*
Y-619151D01*
X1094568D01*
Y-618697D01*
Y-618244D01*
X1095022D01*
Y-617790D01*
X1095475D01*
Y-617337D01*
Y-616883D01*
Y-616429D01*
X1095929D01*
Y-615976D01*
Y-615522D01*
Y-615069D01*
X1096383D01*
Y-614615D01*
Y-614162D01*
Y-613708D01*
Y-613255D01*
Y-612801D01*
X1096836D01*
Y-612347D01*
Y-611894D01*
Y-611440D01*
Y-610987D01*
Y-610533D01*
Y-610080D01*
Y-609626D01*
Y-609173D01*
Y-608719D01*
Y-608265D01*
Y-607812D01*
X1096383D01*
Y-607358D01*
Y-606905D01*
Y-606451D01*
Y-605998D01*
Y-605544D01*
Y-605090D01*
X1095929D01*
Y-604637D01*
Y-604183D01*
Y-603730D01*
X1095475D01*
Y-603276D01*
Y-602823D01*
X1095022D01*
Y-602369D01*
Y-601916D01*
X1094568D01*
Y-601462D01*
X1094115D01*
Y-601008D01*
X1093661D01*
Y-600555D01*
X1093208D01*
Y-600101D01*
X1092754D01*
Y-599648D01*
X1092300D01*
Y-599194D01*
X1091393D01*
Y-598741D01*
X1090940D01*
Y-598287D01*
X1089579D01*
Y-597834D01*
X1087765D01*
Y-597380D01*
D02*
G37*
%LPD*%
D10*
X805770Y646940D02*
X847770D01*
X805770D02*
Y678940D01*
X847770D01*
Y646940D02*
Y678940D01*
X772840Y587760D02*
Y619760D01*
X730840D02*
X772840D01*
X730840Y587760D02*
Y619760D01*
Y587760D02*
X772840D01*
X970000Y105400D02*
Y613400D01*
X920000Y105400D02*
X970000D01*
X920000D02*
Y613400D01*
X970000D01*
X442714Y472561D02*
X556014D01*
Y414561D02*
Y472561D01*
X442714Y414561D02*
X556014D01*
X442714D02*
Y472561D01*
X480880Y399390D02*
X517980D01*
Y341390D02*
Y399390D01*
X480880Y341390D02*
X517980D01*
X480880D02*
Y399390D01*
X849850Y27178D02*
Y69178D01*
X817850Y27178D02*
X849850D01*
X817850D02*
Y69178D01*
X849850D01*
X805770Y587750D02*
X847770D01*
X805770D02*
Y619750D01*
X847770D01*
Y587750D02*
Y619750D01*
X730840Y646940D02*
X772840D01*
X730840D02*
Y678940D01*
X772840D01*
Y646940D02*
Y678940D01*
X30000Y613400D02*
X80000D01*
X30000Y105400D02*
Y613400D01*
Y105400D02*
X80000D01*
Y613400D01*
X2324399Y32023D02*
Y56153D01*
X2090719Y32023D02*
X2324399D01*
X2090719D02*
Y56153D01*
X2324399D01*
D12*
X534480Y6340D02*
Y76340D01*
X455230Y6340D02*
X534480D01*
X455230D02*
Y76340D01*
X534480D01*
X116028Y18664D02*
Y183414D01*
Y18664D02*
X348528D01*
Y183414D01*
X116028D02*
X348528D01*
X2161405Y38881D02*
X2159082Y44980D01*
X2156759Y38881D01*
X2157630Y40914D02*
X2160534D01*
X2166023Y42076D02*
X2165733Y42657D01*
X2164861Y42947D01*
X2163990D01*
X2163119Y42657D01*
X2162828Y42076D01*
X2163119Y41495D01*
X2163700Y41205D01*
X2165152Y40914D01*
X2165733Y40624D01*
X2166023Y40043D01*
Y39753D01*
X2165733Y39172D01*
X2164861Y38881D01*
X2163990D01*
X2163119Y39172D01*
X2162828Y39753D01*
X2170495Y42076D02*
X2170205Y42657D01*
X2169334Y42947D01*
X2168462D01*
X2167591Y42657D01*
X2167301Y42076D01*
X2167591Y41495D01*
X2168172Y41205D01*
X2169624Y40914D01*
X2170205Y40624D01*
X2170495Y40043D01*
Y39753D01*
X2170205Y39172D01*
X2169334Y38881D01*
X2168462D01*
X2167591Y39172D01*
X2167301Y39753D01*
X2171773Y41205D02*
X2175258D01*
Y41785D01*
X2174968Y42366D01*
X2174677Y42657D01*
X2174096Y42947D01*
X2173225D01*
X2172644Y42657D01*
X2172063Y42076D01*
X2171773Y41205D01*
Y40624D01*
X2172063Y39753D01*
X2172644Y39172D01*
X2173225Y38881D01*
X2174096D01*
X2174677Y39172D01*
X2175258Y39753D01*
X2176565Y42947D02*
Y38881D01*
Y41785D02*
X2177436Y42657D01*
X2178017Y42947D01*
X2178888D01*
X2179469Y42657D01*
X2179759Y41785D01*
Y38881D01*
Y41785D02*
X2180631Y42657D01*
X2181212Y42947D01*
X2182083D01*
X2182664Y42657D01*
X2182954Y41785D01*
Y38881D01*
X2184871Y44980D02*
Y38881D01*
Y42076D02*
X2185452Y42657D01*
X2186032Y42947D01*
X2186904D01*
X2187484Y42657D01*
X2188065Y42076D01*
X2188356Y41205D01*
Y40624D01*
X2188065Y39753D01*
X2187484Y39172D01*
X2186904Y38881D01*
X2186032D01*
X2185452Y39172D01*
X2184871Y39753D01*
X2189662Y44980D02*
Y38881D01*
X2191231Y42947D02*
X2192973Y38881D01*
X2194716Y42947D02*
X2192973Y38881D01*
X2192392Y37720D01*
X2191812Y37139D01*
X2191231Y36848D01*
X2190940D01*
X2202557Y44980D02*
Y38881D01*
X2200524Y44980D02*
X2204590D01*
X2206768Y42947D02*
X2206187Y42657D01*
X2205606Y42076D01*
X2205316Y41205D01*
Y40624D01*
X2205606Y39753D01*
X2206187Y39172D01*
X2206768Y38881D01*
X2207639D01*
X2208220Y39172D01*
X2208801Y39753D01*
X2209091Y40624D01*
Y41205D01*
X2208801Y42076D01*
X2208220Y42657D01*
X2207639Y42947D01*
X2206768D01*
X2210427D02*
Y36848D01*
Y42076D02*
X2211008Y42657D01*
X2211589Y42947D01*
X2212460D01*
X2213041Y42657D01*
X2213622Y42076D01*
X2213912Y41205D01*
Y40624D01*
X2213622Y39753D01*
X2213041Y39172D01*
X2212460Y38881D01*
X2211589D01*
X2211008Y39172D01*
X2210427Y39753D01*
X-329559Y1103874D02*
X-331882Y1109973D01*
X-334205Y1103874D01*
X-333334Y1105907D02*
X-330430D01*
X-329849Y29021D02*
X-330140Y29602D01*
X-330720Y30183D01*
X-331301Y30473D01*
X-332463D01*
X-333044Y30183D01*
X-333625Y29602D01*
X-333915Y29021D01*
X-334205Y28150D01*
Y26698D01*
X-333915Y25826D01*
X-333625Y25246D01*
X-333044Y24665D01*
X-332463Y24374D01*
X-331301D01*
X-330720Y24665D01*
X-330140Y25246D01*
X-329849Y25826D01*
X-334205Y-508007D02*
Y-514106D01*
Y-508007D02*
X-332173D01*
X-331301Y-508297D01*
X-330720Y-508878D01*
X-330430Y-509459D01*
X-330140Y-510330D01*
Y-511782D01*
X-330430Y-512654D01*
X-330720Y-513234D01*
X-331301Y-513815D01*
X-332173Y-514106D01*
X-334205D01*
X-10016Y-740817D02*
X-9435Y-740526D01*
X-8564Y-739655D01*
Y-745754D01*
X688943Y-741107D02*
Y-740817D01*
X689233Y-740236D01*
X689524Y-739945D01*
X690105Y-739655D01*
X691266D01*
X691847Y-739945D01*
X692138Y-740236D01*
X692428Y-740817D01*
Y-741397D01*
X692138Y-741978D01*
X691557Y-742850D01*
X688653Y-745754D01*
X692718D01*
X1386463Y-739655D02*
X1389658D01*
X1387915Y-741978D01*
X1388787D01*
X1389368Y-742269D01*
X1389658Y-742559D01*
X1389948Y-743430D01*
Y-744011D01*
X1389658Y-744882D01*
X1389077Y-745463D01*
X1388206Y-745754D01*
X1387335D01*
X1386463Y-745463D01*
X1386173Y-745173D01*
X1385883Y-744592D01*
X2087543Y-739655D02*
X2084639Y-743721D01*
X2088996D01*
X2087543Y-739655D02*
Y-745754D01*
X-10016Y1367383D02*
X-9435Y1367674D01*
X-8564Y1368545D01*
Y1362446D01*
X688943Y1367093D02*
Y1367383D01*
X689233Y1367964D01*
X689524Y1368255D01*
X690105Y1368545D01*
X691266D01*
X691847Y1368255D01*
X692138Y1367964D01*
X692428Y1367383D01*
Y1366803D01*
X692138Y1366222D01*
X691557Y1365350D01*
X688653Y1362446D01*
X692718D01*
X1386463Y1368545D02*
X1389658D01*
X1387915Y1366222D01*
X1388787D01*
X1389368Y1365931D01*
X1389658Y1365641D01*
X1389948Y1364770D01*
Y1364189D01*
X1389658Y1363318D01*
X1389077Y1362737D01*
X1388206Y1362446D01*
X1387335D01*
X1386463Y1362737D01*
X1386173Y1363027D01*
X1385883Y1363608D01*
X2087543Y1368545D02*
X2084639Y1364479D01*
X2088996D01*
X2087543Y1368545D02*
Y1362446D01*
X2413641Y1103874D02*
X2411318Y1109973D01*
X2408995Y1103874D01*
X2409866Y1105907D02*
X2412770D01*
X2408995Y570223D02*
Y564124D01*
Y570223D02*
X2411608D01*
X2412480Y569933D01*
X2412770Y569642D01*
X2413060Y569061D01*
Y568481D01*
X2412770Y567900D01*
X2412480Y567609D01*
X2411608Y567319D01*
X2408995D02*
X2411608D01*
X2412480Y567029D01*
X2412770Y566738D01*
X2413060Y566157D01*
Y565286D01*
X2412770Y564705D01*
X2412480Y564415D01*
X2411608Y564124D01*
X2408995D01*
X2413351Y29021D02*
X2413060Y29602D01*
X2412480Y30183D01*
X2411899Y30473D01*
X2410737D01*
X2410156Y30183D01*
X2409575Y29602D01*
X2409285Y29021D01*
X2408995Y28150D01*
Y26698D01*
X2409285Y25826D01*
X2409575Y25246D01*
X2410156Y24665D01*
X2410737Y24374D01*
X2411899D01*
X2412480Y24665D01*
X2413060Y25246D01*
X2413351Y25826D01*
X2408995Y-508007D02*
Y-514106D01*
Y-508007D02*
X2411028D01*
X2411899Y-508297D01*
X2412480Y-508878D01*
X2412770Y-509459D01*
X2413060Y-510330D01*
Y-511782D01*
X2412770Y-512654D01*
X2412480Y-513234D01*
X2411899Y-513815D01*
X2411028Y-514106D01*
X2408995D01*
X2103419Y225066D02*
Y218967D01*
X2106904D01*
X2112218D02*
X2109895Y225066D01*
X2107572Y218967D01*
X2108443Y221000D02*
X2111347D01*
X2113641Y225066D02*
X2115965Y222162D01*
Y218967D01*
X2118288Y225066D02*
X2115965Y222162D01*
X2122847Y225066D02*
X2119072D01*
Y218967D01*
X2122847D01*
X2119072Y222162D02*
X2121395D01*
X2123864Y225066D02*
Y218967D01*
Y225066D02*
X2126478D01*
X2127349Y224776D01*
X2127639Y224485D01*
X2127930Y223904D01*
Y223324D01*
X2127639Y222743D01*
X2127349Y222452D01*
X2126478Y222162D01*
X2123864D01*
X2125897D02*
X2127930Y218967D01*
X2134086Y225066D02*
Y220710D01*
X2134377Y219839D01*
X2134958Y219258D01*
X2135829Y218967D01*
X2136410D01*
X2137281Y219258D01*
X2137862Y219839D01*
X2138152Y220710D01*
Y225066D01*
X2143902Y224195D02*
X2143322Y224776D01*
X2142450Y225066D01*
X2141289D01*
X2140417Y224776D01*
X2139836Y224195D01*
Y223614D01*
X2140127Y223033D01*
X2140417Y222743D01*
X2140998Y222452D01*
X2142741Y221871D01*
X2143322Y221581D01*
X2143612Y221291D01*
X2143902Y220710D01*
Y219839D01*
X2143322Y219258D01*
X2142450Y218967D01*
X2141289D01*
X2140417Y219258D01*
X2139836Y219839D01*
X2149914Y218967D02*
X2147590Y225066D01*
X2145267Y218967D01*
X2146138Y221000D02*
X2149043D01*
X2155693Y223614D02*
X2155403Y224195D01*
X2154822Y224776D01*
X2154241Y225066D01*
X2153079D01*
X2152498Y224776D01*
X2151918Y224195D01*
X2151627Y223614D01*
X2151337Y222743D01*
Y221291D01*
X2151627Y220419D01*
X2151918Y219839D01*
X2152498Y219258D01*
X2153079Y218967D01*
X2154241D01*
X2154822Y219258D01*
X2155403Y219839D01*
X2155693Y220419D01*
Y221291D01*
X2154241D02*
X2155693D01*
X2160862Y225066D02*
X2157087D01*
Y218967D01*
X2160862D01*
X2157087Y222162D02*
X2159410D01*
X1894705Y1303426D02*
Y1309524D01*
X1897754D01*
X1898770Y1308508D01*
Y1306475D01*
X1897754Y1305459D01*
X1894705D01*
X1896737D02*
X1898770Y1303426D01*
X1904868Y1309524D02*
X1900803D01*
Y1303426D01*
X1904868D01*
X1900803Y1306475D02*
X1902835D01*
X1906901Y1309524D02*
Y1305459D01*
X1908933Y1303426D01*
X1910966Y1305459D01*
Y1309524D01*
X1912999D02*
X1915031D01*
X1914015D01*
Y1303426D01*
X1912999D01*
X1915031D01*
X1922146Y1308508D02*
X1921129Y1309524D01*
X1919097D01*
X1918080Y1308508D01*
Y1307492D01*
X1919097Y1306475D01*
X1921129D01*
X1922146Y1305459D01*
Y1304443D01*
X1921129Y1303426D01*
X1919097D01*
X1918080Y1304443D01*
X1924178Y1309524D02*
X1926211D01*
X1925195D01*
Y1303426D01*
X1924178D01*
X1926211D01*
X1932309Y1309524D02*
X1930276D01*
X1929260Y1308508D01*
Y1304443D01*
X1930276Y1303426D01*
X1932309D01*
X1933325Y1304443D01*
Y1308508D01*
X1932309Y1309524D01*
X1935358Y1303426D02*
Y1309524D01*
X1939423Y1303426D01*
Y1309524D01*
X1536565Y1260246D02*
Y1266344D01*
X1539614D01*
X1540630Y1265328D01*
Y1263295D01*
X1539614Y1262279D01*
X1536565D01*
X1538597D02*
X1540630Y1260246D01*
X1546728Y1266344D02*
X1542663D01*
Y1260246D01*
X1546728D01*
X1542663Y1263295D02*
X1544695D01*
X1548761Y1266344D02*
Y1262279D01*
X1550793Y1260246D01*
X1552826Y1262279D01*
Y1266344D01*
X1645785D02*
Y1260246D01*
X1648834D01*
X1649850Y1261263D01*
Y1265328D01*
X1648834Y1266344D01*
X1645785D01*
X1655948D02*
X1651883D01*
Y1260246D01*
X1655948D01*
X1651883Y1263295D02*
X1653915D01*
X1662046Y1265328D02*
X1661030Y1266344D01*
X1658997D01*
X1657981Y1265328D01*
Y1264312D01*
X1658997Y1263295D01*
X1661030D01*
X1662046Y1262279D01*
Y1261263D01*
X1661030Y1260246D01*
X1658997D01*
X1657981Y1261263D01*
X1668144Y1265328D02*
X1667128Y1266344D01*
X1665095D01*
X1664079Y1265328D01*
Y1261263D01*
X1665095Y1260246D01*
X1667128D01*
X1668144Y1261263D01*
X1670177Y1260246D02*
Y1266344D01*
X1673226D01*
X1674242Y1265328D01*
Y1263295D01*
X1673226Y1262279D01*
X1670177D01*
X1672209D02*
X1674242Y1260246D01*
X1676275Y1266344D02*
X1678307D01*
X1677291D01*
Y1260246D01*
X1676275D01*
X1678307D01*
X1681356D02*
Y1266344D01*
X1684405D01*
X1685422Y1265328D01*
Y1263295D01*
X1684405Y1262279D01*
X1681356D01*
X1687454Y1266344D02*
X1691520D01*
X1689487D01*
Y1260246D01*
X1693552Y1266344D02*
X1695585D01*
X1694569D01*
Y1260246D01*
X1693552D01*
X1695585D01*
X1701683Y1266344D02*
X1699650D01*
X1698634Y1265328D01*
Y1261263D01*
X1699650Y1260246D01*
X1701683D01*
X1702699Y1261263D01*
Y1265328D01*
X1701683Y1266344D01*
X1704732Y1260246D02*
Y1266344D01*
X1708797Y1260246D01*
Y1266344D01*
X2143625D02*
Y1260246D01*
X2146674D01*
X2147690Y1261263D01*
Y1265328D01*
X2146674Y1266344D01*
X2143625D01*
X2149723Y1260246D02*
Y1264312D01*
X2151755Y1266344D01*
X2153788Y1264312D01*
Y1260246D01*
Y1263295D01*
X2149723D01*
X2155821Y1266344D02*
X2159886D01*
X2157853D01*
Y1260246D01*
X2165984Y1266344D02*
X2161919D01*
Y1260246D01*
X2165984D01*
X2161919Y1263295D02*
X2163951D01*
X2303645Y1266344D02*
Y1260246D01*
X2306694D01*
X2307710Y1261263D01*
Y1262279D01*
X2306694Y1263295D01*
X2303645D01*
X2306694D01*
X2307710Y1264312D01*
Y1265328D01*
X2306694Y1266344D01*
X2303645D01*
X2309743D02*
Y1265328D01*
X2311775Y1263295D01*
X2313808Y1265328D01*
Y1266344D01*
X2311775Y1263295D02*
Y1260246D01*
X1536565Y1222146D02*
Y1228244D01*
X1539614D01*
X1540630Y1227228D01*
Y1225195D01*
X1539614Y1224179D01*
X1536565D01*
X1538597D02*
X1540630Y1222146D01*
X1545712D02*
X1543679D01*
X1542663Y1223163D01*
Y1225195D01*
X1543679Y1226212D01*
X1545712D01*
X1546728Y1225195D01*
Y1224179D01*
X1542663D01*
X1548761Y1226212D02*
X1550793Y1222146D01*
X1552826Y1226212D01*
X1554859Y1222146D02*
X1556891D01*
X1555875D01*
Y1228244D01*
X1554859Y1227228D01*
X2123305Y1219606D02*
Y1220623D01*
X2124321D01*
Y1219606D01*
X2123305D01*
X2128386D02*
Y1225704D01*
X2131435D01*
X2132452Y1224688D01*
Y1222655D01*
X2131435Y1221639D01*
X2128386D01*
X2130419D02*
X2132452Y1219606D01*
X2137533D02*
X2135501D01*
X2134484Y1220623D01*
Y1222655D01*
X2135501Y1223672D01*
X2137533D01*
X2138550Y1222655D01*
Y1221639D01*
X2134484D01*
X2140582Y1219606D02*
X2142615D01*
X2141599D01*
Y1225704D01*
X2140582D01*
X2148713Y1219606D02*
X2146680D01*
X2145664Y1220623D01*
Y1222655D01*
X2146680Y1223672D01*
X2148713D01*
X2149729Y1222655D01*
Y1221639D01*
X2145664D01*
X2152778Y1223672D02*
X2154811D01*
X2155827Y1222655D01*
Y1219606D01*
X2152778D01*
X2151762Y1220623D01*
X2152778Y1221639D01*
X2155827D01*
X2157860Y1219606D02*
X2160909D01*
X2161925Y1220623D01*
X2160909Y1221639D01*
X2158876D01*
X2157860Y1222655D01*
X2158876Y1223672D01*
X2161925D01*
X2167007Y1219606D02*
X2164974D01*
X2163958Y1220623D01*
Y1222655D01*
X2164974Y1223672D01*
X2167007D01*
X2168023Y1222655D01*
Y1221639D01*
X2163958D01*
X2170056Y1225704D02*
Y1219606D01*
X2173105D01*
X2174121Y1220623D01*
Y1224688D01*
X2173105Y1225704D01*
X2170056D01*
X2177170Y1223672D02*
X2179203D01*
X2180219Y1222655D01*
Y1219606D01*
X2177170D01*
X2176154Y1220623D01*
X2177170Y1221639D01*
X2180219D01*
X2183268Y1224688D02*
Y1223672D01*
X2182252D01*
X2184285D01*
X2183268D01*
Y1220623D01*
X2184285Y1219606D01*
X2190383D02*
X2188350D01*
X2187334Y1220623D01*
Y1222655D01*
X2188350Y1223672D01*
X2190383D01*
X2191399Y1222655D01*
Y1221639D01*
X2187334D01*
X2193432Y1219606D02*
X2195464D01*
X2194448D01*
Y1225704D01*
X2193432Y1224688D01*
X2290945Y1222146D02*
Y1223163D01*
X2291961D01*
Y1222146D01*
X2290945D01*
X2296026D02*
Y1228244D01*
X2299075D01*
X2300092Y1227228D01*
Y1225195D01*
X2299075Y1224179D01*
X2296026D01*
X2298059D02*
X2300092Y1222146D01*
X2305173D02*
X2303141D01*
X2302124Y1223163D01*
Y1225195D01*
X2303141Y1226212D01*
X2305173D01*
X2306190Y1225195D01*
Y1224179D01*
X2302124D01*
X2308222Y1222146D02*
X2310255D01*
X2309239D01*
Y1228244D01*
X2308222D01*
X2316353Y1222146D02*
X2314320D01*
X2313304Y1223163D01*
Y1225195D01*
X2314320Y1226212D01*
X2316353D01*
X2317369Y1225195D01*
Y1224179D01*
X2313304D01*
X2320418Y1226212D02*
X2322451D01*
X2323467Y1225195D01*
Y1222146D01*
X2320418D01*
X2319402Y1223163D01*
X2320418Y1224179D01*
X2323467D01*
X2325500Y1222146D02*
X2328549D01*
X2329565Y1223163D01*
X2328549Y1224179D01*
X2326516D01*
X2325500Y1225195D01*
X2326516Y1226212D01*
X2329565D01*
X2334647Y1222146D02*
X2332614D01*
X2331598Y1223163D01*
Y1225195D01*
X2332614Y1226212D01*
X2334647D01*
X2335663Y1225195D01*
Y1224179D01*
X2331598D01*
X2337696Y1228244D02*
Y1222146D01*
X2340745D01*
X2341761Y1223163D01*
Y1224179D01*
X2340745Y1225195D01*
X2337696D01*
X2340745D01*
X2341761Y1226212D01*
Y1227228D01*
X2340745Y1228244D01*
X2337696D01*
X2343794Y1226212D02*
Y1223163D01*
X2344810Y1222146D01*
X2347859D01*
Y1221130D01*
X2346843Y1220114D01*
X2345827D01*
X2347859Y1222146D02*
Y1226212D01*
X2349892Y1222146D02*
X2351925D01*
X2350908D01*
Y1228244D01*
X2349892Y1227228D01*
X1528881Y1159884D02*
Y1153786D01*
X1531930D01*
X1532946Y1154803D01*
Y1155819D01*
X1531930Y1156835D01*
X1528881D01*
X1531930D01*
X1532946Y1157852D01*
Y1158868D01*
X1531930Y1159884D01*
X1528881D01*
X1532946Y1120768D02*
X1531930Y1121785D01*
X1529897D01*
X1528881Y1120768D01*
Y1116703D01*
X1529897Y1115686D01*
X1531930D01*
X1532946Y1116703D01*
X2123305Y1145946D02*
Y1146963D01*
X2124321D01*
Y1145946D01*
X2123305D01*
X2128386D02*
Y1152044D01*
X2131435D01*
X2132452Y1151028D01*
Y1148995D01*
X2131435Y1147979D01*
X2128386D01*
X2130419D02*
X2132452Y1145946D01*
X2137533D02*
X2135501D01*
X2134484Y1146963D01*
Y1148995D01*
X2135501Y1150012D01*
X2137533D01*
X2138550Y1148995D01*
Y1147979D01*
X2134484D01*
X2140582Y1145946D02*
X2142615D01*
X2141599D01*
Y1152044D01*
X2140582D01*
X2148713Y1145946D02*
X2146680D01*
X2145664Y1146963D01*
Y1148995D01*
X2146680Y1150012D01*
X2148713D01*
X2149729Y1148995D01*
Y1147979D01*
X2145664D01*
X2152778Y1150012D02*
X2154811D01*
X2155827Y1148995D01*
Y1145946D01*
X2152778D01*
X2151762Y1146963D01*
X2152778Y1147979D01*
X2155827D01*
X2157860Y1145946D02*
X2160909D01*
X2161925Y1146963D01*
X2160909Y1147979D01*
X2158876D01*
X2157860Y1148995D01*
X2158876Y1150012D01*
X2161925D01*
X2167007Y1145946D02*
X2164974D01*
X2163958Y1146963D01*
Y1148995D01*
X2164974Y1150012D01*
X2167007D01*
X2168023Y1148995D01*
Y1147979D01*
X2163958D01*
X2170056Y1152044D02*
Y1145946D01*
X2173105D01*
X2174121Y1146963D01*
Y1151028D01*
X2173105Y1152044D01*
X2170056D01*
X2177170Y1150012D02*
X2179203D01*
X2180219Y1148995D01*
Y1145946D01*
X2177170D01*
X2176154Y1146963D01*
X2177170Y1147979D01*
X2180219D01*
X2183268Y1151028D02*
Y1150012D01*
X2182252D01*
X2184285D01*
X2183268D01*
Y1146963D01*
X2184285Y1145946D01*
X2190383D02*
X2188350D01*
X2187334Y1146963D01*
Y1148995D01*
X2188350Y1150012D01*
X2190383D01*
X2191399Y1148995D01*
Y1147979D01*
X2187334D01*
X2193432Y1151028D02*
X2194448Y1152044D01*
X2196481D01*
X2197497Y1151028D01*
Y1150012D01*
X2196481Y1148995D01*
X2195464D01*
X2196481D01*
X2197497Y1147979D01*
Y1146963D01*
X2196481Y1145946D01*
X2194448D01*
X2193432Y1146963D01*
X2290945Y1145946D02*
Y1146963D01*
X2291961D01*
Y1145946D01*
X2290945D01*
X2296026D02*
Y1152044D01*
X2299075D01*
X2300092Y1151028D01*
Y1148995D01*
X2299075Y1147979D01*
X2296026D01*
X2298059D02*
X2300092Y1145946D01*
X2305173D02*
X2303141D01*
X2302124Y1146963D01*
Y1148995D01*
X2303141Y1150012D01*
X2305173D01*
X2306190Y1148995D01*
Y1147979D01*
X2302124D01*
X2308222Y1145946D02*
X2310255D01*
X2309239D01*
Y1152044D01*
X2308222D01*
X2316353Y1145946D02*
X2314320D01*
X2313304Y1146963D01*
Y1148995D01*
X2314320Y1150012D01*
X2316353D01*
X2317369Y1148995D01*
Y1147979D01*
X2313304D01*
X2320418Y1150012D02*
X2322451D01*
X2323467Y1148995D01*
Y1145946D01*
X2320418D01*
X2319402Y1146963D01*
X2320418Y1147979D01*
X2323467D01*
X2325500Y1145946D02*
X2328549D01*
X2329565Y1146963D01*
X2328549Y1147979D01*
X2326516D01*
X2325500Y1148995D01*
X2326516Y1150012D01*
X2329565D01*
X2334647Y1145946D02*
X2332614D01*
X2331598Y1146963D01*
Y1148995D01*
X2332614Y1150012D01*
X2334647D01*
X2335663Y1148995D01*
Y1147979D01*
X2331598D01*
X2337696Y1152044D02*
Y1145946D01*
X2340745D01*
X2341761Y1146963D01*
Y1147979D01*
X2340745Y1148995D01*
X2337696D01*
X2340745D01*
X2341761Y1150012D01*
Y1151028D01*
X2340745Y1152044D01*
X2337696D01*
X2343794Y1150012D02*
Y1146963D01*
X2344810Y1145946D01*
X2347859D01*
Y1144930D01*
X2346843Y1143914D01*
X2345827D01*
X2347859Y1145946D02*
Y1150012D01*
X2349892Y1151028D02*
X2350908Y1152044D01*
X2352941D01*
X2353957Y1151028D01*
Y1150012D01*
X2352941Y1148995D01*
X2351925D01*
X2352941D01*
X2353957Y1147979D01*
Y1146963D01*
X2352941Y1145946D01*
X2350908D01*
X2349892Y1146963D01*
X1318125Y-689456D02*
Y-694537D01*
X1319141Y-695554D01*
X1321174D01*
X1322190Y-694537D01*
Y-689456D01*
X1324223D02*
Y-695554D01*
X1327272D01*
X1328288Y-694537D01*
Y-693521D01*
X1327272Y-692505D01*
X1324223D01*
X1327272D01*
X1328288Y-691488D01*
Y-690472D01*
X1327272Y-689456D01*
X1324223D01*
X1330321D02*
X1334386Y-695554D01*
Y-689456D02*
X1330321Y-695554D01*
X1336419Y-689456D02*
Y-695554D01*
Y-692505D01*
X1340484D01*
Y-689456D01*
Y-695554D01*
X1346582Y-689456D02*
X1344549Y-690472D01*
X1342517Y-692505D01*
Y-694537D01*
X1343533Y-695554D01*
X1345566D01*
X1346582Y-694537D01*
Y-693521D01*
X1345566Y-692505D01*
X1342517D01*
X1348615Y-690472D02*
X1349631Y-689456D01*
X1351664D01*
X1352680Y-690472D01*
Y-694537D01*
X1351664Y-695554D01*
X1349631D01*
X1348615Y-694537D01*
Y-690472D01*
X1354713Y-692505D02*
X1358778D01*
X1360811Y-690472D02*
X1361827Y-689456D01*
X1363860D01*
X1364876Y-690472D01*
Y-694537D01*
X1363860Y-695554D01*
X1361827D01*
X1360811Y-694537D01*
Y-690472D01*
X1366909D02*
X1367925Y-689456D01*
X1369958D01*
X1370974Y-690472D01*
Y-694537D01*
X1369958Y-695554D01*
X1367925D01*
X1366909Y-694537D01*
Y-690472D01*
X1373007D02*
X1374023Y-689456D01*
X1376056D01*
X1377072Y-690472D01*
Y-694537D01*
X1376056Y-695554D01*
X1374023D01*
X1373007Y-694537D01*
Y-690472D01*
X1379105Y-695554D02*
X1381137D01*
X1380121D01*
Y-689456D01*
X1379105Y-690472D01*
X1384186Y-695554D02*
X1386219D01*
X1385203D01*
Y-689456D01*
X1384186Y-690472D01*
X1389268Y-694537D02*
X1390284Y-695554D01*
X1392317D01*
X1393333Y-694537D01*
Y-690472D01*
X1392317Y-689456D01*
X1390284D01*
X1389268Y-690472D01*
Y-691488D01*
X1390284Y-692505D01*
X1393333D01*
X1398415Y-695554D02*
Y-689456D01*
X1395366Y-692505D01*
X1399431D01*
X1748910Y-618336D02*
X1744845D01*
Y-624434D01*
X1748910D01*
X1744845Y-621385D02*
X1746877D01*
X1750943Y-618336D02*
Y-622401D01*
X1752975Y-624434D01*
X1755008Y-622401D01*
Y-618336D01*
X1757041D02*
Y-624434D01*
Y-622401D01*
X1761106Y-618336D01*
X1758057Y-621385D01*
X1761106Y-624434D01*
X1763139Y-621385D02*
X1767204D01*
X1769237Y-624434D02*
Y-618336D01*
X1773302Y-624434D01*
Y-618336D01*
X1778384D02*
X1776351D01*
X1775335Y-619352D01*
Y-623417D01*
X1776351Y-624434D01*
X1778384D01*
X1779400Y-623417D01*
Y-619352D01*
X1778384Y-618336D01*
X1781433Y-624434D02*
Y-618336D01*
X1784482D01*
X1785498Y-619352D01*
Y-621385D01*
X1784482Y-622401D01*
X1781433D01*
X1783465D02*
X1785498Y-624434D01*
X1787531D02*
Y-620368D01*
X1789563Y-618336D01*
X1791596Y-620368D01*
Y-624434D01*
Y-621385D01*
X1787531D01*
X1793629D02*
X1797694D01*
X1799727Y-618336D02*
Y-624434D01*
X1802776D01*
X1803792Y-623417D01*
Y-622401D01*
X1802776Y-621385D01*
X1799727D01*
X1802776D01*
X1803792Y-620368D01*
Y-619352D01*
X1802776Y-618336D01*
X1799727D01*
X1809890Y-624434D02*
X1805825D01*
X1809890Y-620368D01*
Y-619352D01*
X1808874Y-618336D01*
X1806841D01*
X1805825Y-619352D01*
X1811923D02*
X1812939Y-618336D01*
X1814972D01*
X1815988Y-619352D01*
Y-623417D01*
X1814972Y-624434D01*
X1812939D01*
X1811923Y-623417D01*
Y-619352D01*
X2239425Y-623224D02*
Y-617126D01*
X2242474D01*
X2243490Y-618142D01*
Y-620175D01*
X2242474Y-621191D01*
X2239425D01*
X2241457D02*
X2243490Y-623224D01*
X2248572D02*
X2246539D01*
X2245523Y-622207D01*
Y-620175D01*
X2246539Y-619158D01*
X2248572D01*
X2249588Y-620175D01*
Y-621191D01*
X2245523D01*
X2251621Y-619158D02*
X2253653Y-623224D01*
X2255686Y-619158D01*
X2267882Y-618142D02*
X2266866Y-617126D01*
X2264833D01*
X2263817Y-618142D01*
Y-622207D01*
X2264833Y-623224D01*
X2266866D01*
X2267882Y-622207D01*
X1744845Y-563474D02*
Y-557376D01*
X1748910Y-563474D01*
Y-557376D01*
X1753992D02*
X1751959D01*
X1750943Y-558392D01*
Y-562457D01*
X1751959Y-563474D01*
X1753992D01*
X1755008Y-562457D01*
Y-558392D01*
X1753992Y-557376D01*
X1757041Y-563474D02*
Y-557376D01*
X1760090D01*
X1761106Y-558392D01*
Y-560425D01*
X1760090Y-561441D01*
X1757041D01*
X1759073D02*
X1761106Y-563474D01*
X1763139D02*
Y-559408D01*
X1765171Y-557376D01*
X1767204Y-559408D01*
Y-563474D01*
Y-560425D01*
X1763139D01*
X1769237D02*
X1773302D01*
X1775335Y-557376D02*
Y-563474D01*
X1778384D01*
X1779400Y-562457D01*
Y-561441D01*
X1778384Y-560425D01*
X1775335D01*
X1778384D01*
X1779400Y-559408D01*
Y-558392D01*
X1778384Y-557376D01*
X1775335D01*
X1785498Y-563474D02*
X1781433D01*
X1785498Y-559408D01*
Y-558392D01*
X1784482Y-557376D01*
X1782449D01*
X1781433Y-558392D01*
X1366385Y-557376D02*
Y-563474D01*
Y-560425D01*
X1370450D01*
Y-557376D01*
Y-563474D01*
X1372483D02*
Y-559408D01*
X1374515Y-557376D01*
X1376548Y-559408D01*
Y-563474D01*
Y-560425D01*
X1372483D01*
X1378581Y-557376D02*
Y-563474D01*
X1381630D01*
X1382646Y-562457D01*
Y-561441D01*
X1381630Y-560425D01*
X1378581D01*
X1381630D01*
X1382646Y-559408D01*
Y-558392D01*
X1381630Y-557376D01*
X1378581D01*
X1384679D02*
Y-563474D01*
X1387728D01*
X1388744Y-562457D01*
Y-558392D01*
X1387728Y-557376D01*
X1384679D01*
X1633787Y-600974D02*
Y-594876D01*
X1636836D01*
X1637852Y-595892D01*
Y-597925D01*
X1636836Y-598941D01*
X1633787D01*
X1643950Y-595892D02*
X1642934Y-594876D01*
X1640901D01*
X1639885Y-595892D01*
Y-599957D01*
X1640901Y-600974D01*
X1642934D01*
X1643950Y-599957D01*
X1645983Y-594876D02*
Y-600974D01*
X1649032D01*
X1650048Y-599957D01*
Y-598941D01*
X1649032Y-597925D01*
X1645983D01*
X1649032D01*
X1650048Y-596908D01*
Y-595892D01*
X1649032Y-594876D01*
X1645983D01*
X1658179Y-600974D02*
Y-594876D01*
X1662244Y-600974D01*
Y-594876D01*
X1664277Y-600974D02*
Y-596908D01*
X1666309Y-594876D01*
X1668342Y-596908D01*
Y-600974D01*
Y-597925D01*
X1664277D01*
X1670375Y-600974D02*
Y-594876D01*
X1672407Y-596908D01*
X1674440Y-594876D01*
Y-600974D01*
X1680538Y-594876D02*
X1676473D01*
Y-600974D01*
X1680538D01*
X1676473Y-597925D02*
X1678505D01*
X1682571Y-596908D02*
X1683587D01*
Y-597925D01*
X1682571D01*
Y-596908D01*
Y-599957D02*
X1683587D01*
Y-600974D01*
X1682571D01*
Y-599957D01*
X2252785Y-694192D02*
X2254817D01*
X2253801D01*
Y-688094D01*
X2252785Y-689110D01*
X2257866Y-690126D02*
X2258883D01*
Y-691143D01*
X2257866D01*
Y-690126D01*
Y-693175D02*
X2258883D01*
Y-694192D01*
X2257866D01*
Y-693175D01*
X2262948Y-694192D02*
X2264981D01*
X2263964D01*
Y-688094D01*
X2262948Y-689110D01*
X2169728Y-661932D02*
X2168712Y-660916D01*
X2166679D01*
X2165663Y-661932D01*
Y-662948D01*
X2166679Y-663965D01*
X2168712D01*
X2169728Y-664981D01*
Y-665997D01*
X2168712Y-667014D01*
X2166679D01*
X2165663Y-665997D01*
X2175826Y-661932D02*
X2174810Y-660916D01*
X2172777D01*
X2171761Y-661932D01*
Y-665997D01*
X2172777Y-667014D01*
X2174810D01*
X2175826Y-665997D01*
X2177859Y-667014D02*
Y-662948D01*
X2179891Y-660916D01*
X2181924Y-662948D01*
Y-667014D01*
Y-663965D01*
X2177859D01*
X2183957Y-660916D02*
Y-667014D01*
X2188022D01*
X2194120Y-660916D02*
X2190055D01*
Y-667014D01*
X2194120D01*
X2190055Y-663965D02*
X2192087D01*
X2196153Y-662948D02*
X2197169D01*
Y-663965D01*
X2196153D01*
Y-662948D01*
Y-665997D02*
X2197169D01*
Y-667014D01*
X2196153D01*
Y-665997D01*
X1637150Y-658976D02*
X1633085D01*
Y-662025D01*
X1635117D01*
X1633085D01*
Y-665074D01*
X1639183Y-658976D02*
X1641215D01*
X1640199D01*
Y-665074D01*
X1639183D01*
X1641215D01*
X1644264Y-658976D02*
Y-665074D01*
X1648330D01*
X1654428Y-658976D02*
X1650362D01*
Y-665074D01*
X1654428D01*
X1650362Y-662025D02*
X1652395D01*
X1662558Y-665074D02*
Y-658976D01*
X1666624Y-665074D01*
Y-658976D01*
X1668656Y-665074D02*
Y-661008D01*
X1670689Y-658976D01*
X1672722Y-661008D01*
Y-665074D01*
Y-662025D01*
X1668656D01*
X1674754Y-665074D02*
Y-658976D01*
X1676787Y-661008D01*
X1678820Y-658976D01*
Y-665074D01*
X1684918Y-658976D02*
X1680852D01*
Y-665074D01*
X1684918D01*
X1680852Y-662025D02*
X1682885D01*
X1686950Y-661008D02*
X1687967D01*
Y-662025D01*
X1686950D01*
Y-661008D01*
Y-664057D02*
X1687967D01*
Y-665074D01*
X1686950D01*
Y-664057D01*
X1635057Y-546618D02*
Y-540520D01*
X1638106D01*
X1639122Y-541536D01*
Y-543569D01*
X1638106Y-544585D01*
X1635057D01*
X1641155Y-546618D02*
Y-540520D01*
X1644204D01*
X1645220Y-541536D01*
Y-543569D01*
X1644204Y-544585D01*
X1641155D01*
X1643187D02*
X1645220Y-546618D01*
X1650302Y-540520D02*
X1648269D01*
X1647253Y-541536D01*
Y-545601D01*
X1648269Y-546618D01*
X1650302D01*
X1651318Y-545601D01*
Y-541536D01*
X1650302Y-540520D01*
X1657416D02*
X1655383D01*
X1656400D01*
Y-545601D01*
X1655383Y-546618D01*
X1654367D01*
X1653351Y-545601D01*
X1663514Y-540520D02*
X1659449D01*
Y-546618D01*
X1663514D01*
X1659449Y-543569D02*
X1661481D01*
X1669612Y-541536D02*
X1668596Y-540520D01*
X1666563D01*
X1665547Y-541536D01*
Y-545601D01*
X1666563Y-546618D01*
X1668596D01*
X1669612Y-545601D01*
X1671645Y-540520D02*
X1675710D01*
X1673677D01*
Y-546618D01*
X1677743Y-542552D02*
X1678759D01*
Y-543569D01*
X1677743D01*
Y-542552D01*
Y-545601D02*
X1678759D01*
Y-546618D01*
X1677743D01*
Y-545601D01*
X1254058Y-540774D02*
X1249993D01*
Y-546872D01*
X1254058D01*
X1249993Y-543823D02*
X1252025D01*
X1256091Y-546872D02*
Y-540774D01*
X1260156Y-546872D01*
Y-540774D01*
X1266254Y-541790D02*
X1265238Y-540774D01*
X1263205D01*
X1262189Y-541790D01*
Y-545855D01*
X1263205Y-546872D01*
X1265238D01*
X1266254Y-545855D01*
Y-543823D01*
X1264221D01*
X1268287Y-540774D02*
X1270319D01*
X1269303D01*
Y-546872D01*
X1268287D01*
X1270319D01*
X1273368D02*
Y-540774D01*
X1277434Y-546872D01*
Y-540774D01*
X1283532D02*
X1279466D01*
Y-546872D01*
X1283532D01*
X1279466Y-543823D02*
X1281499D01*
X1289630Y-540774D02*
X1285564D01*
Y-546872D01*
X1289630D01*
X1285564Y-543823D02*
X1287597D01*
X1291662Y-546872D02*
Y-540774D01*
X1294711D01*
X1295728Y-541790D01*
Y-543823D01*
X1294711Y-544839D01*
X1291662D01*
X1293695D02*
X1295728Y-546872D01*
X1297760Y-542806D02*
X1298777D01*
Y-543823D01*
X1297760D01*
Y-542806D01*
Y-545855D02*
X1298777D01*
Y-546872D01*
X1297760D01*
Y-545855D01*
X1252085Y-658976D02*
Y-665074D01*
X1255134D01*
X1256150Y-664057D01*
Y-659992D01*
X1255134Y-658976D01*
X1252085D01*
X1258183D02*
Y-665074D01*
X1260215Y-663041D01*
X1262248Y-665074D01*
Y-658976D01*
X1268346Y-659992D02*
X1267330Y-658976D01*
X1265297D01*
X1264281Y-659992D01*
Y-664057D01*
X1265297Y-665074D01*
X1267330D01*
X1268346Y-664057D01*
Y-662025D01*
X1266313D01*
X1276477Y-665074D02*
Y-658976D01*
X1280542Y-665074D01*
Y-658976D01*
X1285624D02*
X1283591D01*
X1282575Y-659992D01*
Y-664057D01*
X1283591Y-665074D01*
X1285624D01*
X1286640Y-664057D01*
Y-659992D01*
X1285624Y-658976D01*
X1288673Y-661008D02*
X1289689D01*
Y-662025D01*
X1288673D01*
Y-661008D01*
Y-664057D02*
X1289689D01*
Y-665074D01*
X1288673D01*
Y-664057D01*
X2166933Y-604276D02*
Y-598178D01*
X2169982D01*
X2170998Y-599194D01*
Y-601227D01*
X2169982Y-602243D01*
X2166933D01*
X2168965D02*
X2170998Y-604276D01*
X2177096Y-598178D02*
X2173031D01*
Y-604276D01*
X2177096D01*
X2173031Y-601227D02*
X2175063D01*
X2179129Y-598178D02*
Y-602243D01*
X2181161Y-604276D01*
X2183194Y-602243D01*
Y-598178D01*
X2185227Y-600210D02*
X2186243D01*
Y-601227D01*
X2185227D01*
Y-600210D01*
Y-603259D02*
X2186243D01*
Y-604276D01*
X2185227D01*
Y-603259D01*
X1250755Y-595892D02*
Y-601990D01*
X1253804D01*
X1254820Y-600973D01*
Y-596908D01*
X1253804Y-595892D01*
X1250755D01*
X1256853Y-601990D02*
Y-597924D01*
X1258885Y-595892D01*
X1260918Y-597924D01*
Y-601990D01*
Y-598941D01*
X1256853D01*
X1262951Y-595892D02*
X1267016D01*
X1264983D01*
Y-601990D01*
X1273114Y-595892D02*
X1269049D01*
Y-601990D01*
X1273114D01*
X1269049Y-598941D02*
X1271081D01*
X1275147Y-597924D02*
X1276163D01*
Y-598941D01*
X1275147D01*
Y-597924D01*
Y-600973D02*
X1276163D01*
Y-601990D01*
X1275147D01*
Y-600973D01*
X1323205Y-619352D02*
X1324221Y-618336D01*
X1326254D01*
X1327270Y-619352D01*
Y-623417D01*
X1326254Y-624434D01*
X1324221D01*
X1323205Y-623417D01*
Y-619352D01*
X1332352Y-624434D02*
Y-618336D01*
X1329303Y-621385D01*
X1333368D01*
X1335401Y-624434D02*
X1339466Y-620368D01*
X1341499Y-619352D02*
X1342515Y-618336D01*
X1344548D01*
X1345564Y-619352D01*
Y-623417D01*
X1344548Y-624434D01*
X1342515D01*
X1341499Y-623417D01*
Y-619352D01*
X1350646Y-624434D02*
Y-618336D01*
X1347597Y-621385D01*
X1351662D01*
X1353695Y-624434D02*
X1357760Y-620368D01*
X1363858Y-624434D02*
X1359793D01*
X1363858Y-620368D01*
Y-619352D01*
X1362842Y-618336D01*
X1360809D01*
X1359793Y-619352D01*
X1365891D02*
X1366907Y-618336D01*
X1368940D01*
X1369956Y-619352D01*
Y-623417D01*
X1368940Y-624434D01*
X1366907D01*
X1365891Y-623417D01*
Y-619352D01*
X1376054Y-624434D02*
X1371989D01*
X1376054Y-620368D01*
Y-619352D01*
X1375038Y-618336D01*
X1373005D01*
X1371989Y-619352D01*
X1382152Y-618336D02*
X1378087D01*
Y-621385D01*
X1380119Y-620368D01*
X1381136D01*
X1382152Y-621385D01*
Y-623417D01*
X1381136Y-624434D01*
X1379103D01*
X1378087Y-623417D01*
X1660010Y-686916D02*
X1655945D01*
Y-693014D01*
X1660010D01*
X1655945Y-689965D02*
X1657977D01*
X1662043Y-686916D02*
Y-690981D01*
X1664075Y-693014D01*
X1666108Y-690981D01*
Y-686916D01*
X1668141D02*
Y-693014D01*
X1671190D01*
X1672206Y-691997D01*
Y-690981D01*
X1671190Y-689965D01*
X1668141D01*
X1671190D01*
X1672206Y-688948D01*
Y-687932D01*
X1671190Y-686916D01*
X1668141D01*
X1674239Y-689965D02*
X1678304D01*
X1680337Y-693014D02*
Y-686916D01*
X1684402Y-693014D01*
Y-686916D01*
X1689484D02*
X1687451D01*
X1686435Y-687932D01*
Y-691997D01*
X1687451Y-693014D01*
X1689484D01*
X1690500Y-691997D01*
Y-687932D01*
X1689484Y-686916D01*
X1692533Y-693014D02*
Y-686916D01*
X1695582D01*
X1696598Y-687932D01*
Y-689965D01*
X1695582Y-690981D01*
X1692533D01*
X1694565D02*
X1696598Y-693014D01*
X1698631D02*
Y-688948D01*
X1700663Y-686916D01*
X1702696Y-688948D01*
Y-693014D01*
Y-689965D01*
X1698631D01*
X1704729D02*
X1708794D01*
X1710827Y-686916D02*
Y-693014D01*
X1713876D01*
X1714892Y-691997D01*
Y-690981D01*
X1713876Y-689965D01*
X1710827D01*
X1713876D01*
X1714892Y-688948D01*
Y-687932D01*
X1713876Y-686916D01*
X1710827D01*
X1720990Y-693014D02*
X1716925D01*
X1720990Y-688948D01*
Y-687932D01*
X1719974Y-686916D01*
X1717941D01*
X1716925Y-687932D01*
X1723023D02*
X1724039Y-686916D01*
X1726072D01*
X1727088Y-687932D01*
Y-691997D01*
X1726072Y-693014D01*
X1724039D01*
X1723023Y-691997D01*
Y-687932D01*
X1729121Y-693014D02*
Y-691997D01*
X1730137D01*
Y-693014D01*
X1729121D01*
X1734202D02*
Y-686916D01*
X1737251D01*
X1738268Y-687932D01*
Y-689965D01*
X1737251Y-690981D01*
X1734202D01*
X1744366Y-688948D02*
X1741317D01*
X1740300Y-689965D01*
Y-691997D01*
X1741317Y-693014D01*
X1744366D01*
X1746398Y-686916D02*
Y-693014D01*
X1749447D01*
X1750464Y-691997D01*
Y-690981D01*
Y-689965D01*
X1749447Y-688948D01*
X1746398D01*
X1752496Y-686916D02*
Y-693014D01*
X1755545D01*
X1756562Y-691997D01*
Y-687932D01*
X1755545Y-686916D01*
X1752496D01*
X1759611Y-693014D02*
X1761643D01*
X1762660Y-691997D01*
Y-689965D01*
X1761643Y-688948D01*
X1759611D01*
X1758594Y-689965D01*
Y-691997D01*
X1759611Y-693014D01*
X1768758Y-688948D02*
X1765709D01*
X1764692Y-689965D01*
Y-691997D01*
X1765709Y-693014D01*
X1768758D01*
X960363Y-681691D02*
X960072Y-681110D01*
X959492Y-680529D01*
X958911Y-680239D01*
X957749D01*
X957168Y-680529D01*
X956587Y-681110D01*
X956297Y-681691D01*
X956007Y-682562D01*
Y-684014D01*
X956297Y-684885D01*
X956587Y-685466D01*
X957168Y-686047D01*
X957749Y-686338D01*
X958911D01*
X959492Y-686047D01*
X960072Y-685466D01*
X960363Y-684885D01*
X963819Y-680239D02*
X963238Y-680529D01*
X962657Y-681110D01*
X962367Y-681691D01*
X962076Y-682562D01*
Y-684014D01*
X962367Y-684885D01*
X962657Y-685466D01*
X963238Y-686047D01*
X963819Y-686338D01*
X964980D01*
X965561Y-686047D01*
X966142Y-685466D01*
X966432Y-684885D01*
X966723Y-684014D01*
Y-682562D01*
X966432Y-681691D01*
X966142Y-681110D01*
X965561Y-680529D01*
X964980Y-680239D01*
X963819D01*
X968146D02*
Y-686338D01*
Y-680239D02*
X972212Y-686338D01*
Y-680239D02*
Y-686338D01*
X973896Y-680239D02*
Y-686338D01*
Y-680239D02*
X977671D01*
X973896Y-683143D02*
X976219D01*
X978368Y-680239D02*
Y-686338D01*
X979646Y-680239D02*
Y-686338D01*
Y-680239D02*
X981679D01*
X982550Y-680529D01*
X983131Y-681110D01*
X983422Y-681691D01*
X983712Y-682562D01*
Y-684014D01*
X983422Y-684885D01*
X983131Y-685466D01*
X982550Y-686047D01*
X981679Y-686338D01*
X979646D01*
X988852Y-680239D02*
X985077D01*
Y-686338D01*
X988852D01*
X985077Y-683143D02*
X987400D01*
X989869Y-680239D02*
Y-686338D01*
Y-680239D02*
X993934Y-686338D01*
Y-680239D02*
Y-686338D01*
X997652Y-680239D02*
Y-686338D01*
X995619Y-680239D02*
X999685D01*
X1000411D02*
Y-686338D01*
X1006335D02*
X1004012Y-680239D01*
X1001689Y-686338D01*
X1002560Y-684305D02*
X1005464D01*
X1007758Y-680239D02*
Y-686338D01*
X1011243D01*
X2290945Y1184046D02*
Y1185063D01*
X2291961D01*
Y1184046D01*
X2290945D01*
X2296026D02*
Y1190144D01*
X2299075D01*
X2300092Y1189128D01*
Y1187095D01*
X2299075Y1186079D01*
X2296026D01*
X2298059D02*
X2300092Y1184046D01*
X2305173D02*
X2303141D01*
X2302124Y1185063D01*
Y1187095D01*
X2303141Y1188112D01*
X2305173D01*
X2306190Y1187095D01*
Y1186079D01*
X2302124D01*
X2308222Y1184046D02*
X2310255D01*
X2309239D01*
Y1190144D01*
X2308222D01*
X2316353Y1184046D02*
X2314320D01*
X2313304Y1185063D01*
Y1187095D01*
X2314320Y1188112D01*
X2316353D01*
X2317369Y1187095D01*
Y1186079D01*
X2313304D01*
X2320418Y1188112D02*
X2322451D01*
X2323467Y1187095D01*
Y1184046D01*
X2320418D01*
X2319402Y1185063D01*
X2320418Y1186079D01*
X2323467D01*
X2325500Y1184046D02*
X2328549D01*
X2329565Y1185063D01*
X2328549Y1186079D01*
X2326516D01*
X2325500Y1187095D01*
X2326516Y1188112D01*
X2329565D01*
X2334647Y1184046D02*
X2332614D01*
X2331598Y1185063D01*
Y1187095D01*
X2332614Y1188112D01*
X2334647D01*
X2335663Y1187095D01*
Y1186079D01*
X2331598D01*
X2337696Y1190144D02*
Y1184046D01*
X2340745D01*
X2341761Y1185063D01*
Y1186079D01*
X2340745Y1187095D01*
X2337696D01*
X2340745D01*
X2341761Y1188112D01*
Y1189128D01*
X2340745Y1190144D01*
X2337696D01*
X2343794Y1188112D02*
Y1185063D01*
X2344810Y1184046D01*
X2347859D01*
Y1183030D01*
X2346843Y1182014D01*
X2345827D01*
X2347859Y1184046D02*
Y1188112D01*
X2353957Y1184046D02*
X2349892D01*
X2353957Y1188112D01*
Y1189128D01*
X2352941Y1190144D01*
X2350908D01*
X2349892Y1189128D01*
X2123305Y1181506D02*
Y1182523D01*
X2124321D01*
Y1181506D01*
X2123305D01*
X2128386D02*
Y1187604D01*
X2131435D01*
X2132452Y1186588D01*
Y1184555D01*
X2131435Y1183539D01*
X2128386D01*
X2130419D02*
X2132452Y1181506D01*
X2137533D02*
X2135501D01*
X2134484Y1182523D01*
Y1184555D01*
X2135501Y1185572D01*
X2137533D01*
X2138550Y1184555D01*
Y1183539D01*
X2134484D01*
X2140582Y1181506D02*
X2142615D01*
X2141599D01*
Y1187604D01*
X2140582D01*
X2148713Y1181506D02*
X2146680D01*
X2145664Y1182523D01*
Y1184555D01*
X2146680Y1185572D01*
X2148713D01*
X2149729Y1184555D01*
Y1183539D01*
X2145664D01*
X2152778Y1185572D02*
X2154811D01*
X2155827Y1184555D01*
Y1181506D01*
X2152778D01*
X2151762Y1182523D01*
X2152778Y1183539D01*
X2155827D01*
X2157860Y1181506D02*
X2160909D01*
X2161925Y1182523D01*
X2160909Y1183539D01*
X2158876D01*
X2157860Y1184555D01*
X2158876Y1185572D01*
X2161925D01*
X2167007Y1181506D02*
X2164974D01*
X2163958Y1182523D01*
Y1184555D01*
X2164974Y1185572D01*
X2167007D01*
X2168023Y1184555D01*
Y1183539D01*
X2163958D01*
X2170056Y1187604D02*
Y1181506D01*
X2173105D01*
X2174121Y1182523D01*
Y1186588D01*
X2173105Y1187604D01*
X2170056D01*
X2177170Y1185572D02*
X2179203D01*
X2180219Y1184555D01*
Y1181506D01*
X2177170D01*
X2176154Y1182523D01*
X2177170Y1183539D01*
X2180219D01*
X2183268Y1186588D02*
Y1185572D01*
X2182252D01*
X2184285D01*
X2183268D01*
Y1182523D01*
X2184285Y1181506D01*
X2190383D02*
X2188350D01*
X2187334Y1182523D01*
Y1184555D01*
X2188350Y1185572D01*
X2190383D01*
X2191399Y1184555D01*
Y1183539D01*
X2187334D01*
X2197497Y1181506D02*
X2193432D01*
X2197497Y1185572D01*
Y1186588D01*
X2196481Y1187604D01*
X2194448D01*
X2193432Y1186588D01*
D14*
X2103419Y211855D02*
X2298999D01*
X2349799Y-497434D02*
Y249326D01*
X2062779D02*
X2349799D01*
X2062779Y-497434D02*
Y249326D01*
Y-497434D02*
X2349799D01*
D16*
X667434Y365840D02*
G03*
X667434Y365840I-5000J0D01*
G01*
X322511Y222770D02*
G03*
X322511Y222770I-500J0D01*
G01*
X652050Y574440D02*
G03*
X652050Y574440I-5000J0D01*
G01*
X154850Y308492D02*
G03*
X154850Y308492I-250J0D01*
G01*
X128516Y654730D02*
G03*
X128516Y654730I-250J0D01*
G01*
X667083Y439782D02*
G03*
X667083Y439782I-5000J0D01*
G01*
X303115Y365606D02*
G03*
X303115Y365606I-5000J0D01*
G01*
X332170Y587460D02*
G03*
X332170Y587460I-250J0D01*
G01*
X408363Y122122D02*
G03*
X408363Y122122I-500J0D01*
G01*
X193200Y308570D02*
G03*
X193200Y308570I-250J0D01*
G01*
X361100Y237506D02*
G03*
X361100Y237506I-500J0D01*
G01*
X841544Y566668D02*
X848044Y573168D01*
X841544Y543168D02*
Y573168D01*
Y543168D02*
X871544D01*
Y573168D01*
X841544D02*
X871544D01*
X553956Y168762D02*
X558956Y163762D01*
X518956Y168762D02*
X558956D01*
X518956Y128762D02*
Y168762D01*
Y128762D02*
X558956D01*
Y168762D01*
X811756Y350490D02*
X841756D01*
X811756D02*
Y380490D01*
X841756D01*
Y350490D02*
Y380490D01*
X835256Y350490D02*
X841756Y356990D01*
X835256Y387320D02*
X841756Y393820D01*
Y387320D02*
Y417320D01*
X811756D02*
X841756D01*
X811756Y387320D02*
Y417320D01*
Y387320D02*
X841756D01*
D19*
X-302455Y-711464D02*
X2389945D01*
X-353255Y856986D02*
X-302455D01*
X-353255Y-222514D02*
X-302455D01*
X345245Y-762264D02*
Y-711464D01*
X1043745Y-762264D02*
Y-711464D01*
X1742245Y-762264D02*
Y-711464D01*
X-302455Y1345936D02*
X2389945D01*
X345245D02*
Y1396736D01*
X1043745Y1345936D02*
Y1396736D01*
X1742245Y1345936D02*
Y1396736D01*
X-353195Y1397406D02*
X2440805D01*
Y-761594D02*
Y1397406D01*
X2389945Y-711464D02*
Y1345936D01*
Y856986D02*
X2440745D01*
X2389945Y317236D02*
X2440745D01*
X2389945Y-222514D02*
X2440745D01*
X-353195Y-761594D02*
X2440805D01*
X1516245Y1130706D02*
Y1346606D01*
Y1130706D02*
X2390005D01*
X1516245Y1168806D02*
X2389945D01*
X1516245Y1245006D02*
X2390005D01*
X1516245Y1206906D02*
X2389945D01*
X1516245Y1288186D02*
X2389945D01*
X1607685Y1130706D02*
Y1288186D01*
X2102985Y1130706D02*
Y1288186D01*
X2273165Y1130706D02*
Y1288186D01*
X1627945Y-559064D02*
Y-522488D01*
X1246945D02*
X1627945D01*
X817745D02*
X1246945D01*
X1627945Y-711464D02*
Y-559064D01*
X2161345Y-711464D02*
Y-581670D01*
X1246945Y-711464D02*
Y-522488D01*
X2389945Y-711464D02*
Y-522488D01*
X1627945D02*
X2389945D01*
X1246945Y-580908D02*
X2389945D01*
X1246945Y-644154D02*
X2389945D01*
X1246945Y-711464D02*
X2389945D01*
X817745D02*
Y-522488D01*
Y-711464D02*
X1246945D01*
D21*
X2114849Y44088D02*
D03*
D192*
X467614Y351540D02*
Y402340D01*
X391414Y351540D02*
X467614D01*
X391414D02*
Y402340D01*
X471960Y88900D02*
X521490D01*
Y114300D01*
X470690D02*
X521490D01*
X470690Y88900D02*
Y114300D01*
X614172Y351540D02*
Y402340D01*
X537972Y351540D02*
X614172D01*
X537972D02*
Y402340D01*
D223*
X587799Y72960D02*
G03*
X587799Y72960I-339J0D01*
G01*
X424839Y10531D02*
G03*
X424839Y10531I-3900J0D01*
G01*
X559940Y318571D02*
G03*
X559940Y318571I-1250J0D01*
G01*
X138968Y492410D02*
G03*
X138968Y492410I-3758J0D01*
G01*
X867468Y277810D02*
G03*
X867468Y277810I-3758J0D01*
G01*
X883832Y655354D02*
G03*
X883832Y655354I-1626J0D01*
G01*
X719681Y158152D02*
G03*
X719681Y158152I-1704J0D01*
G01*
X809274Y158150D02*
G03*
X809274Y158150I-1704J0D01*
G01*
X867468Y506410D02*
G03*
X867468Y506410I-3758J0D01*
G01*
X138968Y263810D02*
G03*
X138968Y263810I-3758J0D01*
G01*
X731361Y87939D02*
G03*
X731361Y87939I-3900J0D01*
G01*
X355420Y207465D02*
Y216965D01*
X372420Y207465D02*
Y216965D01*
X355420D02*
X372420D01*
X355420Y207465D02*
X372420D01*
X482814Y503220D02*
X515814D01*
X482814Y519220D02*
X515814D01*
Y503220D02*
Y519220D01*
X482814Y503220D02*
Y519220D01*
X572112Y150962D02*
Y171962D01*
X589112D01*
Y150962D02*
Y171962D01*
X572112Y150962D02*
X589112D01*
X423230Y226210D02*
Y242210D01*
X435230D01*
Y226210D02*
Y242210D01*
X423230Y226210D02*
X435230D01*
X574710Y-590D02*
Y76410D01*
X664210Y-590D02*
Y76410D01*
X574710D02*
X664210D01*
X574710Y-590D02*
X664210D01*
X653684Y308590D02*
X698684D01*
X653684Y374590D02*
X698684D01*
Y308590D02*
Y374590D01*
X653684Y308590D02*
Y374590D01*
X426939Y4531D02*
Y94528D01*
X390942D02*
X426939D01*
X390942Y4531D02*
Y94528D01*
Y4531D02*
X426939D01*
X255365Y220140D02*
X268365D01*
X255365Y211140D02*
X268365D01*
Y220140D01*
X255365Y211140D02*
X255365Y220140D01*
X556250Y303971D02*
Y320471D01*
X568750Y303971D02*
Y320471D01*
X556250D02*
X568750D01*
X556250Y303971D02*
X568750D01*
X631325Y103176D02*
X648325D01*
X631325Y116676D02*
X648325D01*
X631325Y103176D02*
Y116676D01*
X648325Y103176D02*
Y116676D01*
X317011Y198270D02*
Y227270D01*
Y198270D02*
X345011D01*
Y227270D01*
X317011D02*
X345011D01*
X306150Y333430D02*
X320150D01*
X306150Y302930D02*
X320150D01*
X306150D02*
Y333430D01*
X320150Y302930D02*
Y333430D01*
X692300Y565690D02*
Y619690D01*
X638300Y565690D02*
Y619690D01*
X692300D01*
X638300Y565690D02*
X692300D01*
X723344Y600271D02*
Y608271D01*
X717344Y600271D02*
Y608271D01*
X723344D01*
X717344Y600271D02*
X723344D01*
X663900Y156500D02*
X681900D01*
X663900Y127500D02*
X681900D01*
Y156500D01*
X663900Y127500D02*
Y156500D01*
X322040Y637579D02*
Y687130D01*
X382040D01*
Y637579D02*
Y687130D01*
X322040Y637579D02*
X382040D01*
X122862Y512160D02*
X326062D01*
Y486660D02*
Y512160D01*
X122862Y486660D02*
X326062D01*
X122862D02*
Y512160D01*
X876058Y258060D02*
Y283560D01*
X672858D02*
X876058D01*
X672858Y258060D02*
Y283560D01*
Y258060D02*
X876058D01*
X359212Y385903D02*
X376212D01*
X359212Y376403D02*
X376212D01*
X359212D02*
Y385903D01*
X376212Y376403D02*
Y385903D01*
X437446Y320278D02*
X443446D01*
X437446Y331278D02*
X443446D01*
X437446Y320278D02*
Y331278D01*
X443446Y320278D02*
Y331278D01*
X544360Y553310D02*
X551360Y560810D01*
Y553310D02*
Y696310D01*
X447360D02*
X551360D01*
X447360Y553310D02*
Y696310D01*
Y553310D02*
X551360D01*
X879748Y641466D02*
X896348D01*
Y658066D01*
X879748D02*
X896348D01*
X879748Y641466D02*
Y658066D01*
X750750Y399360D02*
Y408360D01*
X735000Y399360D02*
X752000D01*
X735000Y408360D02*
X752000D01*
Y399360D02*
Y408360D01*
X735000Y399360D02*
Y408360D01*
Y362530D02*
Y371530D01*
X752000Y362530D02*
Y371530D01*
X735000D02*
X752000D01*
X735000Y362530D02*
X752000D01*
X750750D02*
Y371530D01*
Y412060D02*
Y421060D01*
X735000Y412060D02*
X752000D01*
X735000Y421060D02*
X752000D01*
Y412060D02*
Y421060D01*
X735000Y412060D02*
Y421060D01*
X577660Y311430D02*
X582740D01*
X580200Y313970D02*
X582740Y311430D01*
X577660D02*
X580200Y313970D01*
X577660D02*
X582740D01*
X576200Y320700D02*
X584200D01*
Y304700D02*
Y320700D01*
X576200Y304700D02*
X584200D01*
X576200D02*
Y320700D01*
X428570Y203740D02*
X438070D01*
X428570Y186240D02*
Y203740D01*
X438070Y186240D02*
Y203740D01*
X428570Y186240D02*
X438070D01*
X391414Y402340D02*
X467614Y402340D01*
X190460Y641840D02*
X258460D01*
X190460Y676340D02*
X258460D01*
Y641840D02*
Y676340D01*
X190460Y641840D02*
Y676340D01*
X152850Y307492D02*
X166850D01*
X152850D02*
Y317492D01*
X166850D01*
Y307492D02*
Y317492D01*
X700865Y155010D02*
X720865D01*
X700865D02*
Y175010D01*
X720865D01*
Y155010D02*
Y175010D01*
X718960Y150760D02*
X736460D01*
X718960Y141260D02*
X736460D01*
X718960D02*
Y150760D01*
X736460Y141260D02*
Y150760D01*
X300320Y229240D02*
X306320D01*
X300320Y218240D02*
Y229240D01*
Y218240D02*
X306320D01*
Y229240D01*
X506610Y226280D02*
Y232280D01*
X495610D02*
X506610D01*
X495610Y226280D02*
Y232280D01*
Y226280D02*
X506610D01*
X575176Y174544D02*
Y177844D01*
Y174544D02*
X581476D01*
Y177844D01*
X575176D02*
X581476D01*
X96360Y651340D02*
X140360D01*
Y691840D01*
X96360Y651340D02*
Y691840D01*
X140360D01*
X448144Y542084D02*
Y548084D01*
Y542084D02*
X459144D01*
Y548084D01*
X448144D02*
X459144D01*
X479972Y542084D02*
Y548084D01*
X468972D02*
X479972D01*
X468972Y542084D02*
Y548084D01*
Y542084D02*
X479972D01*
X520998Y506228D02*
Y517228D01*
X526998D01*
Y506228D02*
Y517228D01*
X520998Y506228D02*
X526998D01*
X471468Y505974D02*
Y516974D01*
X477468D01*
Y505974D02*
Y516974D01*
X471468Y505974D02*
X477468D01*
X825970Y141257D02*
Y150757D01*
X808470Y141257D02*
Y150757D01*
Y141257D02*
X825970D01*
X808470Y150757D02*
X825970D01*
X784492Y132300D02*
Y141800D01*
X801992Y132300D02*
Y141800D01*
X784492D02*
X801992D01*
X784492Y132300D02*
X801992D01*
X825706Y173824D02*
Y184824D01*
X819706Y173824D02*
X825706D01*
X819706D02*
Y184824D01*
X825706D01*
X730050Y173820D02*
Y184820D01*
X736050D01*
Y173820D02*
Y184820D01*
X730050Y173820D02*
X736050D01*
X655200Y122000D02*
Y133000D01*
X661200D01*
Y122000D02*
Y133000D01*
X655200Y122000D02*
X661200D01*
X634912Y645716D02*
Y651716D01*
X623912D02*
X634912D01*
X623912Y645716D02*
Y651716D01*
Y645716D02*
X634912D01*
Y637334D02*
Y643334D01*
X623912D02*
X634912D01*
X623912Y637334D02*
Y643334D01*
Y637334D02*
X634912D01*
X561102Y108210D02*
Y119210D01*
X567102D01*
Y108210D02*
Y119210D01*
X561102Y108210D02*
X567102D01*
X510234Y152660D02*
Y163660D01*
X504234Y152660D02*
X510234D01*
X504234D02*
Y163660D01*
X510234D01*
X502506Y136658D02*
X508506D01*
Y147658D01*
X502506D02*
X508506D01*
X502506Y136658D02*
Y147658D01*
X592678Y154248D02*
X595978D01*
Y160548D01*
X592678D02*
X595978D01*
X592678Y154248D02*
Y160548D01*
X408380Y189490D02*
Y200490D01*
X402380Y189490D02*
X408380D01*
X402380D02*
Y200490D01*
X408380D01*
X417270Y189490D02*
Y200490D01*
X411270Y189490D02*
X417270D01*
X411270D02*
Y200490D01*
X417270D01*
X426160Y189490D02*
Y200490D01*
X420160Y189490D02*
X426160D01*
X420160D02*
Y200490D01*
X426160D01*
X564280Y177360D02*
Y188360D01*
X558280Y177360D02*
X564280D01*
X558280D02*
Y188360D01*
X564280D01*
X443940Y167900D02*
Y178900D01*
X437940Y167900D02*
X443940D01*
X437940D02*
Y178900D01*
X443940D01*
X874120Y151870D02*
Y180870D01*
X856120Y151870D02*
Y180870D01*
X874120D01*
X856120Y151870D02*
X874120D01*
X677530Y61110D02*
X695530D01*
X677530Y90110D02*
X695530D01*
X677530Y61110D02*
Y90110D01*
X695530Y61110D02*
Y90110D01*
X750750Y349830D02*
Y358830D01*
X735000Y349830D02*
X752000D01*
X735000Y358830D02*
X752000D01*
Y349830D02*
Y358830D01*
X735000Y349830D02*
Y358830D01*
X750750Y386660D02*
Y395660D01*
X735000Y386660D02*
X752000D01*
X735000Y395660D02*
X752000D01*
Y386660D02*
Y395660D01*
X735000Y386660D02*
Y395660D01*
Y373960D02*
Y382960D01*
X752000Y373960D02*
Y382960D01*
X735000D02*
X752000D01*
X735000Y373960D02*
X752000D01*
X750750D02*
Y382960D01*
X652510Y99950D02*
X662010D01*
Y117450D01*
X652510Y99950D02*
Y117450D01*
X662010D01*
X537972Y402340D02*
X614172Y402340D01*
X154214Y369338D02*
Y403838D01*
X222214Y369338D02*
Y403838D01*
X154214D02*
X222214D01*
X154214Y369338D02*
X222214D01*
X506480Y524790D02*
Y535790D01*
X500480Y524790D02*
Y535790D01*
X506480D01*
X500480Y524790D02*
X506480D01*
X491950D02*
X497950D01*
X491950Y535790D02*
X497950D01*
X491950Y524790D02*
Y535790D01*
X497950Y524790D02*
Y535790D01*
X577072Y534976D02*
X588072D01*
X577072Y528976D02*
X588072D01*
X577072D02*
Y534976D01*
X588072Y528976D02*
Y534976D01*
X615250Y555836D02*
X626250D01*
X615250Y549836D02*
X626250D01*
X615250D02*
Y555836D01*
X626250Y549836D02*
Y555836D01*
X484680Y531330D02*
X495680D01*
X484680Y537330D02*
X495680D01*
Y531330D02*
Y537330D01*
X484680Y531330D02*
Y537330D01*
X502710D02*
X513710D01*
X502710Y531330D02*
X513710D01*
X502710D02*
Y537330D01*
X513710Y531330D02*
Y537330D01*
X576962Y519496D02*
X587962D01*
X576962Y525496D02*
X587962D01*
Y519496D02*
Y525496D01*
X576962Y519496D02*
Y525496D01*
X603440Y626336D02*
X614440D01*
X603440Y632336D02*
X614440D01*
Y626336D02*
Y632336D01*
X603440Y626336D02*
Y632336D01*
X677662Y36530D02*
Y47530D01*
X671662Y36530D02*
Y47530D01*
X677662D01*
X671662Y36530D02*
X677662D01*
X560909Y30243D02*
X566909D01*
X560909Y41243D02*
X566909D01*
X560909Y30243D02*
Y41243D01*
X566909Y30243D02*
Y41243D01*
X661100Y90100D02*
Y96100D01*
X672100Y90100D02*
Y96100D01*
X661100D02*
X672100D01*
X661100Y90100D02*
X672100D01*
X577072Y510646D02*
X588072D01*
X577072Y516646D02*
X588072D01*
Y510646D02*
Y516646D01*
X577072Y510646D02*
Y516646D01*
X829996Y115960D02*
Y132960D01*
X820496Y115960D02*
Y132960D01*
X829996D01*
X820496Y115960D02*
X829996D01*
X775312Y155870D02*
Y166870D01*
X781312Y155870D02*
Y166870D01*
X775312Y155870D02*
X781312D01*
X775312Y166870D02*
X781312D01*
X787629Y179374D02*
X798629D01*
X787629Y185374D02*
X798629D01*
Y179374D02*
Y185374D01*
X787629Y179374D02*
Y185374D01*
X819670Y155870D02*
Y166870D01*
X825670Y155870D02*
Y166870D01*
X819670Y155870D02*
X825670D01*
X819670Y166870D02*
X825670D01*
X835612Y155790D02*
Y166790D01*
X829612Y155790D02*
Y166790D01*
X835612D01*
X829612Y155790D02*
X835612D01*
X775256Y173062D02*
Y184062D01*
X781256Y173062D02*
Y184062D01*
X775256Y173062D02*
X781256D01*
X775256Y184062D02*
X781256D01*
X730046Y155870D02*
Y166870D01*
X736046Y155870D02*
Y166870D01*
X730046Y155870D02*
X736046D01*
X730046Y166870D02*
X736046D01*
X730913Y115960D02*
X740413D01*
X730913Y132960D02*
X740413D01*
X730913Y115960D02*
Y132960D01*
X740413Y115960D02*
Y132960D01*
X697826Y179374D02*
X708826D01*
X697826Y185374D02*
X708826D01*
Y179374D02*
Y185374D01*
X697826Y179374D02*
Y185374D01*
X623404Y654352D02*
X634404D01*
X623404Y660352D02*
X634404D01*
Y654352D02*
Y660352D01*
X623404Y654352D02*
Y660352D01*
X521410Y438060D02*
Y449060D01*
X515410Y438060D02*
Y449060D01*
X521410D01*
X515410Y438060D02*
X521410D01*
X502710D02*
X508710D01*
X502710Y449060D02*
X508710D01*
X502710Y438060D02*
Y449060D01*
X508710Y438060D02*
Y449060D01*
X457914Y438061D02*
Y449061D01*
X451914Y438061D02*
Y449061D01*
X457914D01*
X451914Y438061D02*
X457914D01*
X464614D02*
X470614D01*
X464614Y449061D02*
X470614D01*
X464614Y438061D02*
Y449061D01*
X470614Y438061D02*
Y449061D01*
X483314Y438061D02*
Y449061D01*
X477314Y438061D02*
Y449061D01*
X483314D01*
X477314Y438061D02*
X483314D01*
X490014D02*
X496014D01*
X490014Y449061D02*
X496014D01*
X490014Y438061D02*
Y449061D01*
X496014Y438061D02*
Y449061D01*
X523792Y103384D02*
Y114384D01*
X529792Y103384D02*
Y114384D01*
X523792Y103384D02*
X529792D01*
X523792Y114384D02*
X529792D01*
X542306D02*
X548306D01*
X542306Y103384D02*
X548306D01*
Y114384D01*
X542306Y103384D02*
Y114384D01*
X493902Y130898D02*
X499902D01*
X493902Y141898D02*
X499902D01*
X493902Y130898D02*
Y141898D01*
X499902Y130898D02*
Y141898D01*
X533670Y103384D02*
X539670D01*
X533670Y114384D02*
X539670D01*
X533670Y103384D02*
Y114384D01*
X539670Y103384D02*
Y114384D01*
X509054Y118825D02*
Y124825D01*
X498055Y118825D02*
Y124825D01*
Y118825D02*
X509054D01*
X498055Y124825D02*
X509054D01*
X557704Y103384D02*
Y114384D01*
X551704Y103384D02*
Y114384D01*
X557704D01*
X551704Y103384D02*
X557704D01*
X450132Y188474D02*
X456132D01*
X450132Y199474D02*
X456132D01*
X450132Y188474D02*
Y199474D01*
X456132Y188474D02*
Y199474D01*
X440988Y188474D02*
X446988D01*
X440988Y199474D02*
X446988D01*
X440988Y188474D02*
Y199474D01*
X446988Y188474D02*
Y199474D01*
X583360Y180240D02*
Y186240D01*
X572360Y180240D02*
Y186240D01*
Y180240D02*
X583360D01*
X572360Y186240D02*
X583360D01*
X399304Y188904D02*
Y199904D01*
X393304Y188904D02*
Y199904D01*
X399304D01*
X393304Y188904D02*
X399304D01*
X376379D02*
X382379D01*
X376379Y199904D02*
X382379D01*
X376379Y188904D02*
Y199904D01*
X382379Y188904D02*
Y199904D01*
X780812Y361998D02*
X791812D01*
X780812Y355998D02*
X791812D01*
X780812D02*
Y361998D01*
X791812Y355998D02*
Y361998D01*
X780812Y370888D02*
X791812D01*
X780812Y364888D02*
X791812D01*
X780812D02*
Y370888D01*
X791812Y364888D02*
Y370888D01*
Y373778D02*
Y379778D01*
X780812Y373778D02*
Y379778D01*
Y373778D02*
X791812D01*
X780812Y379778D02*
X791812D01*
Y394098D02*
Y400098D01*
X780812Y394098D02*
Y400098D01*
Y394098D02*
X791812D01*
X780812Y400098D02*
X791812D01*
X591167Y131665D02*
Y137665D01*
X602167Y131665D02*
Y137665D01*
X591167D02*
X602167D01*
X591167Y131665D02*
X602167D01*
X791812Y402988D02*
Y408988D01*
X780812Y402988D02*
Y408988D01*
Y402988D02*
X791812D01*
X780812Y408988D02*
X791812D01*
Y411878D02*
Y417878D01*
X780812Y411878D02*
Y417878D01*
Y411878D02*
X791812D01*
X780812Y417878D02*
X791812D01*
X856955Y344957D02*
Y350957D01*
X867955Y344957D02*
Y350957D01*
X856955D02*
X867955D01*
X856955Y344957D02*
X867955D01*
X856955Y362657D02*
Y368657D01*
X867955Y362657D02*
Y368657D01*
X856955D02*
X867955D01*
X856955Y362657D02*
X867955D01*
X856955Y375357D02*
Y381357D01*
X867955Y375357D02*
Y381357D01*
X856955D02*
X867955D01*
X856955Y375357D02*
X867955D01*
X856955Y388057D02*
Y394057D01*
X867955Y388057D02*
Y394057D01*
X856955D02*
X867955D01*
X856955Y388057D02*
X867955D01*
X856955Y400757D02*
Y406757D01*
X867955Y400757D02*
Y406757D01*
X856955D02*
X867955D01*
X856955Y400757D02*
X867955D01*
X856955Y413457D02*
Y419457D01*
X867955Y413457D02*
Y419457D01*
X856955D02*
X867955D01*
X856955Y413457D02*
X867955D01*
X874978Y647198D02*
Y658198D01*
X868978Y647198D02*
Y658198D01*
X874978D01*
X868978Y647198D02*
X874978D01*
X882480Y666716D02*
X893480D01*
X882480Y672716D02*
X893480D01*
Y666716D02*
Y672716D01*
X882480Y666716D02*
Y672716D01*
X891335Y632291D02*
X902335D01*
X891335Y626291D02*
X902335D01*
X891335D02*
Y632291D01*
X902335Y626291D02*
Y632291D01*
X885754Y24350D02*
X896754D01*
X885754Y30350D02*
X896754D01*
Y24350D02*
Y30350D01*
X885754Y24350D02*
Y30350D01*
X790458Y155008D02*
X810458D01*
X790458D02*
Y175008D01*
X810458D01*
Y155008D02*
Y175008D01*
X343332Y175904D02*
Y192904D01*
X333832Y175904D02*
Y192904D01*
X343332D01*
X333832Y175904D02*
X343332D01*
X379190Y592136D02*
X390190D01*
X379190D02*
Y598136D01*
X390190D01*
Y592136D02*
Y598136D01*
X121750Y639228D02*
Y645228D01*
Y639228D02*
X132750D01*
Y645228D01*
X121750D02*
X132750D01*
X103970Y639228D02*
Y645228D01*
Y639228D02*
X114970D01*
Y645228D01*
X103970D02*
X114970D01*
X291339Y207480D02*
X299339D01*
X291339Y213480D02*
X299339D01*
Y207480D02*
Y213480D01*
X291339Y207480D02*
Y213480D01*
X792270Y658941D02*
X798270D01*
X792270Y666941D02*
X798270D01*
X792270Y658941D02*
Y666941D01*
X798270Y658941D02*
Y666941D01*
X792000Y600271D02*
X798000D01*
X792000Y608271D02*
X798000D01*
X792000Y600271D02*
Y608271D01*
X798000Y600271D02*
Y608271D01*
X890238Y14904D02*
Y19984D01*
Y14904D02*
X892778Y17444D01*
X890238Y19984D02*
X892778Y17444D01*
Y14904D02*
Y19984D01*
X899508Y13444D02*
Y21444D01*
X883508Y13444D02*
X899508D01*
X883508D02*
Y21444D01*
X899508D01*
X391804Y336372D02*
Y345872D01*
X408804Y336372D02*
Y345872D01*
X391804D02*
X408804D01*
X391804Y336372D02*
X408804D01*
X569400Y423800D02*
X575400D01*
X569400Y412800D02*
X575400D01*
Y423800D01*
X569400Y412800D02*
Y423800D01*
X581467D02*
X587467D01*
X581467Y412800D02*
X587467D01*
Y423800D01*
X581467Y412800D02*
Y423800D01*
X591167Y122972D02*
Y128972D01*
X602167Y122972D02*
Y128972D01*
X591167D02*
X602167D01*
X591167Y122972D02*
X602167D01*
X685679Y166870D02*
X691679D01*
X685679Y155870D02*
X691679D01*
Y166870D01*
X685679Y155870D02*
Y166870D01*
Y173062D02*
Y184062D01*
X691679Y173062D02*
Y184062D01*
X685679Y173062D02*
X691679D01*
X685679Y184062D02*
X691679D01*
X702398Y528876D02*
Y534876D01*
Y528876D02*
X713398D01*
Y534876D01*
X702398D02*
X713398D01*
X707410Y233570D02*
X718410D01*
X707410D02*
Y239570D01*
X718410D01*
Y233570D02*
Y239570D01*
X296838Y463852D02*
Y469852D01*
X285838D02*
X296838D01*
X285838Y463852D02*
Y469852D01*
Y463852D02*
X296838D01*
X278860Y309070D02*
X289860D01*
Y303070D02*
Y309070D01*
X278860Y303070D02*
X289860D01*
X278860D02*
Y309070D01*
X876058Y486660D02*
Y512160D01*
X672858D02*
X876058D01*
X672858Y486660D02*
Y512160D01*
Y486660D02*
X876058D01*
X122862Y283560D02*
X326062D01*
Y258060D02*
Y283560D01*
X122862Y258060D02*
X326062D01*
X122862D02*
Y283560D01*
X345560Y608680D02*
X362560D01*
X345560Y618180D02*
X362560D01*
Y608680D02*
Y618180D01*
X345560Y608680D02*
Y618180D01*
X320960Y618180D02*
X337960D01*
X320960Y608680D02*
X337960D01*
X320960D02*
Y618180D01*
X337960Y608680D02*
Y618180D01*
X324050Y572370D02*
X330050D01*
X324050Y561370D02*
X330050D01*
Y572370D01*
X324050Y561370D02*
Y572370D01*
X341980D02*
X347980D01*
X341980Y561370D02*
X347980D01*
Y572370D01*
X341980Y561370D02*
Y572370D01*
X721461Y93939D02*
X757458D01*
Y3942D02*
Y93939D01*
X721461Y3942D02*
X757458D01*
X721461D02*
Y93939D01*
X851801Y86806D02*
Y92806D01*
X859801Y86806D02*
Y92806D01*
X851801D02*
X859801D01*
X851801Y86806D02*
X859801D01*
X661122Y87675D02*
X672122D01*
Y81675D02*
Y87675D01*
X661122Y81675D02*
X672122D01*
X661122D02*
Y87675D01*
X800737Y568518D02*
Y574518D01*
X789737Y568518D02*
Y574518D01*
Y568518D02*
X800737D01*
X789737Y574518D02*
X800737D01*
X789737Y565942D02*
X800737D01*
X789737Y559942D02*
X800737D01*
X789737D02*
Y565942D01*
X800737Y559942D02*
Y565942D01*
X760755Y549400D02*
X771755D01*
X760755Y543400D02*
X771755D01*
X760755D02*
Y549400D01*
X771755Y543400D02*
Y549400D01*
X378930Y636394D02*
X389930D01*
X378930Y630394D02*
X389930D01*
X378930D02*
Y636394D01*
X389930Y630394D02*
Y636394D01*
X378930Y628012D02*
X389930D01*
X378930Y622012D02*
X389930D01*
X378930D02*
Y628012D01*
X389930Y622012D02*
Y628012D01*
X533450Y538092D02*
X544450D01*
X533450Y532092D02*
X544450D01*
X533450D02*
Y538092D01*
X544450Y532092D02*
Y538092D01*
X373800Y266700D02*
X379800D01*
X373800Y255700D02*
Y266700D01*
Y255700D02*
X379800D01*
Y266700D01*
X475250Y214890D02*
X481250D01*
Y225890D01*
X475250D02*
X481250D01*
X475250Y214890D02*
Y225890D01*
X543440Y245330D02*
Y251330D01*
X532440D02*
X543440D01*
X532440Y245330D02*
Y251330D01*
Y245330D02*
X543440D01*
Y275810D02*
Y281810D01*
X532440D02*
X543440D01*
X532440Y275810D02*
Y281810D01*
Y275810D02*
X543440D01*
Y302480D02*
Y308480D01*
X532440D02*
X543440D01*
X532440Y302480D02*
Y308480D01*
Y302480D02*
X543440D01*
X513422Y326438D02*
X524422D01*
X513422D02*
Y332438D01*
X524422D01*
Y326438D02*
Y332438D01*
X458740Y221240D02*
X464740D01*
Y232240D01*
X458740D02*
X464740D01*
X458740Y221240D02*
Y232240D01*
X427430Y260240D02*
X438430D01*
Y254240D02*
Y260240D01*
X427430Y254240D02*
X438430D01*
X427430D02*
Y260240D01*
X462550Y331300D02*
X468550D01*
X462550Y320300D02*
Y331300D01*
Y320300D02*
X468550D01*
Y331300D01*
X435920Y274490D02*
Y280490D01*
Y274490D02*
X446920D01*
Y280490D01*
X435920D02*
X446920D01*
X442340Y256410D02*
X448340D01*
X442340Y245410D02*
Y256410D01*
Y245410D02*
X448340D01*
Y256410D01*
X446090Y219840D02*
X452090D01*
Y230840D01*
X446090D02*
X452090D01*
X446090Y219840D02*
Y230840D01*
X512080Y214890D02*
X518080D01*
Y225890D01*
X512080D02*
X518080D01*
X512080Y214890D02*
Y225890D01*
X502800Y216120D02*
Y222120D01*
X491800D02*
X502800D01*
X491800Y216120D02*
Y222120D01*
Y216120D02*
X502800D01*
X536770Y228880D02*
X546270D01*
X536770Y211380D02*
X546270D01*
Y228880D01*
X536770Y211380D02*
Y228880D01*
X524670Y228850D02*
X534170D01*
X524670Y211350D02*
X534170D01*
Y228850D01*
X524670Y211350D02*
Y228850D01*
X468940Y230090D02*
Y236090D01*
Y230090D02*
X479940D01*
Y236090D01*
X468940D02*
X479940D01*
X707083Y614300D02*
Y625300D01*
X713083Y614300D02*
Y625300D01*
X707083Y614300D02*
X713083D01*
X707083Y625300D02*
X713083D01*
X700100Y645400D02*
X711100D01*
X700100Y651400D02*
X711100D01*
Y645400D02*
Y651400D01*
X700100Y645400D02*
Y651400D01*
X528081Y347500D02*
X534081D01*
X528081Y336500D02*
X534081D01*
Y347500D01*
X528081Y336500D02*
Y347500D01*
X488929Y333051D02*
X499930D01*
X488929Y327051D02*
X499930D01*
X488929D02*
Y333051D01*
X499930Y327051D02*
Y333051D01*
X387770Y279267D02*
X404770D01*
X387770Y269767D02*
X404770D01*
X387770D02*
Y279267D01*
X404770Y269767D02*
Y279267D01*
X418770Y269767D02*
Y279267D01*
X401770Y269767D02*
Y279267D01*
Y269767D02*
X418770D01*
X401770Y279267D02*
X418770D01*
X437234Y320382D02*
X443234D01*
X437234Y331382D02*
X443234D01*
X437234Y320382D02*
Y331382D01*
X443234Y320382D02*
Y331382D01*
X451564Y320382D02*
Y331382D01*
X445564Y320382D02*
Y331382D01*
X451564D01*
X445564Y320382D02*
X451564D01*
X587800Y315600D02*
X593800D01*
X587800Y304600D02*
X593800D01*
Y315600D01*
X587800Y304600D02*
Y315600D01*
X434650Y266390D02*
X445650D01*
X434650Y272390D02*
X445650D01*
Y266390D02*
Y272390D01*
X434650Y266390D02*
Y272390D01*
X439620Y301170D02*
X445620D01*
X439620Y312170D02*
X445620D01*
X439620Y301170D02*
Y312170D01*
X445620Y301170D02*
Y312170D01*
X670111Y440972D02*
X681111D01*
X670111Y434972D02*
X681111D01*
X670111D02*
Y440972D01*
X681111Y434972D02*
Y440972D01*
X670111Y433026D02*
X681111D01*
X670111Y427026D02*
X681111D01*
X670111D02*
Y433026D01*
X681111Y427026D02*
Y433026D01*
X670335Y425675D02*
X681335D01*
X670335Y419675D02*
X681335D01*
X670335D02*
Y425675D01*
X681335Y419675D02*
Y425675D01*
X670335Y413931D02*
X681335D01*
X670335Y407931D02*
X681335D01*
X670335D02*
Y413931D01*
X681335Y407931D02*
Y413931D01*
X670335Y402186D02*
X681335D01*
X670335Y396186D02*
X681335D01*
X670335D02*
Y402186D01*
X681335Y396186D02*
Y402186D01*
X670335Y390442D02*
X681335D01*
X670335Y384442D02*
X681335D01*
X670335D02*
Y390442D01*
X681335Y384442D02*
Y390442D01*
X629872Y400392D02*
Y411392D01*
X623872Y400392D02*
Y411392D01*
X629872D01*
X623872Y400392D02*
X629872D01*
X670681Y374376D02*
X681681D01*
X670681Y368376D02*
X681681D01*
X670681D02*
Y374376D01*
X681681Y368376D02*
Y374376D01*
X670681Y364333D02*
X681681D01*
X670681Y358333D02*
X681681D01*
X670681D02*
Y364333D01*
X681681Y358333D02*
Y364333D01*
Y348291D02*
Y354291D01*
X670681Y348291D02*
Y354291D01*
Y348291D02*
X681681D01*
X670681Y354291D02*
X681681D01*
X670681Y344248D02*
X681681D01*
X670681Y338248D02*
X681681D01*
X670681D02*
Y344248D01*
X681681Y338248D02*
Y344248D01*
X670681Y334205D02*
X681681D01*
X670681Y328205D02*
X681681D01*
X670681D02*
Y334205D01*
X681681Y328205D02*
Y334205D01*
X670681Y324162D02*
X681681D01*
X670681Y318162D02*
X681681D01*
X670681D02*
Y324162D01*
X681681Y318162D02*
Y324162D01*
X670681Y314119D02*
X681681D01*
X670681Y308119D02*
X681681D01*
X670681D02*
Y314119D01*
X681681Y308119D02*
Y314119D01*
X659965Y292260D02*
X665965D01*
X659965Y303260D02*
X665965D01*
X659965Y292260D02*
Y303260D01*
X665965Y292260D02*
Y303260D01*
X278860Y349956D02*
X289860D01*
X278860Y355956D02*
X289860D01*
Y349956D02*
Y355956D01*
X278860Y349956D02*
Y355956D01*
Y361011D02*
X289860D01*
X278860Y367011D02*
X289860D01*
Y361011D02*
Y367011D01*
X278860Y361011D02*
Y367011D01*
Y372066D02*
X289860D01*
X278860Y378066D02*
X289860D01*
Y372066D02*
Y378066D01*
X278860Y372066D02*
Y378066D01*
Y383121D02*
X289860D01*
X278860Y389121D02*
X289860D01*
Y383121D02*
Y389121D01*
X278860Y383121D02*
Y389121D01*
Y394176D02*
X289860D01*
X278860Y400176D02*
X289860D01*
Y394176D02*
Y400176D01*
X278860Y394176D02*
Y400176D01*
Y405231D02*
Y411231D01*
X289860Y405231D02*
Y411231D01*
X278860D02*
X289860D01*
X278860Y405231D02*
X289860D01*
X278860Y416286D02*
X289860D01*
X278860Y422286D02*
X289860D01*
Y416286D02*
Y422286D01*
X278860Y416286D02*
Y422286D01*
Y427341D02*
X289860D01*
X278860Y433341D02*
X289860D01*
Y427341D02*
Y433341D01*
X278860Y427341D02*
Y433341D01*
X653333Y382533D02*
X698333D01*
X653333Y448532D02*
X698333D01*
Y382533D02*
Y448532D01*
X653333Y382533D02*
Y448532D01*
X261865Y422856D02*
X306865D01*
X261865Y356856D02*
X306865D01*
X261865D02*
Y422856D01*
X306865Y356856D02*
Y422856D01*
X231660Y364088D02*
Y370088D01*
Y364088D02*
X242660D01*
Y370088D01*
X231660D02*
X242660D01*
X717510Y374126D02*
X723510D01*
X717510Y363126D02*
Y374126D01*
Y363126D02*
X723510D01*
Y374126D01*
X722223Y436823D02*
Y447822D01*
X716223Y436823D02*
X722223D01*
X716223D02*
Y447822D01*
X722223D01*
X335111Y364110D02*
Y370110D01*
X324111D02*
X335111D01*
X324111Y364110D02*
Y370110D01*
Y364110D02*
X335111D01*
X629861Y354951D02*
X635861D01*
Y365951D01*
X629861D02*
X635861D01*
X629861Y354951D02*
Y365951D01*
X621883Y428083D02*
Y439082D01*
X627883D01*
Y428083D02*
Y439082D01*
X621883Y428083D02*
X627883D01*
X528110Y438061D02*
X534110D01*
X528110Y449061D02*
X534110D01*
X528110Y438061D02*
Y449061D01*
X534110Y438061D02*
Y449061D01*
X540810Y438061D02*
X546810D01*
X540810Y449061D02*
X546810D01*
X540810Y438061D02*
Y449061D01*
X546810Y438061D02*
Y449061D01*
X561670Y331650D02*
X572670D01*
X561670Y337650D02*
X572670D01*
Y331650D02*
Y337650D01*
X561670Y331650D02*
Y337650D01*
X559616Y323189D02*
X570616D01*
X559616Y329189D02*
X570616D01*
Y323189D02*
Y329189D01*
X559616Y323189D02*
Y329189D01*
X565800Y296700D02*
X576800D01*
X565800Y290700D02*
X576800D01*
X565800D02*
Y296700D01*
X576800Y290700D02*
Y296700D01*
X660690Y465636D02*
X666690D01*
X660690Y476636D02*
X666690D01*
X660690Y465636D02*
Y476636D01*
X666690Y465636D02*
Y476636D01*
X650898Y465636D02*
X656898D01*
X650898Y476636D02*
X656898D01*
X650898Y465636D02*
Y476636D01*
X656898Y465636D02*
Y476636D01*
X619523Y465636D02*
X625523D01*
X619523Y476636D02*
X625523D01*
X619523Y465636D02*
Y476636D01*
X625523Y465636D02*
Y476636D01*
X597235Y492710D02*
Y498710D01*
X586235Y492710D02*
Y498710D01*
Y492710D02*
X597235D01*
X586235Y498710D02*
X597235D01*
X609732Y465636D02*
X615732D01*
X609732Y476636D02*
X615732D01*
X609732Y465636D02*
Y476636D01*
X615732Y465636D02*
Y476636D01*
X605940Y465636D02*
Y476636D01*
X599940Y465636D02*
Y476636D01*
X605940D01*
X599940Y465636D02*
X605940D01*
X637315D02*
Y476636D01*
X631315Y465636D02*
Y476636D01*
X637315D01*
X631315Y465636D02*
X637315D01*
X647107D02*
Y476636D01*
X641107Y465636D02*
Y476636D01*
X647107D01*
X641107Y465636D02*
X647107D01*
X103970Y627866D02*
X114970D01*
X103970Y633866D02*
X114970D01*
Y627866D02*
Y633866D01*
X103970Y627866D02*
Y633866D01*
X389064Y446551D02*
X395064D01*
X389064Y457551D02*
X395064D01*
X389064Y446551D02*
Y457551D01*
X395064Y446551D02*
Y457551D01*
X378122Y446551D02*
X384122D01*
X378122Y457551D02*
X384122D01*
X378122Y446551D02*
Y457551D01*
X384122Y446551D02*
Y457551D01*
X156867Y650590D02*
Y661590D01*
X162867Y650590D02*
Y661590D01*
X156867Y650590D02*
X162867D01*
X156867Y661590D02*
X162867D01*
X367180Y446551D02*
X373180D01*
X367180Y457551D02*
X373180D01*
X367180Y446551D02*
Y457551D01*
X373180Y446551D02*
Y457551D01*
X356238Y446551D02*
X362238D01*
X356238Y457551D02*
X362238D01*
X356238Y446551D02*
Y457551D01*
X362238Y446551D02*
Y457551D01*
X345296Y446551D02*
X351296D01*
X345296Y457551D02*
X351296D01*
X345296Y446551D02*
Y457551D01*
X351296Y446551D02*
Y457551D01*
X334354Y446551D02*
X340354D01*
X334354Y457551D02*
X340354D01*
X334354Y446551D02*
Y457551D01*
X340354Y446551D02*
Y457551D01*
X278860Y444396D02*
X289860D01*
X278860Y438396D02*
X289860D01*
X278860D02*
Y444396D01*
X289860Y438396D02*
Y444396D01*
X401960Y561600D02*
Y567600D01*
X412960Y561600D02*
Y567600D01*
X401960D02*
X412960D01*
X401960Y561600D02*
X412960D01*
X401960Y571680D02*
Y577680D01*
X412960Y571680D02*
Y577680D01*
X401960D02*
X412960D01*
X401960Y571680D02*
X412960D01*
X401960Y592260D02*
X412960D01*
X401960Y598260D02*
X412960D01*
Y592260D02*
Y598260D01*
X401960Y592260D02*
Y598260D01*
X378930Y613020D02*
Y619020D01*
X389930Y613020D02*
Y619020D01*
X378930D02*
X389930D01*
X378930Y613020D02*
X389930D01*
X401960Y582040D02*
Y588040D01*
X412960Y582040D02*
Y588040D01*
X401960D02*
X412960D01*
X401960Y582040D02*
X412960D01*
X626170Y559526D02*
Y565526D01*
X615170Y559526D02*
Y565526D01*
Y559526D02*
X626170D01*
X615170Y565526D02*
X626170D01*
X588062Y547706D02*
Y553706D01*
X577062Y547706D02*
Y553706D01*
Y547706D02*
X588062D01*
X577062Y553706D02*
X588062D01*
X626170Y568626D02*
Y574626D01*
X615170Y568626D02*
Y574626D01*
Y568626D02*
X626170D01*
X615170Y574626D02*
X626170D01*
X588072Y556676D02*
Y562676D01*
X577072Y556676D02*
Y562676D01*
Y556676D02*
X588072D01*
X577072Y562676D02*
X588072D01*
X587972Y538816D02*
Y544816D01*
X576972Y538816D02*
Y544816D01*
Y538816D02*
X587972D01*
X576972Y544816D02*
X587972D01*
X577072Y501706D02*
X588072D01*
X577072Y507706D02*
X588072D01*
Y501706D02*
Y507706D01*
X577072Y501706D02*
Y507706D01*
X615230Y540986D02*
X626230D01*
X615230Y546986D02*
X626230D01*
Y540986D02*
Y546986D01*
X615230Y540986D02*
Y546986D01*
X615680Y531616D02*
Y537616D01*
X626680Y531616D02*
Y537616D01*
X615680D02*
X626680D01*
X615680Y531616D02*
X626680D01*
X603440Y617356D02*
Y623356D01*
X614440Y617356D02*
Y623356D01*
X603440D02*
X614440D01*
X603440Y617356D02*
X614440D01*
X544450Y522311D02*
Y528311D01*
X533450Y522311D02*
Y528311D01*
Y522311D02*
X544450D01*
X533450Y528311D02*
X544450D01*
X401960Y551376D02*
X412960D01*
X401960Y557376D02*
X412960D01*
Y551376D02*
Y557376D01*
X401960Y551376D02*
Y557376D01*
X349170Y593000D02*
X360170D01*
X349170Y599000D02*
X360170D01*
Y593000D02*
Y599000D01*
X349170Y593000D02*
Y599000D01*
X300201Y575410D02*
X311201D01*
X300201Y581410D02*
X311201D01*
Y575410D02*
Y581410D01*
X300201Y575410D02*
Y581410D01*
X282359Y575410D02*
Y581410D01*
X293359Y575410D02*
Y581410D01*
X282359D02*
X293359D01*
X282359Y575410D02*
X293359D01*
X330170Y586460D02*
X344170D01*
X330170D02*
Y596460D01*
X344170D01*
Y586460D02*
Y596460D01*
X314790Y598720D02*
X325790D01*
Y592720D02*
Y598720D01*
X314790Y592720D02*
X325790D01*
X314790D02*
Y598720D01*
X315050Y589630D02*
X326050D01*
Y583630D02*
Y589630D01*
X315050Y583630D02*
X326050D01*
X315050D02*
Y589630D01*
X680887Y442972D02*
Y448972D01*
X669887Y442972D02*
Y448972D01*
Y442972D02*
X680887D01*
X669887Y448972D02*
X680887D01*
X171295Y661590D02*
X177295D01*
X171295Y650590D02*
X177295D01*
Y661590D01*
X171295Y650590D02*
Y661590D01*
X107700Y618793D02*
Y624793D01*
X118700Y618793D02*
Y624793D01*
X107700D02*
X118700D01*
X107700Y618793D02*
X118700D01*
X333590Y544060D02*
Y553560D01*
X316590Y544060D02*
Y553560D01*
Y544060D02*
X333590D01*
X316590Y553560D02*
X333590D01*
X292003Y544060D02*
Y553560D01*
X309003Y544060D02*
Y553560D01*
X292003D02*
X309003D01*
X292003Y544060D02*
X309003D01*
X260500Y313321D02*
Y319321D01*
X249500Y313321D02*
Y319321D01*
Y313321D02*
X260500D01*
X249500Y319321D02*
X260500D01*
X249500Y334250D02*
X260500D01*
X249500Y340250D02*
X260500D01*
Y334250D02*
Y340250D01*
X249500Y334250D02*
Y340250D01*
X143614Y441590D02*
X154614D01*
X143614Y447590D02*
X154614D01*
Y441590D02*
Y447590D01*
X143614Y441590D02*
Y447590D01*
X181014Y441590D02*
Y447590D01*
X170014Y441590D02*
Y447590D01*
Y441590D02*
X181014D01*
X170014Y447590D02*
X181014D01*
X193950Y441590D02*
Y447590D01*
X204950Y441590D02*
Y447590D01*
X193950D02*
X204950D01*
X193950Y441590D02*
X204950D01*
X439214Y112102D02*
X445214D01*
Y123102D01*
X439214D02*
X445214D01*
X439214Y112102D02*
Y123102D01*
X387901Y112312D02*
X393901D01*
Y123312D01*
X387901D02*
X393901D01*
X387901Y112312D02*
Y123312D01*
X402863Y126622D02*
X430863D01*
Y97622D02*
Y126622D01*
X402863Y97622D02*
X430863D01*
X402863D02*
Y126622D01*
X783412Y89798D02*
Y106798D01*
X792912Y89798D02*
Y106798D01*
X783412Y89798D02*
X792912D01*
X783412Y106798D02*
X792912D01*
X548970Y212084D02*
X558470D01*
X548970Y229084D02*
X558470D01*
X548970Y212084D02*
Y229084D01*
X558470Y212084D02*
Y229084D01*
X584467Y217477D02*
Y228477D01*
X590467Y217477D02*
Y228477D01*
X584467Y217477D02*
X590467D01*
X584467Y228477D02*
X590467D01*
X576339Y217477D02*
Y228477D01*
X582339Y217477D02*
Y228477D01*
X576339Y217477D02*
X582339D01*
X576339Y228477D02*
X582339D01*
X595350Y297738D02*
X606350D01*
X595350Y291738D02*
X606350D01*
X595350D02*
Y297738D01*
X606350Y291738D02*
Y297738D01*
X723344Y658941D02*
Y666941D01*
X717344Y658941D02*
Y666941D01*
X723344D01*
X717344Y658941D02*
X723344D01*
X707083Y633760D02*
X713083D01*
X707083Y622760D02*
X713083D01*
Y633760D01*
X707083Y622760D02*
Y633760D01*
X758333Y568810D02*
Y574810D01*
X769333Y568810D02*
Y574810D01*
X758333D02*
X769333D01*
X758333Y568810D02*
X769333D01*
X741000Y569689D02*
Y575689D01*
X730000Y569689D02*
Y575689D01*
Y569689D02*
X741000D01*
X730000Y575689D02*
X741000D01*
X707946Y595288D02*
X713946D01*
X707946Y584288D02*
X713946D01*
Y595288D01*
X707946Y584288D02*
Y595288D01*
X738000Y569689D02*
Y575689D01*
X749000Y569689D02*
Y575689D01*
X738000D02*
X749000D01*
X738000Y569689D02*
X749000D01*
X826428Y564944D02*
Y570944D01*
X815428Y564944D02*
Y570944D01*
Y564944D02*
X826428D01*
X815428Y570944D02*
X826428D01*
X880226Y531360D02*
Y537360D01*
X891226Y531360D02*
Y537360D01*
X880226D02*
X891226D01*
X880226Y531360D02*
X891226D01*
X779697Y440191D02*
Y446191D01*
X790697Y440191D02*
Y446191D01*
X779697D02*
X790697D01*
X779697Y440191D02*
X790697D01*
X615862Y322120D02*
Y328120D01*
X604862Y322120D02*
Y328120D01*
Y322120D02*
X615862D01*
X604862Y328120D02*
X615862D01*
X173754Y320585D02*
X184754D01*
Y314585D02*
Y320585D01*
X173754Y314585D02*
X184754D01*
X173754D02*
Y320585D01*
X143812Y330112D02*
X149812D01*
X143812Y319112D02*
Y330112D01*
Y319112D02*
X149812D01*
Y330112D01*
X186094Y301292D02*
Y307292D01*
X175094D02*
X186094D01*
X175094Y301292D02*
Y307292D01*
Y301292D02*
X186094D01*
X147138Y304670D02*
Y310670D01*
X136138D02*
X147138D01*
X136138Y304670D02*
Y310670D01*
Y304670D02*
X147138D01*
X191200Y307570D02*
X205200D01*
X191200D02*
Y317570D01*
X205200D01*
Y307570D02*
Y317570D01*
X233892Y304522D02*
Y310522D01*
X222892Y304522D02*
Y310522D01*
Y304522D02*
X233892D01*
X222892Y310522D02*
X233892D01*
X209404Y306170D02*
X215404D01*
X209404Y317170D02*
X215404D01*
X209404Y306170D02*
Y317170D01*
X215404Y306170D02*
Y317170D01*
X288338Y320636D02*
X294338D01*
X288338Y331636D02*
X294338D01*
X288338Y320636D02*
Y331636D01*
X294338Y320636D02*
Y331636D01*
X437230Y320380D02*
X443230D01*
X437230Y331380D02*
X443230D01*
X437230Y320380D02*
Y331380D01*
X443230Y320380D02*
Y331380D01*
X367462Y103624D02*
Y120624D01*
X357962Y103624D02*
Y120624D01*
X367462D01*
X357962Y103624D02*
X367462D01*
X453466Y91068D02*
Y108068D01*
X462966Y91068D02*
Y108068D01*
X453466Y91068D02*
X462966D01*
X453466Y108068D02*
X462966D01*
X365600Y233006D02*
Y262006D01*
X337600D02*
X365600D01*
X337600Y233006D02*
Y262006D01*
Y233006D02*
X365600D01*
X655870Y602330D02*
X661870D01*
X655870Y613330D02*
X661870D01*
X655870Y602330D02*
Y613330D01*
X661870Y602330D02*
Y613330D01*
X668650Y582590D02*
X674650D01*
X668650Y571590D02*
X674650D01*
Y582590D01*
X668650Y571590D02*
Y582590D01*
X655950D02*
X661950D01*
X655950Y571590D02*
X661950D01*
Y582590D01*
X655950Y571590D02*
Y582590D01*
X681350Y602330D02*
X687350D01*
X681350Y613330D02*
X687350D01*
X681350Y602330D02*
Y613330D01*
X687350Y602330D02*
Y613330D01*
X643250Y571590D02*
X649250D01*
X643250Y582590D02*
X649250D01*
X643250Y571590D02*
Y582590D01*
X649250Y571590D02*
Y582590D01*
X668650Y613330D02*
X674650D01*
X668650Y602330D02*
X674650D01*
Y613330D01*
X668650Y602330D02*
Y613330D01*
X225894Y392478D02*
Y398478D01*
X236894Y392478D02*
Y398478D01*
X225894D02*
X236894D01*
X225894Y392478D02*
X236894D01*
X569158Y230245D02*
X580158D01*
X569158Y224244D02*
X580158D01*
X569158D02*
Y230245D01*
X580158Y224244D02*
Y230245D01*
X585812Y224330D02*
X596812D01*
X585812Y230330D02*
X596812D01*
Y224330D02*
Y230330D01*
X585812Y224330D02*
Y230330D01*
X597710Y116420D02*
Y127420D01*
X603710Y116420D02*
Y127420D01*
X597710Y116420D02*
X603710D01*
X597710Y127420D02*
X603710D01*
Y133248D02*
Y144248D01*
X597710Y133248D02*
Y144248D01*
X603710D01*
X597710Y133248D02*
X603710D01*
X632666Y377532D02*
Y388532D01*
X626666Y377532D02*
Y388532D01*
X632666D01*
X626666Y377532D02*
X632666D01*
X623170Y314456D02*
X634170D01*
X623170Y308456D02*
X634170D01*
X623170D02*
Y314456D01*
X634170Y308456D02*
Y314456D01*
X316761Y444538D02*
X327761D01*
X316761Y438538D02*
X327761D01*
X316761D02*
Y444538D01*
X327761Y438538D02*
Y444538D01*
X453900Y524344D02*
Y535344D01*
X459901Y524344D02*
Y535344D01*
X453900Y524344D02*
X459901D01*
X453900Y535344D02*
X459901D01*
X628745Y600000D02*
X634745D01*
X628745Y589000D02*
X634745D01*
Y600000D01*
X628745Y589000D02*
Y600000D01*
X746012Y155870D02*
Y166870D01*
X740012Y155870D02*
Y166870D01*
X746012D01*
X740012Y155870D02*
X746012D01*
X694813Y132512D02*
X712313D01*
X694813Y142012D02*
X712313D01*
Y132512D02*
Y142012D01*
X694813Y132512D02*
Y142012D01*
X629700Y301900D02*
Y312900D01*
X635700Y301900D02*
Y312900D01*
X629700Y301900D02*
X635700D01*
X629700Y312900D02*
X635700D01*
X329400Y440200D02*
Y451200D01*
X323400Y440200D02*
Y451200D01*
X329400D01*
X323400Y440200D02*
X329400D01*
X565417Y264662D02*
X576417D01*
X565417Y270662D02*
X576417D01*
Y264662D02*
Y270662D01*
X565417Y264662D02*
Y270662D01*
X565417Y283556D02*
X576417D01*
X565417Y277556D02*
X576417D01*
X565417D02*
Y283556D01*
X576417Y277556D02*
Y283556D01*
X363800Y330301D02*
X374800D01*
X363800Y324301D02*
X374800D01*
X363800D02*
Y330301D01*
X374800Y324301D02*
Y330301D01*
X363800Y321051D02*
X374800D01*
X363800Y315051D02*
X374800D01*
X363800D02*
Y321051D01*
X374800Y315051D02*
Y321051D01*
X381879Y342826D02*
Y348826D01*
X370879Y342826D02*
Y348826D01*
Y342826D02*
X381879D01*
X370879Y348826D02*
X381879D01*
X363800Y339550D02*
X374800D01*
X363800Y333550D02*
X374800D01*
X363800D02*
Y339550D01*
X374800Y333550D02*
Y339550D01*
X619697Y116472D02*
Y127472D01*
X613697Y116472D02*
Y127472D01*
X619697D01*
X613697Y116472D02*
X619697D01*
X607552Y122972D02*
X618552D01*
X607552Y128972D02*
X618552D01*
Y122972D02*
Y128972D01*
X607552Y122972D02*
Y128972D01*
Y131300D02*
X618552D01*
X607552Y137300D02*
X618552D01*
Y131300D02*
Y137300D01*
X607552Y131300D02*
Y137300D01*
X614188Y132800D02*
Y143800D01*
X620188Y132800D02*
Y143800D01*
X614188Y132800D02*
X620188D01*
X614188Y143800D02*
X620188D01*
X384901Y188904D02*
Y199904D01*
X390901Y188904D02*
Y199904D01*
X384901Y188904D02*
X390901D01*
X384901Y199904D02*
X390901D01*
X463300Y147200D02*
Y158200D01*
X457300Y147200D02*
Y158200D01*
X463300D01*
X457300Y147200D02*
X463300D01*
X458940Y153648D02*
X469940D01*
X458940Y159648D02*
X469940D01*
Y153648D02*
Y159648D01*
X458940Y153648D02*
Y159648D01*
Y161962D02*
X469940D01*
X458940Y167962D02*
X469940D01*
Y161962D02*
Y167962D01*
X458940Y161962D02*
Y167962D01*
X463481Y163462D02*
Y174462D01*
X457481Y163462D02*
Y174462D01*
X463481D01*
X457481Y163462D02*
X463481D01*
X249500Y324282D02*
Y330282D01*
X260500Y324282D02*
Y330282D01*
X249500D02*
X260500D01*
X249500Y324282D02*
X260500D01*
X825200Y549400D02*
Y560400D01*
X819200Y549400D02*
Y560400D01*
X825200D01*
X819200Y549400D02*
X825200D01*
X793770Y552688D02*
X804770D01*
X793770Y546688D02*
X804770D01*
X793770D02*
Y552688D01*
X804770Y546688D02*
Y552688D01*
X879046Y579919D02*
Y590919D01*
X873046Y579919D02*
Y590919D01*
X879046D01*
X873046Y579919D02*
X879046D01*
D224*
X401042Y644810D02*
Y674810D01*
X432042D01*
Y644810D02*
Y674810D01*
X401042Y644810D02*
X432042D01*
M02*
