G04*
G04 #@! TF.GenerationSoftware,Altium Limited,Altium Designer,24.6.1 (21)*
G04*
G04 Layer_Color=8421504*
%FSLAX44Y44*%
%MOMM*%
G71*
G04*
G04 #@! TF.SameCoordinates,E70CDE82-3EE1-4166-B2EF-4B71CB92BF6A*
G04*
G04*
G04 #@! TF.FilePolarity,Positive*
G04*
G01*
G75*
%ADD10C,0.2000*%
%ADD12C,0.1270*%
%ADD14C,0.2540*%
%ADD19C,0.1500*%
%ADD21R,4.8260X2.4130*%
G04:AMPARAMS|DCode=22|XSize=1.1mm|YSize=1mm|CornerRadius=0.25mm|HoleSize=0mm|Usage=FLASHONLY|Rotation=0.000|XOffset=0mm|YOffset=0mm|HoleType=Round|Shape=RoundedRectangle|*
%AMROUNDEDRECTD22*
21,1,1.1000,0.5000,0,0,0.0*
21,1,0.6000,1.0000,0,0,0.0*
1,1,0.5000,0.3000,-0.2500*
1,1,0.5000,-0.3000,-0.2500*
1,1,0.5000,-0.3000,0.2500*
1,1,0.5000,0.3000,0.2500*
%
%ADD22ROUNDEDRECTD22*%
%ADD23R,1.2965X1.2965*%
%ADD24R,1.0500X0.6500*%
%ADD25R,0.6000X1.0000*%
%ADD26R,1.0000X1.5500*%
%ADD27R,0.7500X0.8500*%
%ADD28R,0.5000X0.6000*%
G04:AMPARAMS|DCode=29|XSize=0.3mm|YSize=1.15mm|CornerRadius=0.015mm|HoleSize=0mm|Usage=FLASHONLY|Rotation=180.000|XOffset=0mm|YOffset=0mm|HoleType=Round|Shape=RoundedRectangle|*
%AMROUNDEDRECTD29*
21,1,0.3000,1.1200,0,0,180.0*
21,1,0.2700,1.1500,0,0,180.0*
1,1,0.0300,-0.1350,0.5600*
1,1,0.0300,0.1350,0.5600*
1,1,0.0300,0.1350,-0.5600*
1,1,0.0300,-0.1350,-0.5600*
%
%ADD29ROUNDEDRECTD29*%
G04:AMPARAMS|DCode=30|XSize=0.6mm|YSize=1.15mm|CornerRadius=0.03mm|HoleSize=0mm|Usage=FLASHONLY|Rotation=180.000|XOffset=0mm|YOffset=0mm|HoleType=Round|Shape=RoundedRectangle|*
%AMROUNDEDRECTD30*
21,1,0.6000,1.0900,0,0,180.0*
21,1,0.5400,1.1500,0,0,180.0*
1,1,0.0600,-0.2700,0.5450*
1,1,0.0600,0.2700,0.5450*
1,1,0.0600,0.2700,-0.5450*
1,1,0.0600,-0.2700,-0.5450*
%
%ADD30ROUNDEDRECTD30*%
%ADD31R,1.0500X1.0000*%
%ADD32R,2.2000X1.0500*%
%ADD33O,1.5000X0.4500*%
%ADD34R,1.5000X0.4500*%
%ADD35R,2.5000X1.2000*%
%ADD36R,0.3600X0.5000*%
%ADD37R,0.4000X0.5000*%
%ADD38R,0.4500X0.3000*%
%ADD39R,0.3000X0.4500*%
%ADD40R,1.3000X0.5500*%
%ADD41R,0.9000X0.8000*%
%ADD42R,0.9500X0.4500*%
%ADD43R,0.5500X1.4000*%
%ADD44R,0.3500X0.3600*%
%ADD45R,1.2000X1.2500*%
%ADD46R,1.2000X1.8000*%
%ADD47R,0.6000X1.5500*%
%ADD48R,1.0200X2.1900*%
%ADD49R,0.6000X0.5000*%
%ADD50R,2.6000X2.6000*%
%ADD51R,0.8500X0.3000*%
%ADD52R,0.3000X0.8500*%
G04:AMPARAMS|DCode=53|XSize=0.2425mm|YSize=0.7397mm|CornerRadius=0.1212mm|HoleSize=0mm|Usage=FLASHONLY|Rotation=90.000|XOffset=0mm|YOffset=0mm|HoleType=Round|Shape=RoundedRectangle|*
%AMROUNDEDRECTD53*
21,1,0.2425,0.4972,0,0,90.0*
21,1,0.0000,0.7397,0,0,90.0*
1,1,0.2425,0.2486,0.0000*
1,1,0.2425,0.2486,0.0000*
1,1,0.2425,-0.2486,0.0000*
1,1,0.2425,-0.2486,0.0000*
%
%ADD53ROUNDEDRECTD53*%
G04:AMPARAMS|DCode=54|XSize=0.7397mm|YSize=0.2425mm|CornerRadius=0.1212mm|HoleSize=0mm|Usage=FLASHONLY|Rotation=90.000|XOffset=0mm|YOffset=0mm|HoleType=Round|Shape=RoundedRectangle|*
%AMROUNDEDRECTD54*
21,1,0.7397,0.0000,0,0,90.0*
21,1,0.4972,0.2425,0,0,90.0*
1,1,0.2425,0.0000,0.2486*
1,1,0.2425,0.0000,-0.2486*
1,1,0.2425,0.0000,-0.2486*
1,1,0.2425,0.0000,0.2486*
%
%ADD54ROUNDEDRECTD54*%
%ADD55R,0.2425X0.7397*%
%ADD56C,0.4250*%
%ADD57C,0.2500*%
%ADD58R,0.6000X0.6000*%
%ADD59R,3.1500X1.0000*%
%ADD60R,0.6500X0.8500*%
%ADD61R,0.7500X0.9000*%
%ADD62R,0.8000X0.6000*%
%ADD63R,0.8000X0.6000*%
%ADD64R,1.2700X2.2000*%
%ADD65R,0.7600X2.4000*%
%ADD66R,1.8500X3.4500*%
G04:AMPARAMS|DCode=67|XSize=0.5mm|YSize=0.175mm|CornerRadius=0.0438mm|HoleSize=0mm|Usage=FLASHONLY|Rotation=270.000|XOffset=0mm|YOffset=0mm|HoleType=Round|Shape=RoundedRectangle|*
%AMROUNDEDRECTD67*
21,1,0.5000,0.0875,0,0,270.0*
21,1,0.4125,0.1750,0,0,270.0*
1,1,0.0875,-0.0438,-0.2063*
1,1,0.0875,-0.0438,0.2063*
1,1,0.0875,0.0438,0.2063*
1,1,0.0875,0.0438,-0.2063*
%
%ADD67ROUNDEDRECTD67*%
G04:AMPARAMS|DCode=68|XSize=0.6mm|YSize=0.175mm|CornerRadius=0.0438mm|HoleSize=0mm|Usage=FLASHONLY|Rotation=90.000|XOffset=0mm|YOffset=0mm|HoleType=Round|Shape=RoundedRectangle|*
%AMROUNDEDRECTD68*
21,1,0.6000,0.0875,0,0,90.0*
21,1,0.5125,0.1750,0,0,90.0*
1,1,0.0875,0.0438,0.2563*
1,1,0.0875,0.0438,-0.2563*
1,1,0.0875,-0.0438,-0.2563*
1,1,0.0875,-0.0438,0.2563*
%
%ADD68ROUNDEDRECTD68*%
%ADD69R,0.6500X0.2500*%
%ADD70R,0.8000X1.4000*%
%ADD71R,0.5500X0.5200*%
%ADD72R,0.3000X0.3000*%
%ADD73R,1.0000X5.5000*%
%ADD74R,1.6000X3.0000*%
%ADD75R,0.6000X2.8000*%
%ADD76R,0.3000X0.8000*%
%ADD77R,2.0000X5.5000*%
%ADD78R,0.7600X1.2700*%
%ADD79R,0.5200X0.5500*%
%ADD80R,0.6000X0.6000*%
%ADD81R,0.3000X0.3000*%
%ADD82R,1.0000X0.6000*%
%ADD83R,0.6500X1.0500*%
%ADD84R,0.3600X0.3500*%
%ADD85R,0.6000X0.8000*%
%ADD86C,1.0000*%
G36*
X930835Y-543861D02*
X935370D01*
Y-544314D01*
X938092D01*
Y-544768D01*
X940359D01*
Y-545221D01*
X942173D01*
Y-545675D01*
X943988D01*
Y-546128D01*
X945348D01*
Y-546582D01*
X946709D01*
Y-547035D01*
X948070D01*
Y-547489D01*
X948977D01*
Y-547943D01*
X950338D01*
Y-548396D01*
X951245D01*
Y-548850D01*
X952152D01*
Y-549303D01*
X953059D01*
Y-549757D01*
X953966D01*
Y-550210D01*
X954873D01*
Y-550664D01*
X955327D01*
Y-551117D01*
X956234D01*
Y-551571D01*
X957141D01*
Y-552024D01*
X957594D01*
Y-552478D01*
X958502D01*
Y-552932D01*
X958955D01*
Y-553385D01*
X959862D01*
Y-553839D01*
X960316D01*
Y-554292D01*
X960769D01*
Y-554746D01*
X961676D01*
Y-555199D01*
X962130D01*
Y-555653D01*
X962583D01*
Y-556106D01*
X963037D01*
Y-556560D01*
X963944D01*
Y-557014D01*
X964398D01*
Y-557467D01*
X964851D01*
Y-557921D01*
X965305D01*
Y-558374D01*
X965758D01*
Y-558828D01*
X966212D01*
Y-559281D01*
X966665D01*
Y-559735D01*
X967119D01*
Y-560188D01*
X967573D01*
Y-560642D01*
X968026D01*
Y-561096D01*
X968480D01*
Y-561549D01*
X968933D01*
Y-562003D01*
Y-562456D01*
X969387D01*
Y-562910D01*
X969840D01*
Y-563363D01*
X970294D01*
Y-563817D01*
X970748D01*
Y-564271D01*
Y-564724D01*
X971201D01*
Y-565178D01*
X971655D01*
Y-565631D01*
X972108D01*
Y-566085D01*
Y-566538D01*
X972562D01*
Y-566992D01*
X973015D01*
Y-567445D01*
Y-567899D01*
X973469D01*
Y-568353D01*
X973922D01*
Y-568806D01*
Y-569260D01*
X974376D01*
Y-569713D01*
X974829D01*
Y-570167D01*
Y-570620D01*
X975283D01*
Y-571074D01*
Y-571527D01*
X975737D01*
Y-571981D01*
Y-572435D01*
X976190D01*
Y-572888D01*
Y-573342D01*
X976644D01*
Y-573795D01*
Y-574249D01*
X977097D01*
Y-574702D01*
Y-575156D01*
X977551D01*
Y-575609D01*
Y-576063D01*
X978004D01*
Y-576516D01*
Y-576970D01*
Y-577424D01*
X978458D01*
Y-577877D01*
Y-578331D01*
X978912D01*
Y-578784D01*
Y-579238D01*
Y-579691D01*
X979365D01*
Y-580145D01*
Y-580598D01*
Y-581052D01*
X979819D01*
Y-581506D01*
Y-581959D01*
Y-582413D01*
Y-582866D01*
X980272D01*
Y-583320D01*
Y-583773D01*
Y-584227D01*
Y-584680D01*
X980726D01*
Y-585134D01*
Y-585588D01*
Y-586041D01*
Y-586495D01*
X981179D01*
Y-586948D01*
Y-587402D01*
Y-587855D01*
Y-588309D01*
Y-588763D01*
Y-589216D01*
Y-589670D01*
X981633D01*
Y-590123D01*
Y-590577D01*
Y-591030D01*
Y-591484D01*
Y-591937D01*
Y-592391D01*
Y-592845D01*
Y-593298D01*
Y-593752D01*
Y-594205D01*
Y-594659D01*
X982086D01*
Y-595112D01*
Y-595566D01*
Y-596019D01*
Y-596473D01*
Y-596926D01*
Y-597380D01*
Y-597834D01*
Y-598287D01*
Y-598741D01*
Y-599194D01*
X981633D01*
Y-599648D01*
Y-600101D01*
Y-600555D01*
Y-601008D01*
Y-601462D01*
Y-601916D01*
Y-602369D01*
Y-602823D01*
Y-603276D01*
Y-603730D01*
Y-604183D01*
X981179D01*
Y-604637D01*
Y-605090D01*
Y-605544D01*
Y-605998D01*
Y-606451D01*
Y-606905D01*
X980726D01*
Y-607358D01*
Y-607812D01*
Y-608265D01*
Y-608719D01*
Y-609173D01*
X980272D01*
Y-609626D01*
Y-610080D01*
Y-610533D01*
Y-610987D01*
X979819D01*
Y-611440D01*
Y-611894D01*
Y-612347D01*
Y-612801D01*
X979365D01*
Y-613255D01*
Y-613708D01*
Y-614162D01*
X978912D01*
Y-614615D01*
Y-615069D01*
X978458D01*
Y-615522D01*
Y-615976D01*
Y-616429D01*
X978004D01*
Y-616883D01*
Y-617337D01*
X977551D01*
Y-617790D01*
Y-618244D01*
Y-618697D01*
X977097D01*
Y-619151D01*
Y-619604D01*
X976644D01*
Y-620058D01*
Y-620511D01*
X976190D01*
Y-620965D01*
Y-621418D01*
X975737D01*
Y-621872D01*
Y-622326D01*
X975283D01*
Y-621872D01*
Y-621418D01*
Y-620965D01*
Y-620511D01*
Y-620058D01*
Y-619604D01*
Y-619151D01*
Y-618697D01*
Y-618244D01*
Y-617790D01*
Y-617337D01*
Y-616883D01*
Y-616429D01*
Y-615976D01*
Y-615522D01*
Y-615069D01*
Y-614615D01*
Y-614162D01*
Y-613708D01*
Y-613255D01*
Y-612801D01*
Y-612347D01*
Y-611894D01*
Y-611440D01*
Y-610987D01*
Y-610533D01*
Y-610080D01*
Y-609626D01*
Y-609173D01*
Y-608719D01*
Y-608265D01*
Y-607812D01*
Y-607358D01*
Y-606905D01*
Y-606451D01*
Y-605998D01*
Y-605544D01*
Y-605090D01*
Y-604637D01*
Y-604183D01*
Y-603730D01*
Y-603276D01*
Y-602823D01*
Y-602369D01*
Y-601916D01*
Y-601462D01*
Y-601008D01*
Y-600555D01*
Y-600101D01*
Y-599648D01*
Y-599194D01*
Y-598741D01*
Y-598287D01*
Y-597834D01*
Y-597380D01*
Y-596926D01*
Y-596473D01*
Y-596019D01*
Y-595566D01*
Y-595112D01*
Y-594659D01*
Y-594205D01*
Y-593752D01*
Y-593298D01*
Y-592845D01*
Y-592391D01*
Y-591937D01*
Y-591484D01*
Y-591030D01*
Y-590577D01*
Y-590123D01*
Y-589670D01*
Y-589216D01*
Y-588763D01*
Y-588309D01*
Y-587855D01*
X962583D01*
Y-588309D01*
Y-588763D01*
Y-589216D01*
Y-589670D01*
Y-590123D01*
Y-590577D01*
Y-591030D01*
Y-591484D01*
Y-591937D01*
Y-592391D01*
Y-592845D01*
Y-593298D01*
Y-593752D01*
Y-594205D01*
Y-594659D01*
Y-595112D01*
Y-595566D01*
Y-596019D01*
Y-596473D01*
Y-596926D01*
Y-597380D01*
Y-597834D01*
Y-598287D01*
Y-598741D01*
Y-599194D01*
Y-599648D01*
Y-600101D01*
Y-600555D01*
Y-601008D01*
Y-601462D01*
Y-601916D01*
Y-602369D01*
Y-602823D01*
Y-603276D01*
Y-603730D01*
Y-604183D01*
Y-604637D01*
Y-605090D01*
Y-605544D01*
Y-605998D01*
Y-606451D01*
Y-606905D01*
Y-607358D01*
Y-607812D01*
Y-608265D01*
Y-608719D01*
Y-609173D01*
Y-609626D01*
Y-610080D01*
Y-610533D01*
Y-610987D01*
Y-611440D01*
Y-611894D01*
Y-612347D01*
Y-612801D01*
Y-613255D01*
Y-613708D01*
Y-614162D01*
Y-614615D01*
Y-615069D01*
Y-615522D01*
X962130D01*
Y-615976D01*
Y-616429D01*
Y-616883D01*
Y-617337D01*
X961676D01*
Y-617790D01*
Y-618244D01*
X961223D01*
Y-618697D01*
Y-619151D01*
X960769D01*
Y-619604D01*
X960316D01*
Y-620058D01*
X959862D01*
Y-620511D01*
X959409D01*
Y-620965D01*
X958955D01*
Y-621418D01*
X958048D01*
Y-621872D01*
X956687D01*
Y-622326D01*
X950338D01*
Y-621872D01*
X948977D01*
Y-621418D01*
X948070D01*
Y-620965D01*
X947616D01*
Y-620511D01*
X947163D01*
Y-620058D01*
X946709D01*
Y-619604D01*
Y-619151D01*
X946255D01*
Y-618697D01*
Y-618244D01*
X945802D01*
Y-617790D01*
Y-617337D01*
Y-616883D01*
Y-616429D01*
X945348D01*
Y-615976D01*
Y-615522D01*
Y-615069D01*
Y-614615D01*
Y-614162D01*
Y-613708D01*
Y-613255D01*
Y-612801D01*
Y-612347D01*
Y-611894D01*
Y-611440D01*
Y-610987D01*
Y-610533D01*
Y-610080D01*
Y-609626D01*
Y-609173D01*
Y-608719D01*
Y-608265D01*
Y-607812D01*
Y-607358D01*
Y-606905D01*
Y-606451D01*
Y-605998D01*
Y-605544D01*
Y-605090D01*
Y-604637D01*
Y-604183D01*
Y-603730D01*
Y-603276D01*
Y-602823D01*
Y-602369D01*
Y-601916D01*
Y-601462D01*
Y-601008D01*
Y-600555D01*
Y-600101D01*
Y-599648D01*
Y-599194D01*
Y-598741D01*
Y-598287D01*
Y-597834D01*
Y-597380D01*
Y-596926D01*
Y-596473D01*
Y-596019D01*
Y-595566D01*
Y-595112D01*
Y-594659D01*
Y-594205D01*
Y-593752D01*
Y-593298D01*
Y-592845D01*
Y-592391D01*
Y-591937D01*
Y-591484D01*
Y-591030D01*
Y-590577D01*
Y-590123D01*
Y-589670D01*
Y-589216D01*
Y-588763D01*
Y-588309D01*
Y-587855D01*
X932649D01*
Y-588309D01*
Y-588763D01*
Y-589216D01*
Y-589670D01*
Y-590123D01*
Y-590577D01*
Y-591030D01*
Y-591484D01*
Y-591937D01*
Y-592391D01*
Y-592845D01*
Y-593298D01*
Y-593752D01*
Y-594205D01*
Y-594659D01*
Y-595112D01*
Y-595566D01*
Y-596019D01*
Y-596473D01*
Y-596926D01*
Y-597380D01*
Y-597834D01*
Y-598287D01*
Y-598741D01*
Y-599194D01*
Y-599648D01*
Y-600101D01*
Y-600555D01*
Y-601008D01*
Y-601462D01*
Y-601916D01*
Y-602369D01*
Y-602823D01*
Y-603276D01*
Y-603730D01*
Y-604183D01*
Y-604637D01*
Y-605090D01*
Y-605544D01*
Y-605998D01*
Y-606451D01*
Y-606905D01*
Y-607358D01*
Y-607812D01*
Y-608265D01*
Y-608719D01*
Y-609173D01*
Y-609626D01*
Y-610080D01*
Y-610533D01*
Y-610987D01*
Y-611440D01*
Y-611894D01*
Y-612347D01*
Y-612801D01*
Y-613255D01*
Y-613708D01*
Y-614162D01*
Y-614615D01*
Y-615069D01*
Y-615522D01*
Y-615976D01*
Y-616429D01*
Y-616883D01*
Y-617337D01*
Y-617790D01*
Y-618244D01*
Y-618697D01*
Y-619151D01*
Y-619604D01*
Y-620058D01*
Y-620511D01*
Y-620965D01*
X933102D01*
Y-621418D01*
Y-621872D01*
Y-622326D01*
Y-622779D01*
X933556D01*
Y-623233D01*
Y-623686D01*
Y-624140D01*
X934009D01*
Y-624593D01*
Y-625047D01*
Y-625501D01*
X934463D01*
Y-625954D01*
Y-626408D01*
X934917D01*
Y-626861D01*
X935370D01*
Y-627315D01*
Y-627768D01*
X935824D01*
Y-628222D01*
X936277D01*
Y-628675D01*
X936731D01*
Y-629129D01*
X937184D01*
Y-629583D01*
X937638D01*
Y-630036D01*
X938092D01*
Y-630490D01*
X938999D01*
Y-630943D01*
X939452D01*
Y-631397D01*
X940359D01*
Y-631850D01*
X941266D01*
Y-632304D01*
X942173D01*
Y-632757D01*
X943534D01*
Y-633211D01*
X945348D01*
Y-633665D01*
X954419D01*
Y-633211D01*
X956234D01*
Y-632757D01*
X957141D01*
Y-632304D01*
X958502D01*
Y-631850D01*
X958955D01*
Y-631397D01*
X959862D01*
Y-630943D01*
X960316D01*
Y-630490D01*
X960769D01*
Y-630036D01*
X961676D01*
Y-629583D01*
X962130D01*
Y-629129D01*
X962583D01*
Y-628675D01*
Y-628222D01*
X963037D01*
Y-628675D01*
Y-629129D01*
Y-629583D01*
Y-630036D01*
Y-630490D01*
Y-630943D01*
Y-631397D01*
Y-631850D01*
Y-632304D01*
Y-632757D01*
X968026D01*
Y-633211D01*
X967573D01*
Y-633665D01*
X967119D01*
Y-634118D01*
X966665D01*
Y-634572D01*
X966212D01*
Y-635025D01*
X965758D01*
Y-635479D01*
X965305D01*
Y-635932D01*
X964851D01*
Y-636386D01*
X964398D01*
Y-636839D01*
X963491D01*
Y-637293D01*
X963037D01*
Y-637747D01*
X962583D01*
Y-638200D01*
X962130D01*
Y-638654D01*
X961223D01*
Y-639107D01*
X960769D01*
Y-639561D01*
X960316D01*
Y-640014D01*
X959409D01*
Y-640468D01*
X958955D01*
Y-640921D01*
X958048D01*
Y-641375D01*
X957594D01*
Y-641829D01*
X956687D01*
Y-642282D01*
X956234D01*
Y-642736D01*
X955327D01*
Y-643189D01*
X954419D01*
Y-643643D01*
X953512D01*
Y-644096D01*
X953059D01*
Y-644550D01*
X952152D01*
Y-645004D01*
X950791D01*
Y-645457D01*
X949884D01*
Y-645911D01*
X948977D01*
Y-646364D01*
X947616D01*
Y-646818D01*
X946709D01*
Y-647271D01*
X945348D01*
Y-647725D01*
X943534D01*
Y-648178D01*
X942173D01*
Y-648632D01*
X940359D01*
Y-649085D01*
X937638D01*
Y-649539D01*
X934463D01*
Y-649993D01*
X922671D01*
Y-649539D01*
X919496D01*
Y-649085D01*
X917228D01*
Y-648632D01*
X915414D01*
Y-648178D01*
X913599D01*
Y-647725D01*
X912239D01*
Y-647271D01*
X910878D01*
Y-646818D01*
X909518D01*
Y-646364D01*
X908610D01*
Y-645911D01*
X907250D01*
Y-645457D01*
X906343D01*
Y-645004D01*
X905435D01*
Y-644550D01*
X904528D01*
Y-644096D01*
X903621D01*
Y-643643D01*
X902714D01*
Y-643189D01*
X901807D01*
Y-642736D01*
X901354D01*
Y-642282D01*
X900446D01*
Y-641829D01*
X899539D01*
Y-641375D01*
X899086D01*
Y-640921D01*
X898179D01*
Y-640468D01*
X897725D01*
Y-640014D01*
X897271D01*
Y-639561D01*
X896364D01*
Y-639107D01*
X895911D01*
Y-638654D01*
X895457D01*
Y-638200D01*
X894550D01*
Y-637747D01*
X894097D01*
Y-637293D01*
X893643D01*
Y-636839D01*
X893189D01*
Y-636386D01*
X892736D01*
Y-635932D01*
X892282D01*
Y-635479D01*
X891829D01*
Y-635025D01*
X891375D01*
Y-634572D01*
X890922D01*
Y-634118D01*
X890468D01*
Y-633665D01*
X890015D01*
Y-633211D01*
X889561D01*
Y-632757D01*
X889108D01*
Y-632304D01*
X888654D01*
Y-631850D01*
X888200D01*
Y-631397D01*
X887747D01*
Y-630943D01*
X887293D01*
Y-630490D01*
Y-630036D01*
X886840D01*
Y-629583D01*
X886386D01*
Y-629129D01*
X885933D01*
Y-628675D01*
X885479D01*
Y-628222D01*
Y-627768D01*
X885025D01*
Y-627315D01*
X884572D01*
Y-626861D01*
Y-626408D01*
X884118D01*
Y-625954D01*
X883665D01*
Y-625501D01*
Y-625047D01*
X883211D01*
Y-624593D01*
X882758D01*
Y-624140D01*
Y-623686D01*
X882304D01*
Y-623233D01*
Y-622779D01*
X881851D01*
Y-622326D01*
Y-621872D01*
X881397D01*
Y-621418D01*
Y-620965D01*
X880944D01*
Y-620511D01*
Y-620058D01*
X880490D01*
Y-619604D01*
Y-619151D01*
X880036D01*
Y-618697D01*
Y-618244D01*
X879583D01*
Y-617790D01*
Y-617337D01*
X879129D01*
Y-616883D01*
Y-616429D01*
Y-615976D01*
X878676D01*
Y-615522D01*
Y-615069D01*
Y-614615D01*
X878222D01*
Y-614162D01*
Y-613708D01*
X877769D01*
Y-613255D01*
Y-612801D01*
Y-612347D01*
Y-611894D01*
X877315D01*
Y-611440D01*
Y-610987D01*
Y-610533D01*
X876861D01*
Y-610080D01*
Y-609626D01*
Y-609173D01*
Y-608719D01*
X876408D01*
Y-608265D01*
Y-607812D01*
Y-607358D01*
Y-606905D01*
Y-606451D01*
X875954D01*
Y-605998D01*
Y-605544D01*
Y-605090D01*
Y-604637D01*
Y-604183D01*
Y-603730D01*
Y-603276D01*
X875501D01*
Y-602823D01*
Y-602369D01*
Y-601916D01*
Y-601462D01*
Y-601008D01*
Y-600555D01*
Y-600101D01*
Y-599648D01*
Y-599194D01*
Y-598741D01*
X875047D01*
Y-598287D01*
Y-597834D01*
Y-597380D01*
Y-596926D01*
Y-596473D01*
Y-596019D01*
Y-595566D01*
Y-595112D01*
Y-594659D01*
X875501D01*
Y-594205D01*
Y-593752D01*
Y-593298D01*
Y-592845D01*
Y-592391D01*
Y-591937D01*
Y-591484D01*
Y-591030D01*
Y-590577D01*
X875954D01*
Y-590123D01*
Y-589670D01*
Y-589216D01*
Y-588763D01*
Y-588309D01*
Y-587855D01*
Y-587402D01*
X876408D01*
Y-586948D01*
Y-586495D01*
Y-586041D01*
Y-585588D01*
Y-585134D01*
X876861D01*
Y-584680D01*
Y-584227D01*
Y-583773D01*
Y-583320D01*
X877315D01*
Y-582866D01*
Y-582413D01*
Y-581959D01*
Y-581506D01*
X877769D01*
Y-581052D01*
Y-580598D01*
Y-580145D01*
X878222D01*
Y-579691D01*
Y-579238D01*
Y-578784D01*
X878676D01*
Y-578331D01*
Y-577877D01*
X879129D01*
Y-577424D01*
Y-576970D01*
Y-576516D01*
X879583D01*
Y-576063D01*
Y-575609D01*
X880036D01*
Y-575156D01*
Y-574702D01*
Y-574249D01*
X880490D01*
Y-573795D01*
Y-573342D01*
X880944D01*
Y-572888D01*
Y-572435D01*
X881397D01*
Y-571981D01*
Y-571527D01*
X881851D01*
Y-571074D01*
X882304D01*
Y-570620D01*
Y-570167D01*
X882758D01*
Y-569713D01*
Y-569260D01*
X883211D01*
Y-568806D01*
X883665D01*
Y-568353D01*
Y-567899D01*
X884118D01*
Y-567445D01*
X884572D01*
Y-566992D01*
Y-566538D01*
X885025D01*
Y-566085D01*
X885479D01*
Y-565631D01*
Y-565178D01*
X885933D01*
Y-564724D01*
X886386D01*
Y-564271D01*
X886840D01*
Y-563817D01*
Y-563363D01*
X887293D01*
Y-562910D01*
X887747D01*
Y-562456D01*
X888200D01*
Y-562003D01*
X888654D01*
Y-561549D01*
X889108D01*
Y-561096D01*
X889561D01*
Y-560642D01*
X890015D01*
Y-560188D01*
Y-559735D01*
X890468D01*
Y-559281D01*
X890922D01*
Y-558828D01*
X891375D01*
Y-558374D01*
X892282D01*
Y-557921D01*
X892736D01*
Y-557467D01*
X893189D01*
Y-557014D01*
X893643D01*
Y-556560D01*
X894097D01*
Y-556106D01*
X894550D01*
Y-555653D01*
X895004D01*
Y-555199D01*
X895911D01*
Y-554746D01*
X896364D01*
Y-554292D01*
X896818D01*
Y-553839D01*
X897725D01*
Y-553385D01*
X898179D01*
Y-552932D01*
X899086D01*
Y-552478D01*
X899539D01*
Y-552024D01*
X900446D01*
Y-551571D01*
X900900D01*
Y-551117D01*
X901807D01*
Y-550664D01*
X902714D01*
Y-550210D01*
X903168D01*
Y-549757D01*
X904528D01*
Y-549303D01*
X905435D01*
Y-548850D01*
X906343D01*
Y-548396D01*
X907250D01*
Y-547943D01*
X908157D01*
Y-547489D01*
X909518D01*
Y-547035D01*
X910425D01*
Y-546582D01*
X911785D01*
Y-546128D01*
X913146D01*
Y-545675D01*
X914960D01*
Y-545221D01*
X916774D01*
Y-544768D01*
X919042D01*
Y-544314D01*
X922217D01*
Y-543861D01*
X926753D01*
Y-543407D01*
X930835D01*
Y-543861D01*
D02*
G37*
G36*
X1001136Y-571074D02*
Y-571527D01*
Y-571981D01*
Y-572435D01*
Y-572888D01*
Y-573342D01*
Y-573795D01*
Y-574249D01*
Y-574702D01*
Y-575156D01*
Y-575609D01*
Y-576063D01*
Y-576516D01*
Y-576970D01*
Y-577424D01*
Y-577877D01*
Y-578331D01*
Y-578784D01*
Y-579238D01*
Y-579691D01*
Y-580145D01*
Y-580598D01*
Y-581052D01*
Y-581506D01*
Y-581959D01*
Y-582413D01*
Y-582866D01*
Y-583320D01*
Y-583773D01*
Y-584227D01*
Y-584680D01*
Y-585134D01*
Y-585588D01*
Y-586041D01*
Y-586495D01*
Y-586948D01*
Y-587402D01*
Y-587855D01*
Y-588309D01*
Y-588763D01*
Y-589216D01*
Y-589670D01*
Y-590123D01*
Y-590577D01*
Y-591030D01*
Y-591484D01*
Y-591937D01*
Y-592391D01*
Y-592845D01*
Y-593298D01*
X1002043D01*
Y-592845D01*
X1002496D01*
Y-592391D01*
X1002950D01*
Y-591937D01*
X1003404D01*
Y-591484D01*
X1003857D01*
Y-591030D01*
X1004311D01*
Y-590577D01*
X1004764D01*
Y-590123D01*
X1005671D01*
Y-589670D01*
X1006125D01*
Y-589216D01*
X1007032D01*
Y-588763D01*
X1007939D01*
Y-588309D01*
X1009300D01*
Y-587855D01*
X1011114D01*
Y-587402D01*
X1019732D01*
Y-587855D01*
X1021546D01*
Y-588309D01*
X1022906D01*
Y-588763D01*
X1024267D01*
Y-589216D01*
X1025174D01*
Y-589670D01*
X1025628D01*
Y-590123D01*
X1026535D01*
Y-590577D01*
X1026989D01*
Y-591030D01*
X1027896D01*
Y-591484D01*
X1028349D01*
Y-591937D01*
X1028803D01*
Y-592391D01*
X1029256D01*
Y-592845D01*
X1029710D01*
Y-593298D01*
X1030163D01*
Y-593752D01*
Y-594205D01*
X1030617D01*
Y-594659D01*
X1031070D01*
Y-595112D01*
X1031524D01*
Y-595566D01*
Y-596019D01*
X1031978D01*
Y-596473D01*
Y-596926D01*
X1032431D01*
Y-597380D01*
Y-597834D01*
X1032885D01*
Y-598287D01*
Y-598741D01*
X1033338D01*
Y-599194D01*
Y-599648D01*
Y-600101D01*
X1033792D01*
Y-600555D01*
Y-601008D01*
Y-601462D01*
Y-601916D01*
X1034245D01*
Y-602369D01*
Y-602823D01*
Y-603276D01*
Y-603730D01*
Y-604183D01*
X1034699D01*
Y-604637D01*
Y-605090D01*
Y-605544D01*
Y-605998D01*
Y-606451D01*
Y-606905D01*
Y-607358D01*
Y-607812D01*
Y-608265D01*
X1035153D01*
Y-608719D01*
X1034699D01*
Y-609173D01*
Y-609626D01*
Y-610080D01*
Y-610533D01*
Y-610987D01*
Y-611440D01*
Y-611894D01*
Y-612347D01*
Y-612801D01*
Y-613255D01*
Y-613708D01*
Y-614162D01*
Y-614615D01*
Y-615069D01*
Y-615522D01*
Y-615976D01*
Y-616429D01*
X1034245D01*
Y-616883D01*
Y-617337D01*
Y-617790D01*
Y-618244D01*
Y-618697D01*
X1033792D01*
Y-619151D01*
Y-619604D01*
Y-620058D01*
X1033338D01*
Y-620511D01*
Y-620965D01*
Y-621418D01*
X1032885D01*
Y-621872D01*
Y-622326D01*
Y-622779D01*
X1032431D01*
Y-623233D01*
Y-623686D01*
X1031978D01*
Y-624140D01*
Y-624593D01*
X1031524D01*
Y-625047D01*
X1031070D01*
Y-625501D01*
Y-625954D01*
X1030617D01*
Y-626408D01*
X1030163D01*
Y-626861D01*
X1029710D01*
Y-627315D01*
X1029256D01*
Y-627768D01*
Y-628222D01*
X1028349D01*
Y-628675D01*
X1027896D01*
Y-629129D01*
X1027442D01*
Y-629583D01*
X1026989D01*
Y-630036D01*
X1026081D01*
Y-630490D01*
X1025628D01*
Y-630943D01*
X1024721D01*
Y-631397D01*
X1023814D01*
Y-631850D01*
X1022906D01*
Y-632304D01*
X1021546D01*
Y-632757D01*
X1019278D01*
Y-633211D01*
X1011568D01*
Y-632757D01*
X1009300D01*
Y-632304D01*
X1008393D01*
Y-631850D01*
X1007032D01*
Y-631397D01*
X1006579D01*
Y-630943D01*
X1005671D01*
Y-630490D01*
X1005218D01*
Y-630036D01*
X1004311D01*
Y-629583D01*
X1003857D01*
Y-629129D01*
X1003404D01*
Y-628675D01*
X1002950D01*
Y-628222D01*
X1002496D01*
Y-627768D01*
X1002043D01*
Y-627315D01*
X1001589D01*
Y-626861D01*
Y-626408D01*
X1000682D01*
Y-626861D01*
Y-627315D01*
Y-627768D01*
Y-628222D01*
Y-628675D01*
Y-629129D01*
Y-629583D01*
Y-630036D01*
Y-630490D01*
Y-630943D01*
Y-631397D01*
Y-631850D01*
Y-632304D01*
X989343D01*
Y-631850D01*
Y-631397D01*
Y-630943D01*
Y-630490D01*
Y-630036D01*
Y-629583D01*
Y-629129D01*
Y-628675D01*
Y-628222D01*
Y-627768D01*
Y-627315D01*
Y-626861D01*
Y-626408D01*
Y-625954D01*
Y-625501D01*
Y-625047D01*
Y-624593D01*
Y-624140D01*
Y-623686D01*
Y-623233D01*
Y-622779D01*
Y-622326D01*
Y-621872D01*
Y-621418D01*
Y-620965D01*
Y-620511D01*
Y-620058D01*
Y-619604D01*
Y-619151D01*
Y-618697D01*
Y-618244D01*
Y-617790D01*
Y-617337D01*
Y-616883D01*
Y-616429D01*
Y-615976D01*
Y-615522D01*
Y-615069D01*
Y-614615D01*
Y-614162D01*
Y-613708D01*
Y-613255D01*
Y-612801D01*
Y-612347D01*
Y-611894D01*
Y-611440D01*
Y-610987D01*
Y-610533D01*
Y-610080D01*
Y-609626D01*
Y-609173D01*
Y-608719D01*
Y-608265D01*
Y-607812D01*
Y-607358D01*
Y-606905D01*
Y-606451D01*
Y-605998D01*
Y-605544D01*
Y-605090D01*
Y-604637D01*
Y-604183D01*
Y-603730D01*
Y-603276D01*
Y-602823D01*
Y-602369D01*
Y-601916D01*
Y-601462D01*
Y-601008D01*
Y-600555D01*
Y-600101D01*
Y-599648D01*
Y-599194D01*
Y-598741D01*
Y-598287D01*
Y-597834D01*
Y-597380D01*
Y-596926D01*
Y-596473D01*
Y-596019D01*
Y-595566D01*
Y-595112D01*
Y-594659D01*
Y-594205D01*
Y-593752D01*
Y-593298D01*
Y-592845D01*
Y-592391D01*
Y-591937D01*
Y-591484D01*
Y-591030D01*
Y-590577D01*
Y-590123D01*
Y-589670D01*
Y-589216D01*
Y-588763D01*
Y-588309D01*
Y-587855D01*
Y-587402D01*
Y-586948D01*
Y-586495D01*
Y-586041D01*
Y-585588D01*
Y-585134D01*
Y-584680D01*
Y-584227D01*
Y-583773D01*
Y-583320D01*
Y-582866D01*
Y-582413D01*
Y-581959D01*
Y-581506D01*
Y-581052D01*
Y-580598D01*
Y-580145D01*
Y-579691D01*
Y-579238D01*
Y-578784D01*
Y-578331D01*
Y-577877D01*
Y-577424D01*
Y-576970D01*
Y-576516D01*
Y-576063D01*
Y-575609D01*
Y-575156D01*
Y-574702D01*
Y-574249D01*
Y-573795D01*
Y-573342D01*
Y-572888D01*
Y-572435D01*
Y-571981D01*
Y-571527D01*
Y-571074D01*
Y-570620D01*
X1001136D01*
Y-571074D01*
D02*
G37*
G36*
X1054655D02*
Y-571527D01*
Y-571981D01*
Y-572435D01*
Y-572888D01*
Y-573342D01*
Y-573795D01*
Y-574249D01*
Y-574702D01*
Y-575156D01*
Y-575609D01*
Y-576063D01*
Y-576516D01*
Y-576970D01*
Y-577424D01*
Y-577877D01*
Y-578331D01*
Y-578784D01*
Y-579238D01*
Y-579691D01*
Y-580145D01*
Y-580598D01*
Y-581052D01*
Y-581506D01*
Y-581959D01*
Y-582413D01*
Y-582866D01*
Y-583320D01*
Y-583773D01*
Y-584227D01*
Y-584680D01*
Y-585134D01*
Y-585588D01*
Y-586041D01*
Y-586495D01*
Y-586948D01*
Y-587402D01*
Y-587855D01*
Y-588309D01*
Y-588763D01*
Y-589216D01*
Y-589670D01*
Y-590123D01*
Y-590577D01*
Y-591030D01*
Y-591484D01*
Y-591937D01*
Y-592391D01*
Y-592845D01*
Y-593298D01*
Y-593752D01*
Y-594205D01*
Y-594659D01*
Y-595112D01*
Y-595566D01*
Y-596019D01*
Y-596473D01*
Y-596926D01*
Y-597380D01*
Y-597834D01*
Y-598287D01*
Y-598741D01*
Y-599194D01*
Y-599648D01*
Y-600101D01*
Y-600555D01*
Y-601008D01*
Y-601462D01*
Y-601916D01*
Y-602369D01*
Y-602823D01*
Y-603276D01*
Y-603730D01*
Y-604183D01*
Y-604637D01*
Y-605090D01*
Y-605544D01*
Y-605998D01*
Y-606451D01*
Y-606905D01*
Y-607358D01*
Y-607812D01*
Y-608265D01*
Y-608719D01*
Y-609173D01*
Y-609626D01*
Y-610080D01*
Y-610533D01*
Y-610987D01*
Y-611440D01*
Y-611894D01*
Y-612347D01*
Y-612801D01*
Y-613255D01*
Y-613708D01*
Y-614162D01*
Y-614615D01*
Y-615069D01*
Y-615522D01*
Y-615976D01*
Y-616429D01*
Y-616883D01*
Y-617337D01*
Y-617790D01*
Y-618244D01*
Y-618697D01*
Y-619151D01*
Y-619604D01*
Y-620058D01*
Y-620511D01*
Y-620965D01*
Y-621418D01*
Y-621872D01*
Y-622326D01*
Y-622779D01*
Y-623233D01*
Y-623686D01*
Y-624140D01*
Y-624593D01*
Y-625047D01*
Y-625501D01*
Y-625954D01*
Y-626408D01*
Y-626861D01*
Y-627315D01*
Y-627768D01*
Y-628222D01*
Y-628675D01*
Y-629129D01*
Y-629583D01*
Y-630036D01*
Y-630490D01*
Y-630943D01*
Y-631397D01*
Y-631850D01*
Y-632304D01*
X1043316D01*
Y-631850D01*
Y-631397D01*
Y-630943D01*
Y-630490D01*
Y-630036D01*
Y-629583D01*
Y-629129D01*
Y-628675D01*
Y-628222D01*
Y-627768D01*
Y-627315D01*
Y-626861D01*
Y-626408D01*
Y-625954D01*
Y-625501D01*
Y-625047D01*
Y-624593D01*
Y-624140D01*
Y-623686D01*
Y-623233D01*
Y-622779D01*
Y-622326D01*
Y-621872D01*
Y-621418D01*
Y-620965D01*
Y-620511D01*
Y-620058D01*
Y-619604D01*
Y-619151D01*
Y-618697D01*
Y-618244D01*
Y-617790D01*
Y-617337D01*
Y-616883D01*
Y-616429D01*
Y-615976D01*
Y-615522D01*
Y-615069D01*
Y-614615D01*
Y-614162D01*
Y-613708D01*
Y-613255D01*
Y-612801D01*
Y-612347D01*
Y-611894D01*
Y-611440D01*
Y-610987D01*
Y-610533D01*
Y-610080D01*
Y-609626D01*
Y-609173D01*
Y-608719D01*
Y-608265D01*
Y-607812D01*
Y-607358D01*
Y-606905D01*
Y-606451D01*
Y-605998D01*
Y-605544D01*
Y-605090D01*
Y-604637D01*
Y-604183D01*
Y-603730D01*
Y-603276D01*
Y-602823D01*
Y-602369D01*
Y-601916D01*
Y-601462D01*
Y-601008D01*
Y-600555D01*
Y-600101D01*
Y-599648D01*
Y-599194D01*
Y-598741D01*
Y-598287D01*
Y-597834D01*
Y-597380D01*
Y-596926D01*
Y-596473D01*
Y-596019D01*
Y-595566D01*
Y-595112D01*
Y-594659D01*
Y-594205D01*
Y-593752D01*
Y-593298D01*
Y-592845D01*
Y-592391D01*
Y-591937D01*
Y-591484D01*
Y-591030D01*
Y-590577D01*
Y-590123D01*
Y-589670D01*
Y-589216D01*
Y-588763D01*
Y-588309D01*
Y-587855D01*
Y-587402D01*
Y-586948D01*
Y-586495D01*
Y-586041D01*
Y-585588D01*
Y-585134D01*
Y-584680D01*
Y-584227D01*
Y-583773D01*
Y-583320D01*
Y-582866D01*
Y-582413D01*
Y-581959D01*
Y-581506D01*
Y-581052D01*
Y-580598D01*
Y-580145D01*
Y-579691D01*
Y-579238D01*
Y-578784D01*
Y-578331D01*
Y-577877D01*
Y-577424D01*
Y-576970D01*
Y-576516D01*
Y-576063D01*
Y-575609D01*
Y-575156D01*
Y-574702D01*
Y-574249D01*
Y-573795D01*
Y-573342D01*
Y-572888D01*
Y-572435D01*
Y-571981D01*
Y-571527D01*
Y-571074D01*
Y-570620D01*
X1054655D01*
Y-571074D01*
D02*
G37*
G36*
X1090940Y-587855D02*
X1093208D01*
Y-588309D01*
X1094568D01*
Y-588763D01*
X1095929D01*
Y-589216D01*
X1096836D01*
Y-589670D01*
X1097743D01*
Y-590123D01*
X1098650D01*
Y-590577D01*
X1099557D01*
Y-591030D01*
X1100011D01*
Y-591484D01*
X1100918D01*
Y-591937D01*
X1101372D01*
Y-592391D01*
X1101825D01*
Y-592845D01*
X1102279D01*
Y-593298D01*
X1102732D01*
Y-593752D01*
X1103186D01*
Y-594205D01*
X1103639D01*
Y-594659D01*
X1104093D01*
Y-595112D01*
X1104547D01*
Y-595566D01*
Y-596019D01*
X1105000D01*
Y-596473D01*
X1105454D01*
Y-596926D01*
Y-597380D01*
X1105907D01*
Y-597834D01*
Y-598287D01*
X1106361D01*
Y-598741D01*
Y-599194D01*
X1106814D01*
Y-599648D01*
Y-600101D01*
X1107268D01*
Y-600555D01*
Y-601008D01*
Y-601462D01*
X1107721D01*
Y-601916D01*
Y-602369D01*
Y-602823D01*
Y-603276D01*
Y-603730D01*
X1108175D01*
Y-604183D01*
Y-604637D01*
Y-605090D01*
Y-605544D01*
Y-605998D01*
Y-606451D01*
Y-606905D01*
X1108628D01*
Y-607358D01*
Y-607812D01*
Y-608265D01*
Y-608719D01*
Y-609173D01*
Y-609626D01*
Y-610080D01*
Y-610533D01*
Y-610987D01*
Y-611440D01*
Y-611894D01*
Y-612347D01*
Y-612801D01*
Y-613255D01*
Y-613708D01*
X1108175D01*
Y-614162D01*
Y-614615D01*
Y-615069D01*
Y-615522D01*
Y-615976D01*
Y-616429D01*
Y-616883D01*
X1107721D01*
Y-617337D01*
Y-617790D01*
Y-618244D01*
Y-618697D01*
X1107268D01*
Y-619151D01*
Y-619604D01*
Y-620058D01*
X1106814D01*
Y-620511D01*
Y-620965D01*
Y-621418D01*
X1106361D01*
Y-621872D01*
Y-622326D01*
X1105907D01*
Y-622779D01*
Y-623233D01*
X1105454D01*
Y-623686D01*
Y-624140D01*
X1105000D01*
Y-624593D01*
X1104547D01*
Y-625047D01*
X1104093D01*
Y-625501D01*
Y-625954D01*
X1103639D01*
Y-626408D01*
X1103186D01*
Y-626861D01*
X1102732D01*
Y-627315D01*
X1102279D01*
Y-627768D01*
X1101825D01*
Y-628222D01*
X1101372D01*
Y-628675D01*
X1100465D01*
Y-629129D01*
X1100011D01*
Y-629583D01*
X1099104D01*
Y-630036D01*
X1098650D01*
Y-630490D01*
X1097743D01*
Y-630943D01*
X1096836D01*
Y-631397D01*
X1095475D01*
Y-631850D01*
X1094115D01*
Y-632304D01*
X1092754D01*
Y-632757D01*
X1090486D01*
Y-633211D01*
X1080962D01*
Y-632757D01*
X1078240D01*
Y-632304D01*
X1076426D01*
Y-631850D01*
X1075519D01*
Y-631397D01*
X1074158D01*
Y-630943D01*
X1073251D01*
Y-630490D01*
X1072344D01*
Y-630036D01*
X1071890D01*
Y-629583D01*
X1070983D01*
Y-629129D01*
X1070530D01*
Y-628675D01*
X1069623D01*
Y-628222D01*
X1069169D01*
Y-627768D01*
X1068716D01*
Y-627315D01*
X1068262D01*
Y-626861D01*
X1067809D01*
Y-626408D01*
X1067355D01*
Y-625954D01*
X1066901D01*
Y-625501D01*
Y-625047D01*
X1066448D01*
Y-624593D01*
X1065994D01*
Y-624140D01*
X1065541D01*
Y-623686D01*
Y-623233D01*
X1065087D01*
Y-622779D01*
Y-622326D01*
X1064634D01*
Y-621872D01*
Y-621418D01*
X1064180D01*
Y-620965D01*
Y-620511D01*
Y-620058D01*
X1063727D01*
Y-619604D01*
Y-619151D01*
Y-618697D01*
X1063273D01*
Y-618244D01*
Y-617790D01*
Y-617337D01*
Y-616883D01*
X1062819D01*
Y-616429D01*
Y-615976D01*
Y-615522D01*
Y-615069D01*
Y-614615D01*
Y-614162D01*
Y-613708D01*
Y-613255D01*
X1062366D01*
Y-612801D01*
Y-612347D01*
Y-611894D01*
Y-611440D01*
Y-610987D01*
Y-610533D01*
Y-610080D01*
Y-609626D01*
Y-609173D01*
Y-608719D01*
Y-608265D01*
Y-607812D01*
Y-607358D01*
X1062819D01*
Y-606905D01*
Y-606451D01*
Y-605998D01*
Y-605544D01*
Y-605090D01*
Y-604637D01*
Y-604183D01*
Y-603730D01*
X1063273D01*
Y-603276D01*
Y-602823D01*
Y-602369D01*
Y-601916D01*
X1063727D01*
Y-601462D01*
Y-601008D01*
Y-600555D01*
X1064180D01*
Y-600101D01*
Y-599648D01*
Y-599194D01*
X1064634D01*
Y-598741D01*
Y-598287D01*
X1065087D01*
Y-597834D01*
Y-597380D01*
X1065541D01*
Y-596926D01*
Y-596473D01*
X1065994D01*
Y-596019D01*
X1066448D01*
Y-595566D01*
Y-595112D01*
X1066901D01*
Y-594659D01*
X1067355D01*
Y-594205D01*
X1067809D01*
Y-593752D01*
X1068262D01*
Y-593298D01*
X1068716D01*
Y-592845D01*
X1069169D01*
Y-592391D01*
X1069623D01*
Y-591937D01*
X1070076D01*
Y-591484D01*
X1070983D01*
Y-591030D01*
X1071437D01*
Y-590577D01*
X1072344D01*
Y-590123D01*
X1073251D01*
Y-589670D01*
X1074158D01*
Y-589216D01*
X1075065D01*
Y-588763D01*
X1076426D01*
Y-588309D01*
X1077787D01*
Y-587855D01*
X1080054D01*
Y-587402D01*
X1090940D01*
Y-587855D01*
D02*
G37*
G36*
X1156705Y-588763D02*
X1156252D01*
Y-589216D01*
Y-589670D01*
X1155798D01*
Y-590123D01*
X1155345D01*
Y-590577D01*
X1154891D01*
Y-591030D01*
Y-591484D01*
X1154438D01*
Y-591937D01*
X1153984D01*
Y-592391D01*
Y-592845D01*
X1153531D01*
Y-593298D01*
X1153077D01*
Y-593752D01*
X1152624D01*
Y-594205D01*
Y-594659D01*
X1152170D01*
Y-595112D01*
X1151716D01*
Y-595566D01*
X1151263D01*
Y-596019D01*
Y-596473D01*
X1150809D01*
Y-596926D01*
X1150356D01*
Y-597380D01*
X1149902D01*
Y-597834D01*
Y-598287D01*
X1149449D01*
Y-598741D01*
X1148995D01*
Y-599194D01*
Y-599648D01*
X1148541D01*
Y-600101D01*
X1148088D01*
Y-600555D01*
X1147634D01*
Y-601008D01*
Y-601462D01*
X1147181D01*
Y-601916D01*
X1146727D01*
Y-602369D01*
X1146274D01*
Y-602823D01*
Y-603276D01*
X1145820D01*
Y-603730D01*
X1145367D01*
Y-604183D01*
Y-604637D01*
X1144913D01*
Y-605090D01*
X1144460D01*
Y-605544D01*
X1144006D01*
Y-605998D01*
Y-606451D01*
X1143552D01*
Y-606905D01*
X1143099D01*
Y-607358D01*
X1142645D01*
Y-607812D01*
Y-608265D01*
X1142192D01*
Y-608719D01*
X1141738D01*
Y-609173D01*
X1141285D01*
Y-609626D01*
Y-610080D01*
Y-610533D01*
X1141738D01*
Y-610987D01*
Y-611440D01*
X1142192D01*
Y-611894D01*
X1142645D01*
Y-612347D01*
X1143099D01*
Y-612801D01*
Y-613255D01*
X1143552D01*
Y-613708D01*
X1144006D01*
Y-614162D01*
X1144460D01*
Y-614615D01*
Y-615069D01*
X1144913D01*
Y-615522D01*
X1145367D01*
Y-615976D01*
Y-616429D01*
X1145820D01*
Y-616883D01*
X1146274D01*
Y-617337D01*
X1146727D01*
Y-617790D01*
Y-618244D01*
X1147181D01*
Y-618697D01*
X1147634D01*
Y-619151D01*
X1148088D01*
Y-619604D01*
Y-620058D01*
X1148541D01*
Y-620511D01*
X1148995D01*
Y-620965D01*
X1149449D01*
Y-621418D01*
Y-621872D01*
X1149902D01*
Y-622326D01*
X1150356D01*
Y-622779D01*
X1150809D01*
Y-623233D01*
Y-623686D01*
X1151263D01*
Y-624140D01*
X1151716D01*
Y-624593D01*
X1152170D01*
Y-625047D01*
Y-625501D01*
X1152624D01*
Y-625954D01*
X1153077D01*
Y-626408D01*
X1153531D01*
Y-626861D01*
Y-627315D01*
X1153984D01*
Y-627768D01*
X1154438D01*
Y-628222D01*
Y-628675D01*
X1154891D01*
Y-629129D01*
X1155345D01*
Y-629583D01*
X1155798D01*
Y-630036D01*
Y-630490D01*
X1156252D01*
Y-630943D01*
X1156705D01*
Y-631397D01*
X1157159D01*
Y-631850D01*
X1157613D01*
Y-632304D01*
X1143099D01*
Y-631850D01*
Y-631397D01*
X1142645D01*
Y-630943D01*
X1142192D01*
Y-630490D01*
X1141738D01*
Y-630036D01*
Y-629583D01*
X1141285D01*
Y-629129D01*
X1140831D01*
Y-628675D01*
X1140378D01*
Y-628222D01*
Y-627768D01*
X1139924D01*
Y-627315D01*
X1139470D01*
Y-626861D01*
Y-626408D01*
X1139017D01*
Y-625954D01*
X1138563D01*
Y-625501D01*
X1138110D01*
Y-625047D01*
Y-624593D01*
X1137656D01*
Y-624140D01*
X1137203D01*
Y-623686D01*
X1136749D01*
Y-623233D01*
Y-622779D01*
X1136295D01*
Y-622326D01*
X1135842D01*
Y-621872D01*
Y-621418D01*
X1135388D01*
Y-620965D01*
X1134935D01*
Y-620511D01*
X1134481D01*
Y-620058D01*
Y-619604D01*
X1134028D01*
Y-619151D01*
X1133574D01*
Y-618697D01*
X1133121D01*
Y-618244D01*
X1132667D01*
Y-618697D01*
Y-619151D01*
X1132214D01*
Y-619604D01*
X1131760D01*
Y-620058D01*
X1131306D01*
Y-620511D01*
Y-620965D01*
X1130853D01*
Y-621418D01*
X1130399D01*
Y-621872D01*
Y-622326D01*
X1129946D01*
Y-622779D01*
X1129492D01*
Y-623233D01*
X1129039D01*
Y-623686D01*
Y-624140D01*
X1128585D01*
Y-624593D01*
X1128131D01*
Y-625047D01*
Y-625501D01*
X1127678D01*
Y-625954D01*
X1127224D01*
Y-626408D01*
X1126771D01*
Y-626861D01*
Y-627315D01*
X1126317D01*
Y-627768D01*
X1125864D01*
Y-628222D01*
Y-628675D01*
X1125410D01*
Y-629129D01*
X1124957D01*
Y-629583D01*
X1124503D01*
Y-630036D01*
Y-630490D01*
X1124049D01*
Y-630943D01*
X1123596D01*
Y-631397D01*
Y-631850D01*
X1123142D01*
Y-632304D01*
X1109989D01*
Y-631850D01*
X1110443D01*
Y-631397D01*
X1110896D01*
Y-630943D01*
Y-630490D01*
X1111350D01*
Y-630036D01*
X1111803D01*
Y-629583D01*
X1112257D01*
Y-629129D01*
Y-628675D01*
X1112711D01*
Y-628222D01*
X1113164D01*
Y-627768D01*
Y-627315D01*
X1113618D01*
Y-626861D01*
X1114071D01*
Y-626408D01*
X1114525D01*
Y-625954D01*
X1114978D01*
Y-625501D01*
Y-625047D01*
X1115432D01*
Y-624593D01*
X1115885D01*
Y-624140D01*
Y-623686D01*
X1116339D01*
Y-623233D01*
X1116793D01*
Y-622779D01*
X1117246D01*
Y-622326D01*
Y-621872D01*
X1117700D01*
Y-621418D01*
X1118153D01*
Y-620965D01*
X1118607D01*
Y-620511D01*
Y-620058D01*
X1119060D01*
Y-619604D01*
X1119514D01*
Y-619151D01*
X1119967D01*
Y-618697D01*
Y-618244D01*
X1120421D01*
Y-617790D01*
X1120875D01*
Y-617337D01*
X1121328D01*
Y-616883D01*
Y-616429D01*
X1121782D01*
Y-615976D01*
X1122235D01*
Y-615522D01*
X1122689D01*
Y-615069D01*
Y-614615D01*
X1123142D01*
Y-614162D01*
X1123596D01*
Y-613708D01*
X1124049D01*
Y-613255D01*
Y-612801D01*
X1124503D01*
Y-612347D01*
X1124957D01*
Y-611894D01*
Y-611440D01*
X1125410D01*
Y-610987D01*
X1125864D01*
Y-610533D01*
X1126317D01*
Y-610080D01*
Y-609626D01*
X1125864D01*
Y-609173D01*
X1125410D01*
Y-608719D01*
X1124957D01*
Y-608265D01*
Y-607812D01*
X1124503D01*
Y-607358D01*
X1124049D01*
Y-606905D01*
X1123596D01*
Y-606451D01*
Y-605998D01*
X1123142D01*
Y-605544D01*
X1122689D01*
Y-605090D01*
Y-604637D01*
X1122235D01*
Y-604183D01*
X1121782D01*
Y-603730D01*
X1121328D01*
Y-603276D01*
Y-602823D01*
X1120875D01*
Y-602369D01*
X1120421D01*
Y-601916D01*
X1119967D01*
Y-601462D01*
Y-601008D01*
X1119514D01*
Y-600555D01*
X1119060D01*
Y-600101D01*
Y-599648D01*
X1118607D01*
Y-599194D01*
X1118153D01*
Y-598741D01*
X1117700D01*
Y-598287D01*
Y-597834D01*
X1117246D01*
Y-597380D01*
X1116793D01*
Y-596926D01*
X1116339D01*
Y-596473D01*
Y-596019D01*
X1115885D01*
Y-595566D01*
X1115432D01*
Y-595112D01*
Y-594659D01*
X1114978D01*
Y-594205D01*
X1114525D01*
Y-593752D01*
X1114071D01*
Y-593298D01*
Y-592845D01*
X1113618D01*
Y-592391D01*
X1113164D01*
Y-591937D01*
X1112711D01*
Y-591484D01*
Y-591030D01*
X1112257D01*
Y-590577D01*
X1111803D01*
Y-590123D01*
Y-589670D01*
X1111350D01*
Y-589216D01*
X1110896D01*
Y-588763D01*
X1110443D01*
Y-588309D01*
X1124503D01*
Y-588763D01*
X1124957D01*
Y-589216D01*
X1125410D01*
Y-589670D01*
Y-590123D01*
X1125864D01*
Y-590577D01*
X1126317D01*
Y-591030D01*
X1126771D01*
Y-591484D01*
Y-591937D01*
X1127224D01*
Y-592391D01*
X1127678D01*
Y-592845D01*
Y-593298D01*
X1128131D01*
Y-593752D01*
X1128585D01*
Y-594205D01*
Y-594659D01*
X1129039D01*
Y-595112D01*
X1129492D01*
Y-595566D01*
X1129946D01*
Y-596019D01*
Y-596473D01*
X1130399D01*
Y-596926D01*
X1130853D01*
Y-597380D01*
Y-597834D01*
X1131306D01*
Y-598287D01*
X1131760D01*
Y-598741D01*
X1132214D01*
Y-599194D01*
Y-599648D01*
X1132667D01*
Y-600101D01*
X1133121D01*
Y-600555D01*
Y-601008D01*
X1133574D01*
Y-601462D01*
X1134028D01*
Y-601916D01*
X1134481D01*
Y-601462D01*
X1134935D01*
Y-601008D01*
Y-600555D01*
X1135388D01*
Y-600101D01*
X1135842D01*
Y-599648D01*
X1136295D01*
Y-599194D01*
Y-598741D01*
X1136749D01*
Y-598287D01*
X1137203D01*
Y-597834D01*
Y-597380D01*
X1137656D01*
Y-596926D01*
X1138110D01*
Y-596473D01*
X1138563D01*
Y-596019D01*
Y-595566D01*
X1139017D01*
Y-595112D01*
X1139470D01*
Y-594659D01*
Y-594205D01*
X1139924D01*
Y-593752D01*
X1140378D01*
Y-593298D01*
X1140831D01*
Y-592845D01*
Y-592391D01*
X1141285D01*
Y-591937D01*
X1141738D01*
Y-591484D01*
Y-591030D01*
X1142192D01*
Y-590577D01*
X1142645D01*
Y-590123D01*
X1143099D01*
Y-589670D01*
Y-589216D01*
X1143552D01*
Y-588763D01*
X1144006D01*
Y-588309D01*
X1156705D01*
Y-588763D01*
D02*
G37*
%LPC*%
G36*
X919042Y-567445D02*
X916774D01*
Y-567899D01*
X914960D01*
Y-568353D01*
X914053D01*
Y-568806D01*
X913146D01*
Y-569260D01*
X912239D01*
Y-569713D01*
X911785D01*
Y-570167D01*
X911332D01*
Y-570620D01*
X910878D01*
Y-571074D01*
X910425D01*
Y-571527D01*
Y-571981D01*
X909971D01*
Y-572435D01*
X909518D01*
Y-572888D01*
Y-573342D01*
X909064D01*
Y-573795D01*
Y-574249D01*
Y-574702D01*
Y-575156D01*
X908610D01*
Y-575609D01*
Y-576063D01*
Y-576516D01*
Y-576970D01*
Y-577424D01*
Y-577877D01*
Y-578331D01*
Y-578784D01*
X909064D01*
Y-579238D01*
Y-579691D01*
Y-580145D01*
X909518D01*
Y-580598D01*
Y-581052D01*
X909971D01*
Y-581506D01*
Y-581959D01*
X910425D01*
Y-582413D01*
X910878D01*
Y-582866D01*
X911332D01*
Y-583320D01*
X911785D01*
Y-583773D01*
X912239D01*
Y-584227D01*
X912692D01*
Y-584680D01*
X913599D01*
Y-585134D01*
X914507D01*
Y-585588D01*
X915867D01*
Y-586041D01*
X919949D01*
Y-585588D01*
X921310D01*
Y-585134D01*
X922217D01*
Y-584680D01*
X923124D01*
Y-584227D01*
X923578D01*
Y-583773D01*
X924031D01*
Y-583320D01*
X924938D01*
Y-582866D01*
Y-582413D01*
X925392D01*
Y-581959D01*
X925845D01*
Y-581506D01*
Y-581052D01*
X926299D01*
Y-580598D01*
Y-580145D01*
X926753D01*
Y-579691D01*
Y-579238D01*
Y-578784D01*
X927206D01*
Y-578331D01*
Y-577877D01*
Y-577424D01*
Y-576970D01*
Y-576516D01*
Y-576063D01*
Y-575609D01*
Y-575156D01*
X926753D01*
Y-574702D01*
Y-574249D01*
Y-573795D01*
Y-573342D01*
X926299D01*
Y-572888D01*
Y-572435D01*
X925845D01*
Y-571981D01*
Y-571527D01*
X925392D01*
Y-571074D01*
X924938D01*
Y-570620D01*
X924485D01*
Y-570167D01*
X924031D01*
Y-569713D01*
X923578D01*
Y-569260D01*
X922671D01*
Y-568806D01*
X922217D01*
Y-568353D01*
X920856D01*
Y-567899D01*
X919042D01*
Y-567445D01*
D02*
G37*
G36*
X1013835Y-597380D02*
X1009753D01*
Y-597834D01*
X1007939D01*
Y-598287D01*
X1006579D01*
Y-598741D01*
X1005671D01*
Y-599194D01*
X1005218D01*
Y-599648D01*
X1004311D01*
Y-600101D01*
X1003857D01*
Y-600555D01*
X1003404D01*
Y-601008D01*
Y-601462D01*
X1002950D01*
Y-601916D01*
X1002496D01*
Y-602369D01*
Y-602823D01*
X1002043D01*
Y-603276D01*
Y-603730D01*
X1001589D01*
Y-604183D01*
Y-604637D01*
Y-605090D01*
X1001136D01*
Y-605544D01*
Y-605998D01*
Y-606451D01*
Y-606905D01*
Y-607358D01*
X1000682D01*
Y-607812D01*
Y-608265D01*
Y-608719D01*
Y-609173D01*
Y-609626D01*
Y-610080D01*
Y-610533D01*
Y-610987D01*
Y-611440D01*
Y-611894D01*
Y-612347D01*
Y-612801D01*
Y-613255D01*
X1001136D01*
Y-613708D01*
Y-614162D01*
Y-614615D01*
Y-615069D01*
Y-615522D01*
X1001589D01*
Y-615976D01*
Y-616429D01*
Y-616883D01*
X1002043D01*
Y-617337D01*
Y-617790D01*
X1002496D01*
Y-618244D01*
Y-618697D01*
X1002950D01*
Y-619151D01*
X1003404D01*
Y-619604D01*
X1003857D01*
Y-620058D01*
X1004311D01*
Y-620511D01*
X1004764D01*
Y-620965D01*
X1005218D01*
Y-621418D01*
X1006125D01*
Y-621872D01*
X1007032D01*
Y-622326D01*
X1007939D01*
Y-622779D01*
X1010207D01*
Y-623233D01*
X1013382D01*
Y-622779D01*
X1015650D01*
Y-622326D01*
X1017010D01*
Y-621872D01*
X1017917D01*
Y-621418D01*
X1018371D01*
Y-620965D01*
X1019278D01*
Y-620511D01*
X1019732D01*
Y-620058D01*
X1020185D01*
Y-619604D01*
X1020639D01*
Y-619151D01*
Y-618697D01*
X1021092D01*
Y-618244D01*
X1021546D01*
Y-617790D01*
Y-617337D01*
X1021999D01*
Y-616883D01*
Y-616429D01*
Y-615976D01*
X1022453D01*
Y-615522D01*
Y-615069D01*
Y-614615D01*
Y-614162D01*
X1022906D01*
Y-613708D01*
Y-613255D01*
Y-612801D01*
Y-612347D01*
Y-611894D01*
Y-611440D01*
Y-610987D01*
Y-610533D01*
Y-610080D01*
Y-609626D01*
Y-609173D01*
Y-608719D01*
Y-608265D01*
Y-607812D01*
Y-607358D01*
Y-606905D01*
Y-606451D01*
Y-605998D01*
X1022453D01*
Y-605544D01*
Y-605090D01*
Y-604637D01*
Y-604183D01*
X1021999D01*
Y-603730D01*
Y-603276D01*
X1021546D01*
Y-602823D01*
Y-602369D01*
X1021092D01*
Y-601916D01*
Y-601462D01*
X1020639D01*
Y-601008D01*
X1020185D01*
Y-600555D01*
X1019732D01*
Y-600101D01*
X1019278D01*
Y-599648D01*
X1018824D01*
Y-599194D01*
X1017917D01*
Y-598741D01*
X1017010D01*
Y-598287D01*
X1016103D01*
Y-597834D01*
X1013835D01*
Y-597380D01*
D02*
G37*
G36*
X1087765D02*
X1083229D01*
Y-597834D01*
X1081415D01*
Y-598287D01*
X1080054D01*
Y-598741D01*
X1079147D01*
Y-599194D01*
X1078694D01*
Y-599648D01*
X1078240D01*
Y-600101D01*
X1077787D01*
Y-600555D01*
X1077333D01*
Y-601008D01*
X1076880D01*
Y-601462D01*
X1076426D01*
Y-601916D01*
X1075973D01*
Y-602369D01*
Y-602823D01*
X1075519D01*
Y-603276D01*
Y-603730D01*
X1075065D01*
Y-604183D01*
Y-604637D01*
Y-605090D01*
X1074612D01*
Y-605544D01*
Y-605998D01*
Y-606451D01*
Y-606905D01*
Y-607358D01*
Y-607812D01*
Y-608265D01*
X1074158D01*
Y-608719D01*
Y-609173D01*
Y-609626D01*
Y-610080D01*
Y-610533D01*
Y-610987D01*
Y-611440D01*
Y-611894D01*
X1074612D01*
Y-612347D01*
Y-612801D01*
Y-613255D01*
Y-613708D01*
Y-614162D01*
Y-614615D01*
Y-615069D01*
X1075065D01*
Y-615522D01*
Y-615976D01*
Y-616429D01*
X1075519D01*
Y-616883D01*
Y-617337D01*
Y-617790D01*
X1075973D01*
Y-618244D01*
X1076426D01*
Y-618697D01*
Y-619151D01*
X1076880D01*
Y-619604D01*
X1077333D01*
Y-620058D01*
X1077787D01*
Y-620511D01*
X1078240D01*
Y-620965D01*
X1078694D01*
Y-621418D01*
X1079601D01*
Y-621872D01*
X1080508D01*
Y-622326D01*
X1081869D01*
Y-622779D01*
X1084137D01*
Y-623233D01*
X1086858D01*
Y-622779D01*
X1089126D01*
Y-622326D01*
X1090486D01*
Y-621872D01*
X1091393D01*
Y-621418D01*
X1092300D01*
Y-620965D01*
X1092754D01*
Y-620511D01*
X1093208D01*
Y-620058D01*
X1093661D01*
Y-619604D01*
X1094115D01*
Y-619151D01*
X1094568D01*
Y-618697D01*
Y-618244D01*
X1095022D01*
Y-617790D01*
X1095475D01*
Y-617337D01*
Y-616883D01*
Y-616429D01*
X1095929D01*
Y-615976D01*
Y-615522D01*
Y-615069D01*
X1096383D01*
Y-614615D01*
Y-614162D01*
Y-613708D01*
Y-613255D01*
Y-612801D01*
X1096836D01*
Y-612347D01*
Y-611894D01*
Y-611440D01*
Y-610987D01*
Y-610533D01*
Y-610080D01*
Y-609626D01*
Y-609173D01*
Y-608719D01*
Y-608265D01*
Y-607812D01*
X1096383D01*
Y-607358D01*
Y-606905D01*
Y-606451D01*
Y-605998D01*
Y-605544D01*
Y-605090D01*
X1095929D01*
Y-604637D01*
Y-604183D01*
Y-603730D01*
X1095475D01*
Y-603276D01*
Y-602823D01*
X1095022D01*
Y-602369D01*
Y-601916D01*
X1094568D01*
Y-601462D01*
X1094115D01*
Y-601008D01*
X1093661D01*
Y-600555D01*
X1093208D01*
Y-600101D01*
X1092754D01*
Y-599648D01*
X1092300D01*
Y-599194D01*
X1091393D01*
Y-598741D01*
X1090940D01*
Y-598287D01*
X1089579D01*
Y-597834D01*
X1087765D01*
Y-597380D01*
D02*
G37*
%LPD*%
D10*
X2090719Y-65005D02*
X2324399D01*
X2090719Y-89135D02*
X2324399D01*
Y-65005D01*
D12*
X2158792Y-76178D02*
Y-82277D01*
X2156759Y-76178D02*
X2160824D01*
X2163003Y-78211D02*
X2162422Y-78501D01*
X2161841Y-79082D01*
X2161550Y-79953D01*
Y-80534D01*
X2161841Y-81405D01*
X2162422Y-81986D01*
X2163003Y-82277D01*
X2163874D01*
X2164455Y-81986D01*
X2165036Y-81405D01*
X2165326Y-80534D01*
Y-79953D01*
X2165036Y-79082D01*
X2164455Y-78501D01*
X2163874Y-78211D01*
X2163003D01*
X2166662D02*
Y-84310D01*
Y-79082D02*
X2167243Y-78501D01*
X2167823Y-78211D01*
X2168695D01*
X2169276Y-78501D01*
X2169856Y-79082D01*
X2170147Y-79953D01*
Y-80534D01*
X2169856Y-81405D01*
X2169276Y-81986D01*
X2168695Y-82277D01*
X2167823D01*
X2167243Y-81986D01*
X2166662Y-81405D01*
X2176245Y-79373D02*
X2178859D01*
X2179730Y-79082D01*
X2180021Y-78792D01*
X2180311Y-78211D01*
Y-77340D01*
X2180021Y-76759D01*
X2179730Y-76468D01*
X2178859Y-76178D01*
X2176245D01*
Y-82277D01*
X2185161Y-78211D02*
Y-82277D01*
Y-79082D02*
X2184580Y-78501D01*
X2183999Y-78211D01*
X2183128D01*
X2182547Y-78501D01*
X2181967Y-79082D01*
X2181676Y-79953D01*
Y-80534D01*
X2181967Y-81405D01*
X2182547Y-81986D01*
X2183128Y-82277D01*
X2183999D01*
X2184580Y-81986D01*
X2185161Y-81405D01*
X2189982Y-79082D02*
X2189692Y-78501D01*
X2188820Y-78211D01*
X2187949D01*
X2187078Y-78501D01*
X2186787Y-79082D01*
X2187078Y-79663D01*
X2187659Y-79953D01*
X2189111Y-80244D01*
X2189692Y-80534D01*
X2189982Y-81115D01*
Y-81405D01*
X2189692Y-81986D01*
X2188820Y-82277D01*
X2187949D01*
X2187078Y-81986D01*
X2186787Y-81405D01*
X2192131Y-76178D02*
Y-81115D01*
X2192421Y-81986D01*
X2193002Y-82277D01*
X2193583D01*
X2191260Y-78211D02*
X2193293D01*
X2194454Y-79953D02*
X2197939D01*
Y-79373D01*
X2197649Y-78792D01*
X2197359Y-78501D01*
X2196778Y-78211D01*
X2195906D01*
X2195326Y-78501D01*
X2194745Y-79082D01*
X2194454Y-79953D01*
Y-80534D01*
X2194745Y-81405D01*
X2195326Y-81986D01*
X2195906Y-82277D01*
X2196778D01*
X2197359Y-81986D01*
X2197939Y-81405D01*
X-329559Y1103874D02*
X-331882Y1109973D01*
X-334205Y1103874D01*
X-333334Y1105907D02*
X-330430D01*
X-329849Y29021D02*
X-330140Y29602D01*
X-330720Y30183D01*
X-331301Y30473D01*
X-332463D01*
X-333044Y30183D01*
X-333625Y29602D01*
X-333915Y29021D01*
X-334205Y28150D01*
Y26698D01*
X-333915Y25826D01*
X-333625Y25246D01*
X-333044Y24665D01*
X-332463Y24374D01*
X-331301D01*
X-330720Y24665D01*
X-330140Y25246D01*
X-329849Y25826D01*
X-334205Y-508007D02*
Y-514106D01*
Y-508007D02*
X-332173D01*
X-331301Y-508297D01*
X-330720Y-508878D01*
X-330430Y-509459D01*
X-330140Y-510330D01*
Y-511782D01*
X-330430Y-512654D01*
X-330720Y-513234D01*
X-331301Y-513815D01*
X-332173Y-514106D01*
X-334205D01*
X-10016Y-740817D02*
X-9435Y-740526D01*
X-8564Y-739655D01*
Y-745754D01*
X688943Y-741107D02*
Y-740817D01*
X689233Y-740236D01*
X689524Y-739945D01*
X690105Y-739655D01*
X691266D01*
X691847Y-739945D01*
X692138Y-740236D01*
X692428Y-740817D01*
Y-741397D01*
X692138Y-741978D01*
X691557Y-742850D01*
X688653Y-745754D01*
X692718D01*
X1386463Y-739655D02*
X1389658D01*
X1387915Y-741978D01*
X1388787D01*
X1389368Y-742269D01*
X1389658Y-742559D01*
X1389948Y-743430D01*
Y-744011D01*
X1389658Y-744882D01*
X1389077Y-745463D01*
X1388206Y-745754D01*
X1387335D01*
X1386463Y-745463D01*
X1386173Y-745173D01*
X1385883Y-744592D01*
X2087543Y-739655D02*
X2084639Y-743721D01*
X2088996D01*
X2087543Y-739655D02*
Y-745754D01*
X-10016Y1367383D02*
X-9435Y1367674D01*
X-8564Y1368545D01*
Y1362446D01*
X688943Y1367093D02*
Y1367383D01*
X689233Y1367964D01*
X689524Y1368255D01*
X690105Y1368545D01*
X691266D01*
X691847Y1368255D01*
X692138Y1367964D01*
X692428Y1367383D01*
Y1366803D01*
X692138Y1366222D01*
X691557Y1365350D01*
X688653Y1362446D01*
X692718D01*
X1386463Y1368545D02*
X1389658D01*
X1387915Y1366222D01*
X1388787D01*
X1389368Y1365931D01*
X1389658Y1365641D01*
X1389948Y1364770D01*
Y1364189D01*
X1389658Y1363318D01*
X1389077Y1362737D01*
X1388206Y1362446D01*
X1387335D01*
X1386463Y1362737D01*
X1386173Y1363027D01*
X1385883Y1363608D01*
X2087543Y1368545D02*
X2084639Y1364479D01*
X2088996D01*
X2087543Y1368545D02*
Y1362446D01*
X2413641Y1103874D02*
X2411318Y1109973D01*
X2408995Y1103874D01*
X2409866Y1105907D02*
X2412770D01*
X2408995Y570223D02*
Y564124D01*
Y570223D02*
X2411608D01*
X2412480Y569933D01*
X2412770Y569642D01*
X2413060Y569061D01*
Y568481D01*
X2412770Y567900D01*
X2412480Y567609D01*
X2411608Y567319D01*
X2408995D02*
X2411608D01*
X2412480Y567029D01*
X2412770Y566738D01*
X2413060Y566157D01*
Y565286D01*
X2412770Y564705D01*
X2412480Y564415D01*
X2411608Y564124D01*
X2408995D01*
X2413351Y29021D02*
X2413060Y29602D01*
X2412480Y30183D01*
X2411899Y30473D01*
X2410737D01*
X2410156Y30183D01*
X2409575Y29602D01*
X2409285Y29021D01*
X2408995Y28150D01*
Y26698D01*
X2409285Y25826D01*
X2409575Y25246D01*
X2410156Y24665D01*
X2410737Y24374D01*
X2411899D01*
X2412480Y24665D01*
X2413060Y25246D01*
X2413351Y25826D01*
X2408995Y-508007D02*
Y-514106D01*
Y-508007D02*
X2411028D01*
X2411899Y-508297D01*
X2412480Y-508878D01*
X2412770Y-509459D01*
X2413060Y-510330D01*
Y-511782D01*
X2412770Y-512654D01*
X2412480Y-513234D01*
X2411899Y-513815D01*
X2411028Y-514106D01*
X2408995D01*
X2103419Y225066D02*
Y218967D01*
X2106904D01*
X2112218D02*
X2109895Y225066D01*
X2107572Y218967D01*
X2108443Y221000D02*
X2111347D01*
X2113641Y225066D02*
X2115965Y222162D01*
Y218967D01*
X2118288Y225066D02*
X2115965Y222162D01*
X2122847Y225066D02*
X2119072D01*
Y218967D01*
X2122847D01*
X2119072Y222162D02*
X2121395D01*
X2123864Y225066D02*
Y218967D01*
Y225066D02*
X2126478D01*
X2127349Y224776D01*
X2127639Y224485D01*
X2127930Y223904D01*
Y223324D01*
X2127639Y222743D01*
X2127349Y222452D01*
X2126478Y222162D01*
X2123864D01*
X2125897D02*
X2127930Y218967D01*
X2134086Y225066D02*
Y220710D01*
X2134377Y219839D01*
X2134958Y219258D01*
X2135829Y218967D01*
X2136410D01*
X2137281Y219258D01*
X2137862Y219839D01*
X2138152Y220710D01*
Y225066D01*
X2143902Y224195D02*
X2143322Y224776D01*
X2142450Y225066D01*
X2141289D01*
X2140417Y224776D01*
X2139836Y224195D01*
Y223614D01*
X2140127Y223033D01*
X2140417Y222743D01*
X2140998Y222452D01*
X2142741Y221871D01*
X2143322Y221581D01*
X2143612Y221291D01*
X2143902Y220710D01*
Y219839D01*
X2143322Y219258D01*
X2142450Y218967D01*
X2141289D01*
X2140417Y219258D01*
X2139836Y219839D01*
X2149914Y218967D02*
X2147590Y225066D01*
X2145267Y218967D01*
X2146138Y221000D02*
X2149043D01*
X2155693Y223614D02*
X2155403Y224195D01*
X2154822Y224776D01*
X2154241Y225066D01*
X2153079D01*
X2152498Y224776D01*
X2151918Y224195D01*
X2151627Y223614D01*
X2151337Y222743D01*
Y221291D01*
X2151627Y220419D01*
X2151918Y219839D01*
X2152498Y219258D01*
X2153079Y218967D01*
X2154241D01*
X2154822Y219258D01*
X2155403Y219839D01*
X2155693Y220419D01*
Y221291D01*
X2154241D02*
X2155693D01*
X2160862Y225066D02*
X2157087D01*
Y218967D01*
X2160862D01*
X2157087Y222162D02*
X2159410D01*
X1894705Y1303426D02*
Y1309524D01*
X1897754D01*
X1898770Y1308508D01*
Y1306475D01*
X1897754Y1305459D01*
X1894705D01*
X1896737D02*
X1898770Y1303426D01*
X1904868Y1309524D02*
X1900803D01*
Y1303426D01*
X1904868D01*
X1900803Y1306475D02*
X1902835D01*
X1906901Y1309524D02*
Y1305459D01*
X1908933Y1303426D01*
X1910966Y1305459D01*
Y1309524D01*
X1912999D02*
X1915031D01*
X1914015D01*
Y1303426D01*
X1912999D01*
X1915031D01*
X1922146Y1308508D02*
X1921129Y1309524D01*
X1919097D01*
X1918080Y1308508D01*
Y1307492D01*
X1919097Y1306475D01*
X1921129D01*
X1922146Y1305459D01*
Y1304443D01*
X1921129Y1303426D01*
X1919097D01*
X1918080Y1304443D01*
X1924178Y1309524D02*
X1926211D01*
X1925195D01*
Y1303426D01*
X1924178D01*
X1926211D01*
X1932309Y1309524D02*
X1930276D01*
X1929260Y1308508D01*
Y1304443D01*
X1930276Y1303426D01*
X1932309D01*
X1933325Y1304443D01*
Y1308508D01*
X1932309Y1309524D01*
X1935358Y1303426D02*
Y1309524D01*
X1939423Y1303426D01*
Y1309524D01*
X1536565Y1260246D02*
Y1266344D01*
X1539614D01*
X1540630Y1265328D01*
Y1263295D01*
X1539614Y1262279D01*
X1536565D01*
X1538597D02*
X1540630Y1260246D01*
X1546728Y1266344D02*
X1542663D01*
Y1260246D01*
X1546728D01*
X1542663Y1263295D02*
X1544695D01*
X1548761Y1266344D02*
Y1262279D01*
X1550793Y1260246D01*
X1552826Y1262279D01*
Y1266344D01*
X1645785D02*
Y1260246D01*
X1648834D01*
X1649850Y1261263D01*
Y1265328D01*
X1648834Y1266344D01*
X1645785D01*
X1655948D02*
X1651883D01*
Y1260246D01*
X1655948D01*
X1651883Y1263295D02*
X1653915D01*
X1662046Y1265328D02*
X1661030Y1266344D01*
X1658997D01*
X1657981Y1265328D01*
Y1264312D01*
X1658997Y1263295D01*
X1661030D01*
X1662046Y1262279D01*
Y1261263D01*
X1661030Y1260246D01*
X1658997D01*
X1657981Y1261263D01*
X1668144Y1265328D02*
X1667128Y1266344D01*
X1665095D01*
X1664079Y1265328D01*
Y1261263D01*
X1665095Y1260246D01*
X1667128D01*
X1668144Y1261263D01*
X1670177Y1260246D02*
Y1266344D01*
X1673226D01*
X1674242Y1265328D01*
Y1263295D01*
X1673226Y1262279D01*
X1670177D01*
X1672209D02*
X1674242Y1260246D01*
X1676275Y1266344D02*
X1678307D01*
X1677291D01*
Y1260246D01*
X1676275D01*
X1678307D01*
X1681356D02*
Y1266344D01*
X1684405D01*
X1685422Y1265328D01*
Y1263295D01*
X1684405Y1262279D01*
X1681356D01*
X1687454Y1266344D02*
X1691520D01*
X1689487D01*
Y1260246D01*
X1693552Y1266344D02*
X1695585D01*
X1694569D01*
Y1260246D01*
X1693552D01*
X1695585D01*
X1701683Y1266344D02*
X1699650D01*
X1698634Y1265328D01*
Y1261263D01*
X1699650Y1260246D01*
X1701683D01*
X1702699Y1261263D01*
Y1265328D01*
X1701683Y1266344D01*
X1704732Y1260246D02*
Y1266344D01*
X1708797Y1260246D01*
Y1266344D01*
X2143625D02*
Y1260246D01*
X2146674D01*
X2147690Y1261263D01*
Y1265328D01*
X2146674Y1266344D01*
X2143625D01*
X2149723Y1260246D02*
Y1264312D01*
X2151755Y1266344D01*
X2153788Y1264312D01*
Y1260246D01*
Y1263295D01*
X2149723D01*
X2155821Y1266344D02*
X2159886D01*
X2157853D01*
Y1260246D01*
X2165984Y1266344D02*
X2161919D01*
Y1260246D01*
X2165984D01*
X2161919Y1263295D02*
X2163951D01*
X2303645Y1266344D02*
Y1260246D01*
X2306694D01*
X2307710Y1261263D01*
Y1262279D01*
X2306694Y1263295D01*
X2303645D01*
X2306694D01*
X2307710Y1264312D01*
Y1265328D01*
X2306694Y1266344D01*
X2303645D01*
X2309743D02*
Y1265328D01*
X2311775Y1263295D01*
X2313808Y1265328D01*
Y1266344D01*
X2311775Y1263295D02*
Y1260246D01*
X1536565Y1222146D02*
Y1228244D01*
X1539614D01*
X1540630Y1227228D01*
Y1225195D01*
X1539614Y1224179D01*
X1536565D01*
X1538597D02*
X1540630Y1222146D01*
X1545712D02*
X1543679D01*
X1542663Y1223163D01*
Y1225195D01*
X1543679Y1226212D01*
X1545712D01*
X1546728Y1225195D01*
Y1224179D01*
X1542663D01*
X1548761Y1226212D02*
X1550793Y1222146D01*
X1552826Y1226212D01*
X1554859Y1222146D02*
X1556891D01*
X1555875D01*
Y1228244D01*
X1554859Y1227228D01*
X2123305Y1219606D02*
Y1220623D01*
X2124321D01*
Y1219606D01*
X2123305D01*
X2128386D02*
Y1225704D01*
X2131435D01*
X2132452Y1224688D01*
Y1222655D01*
X2131435Y1221639D01*
X2128386D01*
X2130419D02*
X2132452Y1219606D01*
X2137533D02*
X2135501D01*
X2134484Y1220623D01*
Y1222655D01*
X2135501Y1223672D01*
X2137533D01*
X2138550Y1222655D01*
Y1221639D01*
X2134484D01*
X2140582Y1219606D02*
X2142615D01*
X2141599D01*
Y1225704D01*
X2140582D01*
X2148713Y1219606D02*
X2146680D01*
X2145664Y1220623D01*
Y1222655D01*
X2146680Y1223672D01*
X2148713D01*
X2149729Y1222655D01*
Y1221639D01*
X2145664D01*
X2152778Y1223672D02*
X2154811D01*
X2155827Y1222655D01*
Y1219606D01*
X2152778D01*
X2151762Y1220623D01*
X2152778Y1221639D01*
X2155827D01*
X2157860Y1219606D02*
X2160909D01*
X2161925Y1220623D01*
X2160909Y1221639D01*
X2158876D01*
X2157860Y1222655D01*
X2158876Y1223672D01*
X2161925D01*
X2167007Y1219606D02*
X2164974D01*
X2163958Y1220623D01*
Y1222655D01*
X2164974Y1223672D01*
X2167007D01*
X2168023Y1222655D01*
Y1221639D01*
X2163958D01*
X2170056Y1225704D02*
Y1219606D01*
X2173105D01*
X2174121Y1220623D01*
Y1224688D01*
X2173105Y1225704D01*
X2170056D01*
X2177170Y1223672D02*
X2179203D01*
X2180219Y1222655D01*
Y1219606D01*
X2177170D01*
X2176154Y1220623D01*
X2177170Y1221639D01*
X2180219D01*
X2183268Y1224688D02*
Y1223672D01*
X2182252D01*
X2184285D01*
X2183268D01*
Y1220623D01*
X2184285Y1219606D01*
X2190383D02*
X2188350D01*
X2187334Y1220623D01*
Y1222655D01*
X2188350Y1223672D01*
X2190383D01*
X2191399Y1222655D01*
Y1221639D01*
X2187334D01*
X2193432Y1219606D02*
X2195464D01*
X2194448D01*
Y1225704D01*
X2193432Y1224688D01*
X2290945Y1222146D02*
Y1223163D01*
X2291961D01*
Y1222146D01*
X2290945D01*
X2296026D02*
Y1228244D01*
X2299075D01*
X2300092Y1227228D01*
Y1225195D01*
X2299075Y1224179D01*
X2296026D01*
X2298059D02*
X2300092Y1222146D01*
X2305173D02*
X2303141D01*
X2302124Y1223163D01*
Y1225195D01*
X2303141Y1226212D01*
X2305173D01*
X2306190Y1225195D01*
Y1224179D01*
X2302124D01*
X2308222Y1222146D02*
X2310255D01*
X2309239D01*
Y1228244D01*
X2308222D01*
X2316353Y1222146D02*
X2314320D01*
X2313304Y1223163D01*
Y1225195D01*
X2314320Y1226212D01*
X2316353D01*
X2317369Y1225195D01*
Y1224179D01*
X2313304D01*
X2320418Y1226212D02*
X2322451D01*
X2323467Y1225195D01*
Y1222146D01*
X2320418D01*
X2319402Y1223163D01*
X2320418Y1224179D01*
X2323467D01*
X2325500Y1222146D02*
X2328549D01*
X2329565Y1223163D01*
X2328549Y1224179D01*
X2326516D01*
X2325500Y1225195D01*
X2326516Y1226212D01*
X2329565D01*
X2334647Y1222146D02*
X2332614D01*
X2331598Y1223163D01*
Y1225195D01*
X2332614Y1226212D01*
X2334647D01*
X2335663Y1225195D01*
Y1224179D01*
X2331598D01*
X2337696Y1228244D02*
Y1222146D01*
X2340745D01*
X2341761Y1223163D01*
Y1224179D01*
X2340745Y1225195D01*
X2337696D01*
X2340745D01*
X2341761Y1226212D01*
Y1227228D01*
X2340745Y1228244D01*
X2337696D01*
X2343794Y1226212D02*
Y1223163D01*
X2344810Y1222146D01*
X2347859D01*
Y1221130D01*
X2346843Y1220114D01*
X2345827D01*
X2347859Y1222146D02*
Y1226212D01*
X2349892Y1222146D02*
X2351925D01*
X2350908D01*
Y1228244D01*
X2349892Y1227228D01*
X1528881Y1159884D02*
Y1153786D01*
X1531930D01*
X1532946Y1154803D01*
Y1155819D01*
X1531930Y1156835D01*
X1528881D01*
X1531930D01*
X1532946Y1157852D01*
Y1158868D01*
X1531930Y1159884D01*
X1528881D01*
X1532946Y1120768D02*
X1531930Y1121785D01*
X1529897D01*
X1528881Y1120768D01*
Y1116703D01*
X1529897Y1115686D01*
X1531930D01*
X1532946Y1116703D01*
X2123305Y1145946D02*
Y1146963D01*
X2124321D01*
Y1145946D01*
X2123305D01*
X2128386D02*
Y1152044D01*
X2131435D01*
X2132452Y1151028D01*
Y1148995D01*
X2131435Y1147979D01*
X2128386D01*
X2130419D02*
X2132452Y1145946D01*
X2137533D02*
X2135501D01*
X2134484Y1146963D01*
Y1148995D01*
X2135501Y1150012D01*
X2137533D01*
X2138550Y1148995D01*
Y1147979D01*
X2134484D01*
X2140582Y1145946D02*
X2142615D01*
X2141599D01*
Y1152044D01*
X2140582D01*
X2148713Y1145946D02*
X2146680D01*
X2145664Y1146963D01*
Y1148995D01*
X2146680Y1150012D01*
X2148713D01*
X2149729Y1148995D01*
Y1147979D01*
X2145664D01*
X2152778Y1150012D02*
X2154811D01*
X2155827Y1148995D01*
Y1145946D01*
X2152778D01*
X2151762Y1146963D01*
X2152778Y1147979D01*
X2155827D01*
X2157860Y1145946D02*
X2160909D01*
X2161925Y1146963D01*
X2160909Y1147979D01*
X2158876D01*
X2157860Y1148995D01*
X2158876Y1150012D01*
X2161925D01*
X2167007Y1145946D02*
X2164974D01*
X2163958Y1146963D01*
Y1148995D01*
X2164974Y1150012D01*
X2167007D01*
X2168023Y1148995D01*
Y1147979D01*
X2163958D01*
X2170056Y1152044D02*
Y1145946D01*
X2173105D01*
X2174121Y1146963D01*
Y1151028D01*
X2173105Y1152044D01*
X2170056D01*
X2177170Y1150012D02*
X2179203D01*
X2180219Y1148995D01*
Y1145946D01*
X2177170D01*
X2176154Y1146963D01*
X2177170Y1147979D01*
X2180219D01*
X2183268Y1151028D02*
Y1150012D01*
X2182252D01*
X2184285D01*
X2183268D01*
Y1146963D01*
X2184285Y1145946D01*
X2190383D02*
X2188350D01*
X2187334Y1146963D01*
Y1148995D01*
X2188350Y1150012D01*
X2190383D01*
X2191399Y1148995D01*
Y1147979D01*
X2187334D01*
X2193432Y1151028D02*
X2194448Y1152044D01*
X2196481D01*
X2197497Y1151028D01*
Y1150012D01*
X2196481Y1148995D01*
X2195464D01*
X2196481D01*
X2197497Y1147979D01*
Y1146963D01*
X2196481Y1145946D01*
X2194448D01*
X2193432Y1146963D01*
X2290945Y1145946D02*
Y1146963D01*
X2291961D01*
Y1145946D01*
X2290945D01*
X2296026D02*
Y1152044D01*
X2299075D01*
X2300092Y1151028D01*
Y1148995D01*
X2299075Y1147979D01*
X2296026D01*
X2298059D02*
X2300092Y1145946D01*
X2305173D02*
X2303141D01*
X2302124Y1146963D01*
Y1148995D01*
X2303141Y1150012D01*
X2305173D01*
X2306190Y1148995D01*
Y1147979D01*
X2302124D01*
X2308222Y1145946D02*
X2310255D01*
X2309239D01*
Y1152044D01*
X2308222D01*
X2316353Y1145946D02*
X2314320D01*
X2313304Y1146963D01*
Y1148995D01*
X2314320Y1150012D01*
X2316353D01*
X2317369Y1148995D01*
Y1147979D01*
X2313304D01*
X2320418Y1150012D02*
X2322451D01*
X2323467Y1148995D01*
Y1145946D01*
X2320418D01*
X2319402Y1146963D01*
X2320418Y1147979D01*
X2323467D01*
X2325500Y1145946D02*
X2328549D01*
X2329565Y1146963D01*
X2328549Y1147979D01*
X2326516D01*
X2325500Y1148995D01*
X2326516Y1150012D01*
X2329565D01*
X2334647Y1145946D02*
X2332614D01*
X2331598Y1146963D01*
Y1148995D01*
X2332614Y1150012D01*
X2334647D01*
X2335663Y1148995D01*
Y1147979D01*
X2331598D01*
X2337696Y1152044D02*
Y1145946D01*
X2340745D01*
X2341761Y1146963D01*
Y1147979D01*
X2340745Y1148995D01*
X2337696D01*
X2340745D01*
X2341761Y1150012D01*
Y1151028D01*
X2340745Y1152044D01*
X2337696D01*
X2343794Y1150012D02*
Y1146963D01*
X2344810Y1145946D01*
X2347859D01*
Y1144930D01*
X2346843Y1143914D01*
X2345827D01*
X2347859Y1145946D02*
Y1150012D01*
X2349892Y1151028D02*
X2350908Y1152044D01*
X2352941D01*
X2353957Y1151028D01*
Y1150012D01*
X2352941Y1148995D01*
X2351925D01*
X2352941D01*
X2353957Y1147979D01*
Y1146963D01*
X2352941Y1145946D01*
X2350908D01*
X2349892Y1146963D01*
X1318125Y-689456D02*
Y-694537D01*
X1319141Y-695554D01*
X1321174D01*
X1322190Y-694537D01*
Y-689456D01*
X1324223D02*
Y-695554D01*
X1327272D01*
X1328288Y-694537D01*
Y-693521D01*
X1327272Y-692505D01*
X1324223D01*
X1327272D01*
X1328288Y-691488D01*
Y-690472D01*
X1327272Y-689456D01*
X1324223D01*
X1330321D02*
X1334386Y-695554D01*
Y-689456D02*
X1330321Y-695554D01*
X1336419Y-689456D02*
Y-695554D01*
Y-692505D01*
X1340484D01*
Y-689456D01*
Y-695554D01*
X1346582Y-689456D02*
X1344549Y-690472D01*
X1342517Y-692505D01*
Y-694537D01*
X1343533Y-695554D01*
X1345566D01*
X1346582Y-694537D01*
Y-693521D01*
X1345566Y-692505D01*
X1342517D01*
X1348615Y-690472D02*
X1349631Y-689456D01*
X1351664D01*
X1352680Y-690472D01*
Y-694537D01*
X1351664Y-695554D01*
X1349631D01*
X1348615Y-694537D01*
Y-690472D01*
X1354713Y-692505D02*
X1358778D01*
X1360811Y-690472D02*
X1361827Y-689456D01*
X1363860D01*
X1364876Y-690472D01*
Y-694537D01*
X1363860Y-695554D01*
X1361827D01*
X1360811Y-694537D01*
Y-690472D01*
X1366909D02*
X1367925Y-689456D01*
X1369958D01*
X1370974Y-690472D01*
Y-694537D01*
X1369958Y-695554D01*
X1367925D01*
X1366909Y-694537D01*
Y-690472D01*
X1373007D02*
X1374023Y-689456D01*
X1376056D01*
X1377072Y-690472D01*
Y-694537D01*
X1376056Y-695554D01*
X1374023D01*
X1373007Y-694537D01*
Y-690472D01*
X1379105Y-695554D02*
X1381137D01*
X1380121D01*
Y-689456D01*
X1379105Y-690472D01*
X1384186Y-695554D02*
X1386219D01*
X1385203D01*
Y-689456D01*
X1384186Y-690472D01*
X1389268Y-694537D02*
X1390284Y-695554D01*
X1392317D01*
X1393333Y-694537D01*
Y-690472D01*
X1392317Y-689456D01*
X1390284D01*
X1389268Y-690472D01*
Y-691488D01*
X1390284Y-692505D01*
X1393333D01*
X1398415Y-695554D02*
Y-689456D01*
X1395366Y-692505D01*
X1399431D01*
X1748910Y-618336D02*
X1744845D01*
Y-624434D01*
X1748910D01*
X1744845Y-621385D02*
X1746877D01*
X1750943Y-618336D02*
Y-622401D01*
X1752975Y-624434D01*
X1755008Y-622401D01*
Y-618336D01*
X1757041D02*
Y-624434D01*
Y-622401D01*
X1761106Y-618336D01*
X1758057Y-621385D01*
X1761106Y-624434D01*
X1763139Y-621385D02*
X1767204D01*
X1769237Y-624434D02*
Y-618336D01*
X1773302Y-624434D01*
Y-618336D01*
X1778384D02*
X1776351D01*
X1775335Y-619352D01*
Y-623417D01*
X1776351Y-624434D01*
X1778384D01*
X1779400Y-623417D01*
Y-619352D01*
X1778384Y-618336D01*
X1781433Y-624434D02*
Y-618336D01*
X1784482D01*
X1785498Y-619352D01*
Y-621385D01*
X1784482Y-622401D01*
X1781433D01*
X1783465D02*
X1785498Y-624434D01*
X1787531D02*
Y-620368D01*
X1789563Y-618336D01*
X1791596Y-620368D01*
Y-624434D01*
Y-621385D01*
X1787531D01*
X1793629D02*
X1797694D01*
X1799727Y-618336D02*
Y-624434D01*
X1802776D01*
X1803792Y-623417D01*
Y-622401D01*
X1802776Y-621385D01*
X1799727D01*
X1802776D01*
X1803792Y-620368D01*
Y-619352D01*
X1802776Y-618336D01*
X1799727D01*
X1809890Y-624434D02*
X1805825D01*
X1809890Y-620368D01*
Y-619352D01*
X1808874Y-618336D01*
X1806841D01*
X1805825Y-619352D01*
X1811923D02*
X1812939Y-618336D01*
X1814972D01*
X1815988Y-619352D01*
Y-623417D01*
X1814972Y-624434D01*
X1812939D01*
X1811923Y-623417D01*
Y-619352D01*
X2239425Y-623224D02*
Y-617126D01*
X2242474D01*
X2243490Y-618142D01*
Y-620175D01*
X2242474Y-621191D01*
X2239425D01*
X2241457D02*
X2243490Y-623224D01*
X2248572D02*
X2246539D01*
X2245523Y-622207D01*
Y-620175D01*
X2246539Y-619158D01*
X2248572D01*
X2249588Y-620175D01*
Y-621191D01*
X2245523D01*
X2251621Y-619158D02*
X2253653Y-623224D01*
X2255686Y-619158D01*
X2267882Y-618142D02*
X2266866Y-617126D01*
X2264833D01*
X2263817Y-618142D01*
Y-622207D01*
X2264833Y-623224D01*
X2266866D01*
X2267882Y-622207D01*
X1744845Y-563474D02*
Y-557376D01*
X1748910Y-563474D01*
Y-557376D01*
X1753992D02*
X1751959D01*
X1750943Y-558392D01*
Y-562457D01*
X1751959Y-563474D01*
X1753992D01*
X1755008Y-562457D01*
Y-558392D01*
X1753992Y-557376D01*
X1757041Y-563474D02*
Y-557376D01*
X1760090D01*
X1761106Y-558392D01*
Y-560425D01*
X1760090Y-561441D01*
X1757041D01*
X1759073D02*
X1761106Y-563474D01*
X1763139D02*
Y-559408D01*
X1765171Y-557376D01*
X1767204Y-559408D01*
Y-563474D01*
Y-560425D01*
X1763139D01*
X1769237D02*
X1773302D01*
X1775335Y-557376D02*
Y-563474D01*
X1778384D01*
X1779400Y-562457D01*
Y-561441D01*
X1778384Y-560425D01*
X1775335D01*
X1778384D01*
X1779400Y-559408D01*
Y-558392D01*
X1778384Y-557376D01*
X1775335D01*
X1785498Y-563474D02*
X1781433D01*
X1785498Y-559408D01*
Y-558392D01*
X1784482Y-557376D01*
X1782449D01*
X1781433Y-558392D01*
X1366385Y-557376D02*
Y-563474D01*
Y-560425D01*
X1370450D01*
Y-557376D01*
Y-563474D01*
X1372483D02*
Y-559408D01*
X1374515Y-557376D01*
X1376548Y-559408D01*
Y-563474D01*
Y-560425D01*
X1372483D01*
X1378581Y-557376D02*
Y-563474D01*
X1381630D01*
X1382646Y-562457D01*
Y-561441D01*
X1381630Y-560425D01*
X1378581D01*
X1381630D01*
X1382646Y-559408D01*
Y-558392D01*
X1381630Y-557376D01*
X1378581D01*
X1384679D02*
Y-563474D01*
X1387728D01*
X1388744Y-562457D01*
Y-558392D01*
X1387728Y-557376D01*
X1384679D01*
X1633787Y-600974D02*
Y-594876D01*
X1636836D01*
X1637852Y-595892D01*
Y-597925D01*
X1636836Y-598941D01*
X1633787D01*
X1643950Y-595892D02*
X1642934Y-594876D01*
X1640901D01*
X1639885Y-595892D01*
Y-599957D01*
X1640901Y-600974D01*
X1642934D01*
X1643950Y-599957D01*
X1645983Y-594876D02*
Y-600974D01*
X1649032D01*
X1650048Y-599957D01*
Y-598941D01*
X1649032Y-597925D01*
X1645983D01*
X1649032D01*
X1650048Y-596908D01*
Y-595892D01*
X1649032Y-594876D01*
X1645983D01*
X1658179Y-600974D02*
Y-594876D01*
X1662244Y-600974D01*
Y-594876D01*
X1664277Y-600974D02*
Y-596908D01*
X1666309Y-594876D01*
X1668342Y-596908D01*
Y-600974D01*
Y-597925D01*
X1664277D01*
X1670375Y-600974D02*
Y-594876D01*
X1672407Y-596908D01*
X1674440Y-594876D01*
Y-600974D01*
X1680538Y-594876D02*
X1676473D01*
Y-600974D01*
X1680538D01*
X1676473Y-597925D02*
X1678505D01*
X1682571Y-596908D02*
X1683587D01*
Y-597925D01*
X1682571D01*
Y-596908D01*
Y-599957D02*
X1683587D01*
Y-600974D01*
X1682571D01*
Y-599957D01*
X2252785Y-694192D02*
X2254817D01*
X2253801D01*
Y-688094D01*
X2252785Y-689110D01*
X2257866Y-690126D02*
X2258883D01*
Y-691143D01*
X2257866D01*
Y-690126D01*
Y-693175D02*
X2258883D01*
Y-694192D01*
X2257866D01*
Y-693175D01*
X2262948Y-694192D02*
X2264981D01*
X2263964D01*
Y-688094D01*
X2262948Y-689110D01*
X2169728Y-661932D02*
X2168712Y-660916D01*
X2166679D01*
X2165663Y-661932D01*
Y-662948D01*
X2166679Y-663965D01*
X2168712D01*
X2169728Y-664981D01*
Y-665997D01*
X2168712Y-667014D01*
X2166679D01*
X2165663Y-665997D01*
X2175826Y-661932D02*
X2174810Y-660916D01*
X2172777D01*
X2171761Y-661932D01*
Y-665997D01*
X2172777Y-667014D01*
X2174810D01*
X2175826Y-665997D01*
X2177859Y-667014D02*
Y-662948D01*
X2179891Y-660916D01*
X2181924Y-662948D01*
Y-667014D01*
Y-663965D01*
X2177859D01*
X2183957Y-660916D02*
Y-667014D01*
X2188022D01*
X2194120Y-660916D02*
X2190055D01*
Y-667014D01*
X2194120D01*
X2190055Y-663965D02*
X2192087D01*
X2196153Y-662948D02*
X2197169D01*
Y-663965D01*
X2196153D01*
Y-662948D01*
Y-665997D02*
X2197169D01*
Y-667014D01*
X2196153D01*
Y-665997D01*
X1637150Y-658976D02*
X1633085D01*
Y-662025D01*
X1635117D01*
X1633085D01*
Y-665074D01*
X1639183Y-658976D02*
X1641215D01*
X1640199D01*
Y-665074D01*
X1639183D01*
X1641215D01*
X1644264Y-658976D02*
Y-665074D01*
X1648330D01*
X1654428Y-658976D02*
X1650362D01*
Y-665074D01*
X1654428D01*
X1650362Y-662025D02*
X1652395D01*
X1662558Y-665074D02*
Y-658976D01*
X1666624Y-665074D01*
Y-658976D01*
X1668656Y-665074D02*
Y-661008D01*
X1670689Y-658976D01*
X1672722Y-661008D01*
Y-665074D01*
Y-662025D01*
X1668656D01*
X1674754Y-665074D02*
Y-658976D01*
X1676787Y-661008D01*
X1678820Y-658976D01*
Y-665074D01*
X1684918Y-658976D02*
X1680852D01*
Y-665074D01*
X1684918D01*
X1680852Y-662025D02*
X1682885D01*
X1686950Y-661008D02*
X1687967D01*
Y-662025D01*
X1686950D01*
Y-661008D01*
Y-664057D02*
X1687967D01*
Y-665074D01*
X1686950D01*
Y-664057D01*
X1635057Y-546618D02*
Y-540520D01*
X1638106D01*
X1639122Y-541536D01*
Y-543569D01*
X1638106Y-544585D01*
X1635057D01*
X1641155Y-546618D02*
Y-540520D01*
X1644204D01*
X1645220Y-541536D01*
Y-543569D01*
X1644204Y-544585D01*
X1641155D01*
X1643187D02*
X1645220Y-546618D01*
X1650302Y-540520D02*
X1648269D01*
X1647253Y-541536D01*
Y-545601D01*
X1648269Y-546618D01*
X1650302D01*
X1651318Y-545601D01*
Y-541536D01*
X1650302Y-540520D01*
X1657416D02*
X1655383D01*
X1656400D01*
Y-545601D01*
X1655383Y-546618D01*
X1654367D01*
X1653351Y-545601D01*
X1663514Y-540520D02*
X1659449D01*
Y-546618D01*
X1663514D01*
X1659449Y-543569D02*
X1661481D01*
X1669612Y-541536D02*
X1668596Y-540520D01*
X1666563D01*
X1665547Y-541536D01*
Y-545601D01*
X1666563Y-546618D01*
X1668596D01*
X1669612Y-545601D01*
X1671645Y-540520D02*
X1675710D01*
X1673677D01*
Y-546618D01*
X1677743Y-542552D02*
X1678759D01*
Y-543569D01*
X1677743D01*
Y-542552D01*
Y-545601D02*
X1678759D01*
Y-546618D01*
X1677743D01*
Y-545601D01*
X1254058Y-540774D02*
X1249993D01*
Y-546872D01*
X1254058D01*
X1249993Y-543823D02*
X1252025D01*
X1256091Y-546872D02*
Y-540774D01*
X1260156Y-546872D01*
Y-540774D01*
X1266254Y-541790D02*
X1265238Y-540774D01*
X1263205D01*
X1262189Y-541790D01*
Y-545855D01*
X1263205Y-546872D01*
X1265238D01*
X1266254Y-545855D01*
Y-543823D01*
X1264221D01*
X1268287Y-540774D02*
X1270319D01*
X1269303D01*
Y-546872D01*
X1268287D01*
X1270319D01*
X1273368D02*
Y-540774D01*
X1277434Y-546872D01*
Y-540774D01*
X1283532D02*
X1279466D01*
Y-546872D01*
X1283532D01*
X1279466Y-543823D02*
X1281499D01*
X1289630Y-540774D02*
X1285564D01*
Y-546872D01*
X1289630D01*
X1285564Y-543823D02*
X1287597D01*
X1291662Y-546872D02*
Y-540774D01*
X1294711D01*
X1295728Y-541790D01*
Y-543823D01*
X1294711Y-544839D01*
X1291662D01*
X1293695D02*
X1295728Y-546872D01*
X1297760Y-542806D02*
X1298777D01*
Y-543823D01*
X1297760D01*
Y-542806D01*
Y-545855D02*
X1298777D01*
Y-546872D01*
X1297760D01*
Y-545855D01*
X1252085Y-658976D02*
Y-665074D01*
X1255134D01*
X1256150Y-664057D01*
Y-659992D01*
X1255134Y-658976D01*
X1252085D01*
X1258183D02*
Y-665074D01*
X1260215Y-663041D01*
X1262248Y-665074D01*
Y-658976D01*
X1268346Y-659992D02*
X1267330Y-658976D01*
X1265297D01*
X1264281Y-659992D01*
Y-664057D01*
X1265297Y-665074D01*
X1267330D01*
X1268346Y-664057D01*
Y-662025D01*
X1266313D01*
X1276477Y-665074D02*
Y-658976D01*
X1280542Y-665074D01*
Y-658976D01*
X1285624D02*
X1283591D01*
X1282575Y-659992D01*
Y-664057D01*
X1283591Y-665074D01*
X1285624D01*
X1286640Y-664057D01*
Y-659992D01*
X1285624Y-658976D01*
X1288673Y-661008D02*
X1289689D01*
Y-662025D01*
X1288673D01*
Y-661008D01*
Y-664057D02*
X1289689D01*
Y-665074D01*
X1288673D01*
Y-664057D01*
X2166933Y-604276D02*
Y-598178D01*
X2169982D01*
X2170998Y-599194D01*
Y-601227D01*
X2169982Y-602243D01*
X2166933D01*
X2168965D02*
X2170998Y-604276D01*
X2177096Y-598178D02*
X2173031D01*
Y-604276D01*
X2177096D01*
X2173031Y-601227D02*
X2175063D01*
X2179129Y-598178D02*
Y-602243D01*
X2181161Y-604276D01*
X2183194Y-602243D01*
Y-598178D01*
X2185227Y-600210D02*
X2186243D01*
Y-601227D01*
X2185227D01*
Y-600210D01*
Y-603259D02*
X2186243D01*
Y-604276D01*
X2185227D01*
Y-603259D01*
X1250755Y-595892D02*
Y-601990D01*
X1253804D01*
X1254820Y-600973D01*
Y-596908D01*
X1253804Y-595892D01*
X1250755D01*
X1256853Y-601990D02*
Y-597924D01*
X1258885Y-595892D01*
X1260918Y-597924D01*
Y-601990D01*
Y-598941D01*
X1256853D01*
X1262951Y-595892D02*
X1267016D01*
X1264983D01*
Y-601990D01*
X1273114Y-595892D02*
X1269049D01*
Y-601990D01*
X1273114D01*
X1269049Y-598941D02*
X1271081D01*
X1275147Y-597924D02*
X1276163D01*
Y-598941D01*
X1275147D01*
Y-597924D01*
Y-600973D02*
X1276163D01*
Y-601990D01*
X1275147D01*
Y-600973D01*
X1323205Y-619352D02*
X1324221Y-618336D01*
X1326254D01*
X1327270Y-619352D01*
Y-623417D01*
X1326254Y-624434D01*
X1324221D01*
X1323205Y-623417D01*
Y-619352D01*
X1332352Y-624434D02*
Y-618336D01*
X1329303Y-621385D01*
X1333368D01*
X1335401Y-624434D02*
X1339466Y-620368D01*
X1341499Y-619352D02*
X1342515Y-618336D01*
X1344548D01*
X1345564Y-619352D01*
Y-623417D01*
X1344548Y-624434D01*
X1342515D01*
X1341499Y-623417D01*
Y-619352D01*
X1350646Y-624434D02*
Y-618336D01*
X1347597Y-621385D01*
X1351662D01*
X1353695Y-624434D02*
X1357760Y-620368D01*
X1363858Y-624434D02*
X1359793D01*
X1363858Y-620368D01*
Y-619352D01*
X1362842Y-618336D01*
X1360809D01*
X1359793Y-619352D01*
X1365891D02*
X1366907Y-618336D01*
X1368940D01*
X1369956Y-619352D01*
Y-623417D01*
X1368940Y-624434D01*
X1366907D01*
X1365891Y-623417D01*
Y-619352D01*
X1376054Y-624434D02*
X1371989D01*
X1376054Y-620368D01*
Y-619352D01*
X1375038Y-618336D01*
X1373005D01*
X1371989Y-619352D01*
X1382152Y-618336D02*
X1378087D01*
Y-621385D01*
X1380119Y-620368D01*
X1381136D01*
X1382152Y-621385D01*
Y-623417D01*
X1381136Y-624434D01*
X1379103D01*
X1378087Y-623417D01*
X1660010Y-686916D02*
X1655945D01*
Y-693014D01*
X1660010D01*
X1655945Y-689965D02*
X1657977D01*
X1662043Y-686916D02*
Y-690981D01*
X1664075Y-693014D01*
X1666108Y-690981D01*
Y-686916D01*
X1668141D02*
Y-693014D01*
X1671190D01*
X1672206Y-691997D01*
Y-690981D01*
X1671190Y-689965D01*
X1668141D01*
X1671190D01*
X1672206Y-688948D01*
Y-687932D01*
X1671190Y-686916D01*
X1668141D01*
X1674239Y-689965D02*
X1678304D01*
X1680337Y-693014D02*
Y-686916D01*
X1684402Y-693014D01*
Y-686916D01*
X1689484D02*
X1687451D01*
X1686435Y-687932D01*
Y-691997D01*
X1687451Y-693014D01*
X1689484D01*
X1690500Y-691997D01*
Y-687932D01*
X1689484Y-686916D01*
X1692533Y-693014D02*
Y-686916D01*
X1695582D01*
X1696598Y-687932D01*
Y-689965D01*
X1695582Y-690981D01*
X1692533D01*
X1694565D02*
X1696598Y-693014D01*
X1698631D02*
Y-688948D01*
X1700663Y-686916D01*
X1702696Y-688948D01*
Y-693014D01*
Y-689965D01*
X1698631D01*
X1704729D02*
X1708794D01*
X1710827Y-686916D02*
Y-693014D01*
X1713876D01*
X1714892Y-691997D01*
Y-690981D01*
X1713876Y-689965D01*
X1710827D01*
X1713876D01*
X1714892Y-688948D01*
Y-687932D01*
X1713876Y-686916D01*
X1710827D01*
X1720990Y-693014D02*
X1716925D01*
X1720990Y-688948D01*
Y-687932D01*
X1719974Y-686916D01*
X1717941D01*
X1716925Y-687932D01*
X1723023D02*
X1724039Y-686916D01*
X1726072D01*
X1727088Y-687932D01*
Y-691997D01*
X1726072Y-693014D01*
X1724039D01*
X1723023Y-691997D01*
Y-687932D01*
X1729121Y-693014D02*
Y-691997D01*
X1730137D01*
Y-693014D01*
X1729121D01*
X1734202D02*
Y-686916D01*
X1737251D01*
X1738268Y-687932D01*
Y-689965D01*
X1737251Y-690981D01*
X1734202D01*
X1744366Y-688948D02*
X1741317D01*
X1740300Y-689965D01*
Y-691997D01*
X1741317Y-693014D01*
X1744366D01*
X1746398Y-686916D02*
Y-693014D01*
X1749447D01*
X1750464Y-691997D01*
Y-690981D01*
Y-689965D01*
X1749447Y-688948D01*
X1746398D01*
X1752496Y-686916D02*
Y-693014D01*
X1755545D01*
X1756562Y-691997D01*
Y-687932D01*
X1755545Y-686916D01*
X1752496D01*
X1759611Y-693014D02*
X1761643D01*
X1762660Y-691997D01*
Y-689965D01*
X1761643Y-688948D01*
X1759611D01*
X1758594Y-689965D01*
Y-691997D01*
X1759611Y-693014D01*
X1768758Y-688948D02*
X1765709D01*
X1764692Y-689965D01*
Y-691997D01*
X1765709Y-693014D01*
X1768758D01*
X960363Y-681691D02*
X960072Y-681110D01*
X959492Y-680529D01*
X958911Y-680239D01*
X957749D01*
X957168Y-680529D01*
X956587Y-681110D01*
X956297Y-681691D01*
X956007Y-682562D01*
Y-684014D01*
X956297Y-684885D01*
X956587Y-685466D01*
X957168Y-686047D01*
X957749Y-686338D01*
X958911D01*
X959492Y-686047D01*
X960072Y-685466D01*
X960363Y-684885D01*
X963819Y-680239D02*
X963238Y-680529D01*
X962657Y-681110D01*
X962367Y-681691D01*
X962076Y-682562D01*
Y-684014D01*
X962367Y-684885D01*
X962657Y-685466D01*
X963238Y-686047D01*
X963819Y-686338D01*
X964980D01*
X965561Y-686047D01*
X966142Y-685466D01*
X966432Y-684885D01*
X966723Y-684014D01*
Y-682562D01*
X966432Y-681691D01*
X966142Y-681110D01*
X965561Y-680529D01*
X964980Y-680239D01*
X963819D01*
X968146D02*
Y-686338D01*
Y-680239D02*
X972212Y-686338D01*
Y-680239D02*
Y-686338D01*
X973896Y-680239D02*
Y-686338D01*
Y-680239D02*
X977671D01*
X973896Y-683143D02*
X976219D01*
X978368Y-680239D02*
Y-686338D01*
X979646Y-680239D02*
Y-686338D01*
Y-680239D02*
X981679D01*
X982550Y-680529D01*
X983131Y-681110D01*
X983422Y-681691D01*
X983712Y-682562D01*
Y-684014D01*
X983422Y-684885D01*
X983131Y-685466D01*
X982550Y-686047D01*
X981679Y-686338D01*
X979646D01*
X988852Y-680239D02*
X985077D01*
Y-686338D01*
X988852D01*
X985077Y-683143D02*
X987400D01*
X989869Y-680239D02*
Y-686338D01*
Y-680239D02*
X993934Y-686338D01*
Y-680239D02*
Y-686338D01*
X997652Y-680239D02*
Y-686338D01*
X995619Y-680239D02*
X999685D01*
X1000411D02*
Y-686338D01*
X1006335D02*
X1004012Y-680239D01*
X1001689Y-686338D01*
X1002560Y-684305D02*
X1005464D01*
X1007758Y-680239D02*
Y-686338D01*
X1011243D01*
X2290945Y1184046D02*
Y1185063D01*
X2291961D01*
Y1184046D01*
X2290945D01*
X2296026D02*
Y1190144D01*
X2299075D01*
X2300092Y1189128D01*
Y1187095D01*
X2299075Y1186079D01*
X2296026D01*
X2298059D02*
X2300092Y1184046D01*
X2305173D02*
X2303141D01*
X2302124Y1185063D01*
Y1187095D01*
X2303141Y1188112D01*
X2305173D01*
X2306190Y1187095D01*
Y1186079D01*
X2302124D01*
X2308222Y1184046D02*
X2310255D01*
X2309239D01*
Y1190144D01*
X2308222D01*
X2316353Y1184046D02*
X2314320D01*
X2313304Y1185063D01*
Y1187095D01*
X2314320Y1188112D01*
X2316353D01*
X2317369Y1187095D01*
Y1186079D01*
X2313304D01*
X2320418Y1188112D02*
X2322451D01*
X2323467Y1187095D01*
Y1184046D01*
X2320418D01*
X2319402Y1185063D01*
X2320418Y1186079D01*
X2323467D01*
X2325500Y1184046D02*
X2328549D01*
X2329565Y1185063D01*
X2328549Y1186079D01*
X2326516D01*
X2325500Y1187095D01*
X2326516Y1188112D01*
X2329565D01*
X2334647Y1184046D02*
X2332614D01*
X2331598Y1185063D01*
Y1187095D01*
X2332614Y1188112D01*
X2334647D01*
X2335663Y1187095D01*
Y1186079D01*
X2331598D01*
X2337696Y1190144D02*
Y1184046D01*
X2340745D01*
X2341761Y1185063D01*
Y1186079D01*
X2340745Y1187095D01*
X2337696D01*
X2340745D01*
X2341761Y1188112D01*
Y1189128D01*
X2340745Y1190144D01*
X2337696D01*
X2343794Y1188112D02*
Y1185063D01*
X2344810Y1184046D01*
X2347859D01*
Y1183030D01*
X2346843Y1182014D01*
X2345827D01*
X2347859Y1184046D02*
Y1188112D01*
X2353957Y1184046D02*
X2349892D01*
X2353957Y1188112D01*
Y1189128D01*
X2352941Y1190144D01*
X2350908D01*
X2349892Y1189128D01*
X2123305Y1181506D02*
Y1182523D01*
X2124321D01*
Y1181506D01*
X2123305D01*
X2128386D02*
Y1187604D01*
X2131435D01*
X2132452Y1186588D01*
Y1184555D01*
X2131435Y1183539D01*
X2128386D01*
X2130419D02*
X2132452Y1181506D01*
X2137533D02*
X2135501D01*
X2134484Y1182523D01*
Y1184555D01*
X2135501Y1185572D01*
X2137533D01*
X2138550Y1184555D01*
Y1183539D01*
X2134484D01*
X2140582Y1181506D02*
X2142615D01*
X2141599D01*
Y1187604D01*
X2140582D01*
X2148713Y1181506D02*
X2146680D01*
X2145664Y1182523D01*
Y1184555D01*
X2146680Y1185572D01*
X2148713D01*
X2149729Y1184555D01*
Y1183539D01*
X2145664D01*
X2152778Y1185572D02*
X2154811D01*
X2155827Y1184555D01*
Y1181506D01*
X2152778D01*
X2151762Y1182523D01*
X2152778Y1183539D01*
X2155827D01*
X2157860Y1181506D02*
X2160909D01*
X2161925Y1182523D01*
X2160909Y1183539D01*
X2158876D01*
X2157860Y1184555D01*
X2158876Y1185572D01*
X2161925D01*
X2167007Y1181506D02*
X2164974D01*
X2163958Y1182523D01*
Y1184555D01*
X2164974Y1185572D01*
X2167007D01*
X2168023Y1184555D01*
Y1183539D01*
X2163958D01*
X2170056Y1187604D02*
Y1181506D01*
X2173105D01*
X2174121Y1182523D01*
Y1186588D01*
X2173105Y1187604D01*
X2170056D01*
X2177170Y1185572D02*
X2179203D01*
X2180219Y1184555D01*
Y1181506D01*
X2177170D01*
X2176154Y1182523D01*
X2177170Y1183539D01*
X2180219D01*
X2183268Y1186588D02*
Y1185572D01*
X2182252D01*
X2184285D01*
X2183268D01*
Y1182523D01*
X2184285Y1181506D01*
X2190383D02*
X2188350D01*
X2187334Y1182523D01*
Y1184555D01*
X2188350Y1185572D01*
X2190383D01*
X2191399Y1184555D01*
Y1183539D01*
X2187334D01*
X2197497Y1181506D02*
X2193432D01*
X2197497Y1185572D01*
Y1186588D01*
X2196481Y1187604D01*
X2194448D01*
X2193432Y1186588D01*
D14*
X2103419Y211855D02*
X2298999D01*
X2349799Y-497434D02*
Y249326D01*
X2062779D02*
X2349799D01*
X2062779Y-497434D02*
Y249326D01*
Y-497434D02*
X2349799D01*
D19*
X-302455Y-711464D02*
X2389945D01*
X-353255Y856986D02*
X-302455D01*
X-353255Y-222514D02*
X-302455D01*
X345245Y-762264D02*
Y-711464D01*
X1043745Y-762264D02*
Y-711464D01*
X1742245Y-762264D02*
Y-711464D01*
X-302455Y1345936D02*
X2389945D01*
X345245D02*
Y1396736D01*
X1043745Y1345936D02*
Y1396736D01*
X1742245Y1345936D02*
Y1396736D01*
X-353195Y1397406D02*
X2440805D01*
Y-761594D02*
Y1397406D01*
X2389945Y-711464D02*
Y1345936D01*
Y856986D02*
X2440745D01*
X2389945Y317236D02*
X2440745D01*
X2389945Y-222514D02*
X2440745D01*
X-353195Y-761594D02*
X2440805D01*
X1516245Y1130706D02*
Y1346606D01*
Y1130706D02*
X2390005D01*
X1516245Y1168806D02*
X2389945D01*
X1516245Y1245006D02*
X2390005D01*
X1516245Y1206906D02*
X2389945D01*
X1516245Y1288186D02*
X2389945D01*
X1607685Y1130706D02*
Y1288186D01*
X2102985Y1130706D02*
Y1288186D01*
X2273165Y1130706D02*
Y1288186D01*
X1627945Y-559064D02*
Y-522488D01*
X1246945D02*
X1627945D01*
X817745D02*
X1246945D01*
X1627945Y-711464D02*
Y-559064D01*
X2161345Y-711464D02*
Y-581670D01*
X1246945Y-711464D02*
Y-522488D01*
X2389945Y-711464D02*
Y-522488D01*
X1627945D02*
X2389945D01*
X1246945Y-580908D02*
X2389945D01*
X1246945Y-644154D02*
X2389945D01*
X1246945Y-711464D02*
X2389945D01*
X817745D02*
Y-522488D01*
Y-711464D02*
X1246945D01*
D21*
X2114849Y-77070D02*
D03*
D22*
X469730Y295760D02*
D03*
X482730D02*
D03*
X495730D02*
D03*
X508730D02*
D03*
Y283760D02*
D03*
X495730D02*
D03*
X482730D02*
D03*
X469730D02*
D03*
X508730Y271760D02*
D03*
X495730D02*
D03*
X482730D02*
D03*
X469730D02*
D03*
X508730Y259760D02*
D03*
X495730D02*
D03*
X482730D02*
D03*
X469730D02*
D03*
D23*
X410460Y158187D02*
D03*
D24*
X847520Y652190D02*
D03*
X806020D02*
D03*
X847520Y673690D02*
D03*
X806020D02*
D03*
X731090Y614510D02*
D03*
X772590D02*
D03*
X731090Y593010D02*
D03*
X772590D02*
D03*
X847520Y593000D02*
D03*
X806020D02*
D03*
X847520Y614500D02*
D03*
X806020D02*
D03*
X772590Y652190D02*
D03*
X731090D02*
D03*
X772590Y673690D02*
D03*
X731090D02*
D03*
D25*
X356920Y212215D02*
D03*
X370920D02*
D03*
X360712Y381153D02*
D03*
X374712D02*
D03*
X720210Y146010D02*
D03*
X735210D02*
D03*
X824720Y146007D02*
D03*
X809720D02*
D03*
X785742Y137050D02*
D03*
X800742D02*
D03*
X393304Y341122D02*
D03*
X407304D02*
D03*
X361060Y613430D02*
D03*
X347060D02*
D03*
X322460D02*
D03*
X336460D02*
D03*
X389270Y274517D02*
D03*
X403270D02*
D03*
X417270D02*
D03*
X403270D02*
D03*
X332090Y548810D02*
D03*
X318090D02*
D03*
X293503D02*
D03*
X307503D02*
D03*
X711063Y137262D02*
D03*
X696063D02*
D03*
D26*
X486314Y511220D02*
D03*
X512314D02*
D03*
D27*
X575362Y168212D02*
D03*
Y154712D02*
D03*
X585862Y168212D02*
D03*
Y154712D02*
D03*
D28*
X425230Y239710D02*
D03*
Y228710D02*
D03*
X433230Y239710D02*
D03*
Y228710D02*
D03*
X494680Y534330D02*
D03*
X485680D02*
D03*
X503710D02*
D03*
X512710D02*
D03*
X586962Y522496D02*
D03*
X577962D02*
D03*
X582360Y183240D02*
D03*
X573360D02*
D03*
X781812Y358998D02*
D03*
X790812D02*
D03*
X781812Y367888D02*
D03*
X790812D02*
D03*
Y376778D02*
D03*
X781812D02*
D03*
X790812Y397098D02*
D03*
X781812D02*
D03*
X790812Y405988D02*
D03*
X781812D02*
D03*
X790812Y414878D02*
D03*
X781812D02*
D03*
X892480Y669716D02*
D03*
X883480D02*
D03*
X892335Y629291D02*
D03*
X901335D02*
D03*
X895754Y27350D02*
D03*
X886754D02*
D03*
X710100Y648400D02*
D03*
X701100D02*
D03*
X444650Y269390D02*
D03*
X435650D02*
D03*
X566800Y293700D02*
D03*
X575800D02*
D03*
X587072Y504706D02*
D03*
X578072D02*
D03*
X625230Y543986D02*
D03*
X616230D02*
D03*
X596350Y294738D02*
D03*
X605350D02*
D03*
X575417Y267662D02*
D03*
X566417D02*
D03*
Y280555D02*
D03*
X575417D02*
D03*
D29*
X621960Y72960D02*
D03*
X626960D02*
D03*
X631960D02*
D03*
X636960D02*
D03*
X616960D02*
D03*
X611960D02*
D03*
X606960D02*
D03*
X601960D02*
D03*
D30*
X643460D02*
D03*
X651460D02*
D03*
X595460D02*
D03*
X587460D02*
D03*
D31*
X431542Y659810D02*
D03*
D32*
X416542Y674560D02*
D03*
Y645060D02*
D03*
D33*
X705184Y312340D02*
D03*
Y318840D02*
D03*
Y325340D02*
D03*
Y331840D02*
D03*
Y338340D02*
D03*
Y344840D02*
D03*
Y351340D02*
D03*
Y357840D02*
D03*
Y364340D02*
D03*
Y370840D02*
D03*
X647184Y312340D02*
D03*
Y318840D02*
D03*
Y325340D02*
D03*
Y331840D02*
D03*
Y338340D02*
D03*
Y344840D02*
D03*
Y351340D02*
D03*
Y357840D02*
D03*
Y364340D02*
D03*
X704833Y386283D02*
D03*
Y392783D02*
D03*
Y399282D02*
D03*
Y405783D02*
D03*
Y412282D02*
D03*
Y418783D02*
D03*
Y425283D02*
D03*
Y431782D02*
D03*
Y438283D02*
D03*
Y444782D02*
D03*
X646833Y386283D02*
D03*
Y392783D02*
D03*
Y399282D02*
D03*
Y405783D02*
D03*
Y412282D02*
D03*
Y418783D02*
D03*
Y425283D02*
D03*
Y431782D02*
D03*
Y438283D02*
D03*
X255365Y419106D02*
D03*
Y412606D02*
D03*
Y406106D02*
D03*
Y399606D02*
D03*
Y393106D02*
D03*
Y386606D02*
D03*
Y380106D02*
D03*
Y373606D02*
D03*
Y367106D02*
D03*
Y360606D02*
D03*
X313365Y419106D02*
D03*
Y412606D02*
D03*
Y406106D02*
D03*
Y399606D02*
D03*
Y393106D02*
D03*
Y386606D02*
D03*
Y380106D02*
D03*
Y373606D02*
D03*
Y367106D02*
D03*
D34*
X647184Y370840D02*
D03*
X646833Y444782D02*
D03*
X313365Y360606D02*
D03*
D35*
X381440Y74530D02*
D03*
Y24530D02*
D03*
Y49530D02*
D03*
X436440D02*
D03*
Y24530D02*
D03*
Y74530D02*
D03*
X766960Y73940D02*
D03*
Y48940D02*
D03*
X711960Y23940D02*
D03*
Y73940D02*
D03*
X766960Y23940D02*
D03*
X711960Y48940D02*
D03*
D36*
X265865Y220640D02*
D03*
X257865D02*
D03*
D37*
X261865Y210640D02*
D03*
D38*
X569250Y307221D02*
D03*
Y317221D02*
D03*
Y312221D02*
D03*
X555750Y307221D02*
D03*
Y317221D02*
D03*
Y312221D02*
D03*
D39*
X634826Y103176D02*
D03*
X639825D02*
D03*
X644825D02*
D03*
Y116676D02*
D03*
X634826D02*
D03*
D40*
X318511Y212770D02*
D03*
Y203270D02*
D03*
X343511D02*
D03*
Y222270D02*
D03*
X318511D02*
D03*
X404363Y121622D02*
D03*
X429363Y102622D02*
D03*
X404363D02*
D03*
Y112122D02*
D03*
X429363Y121622D02*
D03*
X364100Y247506D02*
D03*
Y257006D02*
D03*
X339100D02*
D03*
Y238006D02*
D03*
X364100D02*
D03*
D41*
X302150Y318180D02*
D03*
X324150Y327680D02*
D03*
Y308680D02*
D03*
D42*
X876294Y567918D02*
D03*
Y561418D02*
D03*
Y554918D02*
D03*
Y548418D02*
D03*
X836794D02*
D03*
Y554918D02*
D03*
Y561418D02*
D03*
Y567918D02*
D03*
X846506Y355740D02*
D03*
Y362240D02*
D03*
Y368740D02*
D03*
Y375240D02*
D03*
X807006D02*
D03*
Y368740D02*
D03*
Y362240D02*
D03*
Y355740D02*
D03*
Y392570D02*
D03*
Y399070D02*
D03*
Y405570D02*
D03*
Y412070D02*
D03*
X846506D02*
D03*
Y405570D02*
D03*
Y399070D02*
D03*
Y392570D02*
D03*
D43*
X684350Y627690D02*
D03*
X671650D02*
D03*
X658950D02*
D03*
X646250D02*
D03*
X684350Y557690D02*
D03*
X671650D02*
D03*
X658950D02*
D03*
X646250D02*
D03*
D44*
X720344Y608470D02*
D03*
Y600070D02*
D03*
X795270Y658740D02*
D03*
Y667140D02*
D03*
X795000Y600070D02*
D03*
Y608470D02*
D03*
X720344Y667140D02*
D03*
Y658740D02*
D03*
D45*
X672900Y156500D02*
D03*
Y127500D02*
D03*
X865120Y180870D02*
D03*
Y151870D02*
D03*
X686530Y90110D02*
D03*
Y61110D02*
D03*
D46*
X324040Y680130D02*
D03*
X380040D02*
D03*
D47*
X367040Y641380D02*
D03*
X357040D02*
D03*
X347040D02*
D03*
X337040D02*
D03*
D48*
X287960Y484760D02*
D03*
Y514060D02*
D03*
X186360Y484760D02*
D03*
Y514060D02*
D03*
X160960Y484760D02*
D03*
X135560D02*
D03*
X262560D02*
D03*
X237160D02*
D03*
X313360D02*
D03*
X160960Y514060D02*
D03*
X135560D02*
D03*
X262560Y514060D02*
D03*
X237160Y514060D02*
D03*
X313360D02*
D03*
X211760Y484760D02*
D03*
Y514060D02*
D03*
X710960Y256160D02*
D03*
Y285460D02*
D03*
X787160Y256160D02*
D03*
Y285460D02*
D03*
X685560Y256160D02*
D03*
X761760D02*
D03*
X736360Y256160D02*
D03*
X863360Y256160D02*
D03*
X837960D02*
D03*
X685560Y285460D02*
D03*
X761760D02*
D03*
X736360D02*
D03*
X863360D02*
D03*
X837960D02*
D03*
X812560Y256160D02*
D03*
Y285460D02*
D03*
X787160Y484760D02*
D03*
Y514060D02*
D03*
X685560Y484760D02*
D03*
X761760D02*
D03*
X736360Y484760D02*
D03*
X863360Y484760D02*
D03*
X837960D02*
D03*
X685560Y514060D02*
D03*
X761760D02*
D03*
X736360D02*
D03*
X863360D02*
D03*
X837960D02*
D03*
X710960Y484760D02*
D03*
X812560D02*
D03*
X710960Y514060D02*
D03*
X812560D02*
D03*
X186360Y256160D02*
D03*
X287960D02*
D03*
X186360Y285460D02*
D03*
X287960D02*
D03*
X160960Y256160D02*
D03*
X135560D02*
D03*
X262560D02*
D03*
X237160D02*
D03*
X313360D02*
D03*
X160960Y285460D02*
D03*
X135560D02*
D03*
X262560Y285460D02*
D03*
X237160Y285460D02*
D03*
X313360D02*
D03*
X211760Y256160D02*
D03*
Y285460D02*
D03*
D49*
X440446Y321278D02*
D03*
Y330278D02*
D03*
X396304Y189904D02*
D03*
Y198904D02*
D03*
X379379Y189904D02*
D03*
Y198904D02*
D03*
X871978Y657198D02*
D03*
Y648198D02*
D03*
X710083Y615300D02*
D03*
Y624300D02*
D03*
X590800Y314600D02*
D03*
Y305600D02*
D03*
X440230Y321380D02*
D03*
Y330380D02*
D03*
D50*
X538956Y148762D02*
D03*
D51*
X558456Y161262D02*
D03*
Y156262D02*
D03*
Y151262D02*
D03*
Y146262D02*
D03*
Y141262D02*
D03*
Y136262D02*
D03*
X519456D02*
D03*
Y141262D02*
D03*
Y146262D02*
D03*
Y151262D02*
D03*
Y156262D02*
D03*
Y161262D02*
D03*
D52*
X551456Y129262D02*
D03*
X546456D02*
D03*
X541456D02*
D03*
X536456D02*
D03*
X531456D02*
D03*
X526456D02*
D03*
Y168262D02*
D03*
X531456D02*
D03*
X536456D02*
D03*
X541456D02*
D03*
X546456D02*
D03*
X551456D02*
D03*
D53*
X391805Y148160D02*
D03*
Y153160D02*
D03*
Y158160D02*
D03*
Y163160D02*
D03*
Y168160D02*
D03*
X429115D02*
D03*
Y163160D02*
D03*
Y158160D02*
D03*
Y153160D02*
D03*
Y148160D02*
D03*
D54*
X400460Y176815D02*
D03*
X405460D02*
D03*
X410460D02*
D03*
X415460D02*
D03*
X420460D02*
D03*
Y139505D02*
D03*
X415460D02*
D03*
X410460D02*
D03*
X405460D02*
D03*
D55*
X400460D02*
D03*
D56*
X523230Y245760D02*
D03*
Y309760D02*
D03*
X459230D02*
D03*
Y245760D02*
D03*
D57*
X469230D02*
D03*
X465230Y309760D02*
D03*
X469230D02*
D03*
X463230Y305760D02*
D03*
Y249760D02*
D03*
X523230Y303760D02*
D03*
X473230Y309760D02*
D03*
X477230D02*
D03*
X481230D02*
D03*
X485230D02*
D03*
X489230D02*
D03*
X493230D02*
D03*
X497230D02*
D03*
X501230D02*
D03*
X505230D02*
D03*
X509230D02*
D03*
X513230D02*
D03*
X517230D02*
D03*
X467230Y305760D02*
D03*
X471230D02*
D03*
X475230D02*
D03*
X479230D02*
D03*
X483230D02*
D03*
X487230D02*
D03*
X491230D02*
D03*
X495230D02*
D03*
X499230D02*
D03*
X503230D02*
D03*
X507230D02*
D03*
X511230D02*
D03*
X515230D02*
D03*
X519230D02*
D03*
Y301760D02*
D03*
Y297760D02*
D03*
X523230Y299760D02*
D03*
Y295760D02*
D03*
X519230Y293760D02*
D03*
X459230Y291760D02*
D03*
X523230D02*
D03*
X519230Y289760D02*
D03*
X459230Y287760D02*
D03*
X523230D02*
D03*
X519230Y285760D02*
D03*
X459230Y283760D02*
D03*
X523230D02*
D03*
X519230Y281760D02*
D03*
X459230Y279760D02*
D03*
X523230D02*
D03*
X519230Y277760D02*
D03*
X459230Y275760D02*
D03*
X523230D02*
D03*
X519230Y273760D02*
D03*
X459230Y271760D02*
D03*
X523230D02*
D03*
X519230Y269760D02*
D03*
X459230Y267760D02*
D03*
X523230D02*
D03*
X519230Y265760D02*
D03*
X459230Y263760D02*
D03*
X523230D02*
D03*
X519230Y261760D02*
D03*
X459230Y259760D02*
D03*
X523230D02*
D03*
X519230Y257760D02*
D03*
X459230Y255760D02*
D03*
X523230D02*
D03*
X519230Y253760D02*
D03*
X459230Y251760D02*
D03*
X523230D02*
D03*
X479230Y249760D02*
D03*
X483230D02*
D03*
X487230D02*
D03*
X491230D02*
D03*
X495230D02*
D03*
X499230D02*
D03*
X503230D02*
D03*
X507230D02*
D03*
X511230D02*
D03*
X515230D02*
D03*
X519230D02*
D03*
X473230Y245760D02*
D03*
X477230D02*
D03*
X481230D02*
D03*
X485230D02*
D03*
X489230D02*
D03*
X493230D02*
D03*
X497230D02*
D03*
X513230D02*
D03*
X475230Y249760D02*
D03*
X471230D02*
D03*
X467230D02*
D03*
X459230Y295760D02*
D03*
Y299760D02*
D03*
Y303760D02*
D03*
D58*
X493860Y648810D02*
D03*
X455360Y689810D02*
D03*
Y674810D02*
D03*
X455360Y659810D02*
D03*
Y648810D02*
D03*
Y637810D02*
D03*
Y626810D02*
D03*
Y615810D02*
D03*
Y604810D02*
D03*
Y593810D02*
D03*
Y582810D02*
D03*
Y571810D02*
D03*
Y560810D02*
D03*
X466360Y689810D02*
D03*
X466360Y659810D02*
D03*
Y648810D02*
D03*
Y637810D02*
D03*
Y626810D02*
D03*
Y615810D02*
D03*
Y604810D02*
D03*
Y593810D02*
D03*
Y582810D02*
D03*
Y571810D02*
D03*
Y560810D02*
D03*
X477360Y659810D02*
D03*
Y648810D02*
D03*
Y637810D02*
D03*
Y626810D02*
D03*
Y615810D02*
D03*
Y604810D02*
D03*
Y593810D02*
D03*
Y571810D02*
D03*
Y560810D02*
D03*
X488360Y582810D02*
D03*
Y571810D02*
D03*
Y560810D02*
D03*
X499360Y659810D02*
D03*
X493860Y626810D02*
D03*
Y604810D02*
D03*
X499360Y582810D02*
D03*
Y571810D02*
D03*
Y560810D02*
D03*
X510360Y582810D02*
D03*
Y571810D02*
D03*
Y560810D02*
D03*
X521360Y659810D02*
D03*
Y648810D02*
D03*
Y637810D02*
D03*
Y626810D02*
D03*
Y615810D02*
D03*
Y604810D02*
D03*
Y593810D02*
D03*
Y571810D02*
D03*
Y560810D02*
D03*
X532360Y689810D02*
D03*
X532360Y659810D02*
D03*
Y648810D02*
D03*
Y637810D02*
D03*
Y626810D02*
D03*
Y615810D02*
D03*
Y604810D02*
D03*
Y593810D02*
D03*
Y582810D02*
D03*
Y571810D02*
D03*
Y560810D02*
D03*
X543360Y689810D02*
D03*
Y674810D02*
D03*
Y659810D02*
D03*
Y648810D02*
D03*
Y637810D02*
D03*
Y626810D02*
D03*
Y615810D02*
D03*
Y604810D02*
D03*
Y593810D02*
D03*
Y582810D02*
D03*
Y571810D02*
D03*
Y560810D02*
D03*
X493860Y615810D02*
D03*
X504860Y648810D02*
D03*
Y626810D02*
D03*
Y604810D02*
D03*
Y615810D02*
D03*
X505860Y229280D02*
D03*
X496360D02*
D03*
X437680Y257240D02*
D03*
X428180D02*
D03*
X502050Y219120D02*
D03*
X492550D02*
D03*
D59*
X919750Y600700D02*
D03*
X970250D02*
D03*
X919750Y575300D02*
D03*
X970250D02*
D03*
X919750Y549900D02*
D03*
X970250D02*
D03*
X919750Y524500D02*
D03*
X970250D02*
D03*
X919750Y499100D02*
D03*
X970250D02*
D03*
X919750Y473700D02*
D03*
X970250D02*
D03*
X919750Y448300D02*
D03*
X970250D02*
D03*
X919750Y422900D02*
D03*
X970250D02*
D03*
X919750Y397500D02*
D03*
X970250D02*
D03*
X919750Y372100D02*
D03*
X970250D02*
D03*
X919750Y346700D02*
D03*
X970250D02*
D03*
X919750Y321300D02*
D03*
X970250D02*
D03*
X919750Y295900D02*
D03*
X970250D02*
D03*
X919750Y270500D02*
D03*
X970250D02*
D03*
X919750Y245100D02*
D03*
X970250D02*
D03*
X919750Y219700D02*
D03*
X970250D02*
D03*
X919750Y194300D02*
D03*
X970250D02*
D03*
X919750Y168900D02*
D03*
X970250D02*
D03*
X919750Y143500D02*
D03*
X970250D02*
D03*
X919750Y118100D02*
D03*
X970250D02*
D03*
X80250D02*
D03*
X29750D02*
D03*
X80250Y143500D02*
D03*
X29750D02*
D03*
X80250Y168900D02*
D03*
X29750D02*
D03*
X80250Y194300D02*
D03*
X29750D02*
D03*
X80250Y219700D02*
D03*
X29750D02*
D03*
X80250Y245100D02*
D03*
X29750D02*
D03*
X80250Y270500D02*
D03*
X29750D02*
D03*
X80250Y295900D02*
D03*
X29750D02*
D03*
X80250Y321300D02*
D03*
X29750D02*
D03*
X80250Y346700D02*
D03*
X29750D02*
D03*
X80250Y372100D02*
D03*
X29750D02*
D03*
X80250Y397500D02*
D03*
X29750D02*
D03*
X80250Y422900D02*
D03*
X29750D02*
D03*
X80250Y448300D02*
D03*
X29750D02*
D03*
X80250Y473700D02*
D03*
X29750D02*
D03*
X80250Y499100D02*
D03*
X29750D02*
D03*
X80250Y524500D02*
D03*
X29750D02*
D03*
X80250Y549900D02*
D03*
X29750D02*
D03*
X80250Y575300D02*
D03*
X29750D02*
D03*
X80250Y600700D02*
D03*
X29750D02*
D03*
D60*
X883798Y642516D02*
D03*
X892298D02*
D03*
Y657016D02*
D03*
X883798D02*
D03*
D61*
X750000Y403860D02*
D03*
X737000D02*
D03*
Y367035D02*
D03*
X750000Y367030D02*
D03*
Y416560D02*
D03*
X737000D02*
D03*
X750000Y354330D02*
D03*
X737000D02*
D03*
X750000Y391160D02*
D03*
X737000D02*
D03*
Y378460D02*
D03*
X750000D02*
D03*
D62*
X580200Y305700D02*
D03*
Y319700D02*
D03*
D63*
X433320Y201990D02*
D03*
Y187990D02*
D03*
X657260Y115700D02*
D03*
Y101700D02*
D03*
D64*
X454914Y393440D02*
D03*
X429514Y360440D02*
D03*
X404114Y393440D02*
D03*
X601472D02*
D03*
X576072Y360440D02*
D03*
X550672Y393440D02*
D03*
D65*
X199060Y678590D02*
D03*
X211760D02*
D03*
X224460D02*
D03*
X237160D02*
D03*
X249860D02*
D03*
Y639590D02*
D03*
X237160D02*
D03*
X224460D02*
D03*
X211760D02*
D03*
X199060D02*
D03*
X162814Y367088D02*
D03*
X175514D02*
D03*
X188214D02*
D03*
X200914D02*
D03*
X213614D02*
D03*
Y406088D02*
D03*
X200914D02*
D03*
X188214D02*
D03*
X175514D02*
D03*
X162814D02*
D03*
D66*
X381130Y502978D02*
D03*
X85164Y60664D02*
D03*
D67*
X154600Y316992D02*
D03*
X158100D02*
D03*
X161600D02*
D03*
X165100D02*
D03*
Y307992D02*
D03*
X161600D02*
D03*
X158100D02*
D03*
X331920Y595960D02*
D03*
X335420D02*
D03*
X338920D02*
D03*
X342420D02*
D03*
Y586960D02*
D03*
X338920D02*
D03*
X335420D02*
D03*
X192950Y317070D02*
D03*
X196450D02*
D03*
X199950D02*
D03*
X203450D02*
D03*
Y308070D02*
D03*
X199950D02*
D03*
X196450D02*
D03*
D68*
X154600Y308492D02*
D03*
X331920Y587460D02*
D03*
X192950Y308570D02*
D03*
D69*
X721365Y158510D02*
D03*
Y165010D02*
D03*
Y171510D02*
D03*
X700365D02*
D03*
Y165010D02*
D03*
Y158510D02*
D03*
X810958Y158508D02*
D03*
Y165008D02*
D03*
Y171508D02*
D03*
X789958D02*
D03*
Y165008D02*
D03*
Y158508D02*
D03*
D70*
X710865Y165010D02*
D03*
X800458Y165008D02*
D03*
D71*
X303320Y227740D02*
D03*
Y219740D02*
D03*
X822706Y175324D02*
D03*
Y183324D02*
D03*
X733050Y183320D02*
D03*
Y175320D02*
D03*
X658200Y123500D02*
D03*
Y131500D02*
D03*
X564102Y117710D02*
D03*
Y109710D02*
D03*
X507234Y154160D02*
D03*
Y162160D02*
D03*
X505506Y138158D02*
D03*
Y146158D02*
D03*
X405380Y190990D02*
D03*
Y198990D02*
D03*
X414270Y190990D02*
D03*
Y198990D02*
D03*
X423160Y190990D02*
D03*
Y198990D02*
D03*
X561280Y178860D02*
D03*
Y186860D02*
D03*
X440940Y169400D02*
D03*
Y177400D02*
D03*
X503480Y534290D02*
D03*
Y526290D02*
D03*
X494950D02*
D03*
Y534290D02*
D03*
X674662Y46030D02*
D03*
Y38030D02*
D03*
X563909Y31743D02*
D03*
Y39743D02*
D03*
X778312Y157370D02*
D03*
Y165370D02*
D03*
X822670Y157370D02*
D03*
Y165370D02*
D03*
X832612Y165290D02*
D03*
Y157290D02*
D03*
X778256Y174562D02*
D03*
Y182562D02*
D03*
X733046Y157370D02*
D03*
Y165370D02*
D03*
X518410Y447560D02*
D03*
Y439560D02*
D03*
X505710D02*
D03*
Y447560D02*
D03*
X454914Y447561D02*
D03*
Y439561D02*
D03*
X467614D02*
D03*
Y447561D02*
D03*
X480314D02*
D03*
Y439561D02*
D03*
X493014D02*
D03*
Y447561D02*
D03*
X526792Y104884D02*
D03*
Y112884D02*
D03*
X545306D02*
D03*
Y104884D02*
D03*
X496902Y132398D02*
D03*
Y140398D02*
D03*
X536670Y104884D02*
D03*
Y112884D02*
D03*
X554704D02*
D03*
Y104884D02*
D03*
X453132Y189974D02*
D03*
Y197974D02*
D03*
X443988Y189974D02*
D03*
Y197974D02*
D03*
X572400Y422300D02*
D03*
Y414300D02*
D03*
X584467Y422300D02*
D03*
Y414300D02*
D03*
X688679Y165370D02*
D03*
Y157370D02*
D03*
Y174562D02*
D03*
Y182562D02*
D03*
X327050Y570870D02*
D03*
Y562870D02*
D03*
X344980Y570870D02*
D03*
Y562870D02*
D03*
X376800Y265200D02*
D03*
Y257200D02*
D03*
X465550Y329800D02*
D03*
Y321800D02*
D03*
X445340Y254910D02*
D03*
Y246910D02*
D03*
X449090Y221340D02*
D03*
Y229340D02*
D03*
X531081Y338000D02*
D03*
Y346000D02*
D03*
X440234Y321882D02*
D03*
Y329882D02*
D03*
X448564D02*
D03*
Y321882D02*
D03*
X442620Y302670D02*
D03*
Y310670D02*
D03*
X626872Y409892D02*
D03*
Y401892D02*
D03*
X662965Y293760D02*
D03*
Y301760D02*
D03*
X720510Y372626D02*
D03*
Y364626D02*
D03*
X719223Y438322D02*
D03*
Y446323D02*
D03*
X632861Y356451D02*
D03*
Y364451D02*
D03*
X624883Y437583D02*
D03*
Y429582D02*
D03*
X531110Y439561D02*
D03*
Y447561D02*
D03*
X543810Y439561D02*
D03*
Y447561D02*
D03*
X663690Y467136D02*
D03*
Y475136D02*
D03*
X653898Y467136D02*
D03*
Y475136D02*
D03*
X622523Y467136D02*
D03*
Y475136D02*
D03*
X612732Y467136D02*
D03*
Y475136D02*
D03*
X602940D02*
D03*
Y467136D02*
D03*
X634315Y475136D02*
D03*
Y467136D02*
D03*
X644107Y475136D02*
D03*
Y467136D02*
D03*
X392064Y448051D02*
D03*
Y456051D02*
D03*
X381122Y448051D02*
D03*
Y456051D02*
D03*
X159867Y652090D02*
D03*
Y660090D02*
D03*
X370180Y448051D02*
D03*
Y456051D02*
D03*
X359238Y448051D02*
D03*
Y456051D02*
D03*
X348296Y448051D02*
D03*
Y456051D02*
D03*
X337354Y448051D02*
D03*
Y456051D02*
D03*
X174295Y660090D02*
D03*
Y652090D02*
D03*
X442214Y113602D02*
D03*
Y121602D02*
D03*
X390901Y113812D02*
D03*
Y121812D02*
D03*
X587467Y218977D02*
D03*
Y226977D02*
D03*
X579339Y218977D02*
D03*
Y226977D02*
D03*
X710083Y632260D02*
D03*
Y624260D02*
D03*
X710946Y593788D02*
D03*
Y585788D02*
D03*
X146812Y328612D02*
D03*
Y320612D02*
D03*
X212404Y307670D02*
D03*
Y315670D02*
D03*
X291338Y322136D02*
D03*
Y330136D02*
D03*
X658870Y603830D02*
D03*
Y611830D02*
D03*
X671650Y581090D02*
D03*
Y573090D02*
D03*
X658950Y581090D02*
D03*
Y573090D02*
D03*
X684350Y603830D02*
D03*
Y611830D02*
D03*
X646250Y573090D02*
D03*
Y581090D02*
D03*
X671650Y611830D02*
D03*
Y603830D02*
D03*
X600710Y117920D02*
D03*
Y125920D02*
D03*
Y142748D02*
D03*
Y134748D02*
D03*
X629666Y387032D02*
D03*
Y379032D02*
D03*
X456900Y525844D02*
D03*
Y533844D02*
D03*
X631745Y598500D02*
D03*
Y590500D02*
D03*
X743012Y165370D02*
D03*
Y157370D02*
D03*
X632700Y303400D02*
D03*
Y311400D02*
D03*
X326400Y449700D02*
D03*
Y441700D02*
D03*
X616697Y125972D02*
D03*
Y117972D02*
D03*
X617188Y134300D02*
D03*
Y142300D02*
D03*
X387901Y190404D02*
D03*
Y198404D02*
D03*
X460300Y156700D02*
D03*
Y148700D02*
D03*
X460481Y172962D02*
D03*
Y164962D02*
D03*
X822200Y558900D02*
D03*
Y550900D02*
D03*
X876046Y589419D02*
D03*
Y581419D02*
D03*
D72*
X581076Y176194D02*
D03*
X575576D02*
D03*
D73*
X504980Y53340D02*
D03*
X484980D02*
D03*
D74*
X528480Y30840D02*
D03*
X461480D02*
D03*
D75*
X137360Y677590D02*
D03*
X99360D02*
D03*
D76*
X128360Y654590D02*
D03*
X123360D02*
D03*
X118360D02*
D03*
X113360D02*
D03*
X108360D02*
D03*
D77*
X122428Y105664D02*
D03*
X342128D02*
D03*
D78*
X454914Y423061D02*
D03*
X467614D02*
D03*
X480314D02*
D03*
X493014D02*
D03*
X505714D02*
D03*
X518414D02*
D03*
X531114D02*
D03*
X543814D02*
D03*
Y464061D02*
D03*
X531114D02*
D03*
X518414D02*
D03*
X505714D02*
D03*
X493014D02*
D03*
X480314D02*
D03*
X467614D02*
D03*
X454914D02*
D03*
X493080Y349890D02*
D03*
X505780D02*
D03*
Y390890D02*
D03*
X493080D02*
D03*
D79*
X449644Y545084D02*
D03*
X457644D02*
D03*
X478472D02*
D03*
X470472D02*
D03*
X633412Y648716D02*
D03*
X625412D02*
D03*
X633412Y640334D02*
D03*
X625412D02*
D03*
X578572Y531976D02*
D03*
X586572D02*
D03*
X616750Y552836D02*
D03*
X624750D02*
D03*
X612940Y629336D02*
D03*
X604940D02*
D03*
X662600Y93100D02*
D03*
X670600D02*
D03*
X586572Y513646D02*
D03*
X578572D02*
D03*
X797129Y182374D02*
D03*
X789129D02*
D03*
X707326D02*
D03*
X699326D02*
D03*
X632904Y657352D02*
D03*
X624904D02*
D03*
X507555Y121825D02*
D03*
X499554D02*
D03*
X592667Y134665D02*
D03*
X600667D02*
D03*
X858455Y347957D02*
D03*
X866455D02*
D03*
X858455Y365657D02*
D03*
X866455D02*
D03*
X858455Y378357D02*
D03*
X866455D02*
D03*
X858455Y391057D02*
D03*
X866455D02*
D03*
X858455Y403757D02*
D03*
X866455D02*
D03*
X858455Y416457D02*
D03*
X866455D02*
D03*
X380690Y595136D02*
D03*
X388690D02*
D03*
X123250Y642228D02*
D03*
X131250D02*
D03*
X105470D02*
D03*
X113470D02*
D03*
X592667Y125972D02*
D03*
X600667D02*
D03*
X703898Y531876D02*
D03*
X711898D02*
D03*
X716910Y236570D02*
D03*
X708910D02*
D03*
X287338Y466852D02*
D03*
X295338D02*
D03*
X288360Y306070D02*
D03*
X280360D02*
D03*
X670622Y84675D02*
D03*
X662622D02*
D03*
X799237Y571518D02*
D03*
X791237D02*
D03*
Y562942D02*
D03*
X799237D02*
D03*
X762255Y546400D02*
D03*
X770255D02*
D03*
X380430Y633394D02*
D03*
X388430D02*
D03*
X380430Y625012D02*
D03*
X388430D02*
D03*
X534950Y535092D02*
D03*
X542950D02*
D03*
X541940Y248330D02*
D03*
X533940D02*
D03*
X541940Y278810D02*
D03*
X533940D02*
D03*
X541940Y305480D02*
D03*
X533940D02*
D03*
X514922Y329438D02*
D03*
X522922D02*
D03*
X437420Y277490D02*
D03*
X445420D02*
D03*
X470440Y233090D02*
D03*
X478440D02*
D03*
X490429Y330051D02*
D03*
X498429D02*
D03*
X671611Y437972D02*
D03*
X679611D02*
D03*
X671611Y430026D02*
D03*
X679611D02*
D03*
X671835Y422675D02*
D03*
X679835D02*
D03*
X671835Y410931D02*
D03*
X679835D02*
D03*
X671835Y399186D02*
D03*
X679835D02*
D03*
X671835Y387442D02*
D03*
X679835D02*
D03*
X680181Y371376D02*
D03*
X672181D02*
D03*
X680181Y361333D02*
D03*
X672181D02*
D03*
X680181Y351291D02*
D03*
X672181D02*
D03*
Y341248D02*
D03*
X680181D02*
D03*
X672181Y331205D02*
D03*
X680181D02*
D03*
X672181Y321162D02*
D03*
X680181D02*
D03*
X672181Y311119D02*
D03*
X680181D02*
D03*
X288360Y352956D02*
D03*
X280360D02*
D03*
X288360Y364011D02*
D03*
X280360D02*
D03*
X288360Y375066D02*
D03*
X280360D02*
D03*
X288360Y386121D02*
D03*
X280360D02*
D03*
X288360Y397176D02*
D03*
X280360D02*
D03*
Y408231D02*
D03*
X288360D02*
D03*
Y419286D02*
D03*
X280360D02*
D03*
X288360Y430341D02*
D03*
X280360D02*
D03*
X233160Y367088D02*
D03*
X241160D02*
D03*
X333611Y367110D02*
D03*
X325611D02*
D03*
X571170Y334650D02*
D03*
X563170D02*
D03*
X569116Y326189D02*
D03*
X561116D02*
D03*
X595735Y495710D02*
D03*
X587735D02*
D03*
X113470Y630866D02*
D03*
X105470D02*
D03*
X280360Y441396D02*
D03*
X288360D02*
D03*
X403460Y564600D02*
D03*
X411460D02*
D03*
X403460Y574680D02*
D03*
X411460D02*
D03*
Y595260D02*
D03*
X403460D02*
D03*
X380430Y616020D02*
D03*
X388430D02*
D03*
X403460Y585040D02*
D03*
X411460D02*
D03*
X624670Y562526D02*
D03*
X616670D02*
D03*
X586562Y550706D02*
D03*
X578562D02*
D03*
X624670Y571626D02*
D03*
X616670D02*
D03*
X586572Y559676D02*
D03*
X578572D02*
D03*
X586472Y541816D02*
D03*
X578472D02*
D03*
X617180Y534616D02*
D03*
X625180D02*
D03*
X604940Y620356D02*
D03*
X612940D02*
D03*
X534950Y525311D02*
D03*
X542950D02*
D03*
X411460Y554376D02*
D03*
X403460D02*
D03*
X358670Y596000D02*
D03*
X350670D02*
D03*
X309701Y578410D02*
D03*
X301701D02*
D03*
X283859D02*
D03*
X291859D02*
D03*
X324290Y595720D02*
D03*
X316290D02*
D03*
X324550Y586630D02*
D03*
X316550D02*
D03*
X679387Y445972D02*
D03*
X671387D02*
D03*
X109200Y621793D02*
D03*
X117200D02*
D03*
X259000Y316321D02*
D03*
X251000D02*
D03*
X259000Y337251D02*
D03*
X251000D02*
D03*
X153114Y444590D02*
D03*
X145114D02*
D03*
X179514D02*
D03*
X171514D02*
D03*
X195450D02*
D03*
X203450D02*
D03*
X759833Y571810D02*
D03*
X767833D02*
D03*
X739500Y572689D02*
D03*
X731500D02*
D03*
X739500D02*
D03*
X747500D02*
D03*
X824928Y567944D02*
D03*
X816928D02*
D03*
X881726Y534360D02*
D03*
X889726D02*
D03*
X781197Y443191D02*
D03*
X789197D02*
D03*
X614362Y325120D02*
D03*
X606362D02*
D03*
X183254Y317585D02*
D03*
X175254D02*
D03*
X184594Y304292D02*
D03*
X176594D02*
D03*
X145638Y307670D02*
D03*
X137638D02*
D03*
X232392Y307522D02*
D03*
X224392D02*
D03*
X227394Y395478D02*
D03*
X235394D02*
D03*
X570658Y227244D02*
D03*
X578658D02*
D03*
X595312Y227330D02*
D03*
X587312D02*
D03*
X624670Y311456D02*
D03*
X632670D02*
D03*
X318260Y441538D02*
D03*
X326260D02*
D03*
X365300Y327301D02*
D03*
X373300D02*
D03*
X365300Y318051D02*
D03*
X373300D02*
D03*
X380379Y345826D02*
D03*
X372379D02*
D03*
X365300Y336550D02*
D03*
X373300D02*
D03*
X617052Y125972D02*
D03*
X609052D02*
D03*
X617052Y134300D02*
D03*
X609052D02*
D03*
X468440Y156648D02*
D03*
X460440D02*
D03*
X468440Y164962D02*
D03*
X460440D02*
D03*
X251000Y327282D02*
D03*
X259000D02*
D03*
X795270Y549688D02*
D03*
X803270D02*
D03*
D80*
X523998Y516478D02*
D03*
Y506978D02*
D03*
X474468Y516224D02*
D03*
Y506724D02*
D03*
X478250Y215640D02*
D03*
Y225140D02*
D03*
X461740Y221990D02*
D03*
Y231490D02*
D03*
X515080Y215640D02*
D03*
Y225140D02*
D03*
D81*
X594328Y160148D02*
D03*
Y154648D02*
D03*
D82*
X825246Y131460D02*
D03*
Y117460D02*
D03*
X735663D02*
D03*
Y131460D02*
D03*
X338582Y191404D02*
D03*
Y177404D02*
D03*
X541520Y227630D02*
D03*
Y212630D02*
D03*
X529420Y227600D02*
D03*
Y212600D02*
D03*
X788162Y91298D02*
D03*
Y105298D02*
D03*
X553720Y213584D02*
D03*
Y227584D02*
D03*
X362712Y119124D02*
D03*
Y105124D02*
D03*
X458216Y92568D02*
D03*
Y106568D02*
D03*
D83*
X844600Y68928D02*
D03*
Y27428D02*
D03*
X823100Y68928D02*
D03*
Y27428D02*
D03*
D84*
X299538Y210480D02*
D03*
X291138D02*
D03*
X851600Y89806D02*
D03*
X860000D02*
D03*
D85*
X884508Y17444D02*
D03*
X898508D02*
D03*
D86*
X229640Y419860D02*
D03*
Y440180D02*
D03*
X153190Y341380D02*
D03*
X229390Y351540D02*
D03*
Y331220D02*
D03*
M02*
