G04*
G04 #@! TF.GenerationSoftware,Altium Limited,Altium Designer,24.6.1 (21)*
G04*
G04 Layer_Color=128*
%FSLAX44Y44*%
%MOMM*%
G71*
G04*
G04 #@! TF.SameCoordinates,E70CDE82-3EE1-4166-B2EF-4B71CB92BF6A*
G04*
G04*
G04 #@! TF.FilePolarity,Positive*
G04*
G01*
G75*
%ADD12C,0.1270*%
%ADD14C,0.2540*%
%ADD19C,0.1500*%
%ADD192C,0.0508*%
G36*
X930835Y-543861D02*
X935370D01*
Y-544314D01*
X938092D01*
Y-544768D01*
X940359D01*
Y-545221D01*
X942173D01*
Y-545675D01*
X943988D01*
Y-546128D01*
X945348D01*
Y-546582D01*
X946709D01*
Y-547035D01*
X948070D01*
Y-547489D01*
X948977D01*
Y-547943D01*
X950338D01*
Y-548396D01*
X951245D01*
Y-548850D01*
X952152D01*
Y-549303D01*
X953059D01*
Y-549757D01*
X953966D01*
Y-550210D01*
X954873D01*
Y-550664D01*
X955327D01*
Y-551117D01*
X956234D01*
Y-551571D01*
X957141D01*
Y-552024D01*
X957594D01*
Y-552478D01*
X958502D01*
Y-552932D01*
X958955D01*
Y-553385D01*
X959862D01*
Y-553839D01*
X960316D01*
Y-554292D01*
X960769D01*
Y-554746D01*
X961676D01*
Y-555199D01*
X962130D01*
Y-555653D01*
X962583D01*
Y-556106D01*
X963037D01*
Y-556560D01*
X963944D01*
Y-557014D01*
X964398D01*
Y-557467D01*
X964851D01*
Y-557921D01*
X965305D01*
Y-558374D01*
X965758D01*
Y-558828D01*
X966212D01*
Y-559281D01*
X966665D01*
Y-559735D01*
X967119D01*
Y-560188D01*
X967573D01*
Y-560642D01*
X968026D01*
Y-561096D01*
X968480D01*
Y-561549D01*
X968933D01*
Y-562003D01*
Y-562456D01*
X969387D01*
Y-562910D01*
X969840D01*
Y-563363D01*
X970294D01*
Y-563817D01*
X970748D01*
Y-564271D01*
Y-564724D01*
X971201D01*
Y-565178D01*
X971655D01*
Y-565631D01*
X972108D01*
Y-566085D01*
Y-566538D01*
X972562D01*
Y-566992D01*
X973015D01*
Y-567445D01*
Y-567899D01*
X973469D01*
Y-568353D01*
X973922D01*
Y-568806D01*
Y-569260D01*
X974376D01*
Y-569713D01*
X974829D01*
Y-570167D01*
Y-570620D01*
X975283D01*
Y-571074D01*
Y-571527D01*
X975737D01*
Y-571981D01*
Y-572435D01*
X976190D01*
Y-572888D01*
Y-573342D01*
X976644D01*
Y-573795D01*
Y-574249D01*
X977097D01*
Y-574702D01*
Y-575156D01*
X977551D01*
Y-575609D01*
Y-576063D01*
X978004D01*
Y-576516D01*
Y-576970D01*
Y-577424D01*
X978458D01*
Y-577877D01*
Y-578331D01*
X978912D01*
Y-578784D01*
Y-579238D01*
Y-579691D01*
X979365D01*
Y-580145D01*
Y-580598D01*
Y-581052D01*
X979819D01*
Y-581506D01*
Y-581959D01*
Y-582413D01*
Y-582866D01*
X980272D01*
Y-583320D01*
Y-583773D01*
Y-584227D01*
Y-584680D01*
X980726D01*
Y-585134D01*
Y-585588D01*
Y-586041D01*
Y-586495D01*
X981179D01*
Y-586948D01*
Y-587402D01*
Y-587855D01*
Y-588309D01*
Y-588763D01*
Y-589216D01*
Y-589670D01*
X981633D01*
Y-590123D01*
Y-590577D01*
Y-591030D01*
Y-591484D01*
Y-591937D01*
Y-592391D01*
Y-592845D01*
Y-593298D01*
Y-593752D01*
Y-594205D01*
Y-594659D01*
X982086D01*
Y-595112D01*
Y-595566D01*
Y-596019D01*
Y-596473D01*
Y-596926D01*
Y-597380D01*
Y-597834D01*
Y-598287D01*
Y-598741D01*
Y-599194D01*
X981633D01*
Y-599648D01*
Y-600101D01*
Y-600555D01*
Y-601008D01*
Y-601462D01*
Y-601916D01*
Y-602369D01*
Y-602823D01*
Y-603276D01*
Y-603730D01*
Y-604183D01*
X981179D01*
Y-604637D01*
Y-605090D01*
Y-605544D01*
Y-605998D01*
Y-606451D01*
Y-606905D01*
X980726D01*
Y-607358D01*
Y-607812D01*
Y-608265D01*
Y-608719D01*
Y-609173D01*
X980272D01*
Y-609626D01*
Y-610080D01*
Y-610533D01*
Y-610987D01*
X979819D01*
Y-611440D01*
Y-611894D01*
Y-612347D01*
Y-612801D01*
X979365D01*
Y-613255D01*
Y-613708D01*
Y-614162D01*
X978912D01*
Y-614615D01*
Y-615069D01*
X978458D01*
Y-615522D01*
Y-615976D01*
Y-616429D01*
X978004D01*
Y-616883D01*
Y-617337D01*
X977551D01*
Y-617790D01*
Y-618244D01*
Y-618697D01*
X977097D01*
Y-619151D01*
Y-619604D01*
X976644D01*
Y-620058D01*
Y-620511D01*
X976190D01*
Y-620965D01*
Y-621418D01*
X975737D01*
Y-621872D01*
Y-622326D01*
X975283D01*
Y-621872D01*
Y-621418D01*
Y-620965D01*
Y-620511D01*
Y-620058D01*
Y-619604D01*
Y-619151D01*
Y-618697D01*
Y-618244D01*
Y-617790D01*
Y-617337D01*
Y-616883D01*
Y-616429D01*
Y-615976D01*
Y-615522D01*
Y-615069D01*
Y-614615D01*
Y-614162D01*
Y-613708D01*
Y-613255D01*
Y-612801D01*
Y-612347D01*
Y-611894D01*
Y-611440D01*
Y-610987D01*
Y-610533D01*
Y-610080D01*
Y-609626D01*
Y-609173D01*
Y-608719D01*
Y-608265D01*
Y-607812D01*
Y-607358D01*
Y-606905D01*
Y-606451D01*
Y-605998D01*
Y-605544D01*
Y-605090D01*
Y-604637D01*
Y-604183D01*
Y-603730D01*
Y-603276D01*
Y-602823D01*
Y-602369D01*
Y-601916D01*
Y-601462D01*
Y-601008D01*
Y-600555D01*
Y-600101D01*
Y-599648D01*
Y-599194D01*
Y-598741D01*
Y-598287D01*
Y-597834D01*
Y-597380D01*
Y-596926D01*
Y-596473D01*
Y-596019D01*
Y-595566D01*
Y-595112D01*
Y-594659D01*
Y-594205D01*
Y-593752D01*
Y-593298D01*
Y-592845D01*
Y-592391D01*
Y-591937D01*
Y-591484D01*
Y-591030D01*
Y-590577D01*
Y-590123D01*
Y-589670D01*
Y-589216D01*
Y-588763D01*
Y-588309D01*
Y-587855D01*
X962583D01*
Y-588309D01*
Y-588763D01*
Y-589216D01*
Y-589670D01*
Y-590123D01*
Y-590577D01*
Y-591030D01*
Y-591484D01*
Y-591937D01*
Y-592391D01*
Y-592845D01*
Y-593298D01*
Y-593752D01*
Y-594205D01*
Y-594659D01*
Y-595112D01*
Y-595566D01*
Y-596019D01*
Y-596473D01*
Y-596926D01*
Y-597380D01*
Y-597834D01*
Y-598287D01*
Y-598741D01*
Y-599194D01*
Y-599648D01*
Y-600101D01*
Y-600555D01*
Y-601008D01*
Y-601462D01*
Y-601916D01*
Y-602369D01*
Y-602823D01*
Y-603276D01*
Y-603730D01*
Y-604183D01*
Y-604637D01*
Y-605090D01*
Y-605544D01*
Y-605998D01*
Y-606451D01*
Y-606905D01*
Y-607358D01*
Y-607812D01*
Y-608265D01*
Y-608719D01*
Y-609173D01*
Y-609626D01*
Y-610080D01*
Y-610533D01*
Y-610987D01*
Y-611440D01*
Y-611894D01*
Y-612347D01*
Y-612801D01*
Y-613255D01*
Y-613708D01*
Y-614162D01*
Y-614615D01*
Y-615069D01*
Y-615522D01*
X962130D01*
Y-615976D01*
Y-616429D01*
Y-616883D01*
Y-617337D01*
X961676D01*
Y-617790D01*
Y-618244D01*
X961223D01*
Y-618697D01*
Y-619151D01*
X960769D01*
Y-619604D01*
X960316D01*
Y-620058D01*
X959862D01*
Y-620511D01*
X959409D01*
Y-620965D01*
X958955D01*
Y-621418D01*
X958048D01*
Y-621872D01*
X956687D01*
Y-622326D01*
X950338D01*
Y-621872D01*
X948977D01*
Y-621418D01*
X948070D01*
Y-620965D01*
X947616D01*
Y-620511D01*
X947163D01*
Y-620058D01*
X946709D01*
Y-619604D01*
Y-619151D01*
X946255D01*
Y-618697D01*
Y-618244D01*
X945802D01*
Y-617790D01*
Y-617337D01*
Y-616883D01*
Y-616429D01*
X945348D01*
Y-615976D01*
Y-615522D01*
Y-615069D01*
Y-614615D01*
Y-614162D01*
Y-613708D01*
Y-613255D01*
Y-612801D01*
Y-612347D01*
Y-611894D01*
Y-611440D01*
Y-610987D01*
Y-610533D01*
Y-610080D01*
Y-609626D01*
Y-609173D01*
Y-608719D01*
Y-608265D01*
Y-607812D01*
Y-607358D01*
Y-606905D01*
Y-606451D01*
Y-605998D01*
Y-605544D01*
Y-605090D01*
Y-604637D01*
Y-604183D01*
Y-603730D01*
Y-603276D01*
Y-602823D01*
Y-602369D01*
Y-601916D01*
Y-601462D01*
Y-601008D01*
Y-600555D01*
Y-600101D01*
Y-599648D01*
Y-599194D01*
Y-598741D01*
Y-598287D01*
Y-597834D01*
Y-597380D01*
Y-596926D01*
Y-596473D01*
Y-596019D01*
Y-595566D01*
Y-595112D01*
Y-594659D01*
Y-594205D01*
Y-593752D01*
Y-593298D01*
Y-592845D01*
Y-592391D01*
Y-591937D01*
Y-591484D01*
Y-591030D01*
Y-590577D01*
Y-590123D01*
Y-589670D01*
Y-589216D01*
Y-588763D01*
Y-588309D01*
Y-587855D01*
X932649D01*
Y-588309D01*
Y-588763D01*
Y-589216D01*
Y-589670D01*
Y-590123D01*
Y-590577D01*
Y-591030D01*
Y-591484D01*
Y-591937D01*
Y-592391D01*
Y-592845D01*
Y-593298D01*
Y-593752D01*
Y-594205D01*
Y-594659D01*
Y-595112D01*
Y-595566D01*
Y-596019D01*
Y-596473D01*
Y-596926D01*
Y-597380D01*
Y-597834D01*
Y-598287D01*
Y-598741D01*
Y-599194D01*
Y-599648D01*
Y-600101D01*
Y-600555D01*
Y-601008D01*
Y-601462D01*
Y-601916D01*
Y-602369D01*
Y-602823D01*
Y-603276D01*
Y-603730D01*
Y-604183D01*
Y-604637D01*
Y-605090D01*
Y-605544D01*
Y-605998D01*
Y-606451D01*
Y-606905D01*
Y-607358D01*
Y-607812D01*
Y-608265D01*
Y-608719D01*
Y-609173D01*
Y-609626D01*
Y-610080D01*
Y-610533D01*
Y-610987D01*
Y-611440D01*
Y-611894D01*
Y-612347D01*
Y-612801D01*
Y-613255D01*
Y-613708D01*
Y-614162D01*
Y-614615D01*
Y-615069D01*
Y-615522D01*
Y-615976D01*
Y-616429D01*
Y-616883D01*
Y-617337D01*
Y-617790D01*
Y-618244D01*
Y-618697D01*
Y-619151D01*
Y-619604D01*
Y-620058D01*
Y-620511D01*
Y-620965D01*
X933102D01*
Y-621418D01*
Y-621872D01*
Y-622326D01*
Y-622779D01*
X933556D01*
Y-623233D01*
Y-623686D01*
Y-624140D01*
X934009D01*
Y-624593D01*
Y-625047D01*
Y-625501D01*
X934463D01*
Y-625954D01*
Y-626408D01*
X934917D01*
Y-626861D01*
X935370D01*
Y-627315D01*
Y-627768D01*
X935824D01*
Y-628222D01*
X936277D01*
Y-628675D01*
X936731D01*
Y-629129D01*
X937184D01*
Y-629583D01*
X937638D01*
Y-630036D01*
X938092D01*
Y-630490D01*
X938999D01*
Y-630943D01*
X939452D01*
Y-631397D01*
X940359D01*
Y-631850D01*
X941266D01*
Y-632304D01*
X942173D01*
Y-632757D01*
X943534D01*
Y-633211D01*
X945348D01*
Y-633665D01*
X954419D01*
Y-633211D01*
X956234D01*
Y-632757D01*
X957141D01*
Y-632304D01*
X958502D01*
Y-631850D01*
X958955D01*
Y-631397D01*
X959862D01*
Y-630943D01*
X960316D01*
Y-630490D01*
X960769D01*
Y-630036D01*
X961676D01*
Y-629583D01*
X962130D01*
Y-629129D01*
X962583D01*
Y-628675D01*
Y-628222D01*
X963037D01*
Y-628675D01*
Y-629129D01*
Y-629583D01*
Y-630036D01*
Y-630490D01*
Y-630943D01*
Y-631397D01*
Y-631850D01*
Y-632304D01*
Y-632757D01*
X968026D01*
Y-633211D01*
X967573D01*
Y-633665D01*
X967119D01*
Y-634118D01*
X966665D01*
Y-634572D01*
X966212D01*
Y-635025D01*
X965758D01*
Y-635479D01*
X965305D01*
Y-635932D01*
X964851D01*
Y-636386D01*
X964398D01*
Y-636839D01*
X963491D01*
Y-637293D01*
X963037D01*
Y-637747D01*
X962583D01*
Y-638200D01*
X962130D01*
Y-638654D01*
X961223D01*
Y-639107D01*
X960769D01*
Y-639561D01*
X960316D01*
Y-640014D01*
X959409D01*
Y-640468D01*
X958955D01*
Y-640921D01*
X958048D01*
Y-641375D01*
X957594D01*
Y-641829D01*
X956687D01*
Y-642282D01*
X956234D01*
Y-642736D01*
X955327D01*
Y-643189D01*
X954419D01*
Y-643643D01*
X953512D01*
Y-644096D01*
X953059D01*
Y-644550D01*
X952152D01*
Y-645004D01*
X950791D01*
Y-645457D01*
X949884D01*
Y-645911D01*
X948977D01*
Y-646364D01*
X947616D01*
Y-646818D01*
X946709D01*
Y-647271D01*
X945348D01*
Y-647725D01*
X943534D01*
Y-648178D01*
X942173D01*
Y-648632D01*
X940359D01*
Y-649085D01*
X937638D01*
Y-649539D01*
X934463D01*
Y-649993D01*
X922671D01*
Y-649539D01*
X919496D01*
Y-649085D01*
X917228D01*
Y-648632D01*
X915414D01*
Y-648178D01*
X913599D01*
Y-647725D01*
X912239D01*
Y-647271D01*
X910878D01*
Y-646818D01*
X909518D01*
Y-646364D01*
X908610D01*
Y-645911D01*
X907250D01*
Y-645457D01*
X906343D01*
Y-645004D01*
X905435D01*
Y-644550D01*
X904528D01*
Y-644096D01*
X903621D01*
Y-643643D01*
X902714D01*
Y-643189D01*
X901807D01*
Y-642736D01*
X901354D01*
Y-642282D01*
X900446D01*
Y-641829D01*
X899539D01*
Y-641375D01*
X899086D01*
Y-640921D01*
X898179D01*
Y-640468D01*
X897725D01*
Y-640014D01*
X897271D01*
Y-639561D01*
X896364D01*
Y-639107D01*
X895911D01*
Y-638654D01*
X895457D01*
Y-638200D01*
X894550D01*
Y-637747D01*
X894097D01*
Y-637293D01*
X893643D01*
Y-636839D01*
X893189D01*
Y-636386D01*
X892736D01*
Y-635932D01*
X892282D01*
Y-635479D01*
X891829D01*
Y-635025D01*
X891375D01*
Y-634572D01*
X890922D01*
Y-634118D01*
X890468D01*
Y-633665D01*
X890015D01*
Y-633211D01*
X889561D01*
Y-632757D01*
X889108D01*
Y-632304D01*
X888654D01*
Y-631850D01*
X888200D01*
Y-631397D01*
X887747D01*
Y-630943D01*
X887293D01*
Y-630490D01*
Y-630036D01*
X886840D01*
Y-629583D01*
X886386D01*
Y-629129D01*
X885933D01*
Y-628675D01*
X885479D01*
Y-628222D01*
Y-627768D01*
X885025D01*
Y-627315D01*
X884572D01*
Y-626861D01*
Y-626408D01*
X884118D01*
Y-625954D01*
X883665D01*
Y-625501D01*
Y-625047D01*
X883211D01*
Y-624593D01*
X882758D01*
Y-624140D01*
Y-623686D01*
X882304D01*
Y-623233D01*
Y-622779D01*
X881851D01*
Y-622326D01*
Y-621872D01*
X881397D01*
Y-621418D01*
Y-620965D01*
X880944D01*
Y-620511D01*
Y-620058D01*
X880490D01*
Y-619604D01*
Y-619151D01*
X880036D01*
Y-618697D01*
Y-618244D01*
X879583D01*
Y-617790D01*
Y-617337D01*
X879129D01*
Y-616883D01*
Y-616429D01*
Y-615976D01*
X878676D01*
Y-615522D01*
Y-615069D01*
Y-614615D01*
X878222D01*
Y-614162D01*
Y-613708D01*
X877769D01*
Y-613255D01*
Y-612801D01*
Y-612347D01*
Y-611894D01*
X877315D01*
Y-611440D01*
Y-610987D01*
Y-610533D01*
X876861D01*
Y-610080D01*
Y-609626D01*
Y-609173D01*
Y-608719D01*
X876408D01*
Y-608265D01*
Y-607812D01*
Y-607358D01*
Y-606905D01*
Y-606451D01*
X875954D01*
Y-605998D01*
Y-605544D01*
Y-605090D01*
Y-604637D01*
Y-604183D01*
Y-603730D01*
Y-603276D01*
X875501D01*
Y-602823D01*
Y-602369D01*
Y-601916D01*
Y-601462D01*
Y-601008D01*
Y-600555D01*
Y-600101D01*
Y-599648D01*
Y-599194D01*
Y-598741D01*
X875047D01*
Y-598287D01*
Y-597834D01*
Y-597380D01*
Y-596926D01*
Y-596473D01*
Y-596019D01*
Y-595566D01*
Y-595112D01*
Y-594659D01*
X875501D01*
Y-594205D01*
Y-593752D01*
Y-593298D01*
Y-592845D01*
Y-592391D01*
Y-591937D01*
Y-591484D01*
Y-591030D01*
Y-590577D01*
X875954D01*
Y-590123D01*
Y-589670D01*
Y-589216D01*
Y-588763D01*
Y-588309D01*
Y-587855D01*
Y-587402D01*
X876408D01*
Y-586948D01*
Y-586495D01*
Y-586041D01*
Y-585588D01*
Y-585134D01*
X876861D01*
Y-584680D01*
Y-584227D01*
Y-583773D01*
Y-583320D01*
X877315D01*
Y-582866D01*
Y-582413D01*
Y-581959D01*
Y-581506D01*
X877769D01*
Y-581052D01*
Y-580598D01*
Y-580145D01*
X878222D01*
Y-579691D01*
Y-579238D01*
Y-578784D01*
X878676D01*
Y-578331D01*
Y-577877D01*
X879129D01*
Y-577424D01*
Y-576970D01*
Y-576516D01*
X879583D01*
Y-576063D01*
Y-575609D01*
X880036D01*
Y-575156D01*
Y-574702D01*
Y-574249D01*
X880490D01*
Y-573795D01*
Y-573342D01*
X880944D01*
Y-572888D01*
Y-572435D01*
X881397D01*
Y-571981D01*
Y-571527D01*
X881851D01*
Y-571074D01*
X882304D01*
Y-570620D01*
Y-570167D01*
X882758D01*
Y-569713D01*
Y-569260D01*
X883211D01*
Y-568806D01*
X883665D01*
Y-568353D01*
Y-567899D01*
X884118D01*
Y-567445D01*
X884572D01*
Y-566992D01*
Y-566538D01*
X885025D01*
Y-566085D01*
X885479D01*
Y-565631D01*
Y-565178D01*
X885933D01*
Y-564724D01*
X886386D01*
Y-564271D01*
X886840D01*
Y-563817D01*
Y-563363D01*
X887293D01*
Y-562910D01*
X887747D01*
Y-562456D01*
X888200D01*
Y-562003D01*
X888654D01*
Y-561549D01*
X889108D01*
Y-561096D01*
X889561D01*
Y-560642D01*
X890015D01*
Y-560188D01*
Y-559735D01*
X890468D01*
Y-559281D01*
X890922D01*
Y-558828D01*
X891375D01*
Y-558374D01*
X892282D01*
Y-557921D01*
X892736D01*
Y-557467D01*
X893189D01*
Y-557014D01*
X893643D01*
Y-556560D01*
X894097D01*
Y-556106D01*
X894550D01*
Y-555653D01*
X895004D01*
Y-555199D01*
X895911D01*
Y-554746D01*
X896364D01*
Y-554292D01*
X896818D01*
Y-553839D01*
X897725D01*
Y-553385D01*
X898179D01*
Y-552932D01*
X899086D01*
Y-552478D01*
X899539D01*
Y-552024D01*
X900446D01*
Y-551571D01*
X900900D01*
Y-551117D01*
X901807D01*
Y-550664D01*
X902714D01*
Y-550210D01*
X903168D01*
Y-549757D01*
X904528D01*
Y-549303D01*
X905435D01*
Y-548850D01*
X906343D01*
Y-548396D01*
X907250D01*
Y-547943D01*
X908157D01*
Y-547489D01*
X909518D01*
Y-547035D01*
X910425D01*
Y-546582D01*
X911785D01*
Y-546128D01*
X913146D01*
Y-545675D01*
X914960D01*
Y-545221D01*
X916774D01*
Y-544768D01*
X919042D01*
Y-544314D01*
X922217D01*
Y-543861D01*
X926753D01*
Y-543407D01*
X930835D01*
Y-543861D01*
D02*
G37*
G36*
X1001136Y-571074D02*
Y-571527D01*
Y-571981D01*
Y-572435D01*
Y-572888D01*
Y-573342D01*
Y-573795D01*
Y-574249D01*
Y-574702D01*
Y-575156D01*
Y-575609D01*
Y-576063D01*
Y-576516D01*
Y-576970D01*
Y-577424D01*
Y-577877D01*
Y-578331D01*
Y-578784D01*
Y-579238D01*
Y-579691D01*
Y-580145D01*
Y-580598D01*
Y-581052D01*
Y-581506D01*
Y-581959D01*
Y-582413D01*
Y-582866D01*
Y-583320D01*
Y-583773D01*
Y-584227D01*
Y-584680D01*
Y-585134D01*
Y-585588D01*
Y-586041D01*
Y-586495D01*
Y-586948D01*
Y-587402D01*
Y-587855D01*
Y-588309D01*
Y-588763D01*
Y-589216D01*
Y-589670D01*
Y-590123D01*
Y-590577D01*
Y-591030D01*
Y-591484D01*
Y-591937D01*
Y-592391D01*
Y-592845D01*
Y-593298D01*
X1002043D01*
Y-592845D01*
X1002496D01*
Y-592391D01*
X1002950D01*
Y-591937D01*
X1003404D01*
Y-591484D01*
X1003857D01*
Y-591030D01*
X1004311D01*
Y-590577D01*
X1004764D01*
Y-590123D01*
X1005671D01*
Y-589670D01*
X1006125D01*
Y-589216D01*
X1007032D01*
Y-588763D01*
X1007939D01*
Y-588309D01*
X1009300D01*
Y-587855D01*
X1011114D01*
Y-587402D01*
X1019732D01*
Y-587855D01*
X1021546D01*
Y-588309D01*
X1022906D01*
Y-588763D01*
X1024267D01*
Y-589216D01*
X1025174D01*
Y-589670D01*
X1025628D01*
Y-590123D01*
X1026535D01*
Y-590577D01*
X1026989D01*
Y-591030D01*
X1027896D01*
Y-591484D01*
X1028349D01*
Y-591937D01*
X1028803D01*
Y-592391D01*
X1029256D01*
Y-592845D01*
X1029710D01*
Y-593298D01*
X1030163D01*
Y-593752D01*
Y-594205D01*
X1030617D01*
Y-594659D01*
X1031070D01*
Y-595112D01*
X1031524D01*
Y-595566D01*
Y-596019D01*
X1031978D01*
Y-596473D01*
Y-596926D01*
X1032431D01*
Y-597380D01*
Y-597834D01*
X1032885D01*
Y-598287D01*
Y-598741D01*
X1033338D01*
Y-599194D01*
Y-599648D01*
Y-600101D01*
X1033792D01*
Y-600555D01*
Y-601008D01*
Y-601462D01*
Y-601916D01*
X1034245D01*
Y-602369D01*
Y-602823D01*
Y-603276D01*
Y-603730D01*
Y-604183D01*
X1034699D01*
Y-604637D01*
Y-605090D01*
Y-605544D01*
Y-605998D01*
Y-606451D01*
Y-606905D01*
Y-607358D01*
Y-607812D01*
Y-608265D01*
X1035153D01*
Y-608719D01*
X1034699D01*
Y-609173D01*
Y-609626D01*
Y-610080D01*
Y-610533D01*
Y-610987D01*
Y-611440D01*
Y-611894D01*
Y-612347D01*
Y-612801D01*
Y-613255D01*
Y-613708D01*
Y-614162D01*
Y-614615D01*
Y-615069D01*
Y-615522D01*
Y-615976D01*
Y-616429D01*
X1034245D01*
Y-616883D01*
Y-617337D01*
Y-617790D01*
Y-618244D01*
Y-618697D01*
X1033792D01*
Y-619151D01*
Y-619604D01*
Y-620058D01*
X1033338D01*
Y-620511D01*
Y-620965D01*
Y-621418D01*
X1032885D01*
Y-621872D01*
Y-622326D01*
Y-622779D01*
X1032431D01*
Y-623233D01*
Y-623686D01*
X1031978D01*
Y-624140D01*
Y-624593D01*
X1031524D01*
Y-625047D01*
X1031070D01*
Y-625501D01*
Y-625954D01*
X1030617D01*
Y-626408D01*
X1030163D01*
Y-626861D01*
X1029710D01*
Y-627315D01*
X1029256D01*
Y-627768D01*
Y-628222D01*
X1028349D01*
Y-628675D01*
X1027896D01*
Y-629129D01*
X1027442D01*
Y-629583D01*
X1026989D01*
Y-630036D01*
X1026081D01*
Y-630490D01*
X1025628D01*
Y-630943D01*
X1024721D01*
Y-631397D01*
X1023814D01*
Y-631850D01*
X1022906D01*
Y-632304D01*
X1021546D01*
Y-632757D01*
X1019278D01*
Y-633211D01*
X1011568D01*
Y-632757D01*
X1009300D01*
Y-632304D01*
X1008393D01*
Y-631850D01*
X1007032D01*
Y-631397D01*
X1006579D01*
Y-630943D01*
X1005671D01*
Y-630490D01*
X1005218D01*
Y-630036D01*
X1004311D01*
Y-629583D01*
X1003857D01*
Y-629129D01*
X1003404D01*
Y-628675D01*
X1002950D01*
Y-628222D01*
X1002496D01*
Y-627768D01*
X1002043D01*
Y-627315D01*
X1001589D01*
Y-626861D01*
Y-626408D01*
X1000682D01*
Y-626861D01*
Y-627315D01*
Y-627768D01*
Y-628222D01*
Y-628675D01*
Y-629129D01*
Y-629583D01*
Y-630036D01*
Y-630490D01*
Y-630943D01*
Y-631397D01*
Y-631850D01*
Y-632304D01*
X989343D01*
Y-631850D01*
Y-631397D01*
Y-630943D01*
Y-630490D01*
Y-630036D01*
Y-629583D01*
Y-629129D01*
Y-628675D01*
Y-628222D01*
Y-627768D01*
Y-627315D01*
Y-626861D01*
Y-626408D01*
Y-625954D01*
Y-625501D01*
Y-625047D01*
Y-624593D01*
Y-624140D01*
Y-623686D01*
Y-623233D01*
Y-622779D01*
Y-622326D01*
Y-621872D01*
Y-621418D01*
Y-620965D01*
Y-620511D01*
Y-620058D01*
Y-619604D01*
Y-619151D01*
Y-618697D01*
Y-618244D01*
Y-617790D01*
Y-617337D01*
Y-616883D01*
Y-616429D01*
Y-615976D01*
Y-615522D01*
Y-615069D01*
Y-614615D01*
Y-614162D01*
Y-613708D01*
Y-613255D01*
Y-612801D01*
Y-612347D01*
Y-611894D01*
Y-611440D01*
Y-610987D01*
Y-610533D01*
Y-610080D01*
Y-609626D01*
Y-609173D01*
Y-608719D01*
Y-608265D01*
Y-607812D01*
Y-607358D01*
Y-606905D01*
Y-606451D01*
Y-605998D01*
Y-605544D01*
Y-605090D01*
Y-604637D01*
Y-604183D01*
Y-603730D01*
Y-603276D01*
Y-602823D01*
Y-602369D01*
Y-601916D01*
Y-601462D01*
Y-601008D01*
Y-600555D01*
Y-600101D01*
Y-599648D01*
Y-599194D01*
Y-598741D01*
Y-598287D01*
Y-597834D01*
Y-597380D01*
Y-596926D01*
Y-596473D01*
Y-596019D01*
Y-595566D01*
Y-595112D01*
Y-594659D01*
Y-594205D01*
Y-593752D01*
Y-593298D01*
Y-592845D01*
Y-592391D01*
Y-591937D01*
Y-591484D01*
Y-591030D01*
Y-590577D01*
Y-590123D01*
Y-589670D01*
Y-589216D01*
Y-588763D01*
Y-588309D01*
Y-587855D01*
Y-587402D01*
Y-586948D01*
Y-586495D01*
Y-586041D01*
Y-585588D01*
Y-585134D01*
Y-584680D01*
Y-584227D01*
Y-583773D01*
Y-583320D01*
Y-582866D01*
Y-582413D01*
Y-581959D01*
Y-581506D01*
Y-581052D01*
Y-580598D01*
Y-580145D01*
Y-579691D01*
Y-579238D01*
Y-578784D01*
Y-578331D01*
Y-577877D01*
Y-577424D01*
Y-576970D01*
Y-576516D01*
Y-576063D01*
Y-575609D01*
Y-575156D01*
Y-574702D01*
Y-574249D01*
Y-573795D01*
Y-573342D01*
Y-572888D01*
Y-572435D01*
Y-571981D01*
Y-571527D01*
Y-571074D01*
Y-570620D01*
X1001136D01*
Y-571074D01*
D02*
G37*
G36*
X1054655D02*
Y-571527D01*
Y-571981D01*
Y-572435D01*
Y-572888D01*
Y-573342D01*
Y-573795D01*
Y-574249D01*
Y-574702D01*
Y-575156D01*
Y-575609D01*
Y-576063D01*
Y-576516D01*
Y-576970D01*
Y-577424D01*
Y-577877D01*
Y-578331D01*
Y-578784D01*
Y-579238D01*
Y-579691D01*
Y-580145D01*
Y-580598D01*
Y-581052D01*
Y-581506D01*
Y-581959D01*
Y-582413D01*
Y-582866D01*
Y-583320D01*
Y-583773D01*
Y-584227D01*
Y-584680D01*
Y-585134D01*
Y-585588D01*
Y-586041D01*
Y-586495D01*
Y-586948D01*
Y-587402D01*
Y-587855D01*
Y-588309D01*
Y-588763D01*
Y-589216D01*
Y-589670D01*
Y-590123D01*
Y-590577D01*
Y-591030D01*
Y-591484D01*
Y-591937D01*
Y-592391D01*
Y-592845D01*
Y-593298D01*
Y-593752D01*
Y-594205D01*
Y-594659D01*
Y-595112D01*
Y-595566D01*
Y-596019D01*
Y-596473D01*
Y-596926D01*
Y-597380D01*
Y-597834D01*
Y-598287D01*
Y-598741D01*
Y-599194D01*
Y-599648D01*
Y-600101D01*
Y-600555D01*
Y-601008D01*
Y-601462D01*
Y-601916D01*
Y-602369D01*
Y-602823D01*
Y-603276D01*
Y-603730D01*
Y-604183D01*
Y-604637D01*
Y-605090D01*
Y-605544D01*
Y-605998D01*
Y-606451D01*
Y-606905D01*
Y-607358D01*
Y-607812D01*
Y-608265D01*
Y-608719D01*
Y-609173D01*
Y-609626D01*
Y-610080D01*
Y-610533D01*
Y-610987D01*
Y-611440D01*
Y-611894D01*
Y-612347D01*
Y-612801D01*
Y-613255D01*
Y-613708D01*
Y-614162D01*
Y-614615D01*
Y-615069D01*
Y-615522D01*
Y-615976D01*
Y-616429D01*
Y-616883D01*
Y-617337D01*
Y-617790D01*
Y-618244D01*
Y-618697D01*
Y-619151D01*
Y-619604D01*
Y-620058D01*
Y-620511D01*
Y-620965D01*
Y-621418D01*
Y-621872D01*
Y-622326D01*
Y-622779D01*
Y-623233D01*
Y-623686D01*
Y-624140D01*
Y-624593D01*
Y-625047D01*
Y-625501D01*
Y-625954D01*
Y-626408D01*
Y-626861D01*
Y-627315D01*
Y-627768D01*
Y-628222D01*
Y-628675D01*
Y-629129D01*
Y-629583D01*
Y-630036D01*
Y-630490D01*
Y-630943D01*
Y-631397D01*
Y-631850D01*
Y-632304D01*
X1043316D01*
Y-631850D01*
Y-631397D01*
Y-630943D01*
Y-630490D01*
Y-630036D01*
Y-629583D01*
Y-629129D01*
Y-628675D01*
Y-628222D01*
Y-627768D01*
Y-627315D01*
Y-626861D01*
Y-626408D01*
Y-625954D01*
Y-625501D01*
Y-625047D01*
Y-624593D01*
Y-624140D01*
Y-623686D01*
Y-623233D01*
Y-622779D01*
Y-622326D01*
Y-621872D01*
Y-621418D01*
Y-620965D01*
Y-620511D01*
Y-620058D01*
Y-619604D01*
Y-619151D01*
Y-618697D01*
Y-618244D01*
Y-617790D01*
Y-617337D01*
Y-616883D01*
Y-616429D01*
Y-615976D01*
Y-615522D01*
Y-615069D01*
Y-614615D01*
Y-614162D01*
Y-613708D01*
Y-613255D01*
Y-612801D01*
Y-612347D01*
Y-611894D01*
Y-611440D01*
Y-610987D01*
Y-610533D01*
Y-610080D01*
Y-609626D01*
Y-609173D01*
Y-608719D01*
Y-608265D01*
Y-607812D01*
Y-607358D01*
Y-606905D01*
Y-606451D01*
Y-605998D01*
Y-605544D01*
Y-605090D01*
Y-604637D01*
Y-604183D01*
Y-603730D01*
Y-603276D01*
Y-602823D01*
Y-602369D01*
Y-601916D01*
Y-601462D01*
Y-601008D01*
Y-600555D01*
Y-600101D01*
Y-599648D01*
Y-599194D01*
Y-598741D01*
Y-598287D01*
Y-597834D01*
Y-597380D01*
Y-596926D01*
Y-596473D01*
Y-596019D01*
Y-595566D01*
Y-595112D01*
Y-594659D01*
Y-594205D01*
Y-593752D01*
Y-593298D01*
Y-592845D01*
Y-592391D01*
Y-591937D01*
Y-591484D01*
Y-591030D01*
Y-590577D01*
Y-590123D01*
Y-589670D01*
Y-589216D01*
Y-588763D01*
Y-588309D01*
Y-587855D01*
Y-587402D01*
Y-586948D01*
Y-586495D01*
Y-586041D01*
Y-585588D01*
Y-585134D01*
Y-584680D01*
Y-584227D01*
Y-583773D01*
Y-583320D01*
Y-582866D01*
Y-582413D01*
Y-581959D01*
Y-581506D01*
Y-581052D01*
Y-580598D01*
Y-580145D01*
Y-579691D01*
Y-579238D01*
Y-578784D01*
Y-578331D01*
Y-577877D01*
Y-577424D01*
Y-576970D01*
Y-576516D01*
Y-576063D01*
Y-575609D01*
Y-575156D01*
Y-574702D01*
Y-574249D01*
Y-573795D01*
Y-573342D01*
Y-572888D01*
Y-572435D01*
Y-571981D01*
Y-571527D01*
Y-571074D01*
Y-570620D01*
X1054655D01*
Y-571074D01*
D02*
G37*
G36*
X1090940Y-587855D02*
X1093208D01*
Y-588309D01*
X1094568D01*
Y-588763D01*
X1095929D01*
Y-589216D01*
X1096836D01*
Y-589670D01*
X1097743D01*
Y-590123D01*
X1098650D01*
Y-590577D01*
X1099557D01*
Y-591030D01*
X1100011D01*
Y-591484D01*
X1100918D01*
Y-591937D01*
X1101372D01*
Y-592391D01*
X1101825D01*
Y-592845D01*
X1102279D01*
Y-593298D01*
X1102732D01*
Y-593752D01*
X1103186D01*
Y-594205D01*
X1103639D01*
Y-594659D01*
X1104093D01*
Y-595112D01*
X1104547D01*
Y-595566D01*
Y-596019D01*
X1105000D01*
Y-596473D01*
X1105454D01*
Y-596926D01*
Y-597380D01*
X1105907D01*
Y-597834D01*
Y-598287D01*
X1106361D01*
Y-598741D01*
Y-599194D01*
X1106814D01*
Y-599648D01*
Y-600101D01*
X1107268D01*
Y-600555D01*
Y-601008D01*
Y-601462D01*
X1107721D01*
Y-601916D01*
Y-602369D01*
Y-602823D01*
Y-603276D01*
Y-603730D01*
X1108175D01*
Y-604183D01*
Y-604637D01*
Y-605090D01*
Y-605544D01*
Y-605998D01*
Y-606451D01*
Y-606905D01*
X1108628D01*
Y-607358D01*
Y-607812D01*
Y-608265D01*
Y-608719D01*
Y-609173D01*
Y-609626D01*
Y-610080D01*
Y-610533D01*
Y-610987D01*
Y-611440D01*
Y-611894D01*
Y-612347D01*
Y-612801D01*
Y-613255D01*
Y-613708D01*
X1108175D01*
Y-614162D01*
Y-614615D01*
Y-615069D01*
Y-615522D01*
Y-615976D01*
Y-616429D01*
Y-616883D01*
X1107721D01*
Y-617337D01*
Y-617790D01*
Y-618244D01*
Y-618697D01*
X1107268D01*
Y-619151D01*
Y-619604D01*
Y-620058D01*
X1106814D01*
Y-620511D01*
Y-620965D01*
Y-621418D01*
X1106361D01*
Y-621872D01*
Y-622326D01*
X1105907D01*
Y-622779D01*
Y-623233D01*
X1105454D01*
Y-623686D01*
Y-624140D01*
X1105000D01*
Y-624593D01*
X1104547D01*
Y-625047D01*
X1104093D01*
Y-625501D01*
Y-625954D01*
X1103639D01*
Y-626408D01*
X1103186D01*
Y-626861D01*
X1102732D01*
Y-627315D01*
X1102279D01*
Y-627768D01*
X1101825D01*
Y-628222D01*
X1101372D01*
Y-628675D01*
X1100465D01*
Y-629129D01*
X1100011D01*
Y-629583D01*
X1099104D01*
Y-630036D01*
X1098650D01*
Y-630490D01*
X1097743D01*
Y-630943D01*
X1096836D01*
Y-631397D01*
X1095475D01*
Y-631850D01*
X1094115D01*
Y-632304D01*
X1092754D01*
Y-632757D01*
X1090486D01*
Y-633211D01*
X1080962D01*
Y-632757D01*
X1078240D01*
Y-632304D01*
X1076426D01*
Y-631850D01*
X1075519D01*
Y-631397D01*
X1074158D01*
Y-630943D01*
X1073251D01*
Y-630490D01*
X1072344D01*
Y-630036D01*
X1071890D01*
Y-629583D01*
X1070983D01*
Y-629129D01*
X1070530D01*
Y-628675D01*
X1069623D01*
Y-628222D01*
X1069169D01*
Y-627768D01*
X1068716D01*
Y-627315D01*
X1068262D01*
Y-626861D01*
X1067809D01*
Y-626408D01*
X1067355D01*
Y-625954D01*
X1066901D01*
Y-625501D01*
Y-625047D01*
X1066448D01*
Y-624593D01*
X1065994D01*
Y-624140D01*
X1065541D01*
Y-623686D01*
Y-623233D01*
X1065087D01*
Y-622779D01*
Y-622326D01*
X1064634D01*
Y-621872D01*
Y-621418D01*
X1064180D01*
Y-620965D01*
Y-620511D01*
Y-620058D01*
X1063727D01*
Y-619604D01*
Y-619151D01*
Y-618697D01*
X1063273D01*
Y-618244D01*
Y-617790D01*
Y-617337D01*
Y-616883D01*
X1062819D01*
Y-616429D01*
Y-615976D01*
Y-615522D01*
Y-615069D01*
Y-614615D01*
Y-614162D01*
Y-613708D01*
Y-613255D01*
X1062366D01*
Y-612801D01*
Y-612347D01*
Y-611894D01*
Y-611440D01*
Y-610987D01*
Y-610533D01*
Y-610080D01*
Y-609626D01*
Y-609173D01*
Y-608719D01*
Y-608265D01*
Y-607812D01*
Y-607358D01*
X1062819D01*
Y-606905D01*
Y-606451D01*
Y-605998D01*
Y-605544D01*
Y-605090D01*
Y-604637D01*
Y-604183D01*
Y-603730D01*
X1063273D01*
Y-603276D01*
Y-602823D01*
Y-602369D01*
Y-601916D01*
X1063727D01*
Y-601462D01*
Y-601008D01*
Y-600555D01*
X1064180D01*
Y-600101D01*
Y-599648D01*
Y-599194D01*
X1064634D01*
Y-598741D01*
Y-598287D01*
X1065087D01*
Y-597834D01*
Y-597380D01*
X1065541D01*
Y-596926D01*
Y-596473D01*
X1065994D01*
Y-596019D01*
X1066448D01*
Y-595566D01*
Y-595112D01*
X1066901D01*
Y-594659D01*
X1067355D01*
Y-594205D01*
X1067809D01*
Y-593752D01*
X1068262D01*
Y-593298D01*
X1068716D01*
Y-592845D01*
X1069169D01*
Y-592391D01*
X1069623D01*
Y-591937D01*
X1070076D01*
Y-591484D01*
X1070983D01*
Y-591030D01*
X1071437D01*
Y-590577D01*
X1072344D01*
Y-590123D01*
X1073251D01*
Y-589670D01*
X1074158D01*
Y-589216D01*
X1075065D01*
Y-588763D01*
X1076426D01*
Y-588309D01*
X1077787D01*
Y-587855D01*
X1080054D01*
Y-587402D01*
X1090940D01*
Y-587855D01*
D02*
G37*
G36*
X1156705Y-588763D02*
X1156252D01*
Y-589216D01*
Y-589670D01*
X1155798D01*
Y-590123D01*
X1155345D01*
Y-590577D01*
X1154891D01*
Y-591030D01*
Y-591484D01*
X1154438D01*
Y-591937D01*
X1153984D01*
Y-592391D01*
Y-592845D01*
X1153531D01*
Y-593298D01*
X1153077D01*
Y-593752D01*
X1152624D01*
Y-594205D01*
Y-594659D01*
X1152170D01*
Y-595112D01*
X1151716D01*
Y-595566D01*
X1151263D01*
Y-596019D01*
Y-596473D01*
X1150809D01*
Y-596926D01*
X1150356D01*
Y-597380D01*
X1149902D01*
Y-597834D01*
Y-598287D01*
X1149449D01*
Y-598741D01*
X1148995D01*
Y-599194D01*
Y-599648D01*
X1148541D01*
Y-600101D01*
X1148088D01*
Y-600555D01*
X1147634D01*
Y-601008D01*
Y-601462D01*
X1147181D01*
Y-601916D01*
X1146727D01*
Y-602369D01*
X1146274D01*
Y-602823D01*
Y-603276D01*
X1145820D01*
Y-603730D01*
X1145367D01*
Y-604183D01*
Y-604637D01*
X1144913D01*
Y-605090D01*
X1144460D01*
Y-605544D01*
X1144006D01*
Y-605998D01*
Y-606451D01*
X1143552D01*
Y-606905D01*
X1143099D01*
Y-607358D01*
X1142645D01*
Y-607812D01*
Y-608265D01*
X1142192D01*
Y-608719D01*
X1141738D01*
Y-609173D01*
X1141285D01*
Y-609626D01*
Y-610080D01*
Y-610533D01*
X1141738D01*
Y-610987D01*
Y-611440D01*
X1142192D01*
Y-611894D01*
X1142645D01*
Y-612347D01*
X1143099D01*
Y-612801D01*
Y-613255D01*
X1143552D01*
Y-613708D01*
X1144006D01*
Y-614162D01*
X1144460D01*
Y-614615D01*
Y-615069D01*
X1144913D01*
Y-615522D01*
X1145367D01*
Y-615976D01*
Y-616429D01*
X1145820D01*
Y-616883D01*
X1146274D01*
Y-617337D01*
X1146727D01*
Y-617790D01*
Y-618244D01*
X1147181D01*
Y-618697D01*
X1147634D01*
Y-619151D01*
X1148088D01*
Y-619604D01*
Y-620058D01*
X1148541D01*
Y-620511D01*
X1148995D01*
Y-620965D01*
X1149449D01*
Y-621418D01*
Y-621872D01*
X1149902D01*
Y-622326D01*
X1150356D01*
Y-622779D01*
X1150809D01*
Y-623233D01*
Y-623686D01*
X1151263D01*
Y-624140D01*
X1151716D01*
Y-624593D01*
X1152170D01*
Y-625047D01*
Y-625501D01*
X1152624D01*
Y-625954D01*
X1153077D01*
Y-626408D01*
X1153531D01*
Y-626861D01*
Y-627315D01*
X1153984D01*
Y-627768D01*
X1154438D01*
Y-628222D01*
Y-628675D01*
X1154891D01*
Y-629129D01*
X1155345D01*
Y-629583D01*
X1155798D01*
Y-630036D01*
Y-630490D01*
X1156252D01*
Y-630943D01*
X1156705D01*
Y-631397D01*
X1157159D01*
Y-631850D01*
X1157613D01*
Y-632304D01*
X1143099D01*
Y-631850D01*
Y-631397D01*
X1142645D01*
Y-630943D01*
X1142192D01*
Y-630490D01*
X1141738D01*
Y-630036D01*
Y-629583D01*
X1141285D01*
Y-629129D01*
X1140831D01*
Y-628675D01*
X1140378D01*
Y-628222D01*
Y-627768D01*
X1139924D01*
Y-627315D01*
X1139470D01*
Y-626861D01*
Y-626408D01*
X1139017D01*
Y-625954D01*
X1138563D01*
Y-625501D01*
X1138110D01*
Y-625047D01*
Y-624593D01*
X1137656D01*
Y-624140D01*
X1137203D01*
Y-623686D01*
X1136749D01*
Y-623233D01*
Y-622779D01*
X1136295D01*
Y-622326D01*
X1135842D01*
Y-621872D01*
Y-621418D01*
X1135388D01*
Y-620965D01*
X1134935D01*
Y-620511D01*
X1134481D01*
Y-620058D01*
Y-619604D01*
X1134028D01*
Y-619151D01*
X1133574D01*
Y-618697D01*
X1133121D01*
Y-618244D01*
X1132667D01*
Y-618697D01*
Y-619151D01*
X1132214D01*
Y-619604D01*
X1131760D01*
Y-620058D01*
X1131306D01*
Y-620511D01*
Y-620965D01*
X1130853D01*
Y-621418D01*
X1130399D01*
Y-621872D01*
Y-622326D01*
X1129946D01*
Y-622779D01*
X1129492D01*
Y-623233D01*
X1129039D01*
Y-623686D01*
Y-624140D01*
X1128585D01*
Y-624593D01*
X1128131D01*
Y-625047D01*
Y-625501D01*
X1127678D01*
Y-625954D01*
X1127224D01*
Y-626408D01*
X1126771D01*
Y-626861D01*
Y-627315D01*
X1126317D01*
Y-627768D01*
X1125864D01*
Y-628222D01*
Y-628675D01*
X1125410D01*
Y-629129D01*
X1124957D01*
Y-629583D01*
X1124503D01*
Y-630036D01*
Y-630490D01*
X1124049D01*
Y-630943D01*
X1123596D01*
Y-631397D01*
Y-631850D01*
X1123142D01*
Y-632304D01*
X1109989D01*
Y-631850D01*
X1110443D01*
Y-631397D01*
X1110896D01*
Y-630943D01*
Y-630490D01*
X1111350D01*
Y-630036D01*
X1111803D01*
Y-629583D01*
X1112257D01*
Y-629129D01*
Y-628675D01*
X1112711D01*
Y-628222D01*
X1113164D01*
Y-627768D01*
Y-627315D01*
X1113618D01*
Y-626861D01*
X1114071D01*
Y-626408D01*
X1114525D01*
Y-625954D01*
X1114978D01*
Y-625501D01*
Y-625047D01*
X1115432D01*
Y-624593D01*
X1115885D01*
Y-624140D01*
Y-623686D01*
X1116339D01*
Y-623233D01*
X1116793D01*
Y-622779D01*
X1117246D01*
Y-622326D01*
Y-621872D01*
X1117700D01*
Y-621418D01*
X1118153D01*
Y-620965D01*
X1118607D01*
Y-620511D01*
Y-620058D01*
X1119060D01*
Y-619604D01*
X1119514D01*
Y-619151D01*
X1119967D01*
Y-618697D01*
Y-618244D01*
X1120421D01*
Y-617790D01*
X1120875D01*
Y-617337D01*
X1121328D01*
Y-616883D01*
Y-616429D01*
X1121782D01*
Y-615976D01*
X1122235D01*
Y-615522D01*
X1122689D01*
Y-615069D01*
Y-614615D01*
X1123142D01*
Y-614162D01*
X1123596D01*
Y-613708D01*
X1124049D01*
Y-613255D01*
Y-612801D01*
X1124503D01*
Y-612347D01*
X1124957D01*
Y-611894D01*
Y-611440D01*
X1125410D01*
Y-610987D01*
X1125864D01*
Y-610533D01*
X1126317D01*
Y-610080D01*
Y-609626D01*
X1125864D01*
Y-609173D01*
X1125410D01*
Y-608719D01*
X1124957D01*
Y-608265D01*
Y-607812D01*
X1124503D01*
Y-607358D01*
X1124049D01*
Y-606905D01*
X1123596D01*
Y-606451D01*
Y-605998D01*
X1123142D01*
Y-605544D01*
X1122689D01*
Y-605090D01*
Y-604637D01*
X1122235D01*
Y-604183D01*
X1121782D01*
Y-603730D01*
X1121328D01*
Y-603276D01*
Y-602823D01*
X1120875D01*
Y-602369D01*
X1120421D01*
Y-601916D01*
X1119967D01*
Y-601462D01*
Y-601008D01*
X1119514D01*
Y-600555D01*
X1119060D01*
Y-600101D01*
Y-599648D01*
X1118607D01*
Y-599194D01*
X1118153D01*
Y-598741D01*
X1117700D01*
Y-598287D01*
Y-597834D01*
X1117246D01*
Y-597380D01*
X1116793D01*
Y-596926D01*
X1116339D01*
Y-596473D01*
Y-596019D01*
X1115885D01*
Y-595566D01*
X1115432D01*
Y-595112D01*
Y-594659D01*
X1114978D01*
Y-594205D01*
X1114525D01*
Y-593752D01*
X1114071D01*
Y-593298D01*
Y-592845D01*
X1113618D01*
Y-592391D01*
X1113164D01*
Y-591937D01*
X1112711D01*
Y-591484D01*
Y-591030D01*
X1112257D01*
Y-590577D01*
X1111803D01*
Y-590123D01*
Y-589670D01*
X1111350D01*
Y-589216D01*
X1110896D01*
Y-588763D01*
X1110443D01*
Y-588309D01*
X1124503D01*
Y-588763D01*
X1124957D01*
Y-589216D01*
X1125410D01*
Y-589670D01*
Y-590123D01*
X1125864D01*
Y-590577D01*
X1126317D01*
Y-591030D01*
X1126771D01*
Y-591484D01*
Y-591937D01*
X1127224D01*
Y-592391D01*
X1127678D01*
Y-592845D01*
Y-593298D01*
X1128131D01*
Y-593752D01*
X1128585D01*
Y-594205D01*
Y-594659D01*
X1129039D01*
Y-595112D01*
X1129492D01*
Y-595566D01*
X1129946D01*
Y-596019D01*
Y-596473D01*
X1130399D01*
Y-596926D01*
X1130853D01*
Y-597380D01*
Y-597834D01*
X1131306D01*
Y-598287D01*
X1131760D01*
Y-598741D01*
X1132214D01*
Y-599194D01*
Y-599648D01*
X1132667D01*
Y-600101D01*
X1133121D01*
Y-600555D01*
Y-601008D01*
X1133574D01*
Y-601462D01*
X1134028D01*
Y-601916D01*
X1134481D01*
Y-601462D01*
X1134935D01*
Y-601008D01*
Y-600555D01*
X1135388D01*
Y-600101D01*
X1135842D01*
Y-599648D01*
X1136295D01*
Y-599194D01*
Y-598741D01*
X1136749D01*
Y-598287D01*
X1137203D01*
Y-597834D01*
Y-597380D01*
X1137656D01*
Y-596926D01*
X1138110D01*
Y-596473D01*
X1138563D01*
Y-596019D01*
Y-595566D01*
X1139017D01*
Y-595112D01*
X1139470D01*
Y-594659D01*
Y-594205D01*
X1139924D01*
Y-593752D01*
X1140378D01*
Y-593298D01*
X1140831D01*
Y-592845D01*
Y-592391D01*
X1141285D01*
Y-591937D01*
X1141738D01*
Y-591484D01*
Y-591030D01*
X1142192D01*
Y-590577D01*
X1142645D01*
Y-590123D01*
X1143099D01*
Y-589670D01*
Y-589216D01*
X1143552D01*
Y-588763D01*
X1144006D01*
Y-588309D01*
X1156705D01*
Y-588763D01*
D02*
G37*
%LPC*%
G36*
X919042Y-567445D02*
X916774D01*
Y-567899D01*
X914960D01*
Y-568353D01*
X914053D01*
Y-568806D01*
X913146D01*
Y-569260D01*
X912239D01*
Y-569713D01*
X911785D01*
Y-570167D01*
X911332D01*
Y-570620D01*
X910878D01*
Y-571074D01*
X910425D01*
Y-571527D01*
Y-571981D01*
X909971D01*
Y-572435D01*
X909518D01*
Y-572888D01*
Y-573342D01*
X909064D01*
Y-573795D01*
Y-574249D01*
Y-574702D01*
Y-575156D01*
X908610D01*
Y-575609D01*
Y-576063D01*
Y-576516D01*
Y-576970D01*
Y-577424D01*
Y-577877D01*
Y-578331D01*
Y-578784D01*
X909064D01*
Y-579238D01*
Y-579691D01*
Y-580145D01*
X909518D01*
Y-580598D01*
Y-581052D01*
X909971D01*
Y-581506D01*
Y-581959D01*
X910425D01*
Y-582413D01*
X910878D01*
Y-582866D01*
X911332D01*
Y-583320D01*
X911785D01*
Y-583773D01*
X912239D01*
Y-584227D01*
X912692D01*
Y-584680D01*
X913599D01*
Y-585134D01*
X914507D01*
Y-585588D01*
X915867D01*
Y-586041D01*
X919949D01*
Y-585588D01*
X921310D01*
Y-585134D01*
X922217D01*
Y-584680D01*
X923124D01*
Y-584227D01*
X923578D01*
Y-583773D01*
X924031D01*
Y-583320D01*
X924938D01*
Y-582866D01*
Y-582413D01*
X925392D01*
Y-581959D01*
X925845D01*
Y-581506D01*
Y-581052D01*
X926299D01*
Y-580598D01*
Y-580145D01*
X926753D01*
Y-579691D01*
Y-579238D01*
Y-578784D01*
X927206D01*
Y-578331D01*
Y-577877D01*
Y-577424D01*
Y-576970D01*
Y-576516D01*
Y-576063D01*
Y-575609D01*
Y-575156D01*
X926753D01*
Y-574702D01*
Y-574249D01*
Y-573795D01*
Y-573342D01*
X926299D01*
Y-572888D01*
Y-572435D01*
X925845D01*
Y-571981D01*
Y-571527D01*
X925392D01*
Y-571074D01*
X924938D01*
Y-570620D01*
X924485D01*
Y-570167D01*
X924031D01*
Y-569713D01*
X923578D01*
Y-569260D01*
X922671D01*
Y-568806D01*
X922217D01*
Y-568353D01*
X920856D01*
Y-567899D01*
X919042D01*
Y-567445D01*
D02*
G37*
G36*
X1013835Y-597380D02*
X1009753D01*
Y-597834D01*
X1007939D01*
Y-598287D01*
X1006579D01*
Y-598741D01*
X1005671D01*
Y-599194D01*
X1005218D01*
Y-599648D01*
X1004311D01*
Y-600101D01*
X1003857D01*
Y-600555D01*
X1003404D01*
Y-601008D01*
Y-601462D01*
X1002950D01*
Y-601916D01*
X1002496D01*
Y-602369D01*
Y-602823D01*
X1002043D01*
Y-603276D01*
Y-603730D01*
X1001589D01*
Y-604183D01*
Y-604637D01*
Y-605090D01*
X1001136D01*
Y-605544D01*
Y-605998D01*
Y-606451D01*
Y-606905D01*
Y-607358D01*
X1000682D01*
Y-607812D01*
Y-608265D01*
Y-608719D01*
Y-609173D01*
Y-609626D01*
Y-610080D01*
Y-610533D01*
Y-610987D01*
Y-611440D01*
Y-611894D01*
Y-612347D01*
Y-612801D01*
Y-613255D01*
X1001136D01*
Y-613708D01*
Y-614162D01*
Y-614615D01*
Y-615069D01*
Y-615522D01*
X1001589D01*
Y-615976D01*
Y-616429D01*
Y-616883D01*
X1002043D01*
Y-617337D01*
Y-617790D01*
X1002496D01*
Y-618244D01*
Y-618697D01*
X1002950D01*
Y-619151D01*
X1003404D01*
Y-619604D01*
X1003857D01*
Y-620058D01*
X1004311D01*
Y-620511D01*
X1004764D01*
Y-620965D01*
X1005218D01*
Y-621418D01*
X1006125D01*
Y-621872D01*
X1007032D01*
Y-622326D01*
X1007939D01*
Y-622779D01*
X1010207D01*
Y-623233D01*
X1013382D01*
Y-622779D01*
X1015650D01*
Y-622326D01*
X1017010D01*
Y-621872D01*
X1017917D01*
Y-621418D01*
X1018371D01*
Y-620965D01*
X1019278D01*
Y-620511D01*
X1019732D01*
Y-620058D01*
X1020185D01*
Y-619604D01*
X1020639D01*
Y-619151D01*
Y-618697D01*
X1021092D01*
Y-618244D01*
X1021546D01*
Y-617790D01*
Y-617337D01*
X1021999D01*
Y-616883D01*
Y-616429D01*
Y-615976D01*
X1022453D01*
Y-615522D01*
Y-615069D01*
Y-614615D01*
Y-614162D01*
X1022906D01*
Y-613708D01*
Y-613255D01*
Y-612801D01*
Y-612347D01*
Y-611894D01*
Y-611440D01*
Y-610987D01*
Y-610533D01*
Y-610080D01*
Y-609626D01*
Y-609173D01*
Y-608719D01*
Y-608265D01*
Y-607812D01*
Y-607358D01*
Y-606905D01*
Y-606451D01*
Y-605998D01*
X1022453D01*
Y-605544D01*
Y-605090D01*
Y-604637D01*
Y-604183D01*
X1021999D01*
Y-603730D01*
Y-603276D01*
X1021546D01*
Y-602823D01*
Y-602369D01*
X1021092D01*
Y-601916D01*
Y-601462D01*
X1020639D01*
Y-601008D01*
X1020185D01*
Y-600555D01*
X1019732D01*
Y-600101D01*
X1019278D01*
Y-599648D01*
X1018824D01*
Y-599194D01*
X1017917D01*
Y-598741D01*
X1017010D01*
Y-598287D01*
X1016103D01*
Y-597834D01*
X1013835D01*
Y-597380D01*
D02*
G37*
G36*
X1087765D02*
X1083229D01*
Y-597834D01*
X1081415D01*
Y-598287D01*
X1080054D01*
Y-598741D01*
X1079147D01*
Y-599194D01*
X1078694D01*
Y-599648D01*
X1078240D01*
Y-600101D01*
X1077787D01*
Y-600555D01*
X1077333D01*
Y-601008D01*
X1076880D01*
Y-601462D01*
X1076426D01*
Y-601916D01*
X1075973D01*
Y-602369D01*
Y-602823D01*
X1075519D01*
Y-603276D01*
Y-603730D01*
X1075065D01*
Y-604183D01*
Y-604637D01*
Y-605090D01*
X1074612D01*
Y-605544D01*
Y-605998D01*
Y-606451D01*
Y-606905D01*
Y-607358D01*
Y-607812D01*
Y-608265D01*
X1074158D01*
Y-608719D01*
Y-609173D01*
Y-609626D01*
Y-610080D01*
Y-610533D01*
Y-610987D01*
Y-611440D01*
Y-611894D01*
X1074612D01*
Y-612347D01*
Y-612801D01*
Y-613255D01*
Y-613708D01*
Y-614162D01*
Y-614615D01*
Y-615069D01*
X1075065D01*
Y-615522D01*
Y-615976D01*
Y-616429D01*
X1075519D01*
Y-616883D01*
Y-617337D01*
Y-617790D01*
X1075973D01*
Y-618244D01*
X1076426D01*
Y-618697D01*
Y-619151D01*
X1076880D01*
Y-619604D01*
X1077333D01*
Y-620058D01*
X1077787D01*
Y-620511D01*
X1078240D01*
Y-620965D01*
X1078694D01*
Y-621418D01*
X1079601D01*
Y-621872D01*
X1080508D01*
Y-622326D01*
X1081869D01*
Y-622779D01*
X1084137D01*
Y-623233D01*
X1086858D01*
Y-622779D01*
X1089126D01*
Y-622326D01*
X1090486D01*
Y-621872D01*
X1091393D01*
Y-621418D01*
X1092300D01*
Y-620965D01*
X1092754D01*
Y-620511D01*
X1093208D01*
Y-620058D01*
X1093661D01*
Y-619604D01*
X1094115D01*
Y-619151D01*
X1094568D01*
Y-618697D01*
Y-618244D01*
X1095022D01*
Y-617790D01*
X1095475D01*
Y-617337D01*
Y-616883D01*
Y-616429D01*
X1095929D01*
Y-615976D01*
Y-615522D01*
Y-615069D01*
X1096383D01*
Y-614615D01*
Y-614162D01*
Y-613708D01*
Y-613255D01*
Y-612801D01*
X1096836D01*
Y-612347D01*
Y-611894D01*
Y-611440D01*
Y-610987D01*
Y-610533D01*
Y-610080D01*
Y-609626D01*
Y-609173D01*
Y-608719D01*
Y-608265D01*
Y-607812D01*
X1096383D01*
Y-607358D01*
Y-606905D01*
Y-606451D01*
Y-605998D01*
Y-605544D01*
Y-605090D01*
X1095929D01*
Y-604637D01*
Y-604183D01*
Y-603730D01*
X1095475D01*
Y-603276D01*
Y-602823D01*
X1095022D01*
Y-602369D01*
Y-601916D01*
X1094568D01*
Y-601462D01*
X1094115D01*
Y-601008D01*
X1093661D01*
Y-600555D01*
X1093208D01*
Y-600101D01*
X1092754D01*
Y-599648D01*
X1092300D01*
Y-599194D01*
X1091393D01*
Y-598741D01*
X1090940D01*
Y-598287D01*
X1089579D01*
Y-597834D01*
X1087765D01*
Y-597380D01*
D02*
G37*
%LPD*%
D12*
X-329559Y1103874D02*
X-331882Y1109973D01*
X-334205Y1103874D01*
X-333334Y1105907D02*
X-330430D01*
X-329849Y29021D02*
X-330140Y29602D01*
X-330720Y30183D01*
X-331301Y30473D01*
X-332463D01*
X-333044Y30183D01*
X-333625Y29602D01*
X-333915Y29021D01*
X-334205Y28150D01*
Y26698D01*
X-333915Y25826D01*
X-333625Y25246D01*
X-333044Y24665D01*
X-332463Y24374D01*
X-331301D01*
X-330720Y24665D01*
X-330140Y25246D01*
X-329849Y25826D01*
X-334205Y-508007D02*
Y-514106D01*
Y-508007D02*
X-332173D01*
X-331301Y-508297D01*
X-330720Y-508878D01*
X-330430Y-509459D01*
X-330140Y-510330D01*
Y-511782D01*
X-330430Y-512654D01*
X-330720Y-513234D01*
X-331301Y-513815D01*
X-332173Y-514106D01*
X-334205D01*
X-10016Y-740817D02*
X-9435Y-740526D01*
X-8564Y-739655D01*
Y-745754D01*
X688943Y-741107D02*
Y-740817D01*
X689233Y-740236D01*
X689524Y-739945D01*
X690105Y-739655D01*
X691266D01*
X691847Y-739945D01*
X692138Y-740236D01*
X692428Y-740817D01*
Y-741397D01*
X692138Y-741978D01*
X691557Y-742850D01*
X688653Y-745754D01*
X692718D01*
X1386463Y-739655D02*
X1389658D01*
X1387915Y-741978D01*
X1388787D01*
X1389368Y-742269D01*
X1389658Y-742559D01*
X1389948Y-743430D01*
Y-744011D01*
X1389658Y-744882D01*
X1389077Y-745463D01*
X1388206Y-745754D01*
X1387335D01*
X1386463Y-745463D01*
X1386173Y-745173D01*
X1385883Y-744592D01*
X2087543Y-739655D02*
X2084639Y-743721D01*
X2088996D01*
X2087543Y-739655D02*
Y-745754D01*
X-10016Y1367383D02*
X-9435Y1367674D01*
X-8564Y1368545D01*
Y1362446D01*
X688943Y1367093D02*
Y1367383D01*
X689233Y1367964D01*
X689524Y1368255D01*
X690105Y1368545D01*
X691266D01*
X691847Y1368255D01*
X692138Y1367964D01*
X692428Y1367383D01*
Y1366803D01*
X692138Y1366222D01*
X691557Y1365350D01*
X688653Y1362446D01*
X692718D01*
X1386463Y1368545D02*
X1389658D01*
X1387915Y1366222D01*
X1388787D01*
X1389368Y1365931D01*
X1389658Y1365641D01*
X1389948Y1364770D01*
Y1364189D01*
X1389658Y1363318D01*
X1389077Y1362737D01*
X1388206Y1362446D01*
X1387335D01*
X1386463Y1362737D01*
X1386173Y1363027D01*
X1385883Y1363608D01*
X2087543Y1368545D02*
X2084639Y1364479D01*
X2088996D01*
X2087543Y1368545D02*
Y1362446D01*
X2413641Y1103874D02*
X2411318Y1109973D01*
X2408995Y1103874D01*
X2409866Y1105907D02*
X2412770D01*
X2408995Y570223D02*
Y564124D01*
Y570223D02*
X2411608D01*
X2412480Y569933D01*
X2412770Y569642D01*
X2413060Y569061D01*
Y568481D01*
X2412770Y567900D01*
X2412480Y567609D01*
X2411608Y567319D01*
X2408995D02*
X2411608D01*
X2412480Y567029D01*
X2412770Y566738D01*
X2413060Y566157D01*
Y565286D01*
X2412770Y564705D01*
X2412480Y564415D01*
X2411608Y564124D01*
X2408995D01*
X2413351Y29021D02*
X2413060Y29602D01*
X2412480Y30183D01*
X2411899Y30473D01*
X2410737D01*
X2410156Y30183D01*
X2409575Y29602D01*
X2409285Y29021D01*
X2408995Y28150D01*
Y26698D01*
X2409285Y25826D01*
X2409575Y25246D01*
X2410156Y24665D01*
X2410737Y24374D01*
X2411899D01*
X2412480Y24665D01*
X2413060Y25246D01*
X2413351Y25826D01*
X2408995Y-508007D02*
Y-514106D01*
Y-508007D02*
X2411028D01*
X2411899Y-508297D01*
X2412480Y-508878D01*
X2412770Y-509459D01*
X2413060Y-510330D01*
Y-511782D01*
X2412770Y-512654D01*
X2412480Y-513234D01*
X2411899Y-513815D01*
X2411028Y-514106D01*
X2408995D01*
X2103419Y225066D02*
Y218967D01*
X2106904D01*
X2112218D02*
X2109895Y225066D01*
X2107572Y218967D01*
X2108443Y221000D02*
X2111347D01*
X2113641Y225066D02*
X2115965Y222162D01*
Y218967D01*
X2118288Y225066D02*
X2115965Y222162D01*
X2122847Y225066D02*
X2119072D01*
Y218967D01*
X2122847D01*
X2119072Y222162D02*
X2121395D01*
X2123864Y225066D02*
Y218967D01*
Y225066D02*
X2126478D01*
X2127349Y224776D01*
X2127639Y224485D01*
X2127930Y223904D01*
Y223324D01*
X2127639Y222743D01*
X2127349Y222452D01*
X2126478Y222162D01*
X2123864D01*
X2125897D02*
X2127930Y218967D01*
X2134086Y225066D02*
Y220710D01*
X2134377Y219839D01*
X2134958Y219258D01*
X2135829Y218967D01*
X2136410D01*
X2137281Y219258D01*
X2137862Y219839D01*
X2138152Y220710D01*
Y225066D01*
X2143902Y224195D02*
X2143322Y224776D01*
X2142450Y225066D01*
X2141289D01*
X2140417Y224776D01*
X2139836Y224195D01*
Y223614D01*
X2140127Y223033D01*
X2140417Y222743D01*
X2140998Y222452D01*
X2142741Y221871D01*
X2143322Y221581D01*
X2143612Y221291D01*
X2143902Y220710D01*
Y219839D01*
X2143322Y219258D01*
X2142450Y218967D01*
X2141289D01*
X2140417Y219258D01*
X2139836Y219839D01*
X2149914Y218967D02*
X2147590Y225066D01*
X2145267Y218967D01*
X2146138Y221000D02*
X2149043D01*
X2155693Y223614D02*
X2155403Y224195D01*
X2154822Y224776D01*
X2154241Y225066D01*
X2153079D01*
X2152498Y224776D01*
X2151918Y224195D01*
X2151627Y223614D01*
X2151337Y222743D01*
Y221291D01*
X2151627Y220419D01*
X2151918Y219839D01*
X2152498Y219258D01*
X2153079Y218967D01*
X2154241D01*
X2154822Y219258D01*
X2155403Y219839D01*
X2155693Y220419D01*
Y221291D01*
X2154241D02*
X2155693D01*
X2160862Y225066D02*
X2157087D01*
Y218967D01*
X2160862D01*
X2157087Y222162D02*
X2159410D01*
X1894705Y1303426D02*
Y1309524D01*
X1897754D01*
X1898770Y1308508D01*
Y1306475D01*
X1897754Y1305459D01*
X1894705D01*
X1896737D02*
X1898770Y1303426D01*
X1904868Y1309524D02*
X1900803D01*
Y1303426D01*
X1904868D01*
X1900803Y1306475D02*
X1902835D01*
X1906901Y1309524D02*
Y1305459D01*
X1908933Y1303426D01*
X1910966Y1305459D01*
Y1309524D01*
X1912999D02*
X1915031D01*
X1914015D01*
Y1303426D01*
X1912999D01*
X1915031D01*
X1922146Y1308508D02*
X1921129Y1309524D01*
X1919097D01*
X1918080Y1308508D01*
Y1307492D01*
X1919097Y1306475D01*
X1921129D01*
X1922146Y1305459D01*
Y1304443D01*
X1921129Y1303426D01*
X1919097D01*
X1918080Y1304443D01*
X1924178Y1309524D02*
X1926211D01*
X1925195D01*
Y1303426D01*
X1924178D01*
X1926211D01*
X1932309Y1309524D02*
X1930276D01*
X1929260Y1308508D01*
Y1304443D01*
X1930276Y1303426D01*
X1932309D01*
X1933325Y1304443D01*
Y1308508D01*
X1932309Y1309524D01*
X1935358Y1303426D02*
Y1309524D01*
X1939423Y1303426D01*
Y1309524D01*
X1536565Y1260246D02*
Y1266344D01*
X1539614D01*
X1540630Y1265328D01*
Y1263295D01*
X1539614Y1262279D01*
X1536565D01*
X1538597D02*
X1540630Y1260246D01*
X1546728Y1266344D02*
X1542663D01*
Y1260246D01*
X1546728D01*
X1542663Y1263295D02*
X1544695D01*
X1548761Y1266344D02*
Y1262279D01*
X1550793Y1260246D01*
X1552826Y1262279D01*
Y1266344D01*
X1645785D02*
Y1260246D01*
X1648834D01*
X1649850Y1261263D01*
Y1265328D01*
X1648834Y1266344D01*
X1645785D01*
X1655948D02*
X1651883D01*
Y1260246D01*
X1655948D01*
X1651883Y1263295D02*
X1653915D01*
X1662046Y1265328D02*
X1661030Y1266344D01*
X1658997D01*
X1657981Y1265328D01*
Y1264312D01*
X1658997Y1263295D01*
X1661030D01*
X1662046Y1262279D01*
Y1261263D01*
X1661030Y1260246D01*
X1658997D01*
X1657981Y1261263D01*
X1668144Y1265328D02*
X1667128Y1266344D01*
X1665095D01*
X1664079Y1265328D01*
Y1261263D01*
X1665095Y1260246D01*
X1667128D01*
X1668144Y1261263D01*
X1670177Y1260246D02*
Y1266344D01*
X1673226D01*
X1674242Y1265328D01*
Y1263295D01*
X1673226Y1262279D01*
X1670177D01*
X1672209D02*
X1674242Y1260246D01*
X1676275Y1266344D02*
X1678307D01*
X1677291D01*
Y1260246D01*
X1676275D01*
X1678307D01*
X1681356D02*
Y1266344D01*
X1684405D01*
X1685422Y1265328D01*
Y1263295D01*
X1684405Y1262279D01*
X1681356D01*
X1687454Y1266344D02*
X1691520D01*
X1689487D01*
Y1260246D01*
X1693552Y1266344D02*
X1695585D01*
X1694569D01*
Y1260246D01*
X1693552D01*
X1695585D01*
X1701683Y1266344D02*
X1699650D01*
X1698634Y1265328D01*
Y1261263D01*
X1699650Y1260246D01*
X1701683D01*
X1702699Y1261263D01*
Y1265328D01*
X1701683Y1266344D01*
X1704732Y1260246D02*
Y1266344D01*
X1708797Y1260246D01*
Y1266344D01*
X2143625D02*
Y1260246D01*
X2146674D01*
X2147690Y1261263D01*
Y1265328D01*
X2146674Y1266344D01*
X2143625D01*
X2149723Y1260246D02*
Y1264312D01*
X2151755Y1266344D01*
X2153788Y1264312D01*
Y1260246D01*
Y1263295D01*
X2149723D01*
X2155821Y1266344D02*
X2159886D01*
X2157853D01*
Y1260246D01*
X2165984Y1266344D02*
X2161919D01*
Y1260246D01*
X2165984D01*
X2161919Y1263295D02*
X2163951D01*
X2303645Y1266344D02*
Y1260246D01*
X2306694D01*
X2307710Y1261263D01*
Y1262279D01*
X2306694Y1263295D01*
X2303645D01*
X2306694D01*
X2307710Y1264312D01*
Y1265328D01*
X2306694Y1266344D01*
X2303645D01*
X2309743D02*
Y1265328D01*
X2311775Y1263295D01*
X2313808Y1265328D01*
Y1266344D01*
X2311775Y1263295D02*
Y1260246D01*
X1536565Y1222146D02*
Y1228244D01*
X1539614D01*
X1540630Y1227228D01*
Y1225195D01*
X1539614Y1224179D01*
X1536565D01*
X1538597D02*
X1540630Y1222146D01*
X1545712D02*
X1543679D01*
X1542663Y1223163D01*
Y1225195D01*
X1543679Y1226212D01*
X1545712D01*
X1546728Y1225195D01*
Y1224179D01*
X1542663D01*
X1548761Y1226212D02*
X1550793Y1222146D01*
X1552826Y1226212D01*
X1554859Y1222146D02*
X1556891D01*
X1555875D01*
Y1228244D01*
X1554859Y1227228D01*
X2123305Y1219606D02*
Y1220623D01*
X2124321D01*
Y1219606D01*
X2123305D01*
X2128386D02*
Y1225704D01*
X2131435D01*
X2132452Y1224688D01*
Y1222655D01*
X2131435Y1221639D01*
X2128386D01*
X2130419D02*
X2132452Y1219606D01*
X2137533D02*
X2135501D01*
X2134484Y1220623D01*
Y1222655D01*
X2135501Y1223672D01*
X2137533D01*
X2138550Y1222655D01*
Y1221639D01*
X2134484D01*
X2140582Y1219606D02*
X2142615D01*
X2141599D01*
Y1225704D01*
X2140582D01*
X2148713Y1219606D02*
X2146680D01*
X2145664Y1220623D01*
Y1222655D01*
X2146680Y1223672D01*
X2148713D01*
X2149729Y1222655D01*
Y1221639D01*
X2145664D01*
X2152778Y1223672D02*
X2154811D01*
X2155827Y1222655D01*
Y1219606D01*
X2152778D01*
X2151762Y1220623D01*
X2152778Y1221639D01*
X2155827D01*
X2157860Y1219606D02*
X2160909D01*
X2161925Y1220623D01*
X2160909Y1221639D01*
X2158876D01*
X2157860Y1222655D01*
X2158876Y1223672D01*
X2161925D01*
X2167007Y1219606D02*
X2164974D01*
X2163958Y1220623D01*
Y1222655D01*
X2164974Y1223672D01*
X2167007D01*
X2168023Y1222655D01*
Y1221639D01*
X2163958D01*
X2170056Y1225704D02*
Y1219606D01*
X2173105D01*
X2174121Y1220623D01*
Y1224688D01*
X2173105Y1225704D01*
X2170056D01*
X2177170Y1223672D02*
X2179203D01*
X2180219Y1222655D01*
Y1219606D01*
X2177170D01*
X2176154Y1220623D01*
X2177170Y1221639D01*
X2180219D01*
X2183268Y1224688D02*
Y1223672D01*
X2182252D01*
X2184285D01*
X2183268D01*
Y1220623D01*
X2184285Y1219606D01*
X2190383D02*
X2188350D01*
X2187334Y1220623D01*
Y1222655D01*
X2188350Y1223672D01*
X2190383D01*
X2191399Y1222655D01*
Y1221639D01*
X2187334D01*
X2193432Y1219606D02*
X2195464D01*
X2194448D01*
Y1225704D01*
X2193432Y1224688D01*
X2290945Y1222146D02*
Y1223163D01*
X2291961D01*
Y1222146D01*
X2290945D01*
X2296026D02*
Y1228244D01*
X2299075D01*
X2300092Y1227228D01*
Y1225195D01*
X2299075Y1224179D01*
X2296026D01*
X2298059D02*
X2300092Y1222146D01*
X2305173D02*
X2303141D01*
X2302124Y1223163D01*
Y1225195D01*
X2303141Y1226212D01*
X2305173D01*
X2306190Y1225195D01*
Y1224179D01*
X2302124D01*
X2308222Y1222146D02*
X2310255D01*
X2309239D01*
Y1228244D01*
X2308222D01*
X2316353Y1222146D02*
X2314320D01*
X2313304Y1223163D01*
Y1225195D01*
X2314320Y1226212D01*
X2316353D01*
X2317369Y1225195D01*
Y1224179D01*
X2313304D01*
X2320418Y1226212D02*
X2322451D01*
X2323467Y1225195D01*
Y1222146D01*
X2320418D01*
X2319402Y1223163D01*
X2320418Y1224179D01*
X2323467D01*
X2325500Y1222146D02*
X2328549D01*
X2329565Y1223163D01*
X2328549Y1224179D01*
X2326516D01*
X2325500Y1225195D01*
X2326516Y1226212D01*
X2329565D01*
X2334647Y1222146D02*
X2332614D01*
X2331598Y1223163D01*
Y1225195D01*
X2332614Y1226212D01*
X2334647D01*
X2335663Y1225195D01*
Y1224179D01*
X2331598D01*
X2337696Y1228244D02*
Y1222146D01*
X2340745D01*
X2341761Y1223163D01*
Y1224179D01*
X2340745Y1225195D01*
X2337696D01*
X2340745D01*
X2341761Y1226212D01*
Y1227228D01*
X2340745Y1228244D01*
X2337696D01*
X2343794Y1226212D02*
Y1223163D01*
X2344810Y1222146D01*
X2347859D01*
Y1221130D01*
X2346843Y1220114D01*
X2345827D01*
X2347859Y1222146D02*
Y1226212D01*
X2349892Y1222146D02*
X2351925D01*
X2350908D01*
Y1228244D01*
X2349892Y1227228D01*
X1528881Y1159884D02*
Y1153786D01*
X1531930D01*
X1532946Y1154803D01*
Y1155819D01*
X1531930Y1156835D01*
X1528881D01*
X1531930D01*
X1532946Y1157852D01*
Y1158868D01*
X1531930Y1159884D01*
X1528881D01*
X1532946Y1120768D02*
X1531930Y1121785D01*
X1529897D01*
X1528881Y1120768D01*
Y1116703D01*
X1529897Y1115686D01*
X1531930D01*
X1532946Y1116703D01*
X2123305Y1145946D02*
Y1146963D01*
X2124321D01*
Y1145946D01*
X2123305D01*
X2128386D02*
Y1152044D01*
X2131435D01*
X2132452Y1151028D01*
Y1148995D01*
X2131435Y1147979D01*
X2128386D01*
X2130419D02*
X2132452Y1145946D01*
X2137533D02*
X2135501D01*
X2134484Y1146963D01*
Y1148995D01*
X2135501Y1150012D01*
X2137533D01*
X2138550Y1148995D01*
Y1147979D01*
X2134484D01*
X2140582Y1145946D02*
X2142615D01*
X2141599D01*
Y1152044D01*
X2140582D01*
X2148713Y1145946D02*
X2146680D01*
X2145664Y1146963D01*
Y1148995D01*
X2146680Y1150012D01*
X2148713D01*
X2149729Y1148995D01*
Y1147979D01*
X2145664D01*
X2152778Y1150012D02*
X2154811D01*
X2155827Y1148995D01*
Y1145946D01*
X2152778D01*
X2151762Y1146963D01*
X2152778Y1147979D01*
X2155827D01*
X2157860Y1145946D02*
X2160909D01*
X2161925Y1146963D01*
X2160909Y1147979D01*
X2158876D01*
X2157860Y1148995D01*
X2158876Y1150012D01*
X2161925D01*
X2167007Y1145946D02*
X2164974D01*
X2163958Y1146963D01*
Y1148995D01*
X2164974Y1150012D01*
X2167007D01*
X2168023Y1148995D01*
Y1147979D01*
X2163958D01*
X2170056Y1152044D02*
Y1145946D01*
X2173105D01*
X2174121Y1146963D01*
Y1151028D01*
X2173105Y1152044D01*
X2170056D01*
X2177170Y1150012D02*
X2179203D01*
X2180219Y1148995D01*
Y1145946D01*
X2177170D01*
X2176154Y1146963D01*
X2177170Y1147979D01*
X2180219D01*
X2183268Y1151028D02*
Y1150012D01*
X2182252D01*
X2184285D01*
X2183268D01*
Y1146963D01*
X2184285Y1145946D01*
X2190383D02*
X2188350D01*
X2187334Y1146963D01*
Y1148995D01*
X2188350Y1150012D01*
X2190383D01*
X2191399Y1148995D01*
Y1147979D01*
X2187334D01*
X2193432Y1151028D02*
X2194448Y1152044D01*
X2196481D01*
X2197497Y1151028D01*
Y1150012D01*
X2196481Y1148995D01*
X2195464D01*
X2196481D01*
X2197497Y1147979D01*
Y1146963D01*
X2196481Y1145946D01*
X2194448D01*
X2193432Y1146963D01*
X2290945Y1145946D02*
Y1146963D01*
X2291961D01*
Y1145946D01*
X2290945D01*
X2296026D02*
Y1152044D01*
X2299075D01*
X2300092Y1151028D01*
Y1148995D01*
X2299075Y1147979D01*
X2296026D01*
X2298059D02*
X2300092Y1145946D01*
X2305173D02*
X2303141D01*
X2302124Y1146963D01*
Y1148995D01*
X2303141Y1150012D01*
X2305173D01*
X2306190Y1148995D01*
Y1147979D01*
X2302124D01*
X2308222Y1145946D02*
X2310255D01*
X2309239D01*
Y1152044D01*
X2308222D01*
X2316353Y1145946D02*
X2314320D01*
X2313304Y1146963D01*
Y1148995D01*
X2314320Y1150012D01*
X2316353D01*
X2317369Y1148995D01*
Y1147979D01*
X2313304D01*
X2320418Y1150012D02*
X2322451D01*
X2323467Y1148995D01*
Y1145946D01*
X2320418D01*
X2319402Y1146963D01*
X2320418Y1147979D01*
X2323467D01*
X2325500Y1145946D02*
X2328549D01*
X2329565Y1146963D01*
X2328549Y1147979D01*
X2326516D01*
X2325500Y1148995D01*
X2326516Y1150012D01*
X2329565D01*
X2334647Y1145946D02*
X2332614D01*
X2331598Y1146963D01*
Y1148995D01*
X2332614Y1150012D01*
X2334647D01*
X2335663Y1148995D01*
Y1147979D01*
X2331598D01*
X2337696Y1152044D02*
Y1145946D01*
X2340745D01*
X2341761Y1146963D01*
Y1147979D01*
X2340745Y1148995D01*
X2337696D01*
X2340745D01*
X2341761Y1150012D01*
Y1151028D01*
X2340745Y1152044D01*
X2337696D01*
X2343794Y1150012D02*
Y1146963D01*
X2344810Y1145946D01*
X2347859D01*
Y1144930D01*
X2346843Y1143914D01*
X2345827D01*
X2347859Y1145946D02*
Y1150012D01*
X2349892Y1151028D02*
X2350908Y1152044D01*
X2352941D01*
X2353957Y1151028D01*
Y1150012D01*
X2352941Y1148995D01*
X2351925D01*
X2352941D01*
X2353957Y1147979D01*
Y1146963D01*
X2352941Y1145946D01*
X2350908D01*
X2349892Y1146963D01*
X1318125Y-689456D02*
Y-694537D01*
X1319141Y-695554D01*
X1321174D01*
X1322190Y-694537D01*
Y-689456D01*
X1324223D02*
Y-695554D01*
X1327272D01*
X1328288Y-694537D01*
Y-693521D01*
X1327272Y-692505D01*
X1324223D01*
X1327272D01*
X1328288Y-691488D01*
Y-690472D01*
X1327272Y-689456D01*
X1324223D01*
X1330321D02*
X1334386Y-695554D01*
Y-689456D02*
X1330321Y-695554D01*
X1336419Y-689456D02*
Y-695554D01*
Y-692505D01*
X1340484D01*
Y-689456D01*
Y-695554D01*
X1346582Y-689456D02*
X1344549Y-690472D01*
X1342517Y-692505D01*
Y-694537D01*
X1343533Y-695554D01*
X1345566D01*
X1346582Y-694537D01*
Y-693521D01*
X1345566Y-692505D01*
X1342517D01*
X1348615Y-690472D02*
X1349631Y-689456D01*
X1351664D01*
X1352680Y-690472D01*
Y-694537D01*
X1351664Y-695554D01*
X1349631D01*
X1348615Y-694537D01*
Y-690472D01*
X1354713Y-692505D02*
X1358778D01*
X1360811Y-690472D02*
X1361827Y-689456D01*
X1363860D01*
X1364876Y-690472D01*
Y-694537D01*
X1363860Y-695554D01*
X1361827D01*
X1360811Y-694537D01*
Y-690472D01*
X1366909D02*
X1367925Y-689456D01*
X1369958D01*
X1370974Y-690472D01*
Y-694537D01*
X1369958Y-695554D01*
X1367925D01*
X1366909Y-694537D01*
Y-690472D01*
X1373007D02*
X1374023Y-689456D01*
X1376056D01*
X1377072Y-690472D01*
Y-694537D01*
X1376056Y-695554D01*
X1374023D01*
X1373007Y-694537D01*
Y-690472D01*
X1379105Y-695554D02*
X1381137D01*
X1380121D01*
Y-689456D01*
X1379105Y-690472D01*
X1384186Y-695554D02*
X1386219D01*
X1385203D01*
Y-689456D01*
X1384186Y-690472D01*
X1389268Y-694537D02*
X1390284Y-695554D01*
X1392317D01*
X1393333Y-694537D01*
Y-690472D01*
X1392317Y-689456D01*
X1390284D01*
X1389268Y-690472D01*
Y-691488D01*
X1390284Y-692505D01*
X1393333D01*
X1398415Y-695554D02*
Y-689456D01*
X1395366Y-692505D01*
X1399431D01*
X1748910Y-618336D02*
X1744845D01*
Y-624434D01*
X1748910D01*
X1744845Y-621385D02*
X1746877D01*
X1750943Y-618336D02*
Y-622401D01*
X1752975Y-624434D01*
X1755008Y-622401D01*
Y-618336D01*
X1757041D02*
Y-624434D01*
Y-622401D01*
X1761106Y-618336D01*
X1758057Y-621385D01*
X1761106Y-624434D01*
X1763139Y-621385D02*
X1767204D01*
X1769237Y-624434D02*
Y-618336D01*
X1773302Y-624434D01*
Y-618336D01*
X1778384D02*
X1776351D01*
X1775335Y-619352D01*
Y-623417D01*
X1776351Y-624434D01*
X1778384D01*
X1779400Y-623417D01*
Y-619352D01*
X1778384Y-618336D01*
X1781433Y-624434D02*
Y-618336D01*
X1784482D01*
X1785498Y-619352D01*
Y-621385D01*
X1784482Y-622401D01*
X1781433D01*
X1783465D02*
X1785498Y-624434D01*
X1787531D02*
Y-620368D01*
X1789563Y-618336D01*
X1791596Y-620368D01*
Y-624434D01*
Y-621385D01*
X1787531D01*
X1793629D02*
X1797694D01*
X1799727Y-618336D02*
Y-624434D01*
X1802776D01*
X1803792Y-623417D01*
Y-622401D01*
X1802776Y-621385D01*
X1799727D01*
X1802776D01*
X1803792Y-620368D01*
Y-619352D01*
X1802776Y-618336D01*
X1799727D01*
X1809890Y-624434D02*
X1805825D01*
X1809890Y-620368D01*
Y-619352D01*
X1808874Y-618336D01*
X1806841D01*
X1805825Y-619352D01*
X1811923D02*
X1812939Y-618336D01*
X1814972D01*
X1815988Y-619352D01*
Y-623417D01*
X1814972Y-624434D01*
X1812939D01*
X1811923Y-623417D01*
Y-619352D01*
X2239425Y-623224D02*
Y-617126D01*
X2242474D01*
X2243490Y-618142D01*
Y-620175D01*
X2242474Y-621191D01*
X2239425D01*
X2241457D02*
X2243490Y-623224D01*
X2248572D02*
X2246539D01*
X2245523Y-622207D01*
Y-620175D01*
X2246539Y-619158D01*
X2248572D01*
X2249588Y-620175D01*
Y-621191D01*
X2245523D01*
X2251621Y-619158D02*
X2253653Y-623224D01*
X2255686Y-619158D01*
X2267882Y-618142D02*
X2266866Y-617126D01*
X2264833D01*
X2263817Y-618142D01*
Y-622207D01*
X2264833Y-623224D01*
X2266866D01*
X2267882Y-622207D01*
X1744845Y-563474D02*
Y-557376D01*
X1748910Y-563474D01*
Y-557376D01*
X1753992D02*
X1751959D01*
X1750943Y-558392D01*
Y-562457D01*
X1751959Y-563474D01*
X1753992D01*
X1755008Y-562457D01*
Y-558392D01*
X1753992Y-557376D01*
X1757041Y-563474D02*
Y-557376D01*
X1760090D01*
X1761106Y-558392D01*
Y-560425D01*
X1760090Y-561441D01*
X1757041D01*
X1759073D02*
X1761106Y-563474D01*
X1763139D02*
Y-559408D01*
X1765171Y-557376D01*
X1767204Y-559408D01*
Y-563474D01*
Y-560425D01*
X1763139D01*
X1769237D02*
X1773302D01*
X1775335Y-557376D02*
Y-563474D01*
X1778384D01*
X1779400Y-562457D01*
Y-561441D01*
X1778384Y-560425D01*
X1775335D01*
X1778384D01*
X1779400Y-559408D01*
Y-558392D01*
X1778384Y-557376D01*
X1775335D01*
X1785498Y-563474D02*
X1781433D01*
X1785498Y-559408D01*
Y-558392D01*
X1784482Y-557376D01*
X1782449D01*
X1781433Y-558392D01*
X1366385Y-557376D02*
Y-563474D01*
Y-560425D01*
X1370450D01*
Y-557376D01*
Y-563474D01*
X1372483D02*
Y-559408D01*
X1374515Y-557376D01*
X1376548Y-559408D01*
Y-563474D01*
Y-560425D01*
X1372483D01*
X1378581Y-557376D02*
Y-563474D01*
X1381630D01*
X1382646Y-562457D01*
Y-561441D01*
X1381630Y-560425D01*
X1378581D01*
X1381630D01*
X1382646Y-559408D01*
Y-558392D01*
X1381630Y-557376D01*
X1378581D01*
X1384679D02*
Y-563474D01*
X1387728D01*
X1388744Y-562457D01*
Y-558392D01*
X1387728Y-557376D01*
X1384679D01*
X1633787Y-600974D02*
Y-594876D01*
X1636836D01*
X1637852Y-595892D01*
Y-597925D01*
X1636836Y-598941D01*
X1633787D01*
X1643950Y-595892D02*
X1642934Y-594876D01*
X1640901D01*
X1639885Y-595892D01*
Y-599957D01*
X1640901Y-600974D01*
X1642934D01*
X1643950Y-599957D01*
X1645983Y-594876D02*
Y-600974D01*
X1649032D01*
X1650048Y-599957D01*
Y-598941D01*
X1649032Y-597925D01*
X1645983D01*
X1649032D01*
X1650048Y-596908D01*
Y-595892D01*
X1649032Y-594876D01*
X1645983D01*
X1658179Y-600974D02*
Y-594876D01*
X1662244Y-600974D01*
Y-594876D01*
X1664277Y-600974D02*
Y-596908D01*
X1666309Y-594876D01*
X1668342Y-596908D01*
Y-600974D01*
Y-597925D01*
X1664277D01*
X1670375Y-600974D02*
Y-594876D01*
X1672407Y-596908D01*
X1674440Y-594876D01*
Y-600974D01*
X1680538Y-594876D02*
X1676473D01*
Y-600974D01*
X1680538D01*
X1676473Y-597925D02*
X1678505D01*
X1682571Y-596908D02*
X1683587D01*
Y-597925D01*
X1682571D01*
Y-596908D01*
Y-599957D02*
X1683587D01*
Y-600974D01*
X1682571D01*
Y-599957D01*
X2252785Y-694192D02*
X2254817D01*
X2253801D01*
Y-688094D01*
X2252785Y-689110D01*
X2257866Y-690126D02*
X2258883D01*
Y-691143D01*
X2257866D01*
Y-690126D01*
Y-693175D02*
X2258883D01*
Y-694192D01*
X2257866D01*
Y-693175D01*
X2262948Y-694192D02*
X2264981D01*
X2263964D01*
Y-688094D01*
X2262948Y-689110D01*
X2169728Y-661932D02*
X2168712Y-660916D01*
X2166679D01*
X2165663Y-661932D01*
Y-662948D01*
X2166679Y-663965D01*
X2168712D01*
X2169728Y-664981D01*
Y-665997D01*
X2168712Y-667014D01*
X2166679D01*
X2165663Y-665997D01*
X2175826Y-661932D02*
X2174810Y-660916D01*
X2172777D01*
X2171761Y-661932D01*
Y-665997D01*
X2172777Y-667014D01*
X2174810D01*
X2175826Y-665997D01*
X2177859Y-667014D02*
Y-662948D01*
X2179891Y-660916D01*
X2181924Y-662948D01*
Y-667014D01*
Y-663965D01*
X2177859D01*
X2183957Y-660916D02*
Y-667014D01*
X2188022D01*
X2194120Y-660916D02*
X2190055D01*
Y-667014D01*
X2194120D01*
X2190055Y-663965D02*
X2192087D01*
X2196153Y-662948D02*
X2197169D01*
Y-663965D01*
X2196153D01*
Y-662948D01*
Y-665997D02*
X2197169D01*
Y-667014D01*
X2196153D01*
Y-665997D01*
X1637150Y-658976D02*
X1633085D01*
Y-662025D01*
X1635117D01*
X1633085D01*
Y-665074D01*
X1639183Y-658976D02*
X1641215D01*
X1640199D01*
Y-665074D01*
X1639183D01*
X1641215D01*
X1644264Y-658976D02*
Y-665074D01*
X1648330D01*
X1654428Y-658976D02*
X1650362D01*
Y-665074D01*
X1654428D01*
X1650362Y-662025D02*
X1652395D01*
X1662558Y-665074D02*
Y-658976D01*
X1666624Y-665074D01*
Y-658976D01*
X1668656Y-665074D02*
Y-661008D01*
X1670689Y-658976D01*
X1672722Y-661008D01*
Y-665074D01*
Y-662025D01*
X1668656D01*
X1674754Y-665074D02*
Y-658976D01*
X1676787Y-661008D01*
X1678820Y-658976D01*
Y-665074D01*
X1684918Y-658976D02*
X1680852D01*
Y-665074D01*
X1684918D01*
X1680852Y-662025D02*
X1682885D01*
X1686950Y-661008D02*
X1687967D01*
Y-662025D01*
X1686950D01*
Y-661008D01*
Y-664057D02*
X1687967D01*
Y-665074D01*
X1686950D01*
Y-664057D01*
X1635057Y-546618D02*
Y-540520D01*
X1638106D01*
X1639122Y-541536D01*
Y-543569D01*
X1638106Y-544585D01*
X1635057D01*
X1641155Y-546618D02*
Y-540520D01*
X1644204D01*
X1645220Y-541536D01*
Y-543569D01*
X1644204Y-544585D01*
X1641155D01*
X1643187D02*
X1645220Y-546618D01*
X1650302Y-540520D02*
X1648269D01*
X1647253Y-541536D01*
Y-545601D01*
X1648269Y-546618D01*
X1650302D01*
X1651318Y-545601D01*
Y-541536D01*
X1650302Y-540520D01*
X1657416D02*
X1655383D01*
X1656400D01*
Y-545601D01*
X1655383Y-546618D01*
X1654367D01*
X1653351Y-545601D01*
X1663514Y-540520D02*
X1659449D01*
Y-546618D01*
X1663514D01*
X1659449Y-543569D02*
X1661481D01*
X1669612Y-541536D02*
X1668596Y-540520D01*
X1666563D01*
X1665547Y-541536D01*
Y-545601D01*
X1666563Y-546618D01*
X1668596D01*
X1669612Y-545601D01*
X1671645Y-540520D02*
X1675710D01*
X1673677D01*
Y-546618D01*
X1677743Y-542552D02*
X1678759D01*
Y-543569D01*
X1677743D01*
Y-542552D01*
Y-545601D02*
X1678759D01*
Y-546618D01*
X1677743D01*
Y-545601D01*
X1254058Y-540774D02*
X1249993D01*
Y-546872D01*
X1254058D01*
X1249993Y-543823D02*
X1252025D01*
X1256091Y-546872D02*
Y-540774D01*
X1260156Y-546872D01*
Y-540774D01*
X1266254Y-541790D02*
X1265238Y-540774D01*
X1263205D01*
X1262189Y-541790D01*
Y-545855D01*
X1263205Y-546872D01*
X1265238D01*
X1266254Y-545855D01*
Y-543823D01*
X1264221D01*
X1268287Y-540774D02*
X1270319D01*
X1269303D01*
Y-546872D01*
X1268287D01*
X1270319D01*
X1273368D02*
Y-540774D01*
X1277434Y-546872D01*
Y-540774D01*
X1283532D02*
X1279466D01*
Y-546872D01*
X1283532D01*
X1279466Y-543823D02*
X1281499D01*
X1289630Y-540774D02*
X1285564D01*
Y-546872D01*
X1289630D01*
X1285564Y-543823D02*
X1287597D01*
X1291662Y-546872D02*
Y-540774D01*
X1294711D01*
X1295728Y-541790D01*
Y-543823D01*
X1294711Y-544839D01*
X1291662D01*
X1293695D02*
X1295728Y-546872D01*
X1297760Y-542806D02*
X1298777D01*
Y-543823D01*
X1297760D01*
Y-542806D01*
Y-545855D02*
X1298777D01*
Y-546872D01*
X1297760D01*
Y-545855D01*
X1252085Y-658976D02*
Y-665074D01*
X1255134D01*
X1256150Y-664057D01*
Y-659992D01*
X1255134Y-658976D01*
X1252085D01*
X1258183D02*
Y-665074D01*
X1260215Y-663041D01*
X1262248Y-665074D01*
Y-658976D01*
X1268346Y-659992D02*
X1267330Y-658976D01*
X1265297D01*
X1264281Y-659992D01*
Y-664057D01*
X1265297Y-665074D01*
X1267330D01*
X1268346Y-664057D01*
Y-662025D01*
X1266313D01*
X1276477Y-665074D02*
Y-658976D01*
X1280542Y-665074D01*
Y-658976D01*
X1285624D02*
X1283591D01*
X1282575Y-659992D01*
Y-664057D01*
X1283591Y-665074D01*
X1285624D01*
X1286640Y-664057D01*
Y-659992D01*
X1285624Y-658976D01*
X1288673Y-661008D02*
X1289689D01*
Y-662025D01*
X1288673D01*
Y-661008D01*
Y-664057D02*
X1289689D01*
Y-665074D01*
X1288673D01*
Y-664057D01*
X2166933Y-604276D02*
Y-598178D01*
X2169982D01*
X2170998Y-599194D01*
Y-601227D01*
X2169982Y-602243D01*
X2166933D01*
X2168965D02*
X2170998Y-604276D01*
X2177096Y-598178D02*
X2173031D01*
Y-604276D01*
X2177096D01*
X2173031Y-601227D02*
X2175063D01*
X2179129Y-598178D02*
Y-602243D01*
X2181161Y-604276D01*
X2183194Y-602243D01*
Y-598178D01*
X2185227Y-600210D02*
X2186243D01*
Y-601227D01*
X2185227D01*
Y-600210D01*
Y-603259D02*
X2186243D01*
Y-604276D01*
X2185227D01*
Y-603259D01*
X1250755Y-595892D02*
Y-601990D01*
X1253804D01*
X1254820Y-600973D01*
Y-596908D01*
X1253804Y-595892D01*
X1250755D01*
X1256853Y-601990D02*
Y-597924D01*
X1258885Y-595892D01*
X1260918Y-597924D01*
Y-601990D01*
Y-598941D01*
X1256853D01*
X1262951Y-595892D02*
X1267016D01*
X1264983D01*
Y-601990D01*
X1273114Y-595892D02*
X1269049D01*
Y-601990D01*
X1273114D01*
X1269049Y-598941D02*
X1271081D01*
X1275147Y-597924D02*
X1276163D01*
Y-598941D01*
X1275147D01*
Y-597924D01*
Y-600973D02*
X1276163D01*
Y-601990D01*
X1275147D01*
Y-600973D01*
X1323205Y-619352D02*
X1324221Y-618336D01*
X1326254D01*
X1327270Y-619352D01*
Y-623417D01*
X1326254Y-624434D01*
X1324221D01*
X1323205Y-623417D01*
Y-619352D01*
X1332352Y-624434D02*
Y-618336D01*
X1329303Y-621385D01*
X1333368D01*
X1335401Y-624434D02*
X1339466Y-620368D01*
X1341499Y-619352D02*
X1342515Y-618336D01*
X1344548D01*
X1345564Y-619352D01*
Y-623417D01*
X1344548Y-624434D01*
X1342515D01*
X1341499Y-623417D01*
Y-619352D01*
X1350646Y-624434D02*
Y-618336D01*
X1347597Y-621385D01*
X1351662D01*
X1353695Y-624434D02*
X1357760Y-620368D01*
X1363858Y-624434D02*
X1359793D01*
X1363858Y-620368D01*
Y-619352D01*
X1362842Y-618336D01*
X1360809D01*
X1359793Y-619352D01*
X1365891D02*
X1366907Y-618336D01*
X1368940D01*
X1369956Y-619352D01*
Y-623417D01*
X1368940Y-624434D01*
X1366907D01*
X1365891Y-623417D01*
Y-619352D01*
X1376054Y-624434D02*
X1371989D01*
X1376054Y-620368D01*
Y-619352D01*
X1375038Y-618336D01*
X1373005D01*
X1371989Y-619352D01*
X1382152Y-618336D02*
X1378087D01*
Y-621385D01*
X1380119Y-620368D01*
X1381136D01*
X1382152Y-621385D01*
Y-623417D01*
X1381136Y-624434D01*
X1379103D01*
X1378087Y-623417D01*
X1660010Y-686916D02*
X1655945D01*
Y-693014D01*
X1660010D01*
X1655945Y-689965D02*
X1657977D01*
X1662043Y-686916D02*
Y-690981D01*
X1664075Y-693014D01*
X1666108Y-690981D01*
Y-686916D01*
X1668141D02*
Y-693014D01*
X1671190D01*
X1672206Y-691997D01*
Y-690981D01*
X1671190Y-689965D01*
X1668141D01*
X1671190D01*
X1672206Y-688948D01*
Y-687932D01*
X1671190Y-686916D01*
X1668141D01*
X1674239Y-689965D02*
X1678304D01*
X1680337Y-693014D02*
Y-686916D01*
X1684402Y-693014D01*
Y-686916D01*
X1689484D02*
X1687451D01*
X1686435Y-687932D01*
Y-691997D01*
X1687451Y-693014D01*
X1689484D01*
X1690500Y-691997D01*
Y-687932D01*
X1689484Y-686916D01*
X1692533Y-693014D02*
Y-686916D01*
X1695582D01*
X1696598Y-687932D01*
Y-689965D01*
X1695582Y-690981D01*
X1692533D01*
X1694565D02*
X1696598Y-693014D01*
X1698631D02*
Y-688948D01*
X1700663Y-686916D01*
X1702696Y-688948D01*
Y-693014D01*
Y-689965D01*
X1698631D01*
X1704729D02*
X1708794D01*
X1710827Y-686916D02*
Y-693014D01*
X1713876D01*
X1714892Y-691997D01*
Y-690981D01*
X1713876Y-689965D01*
X1710827D01*
X1713876D01*
X1714892Y-688948D01*
Y-687932D01*
X1713876Y-686916D01*
X1710827D01*
X1720990Y-693014D02*
X1716925D01*
X1720990Y-688948D01*
Y-687932D01*
X1719974Y-686916D01*
X1717941D01*
X1716925Y-687932D01*
X1723023D02*
X1724039Y-686916D01*
X1726072D01*
X1727088Y-687932D01*
Y-691997D01*
X1726072Y-693014D01*
X1724039D01*
X1723023Y-691997D01*
Y-687932D01*
X1729121Y-693014D02*
Y-691997D01*
X1730137D01*
Y-693014D01*
X1729121D01*
X1734202D02*
Y-686916D01*
X1737251D01*
X1738268Y-687932D01*
Y-689965D01*
X1737251Y-690981D01*
X1734202D01*
X1744366Y-688948D02*
X1741317D01*
X1740300Y-689965D01*
Y-691997D01*
X1741317Y-693014D01*
X1744366D01*
X1746398Y-686916D02*
Y-693014D01*
X1749447D01*
X1750464Y-691997D01*
Y-690981D01*
Y-689965D01*
X1749447Y-688948D01*
X1746398D01*
X1752496Y-686916D02*
Y-693014D01*
X1755545D01*
X1756562Y-691997D01*
Y-687932D01*
X1755545Y-686916D01*
X1752496D01*
X1759611Y-693014D02*
X1761643D01*
X1762660Y-691997D01*
Y-689965D01*
X1761643Y-688948D01*
X1759611D01*
X1758594Y-689965D01*
Y-691997D01*
X1759611Y-693014D01*
X1768758Y-688948D02*
X1765709D01*
X1764692Y-689965D01*
Y-691997D01*
X1765709Y-693014D01*
X1768758D01*
X960363Y-681691D02*
X960072Y-681110D01*
X959492Y-680529D01*
X958911Y-680239D01*
X957749D01*
X957168Y-680529D01*
X956587Y-681110D01*
X956297Y-681691D01*
X956007Y-682562D01*
Y-684014D01*
X956297Y-684885D01*
X956587Y-685466D01*
X957168Y-686047D01*
X957749Y-686338D01*
X958911D01*
X959492Y-686047D01*
X960072Y-685466D01*
X960363Y-684885D01*
X963819Y-680239D02*
X963238Y-680529D01*
X962657Y-681110D01*
X962367Y-681691D01*
X962076Y-682562D01*
Y-684014D01*
X962367Y-684885D01*
X962657Y-685466D01*
X963238Y-686047D01*
X963819Y-686338D01*
X964980D01*
X965561Y-686047D01*
X966142Y-685466D01*
X966432Y-684885D01*
X966723Y-684014D01*
Y-682562D01*
X966432Y-681691D01*
X966142Y-681110D01*
X965561Y-680529D01*
X964980Y-680239D01*
X963819D01*
X968146D02*
Y-686338D01*
Y-680239D02*
X972212Y-686338D01*
Y-680239D02*
Y-686338D01*
X973896Y-680239D02*
Y-686338D01*
Y-680239D02*
X977671D01*
X973896Y-683143D02*
X976219D01*
X978368Y-680239D02*
Y-686338D01*
X979646Y-680239D02*
Y-686338D01*
Y-680239D02*
X981679D01*
X982550Y-680529D01*
X983131Y-681110D01*
X983422Y-681691D01*
X983712Y-682562D01*
Y-684014D01*
X983422Y-684885D01*
X983131Y-685466D01*
X982550Y-686047D01*
X981679Y-686338D01*
X979646D01*
X988852Y-680239D02*
X985077D01*
Y-686338D01*
X988852D01*
X985077Y-683143D02*
X987400D01*
X989869Y-680239D02*
Y-686338D01*
Y-680239D02*
X993934Y-686338D01*
Y-680239D02*
Y-686338D01*
X997652Y-680239D02*
Y-686338D01*
X995619Y-680239D02*
X999685D01*
X1000411D02*
Y-686338D01*
X1006335D02*
X1004012Y-680239D01*
X1001689Y-686338D01*
X1002560Y-684305D02*
X1005464D01*
X1007758Y-680239D02*
Y-686338D01*
X1011243D01*
X2290945Y1184046D02*
Y1185063D01*
X2291961D01*
Y1184046D01*
X2290945D01*
X2296026D02*
Y1190144D01*
X2299075D01*
X2300092Y1189128D01*
Y1187095D01*
X2299075Y1186079D01*
X2296026D01*
X2298059D02*
X2300092Y1184046D01*
X2305173D02*
X2303141D01*
X2302124Y1185063D01*
Y1187095D01*
X2303141Y1188112D01*
X2305173D01*
X2306190Y1187095D01*
Y1186079D01*
X2302124D01*
X2308222Y1184046D02*
X2310255D01*
X2309239D01*
Y1190144D01*
X2308222D01*
X2316353Y1184046D02*
X2314320D01*
X2313304Y1185063D01*
Y1187095D01*
X2314320Y1188112D01*
X2316353D01*
X2317369Y1187095D01*
Y1186079D01*
X2313304D01*
X2320418Y1188112D02*
X2322451D01*
X2323467Y1187095D01*
Y1184046D01*
X2320418D01*
X2319402Y1185063D01*
X2320418Y1186079D01*
X2323467D01*
X2325500Y1184046D02*
X2328549D01*
X2329565Y1185063D01*
X2328549Y1186079D01*
X2326516D01*
X2325500Y1187095D01*
X2326516Y1188112D01*
X2329565D01*
X2334647Y1184046D02*
X2332614D01*
X2331598Y1185063D01*
Y1187095D01*
X2332614Y1188112D01*
X2334647D01*
X2335663Y1187095D01*
Y1186079D01*
X2331598D01*
X2337696Y1190144D02*
Y1184046D01*
X2340745D01*
X2341761Y1185063D01*
Y1186079D01*
X2340745Y1187095D01*
X2337696D01*
X2340745D01*
X2341761Y1188112D01*
Y1189128D01*
X2340745Y1190144D01*
X2337696D01*
X2343794Y1188112D02*
Y1185063D01*
X2344810Y1184046D01*
X2347859D01*
Y1183030D01*
X2346843Y1182014D01*
X2345827D01*
X2347859Y1184046D02*
Y1188112D01*
X2353957Y1184046D02*
X2349892D01*
X2353957Y1188112D01*
Y1189128D01*
X2352941Y1190144D01*
X2350908D01*
X2349892Y1189128D01*
X2123305Y1181506D02*
Y1182523D01*
X2124321D01*
Y1181506D01*
X2123305D01*
X2128386D02*
Y1187604D01*
X2131435D01*
X2132452Y1186588D01*
Y1184555D01*
X2131435Y1183539D01*
X2128386D01*
X2130419D02*
X2132452Y1181506D01*
X2137533D02*
X2135501D01*
X2134484Y1182523D01*
Y1184555D01*
X2135501Y1185572D01*
X2137533D01*
X2138550Y1184555D01*
Y1183539D01*
X2134484D01*
X2140582Y1181506D02*
X2142615D01*
X2141599D01*
Y1187604D01*
X2140582D01*
X2148713Y1181506D02*
X2146680D01*
X2145664Y1182523D01*
Y1184555D01*
X2146680Y1185572D01*
X2148713D01*
X2149729Y1184555D01*
Y1183539D01*
X2145664D01*
X2152778Y1185572D02*
X2154811D01*
X2155827Y1184555D01*
Y1181506D01*
X2152778D01*
X2151762Y1182523D01*
X2152778Y1183539D01*
X2155827D01*
X2157860Y1181506D02*
X2160909D01*
X2161925Y1182523D01*
X2160909Y1183539D01*
X2158876D01*
X2157860Y1184555D01*
X2158876Y1185572D01*
X2161925D01*
X2167007Y1181506D02*
X2164974D01*
X2163958Y1182523D01*
Y1184555D01*
X2164974Y1185572D01*
X2167007D01*
X2168023Y1184555D01*
Y1183539D01*
X2163958D01*
X2170056Y1187604D02*
Y1181506D01*
X2173105D01*
X2174121Y1182523D01*
Y1186588D01*
X2173105Y1187604D01*
X2170056D01*
X2177170Y1185572D02*
X2179203D01*
X2180219Y1184555D01*
Y1181506D01*
X2177170D01*
X2176154Y1182523D01*
X2177170Y1183539D01*
X2180219D01*
X2183268Y1186588D02*
Y1185572D01*
X2182252D01*
X2184285D01*
X2183268D01*
Y1182523D01*
X2184285Y1181506D01*
X2190383D02*
X2188350D01*
X2187334Y1182523D01*
Y1184555D01*
X2188350Y1185572D01*
X2190383D01*
X2191399Y1184555D01*
Y1183539D01*
X2187334D01*
X2197497Y1181506D02*
X2193432D01*
X2197497Y1185572D01*
Y1186588D01*
X2196481Y1187604D01*
X2194448D01*
X2193432Y1186588D01*
D14*
X2103419Y211855D02*
X2298999D01*
X2349799Y-497434D02*
Y249326D01*
X2062779D02*
X2349799D01*
X2062779Y-497434D02*
Y249326D01*
Y-497434D02*
X2349799D01*
D19*
X-302455Y-711464D02*
X2389945D01*
X-353255Y856986D02*
X-302455D01*
X-353255Y-222514D02*
X-302455D01*
X345245Y-762264D02*
Y-711464D01*
X1043745Y-762264D02*
Y-711464D01*
X1742245Y-762264D02*
Y-711464D01*
X-302455Y1345936D02*
X2389945D01*
X345245D02*
Y1396736D01*
X1043745Y1345936D02*
Y1396736D01*
X1742245Y1345936D02*
Y1396736D01*
X-353195Y1397406D02*
X2440805D01*
Y-761594D02*
Y1397406D01*
X2389945Y-711464D02*
Y1345936D01*
Y856986D02*
X2440745D01*
X2389945Y317236D02*
X2440745D01*
X2389945Y-222514D02*
X2440745D01*
X-353195Y-761594D02*
X2440805D01*
X1516245Y1130706D02*
Y1346606D01*
Y1130706D02*
X2390005D01*
X1516245Y1168806D02*
X2389945D01*
X1516245Y1245006D02*
X2390005D01*
X1516245Y1206906D02*
X2389945D01*
X1516245Y1288186D02*
X2389945D01*
X1607685Y1130706D02*
Y1288186D01*
X2102985Y1130706D02*
Y1288186D01*
X2273165Y1130706D02*
Y1288186D01*
X1627945Y-559064D02*
Y-522488D01*
X1246945D02*
X1627945D01*
X817745D02*
X1246945D01*
X1627945Y-711464D02*
Y-559064D01*
X2161345Y-711464D02*
Y-581670D01*
X1246945Y-711464D02*
Y-522488D01*
X2389945Y-711464D02*
Y-522488D01*
X1627945D02*
X2389945D01*
X1246945Y-580908D02*
X2389945D01*
X1246945Y-644154D02*
X2389945D01*
X1246945Y-711464D02*
X2389945D01*
X817745D02*
Y-522488D01*
Y-711464D02*
X1246945D01*
D192*
X645110Y62210D02*
X651610D01*
X648360Y58960D02*
Y65460D01*
X587310Y62210D02*
X593810D01*
X590560Y58960D02*
Y65460D01*
X573260Y67210D02*
X579260D01*
X576260Y64210D02*
Y70210D01*
X573260Y25410D02*
X579260D01*
X576260Y22410D02*
Y28410D01*
X659660Y67210D02*
X665660D01*
X662660Y64210D02*
Y70210D01*
X659660Y25410D02*
X665660D01*
X662660Y22410D02*
Y28410D01*
X224640Y419860D02*
X234640D01*
X229640Y414860D02*
Y424860D01*
X224640Y440180D02*
X234640D01*
X229640Y435180D02*
Y445180D01*
X148440Y430020D02*
X158440D01*
X153440Y425020D02*
Y435020D01*
X148190Y341380D02*
X158190D01*
X153190Y336380D02*
Y346380D01*
X224390Y351540D02*
X234390D01*
X229390Y346540D02*
Y356540D01*
X224390Y331220D02*
X234390D01*
X229390Y326220D02*
Y336220D01*
X503710Y101600D02*
X513870D01*
X508790Y96520D02*
Y106680D01*
X478310Y101600D02*
X488470D01*
X483390Y96520D02*
Y106680D01*
X25000Y55000D02*
X55000D01*
X40000Y40000D02*
Y70000D01*
X945000Y55000D02*
X975000D01*
X960000Y40000D02*
Y70000D01*
X945000Y665000D02*
X975000D01*
X960000Y650000D02*
Y680000D01*
X25000Y665000D02*
X55000D01*
X40000Y650000D02*
Y680000D01*
X292112Y449445D02*
X294652D01*
X293382Y448175D02*
Y450715D01*
X821078Y541927D02*
X823618D01*
X822348Y540657D02*
Y543197D01*
X845180Y532253D02*
X847720D01*
X846450Y530983D02*
Y533523D01*
X639840Y202099D02*
X642380D01*
X641110Y200828D02*
Y203368D01*
X571330Y346600D02*
X573870D01*
X572600Y345330D02*
Y347870D01*
X576030Y338800D02*
X578570D01*
X577300Y337530D02*
Y340070D01*
X571712Y252760D02*
X574252D01*
X572982Y251490D02*
Y254030D01*
X866750Y89940D02*
X869290D01*
X868020Y88670D02*
Y91210D01*
X570330Y486900D02*
X572870D01*
X571600Y485630D02*
Y488170D01*
X432803Y321945D02*
X435303D01*
X434053Y320695D02*
Y323195D01*
X545968Y343311D02*
X548508D01*
X547238Y342041D02*
Y344581D01*
X402530Y305760D02*
X405070D01*
X403800Y304490D02*
Y307030D01*
X555050Y421501D02*
X557590D01*
X556320Y420231D02*
Y422771D01*
X593537Y285760D02*
X596077D01*
X594807Y284490D02*
Y287030D01*
X614630Y258400D02*
X617170D01*
X615900Y257130D02*
Y259670D01*
X802808Y87768D02*
X805348D01*
X804078Y86498D02*
Y89038D01*
X308250Y235200D02*
X310790D01*
X309520Y233930D02*
Y236470D01*
X373030Y246700D02*
X375570D01*
X374300Y245430D02*
Y247970D01*
X512318Y388197D02*
X514859D01*
X513588Y386927D02*
Y389467D01*
X382280Y263005D02*
X384820D01*
X383550Y261735D02*
Y264275D01*
X710579Y39694D02*
X713079D01*
X711829Y38444D02*
Y40944D01*
X689379Y47016D02*
X691879D01*
X690629Y45766D02*
Y48266D01*
X347730Y175937D02*
X350270D01*
X349000Y174667D02*
Y177207D01*
X351630Y184512D02*
X354170D01*
X352900Y183242D02*
Y185782D01*
X395079Y230438D02*
X397618D01*
X396348Y229168D02*
Y231709D01*
X384605Y238386D02*
X387145D01*
X385875Y237116D02*
Y239656D01*
X401830Y264954D02*
X404370D01*
X403100Y263684D02*
Y266224D01*
X351130Y245425D02*
X353670D01*
X352400Y244155D02*
Y246695D01*
X390794Y220360D02*
X393334D01*
X392064Y219090D02*
Y221630D01*
X801430Y182860D02*
X803970D01*
X802700Y181590D02*
Y184130D01*
X863849Y130576D02*
X866389D01*
X865119Y129305D02*
Y131846D01*
X863330Y140286D02*
X865870D01*
X864600Y139016D02*
Y141556D01*
X497286Y337650D02*
X499826D01*
X498556Y336380D02*
Y338920D01*
X529522Y351552D02*
X532062D01*
X530792Y350282D02*
Y352822D01*
X699830Y639662D02*
X702370D01*
X701100Y638392D02*
Y640932D01*
X593082Y207917D02*
X595622D01*
X594352Y206647D02*
Y209188D01*
X748204Y229777D02*
X750744D01*
X749474Y228507D02*
Y231047D01*
X685657Y139700D02*
X688197D01*
X686927Y138430D02*
Y140970D01*
X799956Y147216D02*
X802496D01*
X801226Y145946D02*
Y148486D01*
X709730Y146460D02*
X712270D01*
X711000Y145190D02*
Y147730D01*
X746766Y138132D02*
X749306D01*
X748036Y136862D02*
Y139403D01*
X839342Y138776D02*
X841882D01*
X840612Y137506D02*
Y140045D01*
X703364Y126240D02*
X705904D01*
X704634Y124970D02*
Y127510D01*
X810990Y131110D02*
X813530D01*
X812260Y129840D02*
Y132380D01*
X366563Y292020D02*
X369103D01*
X367833Y290750D02*
Y293290D01*
X385026Y351804D02*
X387566D01*
X386296Y350534D02*
Y353074D01*
X386419Y331944D02*
X388959D01*
X387689Y330674D02*
Y333214D01*
X363216Y345286D02*
X365756D01*
X364486Y344016D02*
Y346556D01*
X354519Y343467D02*
X357059D01*
X355789Y342197D02*
Y344737D01*
X347454Y336420D02*
X349994D01*
X348724Y335150D02*
Y337690D01*
X572830Y146200D02*
X575370D01*
X574100Y144930D02*
Y147470D01*
X571195Y99469D02*
X573735D01*
X572465Y98200D02*
Y100739D01*
X672406Y57323D02*
X674946D01*
X673676Y56052D02*
Y58593D01*
X838200Y157226D02*
X840740D01*
X839470Y155956D02*
Y158496D01*
X625016Y296898D02*
X627556D01*
X626286Y295628D02*
Y298168D01*
X600281Y109710D02*
X602821D01*
X601551Y108440D02*
Y110980D01*
X651164Y300462D02*
X653704D01*
X652434Y299192D02*
Y301732D01*
X307359Y182467D02*
X309899D01*
X308629Y181197D02*
Y183737D01*
X529089Y56251D02*
X531629D01*
X530359Y54981D02*
Y57521D01*
X304214Y330593D02*
X306754D01*
X305484Y329323D02*
Y331863D01*
X302768Y352051D02*
X305308D01*
X304038Y350781D02*
Y353321D01*
X415248Y367148D02*
X417788D01*
X416518Y365878D02*
Y368418D01*
X415579Y380979D02*
X418119D01*
X416849Y379709D02*
Y382249D01*
X441348Y387247D02*
X443888D01*
X442618Y385977D02*
Y388517D01*
X656080Y261705D02*
X658620D01*
X657350Y260435D02*
Y262975D01*
X722780Y302199D02*
X725320D01*
X724050Y300929D02*
Y303469D01*
X722780Y271990D02*
X725320D01*
X724050Y270720D02*
Y273260D01*
X606669Y303887D02*
X609209D01*
X607939Y302617D02*
Y305157D01*
X561852Y368093D02*
X564392D01*
X563122Y366823D02*
Y369363D01*
X520064Y366342D02*
X522604D01*
X521334Y365072D02*
Y367612D01*
X498237Y379559D02*
X500778D01*
X499507Y378289D02*
Y380829D01*
X472943Y380983D02*
X475483D01*
X474213Y379713D02*
Y382253D01*
X450874Y368824D02*
X453414D01*
X452144Y367554D02*
Y370094D01*
X876470Y621427D02*
X879010D01*
X877740Y620157D02*
Y622697D01*
X695512Y509333D02*
X698052D01*
X696782Y508063D02*
Y510603D01*
X791406Y468033D02*
X793946D01*
X792676Y466763D02*
Y469303D01*
X879841Y445693D02*
X882381D01*
X881111Y444423D02*
Y446963D01*
X938428Y489149D02*
X940968D01*
X939698Y487879D02*
Y490419D01*
X893209Y390507D02*
X895749D01*
X894479Y389236D02*
Y391777D01*
X892165Y348959D02*
X894705D01*
X893435Y347689D02*
Y350229D01*
X897385Y260020D02*
X899925D01*
X898655Y258750D02*
Y261290D01*
X912540Y154222D02*
X915080D01*
X913810Y152952D02*
Y155492D01*
X930889Y229523D02*
X933429D01*
X932159Y228253D02*
Y230793D01*
X846919Y195517D02*
X849459D01*
X848189Y194247D02*
Y196787D01*
X858322Y166977D02*
X860862D01*
X859592Y165707D02*
Y168247D01*
X787656Y120169D02*
X790196D01*
X788926Y118899D02*
Y121440D01*
X758856Y119815D02*
X761396D01*
X760126Y118545D02*
Y121084D01*
X684659Y118827D02*
X687199D01*
X685929Y117557D02*
Y120097D01*
X638487Y140944D02*
X641027D01*
X639757Y139674D02*
Y142214D01*
X597174Y178416D02*
X599715D01*
X598445Y177146D02*
Y179686D01*
X575806Y190272D02*
X578346D01*
X577076Y189002D02*
Y191542D01*
X647156Y109867D02*
X649696D01*
X648426Y108596D02*
Y111137D01*
X617030Y152766D02*
X619570D01*
X618300Y151496D02*
Y154036D01*
X489714Y178638D02*
X492254D01*
X490984Y177369D02*
Y179909D01*
X460639Y182088D02*
X463180D01*
X461909Y180818D02*
Y183358D01*
X458130Y140504D02*
X460671D01*
X459400Y139234D02*
Y141774D01*
X488010Y124460D02*
X490550D01*
X489280Y123190D02*
Y125730D01*
X479179Y131582D02*
X481720D01*
X480449Y130312D02*
Y132852D01*
X494365Y114602D02*
X496905D01*
X495635Y113332D02*
Y115872D01*
X580781Y94182D02*
X583321D01*
X582051Y92912D02*
Y95452D01*
X581306Y120176D02*
X583846D01*
X582576Y118906D02*
Y121446D01*
X625692Y101295D02*
X628232D01*
X626962Y100025D02*
Y102565D01*
X640026Y130146D02*
X642567D01*
X641296Y128876D02*
Y131416D01*
X505968Y169495D02*
X508508D01*
X507238Y168225D02*
Y170765D01*
X509575Y138014D02*
X512115D01*
X510845Y136744D02*
Y139284D01*
X605648Y58910D02*
X608148D01*
X606898Y57660D02*
Y60160D01*
X562734Y60100D02*
X565234D01*
X563984Y58850D02*
Y61350D01*
X562642Y24100D02*
X565142D01*
X563892Y22850D02*
Y25350D01*
X683179Y39360D02*
X685679D01*
X684429Y38110D02*
Y40610D01*
X635452Y62542D02*
X637992D01*
X636722Y61272D02*
Y63812D01*
X654530Y81400D02*
X657070D01*
X655800Y80130D02*
Y82670D01*
X621130Y84900D02*
X623670D01*
X622400Y83630D02*
Y86170D01*
X493226Y150361D02*
X495766D01*
X494496Y149092D02*
Y151631D01*
X553312Y97966D02*
X555852D01*
X554582Y96696D02*
Y99236D01*
X562764Y102904D02*
X565304D01*
X564034Y101634D02*
Y104174D01*
X468432Y173082D02*
X470972D01*
X469702Y171812D02*
Y174352D01*
X467700Y148580D02*
X470240D01*
X468970Y147310D02*
Y149850D01*
X607155Y142663D02*
X609695D01*
X608425Y141393D02*
Y143933D01*
X606973Y118096D02*
X609513D01*
X608243Y116826D02*
Y119366D01*
X786261Y81830D02*
X788801D01*
X787531Y80560D02*
Y83100D01*
X397360Y324000D02*
X399901D01*
X398630Y322730D02*
Y325270D01*
X409459Y319536D02*
X411999D01*
X410729Y318266D02*
Y320806D01*
X393321Y292078D02*
X395860D01*
X394590Y290808D02*
Y293348D01*
X407610Y311260D02*
X410110D01*
X408860Y310010D02*
Y312510D01*
X388044Y324162D02*
X390584D01*
X389314Y322892D02*
Y325432D01*
X917838Y278600D02*
X920378D01*
X919108Y277330D02*
Y279870D01*
X604460Y446373D02*
X607000D01*
X605730Y445103D02*
Y447644D01*
X591442Y448860D02*
X593982D01*
X592712Y447590D02*
Y450130D01*
X440100Y143378D02*
X442640D01*
X441370Y142108D02*
Y144649D01*
X444225Y153202D02*
X446765D01*
X445495Y151932D02*
Y154472D01*
X582602Y327058D02*
X585142D01*
X583872Y325788D02*
Y328328D01*
X554830Y263500D02*
X557370D01*
X556100Y262230D02*
Y264770D01*
X559630Y273614D02*
X562170D01*
X560900Y272344D02*
Y274884D01*
X368427Y276371D02*
X370966D01*
X369697Y275102D02*
Y277642D01*
X304900Y198044D02*
X307400D01*
X306150Y196794D02*
Y199294D01*
X382209Y387810D02*
X384709D01*
X383459Y386560D02*
Y389060D01*
X318830Y68130D02*
X321330D01*
X320080Y66880D02*
Y69380D01*
X739162Y232659D02*
X741702D01*
X740432Y231388D02*
Y233929D01*
X752330Y238300D02*
X754870D01*
X753600Y237030D02*
Y239570D01*
X386631Y204315D02*
X389171D01*
X387901Y203045D02*
Y205585D01*
X394794Y207460D02*
X397334D01*
X396064Y206190D02*
Y208730D01*
X373890Y157672D02*
X376430D01*
X375160Y156402D02*
Y158942D01*
X360034Y161462D02*
X362575D01*
X361305Y160192D02*
Y162732D01*
X380742Y159176D02*
X383282D01*
X382012Y157906D02*
Y160446D01*
X404684Y231624D02*
X407225D01*
X405955Y230354D02*
Y232894D01*
X592356Y319536D02*
X594896D01*
X593626Y318266D02*
Y320806D01*
X546686Y322882D02*
X549226D01*
X547956Y321612D02*
Y324152D01*
X541686Y315119D02*
X544226D01*
X542956Y313849D02*
Y316389D01*
X517232Y454595D02*
X519772D01*
X518502Y453325D02*
Y455865D01*
X504532Y454595D02*
X507072D01*
X505802Y453325D02*
Y455865D01*
X529932Y454699D02*
X532472D01*
X531202Y453429D02*
Y455969D01*
X542632Y454595D02*
X545172D01*
X543902Y453325D02*
Y455865D01*
X517024Y432759D02*
X519563D01*
X518293Y431489D02*
Y434029D01*
X504563Y432785D02*
X507104D01*
X505834Y431515D02*
Y434055D01*
X870680Y329011D02*
X873220D01*
X871950Y327741D02*
Y330281D01*
X481564Y329129D02*
X484104D01*
X482834Y327859D02*
Y330399D01*
X920952Y384604D02*
X923492D01*
X922222Y383334D02*
Y385874D01*
X837556Y235998D02*
X840096D01*
X838826Y234728D02*
Y237268D01*
X748656Y261778D02*
X751196D01*
X749926Y260508D02*
Y263048D01*
X811216Y239308D02*
X813756D01*
X812486Y238038D02*
Y240578D01*
X874939Y417319D02*
X877479D01*
X876209Y416049D02*
Y418589D01*
X872419Y381776D02*
X874959D01*
X873689Y380506D02*
Y383046D01*
X873187Y391267D02*
X875727D01*
X874457Y389997D02*
Y392537D01*
X873093Y403757D02*
X875633D01*
X874363Y402487D02*
Y405027D01*
X874720Y353737D02*
X877260D01*
X875990Y352467D02*
Y355008D01*
X873698Y342901D02*
X876238D01*
X874968Y341631D02*
Y344171D01*
X872651Y424566D02*
X875191D01*
X873921Y423296D02*
Y425836D01*
X860510Y429656D02*
X863050D01*
X861780Y428386D02*
Y430926D01*
X596962Y172094D02*
X599502D01*
X598232Y170823D02*
Y173363D01*
X596962Y184632D02*
X599502D01*
X598232Y183362D02*
Y185902D01*
X913883Y105558D02*
X916423D01*
X915153Y104288D02*
Y106828D01*
X872614Y41863D02*
X875154D01*
X873884Y40593D02*
Y43133D01*
X857370Y44959D02*
X859910D01*
X858640Y43689D02*
Y46229D01*
X392430Y107696D02*
X394970D01*
X393700Y106426D02*
Y108966D01*
X902039Y155998D02*
X904579D01*
X903309Y154728D02*
Y157268D01*
X872330Y230500D02*
X874870D01*
X873600Y229230D02*
Y231770D01*
X775627Y320590D02*
X778167D01*
X776897Y319320D02*
Y321860D01*
X775938Y296556D02*
X778478D01*
X777208Y295285D02*
Y297826D01*
X684021Y461766D02*
X686561D01*
X685291Y460496D02*
Y463036D01*
X389420Y413130D02*
X391960D01*
X390690Y411861D02*
Y414400D01*
X377448Y468630D02*
X379988D01*
X378718Y467360D02*
Y469900D01*
X336084Y462700D02*
X338624D01*
X337354Y461430D02*
Y463970D01*
X590299Y330100D02*
X592839D01*
X591569Y328830D02*
Y331370D01*
X631430Y483900D02*
X633970D01*
X632700Y482630D02*
Y485170D01*
X627452Y454052D02*
X629992D01*
X628722Y452782D02*
Y455322D01*
X660350Y501858D02*
X662890D01*
X661620Y500588D02*
Y503128D01*
X433730Y550761D02*
X436270D01*
X435000Y549491D02*
Y552031D01*
X368770Y462933D02*
X371310D01*
X370040Y461663D02*
Y464203D01*
X367230Y578893D02*
X369770D01*
X368500Y577622D02*
Y580163D01*
X629330Y494100D02*
X631870D01*
X630600Y492830D02*
Y495370D01*
X340960Y471879D02*
X343500D01*
X342230Y470609D02*
Y473149D01*
X357730Y482400D02*
X360270D01*
X359000Y481130D02*
Y483670D01*
X363330Y488700D02*
X365870D01*
X364600Y487430D02*
Y489970D01*
X345790Y491300D02*
X348330D01*
X347060Y490030D02*
Y492570D01*
X352000Y500200D02*
X354540D01*
X353270Y498930D02*
Y501470D01*
X657156Y338000D02*
X659696D01*
X658426Y336730D02*
Y339270D01*
X630475Y520478D02*
X633015D01*
X631745Y519208D02*
Y521748D01*
X624552Y527603D02*
X627092D01*
X625822Y526333D02*
Y528873D01*
X276025Y266202D02*
X278565D01*
X277295Y264932D02*
Y267472D01*
X273155Y245425D02*
X275695D01*
X274425Y244155D02*
Y246695D01*
X160861Y240425D02*
X163401D01*
X162131Y239155D02*
Y241695D01*
X121587Y282541D02*
X124127D01*
X122857Y281271D02*
Y283811D01*
X145577Y284044D02*
X148117D01*
X146847Y282774D02*
Y285314D01*
X693537Y630561D02*
X696077D01*
X694807Y629291D02*
Y631831D01*
X665410Y544536D02*
X667950D01*
X666680Y543266D02*
Y545806D01*
X692978Y566316D02*
X695518D01*
X694248Y565047D02*
Y567587D01*
X656181Y381735D02*
X658721D01*
X657451Y380465D02*
Y383005D01*
X316520Y448606D02*
X319060D01*
X317790Y447337D02*
Y449877D01*
X635698Y382034D02*
X638237D01*
X636968Y380764D02*
Y383304D01*
X555755Y431648D02*
X558295D01*
X557025Y430378D02*
Y432918D01*
X750804Y611697D02*
X753344D01*
X752074Y610427D02*
Y612967D01*
X849628Y555884D02*
X852168D01*
X850898Y554614D02*
Y557154D01*
X892825Y543413D02*
X895365D01*
X894095Y542143D02*
Y544683D01*
X885562Y560616D02*
X888102D01*
X886832Y559346D02*
Y561886D01*
X924899Y585387D02*
X927439D01*
X926169Y584117D02*
Y586657D01*
X939899Y570267D02*
X942439D01*
X941169Y568997D02*
Y571537D01*
X949536Y586074D02*
X952076D01*
X950806Y584804D02*
Y587344D01*
X924099Y613952D02*
X926639D01*
X925369Y612682D02*
Y615222D01*
X910969Y631767D02*
X913509D01*
X912239Y630497D02*
Y633037D01*
X750007Y644147D02*
X752547D01*
X751277Y642877D02*
Y645417D01*
X719777Y644767D02*
X722317D01*
X721047Y643497D02*
Y646037D01*
X774376Y631151D02*
X776916D01*
X775646Y629880D02*
Y632421D01*
X619385Y604754D02*
X621925D01*
X620655Y603484D02*
Y606024D01*
X639628Y604543D02*
X642169D01*
X640899Y603273D02*
Y605813D01*
X610988Y579405D02*
X613528D01*
X612258Y578135D02*
Y580675D01*
X586796Y577357D02*
X589336D01*
X588066Y576087D02*
Y578627D01*
X545786Y497988D02*
X548326D01*
X547056Y496718D02*
Y499258D01*
X420499Y506967D02*
X423039D01*
X421769Y505697D02*
Y508237D01*
X464840Y485607D02*
X467380D01*
X466110Y484337D02*
Y486877D01*
X443089Y484935D02*
X445629D01*
X444359Y483665D02*
Y486205D01*
X440088Y510233D02*
X442628D01*
X441358Y508963D02*
Y511502D01*
X295419Y499477D02*
X297959D01*
X296689Y498207D02*
Y500747D01*
X273676Y515093D02*
X276216D01*
X274946Y513823D02*
Y516362D01*
X270049Y467337D02*
X272589D01*
X271319Y466067D02*
Y468607D01*
X267220Y445745D02*
X269760D01*
X268490Y444475D02*
Y447015D01*
X250767Y469607D02*
X253307D01*
X252037Y468337D02*
Y470877D01*
X223686Y474459D02*
X226226D01*
X224956Y473189D02*
Y475729D01*
X183965Y453398D02*
X186505D01*
X185235Y452128D02*
Y454668D01*
X202981Y460343D02*
X205521D01*
X204251Y459073D02*
Y461613D01*
X171286Y467566D02*
X173826D01*
X172556Y466296D02*
Y468836D01*
X215149Y595457D02*
X217689D01*
X216419Y594188D02*
Y596727D01*
X261699Y594040D02*
X264239D01*
X262969Y592770D02*
Y595310D01*
X251499Y606447D02*
X254039D01*
X252769Y605177D02*
Y607717D01*
X207439Y606623D02*
X209979D01*
X208709Y605353D02*
Y607893D01*
X148751Y606477D02*
X151292D01*
X150021Y605207D02*
Y607747D01*
X57087Y616630D02*
X59627D01*
X58357Y615360D02*
Y617900D01*
X51569Y568332D02*
X54109D01*
X52839Y567062D02*
Y569602D01*
X51299Y552067D02*
X53839D01*
X52569Y550797D02*
Y553337D01*
X52199Y532637D02*
X54739D01*
X53469Y531367D02*
Y533907D01*
X50599Y499349D02*
X53139D01*
X51869Y498079D02*
Y500619D01*
X53199Y473267D02*
X55739D01*
X54469Y471997D02*
Y474537D01*
X246599Y210667D02*
X249139D01*
X247869Y209397D02*
Y211937D01*
X195813Y209831D02*
X198353D01*
X197083Y208561D02*
Y211101D01*
X146862Y210542D02*
X149402D01*
X148132Y209272D02*
Y211812D01*
X53099Y143167D02*
X55639D01*
X54369Y141897D02*
Y144437D01*
X53099Y219267D02*
X55639D01*
X54369Y217997D02*
Y220537D01*
X53799Y244690D02*
X56339D01*
X55069Y243420D02*
Y245960D01*
X53699Y307196D02*
X56239D01*
X54969Y305926D02*
Y308466D01*
X53199Y394952D02*
X55739D01*
X54469Y393682D02*
Y396222D01*
X291572Y530972D02*
X294112D01*
X292842Y529702D02*
Y532242D01*
X389934Y528354D02*
X392474D01*
X391204Y527084D02*
Y529624D01*
X400697Y509315D02*
X403237D01*
X401967Y508045D02*
Y510585D01*
X415776Y487303D02*
X418316D01*
X417046Y486033D02*
Y488573D01*
X441518Y446339D02*
X444058D01*
X442788Y445069D02*
Y447608D01*
X892283Y291040D02*
X894823D01*
X893553Y289771D02*
Y292311D01*
X195544Y341122D02*
X198084D01*
X196814Y339852D02*
Y342392D01*
X184207Y429160D02*
X186747D01*
X185477Y427890D02*
Y430430D01*
X243332Y337312D02*
X245872D01*
X244602Y336042D02*
Y338582D01*
X175244Y325162D02*
X177784D01*
X176514Y323892D02*
Y326432D01*
X183896Y341122D02*
X186436D01*
X185166Y339852D02*
Y342392D01*
X208574Y341880D02*
X211114D01*
X209844Y340610D02*
Y343150D01*
X243100Y327282D02*
X245640D01*
X244370Y326012D02*
Y328552D01*
X238353Y319098D02*
X240893D01*
X239622Y317828D02*
Y320368D01*
X223120Y360417D02*
X225660D01*
X224390Y359147D02*
Y361687D01*
X141270Y347448D02*
X143810D01*
X142540Y346178D02*
Y348718D01*
X738645Y81174D02*
X741145D01*
X739895Y79924D02*
Y82424D01*
X745144Y89324D02*
X747644D01*
X746394Y88074D02*
Y90574D01*
X751616Y95085D02*
X754116D01*
X752866Y93835D02*
Y96335D01*
X713296Y182374D02*
X715836D01*
X714566Y181104D02*
Y183644D01*
X685657Y130048D02*
X688197D01*
X686927Y128778D02*
Y131318D01*
X685657Y150016D02*
X688197D01*
X686927Y148747D02*
Y151286D01*
X722243Y176694D02*
X724783D01*
X723513Y175424D02*
Y177964D01*
X687324Y189738D02*
X689864D01*
X688594Y188468D02*
Y191008D01*
X739480Y184512D02*
X742020D01*
X740750Y183242D02*
Y185782D01*
X747776Y153416D02*
X750316D01*
X749046Y152146D02*
Y154686D01*
X717219Y135935D02*
X719759D01*
X718489Y134665D02*
Y137205D01*
X715330Y128572D02*
X717870D01*
X716600Y127302D02*
Y129842D01*
X806220Y136946D02*
X808760D01*
X807490Y135676D02*
Y138216D01*
X805930Y123225D02*
X808470D01*
X807200Y121955D02*
Y124495D01*
X78980Y386504D02*
X81520D01*
X80250Y385234D02*
Y387774D01*
X889142Y328153D02*
X891682D01*
X890412Y326883D02*
Y329423D01*
X889843Y398100D02*
X892383D01*
X891113Y396830D02*
Y399370D01*
X889843Y423500D02*
X892383D01*
X891113Y422230D02*
Y424770D01*
X78980Y411304D02*
X81520D01*
X80250Y410034D02*
Y412574D01*
X78980Y437044D02*
X81520D01*
X80250Y435774D02*
Y438314D01*
X78980Y461844D02*
X81520D01*
X80250Y460574D02*
Y463114D01*
X28480Y435356D02*
X31020D01*
X29750Y434086D02*
Y436626D01*
X28480Y410406D02*
X31020D01*
X29750Y409136D02*
Y411676D01*
X28480Y383956D02*
X31020D01*
X29750Y382686D02*
Y385226D01*
X28480Y333756D02*
X31020D01*
X29750Y332486D02*
Y335026D01*
X28480Y308356D02*
X31020D01*
X29750Y307086D02*
Y309626D01*
X28480Y256956D02*
X31020D01*
X29750Y255686D02*
Y258226D01*
X28480Y282956D02*
X31020D01*
X29750Y281686D02*
Y284226D01*
X28480Y232156D02*
X31020D01*
X29750Y230886D02*
Y233426D01*
X28480Y206756D02*
X31020D01*
X29750Y205486D02*
Y208026D01*
X28480Y181356D02*
X31020D01*
X29750Y180086D02*
Y182626D01*
X28480Y155956D02*
X31020D01*
X29750Y154686D02*
Y157226D01*
X28480Y130806D02*
X31020D01*
X29750Y129536D02*
Y132076D01*
X968980Y613156D02*
X971520D01*
X970250Y611886D02*
Y614426D01*
X968730Y130806D02*
X971270D01*
X970000Y129536D02*
Y132076D01*
X968980Y155356D02*
X971520D01*
X970250Y154086D02*
Y156626D01*
X775290Y150016D02*
X777830D01*
X776560Y148747D02*
Y151286D01*
X775290Y139700D02*
X777830D01*
X776560Y138430D02*
Y140970D01*
X773271Y191729D02*
X775811D01*
X774541Y190459D02*
Y192999D01*
X820530Y192400D02*
X823070D01*
X821800Y191130D02*
Y193670D01*
X809776Y176692D02*
X812316D01*
X811046Y175422D02*
Y177962D01*
X775290Y130048D02*
X777830D01*
X776560Y128778D02*
Y131318D01*
X296468Y227498D02*
X299008D01*
X297738Y226228D02*
Y228768D01*
X91954Y179806D02*
X94454D01*
X93204Y178556D02*
Y181056D01*
X334045Y165800D02*
X336585D01*
X335315Y164530D02*
Y167070D01*
X445064Y525010D02*
X447604D01*
X446334Y523740D02*
Y526280D01*
X483929Y543280D02*
X486469D01*
X485199Y542010D02*
Y544550D01*
X601594Y152319D02*
X604134D01*
X602864Y151049D02*
Y153589D01*
X594259Y240583D02*
X596799D01*
X595529Y239313D02*
Y241853D01*
X590500Y142746D02*
X593040D01*
X591770Y141476D02*
Y144016D01*
X590495Y118096D02*
X593036D01*
X591766Y116826D02*
Y119366D01*
X552320Y201460D02*
X554860D01*
X553590Y200190D02*
Y202730D01*
X557029Y196751D02*
X559569D01*
X558299Y195481D02*
Y198021D01*
X573270Y204740D02*
X575810D01*
X574540Y203470D02*
Y206010D01*
X566610Y204740D02*
X569150D01*
X567880Y203470D02*
Y206010D01*
X594540Y218300D02*
X597080D01*
X595810Y217030D02*
Y219570D01*
X569390Y218304D02*
X571930D01*
X570660Y217034D02*
Y219574D01*
X628396Y392934D02*
X630936D01*
X629666Y391664D02*
Y394204D01*
X226473Y400717D02*
X229013D01*
X227743Y399447D02*
Y401987D01*
X220237Y403856D02*
X222777D01*
X221507Y402586D02*
Y405126D01*
X606212Y183385D02*
X608752D01*
X607482Y182115D02*
Y184655D01*
X606552Y173736D02*
X609092D01*
X607822Y172466D02*
Y175006D01*
X614901Y176261D02*
X617441D01*
X616171Y174991D02*
Y177531D01*
X415060Y685286D02*
X417600D01*
X416330Y684016D02*
Y686556D01*
X399590Y656421D02*
X402130D01*
X400860Y655151D02*
Y657691D01*
X415060Y635394D02*
X417600D01*
X416330Y634124D02*
Y636664D01*
X400715Y634899D02*
X403255D01*
X401985Y633629D02*
Y636169D01*
X428566Y634492D02*
X431106D01*
X429836Y633222D02*
Y635762D01*
X444919Y667762D02*
X447458D01*
X446189Y666492D02*
Y669032D01*
X470730Y660000D02*
X473270D01*
X472000Y658730D02*
Y661270D01*
X850146Y287873D02*
X852686D01*
X851416Y286603D02*
Y289143D01*
X803656Y340929D02*
X806196D01*
X804926Y339659D02*
Y342199D01*
X885158Y35478D02*
X887698D01*
X886428Y34208D02*
Y36748D01*
X942970Y10065D02*
X945470D01*
X944220Y8815D02*
Y11315D01*
X917570Y10065D02*
X920070D01*
X918820Y8815D02*
Y11315D01*
X866770Y10065D02*
X869270D01*
X868020Y8815D02*
Y11315D01*
X840809Y9995D02*
X843309D01*
X842059Y8745D02*
Y11245D01*
X815970Y10065D02*
X818470D01*
X817220Y8815D02*
Y11315D01*
X790570Y10065D02*
X793070D01*
X791820Y8815D02*
Y11315D01*
X765170Y10065D02*
X767670D01*
X766420Y8815D02*
Y11315D01*
X739770Y10065D02*
X742270D01*
X741020Y8815D02*
Y11315D01*
X714370Y10065D02*
X716870D01*
X715620Y8815D02*
Y11315D01*
X688970Y10065D02*
X691470D01*
X690220Y8815D02*
Y11315D01*
X663570Y10065D02*
X666070D01*
X664820Y8815D02*
Y11315D01*
X638170Y10065D02*
X640670D01*
X639420Y8815D02*
Y11315D01*
X607690Y10065D02*
X610190D01*
X608940Y8815D02*
Y11315D01*
X550102Y10190D02*
X552602D01*
X551352Y8940D02*
Y11440D01*
X524702Y10190D02*
X527202D01*
X525952Y8940D02*
Y11440D01*
X499302Y10190D02*
X501802D01*
X500552Y8940D02*
Y11440D01*
X473902Y10190D02*
X476402D01*
X475152Y8940D02*
Y11440D01*
X448502Y10190D02*
X451002D01*
X449752Y8940D02*
Y11440D01*
X423102Y10190D02*
X425602D01*
X424352Y8940D02*
Y11440D01*
X397702Y10190D02*
X400202D01*
X398952Y8940D02*
Y11440D01*
X372302Y10190D02*
X374802D01*
X373552Y8940D02*
Y11440D01*
X321502Y10190D02*
X324002D01*
X322752Y8940D02*
Y11440D01*
X295541Y10120D02*
X298041D01*
X296791Y8870D02*
Y11370D01*
X270702Y10190D02*
X273202D01*
X271952Y8940D02*
Y11440D01*
X245302Y10190D02*
X247802D01*
X246552Y8940D02*
Y11440D01*
X219902Y10190D02*
X222402D01*
X221152Y8940D02*
Y11440D01*
X194502Y10190D02*
X197002D01*
X195752Y8940D02*
Y11440D01*
X169102Y10190D02*
X171602D01*
X170352Y8940D02*
Y11440D01*
X143702Y10190D02*
X146202D01*
X144952Y8940D02*
Y11440D01*
X118302Y10190D02*
X120802D01*
X119552Y8940D02*
Y11440D01*
X92902Y10190D02*
X95402D01*
X94152Y8940D02*
Y11440D01*
X62422Y10190D02*
X64922D01*
X63672Y8940D02*
Y11440D01*
X575502Y10190D02*
X578002D01*
X576752Y8940D02*
Y11440D01*
X590742Y10190D02*
X593242D01*
X591992Y8940D02*
Y11440D01*
X985200Y588941D02*
X987700D01*
X986450Y587691D02*
Y590191D01*
X985200Y563541D02*
X987700D01*
X986450Y562291D02*
Y564791D01*
X985200Y538141D02*
X987700D01*
X986450Y536891D02*
Y539391D01*
X985200Y512741D02*
X987700D01*
X986450Y511491D02*
Y513991D01*
X985200Y487341D02*
X987700D01*
X986450Y486091D02*
Y488591D01*
X985200Y461941D02*
X987700D01*
X986450Y460691D02*
Y463191D01*
X985200Y436541D02*
X987700D01*
X986450Y435291D02*
Y437791D01*
X985200Y411141D02*
X987700D01*
X986450Y409891D02*
Y412391D01*
X985200Y385741D02*
X987700D01*
X986450Y384491D02*
Y386991D01*
X985200Y360341D02*
X987700D01*
X986450Y359091D02*
Y361591D01*
X985270Y334380D02*
X987770D01*
X986520Y333130D02*
Y335630D01*
X985200Y309541D02*
X987700D01*
X986450Y308291D02*
Y310791D01*
X985200Y284141D02*
X987700D01*
X986450Y282891D02*
Y285391D01*
X985200Y258741D02*
X987700D01*
X986450Y257491D02*
Y259991D01*
X985200Y233341D02*
X987700D01*
X986450Y232091D02*
Y234591D01*
X985200Y207941D02*
X987700D01*
X986450Y206691D02*
Y209191D01*
X985200Y182541D02*
X987700D01*
X986450Y181291D02*
Y183791D01*
X985200Y157141D02*
X987700D01*
X986450Y155891D02*
Y158391D01*
X985200Y131741D02*
X987700D01*
X986450Y130491D02*
Y132991D01*
X985200Y101261D02*
X987700D01*
X986450Y100011D02*
Y102511D01*
X985200Y614341D02*
X987700D01*
X986450Y613091D02*
Y615591D01*
X985200Y629581D02*
X987700D01*
X986450Y628331D02*
Y630831D01*
X13450Y588690D02*
X15950D01*
X14700Y587440D02*
Y589940D01*
X13450Y563290D02*
X15950D01*
X14700Y562040D02*
Y564540D01*
X13450Y537890D02*
X15950D01*
X14700Y536640D02*
Y539140D01*
X13450Y512490D02*
X15950D01*
X14700Y511240D02*
Y513740D01*
X13450Y487090D02*
X15950D01*
X14700Y485840D02*
Y488340D01*
X13450Y461690D02*
X15950D01*
X14700Y460440D02*
Y462940D01*
X13450Y436290D02*
X15950D01*
X14700Y435040D02*
Y437540D01*
X13450Y410890D02*
X15950D01*
X14700Y409640D02*
Y412140D01*
X13450Y385490D02*
X15950D01*
X14700Y384240D02*
Y386740D01*
X13450Y360090D02*
X15950D01*
X14700Y358840D02*
Y361340D01*
X13520Y334129D02*
X16020D01*
X14770Y332879D02*
Y335379D01*
X13450Y309290D02*
X15950D01*
X14700Y308040D02*
Y310540D01*
X13450Y283890D02*
X15950D01*
X14700Y282640D02*
Y285140D01*
X13450Y258490D02*
X15950D01*
X14700Y257240D02*
Y259740D01*
X13450Y233090D02*
X15950D01*
X14700Y231840D02*
Y234340D01*
X13450Y207690D02*
X15950D01*
X14700Y206440D02*
Y208940D01*
X13450Y182290D02*
X15950D01*
X14700Y181040D02*
Y183540D01*
X13450Y156890D02*
X15950D01*
X14700Y155640D02*
Y158140D01*
X13450Y131490D02*
X15950D01*
X14700Y130240D02*
Y132740D01*
X13450Y101010D02*
X15950D01*
X14700Y99760D02*
Y102260D01*
X13450Y614090D02*
X15950D01*
X14700Y612840D02*
Y615340D01*
X13450Y629330D02*
X15950D01*
X14700Y628080D02*
Y630580D01*
X548348Y220504D02*
X550887D01*
X549618Y219235D02*
Y221775D01*
X790123Y591142D02*
X792663D01*
X791393Y589872D02*
Y592412D01*
X723898Y583921D02*
X726438D01*
X725168Y582651D02*
Y585191D01*
X754386Y587760D02*
X756926D01*
X755656Y586490D02*
Y589030D01*
X715890Y573425D02*
X718430D01*
X717160Y572155D02*
Y574695D01*
X789173Y661817D02*
X791713D01*
X790443Y660547D02*
Y663087D01*
X136934Y413795D02*
X139474D01*
X138204Y412524D02*
Y415065D01*
X151439Y454488D02*
X153979D01*
X152709Y453218D02*
Y455758D01*
X223190Y659090D02*
X225730D01*
X224460Y657820D02*
Y660360D01*
X233426Y389890D02*
X235966D01*
X234696Y388620D02*
Y391160D01*
X976954Y629806D02*
X979454D01*
X978204Y628556D02*
Y631056D01*
X976954Y614806D02*
X979454D01*
X978204Y613556D02*
Y616056D01*
X976954Y509806D02*
X979454D01*
X978204Y508556D02*
Y511056D01*
X976954Y104806D02*
X979454D01*
X978204Y103556D02*
Y106056D01*
X976954Y89806D02*
X979454D01*
X978204Y88556D02*
Y91056D01*
X961954Y629806D02*
X964454D01*
X963204Y628556D02*
Y631056D01*
X961954Y614806D02*
X964454D01*
X963204Y613556D02*
Y616056D01*
X961954Y104806D02*
X964454D01*
X963204Y103556D02*
Y106056D01*
X961954Y89806D02*
X964454D01*
X963204Y88556D02*
Y91056D01*
X946954Y629806D02*
X949454D01*
X948204Y628556D02*
Y631056D01*
X946954Y614806D02*
X949454D01*
X948204Y613556D02*
Y616056D01*
X946954Y599806D02*
X949454D01*
X948204Y598556D02*
Y601056D01*
X946954Y434806D02*
X949454D01*
X948204Y433556D02*
Y436056D01*
X946954Y344806D02*
X949454D01*
X948204Y343556D02*
Y346056D01*
X946954Y299806D02*
X949454D01*
X948204Y298556D02*
Y301056D01*
X946954Y179806D02*
X949454D01*
X948204Y178556D02*
Y181056D01*
X946954Y164806D02*
X949454D01*
X948204Y163556D02*
Y166056D01*
X946954Y149806D02*
X949454D01*
X948204Y148556D02*
Y151056D01*
X946954Y134806D02*
X949454D01*
X948204Y133556D02*
Y136056D01*
X946954Y119806D02*
X949454D01*
X948204Y118556D02*
Y121056D01*
X946954Y104806D02*
X949454D01*
X948204Y103556D02*
Y106056D01*
X946954Y89806D02*
X949454D01*
X948204Y88556D02*
Y91056D01*
X931954Y689806D02*
X934454D01*
X933204Y688556D02*
Y691056D01*
X931954Y89806D02*
X934454D01*
X933204Y88556D02*
Y91056D01*
X916954Y689806D02*
X919454D01*
X918204Y688556D02*
Y691056D01*
X916954Y674806D02*
X919454D01*
X918204Y673556D02*
Y676056D01*
X916954Y659806D02*
X919454D01*
X918204Y658556D02*
Y661056D01*
X916954Y89806D02*
X919454D01*
X918204Y88556D02*
Y91056D01*
X916954Y44806D02*
X919454D01*
X918204Y43556D02*
Y46056D01*
X901954Y689806D02*
X904454D01*
X903204Y688556D02*
Y691056D01*
X901954Y674806D02*
X904454D01*
X903204Y673556D02*
Y676056D01*
X901954Y659806D02*
X904454D01*
X903204Y658556D02*
Y661056D01*
X886954Y689806D02*
X889454D01*
X888204Y688556D02*
Y691056D01*
X886954Y524806D02*
X889454D01*
X888204Y523556D02*
Y526056D01*
X886954Y494806D02*
X889454D01*
X888204Y493556D02*
Y496056D01*
X886954Y119806D02*
X889454D01*
X888204Y118556D02*
Y121056D01*
X871954Y689806D02*
X874454D01*
X873204Y688556D02*
Y691056D01*
X856954Y689806D02*
X859454D01*
X858204Y688556D02*
Y691056D01*
X856954Y674806D02*
X859454D01*
X858204Y673556D02*
Y676056D01*
X841954Y689806D02*
X844454D01*
X843204Y688556D02*
Y691056D01*
X826954Y689806D02*
X829454D01*
X828204Y688556D02*
Y691056D01*
X826954Y674806D02*
X829454D01*
X828204Y673556D02*
Y676056D01*
X826954Y659806D02*
X829454D01*
X828204Y658556D02*
Y661056D01*
X826954Y614806D02*
X829454D01*
X828204Y613556D02*
Y616056D01*
X811954Y689806D02*
X814454D01*
X813204Y688556D02*
Y691056D01*
X811954Y74806D02*
X814454D01*
X813204Y73556D02*
Y76056D01*
X796954Y689806D02*
X799454D01*
X798204Y688556D02*
Y691056D01*
X796954Y524806D02*
X799454D01*
X798204Y523556D02*
Y526056D01*
X796954Y494806D02*
X799454D01*
X798204Y493556D02*
Y496056D01*
X796954Y299806D02*
X799454D01*
X798204Y298556D02*
Y301056D01*
X796954Y59806D02*
X799454D01*
X798204Y58556D02*
Y61056D01*
X781954Y689806D02*
X784454D01*
X783204Y688556D02*
Y691056D01*
X781954Y659806D02*
X784454D01*
X783204Y658556D02*
Y661056D01*
X781954Y644806D02*
X784454D01*
X783204Y643556D02*
Y646056D01*
X781954Y434806D02*
X784454D01*
X783204Y433556D02*
Y436056D01*
X766954Y689806D02*
X769454D01*
X768204Y688556D02*
Y691056D01*
X751954Y689806D02*
X754454D01*
X753204Y688556D02*
Y691056D01*
X751954Y674806D02*
X754454D01*
X753204Y673556D02*
Y676056D01*
X751954Y659806D02*
X754454D01*
X753204Y658556D02*
Y661056D01*
X751954Y434806D02*
X754454D01*
X753204Y433556D02*
Y436056D01*
X736954Y689806D02*
X739454D01*
X738204Y688556D02*
Y691056D01*
X721954Y689806D02*
X724454D01*
X723204Y688556D02*
Y691056D01*
X706954Y689806D02*
X709454D01*
X708204Y688556D02*
Y691056D01*
X706954Y674806D02*
X709454D01*
X708204Y673556D02*
Y676056D01*
X706954Y659806D02*
X709454D01*
X708204Y658556D02*
Y661056D01*
X691954Y689806D02*
X694454D01*
X693204Y688556D02*
Y691056D01*
X691954Y674806D02*
X694454D01*
X693204Y673556D02*
Y676056D01*
X691954Y659806D02*
X694454D01*
X693204Y658556D02*
Y661056D01*
X691954Y644806D02*
X694454D01*
X693204Y643556D02*
Y646056D01*
X676954Y689806D02*
X679454D01*
X678204Y688556D02*
Y691056D01*
X676954Y674806D02*
X679454D01*
X678204Y673556D02*
Y676056D01*
X676954Y659806D02*
X679454D01*
X678204Y658556D02*
Y661056D01*
X676954Y644806D02*
X679454D01*
X678204Y643556D02*
Y646056D01*
X661954Y689806D02*
X664454D01*
X663204Y688556D02*
Y691056D01*
X661954Y674806D02*
X664454D01*
X663204Y673556D02*
Y676056D01*
X661954Y659806D02*
X664454D01*
X663204Y658556D02*
Y661056D01*
X646954Y689806D02*
X649454D01*
X648204Y688556D02*
Y691056D01*
X646954Y674806D02*
X649454D01*
X648204Y673556D02*
Y676056D01*
X646954Y659806D02*
X649454D01*
X648204Y658556D02*
Y661056D01*
X631954Y689806D02*
X634454D01*
X633204Y688556D02*
Y691056D01*
X631954Y674806D02*
X634454D01*
X633204Y673556D02*
Y676056D01*
X616954Y689806D02*
X619454D01*
X618204Y688556D02*
Y691056D01*
X616954Y674806D02*
X619454D01*
X618204Y673556D02*
Y676056D01*
X601954Y689806D02*
X604454D01*
X603204Y688556D02*
Y691056D01*
X586954Y689806D02*
X589454D01*
X588204Y688556D02*
Y691056D01*
X586954Y674806D02*
X589454D01*
X588204Y673556D02*
Y676056D01*
X571954Y689806D02*
X574454D01*
X573204Y688556D02*
Y691056D01*
X556954Y689806D02*
X559454D01*
X558204Y688556D02*
Y691056D01*
X496954Y479806D02*
X499454D01*
X498204Y478556D02*
Y481056D01*
X436954Y689806D02*
X439454D01*
X438204Y688556D02*
Y691056D01*
X421954Y689806D02*
X424454D01*
X423204Y688556D02*
Y691056D01*
X421954Y629806D02*
X424454D01*
X423204Y628556D02*
Y631056D01*
X421954Y449806D02*
X424454D01*
X423204Y448556D02*
Y451056D01*
X406954Y689806D02*
X409454D01*
X408204Y688556D02*
Y691056D01*
X406954Y629806D02*
X409454D01*
X408204Y628556D02*
Y631056D01*
X406954Y434806D02*
X409454D01*
X408204Y433556D02*
Y436056D01*
X391954Y689806D02*
X394454D01*
X393204Y688556D02*
Y691056D01*
X391954Y674806D02*
X394454D01*
X393204Y673556D02*
Y676056D01*
X391954Y659806D02*
X394454D01*
X393204Y658556D02*
Y661056D01*
X391954Y644806D02*
X394454D01*
X393204Y643556D02*
Y646056D01*
X376954Y659806D02*
X379454D01*
X378204Y658556D02*
Y661056D01*
X376954Y644806D02*
X379454D01*
X378204Y643556D02*
Y646056D01*
X361954Y689806D02*
X364454D01*
X363204Y688556D02*
Y691056D01*
X361954Y674806D02*
X364454D01*
X363204Y673556D02*
Y676056D01*
X361954Y659806D02*
X364454D01*
X363204Y658556D02*
Y661056D01*
X346954Y689806D02*
X349454D01*
X348204Y688556D02*
Y691056D01*
X346954Y674806D02*
X349454D01*
X348204Y673556D02*
Y676056D01*
X346954Y659806D02*
X349454D01*
X348204Y658556D02*
Y661056D01*
X346954Y44806D02*
X349454D01*
X348204Y43556D02*
Y46056D01*
X331954Y659806D02*
X334454D01*
X333204Y658556D02*
Y661056D01*
X331954Y44806D02*
X334454D01*
X333204Y43556D02*
Y46056D01*
X316954Y659806D02*
X319454D01*
X318204Y658556D02*
Y661056D01*
X316954Y644806D02*
X319454D01*
X318204Y643556D02*
Y646056D01*
X316954Y629806D02*
X319454D01*
X318204Y628556D02*
Y631056D01*
X316954Y44806D02*
X319454D01*
X318204Y43556D02*
Y46056D01*
X301954Y689806D02*
X304454D01*
X303204Y688556D02*
Y691056D01*
X301954Y674806D02*
X304454D01*
X303204Y673556D02*
Y676056D01*
X301954Y659806D02*
X304454D01*
X303204Y658556D02*
Y661056D01*
X301954Y644806D02*
X304454D01*
X303204Y643556D02*
Y646056D01*
X301954Y629806D02*
X304454D01*
X303204Y628556D02*
Y631056D01*
X286954Y689806D02*
X289454D01*
X288204Y688556D02*
Y691056D01*
X286954Y674806D02*
X289454D01*
X288204Y673556D02*
Y676056D01*
X286954Y659806D02*
X289454D01*
X288204Y658556D02*
Y661056D01*
X286954Y644806D02*
X289454D01*
X288204Y643556D02*
Y646056D01*
X286954Y629806D02*
X289454D01*
X288204Y628556D02*
Y631056D01*
X286954Y194806D02*
X289454D01*
X288204Y193556D02*
Y196056D01*
X271954Y689806D02*
X274454D01*
X273204Y688556D02*
Y691056D01*
X271954Y674806D02*
X274454D01*
X273204Y673556D02*
Y676056D01*
X271954Y659806D02*
X274454D01*
X273204Y658556D02*
Y661056D01*
X271954Y644806D02*
X274454D01*
X273204Y643556D02*
Y646056D01*
X271954Y629806D02*
X274454D01*
X273204Y628556D02*
Y631056D01*
X271954Y554806D02*
X274454D01*
X273204Y553556D02*
Y556056D01*
X271954Y194806D02*
X274454D01*
X273204Y193556D02*
Y196056D01*
X256954Y644806D02*
X259454D01*
X258204Y643556D02*
Y646056D01*
X256954Y629806D02*
X259454D01*
X258204Y628556D02*
Y631056D01*
X196954Y554806D02*
X199454D01*
X198204Y553556D02*
Y556056D01*
X196954Y194806D02*
X199454D01*
X198204Y193556D02*
Y196056D01*
X181954Y689806D02*
X184454D01*
X183204Y688556D02*
Y691056D01*
X181954Y674806D02*
X184454D01*
X183204Y673556D02*
Y676056D01*
X181954Y194806D02*
X184454D01*
X183204Y193556D02*
Y196056D01*
X166954Y689806D02*
X169454D01*
X168204Y688556D02*
Y691056D01*
X166954Y674806D02*
X169454D01*
X168204Y673556D02*
Y676056D01*
X166954Y194806D02*
X169454D01*
X168204Y193556D02*
Y196056D01*
X166954Y179806D02*
X169454D01*
X168204Y178556D02*
Y181056D01*
X151954Y689806D02*
X154454D01*
X153204Y688556D02*
Y691056D01*
X151954Y674806D02*
X154454D01*
X153204Y673556D02*
Y676056D01*
X151954Y629806D02*
X154454D01*
X153204Y628556D02*
Y631056D01*
X151954Y194806D02*
X154454D01*
X153204Y193556D02*
Y196056D01*
X151954Y179806D02*
X154454D01*
X153204Y178556D02*
Y181056D01*
X151954Y44806D02*
X154454D01*
X153204Y43556D02*
Y46056D01*
X136954Y629806D02*
X139454D01*
X138204Y628556D02*
Y631056D01*
X136954Y194806D02*
X139454D01*
X138204Y193556D02*
Y196056D01*
X136954Y179806D02*
X139454D01*
X138204Y178556D02*
Y181056D01*
X136954Y149806D02*
X139454D01*
X138204Y148556D02*
Y151056D01*
X136954Y74806D02*
X139454D01*
X138204Y73556D02*
Y76056D01*
X136954Y59806D02*
X139454D01*
X138204Y58556D02*
Y61056D01*
X136954Y44806D02*
X139454D01*
X138204Y43556D02*
Y46056D01*
X121954Y689806D02*
X124454D01*
X123204Y688556D02*
Y691056D01*
X121954Y674806D02*
X124454D01*
X123204Y673556D02*
Y676056D01*
X121954Y629806D02*
X124454D01*
X123204Y628556D02*
Y631056D01*
X121954Y494806D02*
X124454D01*
X123204Y493556D02*
Y496056D01*
X121954Y464806D02*
X124454D01*
X123204Y463556D02*
Y466056D01*
X121954Y389806D02*
X124454D01*
X123204Y388556D02*
Y391056D01*
X121954Y374806D02*
X124454D01*
X123204Y373556D02*
Y376056D01*
X121954Y329806D02*
X124454D01*
X123204Y328556D02*
Y331056D01*
X121954Y314806D02*
X124454D01*
X123204Y313556D02*
Y316056D01*
X121954Y194806D02*
X124454D01*
X123204Y193556D02*
Y196056D01*
X121954Y179806D02*
X124454D01*
X123204Y178556D02*
Y181056D01*
X121954Y149806D02*
X124454D01*
X123204Y148556D02*
Y151056D01*
X121954Y59806D02*
X124454D01*
X123204Y58556D02*
Y61056D01*
X121954Y44806D02*
X124454D01*
X123204Y43556D02*
Y46056D01*
X106954Y689806D02*
X109454D01*
X108204Y688556D02*
Y691056D01*
X106954Y674806D02*
X109454D01*
X108204Y673556D02*
Y676056D01*
X106954Y569806D02*
X109454D01*
X108204Y568556D02*
Y571056D01*
X106954Y509806D02*
X109454D01*
X108204Y508556D02*
Y511056D01*
X106954Y494806D02*
X109454D01*
X108204Y493556D02*
Y496056D01*
X106954Y464806D02*
X109454D01*
X108204Y463556D02*
Y466056D01*
X106954Y449806D02*
X109454D01*
X108204Y448556D02*
Y451056D01*
X106954Y434806D02*
X109454D01*
X108204Y433556D02*
Y436056D01*
X106954Y359806D02*
X109454D01*
X108204Y358556D02*
Y361056D01*
X106954Y254806D02*
X109454D01*
X108204Y253556D02*
Y256056D01*
X106954Y224806D02*
X109454D01*
X108204Y223556D02*
Y226056D01*
X106954Y194806D02*
X109454D01*
X108204Y193556D02*
Y196056D01*
X106954Y179806D02*
X109454D01*
X108204Y178556D02*
Y181056D01*
X106954Y149806D02*
X109454D01*
X108204Y148556D02*
Y151056D01*
X106954Y59806D02*
X109454D01*
X108204Y58556D02*
Y61056D01*
X106954Y44806D02*
X109454D01*
X108204Y43556D02*
Y46056D01*
X91954Y509806D02*
X94454D01*
X93204Y508556D02*
Y511056D01*
X91954Y434806D02*
X94454D01*
X93204Y433556D02*
Y436056D01*
X91954Y284806D02*
X94454D01*
X93204Y283556D02*
Y286056D01*
X91954Y104806D02*
X94454D01*
X93204Y103556D02*
Y106056D01*
X91954Y89806D02*
X94454D01*
X93204Y88556D02*
Y91056D01*
X76954Y689806D02*
X79454D01*
X78204Y688556D02*
Y691056D01*
X76954Y674806D02*
X79454D01*
X78204Y673556D02*
Y676056D01*
X76954Y659806D02*
X79454D01*
X78204Y658556D02*
Y661056D01*
X76954Y509806D02*
X79454D01*
X78204Y508556D02*
Y511056D01*
X76954Y359806D02*
X79454D01*
X78204Y358556D02*
Y361056D01*
X76954Y284806D02*
X79454D01*
X78204Y283556D02*
Y286056D01*
X76954Y104806D02*
X79454D01*
X78204Y103556D02*
Y106056D01*
X76954Y89806D02*
X79454D01*
X78204Y88556D02*
Y91056D01*
X61954Y434806D02*
X64454D01*
X63204Y433556D02*
Y436056D01*
X61954Y359806D02*
X64454D01*
X63204Y358556D02*
Y361056D01*
X61954Y284806D02*
X64454D01*
X63204Y283556D02*
Y286056D01*
X46954Y629806D02*
X49454D01*
X48204Y628556D02*
Y631056D01*
X46954Y434806D02*
X49454D01*
X48204Y433556D02*
Y436056D01*
X46954Y359806D02*
X49454D01*
X48204Y358556D02*
Y361056D01*
X46954Y284806D02*
X49454D01*
X48204Y283556D02*
Y286056D01*
X46954Y179806D02*
X49454D01*
X48204Y178556D02*
Y181056D01*
X46954Y104806D02*
X49454D01*
X48204Y103556D02*
Y106056D01*
X46954Y89806D02*
X49454D01*
X48204Y88556D02*
Y91056D01*
X31954Y629806D02*
X34454D01*
X33204Y628556D02*
Y631056D01*
X31954Y614806D02*
X34454D01*
X33204Y613556D02*
Y616056D01*
X31954Y359806D02*
X34454D01*
X33204Y358556D02*
Y361056D01*
X31954Y104806D02*
X34454D01*
X33204Y103556D02*
Y106056D01*
X31954Y89806D02*
X34454D01*
X33204Y88556D02*
Y91056D01*
X884456Y589060D02*
X886996D01*
X885726Y587790D02*
Y590330D01*
X881525Y572029D02*
X884065D01*
X882795Y570759D02*
Y573299D01*
X272298Y217850D02*
X274838D01*
X273568Y216580D02*
Y219120D01*
X328857Y108884D02*
X331397D01*
X330127Y107614D02*
Y110154D01*
X467801Y212940D02*
X470341D01*
X469071Y211670D02*
Y214210D01*
X160482Y446440D02*
X163022D01*
X161752Y445170D02*
Y447710D01*
X623613Y443468D02*
X626153D01*
X624883Y442198D02*
Y444738D01*
X318380Y432968D02*
X320920D01*
X319650Y431698D02*
Y434238D01*
X623590Y304360D02*
X626130D01*
X624860Y303090D02*
Y305630D01*
X488910Y362998D02*
X491450D01*
X490180Y361727D02*
Y364268D01*
X453136Y379476D02*
X455676D01*
X454406Y378206D02*
Y380746D01*
X915956Y463379D02*
X918496D01*
X917226Y462109D02*
Y464649D01*
X811067Y469001D02*
X813607D01*
X812337Y467731D02*
Y470271D01*
X968980Y460164D02*
X971520D01*
X970250Y458894D02*
Y461434D01*
X968980Y485564D02*
X971520D01*
X970250Y484294D02*
Y486834D01*
X696648Y601888D02*
X699188D01*
X697918Y600618D02*
Y603158D01*
X696722Y590042D02*
X699262D01*
X697992Y588772D02*
Y591312D01*
X968980Y562044D02*
X971520D01*
X970250Y560774D02*
Y563314D01*
X968980Y536364D02*
X971520D01*
X970250Y535094D02*
Y537634D01*
X917940Y510966D02*
X920480D01*
X919210Y509696D02*
Y512236D01*
X907275Y536366D02*
X909815D01*
X908545Y535096D02*
Y537636D01*
X917940Y561766D02*
X920480D01*
X919210Y560496D02*
Y563036D01*
X917940Y587166D02*
X920480D01*
X919210Y585896D02*
Y588436D01*
X878816Y456662D02*
X881356D01*
X880086Y455392D02*
Y457932D01*
X949039Y322022D02*
X951579D01*
X950309Y320752D02*
Y323292D01*
X949039Y354649D02*
X951579D01*
X950309Y353379D02*
Y355919D01*
X949039Y371866D02*
X951579D01*
X950309Y370596D02*
Y373136D01*
X949039Y397265D02*
X951579D01*
X950309Y395995D02*
Y398535D01*
X949039Y422900D02*
X951579D01*
X950309Y421630D02*
Y424170D01*
X918480Y206156D02*
X921020D01*
X919750Y204886D02*
Y207426D01*
X918480Y231556D02*
X921020D01*
X919750Y230286D02*
Y232826D01*
X918480Y256956D02*
X921020D01*
X919750Y255686D02*
Y258226D01*
X968980Y180756D02*
X971520D01*
X970250Y179486D02*
Y182026D01*
X968440Y206166D02*
X970980D01*
X969710Y204896D02*
Y207436D01*
X968690Y231566D02*
X971230D01*
X969960Y230296D02*
Y232836D01*
X968410Y256966D02*
X970950D01*
X969680Y255696D02*
Y258236D01*
X968669Y282387D02*
X971209D01*
X969939Y281117D02*
Y283657D01*
X691934Y622310D02*
X694474D01*
X693204Y621040D02*
Y623580D01*
X696063Y614832D02*
X698603D01*
X697333Y613562D02*
Y616101D01*
X698605Y574817D02*
X701145D01*
X699875Y573546D02*
Y576087D01*
X683990Y578264D02*
X686530D01*
X685260Y576994D02*
Y579534D01*
X192756Y658496D02*
X195296D01*
X194026Y657226D02*
Y659766D01*
X148838Y356992D02*
X151378D01*
X150108Y355722D02*
Y358262D01*
X185960Y322624D02*
X188500D01*
X187230Y321354D02*
Y323894D01*
X192562Y324282D02*
X195102D01*
X193832Y323012D02*
Y325552D01*
X151634Y400614D02*
X154174D01*
X152904Y399344D02*
Y401884D01*
X133147Y375856D02*
X135688D01*
X134417Y374586D02*
Y377126D01*
X140368Y381696D02*
X142908D01*
X141638Y380426D02*
Y382966D01*
X153330Y367444D02*
X155870D01*
X154600Y366174D02*
Y368714D01*
X211210Y391160D02*
X213750D01*
X212480Y389890D02*
Y392430D01*
X186944Y391160D02*
X189484D01*
X188214Y389890D02*
Y392430D01*
X138176Y444500D02*
X140716D01*
X139446Y443230D02*
Y445770D01*
X197771Y623781D02*
X200311D01*
X199041Y622511D02*
Y625051D01*
X249261Y659028D02*
X251801D01*
X250531Y657758D02*
Y660298D01*
X803656Y448056D02*
X806196D01*
X804926Y446786D02*
Y449326D01*
X832866Y434848D02*
X835406D01*
X834136Y433578D02*
Y436118D01*
X750406Y345659D02*
X752906D01*
X751656Y344409D02*
Y346909D01*
X727183Y388644D02*
X729723D01*
X728453Y387374D02*
Y389914D01*
X404705Y24530D02*
X407204D01*
X405955Y23280D02*
Y25780D01*
X317190Y170623D02*
X319730D01*
X318460Y169353D02*
Y171893D01*
X317210Y179301D02*
X319710D01*
X318460Y178051D02*
Y180551D01*
X367284Y145796D02*
X369824D01*
X368554Y144526D02*
Y147066D01*
X306050Y213040D02*
X308590D01*
X307320Y211770D02*
Y214310D01*
X446168Y103124D02*
X448708D01*
X447438Y101854D02*
Y104394D01*
X439670Y103042D02*
X442210D01*
X440940Y101772D02*
Y104312D01*
X364198Y93595D02*
X366738D01*
X365468Y92325D02*
Y94865D01*
X356362Y96266D02*
X358902D01*
X357632Y94996D02*
Y97536D01*
X416245Y24530D02*
X418745D01*
X417495Y23280D02*
Y25780D01*
X417340Y51030D02*
X419880D01*
X418610Y49760D02*
Y52300D01*
X408333Y55530D02*
X410873D01*
X409603Y54260D02*
Y56800D01*
X406034Y354552D02*
X408574D01*
X407304Y353282D02*
Y355822D01*
X354070Y540316D02*
X356610D01*
X355340Y539046D02*
Y541586D01*
X412464Y206440D02*
X415004D01*
X413734Y205170D02*
Y207710D01*
X373106Y134122D02*
X375646D01*
X374376Y132852D02*
Y135392D01*
X419608Y90170D02*
X422148D01*
X420878Y88900D02*
Y91440D01*
X408178Y90170D02*
X410718D01*
X409448Y88900D02*
Y91440D01*
X198882Y326898D02*
X201422D01*
X200152Y325628D02*
Y328168D01*
X228490Y623255D02*
X231030D01*
X229760Y621985D02*
Y624525D01*
X561755Y577430D02*
X564295D01*
X563025Y576160D02*
Y578700D01*
X591865Y604810D02*
X594405D01*
X593135Y603540D02*
Y606080D01*
X568960Y597662D02*
X571500D01*
X570230Y596392D02*
Y598932D01*
X636925Y566568D02*
X639465D01*
X638195Y565298D02*
Y567838D01*
X558822Y595638D02*
X561362D01*
X560092Y594368D02*
Y596908D01*
X670454Y567652D02*
X672994D01*
X671724Y566382D02*
Y568922D01*
X657754Y567652D02*
X660294D01*
X659024Y566382D02*
Y568922D01*
X645054Y567652D02*
X647594D01*
X646324Y566382D02*
Y568922D01*
X683006Y617728D02*
X685546D01*
X684276Y616458D02*
Y618998D01*
X670306Y617728D02*
X672846D01*
X671576Y616458D02*
Y618998D01*
X657606Y617728D02*
X660146D01*
X658876Y616458D02*
Y618998D01*
X644906Y617728D02*
X647446D01*
X646176Y616458D02*
Y618998D01*
X554653Y584419D02*
X557193D01*
X555923Y583149D02*
Y585689D01*
X549402Y593110D02*
X551942D01*
X550672Y591840D02*
Y594380D01*
X556908Y604810D02*
X559448D01*
X558178Y603540D02*
Y606080D01*
X557022Y615696D02*
X559562D01*
X558292Y614426D02*
Y616966D01*
X548640Y621108D02*
X551180D01*
X549910Y619838D02*
Y622378D01*
X548640Y610108D02*
X551180D01*
X549910Y608838D02*
Y611378D01*
X633126Y539370D02*
X635667D01*
X634397Y538100D02*
Y540640D01*
X215590Y655318D02*
X218130D01*
X216860Y654048D02*
Y656588D01*
X209660Y660637D02*
X212200D01*
X210930Y659367D02*
Y661907D01*
X59190Y486892D02*
X61730D01*
X60460Y485622D02*
Y488162D01*
X223460Y252661D02*
X226000D01*
X224730Y251392D02*
Y253932D01*
X201070Y249231D02*
X203610D01*
X202340Y247962D02*
Y250501D01*
X195109Y254950D02*
X197649D01*
X196379Y253680D02*
Y256220D01*
X169028Y247749D02*
X171568D01*
X170298Y246479D02*
Y249018D01*
X328880Y318180D02*
X331420D01*
X330150Y316910D02*
Y319450D01*
X336333Y267528D02*
X338873D01*
X337603Y266258D02*
Y268798D01*
X272701Y313884D02*
X275241D01*
X273971Y312614D02*
Y315154D01*
X240238Y307522D02*
X242778D01*
X241508Y306252D02*
Y308792D01*
X207010Y300990D02*
X209550D01*
X208280Y299720D02*
Y302260D01*
X217170Y307594D02*
X219710D01*
X218440Y306324D02*
Y308864D01*
X205110Y324358D02*
X207650D01*
X206380Y323088D02*
Y325628D01*
X167132Y326644D02*
X169672D01*
X168402Y325374D02*
Y327914D01*
X169028Y308820D02*
X171568D01*
X170298Y307550D02*
Y310090D01*
X144368Y300020D02*
X146908D01*
X145638Y298750D02*
Y301290D01*
X159893Y270767D02*
X162432D01*
X161162Y269496D02*
Y272036D01*
X295910Y330200D02*
X298450D01*
X297180Y328930D02*
Y331470D01*
X183260Y310134D02*
X185800D01*
X184530Y308864D02*
Y311404D01*
X144304Y313512D02*
X146844D01*
X145574Y312242D02*
Y314782D01*
X139700Y320548D02*
X142240D01*
X140970Y319278D02*
Y321818D01*
X130380Y313070D02*
X132920D01*
X131650Y311800D02*
Y314340D01*
X137368Y328676D02*
X139908D01*
X138638Y327406D02*
Y329946D01*
X129190Y305443D02*
X131730D01*
X130460Y304172D02*
Y306712D01*
X364530Y572770D02*
X367070D01*
X365800Y571500D02*
Y574040D01*
X364031Y586048D02*
X366571D01*
X365301Y584778D02*
Y587318D01*
X266950Y601266D02*
X269490D01*
X268220Y599996D02*
Y602536D01*
X273554Y588401D02*
X276094D01*
X274824Y587131D02*
Y589671D01*
X277240Y600033D02*
X279780D01*
X278510Y598764D02*
Y601303D01*
X252190Y589450D02*
X254730D01*
X253460Y588180D02*
Y590720D01*
X474730Y249760D02*
X475730D01*
X475230Y249260D02*
Y250260D01*
X490730Y249760D02*
X491730D01*
X491230Y249260D02*
Y250260D01*
X478730Y249760D02*
X479730D01*
X479230Y249260D02*
Y250260D01*
X486730Y249760D02*
X487730D01*
X487230Y249260D02*
Y250260D01*
X482730Y249760D02*
X483730D01*
X483230Y249260D02*
Y250260D01*
X718324Y394828D02*
X720864D01*
X719594Y393558D02*
Y396098D01*
X665226Y410972D02*
X667766D01*
X666496Y409702D02*
Y412242D01*
X769797Y439872D02*
X772337D01*
X771067Y438602D02*
Y441142D01*
X810400Y560229D02*
X812940D01*
X811670Y558959D02*
Y561499D01*
X843600Y457466D02*
X846140D01*
X844870Y456195D02*
Y458736D01*
X826835Y461096D02*
X829375D01*
X828105Y459826D02*
Y462366D01*
X804750Y642879D02*
X807290D01*
X806020Y641609D02*
Y644149D01*
X775057Y558188D02*
X777597D01*
X776327Y556918D02*
Y559458D01*
X752828Y560872D02*
X755368D01*
X754098Y559602D02*
Y562142D01*
X750046Y546471D02*
X752586D01*
X751316Y545201D02*
Y547742D01*
X846250Y680749D02*
X848790D01*
X847520Y679479D02*
Y682019D01*
X845097Y623106D02*
X847637D01*
X846367Y621836D02*
Y624376D01*
X795754Y615770D02*
X798294D01*
X797024Y614500D02*
Y617040D01*
X774682Y577954D02*
X777222D01*
X775952Y576684D02*
Y579224D01*
X78694Y534768D02*
X81234D01*
X79964Y533498D02*
Y536039D01*
X28480Y460007D02*
X31020D01*
X29750Y458737D02*
Y461277D01*
X28480Y485407D02*
X31020D01*
X29750Y484137D02*
Y486677D01*
X105976Y549900D02*
X108516D01*
X107246Y548630D02*
Y551170D01*
X28480Y510807D02*
X31020D01*
X29750Y509537D02*
Y512077D01*
X28480Y536207D02*
X31020D01*
X29750Y534937D02*
Y537477D01*
X28480Y561607D02*
X31020D01*
X29750Y560337D02*
Y562877D01*
X78980Y587007D02*
X81520D01*
X80250Y585737D02*
Y588277D01*
X78980Y612407D02*
X81520D01*
X80250Y611137D02*
Y613677D01*
X28480Y587007D02*
X31020D01*
X29750Y585737D02*
Y588277D01*
X968980Y587007D02*
X971520D01*
X970250Y585737D02*
Y588277D01*
X968690Y307766D02*
X971230D01*
X969960Y306496D02*
Y309036D01*
X627560Y619660D02*
X630100D01*
X628830Y618390D02*
Y620930D01*
X487050Y320820D02*
X489590D01*
X488320Y319550D02*
Y322090D01*
X365199Y625130D02*
X367739D01*
X366469Y623860D02*
Y626400D01*
X673511Y539641D02*
X676051D01*
X674781Y538371D02*
Y540911D01*
X629542Y571810D02*
X632082D01*
X630812Y570540D02*
Y573080D01*
X102850Y377885D02*
X105390D01*
X104120Y376615D02*
Y379155D01*
X106954Y210078D02*
X109454D01*
X108204Y208828D02*
Y211328D01*
X98726Y159097D02*
X101266D01*
X99996Y157827D02*
Y160367D01*
X78980Y130556D02*
X81520D01*
X80250Y129286D02*
Y131826D01*
X78980Y181356D02*
X81520D01*
X80250Y180086D02*
Y182626D01*
X78980Y206756D02*
X81520D01*
X80250Y205486D02*
Y208026D01*
X78980Y232156D02*
X81520D01*
X80250Y230886D02*
Y233426D01*
X78980Y257556D02*
X81520D01*
X80250Y256286D02*
Y258826D01*
X850018Y183744D02*
X852558D01*
X851288Y182474D02*
Y185014D01*
X917920Y177917D02*
X920460D01*
X919190Y176647D02*
Y179187D01*
X514604Y335280D02*
X517144D01*
X515874Y334010D02*
Y336550D01*
X512100Y318290D02*
X514640D01*
X513370Y317020D02*
Y319560D01*
X530510Y314370D02*
X533050D01*
X531780Y313100D02*
Y315640D01*
X535959Y332260D02*
X538499D01*
X537229Y330990D02*
Y333530D01*
X539952Y324400D02*
X542492D01*
X541222Y323130D02*
Y325670D01*
X807754Y570442D02*
X810294D01*
X809024Y569172D02*
Y571712D01*
X783042Y564608D02*
X785582D01*
X784312Y563338D02*
Y565878D01*
X422612Y113277D02*
X425152D01*
X423882Y112007D02*
Y114547D01*
X625865Y364621D02*
X628405D01*
X627135Y363351D02*
Y365891D01*
X624457Y353491D02*
X626997D01*
X625727Y352221D02*
Y354761D01*
X164846Y660146D02*
X167386D01*
X166116Y658876D02*
Y661416D01*
X138398Y641776D02*
X140938D01*
X139668Y640506D02*
Y643046D01*
X721506Y236686D02*
X724046D01*
X722776Y235416D02*
Y237956D01*
X133858Y90932D02*
X136398D01*
X135128Y89662D02*
Y92202D01*
X465328Y118618D02*
X467868D01*
X466598Y117348D02*
Y119888D01*
X465770Y126631D02*
X468310D01*
X467040Y125361D02*
Y127901D01*
X408745Y74465D02*
X411245D01*
X409995Y73215D02*
Y75715D01*
X417949Y74445D02*
X420449D01*
X419199Y73195D02*
Y75695D01*
X433631Y109902D02*
X436171D01*
X434901Y108632D02*
Y111173D01*
X581060Y621260D02*
X583600D01*
X582330Y619990D02*
Y622530D01*
X415060Y621260D02*
X417600D01*
X416330Y619990D02*
Y622530D01*
X561594Y229870D02*
X564134D01*
X562864Y228600D02*
Y231140D01*
X558546Y206248D02*
X561086D01*
X559816Y204978D02*
Y207518D01*
X566354Y247662D02*
X568894D01*
X567624Y246392D02*
Y248932D01*
X521652Y199606D02*
X524192D01*
X522922Y198336D02*
Y200876D01*
X494030Y199644D02*
X496570D01*
X495300Y198374D02*
Y200914D01*
X505714Y178816D02*
X508254D01*
X506984Y177546D02*
Y180086D01*
X543811Y200610D02*
X546351D01*
X545081Y199340D02*
Y201880D01*
X664117Y361216D02*
X666657D01*
X665387Y359946D02*
Y362486D01*
X709558Y302335D02*
X712098D01*
X710828Y301066D02*
Y303605D01*
X279750Y466952D02*
X282290D01*
X281020Y465682D02*
Y468222D01*
X665360Y146321D02*
X667900D01*
X666630Y145051D02*
Y147591D01*
X665360Y165938D02*
X667900D01*
X666630Y164667D02*
Y167208D01*
X783168Y48410D02*
X785708D01*
X784438Y47140D02*
Y49680D01*
X748958Y48410D02*
X751498D01*
X750228Y47140D02*
Y49680D01*
X784329Y72450D02*
X786869D01*
X785599Y71180D02*
Y73720D01*
X874776Y664210D02*
X877316D01*
X876046Y662940D02*
Y665480D01*
X857250Y398272D02*
X859790D01*
X858520Y397002D02*
Y399542D01*
X795782Y406146D02*
X798322D01*
X797052Y404876D02*
Y407416D01*
X836930Y399034D02*
X839470D01*
X838200Y397764D02*
Y400304D01*
X813562Y405638D02*
X816102D01*
X814832Y404368D02*
Y406908D01*
X813816Y392684D02*
X816356D01*
X815086Y391414D02*
Y393954D01*
X795274Y368046D02*
X797814D01*
X796544Y366776D02*
Y369316D01*
X823468Y361950D02*
X826008D01*
X824738Y360680D02*
Y363220D01*
X813816Y368808D02*
X816356D01*
X815086Y367538D02*
Y370078D01*
X864110Y357211D02*
X866650D01*
X865380Y355941D02*
Y358481D01*
X561755Y487179D02*
X564295D01*
X563025Y485909D02*
Y488449D01*
X640869Y458954D02*
X643409D01*
X642139Y457684D02*
Y460224D01*
X354287Y381153D02*
X356827D01*
X355557Y379883D02*
Y382423D01*
X336084Y381153D02*
X338624D01*
X337354Y379883D02*
Y382423D01*
X626510Y333417D02*
X629050D01*
X627780Y332147D02*
Y334687D01*
X295855Y377728D02*
X298395D01*
X297125Y376458D02*
Y378998D01*
X147141Y594868D02*
X149681D01*
X148411Y593598D02*
Y596138D01*
X528300Y206620D02*
X530840D01*
X529570Y205350D02*
Y207890D01*
X324757Y359737D02*
X327297D01*
X326027Y358467D02*
Y361007D01*
X294132Y461010D02*
X296672D01*
X295402Y459740D02*
Y462280D01*
X248320Y516580D02*
X250860D01*
X249590Y515310D02*
Y517850D01*
X121424Y577364D02*
X123964D01*
X122694Y576094D02*
Y578634D01*
X54023Y282924D02*
X56564D01*
X55293Y281654D02*
Y284194D01*
X49652Y328664D02*
X52192D01*
X50922Y327394D02*
Y329934D01*
X615485Y640256D02*
X618025D01*
X616755Y638986D02*
Y641526D01*
X623421Y664053D02*
X625961D01*
X624691Y662784D02*
Y665323D01*
X475432Y194844D02*
X477971D01*
X476702Y193574D02*
Y196114D01*
X518476Y179188D02*
X521016D01*
X519746Y177918D02*
Y180458D01*
X537061Y196565D02*
X539601D01*
X538331Y195294D02*
Y197834D01*
X419068Y221240D02*
X421608D01*
X420338Y219970D02*
Y222510D01*
X465882Y506978D02*
X468422D01*
X467151Y505708D02*
Y508248D01*
X497991Y516220D02*
X500531D01*
X499261Y514950D02*
Y517490D01*
X851639Y76888D02*
X854179D01*
X852909Y75618D02*
Y78158D01*
X849712Y483151D02*
X852252D01*
X850982Y481881D02*
Y484421D01*
X249153Y267540D02*
X251693D01*
X250423Y266270D02*
Y268810D01*
X223190Y267662D02*
X225730D01*
X224460Y266392D02*
Y268932D01*
X426664Y141834D02*
X429204D01*
X427934Y140564D02*
Y143104D01*
X386439Y134122D02*
X388979D01*
X387709Y132852D02*
Y135392D01*
X344738Y480977D02*
X347277D01*
X346007Y479707D02*
Y482247D01*
X338881Y540002D02*
X341421D01*
X340151Y538732D02*
Y541272D01*
X363574Y440949D02*
X366114D01*
X364844Y439679D02*
Y442219D01*
X363216Y471413D02*
X365756D01*
X364486Y470143D02*
Y472683D01*
X391570Y569455D02*
X394110D01*
X392840Y568185D02*
Y570725D01*
X416916Y569607D02*
X419456D01*
X418186Y568337D02*
Y570877D01*
X374310Y426779D02*
X376850D01*
X375580Y425509D02*
Y428049D01*
X361614Y417943D02*
X364154D01*
X362884Y416673D02*
Y419213D01*
X339924Y396240D02*
X342464D01*
X341194Y394970D02*
Y397510D01*
X341150Y426198D02*
X343690D01*
X342420Y424927D02*
Y427467D01*
X352742Y430578D02*
X355282D01*
X354012Y429308D02*
Y431848D01*
X574830Y456759D02*
X577370D01*
X576100Y455489D02*
Y458029D01*
X591303Y456759D02*
X593843D01*
X592573Y455489D02*
Y458029D01*
X618205Y454995D02*
X620745D01*
X619475Y453725D02*
Y456265D01*
X769846Y381883D02*
X772386D01*
X771116Y380613D02*
Y383153D01*
X732645Y531140D02*
X735185D01*
X733915Y529870D02*
Y532410D01*
X876342Y366490D02*
X878882D01*
X877612Y365220D02*
Y367760D01*
X696263Y264885D02*
X698803D01*
X697533Y263615D02*
Y266155D01*
X746766Y300046D02*
X749306D01*
X748036Y298776D02*
Y301316D01*
X146660Y530886D02*
X149200D01*
X147930Y529616D02*
Y532156D01*
X222869Y529885D02*
X225409D01*
X224139Y528615D02*
Y531155D01*
X249153Y530886D02*
X251693D01*
X250423Y529616D02*
Y532156D01*
X250768Y455493D02*
X253308D01*
X252038Y454223D02*
Y456763D01*
X223190Y499410D02*
X225730D01*
X224460Y498140D02*
Y500680D01*
X197771Y498982D02*
X200311D01*
X199041Y497712D02*
Y500252D01*
X147435Y475592D02*
X149975D01*
X148705Y474322D02*
Y476862D01*
X147141Y500706D02*
X149681D01*
X148411Y499436D02*
Y501976D01*
X256089Y579569D02*
X258629D01*
X257359Y578299D02*
Y580839D01*
X53516Y582879D02*
X56056D01*
X54786Y581609D02*
Y584149D01*
X34818Y539066D02*
X37358D01*
X36088Y537796D02*
Y540336D01*
X394716Y594868D02*
X397256D01*
X395986Y593598D02*
Y596138D01*
X419865Y590032D02*
X422405D01*
X421135Y588762D02*
Y591302D01*
X728607Y416711D02*
X731147D01*
X729877Y415441D02*
Y417981D01*
X814188Y356026D02*
X816728D01*
X815458Y354756D02*
Y357296D01*
X724418Y94888D02*
X726958D01*
X725688Y93618D02*
Y96159D01*
X715071Y85255D02*
X717611D01*
X716341Y83985D02*
Y86525D01*
X707890Y95888D02*
X710430D01*
X709160Y94618D02*
Y97158D01*
X537706Y137840D02*
X540206D01*
X538956Y136590D02*
Y139090D01*
X548628Y148762D02*
X551128D01*
X549878Y147512D02*
Y150012D01*
X526530Y148254D02*
X529030D01*
X527780Y147004D02*
Y149504D01*
X526784Y138094D02*
X529284D01*
X528034Y136844D02*
Y139344D01*
X529832Y159684D02*
X532332D01*
X531082Y158434D02*
Y160934D01*
X537960Y159938D02*
X540460D01*
X539210Y158688D02*
Y161188D01*
X547612Y159938D02*
X550112D01*
X548862Y158688D02*
Y161188D01*
X435979Y637006D02*
X438520D01*
X437249Y635736D02*
Y638276D01*
X104505Y271226D02*
X107045D01*
X105775Y269956D02*
Y272496D01*
X114808Y346964D02*
X117348D01*
X116078Y345694D02*
Y348234D01*
X107730Y321225D02*
X110270D01*
X109000Y319955D02*
Y322495D01*
X615950Y303752D02*
X618490D01*
X617220Y302482D02*
Y305022D01*
X692396Y309870D02*
X694936D01*
X693666Y308600D02*
Y311140D01*
X635690Y331840D02*
X638230D01*
X636960Y330570D02*
Y333110D01*
X394188Y520224D02*
X396728D01*
X395458Y518954D02*
Y521494D01*
X272701Y306070D02*
X275241D01*
X273971Y304800D02*
Y307340D01*
X272701Y334650D02*
X275241D01*
X273971Y333380D02*
Y335920D01*
X277240Y321225D02*
X279780D01*
X278510Y319955D02*
Y322495D01*
X120585Y294336D02*
X123125D01*
X121855Y293066D02*
Y295606D01*
X360922Y533618D02*
X363462D01*
X362192Y532348D02*
Y534888D01*
X338088Y549572D02*
X340628D01*
X339357Y548302D02*
Y550842D01*
X345444Y531690D02*
X347984D01*
X346714Y530420D02*
Y532960D01*
X387420Y464301D02*
X389960D01*
X388690Y463031D02*
Y465571D01*
X870995Y371617D02*
X873535D01*
X872265Y370347D02*
Y372887D01*
X435220Y314680D02*
X437720D01*
X436470Y313430D02*
Y315930D01*
X425962Y289988D02*
X428502D01*
X427232Y288718D02*
Y291259D01*
X685546Y221996D02*
X688086D01*
X686816Y220726D02*
Y223266D01*
X738358Y464536D02*
X740898D01*
X739628Y463266D02*
Y465806D01*
X729510Y373090D02*
X732050D01*
X730780Y371820D02*
Y374360D01*
X727290Y405783D02*
X729830D01*
X728560Y404512D02*
Y407052D01*
X712858Y376936D02*
X715398D01*
X714128Y375666D02*
Y378206D01*
X214025Y458651D02*
X216565D01*
X215296Y457381D02*
Y459921D01*
X170480Y451030D02*
X173020D01*
X171750Y449760D02*
Y452300D01*
X718240Y416307D02*
X720780D01*
X719510Y415037D02*
Y417577D01*
X760490Y462888D02*
X763030D01*
X761760Y461618D02*
Y464158D01*
X194180Y450651D02*
X196720D01*
X195450Y449381D02*
Y451921D01*
X183642Y444500D02*
X186182D01*
X184912Y443230D02*
Y445770D01*
X474540Y526646D02*
X477080D01*
X475810Y525376D02*
Y527916D01*
X286690Y314163D02*
X289230D01*
X287960Y312893D02*
Y315433D01*
X235890Y300020D02*
X238430D01*
X237160Y298750D02*
Y301290D01*
X261290Y302964D02*
X263830D01*
X262560Y301695D02*
Y304235D01*
X240694Y361283D02*
X243234D01*
X241964Y360013D02*
Y362553D01*
X627226Y503978D02*
X629766D01*
X628496Y502708D02*
Y505248D01*
X615400Y502978D02*
X617940D01*
X616670Y501708D02*
Y504248D01*
X710628Y539043D02*
X713168D01*
X711898Y537773D02*
Y540313D01*
X725623Y442161D02*
X728163D01*
X726893Y440891D02*
Y443431D01*
X629498Y422096D02*
X632038D01*
X630768Y420826D02*
Y423366D01*
X423290Y554060D02*
X425830D01*
X424560Y552790D02*
Y555330D01*
X664422Y398249D02*
X666962D01*
X665692Y396979D02*
Y399519D01*
X656405Y417846D02*
X658945D01*
X657675Y416576D02*
Y419116D01*
X702090Y454041D02*
X704630D01*
X703360Y452771D02*
Y455311D01*
X453644Y432499D02*
X456184D01*
X454914Y431229D02*
Y433769D01*
X466344Y432371D02*
X468884D01*
X467614Y431101D02*
Y433641D01*
X479284Y432524D02*
X481824D01*
X480554Y431254D02*
Y433794D01*
X491744Y432499D02*
X494284D01*
X493014Y431229D02*
Y433769D01*
X529844Y432794D02*
X532384D01*
X531114Y431524D02*
Y434064D01*
X542544Y432825D02*
X545084D01*
X543814Y431555D02*
Y434095D01*
X545180Y410991D02*
X547720D01*
X546450Y409721D02*
Y412261D01*
X503640Y412061D02*
X506180D01*
X504910Y410791D02*
Y413331D01*
X491009Y412061D02*
X493549D01*
X492279Y410791D02*
Y413331D01*
X550869Y459491D02*
X553409D01*
X552139Y458221D02*
Y460761D01*
X529686Y412515D02*
X532226D01*
X530956Y411245D02*
Y413785D01*
X516986Y412515D02*
X519526D01*
X518256Y411245D02*
Y413785D01*
X662558Y429089D02*
X665098D01*
X663828Y427819D02*
Y430359D01*
X608510Y495710D02*
X611050D01*
X609780Y494440D02*
Y496980D01*
X662420Y482303D02*
X664960D01*
X663690Y481033D02*
Y483573D01*
X687161Y338640D02*
X689702D01*
X688431Y337370D02*
Y339910D01*
X693762Y331940D02*
X696301D01*
X695032Y330670D02*
Y333210D01*
X688861Y325716D02*
X691401D01*
X690131Y324446D02*
Y326986D01*
X714491Y312176D02*
X717031D01*
X715761Y310906D02*
Y313446D01*
X633045Y459969D02*
X635585D01*
X634315Y458699D02*
Y461239D01*
X653298Y526736D02*
X655838D01*
X654568Y525466D02*
Y528006D01*
X652628Y480977D02*
X655168D01*
X653898Y479707D02*
Y482247D01*
X662420Y459969D02*
X664960D01*
X663690Y458699D02*
Y461239D01*
X656970Y433680D02*
X659510D01*
X658240Y432410D02*
Y434950D01*
X368770Y542126D02*
X371310D01*
X370040Y540856D02*
Y543396D01*
X339190Y369238D02*
X341730D01*
X340460Y367968D02*
Y370508D01*
X269675Y373576D02*
X272215D01*
X270945Y372306D02*
Y374846D01*
X266995Y352956D02*
X269535D01*
X268265Y351686D02*
Y354226D01*
X225830Y366761D02*
X228370D01*
X227100Y365491D02*
Y368031D01*
X254095Y425316D02*
X256635D01*
X255365Y424046D02*
Y426586D01*
X689743Y370840D02*
X692283D01*
X691013Y369570D02*
Y372110D01*
X718177Y386296D02*
X720717D01*
X719447Y385026D02*
Y387566D01*
X716941Y408270D02*
X719481D01*
X718211Y407001D02*
Y409540D01*
X542544Y475211D02*
X545084D01*
X543814Y473941D02*
Y476481D01*
X394188Y554376D02*
X396728D01*
X395458Y553106D02*
Y555646D01*
X372460Y604278D02*
X375000D01*
X373730Y603008D02*
Y605548D01*
X491744Y454914D02*
X494284D01*
X493014Y453644D02*
Y456184D01*
X479284Y454939D02*
X481824D01*
X480554Y453669D02*
Y456209D01*
X466344Y454787D02*
X468884D01*
X467614Y453517D02*
Y456057D01*
X453644Y454914D02*
X456184D01*
X454914Y453644D02*
Y456184D01*
X832746Y375124D02*
X835286D01*
X834016Y373854D02*
Y376394D01*
X832286Y411834D02*
X834826D01*
X833556Y410564D02*
Y413104D01*
X422159Y263622D02*
X424698D01*
X423428Y262352D02*
Y264892D01*
X440937Y545280D02*
X443476D01*
X442206Y544011D02*
Y546550D01*
X440937Y536898D02*
X443476D01*
X442206Y535629D02*
Y538168D01*
X322834Y548640D02*
X325374D01*
X324104Y547370D02*
Y549910D01*
X299974Y548894D02*
X302514D01*
X301244Y547624D02*
Y550164D01*
X773158Y499365D02*
X775698D01*
X774428Y498095D02*
Y500635D01*
X564698Y510146D02*
X567238D01*
X565968Y508876D02*
Y511416D01*
X592972Y503065D02*
X595512D01*
X594242Y501795D02*
Y504335D01*
X271903Y499861D02*
X274443D01*
X273173Y498591D02*
Y501131D01*
X249197Y498341D02*
X251737D01*
X250467Y497071D02*
Y499611D01*
X824186Y482921D02*
X826726D01*
X825456Y481651D02*
Y484191D01*
X719580Y453701D02*
X722120D01*
X720850Y452431D02*
Y454971D01*
X684038Y530701D02*
X686578D01*
X685308Y529431D02*
Y531971D01*
X614928Y648345D02*
X617468D01*
X616198Y647075D02*
Y649615D01*
X249228Y562655D02*
X251768D01*
X250498Y561385D02*
Y563925D01*
X444558Y595091D02*
X447098D01*
X445828Y593821D02*
Y596361D01*
X512414Y551765D02*
X514954D01*
X513684Y550495D02*
Y553035D01*
X447820Y214920D02*
X450360D01*
X449090Y213650D02*
Y216190D01*
X452332Y184040D02*
X454871D01*
X453601Y182770D02*
Y185310D01*
X452493Y208386D02*
X455033D01*
X453763Y207117D02*
Y209657D01*
X552761Y181329D02*
X555302D01*
X554031Y180059D02*
Y182599D01*
X114149Y447092D02*
X116688D01*
X115419Y445822D02*
Y448362D01*
X111356Y529082D02*
X113896D01*
X112626Y527812D02*
Y530352D01*
X22352Y515112D02*
X24892D01*
X23622Y513842D02*
Y516382D01*
X20443Y438191D02*
X22982D01*
X21713Y436921D02*
Y439461D01*
X20287Y383162D02*
X22827D01*
X21557Y381892D02*
Y384432D01*
X26338Y355088D02*
X28878D01*
X27608Y353818D02*
Y356358D01*
X21590Y337566D02*
X24130D01*
X22860Y336296D02*
Y338836D01*
X22352Y311912D02*
X24892D01*
X23622Y310642D02*
Y313182D01*
X18742Y286406D02*
X21282D01*
X20012Y285136D02*
Y287676D01*
X18742Y256966D02*
X21282D01*
X20012Y255696D02*
Y258236D01*
X171850Y428956D02*
X174390D01*
X173120Y427686D02*
Y430226D01*
X849907Y263671D02*
X852447D01*
X851177Y262401D02*
Y264941D01*
X800608Y279654D02*
X803148D01*
X801878Y278384D02*
Y280924D01*
X824610Y263760D02*
X827150D01*
X825880Y262490D02*
Y265030D01*
X773190Y263760D02*
X775730D01*
X774460Y262490D02*
Y265030D01*
X88888Y653295D02*
X91427D01*
X90157Y652025D02*
Y654565D01*
X85758Y623781D02*
X88298D01*
X87028Y622511D02*
Y625051D01*
X102870Y610594D02*
X105410D01*
X104140Y609324D02*
Y611864D01*
X122936Y602742D02*
X125476D01*
X124206Y601472D02*
Y604012D01*
X112255Y600354D02*
X114795D01*
X113525Y599084D02*
Y601624D01*
X307090Y603760D02*
X309630D01*
X308360Y602490D02*
Y605030D01*
X436190Y580314D02*
X438730D01*
X437460Y579044D02*
Y581584D01*
X434018Y559676D02*
X436558D01*
X435288Y558406D02*
Y560946D01*
X532520Y517519D02*
X535060D01*
X533790Y516249D02*
Y518789D01*
X665285Y511474D02*
X667825D01*
X666555Y510204D02*
Y512744D01*
X444558Y690196D02*
X447098D01*
X445828Y688926D02*
Y691466D01*
X548558Y689765D02*
X551098D01*
X549828Y688495D02*
Y691035D01*
X541913Y667890D02*
X544454D01*
X543184Y666620D02*
Y669161D01*
X542130Y682162D02*
X544670D01*
X543400Y680892D02*
Y683432D01*
X483418Y659257D02*
X485958D01*
X484688Y657987D02*
Y660527D01*
X504928Y659638D02*
X507468D01*
X506198Y658368D02*
Y660908D01*
X563728Y627717D02*
X566268D01*
X564998Y626447D02*
Y628987D01*
X512058Y628860D02*
X514598D01*
X513328Y627590D02*
Y630130D01*
X517080Y586215D02*
X519620D01*
X518350Y584945D02*
Y587485D01*
X483996Y619345D02*
X486536D01*
X485266Y618075D02*
Y620615D01*
X485012Y603190D02*
X487552D01*
X486282Y601920D02*
Y604460D01*
X510299Y601365D02*
X512839D01*
X511569Y600095D02*
Y602635D01*
X509548Y610280D02*
X512088D01*
X510818Y609010D02*
Y611550D01*
X486454Y610280D02*
X488994D01*
X487724Y609010D02*
Y611550D01*
X498044Y610280D02*
X500584D01*
X499314Y609010D02*
Y611550D01*
X795283Y673690D02*
X797823D01*
X796553Y672420D02*
Y674960D01*
X720764Y673690D02*
X723304D01*
X722034Y672420D02*
Y674960D01*
X779630Y673690D02*
X782130D01*
X780880Y672440D02*
Y674940D01*
X738611Y673690D02*
X741111D01*
X739861Y672440D02*
Y674940D01*
X852980Y271200D02*
X855520D01*
X854250Y269930D02*
Y272470D01*
X827580Y271200D02*
X830120D01*
X828850Y269930D02*
Y272470D01*
X802180Y271200D02*
X804720D01*
X803450Y269930D02*
Y272470D01*
X500230Y236580D02*
X502770D01*
X501500Y235310D02*
Y237850D01*
X456290Y326136D02*
X458830D01*
X457560Y324866D02*
Y327406D01*
X631920Y553660D02*
X634460D01*
X633190Y552390D02*
Y554930D01*
X525522Y98222D02*
X528062D01*
X526792Y96952D02*
Y99492D01*
X105107Y295910D02*
X107647D01*
X106377Y294640D02*
Y297180D01*
X92344Y618551D02*
X94884D01*
X93614Y617281D02*
Y619821D01*
X173335Y668479D02*
X175875D01*
X174605Y667209D02*
Y669749D01*
X178765Y652252D02*
X181305D01*
X180035Y650982D02*
Y653522D01*
X112090Y607846D02*
X114630D01*
X113360Y606576D02*
Y609117D01*
X98479Y631118D02*
X101019D01*
X99749Y629848D02*
Y632388D01*
X435560Y209976D02*
X438100D01*
X436830Y208706D02*
Y211246D01*
X504760Y597560D02*
X507300D01*
X506030Y596290D02*
Y598830D01*
X626160Y628260D02*
X628700D01*
X627430Y626990D02*
Y629530D01*
X606260Y551060D02*
X608800D01*
X607530Y549790D02*
Y552330D01*
X604460Y541660D02*
X607000D01*
X605730Y540390D02*
Y542930D01*
X593160Y548260D02*
X595700D01*
X594430Y546990D02*
Y549530D01*
X618760Y620760D02*
X621300D01*
X620030Y619490D02*
Y622030D01*
X372360Y615060D02*
X374900D01*
X373630Y613790D02*
Y616330D01*
X374060Y637160D02*
X376600D01*
X375330Y635890D02*
Y638430D01*
X568360Y548760D02*
X570900D01*
X569630Y547490D02*
Y550030D01*
X286970Y231850D02*
X289510D01*
X288240Y230580D02*
Y233120D01*
X309510Y595720D02*
X312050D01*
X310780Y594450D02*
Y596990D01*
X322530Y602070D02*
X325070D01*
X323800Y600800D02*
Y603340D01*
X323280Y581120D02*
X325820D01*
X324550Y579850D02*
Y582390D01*
X309770Y586630D02*
X312310D01*
X311040Y585360D02*
Y587900D01*
X357010Y603400D02*
X359550D01*
X358280Y602130D02*
Y604670D01*
X345530Y585020D02*
X348070D01*
X346800Y583750D02*
Y586290D01*
X345780Y628905D02*
X348320D01*
X347050Y627635D02*
Y630176D01*
X335760Y629603D02*
X338300D01*
X337030Y628333D02*
Y630873D01*
X339190Y579510D02*
X341730D01*
X340460Y578240D02*
Y580780D01*
X332560Y579540D02*
X335100D01*
X333830Y578270D02*
Y580810D01*
X295460Y601700D02*
X298000D01*
X296730Y600430D02*
Y602970D01*
X449600Y254946D02*
X452140D01*
X450870Y253676D02*
Y256216D01*
X438790Y243300D02*
X441330D01*
X440060Y242030D02*
Y244570D01*
X422110Y251520D02*
X424650D01*
X423380Y250250D02*
Y252790D01*
X441730Y226500D02*
X444270D01*
X443000Y225230D02*
Y227770D01*
X527160Y265240D02*
X529700D01*
X528430Y263970D02*
Y266510D01*
X615918Y63164D02*
X618458D01*
X617188Y61894D02*
Y64434D01*
X443020Y648390D02*
X445560D01*
X444290Y647120D02*
Y649660D01*
X442630Y636570D02*
X445170D01*
X443900Y635300D02*
Y637840D01*
X519880Y221890D02*
X522380D01*
X521130Y220640D02*
Y223140D01*
X399110Y130431D02*
X401650D01*
X400380Y129162D02*
Y131701D01*
X531840Y254200D02*
X534340D01*
X533090Y252950D02*
Y255450D01*
X538320Y271940D02*
X540860D01*
X539590Y270670D02*
Y273210D01*
X532806Y292522D02*
X535346D01*
X534076Y291252D02*
Y293792D01*
X532300Y299900D02*
X534800D01*
X533550Y298650D02*
Y301150D01*
X463950Y334980D02*
X466490D01*
X465220Y333710D02*
Y336250D01*
X432770Y250820D02*
X435310D01*
X434040Y249550D02*
Y252090D01*
X454620Y230700D02*
X457160D01*
X455890Y229430D02*
Y231970D01*
X467840Y227410D02*
X470380D01*
X469110Y226140D02*
Y228680D01*
X470330Y220420D02*
X472830D01*
X471580Y219170D02*
Y221670D01*
X500840Y213040D02*
X503380D01*
X502110Y211770D02*
Y214310D01*
X513800Y209830D02*
X516340D01*
X515070Y208560D02*
Y211100D01*
X546320Y248126D02*
X548860D01*
X547590Y246856D02*
Y249396D01*
X546450Y278660D02*
X548990D01*
X547720Y277390D02*
Y279930D01*
X545890Y309916D02*
X548430D01*
X547160Y308646D02*
Y311186D01*
X429100Y269340D02*
X431640D01*
X430370Y268070D02*
Y270610D01*
X430640Y277320D02*
X433180D01*
X431910Y276050D02*
Y278590D01*
X570790Y513616D02*
X573330D01*
X572060Y512346D02*
Y514886D01*
X571020Y504836D02*
X573560D01*
X572290Y503566D02*
Y506106D01*
X549920Y527496D02*
X552460D01*
X551190Y526226D02*
Y528766D01*
X549470Y560626D02*
X552010D01*
X550740Y559356D02*
Y561896D01*
X527450Y525416D02*
X529990D01*
X528720Y524146D02*
Y526686D01*
X555880Y547736D02*
X558420D01*
X557150Y546466D02*
Y549006D01*
X487050Y554336D02*
X489590D01*
X488320Y553066D02*
Y555606D01*
X373910Y595136D02*
X376450D01*
X375180Y593866D02*
Y596406D01*
X518410Y534346D02*
X520950D01*
X519680Y533076D02*
Y535616D01*
X529560Y506746D02*
X532100D01*
X530830Y505476D02*
Y508016D01*
X592110Y559336D02*
X594650D01*
X593380Y558066D02*
Y560606D01*
X511680Y590836D02*
X514220D01*
X512950Y589566D02*
Y592106D01*
X570590Y559406D02*
X573130D01*
X571860Y558136D02*
Y560676D01*
X563096Y522642D02*
X565636D01*
X564366Y521372D02*
Y523912D01*
X484600Y640506D02*
X487140D01*
X485870Y639236D02*
Y641776D01*
X512314Y648634D02*
X514854D01*
X513584Y647364D02*
Y649904D01*
X701190Y236426D02*
X703730D01*
X702460Y235156D02*
Y237696D01*
X184850Y270096D02*
X187390D01*
X186120Y268826D02*
Y271366D01*
X210800Y270916D02*
X213340D01*
X212070Y269646D02*
Y272186D01*
X444124Y285676D02*
X446664D01*
X445394Y284406D02*
Y286946D01*
X312050Y499396D02*
X314590D01*
X313320Y498126D02*
Y500666D01*
X449640Y279440D02*
X452180D01*
X450910Y278170D02*
Y280710D01*
X311821Y300020D02*
X314361D01*
X313092Y298750D02*
Y301290D01*
X342620Y285270D02*
X345160D01*
X343890Y284000D02*
Y286540D01*
X449040Y314004D02*
X451580D01*
X450310Y312734D02*
Y315274D01*
X428466Y209976D02*
X431006D01*
X429736Y208706D02*
Y211246D01*
X380740Y143428D02*
X383280D01*
X382010Y142158D02*
Y144698D01*
X394176Y182290D02*
X396716D01*
X395446Y181020D02*
Y183560D01*
X403828Y206440D02*
X406368D01*
X405098Y205170D02*
Y207710D01*
X407384Y131998D02*
X409924D01*
X408654Y130728D02*
Y133268D01*
X407892Y184322D02*
X410432D01*
X409162Y183052D02*
Y185592D01*
X421386Y206502D02*
X423926D01*
X422656Y205232D02*
Y207772D01*
X447262Y178734D02*
X449802D01*
X448532Y177464D02*
Y180004D01*
X559860Y171680D02*
X562400D01*
X561130Y170410D02*
Y172950D01*
X555050Y168020D02*
X557590D01*
X556320Y166750D02*
Y169290D01*
X535400Y98220D02*
X537940D01*
X536670Y96950D02*
Y99490D01*
X544040Y98220D02*
X546580D01*
X545310Y96950D02*
Y99490D01*
X489934Y542462D02*
X492474D01*
X491204Y541192D02*
Y543732D01*
X517112Y579038D02*
X519652D01*
X518382Y577768D02*
Y580308D01*
X524224Y586404D02*
X526764D01*
X525494Y585134D02*
Y587674D01*
X490442Y592754D02*
X492982D01*
X491712Y591484D02*
Y594024D01*
X476090Y579038D02*
X478630D01*
X477360Y577768D02*
Y580308D01*
X498090Y589450D02*
X500630D01*
X499360Y588180D02*
Y590720D01*
X496538Y597326D02*
X499078D01*
X497808Y596056D02*
Y598596D01*
X824960Y212262D02*
X827500D01*
X826230Y210992D02*
Y213532D01*
X665194Y190926D02*
X667734D01*
X666464Y189656D02*
Y192196D01*
X684090Y499496D02*
X686630D01*
X685360Y498226D02*
Y500766D01*
X560038Y682162D02*
X562578D01*
X561308Y680892D02*
Y683432D01*
X597376Y644860D02*
X599916D01*
X598646Y643590D02*
Y646130D01*
X596868Y674800D02*
X599408D01*
X598138Y673530D02*
Y676070D01*
X566134Y674800D02*
X568674D01*
X567404Y673530D02*
Y676070D01*
X566760Y644860D02*
X569300D01*
X568030Y643590D02*
Y646130D01*
X431514Y644824D02*
X434054D01*
X432784Y643554D02*
Y646094D01*
X431768Y674288D02*
X434308D01*
X433038Y673018D02*
Y675558D01*
X548862Y667684D02*
X551402D01*
X550132Y666414D02*
Y668954D01*
X453770Y668398D02*
X456310D01*
X455040Y667128D02*
Y669668D01*
X439896Y683178D02*
X442436D01*
X441166Y681908D02*
Y684448D01*
X453885Y682275D02*
X456425D01*
X455155Y681005D02*
Y683545D01*
X399256Y675304D02*
X401796D01*
X400526Y674034D02*
Y676574D01*
X399002Y644570D02*
X401542D01*
X400272Y643300D02*
Y645840D01*
X365060Y651760D02*
X367600D01*
X366330Y650490D02*
Y653030D01*
X322040Y666668D02*
X324580D01*
X323310Y665398D02*
Y667938D01*
X136112Y659048D02*
X138652D01*
X137382Y657778D02*
Y660318D01*
X97758Y658794D02*
X100298D01*
X99028Y657524D02*
Y660064D01*
X96234Y641776D02*
X98774D01*
X97504Y640506D02*
Y643046D01*
X312134Y530524D02*
X314674D01*
X313404Y529254D02*
Y531794D01*
X312090Y270810D02*
X314630D01*
X313360Y269540D02*
Y272080D01*
X684498Y239694D02*
X687038D01*
X685768Y238424D02*
Y240964D01*
X683470Y270760D02*
X686010D01*
X684740Y269490D02*
Y272030D01*
X821658Y37256D02*
X824198D01*
X822928Y35986D02*
Y38526D01*
X828190Y60370D02*
X830730D01*
X829460Y59100D02*
Y61640D01*
X649699Y139339D02*
X652239D01*
X650969Y138069D02*
Y140609D01*
X583914Y83992D02*
X586454D01*
X585184Y82722D02*
Y85262D01*
X550157Y679901D02*
X552696D01*
X551427Y678631D02*
Y681171D01*
X490188Y659302D02*
X492728D01*
X491458Y658032D02*
Y660572D01*
X484346Y597326D02*
X486886D01*
X485616Y596056D02*
Y598596D01*
X446017Y560266D02*
X448557D01*
X447286Y558997D02*
Y561536D01*
X666997Y217875D02*
X669537D01*
X668267Y216604D02*
Y219144D01*
X666997Y203143D02*
X669537D01*
X668267Y201873D02*
Y204412D01*
X671036Y68752D02*
X673576D01*
X672306Y67482D02*
Y70022D01*
X671290Y77134D02*
X673830D01*
X672560Y75864D02*
Y78404D01*
X669352Y101518D02*
X671892D01*
X670622Y100248D02*
Y102788D01*
X355770Y628516D02*
X358310D01*
X357040Y627246D02*
Y629786D01*
X873982Y17698D02*
X876522D01*
X875252Y16428D02*
Y18968D01*
X872458Y636696D02*
X874998D01*
X873728Y635426D02*
Y637966D01*
X633475Y111196D02*
X636015D01*
X634745Y109926D02*
Y112466D01*
X696436Y101518D02*
X698976D01*
X697706Y100248D02*
Y102788D01*
X645890Y89580D02*
X648430D01*
X647160Y88310D02*
Y90850D01*
X649954Y94914D02*
X652494D01*
X651224Y93644D02*
Y96184D01*
X599664Y87216D02*
X602204D01*
X600934Y85946D02*
Y88486D01*
X593350Y82873D02*
X595890D01*
X594620Y81603D02*
Y84143D01*
M02*
