G04*
G04 #@! TF.GenerationSoftware,Altium Limited,Altium Designer,24.5.2 (23)*
G04*
G04 Layer_Color=128*
%FSLAX44Y44*%
%MOMM*%
G71*
G04*
G04 #@! TF.SameCoordinates,92D1E149-34EC-4A89-AFD8-A094A270A496*
G04*
G04*
G04 #@! TF.FilePolarity,Positive*
G04*
G01*
G75*
%ADD10C,0.1270*%
%ADD14C,0.2540*%
%ADD16C,0.1500*%
%ADD22C,1.0000*%
%ADD190C,0.0508*%
G36*
X931375Y-543270D02*
X935910D01*
Y-543724D01*
X938632D01*
Y-544178D01*
X940899D01*
Y-544631D01*
X942713D01*
Y-545085D01*
X944528D01*
Y-545538D01*
X945888D01*
Y-545992D01*
X947249D01*
Y-546445D01*
X948610D01*
Y-546899D01*
X949517D01*
Y-547352D01*
X950878D01*
Y-547806D01*
X951785D01*
Y-548260D01*
X952692D01*
Y-548713D01*
X953599D01*
Y-549167D01*
X954506D01*
Y-549620D01*
X955413D01*
Y-550074D01*
X955867D01*
Y-550527D01*
X956774D01*
Y-550981D01*
X957681D01*
Y-551435D01*
X958135D01*
Y-551888D01*
X959042D01*
Y-552342D01*
X959495D01*
Y-552795D01*
X960402D01*
Y-553249D01*
X960856D01*
Y-553702D01*
X961309D01*
Y-554156D01*
X962216D01*
Y-554609D01*
X962670D01*
Y-555063D01*
X963123D01*
Y-555517D01*
X963577D01*
Y-555970D01*
X964484D01*
Y-556424D01*
X964938D01*
Y-556877D01*
X965391D01*
Y-557331D01*
X965845D01*
Y-557784D01*
X966298D01*
Y-558238D01*
X966752D01*
Y-558691D01*
X967206D01*
Y-559145D01*
X967659D01*
Y-559599D01*
X968113D01*
Y-560052D01*
X968566D01*
Y-560506D01*
X969020D01*
Y-560959D01*
X969473D01*
Y-561413D01*
Y-561866D01*
X969927D01*
Y-562320D01*
X970380D01*
Y-562773D01*
X970834D01*
Y-563227D01*
X971288D01*
Y-563680D01*
Y-564134D01*
X971741D01*
Y-564588D01*
X972195D01*
Y-565041D01*
X972648D01*
Y-565495D01*
Y-565948D01*
X973102D01*
Y-566402D01*
X973555D01*
Y-566855D01*
Y-567309D01*
X974009D01*
Y-567762D01*
X974463D01*
Y-568216D01*
Y-568670D01*
X974916D01*
Y-569123D01*
X975370D01*
Y-569577D01*
Y-570030D01*
X975823D01*
Y-570484D01*
Y-570937D01*
X976277D01*
Y-571391D01*
Y-571844D01*
X976730D01*
Y-572298D01*
Y-572752D01*
X977184D01*
Y-573205D01*
Y-573659D01*
X977637D01*
Y-574112D01*
Y-574566D01*
X978091D01*
Y-575019D01*
Y-575473D01*
X978544D01*
Y-575927D01*
Y-576380D01*
Y-576834D01*
X978998D01*
Y-577287D01*
Y-577741D01*
X979452D01*
Y-578194D01*
Y-578648D01*
Y-579101D01*
X979905D01*
Y-579555D01*
Y-580009D01*
Y-580462D01*
X980359D01*
Y-580916D01*
Y-581369D01*
Y-581823D01*
Y-582276D01*
X980812D01*
Y-582730D01*
Y-583183D01*
Y-583637D01*
Y-584090D01*
X981266D01*
Y-584544D01*
Y-584998D01*
Y-585451D01*
Y-585905D01*
X981719D01*
Y-586358D01*
Y-586812D01*
Y-587265D01*
Y-587719D01*
Y-588172D01*
Y-588626D01*
Y-589080D01*
X982173D01*
Y-589533D01*
Y-589987D01*
Y-590440D01*
Y-590894D01*
Y-591347D01*
Y-591801D01*
Y-592254D01*
Y-592708D01*
Y-593162D01*
Y-593615D01*
Y-594069D01*
X982626D01*
Y-594522D01*
Y-594976D01*
Y-595429D01*
Y-595883D01*
Y-596337D01*
Y-596790D01*
Y-597244D01*
Y-597697D01*
Y-598151D01*
Y-598604D01*
X982173D01*
Y-599058D01*
Y-599511D01*
Y-599965D01*
Y-600419D01*
Y-600872D01*
Y-601326D01*
Y-601779D01*
Y-602233D01*
Y-602686D01*
Y-603140D01*
Y-603593D01*
X981719D01*
Y-604047D01*
Y-604501D01*
Y-604954D01*
Y-605408D01*
Y-605861D01*
Y-606315D01*
X981266D01*
Y-606768D01*
Y-607222D01*
Y-607675D01*
Y-608129D01*
Y-608583D01*
X980812D01*
Y-609036D01*
Y-609490D01*
Y-609943D01*
Y-610397D01*
X980359D01*
Y-610850D01*
Y-611304D01*
Y-611758D01*
Y-612211D01*
X979905D01*
Y-612665D01*
Y-613118D01*
Y-613572D01*
X979452D01*
Y-614025D01*
Y-614479D01*
X978998D01*
Y-614932D01*
Y-615386D01*
Y-615839D01*
X978544D01*
Y-616293D01*
Y-616747D01*
X978091D01*
Y-617200D01*
Y-617654D01*
Y-618107D01*
X977637D01*
Y-618561D01*
Y-619014D01*
X977184D01*
Y-619468D01*
Y-619921D01*
X976730D01*
Y-620375D01*
Y-620829D01*
X976277D01*
Y-621282D01*
Y-621736D01*
X975823D01*
Y-621282D01*
Y-620829D01*
Y-620375D01*
Y-619921D01*
Y-619468D01*
Y-619014D01*
Y-618561D01*
Y-618107D01*
Y-617654D01*
Y-617200D01*
Y-616747D01*
Y-616293D01*
Y-615839D01*
Y-615386D01*
Y-614932D01*
Y-614479D01*
Y-614025D01*
Y-613572D01*
Y-613118D01*
Y-612665D01*
Y-612211D01*
Y-611758D01*
Y-611304D01*
Y-610850D01*
Y-610397D01*
Y-609943D01*
Y-609490D01*
Y-609036D01*
Y-608583D01*
Y-608129D01*
Y-607675D01*
Y-607222D01*
Y-606768D01*
Y-606315D01*
Y-605861D01*
Y-605408D01*
Y-604954D01*
Y-604501D01*
Y-604047D01*
Y-603593D01*
Y-603140D01*
Y-602686D01*
Y-602233D01*
Y-601779D01*
Y-601326D01*
Y-600872D01*
Y-600419D01*
Y-599965D01*
Y-599511D01*
Y-599058D01*
Y-598604D01*
Y-598151D01*
Y-597697D01*
Y-597244D01*
Y-596790D01*
Y-596337D01*
Y-595883D01*
Y-595429D01*
Y-594976D01*
Y-594522D01*
Y-594069D01*
Y-593615D01*
Y-593162D01*
Y-592708D01*
Y-592254D01*
Y-591801D01*
Y-591347D01*
Y-590894D01*
Y-590440D01*
Y-589987D01*
Y-589533D01*
Y-589080D01*
Y-588626D01*
Y-588172D01*
Y-587719D01*
Y-587265D01*
X963123D01*
Y-587719D01*
Y-588172D01*
Y-588626D01*
Y-589080D01*
Y-589533D01*
Y-589987D01*
Y-590440D01*
Y-590894D01*
Y-591347D01*
Y-591801D01*
Y-592254D01*
Y-592708D01*
Y-593162D01*
Y-593615D01*
Y-594069D01*
Y-594522D01*
Y-594976D01*
Y-595429D01*
Y-595883D01*
Y-596337D01*
Y-596790D01*
Y-597244D01*
Y-597697D01*
Y-598151D01*
Y-598604D01*
Y-599058D01*
Y-599511D01*
Y-599965D01*
Y-600419D01*
Y-600872D01*
Y-601326D01*
Y-601779D01*
Y-602233D01*
Y-602686D01*
Y-603140D01*
Y-603593D01*
Y-604047D01*
Y-604501D01*
Y-604954D01*
Y-605408D01*
Y-605861D01*
Y-606315D01*
Y-606768D01*
Y-607222D01*
Y-607675D01*
Y-608129D01*
Y-608583D01*
Y-609036D01*
Y-609490D01*
Y-609943D01*
Y-610397D01*
Y-610850D01*
Y-611304D01*
Y-611758D01*
Y-612211D01*
Y-612665D01*
Y-613118D01*
Y-613572D01*
Y-614025D01*
Y-614479D01*
Y-614932D01*
X962670D01*
Y-615386D01*
Y-615839D01*
Y-616293D01*
Y-616747D01*
X962216D01*
Y-617200D01*
Y-617654D01*
X961763D01*
Y-618107D01*
Y-618561D01*
X961309D01*
Y-619014D01*
X960856D01*
Y-619468D01*
X960402D01*
Y-619921D01*
X959949D01*
Y-620375D01*
X959495D01*
Y-620829D01*
X958588D01*
Y-621282D01*
X957227D01*
Y-621736D01*
X950878D01*
Y-621282D01*
X949517D01*
Y-620829D01*
X948610D01*
Y-620375D01*
X948156D01*
Y-619921D01*
X947703D01*
Y-619468D01*
X947249D01*
Y-619014D01*
Y-618561D01*
X946796D01*
Y-618107D01*
Y-617654D01*
X946342D01*
Y-617200D01*
Y-616747D01*
Y-616293D01*
Y-615839D01*
X945888D01*
Y-615386D01*
Y-614932D01*
Y-614479D01*
Y-614025D01*
Y-613572D01*
Y-613118D01*
Y-612665D01*
Y-612211D01*
Y-611758D01*
Y-611304D01*
Y-610850D01*
Y-610397D01*
Y-609943D01*
Y-609490D01*
Y-609036D01*
Y-608583D01*
Y-608129D01*
Y-607675D01*
Y-607222D01*
Y-606768D01*
Y-606315D01*
Y-605861D01*
Y-605408D01*
Y-604954D01*
Y-604501D01*
Y-604047D01*
Y-603593D01*
Y-603140D01*
Y-602686D01*
Y-602233D01*
Y-601779D01*
Y-601326D01*
Y-600872D01*
Y-600419D01*
Y-599965D01*
Y-599511D01*
Y-599058D01*
Y-598604D01*
Y-598151D01*
Y-597697D01*
Y-597244D01*
Y-596790D01*
Y-596337D01*
Y-595883D01*
Y-595429D01*
Y-594976D01*
Y-594522D01*
Y-594069D01*
Y-593615D01*
Y-593162D01*
Y-592708D01*
Y-592254D01*
Y-591801D01*
Y-591347D01*
Y-590894D01*
Y-590440D01*
Y-589987D01*
Y-589533D01*
Y-589080D01*
Y-588626D01*
Y-588172D01*
Y-587719D01*
Y-587265D01*
X933189D01*
Y-587719D01*
Y-588172D01*
Y-588626D01*
Y-589080D01*
Y-589533D01*
Y-589987D01*
Y-590440D01*
Y-590894D01*
Y-591347D01*
Y-591801D01*
Y-592254D01*
Y-592708D01*
Y-593162D01*
Y-593615D01*
Y-594069D01*
Y-594522D01*
Y-594976D01*
Y-595429D01*
Y-595883D01*
Y-596337D01*
Y-596790D01*
Y-597244D01*
Y-597697D01*
Y-598151D01*
Y-598604D01*
Y-599058D01*
Y-599511D01*
Y-599965D01*
Y-600419D01*
Y-600872D01*
Y-601326D01*
Y-601779D01*
Y-602233D01*
Y-602686D01*
Y-603140D01*
Y-603593D01*
Y-604047D01*
Y-604501D01*
Y-604954D01*
Y-605408D01*
Y-605861D01*
Y-606315D01*
Y-606768D01*
Y-607222D01*
Y-607675D01*
Y-608129D01*
Y-608583D01*
Y-609036D01*
Y-609490D01*
Y-609943D01*
Y-610397D01*
Y-610850D01*
Y-611304D01*
Y-611758D01*
Y-612211D01*
Y-612665D01*
Y-613118D01*
Y-613572D01*
Y-614025D01*
Y-614479D01*
Y-614932D01*
Y-615386D01*
Y-615839D01*
Y-616293D01*
Y-616747D01*
Y-617200D01*
Y-617654D01*
Y-618107D01*
Y-618561D01*
Y-619014D01*
Y-619468D01*
Y-619921D01*
Y-620375D01*
X933642D01*
Y-620829D01*
Y-621282D01*
Y-621736D01*
Y-622189D01*
X934096D01*
Y-622643D01*
Y-623096D01*
Y-623550D01*
X934549D01*
Y-624003D01*
Y-624457D01*
Y-624911D01*
X935003D01*
Y-625364D01*
Y-625818D01*
X935457D01*
Y-626271D01*
X935910D01*
Y-626725D01*
Y-627178D01*
X936364D01*
Y-627632D01*
X936817D01*
Y-628086D01*
X937271D01*
Y-628539D01*
X937724D01*
Y-628993D01*
X938178D01*
Y-629446D01*
X938632D01*
Y-629900D01*
X939539D01*
Y-630353D01*
X939992D01*
Y-630807D01*
X940899D01*
Y-631260D01*
X941806D01*
Y-631714D01*
X942713D01*
Y-632168D01*
X944074D01*
Y-632621D01*
X945888D01*
Y-633075D01*
X954960D01*
Y-632621D01*
X956774D01*
Y-632168D01*
X957681D01*
Y-631714D01*
X959042D01*
Y-631260D01*
X959495D01*
Y-630807D01*
X960402D01*
Y-630353D01*
X960856D01*
Y-629900D01*
X961309D01*
Y-629446D01*
X962216D01*
Y-628993D01*
X962670D01*
Y-628539D01*
X963123D01*
Y-628086D01*
Y-627632D01*
X963577D01*
Y-628086D01*
Y-628539D01*
Y-628993D01*
Y-629446D01*
Y-629900D01*
Y-630353D01*
Y-630807D01*
Y-631260D01*
Y-631714D01*
Y-632168D01*
X968566D01*
Y-632621D01*
X968113D01*
Y-633075D01*
X967659D01*
Y-633528D01*
X967206D01*
Y-633982D01*
X966752D01*
Y-634435D01*
X966298D01*
Y-634889D01*
X965845D01*
Y-635342D01*
X965391D01*
Y-635796D01*
X964938D01*
Y-636250D01*
X964031D01*
Y-636703D01*
X963577D01*
Y-637157D01*
X963123D01*
Y-637610D01*
X962670D01*
Y-638064D01*
X961763D01*
Y-638517D01*
X961309D01*
Y-638971D01*
X960856D01*
Y-639424D01*
X959949D01*
Y-639878D01*
X959495D01*
Y-640331D01*
X958588D01*
Y-640785D01*
X958135D01*
Y-641239D01*
X957227D01*
Y-641692D01*
X956774D01*
Y-642146D01*
X955867D01*
Y-642599D01*
X954960D01*
Y-643053D01*
X954052D01*
Y-643506D01*
X953599D01*
Y-643960D01*
X952692D01*
Y-644414D01*
X951331D01*
Y-644867D01*
X950424D01*
Y-645321D01*
X949517D01*
Y-645774D01*
X948156D01*
Y-646228D01*
X947249D01*
Y-646681D01*
X945888D01*
Y-647135D01*
X944074D01*
Y-647588D01*
X942713D01*
Y-648042D01*
X940899D01*
Y-648495D01*
X938178D01*
Y-648949D01*
X935003D01*
Y-649403D01*
X923211D01*
Y-648949D01*
X920036D01*
Y-648495D01*
X917768D01*
Y-648042D01*
X915954D01*
Y-647588D01*
X914139D01*
Y-647135D01*
X912779D01*
Y-646681D01*
X911418D01*
Y-646228D01*
X910058D01*
Y-645774D01*
X909150D01*
Y-645321D01*
X907790D01*
Y-644867D01*
X906883D01*
Y-644414D01*
X905975D01*
Y-643960D01*
X905068D01*
Y-643506D01*
X904161D01*
Y-643053D01*
X903254D01*
Y-642599D01*
X902347D01*
Y-642146D01*
X901893D01*
Y-641692D01*
X900986D01*
Y-641239D01*
X900079D01*
Y-640785D01*
X899626D01*
Y-640331D01*
X898719D01*
Y-639878D01*
X898265D01*
Y-639424D01*
X897812D01*
Y-638971D01*
X896904D01*
Y-638517D01*
X896451D01*
Y-638064D01*
X895997D01*
Y-637610D01*
X895090D01*
Y-637157D01*
X894637D01*
Y-636703D01*
X894183D01*
Y-636250D01*
X893729D01*
Y-635796D01*
X893276D01*
Y-635342D01*
X892822D01*
Y-634889D01*
X892369D01*
Y-634435D01*
X891915D01*
Y-633982D01*
X891462D01*
Y-633528D01*
X891008D01*
Y-633075D01*
X890555D01*
Y-632621D01*
X890101D01*
Y-632168D01*
X889648D01*
Y-631714D01*
X889194D01*
Y-631260D01*
X888740D01*
Y-630807D01*
X888287D01*
Y-630353D01*
X887833D01*
Y-629900D01*
Y-629446D01*
X887380D01*
Y-628993D01*
X886926D01*
Y-628539D01*
X886473D01*
Y-628086D01*
X886019D01*
Y-627632D01*
Y-627178D01*
X885565D01*
Y-626725D01*
X885112D01*
Y-626271D01*
Y-625818D01*
X884658D01*
Y-625364D01*
X884205D01*
Y-624911D01*
Y-624457D01*
X883751D01*
Y-624003D01*
X883298D01*
Y-623550D01*
Y-623096D01*
X882844D01*
Y-622643D01*
Y-622189D01*
X882391D01*
Y-621736D01*
Y-621282D01*
X881937D01*
Y-620829D01*
Y-620375D01*
X881484D01*
Y-619921D01*
Y-619468D01*
X881030D01*
Y-619014D01*
Y-618561D01*
X880576D01*
Y-618107D01*
Y-617654D01*
X880123D01*
Y-617200D01*
Y-616747D01*
X879669D01*
Y-616293D01*
Y-615839D01*
Y-615386D01*
X879216D01*
Y-614932D01*
Y-614479D01*
Y-614025D01*
X878762D01*
Y-613572D01*
Y-613118D01*
X878309D01*
Y-612665D01*
Y-612211D01*
Y-611758D01*
Y-611304D01*
X877855D01*
Y-610850D01*
Y-610397D01*
Y-609943D01*
X877402D01*
Y-609490D01*
Y-609036D01*
Y-608583D01*
Y-608129D01*
X876948D01*
Y-607675D01*
Y-607222D01*
Y-606768D01*
Y-606315D01*
Y-605861D01*
X876494D01*
Y-605408D01*
Y-604954D01*
Y-604501D01*
Y-604047D01*
Y-603593D01*
Y-603140D01*
Y-602686D01*
X876041D01*
Y-602233D01*
Y-601779D01*
Y-601326D01*
Y-600872D01*
Y-600419D01*
Y-599965D01*
Y-599511D01*
Y-599058D01*
Y-598604D01*
Y-598151D01*
X875587D01*
Y-597697D01*
Y-597244D01*
Y-596790D01*
Y-596337D01*
Y-595883D01*
Y-595429D01*
Y-594976D01*
Y-594522D01*
Y-594069D01*
X876041D01*
Y-593615D01*
Y-593162D01*
Y-592708D01*
Y-592254D01*
Y-591801D01*
Y-591347D01*
Y-590894D01*
Y-590440D01*
Y-589987D01*
X876494D01*
Y-589533D01*
Y-589080D01*
Y-588626D01*
Y-588172D01*
Y-587719D01*
Y-587265D01*
Y-586812D01*
X876948D01*
Y-586358D01*
Y-585905D01*
Y-585451D01*
Y-584998D01*
Y-584544D01*
X877402D01*
Y-584090D01*
Y-583637D01*
Y-583183D01*
Y-582730D01*
X877855D01*
Y-582276D01*
Y-581823D01*
Y-581369D01*
Y-580916D01*
X878309D01*
Y-580462D01*
Y-580009D01*
Y-579555D01*
X878762D01*
Y-579101D01*
Y-578648D01*
Y-578194D01*
X879216D01*
Y-577741D01*
Y-577287D01*
X879669D01*
Y-576834D01*
Y-576380D01*
Y-575927D01*
X880123D01*
Y-575473D01*
Y-575019D01*
X880576D01*
Y-574566D01*
Y-574112D01*
Y-573659D01*
X881030D01*
Y-573205D01*
Y-572752D01*
X881484D01*
Y-572298D01*
Y-571844D01*
X881937D01*
Y-571391D01*
Y-570937D01*
X882391D01*
Y-570484D01*
X882844D01*
Y-570030D01*
Y-569577D01*
X883298D01*
Y-569123D01*
Y-568670D01*
X883751D01*
Y-568216D01*
X884205D01*
Y-567762D01*
Y-567309D01*
X884658D01*
Y-566855D01*
X885112D01*
Y-566402D01*
Y-565948D01*
X885565D01*
Y-565495D01*
X886019D01*
Y-565041D01*
Y-564588D01*
X886473D01*
Y-564134D01*
X886926D01*
Y-563680D01*
X887380D01*
Y-563227D01*
Y-562773D01*
X887833D01*
Y-562320D01*
X888287D01*
Y-561866D01*
X888740D01*
Y-561413D01*
X889194D01*
Y-560959D01*
X889648D01*
Y-560506D01*
X890101D01*
Y-560052D01*
X890555D01*
Y-559599D01*
Y-559145D01*
X891008D01*
Y-558691D01*
X891462D01*
Y-558238D01*
X891915D01*
Y-557784D01*
X892822D01*
Y-557331D01*
X893276D01*
Y-556877D01*
X893729D01*
Y-556424D01*
X894183D01*
Y-555970D01*
X894637D01*
Y-555517D01*
X895090D01*
Y-555063D01*
X895544D01*
Y-554609D01*
X896451D01*
Y-554156D01*
X896904D01*
Y-553702D01*
X897358D01*
Y-553249D01*
X898265D01*
Y-552795D01*
X898719D01*
Y-552342D01*
X899626D01*
Y-551888D01*
X900079D01*
Y-551435D01*
X900986D01*
Y-550981D01*
X901440D01*
Y-550527D01*
X902347D01*
Y-550074D01*
X903254D01*
Y-549620D01*
X903708D01*
Y-549167D01*
X905068D01*
Y-548713D01*
X905975D01*
Y-548260D01*
X906883D01*
Y-547806D01*
X907790D01*
Y-547352D01*
X908697D01*
Y-546899D01*
X910058D01*
Y-546445D01*
X910965D01*
Y-545992D01*
X912325D01*
Y-545538D01*
X913686D01*
Y-545085D01*
X915500D01*
Y-544631D01*
X917314D01*
Y-544178D01*
X919582D01*
Y-543724D01*
X922757D01*
Y-543270D01*
X927293D01*
Y-542817D01*
X931375D01*
Y-543270D01*
D02*
G37*
G36*
X1001676Y-570484D02*
Y-570937D01*
Y-571391D01*
Y-571844D01*
Y-572298D01*
Y-572752D01*
Y-573205D01*
Y-573659D01*
Y-574112D01*
Y-574566D01*
Y-575019D01*
Y-575473D01*
Y-575927D01*
Y-576380D01*
Y-576834D01*
Y-577287D01*
Y-577741D01*
Y-578194D01*
Y-578648D01*
Y-579101D01*
Y-579555D01*
Y-580009D01*
Y-580462D01*
Y-580916D01*
Y-581369D01*
Y-581823D01*
Y-582276D01*
Y-582730D01*
Y-583183D01*
Y-583637D01*
Y-584090D01*
Y-584544D01*
Y-584998D01*
Y-585451D01*
Y-585905D01*
Y-586358D01*
Y-586812D01*
Y-587265D01*
Y-587719D01*
Y-588172D01*
Y-588626D01*
Y-589080D01*
Y-589533D01*
Y-589987D01*
Y-590440D01*
Y-590894D01*
Y-591347D01*
Y-591801D01*
Y-592254D01*
Y-592708D01*
X1002583D01*
Y-592254D01*
X1003036D01*
Y-591801D01*
X1003490D01*
Y-591347D01*
X1003944D01*
Y-590894D01*
X1004397D01*
Y-590440D01*
X1004851D01*
Y-589987D01*
X1005304D01*
Y-589533D01*
X1006211D01*
Y-589080D01*
X1006665D01*
Y-588626D01*
X1007572D01*
Y-588172D01*
X1008479D01*
Y-587719D01*
X1009840D01*
Y-587265D01*
X1011654D01*
Y-586812D01*
X1020272D01*
Y-587265D01*
X1022086D01*
Y-587719D01*
X1023447D01*
Y-588172D01*
X1024807D01*
Y-588626D01*
X1025714D01*
Y-589080D01*
X1026168D01*
Y-589533D01*
X1027075D01*
Y-589987D01*
X1027529D01*
Y-590440D01*
X1028436D01*
Y-590894D01*
X1028889D01*
Y-591347D01*
X1029343D01*
Y-591801D01*
X1029796D01*
Y-592254D01*
X1030250D01*
Y-592708D01*
X1030703D01*
Y-593162D01*
Y-593615D01*
X1031157D01*
Y-594069D01*
X1031610D01*
Y-594522D01*
X1032064D01*
Y-594976D01*
Y-595429D01*
X1032518D01*
Y-595883D01*
Y-596337D01*
X1032971D01*
Y-596790D01*
Y-597244D01*
X1033425D01*
Y-597697D01*
Y-598151D01*
X1033878D01*
Y-598604D01*
Y-599058D01*
Y-599511D01*
X1034332D01*
Y-599965D01*
Y-600419D01*
Y-600872D01*
Y-601326D01*
X1034785D01*
Y-601779D01*
Y-602233D01*
Y-602686D01*
Y-603140D01*
Y-603593D01*
X1035239D01*
Y-604047D01*
Y-604501D01*
Y-604954D01*
Y-605408D01*
Y-605861D01*
Y-606315D01*
Y-606768D01*
Y-607222D01*
Y-607675D01*
X1035693D01*
Y-608129D01*
X1035239D01*
Y-608583D01*
Y-609036D01*
Y-609490D01*
Y-609943D01*
Y-610397D01*
Y-610850D01*
Y-611304D01*
Y-611758D01*
Y-612211D01*
Y-612665D01*
Y-613118D01*
Y-613572D01*
Y-614025D01*
Y-614479D01*
Y-614932D01*
Y-615386D01*
Y-615839D01*
X1034785D01*
Y-616293D01*
Y-616747D01*
Y-617200D01*
Y-617654D01*
Y-618107D01*
X1034332D01*
Y-618561D01*
Y-619014D01*
Y-619468D01*
X1033878D01*
Y-619921D01*
Y-620375D01*
Y-620829D01*
X1033425D01*
Y-621282D01*
Y-621736D01*
Y-622189D01*
X1032971D01*
Y-622643D01*
Y-623096D01*
X1032518D01*
Y-623550D01*
Y-624003D01*
X1032064D01*
Y-624457D01*
X1031610D01*
Y-624911D01*
Y-625364D01*
X1031157D01*
Y-625818D01*
X1030703D01*
Y-626271D01*
X1030250D01*
Y-626725D01*
X1029796D01*
Y-627178D01*
Y-627632D01*
X1028889D01*
Y-628086D01*
X1028436D01*
Y-628539D01*
X1027982D01*
Y-628993D01*
X1027529D01*
Y-629446D01*
X1026621D01*
Y-629900D01*
X1026168D01*
Y-630353D01*
X1025261D01*
Y-630807D01*
X1024354D01*
Y-631260D01*
X1023447D01*
Y-631714D01*
X1022086D01*
Y-632168D01*
X1019818D01*
Y-632621D01*
X1012108D01*
Y-632168D01*
X1009840D01*
Y-631714D01*
X1008933D01*
Y-631260D01*
X1007572D01*
Y-630807D01*
X1007119D01*
Y-630353D01*
X1006211D01*
Y-629900D01*
X1005758D01*
Y-629446D01*
X1004851D01*
Y-628993D01*
X1004397D01*
Y-628539D01*
X1003944D01*
Y-628086D01*
X1003490D01*
Y-627632D01*
X1003036D01*
Y-627178D01*
X1002583D01*
Y-626725D01*
X1002129D01*
Y-626271D01*
Y-625818D01*
X1001222D01*
Y-626271D01*
Y-626725D01*
Y-627178D01*
Y-627632D01*
Y-628086D01*
Y-628539D01*
Y-628993D01*
Y-629446D01*
Y-629900D01*
Y-630353D01*
Y-630807D01*
Y-631260D01*
Y-631714D01*
X989883D01*
Y-631260D01*
Y-630807D01*
Y-630353D01*
Y-629900D01*
Y-629446D01*
Y-628993D01*
Y-628539D01*
Y-628086D01*
Y-627632D01*
Y-627178D01*
Y-626725D01*
Y-626271D01*
Y-625818D01*
Y-625364D01*
Y-624911D01*
Y-624457D01*
Y-624003D01*
Y-623550D01*
Y-623096D01*
Y-622643D01*
Y-622189D01*
Y-621736D01*
Y-621282D01*
Y-620829D01*
Y-620375D01*
Y-619921D01*
Y-619468D01*
Y-619014D01*
Y-618561D01*
Y-618107D01*
Y-617654D01*
Y-617200D01*
Y-616747D01*
Y-616293D01*
Y-615839D01*
Y-615386D01*
Y-614932D01*
Y-614479D01*
Y-614025D01*
Y-613572D01*
Y-613118D01*
Y-612665D01*
Y-612211D01*
Y-611758D01*
Y-611304D01*
Y-610850D01*
Y-610397D01*
Y-609943D01*
Y-609490D01*
Y-609036D01*
Y-608583D01*
Y-608129D01*
Y-607675D01*
Y-607222D01*
Y-606768D01*
Y-606315D01*
Y-605861D01*
Y-605408D01*
Y-604954D01*
Y-604501D01*
Y-604047D01*
Y-603593D01*
Y-603140D01*
Y-602686D01*
Y-602233D01*
Y-601779D01*
Y-601326D01*
Y-600872D01*
Y-600419D01*
Y-599965D01*
Y-599511D01*
Y-599058D01*
Y-598604D01*
Y-598151D01*
Y-597697D01*
Y-597244D01*
Y-596790D01*
Y-596337D01*
Y-595883D01*
Y-595429D01*
Y-594976D01*
Y-594522D01*
Y-594069D01*
Y-593615D01*
Y-593162D01*
Y-592708D01*
Y-592254D01*
Y-591801D01*
Y-591347D01*
Y-590894D01*
Y-590440D01*
Y-589987D01*
Y-589533D01*
Y-589080D01*
Y-588626D01*
Y-588172D01*
Y-587719D01*
Y-587265D01*
Y-586812D01*
Y-586358D01*
Y-585905D01*
Y-585451D01*
Y-584998D01*
Y-584544D01*
Y-584090D01*
Y-583637D01*
Y-583183D01*
Y-582730D01*
Y-582276D01*
Y-581823D01*
Y-581369D01*
Y-580916D01*
Y-580462D01*
Y-580009D01*
Y-579555D01*
Y-579101D01*
Y-578648D01*
Y-578194D01*
Y-577741D01*
Y-577287D01*
Y-576834D01*
Y-576380D01*
Y-575927D01*
Y-575473D01*
Y-575019D01*
Y-574566D01*
Y-574112D01*
Y-573659D01*
Y-573205D01*
Y-572752D01*
Y-572298D01*
Y-571844D01*
Y-571391D01*
Y-570937D01*
Y-570484D01*
Y-570030D01*
X1001676D01*
Y-570484D01*
D02*
G37*
G36*
X1055195D02*
Y-570937D01*
Y-571391D01*
Y-571844D01*
Y-572298D01*
Y-572752D01*
Y-573205D01*
Y-573659D01*
Y-574112D01*
Y-574566D01*
Y-575019D01*
Y-575473D01*
Y-575927D01*
Y-576380D01*
Y-576834D01*
Y-577287D01*
Y-577741D01*
Y-578194D01*
Y-578648D01*
Y-579101D01*
Y-579555D01*
Y-580009D01*
Y-580462D01*
Y-580916D01*
Y-581369D01*
Y-581823D01*
Y-582276D01*
Y-582730D01*
Y-583183D01*
Y-583637D01*
Y-584090D01*
Y-584544D01*
Y-584998D01*
Y-585451D01*
Y-585905D01*
Y-586358D01*
Y-586812D01*
Y-587265D01*
Y-587719D01*
Y-588172D01*
Y-588626D01*
Y-589080D01*
Y-589533D01*
Y-589987D01*
Y-590440D01*
Y-590894D01*
Y-591347D01*
Y-591801D01*
Y-592254D01*
Y-592708D01*
Y-593162D01*
Y-593615D01*
Y-594069D01*
Y-594522D01*
Y-594976D01*
Y-595429D01*
Y-595883D01*
Y-596337D01*
Y-596790D01*
Y-597244D01*
Y-597697D01*
Y-598151D01*
Y-598604D01*
Y-599058D01*
Y-599511D01*
Y-599965D01*
Y-600419D01*
Y-600872D01*
Y-601326D01*
Y-601779D01*
Y-602233D01*
Y-602686D01*
Y-603140D01*
Y-603593D01*
Y-604047D01*
Y-604501D01*
Y-604954D01*
Y-605408D01*
Y-605861D01*
Y-606315D01*
Y-606768D01*
Y-607222D01*
Y-607675D01*
Y-608129D01*
Y-608583D01*
Y-609036D01*
Y-609490D01*
Y-609943D01*
Y-610397D01*
Y-610850D01*
Y-611304D01*
Y-611758D01*
Y-612211D01*
Y-612665D01*
Y-613118D01*
Y-613572D01*
Y-614025D01*
Y-614479D01*
Y-614932D01*
Y-615386D01*
Y-615839D01*
Y-616293D01*
Y-616747D01*
Y-617200D01*
Y-617654D01*
Y-618107D01*
Y-618561D01*
Y-619014D01*
Y-619468D01*
Y-619921D01*
Y-620375D01*
Y-620829D01*
Y-621282D01*
Y-621736D01*
Y-622189D01*
Y-622643D01*
Y-623096D01*
Y-623550D01*
Y-624003D01*
Y-624457D01*
Y-624911D01*
Y-625364D01*
Y-625818D01*
Y-626271D01*
Y-626725D01*
Y-627178D01*
Y-627632D01*
Y-628086D01*
Y-628539D01*
Y-628993D01*
Y-629446D01*
Y-629900D01*
Y-630353D01*
Y-630807D01*
Y-631260D01*
Y-631714D01*
X1043857D01*
Y-631260D01*
Y-630807D01*
Y-630353D01*
Y-629900D01*
Y-629446D01*
Y-628993D01*
Y-628539D01*
Y-628086D01*
Y-627632D01*
Y-627178D01*
Y-626725D01*
Y-626271D01*
Y-625818D01*
Y-625364D01*
Y-624911D01*
Y-624457D01*
Y-624003D01*
Y-623550D01*
Y-623096D01*
Y-622643D01*
Y-622189D01*
Y-621736D01*
Y-621282D01*
Y-620829D01*
Y-620375D01*
Y-619921D01*
Y-619468D01*
Y-619014D01*
Y-618561D01*
Y-618107D01*
Y-617654D01*
Y-617200D01*
Y-616747D01*
Y-616293D01*
Y-615839D01*
Y-615386D01*
Y-614932D01*
Y-614479D01*
Y-614025D01*
Y-613572D01*
Y-613118D01*
Y-612665D01*
Y-612211D01*
Y-611758D01*
Y-611304D01*
Y-610850D01*
Y-610397D01*
Y-609943D01*
Y-609490D01*
Y-609036D01*
Y-608583D01*
Y-608129D01*
Y-607675D01*
Y-607222D01*
Y-606768D01*
Y-606315D01*
Y-605861D01*
Y-605408D01*
Y-604954D01*
Y-604501D01*
Y-604047D01*
Y-603593D01*
Y-603140D01*
Y-602686D01*
Y-602233D01*
Y-601779D01*
Y-601326D01*
Y-600872D01*
Y-600419D01*
Y-599965D01*
Y-599511D01*
Y-599058D01*
Y-598604D01*
Y-598151D01*
Y-597697D01*
Y-597244D01*
Y-596790D01*
Y-596337D01*
Y-595883D01*
Y-595429D01*
Y-594976D01*
Y-594522D01*
Y-594069D01*
Y-593615D01*
Y-593162D01*
Y-592708D01*
Y-592254D01*
Y-591801D01*
Y-591347D01*
Y-590894D01*
Y-590440D01*
Y-589987D01*
Y-589533D01*
Y-589080D01*
Y-588626D01*
Y-588172D01*
Y-587719D01*
Y-587265D01*
Y-586812D01*
Y-586358D01*
Y-585905D01*
Y-585451D01*
Y-584998D01*
Y-584544D01*
Y-584090D01*
Y-583637D01*
Y-583183D01*
Y-582730D01*
Y-582276D01*
Y-581823D01*
Y-581369D01*
Y-580916D01*
Y-580462D01*
Y-580009D01*
Y-579555D01*
Y-579101D01*
Y-578648D01*
Y-578194D01*
Y-577741D01*
Y-577287D01*
Y-576834D01*
Y-576380D01*
Y-575927D01*
Y-575473D01*
Y-575019D01*
Y-574566D01*
Y-574112D01*
Y-573659D01*
Y-573205D01*
Y-572752D01*
Y-572298D01*
Y-571844D01*
Y-571391D01*
Y-570937D01*
Y-570484D01*
Y-570030D01*
X1055195D01*
Y-570484D01*
D02*
G37*
G36*
X1091480Y-587265D02*
X1093748D01*
Y-587719D01*
X1095108D01*
Y-588172D01*
X1096469D01*
Y-588626D01*
X1097376D01*
Y-589080D01*
X1098283D01*
Y-589533D01*
X1099190D01*
Y-589987D01*
X1100098D01*
Y-590440D01*
X1100551D01*
Y-590894D01*
X1101458D01*
Y-591347D01*
X1101912D01*
Y-591801D01*
X1102365D01*
Y-592254D01*
X1102819D01*
Y-592708D01*
X1103272D01*
Y-593162D01*
X1103726D01*
Y-593615D01*
X1104180D01*
Y-594069D01*
X1104633D01*
Y-594522D01*
X1105087D01*
Y-594976D01*
Y-595429D01*
X1105540D01*
Y-595883D01*
X1105994D01*
Y-596337D01*
Y-596790D01*
X1106447D01*
Y-597244D01*
Y-597697D01*
X1106901D01*
Y-598151D01*
Y-598604D01*
X1107354D01*
Y-599058D01*
Y-599511D01*
X1107808D01*
Y-599965D01*
Y-600419D01*
Y-600872D01*
X1108261D01*
Y-601326D01*
Y-601779D01*
Y-602233D01*
Y-602686D01*
Y-603140D01*
X1108715D01*
Y-603593D01*
Y-604047D01*
Y-604501D01*
Y-604954D01*
Y-605408D01*
Y-605861D01*
Y-606315D01*
X1109169D01*
Y-606768D01*
Y-607222D01*
Y-607675D01*
Y-608129D01*
Y-608583D01*
Y-609036D01*
Y-609490D01*
Y-609943D01*
Y-610397D01*
Y-610850D01*
Y-611304D01*
Y-611758D01*
Y-612211D01*
Y-612665D01*
Y-613118D01*
X1108715D01*
Y-613572D01*
Y-614025D01*
Y-614479D01*
Y-614932D01*
Y-615386D01*
Y-615839D01*
Y-616293D01*
X1108261D01*
Y-616747D01*
Y-617200D01*
Y-617654D01*
Y-618107D01*
X1107808D01*
Y-618561D01*
Y-619014D01*
Y-619468D01*
X1107354D01*
Y-619921D01*
Y-620375D01*
Y-620829D01*
X1106901D01*
Y-621282D01*
Y-621736D01*
X1106447D01*
Y-622189D01*
Y-622643D01*
X1105994D01*
Y-623096D01*
Y-623550D01*
X1105540D01*
Y-624003D01*
X1105087D01*
Y-624457D01*
X1104633D01*
Y-624911D01*
Y-625364D01*
X1104180D01*
Y-625818D01*
X1103726D01*
Y-626271D01*
X1103272D01*
Y-626725D01*
X1102819D01*
Y-627178D01*
X1102365D01*
Y-627632D01*
X1101912D01*
Y-628086D01*
X1101005D01*
Y-628539D01*
X1100551D01*
Y-628993D01*
X1099644D01*
Y-629446D01*
X1099190D01*
Y-629900D01*
X1098283D01*
Y-630353D01*
X1097376D01*
Y-630807D01*
X1096015D01*
Y-631260D01*
X1094655D01*
Y-631714D01*
X1093294D01*
Y-632168D01*
X1091026D01*
Y-632621D01*
X1081502D01*
Y-632168D01*
X1078780D01*
Y-631714D01*
X1076966D01*
Y-631260D01*
X1076059D01*
Y-630807D01*
X1074698D01*
Y-630353D01*
X1073791D01*
Y-629900D01*
X1072884D01*
Y-629446D01*
X1072430D01*
Y-628993D01*
X1071523D01*
Y-628539D01*
X1071070D01*
Y-628086D01*
X1070163D01*
Y-627632D01*
X1069709D01*
Y-627178D01*
X1069256D01*
Y-626725D01*
X1068802D01*
Y-626271D01*
X1068348D01*
Y-625818D01*
X1067895D01*
Y-625364D01*
X1067441D01*
Y-624911D01*
Y-624457D01*
X1066988D01*
Y-624003D01*
X1066534D01*
Y-623550D01*
X1066081D01*
Y-623096D01*
Y-622643D01*
X1065627D01*
Y-622189D01*
Y-621736D01*
X1065174D01*
Y-621282D01*
Y-620829D01*
X1064720D01*
Y-620375D01*
Y-619921D01*
Y-619468D01*
X1064267D01*
Y-619014D01*
Y-618561D01*
Y-618107D01*
X1063813D01*
Y-617654D01*
Y-617200D01*
Y-616747D01*
Y-616293D01*
X1063359D01*
Y-615839D01*
Y-615386D01*
Y-614932D01*
Y-614479D01*
Y-614025D01*
Y-613572D01*
Y-613118D01*
Y-612665D01*
X1062906D01*
Y-612211D01*
Y-611758D01*
Y-611304D01*
Y-610850D01*
Y-610397D01*
Y-609943D01*
Y-609490D01*
Y-609036D01*
Y-608583D01*
Y-608129D01*
Y-607675D01*
Y-607222D01*
Y-606768D01*
X1063359D01*
Y-606315D01*
Y-605861D01*
Y-605408D01*
Y-604954D01*
Y-604501D01*
Y-604047D01*
Y-603593D01*
Y-603140D01*
X1063813D01*
Y-602686D01*
Y-602233D01*
Y-601779D01*
Y-601326D01*
X1064267D01*
Y-600872D01*
Y-600419D01*
Y-599965D01*
X1064720D01*
Y-599511D01*
Y-599058D01*
Y-598604D01*
X1065174D01*
Y-598151D01*
Y-597697D01*
X1065627D01*
Y-597244D01*
Y-596790D01*
X1066081D01*
Y-596337D01*
Y-595883D01*
X1066534D01*
Y-595429D01*
X1066988D01*
Y-594976D01*
Y-594522D01*
X1067441D01*
Y-594069D01*
X1067895D01*
Y-593615D01*
X1068348D01*
Y-593162D01*
X1068802D01*
Y-592708D01*
X1069256D01*
Y-592254D01*
X1069709D01*
Y-591801D01*
X1070163D01*
Y-591347D01*
X1070616D01*
Y-590894D01*
X1071523D01*
Y-590440D01*
X1071977D01*
Y-589987D01*
X1072884D01*
Y-589533D01*
X1073791D01*
Y-589080D01*
X1074698D01*
Y-588626D01*
X1075605D01*
Y-588172D01*
X1076966D01*
Y-587719D01*
X1078327D01*
Y-587265D01*
X1080595D01*
Y-586812D01*
X1091480D01*
Y-587265D01*
D02*
G37*
G36*
X1157245Y-588172D02*
X1156792D01*
Y-588626D01*
Y-589080D01*
X1156338D01*
Y-589533D01*
X1155885D01*
Y-589987D01*
X1155431D01*
Y-590440D01*
Y-590894D01*
X1154978D01*
Y-591347D01*
X1154524D01*
Y-591801D01*
Y-592254D01*
X1154071D01*
Y-592708D01*
X1153617D01*
Y-593162D01*
X1153164D01*
Y-593615D01*
Y-594069D01*
X1152710D01*
Y-594522D01*
X1152256D01*
Y-594976D01*
X1151803D01*
Y-595429D01*
Y-595883D01*
X1151349D01*
Y-596337D01*
X1150896D01*
Y-596790D01*
X1150442D01*
Y-597244D01*
Y-597697D01*
X1149989D01*
Y-598151D01*
X1149535D01*
Y-598604D01*
Y-599058D01*
X1149081D01*
Y-599511D01*
X1148628D01*
Y-599965D01*
X1148174D01*
Y-600419D01*
Y-600872D01*
X1147721D01*
Y-601326D01*
X1147267D01*
Y-601779D01*
X1146814D01*
Y-602233D01*
Y-602686D01*
X1146360D01*
Y-603140D01*
X1145907D01*
Y-603593D01*
Y-604047D01*
X1145453D01*
Y-604501D01*
X1144999D01*
Y-604954D01*
X1144546D01*
Y-605408D01*
Y-605861D01*
X1144092D01*
Y-606315D01*
X1143639D01*
Y-606768D01*
X1143185D01*
Y-607222D01*
Y-607675D01*
X1142732D01*
Y-608129D01*
X1142278D01*
Y-608583D01*
X1141825D01*
Y-609036D01*
Y-609490D01*
Y-609943D01*
X1142278D01*
Y-610397D01*
Y-610850D01*
X1142732D01*
Y-611304D01*
X1143185D01*
Y-611758D01*
X1143639D01*
Y-612211D01*
Y-612665D01*
X1144092D01*
Y-613118D01*
X1144546D01*
Y-613572D01*
X1144999D01*
Y-614025D01*
Y-614479D01*
X1145453D01*
Y-614932D01*
X1145907D01*
Y-615386D01*
Y-615839D01*
X1146360D01*
Y-616293D01*
X1146814D01*
Y-616747D01*
X1147267D01*
Y-617200D01*
Y-617654D01*
X1147721D01*
Y-618107D01*
X1148174D01*
Y-618561D01*
X1148628D01*
Y-619014D01*
Y-619468D01*
X1149081D01*
Y-619921D01*
X1149535D01*
Y-620375D01*
X1149989D01*
Y-620829D01*
Y-621282D01*
X1150442D01*
Y-621736D01*
X1150896D01*
Y-622189D01*
X1151349D01*
Y-622643D01*
Y-623096D01*
X1151803D01*
Y-623550D01*
X1152256D01*
Y-624003D01*
X1152710D01*
Y-624457D01*
Y-624911D01*
X1153164D01*
Y-625364D01*
X1153617D01*
Y-625818D01*
X1154071D01*
Y-626271D01*
Y-626725D01*
X1154524D01*
Y-627178D01*
X1154978D01*
Y-627632D01*
Y-628086D01*
X1155431D01*
Y-628539D01*
X1155885D01*
Y-628993D01*
X1156338D01*
Y-629446D01*
Y-629900D01*
X1156792D01*
Y-630353D01*
X1157245D01*
Y-630807D01*
X1157699D01*
Y-631260D01*
X1158153D01*
Y-631714D01*
X1143639D01*
Y-631260D01*
Y-630807D01*
X1143185D01*
Y-630353D01*
X1142732D01*
Y-629900D01*
X1142278D01*
Y-629446D01*
Y-628993D01*
X1141825D01*
Y-628539D01*
X1141371D01*
Y-628086D01*
X1140918D01*
Y-627632D01*
Y-627178D01*
X1140464D01*
Y-626725D01*
X1140010D01*
Y-626271D01*
Y-625818D01*
X1139557D01*
Y-625364D01*
X1139103D01*
Y-624911D01*
X1138650D01*
Y-624457D01*
Y-624003D01*
X1138196D01*
Y-623550D01*
X1137743D01*
Y-623096D01*
X1137289D01*
Y-622643D01*
Y-622189D01*
X1136835D01*
Y-621736D01*
X1136382D01*
Y-621282D01*
Y-620829D01*
X1135928D01*
Y-620375D01*
X1135475D01*
Y-619921D01*
X1135021D01*
Y-619468D01*
Y-619014D01*
X1134568D01*
Y-618561D01*
X1134114D01*
Y-618107D01*
X1133661D01*
Y-617654D01*
X1133207D01*
Y-618107D01*
Y-618561D01*
X1132754D01*
Y-619014D01*
X1132300D01*
Y-619468D01*
X1131846D01*
Y-619921D01*
Y-620375D01*
X1131393D01*
Y-620829D01*
X1130939D01*
Y-621282D01*
Y-621736D01*
X1130486D01*
Y-622189D01*
X1130032D01*
Y-622643D01*
X1129579D01*
Y-623096D01*
Y-623550D01*
X1129125D01*
Y-624003D01*
X1128671D01*
Y-624457D01*
Y-624911D01*
X1128218D01*
Y-625364D01*
X1127764D01*
Y-625818D01*
X1127311D01*
Y-626271D01*
Y-626725D01*
X1126857D01*
Y-627178D01*
X1126404D01*
Y-627632D01*
Y-628086D01*
X1125950D01*
Y-628539D01*
X1125497D01*
Y-628993D01*
X1125043D01*
Y-629446D01*
Y-629900D01*
X1124589D01*
Y-630353D01*
X1124136D01*
Y-630807D01*
Y-631260D01*
X1123682D01*
Y-631714D01*
X1110529D01*
Y-631260D01*
X1110983D01*
Y-630807D01*
X1111436D01*
Y-630353D01*
Y-629900D01*
X1111890D01*
Y-629446D01*
X1112344D01*
Y-628993D01*
X1112797D01*
Y-628539D01*
Y-628086D01*
X1113251D01*
Y-627632D01*
X1113704D01*
Y-627178D01*
Y-626725D01*
X1114158D01*
Y-626271D01*
X1114611D01*
Y-625818D01*
X1115065D01*
Y-625364D01*
X1115518D01*
Y-624911D01*
Y-624457D01*
X1115972D01*
Y-624003D01*
X1116425D01*
Y-623550D01*
Y-623096D01*
X1116879D01*
Y-622643D01*
X1117333D01*
Y-622189D01*
X1117786D01*
Y-621736D01*
Y-621282D01*
X1118240D01*
Y-620829D01*
X1118693D01*
Y-620375D01*
X1119147D01*
Y-619921D01*
Y-619468D01*
X1119600D01*
Y-619014D01*
X1120054D01*
Y-618561D01*
X1120508D01*
Y-618107D01*
Y-617654D01*
X1120961D01*
Y-617200D01*
X1121415D01*
Y-616747D01*
X1121868D01*
Y-616293D01*
Y-615839D01*
X1122322D01*
Y-615386D01*
X1122775D01*
Y-614932D01*
X1123229D01*
Y-614479D01*
Y-614025D01*
X1123682D01*
Y-613572D01*
X1124136D01*
Y-613118D01*
X1124589D01*
Y-612665D01*
Y-612211D01*
X1125043D01*
Y-611758D01*
X1125497D01*
Y-611304D01*
Y-610850D01*
X1125950D01*
Y-610397D01*
X1126404D01*
Y-609943D01*
X1126857D01*
Y-609490D01*
Y-609036D01*
X1126404D01*
Y-608583D01*
X1125950D01*
Y-608129D01*
X1125497D01*
Y-607675D01*
Y-607222D01*
X1125043D01*
Y-606768D01*
X1124589D01*
Y-606315D01*
X1124136D01*
Y-605861D01*
Y-605408D01*
X1123682D01*
Y-604954D01*
X1123229D01*
Y-604501D01*
Y-604047D01*
X1122775D01*
Y-603593D01*
X1122322D01*
Y-603140D01*
X1121868D01*
Y-602686D01*
Y-602233D01*
X1121415D01*
Y-601779D01*
X1120961D01*
Y-601326D01*
X1120508D01*
Y-600872D01*
Y-600419D01*
X1120054D01*
Y-599965D01*
X1119600D01*
Y-599511D01*
Y-599058D01*
X1119147D01*
Y-598604D01*
X1118693D01*
Y-598151D01*
X1118240D01*
Y-597697D01*
Y-597244D01*
X1117786D01*
Y-596790D01*
X1117333D01*
Y-596337D01*
X1116879D01*
Y-595883D01*
Y-595429D01*
X1116425D01*
Y-594976D01*
X1115972D01*
Y-594522D01*
Y-594069D01*
X1115518D01*
Y-593615D01*
X1115065D01*
Y-593162D01*
X1114611D01*
Y-592708D01*
Y-592254D01*
X1114158D01*
Y-591801D01*
X1113704D01*
Y-591347D01*
X1113251D01*
Y-590894D01*
Y-590440D01*
X1112797D01*
Y-589987D01*
X1112344D01*
Y-589533D01*
Y-589080D01*
X1111890D01*
Y-588626D01*
X1111436D01*
Y-588172D01*
X1110983D01*
Y-587719D01*
X1125043D01*
Y-588172D01*
X1125497D01*
Y-588626D01*
X1125950D01*
Y-589080D01*
Y-589533D01*
X1126404D01*
Y-589987D01*
X1126857D01*
Y-590440D01*
X1127311D01*
Y-590894D01*
Y-591347D01*
X1127764D01*
Y-591801D01*
X1128218D01*
Y-592254D01*
Y-592708D01*
X1128671D01*
Y-593162D01*
X1129125D01*
Y-593615D01*
Y-594069D01*
X1129579D01*
Y-594522D01*
X1130032D01*
Y-594976D01*
X1130486D01*
Y-595429D01*
Y-595883D01*
X1130939D01*
Y-596337D01*
X1131393D01*
Y-596790D01*
Y-597244D01*
X1131846D01*
Y-597697D01*
X1132300D01*
Y-598151D01*
X1132754D01*
Y-598604D01*
Y-599058D01*
X1133207D01*
Y-599511D01*
X1133661D01*
Y-599965D01*
Y-600419D01*
X1134114D01*
Y-600872D01*
X1134568D01*
Y-601326D01*
X1135021D01*
Y-600872D01*
X1135475D01*
Y-600419D01*
Y-599965D01*
X1135928D01*
Y-599511D01*
X1136382D01*
Y-599058D01*
X1136835D01*
Y-598604D01*
Y-598151D01*
X1137289D01*
Y-597697D01*
X1137743D01*
Y-597244D01*
Y-596790D01*
X1138196D01*
Y-596337D01*
X1138650D01*
Y-595883D01*
X1139103D01*
Y-595429D01*
Y-594976D01*
X1139557D01*
Y-594522D01*
X1140010D01*
Y-594069D01*
Y-593615D01*
X1140464D01*
Y-593162D01*
X1140918D01*
Y-592708D01*
X1141371D01*
Y-592254D01*
Y-591801D01*
X1141825D01*
Y-591347D01*
X1142278D01*
Y-590894D01*
Y-590440D01*
X1142732D01*
Y-589987D01*
X1143185D01*
Y-589533D01*
X1143639D01*
Y-589080D01*
Y-588626D01*
X1144092D01*
Y-588172D01*
X1144546D01*
Y-587719D01*
X1157245D01*
Y-588172D01*
D02*
G37*
%LPC*%
G36*
X919582Y-566855D02*
X917314D01*
Y-567309D01*
X915500D01*
Y-567762D01*
X914593D01*
Y-568216D01*
X913686D01*
Y-568670D01*
X912779D01*
Y-569123D01*
X912325D01*
Y-569577D01*
X911872D01*
Y-570030D01*
X911418D01*
Y-570484D01*
X910965D01*
Y-570937D01*
Y-571391D01*
X910511D01*
Y-571844D01*
X910058D01*
Y-572298D01*
Y-572752D01*
X909604D01*
Y-573205D01*
Y-573659D01*
Y-574112D01*
Y-574566D01*
X909150D01*
Y-575019D01*
Y-575473D01*
Y-575927D01*
Y-576380D01*
Y-576834D01*
Y-577287D01*
Y-577741D01*
Y-578194D01*
X909604D01*
Y-578648D01*
Y-579101D01*
Y-579555D01*
X910058D01*
Y-580009D01*
Y-580462D01*
X910511D01*
Y-580916D01*
Y-581369D01*
X910965D01*
Y-581823D01*
X911418D01*
Y-582276D01*
X911872D01*
Y-582730D01*
X912325D01*
Y-583183D01*
X912779D01*
Y-583637D01*
X913232D01*
Y-584090D01*
X914139D01*
Y-584544D01*
X915047D01*
Y-584998D01*
X916407D01*
Y-585451D01*
X920489D01*
Y-584998D01*
X921850D01*
Y-584544D01*
X922757D01*
Y-584090D01*
X923664D01*
Y-583637D01*
X924118D01*
Y-583183D01*
X924571D01*
Y-582730D01*
X925478D01*
Y-582276D01*
Y-581823D01*
X925932D01*
Y-581369D01*
X926385D01*
Y-580916D01*
Y-580462D01*
X926839D01*
Y-580009D01*
Y-579555D01*
X927293D01*
Y-579101D01*
Y-578648D01*
Y-578194D01*
X927746D01*
Y-577741D01*
Y-577287D01*
Y-576834D01*
Y-576380D01*
Y-575927D01*
Y-575473D01*
Y-575019D01*
Y-574566D01*
X927293D01*
Y-574112D01*
Y-573659D01*
Y-573205D01*
Y-572752D01*
X926839D01*
Y-572298D01*
Y-571844D01*
X926385D01*
Y-571391D01*
Y-570937D01*
X925932D01*
Y-570484D01*
X925478D01*
Y-570030D01*
X925025D01*
Y-569577D01*
X924571D01*
Y-569123D01*
X924118D01*
Y-568670D01*
X923211D01*
Y-568216D01*
X922757D01*
Y-567762D01*
X921396D01*
Y-567309D01*
X919582D01*
Y-566855D01*
D02*
G37*
G36*
X1014375Y-596790D02*
X1010293D01*
Y-597244D01*
X1008479D01*
Y-597697D01*
X1007119D01*
Y-598151D01*
X1006211D01*
Y-598604D01*
X1005758D01*
Y-599058D01*
X1004851D01*
Y-599511D01*
X1004397D01*
Y-599965D01*
X1003944D01*
Y-600419D01*
Y-600872D01*
X1003490D01*
Y-601326D01*
X1003036D01*
Y-601779D01*
Y-602233D01*
X1002583D01*
Y-602686D01*
Y-603140D01*
X1002129D01*
Y-603593D01*
Y-604047D01*
Y-604501D01*
X1001676D01*
Y-604954D01*
Y-605408D01*
Y-605861D01*
Y-606315D01*
Y-606768D01*
X1001222D01*
Y-607222D01*
Y-607675D01*
Y-608129D01*
Y-608583D01*
Y-609036D01*
Y-609490D01*
Y-609943D01*
Y-610397D01*
Y-610850D01*
Y-611304D01*
Y-611758D01*
Y-612211D01*
Y-612665D01*
X1001676D01*
Y-613118D01*
Y-613572D01*
Y-614025D01*
Y-614479D01*
Y-614932D01*
X1002129D01*
Y-615386D01*
Y-615839D01*
Y-616293D01*
X1002583D01*
Y-616747D01*
Y-617200D01*
X1003036D01*
Y-617654D01*
Y-618107D01*
X1003490D01*
Y-618561D01*
X1003944D01*
Y-619014D01*
X1004397D01*
Y-619468D01*
X1004851D01*
Y-619921D01*
X1005304D01*
Y-620375D01*
X1005758D01*
Y-620829D01*
X1006665D01*
Y-621282D01*
X1007572D01*
Y-621736D01*
X1008479D01*
Y-622189D01*
X1010747D01*
Y-622643D01*
X1013922D01*
Y-622189D01*
X1016190D01*
Y-621736D01*
X1017550D01*
Y-621282D01*
X1018457D01*
Y-620829D01*
X1018911D01*
Y-620375D01*
X1019818D01*
Y-619921D01*
X1020272D01*
Y-619468D01*
X1020725D01*
Y-619014D01*
X1021179D01*
Y-618561D01*
Y-618107D01*
X1021632D01*
Y-617654D01*
X1022086D01*
Y-617200D01*
Y-616747D01*
X1022539D01*
Y-616293D01*
Y-615839D01*
Y-615386D01*
X1022993D01*
Y-614932D01*
Y-614479D01*
Y-614025D01*
Y-613572D01*
X1023447D01*
Y-613118D01*
Y-612665D01*
Y-612211D01*
Y-611758D01*
Y-611304D01*
Y-610850D01*
Y-610397D01*
Y-609943D01*
Y-609490D01*
Y-609036D01*
Y-608583D01*
Y-608129D01*
Y-607675D01*
Y-607222D01*
Y-606768D01*
Y-606315D01*
Y-605861D01*
Y-605408D01*
X1022993D01*
Y-604954D01*
Y-604501D01*
Y-604047D01*
Y-603593D01*
X1022539D01*
Y-603140D01*
Y-602686D01*
X1022086D01*
Y-602233D01*
Y-601779D01*
X1021632D01*
Y-601326D01*
Y-600872D01*
X1021179D01*
Y-600419D01*
X1020725D01*
Y-599965D01*
X1020272D01*
Y-599511D01*
X1019818D01*
Y-599058D01*
X1019364D01*
Y-598604D01*
X1018457D01*
Y-598151D01*
X1017550D01*
Y-597697D01*
X1016643D01*
Y-597244D01*
X1014375D01*
Y-596790D01*
D02*
G37*
G36*
X1088305D02*
X1083769D01*
Y-597244D01*
X1081955D01*
Y-597697D01*
X1080595D01*
Y-598151D01*
X1079688D01*
Y-598604D01*
X1079234D01*
Y-599058D01*
X1078780D01*
Y-599511D01*
X1078327D01*
Y-599965D01*
X1077873D01*
Y-600419D01*
X1077420D01*
Y-600872D01*
X1076966D01*
Y-601326D01*
X1076513D01*
Y-601779D01*
Y-602233D01*
X1076059D01*
Y-602686D01*
Y-603140D01*
X1075605D01*
Y-603593D01*
Y-604047D01*
Y-604501D01*
X1075152D01*
Y-604954D01*
Y-605408D01*
Y-605861D01*
Y-606315D01*
Y-606768D01*
Y-607222D01*
Y-607675D01*
X1074698D01*
Y-608129D01*
Y-608583D01*
Y-609036D01*
Y-609490D01*
Y-609943D01*
Y-610397D01*
Y-610850D01*
Y-611304D01*
X1075152D01*
Y-611758D01*
Y-612211D01*
Y-612665D01*
Y-613118D01*
Y-613572D01*
Y-614025D01*
Y-614479D01*
X1075605D01*
Y-614932D01*
Y-615386D01*
Y-615839D01*
X1076059D01*
Y-616293D01*
Y-616747D01*
Y-617200D01*
X1076513D01*
Y-617654D01*
X1076966D01*
Y-618107D01*
Y-618561D01*
X1077420D01*
Y-619014D01*
X1077873D01*
Y-619468D01*
X1078327D01*
Y-619921D01*
X1078780D01*
Y-620375D01*
X1079234D01*
Y-620829D01*
X1080141D01*
Y-621282D01*
X1081048D01*
Y-621736D01*
X1082409D01*
Y-622189D01*
X1084677D01*
Y-622643D01*
X1087398D01*
Y-622189D01*
X1089666D01*
Y-621736D01*
X1091026D01*
Y-621282D01*
X1091934D01*
Y-620829D01*
X1092841D01*
Y-620375D01*
X1093294D01*
Y-619921D01*
X1093748D01*
Y-619468D01*
X1094201D01*
Y-619014D01*
X1094655D01*
Y-618561D01*
X1095108D01*
Y-618107D01*
Y-617654D01*
X1095562D01*
Y-617200D01*
X1096015D01*
Y-616747D01*
Y-616293D01*
Y-615839D01*
X1096469D01*
Y-615386D01*
Y-614932D01*
Y-614479D01*
X1096923D01*
Y-614025D01*
Y-613572D01*
Y-613118D01*
Y-612665D01*
Y-612211D01*
X1097376D01*
Y-611758D01*
Y-611304D01*
Y-610850D01*
Y-610397D01*
Y-609943D01*
Y-609490D01*
Y-609036D01*
Y-608583D01*
Y-608129D01*
Y-607675D01*
Y-607222D01*
X1096923D01*
Y-606768D01*
Y-606315D01*
Y-605861D01*
Y-605408D01*
Y-604954D01*
Y-604501D01*
X1096469D01*
Y-604047D01*
Y-603593D01*
Y-603140D01*
X1096015D01*
Y-602686D01*
Y-602233D01*
X1095562D01*
Y-601779D01*
Y-601326D01*
X1095108D01*
Y-600872D01*
X1094655D01*
Y-600419D01*
X1094201D01*
Y-599965D01*
X1093748D01*
Y-599511D01*
X1093294D01*
Y-599058D01*
X1092841D01*
Y-598604D01*
X1091934D01*
Y-598151D01*
X1091480D01*
Y-597697D01*
X1090119D01*
Y-597244D01*
X1088305D01*
Y-596790D01*
D02*
G37*
%LPD*%
D10*
X-329019Y1104464D02*
X-331342Y1110563D01*
X-333665Y1104464D01*
X-332794Y1106497D02*
X-329890D01*
X-333665Y570813D02*
Y564714D01*
Y570813D02*
X-331052D01*
X-330180Y570523D01*
X-329890Y570232D01*
X-329600Y569651D01*
Y569071D01*
X-329890Y568490D01*
X-330180Y568199D01*
X-331052Y567909D01*
X-333665D02*
X-331052D01*
X-330180Y567618D01*
X-329890Y567328D01*
X-329600Y566747D01*
Y565876D01*
X-329890Y565295D01*
X-330180Y565005D01*
X-331052Y564714D01*
X-333665D01*
X-329309Y29611D02*
X-329600Y30192D01*
X-330180Y30773D01*
X-330761Y31063D01*
X-331923D01*
X-332504Y30773D01*
X-333084Y30192D01*
X-333375Y29611D01*
X-333665Y28740D01*
Y27288D01*
X-333375Y26416D01*
X-333084Y25836D01*
X-332504Y25255D01*
X-331923Y24964D01*
X-330761D01*
X-330180Y25255D01*
X-329600Y25836D01*
X-329309Y26416D01*
X-333665Y-507417D02*
Y-513516D01*
Y-507417D02*
X-331632D01*
X-330761Y-507707D01*
X-330180Y-508288D01*
X-329890Y-508869D01*
X-329600Y-509740D01*
Y-511192D01*
X-329890Y-512064D01*
X-330180Y-512644D01*
X-330761Y-513225D01*
X-331632Y-513516D01*
X-333665D01*
X-9476Y-740227D02*
X-8895Y-739936D01*
X-8024Y-739065D01*
Y-745164D01*
X689483Y-740517D02*
Y-740227D01*
X689773Y-739646D01*
X690064Y-739355D01*
X690645Y-739065D01*
X691806D01*
X692387Y-739355D01*
X692678Y-739646D01*
X692968Y-740227D01*
Y-740807D01*
X692678Y-741388D01*
X692097Y-742260D01*
X689193Y-745164D01*
X693258D01*
X1387003Y-739065D02*
X1390198D01*
X1388456Y-741388D01*
X1389327D01*
X1389908Y-741679D01*
X1390198Y-741969D01*
X1390488Y-742840D01*
Y-743421D01*
X1390198Y-744292D01*
X1389617Y-744873D01*
X1388746Y-745164D01*
X1387875D01*
X1387003Y-744873D01*
X1386713Y-744583D01*
X1386423Y-744002D01*
X2088083Y-739065D02*
X2085179Y-743131D01*
X2089536D01*
X2088083Y-739065D02*
Y-745164D01*
X-9476Y1367973D02*
X-8895Y1368264D01*
X-8024Y1369135D01*
Y1363036D01*
X689483Y1367683D02*
Y1367973D01*
X689773Y1368554D01*
X690064Y1368845D01*
X690645Y1369135D01*
X691806D01*
X692387Y1368845D01*
X692678Y1368554D01*
X692968Y1367973D01*
Y1367393D01*
X692678Y1366812D01*
X692097Y1365941D01*
X689193Y1363036D01*
X693258D01*
X1387003Y1369135D02*
X1390198D01*
X1388456Y1366812D01*
X1389327D01*
X1389908Y1366521D01*
X1390198Y1366231D01*
X1390488Y1365360D01*
Y1364779D01*
X1390198Y1363908D01*
X1389617Y1363327D01*
X1388746Y1363036D01*
X1387875D01*
X1387003Y1363327D01*
X1386713Y1363617D01*
X1386423Y1364198D01*
X2088083Y1369135D02*
X2085179Y1365069D01*
X2089536D01*
X2088083Y1369135D02*
Y1363036D01*
X2414181Y1104464D02*
X2411858Y1110563D01*
X2409535Y1104464D01*
X2410406Y1106497D02*
X2413310D01*
X2409535Y570813D02*
Y564714D01*
Y570813D02*
X2412148D01*
X2413020Y570523D01*
X2413310Y570232D01*
X2413600Y569651D01*
Y569071D01*
X2413310Y568490D01*
X2413020Y568199D01*
X2412148Y567909D01*
X2409535D02*
X2412148D01*
X2413020Y567618D01*
X2413310Y567328D01*
X2413600Y566747D01*
Y565876D01*
X2413310Y565295D01*
X2413020Y565005D01*
X2412148Y564714D01*
X2409535D01*
X2413891Y29611D02*
X2413600Y30192D01*
X2413020Y30773D01*
X2412439Y31063D01*
X2411277D01*
X2410696Y30773D01*
X2410116Y30192D01*
X2409825Y29611D01*
X2409535Y28740D01*
Y27288D01*
X2409825Y26416D01*
X2410116Y25836D01*
X2410696Y25255D01*
X2411277Y24964D01*
X2412439D01*
X2413020Y25255D01*
X2413600Y25836D01*
X2413891Y26416D01*
X2409535Y-507417D02*
Y-513516D01*
Y-507417D02*
X2411568D01*
X2412439Y-507707D01*
X2413020Y-508288D01*
X2413310Y-508869D01*
X2413600Y-509740D01*
Y-511192D01*
X2413310Y-512064D01*
X2413020Y-512644D01*
X2412439Y-513225D01*
X2411568Y-513516D01*
X2409535D01*
X2103959Y225656D02*
Y219557D01*
X2107444D01*
X2112758D02*
X2110435Y225656D01*
X2108112Y219557D01*
X2108983Y221590D02*
X2111887D01*
X2114181Y225656D02*
X2116505Y222752D01*
Y219557D01*
X2118828Y225656D02*
X2116505Y222752D01*
X2123387Y225656D02*
X2119612D01*
Y219557D01*
X2123387D01*
X2119612Y222752D02*
X2121935D01*
X2124404Y225656D02*
Y219557D01*
Y225656D02*
X2127018D01*
X2127889Y225366D01*
X2128179Y225075D01*
X2128470Y224494D01*
Y223914D01*
X2128179Y223333D01*
X2127889Y223042D01*
X2127018Y222752D01*
X2124404D01*
X2126437D02*
X2128470Y219557D01*
X2134626Y225656D02*
Y221300D01*
X2134917Y220429D01*
X2135498Y219848D01*
X2136369Y219557D01*
X2136950D01*
X2137821Y219848D01*
X2138402Y220429D01*
X2138692Y221300D01*
Y225656D01*
X2144442Y224785D02*
X2143862Y225366D01*
X2142990Y225656D01*
X2141829D01*
X2140957Y225366D01*
X2140376Y224785D01*
Y224204D01*
X2140667Y223623D01*
X2140957Y223333D01*
X2141538Y223042D01*
X2143281Y222461D01*
X2143862Y222171D01*
X2144152Y221881D01*
X2144442Y221300D01*
Y220429D01*
X2143862Y219848D01*
X2142990Y219557D01*
X2141829D01*
X2140957Y219848D01*
X2140376Y220429D01*
X2150454Y219557D02*
X2148131Y225656D01*
X2145807Y219557D01*
X2146678Y221590D02*
X2149583D01*
X2156233Y224204D02*
X2155943Y224785D01*
X2155362Y225366D01*
X2154781Y225656D01*
X2153619D01*
X2153038Y225366D01*
X2152458Y224785D01*
X2152167Y224204D01*
X2151877Y223333D01*
Y221881D01*
X2152167Y221009D01*
X2152458Y220429D01*
X2153038Y219848D01*
X2153619Y219557D01*
X2154781D01*
X2155362Y219848D01*
X2155943Y220429D01*
X2156233Y221009D01*
Y221881D01*
X2154781D02*
X2156233D01*
X2161402Y225656D02*
X2157627D01*
Y219557D01*
X2161402D01*
X2157627Y222752D02*
X2159950D01*
X1895245Y1304016D02*
Y1310114D01*
X1898294D01*
X1899310Y1309098D01*
Y1307065D01*
X1898294Y1306049D01*
X1895245D01*
X1897277D02*
X1899310Y1304016D01*
X1905408Y1310114D02*
X1901343D01*
Y1304016D01*
X1905408D01*
X1901343Y1307065D02*
X1903375D01*
X1907441Y1310114D02*
Y1306049D01*
X1909473Y1304016D01*
X1911506Y1306049D01*
Y1310114D01*
X1913539D02*
X1915571D01*
X1914555D01*
Y1304016D01*
X1913539D01*
X1915571D01*
X1922686Y1309098D02*
X1921669Y1310114D01*
X1919637D01*
X1918620Y1309098D01*
Y1308082D01*
X1919637Y1307065D01*
X1921669D01*
X1922686Y1306049D01*
Y1305033D01*
X1921669Y1304016D01*
X1919637D01*
X1918620Y1305033D01*
X1924718Y1310114D02*
X1926751D01*
X1925735D01*
Y1304016D01*
X1924718D01*
X1926751D01*
X1932849Y1310114D02*
X1930816D01*
X1929800Y1309098D01*
Y1305033D01*
X1930816Y1304016D01*
X1932849D01*
X1933865Y1305033D01*
Y1309098D01*
X1932849Y1310114D01*
X1935898Y1304016D02*
Y1310114D01*
X1939963Y1304016D01*
Y1310114D01*
X1537105Y1260836D02*
Y1266934D01*
X1540154D01*
X1541170Y1265918D01*
Y1263885D01*
X1540154Y1262869D01*
X1537105D01*
X1539137D02*
X1541170Y1260836D01*
X1547268Y1266934D02*
X1543203D01*
Y1260836D01*
X1547268D01*
X1543203Y1263885D02*
X1545235D01*
X1549301Y1266934D02*
Y1262869D01*
X1551333Y1260836D01*
X1553366Y1262869D01*
Y1266934D01*
X1646325D02*
Y1260836D01*
X1649374D01*
X1650390Y1261853D01*
Y1265918D01*
X1649374Y1266934D01*
X1646325D01*
X1656488D02*
X1652423D01*
Y1260836D01*
X1656488D01*
X1652423Y1263885D02*
X1654455D01*
X1662586Y1265918D02*
X1661570Y1266934D01*
X1659537D01*
X1658521Y1265918D01*
Y1264902D01*
X1659537Y1263885D01*
X1661570D01*
X1662586Y1262869D01*
Y1261853D01*
X1661570Y1260836D01*
X1659537D01*
X1658521Y1261853D01*
X1668684Y1265918D02*
X1667668Y1266934D01*
X1665635D01*
X1664619Y1265918D01*
Y1261853D01*
X1665635Y1260836D01*
X1667668D01*
X1668684Y1261853D01*
X1670717Y1260836D02*
Y1266934D01*
X1673766D01*
X1674782Y1265918D01*
Y1263885D01*
X1673766Y1262869D01*
X1670717D01*
X1672749D02*
X1674782Y1260836D01*
X1676815Y1266934D02*
X1678847D01*
X1677831D01*
Y1260836D01*
X1676815D01*
X1678847D01*
X1681896D02*
Y1266934D01*
X1684945D01*
X1685962Y1265918D01*
Y1263885D01*
X1684945Y1262869D01*
X1681896D01*
X1687994Y1266934D02*
X1692060D01*
X1690027D01*
Y1260836D01*
X1694092Y1266934D02*
X1696125D01*
X1695109D01*
Y1260836D01*
X1694092D01*
X1696125D01*
X1702223Y1266934D02*
X1700190D01*
X1699174Y1265918D01*
Y1261853D01*
X1700190Y1260836D01*
X1702223D01*
X1703239Y1261853D01*
Y1265918D01*
X1702223Y1266934D01*
X1705272Y1260836D02*
Y1266934D01*
X1709337Y1260836D01*
Y1266934D01*
X2144165D02*
Y1260836D01*
X2147214D01*
X2148230Y1261853D01*
Y1265918D01*
X2147214Y1266934D01*
X2144165D01*
X2150263Y1260836D02*
Y1264902D01*
X2152295Y1266934D01*
X2154328Y1264902D01*
Y1260836D01*
Y1263885D01*
X2150263D01*
X2156361Y1266934D02*
X2160426D01*
X2158393D01*
Y1260836D01*
X2166524Y1266934D02*
X2162459D01*
Y1260836D01*
X2166524D01*
X2162459Y1263885D02*
X2164491D01*
X2304185Y1266934D02*
Y1260836D01*
X2307234D01*
X2308250Y1261853D01*
Y1262869D01*
X2307234Y1263885D01*
X2304185D01*
X2307234D01*
X2308250Y1264902D01*
Y1265918D01*
X2307234Y1266934D01*
X2304185D01*
X2310283D02*
Y1265918D01*
X2312315Y1263885D01*
X2314348Y1265918D01*
Y1266934D01*
X2312315Y1263885D02*
Y1260836D01*
X1537105Y1222736D02*
Y1228834D01*
X1540154D01*
X1541170Y1227818D01*
Y1225785D01*
X1540154Y1224769D01*
X1537105D01*
X1539137D02*
X1541170Y1222736D01*
X1546252D02*
X1544219D01*
X1543203Y1223753D01*
Y1225785D01*
X1544219Y1226802D01*
X1546252D01*
X1547268Y1225785D01*
Y1224769D01*
X1543203D01*
X1549301Y1226802D02*
X1551333Y1222736D01*
X1553366Y1226802D01*
X1555399Y1222736D02*
X1557431D01*
X1556415D01*
Y1228834D01*
X1555399Y1227818D01*
X1646325Y1228834D02*
X1648357D01*
X1647341D01*
Y1222736D01*
X1646325D01*
X1648357D01*
X1651406D02*
Y1226802D01*
X1654455D01*
X1655472Y1225785D01*
Y1222736D01*
X1657504D02*
X1659537D01*
X1658521D01*
Y1226802D01*
X1657504D01*
X1663602Y1227818D02*
Y1226802D01*
X1662586D01*
X1664619D01*
X1663602D01*
Y1223753D01*
X1664619Y1222736D01*
X1667668D02*
X1669700D01*
X1668684D01*
Y1226802D01*
X1667668D01*
X1673766D02*
X1675798D01*
X1676815Y1225785D01*
Y1222736D01*
X1673766D01*
X1672749Y1223753D01*
X1673766Y1224769D01*
X1676815D01*
X1678847Y1222736D02*
X1680880D01*
X1679864D01*
Y1228834D01*
X1678847D01*
X1690027Y1222736D02*
Y1228834D01*
X1693076D01*
X1694092Y1227818D01*
Y1225785D01*
X1693076Y1224769D01*
X1690027D01*
X1692060D02*
X1694092Y1222736D01*
X1699174D02*
X1697141D01*
X1696125Y1223753D01*
Y1225785D01*
X1697141Y1226802D01*
X1699174D01*
X1700190Y1225785D01*
Y1224769D01*
X1696125D01*
X1702223Y1222736D02*
X1704256D01*
X1703239D01*
Y1228834D01*
X1702223D01*
X1710354Y1222736D02*
X1708321D01*
X1707305Y1223753D01*
Y1225785D01*
X1708321Y1226802D01*
X1710354D01*
X1711370Y1225785D01*
Y1224769D01*
X1707305D01*
X1714419Y1226802D02*
X1716452D01*
X1717468Y1225785D01*
Y1222736D01*
X1714419D01*
X1713403Y1223753D01*
X1714419Y1224769D01*
X1717468D01*
X1719501Y1222736D02*
X1722550D01*
X1723566Y1223753D01*
X1722550Y1224769D01*
X1720517D01*
X1719501Y1225785D01*
X1720517Y1226802D01*
X1723566D01*
X1728648Y1222736D02*
X1726615D01*
X1725599Y1223753D01*
Y1225785D01*
X1726615Y1226802D01*
X1728648D01*
X1729664Y1225785D01*
Y1224769D01*
X1725599D01*
X2123845Y1225278D02*
X2124861Y1226294D01*
X2126894D01*
X2127910Y1225278D01*
Y1221213D01*
X2126894Y1220196D01*
X2124861D01*
X2123845Y1221213D01*
Y1225278D01*
X2132992Y1220196D02*
Y1226294D01*
X2129943Y1223245D01*
X2134008D01*
X2136041Y1220196D02*
X2140106Y1224262D01*
X2142139Y1220196D02*
X2144171D01*
X2143155D01*
Y1226294D01*
X2142139Y1225278D01*
X2147220Y1221213D02*
X2148237Y1220196D01*
X2150269D01*
X2151286Y1221213D01*
Y1225278D01*
X2150269Y1226294D01*
X2148237D01*
X2147220Y1225278D01*
Y1224262D01*
X2148237Y1223245D01*
X2151286D01*
X2153318Y1220196D02*
X2157384Y1224262D01*
X2163482Y1220196D02*
X2159416D01*
X2163482Y1224262D01*
Y1225278D01*
X2162465Y1226294D01*
X2160433D01*
X2159416Y1225278D01*
X2165514D02*
X2166531Y1226294D01*
X2168563D01*
X2169580Y1225278D01*
Y1221213D01*
X2168563Y1220196D01*
X2166531D01*
X2165514Y1221213D01*
Y1225278D01*
X2175678Y1220196D02*
X2171612D01*
X2175678Y1224262D01*
Y1225278D01*
X2174661Y1226294D01*
X2172629D01*
X2171612Y1225278D01*
X2180759Y1220196D02*
Y1226294D01*
X2177710Y1223245D01*
X2181776D01*
X2291485Y1222736D02*
Y1226802D01*
X2293517Y1228834D01*
X2295550Y1226802D01*
Y1222736D01*
Y1225785D01*
X2291485D01*
X2301648Y1227818D02*
X2300632Y1228834D01*
X2298599D01*
X2297583Y1227818D01*
Y1226802D01*
X2298599Y1225785D01*
X2300632D01*
X2301648Y1224769D01*
Y1223753D01*
X2300632Y1222736D01*
X2298599D01*
X2297583Y1223753D01*
X2306730Y1228834D02*
X2304697D01*
X2303681Y1227818D01*
Y1223753D01*
X2304697Y1222736D01*
X2306730D01*
X2307746Y1223753D01*
Y1227818D01*
X2306730Y1228834D01*
X2309779D02*
Y1222736D01*
Y1225785D01*
X2313844D01*
Y1228834D01*
Y1222736D01*
X1642706Y1160474D02*
X1638641D01*
Y1154377D01*
X1642706D01*
X1638641Y1157426D02*
X1640673D01*
X1648804Y1159458D02*
X1647788Y1160474D01*
X1645755D01*
X1644739Y1159458D01*
Y1158442D01*
X1645755Y1157426D01*
X1647788D01*
X1648804Y1156409D01*
Y1155393D01*
X1647788Y1154377D01*
X1645755D01*
X1644739Y1155393D01*
X1656935Y1154377D02*
Y1160474D01*
X1659984D01*
X1661000Y1159458D01*
Y1157426D01*
X1659984Y1156409D01*
X1656935D01*
X1658967D02*
X1661000Y1154377D01*
X1666082D02*
X1664049D01*
X1663033Y1155393D01*
Y1157426D01*
X1664049Y1158442D01*
X1666082D01*
X1667098Y1157426D01*
Y1156409D01*
X1663033D01*
X1669131Y1154377D02*
X1671163D01*
X1670147D01*
Y1160474D01*
X1669131D01*
X1677261Y1154377D02*
X1675229D01*
X1674212Y1155393D01*
Y1157426D01*
X1675229Y1158442D01*
X1677261D01*
X1678278Y1157426D01*
Y1156409D01*
X1674212D01*
X1681327Y1158442D02*
X1683359D01*
X1684376Y1157426D01*
Y1154377D01*
X1681327D01*
X1680310Y1155393D01*
X1681327Y1156409D01*
X1684376D01*
X1686408Y1154377D02*
X1689458D01*
X1690474Y1155393D01*
X1689458Y1156409D01*
X1687425D01*
X1686408Y1157426D01*
X1687425Y1158442D01*
X1690474D01*
X1695556Y1154377D02*
X1693523D01*
X1692506Y1155393D01*
Y1157426D01*
X1693523Y1158442D01*
X1695556D01*
X1696572Y1157426D01*
Y1156409D01*
X1692506D01*
X1529421Y1154377D02*
Y1160474D01*
X1532470D01*
X1533486Y1159458D01*
Y1157426D01*
X1532470Y1156409D01*
X1529421D01*
X1531453D02*
X1533486Y1154377D01*
X1538568D02*
X1536535D01*
X1535519Y1155393D01*
Y1157426D01*
X1536535Y1158442D01*
X1538568D01*
X1539584Y1157426D01*
Y1156409D01*
X1535519D01*
X1541617Y1158442D02*
X1543649Y1154377D01*
X1545682Y1158442D01*
X1553813Y1160474D02*
Y1154377D01*
X1556862D01*
X1557878Y1155393D01*
Y1156409D01*
X1556862Y1157426D01*
X1553813D01*
X1556862D01*
X1557878Y1158442D01*
Y1159458D01*
X1556862Y1160474D01*
X1553813D01*
X1318665Y-688866D02*
Y-693947D01*
X1319681Y-694964D01*
X1321714D01*
X1322730Y-693947D01*
Y-688866D01*
X1324763D02*
Y-694964D01*
X1327812D01*
X1328828Y-693947D01*
Y-692931D01*
X1327812Y-691915D01*
X1324763D01*
X1327812D01*
X1328828Y-690898D01*
Y-689882D01*
X1327812Y-688866D01*
X1324763D01*
X1330861D02*
X1334926Y-694964D01*
Y-688866D02*
X1330861Y-694964D01*
X1336959Y-688866D02*
Y-694964D01*
Y-691915D01*
X1341024D01*
Y-688866D01*
Y-694964D01*
X1347122Y-688866D02*
X1345089Y-689882D01*
X1343057Y-691915D01*
Y-693947D01*
X1344073Y-694964D01*
X1346106D01*
X1347122Y-693947D01*
Y-692931D01*
X1346106Y-691915D01*
X1343057D01*
X1349155Y-689882D02*
X1350171Y-688866D01*
X1352204D01*
X1353220Y-689882D01*
Y-693947D01*
X1352204Y-694964D01*
X1350171D01*
X1349155Y-693947D01*
Y-689882D01*
X1355253Y-691915D02*
X1359318D01*
X1361351Y-689882D02*
X1362367Y-688866D01*
X1364400D01*
X1365416Y-689882D01*
Y-693947D01*
X1364400Y-694964D01*
X1362367D01*
X1361351Y-693947D01*
Y-689882D01*
X1367449D02*
X1368465Y-688866D01*
X1370498D01*
X1371514Y-689882D01*
Y-693947D01*
X1370498Y-694964D01*
X1368465D01*
X1367449Y-693947D01*
Y-689882D01*
X1373547D02*
X1374563Y-688866D01*
X1376596D01*
X1377612Y-689882D01*
Y-693947D01*
X1376596Y-694964D01*
X1374563D01*
X1373547Y-693947D01*
Y-689882D01*
X1379645Y-694964D02*
X1381677D01*
X1380661D01*
Y-688866D01*
X1379645Y-689882D01*
X1384726Y-694964D02*
X1386759D01*
X1385743D01*
Y-688866D01*
X1384726Y-689882D01*
X1392857Y-694964D02*
Y-688866D01*
X1389808Y-691915D01*
X1393873D01*
X1399971Y-688866D02*
X1395906D01*
Y-691915D01*
X1397939Y-690898D01*
X1398955D01*
X1399971Y-691915D01*
Y-693947D01*
X1398955Y-694964D01*
X1396922D01*
X1395906Y-693947D01*
X1749450Y-617746D02*
X1745385D01*
Y-623844D01*
X1749450D01*
X1745385Y-620795D02*
X1747417D01*
X1751483Y-617746D02*
Y-621811D01*
X1753515Y-623844D01*
X1755548Y-621811D01*
Y-617746D01*
X1757581D02*
Y-623844D01*
Y-621811D01*
X1761646Y-617746D01*
X1758597Y-620795D01*
X1761646Y-623844D01*
X1763679Y-620795D02*
X1767744D01*
X1769777Y-623844D02*
Y-617746D01*
X1773842Y-623844D01*
Y-617746D01*
X1778924D02*
X1776891D01*
X1775875Y-618762D01*
Y-622827D01*
X1776891Y-623844D01*
X1778924D01*
X1779940Y-622827D01*
Y-618762D01*
X1778924Y-617746D01*
X1781973Y-623844D02*
Y-617746D01*
X1785022D01*
X1786038Y-618762D01*
Y-620795D01*
X1785022Y-621811D01*
X1781973D01*
X1784005D02*
X1786038Y-623844D01*
X1788071D02*
Y-619778D01*
X1790103Y-617746D01*
X1792136Y-619778D01*
Y-623844D01*
Y-620795D01*
X1788071D01*
X1794169D02*
X1798234D01*
X1800267Y-617746D02*
Y-623844D01*
X1802299Y-621811D01*
X1804332Y-623844D01*
Y-617746D01*
X1809414Y-623844D02*
Y-617746D01*
X1806365Y-620795D01*
X1810430D01*
X1812463Y-618762D02*
X1813479Y-617746D01*
X1815512D01*
X1816528Y-618762D01*
Y-622827D01*
X1815512Y-623844D01*
X1813479D01*
X1812463Y-622827D01*
Y-618762D01*
X2239965Y-622634D02*
Y-616536D01*
X2243014D01*
X2244030Y-617552D01*
Y-619585D01*
X2243014Y-620601D01*
X2239965D01*
X2241997D02*
X2244030Y-622634D01*
X2249112D02*
X2247079D01*
X2246063Y-621617D01*
Y-619585D01*
X2247079Y-618568D01*
X2249112D01*
X2250128Y-619585D01*
Y-620601D01*
X2246063D01*
X2252161Y-618568D02*
X2254193Y-622634D01*
X2256226Y-618568D01*
X2264357Y-616536D02*
Y-622634D01*
X2267406D01*
X2268422Y-621617D01*
Y-620601D01*
X2267406Y-619585D01*
X2264357D01*
X2267406D01*
X2268422Y-618568D01*
Y-617552D01*
X2267406Y-616536D01*
X2264357D01*
X1745385Y-556786D02*
X1749450D01*
X1747417D01*
Y-562884D01*
X1755548Y-556786D02*
X1751483D01*
Y-562884D01*
X1755548D01*
X1751483Y-559835D02*
X1753515D01*
X1757581D02*
X1761646D01*
X1767744Y-556786D02*
X1763679D01*
Y-562884D01*
X1767744D01*
X1763679Y-559835D02*
X1765711D01*
X1773842Y-557802D02*
X1772826Y-556786D01*
X1770793D01*
X1769777Y-557802D01*
Y-561867D01*
X1770793Y-562884D01*
X1772826D01*
X1773842Y-561867D01*
Y-559835D01*
X1771809D01*
X1775875Y-557802D02*
X1776891Y-556786D01*
X1778924D01*
X1779940Y-557802D01*
Y-558818D01*
X1778924Y-559835D01*
X1777907D01*
X1778924D01*
X1779940Y-560851D01*
Y-561867D01*
X1778924Y-562884D01*
X1776891D01*
X1775875Y-561867D01*
X1366925Y-562884D02*
Y-558818D01*
X1368957Y-556786D01*
X1370990Y-558818D01*
Y-562884D01*
Y-559835D01*
X1366925D01*
X1377088Y-557802D02*
X1376072Y-556786D01*
X1374039D01*
X1373023Y-557802D01*
Y-558818D01*
X1374039Y-559835D01*
X1376072D01*
X1377088Y-560851D01*
Y-561867D01*
X1376072Y-562884D01*
X1374039D01*
X1373023Y-561867D01*
X1382170Y-556786D02*
X1380137D01*
X1379121Y-557802D01*
Y-561867D01*
X1380137Y-562884D01*
X1382170D01*
X1383186Y-561867D01*
Y-557802D01*
X1382170Y-556786D01*
X1385219D02*
Y-562884D01*
Y-559835D01*
X1389284D01*
Y-556786D01*
Y-562884D01*
X1634327Y-600384D02*
Y-594286D01*
X1637376D01*
X1638392Y-595302D01*
Y-597335D01*
X1637376Y-598351D01*
X1634327D01*
X1644490Y-595302D02*
X1643474Y-594286D01*
X1641441D01*
X1640425Y-595302D01*
Y-599367D01*
X1641441Y-600384D01*
X1643474D01*
X1644490Y-599367D01*
X1646523Y-594286D02*
Y-600384D01*
X1649572D01*
X1650588Y-599367D01*
Y-598351D01*
X1649572Y-597335D01*
X1646523D01*
X1649572D01*
X1650588Y-596318D01*
Y-595302D01*
X1649572Y-594286D01*
X1646523D01*
X1658719Y-600384D02*
Y-594286D01*
X1662784Y-600384D01*
Y-594286D01*
X1664817Y-600384D02*
Y-596318D01*
X1666849Y-594286D01*
X1668882Y-596318D01*
Y-600384D01*
Y-597335D01*
X1664817D01*
X1670915Y-600384D02*
Y-594286D01*
X1672947Y-596318D01*
X1674980Y-594286D01*
Y-600384D01*
X1681078Y-594286D02*
X1677013D01*
Y-600384D01*
X1681078D01*
X1677013Y-597335D02*
X1679045D01*
X1683111Y-596318D02*
X1684127D01*
Y-597335D01*
X1683111D01*
Y-596318D01*
Y-599367D02*
X1684127D01*
Y-600384D01*
X1683111D01*
Y-599367D01*
X2253325Y-693602D02*
X2255357D01*
X2254341D01*
Y-687504D01*
X2253325Y-688520D01*
X2258406Y-689536D02*
X2259423D01*
Y-690553D01*
X2258406D01*
Y-689536D01*
Y-692585D02*
X2259423D01*
Y-693602D01*
X2258406D01*
Y-692585D01*
X2263488Y-693602D02*
X2265521D01*
X2264504D01*
Y-687504D01*
X2263488Y-688520D01*
X2170268Y-661342D02*
X2169252Y-660326D01*
X2167219D01*
X2166203Y-661342D01*
Y-662358D01*
X2167219Y-663375D01*
X2169252D01*
X2170268Y-664391D01*
Y-665407D01*
X2169252Y-666424D01*
X2167219D01*
X2166203Y-665407D01*
X2176366Y-661342D02*
X2175350Y-660326D01*
X2173317D01*
X2172301Y-661342D01*
Y-665407D01*
X2173317Y-666424D01*
X2175350D01*
X2176366Y-665407D01*
X2178399Y-666424D02*
Y-662358D01*
X2180431Y-660326D01*
X2182464Y-662358D01*
Y-666424D01*
Y-663375D01*
X2178399D01*
X2184497Y-660326D02*
Y-666424D01*
X2188562D01*
X2194660Y-660326D02*
X2190595D01*
Y-666424D01*
X2194660D01*
X2190595Y-663375D02*
X2192627D01*
X2196693Y-662358D02*
X2197709D01*
Y-663375D01*
X2196693D01*
Y-662358D01*
Y-665407D02*
X2197709D01*
Y-666424D01*
X2196693D01*
Y-665407D01*
X1637690Y-658386D02*
X1633625D01*
Y-661435D01*
X1635657D01*
X1633625D01*
Y-664484D01*
X1639723Y-658386D02*
X1641755D01*
X1640739D01*
Y-664484D01*
X1639723D01*
X1641755D01*
X1644804Y-658386D02*
Y-664484D01*
X1648870D01*
X1654968Y-658386D02*
X1650902D01*
Y-664484D01*
X1654968D01*
X1650902Y-661435D02*
X1652935D01*
X1663098Y-664484D02*
Y-658386D01*
X1667164Y-664484D01*
Y-658386D01*
X1669196Y-664484D02*
Y-660418D01*
X1671229Y-658386D01*
X1673262Y-660418D01*
Y-664484D01*
Y-661435D01*
X1669196D01*
X1675294Y-664484D02*
Y-658386D01*
X1677327Y-660418D01*
X1679360Y-658386D01*
Y-664484D01*
X1685458Y-658386D02*
X1681392D01*
Y-664484D01*
X1685458D01*
X1681392Y-661435D02*
X1683425D01*
X1687490Y-660418D02*
X1688507D01*
Y-661435D01*
X1687490D01*
Y-660418D01*
Y-663467D02*
X1688507D01*
Y-664484D01*
X1687490D01*
Y-663467D01*
X1635597Y-546028D02*
Y-539930D01*
X1638646D01*
X1639662Y-540946D01*
Y-542979D01*
X1638646Y-543995D01*
X1635597D01*
X1641695Y-546028D02*
Y-539930D01*
X1644744D01*
X1645760Y-540946D01*
Y-542979D01*
X1644744Y-543995D01*
X1641695D01*
X1643727D02*
X1645760Y-546028D01*
X1650842Y-539930D02*
X1648809D01*
X1647793Y-540946D01*
Y-545011D01*
X1648809Y-546028D01*
X1650842D01*
X1651858Y-545011D01*
Y-540946D01*
X1650842Y-539930D01*
X1657956D02*
X1655923D01*
X1656940D01*
Y-545011D01*
X1655923Y-546028D01*
X1654907D01*
X1653891Y-545011D01*
X1664054Y-539930D02*
X1659989D01*
Y-546028D01*
X1664054D01*
X1659989Y-542979D02*
X1662021D01*
X1670152Y-540946D02*
X1669136Y-539930D01*
X1667103D01*
X1666087Y-540946D01*
Y-545011D01*
X1667103Y-546028D01*
X1669136D01*
X1670152Y-545011D01*
X1672185Y-539930D02*
X1676250D01*
X1674217D01*
Y-546028D01*
X1678283Y-541962D02*
X1679299D01*
Y-542979D01*
X1678283D01*
Y-541962D01*
Y-545011D02*
X1679299D01*
Y-546028D01*
X1678283D01*
Y-545011D01*
X1254598Y-540184D02*
X1250533D01*
Y-546282D01*
X1254598D01*
X1250533Y-543233D02*
X1252565D01*
X1256631Y-546282D02*
Y-540184D01*
X1260696Y-546282D01*
Y-540184D01*
X1266794Y-541200D02*
X1265778Y-540184D01*
X1263745D01*
X1262729Y-541200D01*
Y-545265D01*
X1263745Y-546282D01*
X1265778D01*
X1266794Y-545265D01*
Y-543233D01*
X1264761D01*
X1268827Y-540184D02*
X1270859D01*
X1269843D01*
Y-546282D01*
X1268827D01*
X1270859D01*
X1273908D02*
Y-540184D01*
X1277974Y-546282D01*
Y-540184D01*
X1284072D02*
X1280006D01*
Y-546282D01*
X1284072D01*
X1280006Y-543233D02*
X1282039D01*
X1290170Y-540184D02*
X1286104D01*
Y-546282D01*
X1290170D01*
X1286104Y-543233D02*
X1288137D01*
X1292202Y-546282D02*
Y-540184D01*
X1295251D01*
X1296268Y-541200D01*
Y-543233D01*
X1295251Y-544249D01*
X1292202D01*
X1294235D02*
X1296268Y-546282D01*
X1298300Y-542216D02*
X1299317D01*
Y-543233D01*
X1298300D01*
Y-542216D01*
Y-545265D02*
X1299317D01*
Y-546282D01*
X1298300D01*
Y-545265D01*
X1252625Y-658386D02*
Y-664484D01*
X1255674D01*
X1256690Y-663467D01*
Y-659402D01*
X1255674Y-658386D01*
X1252625D01*
X1258723D02*
Y-664484D01*
X1260755Y-662451D01*
X1262788Y-664484D01*
Y-658386D01*
X1268886Y-659402D02*
X1267870Y-658386D01*
X1265837D01*
X1264821Y-659402D01*
Y-663467D01*
X1265837Y-664484D01*
X1267870D01*
X1268886Y-663467D01*
Y-661435D01*
X1266853D01*
X1277017Y-664484D02*
Y-658386D01*
X1281082Y-664484D01*
Y-658386D01*
X1286164D02*
X1284131D01*
X1283115Y-659402D01*
Y-663467D01*
X1284131Y-664484D01*
X1286164D01*
X1287180Y-663467D01*
Y-659402D01*
X1286164Y-658386D01*
X1289213Y-660418D02*
X1290229D01*
Y-661435D01*
X1289213D01*
Y-660418D01*
Y-663467D02*
X1290229D01*
Y-664484D01*
X1289213D01*
Y-663467D01*
X2167473Y-603686D02*
Y-597588D01*
X2170522D01*
X2171538Y-598604D01*
Y-600637D01*
X2170522Y-601653D01*
X2167473D01*
X2169505D02*
X2171538Y-603686D01*
X2177636Y-597588D02*
X2173571D01*
Y-603686D01*
X2177636D01*
X2173571Y-600637D02*
X2175603D01*
X2179669Y-597588D02*
Y-601653D01*
X2181701Y-603686D01*
X2183734Y-601653D01*
Y-597588D01*
X2185767Y-599620D02*
X2186783D01*
Y-600637D01*
X2185767D01*
Y-599620D01*
Y-602669D02*
X2186783D01*
Y-603686D01*
X2185767D01*
Y-602669D01*
X1251295Y-595302D02*
Y-601400D01*
X1254344D01*
X1255360Y-600383D01*
Y-596318D01*
X1254344Y-595302D01*
X1251295D01*
X1257393Y-601400D02*
Y-597334D01*
X1259425Y-595302D01*
X1261458Y-597334D01*
Y-601400D01*
Y-598351D01*
X1257393D01*
X1263491Y-595302D02*
X1267556D01*
X1265523D01*
Y-601400D01*
X1273654Y-595302D02*
X1269589D01*
Y-601400D01*
X1273654D01*
X1269589Y-598351D02*
X1271621D01*
X1275687Y-597334D02*
X1276703D01*
Y-598351D01*
X1275687D01*
Y-597334D01*
Y-600383D02*
X1276703D01*
Y-601400D01*
X1275687D01*
Y-600383D01*
X1323745Y-618762D02*
X1324761Y-617746D01*
X1326794D01*
X1327810Y-618762D01*
Y-622827D01*
X1326794Y-623844D01*
X1324761D01*
X1323745Y-622827D01*
Y-618762D01*
X1332892Y-623844D02*
Y-617746D01*
X1329843Y-620795D01*
X1333908D01*
X1335941Y-623844D02*
X1340006Y-619778D01*
X1342039Y-623844D02*
X1344071D01*
X1343055D01*
Y-617746D01*
X1342039Y-618762D01*
X1347120Y-622827D02*
X1348137Y-623844D01*
X1350169D01*
X1351186Y-622827D01*
Y-618762D01*
X1350169Y-617746D01*
X1348137D01*
X1347120Y-618762D01*
Y-619778D01*
X1348137Y-620795D01*
X1351186D01*
X1353218Y-623844D02*
X1357284Y-619778D01*
X1363382Y-623844D02*
X1359316D01*
X1363382Y-619778D01*
Y-618762D01*
X1362365Y-617746D01*
X1360333D01*
X1359316Y-618762D01*
X1365414D02*
X1366431Y-617746D01*
X1368463D01*
X1369480Y-618762D01*
Y-622827D01*
X1368463Y-623844D01*
X1366431D01*
X1365414Y-622827D01*
Y-618762D01*
X1375578Y-623844D02*
X1371512D01*
X1375578Y-619778D01*
Y-618762D01*
X1374561Y-617746D01*
X1372529D01*
X1371512Y-618762D01*
X1380659Y-623844D02*
Y-617746D01*
X1377610Y-620795D01*
X1381676D01*
X1660550Y-686326D02*
X1656485D01*
Y-692424D01*
X1660550D01*
X1656485Y-689375D02*
X1658517D01*
X1662583Y-686326D02*
Y-690391D01*
X1664615Y-692424D01*
X1666648Y-690391D01*
Y-686326D01*
X1668681D02*
Y-692424D01*
Y-690391D01*
X1672746Y-686326D01*
X1669697Y-689375D01*
X1672746Y-692424D01*
X1674779Y-689375D02*
X1678844D01*
X1680877Y-692424D02*
Y-686326D01*
X1684942Y-692424D01*
Y-686326D01*
X1690024D02*
X1687991D01*
X1686975Y-687342D01*
Y-691407D01*
X1687991Y-692424D01*
X1690024D01*
X1691040Y-691407D01*
Y-687342D01*
X1690024Y-686326D01*
X1693073Y-692424D02*
Y-686326D01*
X1696122D01*
X1697138Y-687342D01*
Y-689375D01*
X1696122Y-690391D01*
X1693073D01*
X1695105D02*
X1697138Y-692424D01*
X1699171D02*
Y-688358D01*
X1701203Y-686326D01*
X1703236Y-688358D01*
Y-692424D01*
Y-689375D01*
X1699171D01*
X1705269D02*
X1709334D01*
X1711367Y-686326D02*
Y-692424D01*
X1713399Y-690391D01*
X1715432Y-692424D01*
Y-686326D01*
X1720514Y-692424D02*
Y-686326D01*
X1717465Y-689375D01*
X1721530D01*
X1723563Y-687342D02*
X1724579Y-686326D01*
X1726612D01*
X1727628Y-687342D01*
Y-691407D01*
X1726612Y-692424D01*
X1724579D01*
X1723563Y-691407D01*
Y-687342D01*
X1729661Y-692424D02*
Y-691407D01*
X1730677D01*
Y-692424D01*
X1729661D01*
X1734742D02*
Y-686326D01*
X1737791D01*
X1738808Y-687342D01*
Y-689375D01*
X1737791Y-690391D01*
X1734742D01*
X1744906Y-688358D02*
X1741857D01*
X1740840Y-689375D01*
Y-691407D01*
X1741857Y-692424D01*
X1744906D01*
X1746938Y-686326D02*
Y-692424D01*
X1749987D01*
X1751004Y-691407D01*
Y-690391D01*
Y-689375D01*
X1749987Y-688358D01*
X1746938D01*
X1753036Y-686326D02*
Y-692424D01*
X1756085D01*
X1757102Y-691407D01*
Y-687342D01*
X1756085Y-686326D01*
X1753036D01*
X1760151Y-692424D02*
X1762183D01*
X1763200Y-691407D01*
Y-689375D01*
X1762183Y-688358D01*
X1760151D01*
X1759134Y-689375D01*
Y-691407D01*
X1760151Y-692424D01*
X1769298Y-688358D02*
X1766249D01*
X1765232Y-689375D01*
Y-691407D01*
X1766249Y-692424D01*
X1769298D01*
X960903Y-681101D02*
X960612Y-680520D01*
X960032Y-679939D01*
X959451Y-679649D01*
X958289D01*
X957708Y-679939D01*
X957127Y-680520D01*
X956837Y-681101D01*
X956547Y-681972D01*
Y-683424D01*
X956837Y-684296D01*
X957127Y-684876D01*
X957708Y-685457D01*
X958289Y-685748D01*
X959451D01*
X960032Y-685457D01*
X960612Y-684876D01*
X960903Y-684296D01*
X964359Y-679649D02*
X963778Y-679939D01*
X963197Y-680520D01*
X962907Y-681101D01*
X962616Y-681972D01*
Y-683424D01*
X962907Y-684296D01*
X963197Y-684876D01*
X963778Y-685457D01*
X964359Y-685748D01*
X965520D01*
X966101Y-685457D01*
X966682Y-684876D01*
X966973Y-684296D01*
X967263Y-683424D01*
Y-681972D01*
X966973Y-681101D01*
X966682Y-680520D01*
X966101Y-679939D01*
X965520Y-679649D01*
X964359D01*
X968686D02*
Y-685748D01*
Y-679649D02*
X972752Y-685748D01*
Y-679649D02*
Y-685748D01*
X974436Y-679649D02*
Y-685748D01*
Y-679649D02*
X978212D01*
X974436Y-682553D02*
X976759D01*
X978908Y-679649D02*
Y-685748D01*
X980186Y-679649D02*
Y-685748D01*
Y-679649D02*
X982219D01*
X983090Y-679939D01*
X983671Y-680520D01*
X983962Y-681101D01*
X984252Y-681972D01*
Y-683424D01*
X983962Y-684296D01*
X983671Y-684876D01*
X983090Y-685457D01*
X982219Y-685748D01*
X980186D01*
X989392Y-679649D02*
X985617D01*
Y-685748D01*
X989392D01*
X985617Y-682553D02*
X987940D01*
X990409Y-679649D02*
Y-685748D01*
Y-679649D02*
X994475Y-685748D01*
Y-679649D02*
Y-685748D01*
X998192Y-679649D02*
Y-685748D01*
X996159Y-679649D02*
X1000225D01*
X1000951D02*
Y-685748D01*
X1006875D02*
X1004552Y-679649D01*
X1002229Y-685748D01*
X1003100Y-683715D02*
X1006004D01*
X1008298Y-679649D02*
Y-685748D01*
X1011783D01*
X2291485Y1184636D02*
Y1188702D01*
X2293517Y1190734D01*
X2295550Y1188702D01*
Y1184636D01*
Y1187685D01*
X2291485D01*
X2301648Y1189718D02*
X2300632Y1190734D01*
X2298599D01*
X2297583Y1189718D01*
Y1188702D01*
X2298599Y1187685D01*
X2300632D01*
X2301648Y1186669D01*
Y1185653D01*
X2300632Y1184636D01*
X2298599D01*
X2297583Y1185653D01*
X2306730Y1190734D02*
X2304697D01*
X2303681Y1189718D01*
Y1185653D01*
X2304697Y1184636D01*
X2306730D01*
X2307746Y1185653D01*
Y1189718D01*
X2306730Y1190734D01*
X2309779D02*
Y1184636D01*
Y1187685D01*
X2313844D01*
Y1190734D01*
Y1184636D01*
X2123845Y1187178D02*
X2124861Y1188194D01*
X2126894D01*
X2127910Y1187178D01*
Y1183113D01*
X2126894Y1182096D01*
X2124861D01*
X2123845Y1183113D01*
Y1187178D01*
X2129943Y1188194D02*
X2134008D01*
Y1187178D01*
X2129943Y1183113D01*
Y1182096D01*
X2136041D02*
X2140106Y1186162D01*
X2142139Y1182096D02*
X2144171D01*
X2143155D01*
Y1188194D01*
X2142139Y1187178D01*
X2147220Y1183113D02*
X2148237Y1182096D01*
X2150269D01*
X2151286Y1183113D01*
Y1187178D01*
X2150269Y1188194D01*
X2148237D01*
X2147220Y1187178D01*
Y1186162D01*
X2148237Y1185145D01*
X2151286D01*
X2153318Y1182096D02*
X2157384Y1186162D01*
X2163482Y1182096D02*
X2159416D01*
X2163482Y1186162D01*
Y1187178D01*
X2162465Y1188194D01*
X2160433D01*
X2159416Y1187178D01*
X2165514D02*
X2166531Y1188194D01*
X2168563D01*
X2169580Y1187178D01*
Y1183113D01*
X2168563Y1182096D01*
X2166531D01*
X2165514Y1183113D01*
Y1187178D01*
X2175678Y1182096D02*
X2171612D01*
X2175678Y1186162D01*
Y1187178D01*
X2174661Y1188194D01*
X2172629D01*
X2171612Y1187178D01*
X2180759Y1182096D02*
Y1188194D01*
X2177710Y1185145D01*
X2181776D01*
D14*
X2103959Y212445D02*
X2299539D01*
X2350339Y-496844D02*
Y249916D01*
X2063319D02*
X2350339D01*
X2063319Y-496844D02*
Y249916D01*
Y-496844D02*
X2350339D01*
D16*
X-301915Y-710874D02*
X2390485D01*
X-301915D02*
Y1346526D01*
X-352655Y-761004D02*
Y1397996D01*
X-352715Y857576D02*
X-301915D01*
X-352715Y317826D02*
X-301915D01*
X-352715Y-221924D02*
X-301915D01*
X345785Y-761674D02*
Y-710874D01*
X1044285Y-761674D02*
Y-710874D01*
X1742785Y-761674D02*
Y-710874D01*
X-301915Y1346526D02*
X2390485D01*
X345785D02*
Y1397326D01*
X1044285Y1346526D02*
Y1397326D01*
X1742785Y1346526D02*
Y1397326D01*
X-352655Y1397996D02*
X2441345D01*
Y-761004D02*
Y1397996D01*
X2390485Y-710874D02*
Y1346526D01*
Y857576D02*
X2441285D01*
X2390485Y317826D02*
X2441285D01*
X2390485Y-221924D02*
X2441285D01*
X-352655Y-761004D02*
X2441345D01*
X1516785Y1131296D02*
Y1347196D01*
Y1131296D02*
X2390545D01*
X1516785Y1169396D02*
X2390485D01*
X1516785Y1245596D02*
X2390545D01*
X1516785Y1207496D02*
X2390485D01*
X1516785Y1288776D02*
X2390485D01*
X1608225Y1131296D02*
Y1288776D01*
X2103525Y1131296D02*
Y1288776D01*
X2273705Y1131296D02*
Y1288776D01*
X1628485Y-558474D02*
Y-521898D01*
X1247485D02*
X1628485D01*
X818285D02*
X1247485D01*
X1628485Y-710874D02*
Y-558474D01*
X2161885Y-710874D02*
Y-581080D01*
X1247485Y-710874D02*
Y-521898D01*
X2390485Y-710874D02*
Y-521898D01*
X1628485D02*
X2390485D01*
X1247485Y-580318D02*
X2390485D01*
X1247485Y-643564D02*
X2390485D01*
X1247485Y-710874D02*
X2390485D01*
X818285D02*
Y-521898D01*
Y-710874D02*
X1247485D01*
D22*
X-0Y30000D02*
G03*
X30000Y0I30000J-0D01*
G01*
X30000Y700000D02*
G03*
X-0Y670000I-1J-29999D01*
G01*
X1000000Y670000D02*
G03*
X970000Y700000I-30000J0D01*
G01*
X970000Y0D02*
G03*
X1000000Y30000I0J30000D01*
G01*
X-0Y30000D02*
Y670000D01*
X30000Y700000D02*
X970000D01*
X1000000Y30000D02*
Y670000D01*
X30000Y0D02*
X970000Y0D01*
D190*
X660200Y26000D02*
X666200D01*
X663200Y23000D02*
Y29000D01*
X660200Y67800D02*
X666200D01*
X663200Y64800D02*
Y70800D01*
X573800Y26000D02*
X579800D01*
X576800Y23000D02*
Y29000D01*
X573800Y67800D02*
X579800D01*
X576800Y64800D02*
Y70800D01*
X587850Y62800D02*
X594350D01*
X591100Y59550D02*
Y66050D01*
X645650Y62800D02*
X652150D01*
X648900Y59550D02*
Y66050D01*
X224390Y331216D02*
X234390D01*
X229390Y326216D02*
Y336216D01*
X224390Y351536D02*
X234390D01*
X229390Y346536D02*
Y356536D01*
X148190Y341376D02*
X158190D01*
X153190Y336376D02*
Y346376D01*
X478310Y101600D02*
X488470D01*
X483390Y96520D02*
Y106680D01*
X503710Y101600D02*
X513870D01*
X508790Y96520D02*
Y106680D01*
X148444Y430022D02*
X158444D01*
X153444Y425022D02*
Y435022D01*
X224644Y440182D02*
X234644D01*
X229644Y435182D02*
Y445182D01*
X224644Y419862D02*
X234644D01*
X229644Y414862D02*
Y424862D01*
X420200Y26000D02*
X426200D01*
X423200Y23000D02*
Y29000D01*
X420200Y67800D02*
X426200D01*
X423200Y64800D02*
Y70800D01*
X333800Y26000D02*
X339800D01*
X336800Y23000D02*
Y29000D01*
X333800Y67800D02*
X339800D01*
X336800Y64800D02*
Y70800D01*
X347850Y62800D02*
X354350D01*
X351100Y59550D02*
Y66050D01*
X405650Y62800D02*
X412150D01*
X408900Y59550D02*
Y66050D01*
X945000Y665000D02*
X975000D01*
X960000Y650000D02*
Y680000D01*
X25000Y665000D02*
X55000D01*
X40000Y650000D02*
Y680000D01*
X945000Y55000D02*
X975000D01*
X960000Y40000D02*
Y70000D01*
X25000Y55000D02*
X55000D01*
X40000Y40000D02*
Y70000D01*
X454426Y144018D02*
X456926D01*
X455676Y142768D02*
Y145268D01*
X454934Y682752D02*
X457434D01*
X456184Y681502D02*
Y684002D01*
X512592Y648716D02*
X515092D01*
X513842Y647466D02*
Y649966D01*
X512590Y642112D02*
X515090D01*
X513840Y640862D02*
Y643362D01*
X498622Y610870D02*
X501122D01*
X499872Y609620D02*
Y612120D01*
X537150Y690400D02*
X539650D01*
X538400Y689150D02*
Y691650D01*
X460150Y690400D02*
X462650D01*
X461400Y689150D02*
Y691650D01*
X431312Y639826D02*
X433812D01*
X432562Y638576D02*
Y641076D01*
X415564Y636524D02*
X418064D01*
X416814Y635274D02*
Y637774D01*
X548914Y670560D02*
X551414D01*
X550164Y669310D02*
Y671810D01*
X542310Y667512D02*
X544810D01*
X543560Y666262D02*
Y668762D01*
X526054Y660654D02*
X528554D01*
X527304Y659404D02*
Y661904D01*
X504210Y660654D02*
X506710D01*
X505460Y659404D02*
Y661904D01*
X493034Y660654D02*
X495534D01*
X494284Y659404D02*
Y661904D01*
X482112Y660654D02*
X484612D01*
X483362Y659404D02*
Y661904D01*
X471150Y660400D02*
X473650D01*
X472400Y659150D02*
Y661650D01*
X454934Y667512D02*
X457434D01*
X456184Y666262D02*
Y668762D01*
X447060Y667512D02*
X449560D01*
X448310Y666262D02*
Y668762D01*
X105176Y611632D02*
X107676D01*
X106426Y610382D02*
Y612882D01*
X264242Y590005D02*
X266742D01*
X265492Y588755D02*
Y591255D01*
X324886Y594106D02*
X327386D01*
X326136Y592856D02*
Y595356D01*
X311678Y580390D02*
X314178D01*
X312928Y579140D02*
Y581640D01*
X299740Y604266D02*
X302240D01*
X300990Y603016D02*
Y605516D01*
X966998Y624332D02*
X969498D01*
X968248Y623082D02*
Y625582D01*
X683534Y645414D02*
X686034D01*
X684784Y644164D02*
Y646664D01*
X693440Y590804D02*
X695940D01*
X694690Y589554D02*
Y592054D01*
X477286Y252984D02*
X479786D01*
X478536Y251734D02*
Y254234D01*
X177058Y82296D02*
X179558D01*
X178308Y81046D02*
Y83546D01*
X849650Y337820D02*
X852150D01*
X850900Y336570D02*
Y339070D01*
X843808Y326136D02*
X846308D01*
X845058Y324886D02*
Y327386D01*
X809264Y334518D02*
X811764D01*
X810514Y333268D02*
Y335768D01*
X391688Y685800D02*
X394188D01*
X392938Y684550D02*
Y687050D01*
X592348Y610616D02*
X594848D01*
X593598Y609366D02*
Y611866D01*
X150896Y616966D02*
X153396D01*
X152146Y615716D02*
Y618216D01*
X177058Y616712D02*
X179558D01*
X178308Y615462D02*
Y617962D01*
X406674Y608076D02*
X409174D01*
X407924Y606826D02*
Y609326D01*
X399562Y623824D02*
X402062D01*
X400812Y622574D02*
Y625074D01*
X417850Y685800D02*
X420350D01*
X419100Y684550D02*
Y687050D01*
X114574Y239014D02*
X117074D01*
X115824Y237764D02*
Y240264D01*
X102128Y252730D02*
X104628D01*
X103378Y251480D02*
Y253980D01*
X144292Y263144D02*
X146792D01*
X145542Y261894D02*
Y264394D01*
X322600Y282702D02*
X325100D01*
X323850Y281452D02*
Y283952D01*
X335808Y282448D02*
X338308D01*
X337058Y281198D02*
Y283698D01*
X178074Y453898D02*
X180574D01*
X179324Y452648D02*
Y455148D01*
X567456Y644398D02*
X569956D01*
X568706Y643148D02*
Y645648D01*
X601746Y645160D02*
X604246D01*
X602996Y643910D02*
Y646410D01*
X445028Y145034D02*
X447528D01*
X446278Y143784D02*
Y146284D01*
X469666Y115316D02*
X472166D01*
X470916Y114066D02*
Y116566D01*
X457982Y96266D02*
X460482D01*
X459232Y95016D02*
Y97516D01*
X803168Y451612D02*
X805668D01*
X804418Y450362D02*
Y452862D01*
X787166Y316230D02*
X789666D01*
X788416Y314980D02*
Y317480D01*
X783102Y337820D02*
X785602D01*
X784352Y336570D02*
Y339070D01*
X799612Y261874D02*
X802112D01*
X800862Y260624D02*
Y263124D01*
X949376Y308610D02*
X951875D01*
X950626Y307360D02*
Y309860D01*
X951985Y335280D02*
X954485D01*
X953235Y334030D02*
Y336530D01*
X952266Y360426D02*
X954766D01*
X953516Y359176D02*
Y361676D01*
X952000Y386080D02*
X954500D01*
X953250Y384830D02*
Y387330D01*
X953873Y411480D02*
X956373D01*
X955123Y410230D02*
Y412730D01*
X911118Y436372D02*
X913618D01*
X912368Y435122D02*
Y437622D01*
X892576Y436372D02*
X895076D01*
X893826Y435122D02*
Y437622D01*
X441472Y128778D02*
X443972D01*
X442722Y127528D02*
Y130028D01*
X890290Y78232D02*
X892790D01*
X891540Y76982D02*
Y79482D01*
X572536Y92964D02*
X575036D01*
X573786Y91714D02*
Y94214D01*
X557296Y92964D02*
X559796D01*
X558546Y91714D02*
Y94214D01*
X307868Y311658D02*
X310368D01*
X309118Y310408D02*
Y312908D01*
X465602Y427228D02*
X468102D01*
X466852Y425978D02*
Y428478D01*
X460014Y441452D02*
X462514D01*
X461264Y440202D02*
Y442702D01*
X445282Y428498D02*
X447782D01*
X446532Y427248D02*
Y429748D01*
X488208Y322834D02*
X490708D01*
X489458Y321584D02*
Y324084D01*
X473222Y323596D02*
X475722D01*
X474472Y322346D02*
Y324846D01*
X474492Y299212D02*
X476992D01*
X475742Y297962D02*
Y300462D01*
X632988Y233680D02*
X635488D01*
X634238Y232430D02*
Y234930D01*
X276626Y302768D02*
X279126D01*
X277876Y301518D02*
Y304018D01*
X671850Y245618D02*
X674350D01*
X673100Y244368D02*
Y246868D01*
X650768Y305308D02*
X653268D01*
X652018Y304058D02*
Y306558D01*
X852190Y599186D02*
X854690D01*
X853440Y597936D02*
Y600436D01*
X835934Y617728D02*
X838434D01*
X837184Y616478D02*
Y618978D01*
X856762Y576072D02*
X859262D01*
X858012Y574822D02*
Y577322D01*
X698774Y578612D02*
X701274D01*
X700024Y577362D02*
Y579862D01*
X695726Y608076D02*
X698226D01*
X696976Y606826D02*
Y609326D01*
X688614Y629412D02*
X691114D01*
X689864Y628162D02*
Y630662D01*
X706394Y628904D02*
X708894D01*
X707644Y627654D02*
Y630154D01*
X748050Y685800D02*
X750550D01*
X749300Y684550D02*
Y687050D01*
X734588Y599186D02*
X737088D01*
X735838Y597936D02*
Y600436D01*
X721380Y629920D02*
X723880D01*
X722630Y628670D02*
Y631170D01*
X781070Y640334D02*
X783570D01*
X782320Y639084D02*
Y641584D01*
X366618Y557832D02*
X369118D01*
X367868Y556582D02*
Y559082D01*
X366618Y595932D02*
X369118D01*
X367868Y594682D02*
Y597182D01*
X634512Y402082D02*
X637012D01*
X635762Y400832D02*
Y403332D01*
X633496Y367538D02*
X635996D01*
X634746Y366288D02*
Y368788D01*
X703600Y367030D02*
X706100D01*
X704850Y365780D02*
Y368280D01*
X703600Y403860D02*
X706100D01*
X704850Y402610D02*
Y405110D01*
X673374Y358648D02*
X675874D01*
X674624Y357398D02*
Y359898D01*
X672866Y395478D02*
X675366D01*
X674116Y394228D02*
Y396728D01*
X811550Y405213D02*
X814050D01*
X812800Y403963D02*
Y406463D01*
X563420Y330962D02*
X565920D01*
X564670Y329712D02*
Y332212D01*
X861588Y593598D02*
X864088D01*
X862838Y592348D02*
Y594848D01*
X818154Y593852D02*
X820654D01*
X819404Y592602D02*
Y595102D01*
X552220Y473693D02*
X554720D01*
X553470Y472443D02*
Y474943D01*
X552220Y460993D02*
X554720D01*
X553470Y459743D02*
Y462243D01*
X552218Y448293D02*
X554718D01*
X553468Y447043D02*
Y449543D01*
X384830Y147320D02*
X387330D01*
X386080Y146070D02*
Y148570D01*
X367050Y144780D02*
X369550D01*
X368300Y143530D02*
Y146030D01*
X362224Y156972D02*
X364724D01*
X363474Y155722D02*
Y158222D01*
X354350Y167640D02*
X356850D01*
X355600Y166390D02*
Y168890D01*
X367050Y177800D02*
X369550D01*
X368300Y176550D02*
Y179050D01*
X380766Y164084D02*
X383266D01*
X382016Y162834D02*
Y165334D01*
X811800Y364860D02*
X814300D01*
X813050Y363610D02*
Y366110D01*
X813750Y399000D02*
X816250D01*
X815000Y397750D02*
Y400250D01*
X813750Y411750D02*
X816250D01*
X815000Y410500D02*
Y413000D01*
X728000Y384750D02*
X730500D01*
X729250Y383500D02*
Y386000D01*
X253512Y452628D02*
X256012D01*
X254762Y451378D02*
Y453878D01*
X544342Y317500D02*
X546842D01*
X545592Y316250D02*
Y318750D01*
X520974Y80772D02*
X523474D01*
X522224Y79522D02*
Y82022D01*
X697504Y454914D02*
X700004D01*
X698754Y453664D02*
Y456164D01*
X299994Y518922D02*
X302494D01*
X301244Y517672D02*
Y520172D01*
X273324Y528320D02*
X275824D01*
X274574Y527070D02*
Y529570D01*
X294660Y563880D02*
X297160D01*
X295910Y562630D02*
Y565130D01*
X279420Y538988D02*
X281920D01*
X280670Y537738D02*
Y540238D01*
X142514Y563626D02*
X145014D01*
X143764Y562376D02*
Y564876D01*
X166644Y562356D02*
X169144D01*
X167894Y561106D02*
Y563606D01*
X250718Y551942D02*
X253218D01*
X251968Y550692D02*
Y553192D01*
X224302Y557276D02*
X226802D01*
X225552Y556026D02*
Y558526D01*
X197886Y556514D02*
X200386D01*
X199136Y555264D02*
Y557764D01*
X392704Y630174D02*
X395204D01*
X393954Y628924D02*
Y631424D01*
X798850Y283972D02*
X801350D01*
X800100Y282722D02*
Y285222D01*
X767608Y302768D02*
X770108D01*
X768858Y301518D02*
Y304018D01*
X673882Y259334D02*
X676382D01*
X675132Y258084D02*
Y260584D01*
X659150Y275844D02*
X661650D01*
X660400Y274594D02*
Y277094D01*
X811550Y379813D02*
X814050D01*
X812800Y378563D02*
Y381063D01*
X388894Y613664D02*
X391394D01*
X390144Y612414D02*
Y614914D01*
X521228Y405500D02*
X523728D01*
X522478Y404250D02*
Y406750D01*
X325394Y652780D02*
X327894D01*
X326644Y651530D02*
Y654030D01*
X386862Y656336D02*
X389362D01*
X388112Y655086D02*
Y657586D01*
X339618Y686562D02*
X342118D01*
X340868Y685312D02*
Y687812D01*
X325902Y633476D02*
X328402D01*
X327152Y632226D02*
Y634726D01*
X202204Y655574D02*
X204704D01*
X203454Y654324D02*
Y656824D01*
X227604Y655574D02*
X230104D01*
X228854Y654324D02*
Y656824D01*
X253004Y655574D02*
X255504D01*
X254254Y654324D02*
Y656824D01*
X89936Y684784D02*
X92436D01*
X91186Y683534D02*
Y686034D01*
X72410Y660908D02*
X74910D01*
X73660Y659658D02*
Y662158D01*
X71140Y686562D02*
X73640D01*
X72390Y685312D02*
Y687812D01*
X924072Y209550D02*
X926572D01*
X925322Y208300D02*
Y210800D01*
X275864Y198120D02*
X278364D01*
X277114Y196870D02*
Y199370D01*
X251734Y198628D02*
X254234D01*
X252984Y197378D02*
Y199878D01*
X226588Y199390D02*
X229088D01*
X227838Y198140D02*
Y200640D01*
X202712Y199390D02*
X205212D01*
X203962Y198140D02*
Y200640D01*
X177312Y180848D02*
X179812D01*
X178562Y179598D02*
Y182098D01*
X299232Y181356D02*
X301732D01*
X300482Y180106D02*
Y182606D01*
X320822Y145542D02*
X323322D01*
X322072Y144292D02*
Y146792D01*
X404642Y170688D02*
X407142D01*
X405892Y169438D02*
Y171938D01*
X409214Y184912D02*
X411714D01*
X410464Y183662D02*
Y186162D01*
X626130Y344170D02*
X628630D01*
X627380Y342920D02*
Y345420D01*
X261386Y305308D02*
X263886D01*
X262636Y304058D02*
Y306558D01*
X180106Y309880D02*
X182606D01*
X181356Y308630D02*
Y311130D01*
X909251Y41154D02*
X911751D01*
X910501Y39904D02*
Y42404D01*
X892322Y133858D02*
X894822D01*
X893572Y132608D02*
Y135108D01*
X880892Y133858D02*
X883392D01*
X882142Y132608D02*
Y135108D01*
X863620Y234950D02*
X866120D01*
X864870Y233700D02*
Y236200D01*
X927882Y647446D02*
X930382D01*
X929132Y646196D02*
Y648696D01*
X628670Y334772D02*
X631170D01*
X629920Y333522D02*
Y336022D01*
X630194Y395732D02*
X632694D01*
X631444Y394482D02*
Y396982D01*
X607080Y397510D02*
X609580D01*
X608330Y396260D02*
Y398760D01*
X593110Y346202D02*
X595610D01*
X594360Y344952D02*
Y347452D01*
X579902Y348234D02*
X582402D01*
X581152Y346984D02*
Y349484D01*
X633496Y270002D02*
X635996D01*
X634746Y268752D02*
Y271252D01*
X474238Y88900D02*
X476738D01*
X475488Y87650D02*
Y90150D01*
X449600Y78486D02*
X452100D01*
X450850Y77236D02*
Y79736D01*
X434106Y75692D02*
X436606D01*
X435356Y74442D02*
Y76942D01*
X460776Y84074D02*
X463276D01*
X462026Y82824D02*
Y85324D01*
X396260Y141986D02*
X398760D01*
X397510Y140736D02*
Y143236D01*
X350032Y121158D02*
X352532D01*
X351282Y119908D02*
Y122408D01*
X348762Y101092D02*
X351262D01*
X350012Y99842D02*
Y102342D01*
X261132Y334010D02*
X263632D01*
X262382Y332760D02*
Y335260D01*
X273832Y324104D02*
X276332D01*
X275082Y322854D02*
Y325354D01*
X126004Y319786D02*
X128504D01*
X127254Y318536D02*
Y321036D01*
X153182Y370840D02*
X155682D01*
X154432Y369590D02*
Y372090D01*
X114574Y404876D02*
X117074D01*
X115824Y403626D02*
Y406126D01*
X147086Y404622D02*
X149586D01*
X148336Y403372D02*
Y405872D01*
X132862Y404622D02*
X135362D01*
X134112Y403372D02*
Y405872D01*
X131084Y424434D02*
X133584D01*
X132334Y423184D02*
Y425684D01*
X118130Y442722D02*
X120630D01*
X119380Y441472D02*
Y443972D01*
X218968Y465582D02*
X221468D01*
X220218Y464332D02*
Y466832D01*
X278658Y427736D02*
X281158D01*
X279908Y426486D02*
Y428986D01*
X306598Y430022D02*
X309098D01*
X307848Y428772D02*
Y431272D01*
X429534Y473964D02*
X432034D01*
X430784Y472714D02*
Y475214D01*
X429788Y461772D02*
X432288D01*
X431038Y460522D02*
Y463022D01*
X413786Y461518D02*
X416286D01*
X415036Y460268D02*
Y462768D01*
X414802Y442976D02*
X417302D01*
X416052Y441726D02*
Y444226D01*
X606318Y360680D02*
X608818D01*
X607568Y359430D02*
Y361930D01*
X613938Y346964D02*
X616438D01*
X615188Y345714D02*
Y348214D01*
X901974Y630682D02*
X904474D01*
X903224Y629432D02*
Y631932D01*
X696996Y550164D02*
X699496D01*
X698246Y548914D02*
Y551414D01*
X648228Y596392D02*
X650728D01*
X649478Y595142D02*
Y597642D01*
X665246Y590804D02*
X667746D01*
X666496Y589554D02*
Y592054D01*
X668040Y575564D02*
X670540D01*
X669290Y574314D02*
Y576814D01*
X679724Y677672D02*
X682224D01*
X680974Y676422D02*
Y678922D01*
X626892Y677418D02*
X629392D01*
X628142Y676168D02*
Y678668D01*
X587268Y605536D02*
X589768D01*
X588518Y604286D02*
Y606786D01*
X431820Y624840D02*
X434320D01*
X433070Y623590D02*
Y626090D01*
X430804Y617474D02*
X433304D01*
X432054Y616224D02*
Y618724D01*
X446810Y627400D02*
X449310D01*
X448060Y626150D02*
Y628650D01*
X425724Y634492D02*
X428224D01*
X426974Y633242D02*
Y635742D01*
X404896Y633984D02*
X407396D01*
X406146Y632734D02*
Y635234D01*
X415564Y605536D02*
X418064D01*
X416814Y604286D02*
Y606786D01*
X400832Y613410D02*
X403332D01*
X402082Y612160D02*
Y614660D01*
X531896Y409956D02*
X534396D01*
X533146Y408706D02*
Y411206D01*
X679216Y450088D02*
X681716D01*
X680466Y448838D02*
Y451338D01*
X764560Y410718D02*
X767060D01*
X765810Y409468D02*
Y411968D01*
X764560Y400304D02*
X767060D01*
X765810Y399054D02*
Y401554D01*
X764560Y378968D02*
X767060D01*
X765810Y377718D02*
Y380218D01*
X902736Y54356D02*
X905236D01*
X903986Y53106D02*
Y55606D01*
X913912Y235712D02*
X916412D01*
X915162Y234462D02*
Y236962D01*
X937280Y179832D02*
X939780D01*
X938530Y178582D02*
Y181082D01*
X984270Y208280D02*
X986770D01*
X985520Y207030D02*
Y209530D01*
X957092Y182372D02*
X959592D01*
X958342Y181122D02*
Y183622D01*
X958362Y156718D02*
X960862D01*
X959612Y155468D02*
Y157968D01*
X886226Y178816D02*
X888726D01*
X887476Y177566D02*
Y180066D01*
X856762Y169164D02*
X859262D01*
X858012Y167914D02*
Y170414D01*
X836950Y170180D02*
X839450D01*
X838200Y168930D02*
Y171430D01*
X828060Y170180D02*
X830560D01*
X829310Y168930D02*
Y171430D01*
X786912Y23114D02*
X789412D01*
X788162Y21864D02*
Y24364D01*
X803930Y37592D02*
X806430D01*
X805180Y36342D02*
Y38842D01*
X672104Y54610D02*
X674604D01*
X673354Y53360D02*
Y55860D01*
X698012Y37846D02*
X700512D01*
X699262Y36596D02*
Y39096D01*
X718133Y37842D02*
X720633D01*
X719383Y36592D02*
Y39092D01*
X769132Y36576D02*
X771632D01*
X770382Y35326D02*
Y37826D01*
X863620Y68072D02*
X866120D01*
X864870Y66822D02*
Y69322D01*
X833140Y29464D02*
X835640D01*
X834390Y28214D02*
Y30714D01*
X837966Y57150D02*
X840466D01*
X839216Y55900D02*
Y58400D01*
X773196Y129794D02*
X775696D01*
X774446Y128544D02*
Y131044D01*
X685312Y174244D02*
X687812D01*
X686562Y172994D02*
Y175494D01*
X594380Y130556D02*
X596880D01*
X595630Y129306D02*
Y131806D01*
X642132Y128778D02*
X644632D01*
X643382Y127528D02*
Y130028D01*
X453410Y252730D02*
X455910D01*
X454660Y251480D02*
Y253980D01*
X451124Y236474D02*
X453624D01*
X452374Y235224D02*
Y237724D01*
X440202Y263652D02*
X442702D01*
X441452Y262402D02*
Y264902D01*
X518942Y322834D02*
X521442D01*
X520192Y321584D02*
Y324084D01*
X492526Y311912D02*
X495026D01*
X493776Y310662D02*
Y313162D01*
X462554Y341376D02*
X465054D01*
X463804Y340126D02*
Y342626D01*
X435376Y326136D02*
X437876D01*
X436626Y324886D02*
Y327386D01*
X428518Y315722D02*
X431018D01*
X429768Y314472D02*
Y316972D01*
X386608Y370332D02*
X389108D01*
X387858Y369082D02*
Y371582D01*
X380766Y396494D02*
X383266D01*
X382016Y395244D02*
Y397744D01*
X377464Y426212D02*
X379964D01*
X378714Y424962D02*
Y427462D01*
X397530Y424434D02*
X400030D01*
X398780Y423184D02*
Y425684D01*
X415310Y393446D02*
X417810D01*
X416560Y392196D02*
Y394696D01*
X536468Y425196D02*
X538968D01*
X537718Y423946D02*
Y426446D01*
X525800Y431038D02*
X528300D01*
X527050Y429788D02*
Y432288D01*
X650006Y520446D02*
X652506D01*
X651256Y519196D02*
Y521696D01*
X640354Y528320D02*
X642854D01*
X641604Y527070D02*
Y529570D01*
X761258Y537972D02*
X763758D01*
X762508Y536722D02*
Y539222D01*
X798596Y565150D02*
X801096D01*
X799846Y563900D02*
Y566400D01*
X788944Y671322D02*
X791444D01*
X790194Y670072D02*
Y672572D01*
X865144Y676656D02*
X867644D01*
X866394Y675406D02*
Y677906D01*
X824250Y673862D02*
X826750D01*
X825500Y672612D02*
Y675112D01*
X846856Y662178D02*
X849356D01*
X848106Y660928D02*
Y663428D01*
X862604Y624840D02*
X865104D01*
X863854Y623590D02*
Y626090D01*
X760242Y629920D02*
X762742D01*
X761492Y628670D02*
Y631170D01*
X747034Y614934D02*
X749534D01*
X748284Y613684D02*
Y616184D01*
X660166Y613410D02*
X662666D01*
X661416Y612160D02*
Y614660D01*
X667278Y645414D02*
X669778D01*
X668528Y644164D02*
Y646664D01*
X637052Y630174D02*
X639552D01*
X638302Y628924D02*
Y631424D01*
X640862Y645414D02*
X643362D01*
X642112Y644164D02*
Y646664D01*
X627146Y645414D02*
X629646D01*
X628396Y644164D02*
Y646664D01*
X124734Y132080D02*
X127234D01*
X125984Y130830D02*
Y133330D01*
X130322Y207010D02*
X132822D01*
X131572Y205760D02*
Y208260D01*
X117114Y192532D02*
X119614D01*
X118364Y191282D02*
Y193782D01*
X172994Y263144D02*
X175494D01*
X174244Y261894D02*
Y264394D01*
X173502Y295402D02*
X176002D01*
X174752Y294152D02*
Y296652D01*
X116606Y501142D02*
X119106D01*
X117856Y499892D02*
Y502392D01*
X301010Y503682D02*
X303510D01*
X302260Y502432D02*
Y504932D01*
X274594Y501904D02*
X277094D01*
X275844Y500654D02*
Y503154D01*
X249448Y487172D02*
X251948D01*
X250698Y485922D02*
Y488422D01*
X52344Y85852D02*
X54844D01*
X53594Y84602D02*
Y87102D01*
X23896Y85598D02*
X26396D01*
X25146Y84348D02*
Y86848D01*
X926866Y54864D02*
X929366D01*
X928116Y53614D02*
Y56114D01*
X927120Y82042D02*
X929620D01*
X928370Y80792D02*
Y83292D01*
X682010Y236982D02*
X684510D01*
X683260Y235732D02*
Y238232D01*
X626384Y277368D02*
X628884D01*
X627634Y276118D02*
Y278618D01*
X364764Y506222D02*
X367264D01*
X366014Y504972D02*
Y507472D01*
X365526Y485902D02*
X368026D01*
X366776Y484652D02*
Y487152D01*
X349016Y468122D02*
X351516D01*
X350266Y466872D02*
Y469372D01*
X328950Y457454D02*
X331450D01*
X330200Y456204D02*
Y458704D01*
X350540Y485648D02*
X353040D01*
X351790Y484398D02*
Y486898D01*
X413278Y474218D02*
X415778D01*
X414528Y472968D02*
Y475468D01*
X922040Y589534D02*
X924540D01*
X923290Y588284D02*
Y590784D01*
X928136Y232156D02*
X930636D01*
X929386Y230906D02*
Y233406D01*
X912896Y460502D02*
X915396D01*
X914146Y459252D02*
Y461752D01*
X253258Y315468D02*
X255758D01*
X254508Y314218D02*
Y316718D01*
X401086Y333502D02*
X403586D01*
X402336Y332252D02*
Y334752D01*
X478556Y340360D02*
X481056D01*
X479806Y339110D02*
Y341610D01*
X517164Y340360D02*
X519664D01*
X518414Y339110D02*
Y341610D01*
X540024Y340360D02*
X542524D01*
X541274Y339110D02*
Y341610D01*
X494050Y248920D02*
X496550D01*
X495300Y247670D02*
Y250170D01*
X523260Y249428D02*
X525760D01*
X524510Y248178D02*
Y250678D01*
X464332Y245364D02*
X466832D01*
X465582Y244114D02*
Y246614D01*
X676422Y37846D02*
X678922D01*
X677672Y36596D02*
Y39096D01*
X745510Y35306D02*
X748010D01*
X746760Y34056D02*
Y36556D01*
X868446Y37592D02*
X870946D01*
X869696Y36342D02*
Y38842D01*
X861842Y532130D02*
X864342D01*
X863092Y530880D02*
Y533380D01*
X895624Y588772D02*
X898124D01*
X896874Y587522D02*
Y590022D01*
X898926Y649732D02*
X901426D01*
X900176Y648482D02*
Y650982D01*
X891052Y618744D02*
X893552D01*
X892302Y617494D02*
Y619994D01*
X845078Y640080D02*
X847578D01*
X846328Y638830D02*
Y641330D01*
X643910Y613410D02*
X646410D01*
X645160Y612160D02*
Y614660D01*
X709188Y591312D02*
X711688D01*
X710438Y590062D02*
Y592562D01*
X729254Y590804D02*
X731754D01*
X730504Y589554D02*
Y592054D01*
X739160Y571754D02*
X741660D01*
X740410Y570504D02*
Y573004D01*
X707918Y538480D02*
X710418D01*
X709168Y537230D02*
Y539730D01*
X736366Y539496D02*
X738866D01*
X737616Y538246D02*
Y540746D01*
X773450Y543306D02*
X775950D01*
X774700Y542056D02*
Y544556D01*
X823742Y506476D02*
X826242D01*
X824992Y505226D02*
Y507726D01*
X859556Y454914D02*
X862056D01*
X860806Y453664D02*
Y456164D01*
X864382Y441960D02*
X866882D01*
X865632Y440710D02*
Y443210D01*
X858032Y426212D02*
X860532D01*
X859282Y424962D02*
Y427462D01*
X673374Y478282D02*
X675874D01*
X674624Y477032D02*
Y479532D01*
X698012Y476758D02*
X700512D01*
X699262Y475508D02*
Y478008D01*
X704870Y450596D02*
X707370D01*
X706120Y449346D02*
Y451846D01*
X696996Y441706D02*
X699496D01*
X698246Y440456D02*
Y442956D01*
X732556Y426466D02*
X735056D01*
X733806Y425216D02*
Y427716D01*
X782848Y446278D02*
X785348D01*
X784098Y445028D02*
Y447528D01*
X800120Y435610D02*
X802620D01*
X801370Y434360D02*
Y436860D01*
X816630Y434594D02*
X819130D01*
X817880Y433344D02*
Y435844D01*
X762020Y336804D02*
X764520D01*
X763270Y335554D02*
Y338054D01*
X757194Y319278D02*
X759694D01*
X758444Y318028D02*
Y320528D01*
X754654Y306070D02*
X757154D01*
X755904Y304820D02*
Y307320D01*
X621202Y303538D02*
X623702D01*
X622452Y302288D02*
Y304788D01*
X639338Y278384D02*
X641838D01*
X640588Y277134D02*
Y279634D01*
X502686Y327914D02*
X505186D01*
X503936Y326664D02*
Y329164D01*
X448076Y333248D02*
X450576D01*
X449326Y331998D02*
Y334498D01*
X381020Y645414D02*
X383520D01*
X382270Y644164D02*
Y646664D01*
X735604Y468884D02*
X738104D01*
X736854Y467634D02*
Y470134D01*
X796818Y534162D02*
X799318D01*
X798068Y532912D02*
Y535412D01*
X840760Y463042D02*
X843260D01*
X842010Y461792D02*
Y464292D01*
X516656Y537210D02*
X519156D01*
X517906Y535960D02*
Y538460D01*
X469920Y526034D02*
X472420D01*
X471170Y524784D02*
Y527284D01*
X492526Y382778D02*
X495026D01*
X493776Y381528D02*
Y384028D01*
X492526Y375918D02*
X495026D01*
X493776Y374668D02*
Y377168D01*
X946678Y118618D02*
X949178D01*
X947928Y117368D02*
Y119868D01*
X945565Y144183D02*
X948065D01*
X946815Y142933D02*
Y145433D01*
X856254Y367030D02*
X858754D01*
X857504Y365780D02*
Y368280D01*
X946202Y194901D02*
X948702D01*
X947452Y193651D02*
Y196151D01*
X865144Y417830D02*
X867644D01*
X866394Y416580D02*
Y419080D01*
X861842Y405130D02*
X864342D01*
X863092Y403880D02*
Y406380D01*
X853460Y392430D02*
X855960D01*
X854710Y391180D02*
Y393680D01*
X853460Y379730D02*
X855960D01*
X854710Y378480D02*
Y380980D01*
X275610Y462788D02*
X278110D01*
X276860Y461538D02*
Y464038D01*
X684341Y569976D02*
X686841D01*
X685591Y568726D02*
Y571226D01*
X718078Y427228D02*
X720578D01*
X719328Y425978D02*
Y428478D01*
X690392Y569976D02*
X692892D01*
X691642Y568726D02*
Y571226D01*
X709442Y339852D02*
X711942D01*
X710692Y338602D02*
Y341102D01*
X717570Y339852D02*
X720070D01*
X718820Y338602D02*
Y341102D01*
X717570Y313944D02*
X720070D01*
X718820Y312694D02*
Y315194D01*
X945410Y169583D02*
X947910D01*
X946660Y168333D02*
Y170833D01*
X786450Y303992D02*
X788950D01*
X787700Y302742D02*
Y305242D01*
X811850Y303992D02*
X814350D01*
X813100Y302742D02*
Y305242D01*
X837250Y303992D02*
X839750D01*
X838500Y302742D02*
Y305242D01*
X862650Y303992D02*
X865150D01*
X863900Y302742D02*
Y305242D01*
X945409Y423582D02*
X947909D01*
X946659Y422332D02*
Y424832D01*
X945409Y398182D02*
X947909D01*
X946659Y396932D02*
Y399432D01*
X945409Y372782D02*
X947909D01*
X946659Y371532D02*
Y374032D01*
X945409Y347382D02*
X947909D01*
X946659Y346132D02*
Y348632D01*
X945409Y321982D02*
X947909D01*
X946659Y320732D02*
Y323232D01*
X710140Y313880D02*
X712640D01*
X711390Y312630D02*
Y315130D01*
X761512Y468884D02*
X764012D01*
X762762Y467634D02*
Y470134D01*
X771926Y456438D02*
X774426D01*
X773176Y455188D02*
Y457688D01*
X534436Y485394D02*
X536936D01*
X535686Y484144D02*
Y486644D01*
X810534Y565658D02*
X813034D01*
X811784Y564408D02*
Y566908D01*
X796056Y456692D02*
X798556D01*
X797306Y455442D02*
Y457942D01*
X851682Y463296D02*
X854182D01*
X852932Y462046D02*
Y464546D01*
X645434Y566928D02*
X647934D01*
X646684Y565678D02*
Y568178D01*
X512846Y550164D02*
X515346D01*
X514096Y548914D02*
Y551414D01*
X362791Y465836D02*
X365291D01*
X364041Y464586D02*
Y467086D01*
X362791Y457200D02*
X365291D01*
X364041Y455950D02*
Y458450D01*
X498078Y431328D02*
X500578D01*
X499328Y430078D02*
Y432578D01*
X366820Y519684D02*
X369320D01*
X368070Y518434D02*
Y520934D01*
X366618Y532432D02*
X369118D01*
X367868Y531182D02*
Y533682D01*
X476778Y587248D02*
X479278D01*
X478028Y585998D02*
Y588498D01*
X474746Y579882D02*
X477246D01*
X475996Y578632D02*
Y581132D01*
X442996Y632968D02*
X445496D01*
X444246Y631718D02*
Y634218D01*
X354350Y595884D02*
X356850D01*
X355600Y594634D02*
Y597134D01*
X356382Y653288D02*
X358882D01*
X357632Y652038D02*
Y654538D01*
X354604Y620522D02*
X357104D01*
X355854Y619272D02*
Y621772D01*
X363240Y613410D02*
X365740D01*
X364490Y612160D02*
Y614660D01*
X531388Y299212D02*
X533888D01*
X532638Y297962D02*
Y300462D01*
X599460Y306070D02*
X601960D01*
X600710Y304820D02*
Y307320D01*
X608858Y328930D02*
X611358D01*
X610108Y327680D02*
Y330180D01*
X811550Y372110D02*
X814050D01*
X812800Y370860D02*
Y373360D01*
X673120Y378714D02*
X675620D01*
X674370Y377464D02*
Y379964D01*
X673022Y408530D02*
X675522D01*
X674272Y407280D02*
Y409780D01*
X750082Y345948D02*
X752582D01*
X751332Y344698D02*
Y347198D01*
X757604Y397608D02*
X760104D01*
X758854Y396358D02*
Y398858D01*
X757600Y372970D02*
X760100D01*
X758850Y371720D02*
Y374220D01*
X749984Y424786D02*
X752484D01*
X751234Y423536D02*
Y426036D01*
X673022Y371700D02*
X675522D01*
X674272Y370450D02*
Y372950D01*
X653660Y358700D02*
X656160D01*
X654910Y357450D02*
Y359950D01*
X653660Y371700D02*
X656160D01*
X654910Y370450D02*
Y372950D01*
X653660Y395530D02*
X656160D01*
X654910Y394280D02*
Y396780D01*
X653660Y408530D02*
X656160D01*
X654910Y407280D02*
Y409780D01*
X811550Y350520D02*
X814050D01*
X812800Y349270D02*
Y351770D01*
X811550Y392513D02*
X814050D01*
X812800Y391263D02*
Y393763D01*
X811628Y417913D02*
X814128D01*
X812878Y416663D02*
Y419163D01*
X850837Y346793D02*
X853337D01*
X852087Y345543D02*
Y348043D01*
X496590Y284480D02*
X499090D01*
X497840Y283230D02*
Y285730D01*
X473984Y311658D02*
X476484D01*
X475234Y310408D02*
Y312908D01*
X511830Y309880D02*
X514330D01*
X513080Y308630D02*
Y311130D01*
X501670Y299720D02*
X504170D01*
X502920Y298470D02*
Y300970D01*
X511830Y289560D02*
X514330D01*
X513080Y288310D02*
Y290810D01*
X475000Y283718D02*
X477500D01*
X476250Y282468D02*
Y284968D01*
X508020Y261620D02*
X510520D01*
X509270Y260370D02*
Y262870D01*
X485160Y263652D02*
X487660D01*
X486410Y262402D02*
Y264902D01*
X460014Y263652D02*
X462514D01*
X461264Y262402D02*
Y264902D01*
X725190Y431800D02*
X727690D01*
X726440Y430550D02*
Y433050D01*
X630448Y408178D02*
X632948D01*
X631698Y406928D02*
Y409428D01*
X831870Y130810D02*
X834370D01*
X833120Y129560D02*
Y132060D01*
X778530Y607060D02*
X781030D01*
X779780Y605810D02*
Y608310D01*
X101366Y277622D02*
X103866D01*
X102616Y276372D02*
Y278872D01*
X110764Y296418D02*
X113264D01*
X112014Y295168D02*
Y297668D01*
X104668Y296418D02*
X107168D01*
X105918Y295168D02*
Y297668D01*
X773467Y115190D02*
X775967D01*
X774717Y113940D02*
Y116440D01*
X780071Y115190D02*
X782571D01*
X781321Y113940D02*
Y116440D01*
X786929Y115190D02*
X789429D01*
X788179Y113940D02*
Y116440D01*
X863874Y135636D02*
X866374D01*
X865124Y134386D02*
Y136886D01*
X867176Y140970D02*
X869676D01*
X868426Y139720D02*
Y142220D01*
X860826Y140970D02*
X863326D01*
X862076Y139720D02*
Y142220D01*
X880130Y118618D02*
X882630D01*
X881380Y117368D02*
Y119868D01*
X885718Y118618D02*
X888218D01*
X886968Y117368D02*
Y119868D01*
X439186Y154432D02*
X441686D01*
X440436Y153182D02*
Y155682D01*
X438170Y191262D02*
X440670D01*
X439420Y190012D02*
Y192512D01*
X431566Y647700D02*
X434066D01*
X432816Y646450D02*
Y648950D01*
X303550Y166370D02*
X306050D01*
X304800Y165120D02*
Y167620D01*
X251480Y167640D02*
X253980D01*
X252730Y166390D02*
Y168890D01*
X201950Y167640D02*
X204450D01*
X203200Y166390D02*
Y168890D01*
X819932Y637794D02*
X822432D01*
X821182Y636544D02*
Y639044D01*
X774212Y480739D02*
X776712D01*
X775462Y479489D02*
Y481989D01*
X750590Y644144D02*
X753090D01*
X751840Y642894D02*
Y645394D01*
X485160Y627888D02*
X487660D01*
X486410Y626638D02*
Y629138D01*
X485160Y634492D02*
X487660D01*
X486410Y633242D02*
Y635742D01*
X484906Y617220D02*
X487406D01*
X486156Y615970D02*
Y618470D01*
X563646Y638302D02*
X566146D01*
X564896Y637052D02*
Y639552D01*
X474238Y119380D02*
X476738D01*
X475488Y118130D02*
Y120630D01*
X872510Y614680D02*
X875010D01*
X873760Y613430D02*
Y615930D01*
X793770Y580390D02*
X796270D01*
X795020Y579140D02*
Y581640D01*
X793770Y590550D02*
X796270D01*
X795020Y589300D02*
Y591800D01*
X815360Y609600D02*
X817860D01*
X816610Y608350D02*
Y610850D01*
X653816Y622300D02*
X656316D01*
X655066Y621050D02*
Y623550D01*
X651530Y535940D02*
X654030D01*
X652780Y534690D02*
Y537190D01*
X654070Y561340D02*
X656570D01*
X655320Y560090D02*
Y562590D01*
X678454Y590804D02*
X680954D01*
X679704Y589554D02*
Y592054D01*
X712490Y616712D02*
X714990D01*
X713740Y615462D02*
Y617962D01*
X674390Y612140D02*
X676890D01*
X675640Y610890D02*
Y613390D01*
X621050Y629920D02*
X623550D01*
X622300Y628670D02*
Y631170D01*
X74950Y50800D02*
X77450D01*
X76200Y49550D02*
Y52050D01*
X125750Y101600D02*
X128250D01*
X127000Y100350D02*
Y102850D01*
X226842Y181102D02*
X229342D01*
X228092Y179852D02*
Y182352D01*
X277642Y181102D02*
X280142D01*
X278892Y179852D02*
Y182352D01*
X341650Y139700D02*
X344150D01*
X342900Y138450D02*
Y140950D01*
X328950Y114300D02*
X331450D01*
X330200Y113050D02*
Y115550D01*
X316250Y76200D02*
X318750D01*
X317500Y74950D02*
Y77450D01*
X303550Y50800D02*
X306050D01*
X304800Y49550D02*
Y52050D01*
X303550Y114300D02*
X306050D01*
X304800Y113050D02*
Y115550D01*
X303550Y88900D02*
X306050D01*
X304800Y87650D02*
Y90150D01*
X303550Y139700D02*
X306050D01*
X304800Y138450D02*
Y140950D01*
X278150Y63500D02*
X280650D01*
X279400Y62250D02*
Y64750D01*
X278150Y101600D02*
X280650D01*
X279400Y100350D02*
Y102850D01*
X227350Y127000D02*
X229850D01*
X228600Y125750D02*
Y128250D01*
X278150Y127000D02*
X280650D01*
X279400Y125750D02*
Y128250D01*
X278150Y152400D02*
X280650D01*
X279400Y151150D02*
Y153650D01*
X252242Y181102D02*
X254742D01*
X253492Y179852D02*
Y182352D01*
X252750Y139700D02*
X255250D01*
X254000Y138450D02*
Y140950D01*
X252750Y114300D02*
X255250D01*
X254000Y113050D02*
Y115550D01*
X252750Y88900D02*
X255250D01*
X254000Y87650D02*
Y90150D01*
X252750Y50800D02*
X255250D01*
X254000Y49550D02*
Y52050D01*
X227350Y63500D02*
X229850D01*
X228600Y62250D02*
Y64750D01*
X227350Y101600D02*
X229850D01*
X228600Y100350D02*
Y102850D01*
X227350Y152400D02*
X229850D01*
X228600Y151150D02*
Y153650D01*
X201442Y181102D02*
X203942D01*
X202692Y179852D02*
Y182352D01*
X201950Y139700D02*
X204450D01*
X203200Y138450D02*
Y140950D01*
X201950Y114300D02*
X204450D01*
X203200Y113050D02*
Y115550D01*
X201950Y88900D02*
X204450D01*
X203200Y87650D02*
Y90150D01*
X201950Y50800D02*
X204450D01*
X203200Y49550D02*
Y52050D01*
X176550Y63500D02*
X179050D01*
X177800Y62250D02*
Y64750D01*
X176550Y152400D02*
X179050D01*
X177800Y151150D02*
Y153650D01*
X176550Y127000D02*
X179050D01*
X177800Y125750D02*
Y128250D01*
X176550Y101600D02*
X179050D01*
X177800Y100350D02*
Y102850D01*
X151150Y114300D02*
X153650D01*
X152400Y113050D02*
Y115550D01*
X151150Y139700D02*
X153650D01*
X152400Y138450D02*
Y140950D01*
X824250Y660400D02*
X826750D01*
X825500Y659150D02*
Y661650D01*
X951250Y635000D02*
X953750D01*
X952500Y633750D02*
Y636250D01*
X875050Y685800D02*
X877550D01*
X876300Y684550D02*
Y687050D01*
X849650Y685800D02*
X852150D01*
X850900Y684550D02*
Y687050D01*
X824250Y685800D02*
X826750D01*
X825500Y684550D02*
Y687050D01*
X798850Y685800D02*
X801350D01*
X800100Y684550D02*
Y687050D01*
X773450Y685800D02*
X775950D01*
X774700Y684550D02*
Y687050D01*
X722650Y685800D02*
X725150D01*
X723900Y684550D02*
Y687050D01*
X697250Y685800D02*
X699750D01*
X698500Y684550D02*
Y687050D01*
X671850Y685800D02*
X674350D01*
X673100Y684550D02*
Y687050D01*
X646450Y685800D02*
X648950D01*
X647700Y684550D02*
Y687050D01*
X485160Y604520D02*
X487660D01*
X486410Y603270D02*
Y605770D01*
X673120Y626364D02*
X675620D01*
X674370Y625114D02*
Y627614D01*
X918230Y683006D02*
X920730D01*
X919480Y681756D02*
Y684256D01*
X918230Y632206D02*
X920730D01*
X919480Y630956D02*
Y633456D01*
X901466Y683006D02*
X903966D01*
X902716Y681756D02*
Y684256D01*
X793770Y613580D02*
X796270D01*
X795020Y612330D02*
Y614830D01*
X872510Y636270D02*
X875010D01*
X873760Y635020D02*
Y637520D01*
X607080Y260350D02*
X609580D01*
X608330Y259100D02*
Y261600D01*
X513862Y453898D02*
X516362D01*
X515112Y452648D02*
Y455148D01*
X480588Y170942D02*
X483088D01*
X481838Y169692D02*
Y172192D01*
X480334Y162306D02*
X482834D01*
X481584Y161056D02*
Y163556D01*
X516148Y144018D02*
X518648D01*
X517398Y142768D02*
Y145268D01*
X597682Y207518D02*
X600182D01*
X598932Y206268D02*
Y208768D01*
X588030Y207518D02*
X590530D01*
X589280Y206268D02*
Y208768D01*
X579902Y207264D02*
X582402D01*
X581152Y206014D02*
Y208514D01*
X576854Y185674D02*
X579354D01*
X578104Y184424D02*
Y186924D01*
X576600Y195834D02*
X579100D01*
X577850Y194584D02*
Y197084D01*
X598698Y196342D02*
X601198D01*
X599948Y195092D02*
Y197592D01*
X598698Y185420D02*
X601198D01*
X599948Y184170D02*
Y186670D01*
X587776Y185420D02*
X590276D01*
X589026Y184170D02*
Y186670D01*
X545104Y236474D02*
X547604D01*
X546354Y235224D02*
Y237724D01*
X562884Y615950D02*
X565384D01*
X564134Y614700D02*
Y617200D01*
X570504Y606044D02*
X573004D01*
X571754Y604794D02*
Y607294D01*
X775990Y85090D02*
X778490D01*
X777240Y83840D02*
Y86340D01*
X768116Y85090D02*
X770616D01*
X769366Y83840D02*
Y86340D01*
X760496Y85090D02*
X762996D01*
X761746Y83840D02*
Y86340D01*
X583712Y85852D02*
X586212D01*
X584962Y84602D02*
Y87102D01*
X799866Y77978D02*
X802366D01*
X801116Y76728D02*
Y79228D01*
X793262Y77978D02*
X795762D01*
X794512Y76728D02*
Y79228D01*
X785642Y77978D02*
X788142D01*
X786892Y76728D02*
Y79228D01*
X679216Y105410D02*
X681716D01*
X680466Y104160D02*
Y106660D01*
X673120Y111506D02*
X675620D01*
X674370Y110256D02*
Y112756D01*
X417088Y115570D02*
X419588D01*
X418338Y114320D02*
Y116820D01*
X417088Y122428D02*
X419588D01*
X418338Y121178D02*
Y123678D01*
X456712Y505968D02*
X459212D01*
X457962Y504718D02*
Y507218D01*
X531896Y508000D02*
X534396D01*
X533146Y506750D02*
Y509250D01*
X124988Y262128D02*
X127488D01*
X126238Y260878D02*
Y263378D01*
X291866Y409956D02*
X294366D01*
X293116Y408706D02*
Y411206D01*
X19070Y20320D02*
X21570D01*
X20320Y19070D02*
Y21570D01*
X442488Y282702D02*
X444988D01*
X443738Y281452D02*
Y283952D01*
X723158Y153416D02*
X725658D01*
X724408Y152166D02*
Y154666D01*
X212364Y355600D02*
X214864D01*
X213614Y354350D02*
Y356850D01*
X161818Y318008D02*
X164318D01*
X163068Y316758D02*
Y319258D01*
X877844Y90678D02*
X880344D01*
X879094Y89428D02*
Y91928D01*
X432582Y599440D02*
X435082D01*
X433832Y598190D02*
Y600690D01*
X435884Y564388D02*
X438384D01*
X437134Y563138D02*
Y565638D01*
X527070Y196088D02*
X529570D01*
X528320Y194838D02*
Y197338D01*
X325140Y562356D02*
X327640D01*
X326390Y561106D02*
Y563606D01*
X301518Y540004D02*
X304018D01*
X302768Y538754D02*
Y541254D01*
X832886Y239522D02*
X835386D01*
X834136Y238272D02*
Y240772D01*
X266466Y563626D02*
X268966D01*
X267716Y562376D02*
Y564876D01*
X278150Y556768D02*
X280650D01*
X279400Y555518D02*
Y558018D01*
X319298Y418592D02*
X321798D01*
X320548Y417342D02*
Y419842D01*
X306090Y418084D02*
X308590D01*
X307340Y416834D02*
Y419334D01*
X207284Y325374D02*
X209784D01*
X208534Y324124D02*
Y326624D01*
X238018Y325882D02*
X240518D01*
X239268Y324632D02*
Y327132D01*
X239288Y431546D02*
X241788D01*
X240538Y430296D02*
Y432796D01*
X230398Y430276D02*
X232898D01*
X231648Y429026D02*
Y431526D01*
X221762Y448056D02*
X224262D01*
X223012Y446806D02*
Y449306D01*
X212618Y444500D02*
X215118D01*
X213868Y443250D02*
Y445750D01*
X195854Y442468D02*
X198354D01*
X197104Y441218D02*
Y443718D01*
X187472Y444754D02*
X189972D01*
X188722Y443504D02*
Y446004D01*
X155722Y351536D02*
X158222D01*
X156972Y350286D02*
Y352786D01*
X175280Y358902D02*
X177780D01*
X176530Y357652D02*
Y360152D01*
X140228Y357886D02*
X142728D01*
X141478Y356636D02*
Y359136D01*
X138704Y391414D02*
X141204D01*
X139954Y390164D02*
Y392664D01*
X152674Y441198D02*
X155174D01*
X153924Y439948D02*
Y442448D01*
X196870Y471932D02*
X199370D01*
X198120Y470682D02*
Y473182D01*
X166390Y466852D02*
X168890D01*
X167640Y465602D02*
Y468102D01*
X122956Y468122D02*
X125456D01*
X124206Y466872D02*
Y469372D01*
X442488Y692658D02*
X444988D01*
X443738Y691408D02*
Y693908D01*
X612668Y645414D02*
X615168D01*
X613918Y644164D02*
Y646664D01*
X620288Y609092D02*
X622788D01*
X621538Y607842D02*
Y610342D01*
X607588Y609600D02*
X610088D01*
X608838Y608350D02*
Y610850D01*
X353334Y259080D02*
X355834D01*
X354584Y257830D02*
Y260330D01*
X562884Y551688D02*
X565384D01*
X564134Y550438D02*
Y552938D01*
X556534Y557784D02*
X559034D01*
X557784Y556534D02*
Y559034D01*
X632226Y539750D02*
X634726D01*
X633476Y538500D02*
Y541000D01*
X632226Y532384D02*
X634726D01*
X633476Y531134D02*
Y533634D01*
X119241Y338026D02*
X121741D01*
X120491Y336776D02*
Y339276D01*
X116931Y370177D02*
X119431D01*
X118181Y368927D02*
Y371427D01*
X143114Y421774D02*
X145614D01*
X144364Y420524D02*
Y423024D01*
X118279Y424662D02*
X120779D01*
X119529Y423412D02*
Y425911D01*
X386608Y378460D02*
X389108D01*
X387858Y377210D02*
Y379710D01*
X429026Y442976D02*
X431526D01*
X430276Y441726D02*
Y444226D01*
X425470Y431800D02*
X427970D01*
X426720Y430550D02*
Y433050D01*
X425216Y332486D02*
X427716D01*
X426466Y331236D02*
Y333736D01*
X435630Y340360D02*
X438130D01*
X436880Y339110D02*
Y341610D01*
X415310Y340360D02*
X417810D01*
X416560Y339110D02*
Y341610D01*
X607080Y407416D02*
X609580D01*
X608330Y406166D02*
Y408666D01*
X908070Y614680D02*
X910570D01*
X909320Y613430D02*
Y615930D01*
X933470Y614680D02*
X935970D01*
X934720Y613430D02*
Y615930D01*
X953790Y614680D02*
X956290D01*
X955040Y613430D02*
Y615930D01*
X953790Y589280D02*
X956290D01*
X955040Y588030D02*
Y590530D01*
X953790Y563880D02*
X956290D01*
X955040Y562630D02*
Y565130D01*
X953790Y538480D02*
X956290D01*
X955040Y537230D02*
Y539730D01*
X953790Y513080D02*
X956290D01*
X955040Y511830D02*
Y514330D01*
X953860Y488229D02*
X956360D01*
X955110Y486979D02*
Y489479D01*
X953790Y462280D02*
X956290D01*
X955040Y461030D02*
Y463530D01*
X953790Y436880D02*
X956290D01*
X955040Y435630D02*
Y438130D01*
X953790Y284480D02*
X956290D01*
X955040Y283230D02*
Y285730D01*
X953790Y259080D02*
X956290D01*
X955040Y257830D02*
Y260330D01*
X953790Y233680D02*
X956290D01*
X955040Y232430D02*
Y234930D01*
X953790Y208280D02*
X956290D01*
X955040Y207030D02*
Y209530D01*
X949980Y131826D02*
X952480D01*
X951230Y130576D02*
Y133076D01*
X733685Y76202D02*
X736185D01*
X734935Y74952D02*
Y77452D01*
X747679Y76031D02*
X750179D01*
X748929Y74781D02*
Y77281D01*
X744607Y115452D02*
X747107D01*
X745857Y114202D02*
Y116702D01*
X763036Y129540D02*
X765536D01*
X764286Y128290D02*
Y130790D01*
X818876Y170057D02*
X821376D01*
X820126Y168807D02*
Y171307D01*
X892830Y233680D02*
X895330D01*
X894080Y232430D02*
Y234930D01*
X659150Y259080D02*
X661650D01*
X660400Y257830D02*
Y260330D01*
X638830Y259080D02*
X641330D01*
X640080Y257830D02*
Y260330D01*
X638830Y243840D02*
X641330D01*
X640080Y242590D02*
Y245090D01*
X657295Y227869D02*
X659795D01*
X658545Y226619D02*
Y229119D01*
X654352Y207271D02*
X656852D01*
X655602Y206021D02*
Y208521D01*
X140990Y330200D02*
X143490D01*
X142240Y328950D02*
Y331450D01*
X283230Y334264D02*
X285730D01*
X284480Y333014D02*
Y335514D01*
X298865Y331112D02*
X301365D01*
X300115Y329862D02*
Y332362D01*
X318790Y320040D02*
X321290D01*
X320040Y318790D02*
Y321290D01*
X318790Y335280D02*
X321290D01*
X320040Y334030D02*
Y336530D01*
X374550Y282353D02*
X377050D01*
X375800Y281103D02*
Y283603D01*
X379750Y304800D02*
X382250D01*
X381000Y303550D02*
Y306050D01*
X389910Y320040D02*
X392410D01*
X391160Y318790D02*
Y321290D01*
X384830Y335280D02*
X387330D01*
X386080Y334030D02*
Y336530D01*
X374670Y325120D02*
X377170D01*
X375920Y323870D02*
Y326370D01*
X369590Y309880D02*
X372090D01*
X370840Y308630D02*
Y311130D01*
X369590Y299720D02*
X372090D01*
X370840Y298470D02*
Y300970D01*
X543580Y245872D02*
X546080D01*
X544830Y244622D02*
Y247122D01*
X273070Y238760D02*
X275570D01*
X274320Y237510D02*
Y240010D01*
X247670Y238760D02*
X250170D01*
X248920Y237510D02*
Y240010D01*
X222270Y238760D02*
X224770D01*
X223520Y237510D02*
Y240010D01*
X196870Y238760D02*
X199370D01*
X198120Y237510D02*
Y240010D01*
X176550Y238760D02*
X179050D01*
X177800Y237510D02*
Y240010D01*
X299994Y261874D02*
X302494D01*
X301244Y260624D02*
Y263124D01*
X274340Y262128D02*
X276840D01*
X275590Y260878D02*
Y263378D01*
X248940Y262382D02*
X251440D01*
X250190Y261132D02*
Y263632D01*
X223794Y262890D02*
X226294D01*
X225044Y261640D02*
Y264140D01*
X197886Y262636D02*
X200386D01*
X199136Y261386D02*
Y263886D01*
X222270Y294640D02*
X224770D01*
X223520Y293390D02*
Y295890D01*
X247670Y304800D02*
X250170D01*
X248920Y303550D02*
Y306050D01*
X237510Y314960D02*
X240010D01*
X238760Y313710D02*
Y316210D01*
X217190Y314960D02*
X219690D01*
X218440Y313710D02*
Y316210D01*
X188996Y324104D02*
X191496D01*
X190246Y322854D02*
Y325354D01*
X273070Y482600D02*
X275570D01*
X274320Y481350D02*
Y483850D01*
X247670Y528320D02*
X250170D01*
X248920Y527070D02*
Y529570D01*
X222270Y502920D02*
X224770D01*
X223520Y501670D02*
Y504170D01*
X196870Y502920D02*
X199370D01*
X198120Y501670D02*
Y504170D01*
X171470Y497840D02*
X173970D01*
X172720Y496590D02*
Y499090D01*
X146070Y497840D02*
X148570D01*
X147320Y496590D02*
Y499090D01*
X120670Y482600D02*
X123170D01*
X121920Y481350D02*
Y483850D01*
X252750Y538480D02*
X255250D01*
X254000Y537230D02*
Y539730D01*
X222270Y533400D02*
X224770D01*
X223520Y532150D02*
Y534650D01*
X207030Y538480D02*
X209530D01*
X208280Y537230D02*
Y539730D01*
X181630Y533400D02*
X184130D01*
X182880Y532150D02*
Y534650D01*
X135910Y538480D02*
X138410D01*
X137160Y537230D02*
Y539730D01*
X120670Y533400D02*
X123170D01*
X121920Y532150D02*
Y534650D01*
X120670Y558800D02*
X123170D01*
X121920Y557550D02*
Y560050D01*
X120670Y574040D02*
X123170D01*
X121920Y572790D02*
Y575290D01*
X135910Y574040D02*
X138410D01*
X137160Y572790D02*
Y575290D01*
X181224Y573322D02*
X183724D01*
X182474Y572072D02*
Y574571D01*
X201950Y574040D02*
X204450D01*
X203200Y572790D02*
Y575290D01*
X232430Y574040D02*
X234930D01*
X233680Y572790D02*
Y575290D01*
X237437Y589226D02*
X239937D01*
X238687Y587976D02*
Y590476D01*
X207030Y589280D02*
X209530D01*
X208280Y588030D02*
Y590530D01*
X181630Y589280D02*
X184130D01*
X182880Y588030D02*
Y590530D01*
X257830Y619760D02*
X260330D01*
X259080Y618510D02*
Y621010D01*
X232430Y619760D02*
X234930D01*
X233680Y618510D02*
Y621010D01*
X207030Y619760D02*
X209530D01*
X208280Y618510D02*
Y621010D01*
X400070Y660400D02*
X402570D01*
X401320Y659150D02*
Y661650D01*
X359430Y665480D02*
X361930D01*
X360680Y664230D02*
Y666730D01*
X344190Y665480D02*
X346690D01*
X345440Y664230D02*
Y666730D01*
X310408Y646430D02*
X312908D01*
X311658Y645180D02*
Y647680D01*
X293390Y635000D02*
X295890D01*
X294640Y633750D02*
Y636250D01*
X283230Y619760D02*
X285730D01*
X284480Y618510D02*
Y621010D01*
X278150Y670560D02*
X280650D01*
X279400Y669310D02*
Y671810D01*
X252750Y670560D02*
X255250D01*
X254000Y669310D02*
Y671810D01*
X227350Y670560D02*
X229850D01*
X228600Y669310D02*
Y671810D01*
X201950Y670560D02*
X204450D01*
X203200Y669310D02*
Y671810D01*
X176550Y670560D02*
X179050D01*
X177800Y669310D02*
Y671810D01*
X176550Y645160D02*
X179050D01*
X177800Y643910D02*
Y646410D01*
X176550Y629920D02*
X179050D01*
X177800Y628670D02*
Y631170D01*
X273070Y604520D02*
X275570D01*
X274320Y603270D02*
Y605770D01*
X247670Y604520D02*
X250170D01*
X248920Y603270D02*
Y605770D01*
X217190Y604520D02*
X219690D01*
X218440Y603270D02*
Y605770D01*
X196870Y604520D02*
X199370D01*
X198120Y603270D02*
Y605770D01*
X176550Y604520D02*
X179050D01*
X177800Y603270D02*
Y605770D01*
X135910Y589280D02*
X138410D01*
X137160Y588030D02*
Y590530D01*
X115590Y589280D02*
X118090D01*
X116840Y588030D02*
Y590530D01*
X151150Y604520D02*
X153650D01*
X152400Y603270D02*
Y605770D01*
X151150Y629920D02*
X153650D01*
X152400Y628670D02*
Y631170D01*
X151150Y645160D02*
X153650D01*
X152400Y643910D02*
Y646410D01*
X125750Y670560D02*
X128250D01*
X127000Y669310D02*
Y671810D01*
X110510Y685800D02*
X113010D01*
X111760Y684550D02*
Y687050D01*
X110510Y670560D02*
X113010D01*
X111760Y669310D02*
Y671810D01*
X88412Y667258D02*
X90912D01*
X89662Y666008D02*
Y668508D01*
X90190Y650240D02*
X92690D01*
X91440Y648990D02*
Y651490D01*
X44470Y629920D02*
X46970D01*
X45720Y628670D02*
Y631170D01*
X75084Y614413D02*
X77584D01*
X76334Y613163D02*
Y615663D01*
X54630Y614680D02*
X57130D01*
X55880Y613430D02*
Y615930D01*
X34310Y614680D02*
X36810D01*
X35560Y613430D02*
Y615930D01*
X95270Y589280D02*
X97770D01*
X96520Y588030D02*
Y590530D01*
X49550Y589280D02*
X52050D01*
X50800Y588030D02*
Y590530D01*
X49550Y563880D02*
X52050D01*
X50800Y562630D02*
Y565130D01*
X95270Y563880D02*
X97770D01*
X96520Y562630D02*
Y565130D01*
X95270Y538480D02*
X97770D01*
X96520Y537230D02*
Y539730D01*
X49550Y538480D02*
X52050D01*
X50800Y537230D02*
Y539730D01*
X49550Y513080D02*
X52050D01*
X50800Y511830D02*
Y514330D01*
X49550Y487680D02*
X52050D01*
X50800Y486430D02*
Y488930D01*
X49550Y462280D02*
X52050D01*
X50800Y461030D02*
Y463530D01*
X49550Y436880D02*
X52050D01*
X50800Y435630D02*
Y438130D01*
X49550Y411480D02*
X52050D01*
X50800Y410230D02*
Y412730D01*
X49550Y386080D02*
X52050D01*
X50800Y384830D02*
Y387330D01*
X95270Y360680D02*
X97770D01*
X96520Y359430D02*
Y361930D01*
X49550Y360680D02*
X52050D01*
X50800Y359430D02*
Y361930D01*
X49550Y335280D02*
X52050D01*
X50800Y334030D02*
Y336530D01*
X49550Y309880D02*
X52050D01*
X50800Y308630D02*
Y311130D01*
X49550Y284480D02*
X52050D01*
X50800Y283230D02*
Y285730D01*
X49550Y259080D02*
X52050D01*
X50800Y257830D02*
Y260330D01*
X49550Y233680D02*
X52050D01*
X50800Y232430D02*
Y234930D01*
X95270Y208280D02*
X97770D01*
X96520Y207030D02*
Y209530D01*
X95270Y182880D02*
X97770D01*
X96520Y181630D02*
Y184130D01*
X54630Y182880D02*
X57130D01*
X55880Y181630D02*
Y184130D01*
X54630Y208280D02*
X57130D01*
X55880Y207030D02*
Y209530D01*
X90190Y157480D02*
X92690D01*
X91440Y156230D02*
Y158730D01*
X54630Y157480D02*
X57130D01*
X55880Y156230D02*
Y158730D01*
X54630Y132080D02*
X57130D01*
X55880Y130830D02*
Y133330D01*
X90190Y132080D02*
X92690D01*
X91440Y130830D02*
Y133330D01*
X95270Y101600D02*
X97770D01*
X96520Y100350D02*
Y102850D01*
X64790Y101600D02*
X67290D01*
X66040Y100350D02*
Y102850D01*
X39390Y101600D02*
X41890D01*
X40640Y100350D02*
Y102850D01*
X323870Y233680D02*
X326370D01*
X325120Y232430D02*
Y234930D01*
X303550Y233680D02*
X306050D01*
X304800Y232430D02*
Y234930D01*
X323870Y218440D02*
X326370D01*
X325120Y217190D02*
Y219690D01*
X308630Y203200D02*
X311130D01*
X309880Y201950D02*
Y204450D01*
X278150Y218440D02*
X280650D01*
X279400Y217190D02*
Y219690D01*
X252750Y218440D02*
X255250D01*
X254000Y217190D02*
Y219690D01*
X222270Y218440D02*
X224770D01*
X223520Y217190D02*
Y219690D01*
X196870Y218440D02*
X199370D01*
X198120Y217190D02*
Y219690D01*
X171470Y218440D02*
X173970D01*
X172720Y217190D02*
Y219690D01*
X151150Y203200D02*
X153650D01*
X152400Y201950D02*
Y204450D01*
X140990Y193040D02*
X143490D01*
X142240Y191790D02*
Y194290D01*
X125750Y177800D02*
X128250D01*
X127000Y176550D02*
Y179050D01*
X115590Y167640D02*
X118090D01*
X116840Y166390D02*
Y168890D01*
X323870Y177800D02*
X326370D01*
X325120Y176550D02*
Y179050D01*
X308630Y187960D02*
X311130D01*
X309880Y186710D02*
Y189210D01*
X293390Y198120D02*
X295890D01*
X294640Y196870D02*
Y199370D01*
X181630Y198120D02*
X184130D01*
X182880Y196870D02*
Y199370D01*
X161310Y182880D02*
X163810D01*
X162560Y181630D02*
Y184130D01*
X151150Y162560D02*
X153650D01*
X152400Y161310D02*
Y163810D01*
X313710Y50800D02*
X316210D01*
X314960Y49550D02*
Y52050D01*
X151150Y76200D02*
X153650D01*
X152400Y74950D02*
Y77450D01*
X151150Y50800D02*
X153650D01*
X152400Y49550D02*
Y52050D01*
X125750Y50800D02*
X128250D01*
X127000Y49550D02*
Y52050D01*
X125750Y76200D02*
X128250D01*
X127000Y74950D02*
Y77450D01*
X100350Y76200D02*
X102850D01*
X101600Y74950D02*
Y77450D01*
X100350Y50800D02*
X102850D01*
X101600Y49550D02*
Y52050D01*
X405150Y152400D02*
X407650D01*
X406400Y151150D02*
Y153650D01*
X394990Y162560D02*
X397490D01*
X396240Y161310D02*
Y163810D01*
X532150Y111760D02*
X534650D01*
X533400Y110510D02*
Y113010D01*
X552470Y111760D02*
X554970D01*
X553720Y110510D02*
Y113010D01*
X557550Y81280D02*
X560050D01*
X558800Y80030D02*
Y82530D01*
X542056Y92964D02*
X544556D01*
X543306Y91714D02*
Y94214D01*
X526816Y92964D02*
X529316D01*
X528066Y91714D02*
Y94214D01*
X537230Y81280D02*
X539730D01*
X538480Y80030D02*
Y82530D01*
X542310Y40640D02*
X544810D01*
X543560Y39390D02*
Y41890D01*
X552470Y45720D02*
X554970D01*
X553720Y44470D02*
Y46970D01*
X562630Y40640D02*
X565130D01*
X563880Y39390D02*
Y41890D01*
X562630Y55880D02*
X565130D01*
X563880Y54630D02*
Y57130D01*
X552470Y66040D02*
X554970D01*
X553720Y64790D02*
Y67290D01*
X537230Y66040D02*
X539730D01*
X538480Y64790D02*
Y67290D01*
X521990Y66040D02*
X524490D01*
X523240Y64790D02*
Y67290D01*
X491510Y86360D02*
X494010D01*
X492760Y85110D02*
Y87610D01*
X455950Y66040D02*
X458450D01*
X457200Y64790D02*
Y67290D01*
X440710Y66040D02*
X443210D01*
X441960Y64790D02*
Y67290D01*
X440710Y50800D02*
X443210D01*
X441960Y49550D02*
Y52050D01*
X440710Y35560D02*
X443210D01*
X441960Y34310D02*
Y36810D01*
X440710Y20320D02*
X443210D01*
X441960Y19070D02*
Y21570D01*
X511830Y15240D02*
X514330D01*
X513080Y13990D02*
Y16490D01*
X491510Y15240D02*
X494010D01*
X492760Y13990D02*
Y16490D01*
X476270Y15240D02*
X478770D01*
X477520Y13990D02*
Y16490D01*
X542310Y25400D02*
X544810D01*
X543560Y24150D02*
Y26650D01*
X831870Y45720D02*
X834370D01*
X833120Y44470D02*
Y46970D01*
X857270Y55880D02*
X859770D01*
X858520Y54630D02*
Y57130D01*
X857270Y40640D02*
X859770D01*
X858520Y39390D02*
Y41890D01*
X974110Y25400D02*
X976610D01*
X975360Y24150D02*
Y26650D01*
X963950Y106680D02*
X966450D01*
X965200Y105430D02*
Y107930D01*
X963950Y91440D02*
X966450D01*
X965200Y90190D02*
Y92690D01*
X943630Y91440D02*
X946130D01*
X944880Y90190D02*
Y92690D01*
X913150Y66040D02*
X915650D01*
X914400Y64790D02*
Y67290D01*
X925088Y38100D02*
X927588D01*
X926338Y36850D02*
Y39350D01*
X984270Y91440D02*
X986770D01*
X985520Y90190D02*
Y92690D01*
X984270Y106680D02*
X986770D01*
X985520Y105430D02*
Y107930D01*
X984270Y132080D02*
X986770D01*
X985520Y130830D02*
Y133330D01*
X984270Y157480D02*
X986770D01*
X985520Y156230D02*
Y158730D01*
X984270Y182880D02*
X986770D01*
X985520Y181630D02*
Y184130D01*
X984270Y233680D02*
X986770D01*
X985520Y232430D02*
Y234930D01*
X984270Y259080D02*
X986770D01*
X985520Y257830D02*
Y260330D01*
X984270Y284480D02*
X986770D01*
X985520Y283230D02*
Y285730D01*
X984270Y309880D02*
X986770D01*
X985520Y308630D02*
Y311130D01*
X984270Y335280D02*
X986770D01*
X985520Y334030D02*
Y336530D01*
X984270Y360680D02*
X986770D01*
X985520Y359430D02*
Y361930D01*
X984270Y386080D02*
X986770D01*
X985520Y384830D02*
Y387330D01*
X984270Y411480D02*
X986770D01*
X985520Y410230D02*
Y412730D01*
X984270Y436880D02*
X986770D01*
X985520Y435630D02*
Y438130D01*
X984270Y462280D02*
X986770D01*
X985520Y461030D02*
Y463530D01*
X984270Y487680D02*
X986770D01*
X985520Y486430D02*
Y488930D01*
X984270Y513080D02*
X986770D01*
X985520Y511830D02*
Y514330D01*
X984270Y538480D02*
X986770D01*
X985520Y537230D02*
Y539730D01*
X984270Y563880D02*
X986770D01*
X985520Y562630D02*
Y565130D01*
X984270Y629920D02*
X986770D01*
X985520Y628670D02*
Y631170D01*
X984270Y614680D02*
X986770D01*
X985520Y613430D02*
Y615930D01*
X984270Y589280D02*
X986770D01*
X985520Y588030D02*
Y590530D01*
X54630Y25400D02*
X57130D01*
X55880Y24150D02*
Y26650D01*
X13990Y629920D02*
X16490D01*
X15240Y628670D02*
Y631170D01*
X13990Y614680D02*
X16490D01*
X15240Y613430D02*
Y615930D01*
X13990Y101600D02*
X16490D01*
X15240Y100350D02*
Y102850D01*
X13990Y132080D02*
X16490D01*
X15240Y130830D02*
Y133330D01*
X13990Y157480D02*
X16490D01*
X15240Y156230D02*
Y158730D01*
X13990Y182880D02*
X16490D01*
X15240Y181630D02*
Y184130D01*
X13990Y208280D02*
X16490D01*
X15240Y207030D02*
Y209530D01*
X13990Y233680D02*
X16490D01*
X15240Y232430D02*
Y234930D01*
X13990Y259080D02*
X16490D01*
X15240Y257830D02*
Y260330D01*
X13990Y284480D02*
X16490D01*
X15240Y283230D02*
Y285730D01*
X13990Y309880D02*
X16490D01*
X15240Y308630D02*
Y311130D01*
X14060Y334719D02*
X16560D01*
X15310Y333469D02*
Y335969D01*
X13990Y360680D02*
X16490D01*
X15240Y359430D02*
Y361930D01*
X13990Y386080D02*
X16490D01*
X15240Y384830D02*
Y387330D01*
X13990Y411480D02*
X16490D01*
X15240Y410230D02*
Y412730D01*
X13990Y436880D02*
X16490D01*
X15240Y435630D02*
Y438130D01*
X13990Y462280D02*
X16490D01*
X15240Y461030D02*
Y463530D01*
X13990Y487680D02*
X16490D01*
X15240Y486430D02*
Y488930D01*
X13990Y513080D02*
X16490D01*
X15240Y511830D02*
Y514330D01*
X13990Y538480D02*
X16490D01*
X15240Y537230D02*
Y539730D01*
X13990Y563880D02*
X16490D01*
X15240Y562630D02*
Y565130D01*
X13990Y589280D02*
X16490D01*
X15240Y588030D02*
Y590530D01*
X938550Y25400D02*
X941050D01*
X939800Y24150D02*
Y26650D01*
X913150Y25400D02*
X915650D01*
X914400Y24150D02*
Y26650D01*
X862350Y25400D02*
X864850D01*
X863600Y24150D02*
Y26650D01*
X811550Y25400D02*
X814050D01*
X812800Y24150D02*
Y26650D01*
X735350Y25400D02*
X737850D01*
X736600Y24150D02*
Y26650D01*
X684550Y25400D02*
X687050D01*
X685800Y24150D02*
Y26650D01*
X557550Y25400D02*
X560050D01*
X558800Y24150D02*
Y26650D01*
X303550Y25400D02*
X306050D01*
X304800Y24150D02*
Y26650D01*
X278150Y25400D02*
X280650D01*
X279400Y24150D02*
Y26650D01*
X252750Y25400D02*
X255250D01*
X254000Y24150D02*
Y26650D01*
X227350Y25400D02*
X229850D01*
X228600Y24150D02*
Y26650D01*
X201950Y25400D02*
X204450D01*
X203200Y24150D02*
Y26650D01*
X176550Y25400D02*
X179050D01*
X177800Y24150D02*
Y26650D01*
X151150Y25400D02*
X153650D01*
X152400Y24150D02*
Y26650D01*
X125750Y25400D02*
X128250D01*
X127000Y24150D02*
Y26650D01*
X100350Y25400D02*
X102850D01*
X101600Y24150D02*
Y26650D01*
X74950Y25400D02*
X77450D01*
X76200Y24150D02*
Y26650D01*
X608350Y685800D02*
X610850D01*
X609600Y684550D02*
Y687050D01*
X582950Y685800D02*
X585450D01*
X584200Y684550D02*
Y687050D01*
X430550Y685800D02*
X433050D01*
X431800Y684550D02*
Y687050D01*
X405150Y685800D02*
X407650D01*
X406400Y684550D02*
Y687050D01*
X364510Y685546D02*
X367010D01*
X365760Y684296D02*
Y686796D01*
X303550Y685800D02*
X306050D01*
X304800Y684550D02*
Y687050D01*
X278150Y685800D02*
X280650D01*
X279400Y684550D02*
Y687050D01*
X252750Y685800D02*
X255250D01*
X254000Y684550D02*
Y687050D01*
X227350Y685800D02*
X229850D01*
X228600Y684550D02*
Y687050D01*
X201950Y685800D02*
X204450D01*
X203200Y684550D02*
Y687050D01*
X176550Y685800D02*
X179050D01*
X177800Y684550D02*
Y687050D01*
X151150Y685800D02*
X153650D01*
X152400Y684550D02*
Y687050D01*
X125750Y685800D02*
X128250D01*
X127000Y684550D02*
Y687050D01*
X414040Y422910D02*
X416540D01*
X415290Y421660D02*
Y424160D01*
X425470Y393700D02*
X427970D01*
X426720Y392450D02*
Y394950D01*
X464840Y392430D02*
X467340D01*
X466090Y391180D02*
Y393680D01*
X530880Y397510D02*
X533380D01*
X532130Y396260D02*
Y398760D01*
X603524Y113284D02*
X606024D01*
X604774Y112034D02*
Y114534D01*
X591840Y113030D02*
X594340D01*
X593090Y111780D02*
Y114280D01*
X580410Y112776D02*
X582910D01*
X581660Y111526D02*
Y114026D01*
X567710Y117348D02*
X570210D01*
X568960Y116098D02*
Y118598D01*
X560598Y123698D02*
X563098D01*
X561848Y122448D02*
Y124948D01*
X553740Y131064D02*
X556240D01*
X554990Y129814D02*
Y132314D01*
X581680Y130302D02*
X584180D01*
X582930Y129052D02*
Y131552D01*
X573298Y135636D02*
X575798D01*
X574548Y134386D02*
Y136886D01*
X547644Y143764D02*
X550144D01*
X548894Y142514D02*
Y145014D01*
X547136Y155448D02*
X549636D01*
X548386Y154198D02*
Y156698D01*
X557550Y176530D02*
X560050D01*
X558800Y175280D02*
Y177780D01*
X532150Y260604D02*
X534650D01*
X533400Y259354D02*
Y261854D01*
X575330Y254254D02*
X577830D01*
X576580Y253004D02*
Y255504D01*
X603926Y338074D02*
X606426D01*
X605176Y336824D02*
Y339324D01*
X568980Y247650D02*
X571480D01*
X570230Y246400D02*
Y248900D01*
X595650Y241300D02*
X598150D01*
X596900Y240050D02*
Y242550D01*
X548660Y219202D02*
X551160D01*
X549910Y217952D02*
Y220452D01*
X525800Y218694D02*
X528300D01*
X527050Y217444D02*
Y219944D01*
X519704Y218948D02*
X522204D01*
X520954Y217698D02*
Y220198D01*
X496590Y219202D02*
X499090D01*
X497840Y217952D02*
Y220452D01*
X480080Y210820D02*
X482580D01*
X481330Y209570D02*
Y212070D01*
X462300Y204216D02*
X464800D01*
X463550Y202966D02*
Y205466D01*
X448330Y203708D02*
X450830D01*
X449580Y202458D02*
Y204958D01*
X426486Y203962D02*
X428986D01*
X427736Y202712D02*
Y205212D01*
X445790Y221742D02*
X448290D01*
X447040Y220492D02*
Y222992D01*
X468650Y227076D02*
X471150D01*
X469900Y225826D02*
Y228326D01*
X475000Y233934D02*
X477500D01*
X476250Y232684D02*
Y235184D01*
X487700Y236220D02*
X490200D01*
X488950Y234970D02*
Y237470D01*
X500400Y236220D02*
X502900D01*
X501650Y234970D02*
Y237470D01*
X511830Y236220D02*
X514330D01*
X513080Y234970D02*
Y237470D01*
X523260Y236728D02*
X525760D01*
X524510Y235478D02*
Y237978D01*
X535706Y236982D02*
X538206D01*
X536956Y235732D02*
Y238232D01*
X622320Y174498D02*
X624820D01*
X623570Y173248D02*
Y175748D01*
X631464Y174498D02*
X633964D01*
X632714Y173248D02*
Y175748D01*
X638830Y190500D02*
X641330D01*
X640080Y189250D02*
Y191750D01*
X641878Y146812D02*
X644378D01*
X643128Y145562D02*
Y148062D01*
X649498Y154686D02*
X651998D01*
X650748Y153436D02*
Y155936D01*
X621050Y149860D02*
X623550D01*
X622300Y148610D02*
Y151110D01*
X628670Y157480D02*
X631170D01*
X629920Y156230D02*
Y158730D01*
X387370Y91440D02*
X389870D01*
X388620Y90190D02*
Y92690D01*
X389910Y116840D02*
X392410D01*
X391160Y115590D02*
Y118090D01*
X364510Y114300D02*
X367010D01*
X365760Y113050D02*
Y115550D01*
X384830Y134620D02*
X387330D01*
X386080Y133370D02*
Y135870D01*
X341650Y177800D02*
X344150D01*
X342900Y176550D02*
Y179050D01*
X336570Y185420D02*
X339070D01*
X337820Y184170D02*
Y186670D01*
X359430Y187960D02*
X361930D01*
X360680Y186710D02*
Y189210D01*
X334030Y198120D02*
X336530D01*
X335280Y196870D02*
Y199370D01*
X354350Y198120D02*
X356850D01*
X355600Y196870D02*
Y199370D01*
X334030Y215900D02*
X336530D01*
X335280Y214650D02*
Y217150D01*
X354350Y215900D02*
X356850D01*
X355600Y214650D02*
Y217150D01*
X334030Y231140D02*
X336530D01*
X335280Y229890D02*
Y232390D01*
X334030Y240792D02*
X336530D01*
X335280Y239542D02*
Y242042D01*
X354350Y231140D02*
X356850D01*
X355600Y229890D02*
Y232390D01*
X354350Y240538D02*
X356850D01*
X355600Y239288D02*
Y241788D01*
X354350Y281940D02*
X356850D01*
X355600Y280690D02*
Y283190D01*
X354350Y299720D02*
X356850D01*
X355600Y298470D02*
Y300970D01*
X334792Y297688D02*
X337292D01*
X336042Y296438D02*
Y298938D01*
X354350Y309880D02*
X356850D01*
X355600Y308630D02*
Y311130D01*
X334030Y309880D02*
X336530D01*
X335280Y308630D02*
Y311130D01*
X354350Y320040D02*
X356850D01*
X355600Y318790D02*
Y321290D01*
X334030Y322580D02*
X336530D01*
X335280Y321330D02*
Y323830D01*
X341650Y335280D02*
X344150D01*
X342900Y334030D02*
Y336530D01*
X364510Y332740D02*
X367010D01*
X365760Y331490D02*
Y333990D01*
X349270Y347980D02*
X351770D01*
X350520Y346730D02*
Y349230D01*
X367050Y347980D02*
X369550D01*
X368300Y346730D02*
Y349230D01*
X367050Y368300D02*
X369550D01*
X368300Y367050D02*
Y369550D01*
X349270Y368300D02*
X351770D01*
X350520Y367050D02*
Y369550D01*
X367050Y378460D02*
X369550D01*
X368300Y377210D02*
Y379710D01*
X349270Y378460D02*
X351770D01*
X350520Y377210D02*
Y379710D01*
X367050Y396240D02*
X369550D01*
X368300Y394990D02*
Y397490D01*
X349270Y396240D02*
X351770D01*
X350520Y394990D02*
Y397490D01*
X367050Y416560D02*
X369550D01*
X368300Y415310D02*
Y417810D01*
X349270Y416560D02*
X351770D01*
X350520Y415310D02*
Y417810D01*
X361970Y429260D02*
X364470D01*
X363220Y428010D02*
Y430510D01*
X354350Y436880D02*
X356850D01*
X355600Y435630D02*
Y438130D01*
X349270Y452120D02*
X351770D01*
X350520Y450870D02*
Y453370D01*
X339110Y426720D02*
X341610D01*
X340360Y425470D02*
Y427970D01*
X331490Y436880D02*
X333990D01*
X332740Y435630D02*
Y438130D01*
X326410Y472440D02*
X328910D01*
X327660Y471190D02*
Y473690D01*
X331490Y485140D02*
X333990D01*
X332740Y483890D02*
Y486390D01*
X407464Y519684D02*
X409964D01*
X408714Y518434D02*
Y520934D01*
X331490Y505460D02*
X333990D01*
X332740Y504210D02*
Y506710D01*
X349270Y505460D02*
X351770D01*
X350520Y504210D02*
Y506710D01*
X326410Y535940D02*
X328910D01*
X327660Y534690D02*
Y537190D01*
X331490Y518160D02*
X333990D01*
X332740Y516910D02*
Y519410D01*
X349270Y518160D02*
X351770D01*
X350520Y516910D02*
Y519410D01*
X349270Y528320D02*
X351770D01*
X350520Y527070D02*
Y529570D01*
X323870Y546100D02*
X326370D01*
X325120Y544850D02*
Y547350D01*
X344190Y541020D02*
X346690D01*
X345440Y539770D02*
Y542270D01*
X464840Y402590D02*
X467340D01*
X466090Y401340D02*
Y403840D01*
X443250Y401320D02*
X445750D01*
X444500Y400070D02*
Y402570D01*
X443250Y410210D02*
X445750D01*
X444500Y408960D02*
Y411460D01*
X562226Y354076D02*
X564726D01*
X563476Y352826D02*
Y355326D01*
X546376Y366012D02*
X548876D01*
X547626Y364762D02*
Y367262D01*
X514116Y354076D02*
X516616D01*
X515366Y352826D02*
Y355326D01*
X456850Y363941D02*
X459350D01*
X458100Y362691D02*
Y365191D01*
X492526Y353820D02*
X495026D01*
X493776Y352570D02*
Y355070D01*
X473730Y353822D02*
X476230D01*
X474980Y352572D02*
Y355072D01*
X450756Y363941D02*
X453256D01*
X452006Y362691D02*
Y365191D01*
X426740Y406400D02*
X429240D01*
X427990Y405150D02*
Y407650D01*
X417850Y406400D02*
X420350D01*
X419100Y405150D02*
Y407650D01*
X376448Y63754D02*
X378948D01*
X377698Y62504D02*
Y65004D01*
X582950Y251866D02*
X585450D01*
X584200Y250616D02*
Y253116D01*
X422676Y356870D02*
X425176D01*
X423926Y355620D02*
Y358120D01*
X428772Y356870D02*
X431272D01*
X430022Y355620D02*
Y358120D01*
X649709Y241765D02*
X652209D01*
X650959Y240515D02*
Y243015D01*
X656102Y241808D02*
X658602D01*
X657352Y240558D02*
Y243058D01*
X730270Y183896D02*
X732770D01*
X731520Y182646D02*
Y185146D01*
X730270Y191770D02*
X732770D01*
X731520Y190520D02*
Y193020D01*
X331490Y164846D02*
X333990D01*
X332740Y163596D02*
Y166096D01*
X523768Y354076D02*
X526268D01*
X525018Y352826D02*
Y355326D01*
X546148Y328168D02*
X548648D01*
X547398Y326918D02*
Y329418D01*
X555292Y333502D02*
X557792D01*
X556542Y332252D02*
Y334752D01*
X419882Y494030D02*
X422382D01*
X421132Y492780D02*
Y495280D01*
X432074Y518160D02*
X434574D01*
X433324Y516910D02*
Y519410D01*
X440202Y513334D02*
X442702D01*
X441452Y512084D02*
Y514584D01*
X490494Y543052D02*
X492994D01*
X491744Y541802D02*
Y544302D01*
X484144Y543052D02*
X486644D01*
X485394Y541802D02*
Y544302D01*
X451374Y525780D02*
X453874D01*
X452624Y524530D02*
Y527030D01*
X451378Y519430D02*
X453878D01*
X452628Y518180D02*
Y520680D01*
X462300Y519430D02*
X464800D01*
X463550Y518180D02*
Y520680D01*
X462300Y525780D02*
X464800D01*
X463550Y524530D02*
Y527030D01*
X644672Y507238D02*
X647172D01*
X645922Y505988D02*
Y508488D01*
X504718Y457200D02*
X507218D01*
X505968Y455950D02*
Y458450D01*
X362478Y473456D02*
X364978D01*
X363728Y472206D02*
Y474706D01*
X160294Y531622D02*
X162794D01*
X161544Y530372D02*
Y532872D01*
X526308Y453898D02*
X528808D01*
X527558Y452648D02*
Y455148D01*
X535960Y453898D02*
X538460D01*
X537210Y452648D02*
Y455148D01*
X489051Y488700D02*
X491551D01*
X490301Y487450D02*
Y489950D01*
X502178Y488696D02*
X504678D01*
X503428Y487446D02*
Y489946D01*
X465058Y318480D02*
X467558D01*
X466308Y317230D02*
Y319730D01*
X337332Y581914D02*
X339832D01*
X338582Y580664D02*
Y583164D01*
X236494Y306070D02*
X238994D01*
X237744Y304820D02*
Y307320D01*
X198140Y314452D02*
X200640D01*
X199390Y313202D02*
Y315702D01*
X160294Y305816D02*
X162794D01*
X161544Y304566D02*
Y307066D01*
X343936Y557530D02*
X346436D01*
X345186Y556280D02*
Y558780D01*
X345968Y548894D02*
X348468D01*
X347218Y547644D02*
Y550144D01*
X138704Y633476D02*
X141204D01*
X139954Y632226D02*
Y634726D01*
X105468Y600709D02*
X107968D01*
X106718Y599459D02*
Y601959D01*
X607588Y620522D02*
X610088D01*
X608838Y619272D02*
Y621772D01*
X552750Y622046D02*
X555250D01*
X554000Y620796D02*
Y623296D01*
X554280Y610870D02*
X556780D01*
X555530Y609620D02*
Y612120D01*
X549450Y616204D02*
X551950D01*
X550700Y614954D02*
Y617454D01*
X559070Y605400D02*
X561570D01*
X560320Y604150D02*
Y606650D01*
X559070Y598678D02*
X561570D01*
X560320Y597428D02*
Y599928D01*
X559074Y583438D02*
X561574D01*
X560324Y582188D02*
Y584688D01*
X517672Y579628D02*
X520172D01*
X518922Y578378D02*
Y580878D01*
X524784Y586994D02*
X527284D01*
X526034Y585744D02*
Y588244D01*
X487650Y554482D02*
X490150D01*
X488900Y553232D02*
Y555732D01*
X512590Y605400D02*
X515090D01*
X513840Y604150D02*
Y606650D01*
X499130Y643636D02*
X501630D01*
X500380Y642386D02*
Y644886D01*
X493150Y633984D02*
X495650D01*
X494400Y632734D02*
Y635234D01*
X491002Y593344D02*
X493502D01*
X492252Y592094D02*
Y594594D01*
X504210Y594614D02*
X506710D01*
X505460Y593364D02*
Y595864D01*
X498650Y590040D02*
X501150D01*
X499900Y588790D02*
Y591290D01*
X509650Y590040D02*
X512150D01*
X510900Y588790D02*
Y591290D01*
X485160Y641096D02*
X487660D01*
X486410Y639846D02*
Y642346D01*
X485160Y647700D02*
X487660D01*
X486410Y646450D02*
Y648950D01*
X485160Y654304D02*
X487660D01*
X486410Y653054D02*
Y655554D01*
X446806Y605400D02*
X449306D01*
X448056Y604150D02*
Y606650D01*
X443000Y610870D02*
X445500D01*
X444250Y609620D02*
Y612120D01*
X446810Y616400D02*
X449310D01*
X448060Y615150D02*
Y617650D01*
X446806Y638400D02*
X449306D01*
X448056Y637150D02*
Y639650D01*
X442996Y643890D02*
X445496D01*
X444246Y642640D02*
Y645140D01*
X446806Y649400D02*
X449306D01*
X448056Y648150D02*
Y650650D01*
X497098Y597916D02*
X499598D01*
X498348Y596666D02*
Y599166D01*
X405404Y259100D02*
X407904D01*
X406654Y257850D02*
Y260350D01*
X396514Y259100D02*
X399014D01*
X397764Y257850D02*
Y260350D01*
X387878Y259100D02*
X390378D01*
X389128Y257850D02*
Y260350D01*
X379750Y259100D02*
X382250D01*
X381000Y257850D02*
Y260350D01*
X449600Y287528D02*
X452100D01*
X450850Y286278D02*
Y288778D01*
X774212Y219710D02*
X776712D01*
X775462Y218460D02*
Y220960D01*
X797326Y221488D02*
X799826D01*
X798576Y220238D02*
Y222738D01*
X824250Y186690D02*
X826750D01*
X825500Y185440D02*
Y187940D01*
X676422Y146812D02*
X678922D01*
X677672Y145562D02*
Y148062D01*
X676422Y156718D02*
X678922D01*
X677672Y155468D02*
Y157968D01*
X665754Y191516D02*
X668254D01*
X667004Y190266D02*
Y192766D01*
X643402Y216408D02*
X645902D01*
X644652Y215158D02*
Y217658D01*
X612922Y150622D02*
X615422D01*
X614172Y149372D02*
Y151872D01*
X603520Y145800D02*
X606020D01*
X604770Y144550D02*
Y147050D01*
X585490Y145800D02*
X587990D01*
X586740Y144550D02*
Y147050D01*
X566720Y145796D02*
X569220D01*
X567970Y144546D02*
Y147046D01*
X532912Y163068D02*
X535412D01*
X534162Y161818D02*
Y164318D01*
X519196Y162052D02*
X521696D01*
X520446Y160802D02*
Y163302D01*
X531388Y149860D02*
X533888D01*
X532638Y148610D02*
Y151110D01*
X542056Y143764D02*
X544556D01*
X543306Y142514D02*
Y145014D01*
X541040Y132080D02*
X543540D01*
X542290Y130830D02*
Y133330D01*
X497606Y142240D02*
X500106D01*
X498856Y140990D02*
Y143490D01*
X476270Y137922D02*
X478770D01*
X477520Y136672D02*
Y139172D01*
X480334Y155194D02*
X482834D01*
X481584Y153944D02*
Y156444D01*
X462554Y181864D02*
X465054D01*
X463804Y180614D02*
Y183114D01*
X572028Y334772D02*
X574528D01*
X573278Y333522D02*
Y336022D01*
X518180Y397510D02*
X520680D01*
X519430Y396260D02*
Y398760D01*
X525292Y418084D02*
X527792D01*
X526542Y416834D02*
Y419334D01*
X389910Y400812D02*
X392410D01*
X391160Y399562D02*
Y402062D01*
X389910Y410972D02*
X392410D01*
X391160Y409722D02*
Y412222D01*
X387624Y435610D02*
X390124D01*
X388874Y434360D02*
Y436860D01*
X644910Y473710D02*
X647410D01*
X646160Y472460D02*
Y474960D01*
X687090Y470408D02*
X689590D01*
X688340Y469158D02*
Y471658D01*
X684804Y530606D02*
X687304D01*
X686054Y529356D02*
Y531856D01*
X693948Y465836D02*
X696448D01*
X695198Y464586D02*
Y467086D01*
X840760Y581660D02*
X843260D01*
X842010Y580410D02*
Y582910D01*
X675660Y577850D02*
X678160D01*
X676910Y576600D02*
Y579100D01*
X560598Y682752D02*
X563098D01*
X561848Y681502D02*
Y684002D01*
X597428Y677672D02*
X599928D01*
X598678Y676422D02*
Y678922D01*
X567202Y677926D02*
X569702D01*
X568452Y676676D02*
Y679176D01*
X432328Y674878D02*
X434828D01*
X433578Y673628D02*
Y676128D01*
X557042Y692404D02*
X559542D01*
X558292Y691154D02*
Y693654D01*
X440456Y683768D02*
X442956D01*
X441706Y682518D02*
Y685018D01*
X399816Y675894D02*
X402316D01*
X401066Y674644D02*
Y677144D01*
X399562Y645160D02*
X402062D01*
X400812Y643910D02*
Y646410D01*
X366288Y653542D02*
X368788D01*
X367538Y652292D02*
Y654792D01*
X322600Y667258D02*
X325100D01*
X323850Y666008D02*
Y668508D01*
X379242Y667512D02*
X381742D01*
X380492Y666262D02*
Y668762D01*
X136672Y659638D02*
X139172D01*
X137922Y658388D02*
Y660888D01*
X98318Y659384D02*
X100818D01*
X99568Y658134D02*
Y660634D01*
X96794Y642366D02*
X99294D01*
X98044Y641116D02*
Y643616D01*
X138958Y642366D02*
X141458D01*
X140208Y641116D02*
Y643616D01*
X312694Y531114D02*
X315194D01*
X313944Y529864D02*
Y532364D01*
X312948Y467614D02*
X315448D01*
X314198Y466364D02*
Y468864D01*
X302534Y467106D02*
X305034D01*
X303784Y465856D02*
Y468356D01*
X330220Y410210D02*
X332720D01*
X331470Y408960D02*
Y411460D01*
X330728Y384302D02*
X333228D01*
X331978Y383052D02*
Y385552D01*
X330474Y371856D02*
X332974D01*
X331724Y370606D02*
Y373106D01*
X315488Y306832D02*
X317988D01*
X316738Y305582D02*
Y308082D01*
X312694Y240030D02*
X315194D01*
X313944Y238780D02*
Y241280D01*
X391434Y184658D02*
X393934D01*
X392684Y183408D02*
Y185908D01*
X430550Y231394D02*
X433050D01*
X431800Y230144D02*
Y232644D01*
X492780Y205740D02*
X495280D01*
X494030Y204490D02*
Y206990D01*
X515894Y205994D02*
X518394D01*
X517144Y204744D02*
Y207244D01*
X548914Y210820D02*
X551414D01*
X550164Y209570D02*
Y212070D01*
X548914Y185674D02*
X551414D01*
X550164Y184424D02*
Y186924D01*
X623336Y194818D02*
X625836D01*
X624586Y193568D02*
Y196068D01*
X636290Y224790D02*
X638790D01*
X637540Y223540D02*
Y226040D01*
X684804Y302260D02*
X687304D01*
X686054Y301010D02*
Y303510D01*
X799612Y149352D02*
X802112D01*
X800862Y148102D02*
Y150602D01*
X835680Y142494D02*
X838180D01*
X836930Y141244D02*
Y143744D01*
X816376Y119634D02*
X818876D01*
X817626Y118384D02*
Y120884D01*
X890290Y68072D02*
X892790D01*
X891540Y66822D02*
Y69322D01*
X888512Y48768D02*
X891012D01*
X889762Y47518D02*
Y50018D01*
X885210Y38100D02*
X887710D01*
X886460Y36850D02*
Y39350D01*
X822218Y37846D02*
X824718D01*
X823468Y36596D02*
Y39096D01*
X822472Y79756D02*
X824972D01*
X823722Y78506D02*
Y81006D01*
X681248Y135636D02*
X683748D01*
X682498Y134386D02*
Y136886D01*
X662960Y131826D02*
X665460D01*
X664210Y130576D02*
Y133076D01*
X630194Y106934D02*
X632694D01*
X631444Y105684D02*
Y108184D01*
X636036Y101092D02*
X638536D01*
X637286Y99842D02*
Y102342D01*
X583712Y92202D02*
X586212D01*
X584962Y90952D02*
Y93452D01*
X652292Y83566D02*
X654792D01*
X653542Y82316D02*
Y84816D01*
X472714Y68580D02*
X475214D01*
X473964Y67330D02*
Y69830D01*
X472714Y76708D02*
X475214D01*
X473964Y75458D02*
Y77958D01*
X529102Y51308D02*
X531602D01*
X530352Y50058D02*
Y52558D01*
X520974Y50800D02*
X523474D01*
X522224Y49550D02*
Y52050D01*
X455696Y51054D02*
X458196D01*
X456946Y49804D02*
Y52304D01*
X462808Y50800D02*
X465308D01*
X464058Y49550D02*
Y52050D01*
X414040Y84074D02*
X416540D01*
X415290Y82824D02*
Y85324D01*
X436900Y94234D02*
X439400D01*
X438150Y92984D02*
Y95484D01*
X436900Y85598D02*
X439400D01*
X438150Y84348D02*
Y86848D01*
X409468Y142748D02*
X411968D01*
X410718Y141498D02*
Y143998D01*
X397530Y125222D02*
X400030D01*
X398780Y123972D02*
Y126472D01*
X362986Y132080D02*
X365486D01*
X364236Y130830D02*
Y133330D01*
X363240Y101092D02*
X365740D01*
X364490Y99842D02*
Y102342D01*
X336570Y88392D02*
X339070D01*
X337820Y87142D02*
Y89642D01*
X342412Y83566D02*
X344912D01*
X343662Y82316D02*
Y84816D01*
X542310Y683006D02*
X544810D01*
X543560Y681756D02*
Y684256D01*
X484906Y597916D02*
X487406D01*
X486156Y596666D02*
Y599166D01*
X441497Y537489D02*
X443997D01*
X442747Y536239D02*
Y538739D01*
X441497Y545871D02*
X443997D01*
X442747Y544621D02*
Y547121D01*
X451886Y554736D02*
X454386D01*
X453136Y553486D02*
Y555986D01*
X667557Y218465D02*
X670057D01*
X668807Y217215D02*
Y219715D01*
X667557Y203732D02*
X670057D01*
X668807Y202482D02*
Y204982D01*
X758464Y171958D02*
X760964D01*
X759714Y170708D02*
Y173208D01*
X751352Y171958D02*
X753852D01*
X752602Y170708D02*
Y173208D01*
X724428Y169418D02*
X726928D01*
X725678Y168168D02*
Y170668D01*
X715792Y169418D02*
X718292D01*
X717042Y168168D02*
Y170668D01*
X671596Y69342D02*
X674096D01*
X672846Y68092D02*
Y70592D01*
X671850Y77724D02*
X674350D01*
X673100Y76474D02*
Y78974D01*
X667278Y101854D02*
X669778D01*
X668528Y100604D02*
Y103104D01*
X661436Y101600D02*
X663936D01*
X662686Y100350D02*
Y102850D01*
X885210Y144180D02*
X887710D01*
X886460Y142930D02*
Y145430D01*
X891670Y144183D02*
X894170D01*
X892920Y142933D02*
Y145433D01*
X436167Y509299D02*
X438667D01*
X437417Y508049D02*
Y510549D01*
X261640Y468630D02*
X264140D01*
X262890Y467380D02*
Y469880D01*
X837458Y113538D02*
X839958D01*
X838708Y112288D02*
Y114788D01*
X527832Y461264D02*
X530332D01*
X529082Y460014D02*
Y462514D01*
X527830Y469646D02*
X530330D01*
X529080Y468396D02*
Y470896D01*
X514994Y405500D02*
X517494D01*
X516244Y404250D02*
Y406750D01*
X505734Y438912D02*
X508234D01*
X506984Y437662D02*
Y440162D01*
X504150Y633980D02*
X506650D01*
X505400Y632730D02*
Y635230D01*
X510842Y488700D02*
X513342D01*
X512092Y487450D02*
Y489950D01*
X287294Y322326D02*
X289794D01*
X288544Y321076D02*
Y323576D01*
X287294Y315976D02*
X289794D01*
X288544Y314726D02*
Y317226D01*
X279928Y467106D02*
X282428D01*
X281178Y465856D02*
Y468356D01*
X568980Y357124D02*
X571480D01*
X570230Y355874D02*
Y358374D01*
X160548Y445008D02*
X163048D01*
X161798Y443758D02*
Y446258D01*
X874542Y18288D02*
X877042D01*
X875792Y17038D02*
Y19538D01*
X616478Y270256D02*
X618978D01*
X617728Y269006D02*
Y271506D01*
X619780Y165608D02*
X622280D01*
X621030Y164358D02*
Y166858D01*
X612668Y172212D02*
X615168D01*
X613918Y170962D02*
Y173462D01*
X575610Y145800D02*
X578110D01*
X576860Y144550D02*
Y147050D01*
X594130Y145800D02*
X596630D01*
X595380Y144550D02*
Y147050D01*
X749574Y219456D02*
X752074D01*
X750824Y218206D02*
Y220706D01*
X722142Y194564D02*
X724642D01*
X723392Y193314D02*
Y195814D01*
X715284Y194818D02*
X717784D01*
X716534Y193568D02*
Y196068D01*
X695980Y197866D02*
X698480D01*
X697230Y196616D02*
Y199116D01*
X534182Y279400D02*
X536682D01*
X535432Y278150D02*
Y280650D01*
X540024Y253238D02*
X542524D01*
X541274Y251988D02*
Y254488D01*
X537992Y176022D02*
X540492D01*
X539242Y174772D02*
Y177272D01*
X533928Y171704D02*
X536428D01*
X535178Y170454D02*
Y172954D01*
X479826Y181864D02*
X482326D01*
X481076Y180614D02*
Y183114D01*
X683280Y52070D02*
X685780D01*
X684530Y50820D02*
Y53320D01*
X688614Y47498D02*
X691114D01*
X689864Y46248D02*
Y48748D01*
X694964Y47498D02*
X697464D01*
X696214Y46248D02*
Y48748D01*
X615970Y108204D02*
X618470D01*
X617220Y106954D02*
Y109454D01*
X375178Y106172D02*
X377678D01*
X376428Y104922D02*
Y107422D01*
X177566Y445008D02*
X180066D01*
X178816Y443758D02*
Y446258D01*
X190266Y414528D02*
X192766D01*
X191516Y413278D02*
Y415778D01*
X215666Y414528D02*
X218166D01*
X216916Y413278D02*
Y415778D01*
X202966Y445008D02*
X205466D01*
X204216Y443758D02*
Y446258D01*
X438170Y185166D02*
X440670D01*
X439420Y183916D02*
Y186416D01*
X412008Y194310D02*
X414508D01*
X413258Y193060D02*
Y195560D01*
X516656Y134112D02*
X519156D01*
X517906Y132862D02*
Y135362D01*
X790722Y192786D02*
X793222D01*
X791972Y191536D02*
Y194036D01*
X784118Y192786D02*
X786618D01*
X785368Y191536D02*
Y194036D01*
X796564Y189992D02*
X799064D01*
X797814Y188742D02*
Y191242D01*
X696996Y102108D02*
X699496D01*
X698246Y100858D02*
Y103358D01*
X646450Y90170D02*
X648950D01*
X647700Y88920D02*
Y91420D01*
X650514Y95504D02*
X653014D01*
X651764Y94254D02*
Y96754D01*
X430096Y148136D02*
X432596D01*
X431346Y146886D02*
Y149386D01*
X428318Y154994D02*
X430818D01*
X429568Y153744D02*
Y156244D01*
X405912Y89916D02*
X408412D01*
X407162Y88666D02*
Y91166D01*
X409976Y95758D02*
X412476D01*
X411226Y94508D02*
Y97008D01*
X350794Y87630D02*
X353294D01*
X352044Y86380D02*
Y88880D01*
X354908Y82950D02*
X357408D01*
X356158Y81700D02*
Y84200D01*
X381274Y84074D02*
X383774D01*
X382524Y82824D02*
Y85324D01*
X622320Y84328D02*
X624820D01*
X623570Y83078D02*
Y85578D01*
X616478Y63754D02*
X618978D01*
X617728Y62504D02*
Y65004D01*
X593618Y91440D02*
X596118D01*
X594868Y90190D02*
Y92690D01*
X593618Y85344D02*
X596118D01*
X594868Y84094D02*
Y86594D01*
X486430Y196850D02*
X488930D01*
X487680Y195600D02*
Y198100D01*
X610382Y270256D02*
X612882D01*
X611632Y269006D02*
Y271506D01*
X587268Y305816D02*
X589768D01*
X588518Y304566D02*
Y307066D01*
X534436Y292354D02*
X536936D01*
X535686Y291104D02*
Y293604D01*
X378226Y234950D02*
X380726D01*
X379476Y233700D02*
Y236200D01*
X386100Y236980D02*
X388600D01*
X387350Y235730D02*
Y238230D01*
X391942Y236982D02*
X394442D01*
X393192Y235732D02*
Y238232D01*
X419882Y262636D02*
X422382D01*
X421132Y261386D02*
Y263886D01*
X412516Y262636D02*
X415016D01*
X413766Y261386D02*
Y263886D01*
X443504Y242570D02*
X446004D01*
X444754Y241320D02*
Y243820D01*
X370368Y259096D02*
X372868D01*
X371618Y257846D02*
Y260346D01*
X364790Y230886D02*
X367290D01*
X366040Y229636D02*
Y232136D01*
X443504Y250698D02*
X446004D01*
X444754Y249448D02*
Y251948D01*
X548692Y201898D02*
X551192D01*
X549942Y200648D02*
Y203148D01*
X605588Y217646D02*
X608088D01*
X606838Y216396D02*
Y218896D01*
X604064Y224758D02*
X606564D01*
X605314Y223508D02*
Y226008D01*
X608940Y134101D02*
X611440D01*
X610190Y132851D02*
Y135351D01*
X633578Y134101D02*
X636078D01*
X634828Y132851D02*
Y135351D01*
X521990Y183388D02*
X524490D01*
X523240Y182138D02*
Y184638D01*
X516910Y188722D02*
X519410D01*
X518160Y187472D02*
Y189972D01*
X112288Y619760D02*
X114788D01*
X113538Y618510D02*
Y621010D01*
X122702Y619760D02*
X125202D01*
X123952Y618510D02*
Y621010D01*
X891814Y575818D02*
X894314D01*
X893064Y574568D02*
Y577068D01*
X891814Y550418D02*
X894314D01*
X893064Y549168D02*
Y551668D01*
X891814Y474218D02*
X894314D01*
X893064Y472968D02*
Y475468D01*
X891560Y398018D02*
X894060D01*
X892810Y396768D02*
Y399268D01*
X51750Y118700D02*
X54250D01*
X53000Y117450D02*
Y119950D01*
X105750Y118700D02*
X108250D01*
X107000Y117450D02*
Y119950D01*
X236494Y468122D02*
X238994D01*
X237744Y466872D02*
Y469372D01*
X134386Y467614D02*
X136886D01*
X135636Y466364D02*
Y468864D01*
X51750Y449072D02*
X54250D01*
X53000Y447822D02*
Y450322D01*
X945410Y601383D02*
X947910D01*
X946660Y600133D02*
Y602633D01*
X945410Y575983D02*
X947910D01*
X946660Y574733D02*
Y577233D01*
X945410Y550583D02*
X947910D01*
X946660Y549333D02*
Y551833D01*
X945410Y525183D02*
X947910D01*
X946660Y523933D02*
Y526433D01*
X945410Y499676D02*
X947910D01*
X946660Y498426D02*
Y500926D01*
X945410Y474383D02*
X947910D01*
X946660Y473133D02*
Y475633D01*
X945410Y448983D02*
X947910D01*
X946660Y447733D02*
Y450233D01*
X945410Y296583D02*
X947910D01*
X946660Y295333D02*
Y297833D01*
X945410Y271183D02*
X947910D01*
X946660Y269933D02*
Y272433D01*
X945410Y245783D02*
X947910D01*
X946660Y244533D02*
Y247033D01*
X945410Y220383D02*
X947910D01*
X946660Y219133D02*
Y221633D01*
X891670Y118783D02*
X894170D01*
X892920Y117533D02*
Y120033D01*
X891670Y169583D02*
X894170D01*
X892920Y168333D02*
Y170833D01*
X891670Y194983D02*
X894170D01*
X892920Y193733D02*
Y196233D01*
X891670Y220383D02*
X894170D01*
X892920Y219133D02*
Y221633D01*
X891670Y245783D02*
X894170D01*
X892920Y244533D02*
Y247033D01*
X891670Y271183D02*
X894170D01*
X892920Y269933D02*
Y272433D01*
X891670Y296583D02*
X894170D01*
X892920Y295333D02*
Y297833D01*
X891670Y321983D02*
X894170D01*
X892920Y320733D02*
Y323233D01*
X891670Y347383D02*
X894170D01*
X892920Y346133D02*
Y348633D01*
X891670Y372783D02*
X894170D01*
X892920Y371533D02*
Y374033D01*
X891670Y424012D02*
X894170D01*
X892920Y422762D02*
Y425262D01*
X891670Y448983D02*
X894170D01*
X892920Y447733D02*
Y450233D01*
X891670Y499783D02*
X894170D01*
X892920Y498533D02*
Y501033D01*
X891670Y525183D02*
X894170D01*
X892920Y523933D02*
Y526433D01*
X891670Y601165D02*
X894170D01*
X892920Y599915D02*
Y602415D01*
X105750Y144017D02*
X108250D01*
X107000Y142767D02*
Y145267D01*
X105750Y169417D02*
X108250D01*
X107000Y168167D02*
Y170667D01*
X105750Y194817D02*
X108250D01*
X107000Y193567D02*
Y196067D01*
X105750Y220217D02*
X108250D01*
X107000Y218967D02*
Y221467D01*
X105750Y245617D02*
X108250D01*
X107000Y244367D02*
Y246867D01*
X105750Y271017D02*
X108250D01*
X107000Y269767D02*
Y272267D01*
X105750Y321817D02*
X108250D01*
X107000Y320567D02*
Y323067D01*
X105750Y347217D02*
X108250D01*
X107000Y345967D02*
Y348467D01*
X105750Y372617D02*
X108250D01*
X107000Y371367D02*
Y373867D01*
X105750Y397876D02*
X108250D01*
X107000Y396626D02*
Y399126D01*
X105750Y423417D02*
X108250D01*
X107000Y422167D02*
Y424667D01*
X105750Y448817D02*
X108250D01*
X107000Y447567D02*
Y450067D01*
X105750Y474217D02*
X108250D01*
X107000Y472967D02*
Y475467D01*
X105750Y499617D02*
X108250D01*
X107000Y498367D02*
Y500867D01*
X105750Y525017D02*
X108250D01*
X107000Y523767D02*
Y526267D01*
X105750Y550417D02*
X108250D01*
X107000Y549167D02*
Y551667D01*
X105750Y575817D02*
X108250D01*
X107000Y574567D02*
Y577067D01*
X51750Y601217D02*
X54250D01*
X53000Y599967D02*
Y602467D01*
X51750Y575817D02*
X54250D01*
X53000Y574567D02*
Y577067D01*
X51750Y550417D02*
X54250D01*
X53000Y549167D02*
Y551667D01*
X51750Y524731D02*
X54250D01*
X53000Y523481D02*
Y525981D01*
X51750Y499617D02*
X54250D01*
X53000Y498367D02*
Y500867D01*
X51750Y474175D02*
X54250D01*
X53000Y472925D02*
Y475425D01*
X51750Y423417D02*
X54250D01*
X53000Y422167D02*
Y424667D01*
X51750Y398017D02*
X54250D01*
X53000Y396767D02*
Y399267D01*
X51750Y372617D02*
X54250D01*
X53000Y371367D02*
Y373867D01*
X51750Y346833D02*
X54250D01*
X53000Y345583D02*
Y348083D01*
X51750Y321817D02*
X54250D01*
X53000Y320567D02*
Y323067D01*
X51750Y296417D02*
X54250D01*
X53000Y295167D02*
Y297667D01*
X51750Y271017D02*
X54250D01*
X53000Y269767D02*
Y272267D01*
X51750Y245617D02*
X54250D01*
X53000Y244367D02*
Y246867D01*
X51750Y220217D02*
X54250D01*
X53000Y218967D02*
Y221467D01*
X51750Y194818D02*
X54250D01*
X53000Y193568D02*
Y196068D01*
X51750Y169417D02*
X54250D01*
X53000Y168167D02*
Y170667D01*
X51750Y144017D02*
X54250D01*
X53000Y142767D02*
Y145267D01*
X512590Y621000D02*
X515090D01*
X513840Y619750D02*
Y622250D01*
X512590Y613000D02*
X515090D01*
X513840Y611750D02*
Y614250D01*
X644909Y461039D02*
X647409D01*
X646159Y459789D02*
Y462289D01*
X669462Y454233D02*
X671962D01*
X670712Y452983D02*
Y455483D01*
X660040Y427928D02*
X662540D01*
X661290Y426678D02*
Y429178D01*
X644910Y448327D02*
X647410D01*
X646160Y447077D02*
Y449577D01*
X660040Y443928D02*
X662540D01*
X661290Y442678D02*
Y445178D01*
X669462Y463377D02*
X671962D01*
X670712Y462127D02*
Y464627D01*
X564903Y253240D02*
X567403D01*
X566153Y251990D02*
Y254490D01*
X534464Y325628D02*
X536964D01*
X535714Y324378D02*
Y326878D01*
X529638Y306832D02*
X532138D01*
X530888Y305582D02*
Y308082D01*
X632254Y519684D02*
X634754D01*
X633504Y518434D02*
Y520934D01*
X632250Y570738D02*
X634750D01*
X633500Y569488D02*
Y571988D01*
X632254Y579000D02*
X634754D01*
X633504Y577750D02*
Y580250D01*
X632254Y595884D02*
X634754D01*
X633504Y594634D02*
Y597134D01*
X589328Y583184D02*
X591828D01*
X590578Y581934D02*
Y584434D01*
X549450Y572400D02*
X551950D01*
X550700Y571150D02*
Y573650D01*
X549450Y583400D02*
X551950D01*
X550700Y582150D02*
Y584650D01*
X549450Y605400D02*
X551950D01*
X550700Y604150D02*
Y606650D01*
X683489Y431594D02*
X685989D01*
X684739Y430344D02*
Y432844D01*
X481351Y461045D02*
X483851D01*
X482601Y459795D02*
Y462295D01*
X481351Y435645D02*
X483851D01*
X482601Y434395D02*
Y436895D01*
X683489Y440484D02*
X685989D01*
X684739Y439234D02*
Y441734D01*
X481351Y448345D02*
X483851D01*
X482601Y447095D02*
Y449595D01*
X362506Y448310D02*
X365006D01*
X363756Y447060D02*
Y449560D01*
X387906Y473710D02*
X390406D01*
X389156Y472460D02*
Y474960D01*
X331010Y359156D02*
X333510D01*
X332260Y357906D02*
Y360406D01*
X255213Y384312D02*
X257713D01*
X256463Y383062D02*
Y385562D01*
X255338Y371358D02*
X257838D01*
X256588Y370108D02*
Y372608D01*
X255150Y397012D02*
X257650D01*
X256400Y395762D02*
Y398262D01*
X255213Y358912D02*
X257713D01*
X256463Y357662D02*
Y360162D01*
X387906Y461010D02*
X390406D01*
X389156Y459760D02*
Y462260D01*
X387906Y448564D02*
X390406D01*
X389156Y447314D02*
Y449814D01*
X398320Y182626D02*
X400820D01*
X399570Y181376D02*
Y183876D01*
X410512Y320802D02*
X413012D01*
X411762Y319552D02*
Y322052D01*
X418963Y283718D02*
X421463D01*
X420213Y282468D02*
Y284968D01*
X402384Y285496D02*
X404884D01*
X403634Y284246D02*
Y286746D01*
X383080Y182118D02*
X385580D01*
X384330Y180868D02*
Y183368D01*
X364790Y196088D02*
X367290D01*
X366040Y194838D02*
Y197338D01*
X364790Y204216D02*
X367290D01*
X366040Y202966D02*
Y205466D01*
X364792Y211836D02*
X367292D01*
X366042Y210586D02*
Y213086D01*
X147368Y306578D02*
X149868D01*
X148618Y305328D02*
Y307828D01*
X198168Y305816D02*
X200668D01*
X199418Y304566D02*
Y307066D01*
X97584Y633730D02*
X100084D01*
X98834Y632480D02*
Y634980D01*
X631646Y620522D02*
X634146D01*
X632896Y619272D02*
Y621772D01*
X366316Y544830D02*
X368816D01*
X367566Y543580D02*
Y546080D01*
X407464Y507238D02*
X409964D01*
X408714Y505988D02*
Y508488D01*
X407464Y544830D02*
X409964D01*
X408714Y543580D02*
Y546080D01*
X407464Y532384D02*
X409964D01*
X408714Y531134D02*
Y533634D01*
M02*
