G04*
G04 #@! TF.GenerationSoftware,Altium Limited,Altium Designer,24.5.2 (23)*
G04*
G04 Layer_Color=32768*
%FSLAX44Y44*%
%MOMM*%
G71*
G04*
G04 #@! TF.SameCoordinates,92D1E149-34EC-4A89-AFD8-A094A270A496*
G04*
G04*
G04 #@! TF.FilePolarity,Positive*
G04*
G01*
G75*
%ADD10C,0.1270*%
%ADD12C,0.2000*%
%ADD14C,0.2540*%
%ADD15C,0.1000*%
%ADD16C,0.1500*%
%ADD21R,4.8260X2.4130*%
%ADD22C,1.0000*%
%ADD190C,0.0508*%
%ADD215C,0.0500*%
%ADD216C,0.0500*%
%ADD217C,0.0050*%
%ADD218C,0.0100*%
%ADD219C,0.0300*%
%ADD220C,0.0635*%
G36*
X931375Y-543270D02*
X935910D01*
Y-543724D01*
X938632D01*
Y-544178D01*
X940899D01*
Y-544631D01*
X942713D01*
Y-545085D01*
X944528D01*
Y-545538D01*
X945888D01*
Y-545992D01*
X947249D01*
Y-546445D01*
X948610D01*
Y-546899D01*
X949517D01*
Y-547352D01*
X950878D01*
Y-547806D01*
X951785D01*
Y-548260D01*
X952692D01*
Y-548713D01*
X953599D01*
Y-549167D01*
X954506D01*
Y-549620D01*
X955413D01*
Y-550074D01*
X955867D01*
Y-550527D01*
X956774D01*
Y-550981D01*
X957681D01*
Y-551435D01*
X958135D01*
Y-551888D01*
X959042D01*
Y-552342D01*
X959495D01*
Y-552795D01*
X960402D01*
Y-553249D01*
X960856D01*
Y-553702D01*
X961309D01*
Y-554156D01*
X962216D01*
Y-554609D01*
X962670D01*
Y-555063D01*
X963123D01*
Y-555517D01*
X963577D01*
Y-555970D01*
X964484D01*
Y-556424D01*
X964938D01*
Y-556877D01*
X965391D01*
Y-557331D01*
X965845D01*
Y-557784D01*
X966298D01*
Y-558238D01*
X966752D01*
Y-558691D01*
X967206D01*
Y-559145D01*
X967659D01*
Y-559599D01*
X968113D01*
Y-560052D01*
X968566D01*
Y-560506D01*
X969020D01*
Y-560959D01*
X969473D01*
Y-561413D01*
Y-561866D01*
X969927D01*
Y-562320D01*
X970380D01*
Y-562773D01*
X970834D01*
Y-563227D01*
X971288D01*
Y-563680D01*
Y-564134D01*
X971741D01*
Y-564588D01*
X972195D01*
Y-565041D01*
X972648D01*
Y-565495D01*
Y-565948D01*
X973102D01*
Y-566402D01*
X973555D01*
Y-566855D01*
Y-567309D01*
X974009D01*
Y-567762D01*
X974463D01*
Y-568216D01*
Y-568670D01*
X974916D01*
Y-569123D01*
X975370D01*
Y-569577D01*
Y-570030D01*
X975823D01*
Y-570484D01*
Y-570937D01*
X976277D01*
Y-571391D01*
Y-571844D01*
X976730D01*
Y-572298D01*
Y-572752D01*
X977184D01*
Y-573205D01*
Y-573659D01*
X977637D01*
Y-574112D01*
Y-574566D01*
X978091D01*
Y-575019D01*
Y-575473D01*
X978544D01*
Y-575927D01*
Y-576380D01*
Y-576834D01*
X978998D01*
Y-577287D01*
Y-577741D01*
X979452D01*
Y-578194D01*
Y-578648D01*
Y-579101D01*
X979905D01*
Y-579555D01*
Y-580009D01*
Y-580462D01*
X980359D01*
Y-580916D01*
Y-581369D01*
Y-581823D01*
Y-582276D01*
X980812D01*
Y-582730D01*
Y-583183D01*
Y-583637D01*
Y-584090D01*
X981266D01*
Y-584544D01*
Y-584998D01*
Y-585451D01*
Y-585905D01*
X981719D01*
Y-586358D01*
Y-586812D01*
Y-587265D01*
Y-587719D01*
Y-588172D01*
Y-588626D01*
Y-589080D01*
X982173D01*
Y-589533D01*
Y-589987D01*
Y-590440D01*
Y-590894D01*
Y-591347D01*
Y-591801D01*
Y-592254D01*
Y-592708D01*
Y-593162D01*
Y-593615D01*
Y-594069D01*
X982626D01*
Y-594522D01*
Y-594976D01*
Y-595429D01*
Y-595883D01*
Y-596337D01*
Y-596790D01*
Y-597244D01*
Y-597697D01*
Y-598151D01*
Y-598604D01*
X982173D01*
Y-599058D01*
Y-599511D01*
Y-599965D01*
Y-600419D01*
Y-600872D01*
Y-601326D01*
Y-601779D01*
Y-602233D01*
Y-602686D01*
Y-603140D01*
Y-603593D01*
X981719D01*
Y-604047D01*
Y-604501D01*
Y-604954D01*
Y-605408D01*
Y-605861D01*
Y-606315D01*
X981266D01*
Y-606768D01*
Y-607222D01*
Y-607675D01*
Y-608129D01*
Y-608583D01*
X980812D01*
Y-609036D01*
Y-609490D01*
Y-609943D01*
Y-610397D01*
X980359D01*
Y-610850D01*
Y-611304D01*
Y-611758D01*
Y-612211D01*
X979905D01*
Y-612665D01*
Y-613118D01*
Y-613572D01*
X979452D01*
Y-614025D01*
Y-614479D01*
X978998D01*
Y-614932D01*
Y-615386D01*
Y-615839D01*
X978544D01*
Y-616293D01*
Y-616747D01*
X978091D01*
Y-617200D01*
Y-617654D01*
Y-618107D01*
X977637D01*
Y-618561D01*
Y-619014D01*
X977184D01*
Y-619468D01*
Y-619921D01*
X976730D01*
Y-620375D01*
Y-620829D01*
X976277D01*
Y-621282D01*
Y-621736D01*
X975823D01*
Y-621282D01*
Y-620829D01*
Y-620375D01*
Y-619921D01*
Y-619468D01*
Y-619014D01*
Y-618561D01*
Y-618107D01*
Y-617654D01*
Y-617200D01*
Y-616747D01*
Y-616293D01*
Y-615839D01*
Y-615386D01*
Y-614932D01*
Y-614479D01*
Y-614025D01*
Y-613572D01*
Y-613118D01*
Y-612665D01*
Y-612211D01*
Y-611758D01*
Y-611304D01*
Y-610850D01*
Y-610397D01*
Y-609943D01*
Y-609490D01*
Y-609036D01*
Y-608583D01*
Y-608129D01*
Y-607675D01*
Y-607222D01*
Y-606768D01*
Y-606315D01*
Y-605861D01*
Y-605408D01*
Y-604954D01*
Y-604501D01*
Y-604047D01*
Y-603593D01*
Y-603140D01*
Y-602686D01*
Y-602233D01*
Y-601779D01*
Y-601326D01*
Y-600872D01*
Y-600419D01*
Y-599965D01*
Y-599511D01*
Y-599058D01*
Y-598604D01*
Y-598151D01*
Y-597697D01*
Y-597244D01*
Y-596790D01*
Y-596337D01*
Y-595883D01*
Y-595429D01*
Y-594976D01*
Y-594522D01*
Y-594069D01*
Y-593615D01*
Y-593162D01*
Y-592708D01*
Y-592254D01*
Y-591801D01*
Y-591347D01*
Y-590894D01*
Y-590440D01*
Y-589987D01*
Y-589533D01*
Y-589080D01*
Y-588626D01*
Y-588172D01*
Y-587719D01*
Y-587265D01*
X963123D01*
Y-587719D01*
Y-588172D01*
Y-588626D01*
Y-589080D01*
Y-589533D01*
Y-589987D01*
Y-590440D01*
Y-590894D01*
Y-591347D01*
Y-591801D01*
Y-592254D01*
Y-592708D01*
Y-593162D01*
Y-593615D01*
Y-594069D01*
Y-594522D01*
Y-594976D01*
Y-595429D01*
Y-595883D01*
Y-596337D01*
Y-596790D01*
Y-597244D01*
Y-597697D01*
Y-598151D01*
Y-598604D01*
Y-599058D01*
Y-599511D01*
Y-599965D01*
Y-600419D01*
Y-600872D01*
Y-601326D01*
Y-601779D01*
Y-602233D01*
Y-602686D01*
Y-603140D01*
Y-603593D01*
Y-604047D01*
Y-604501D01*
Y-604954D01*
Y-605408D01*
Y-605861D01*
Y-606315D01*
Y-606768D01*
Y-607222D01*
Y-607675D01*
Y-608129D01*
Y-608583D01*
Y-609036D01*
Y-609490D01*
Y-609943D01*
Y-610397D01*
Y-610850D01*
Y-611304D01*
Y-611758D01*
Y-612211D01*
Y-612665D01*
Y-613118D01*
Y-613572D01*
Y-614025D01*
Y-614479D01*
Y-614932D01*
X962670D01*
Y-615386D01*
Y-615839D01*
Y-616293D01*
Y-616747D01*
X962216D01*
Y-617200D01*
Y-617654D01*
X961763D01*
Y-618107D01*
Y-618561D01*
X961309D01*
Y-619014D01*
X960856D01*
Y-619468D01*
X960402D01*
Y-619921D01*
X959949D01*
Y-620375D01*
X959495D01*
Y-620829D01*
X958588D01*
Y-621282D01*
X957227D01*
Y-621736D01*
X950878D01*
Y-621282D01*
X949517D01*
Y-620829D01*
X948610D01*
Y-620375D01*
X948156D01*
Y-619921D01*
X947703D01*
Y-619468D01*
X947249D01*
Y-619014D01*
Y-618561D01*
X946796D01*
Y-618107D01*
Y-617654D01*
X946342D01*
Y-617200D01*
Y-616747D01*
Y-616293D01*
Y-615839D01*
X945888D01*
Y-615386D01*
Y-614932D01*
Y-614479D01*
Y-614025D01*
Y-613572D01*
Y-613118D01*
Y-612665D01*
Y-612211D01*
Y-611758D01*
Y-611304D01*
Y-610850D01*
Y-610397D01*
Y-609943D01*
Y-609490D01*
Y-609036D01*
Y-608583D01*
Y-608129D01*
Y-607675D01*
Y-607222D01*
Y-606768D01*
Y-606315D01*
Y-605861D01*
Y-605408D01*
Y-604954D01*
Y-604501D01*
Y-604047D01*
Y-603593D01*
Y-603140D01*
Y-602686D01*
Y-602233D01*
Y-601779D01*
Y-601326D01*
Y-600872D01*
Y-600419D01*
Y-599965D01*
Y-599511D01*
Y-599058D01*
Y-598604D01*
Y-598151D01*
Y-597697D01*
Y-597244D01*
Y-596790D01*
Y-596337D01*
Y-595883D01*
Y-595429D01*
Y-594976D01*
Y-594522D01*
Y-594069D01*
Y-593615D01*
Y-593162D01*
Y-592708D01*
Y-592254D01*
Y-591801D01*
Y-591347D01*
Y-590894D01*
Y-590440D01*
Y-589987D01*
Y-589533D01*
Y-589080D01*
Y-588626D01*
Y-588172D01*
Y-587719D01*
Y-587265D01*
X933189D01*
Y-587719D01*
Y-588172D01*
Y-588626D01*
Y-589080D01*
Y-589533D01*
Y-589987D01*
Y-590440D01*
Y-590894D01*
Y-591347D01*
Y-591801D01*
Y-592254D01*
Y-592708D01*
Y-593162D01*
Y-593615D01*
Y-594069D01*
Y-594522D01*
Y-594976D01*
Y-595429D01*
Y-595883D01*
Y-596337D01*
Y-596790D01*
Y-597244D01*
Y-597697D01*
Y-598151D01*
Y-598604D01*
Y-599058D01*
Y-599511D01*
Y-599965D01*
Y-600419D01*
Y-600872D01*
Y-601326D01*
Y-601779D01*
Y-602233D01*
Y-602686D01*
Y-603140D01*
Y-603593D01*
Y-604047D01*
Y-604501D01*
Y-604954D01*
Y-605408D01*
Y-605861D01*
Y-606315D01*
Y-606768D01*
Y-607222D01*
Y-607675D01*
Y-608129D01*
Y-608583D01*
Y-609036D01*
Y-609490D01*
Y-609943D01*
Y-610397D01*
Y-610850D01*
Y-611304D01*
Y-611758D01*
Y-612211D01*
Y-612665D01*
Y-613118D01*
Y-613572D01*
Y-614025D01*
Y-614479D01*
Y-614932D01*
Y-615386D01*
Y-615839D01*
Y-616293D01*
Y-616747D01*
Y-617200D01*
Y-617654D01*
Y-618107D01*
Y-618561D01*
Y-619014D01*
Y-619468D01*
Y-619921D01*
Y-620375D01*
X933642D01*
Y-620829D01*
Y-621282D01*
Y-621736D01*
Y-622189D01*
X934096D01*
Y-622643D01*
Y-623096D01*
Y-623550D01*
X934549D01*
Y-624003D01*
Y-624457D01*
Y-624911D01*
X935003D01*
Y-625364D01*
Y-625818D01*
X935457D01*
Y-626271D01*
X935910D01*
Y-626725D01*
Y-627178D01*
X936364D01*
Y-627632D01*
X936817D01*
Y-628086D01*
X937271D01*
Y-628539D01*
X937724D01*
Y-628993D01*
X938178D01*
Y-629446D01*
X938632D01*
Y-629900D01*
X939539D01*
Y-630353D01*
X939992D01*
Y-630807D01*
X940899D01*
Y-631260D01*
X941806D01*
Y-631714D01*
X942713D01*
Y-632168D01*
X944074D01*
Y-632621D01*
X945888D01*
Y-633075D01*
X954960D01*
Y-632621D01*
X956774D01*
Y-632168D01*
X957681D01*
Y-631714D01*
X959042D01*
Y-631260D01*
X959495D01*
Y-630807D01*
X960402D01*
Y-630353D01*
X960856D01*
Y-629900D01*
X961309D01*
Y-629446D01*
X962216D01*
Y-628993D01*
X962670D01*
Y-628539D01*
X963123D01*
Y-628086D01*
Y-627632D01*
X963577D01*
Y-628086D01*
Y-628539D01*
Y-628993D01*
Y-629446D01*
Y-629900D01*
Y-630353D01*
Y-630807D01*
Y-631260D01*
Y-631714D01*
Y-632168D01*
X968566D01*
Y-632621D01*
X968113D01*
Y-633075D01*
X967659D01*
Y-633528D01*
X967206D01*
Y-633982D01*
X966752D01*
Y-634435D01*
X966298D01*
Y-634889D01*
X965845D01*
Y-635342D01*
X965391D01*
Y-635796D01*
X964938D01*
Y-636250D01*
X964031D01*
Y-636703D01*
X963577D01*
Y-637157D01*
X963123D01*
Y-637610D01*
X962670D01*
Y-638064D01*
X961763D01*
Y-638517D01*
X961309D01*
Y-638971D01*
X960856D01*
Y-639424D01*
X959949D01*
Y-639878D01*
X959495D01*
Y-640331D01*
X958588D01*
Y-640785D01*
X958135D01*
Y-641239D01*
X957227D01*
Y-641692D01*
X956774D01*
Y-642146D01*
X955867D01*
Y-642599D01*
X954960D01*
Y-643053D01*
X954052D01*
Y-643506D01*
X953599D01*
Y-643960D01*
X952692D01*
Y-644414D01*
X951331D01*
Y-644867D01*
X950424D01*
Y-645321D01*
X949517D01*
Y-645774D01*
X948156D01*
Y-646228D01*
X947249D01*
Y-646681D01*
X945888D01*
Y-647135D01*
X944074D01*
Y-647588D01*
X942713D01*
Y-648042D01*
X940899D01*
Y-648495D01*
X938178D01*
Y-648949D01*
X935003D01*
Y-649403D01*
X923211D01*
Y-648949D01*
X920036D01*
Y-648495D01*
X917768D01*
Y-648042D01*
X915954D01*
Y-647588D01*
X914139D01*
Y-647135D01*
X912779D01*
Y-646681D01*
X911418D01*
Y-646228D01*
X910058D01*
Y-645774D01*
X909150D01*
Y-645321D01*
X907790D01*
Y-644867D01*
X906883D01*
Y-644414D01*
X905975D01*
Y-643960D01*
X905068D01*
Y-643506D01*
X904161D01*
Y-643053D01*
X903254D01*
Y-642599D01*
X902347D01*
Y-642146D01*
X901893D01*
Y-641692D01*
X900986D01*
Y-641239D01*
X900079D01*
Y-640785D01*
X899626D01*
Y-640331D01*
X898719D01*
Y-639878D01*
X898265D01*
Y-639424D01*
X897812D01*
Y-638971D01*
X896904D01*
Y-638517D01*
X896451D01*
Y-638064D01*
X895997D01*
Y-637610D01*
X895090D01*
Y-637157D01*
X894637D01*
Y-636703D01*
X894183D01*
Y-636250D01*
X893729D01*
Y-635796D01*
X893276D01*
Y-635342D01*
X892822D01*
Y-634889D01*
X892369D01*
Y-634435D01*
X891915D01*
Y-633982D01*
X891462D01*
Y-633528D01*
X891008D01*
Y-633075D01*
X890555D01*
Y-632621D01*
X890101D01*
Y-632168D01*
X889648D01*
Y-631714D01*
X889194D01*
Y-631260D01*
X888740D01*
Y-630807D01*
X888287D01*
Y-630353D01*
X887833D01*
Y-629900D01*
Y-629446D01*
X887380D01*
Y-628993D01*
X886926D01*
Y-628539D01*
X886473D01*
Y-628086D01*
X886019D01*
Y-627632D01*
Y-627178D01*
X885565D01*
Y-626725D01*
X885112D01*
Y-626271D01*
Y-625818D01*
X884658D01*
Y-625364D01*
X884205D01*
Y-624911D01*
Y-624457D01*
X883751D01*
Y-624003D01*
X883298D01*
Y-623550D01*
Y-623096D01*
X882844D01*
Y-622643D01*
Y-622189D01*
X882391D01*
Y-621736D01*
Y-621282D01*
X881937D01*
Y-620829D01*
Y-620375D01*
X881484D01*
Y-619921D01*
Y-619468D01*
X881030D01*
Y-619014D01*
Y-618561D01*
X880576D01*
Y-618107D01*
Y-617654D01*
X880123D01*
Y-617200D01*
Y-616747D01*
X879669D01*
Y-616293D01*
Y-615839D01*
Y-615386D01*
X879216D01*
Y-614932D01*
Y-614479D01*
Y-614025D01*
X878762D01*
Y-613572D01*
Y-613118D01*
X878309D01*
Y-612665D01*
Y-612211D01*
Y-611758D01*
Y-611304D01*
X877855D01*
Y-610850D01*
Y-610397D01*
Y-609943D01*
X877402D01*
Y-609490D01*
Y-609036D01*
Y-608583D01*
Y-608129D01*
X876948D01*
Y-607675D01*
Y-607222D01*
Y-606768D01*
Y-606315D01*
Y-605861D01*
X876494D01*
Y-605408D01*
Y-604954D01*
Y-604501D01*
Y-604047D01*
Y-603593D01*
Y-603140D01*
Y-602686D01*
X876041D01*
Y-602233D01*
Y-601779D01*
Y-601326D01*
Y-600872D01*
Y-600419D01*
Y-599965D01*
Y-599511D01*
Y-599058D01*
Y-598604D01*
Y-598151D01*
X875587D01*
Y-597697D01*
Y-597244D01*
Y-596790D01*
Y-596337D01*
Y-595883D01*
Y-595429D01*
Y-594976D01*
Y-594522D01*
Y-594069D01*
X876041D01*
Y-593615D01*
Y-593162D01*
Y-592708D01*
Y-592254D01*
Y-591801D01*
Y-591347D01*
Y-590894D01*
Y-590440D01*
Y-589987D01*
X876494D01*
Y-589533D01*
Y-589080D01*
Y-588626D01*
Y-588172D01*
Y-587719D01*
Y-587265D01*
Y-586812D01*
X876948D01*
Y-586358D01*
Y-585905D01*
Y-585451D01*
Y-584998D01*
Y-584544D01*
X877402D01*
Y-584090D01*
Y-583637D01*
Y-583183D01*
Y-582730D01*
X877855D01*
Y-582276D01*
Y-581823D01*
Y-581369D01*
Y-580916D01*
X878309D01*
Y-580462D01*
Y-580009D01*
Y-579555D01*
X878762D01*
Y-579101D01*
Y-578648D01*
Y-578194D01*
X879216D01*
Y-577741D01*
Y-577287D01*
X879669D01*
Y-576834D01*
Y-576380D01*
Y-575927D01*
X880123D01*
Y-575473D01*
Y-575019D01*
X880576D01*
Y-574566D01*
Y-574112D01*
Y-573659D01*
X881030D01*
Y-573205D01*
Y-572752D01*
X881484D01*
Y-572298D01*
Y-571844D01*
X881937D01*
Y-571391D01*
Y-570937D01*
X882391D01*
Y-570484D01*
X882844D01*
Y-570030D01*
Y-569577D01*
X883298D01*
Y-569123D01*
Y-568670D01*
X883751D01*
Y-568216D01*
X884205D01*
Y-567762D01*
Y-567309D01*
X884658D01*
Y-566855D01*
X885112D01*
Y-566402D01*
Y-565948D01*
X885565D01*
Y-565495D01*
X886019D01*
Y-565041D01*
Y-564588D01*
X886473D01*
Y-564134D01*
X886926D01*
Y-563680D01*
X887380D01*
Y-563227D01*
Y-562773D01*
X887833D01*
Y-562320D01*
X888287D01*
Y-561866D01*
X888740D01*
Y-561413D01*
X889194D01*
Y-560959D01*
X889648D01*
Y-560506D01*
X890101D01*
Y-560052D01*
X890555D01*
Y-559599D01*
Y-559145D01*
X891008D01*
Y-558691D01*
X891462D01*
Y-558238D01*
X891915D01*
Y-557784D01*
X892822D01*
Y-557331D01*
X893276D01*
Y-556877D01*
X893729D01*
Y-556424D01*
X894183D01*
Y-555970D01*
X894637D01*
Y-555517D01*
X895090D01*
Y-555063D01*
X895544D01*
Y-554609D01*
X896451D01*
Y-554156D01*
X896904D01*
Y-553702D01*
X897358D01*
Y-553249D01*
X898265D01*
Y-552795D01*
X898719D01*
Y-552342D01*
X899626D01*
Y-551888D01*
X900079D01*
Y-551435D01*
X900986D01*
Y-550981D01*
X901440D01*
Y-550527D01*
X902347D01*
Y-550074D01*
X903254D01*
Y-549620D01*
X903708D01*
Y-549167D01*
X905068D01*
Y-548713D01*
X905975D01*
Y-548260D01*
X906883D01*
Y-547806D01*
X907790D01*
Y-547352D01*
X908697D01*
Y-546899D01*
X910058D01*
Y-546445D01*
X910965D01*
Y-545992D01*
X912325D01*
Y-545538D01*
X913686D01*
Y-545085D01*
X915500D01*
Y-544631D01*
X917314D01*
Y-544178D01*
X919582D01*
Y-543724D01*
X922757D01*
Y-543270D01*
X927293D01*
Y-542817D01*
X931375D01*
Y-543270D01*
D02*
G37*
G36*
X1001676Y-570484D02*
Y-570937D01*
Y-571391D01*
Y-571844D01*
Y-572298D01*
Y-572752D01*
Y-573205D01*
Y-573659D01*
Y-574112D01*
Y-574566D01*
Y-575019D01*
Y-575473D01*
Y-575927D01*
Y-576380D01*
Y-576834D01*
Y-577287D01*
Y-577741D01*
Y-578194D01*
Y-578648D01*
Y-579101D01*
Y-579555D01*
Y-580009D01*
Y-580462D01*
Y-580916D01*
Y-581369D01*
Y-581823D01*
Y-582276D01*
Y-582730D01*
Y-583183D01*
Y-583637D01*
Y-584090D01*
Y-584544D01*
Y-584998D01*
Y-585451D01*
Y-585905D01*
Y-586358D01*
Y-586812D01*
Y-587265D01*
Y-587719D01*
Y-588172D01*
Y-588626D01*
Y-589080D01*
Y-589533D01*
Y-589987D01*
Y-590440D01*
Y-590894D01*
Y-591347D01*
Y-591801D01*
Y-592254D01*
Y-592708D01*
X1002583D01*
Y-592254D01*
X1003036D01*
Y-591801D01*
X1003490D01*
Y-591347D01*
X1003944D01*
Y-590894D01*
X1004397D01*
Y-590440D01*
X1004851D01*
Y-589987D01*
X1005304D01*
Y-589533D01*
X1006211D01*
Y-589080D01*
X1006665D01*
Y-588626D01*
X1007572D01*
Y-588172D01*
X1008479D01*
Y-587719D01*
X1009840D01*
Y-587265D01*
X1011654D01*
Y-586812D01*
X1020272D01*
Y-587265D01*
X1022086D01*
Y-587719D01*
X1023447D01*
Y-588172D01*
X1024807D01*
Y-588626D01*
X1025714D01*
Y-589080D01*
X1026168D01*
Y-589533D01*
X1027075D01*
Y-589987D01*
X1027529D01*
Y-590440D01*
X1028436D01*
Y-590894D01*
X1028889D01*
Y-591347D01*
X1029343D01*
Y-591801D01*
X1029796D01*
Y-592254D01*
X1030250D01*
Y-592708D01*
X1030703D01*
Y-593162D01*
Y-593615D01*
X1031157D01*
Y-594069D01*
X1031610D01*
Y-594522D01*
X1032064D01*
Y-594976D01*
Y-595429D01*
X1032518D01*
Y-595883D01*
Y-596337D01*
X1032971D01*
Y-596790D01*
Y-597244D01*
X1033425D01*
Y-597697D01*
Y-598151D01*
X1033878D01*
Y-598604D01*
Y-599058D01*
Y-599511D01*
X1034332D01*
Y-599965D01*
Y-600419D01*
Y-600872D01*
Y-601326D01*
X1034785D01*
Y-601779D01*
Y-602233D01*
Y-602686D01*
Y-603140D01*
Y-603593D01*
X1035239D01*
Y-604047D01*
Y-604501D01*
Y-604954D01*
Y-605408D01*
Y-605861D01*
Y-606315D01*
Y-606768D01*
Y-607222D01*
Y-607675D01*
X1035693D01*
Y-608129D01*
X1035239D01*
Y-608583D01*
Y-609036D01*
Y-609490D01*
Y-609943D01*
Y-610397D01*
Y-610850D01*
Y-611304D01*
Y-611758D01*
Y-612211D01*
Y-612665D01*
Y-613118D01*
Y-613572D01*
Y-614025D01*
Y-614479D01*
Y-614932D01*
Y-615386D01*
Y-615839D01*
X1034785D01*
Y-616293D01*
Y-616747D01*
Y-617200D01*
Y-617654D01*
Y-618107D01*
X1034332D01*
Y-618561D01*
Y-619014D01*
Y-619468D01*
X1033878D01*
Y-619921D01*
Y-620375D01*
Y-620829D01*
X1033425D01*
Y-621282D01*
Y-621736D01*
Y-622189D01*
X1032971D01*
Y-622643D01*
Y-623096D01*
X1032518D01*
Y-623550D01*
Y-624003D01*
X1032064D01*
Y-624457D01*
X1031610D01*
Y-624911D01*
Y-625364D01*
X1031157D01*
Y-625818D01*
X1030703D01*
Y-626271D01*
X1030250D01*
Y-626725D01*
X1029796D01*
Y-627178D01*
Y-627632D01*
X1028889D01*
Y-628086D01*
X1028436D01*
Y-628539D01*
X1027982D01*
Y-628993D01*
X1027529D01*
Y-629446D01*
X1026621D01*
Y-629900D01*
X1026168D01*
Y-630353D01*
X1025261D01*
Y-630807D01*
X1024354D01*
Y-631260D01*
X1023447D01*
Y-631714D01*
X1022086D01*
Y-632168D01*
X1019818D01*
Y-632621D01*
X1012108D01*
Y-632168D01*
X1009840D01*
Y-631714D01*
X1008933D01*
Y-631260D01*
X1007572D01*
Y-630807D01*
X1007119D01*
Y-630353D01*
X1006211D01*
Y-629900D01*
X1005758D01*
Y-629446D01*
X1004851D01*
Y-628993D01*
X1004397D01*
Y-628539D01*
X1003944D01*
Y-628086D01*
X1003490D01*
Y-627632D01*
X1003036D01*
Y-627178D01*
X1002583D01*
Y-626725D01*
X1002129D01*
Y-626271D01*
Y-625818D01*
X1001222D01*
Y-626271D01*
Y-626725D01*
Y-627178D01*
Y-627632D01*
Y-628086D01*
Y-628539D01*
Y-628993D01*
Y-629446D01*
Y-629900D01*
Y-630353D01*
Y-630807D01*
Y-631260D01*
Y-631714D01*
X989883D01*
Y-631260D01*
Y-630807D01*
Y-630353D01*
Y-629900D01*
Y-629446D01*
Y-628993D01*
Y-628539D01*
Y-628086D01*
Y-627632D01*
Y-627178D01*
Y-626725D01*
Y-626271D01*
Y-625818D01*
Y-625364D01*
Y-624911D01*
Y-624457D01*
Y-624003D01*
Y-623550D01*
Y-623096D01*
Y-622643D01*
Y-622189D01*
Y-621736D01*
Y-621282D01*
Y-620829D01*
Y-620375D01*
Y-619921D01*
Y-619468D01*
Y-619014D01*
Y-618561D01*
Y-618107D01*
Y-617654D01*
Y-617200D01*
Y-616747D01*
Y-616293D01*
Y-615839D01*
Y-615386D01*
Y-614932D01*
Y-614479D01*
Y-614025D01*
Y-613572D01*
Y-613118D01*
Y-612665D01*
Y-612211D01*
Y-611758D01*
Y-611304D01*
Y-610850D01*
Y-610397D01*
Y-609943D01*
Y-609490D01*
Y-609036D01*
Y-608583D01*
Y-608129D01*
Y-607675D01*
Y-607222D01*
Y-606768D01*
Y-606315D01*
Y-605861D01*
Y-605408D01*
Y-604954D01*
Y-604501D01*
Y-604047D01*
Y-603593D01*
Y-603140D01*
Y-602686D01*
Y-602233D01*
Y-601779D01*
Y-601326D01*
Y-600872D01*
Y-600419D01*
Y-599965D01*
Y-599511D01*
Y-599058D01*
Y-598604D01*
Y-598151D01*
Y-597697D01*
Y-597244D01*
Y-596790D01*
Y-596337D01*
Y-595883D01*
Y-595429D01*
Y-594976D01*
Y-594522D01*
Y-594069D01*
Y-593615D01*
Y-593162D01*
Y-592708D01*
Y-592254D01*
Y-591801D01*
Y-591347D01*
Y-590894D01*
Y-590440D01*
Y-589987D01*
Y-589533D01*
Y-589080D01*
Y-588626D01*
Y-588172D01*
Y-587719D01*
Y-587265D01*
Y-586812D01*
Y-586358D01*
Y-585905D01*
Y-585451D01*
Y-584998D01*
Y-584544D01*
Y-584090D01*
Y-583637D01*
Y-583183D01*
Y-582730D01*
Y-582276D01*
Y-581823D01*
Y-581369D01*
Y-580916D01*
Y-580462D01*
Y-580009D01*
Y-579555D01*
Y-579101D01*
Y-578648D01*
Y-578194D01*
Y-577741D01*
Y-577287D01*
Y-576834D01*
Y-576380D01*
Y-575927D01*
Y-575473D01*
Y-575019D01*
Y-574566D01*
Y-574112D01*
Y-573659D01*
Y-573205D01*
Y-572752D01*
Y-572298D01*
Y-571844D01*
Y-571391D01*
Y-570937D01*
Y-570484D01*
Y-570030D01*
X1001676D01*
Y-570484D01*
D02*
G37*
G36*
X1055195D02*
Y-570937D01*
Y-571391D01*
Y-571844D01*
Y-572298D01*
Y-572752D01*
Y-573205D01*
Y-573659D01*
Y-574112D01*
Y-574566D01*
Y-575019D01*
Y-575473D01*
Y-575927D01*
Y-576380D01*
Y-576834D01*
Y-577287D01*
Y-577741D01*
Y-578194D01*
Y-578648D01*
Y-579101D01*
Y-579555D01*
Y-580009D01*
Y-580462D01*
Y-580916D01*
Y-581369D01*
Y-581823D01*
Y-582276D01*
Y-582730D01*
Y-583183D01*
Y-583637D01*
Y-584090D01*
Y-584544D01*
Y-584998D01*
Y-585451D01*
Y-585905D01*
Y-586358D01*
Y-586812D01*
Y-587265D01*
Y-587719D01*
Y-588172D01*
Y-588626D01*
Y-589080D01*
Y-589533D01*
Y-589987D01*
Y-590440D01*
Y-590894D01*
Y-591347D01*
Y-591801D01*
Y-592254D01*
Y-592708D01*
Y-593162D01*
Y-593615D01*
Y-594069D01*
Y-594522D01*
Y-594976D01*
Y-595429D01*
Y-595883D01*
Y-596337D01*
Y-596790D01*
Y-597244D01*
Y-597697D01*
Y-598151D01*
Y-598604D01*
Y-599058D01*
Y-599511D01*
Y-599965D01*
Y-600419D01*
Y-600872D01*
Y-601326D01*
Y-601779D01*
Y-602233D01*
Y-602686D01*
Y-603140D01*
Y-603593D01*
Y-604047D01*
Y-604501D01*
Y-604954D01*
Y-605408D01*
Y-605861D01*
Y-606315D01*
Y-606768D01*
Y-607222D01*
Y-607675D01*
Y-608129D01*
Y-608583D01*
Y-609036D01*
Y-609490D01*
Y-609943D01*
Y-610397D01*
Y-610850D01*
Y-611304D01*
Y-611758D01*
Y-612211D01*
Y-612665D01*
Y-613118D01*
Y-613572D01*
Y-614025D01*
Y-614479D01*
Y-614932D01*
Y-615386D01*
Y-615839D01*
Y-616293D01*
Y-616747D01*
Y-617200D01*
Y-617654D01*
Y-618107D01*
Y-618561D01*
Y-619014D01*
Y-619468D01*
Y-619921D01*
Y-620375D01*
Y-620829D01*
Y-621282D01*
Y-621736D01*
Y-622189D01*
Y-622643D01*
Y-623096D01*
Y-623550D01*
Y-624003D01*
Y-624457D01*
Y-624911D01*
Y-625364D01*
Y-625818D01*
Y-626271D01*
Y-626725D01*
Y-627178D01*
Y-627632D01*
Y-628086D01*
Y-628539D01*
Y-628993D01*
Y-629446D01*
Y-629900D01*
Y-630353D01*
Y-630807D01*
Y-631260D01*
Y-631714D01*
X1043857D01*
Y-631260D01*
Y-630807D01*
Y-630353D01*
Y-629900D01*
Y-629446D01*
Y-628993D01*
Y-628539D01*
Y-628086D01*
Y-627632D01*
Y-627178D01*
Y-626725D01*
Y-626271D01*
Y-625818D01*
Y-625364D01*
Y-624911D01*
Y-624457D01*
Y-624003D01*
Y-623550D01*
Y-623096D01*
Y-622643D01*
Y-622189D01*
Y-621736D01*
Y-621282D01*
Y-620829D01*
Y-620375D01*
Y-619921D01*
Y-619468D01*
Y-619014D01*
Y-618561D01*
Y-618107D01*
Y-617654D01*
Y-617200D01*
Y-616747D01*
Y-616293D01*
Y-615839D01*
Y-615386D01*
Y-614932D01*
Y-614479D01*
Y-614025D01*
Y-613572D01*
Y-613118D01*
Y-612665D01*
Y-612211D01*
Y-611758D01*
Y-611304D01*
Y-610850D01*
Y-610397D01*
Y-609943D01*
Y-609490D01*
Y-609036D01*
Y-608583D01*
Y-608129D01*
Y-607675D01*
Y-607222D01*
Y-606768D01*
Y-606315D01*
Y-605861D01*
Y-605408D01*
Y-604954D01*
Y-604501D01*
Y-604047D01*
Y-603593D01*
Y-603140D01*
Y-602686D01*
Y-602233D01*
Y-601779D01*
Y-601326D01*
Y-600872D01*
Y-600419D01*
Y-599965D01*
Y-599511D01*
Y-599058D01*
Y-598604D01*
Y-598151D01*
Y-597697D01*
Y-597244D01*
Y-596790D01*
Y-596337D01*
Y-595883D01*
Y-595429D01*
Y-594976D01*
Y-594522D01*
Y-594069D01*
Y-593615D01*
Y-593162D01*
Y-592708D01*
Y-592254D01*
Y-591801D01*
Y-591347D01*
Y-590894D01*
Y-590440D01*
Y-589987D01*
Y-589533D01*
Y-589080D01*
Y-588626D01*
Y-588172D01*
Y-587719D01*
Y-587265D01*
Y-586812D01*
Y-586358D01*
Y-585905D01*
Y-585451D01*
Y-584998D01*
Y-584544D01*
Y-584090D01*
Y-583637D01*
Y-583183D01*
Y-582730D01*
Y-582276D01*
Y-581823D01*
Y-581369D01*
Y-580916D01*
Y-580462D01*
Y-580009D01*
Y-579555D01*
Y-579101D01*
Y-578648D01*
Y-578194D01*
Y-577741D01*
Y-577287D01*
Y-576834D01*
Y-576380D01*
Y-575927D01*
Y-575473D01*
Y-575019D01*
Y-574566D01*
Y-574112D01*
Y-573659D01*
Y-573205D01*
Y-572752D01*
Y-572298D01*
Y-571844D01*
Y-571391D01*
Y-570937D01*
Y-570484D01*
Y-570030D01*
X1055195D01*
Y-570484D01*
D02*
G37*
G36*
X1091480Y-587265D02*
X1093748D01*
Y-587719D01*
X1095108D01*
Y-588172D01*
X1096469D01*
Y-588626D01*
X1097376D01*
Y-589080D01*
X1098283D01*
Y-589533D01*
X1099190D01*
Y-589987D01*
X1100098D01*
Y-590440D01*
X1100551D01*
Y-590894D01*
X1101458D01*
Y-591347D01*
X1101912D01*
Y-591801D01*
X1102365D01*
Y-592254D01*
X1102819D01*
Y-592708D01*
X1103272D01*
Y-593162D01*
X1103726D01*
Y-593615D01*
X1104180D01*
Y-594069D01*
X1104633D01*
Y-594522D01*
X1105087D01*
Y-594976D01*
Y-595429D01*
X1105540D01*
Y-595883D01*
X1105994D01*
Y-596337D01*
Y-596790D01*
X1106447D01*
Y-597244D01*
Y-597697D01*
X1106901D01*
Y-598151D01*
Y-598604D01*
X1107354D01*
Y-599058D01*
Y-599511D01*
X1107808D01*
Y-599965D01*
Y-600419D01*
Y-600872D01*
X1108261D01*
Y-601326D01*
Y-601779D01*
Y-602233D01*
Y-602686D01*
Y-603140D01*
X1108715D01*
Y-603593D01*
Y-604047D01*
Y-604501D01*
Y-604954D01*
Y-605408D01*
Y-605861D01*
Y-606315D01*
X1109169D01*
Y-606768D01*
Y-607222D01*
Y-607675D01*
Y-608129D01*
Y-608583D01*
Y-609036D01*
Y-609490D01*
Y-609943D01*
Y-610397D01*
Y-610850D01*
Y-611304D01*
Y-611758D01*
Y-612211D01*
Y-612665D01*
Y-613118D01*
X1108715D01*
Y-613572D01*
Y-614025D01*
Y-614479D01*
Y-614932D01*
Y-615386D01*
Y-615839D01*
Y-616293D01*
X1108261D01*
Y-616747D01*
Y-617200D01*
Y-617654D01*
Y-618107D01*
X1107808D01*
Y-618561D01*
Y-619014D01*
Y-619468D01*
X1107354D01*
Y-619921D01*
Y-620375D01*
Y-620829D01*
X1106901D01*
Y-621282D01*
Y-621736D01*
X1106447D01*
Y-622189D01*
Y-622643D01*
X1105994D01*
Y-623096D01*
Y-623550D01*
X1105540D01*
Y-624003D01*
X1105087D01*
Y-624457D01*
X1104633D01*
Y-624911D01*
Y-625364D01*
X1104180D01*
Y-625818D01*
X1103726D01*
Y-626271D01*
X1103272D01*
Y-626725D01*
X1102819D01*
Y-627178D01*
X1102365D01*
Y-627632D01*
X1101912D01*
Y-628086D01*
X1101005D01*
Y-628539D01*
X1100551D01*
Y-628993D01*
X1099644D01*
Y-629446D01*
X1099190D01*
Y-629900D01*
X1098283D01*
Y-630353D01*
X1097376D01*
Y-630807D01*
X1096015D01*
Y-631260D01*
X1094655D01*
Y-631714D01*
X1093294D01*
Y-632168D01*
X1091026D01*
Y-632621D01*
X1081502D01*
Y-632168D01*
X1078780D01*
Y-631714D01*
X1076966D01*
Y-631260D01*
X1076059D01*
Y-630807D01*
X1074698D01*
Y-630353D01*
X1073791D01*
Y-629900D01*
X1072884D01*
Y-629446D01*
X1072430D01*
Y-628993D01*
X1071523D01*
Y-628539D01*
X1071070D01*
Y-628086D01*
X1070163D01*
Y-627632D01*
X1069709D01*
Y-627178D01*
X1069256D01*
Y-626725D01*
X1068802D01*
Y-626271D01*
X1068348D01*
Y-625818D01*
X1067895D01*
Y-625364D01*
X1067441D01*
Y-624911D01*
Y-624457D01*
X1066988D01*
Y-624003D01*
X1066534D01*
Y-623550D01*
X1066081D01*
Y-623096D01*
Y-622643D01*
X1065627D01*
Y-622189D01*
Y-621736D01*
X1065174D01*
Y-621282D01*
Y-620829D01*
X1064720D01*
Y-620375D01*
Y-619921D01*
Y-619468D01*
X1064267D01*
Y-619014D01*
Y-618561D01*
Y-618107D01*
X1063813D01*
Y-617654D01*
Y-617200D01*
Y-616747D01*
Y-616293D01*
X1063359D01*
Y-615839D01*
Y-615386D01*
Y-614932D01*
Y-614479D01*
Y-614025D01*
Y-613572D01*
Y-613118D01*
Y-612665D01*
X1062906D01*
Y-612211D01*
Y-611758D01*
Y-611304D01*
Y-610850D01*
Y-610397D01*
Y-609943D01*
Y-609490D01*
Y-609036D01*
Y-608583D01*
Y-608129D01*
Y-607675D01*
Y-607222D01*
Y-606768D01*
X1063359D01*
Y-606315D01*
Y-605861D01*
Y-605408D01*
Y-604954D01*
Y-604501D01*
Y-604047D01*
Y-603593D01*
Y-603140D01*
X1063813D01*
Y-602686D01*
Y-602233D01*
Y-601779D01*
Y-601326D01*
X1064267D01*
Y-600872D01*
Y-600419D01*
Y-599965D01*
X1064720D01*
Y-599511D01*
Y-599058D01*
Y-598604D01*
X1065174D01*
Y-598151D01*
Y-597697D01*
X1065627D01*
Y-597244D01*
Y-596790D01*
X1066081D01*
Y-596337D01*
Y-595883D01*
X1066534D01*
Y-595429D01*
X1066988D01*
Y-594976D01*
Y-594522D01*
X1067441D01*
Y-594069D01*
X1067895D01*
Y-593615D01*
X1068348D01*
Y-593162D01*
X1068802D01*
Y-592708D01*
X1069256D01*
Y-592254D01*
X1069709D01*
Y-591801D01*
X1070163D01*
Y-591347D01*
X1070616D01*
Y-590894D01*
X1071523D01*
Y-590440D01*
X1071977D01*
Y-589987D01*
X1072884D01*
Y-589533D01*
X1073791D01*
Y-589080D01*
X1074698D01*
Y-588626D01*
X1075605D01*
Y-588172D01*
X1076966D01*
Y-587719D01*
X1078327D01*
Y-587265D01*
X1080595D01*
Y-586812D01*
X1091480D01*
Y-587265D01*
D02*
G37*
G36*
X1157245Y-588172D02*
X1156792D01*
Y-588626D01*
Y-589080D01*
X1156338D01*
Y-589533D01*
X1155885D01*
Y-589987D01*
X1155431D01*
Y-590440D01*
Y-590894D01*
X1154978D01*
Y-591347D01*
X1154524D01*
Y-591801D01*
Y-592254D01*
X1154071D01*
Y-592708D01*
X1153617D01*
Y-593162D01*
X1153164D01*
Y-593615D01*
Y-594069D01*
X1152710D01*
Y-594522D01*
X1152256D01*
Y-594976D01*
X1151803D01*
Y-595429D01*
Y-595883D01*
X1151349D01*
Y-596337D01*
X1150896D01*
Y-596790D01*
X1150442D01*
Y-597244D01*
Y-597697D01*
X1149989D01*
Y-598151D01*
X1149535D01*
Y-598604D01*
Y-599058D01*
X1149081D01*
Y-599511D01*
X1148628D01*
Y-599965D01*
X1148174D01*
Y-600419D01*
Y-600872D01*
X1147721D01*
Y-601326D01*
X1147267D01*
Y-601779D01*
X1146814D01*
Y-602233D01*
Y-602686D01*
X1146360D01*
Y-603140D01*
X1145907D01*
Y-603593D01*
Y-604047D01*
X1145453D01*
Y-604501D01*
X1144999D01*
Y-604954D01*
X1144546D01*
Y-605408D01*
Y-605861D01*
X1144092D01*
Y-606315D01*
X1143639D01*
Y-606768D01*
X1143185D01*
Y-607222D01*
Y-607675D01*
X1142732D01*
Y-608129D01*
X1142278D01*
Y-608583D01*
X1141825D01*
Y-609036D01*
Y-609490D01*
Y-609943D01*
X1142278D01*
Y-610397D01*
Y-610850D01*
X1142732D01*
Y-611304D01*
X1143185D01*
Y-611758D01*
X1143639D01*
Y-612211D01*
Y-612665D01*
X1144092D01*
Y-613118D01*
X1144546D01*
Y-613572D01*
X1144999D01*
Y-614025D01*
Y-614479D01*
X1145453D01*
Y-614932D01*
X1145907D01*
Y-615386D01*
Y-615839D01*
X1146360D01*
Y-616293D01*
X1146814D01*
Y-616747D01*
X1147267D01*
Y-617200D01*
Y-617654D01*
X1147721D01*
Y-618107D01*
X1148174D01*
Y-618561D01*
X1148628D01*
Y-619014D01*
Y-619468D01*
X1149081D01*
Y-619921D01*
X1149535D01*
Y-620375D01*
X1149989D01*
Y-620829D01*
Y-621282D01*
X1150442D01*
Y-621736D01*
X1150896D01*
Y-622189D01*
X1151349D01*
Y-622643D01*
Y-623096D01*
X1151803D01*
Y-623550D01*
X1152256D01*
Y-624003D01*
X1152710D01*
Y-624457D01*
Y-624911D01*
X1153164D01*
Y-625364D01*
X1153617D01*
Y-625818D01*
X1154071D01*
Y-626271D01*
Y-626725D01*
X1154524D01*
Y-627178D01*
X1154978D01*
Y-627632D01*
Y-628086D01*
X1155431D01*
Y-628539D01*
X1155885D01*
Y-628993D01*
X1156338D01*
Y-629446D01*
Y-629900D01*
X1156792D01*
Y-630353D01*
X1157245D01*
Y-630807D01*
X1157699D01*
Y-631260D01*
X1158153D01*
Y-631714D01*
X1143639D01*
Y-631260D01*
Y-630807D01*
X1143185D01*
Y-630353D01*
X1142732D01*
Y-629900D01*
X1142278D01*
Y-629446D01*
Y-628993D01*
X1141825D01*
Y-628539D01*
X1141371D01*
Y-628086D01*
X1140918D01*
Y-627632D01*
Y-627178D01*
X1140464D01*
Y-626725D01*
X1140010D01*
Y-626271D01*
Y-625818D01*
X1139557D01*
Y-625364D01*
X1139103D01*
Y-624911D01*
X1138650D01*
Y-624457D01*
Y-624003D01*
X1138196D01*
Y-623550D01*
X1137743D01*
Y-623096D01*
X1137289D01*
Y-622643D01*
Y-622189D01*
X1136835D01*
Y-621736D01*
X1136382D01*
Y-621282D01*
Y-620829D01*
X1135928D01*
Y-620375D01*
X1135475D01*
Y-619921D01*
X1135021D01*
Y-619468D01*
Y-619014D01*
X1134568D01*
Y-618561D01*
X1134114D01*
Y-618107D01*
X1133661D01*
Y-617654D01*
X1133207D01*
Y-618107D01*
Y-618561D01*
X1132754D01*
Y-619014D01*
X1132300D01*
Y-619468D01*
X1131846D01*
Y-619921D01*
Y-620375D01*
X1131393D01*
Y-620829D01*
X1130939D01*
Y-621282D01*
Y-621736D01*
X1130486D01*
Y-622189D01*
X1130032D01*
Y-622643D01*
X1129579D01*
Y-623096D01*
Y-623550D01*
X1129125D01*
Y-624003D01*
X1128671D01*
Y-624457D01*
Y-624911D01*
X1128218D01*
Y-625364D01*
X1127764D01*
Y-625818D01*
X1127311D01*
Y-626271D01*
Y-626725D01*
X1126857D01*
Y-627178D01*
X1126404D01*
Y-627632D01*
Y-628086D01*
X1125950D01*
Y-628539D01*
X1125497D01*
Y-628993D01*
X1125043D01*
Y-629446D01*
Y-629900D01*
X1124589D01*
Y-630353D01*
X1124136D01*
Y-630807D01*
Y-631260D01*
X1123682D01*
Y-631714D01*
X1110529D01*
Y-631260D01*
X1110983D01*
Y-630807D01*
X1111436D01*
Y-630353D01*
Y-629900D01*
X1111890D01*
Y-629446D01*
X1112344D01*
Y-628993D01*
X1112797D01*
Y-628539D01*
Y-628086D01*
X1113251D01*
Y-627632D01*
X1113704D01*
Y-627178D01*
Y-626725D01*
X1114158D01*
Y-626271D01*
X1114611D01*
Y-625818D01*
X1115065D01*
Y-625364D01*
X1115518D01*
Y-624911D01*
Y-624457D01*
X1115972D01*
Y-624003D01*
X1116425D01*
Y-623550D01*
Y-623096D01*
X1116879D01*
Y-622643D01*
X1117333D01*
Y-622189D01*
X1117786D01*
Y-621736D01*
Y-621282D01*
X1118240D01*
Y-620829D01*
X1118693D01*
Y-620375D01*
X1119147D01*
Y-619921D01*
Y-619468D01*
X1119600D01*
Y-619014D01*
X1120054D01*
Y-618561D01*
X1120508D01*
Y-618107D01*
Y-617654D01*
X1120961D01*
Y-617200D01*
X1121415D01*
Y-616747D01*
X1121868D01*
Y-616293D01*
Y-615839D01*
X1122322D01*
Y-615386D01*
X1122775D01*
Y-614932D01*
X1123229D01*
Y-614479D01*
Y-614025D01*
X1123682D01*
Y-613572D01*
X1124136D01*
Y-613118D01*
X1124589D01*
Y-612665D01*
Y-612211D01*
X1125043D01*
Y-611758D01*
X1125497D01*
Y-611304D01*
Y-610850D01*
X1125950D01*
Y-610397D01*
X1126404D01*
Y-609943D01*
X1126857D01*
Y-609490D01*
Y-609036D01*
X1126404D01*
Y-608583D01*
X1125950D01*
Y-608129D01*
X1125497D01*
Y-607675D01*
Y-607222D01*
X1125043D01*
Y-606768D01*
X1124589D01*
Y-606315D01*
X1124136D01*
Y-605861D01*
Y-605408D01*
X1123682D01*
Y-604954D01*
X1123229D01*
Y-604501D01*
Y-604047D01*
X1122775D01*
Y-603593D01*
X1122322D01*
Y-603140D01*
X1121868D01*
Y-602686D01*
Y-602233D01*
X1121415D01*
Y-601779D01*
X1120961D01*
Y-601326D01*
X1120508D01*
Y-600872D01*
Y-600419D01*
X1120054D01*
Y-599965D01*
X1119600D01*
Y-599511D01*
Y-599058D01*
X1119147D01*
Y-598604D01*
X1118693D01*
Y-598151D01*
X1118240D01*
Y-597697D01*
Y-597244D01*
X1117786D01*
Y-596790D01*
X1117333D01*
Y-596337D01*
X1116879D01*
Y-595883D01*
Y-595429D01*
X1116425D01*
Y-594976D01*
X1115972D01*
Y-594522D01*
Y-594069D01*
X1115518D01*
Y-593615D01*
X1115065D01*
Y-593162D01*
X1114611D01*
Y-592708D01*
Y-592254D01*
X1114158D01*
Y-591801D01*
X1113704D01*
Y-591347D01*
X1113251D01*
Y-590894D01*
Y-590440D01*
X1112797D01*
Y-589987D01*
X1112344D01*
Y-589533D01*
Y-589080D01*
X1111890D01*
Y-588626D01*
X1111436D01*
Y-588172D01*
X1110983D01*
Y-587719D01*
X1125043D01*
Y-588172D01*
X1125497D01*
Y-588626D01*
X1125950D01*
Y-589080D01*
Y-589533D01*
X1126404D01*
Y-589987D01*
X1126857D01*
Y-590440D01*
X1127311D01*
Y-590894D01*
Y-591347D01*
X1127764D01*
Y-591801D01*
X1128218D01*
Y-592254D01*
Y-592708D01*
X1128671D01*
Y-593162D01*
X1129125D01*
Y-593615D01*
Y-594069D01*
X1129579D01*
Y-594522D01*
X1130032D01*
Y-594976D01*
X1130486D01*
Y-595429D01*
Y-595883D01*
X1130939D01*
Y-596337D01*
X1131393D01*
Y-596790D01*
Y-597244D01*
X1131846D01*
Y-597697D01*
X1132300D01*
Y-598151D01*
X1132754D01*
Y-598604D01*
Y-599058D01*
X1133207D01*
Y-599511D01*
X1133661D01*
Y-599965D01*
Y-600419D01*
X1134114D01*
Y-600872D01*
X1134568D01*
Y-601326D01*
X1135021D01*
Y-600872D01*
X1135475D01*
Y-600419D01*
Y-599965D01*
X1135928D01*
Y-599511D01*
X1136382D01*
Y-599058D01*
X1136835D01*
Y-598604D01*
Y-598151D01*
X1137289D01*
Y-597697D01*
X1137743D01*
Y-597244D01*
Y-596790D01*
X1138196D01*
Y-596337D01*
X1138650D01*
Y-595883D01*
X1139103D01*
Y-595429D01*
Y-594976D01*
X1139557D01*
Y-594522D01*
X1140010D01*
Y-594069D01*
Y-593615D01*
X1140464D01*
Y-593162D01*
X1140918D01*
Y-592708D01*
X1141371D01*
Y-592254D01*
Y-591801D01*
X1141825D01*
Y-591347D01*
X1142278D01*
Y-590894D01*
Y-590440D01*
X1142732D01*
Y-589987D01*
X1143185D01*
Y-589533D01*
X1143639D01*
Y-589080D01*
Y-588626D01*
X1144092D01*
Y-588172D01*
X1144546D01*
Y-587719D01*
X1157245D01*
Y-588172D01*
D02*
G37*
%LPC*%
G36*
X919582Y-566855D02*
X917314D01*
Y-567309D01*
X915500D01*
Y-567762D01*
X914593D01*
Y-568216D01*
X913686D01*
Y-568670D01*
X912779D01*
Y-569123D01*
X912325D01*
Y-569577D01*
X911872D01*
Y-570030D01*
X911418D01*
Y-570484D01*
X910965D01*
Y-570937D01*
Y-571391D01*
X910511D01*
Y-571844D01*
X910058D01*
Y-572298D01*
Y-572752D01*
X909604D01*
Y-573205D01*
Y-573659D01*
Y-574112D01*
Y-574566D01*
X909150D01*
Y-575019D01*
Y-575473D01*
Y-575927D01*
Y-576380D01*
Y-576834D01*
Y-577287D01*
Y-577741D01*
Y-578194D01*
X909604D01*
Y-578648D01*
Y-579101D01*
Y-579555D01*
X910058D01*
Y-580009D01*
Y-580462D01*
X910511D01*
Y-580916D01*
Y-581369D01*
X910965D01*
Y-581823D01*
X911418D01*
Y-582276D01*
X911872D01*
Y-582730D01*
X912325D01*
Y-583183D01*
X912779D01*
Y-583637D01*
X913232D01*
Y-584090D01*
X914139D01*
Y-584544D01*
X915047D01*
Y-584998D01*
X916407D01*
Y-585451D01*
X920489D01*
Y-584998D01*
X921850D01*
Y-584544D01*
X922757D01*
Y-584090D01*
X923664D01*
Y-583637D01*
X924118D01*
Y-583183D01*
X924571D01*
Y-582730D01*
X925478D01*
Y-582276D01*
Y-581823D01*
X925932D01*
Y-581369D01*
X926385D01*
Y-580916D01*
Y-580462D01*
X926839D01*
Y-580009D01*
Y-579555D01*
X927293D01*
Y-579101D01*
Y-578648D01*
Y-578194D01*
X927746D01*
Y-577741D01*
Y-577287D01*
Y-576834D01*
Y-576380D01*
Y-575927D01*
Y-575473D01*
Y-575019D01*
Y-574566D01*
X927293D01*
Y-574112D01*
Y-573659D01*
Y-573205D01*
Y-572752D01*
X926839D01*
Y-572298D01*
Y-571844D01*
X926385D01*
Y-571391D01*
Y-570937D01*
X925932D01*
Y-570484D01*
X925478D01*
Y-570030D01*
X925025D01*
Y-569577D01*
X924571D01*
Y-569123D01*
X924118D01*
Y-568670D01*
X923211D01*
Y-568216D01*
X922757D01*
Y-567762D01*
X921396D01*
Y-567309D01*
X919582D01*
Y-566855D01*
D02*
G37*
G36*
X1014375Y-596790D02*
X1010293D01*
Y-597244D01*
X1008479D01*
Y-597697D01*
X1007119D01*
Y-598151D01*
X1006211D01*
Y-598604D01*
X1005758D01*
Y-599058D01*
X1004851D01*
Y-599511D01*
X1004397D01*
Y-599965D01*
X1003944D01*
Y-600419D01*
Y-600872D01*
X1003490D01*
Y-601326D01*
X1003036D01*
Y-601779D01*
Y-602233D01*
X1002583D01*
Y-602686D01*
Y-603140D01*
X1002129D01*
Y-603593D01*
Y-604047D01*
Y-604501D01*
X1001676D01*
Y-604954D01*
Y-605408D01*
Y-605861D01*
Y-606315D01*
Y-606768D01*
X1001222D01*
Y-607222D01*
Y-607675D01*
Y-608129D01*
Y-608583D01*
Y-609036D01*
Y-609490D01*
Y-609943D01*
Y-610397D01*
Y-610850D01*
Y-611304D01*
Y-611758D01*
Y-612211D01*
Y-612665D01*
X1001676D01*
Y-613118D01*
Y-613572D01*
Y-614025D01*
Y-614479D01*
Y-614932D01*
X1002129D01*
Y-615386D01*
Y-615839D01*
Y-616293D01*
X1002583D01*
Y-616747D01*
Y-617200D01*
X1003036D01*
Y-617654D01*
Y-618107D01*
X1003490D01*
Y-618561D01*
X1003944D01*
Y-619014D01*
X1004397D01*
Y-619468D01*
X1004851D01*
Y-619921D01*
X1005304D01*
Y-620375D01*
X1005758D01*
Y-620829D01*
X1006665D01*
Y-621282D01*
X1007572D01*
Y-621736D01*
X1008479D01*
Y-622189D01*
X1010747D01*
Y-622643D01*
X1013922D01*
Y-622189D01*
X1016190D01*
Y-621736D01*
X1017550D01*
Y-621282D01*
X1018457D01*
Y-620829D01*
X1018911D01*
Y-620375D01*
X1019818D01*
Y-619921D01*
X1020272D01*
Y-619468D01*
X1020725D01*
Y-619014D01*
X1021179D01*
Y-618561D01*
Y-618107D01*
X1021632D01*
Y-617654D01*
X1022086D01*
Y-617200D01*
Y-616747D01*
X1022539D01*
Y-616293D01*
Y-615839D01*
Y-615386D01*
X1022993D01*
Y-614932D01*
Y-614479D01*
Y-614025D01*
Y-613572D01*
X1023447D01*
Y-613118D01*
Y-612665D01*
Y-612211D01*
Y-611758D01*
Y-611304D01*
Y-610850D01*
Y-610397D01*
Y-609943D01*
Y-609490D01*
Y-609036D01*
Y-608583D01*
Y-608129D01*
Y-607675D01*
Y-607222D01*
Y-606768D01*
Y-606315D01*
Y-605861D01*
Y-605408D01*
X1022993D01*
Y-604954D01*
Y-604501D01*
Y-604047D01*
Y-603593D01*
X1022539D01*
Y-603140D01*
Y-602686D01*
X1022086D01*
Y-602233D01*
Y-601779D01*
X1021632D01*
Y-601326D01*
Y-600872D01*
X1021179D01*
Y-600419D01*
X1020725D01*
Y-599965D01*
X1020272D01*
Y-599511D01*
X1019818D01*
Y-599058D01*
X1019364D01*
Y-598604D01*
X1018457D01*
Y-598151D01*
X1017550D01*
Y-597697D01*
X1016643D01*
Y-597244D01*
X1014375D01*
Y-596790D01*
D02*
G37*
G36*
X1088305D02*
X1083769D01*
Y-597244D01*
X1081955D01*
Y-597697D01*
X1080595D01*
Y-598151D01*
X1079688D01*
Y-598604D01*
X1079234D01*
Y-599058D01*
X1078780D01*
Y-599511D01*
X1078327D01*
Y-599965D01*
X1077873D01*
Y-600419D01*
X1077420D01*
Y-600872D01*
X1076966D01*
Y-601326D01*
X1076513D01*
Y-601779D01*
Y-602233D01*
X1076059D01*
Y-602686D01*
Y-603140D01*
X1075605D01*
Y-603593D01*
Y-604047D01*
Y-604501D01*
X1075152D01*
Y-604954D01*
Y-605408D01*
Y-605861D01*
Y-606315D01*
Y-606768D01*
Y-607222D01*
Y-607675D01*
X1074698D01*
Y-608129D01*
Y-608583D01*
Y-609036D01*
Y-609490D01*
Y-609943D01*
Y-610397D01*
Y-610850D01*
Y-611304D01*
X1075152D01*
Y-611758D01*
Y-612211D01*
Y-612665D01*
Y-613118D01*
Y-613572D01*
Y-614025D01*
Y-614479D01*
X1075605D01*
Y-614932D01*
Y-615386D01*
Y-615839D01*
X1076059D01*
Y-616293D01*
Y-616747D01*
Y-617200D01*
X1076513D01*
Y-617654D01*
X1076966D01*
Y-618107D01*
Y-618561D01*
X1077420D01*
Y-619014D01*
X1077873D01*
Y-619468D01*
X1078327D01*
Y-619921D01*
X1078780D01*
Y-620375D01*
X1079234D01*
Y-620829D01*
X1080141D01*
Y-621282D01*
X1081048D01*
Y-621736D01*
X1082409D01*
Y-622189D01*
X1084677D01*
Y-622643D01*
X1087398D01*
Y-622189D01*
X1089666D01*
Y-621736D01*
X1091026D01*
Y-621282D01*
X1091934D01*
Y-620829D01*
X1092841D01*
Y-620375D01*
X1093294D01*
Y-619921D01*
X1093748D01*
Y-619468D01*
X1094201D01*
Y-619014D01*
X1094655D01*
Y-618561D01*
X1095108D01*
Y-618107D01*
Y-617654D01*
X1095562D01*
Y-617200D01*
X1096015D01*
Y-616747D01*
Y-616293D01*
Y-615839D01*
X1096469D01*
Y-615386D01*
Y-614932D01*
Y-614479D01*
X1096923D01*
Y-614025D01*
Y-613572D01*
Y-613118D01*
Y-612665D01*
Y-612211D01*
X1097376D01*
Y-611758D01*
Y-611304D01*
Y-610850D01*
Y-610397D01*
Y-609943D01*
Y-609490D01*
Y-609036D01*
Y-608583D01*
Y-608129D01*
Y-607675D01*
Y-607222D01*
X1096923D01*
Y-606768D01*
Y-606315D01*
Y-605861D01*
Y-605408D01*
Y-604954D01*
Y-604501D01*
X1096469D01*
Y-604047D01*
Y-603593D01*
Y-603140D01*
X1096015D01*
Y-602686D01*
Y-602233D01*
X1095562D01*
Y-601779D01*
Y-601326D01*
X1095108D01*
Y-600872D01*
X1094655D01*
Y-600419D01*
X1094201D01*
Y-599965D01*
X1093748D01*
Y-599511D01*
X1093294D01*
Y-599058D01*
X1092841D01*
Y-598604D01*
X1091934D01*
Y-598151D01*
X1091480D01*
Y-597697D01*
X1090119D01*
Y-597244D01*
X1088305D01*
Y-596790D01*
D02*
G37*
%LPD*%
D10*
X352580Y675640D02*
Y685800D01*
X347500Y680720D02*
X357660D01*
X2161655Y-16334D02*
X2161364Y-15753D01*
X2160784Y-15172D01*
X2160203Y-14882D01*
X2159041D01*
X2158460Y-15172D01*
X2157879Y-15753D01*
X2157589Y-16334D01*
X2157299Y-17205D01*
Y-18657D01*
X2157589Y-19528D01*
X2157879Y-20109D01*
X2158460Y-20690D01*
X2159041Y-20981D01*
X2160203D01*
X2160784Y-20690D01*
X2161364Y-20109D01*
X2161655Y-19528D01*
X2164820Y-16915D02*
X2164240Y-17205D01*
X2163659Y-17786D01*
X2163368Y-18657D01*
Y-19238D01*
X2163659Y-20109D01*
X2164240Y-20690D01*
X2164820Y-20981D01*
X2165692D01*
X2166272Y-20690D01*
X2166853Y-20109D01*
X2167144Y-19238D01*
Y-18657D01*
X2166853Y-17786D01*
X2166272Y-17205D01*
X2165692Y-16915D01*
X2164820D01*
X2168480D02*
Y-19819D01*
X2168770Y-20690D01*
X2169351Y-20981D01*
X2170222D01*
X2170803Y-20690D01*
X2171674Y-19819D01*
Y-16915D02*
Y-20981D01*
X2173271Y-16915D02*
Y-20981D01*
Y-18657D02*
X2173562Y-17786D01*
X2174143Y-17205D01*
X2174724Y-16915D01*
X2175595D01*
X2177018Y-14882D02*
Y-19819D01*
X2177308Y-20690D01*
X2177889Y-20981D01*
X2178470D01*
X2176147Y-16915D02*
X2178179D01*
X2179632D02*
X2181374Y-20981D01*
X2183116Y-16915D02*
X2181374Y-20981D01*
X2180793Y-22142D01*
X2180212Y-22723D01*
X2179632Y-23013D01*
X2179341D01*
X2187618Y-16915D02*
Y-20981D01*
Y-17786D02*
X2187037Y-17205D01*
X2186456Y-16915D01*
X2185585D01*
X2185004Y-17205D01*
X2184423Y-17786D01*
X2184133Y-18657D01*
Y-19238D01*
X2184423Y-20109D01*
X2185004Y-20690D01*
X2185585Y-20981D01*
X2186456D01*
X2187037Y-20690D01*
X2187618Y-20109D01*
X2189244Y-16915D02*
Y-20981D01*
Y-18657D02*
X2189535Y-17786D01*
X2190115Y-17205D01*
X2190696Y-16915D01*
X2191567D01*
X2195604Y-14882D02*
Y-20981D01*
Y-17786D02*
X2195023Y-17205D01*
X2194443Y-16915D01*
X2193571D01*
X2192991Y-17205D01*
X2192410Y-17786D01*
X2192119Y-18657D01*
Y-19238D01*
X2192410Y-20109D01*
X2192991Y-20690D01*
X2193571Y-20981D01*
X2194443D01*
X2195023Y-20690D01*
X2195604Y-20109D01*
X2204055Y-14882D02*
Y-20981D01*
X2202022Y-14882D02*
X2206088D01*
X2208266Y-16915D02*
X2207685Y-17205D01*
X2207105Y-17786D01*
X2206814Y-18657D01*
Y-19238D01*
X2207105Y-20109D01*
X2207685Y-20690D01*
X2208266Y-20981D01*
X2209137D01*
X2209718Y-20690D01*
X2210299Y-20109D01*
X2210589Y-19238D01*
Y-18657D01*
X2210299Y-17786D01*
X2209718Y-17205D01*
X2209137Y-16915D01*
X2208266D01*
X2211925D02*
Y-23013D01*
Y-17786D02*
X2212506Y-17205D01*
X2213087Y-16915D01*
X2213958D01*
X2214539Y-17205D01*
X2215120Y-17786D01*
X2215410Y-18657D01*
Y-19238D01*
X2215120Y-20109D01*
X2214539Y-20690D01*
X2213958Y-20981D01*
X2213087D01*
X2212506Y-20690D01*
X2211925Y-20109D01*
X-329019Y1104464D02*
X-331342Y1110563D01*
X-333665Y1104464D01*
X-332794Y1106497D02*
X-329890D01*
X-333665Y570813D02*
Y564714D01*
Y570813D02*
X-331052D01*
X-330180Y570523D01*
X-329890Y570232D01*
X-329600Y569651D01*
Y569071D01*
X-329890Y568490D01*
X-330180Y568199D01*
X-331052Y567909D01*
X-333665D02*
X-331052D01*
X-330180Y567618D01*
X-329890Y567328D01*
X-329600Y566747D01*
Y565876D01*
X-329890Y565295D01*
X-330180Y565005D01*
X-331052Y564714D01*
X-333665D01*
X-329309Y29611D02*
X-329600Y30192D01*
X-330180Y30773D01*
X-330761Y31063D01*
X-331923D01*
X-332504Y30773D01*
X-333084Y30192D01*
X-333375Y29611D01*
X-333665Y28740D01*
Y27288D01*
X-333375Y26416D01*
X-333084Y25836D01*
X-332504Y25255D01*
X-331923Y24964D01*
X-330761D01*
X-330180Y25255D01*
X-329600Y25836D01*
X-329309Y26416D01*
X-333665Y-507417D02*
Y-513516D01*
Y-507417D02*
X-331632D01*
X-330761Y-507707D01*
X-330180Y-508288D01*
X-329890Y-508869D01*
X-329600Y-509740D01*
Y-511192D01*
X-329890Y-512064D01*
X-330180Y-512644D01*
X-330761Y-513225D01*
X-331632Y-513516D01*
X-333665D01*
X-9476Y-740227D02*
X-8895Y-739936D01*
X-8024Y-739065D01*
Y-745164D01*
X689483Y-740517D02*
Y-740227D01*
X689773Y-739646D01*
X690064Y-739355D01*
X690645Y-739065D01*
X691806D01*
X692387Y-739355D01*
X692678Y-739646D01*
X692968Y-740227D01*
Y-740807D01*
X692678Y-741388D01*
X692097Y-742260D01*
X689193Y-745164D01*
X693258D01*
X1387003Y-739065D02*
X1390198D01*
X1388456Y-741388D01*
X1389327D01*
X1389908Y-741679D01*
X1390198Y-741969D01*
X1390488Y-742840D01*
Y-743421D01*
X1390198Y-744292D01*
X1389617Y-744873D01*
X1388746Y-745164D01*
X1387875D01*
X1387003Y-744873D01*
X1386713Y-744583D01*
X1386423Y-744002D01*
X2088083Y-739065D02*
X2085179Y-743131D01*
X2089536D01*
X2088083Y-739065D02*
Y-745164D01*
X-9476Y1367973D02*
X-8895Y1368264D01*
X-8024Y1369135D01*
Y1363036D01*
X689483Y1367683D02*
Y1367973D01*
X689773Y1368554D01*
X690064Y1368845D01*
X690645Y1369135D01*
X691806D01*
X692387Y1368845D01*
X692678Y1368554D01*
X692968Y1367973D01*
Y1367393D01*
X692678Y1366812D01*
X692097Y1365941D01*
X689193Y1363036D01*
X693258D01*
X1387003Y1369135D02*
X1390198D01*
X1388456Y1366812D01*
X1389327D01*
X1389908Y1366521D01*
X1390198Y1366231D01*
X1390488Y1365360D01*
Y1364779D01*
X1390198Y1363908D01*
X1389617Y1363327D01*
X1388746Y1363036D01*
X1387875D01*
X1387003Y1363327D01*
X1386713Y1363617D01*
X1386423Y1364198D01*
X2088083Y1369135D02*
X2085179Y1365069D01*
X2089536D01*
X2088083Y1369135D02*
Y1363036D01*
X2414181Y1104464D02*
X2411858Y1110563D01*
X2409535Y1104464D01*
X2410406Y1106497D02*
X2413310D01*
X2409535Y570813D02*
Y564714D01*
Y570813D02*
X2412148D01*
X2413020Y570523D01*
X2413310Y570232D01*
X2413600Y569651D01*
Y569071D01*
X2413310Y568490D01*
X2413020Y568199D01*
X2412148Y567909D01*
X2409535D02*
X2412148D01*
X2413020Y567618D01*
X2413310Y567328D01*
X2413600Y566747D01*
Y565876D01*
X2413310Y565295D01*
X2413020Y565005D01*
X2412148Y564714D01*
X2409535D01*
X2413891Y29611D02*
X2413600Y30192D01*
X2413020Y30773D01*
X2412439Y31063D01*
X2411277D01*
X2410696Y30773D01*
X2410116Y30192D01*
X2409825Y29611D01*
X2409535Y28740D01*
Y27288D01*
X2409825Y26416D01*
X2410116Y25836D01*
X2410696Y25255D01*
X2411277Y24964D01*
X2412439D01*
X2413020Y25255D01*
X2413600Y25836D01*
X2413891Y26416D01*
X2409535Y-507417D02*
Y-513516D01*
Y-507417D02*
X2411568D01*
X2412439Y-507707D01*
X2413020Y-508288D01*
X2413310Y-508869D01*
X2413600Y-509740D01*
Y-511192D01*
X2413310Y-512064D01*
X2413020Y-512644D01*
X2412439Y-513225D01*
X2411568Y-513516D01*
X2409535D01*
X2103959Y225656D02*
Y219557D01*
X2107444D01*
X2112758D02*
X2110435Y225656D01*
X2108112Y219557D01*
X2108983Y221590D02*
X2111887D01*
X2114181Y225656D02*
X2116505Y222752D01*
Y219557D01*
X2118828Y225656D02*
X2116505Y222752D01*
X2123387Y225656D02*
X2119612D01*
Y219557D01*
X2123387D01*
X2119612Y222752D02*
X2121935D01*
X2124404Y225656D02*
Y219557D01*
Y225656D02*
X2127018D01*
X2127889Y225366D01*
X2128179Y225075D01*
X2128470Y224494D01*
Y223914D01*
X2128179Y223333D01*
X2127889Y223042D01*
X2127018Y222752D01*
X2124404D01*
X2126437D02*
X2128470Y219557D01*
X2134626Y225656D02*
Y221300D01*
X2134917Y220429D01*
X2135498Y219848D01*
X2136369Y219557D01*
X2136950D01*
X2137821Y219848D01*
X2138402Y220429D01*
X2138692Y221300D01*
Y225656D01*
X2144442Y224785D02*
X2143862Y225366D01*
X2142990Y225656D01*
X2141829D01*
X2140957Y225366D01*
X2140376Y224785D01*
Y224204D01*
X2140667Y223623D01*
X2140957Y223333D01*
X2141538Y223042D01*
X2143281Y222461D01*
X2143862Y222171D01*
X2144152Y221881D01*
X2144442Y221300D01*
Y220429D01*
X2143862Y219848D01*
X2142990Y219557D01*
X2141829D01*
X2140957Y219848D01*
X2140376Y220429D01*
X2150454Y219557D02*
X2148131Y225656D01*
X2145807Y219557D01*
X2146678Y221590D02*
X2149583D01*
X2156233Y224204D02*
X2155943Y224785D01*
X2155362Y225366D01*
X2154781Y225656D01*
X2153619D01*
X2153038Y225366D01*
X2152458Y224785D01*
X2152167Y224204D01*
X2151877Y223333D01*
Y221881D01*
X2152167Y221009D01*
X2152458Y220429D01*
X2153038Y219848D01*
X2153619Y219557D01*
X2154781D01*
X2155362Y219848D01*
X2155943Y220429D01*
X2156233Y221009D01*
Y221881D01*
X2154781D02*
X2156233D01*
X2161402Y225656D02*
X2157627D01*
Y219557D01*
X2161402D01*
X2157627Y222752D02*
X2159950D01*
X1895245Y1304016D02*
Y1310114D01*
X1898294D01*
X1899310Y1309098D01*
Y1307065D01*
X1898294Y1306049D01*
X1895245D01*
X1897277D02*
X1899310Y1304016D01*
X1905408Y1310114D02*
X1901343D01*
Y1304016D01*
X1905408D01*
X1901343Y1307065D02*
X1903375D01*
X1907441Y1310114D02*
Y1306049D01*
X1909473Y1304016D01*
X1911506Y1306049D01*
Y1310114D01*
X1913539D02*
X1915571D01*
X1914555D01*
Y1304016D01*
X1913539D01*
X1915571D01*
X1922686Y1309098D02*
X1921669Y1310114D01*
X1919637D01*
X1918620Y1309098D01*
Y1308082D01*
X1919637Y1307065D01*
X1921669D01*
X1922686Y1306049D01*
Y1305033D01*
X1921669Y1304016D01*
X1919637D01*
X1918620Y1305033D01*
X1924718Y1310114D02*
X1926751D01*
X1925735D01*
Y1304016D01*
X1924718D01*
X1926751D01*
X1932849Y1310114D02*
X1930816D01*
X1929800Y1309098D01*
Y1305033D01*
X1930816Y1304016D01*
X1932849D01*
X1933865Y1305033D01*
Y1309098D01*
X1932849Y1310114D01*
X1935898Y1304016D02*
Y1310114D01*
X1939963Y1304016D01*
Y1310114D01*
X1537105Y1260836D02*
Y1266934D01*
X1540154D01*
X1541170Y1265918D01*
Y1263885D01*
X1540154Y1262869D01*
X1537105D01*
X1539137D02*
X1541170Y1260836D01*
X1547268Y1266934D02*
X1543203D01*
Y1260836D01*
X1547268D01*
X1543203Y1263885D02*
X1545235D01*
X1549301Y1266934D02*
Y1262869D01*
X1551333Y1260836D01*
X1553366Y1262869D01*
Y1266934D01*
X1646325D02*
Y1260836D01*
X1649374D01*
X1650390Y1261853D01*
Y1265918D01*
X1649374Y1266934D01*
X1646325D01*
X1656488D02*
X1652423D01*
Y1260836D01*
X1656488D01*
X1652423Y1263885D02*
X1654455D01*
X1662586Y1265918D02*
X1661570Y1266934D01*
X1659537D01*
X1658521Y1265918D01*
Y1264902D01*
X1659537Y1263885D01*
X1661570D01*
X1662586Y1262869D01*
Y1261853D01*
X1661570Y1260836D01*
X1659537D01*
X1658521Y1261853D01*
X1668684Y1265918D02*
X1667668Y1266934D01*
X1665635D01*
X1664619Y1265918D01*
Y1261853D01*
X1665635Y1260836D01*
X1667668D01*
X1668684Y1261853D01*
X1670717Y1260836D02*
Y1266934D01*
X1673766D01*
X1674782Y1265918D01*
Y1263885D01*
X1673766Y1262869D01*
X1670717D01*
X1672749D02*
X1674782Y1260836D01*
X1676815Y1266934D02*
X1678847D01*
X1677831D01*
Y1260836D01*
X1676815D01*
X1678847D01*
X1681896D02*
Y1266934D01*
X1684945D01*
X1685962Y1265918D01*
Y1263885D01*
X1684945Y1262869D01*
X1681896D01*
X1687994Y1266934D02*
X1692060D01*
X1690027D01*
Y1260836D01*
X1694092Y1266934D02*
X1696125D01*
X1695109D01*
Y1260836D01*
X1694092D01*
X1696125D01*
X1702223Y1266934D02*
X1700190D01*
X1699174Y1265918D01*
Y1261853D01*
X1700190Y1260836D01*
X1702223D01*
X1703239Y1261853D01*
Y1265918D01*
X1702223Y1266934D01*
X1705272Y1260836D02*
Y1266934D01*
X1709337Y1260836D01*
Y1266934D01*
X2144165D02*
Y1260836D01*
X2147214D01*
X2148230Y1261853D01*
Y1265918D01*
X2147214Y1266934D01*
X2144165D01*
X2150263Y1260836D02*
Y1264902D01*
X2152295Y1266934D01*
X2154328Y1264902D01*
Y1260836D01*
Y1263885D01*
X2150263D01*
X2156361Y1266934D02*
X2160426D01*
X2158393D01*
Y1260836D01*
X2166524Y1266934D02*
X2162459D01*
Y1260836D01*
X2166524D01*
X2162459Y1263885D02*
X2164491D01*
X2304185Y1266934D02*
Y1260836D01*
X2307234D01*
X2308250Y1261853D01*
Y1262869D01*
X2307234Y1263885D01*
X2304185D01*
X2307234D01*
X2308250Y1264902D01*
Y1265918D01*
X2307234Y1266934D01*
X2304185D01*
X2310283D02*
Y1265918D01*
X2312315Y1263885D01*
X2314348Y1265918D01*
Y1266934D01*
X2312315Y1263885D02*
Y1260836D01*
X1537105Y1222736D02*
Y1228834D01*
X1540154D01*
X1541170Y1227818D01*
Y1225785D01*
X1540154Y1224769D01*
X1537105D01*
X1539137D02*
X1541170Y1222736D01*
X1546252D02*
X1544219D01*
X1543203Y1223753D01*
Y1225785D01*
X1544219Y1226802D01*
X1546252D01*
X1547268Y1225785D01*
Y1224769D01*
X1543203D01*
X1549301Y1226802D02*
X1551333Y1222736D01*
X1553366Y1226802D01*
X1555399Y1222736D02*
X1557431D01*
X1556415D01*
Y1228834D01*
X1555399Y1227818D01*
X1646325Y1228834D02*
X1648357D01*
X1647341D01*
Y1222736D01*
X1646325D01*
X1648357D01*
X1651406D02*
Y1226802D01*
X1654455D01*
X1655472Y1225785D01*
Y1222736D01*
X1657504D02*
X1659537D01*
X1658521D01*
Y1226802D01*
X1657504D01*
X1663602Y1227818D02*
Y1226802D01*
X1662586D01*
X1664619D01*
X1663602D01*
Y1223753D01*
X1664619Y1222736D01*
X1667668D02*
X1669700D01*
X1668684D01*
Y1226802D01*
X1667668D01*
X1673766D02*
X1675798D01*
X1676815Y1225785D01*
Y1222736D01*
X1673766D01*
X1672749Y1223753D01*
X1673766Y1224769D01*
X1676815D01*
X1678847Y1222736D02*
X1680880D01*
X1679864D01*
Y1228834D01*
X1678847D01*
X1690027Y1222736D02*
Y1228834D01*
X1693076D01*
X1694092Y1227818D01*
Y1225785D01*
X1693076Y1224769D01*
X1690027D01*
X1692060D02*
X1694092Y1222736D01*
X1699174D02*
X1697141D01*
X1696125Y1223753D01*
Y1225785D01*
X1697141Y1226802D01*
X1699174D01*
X1700190Y1225785D01*
Y1224769D01*
X1696125D01*
X1702223Y1222736D02*
X1704256D01*
X1703239D01*
Y1228834D01*
X1702223D01*
X1710354Y1222736D02*
X1708321D01*
X1707305Y1223753D01*
Y1225785D01*
X1708321Y1226802D01*
X1710354D01*
X1711370Y1225785D01*
Y1224769D01*
X1707305D01*
X1714419Y1226802D02*
X1716452D01*
X1717468Y1225785D01*
Y1222736D01*
X1714419D01*
X1713403Y1223753D01*
X1714419Y1224769D01*
X1717468D01*
X1719501Y1222736D02*
X1722550D01*
X1723566Y1223753D01*
X1722550Y1224769D01*
X1720517D01*
X1719501Y1225785D01*
X1720517Y1226802D01*
X1723566D01*
X1728648Y1222736D02*
X1726615D01*
X1725599Y1223753D01*
Y1225785D01*
X1726615Y1226802D01*
X1728648D01*
X1729664Y1225785D01*
Y1224769D01*
X1725599D01*
X2123845Y1225278D02*
X2124861Y1226294D01*
X2126894D01*
X2127910Y1225278D01*
Y1221213D01*
X2126894Y1220196D01*
X2124861D01*
X2123845Y1221213D01*
Y1225278D01*
X2132992Y1220196D02*
Y1226294D01*
X2129943Y1223245D01*
X2134008D01*
X2136041Y1220196D02*
X2140106Y1224262D01*
X2142139Y1220196D02*
X2144171D01*
X2143155D01*
Y1226294D01*
X2142139Y1225278D01*
X2147220Y1221213D02*
X2148237Y1220196D01*
X2150269D01*
X2151286Y1221213D01*
Y1225278D01*
X2150269Y1226294D01*
X2148237D01*
X2147220Y1225278D01*
Y1224262D01*
X2148237Y1223245D01*
X2151286D01*
X2153318Y1220196D02*
X2157384Y1224262D01*
X2163482Y1220196D02*
X2159416D01*
X2163482Y1224262D01*
Y1225278D01*
X2162465Y1226294D01*
X2160433D01*
X2159416Y1225278D01*
X2165514D02*
X2166531Y1226294D01*
X2168563D01*
X2169580Y1225278D01*
Y1221213D01*
X2168563Y1220196D01*
X2166531D01*
X2165514Y1221213D01*
Y1225278D01*
X2175678Y1220196D02*
X2171612D01*
X2175678Y1224262D01*
Y1225278D01*
X2174661Y1226294D01*
X2172629D01*
X2171612Y1225278D01*
X2180759Y1220196D02*
Y1226294D01*
X2177710Y1223245D01*
X2181776D01*
X2291485Y1222736D02*
Y1226802D01*
X2293517Y1228834D01*
X2295550Y1226802D01*
Y1222736D01*
Y1225785D01*
X2291485D01*
X2301648Y1227818D02*
X2300632Y1228834D01*
X2298599D01*
X2297583Y1227818D01*
Y1226802D01*
X2298599Y1225785D01*
X2300632D01*
X2301648Y1224769D01*
Y1223753D01*
X2300632Y1222736D01*
X2298599D01*
X2297583Y1223753D01*
X2306730Y1228834D02*
X2304697D01*
X2303681Y1227818D01*
Y1223753D01*
X2304697Y1222736D01*
X2306730D01*
X2307746Y1223753D01*
Y1227818D01*
X2306730Y1228834D01*
X2309779D02*
Y1222736D01*
Y1225785D01*
X2313844D01*
Y1228834D01*
Y1222736D01*
X1642706Y1160474D02*
X1638641D01*
Y1154377D01*
X1642706D01*
X1638641Y1157426D02*
X1640673D01*
X1648804Y1159458D02*
X1647788Y1160474D01*
X1645755D01*
X1644739Y1159458D01*
Y1158442D01*
X1645755Y1157426D01*
X1647788D01*
X1648804Y1156409D01*
Y1155393D01*
X1647788Y1154377D01*
X1645755D01*
X1644739Y1155393D01*
X1656935Y1154377D02*
Y1160474D01*
X1659984D01*
X1661000Y1159458D01*
Y1157426D01*
X1659984Y1156409D01*
X1656935D01*
X1658967D02*
X1661000Y1154377D01*
X1666082D02*
X1664049D01*
X1663033Y1155393D01*
Y1157426D01*
X1664049Y1158442D01*
X1666082D01*
X1667098Y1157426D01*
Y1156409D01*
X1663033D01*
X1669131Y1154377D02*
X1671163D01*
X1670147D01*
Y1160474D01*
X1669131D01*
X1677261Y1154377D02*
X1675229D01*
X1674212Y1155393D01*
Y1157426D01*
X1675229Y1158442D01*
X1677261D01*
X1678278Y1157426D01*
Y1156409D01*
X1674212D01*
X1681327Y1158442D02*
X1683359D01*
X1684376Y1157426D01*
Y1154377D01*
X1681327D01*
X1680310Y1155393D01*
X1681327Y1156409D01*
X1684376D01*
X1686408Y1154377D02*
X1689458D01*
X1690474Y1155393D01*
X1689458Y1156409D01*
X1687425D01*
X1686408Y1157426D01*
X1687425Y1158442D01*
X1690474D01*
X1695556Y1154377D02*
X1693523D01*
X1692506Y1155393D01*
Y1157426D01*
X1693523Y1158442D01*
X1695556D01*
X1696572Y1157426D01*
Y1156409D01*
X1692506D01*
X1529421Y1154377D02*
Y1160474D01*
X1532470D01*
X1533486Y1159458D01*
Y1157426D01*
X1532470Y1156409D01*
X1529421D01*
X1531453D02*
X1533486Y1154377D01*
X1538568D02*
X1536535D01*
X1535519Y1155393D01*
Y1157426D01*
X1536535Y1158442D01*
X1538568D01*
X1539584Y1157426D01*
Y1156409D01*
X1535519D01*
X1541617Y1158442D02*
X1543649Y1154377D01*
X1545682Y1158442D01*
X1553813Y1160474D02*
Y1154377D01*
X1556862D01*
X1557878Y1155393D01*
Y1156409D01*
X1556862Y1157426D01*
X1553813D01*
X1556862D01*
X1557878Y1158442D01*
Y1159458D01*
X1556862Y1160474D01*
X1553813D01*
X1318665Y-688866D02*
Y-693947D01*
X1319681Y-694964D01*
X1321714D01*
X1322730Y-693947D01*
Y-688866D01*
X1324763D02*
Y-694964D01*
X1327812D01*
X1328828Y-693947D01*
Y-692931D01*
X1327812Y-691915D01*
X1324763D01*
X1327812D01*
X1328828Y-690898D01*
Y-689882D01*
X1327812Y-688866D01*
X1324763D01*
X1330861D02*
X1334926Y-694964D01*
Y-688866D02*
X1330861Y-694964D01*
X1336959Y-688866D02*
Y-694964D01*
Y-691915D01*
X1341024D01*
Y-688866D01*
Y-694964D01*
X1347122Y-688866D02*
X1345089Y-689882D01*
X1343057Y-691915D01*
Y-693947D01*
X1344073Y-694964D01*
X1346106D01*
X1347122Y-693947D01*
Y-692931D01*
X1346106Y-691915D01*
X1343057D01*
X1349155Y-689882D02*
X1350171Y-688866D01*
X1352204D01*
X1353220Y-689882D01*
Y-693947D01*
X1352204Y-694964D01*
X1350171D01*
X1349155Y-693947D01*
Y-689882D01*
X1355253Y-691915D02*
X1359318D01*
X1361351Y-689882D02*
X1362367Y-688866D01*
X1364400D01*
X1365416Y-689882D01*
Y-693947D01*
X1364400Y-694964D01*
X1362367D01*
X1361351Y-693947D01*
Y-689882D01*
X1367449D02*
X1368465Y-688866D01*
X1370498D01*
X1371514Y-689882D01*
Y-693947D01*
X1370498Y-694964D01*
X1368465D01*
X1367449Y-693947D01*
Y-689882D01*
X1373547D02*
X1374563Y-688866D01*
X1376596D01*
X1377612Y-689882D01*
Y-693947D01*
X1376596Y-694964D01*
X1374563D01*
X1373547Y-693947D01*
Y-689882D01*
X1379645Y-694964D02*
X1381677D01*
X1380661D01*
Y-688866D01*
X1379645Y-689882D01*
X1384726Y-694964D02*
X1386759D01*
X1385743D01*
Y-688866D01*
X1384726Y-689882D01*
X1392857Y-694964D02*
Y-688866D01*
X1389808Y-691915D01*
X1393873D01*
X1399971Y-688866D02*
X1395906D01*
Y-691915D01*
X1397939Y-690898D01*
X1398955D01*
X1399971Y-691915D01*
Y-693947D01*
X1398955Y-694964D01*
X1396922D01*
X1395906Y-693947D01*
X1749450Y-617746D02*
X1745385D01*
Y-623844D01*
X1749450D01*
X1745385Y-620795D02*
X1747417D01*
X1751483Y-617746D02*
Y-621811D01*
X1753515Y-623844D01*
X1755548Y-621811D01*
Y-617746D01*
X1757581D02*
Y-623844D01*
Y-621811D01*
X1761646Y-617746D01*
X1758597Y-620795D01*
X1761646Y-623844D01*
X1763679Y-620795D02*
X1767744D01*
X1769777Y-623844D02*
Y-617746D01*
X1773842Y-623844D01*
Y-617746D01*
X1778924D02*
X1776891D01*
X1775875Y-618762D01*
Y-622827D01*
X1776891Y-623844D01*
X1778924D01*
X1779940Y-622827D01*
Y-618762D01*
X1778924Y-617746D01*
X1781973Y-623844D02*
Y-617746D01*
X1785022D01*
X1786038Y-618762D01*
Y-620795D01*
X1785022Y-621811D01*
X1781973D01*
X1784005D02*
X1786038Y-623844D01*
X1788071D02*
Y-619778D01*
X1790103Y-617746D01*
X1792136Y-619778D01*
Y-623844D01*
Y-620795D01*
X1788071D01*
X1794169D02*
X1798234D01*
X1800267Y-617746D02*
Y-623844D01*
X1802299Y-621811D01*
X1804332Y-623844D01*
Y-617746D01*
X1809414Y-623844D02*
Y-617746D01*
X1806365Y-620795D01*
X1810430D01*
X1812463Y-618762D02*
X1813479Y-617746D01*
X1815512D01*
X1816528Y-618762D01*
Y-622827D01*
X1815512Y-623844D01*
X1813479D01*
X1812463Y-622827D01*
Y-618762D01*
X2239965Y-622634D02*
Y-616536D01*
X2243014D01*
X2244030Y-617552D01*
Y-619585D01*
X2243014Y-620601D01*
X2239965D01*
X2241997D02*
X2244030Y-622634D01*
X2249112D02*
X2247079D01*
X2246063Y-621617D01*
Y-619585D01*
X2247079Y-618568D01*
X2249112D01*
X2250128Y-619585D01*
Y-620601D01*
X2246063D01*
X2252161Y-618568D02*
X2254193Y-622634D01*
X2256226Y-618568D01*
X2264357Y-616536D02*
Y-622634D01*
X2267406D01*
X2268422Y-621617D01*
Y-620601D01*
X2267406Y-619585D01*
X2264357D01*
X2267406D01*
X2268422Y-618568D01*
Y-617552D01*
X2267406Y-616536D01*
X2264357D01*
X1745385Y-556786D02*
X1749450D01*
X1747417D01*
Y-562884D01*
X1755548Y-556786D02*
X1751483D01*
Y-562884D01*
X1755548D01*
X1751483Y-559835D02*
X1753515D01*
X1757581D02*
X1761646D01*
X1767744Y-556786D02*
X1763679D01*
Y-562884D01*
X1767744D01*
X1763679Y-559835D02*
X1765711D01*
X1773842Y-557802D02*
X1772826Y-556786D01*
X1770793D01*
X1769777Y-557802D01*
Y-561867D01*
X1770793Y-562884D01*
X1772826D01*
X1773842Y-561867D01*
Y-559835D01*
X1771809D01*
X1775875Y-557802D02*
X1776891Y-556786D01*
X1778924D01*
X1779940Y-557802D01*
Y-558818D01*
X1778924Y-559835D01*
X1777907D01*
X1778924D01*
X1779940Y-560851D01*
Y-561867D01*
X1778924Y-562884D01*
X1776891D01*
X1775875Y-561867D01*
X1366925Y-562884D02*
Y-558818D01*
X1368957Y-556786D01*
X1370990Y-558818D01*
Y-562884D01*
Y-559835D01*
X1366925D01*
X1377088Y-557802D02*
X1376072Y-556786D01*
X1374039D01*
X1373023Y-557802D01*
Y-558818D01*
X1374039Y-559835D01*
X1376072D01*
X1377088Y-560851D01*
Y-561867D01*
X1376072Y-562884D01*
X1374039D01*
X1373023Y-561867D01*
X1382170Y-556786D02*
X1380137D01*
X1379121Y-557802D01*
Y-561867D01*
X1380137Y-562884D01*
X1382170D01*
X1383186Y-561867D01*
Y-557802D01*
X1382170Y-556786D01*
X1385219D02*
Y-562884D01*
Y-559835D01*
X1389284D01*
Y-556786D01*
Y-562884D01*
X1634327Y-600384D02*
Y-594286D01*
X1637376D01*
X1638392Y-595302D01*
Y-597335D01*
X1637376Y-598351D01*
X1634327D01*
X1644490Y-595302D02*
X1643474Y-594286D01*
X1641441D01*
X1640425Y-595302D01*
Y-599367D01*
X1641441Y-600384D01*
X1643474D01*
X1644490Y-599367D01*
X1646523Y-594286D02*
Y-600384D01*
X1649572D01*
X1650588Y-599367D01*
Y-598351D01*
X1649572Y-597335D01*
X1646523D01*
X1649572D01*
X1650588Y-596318D01*
Y-595302D01*
X1649572Y-594286D01*
X1646523D01*
X1658719Y-600384D02*
Y-594286D01*
X1662784Y-600384D01*
Y-594286D01*
X1664817Y-600384D02*
Y-596318D01*
X1666849Y-594286D01*
X1668882Y-596318D01*
Y-600384D01*
Y-597335D01*
X1664817D01*
X1670915Y-600384D02*
Y-594286D01*
X1672947Y-596318D01*
X1674980Y-594286D01*
Y-600384D01*
X1681078Y-594286D02*
X1677013D01*
Y-600384D01*
X1681078D01*
X1677013Y-597335D02*
X1679045D01*
X1683111Y-596318D02*
X1684127D01*
Y-597335D01*
X1683111D01*
Y-596318D01*
Y-599367D02*
X1684127D01*
Y-600384D01*
X1683111D01*
Y-599367D01*
X2253325Y-693602D02*
X2255357D01*
X2254341D01*
Y-687504D01*
X2253325Y-688520D01*
X2258406Y-689536D02*
X2259423D01*
Y-690553D01*
X2258406D01*
Y-689536D01*
Y-692585D02*
X2259423D01*
Y-693602D01*
X2258406D01*
Y-692585D01*
X2263488Y-693602D02*
X2265521D01*
X2264504D01*
Y-687504D01*
X2263488Y-688520D01*
X2170268Y-661342D02*
X2169252Y-660326D01*
X2167219D01*
X2166203Y-661342D01*
Y-662358D01*
X2167219Y-663375D01*
X2169252D01*
X2170268Y-664391D01*
Y-665407D01*
X2169252Y-666424D01*
X2167219D01*
X2166203Y-665407D01*
X2176366Y-661342D02*
X2175350Y-660326D01*
X2173317D01*
X2172301Y-661342D01*
Y-665407D01*
X2173317Y-666424D01*
X2175350D01*
X2176366Y-665407D01*
X2178399Y-666424D02*
Y-662358D01*
X2180431Y-660326D01*
X2182464Y-662358D01*
Y-666424D01*
Y-663375D01*
X2178399D01*
X2184497Y-660326D02*
Y-666424D01*
X2188562D01*
X2194660Y-660326D02*
X2190595D01*
Y-666424D01*
X2194660D01*
X2190595Y-663375D02*
X2192627D01*
X2196693Y-662358D02*
X2197709D01*
Y-663375D01*
X2196693D01*
Y-662358D01*
Y-665407D02*
X2197709D01*
Y-666424D01*
X2196693D01*
Y-665407D01*
X1637690Y-658386D02*
X1633625D01*
Y-661435D01*
X1635657D01*
X1633625D01*
Y-664484D01*
X1639723Y-658386D02*
X1641755D01*
X1640739D01*
Y-664484D01*
X1639723D01*
X1641755D01*
X1644804Y-658386D02*
Y-664484D01*
X1648870D01*
X1654968Y-658386D02*
X1650902D01*
Y-664484D01*
X1654968D01*
X1650902Y-661435D02*
X1652935D01*
X1663098Y-664484D02*
Y-658386D01*
X1667164Y-664484D01*
Y-658386D01*
X1669196Y-664484D02*
Y-660418D01*
X1671229Y-658386D01*
X1673262Y-660418D01*
Y-664484D01*
Y-661435D01*
X1669196D01*
X1675294Y-664484D02*
Y-658386D01*
X1677327Y-660418D01*
X1679360Y-658386D01*
Y-664484D01*
X1685458Y-658386D02*
X1681392D01*
Y-664484D01*
X1685458D01*
X1681392Y-661435D02*
X1683425D01*
X1687490Y-660418D02*
X1688507D01*
Y-661435D01*
X1687490D01*
Y-660418D01*
Y-663467D02*
X1688507D01*
Y-664484D01*
X1687490D01*
Y-663467D01*
X1635597Y-546028D02*
Y-539930D01*
X1638646D01*
X1639662Y-540946D01*
Y-542979D01*
X1638646Y-543995D01*
X1635597D01*
X1641695Y-546028D02*
Y-539930D01*
X1644744D01*
X1645760Y-540946D01*
Y-542979D01*
X1644744Y-543995D01*
X1641695D01*
X1643727D02*
X1645760Y-546028D01*
X1650842Y-539930D02*
X1648809D01*
X1647793Y-540946D01*
Y-545011D01*
X1648809Y-546028D01*
X1650842D01*
X1651858Y-545011D01*
Y-540946D01*
X1650842Y-539930D01*
X1657956D02*
X1655923D01*
X1656940D01*
Y-545011D01*
X1655923Y-546028D01*
X1654907D01*
X1653891Y-545011D01*
X1664054Y-539930D02*
X1659989D01*
Y-546028D01*
X1664054D01*
X1659989Y-542979D02*
X1662021D01*
X1670152Y-540946D02*
X1669136Y-539930D01*
X1667103D01*
X1666087Y-540946D01*
Y-545011D01*
X1667103Y-546028D01*
X1669136D01*
X1670152Y-545011D01*
X1672185Y-539930D02*
X1676250D01*
X1674217D01*
Y-546028D01*
X1678283Y-541962D02*
X1679299D01*
Y-542979D01*
X1678283D01*
Y-541962D01*
Y-545011D02*
X1679299D01*
Y-546028D01*
X1678283D01*
Y-545011D01*
X1254598Y-540184D02*
X1250533D01*
Y-546282D01*
X1254598D01*
X1250533Y-543233D02*
X1252565D01*
X1256631Y-546282D02*
Y-540184D01*
X1260696Y-546282D01*
Y-540184D01*
X1266794Y-541200D02*
X1265778Y-540184D01*
X1263745D01*
X1262729Y-541200D01*
Y-545265D01*
X1263745Y-546282D01*
X1265778D01*
X1266794Y-545265D01*
Y-543233D01*
X1264761D01*
X1268827Y-540184D02*
X1270859D01*
X1269843D01*
Y-546282D01*
X1268827D01*
X1270859D01*
X1273908D02*
Y-540184D01*
X1277974Y-546282D01*
Y-540184D01*
X1284072D02*
X1280006D01*
Y-546282D01*
X1284072D01*
X1280006Y-543233D02*
X1282039D01*
X1290170Y-540184D02*
X1286104D01*
Y-546282D01*
X1290170D01*
X1286104Y-543233D02*
X1288137D01*
X1292202Y-546282D02*
Y-540184D01*
X1295251D01*
X1296268Y-541200D01*
Y-543233D01*
X1295251Y-544249D01*
X1292202D01*
X1294235D02*
X1296268Y-546282D01*
X1298300Y-542216D02*
X1299317D01*
Y-543233D01*
X1298300D01*
Y-542216D01*
Y-545265D02*
X1299317D01*
Y-546282D01*
X1298300D01*
Y-545265D01*
X1252625Y-658386D02*
Y-664484D01*
X1255674D01*
X1256690Y-663467D01*
Y-659402D01*
X1255674Y-658386D01*
X1252625D01*
X1258723D02*
Y-664484D01*
X1260755Y-662451D01*
X1262788Y-664484D01*
Y-658386D01*
X1268886Y-659402D02*
X1267870Y-658386D01*
X1265837D01*
X1264821Y-659402D01*
Y-663467D01*
X1265837Y-664484D01*
X1267870D01*
X1268886Y-663467D01*
Y-661435D01*
X1266853D01*
X1277017Y-664484D02*
Y-658386D01*
X1281082Y-664484D01*
Y-658386D01*
X1286164D02*
X1284131D01*
X1283115Y-659402D01*
Y-663467D01*
X1284131Y-664484D01*
X1286164D01*
X1287180Y-663467D01*
Y-659402D01*
X1286164Y-658386D01*
X1289213Y-660418D02*
X1290229D01*
Y-661435D01*
X1289213D01*
Y-660418D01*
Y-663467D02*
X1290229D01*
Y-664484D01*
X1289213D01*
Y-663467D01*
X2167473Y-603686D02*
Y-597588D01*
X2170522D01*
X2171538Y-598604D01*
Y-600637D01*
X2170522Y-601653D01*
X2167473D01*
X2169505D02*
X2171538Y-603686D01*
X2177636Y-597588D02*
X2173571D01*
Y-603686D01*
X2177636D01*
X2173571Y-600637D02*
X2175603D01*
X2179669Y-597588D02*
Y-601653D01*
X2181701Y-603686D01*
X2183734Y-601653D01*
Y-597588D01*
X2185767Y-599620D02*
X2186783D01*
Y-600637D01*
X2185767D01*
Y-599620D01*
Y-602669D02*
X2186783D01*
Y-603686D01*
X2185767D01*
Y-602669D01*
X1251295Y-595302D02*
Y-601400D01*
X1254344D01*
X1255360Y-600383D01*
Y-596318D01*
X1254344Y-595302D01*
X1251295D01*
X1257393Y-601400D02*
Y-597334D01*
X1259425Y-595302D01*
X1261458Y-597334D01*
Y-601400D01*
Y-598351D01*
X1257393D01*
X1263491Y-595302D02*
X1267556D01*
X1265523D01*
Y-601400D01*
X1273654Y-595302D02*
X1269589D01*
Y-601400D01*
X1273654D01*
X1269589Y-598351D02*
X1271621D01*
X1275687Y-597334D02*
X1276703D01*
Y-598351D01*
X1275687D01*
Y-597334D01*
Y-600383D02*
X1276703D01*
Y-601400D01*
X1275687D01*
Y-600383D01*
X1323745Y-618762D02*
X1324761Y-617746D01*
X1326794D01*
X1327810Y-618762D01*
Y-622827D01*
X1326794Y-623844D01*
X1324761D01*
X1323745Y-622827D01*
Y-618762D01*
X1332892Y-623844D02*
Y-617746D01*
X1329843Y-620795D01*
X1333908D01*
X1335941Y-623844D02*
X1340006Y-619778D01*
X1342039Y-623844D02*
X1344071D01*
X1343055D01*
Y-617746D01*
X1342039Y-618762D01*
X1347120Y-622827D02*
X1348137Y-623844D01*
X1350169D01*
X1351186Y-622827D01*
Y-618762D01*
X1350169Y-617746D01*
X1348137D01*
X1347120Y-618762D01*
Y-619778D01*
X1348137Y-620795D01*
X1351186D01*
X1353218Y-623844D02*
X1357284Y-619778D01*
X1363382Y-623844D02*
X1359316D01*
X1363382Y-619778D01*
Y-618762D01*
X1362365Y-617746D01*
X1360333D01*
X1359316Y-618762D01*
X1365414D02*
X1366431Y-617746D01*
X1368463D01*
X1369480Y-618762D01*
Y-622827D01*
X1368463Y-623844D01*
X1366431D01*
X1365414Y-622827D01*
Y-618762D01*
X1375578Y-623844D02*
X1371512D01*
X1375578Y-619778D01*
Y-618762D01*
X1374561Y-617746D01*
X1372529D01*
X1371512Y-618762D01*
X1380659Y-623844D02*
Y-617746D01*
X1377610Y-620795D01*
X1381676D01*
X1660550Y-686326D02*
X1656485D01*
Y-692424D01*
X1660550D01*
X1656485Y-689375D02*
X1658517D01*
X1662583Y-686326D02*
Y-690391D01*
X1664615Y-692424D01*
X1666648Y-690391D01*
Y-686326D01*
X1668681D02*
Y-692424D01*
Y-690391D01*
X1672746Y-686326D01*
X1669697Y-689375D01*
X1672746Y-692424D01*
X1674779Y-689375D02*
X1678844D01*
X1680877Y-692424D02*
Y-686326D01*
X1684942Y-692424D01*
Y-686326D01*
X1690024D02*
X1687991D01*
X1686975Y-687342D01*
Y-691407D01*
X1687991Y-692424D01*
X1690024D01*
X1691040Y-691407D01*
Y-687342D01*
X1690024Y-686326D01*
X1693073Y-692424D02*
Y-686326D01*
X1696122D01*
X1697138Y-687342D01*
Y-689375D01*
X1696122Y-690391D01*
X1693073D01*
X1695105D02*
X1697138Y-692424D01*
X1699171D02*
Y-688358D01*
X1701203Y-686326D01*
X1703236Y-688358D01*
Y-692424D01*
Y-689375D01*
X1699171D01*
X1705269D02*
X1709334D01*
X1711367Y-686326D02*
Y-692424D01*
X1713399Y-690391D01*
X1715432Y-692424D01*
Y-686326D01*
X1720514Y-692424D02*
Y-686326D01*
X1717465Y-689375D01*
X1721530D01*
X1723563Y-687342D02*
X1724579Y-686326D01*
X1726612D01*
X1727628Y-687342D01*
Y-691407D01*
X1726612Y-692424D01*
X1724579D01*
X1723563Y-691407D01*
Y-687342D01*
X1729661Y-692424D02*
Y-691407D01*
X1730677D01*
Y-692424D01*
X1729661D01*
X1734742D02*
Y-686326D01*
X1737791D01*
X1738808Y-687342D01*
Y-689375D01*
X1737791Y-690391D01*
X1734742D01*
X1744906Y-688358D02*
X1741857D01*
X1740840Y-689375D01*
Y-691407D01*
X1741857Y-692424D01*
X1744906D01*
X1746938Y-686326D02*
Y-692424D01*
X1749987D01*
X1751004Y-691407D01*
Y-690391D01*
Y-689375D01*
X1749987Y-688358D01*
X1746938D01*
X1753036Y-686326D02*
Y-692424D01*
X1756085D01*
X1757102Y-691407D01*
Y-687342D01*
X1756085Y-686326D01*
X1753036D01*
X1760151Y-692424D02*
X1762183D01*
X1763200Y-691407D01*
Y-689375D01*
X1762183Y-688358D01*
X1760151D01*
X1759134Y-689375D01*
Y-691407D01*
X1760151Y-692424D01*
X1769298Y-688358D02*
X1766249D01*
X1765232Y-689375D01*
Y-691407D01*
X1766249Y-692424D01*
X1769298D01*
X960903Y-681101D02*
X960612Y-680520D01*
X960032Y-679939D01*
X959451Y-679649D01*
X958289D01*
X957708Y-679939D01*
X957127Y-680520D01*
X956837Y-681101D01*
X956547Y-681972D01*
Y-683424D01*
X956837Y-684296D01*
X957127Y-684876D01*
X957708Y-685457D01*
X958289Y-685748D01*
X959451D01*
X960032Y-685457D01*
X960612Y-684876D01*
X960903Y-684296D01*
X964359Y-679649D02*
X963778Y-679939D01*
X963197Y-680520D01*
X962907Y-681101D01*
X962616Y-681972D01*
Y-683424D01*
X962907Y-684296D01*
X963197Y-684876D01*
X963778Y-685457D01*
X964359Y-685748D01*
X965520D01*
X966101Y-685457D01*
X966682Y-684876D01*
X966973Y-684296D01*
X967263Y-683424D01*
Y-681972D01*
X966973Y-681101D01*
X966682Y-680520D01*
X966101Y-679939D01*
X965520Y-679649D01*
X964359D01*
X968686D02*
Y-685748D01*
Y-679649D02*
X972752Y-685748D01*
Y-679649D02*
Y-685748D01*
X974436Y-679649D02*
Y-685748D01*
Y-679649D02*
X978212D01*
X974436Y-682553D02*
X976759D01*
X978908Y-679649D02*
Y-685748D01*
X980186Y-679649D02*
Y-685748D01*
Y-679649D02*
X982219D01*
X983090Y-679939D01*
X983671Y-680520D01*
X983962Y-681101D01*
X984252Y-681972D01*
Y-683424D01*
X983962Y-684296D01*
X983671Y-684876D01*
X983090Y-685457D01*
X982219Y-685748D01*
X980186D01*
X989392Y-679649D02*
X985617D01*
Y-685748D01*
X989392D01*
X985617Y-682553D02*
X987940D01*
X990409Y-679649D02*
Y-685748D01*
Y-679649D02*
X994475Y-685748D01*
Y-679649D02*
Y-685748D01*
X998192Y-679649D02*
Y-685748D01*
X996159Y-679649D02*
X1000225D01*
X1000951D02*
Y-685748D01*
X1006875D02*
X1004552Y-679649D01*
X1002229Y-685748D01*
X1003100Y-683715D02*
X1006004D01*
X1008298Y-679649D02*
Y-685748D01*
X1011783D01*
X2291485Y1184636D02*
Y1188702D01*
X2293517Y1190734D01*
X2295550Y1188702D01*
Y1184636D01*
Y1187685D01*
X2291485D01*
X2301648Y1189718D02*
X2300632Y1190734D01*
X2298599D01*
X2297583Y1189718D01*
Y1188702D01*
X2298599Y1187685D01*
X2300632D01*
X2301648Y1186669D01*
Y1185653D01*
X2300632Y1184636D01*
X2298599D01*
X2297583Y1185653D01*
X2306730Y1190734D02*
X2304697D01*
X2303681Y1189718D01*
Y1185653D01*
X2304697Y1184636D01*
X2306730D01*
X2307746Y1185653D01*
Y1189718D01*
X2306730Y1190734D01*
X2309779D02*
Y1184636D01*
Y1187685D01*
X2313844D01*
Y1190734D01*
Y1184636D01*
X2123845Y1187178D02*
X2124861Y1188194D01*
X2126894D01*
X2127910Y1187178D01*
Y1183113D01*
X2126894Y1182096D01*
X2124861D01*
X2123845Y1183113D01*
Y1187178D01*
X2129943Y1188194D02*
X2134008D01*
Y1187178D01*
X2129943Y1183113D01*
Y1182096D01*
X2136041D02*
X2140106Y1186162D01*
X2142139Y1182096D02*
X2144171D01*
X2143155D01*
Y1188194D01*
X2142139Y1187178D01*
X2147220Y1183113D02*
X2148237Y1182096D01*
X2150269D01*
X2151286Y1183113D01*
Y1187178D01*
X2150269Y1188194D01*
X2148237D01*
X2147220Y1187178D01*
Y1186162D01*
X2148237Y1185145D01*
X2151286D01*
X2153318Y1182096D02*
X2157384Y1186162D01*
X2163482Y1182096D02*
X2159416D01*
X2163482Y1186162D01*
Y1187178D01*
X2162465Y1188194D01*
X2160433D01*
X2159416Y1187178D01*
X2165514D02*
X2166531Y1188194D01*
X2168563D01*
X2169580Y1187178D01*
Y1183113D01*
X2168563Y1182096D01*
X2166531D01*
X2165514Y1183113D01*
Y1187178D01*
X2175678Y1182096D02*
X2171612D01*
X2175678Y1186162D01*
Y1187178D01*
X2174661Y1188194D01*
X2172629D01*
X2171612Y1187178D01*
X2180759Y1182096D02*
Y1188194D01*
X2177710Y1185145D01*
X2181776D01*
D12*
X371137Y187467D02*
X417844D01*
Y234174D01*
X371137D02*
X417844D01*
X371137Y187467D02*
Y234174D01*
X538777Y320788D02*
X585484D01*
Y274081D02*
Y320788D01*
X538777Y274081D02*
X585484D01*
X538777D02*
Y320788D01*
X2091259Y-27839D02*
X2324939D01*
X2091259D02*
Y-3709D01*
X2324939Y-27839D02*
Y-3709D01*
X2091259D02*
X2324939D01*
D14*
X2103959Y212445D02*
X2299539D01*
X2350339Y-496844D02*
Y249916D01*
X2063319D02*
X2350339D01*
X2063319Y-496844D02*
Y249916D01*
Y-496844D02*
X2350339D01*
D15*
X620000Y21000D02*
Y31000D01*
X615000Y26000D02*
X625000D01*
X617300Y106934D02*
X627300D01*
X622300Y101934D02*
Y111934D01*
X600000Y449660D02*
Y459660D01*
X595000Y454660D02*
X605000D01*
X793750Y45546D02*
Y55546D01*
X788750Y50546D02*
X798750D01*
X392580Y625720D02*
Y695720D01*
X312580Y625720D02*
X392580D01*
X312580D02*
Y695720D01*
X392580D01*
X481740Y145240D02*
X485040D01*
X483390Y143590D02*
Y146890D01*
X389490Y210820D02*
X399490D01*
X394490Y205820D02*
Y215820D01*
X791286Y637134D02*
X862899D01*
X791286D02*
Y688940D01*
X862899D01*
Y637134D02*
Y688940D01*
X4000Y624000D02*
X106000D01*
X4000Y96000D02*
Y624000D01*
Y96000D02*
X106000D01*
Y624000D01*
X475889Y118024D02*
Y145765D01*
X441696Y118024D02*
X475889D01*
X441696D02*
Y145765D01*
X475889D01*
X798350Y165180D02*
Y175180D01*
X793350Y170180D02*
X803350D01*
X930109Y629875D02*
Y668585D01*
X897851Y629875D02*
X930109D01*
X897851D02*
Y668585D01*
X930109D01*
X363391Y487611D02*
X435649D01*
Y615353D01*
X363391Y487611D02*
Y615353D01*
X435649D01*
X782335Y437048D02*
X861045D01*
X782335Y335112D02*
Y437048D01*
Y335112D02*
X861045D01*
Y437048D01*
X474194Y348871D02*
Y420484D01*
Y348871D02*
X525806D01*
X474194Y420484D02*
X525806D01*
Y348871D02*
Y420484D01*
X860124Y166370D02*
X870124D01*
X865124Y161370D02*
Y171370D01*
X425050Y123190D02*
X435050D01*
X430050Y118190D02*
Y128190D01*
X381508Y100156D02*
Y110156D01*
X376508Y105156D02*
X386508D01*
X682070Y76200D02*
X692070D01*
X687070Y71200D02*
Y81200D01*
X716356Y637134D02*
X787969D01*
X716356D02*
Y688940D01*
X787969D01*
Y637134D02*
Y688940D01*
X860196Y13284D02*
Y84897D01*
X808390Y13284D02*
X860196D01*
X808390D02*
Y84897D01*
X860196D01*
X641426Y637134D02*
X713039D01*
X641426D02*
Y688940D01*
X713039D01*
Y637134D02*
Y688940D01*
X436000Y449660D02*
Y459660D01*
X431000Y454660D02*
X441000D01*
X557130Y297434D02*
X567130D01*
X562130Y292434D02*
Y302434D01*
X564355Y615351D02*
X636613D01*
X564355Y487609D02*
Y615351D01*
X636613Y487609D02*
Y615351D01*
X564355Y487609D02*
X636613D01*
X894000Y624000D02*
X996000D01*
X894000Y96000D02*
Y624000D01*
Y96000D02*
X996000D01*
Y624000D01*
X380000Y21000D02*
Y31000D01*
X375000Y26000D02*
X385000D01*
D16*
X-301915Y-710874D02*
X2390485D01*
X-301915D02*
Y1346526D01*
X-352655Y-761004D02*
Y1397996D01*
X-352715Y857576D02*
X-301915D01*
X-352715Y317826D02*
X-301915D01*
X-352715Y-221924D02*
X-301915D01*
X345785Y-761674D02*
Y-710874D01*
X1044285Y-761674D02*
Y-710874D01*
X1742785Y-761674D02*
Y-710874D01*
X-301915Y1346526D02*
X2390485D01*
X345785D02*
Y1397326D01*
X1044285Y1346526D02*
Y1397326D01*
X1742785Y1346526D02*
Y1397326D01*
X-352655Y1397996D02*
X2441345D01*
Y-761004D02*
Y1397996D01*
X2390485Y-710874D02*
Y1346526D01*
Y857576D02*
X2441285D01*
X2390485Y317826D02*
X2441285D01*
X2390485Y-221924D02*
X2441285D01*
X-352655Y-761004D02*
X2441345D01*
X1516785Y1131296D02*
Y1347196D01*
Y1131296D02*
X2390545D01*
X1516785Y1169396D02*
X2390485D01*
X1516785Y1245596D02*
X2390545D01*
X1516785Y1207496D02*
X2390485D01*
X1516785Y1288776D02*
X2390485D01*
X1608225Y1131296D02*
Y1288776D01*
X2103525Y1131296D02*
Y1288776D01*
X2273705Y1131296D02*
Y1288776D01*
X1628485Y-558474D02*
Y-521898D01*
X1247485D02*
X1628485D01*
X818285D02*
X1247485D01*
X1628485Y-710874D02*
Y-558474D01*
X2161885Y-710874D02*
Y-581080D01*
X1247485Y-710874D02*
Y-521898D01*
X2390485Y-710874D02*
Y-521898D01*
X1628485D02*
X2390485D01*
X1247485Y-580318D02*
X2390485D01*
X1247485Y-643564D02*
X2390485D01*
X1247485Y-710874D02*
X2390485D01*
X818285D02*
Y-521898D01*
Y-710874D02*
X1247485D01*
D21*
X2115389Y-15774D02*
D03*
D22*
X-0Y30000D02*
G03*
X30000Y0I30000J-0D01*
G01*
X30000Y700000D02*
G03*
X-0Y670000I-1J-29999D01*
G01*
X1000000Y670000D02*
G03*
X970000Y700000I-30000J0D01*
G01*
X970000Y0D02*
G03*
X1000000Y30000I0J30000D01*
G01*
X-0Y30000D02*
Y670000D01*
X30000Y700000D02*
X970000D01*
X1000000Y30000D02*
Y670000D01*
X30000Y0D02*
X970000Y0D01*
D190*
X470000Y361000D02*
Y419000D01*
X390000D02*
X470000D01*
X390000Y361000D02*
Y419000D01*
Y361000D02*
X470000D01*
X469420Y87630D02*
Y115570D01*
Y87630D02*
X522760D01*
Y115570D01*
X469420D02*
X522760D01*
X610000Y361000D02*
Y419000D01*
X530000D02*
X610000D01*
X530000Y361000D02*
Y419000D01*
Y361000D02*
X610000D01*
D215*
X479854Y502560D02*
Y521310D01*
X519854Y502560D02*
Y521310D01*
X479854D02*
X519854D01*
X479854Y502560D02*
X519854D01*
X494854Y511810D02*
X504854D01*
X499854Y506810D02*
Y516810D01*
X630682Y206042D02*
Y212042D01*
X627682Y209042D02*
X633682D01*
X620932Y197292D02*
Y220792D01*
X640432D01*
Y197292D02*
Y220792D01*
X620932Y197292D02*
X640432D01*
X570000Y0D02*
X671000D01*
X570000Y80000D02*
X671000D01*
Y0D02*
Y80000D01*
X570000Y0D02*
Y80000D01*
X699360Y2540D02*
Y96520D01*
Y2540D02*
X780640D01*
Y96520D01*
X699360D02*
X780640D01*
X418388Y315252D02*
X452888D01*
Y288252D02*
Y315252D01*
X418388Y288252D02*
X452888D01*
X418388D02*
Y315252D01*
X632550Y96684D02*
Y117184D01*
X612050Y96684D02*
Y117184D01*
X632550D01*
X612050Y96684D02*
X632550D01*
X461182Y167372D02*
Y197372D01*
X419182Y167372D02*
X461182D01*
X419182Y197372D02*
X461182D01*
X419182Y167372D02*
Y197372D01*
X438182Y182372D02*
X442182D01*
X440182Y180372D02*
Y184372D01*
X826440Y578900D02*
Y614900D01*
Y578900D02*
X880440D01*
Y614900D01*
X826440D02*
X880440D01*
X557000Y482660D02*
X643000D01*
X557000Y426660D02*
X643000D01*
X557000D02*
Y482660D01*
X643000Y426660D02*
Y482660D01*
X796890Y621950D02*
X821090D01*
Y609950D02*
Y621950D01*
X796890Y609950D02*
X821090D01*
X796890D02*
Y621950D01*
X878840Y45264D02*
Y51264D01*
X875840Y48514D02*
X882090D01*
X871340Y44514D02*
X885840D01*
X871340Y52514D02*
X885840D01*
Y44514D02*
Y52514D01*
X871340Y44514D02*
Y52514D01*
X783750Y27546D02*
X803750D01*
X783750Y73546D02*
X803750D01*
X783750Y27546D02*
Y73546D01*
X803750Y27546D02*
Y73546D01*
X775000Y493650D02*
Y500000D01*
Y493650D02*
Y506350D01*
Y500000D02*
Y506350D01*
Y500000D02*
X781350D01*
X768650D02*
X781350D01*
X670860Y470790D02*
X879140D01*
X670860D02*
Y527940D01*
X879140D01*
Y470790D02*
Y527940D01*
Y242190D02*
Y299340D01*
X670860D02*
X879140D01*
X670860Y242190D02*
Y299340D01*
Y242190D02*
X879140D01*
X768650Y271400D02*
X781350D01*
X775000D02*
X781350D01*
X775000D02*
Y277750D01*
Y265050D02*
Y277750D01*
Y265050D02*
Y271400D01*
X785448Y97028D02*
X795448D01*
X790448Y92028D02*
Y102028D01*
X488950Y118440D02*
Y127940D01*
X484200Y123190D02*
X493700D01*
X807720Y569770D02*
Y575770D01*
X804720Y572770D02*
X810720D01*
X716000Y400860D02*
Y406860D01*
X713000Y403860D02*
X719000D01*
X479890Y138240D02*
Y152240D01*
X486890Y138240D02*
Y152240D01*
X479890Y138240D02*
X486890D01*
X479890Y152240D02*
X486890D01*
X562776Y222592D02*
X615276D01*
X562776Y170092D02*
Y222592D01*
Y170092D02*
X615276D01*
Y222592D01*
X680631Y176838D02*
X723131D01*
X680631Y134338D02*
Y176838D01*
Y134338D02*
X723131D01*
Y176838D01*
X502930Y170602D02*
Y177602D01*
X499430Y174102D02*
X506430D01*
X485430Y156602D02*
X520430D01*
Y191602D01*
X485430D02*
X520430D01*
X485430Y156602D02*
Y191602D01*
X553900Y551900D02*
Y698900D01*
X445900Y551900D02*
X553900D01*
X500900Y625400D02*
Y635400D01*
X495900Y630400D02*
X505900D01*
X445900Y698900D02*
X553900D01*
X445900Y551900D02*
Y698900D01*
X150300Y544080D02*
Y696080D01*
X306300D01*
X150300Y544080D02*
X306300D01*
Y696080D01*
X235300Y630080D02*
Y650080D01*
X225300Y640080D02*
X245300D01*
X884778Y646856D02*
Y653856D01*
X881278Y650356D02*
X888278D01*
X873856Y635370D02*
X895700D01*
Y665342D01*
X873856D02*
X895700D01*
X873856Y635370D02*
Y665342D01*
X745500Y399110D02*
Y408610D01*
X740750Y403860D02*
X750250D01*
X733500Y409860D02*
X757500D01*
X733500Y397860D02*
X757500D01*
X733500D02*
Y409860D01*
X757500Y397860D02*
Y409860D01*
X892048Y13284D02*
Y22784D01*
X887298Y18034D02*
X896798D01*
X880048Y12034D02*
X904048D01*
X880048Y24034D02*
X904048D01*
Y12034D02*
Y24034D01*
X880048Y12034D02*
Y24034D01*
X705212Y185420D02*
X715212D01*
X710212Y180420D02*
Y190420D01*
X417350Y242650D02*
Y252650D01*
X412350Y247650D02*
X422350D01*
X328684Y349556D02*
Y419556D01*
X262684D02*
X328684D01*
X292684Y384556D02*
X298684D01*
X295684Y381556D02*
Y387556D01*
X262684Y349556D02*
X328684D01*
X262684D02*
Y419556D01*
X780850Y153630D02*
X815850D01*
X780850Y186730D02*
X815850D01*
X780850Y153630D02*
Y186730D01*
X815850Y153630D02*
Y186730D01*
X739982Y148590D02*
X749982D01*
X744982Y143590D02*
Y153590D01*
X780900Y213360D02*
X790400D01*
X785650Y208610D02*
Y218110D01*
X870674Y63818D02*
Y71818D01*
X888174Y63818D02*
Y71818D01*
X870674D02*
X888174D01*
X870674Y63818D02*
X888174D01*
X491980Y53340D02*
X497980D01*
X494980Y50340D02*
Y56340D01*
X93900Y648180D02*
Y695680D01*
X143900Y695680D01*
Y648180D02*
Y695680D01*
X93900Y648180D02*
X143900Y648180D01*
X118900Y676180D02*
Y680180D01*
X116900Y678180D02*
X120900D01*
X358816Y129222D02*
X376316D01*
X358816Y121222D02*
X376316D01*
X358816D02*
Y129222D01*
X376316Y121222D02*
Y129222D01*
X377358Y121222D02*
X394858D01*
X377358Y129222D02*
X394858D01*
Y121222D02*
Y129222D01*
X377358Y121222D02*
Y129222D01*
X520538Y503568D02*
Y521068D01*
X528538Y503568D02*
Y521068D01*
X520538Y503568D02*
X528538D01*
X520538Y521068D02*
X528538D01*
X471008Y520814D02*
X479008D01*
X471008Y503314D02*
X479008D01*
Y520814D01*
X471008Y503314D02*
Y520814D01*
X809780Y124790D02*
Y134290D01*
X805030Y129540D02*
X814530D01*
X687716Y214376D02*
X697716D01*
X692716Y209376D02*
Y219376D01*
X692750Y105880D02*
Y123380D01*
X700750Y105880D02*
Y123380D01*
X692750Y105880D02*
X700750D01*
X692750Y123380D02*
X700750D01*
X679110Y124270D02*
X696610D01*
X679110Y132270D02*
X696610D01*
Y124270D02*
Y132270D01*
X679110Y124270D02*
Y132270D01*
X875124Y143370D02*
Y189370D01*
X855124Y143370D02*
Y189370D01*
X875124D01*
X855124Y143370D02*
X875124D01*
X420050Y100190D02*
Y146190D01*
X440050Y100190D02*
Y146190D01*
X420050Y100190D02*
X440050D01*
X420050Y146190D02*
X440050D01*
X371258Y94906D02*
X391758D01*
X371258Y115406D02*
X391758D01*
X371258Y94906D02*
Y115406D01*
X391758Y94906D02*
Y115406D01*
X697070Y53200D02*
Y99200D01*
X677070Y53200D02*
Y99200D01*
X697070D01*
X677070Y53200D02*
X697070D01*
X745500Y362280D02*
Y371780D01*
X740750Y367030D02*
X750250D01*
X733500Y373030D02*
X757500D01*
X733500Y361030D02*
X757500D01*
X733500D02*
Y373030D01*
X757500Y361030D02*
Y373030D01*
X745500Y349580D02*
Y359080D01*
X740750Y354330D02*
X750250D01*
X733500Y360330D02*
X757500D01*
X733500Y348330D02*
X757500D01*
X733500D02*
Y360330D01*
X757500Y348330D02*
Y360330D01*
X745500Y386410D02*
Y395910D01*
X740750Y391160D02*
X750250D01*
X733500Y397160D02*
X757500D01*
X733500Y385160D02*
X757500D01*
X733500D02*
Y397160D01*
X757500Y385160D02*
Y397160D01*
X745500Y373710D02*
Y383210D01*
X740750Y378460D02*
X750250D01*
X733500Y384460D02*
X757500D01*
X733500Y372460D02*
X757500D01*
X733500D02*
Y384460D01*
X757500Y372460D02*
Y384460D01*
X745500Y411810D02*
Y421310D01*
X740750Y416560D02*
X750250D01*
X733500Y422560D02*
X757500D01*
X733500Y410560D02*
X757500D01*
X733500D02*
Y422560D01*
X757500Y410560D02*
Y422560D01*
X406000Y112000D02*
X416000D01*
X411000Y107000D02*
Y117000D01*
X647018Y112000D02*
X657018D01*
X652018Y107000D02*
Y117000D01*
X507064Y123190D02*
X517064D01*
X512064Y118190D02*
Y128190D01*
X592690Y270764D02*
X602690D01*
X597690Y265764D02*
Y275764D01*
X349278Y562150D02*
Y568150D01*
X346278Y565150D02*
X352278D01*
X341278Y569150D02*
X357278D01*
X341278Y561150D02*
X357278D01*
X341278D02*
Y569150D01*
X357278Y561150D02*
Y569150D01*
X349342Y578914D02*
Y584914D01*
X346342Y581914D02*
X352342D01*
X341342Y585914D02*
X357342D01*
X341342Y577914D02*
X357342D01*
X341342D02*
Y585914D01*
X357342Y577914D02*
Y585914D01*
X516854Y523034D02*
Y529034D01*
X513854Y526034D02*
X519854D01*
X508854Y522034D02*
X524854D01*
X508854Y530034D02*
X524854D01*
Y522034D02*
Y530034D01*
X508854Y522034D02*
Y530034D01*
X482882Y523034D02*
Y529034D01*
X479882Y526034D02*
X485882D01*
X474882Y530034D02*
X490882D01*
X474882Y522034D02*
X490882D01*
X474882D02*
Y530034D01*
X490882Y522034D02*
Y530034D01*
X602770Y542080D02*
Y548080D01*
X599770Y545080D02*
X605770D01*
X594770Y549080D02*
X610770D01*
X594770Y541080D02*
X610770D01*
X594770D02*
Y549080D01*
X610770Y541080D02*
Y549080D01*
X602770Y516684D02*
Y522684D01*
X599770Y519684D02*
X605770D01*
X594770Y523684D02*
X610770D01*
X594770Y515684D02*
X610770D01*
X594770D02*
Y523684D01*
X610770Y515684D02*
Y523684D01*
X602770Y529380D02*
Y535380D01*
X599770Y532380D02*
X605770D01*
X594770Y536380D02*
X610770D01*
X594770Y528380D02*
X610770D01*
X594770D02*
Y536380D01*
X610770Y528380D02*
Y536380D01*
X492808Y530098D02*
X498808D01*
X495808Y527098D02*
Y533098D01*
X500936Y530098D02*
X506936D01*
X503936Y527098D02*
Y533098D01*
X400586Y554784D02*
Y560784D01*
X397586Y557784D02*
X403586D01*
X392586Y553784D02*
X408586D01*
X392586Y561784D02*
X408586D01*
Y553784D02*
Y561784D01*
X392586Y553784D02*
Y561784D01*
X400586Y567484D02*
Y573484D01*
X397586Y570484D02*
X403586D01*
X392586Y566484D02*
X408586D01*
X392586Y574484D02*
X408586D01*
Y566484D02*
Y574484D01*
X392586Y566484D02*
Y574484D01*
X602770Y554784D02*
Y560784D01*
X599770Y557784D02*
X605770D01*
X400586Y592884D02*
Y598884D01*
X397586Y595884D02*
X403586D01*
X392586Y591884D02*
X408586D01*
X392586Y599884D02*
X408586D01*
Y591884D02*
Y599884D01*
X392586Y591884D02*
Y599884D01*
X400586Y580184D02*
Y586184D01*
X397586Y583184D02*
X403586D01*
X392586Y579184D02*
X408586D01*
X392586Y587184D02*
X408586D01*
Y579184D02*
Y587184D01*
X392586Y579184D02*
Y587184D01*
X394510Y89662D02*
X400510D01*
X397510Y86662D02*
Y92662D01*
X393510Y81662D02*
Y97662D01*
X401510Y81662D02*
Y97662D01*
X393510Y81662D02*
X401510D01*
X393510Y97662D02*
X401510D01*
X361744Y89408D02*
X367744D01*
X364744Y86408D02*
Y92408D01*
X360744Y81408D02*
Y97408D01*
X368744Y81408D02*
Y97408D01*
X360744Y81408D02*
X368744D01*
X360744Y97408D02*
X368744D01*
X427256Y91234D02*
Y97234D01*
X424256Y94234D02*
X430256D01*
X419256Y90234D02*
X435256D01*
X419256Y98234D02*
X435256D01*
Y90234D02*
Y98234D01*
X419256Y90234D02*
Y98234D01*
X620704Y617522D02*
Y623522D01*
X617704Y620522D02*
X623704D01*
X602516Y592884D02*
Y598884D01*
X599516Y595884D02*
X605516D01*
X594516Y591884D02*
X610516D01*
X594516Y599884D02*
X610516D01*
Y591884D02*
Y599884D01*
X594516Y591884D02*
Y599884D01*
X633540Y97916D02*
X641540D01*
X633540Y81916D02*
X641540D01*
Y97916D01*
X633540Y81916D02*
Y97916D01*
X637540Y86916D02*
Y92916D01*
X634540Y89916D02*
X640540D01*
X601012Y95948D02*
X607012D01*
X604012Y92948D02*
Y98948D01*
X600012Y87948D02*
Y103948D01*
X608012Y87948D02*
Y103948D01*
X600012Y87948D02*
X608012D01*
X600012Y103948D02*
X608012D01*
X667162Y91155D02*
Y97155D01*
X664162Y94155D02*
X670162D01*
X659162Y90155D02*
X675162D01*
X659162Y98155D02*
X675162D01*
Y90155D02*
Y98155D01*
X659162Y90155D02*
Y98155D01*
X602516Y580184D02*
Y586184D01*
X599516Y583184D02*
X605516D01*
X594516Y579184D02*
X610516D01*
X594516Y587184D02*
X610516D01*
Y579184D02*
Y587184D01*
X594516Y579184D02*
Y587184D01*
X396712Y503984D02*
Y509984D01*
X393712Y506984D02*
X399712D01*
X388712Y502984D02*
X404712D01*
X388712Y510984D02*
X404712D01*
Y502984D02*
Y510984D01*
X388712Y502984D02*
Y510984D01*
X396776Y516684D02*
Y522684D01*
X393776Y519684D02*
X399776D01*
X388776Y515684D02*
X404776D01*
X388776Y523684D02*
X404776D01*
Y515684D02*
Y523684D01*
X388776Y515684D02*
Y523684D01*
X388712Y528384D02*
Y536384D01*
X404712Y528384D02*
Y536384D01*
X388712D02*
X404712D01*
X388712Y528384D02*
X404712D01*
X393712Y532384D02*
X399712D01*
X396712Y529384D02*
Y535384D01*
X780650Y133350D02*
X790650D01*
X785650Y128350D02*
Y138350D01*
X811148Y192850D02*
Y200850D01*
X795148Y192850D02*
Y200850D01*
Y192850D02*
X811148D01*
X795148Y200850D02*
X811148D01*
X800148Y196850D02*
X806148D01*
X803148Y193850D02*
Y199850D01*
X800430Y205740D02*
X806430D01*
X803430Y202740D02*
Y208740D01*
X813970Y138240D02*
Y146240D01*
X797970Y138240D02*
Y146240D01*
Y138240D02*
X813970D01*
X797970Y146240D02*
X813970D01*
X802970Y142240D02*
X808970D01*
X805970Y139240D02*
Y145240D01*
X833020Y138240D02*
Y146240D01*
X817020Y138240D02*
Y146240D01*
Y138240D02*
X833020D01*
X817020Y146240D02*
X833020D01*
X822020Y142240D02*
X828020D01*
X825020Y139240D02*
Y145240D01*
X829210Y201740D02*
Y209740D01*
X813210Y201740D02*
Y209740D01*
Y201740D02*
X829210D01*
X813210Y209740D02*
X829210D01*
X818210Y205740D02*
X824210D01*
X821210Y202740D02*
Y208740D01*
X829210Y192850D02*
Y200850D01*
X813210Y192850D02*
Y200850D01*
Y192850D02*
X829210D01*
X813210Y200850D02*
X829210D01*
X818210Y196850D02*
X824210D01*
X821210Y193850D02*
Y199850D01*
X705720Y115570D02*
X715720D01*
X710720Y110570D02*
Y120570D01*
X687670Y180214D02*
X695670D01*
X687670Y196214D02*
X695670D01*
X687670Y180214D02*
Y196214D01*
X695670Y180214D02*
Y196214D01*
X691670Y185214D02*
Y191214D01*
X688670Y188214D02*
X694670D01*
X452882Y148130D02*
Y154130D01*
X449882Y151130D02*
X455882D01*
X444882Y155130D02*
X460882D01*
X444882Y147130D02*
X460882D01*
X444882D02*
Y155130D01*
X460882Y147130D02*
Y155130D01*
X456232Y106934D02*
X462232D01*
X459232Y103934D02*
Y109934D01*
X455232Y98934D02*
Y114934D01*
X463232Y98934D02*
Y114934D01*
X455232Y98934D02*
X463232D01*
X455232Y114934D02*
X463232D01*
X527860Y183896D02*
X533860D01*
X530860Y180896D02*
Y186896D01*
X534860Y175896D02*
Y191896D01*
X526860Y175896D02*
Y191896D01*
X534860D01*
X526860Y175896D02*
X534860D01*
X506250Y137490D02*
Y146990D01*
X501500Y142240D02*
X511000D01*
X470154Y172514D02*
Y178514D01*
X467154Y175514D02*
X473154D01*
X462154Y171514D02*
X478154D01*
X462154Y179514D02*
X478154D01*
Y171514D02*
Y179514D01*
X462154Y171514D02*
Y179514D01*
X489280Y144780D02*
X495280D01*
X492280Y141780D02*
Y147780D01*
X496280Y136780D02*
Y152780D01*
X488280Y136780D02*
Y152780D01*
X496280D01*
X488280Y136780D02*
X496280D01*
X470054Y163576D02*
Y169576D01*
X467054Y166576D02*
X473054D01*
X462054Y162576D02*
X478054D01*
X462054Y170576D02*
X478054D01*
Y162576D02*
Y170576D01*
X462054Y162576D02*
Y170576D01*
X478064Y153544D02*
Y161544D01*
X462064Y153544D02*
Y161544D01*
Y153544D02*
X478064D01*
X462064Y161544D02*
X478064D01*
X467064Y157544D02*
X473064D01*
X470064Y154544D02*
Y160544D01*
X495328Y454200D02*
Y460200D01*
X492328Y457200D02*
X498328D01*
X487328Y453200D02*
X503328D01*
X487328Y461200D02*
X503328D01*
Y453200D02*
Y461200D01*
X487328Y453200D02*
Y461200D01*
X509090Y477774D02*
X515090D01*
X512090Y474774D02*
Y480774D01*
X508090Y469774D02*
Y485774D01*
X516090Y469774D02*
Y485774D01*
X508090Y469774D02*
X516090D01*
X508090Y485774D02*
X516090D01*
X499460D02*
X507460D01*
X499460Y469774D02*
X507460D01*
Y485774D01*
X499460Y469774D02*
Y485774D01*
X503460Y474774D02*
Y480774D01*
X500460Y477774D02*
X506460D01*
X375440Y445310D02*
Y451310D01*
X372440Y448310D02*
X378440D01*
X367440Y452310D02*
X383440D01*
X367440Y444310D02*
X383440D01*
X367440D02*
Y452310D01*
X383440Y444310D02*
Y452310D01*
X375440Y462836D02*
Y468836D01*
X372440Y465836D02*
X378440D01*
X367440Y461836D02*
X383440D01*
X367440Y469836D02*
X383440D01*
Y461836D02*
Y469836D01*
X367440Y461836D02*
Y469836D01*
X375440Y454200D02*
Y460200D01*
X372440Y457200D02*
X378440D01*
X367440Y461200D02*
X383440D01*
X367440Y453200D02*
X383440D01*
X367440D02*
Y461200D01*
X383440Y453200D02*
Y461200D01*
X495328Y436674D02*
Y442674D01*
X492328Y439674D02*
X498328D01*
X487328Y435674D02*
X503328D01*
X487328Y443674D02*
X503328D01*
Y435674D02*
Y443674D01*
X487328Y435674D02*
Y443674D01*
X539358Y457886D02*
Y463886D01*
X536358Y460886D02*
X542358D01*
X531358Y464886D02*
X547358D01*
X531358Y456886D02*
X547358D01*
X531358D02*
Y464886D01*
X547358Y456886D02*
Y464886D01*
X524586Y443428D02*
X530586D01*
X527586Y440428D02*
Y446428D01*
X523586Y435428D02*
Y451428D01*
X531586Y435428D02*
Y451428D01*
X523586Y435428D02*
X531586D01*
X523586Y451428D02*
X531586D01*
X515442Y443428D02*
X521442D01*
X518442Y440428D02*
Y446428D01*
X514442Y435428D02*
Y451428D01*
X522442Y435428D02*
Y451428D01*
X514442Y435428D02*
X522442D01*
X514442Y451428D02*
X522442D01*
X659028Y460377D02*
Y466377D01*
X656028Y463377D02*
X662028D01*
X651028Y459377D02*
X667028D01*
X651028Y467377D02*
X667028D01*
Y459377D02*
Y467377D01*
X651028Y459377D02*
Y467377D01*
X673055Y428594D02*
Y434594D01*
X670055Y431594D02*
X676055D01*
X665055Y435594D02*
X681055D01*
X665055Y427594D02*
X681055D01*
X665055D02*
Y435594D01*
X681055Y427594D02*
Y435594D01*
X651840Y431928D02*
X657840D01*
X654840Y428928D02*
Y434928D01*
X650840Y423928D02*
Y439928D01*
X658840Y423928D02*
Y439928D01*
X650840Y423928D02*
X658840D01*
X650840Y439928D02*
X658840D01*
X659028Y451233D02*
Y457233D01*
X656028Y454233D02*
X662028D01*
X651028Y450233D02*
X667028D01*
X651028Y458233D02*
X667028D01*
Y450233D02*
Y458233D01*
X651028Y450233D02*
Y458233D01*
X673055Y437484D02*
Y443484D01*
X670055Y440484D02*
X676055D01*
X665055Y444484D02*
X681055D01*
X665055Y436484D02*
X681055D01*
X665055D02*
Y444484D01*
X681055Y436484D02*
Y444484D01*
X539358Y475412D02*
Y481412D01*
X536358Y478412D02*
X542358D01*
X531358Y482412D02*
X547358D01*
X531358Y474412D02*
X547358D01*
X531358D02*
Y482412D01*
X547358Y474412D02*
Y482412D01*
X539358Y466522D02*
Y472522D01*
X536358Y469522D02*
X542358D01*
X531358Y465522D02*
X547358D01*
X531358Y473522D02*
X547358D01*
Y465522D02*
Y473522D01*
X531358Y465522D02*
Y473522D01*
X824230Y351330D02*
Y357330D01*
X821230Y354330D02*
X827230D01*
X816230Y350330D02*
X832230D01*
X816230Y358330D02*
X832230D01*
Y350330D02*
Y358330D01*
X816230Y350330D02*
Y358330D01*
X824230Y364030D02*
Y370030D01*
X821230Y367030D02*
X827230D01*
X816230Y363030D02*
X832230D01*
X816230Y371030D02*
X832230D01*
Y363030D02*
Y371030D01*
X816230Y363030D02*
Y371030D01*
X824230Y376730D02*
Y382730D01*
X821230Y379730D02*
X827230D01*
X816230Y375730D02*
X832230D01*
X816230Y383730D02*
X832230D01*
Y375730D02*
Y383730D01*
X816230Y375730D02*
Y383730D01*
Y388430D02*
Y396430D01*
X832230Y388430D02*
Y396430D01*
X816230D02*
X832230D01*
X816230Y388430D02*
X832230D01*
X821230Y392430D02*
X827230D01*
X824230Y389430D02*
Y395430D01*
Y402130D02*
Y408130D01*
X821230Y405130D02*
X827230D01*
X816230Y401130D02*
X832230D01*
X816230Y409130D02*
X832230D01*
Y401130D02*
Y409130D01*
X816230Y401130D02*
Y409130D01*
Y413830D02*
Y421830D01*
X832230Y413830D02*
Y421830D01*
X816230D02*
X832230D01*
X816230Y413830D02*
X832230D01*
X821230Y417830D02*
X827230D01*
X824230Y414830D02*
Y420830D01*
X573862Y156464D02*
X579862D01*
X576862Y153464D02*
Y159464D01*
X572862Y148464D02*
Y164464D01*
X580862Y148464D02*
Y164464D01*
X572862Y148464D02*
X580862D01*
X572862Y164464D02*
X580862D01*
X591376D02*
X599376D01*
X591376Y148464D02*
X599376D01*
Y164464D01*
X591376Y148464D02*
Y164464D01*
X595376Y153464D02*
Y159464D01*
X592376Y156464D02*
X598376D01*
X548970Y170180D02*
X554970D01*
X551970Y167180D02*
Y173180D01*
X555970Y162180D02*
Y178180D01*
X547970Y162180D02*
Y178180D01*
X555970D01*
X547970Y162180D02*
X555970D01*
X587150Y247714D02*
Y255714D01*
X603150Y247714D02*
Y255714D01*
X587150D02*
X603150D01*
X587150Y247714D02*
X603150D01*
X592150Y251714D02*
X598150D01*
X595150Y248714D02*
Y254714D01*
X587150Y256604D02*
Y264604D01*
X603150Y256604D02*
Y264604D01*
X587150D02*
X603150D01*
X587150Y256604D02*
X603150D01*
X592150Y260604D02*
X598150D01*
X595150Y257604D02*
Y263604D01*
X582740Y148464D02*
X590740D01*
X582740Y164464D02*
X590740D01*
X582740Y148464D02*
Y164464D01*
X590740Y148464D02*
Y164464D01*
X586740Y153464D02*
Y159464D01*
X583740Y156464D02*
X589740D01*
X563972Y164464D02*
X571972D01*
X563972Y148464D02*
X571972D01*
Y164464D01*
X563972Y148464D02*
Y164464D01*
X567972Y153464D02*
Y159464D01*
X564972Y156464D02*
X570972D01*
X601774D02*
X607774D01*
X604774Y153464D02*
Y159464D01*
X608774Y148464D02*
Y164464D01*
X600774Y148464D02*
Y164464D01*
X608774D01*
X600774Y148464D02*
X608774D01*
X595630Y325930D02*
Y331930D01*
X592630Y328930D02*
X598630D01*
X592630Y320040D02*
X598630D01*
X595630Y317040D02*
Y323040D01*
X433162Y238634D02*
X441162D01*
X433162Y254634D02*
X441162D01*
X433162Y238634D02*
Y254634D01*
X441162Y238634D02*
Y254634D01*
X437162Y243634D02*
Y249634D01*
X434162Y246634D02*
X440162D01*
X424018Y238634D02*
X432018D01*
X424018Y254634D02*
X432018D01*
X424018Y238634D02*
Y254634D01*
X432018Y238634D02*
Y254634D01*
X428018Y243634D02*
Y249634D01*
X425018Y246634D02*
X431018D01*
X611962Y234950D02*
X617962D01*
X614962Y231950D02*
Y237950D01*
X368630Y247650D02*
X374630D01*
X371630Y244650D02*
Y250650D01*
X380520Y244650D02*
Y250650D01*
X377520Y247650D02*
X383520D01*
X399698Y299022D02*
Y307022D01*
X415698Y299022D02*
Y307022D01*
X399698D02*
X415698D01*
X399698Y299022D02*
X415698D01*
X404698Y303022D02*
X410698D01*
X407698Y300022D02*
Y306022D01*
X470308Y305372D02*
Y313372D01*
X454308Y305372D02*
Y313372D01*
Y305372D02*
X470308D01*
X454308Y313372D02*
X470308D01*
X459308Y309372D02*
X465308D01*
X462308Y306372D02*
Y312372D01*
X415698Y290132D02*
Y298132D01*
X399698Y290132D02*
Y298132D01*
Y290132D02*
X415698D01*
X399698Y298132D02*
X415698D01*
X404698Y294132D02*
X410698D01*
X407698Y291132D02*
Y297132D01*
X454308Y296482D02*
Y304482D01*
X470308Y296482D02*
Y304482D01*
X454308D02*
X470308D01*
X454308Y296482D02*
X470308D01*
X459308Y300482D02*
X465308D01*
X462308Y297482D02*
Y303482D01*
X407698Y308912D02*
Y314912D01*
X404698Y311912D02*
X410698D01*
X399698Y307912D02*
X415698D01*
X399698Y315912D02*
X415698D01*
Y307912D02*
Y315912D01*
X399698Y307912D02*
Y315912D01*
X713000Y367030D02*
X719000D01*
X716000Y364030D02*
Y370030D01*
X713000Y354330D02*
X719000D01*
X716000Y351330D02*
Y357330D01*
Y388160D02*
Y394160D01*
X713000Y391160D02*
X719000D01*
X716000Y375460D02*
Y381460D01*
X713000Y378460D02*
X719000D01*
X645160Y177473D02*
X653160D01*
X645160Y161473D02*
X653160D01*
Y177473D01*
X645160Y161473D02*
Y177473D01*
X649160Y166473D02*
Y172473D01*
X646160Y169473D02*
X652160D01*
X638888Y123508D02*
Y131508D01*
X622888Y123508D02*
Y131508D01*
Y123508D02*
X638888D01*
X622888Y131508D02*
X638888D01*
X627888Y127508D02*
X633888D01*
X630888Y124508D02*
Y130508D01*
X716000Y413560D02*
Y419560D01*
X713000Y416560D02*
X719000D01*
X782320Y596440D02*
Y602440D01*
X779320Y599440D02*
X785320D01*
X774320Y603440D02*
X790320D01*
X774320Y595440D02*
X790320D01*
X774320D02*
Y603440D01*
X790320Y595440D02*
Y603440D01*
X865708Y653288D02*
X871708D01*
X868708Y650288D02*
Y656288D01*
X881710Y670306D02*
X887710D01*
X884710Y667306D02*
Y673306D01*
X790320Y586550D02*
Y594550D01*
X774320Y586550D02*
Y594550D01*
Y586550D02*
X790320D01*
X774320Y594550D02*
X790320D01*
X779320Y590550D02*
X785320D01*
X782320Y587550D02*
Y593550D01*
X881456Y630174D02*
X887456D01*
X884456Y627174D02*
Y633174D01*
X790320Y576390D02*
Y584390D01*
X774320Y576390D02*
Y584390D01*
Y576390D02*
X790320D01*
X774320Y584390D02*
X790320D01*
X779320Y580390D02*
X785320D01*
X782320Y577390D02*
Y583390D01*
X891794Y27000D02*
Y33000D01*
X888794Y30000D02*
X894794D01*
X393000Y426660D02*
X479000D01*
X393000Y482660D02*
X479000D01*
Y426660D02*
Y482660D01*
X393000Y426660D02*
Y482660D01*
X637210Y379950D02*
X691210D01*
Y343950D02*
Y379950D01*
X637210Y343950D02*
X691210D01*
X637210D02*
Y379950D01*
Y416780D02*
X691210D01*
Y380780D02*
Y416780D01*
X637210Y380780D02*
X691210D01*
X637210D02*
Y416780D01*
X520840Y144970D02*
X538340D01*
X520840Y136970D02*
X538340D01*
X520840D02*
Y144970D01*
X538340Y136970D02*
Y144970D01*
X761746Y196676D02*
Y206676D01*
X756746Y201676D02*
X766746D01*
X727830Y635000D02*
Y643000D01*
X742330Y635000D02*
Y643000D01*
X727830D02*
X742330D01*
X727830Y635000D02*
X742330D01*
X732330Y639000D02*
X738580D01*
X735330Y635750D02*
Y641750D01*
X802760Y635000D02*
Y643000D01*
X817260Y635000D02*
Y643000D01*
X802760D02*
X817260D01*
X802760Y635000D02*
X817260D01*
X807260Y639000D02*
X813510D01*
X810260Y635750D02*
Y641750D01*
X659130Y635750D02*
Y641750D01*
X656130Y639000D02*
X662380D01*
X651630Y635000D02*
X666130D01*
X651630Y643000D02*
X666130D01*
Y635000D02*
Y643000D01*
X651630Y635000D02*
Y643000D01*
X454256Y353822D02*
X463756D01*
X459006Y349072D02*
Y358572D01*
X536044Y354076D02*
X545544D01*
X540794Y349326D02*
Y358826D01*
X742950Y196676D02*
Y206676D01*
X737950Y201676D02*
X747950D01*
X735080Y627000D02*
Y633000D01*
X732080Y630000D02*
X738080D01*
X727080Y634000D02*
X743080D01*
X727080Y626000D02*
X743080D01*
X727080D02*
Y634000D01*
X743080Y626000D02*
Y634000D01*
X879094Y55166D02*
Y61166D01*
X876094Y58166D02*
X882094D01*
X878586Y74216D02*
Y80216D01*
X875586Y77216D02*
X881586D01*
X870586Y81216D02*
X886586D01*
X870586Y73216D02*
X886586D01*
X870586D02*
Y81216D01*
X886586Y73216D02*
Y81216D01*
X818010Y626000D02*
Y634000D01*
X802010Y626000D02*
Y634000D01*
Y626000D02*
X818010D01*
X802010Y634000D02*
X818010D01*
X807010Y630000D02*
X813010D01*
X810010Y627000D02*
Y633000D01*
X135726Y629674D02*
Y637674D01*
X119726Y629674D02*
Y637674D01*
Y629674D02*
X135726D01*
X119726Y637674D02*
X135726D01*
X124726Y633674D02*
X130726D01*
X127726Y630674D02*
Y636674D01*
X118010Y629674D02*
Y637674D01*
X102010Y629674D02*
Y637674D01*
Y629674D02*
X118010D01*
X102010Y637674D02*
X118010D01*
X107010Y633674D02*
X113010D01*
X110010Y630674D02*
Y636674D01*
X537389Y256915D02*
Y264915D01*
X553390Y256915D02*
Y264915D01*
X537389D02*
X553390D01*
X537389Y256915D02*
X553390D01*
X542389Y260915D02*
X548390D01*
X545390Y257915D02*
Y263915D01*
Y248918D02*
X553390D01*
X545390Y264918D02*
X553390D01*
X545390Y248918D02*
Y264918D01*
X553390Y248918D02*
Y264918D01*
X549389Y253918D02*
Y259918D01*
X546390Y256918D02*
X552389D01*
X554025Y248918D02*
X562025D01*
X554025Y264918D02*
X562025D01*
X554025Y248918D02*
Y264918D01*
X562025Y248918D02*
Y264918D01*
X558026Y253918D02*
Y259918D01*
X555025Y256918D02*
X561026D01*
X570025D02*
Y264918D01*
X554025Y256918D02*
Y264918D01*
Y256918D02*
X570025D01*
X554025Y264918D02*
X570025D01*
X559025Y260918D02*
X565025D01*
X562025Y257918D02*
Y263918D01*
X614250Y124508D02*
Y130508D01*
X611250Y127508D02*
X617250D01*
X606250Y123508D02*
X622250D01*
X606250Y131508D02*
X622250D01*
Y123508D02*
Y131508D01*
X606250Y123508D02*
Y131508D01*
X636270Y177473D02*
X644270D01*
X636270Y161473D02*
X644270D01*
Y177473D01*
X636270Y161473D02*
Y177473D01*
X640270Y166473D02*
Y172473D01*
X637270Y169473D02*
X643270D01*
X678780Y180214D02*
X686780D01*
X678780Y196214D02*
X686780D01*
X678780Y180214D02*
Y196214D01*
X686780Y180214D02*
Y196214D01*
X682780Y185214D02*
Y191214D01*
X679780Y188214D02*
X685780D01*
X669890Y196214D02*
X677890D01*
X669890Y180214D02*
X677890D01*
Y196214D01*
X669890Y180214D02*
Y196214D01*
X673890Y185214D02*
Y191214D01*
X670890Y188214D02*
X676890D01*
X120860Y243460D02*
Y300610D01*
Y243460D02*
X329140D01*
Y300610D01*
X120860D02*
X329140D01*
X218650Y271400D02*
X231350D01*
X218650D02*
X225000D01*
Y265050D02*
Y271400D01*
Y265050D02*
Y277750D01*
Y271400D02*
Y277750D01*
X120860Y472060D02*
Y529210D01*
Y472060D02*
X329140D01*
Y529210D01*
X120860D02*
X329140D01*
X218650Y500000D02*
X231350D01*
X218650D02*
X225000D01*
Y493650D02*
Y500000D01*
Y493650D02*
Y506350D01*
Y500000D02*
Y506350D01*
X383080Y621030D02*
X389080D01*
X386080Y618030D02*
Y624030D01*
X348234Y597202D02*
Y603202D01*
X345234Y600202D02*
X351234D01*
X344234Y608712D02*
X352234D01*
X344234Y624712D02*
X352234D01*
X344234Y608712D02*
Y624712D01*
X352234Y608712D02*
Y624712D01*
X348234Y613712D02*
Y619712D01*
X345234Y616712D02*
X351234D01*
X376300Y617030D02*
Y625030D01*
X360300Y617030D02*
Y625030D01*
Y617030D02*
X376300D01*
X360300Y625030D02*
X376300D01*
X365300Y621030D02*
X371300D01*
X368300Y618030D02*
Y624030D01*
X807720Y596440D02*
Y602440D01*
X804720Y599440D02*
X810720D01*
X799720Y603440D02*
X815720D01*
X799720Y595440D02*
X815720D01*
X799720D02*
Y603440D01*
X815720Y595440D02*
Y603440D01*
X807720Y587550D02*
Y593550D01*
X804720Y590550D02*
X810720D01*
X799720Y594550D02*
X815720D01*
X799720Y586550D02*
X815720D01*
X799720D02*
Y594550D01*
X815720Y586550D02*
Y594550D01*
X807720Y578660D02*
Y584660D01*
X804720Y581660D02*
X810720D01*
X799720Y585660D02*
X815720D01*
X799720Y577660D02*
X815720D01*
X799720D02*
Y585660D01*
X815720Y577660D02*
Y585660D01*
X468452Y191008D02*
X477952D01*
X473202Y186258D02*
Y195758D01*
X330000Y0D02*
X431000D01*
X330000Y80000D02*
X431000D01*
Y0D02*
Y80000D01*
X330000Y0D02*
Y80000D01*
X396654Y542084D02*
Y548084D01*
X393654Y545084D02*
X399654D01*
X388654Y541084D02*
X404654D01*
X388654Y549084D02*
X404654D01*
Y541084D02*
Y549084D01*
X388654Y541084D02*
Y549084D01*
X602770Y567484D02*
Y573484D01*
X599770Y570484D02*
X605770D01*
X594770Y566484D02*
X610770D01*
X594770Y574484D02*
X610770D01*
Y566484D02*
Y574484D01*
X594770Y566484D02*
Y574484D01*
X603024Y503984D02*
Y509984D01*
X600024Y506984D02*
X606024D01*
X595024Y510984D02*
X611024D01*
X595024Y502984D02*
X611024D01*
X595024D02*
Y510984D01*
X611024Y502984D02*
Y510984D01*
X437452Y515748D02*
X445452D01*
X437452Y531748D02*
X445452D01*
X437452Y515748D02*
Y531748D01*
X445452Y515748D02*
Y531748D01*
X441452Y520748D02*
Y526748D01*
X438452Y523748D02*
X444452D01*
X651840Y439928D02*
X657840D01*
X654840Y436928D02*
Y442928D01*
X903780Y675640D02*
X909780D01*
X906780Y672640D02*
Y678640D01*
X780590Y614680D02*
X786590D01*
X783590Y611680D02*
Y617680D01*
X920480Y675640D02*
X926480D01*
X923480Y672640D02*
Y678640D01*
X667130Y626000D02*
Y634000D01*
X651130Y626000D02*
Y634000D01*
Y626000D02*
X667130D01*
X651130Y634000D02*
X667130D01*
X656130Y630000D02*
X662130D01*
X659130Y627000D02*
Y633000D01*
X495328Y445310D02*
Y451310D01*
X492328Y448310D02*
X498328D01*
X487328Y452310D02*
X503328D01*
X487328Y444310D02*
X503328D01*
X487328D02*
Y452310D01*
X503328Y444310D02*
Y452310D01*
X777240Y461312D02*
Y467312D01*
X774240Y464312D02*
X780240D01*
D216*
X399082Y638400D02*
X439082D01*
Y682400D01*
X399082D02*
X439082D01*
X399082Y638400D02*
Y682400D01*
X601466Y638400D02*
Y682400D01*
X561466Y638400D02*
X601466D01*
X561466D02*
Y682400D01*
X601466D01*
D217*
X782448Y85278D02*
Y108778D01*
X798448Y85278D02*
Y108778D01*
X782948Y83028D02*
X797948D01*
X782948Y111028D02*
X797948D01*
Y83028D02*
Y85278D01*
X782948Y83278D02*
Y85278D01*
Y108778D02*
Y111028D01*
X797948Y108728D02*
Y111028D01*
X797948Y85278D02*
X798448D01*
X782448D02*
X782948D01*
X782448Y108778D02*
X782948D01*
X797948Y108778D02*
X798448D01*
X491950Y129190D02*
X499950D01*
X491950Y117190D02*
X499950D01*
X485950Y117440D02*
X491950D01*
X477950Y129190D02*
X485950D01*
X477950Y117190D02*
X485950D01*
Y128940D02*
X491950D01*
X499950Y117190D02*
Y129190D01*
X477950Y117190D02*
Y129190D01*
X491950Y117190D02*
Y117440D01*
X485950Y117190D02*
Y117440D01*
Y128940D02*
Y129190D01*
X491950Y128940D02*
Y129190D01*
X708000Y399860D02*
X724000D01*
X708000Y407860D02*
X724000D01*
Y399860D02*
Y407860D01*
X708000Y399860D02*
Y407860D01*
X699962Y179420D02*
Y191420D01*
X720462Y179420D02*
Y191420D01*
X699962D02*
X720462D01*
X699962Y179420D02*
X720462D01*
X423100Y237900D02*
Y257400D01*
X411600Y237900D02*
Y257400D01*
X412350Y236650D02*
X422350D01*
X412350Y258650D02*
X422350D01*
Y257400D02*
Y258650D01*
X412350Y257400D02*
Y258650D01*
Y236650D02*
Y237900D01*
X422350Y236650D02*
Y237900D01*
X422350D02*
X423100D01*
X422350Y257400D02*
X423100D01*
X411600D02*
X412350D01*
X411600Y237900D02*
X412350D01*
X555058Y669120D02*
X560058D01*
X555058Y679620D02*
X560058D01*
X554908Y670220D02*
Y678520D01*
X560208Y670220D02*
Y678520D01*
X555058Y669120D02*
Y670220D01*
X560058Y669120D02*
Y670220D01*
Y678520D02*
Y679620D01*
X555058Y678520D02*
Y679620D01*
X554908Y670220D02*
X555058D01*
X560058D02*
X560208D01*
X560058Y678520D02*
X560208D01*
X554908D02*
X555058D01*
X759482Y129090D02*
Y168090D01*
X730482Y129090D02*
Y168090D01*
X759482D01*
X730482Y129090D02*
X759482D01*
X791400Y209860D02*
X791650D01*
X791400Y216860D02*
X791650D01*
X779650D02*
X779900D01*
X779650Y209860D02*
X779900D01*
X791650Y216860D02*
Y224860D01*
X779650Y216860D02*
Y224860D01*
X791400Y209860D02*
Y216860D01*
X779900Y209860D02*
Y216860D01*
X791650Y201860D02*
Y209860D01*
X779650Y201860D02*
Y209860D01*
Y224860D02*
X791650D01*
X779650Y201860D02*
X791650D01*
X456418Y157500D02*
Y165500D01*
X441218Y157500D02*
Y165500D01*
Y157500D02*
X456418D01*
X441218Y165500D02*
X456418D01*
X624246Y221124D02*
X632546D01*
X624246Y226424D02*
X632546D01*
X633646Y221274D02*
Y226274D01*
X623146Y221274D02*
Y226274D01*
X624246D02*
Y226424D01*
X623146Y226274D02*
X624246D01*
X632546D02*
Y226424D01*
Y226274D02*
X633646D01*
X624246Y221124D02*
Y221274D01*
X623146D02*
X624246D01*
X632546Y221124D02*
Y221274D01*
X633646D01*
X445146Y659044D02*
Y667344D01*
X439846Y659044D02*
Y667344D01*
X439996Y668444D02*
X444996D01*
X439996Y657944D02*
X444996D01*
X439846Y659044D02*
X439996D01*
Y657944D02*
Y659044D01*
X439846Y667344D02*
X439996D01*
Y668444D01*
X444996Y659044D02*
X445146D01*
X444996Y657944D02*
Y659044D01*
Y667344D02*
X445146D01*
X444996D02*
Y668444D01*
X461780Y542100D02*
Y550100D01*
X446580Y542100D02*
Y550100D01*
Y542100D02*
X461780D01*
X446580Y550100D02*
X461780D01*
X461752Y533718D02*
Y541718D01*
X446552Y533718D02*
Y541718D01*
Y533718D02*
X461752D01*
X446552Y541718D02*
X461752D01*
X467408Y542100D02*
Y550100D01*
X482608Y542100D02*
Y550100D01*
X467408D02*
X482608D01*
X467408Y542100D02*
X482608D01*
X467408Y533718D02*
Y541718D01*
X482608Y533718D02*
Y541718D01*
X467408D02*
X482608D01*
X467408Y533718D02*
X482608D01*
X560208Y659044D02*
Y667344D01*
X554908Y659044D02*
Y667344D01*
X555058Y668444D02*
X560058D01*
X555058Y657944D02*
X560058D01*
X554908Y659044D02*
X555058D01*
Y657944D02*
Y659044D01*
X554908Y667344D02*
X555058D01*
Y668444D01*
X560058Y659044D02*
X560208D01*
X560058Y657944D02*
Y659044D01*
Y667344D02*
X560208D01*
X560058D02*
Y668444D01*
X806280Y123540D02*
Y123790D01*
X813280Y123540D02*
Y123790D01*
Y135290D02*
Y135540D01*
X806280Y135290D02*
Y135540D01*
X813280Y123540D02*
X821280D01*
X813280Y135540D02*
X821280D01*
X806280Y123790D02*
X813280D01*
X806280Y135290D02*
X813280D01*
X798280Y123540D02*
X806280D01*
X798280Y135540D02*
X806280D01*
X821280Y123540D02*
Y135540D01*
X798280Y123540D02*
Y135540D01*
X407000Y124480D02*
Y139680D01*
X415000Y124480D02*
Y139680D01*
X407000Y124480D02*
X415000D01*
X407000Y139680D02*
X415000D01*
X712216Y199876D02*
Y228876D01*
X673216Y199876D02*
Y228876D01*
Y199876D02*
X712216D01*
X673216Y228876D02*
X712216D01*
X660718Y113050D02*
Y128250D01*
X668718Y113050D02*
Y128250D01*
X660718Y113050D02*
X668718D01*
X660718Y128250D02*
X668718D01*
X523304Y174732D02*
X531304D01*
X523304Y159532D02*
X531304D01*
Y174732D01*
X523304Y159532D02*
Y174732D01*
X505170Y194330D02*
Y209530D01*
X497170Y194330D02*
Y209530D01*
X505170D01*
X497170Y194330D02*
X505170D01*
X514060D02*
Y209530D01*
X506060Y194330D02*
Y209530D01*
X514060D01*
X506060Y194330D02*
X514060D01*
X523288Y136080D02*
X538488D01*
X523288Y128080D02*
X538488D01*
X523288D02*
Y136080D01*
X538488Y128080D02*
Y136080D01*
X523288Y119190D02*
X538488D01*
X523288Y127190D02*
X538488D01*
Y119190D02*
Y127190D01*
X523288Y119190D02*
Y127190D01*
X513890Y145860D02*
Y153860D01*
X529090Y145860D02*
Y153860D01*
X513890D02*
X529090D01*
X513890Y145860D02*
X529090D01*
X481422Y470174D02*
Y485374D01*
X489422Y470174D02*
Y485374D01*
X481422Y470174D02*
X489422D01*
X481422Y485374D02*
X489422D01*
X490312D02*
X498312D01*
X490312Y470174D02*
X498312D01*
Y485374D01*
X490312Y470174D02*
Y485374D01*
X541366Y435828D02*
Y451028D01*
X549366Y435828D02*
Y451028D01*
X541366Y435828D02*
X549366D01*
X541366Y451028D02*
X549366D01*
X532476Y435828D02*
Y451028D01*
X540476Y435828D02*
Y451028D01*
X532476Y435828D02*
X540476D01*
X532476Y451028D02*
X540476D01*
X610172Y168890D02*
X618172D01*
X610172Y153690D02*
X618172D01*
Y168890D01*
X610172Y153690D02*
Y168890D01*
X592122Y285814D02*
Y293814D01*
X607322Y285814D02*
Y293814D01*
X592122D02*
X607322D01*
X592122Y285814D02*
X607322D01*
X592122Y294196D02*
X607322D01*
X592122Y302196D02*
X607322D01*
Y294196D02*
Y302196D01*
X592122Y294196D02*
Y302196D01*
Y276924D02*
Y284924D01*
X607322Y276924D02*
Y284924D01*
X592122D02*
X607322D01*
X592122Y276924D02*
X607322D01*
X574640Y272014D02*
X582640D01*
X574640Y256814D02*
X582640D01*
Y272014D01*
X574640Y256814D02*
Y272014D01*
X553304Y198140D02*
X561304D01*
X553304Y213340D02*
X561304D01*
X553304Y198140D02*
Y213340D01*
X561304Y198140D02*
Y213340D01*
X553276Y197338D02*
X561276D01*
X553276Y182138D02*
X561276D01*
Y197338D01*
X553276Y182138D02*
Y197338D01*
X647048Y200828D02*
Y209128D01*
X641748Y200828D02*
Y209128D01*
X641898Y210228D02*
X646898D01*
X641898Y199728D02*
X646898D01*
X641748Y200828D02*
X641898D01*
Y199728D02*
Y200828D01*
X641748Y209128D02*
X641898D01*
Y210228D01*
X646898Y200828D02*
X647048D01*
X646898Y199728D02*
Y200828D01*
Y209128D02*
X647048D01*
X646898D02*
Y210228D01*
X385410Y240050D02*
X393410D01*
X385410Y255250D02*
X393410D01*
X385410Y240050D02*
Y255250D01*
X393410Y240050D02*
Y255250D01*
X394300Y240050D02*
X402300D01*
X394300Y255250D02*
X402300D01*
X394300Y240050D02*
Y255250D01*
X402300Y240050D02*
Y255250D01*
X403190Y240050D02*
X411190D01*
X403190Y255250D02*
X411190D01*
X403190Y240050D02*
Y255250D01*
X411190Y240050D02*
Y255250D01*
X601818Y227350D02*
X609818D01*
X601818Y242550D02*
X609818D01*
X601818Y227350D02*
Y242550D01*
X609818Y227350D02*
Y242550D01*
X420970Y218460D02*
X428970D01*
X420970Y233660D02*
X428970D01*
X420970Y218460D02*
Y233660D01*
X428970Y218460D02*
Y233660D01*
X454708Y295592D02*
X469908D01*
X454708Y287592D02*
X469908D01*
X454708D02*
Y295592D01*
X469908Y287592D02*
Y295592D01*
X416000Y121750D02*
X416750D01*
X416000Y102250D02*
X416750D01*
X405250D02*
X406000D01*
X405250Y121750D02*
X406000D01*
X406000D02*
Y123000D01*
X416000Y121750D02*
Y123000D01*
Y101000D02*
Y102250D01*
X406000Y101000D02*
Y102250D01*
Y101000D02*
X416000D01*
X406000Y123000D02*
X416000D01*
X416750Y102250D02*
Y121750D01*
X405250Y102250D02*
Y121750D01*
X657018D02*
X657768D01*
X657018Y102250D02*
X657768D01*
X646268D02*
X647018D01*
X646268Y121750D02*
X647018D01*
X647018D02*
Y123000D01*
X657018Y121750D02*
Y123000D01*
Y101000D02*
Y102250D01*
X647018Y101000D02*
Y102250D01*
Y101000D02*
X657018D01*
X647018Y123000D02*
X657018D01*
X657768Y102250D02*
Y121750D01*
X646268Y102250D02*
Y121750D01*
X502314Y117440D02*
X521814D01*
X502314Y128940D02*
X521814D01*
X501064Y118190D02*
Y128190D01*
X523064Y118190D02*
Y128190D01*
X521814Y118190D02*
X523064D01*
X521814Y128190D02*
X523064D01*
X501064D02*
X502314D01*
X501064Y118190D02*
X502314D01*
Y117440D02*
Y118190D01*
X521814Y117440D02*
Y118190D01*
Y128190D02*
Y128940D01*
X502314Y128190D02*
Y128940D01*
X587940Y265014D02*
X607440D01*
X587940Y276514D02*
X607440D01*
X586690Y265764D02*
Y275764D01*
X608690Y265764D02*
Y275764D01*
X607440Y265764D02*
X608690D01*
X607440Y275764D02*
X608690D01*
X586690D02*
X587940D01*
X586690Y265764D02*
X587940D01*
Y265014D02*
Y265764D01*
X607440Y265014D02*
Y265764D01*
Y275764D02*
Y276514D01*
X587940Y275764D02*
Y276514D01*
X439968Y670136D02*
X444968D01*
X439968Y680636D02*
X444968D01*
X439818Y671236D02*
Y679536D01*
X445118Y671236D02*
Y679536D01*
X439968Y670136D02*
Y671236D01*
X444968Y670136D02*
Y671236D01*
Y679536D02*
Y680636D01*
X439968Y679536D02*
Y680636D01*
X439818Y671236D02*
X439968D01*
X444968D02*
X445118D01*
X444968Y679536D02*
X445118D01*
X439818D02*
X439968D01*
X491808Y522098D02*
Y538098D01*
X499808Y522098D02*
Y538098D01*
X491808Y522098D02*
X499808D01*
X491808Y538098D02*
X499808D01*
X499936Y522098D02*
Y538098D01*
X507936Y522098D02*
Y538098D01*
X499936Y522098D02*
X507936D01*
X499936Y538098D02*
X507936D01*
X594770Y561784D02*
X610770D01*
X594770Y553784D02*
X610770D01*
X594770D02*
Y561784D01*
X610770Y553784D02*
Y561784D01*
X612704Y616522D02*
X628704D01*
X612704Y624522D02*
X628704D01*
Y616522D02*
Y624522D01*
X612704Y616522D02*
Y624522D01*
X793650Y121600D02*
Y145100D01*
X777650Y121600D02*
Y145100D01*
X778150Y147350D02*
X793150D01*
X778150Y119350D02*
X793150D01*
X778150Y145100D02*
Y147350D01*
X793150Y145100D02*
Y147100D01*
Y119350D02*
Y121600D01*
X778150Y119350D02*
Y121650D01*
X777650Y145100D02*
X778150D01*
X793150D02*
X793650D01*
X793150Y121600D02*
X793650D01*
X777650Y121600D02*
X778150D01*
X811430Y201740D02*
Y209740D01*
X795430Y201740D02*
Y209740D01*
Y201740D02*
X811430D01*
X795430Y209740D02*
X811430D01*
X718720Y103820D02*
Y127320D01*
X702720Y103820D02*
Y127320D01*
X703220Y129570D02*
X718220D01*
X703220Y101570D02*
X718220D01*
X703220Y127320D02*
Y129570D01*
X718220Y127320D02*
Y129320D01*
Y101570D02*
Y103820D01*
X703220Y101570D02*
Y103870D01*
X702720Y127320D02*
X703220D01*
X718220D02*
X718720D01*
X718220Y103820D02*
X718720D01*
X702720Y103820D02*
X703220D01*
X512000Y139240D02*
X512250D01*
X512000Y145240D02*
X512250D01*
X500250D02*
X500500D01*
X500250Y139240D02*
X500500D01*
X500250Y153240D02*
X512250D01*
X500250Y131240D02*
X512250D01*
X512000Y139240D02*
Y145240D01*
X500250D02*
Y153240D01*
X512250Y145240D02*
Y153240D01*
X500500Y139240D02*
Y145240D01*
X500250Y131240D02*
Y139240D01*
X512250Y131240D02*
Y139240D01*
X587630Y324930D02*
X603630D01*
X587630Y332930D02*
X603630D01*
Y324930D02*
Y332930D01*
X587630Y324930D02*
Y332930D01*
Y316040D02*
Y324040D01*
X603630Y316040D02*
Y324040D01*
X587630D02*
X603630D01*
X587630Y316040D02*
X603630D01*
X610962Y226950D02*
Y242950D01*
X618962Y226950D02*
Y242950D01*
X610962Y226950D02*
X618962D01*
X610962Y242950D02*
X618962D01*
X375630Y239650D02*
Y255650D01*
X367630Y239650D02*
Y255650D01*
X375630D01*
X367630Y239650D02*
X375630D01*
X376520D02*
X384520D01*
X376520Y255650D02*
X384520D01*
X376520Y239650D02*
Y255650D01*
X384520Y239650D02*
Y255650D01*
X708000Y363030D02*
Y371030D01*
X724000Y363030D02*
Y371030D01*
X708000D02*
X724000D01*
X708000Y363030D02*
X724000D01*
X708000Y350330D02*
Y358330D01*
X724000Y350330D02*
Y358330D01*
X708000D02*
X724000D01*
X708000Y350330D02*
X724000D01*
X708000Y387160D02*
X724000D01*
X708000Y395160D02*
X724000D01*
Y387160D02*
Y395160D01*
X708000Y387160D02*
Y395160D01*
Y374460D02*
X724000D01*
X708000Y382460D02*
X724000D01*
Y374460D02*
Y382460D01*
X708000Y374460D02*
Y382460D01*
Y412560D02*
X724000D01*
X708000Y420560D02*
X724000D01*
Y412560D02*
Y420560D01*
X708000Y412560D02*
Y420560D01*
X872708Y645288D02*
Y661288D01*
X864708Y645288D02*
Y661288D01*
X872708D01*
X864708Y645288D02*
X872708D01*
X876710Y666306D02*
Y674306D01*
X892710Y666306D02*
Y674306D01*
X876710D02*
X892710D01*
X876710Y666306D02*
X892710D01*
X876456Y626174D02*
Y634174D01*
X892456Y626174D02*
Y634174D01*
X876456D02*
X892456D01*
X876456Y626174D02*
X892456D01*
X753746Y189926D02*
X754246D01*
X769246Y189926D02*
X769746D01*
X769246Y213426D02*
X769746D01*
X753746D02*
X754246D01*
X754246Y187676D02*
Y189976D01*
X769246Y187676D02*
Y189926D01*
Y213426D02*
Y215426D01*
X754246Y213426D02*
Y215676D01*
Y187676D02*
X769246D01*
X754246Y215676D02*
X769246D01*
X753746Y189926D02*
Y213426D01*
X769746Y189926D02*
Y213426D01*
X351120Y541548D02*
Y556748D01*
X359120Y541548D02*
Y556748D01*
X351120Y541548D02*
X359120D01*
X351120Y556748D02*
X359120D01*
X135390Y638818D02*
Y646818D01*
X120190Y638818D02*
Y646818D01*
Y638818D02*
X135390D01*
X120190Y646818D02*
X135390D01*
X117610Y638818D02*
Y646818D01*
X102410Y638818D02*
Y646818D01*
Y638818D02*
X117610D01*
X102410Y646818D02*
X117610D01*
X462006Y359572D02*
Y359822D01*
X456006Y359572D02*
Y359822D01*
Y347822D02*
Y348072D01*
X462006Y347822D02*
Y348072D01*
X448006Y347822D02*
Y359822D01*
X470006Y347822D02*
Y359822D01*
X456006Y359572D02*
X462006D01*
X448006Y347822D02*
X456006D01*
X448006Y359822D02*
X456006D01*
Y348072D02*
X462006D01*
Y347822D02*
X470006D01*
X462006Y359822D02*
X470006D01*
X537794Y348076D02*
Y348326D01*
X543794Y348076D02*
Y348326D01*
Y359826D02*
Y360076D01*
X537794Y359826D02*
Y360076D01*
X551794Y348076D02*
Y360076D01*
X529794Y348076D02*
Y360076D01*
X537794Y348326D02*
X543794D01*
Y360076D02*
X551794D01*
X543794Y348076D02*
X551794D01*
X537794Y359826D02*
X543794D01*
X529794Y360076D02*
X537794D01*
X529794Y348076D02*
X537794D01*
X750450Y213426D02*
X750950D01*
X734950Y213426D02*
X735450D01*
X734950Y189926D02*
X735450D01*
X750450D02*
X750950D01*
X750450Y213376D02*
Y215676D01*
X735450Y213426D02*
Y215676D01*
Y187926D02*
Y189926D01*
X750450Y187676D02*
Y189926D01*
X735450Y215676D02*
X750450D01*
X735450Y187676D02*
X750450D01*
X750950Y189926D02*
Y213426D01*
X734950Y189926D02*
Y213426D01*
X871094Y54166D02*
X887094D01*
X871094Y62166D02*
X887094D01*
Y54166D02*
Y62166D01*
X871094Y54166D02*
Y62166D01*
X714990Y301054D02*
Y309054D01*
X699790Y301054D02*
Y309054D01*
Y301054D02*
X714990D01*
X699790Y309054D02*
X714990D01*
X700044Y461582D02*
Y469582D01*
X715244Y461582D02*
Y469582D01*
X700044D02*
X715244D01*
X700044Y461582D02*
X715244D01*
X285008Y463106D02*
Y471106D01*
X300208Y463106D02*
Y471106D01*
X285008D02*
X300208D01*
X285008Y463106D02*
X300208D01*
X285008Y310832D02*
X300208D01*
X285008Y302832D02*
X300208D01*
X285008D02*
Y310832D01*
X300208Y302832D02*
Y310832D01*
X378080Y617030D02*
Y625030D01*
X394080Y617030D02*
Y625030D01*
X378080D02*
X394080D01*
X378080Y617030D02*
X394080D01*
X344234Y608202D02*
X352234D01*
X344234Y592202D02*
X352234D01*
Y608202D01*
X344234Y592202D02*
Y608202D01*
X419656Y89344D02*
X434856D01*
X419656Y81344D02*
X434856D01*
X419656D02*
Y89344D01*
X434856Y81344D02*
Y89344D01*
X659562Y89265D02*
X674762D01*
X659562Y81265D02*
X674762D01*
X659562D02*
Y89265D01*
X674762Y81265D02*
Y89265D01*
X470202Y185008D02*
Y185258D01*
X476202Y185008D02*
Y185258D01*
Y196758D02*
Y197008D01*
X470202Y196758D02*
Y197008D01*
X484202Y185008D02*
Y197008D01*
X462202Y185008D02*
Y197008D01*
X470202Y185258D02*
X476202D01*
Y197008D02*
X484202D01*
X476202Y185008D02*
X484202D01*
X470202Y196758D02*
X476202D01*
X462202Y197008D02*
X470202D01*
X462202Y185008D02*
X470202D01*
X410020Y176510D02*
X418020D01*
X410020Y161310D02*
X418020D01*
Y176510D01*
X410020Y161310D02*
Y176510D01*
D218*
X799720Y576770D02*
X815720D01*
X799720Y568770D02*
X815720D01*
X799720D02*
Y576770D01*
X815720Y568770D02*
Y576770D01*
X445818Y161500D02*
X451818D01*
X448818Y158500D02*
Y164500D01*
X876424Y67818D02*
X882424D01*
X879424Y64818D02*
Y70818D01*
X628396Y222974D02*
Y224574D01*
X627596Y223774D02*
X629196D01*
X367566Y122222D02*
Y128222D01*
X364566Y125222D02*
X370566D01*
X386108Y122222D02*
Y128222D01*
X383108Y125222D02*
X389108D01*
X441696Y663194D02*
X443296D01*
X442496Y662394D02*
Y663994D01*
X451180Y546100D02*
X457180D01*
X454180Y543100D02*
Y549100D01*
X451152Y537718D02*
X457152D01*
X454152Y534718D02*
Y540718D01*
X472008Y546100D02*
X478008D01*
X475008Y543100D02*
Y549100D01*
X472008Y537718D02*
X478008D01*
X475008Y534718D02*
Y540718D01*
X556758Y663194D02*
X558358D01*
X557558Y662394D02*
Y663994D01*
X521538Y512318D02*
X527538D01*
X524538Y509318D02*
Y515318D01*
X475008Y509064D02*
Y515064D01*
X472008Y512064D02*
X478008D01*
X408000Y132080D02*
X414000D01*
X411000Y129080D02*
Y135080D01*
X693750Y114630D02*
X699750D01*
X696750Y111630D02*
Y117630D01*
X687860Y125270D02*
Y131270D01*
X684860Y128270D02*
X690860D01*
X661718Y120650D02*
X667718D01*
X664718Y117650D02*
Y123650D01*
X527304Y164132D02*
Y170132D01*
X524304Y167132D02*
X530304D01*
X498170Y201930D02*
X504170D01*
X501170Y198930D02*
Y204930D01*
X507060Y201930D02*
X513060D01*
X510060Y198930D02*
Y204930D01*
X530888Y129080D02*
Y135080D01*
X527888Y132080D02*
X533888D01*
X530888Y120190D02*
Y126190D01*
X527888Y123190D02*
X533888D01*
X518490Y149860D02*
X524490D01*
X521490Y146860D02*
Y152860D01*
X482422Y477774D02*
X488422D01*
X485422Y474774D02*
Y480774D01*
X494312Y474774D02*
Y480774D01*
X491312Y477774D02*
X497312D01*
X542366Y443428D02*
X548366D01*
X545366Y440428D02*
Y446428D01*
X533476Y443428D02*
X539476D01*
X536476Y440428D02*
Y446428D01*
X614172Y158290D02*
Y164290D01*
X611172Y161290D02*
X617172D01*
X596722Y289814D02*
X602722D01*
X599722Y286814D02*
Y292814D01*
Y295196D02*
Y301196D01*
X596722Y298196D02*
X602722D01*
X596722Y280924D02*
X602722D01*
X599722Y277924D02*
Y283924D01*
X578640Y261414D02*
Y267414D01*
X575640Y264414D02*
X581640D01*
X557304Y202740D02*
Y208740D01*
X554304Y205740D02*
X560304D01*
X557276Y186738D02*
Y192738D01*
X554276Y189738D02*
X560276D01*
X643598Y204978D02*
X645198D01*
X644398Y204178D02*
Y205778D01*
X389410Y244650D02*
Y250650D01*
X386410Y247650D02*
X392410D01*
X398300Y244650D02*
Y250650D01*
X395300Y247650D02*
X401300D01*
X407190Y244650D02*
Y250650D01*
X404190Y247650D02*
X410190D01*
X605818Y231950D02*
Y237950D01*
X602818Y234950D02*
X608818D01*
X424970Y223060D02*
Y229060D01*
X421970Y226060D02*
X427970D01*
X462308Y288592D02*
Y294592D01*
X459308Y291592D02*
X465308D01*
X883794Y26000D02*
X899794D01*
X883794Y34000D02*
X899794D01*
Y26000D02*
Y34000D01*
X883794Y26000D02*
Y34000D01*
X529590Y137970D02*
Y143970D01*
X526590Y140970D02*
X532590D01*
X352120Y549148D02*
X358120D01*
X355120Y546148D02*
Y552148D01*
X124790Y642818D02*
X130790D01*
X127790Y639818D02*
Y645818D01*
X107010Y642818D02*
X113010D01*
X110010Y639818D02*
Y645818D01*
X704390Y305054D02*
X710390D01*
X707390Y302054D02*
Y308054D01*
X704644Y465582D02*
X710644D01*
X707644Y462582D02*
Y468582D01*
X289608Y467106D02*
X295608D01*
X292608Y464106D02*
Y470106D01*
Y303832D02*
Y309832D01*
X289608Y306832D02*
X295608D01*
X427256Y82344D02*
Y88344D01*
X424256Y85344D02*
X430256D01*
X667162Y82265D02*
Y88265D01*
X664162Y85265D02*
X670162D01*
X658840Y431928D02*
Y447928D01*
X650840Y431928D02*
Y447928D01*
X658840D01*
X650840Y431928D02*
X658840D01*
X914780Y671640D02*
Y679640D01*
X898780Y671640D02*
Y679640D01*
Y671640D02*
X914780D01*
X898780Y679640D02*
X914780D01*
X791590Y610680D02*
Y618680D01*
X775590Y610680D02*
Y618680D01*
Y610680D02*
X791590D01*
X775590Y618680D02*
X791590D01*
X931480Y671640D02*
Y679640D01*
X915480Y671640D02*
Y679640D01*
Y671640D02*
X931480D01*
X915480Y679640D02*
X931480D01*
X414020Y165910D02*
Y171910D01*
X411020Y168910D02*
X417020D01*
X769240Y468312D02*
X785240D01*
X769240Y460312D02*
X785240D01*
X769240D02*
Y468312D01*
X785240Y460312D02*
Y468312D01*
D219*
X557558Y673570D02*
Y675170D01*
X556758Y674370D02*
X558358D01*
X442468Y674586D02*
Y676186D01*
X441668Y675386D02*
X443268D01*
D220*
X538980Y2340D02*
Y84340D01*
X450980D02*
X538980D01*
X450980Y2340D02*
Y84340D01*
Y2340D02*
X538980D01*
M02*
