G04*
G04 #@! TF.GenerationSoftware,Altium Limited,Altium Designer,24.5.2 (23)*
G04*
G04 Layer_Color=8421504*
%FSLAX44Y44*%
%MOMM*%
G71*
G04*
G04 #@! TF.SameCoordinates,92D1E149-34EC-4A89-AFD8-A094A270A496*
G04*
G04*
G04 #@! TF.FilePolarity,Positive*
G04*
G01*
G75*
%ADD10C,0.1270*%
%ADD12C,0.2000*%
%ADD14C,0.2540*%
%ADD16C,0.1500*%
%ADD21R,4.8260X2.4130*%
%ADD22C,1.0000*%
%ADD23R,1.2965X1.2965*%
%ADD24R,1.0000X1.5500*%
%ADD25R,0.7500X0.8500*%
G04:AMPARAMS|DCode=26|XSize=0.6mm|YSize=1.15mm|CornerRadius=0.03mm|HoleSize=0mm|Usage=FLASHONLY|Rotation=0.000|XOffset=0mm|YOffset=0mm|HoleType=Round|Shape=RoundedRectangle|*
%AMROUNDEDRECTD26*
21,1,0.6000,1.0900,0,0,0.0*
21,1,0.5400,1.1500,0,0,0.0*
1,1,0.0600,0.2700,-0.5450*
1,1,0.0600,-0.2700,-0.5450*
1,1,0.0600,-0.2700,0.5450*
1,1,0.0600,0.2700,0.5450*
%
%ADD26ROUNDEDRECTD26*%
G04:AMPARAMS|DCode=27|XSize=0.3mm|YSize=1.15mm|CornerRadius=0.015mm|HoleSize=0mm|Usage=FLASHONLY|Rotation=0.000|XOffset=0mm|YOffset=0mm|HoleType=Round|Shape=RoundedRectangle|*
%AMROUNDEDRECTD27*
21,1,0.3000,1.1200,0,0,0.0*
21,1,0.2700,1.1500,0,0,0.0*
1,1,0.0300,0.1350,-0.5600*
1,1,0.0300,-0.1350,-0.5600*
1,1,0.0300,-0.1350,0.5600*
1,1,0.0300,0.1350,0.5600*
%
%ADD27ROUNDEDRECTD27*%
%ADD28R,2.2000X1.0500*%
%ADD29R,1.0500X1.0000*%
%ADD30R,2.5000X1.2000*%
%ADD31R,1.0500X0.4000*%
%ADD32R,0.3000X0.4500*%
%ADD33R,1.3000X0.5500*%
%ADD34R,0.9500X0.4500*%
%ADD35R,1.4000X0.5500*%
%ADD36R,0.5700X0.4200*%
%ADD37R,0.3600X0.3500*%
%ADD38R,1.2000X1.2500*%
%ADD39R,1.2000X1.8000*%
%ADD40R,0.6000X1.5500*%
%ADD41R,1.0200X2.1900*%
%ADD42R,1.3000X0.8000*%
%ADD43R,0.6000X1.0000*%
%ADD44R,0.5200X0.5500*%
%ADD45R,0.5000X0.6000*%
%ADD46R,0.3500X0.4500*%
%ADD47R,2.6000X2.6000*%
%ADD48R,0.8500X0.3000*%
%ADD49R,0.3000X0.8500*%
%ADD50R,1.7500X1.7500*%
%ADD51R,0.8000X0.3000*%
%ADD52R,0.3000X0.8000*%
G04:AMPARAMS|DCode=53|XSize=1.68mm|YSize=1.68mm|CornerRadius=0.084mm|HoleSize=0mm|Usage=FLASHONLY|Rotation=90.000|XOffset=0mm|YOffset=0mm|HoleType=Round|Shape=RoundedRectangle|*
%AMROUNDEDRECTD53*
21,1,1.6800,1.5120,0,0,90.0*
21,1,1.5120,1.6800,0,0,90.0*
1,1,0.1680,0.7560,0.7560*
1,1,0.1680,0.7560,-0.7560*
1,1,0.1680,-0.7560,-0.7560*
1,1,0.1680,-0.7560,0.7560*
%
%ADD53ROUNDEDRECTD53*%
G04:AMPARAMS|DCode=54|XSize=0.6mm|YSize=0.24mm|CornerRadius=0.06mm|HoleSize=0mm|Usage=FLASHONLY|Rotation=90.000|XOffset=0mm|YOffset=0mm|HoleType=Round|Shape=RoundedRectangle|*
%AMROUNDEDRECTD54*
21,1,0.6000,0.1200,0,0,90.0*
21,1,0.4800,0.2400,0,0,90.0*
1,1,0.1200,0.0600,0.2400*
1,1,0.1200,0.0600,-0.2400*
1,1,0.1200,-0.0600,-0.2400*
1,1,0.1200,-0.0600,0.2400*
%
%ADD54ROUNDEDRECTD54*%
G04:AMPARAMS|DCode=55|XSize=0.6mm|YSize=0.24mm|CornerRadius=0.06mm|HoleSize=0mm|Usage=FLASHONLY|Rotation=180.000|XOffset=0mm|YOffset=0mm|HoleType=Round|Shape=RoundedRectangle|*
%AMROUNDEDRECTD55*
21,1,0.6000,0.1200,0,0,180.0*
21,1,0.4800,0.2400,0,0,180.0*
1,1,0.1200,-0.2400,0.0600*
1,1,0.1200,0.2400,0.0600*
1,1,0.1200,0.2400,-0.0600*
1,1,0.1200,-0.2400,-0.0600*
%
%ADD55ROUNDEDRECTD55*%
G04:AMPARAMS|DCode=56|XSize=0.2425mm|YSize=0.7397mm|CornerRadius=0.1212mm|HoleSize=0mm|Usage=FLASHONLY|Rotation=90.000|XOffset=0mm|YOffset=0mm|HoleType=Round|Shape=RoundedRectangle|*
%AMROUNDEDRECTD56*
21,1,0.2425,0.4972,0,0,90.0*
21,1,0.0000,0.7397,0,0,90.0*
1,1,0.2425,0.2486,0.0000*
1,1,0.2425,0.2486,0.0000*
1,1,0.2425,-0.2486,0.0000*
1,1,0.2425,-0.2486,0.0000*
%
%ADD56ROUNDEDRECTD56*%
G04:AMPARAMS|DCode=57|XSize=0.7397mm|YSize=0.2425mm|CornerRadius=0.1212mm|HoleSize=0mm|Usage=FLASHONLY|Rotation=90.000|XOffset=0mm|YOffset=0mm|HoleType=Round|Shape=RoundedRectangle|*
%AMROUNDEDRECTD57*
21,1,0.7397,0.0000,0,0,90.0*
21,1,0.4972,0.2425,0,0,90.0*
1,1,0.2425,0.0000,0.2486*
1,1,0.2425,0.0000,-0.2486*
1,1,0.2425,0.0000,-0.2486*
1,1,0.2425,0.0000,0.2486*
%
%ADD57ROUNDEDRECTD57*%
%ADD58R,0.2425X0.7397*%
%ADD59R,1.0500X0.6500*%
%ADD60R,0.6000X0.6000*%
%ADD61R,1.4500X2.0000*%
%ADD62R,0.8000X1.5000*%
%ADD63R,3.1500X1.0000*%
%ADD64R,0.8500X0.6500*%
%ADD65R,0.6500X0.8500*%
%ADD66R,0.7500X0.9000*%
%ADD67R,0.6000X1.0000*%
%ADD68R,0.8000X0.6000*%
%ADD69R,0.3000X0.3000*%
%ADD70R,1.2700X2.2000*%
%ADD71R,2.4000X0.7600*%
%ADD72R,0.4500X0.6300*%
%ADD73R,2.6000X1.2200*%
%ADD74R,2.7000X0.9000*%
%ADD75R,1.0000X0.6000*%
%ADD76R,0.3000X0.3000*%
%ADD77R,1.6000X3.0000*%
%ADD78R,1.0000X5.5000*%
%ADD79R,0.6000X2.8000*%
%ADD80R,0.3000X0.8000*%
%ADD81R,0.7000X0.7000*%
%ADD82R,1.2700X0.7600*%
%ADD83R,0.7600X1.2700*%
%ADD84R,0.6000X0.6000*%
%ADD85R,0.5500X0.5200*%
%ADD86R,0.9000X2.7000*%
%ADD87R,0.6000X0.8000*%
%ADD88R,0.6000X0.5000*%
%ADD89R,0.6500X1.0500*%
%ADD90R,0.7397X0.2425*%
G04:AMPARAMS|DCode=91|XSize=0.7397mm|YSize=0.2425mm|CornerRadius=0.1212mm|HoleSize=0mm|Usage=FLASHONLY|Rotation=0.000|XOffset=0mm|YOffset=0mm|HoleType=Round|Shape=RoundedRectangle|*
%AMROUNDEDRECTD91*
21,1,0.7397,0.0000,0,0,0.0*
21,1,0.4972,0.2425,0,0,0.0*
1,1,0.2425,0.2486,0.0000*
1,1,0.2425,-0.2486,0.0000*
1,1,0.2425,-0.2486,0.0000*
1,1,0.2425,0.2486,0.0000*
%
%ADD91ROUNDEDRECTD91*%
G04:AMPARAMS|DCode=92|XSize=0.2425mm|YSize=0.7397mm|CornerRadius=0.1212mm|HoleSize=0mm|Usage=FLASHONLY|Rotation=0.000|XOffset=0mm|YOffset=0mm|HoleType=Round|Shape=RoundedRectangle|*
%AMROUNDEDRECTD92*
21,1,0.2425,0.4972,0,0,0.0*
21,1,0.0000,0.7397,0,0,0.0*
1,1,0.2425,0.0000,-0.2486*
1,1,0.2425,0.0000,-0.2486*
1,1,0.2425,0.0000,0.2486*
1,1,0.2425,0.0000,0.2486*
%
%ADD92ROUNDEDRECTD92*%
G36*
X931375Y-543270D02*
X935910D01*
Y-543724D01*
X938632D01*
Y-544178D01*
X940899D01*
Y-544631D01*
X942713D01*
Y-545085D01*
X944528D01*
Y-545538D01*
X945888D01*
Y-545992D01*
X947249D01*
Y-546445D01*
X948610D01*
Y-546899D01*
X949517D01*
Y-547352D01*
X950878D01*
Y-547806D01*
X951785D01*
Y-548260D01*
X952692D01*
Y-548713D01*
X953599D01*
Y-549167D01*
X954506D01*
Y-549620D01*
X955413D01*
Y-550074D01*
X955867D01*
Y-550527D01*
X956774D01*
Y-550981D01*
X957681D01*
Y-551435D01*
X958135D01*
Y-551888D01*
X959042D01*
Y-552342D01*
X959495D01*
Y-552795D01*
X960402D01*
Y-553249D01*
X960856D01*
Y-553702D01*
X961309D01*
Y-554156D01*
X962216D01*
Y-554609D01*
X962670D01*
Y-555063D01*
X963123D01*
Y-555517D01*
X963577D01*
Y-555970D01*
X964484D01*
Y-556424D01*
X964938D01*
Y-556877D01*
X965391D01*
Y-557331D01*
X965845D01*
Y-557784D01*
X966298D01*
Y-558238D01*
X966752D01*
Y-558691D01*
X967206D01*
Y-559145D01*
X967659D01*
Y-559599D01*
X968113D01*
Y-560052D01*
X968566D01*
Y-560506D01*
X969020D01*
Y-560959D01*
X969473D01*
Y-561413D01*
Y-561866D01*
X969927D01*
Y-562320D01*
X970380D01*
Y-562773D01*
X970834D01*
Y-563227D01*
X971288D01*
Y-563680D01*
Y-564134D01*
X971741D01*
Y-564588D01*
X972195D01*
Y-565041D01*
X972648D01*
Y-565495D01*
Y-565948D01*
X973102D01*
Y-566402D01*
X973555D01*
Y-566855D01*
Y-567309D01*
X974009D01*
Y-567762D01*
X974463D01*
Y-568216D01*
Y-568670D01*
X974916D01*
Y-569123D01*
X975370D01*
Y-569577D01*
Y-570030D01*
X975823D01*
Y-570484D01*
Y-570937D01*
X976277D01*
Y-571391D01*
Y-571844D01*
X976730D01*
Y-572298D01*
Y-572752D01*
X977184D01*
Y-573205D01*
Y-573659D01*
X977637D01*
Y-574112D01*
Y-574566D01*
X978091D01*
Y-575019D01*
Y-575473D01*
X978544D01*
Y-575927D01*
Y-576380D01*
Y-576834D01*
X978998D01*
Y-577287D01*
Y-577741D01*
X979452D01*
Y-578194D01*
Y-578648D01*
Y-579101D01*
X979905D01*
Y-579555D01*
Y-580009D01*
Y-580462D01*
X980359D01*
Y-580916D01*
Y-581369D01*
Y-581823D01*
Y-582276D01*
X980812D01*
Y-582730D01*
Y-583183D01*
Y-583637D01*
Y-584090D01*
X981266D01*
Y-584544D01*
Y-584998D01*
Y-585451D01*
Y-585905D01*
X981719D01*
Y-586358D01*
Y-586812D01*
Y-587265D01*
Y-587719D01*
Y-588172D01*
Y-588626D01*
Y-589080D01*
X982173D01*
Y-589533D01*
Y-589987D01*
Y-590440D01*
Y-590894D01*
Y-591347D01*
Y-591801D01*
Y-592254D01*
Y-592708D01*
Y-593162D01*
Y-593615D01*
Y-594069D01*
X982626D01*
Y-594522D01*
Y-594976D01*
Y-595429D01*
Y-595883D01*
Y-596337D01*
Y-596790D01*
Y-597244D01*
Y-597697D01*
Y-598151D01*
Y-598604D01*
X982173D01*
Y-599058D01*
Y-599511D01*
Y-599965D01*
Y-600419D01*
Y-600872D01*
Y-601326D01*
Y-601779D01*
Y-602233D01*
Y-602686D01*
Y-603140D01*
Y-603593D01*
X981719D01*
Y-604047D01*
Y-604501D01*
Y-604954D01*
Y-605408D01*
Y-605861D01*
Y-606315D01*
X981266D01*
Y-606768D01*
Y-607222D01*
Y-607675D01*
Y-608129D01*
Y-608583D01*
X980812D01*
Y-609036D01*
Y-609490D01*
Y-609943D01*
Y-610397D01*
X980359D01*
Y-610850D01*
Y-611304D01*
Y-611758D01*
Y-612211D01*
X979905D01*
Y-612665D01*
Y-613118D01*
Y-613572D01*
X979452D01*
Y-614025D01*
Y-614479D01*
X978998D01*
Y-614932D01*
Y-615386D01*
Y-615839D01*
X978544D01*
Y-616293D01*
Y-616747D01*
X978091D01*
Y-617200D01*
Y-617654D01*
Y-618107D01*
X977637D01*
Y-618561D01*
Y-619014D01*
X977184D01*
Y-619468D01*
Y-619921D01*
X976730D01*
Y-620375D01*
Y-620829D01*
X976277D01*
Y-621282D01*
Y-621736D01*
X975823D01*
Y-621282D01*
Y-620829D01*
Y-620375D01*
Y-619921D01*
Y-619468D01*
Y-619014D01*
Y-618561D01*
Y-618107D01*
Y-617654D01*
Y-617200D01*
Y-616747D01*
Y-616293D01*
Y-615839D01*
Y-615386D01*
Y-614932D01*
Y-614479D01*
Y-614025D01*
Y-613572D01*
Y-613118D01*
Y-612665D01*
Y-612211D01*
Y-611758D01*
Y-611304D01*
Y-610850D01*
Y-610397D01*
Y-609943D01*
Y-609490D01*
Y-609036D01*
Y-608583D01*
Y-608129D01*
Y-607675D01*
Y-607222D01*
Y-606768D01*
Y-606315D01*
Y-605861D01*
Y-605408D01*
Y-604954D01*
Y-604501D01*
Y-604047D01*
Y-603593D01*
Y-603140D01*
Y-602686D01*
Y-602233D01*
Y-601779D01*
Y-601326D01*
Y-600872D01*
Y-600419D01*
Y-599965D01*
Y-599511D01*
Y-599058D01*
Y-598604D01*
Y-598151D01*
Y-597697D01*
Y-597244D01*
Y-596790D01*
Y-596337D01*
Y-595883D01*
Y-595429D01*
Y-594976D01*
Y-594522D01*
Y-594069D01*
Y-593615D01*
Y-593162D01*
Y-592708D01*
Y-592254D01*
Y-591801D01*
Y-591347D01*
Y-590894D01*
Y-590440D01*
Y-589987D01*
Y-589533D01*
Y-589080D01*
Y-588626D01*
Y-588172D01*
Y-587719D01*
Y-587265D01*
X963123D01*
Y-587719D01*
Y-588172D01*
Y-588626D01*
Y-589080D01*
Y-589533D01*
Y-589987D01*
Y-590440D01*
Y-590894D01*
Y-591347D01*
Y-591801D01*
Y-592254D01*
Y-592708D01*
Y-593162D01*
Y-593615D01*
Y-594069D01*
Y-594522D01*
Y-594976D01*
Y-595429D01*
Y-595883D01*
Y-596337D01*
Y-596790D01*
Y-597244D01*
Y-597697D01*
Y-598151D01*
Y-598604D01*
Y-599058D01*
Y-599511D01*
Y-599965D01*
Y-600419D01*
Y-600872D01*
Y-601326D01*
Y-601779D01*
Y-602233D01*
Y-602686D01*
Y-603140D01*
Y-603593D01*
Y-604047D01*
Y-604501D01*
Y-604954D01*
Y-605408D01*
Y-605861D01*
Y-606315D01*
Y-606768D01*
Y-607222D01*
Y-607675D01*
Y-608129D01*
Y-608583D01*
Y-609036D01*
Y-609490D01*
Y-609943D01*
Y-610397D01*
Y-610850D01*
Y-611304D01*
Y-611758D01*
Y-612211D01*
Y-612665D01*
Y-613118D01*
Y-613572D01*
Y-614025D01*
Y-614479D01*
Y-614932D01*
X962670D01*
Y-615386D01*
Y-615839D01*
Y-616293D01*
Y-616747D01*
X962216D01*
Y-617200D01*
Y-617654D01*
X961763D01*
Y-618107D01*
Y-618561D01*
X961309D01*
Y-619014D01*
X960856D01*
Y-619468D01*
X960402D01*
Y-619921D01*
X959949D01*
Y-620375D01*
X959495D01*
Y-620829D01*
X958588D01*
Y-621282D01*
X957227D01*
Y-621736D01*
X950878D01*
Y-621282D01*
X949517D01*
Y-620829D01*
X948610D01*
Y-620375D01*
X948156D01*
Y-619921D01*
X947703D01*
Y-619468D01*
X947249D01*
Y-619014D01*
Y-618561D01*
X946796D01*
Y-618107D01*
Y-617654D01*
X946342D01*
Y-617200D01*
Y-616747D01*
Y-616293D01*
Y-615839D01*
X945888D01*
Y-615386D01*
Y-614932D01*
Y-614479D01*
Y-614025D01*
Y-613572D01*
Y-613118D01*
Y-612665D01*
Y-612211D01*
Y-611758D01*
Y-611304D01*
Y-610850D01*
Y-610397D01*
Y-609943D01*
Y-609490D01*
Y-609036D01*
Y-608583D01*
Y-608129D01*
Y-607675D01*
Y-607222D01*
Y-606768D01*
Y-606315D01*
Y-605861D01*
Y-605408D01*
Y-604954D01*
Y-604501D01*
Y-604047D01*
Y-603593D01*
Y-603140D01*
Y-602686D01*
Y-602233D01*
Y-601779D01*
Y-601326D01*
Y-600872D01*
Y-600419D01*
Y-599965D01*
Y-599511D01*
Y-599058D01*
Y-598604D01*
Y-598151D01*
Y-597697D01*
Y-597244D01*
Y-596790D01*
Y-596337D01*
Y-595883D01*
Y-595429D01*
Y-594976D01*
Y-594522D01*
Y-594069D01*
Y-593615D01*
Y-593162D01*
Y-592708D01*
Y-592254D01*
Y-591801D01*
Y-591347D01*
Y-590894D01*
Y-590440D01*
Y-589987D01*
Y-589533D01*
Y-589080D01*
Y-588626D01*
Y-588172D01*
Y-587719D01*
Y-587265D01*
X933189D01*
Y-587719D01*
Y-588172D01*
Y-588626D01*
Y-589080D01*
Y-589533D01*
Y-589987D01*
Y-590440D01*
Y-590894D01*
Y-591347D01*
Y-591801D01*
Y-592254D01*
Y-592708D01*
Y-593162D01*
Y-593615D01*
Y-594069D01*
Y-594522D01*
Y-594976D01*
Y-595429D01*
Y-595883D01*
Y-596337D01*
Y-596790D01*
Y-597244D01*
Y-597697D01*
Y-598151D01*
Y-598604D01*
Y-599058D01*
Y-599511D01*
Y-599965D01*
Y-600419D01*
Y-600872D01*
Y-601326D01*
Y-601779D01*
Y-602233D01*
Y-602686D01*
Y-603140D01*
Y-603593D01*
Y-604047D01*
Y-604501D01*
Y-604954D01*
Y-605408D01*
Y-605861D01*
Y-606315D01*
Y-606768D01*
Y-607222D01*
Y-607675D01*
Y-608129D01*
Y-608583D01*
Y-609036D01*
Y-609490D01*
Y-609943D01*
Y-610397D01*
Y-610850D01*
Y-611304D01*
Y-611758D01*
Y-612211D01*
Y-612665D01*
Y-613118D01*
Y-613572D01*
Y-614025D01*
Y-614479D01*
Y-614932D01*
Y-615386D01*
Y-615839D01*
Y-616293D01*
Y-616747D01*
Y-617200D01*
Y-617654D01*
Y-618107D01*
Y-618561D01*
Y-619014D01*
Y-619468D01*
Y-619921D01*
Y-620375D01*
X933642D01*
Y-620829D01*
Y-621282D01*
Y-621736D01*
Y-622189D01*
X934096D01*
Y-622643D01*
Y-623096D01*
Y-623550D01*
X934549D01*
Y-624003D01*
Y-624457D01*
Y-624911D01*
X935003D01*
Y-625364D01*
Y-625818D01*
X935457D01*
Y-626271D01*
X935910D01*
Y-626725D01*
Y-627178D01*
X936364D01*
Y-627632D01*
X936817D01*
Y-628086D01*
X937271D01*
Y-628539D01*
X937724D01*
Y-628993D01*
X938178D01*
Y-629446D01*
X938632D01*
Y-629900D01*
X939539D01*
Y-630353D01*
X939992D01*
Y-630807D01*
X940899D01*
Y-631260D01*
X941806D01*
Y-631714D01*
X942713D01*
Y-632168D01*
X944074D01*
Y-632621D01*
X945888D01*
Y-633075D01*
X954960D01*
Y-632621D01*
X956774D01*
Y-632168D01*
X957681D01*
Y-631714D01*
X959042D01*
Y-631260D01*
X959495D01*
Y-630807D01*
X960402D01*
Y-630353D01*
X960856D01*
Y-629900D01*
X961309D01*
Y-629446D01*
X962216D01*
Y-628993D01*
X962670D01*
Y-628539D01*
X963123D01*
Y-628086D01*
Y-627632D01*
X963577D01*
Y-628086D01*
Y-628539D01*
Y-628993D01*
Y-629446D01*
Y-629900D01*
Y-630353D01*
Y-630807D01*
Y-631260D01*
Y-631714D01*
Y-632168D01*
X968566D01*
Y-632621D01*
X968113D01*
Y-633075D01*
X967659D01*
Y-633528D01*
X967206D01*
Y-633982D01*
X966752D01*
Y-634435D01*
X966298D01*
Y-634889D01*
X965845D01*
Y-635342D01*
X965391D01*
Y-635796D01*
X964938D01*
Y-636250D01*
X964031D01*
Y-636703D01*
X963577D01*
Y-637157D01*
X963123D01*
Y-637610D01*
X962670D01*
Y-638064D01*
X961763D01*
Y-638517D01*
X961309D01*
Y-638971D01*
X960856D01*
Y-639424D01*
X959949D01*
Y-639878D01*
X959495D01*
Y-640331D01*
X958588D01*
Y-640785D01*
X958135D01*
Y-641239D01*
X957227D01*
Y-641692D01*
X956774D01*
Y-642146D01*
X955867D01*
Y-642599D01*
X954960D01*
Y-643053D01*
X954052D01*
Y-643506D01*
X953599D01*
Y-643960D01*
X952692D01*
Y-644414D01*
X951331D01*
Y-644867D01*
X950424D01*
Y-645321D01*
X949517D01*
Y-645774D01*
X948156D01*
Y-646228D01*
X947249D01*
Y-646681D01*
X945888D01*
Y-647135D01*
X944074D01*
Y-647588D01*
X942713D01*
Y-648042D01*
X940899D01*
Y-648495D01*
X938178D01*
Y-648949D01*
X935003D01*
Y-649403D01*
X923211D01*
Y-648949D01*
X920036D01*
Y-648495D01*
X917768D01*
Y-648042D01*
X915954D01*
Y-647588D01*
X914139D01*
Y-647135D01*
X912779D01*
Y-646681D01*
X911418D01*
Y-646228D01*
X910058D01*
Y-645774D01*
X909150D01*
Y-645321D01*
X907790D01*
Y-644867D01*
X906883D01*
Y-644414D01*
X905975D01*
Y-643960D01*
X905068D01*
Y-643506D01*
X904161D01*
Y-643053D01*
X903254D01*
Y-642599D01*
X902347D01*
Y-642146D01*
X901893D01*
Y-641692D01*
X900986D01*
Y-641239D01*
X900079D01*
Y-640785D01*
X899626D01*
Y-640331D01*
X898719D01*
Y-639878D01*
X898265D01*
Y-639424D01*
X897812D01*
Y-638971D01*
X896904D01*
Y-638517D01*
X896451D01*
Y-638064D01*
X895997D01*
Y-637610D01*
X895090D01*
Y-637157D01*
X894637D01*
Y-636703D01*
X894183D01*
Y-636250D01*
X893729D01*
Y-635796D01*
X893276D01*
Y-635342D01*
X892822D01*
Y-634889D01*
X892369D01*
Y-634435D01*
X891915D01*
Y-633982D01*
X891462D01*
Y-633528D01*
X891008D01*
Y-633075D01*
X890555D01*
Y-632621D01*
X890101D01*
Y-632168D01*
X889648D01*
Y-631714D01*
X889194D01*
Y-631260D01*
X888740D01*
Y-630807D01*
X888287D01*
Y-630353D01*
X887833D01*
Y-629900D01*
Y-629446D01*
X887380D01*
Y-628993D01*
X886926D01*
Y-628539D01*
X886473D01*
Y-628086D01*
X886019D01*
Y-627632D01*
Y-627178D01*
X885565D01*
Y-626725D01*
X885112D01*
Y-626271D01*
Y-625818D01*
X884658D01*
Y-625364D01*
X884205D01*
Y-624911D01*
Y-624457D01*
X883751D01*
Y-624003D01*
X883298D01*
Y-623550D01*
Y-623096D01*
X882844D01*
Y-622643D01*
Y-622189D01*
X882391D01*
Y-621736D01*
Y-621282D01*
X881937D01*
Y-620829D01*
Y-620375D01*
X881484D01*
Y-619921D01*
Y-619468D01*
X881030D01*
Y-619014D01*
Y-618561D01*
X880576D01*
Y-618107D01*
Y-617654D01*
X880123D01*
Y-617200D01*
Y-616747D01*
X879669D01*
Y-616293D01*
Y-615839D01*
Y-615386D01*
X879216D01*
Y-614932D01*
Y-614479D01*
Y-614025D01*
X878762D01*
Y-613572D01*
Y-613118D01*
X878309D01*
Y-612665D01*
Y-612211D01*
Y-611758D01*
Y-611304D01*
X877855D01*
Y-610850D01*
Y-610397D01*
Y-609943D01*
X877402D01*
Y-609490D01*
Y-609036D01*
Y-608583D01*
Y-608129D01*
X876948D01*
Y-607675D01*
Y-607222D01*
Y-606768D01*
Y-606315D01*
Y-605861D01*
X876494D01*
Y-605408D01*
Y-604954D01*
Y-604501D01*
Y-604047D01*
Y-603593D01*
Y-603140D01*
Y-602686D01*
X876041D01*
Y-602233D01*
Y-601779D01*
Y-601326D01*
Y-600872D01*
Y-600419D01*
Y-599965D01*
Y-599511D01*
Y-599058D01*
Y-598604D01*
Y-598151D01*
X875587D01*
Y-597697D01*
Y-597244D01*
Y-596790D01*
Y-596337D01*
Y-595883D01*
Y-595429D01*
Y-594976D01*
Y-594522D01*
Y-594069D01*
X876041D01*
Y-593615D01*
Y-593162D01*
Y-592708D01*
Y-592254D01*
Y-591801D01*
Y-591347D01*
Y-590894D01*
Y-590440D01*
Y-589987D01*
X876494D01*
Y-589533D01*
Y-589080D01*
Y-588626D01*
Y-588172D01*
Y-587719D01*
Y-587265D01*
Y-586812D01*
X876948D01*
Y-586358D01*
Y-585905D01*
Y-585451D01*
Y-584998D01*
Y-584544D01*
X877402D01*
Y-584090D01*
Y-583637D01*
Y-583183D01*
Y-582730D01*
X877855D01*
Y-582276D01*
Y-581823D01*
Y-581369D01*
Y-580916D01*
X878309D01*
Y-580462D01*
Y-580009D01*
Y-579555D01*
X878762D01*
Y-579101D01*
Y-578648D01*
Y-578194D01*
X879216D01*
Y-577741D01*
Y-577287D01*
X879669D01*
Y-576834D01*
Y-576380D01*
Y-575927D01*
X880123D01*
Y-575473D01*
Y-575019D01*
X880576D01*
Y-574566D01*
Y-574112D01*
Y-573659D01*
X881030D01*
Y-573205D01*
Y-572752D01*
X881484D01*
Y-572298D01*
Y-571844D01*
X881937D01*
Y-571391D01*
Y-570937D01*
X882391D01*
Y-570484D01*
X882844D01*
Y-570030D01*
Y-569577D01*
X883298D01*
Y-569123D01*
Y-568670D01*
X883751D01*
Y-568216D01*
X884205D01*
Y-567762D01*
Y-567309D01*
X884658D01*
Y-566855D01*
X885112D01*
Y-566402D01*
Y-565948D01*
X885565D01*
Y-565495D01*
X886019D01*
Y-565041D01*
Y-564588D01*
X886473D01*
Y-564134D01*
X886926D01*
Y-563680D01*
X887380D01*
Y-563227D01*
Y-562773D01*
X887833D01*
Y-562320D01*
X888287D01*
Y-561866D01*
X888740D01*
Y-561413D01*
X889194D01*
Y-560959D01*
X889648D01*
Y-560506D01*
X890101D01*
Y-560052D01*
X890555D01*
Y-559599D01*
Y-559145D01*
X891008D01*
Y-558691D01*
X891462D01*
Y-558238D01*
X891915D01*
Y-557784D01*
X892822D01*
Y-557331D01*
X893276D01*
Y-556877D01*
X893729D01*
Y-556424D01*
X894183D01*
Y-555970D01*
X894637D01*
Y-555517D01*
X895090D01*
Y-555063D01*
X895544D01*
Y-554609D01*
X896451D01*
Y-554156D01*
X896904D01*
Y-553702D01*
X897358D01*
Y-553249D01*
X898265D01*
Y-552795D01*
X898719D01*
Y-552342D01*
X899626D01*
Y-551888D01*
X900079D01*
Y-551435D01*
X900986D01*
Y-550981D01*
X901440D01*
Y-550527D01*
X902347D01*
Y-550074D01*
X903254D01*
Y-549620D01*
X903708D01*
Y-549167D01*
X905068D01*
Y-548713D01*
X905975D01*
Y-548260D01*
X906883D01*
Y-547806D01*
X907790D01*
Y-547352D01*
X908697D01*
Y-546899D01*
X910058D01*
Y-546445D01*
X910965D01*
Y-545992D01*
X912325D01*
Y-545538D01*
X913686D01*
Y-545085D01*
X915500D01*
Y-544631D01*
X917314D01*
Y-544178D01*
X919582D01*
Y-543724D01*
X922757D01*
Y-543270D01*
X927293D01*
Y-542817D01*
X931375D01*
Y-543270D01*
D02*
G37*
G36*
X1001676Y-570484D02*
Y-570937D01*
Y-571391D01*
Y-571844D01*
Y-572298D01*
Y-572752D01*
Y-573205D01*
Y-573659D01*
Y-574112D01*
Y-574566D01*
Y-575019D01*
Y-575473D01*
Y-575927D01*
Y-576380D01*
Y-576834D01*
Y-577287D01*
Y-577741D01*
Y-578194D01*
Y-578648D01*
Y-579101D01*
Y-579555D01*
Y-580009D01*
Y-580462D01*
Y-580916D01*
Y-581369D01*
Y-581823D01*
Y-582276D01*
Y-582730D01*
Y-583183D01*
Y-583637D01*
Y-584090D01*
Y-584544D01*
Y-584998D01*
Y-585451D01*
Y-585905D01*
Y-586358D01*
Y-586812D01*
Y-587265D01*
Y-587719D01*
Y-588172D01*
Y-588626D01*
Y-589080D01*
Y-589533D01*
Y-589987D01*
Y-590440D01*
Y-590894D01*
Y-591347D01*
Y-591801D01*
Y-592254D01*
Y-592708D01*
X1002583D01*
Y-592254D01*
X1003036D01*
Y-591801D01*
X1003490D01*
Y-591347D01*
X1003944D01*
Y-590894D01*
X1004397D01*
Y-590440D01*
X1004851D01*
Y-589987D01*
X1005304D01*
Y-589533D01*
X1006211D01*
Y-589080D01*
X1006665D01*
Y-588626D01*
X1007572D01*
Y-588172D01*
X1008479D01*
Y-587719D01*
X1009840D01*
Y-587265D01*
X1011654D01*
Y-586812D01*
X1020272D01*
Y-587265D01*
X1022086D01*
Y-587719D01*
X1023447D01*
Y-588172D01*
X1024807D01*
Y-588626D01*
X1025714D01*
Y-589080D01*
X1026168D01*
Y-589533D01*
X1027075D01*
Y-589987D01*
X1027529D01*
Y-590440D01*
X1028436D01*
Y-590894D01*
X1028889D01*
Y-591347D01*
X1029343D01*
Y-591801D01*
X1029796D01*
Y-592254D01*
X1030250D01*
Y-592708D01*
X1030703D01*
Y-593162D01*
Y-593615D01*
X1031157D01*
Y-594069D01*
X1031610D01*
Y-594522D01*
X1032064D01*
Y-594976D01*
Y-595429D01*
X1032518D01*
Y-595883D01*
Y-596337D01*
X1032971D01*
Y-596790D01*
Y-597244D01*
X1033425D01*
Y-597697D01*
Y-598151D01*
X1033878D01*
Y-598604D01*
Y-599058D01*
Y-599511D01*
X1034332D01*
Y-599965D01*
Y-600419D01*
Y-600872D01*
Y-601326D01*
X1034785D01*
Y-601779D01*
Y-602233D01*
Y-602686D01*
Y-603140D01*
Y-603593D01*
X1035239D01*
Y-604047D01*
Y-604501D01*
Y-604954D01*
Y-605408D01*
Y-605861D01*
Y-606315D01*
Y-606768D01*
Y-607222D01*
Y-607675D01*
X1035693D01*
Y-608129D01*
X1035239D01*
Y-608583D01*
Y-609036D01*
Y-609490D01*
Y-609943D01*
Y-610397D01*
Y-610850D01*
Y-611304D01*
Y-611758D01*
Y-612211D01*
Y-612665D01*
Y-613118D01*
Y-613572D01*
Y-614025D01*
Y-614479D01*
Y-614932D01*
Y-615386D01*
Y-615839D01*
X1034785D01*
Y-616293D01*
Y-616747D01*
Y-617200D01*
Y-617654D01*
Y-618107D01*
X1034332D01*
Y-618561D01*
Y-619014D01*
Y-619468D01*
X1033878D01*
Y-619921D01*
Y-620375D01*
Y-620829D01*
X1033425D01*
Y-621282D01*
Y-621736D01*
Y-622189D01*
X1032971D01*
Y-622643D01*
Y-623096D01*
X1032518D01*
Y-623550D01*
Y-624003D01*
X1032064D01*
Y-624457D01*
X1031610D01*
Y-624911D01*
Y-625364D01*
X1031157D01*
Y-625818D01*
X1030703D01*
Y-626271D01*
X1030250D01*
Y-626725D01*
X1029796D01*
Y-627178D01*
Y-627632D01*
X1028889D01*
Y-628086D01*
X1028436D01*
Y-628539D01*
X1027982D01*
Y-628993D01*
X1027529D01*
Y-629446D01*
X1026621D01*
Y-629900D01*
X1026168D01*
Y-630353D01*
X1025261D01*
Y-630807D01*
X1024354D01*
Y-631260D01*
X1023447D01*
Y-631714D01*
X1022086D01*
Y-632168D01*
X1019818D01*
Y-632621D01*
X1012108D01*
Y-632168D01*
X1009840D01*
Y-631714D01*
X1008933D01*
Y-631260D01*
X1007572D01*
Y-630807D01*
X1007119D01*
Y-630353D01*
X1006211D01*
Y-629900D01*
X1005758D01*
Y-629446D01*
X1004851D01*
Y-628993D01*
X1004397D01*
Y-628539D01*
X1003944D01*
Y-628086D01*
X1003490D01*
Y-627632D01*
X1003036D01*
Y-627178D01*
X1002583D01*
Y-626725D01*
X1002129D01*
Y-626271D01*
Y-625818D01*
X1001222D01*
Y-626271D01*
Y-626725D01*
Y-627178D01*
Y-627632D01*
Y-628086D01*
Y-628539D01*
Y-628993D01*
Y-629446D01*
Y-629900D01*
Y-630353D01*
Y-630807D01*
Y-631260D01*
Y-631714D01*
X989883D01*
Y-631260D01*
Y-630807D01*
Y-630353D01*
Y-629900D01*
Y-629446D01*
Y-628993D01*
Y-628539D01*
Y-628086D01*
Y-627632D01*
Y-627178D01*
Y-626725D01*
Y-626271D01*
Y-625818D01*
Y-625364D01*
Y-624911D01*
Y-624457D01*
Y-624003D01*
Y-623550D01*
Y-623096D01*
Y-622643D01*
Y-622189D01*
Y-621736D01*
Y-621282D01*
Y-620829D01*
Y-620375D01*
Y-619921D01*
Y-619468D01*
Y-619014D01*
Y-618561D01*
Y-618107D01*
Y-617654D01*
Y-617200D01*
Y-616747D01*
Y-616293D01*
Y-615839D01*
Y-615386D01*
Y-614932D01*
Y-614479D01*
Y-614025D01*
Y-613572D01*
Y-613118D01*
Y-612665D01*
Y-612211D01*
Y-611758D01*
Y-611304D01*
Y-610850D01*
Y-610397D01*
Y-609943D01*
Y-609490D01*
Y-609036D01*
Y-608583D01*
Y-608129D01*
Y-607675D01*
Y-607222D01*
Y-606768D01*
Y-606315D01*
Y-605861D01*
Y-605408D01*
Y-604954D01*
Y-604501D01*
Y-604047D01*
Y-603593D01*
Y-603140D01*
Y-602686D01*
Y-602233D01*
Y-601779D01*
Y-601326D01*
Y-600872D01*
Y-600419D01*
Y-599965D01*
Y-599511D01*
Y-599058D01*
Y-598604D01*
Y-598151D01*
Y-597697D01*
Y-597244D01*
Y-596790D01*
Y-596337D01*
Y-595883D01*
Y-595429D01*
Y-594976D01*
Y-594522D01*
Y-594069D01*
Y-593615D01*
Y-593162D01*
Y-592708D01*
Y-592254D01*
Y-591801D01*
Y-591347D01*
Y-590894D01*
Y-590440D01*
Y-589987D01*
Y-589533D01*
Y-589080D01*
Y-588626D01*
Y-588172D01*
Y-587719D01*
Y-587265D01*
Y-586812D01*
Y-586358D01*
Y-585905D01*
Y-585451D01*
Y-584998D01*
Y-584544D01*
Y-584090D01*
Y-583637D01*
Y-583183D01*
Y-582730D01*
Y-582276D01*
Y-581823D01*
Y-581369D01*
Y-580916D01*
Y-580462D01*
Y-580009D01*
Y-579555D01*
Y-579101D01*
Y-578648D01*
Y-578194D01*
Y-577741D01*
Y-577287D01*
Y-576834D01*
Y-576380D01*
Y-575927D01*
Y-575473D01*
Y-575019D01*
Y-574566D01*
Y-574112D01*
Y-573659D01*
Y-573205D01*
Y-572752D01*
Y-572298D01*
Y-571844D01*
Y-571391D01*
Y-570937D01*
Y-570484D01*
Y-570030D01*
X1001676D01*
Y-570484D01*
D02*
G37*
G36*
X1055195D02*
Y-570937D01*
Y-571391D01*
Y-571844D01*
Y-572298D01*
Y-572752D01*
Y-573205D01*
Y-573659D01*
Y-574112D01*
Y-574566D01*
Y-575019D01*
Y-575473D01*
Y-575927D01*
Y-576380D01*
Y-576834D01*
Y-577287D01*
Y-577741D01*
Y-578194D01*
Y-578648D01*
Y-579101D01*
Y-579555D01*
Y-580009D01*
Y-580462D01*
Y-580916D01*
Y-581369D01*
Y-581823D01*
Y-582276D01*
Y-582730D01*
Y-583183D01*
Y-583637D01*
Y-584090D01*
Y-584544D01*
Y-584998D01*
Y-585451D01*
Y-585905D01*
Y-586358D01*
Y-586812D01*
Y-587265D01*
Y-587719D01*
Y-588172D01*
Y-588626D01*
Y-589080D01*
Y-589533D01*
Y-589987D01*
Y-590440D01*
Y-590894D01*
Y-591347D01*
Y-591801D01*
Y-592254D01*
Y-592708D01*
Y-593162D01*
Y-593615D01*
Y-594069D01*
Y-594522D01*
Y-594976D01*
Y-595429D01*
Y-595883D01*
Y-596337D01*
Y-596790D01*
Y-597244D01*
Y-597697D01*
Y-598151D01*
Y-598604D01*
Y-599058D01*
Y-599511D01*
Y-599965D01*
Y-600419D01*
Y-600872D01*
Y-601326D01*
Y-601779D01*
Y-602233D01*
Y-602686D01*
Y-603140D01*
Y-603593D01*
Y-604047D01*
Y-604501D01*
Y-604954D01*
Y-605408D01*
Y-605861D01*
Y-606315D01*
Y-606768D01*
Y-607222D01*
Y-607675D01*
Y-608129D01*
Y-608583D01*
Y-609036D01*
Y-609490D01*
Y-609943D01*
Y-610397D01*
Y-610850D01*
Y-611304D01*
Y-611758D01*
Y-612211D01*
Y-612665D01*
Y-613118D01*
Y-613572D01*
Y-614025D01*
Y-614479D01*
Y-614932D01*
Y-615386D01*
Y-615839D01*
Y-616293D01*
Y-616747D01*
Y-617200D01*
Y-617654D01*
Y-618107D01*
Y-618561D01*
Y-619014D01*
Y-619468D01*
Y-619921D01*
Y-620375D01*
Y-620829D01*
Y-621282D01*
Y-621736D01*
Y-622189D01*
Y-622643D01*
Y-623096D01*
Y-623550D01*
Y-624003D01*
Y-624457D01*
Y-624911D01*
Y-625364D01*
Y-625818D01*
Y-626271D01*
Y-626725D01*
Y-627178D01*
Y-627632D01*
Y-628086D01*
Y-628539D01*
Y-628993D01*
Y-629446D01*
Y-629900D01*
Y-630353D01*
Y-630807D01*
Y-631260D01*
Y-631714D01*
X1043857D01*
Y-631260D01*
Y-630807D01*
Y-630353D01*
Y-629900D01*
Y-629446D01*
Y-628993D01*
Y-628539D01*
Y-628086D01*
Y-627632D01*
Y-627178D01*
Y-626725D01*
Y-626271D01*
Y-625818D01*
Y-625364D01*
Y-624911D01*
Y-624457D01*
Y-624003D01*
Y-623550D01*
Y-623096D01*
Y-622643D01*
Y-622189D01*
Y-621736D01*
Y-621282D01*
Y-620829D01*
Y-620375D01*
Y-619921D01*
Y-619468D01*
Y-619014D01*
Y-618561D01*
Y-618107D01*
Y-617654D01*
Y-617200D01*
Y-616747D01*
Y-616293D01*
Y-615839D01*
Y-615386D01*
Y-614932D01*
Y-614479D01*
Y-614025D01*
Y-613572D01*
Y-613118D01*
Y-612665D01*
Y-612211D01*
Y-611758D01*
Y-611304D01*
Y-610850D01*
Y-610397D01*
Y-609943D01*
Y-609490D01*
Y-609036D01*
Y-608583D01*
Y-608129D01*
Y-607675D01*
Y-607222D01*
Y-606768D01*
Y-606315D01*
Y-605861D01*
Y-605408D01*
Y-604954D01*
Y-604501D01*
Y-604047D01*
Y-603593D01*
Y-603140D01*
Y-602686D01*
Y-602233D01*
Y-601779D01*
Y-601326D01*
Y-600872D01*
Y-600419D01*
Y-599965D01*
Y-599511D01*
Y-599058D01*
Y-598604D01*
Y-598151D01*
Y-597697D01*
Y-597244D01*
Y-596790D01*
Y-596337D01*
Y-595883D01*
Y-595429D01*
Y-594976D01*
Y-594522D01*
Y-594069D01*
Y-593615D01*
Y-593162D01*
Y-592708D01*
Y-592254D01*
Y-591801D01*
Y-591347D01*
Y-590894D01*
Y-590440D01*
Y-589987D01*
Y-589533D01*
Y-589080D01*
Y-588626D01*
Y-588172D01*
Y-587719D01*
Y-587265D01*
Y-586812D01*
Y-586358D01*
Y-585905D01*
Y-585451D01*
Y-584998D01*
Y-584544D01*
Y-584090D01*
Y-583637D01*
Y-583183D01*
Y-582730D01*
Y-582276D01*
Y-581823D01*
Y-581369D01*
Y-580916D01*
Y-580462D01*
Y-580009D01*
Y-579555D01*
Y-579101D01*
Y-578648D01*
Y-578194D01*
Y-577741D01*
Y-577287D01*
Y-576834D01*
Y-576380D01*
Y-575927D01*
Y-575473D01*
Y-575019D01*
Y-574566D01*
Y-574112D01*
Y-573659D01*
Y-573205D01*
Y-572752D01*
Y-572298D01*
Y-571844D01*
Y-571391D01*
Y-570937D01*
Y-570484D01*
Y-570030D01*
X1055195D01*
Y-570484D01*
D02*
G37*
G36*
X1091480Y-587265D02*
X1093748D01*
Y-587719D01*
X1095108D01*
Y-588172D01*
X1096469D01*
Y-588626D01*
X1097376D01*
Y-589080D01*
X1098283D01*
Y-589533D01*
X1099190D01*
Y-589987D01*
X1100098D01*
Y-590440D01*
X1100551D01*
Y-590894D01*
X1101458D01*
Y-591347D01*
X1101912D01*
Y-591801D01*
X1102365D01*
Y-592254D01*
X1102819D01*
Y-592708D01*
X1103272D01*
Y-593162D01*
X1103726D01*
Y-593615D01*
X1104180D01*
Y-594069D01*
X1104633D01*
Y-594522D01*
X1105087D01*
Y-594976D01*
Y-595429D01*
X1105540D01*
Y-595883D01*
X1105994D01*
Y-596337D01*
Y-596790D01*
X1106447D01*
Y-597244D01*
Y-597697D01*
X1106901D01*
Y-598151D01*
Y-598604D01*
X1107354D01*
Y-599058D01*
Y-599511D01*
X1107808D01*
Y-599965D01*
Y-600419D01*
Y-600872D01*
X1108261D01*
Y-601326D01*
Y-601779D01*
Y-602233D01*
Y-602686D01*
Y-603140D01*
X1108715D01*
Y-603593D01*
Y-604047D01*
Y-604501D01*
Y-604954D01*
Y-605408D01*
Y-605861D01*
Y-606315D01*
X1109169D01*
Y-606768D01*
Y-607222D01*
Y-607675D01*
Y-608129D01*
Y-608583D01*
Y-609036D01*
Y-609490D01*
Y-609943D01*
Y-610397D01*
Y-610850D01*
Y-611304D01*
Y-611758D01*
Y-612211D01*
Y-612665D01*
Y-613118D01*
X1108715D01*
Y-613572D01*
Y-614025D01*
Y-614479D01*
Y-614932D01*
Y-615386D01*
Y-615839D01*
Y-616293D01*
X1108261D01*
Y-616747D01*
Y-617200D01*
Y-617654D01*
Y-618107D01*
X1107808D01*
Y-618561D01*
Y-619014D01*
Y-619468D01*
X1107354D01*
Y-619921D01*
Y-620375D01*
Y-620829D01*
X1106901D01*
Y-621282D01*
Y-621736D01*
X1106447D01*
Y-622189D01*
Y-622643D01*
X1105994D01*
Y-623096D01*
Y-623550D01*
X1105540D01*
Y-624003D01*
X1105087D01*
Y-624457D01*
X1104633D01*
Y-624911D01*
Y-625364D01*
X1104180D01*
Y-625818D01*
X1103726D01*
Y-626271D01*
X1103272D01*
Y-626725D01*
X1102819D01*
Y-627178D01*
X1102365D01*
Y-627632D01*
X1101912D01*
Y-628086D01*
X1101005D01*
Y-628539D01*
X1100551D01*
Y-628993D01*
X1099644D01*
Y-629446D01*
X1099190D01*
Y-629900D01*
X1098283D01*
Y-630353D01*
X1097376D01*
Y-630807D01*
X1096015D01*
Y-631260D01*
X1094655D01*
Y-631714D01*
X1093294D01*
Y-632168D01*
X1091026D01*
Y-632621D01*
X1081502D01*
Y-632168D01*
X1078780D01*
Y-631714D01*
X1076966D01*
Y-631260D01*
X1076059D01*
Y-630807D01*
X1074698D01*
Y-630353D01*
X1073791D01*
Y-629900D01*
X1072884D01*
Y-629446D01*
X1072430D01*
Y-628993D01*
X1071523D01*
Y-628539D01*
X1071070D01*
Y-628086D01*
X1070163D01*
Y-627632D01*
X1069709D01*
Y-627178D01*
X1069256D01*
Y-626725D01*
X1068802D01*
Y-626271D01*
X1068348D01*
Y-625818D01*
X1067895D01*
Y-625364D01*
X1067441D01*
Y-624911D01*
Y-624457D01*
X1066988D01*
Y-624003D01*
X1066534D01*
Y-623550D01*
X1066081D01*
Y-623096D01*
Y-622643D01*
X1065627D01*
Y-622189D01*
Y-621736D01*
X1065174D01*
Y-621282D01*
Y-620829D01*
X1064720D01*
Y-620375D01*
Y-619921D01*
Y-619468D01*
X1064267D01*
Y-619014D01*
Y-618561D01*
Y-618107D01*
X1063813D01*
Y-617654D01*
Y-617200D01*
Y-616747D01*
Y-616293D01*
X1063359D01*
Y-615839D01*
Y-615386D01*
Y-614932D01*
Y-614479D01*
Y-614025D01*
Y-613572D01*
Y-613118D01*
Y-612665D01*
X1062906D01*
Y-612211D01*
Y-611758D01*
Y-611304D01*
Y-610850D01*
Y-610397D01*
Y-609943D01*
Y-609490D01*
Y-609036D01*
Y-608583D01*
Y-608129D01*
Y-607675D01*
Y-607222D01*
Y-606768D01*
X1063359D01*
Y-606315D01*
Y-605861D01*
Y-605408D01*
Y-604954D01*
Y-604501D01*
Y-604047D01*
Y-603593D01*
Y-603140D01*
X1063813D01*
Y-602686D01*
Y-602233D01*
Y-601779D01*
Y-601326D01*
X1064267D01*
Y-600872D01*
Y-600419D01*
Y-599965D01*
X1064720D01*
Y-599511D01*
Y-599058D01*
Y-598604D01*
X1065174D01*
Y-598151D01*
Y-597697D01*
X1065627D01*
Y-597244D01*
Y-596790D01*
X1066081D01*
Y-596337D01*
Y-595883D01*
X1066534D01*
Y-595429D01*
X1066988D01*
Y-594976D01*
Y-594522D01*
X1067441D01*
Y-594069D01*
X1067895D01*
Y-593615D01*
X1068348D01*
Y-593162D01*
X1068802D01*
Y-592708D01*
X1069256D01*
Y-592254D01*
X1069709D01*
Y-591801D01*
X1070163D01*
Y-591347D01*
X1070616D01*
Y-590894D01*
X1071523D01*
Y-590440D01*
X1071977D01*
Y-589987D01*
X1072884D01*
Y-589533D01*
X1073791D01*
Y-589080D01*
X1074698D01*
Y-588626D01*
X1075605D01*
Y-588172D01*
X1076966D01*
Y-587719D01*
X1078327D01*
Y-587265D01*
X1080595D01*
Y-586812D01*
X1091480D01*
Y-587265D01*
D02*
G37*
G36*
X1157245Y-588172D02*
X1156792D01*
Y-588626D01*
Y-589080D01*
X1156338D01*
Y-589533D01*
X1155885D01*
Y-589987D01*
X1155431D01*
Y-590440D01*
Y-590894D01*
X1154978D01*
Y-591347D01*
X1154524D01*
Y-591801D01*
Y-592254D01*
X1154071D01*
Y-592708D01*
X1153617D01*
Y-593162D01*
X1153164D01*
Y-593615D01*
Y-594069D01*
X1152710D01*
Y-594522D01*
X1152256D01*
Y-594976D01*
X1151803D01*
Y-595429D01*
Y-595883D01*
X1151349D01*
Y-596337D01*
X1150896D01*
Y-596790D01*
X1150442D01*
Y-597244D01*
Y-597697D01*
X1149989D01*
Y-598151D01*
X1149535D01*
Y-598604D01*
Y-599058D01*
X1149081D01*
Y-599511D01*
X1148628D01*
Y-599965D01*
X1148174D01*
Y-600419D01*
Y-600872D01*
X1147721D01*
Y-601326D01*
X1147267D01*
Y-601779D01*
X1146814D01*
Y-602233D01*
Y-602686D01*
X1146360D01*
Y-603140D01*
X1145907D01*
Y-603593D01*
Y-604047D01*
X1145453D01*
Y-604501D01*
X1144999D01*
Y-604954D01*
X1144546D01*
Y-605408D01*
Y-605861D01*
X1144092D01*
Y-606315D01*
X1143639D01*
Y-606768D01*
X1143185D01*
Y-607222D01*
Y-607675D01*
X1142732D01*
Y-608129D01*
X1142278D01*
Y-608583D01*
X1141825D01*
Y-609036D01*
Y-609490D01*
Y-609943D01*
X1142278D01*
Y-610397D01*
Y-610850D01*
X1142732D01*
Y-611304D01*
X1143185D01*
Y-611758D01*
X1143639D01*
Y-612211D01*
Y-612665D01*
X1144092D01*
Y-613118D01*
X1144546D01*
Y-613572D01*
X1144999D01*
Y-614025D01*
Y-614479D01*
X1145453D01*
Y-614932D01*
X1145907D01*
Y-615386D01*
Y-615839D01*
X1146360D01*
Y-616293D01*
X1146814D01*
Y-616747D01*
X1147267D01*
Y-617200D01*
Y-617654D01*
X1147721D01*
Y-618107D01*
X1148174D01*
Y-618561D01*
X1148628D01*
Y-619014D01*
Y-619468D01*
X1149081D01*
Y-619921D01*
X1149535D01*
Y-620375D01*
X1149989D01*
Y-620829D01*
Y-621282D01*
X1150442D01*
Y-621736D01*
X1150896D01*
Y-622189D01*
X1151349D01*
Y-622643D01*
Y-623096D01*
X1151803D01*
Y-623550D01*
X1152256D01*
Y-624003D01*
X1152710D01*
Y-624457D01*
Y-624911D01*
X1153164D01*
Y-625364D01*
X1153617D01*
Y-625818D01*
X1154071D01*
Y-626271D01*
Y-626725D01*
X1154524D01*
Y-627178D01*
X1154978D01*
Y-627632D01*
Y-628086D01*
X1155431D01*
Y-628539D01*
X1155885D01*
Y-628993D01*
X1156338D01*
Y-629446D01*
Y-629900D01*
X1156792D01*
Y-630353D01*
X1157245D01*
Y-630807D01*
X1157699D01*
Y-631260D01*
X1158153D01*
Y-631714D01*
X1143639D01*
Y-631260D01*
Y-630807D01*
X1143185D01*
Y-630353D01*
X1142732D01*
Y-629900D01*
X1142278D01*
Y-629446D01*
Y-628993D01*
X1141825D01*
Y-628539D01*
X1141371D01*
Y-628086D01*
X1140918D01*
Y-627632D01*
Y-627178D01*
X1140464D01*
Y-626725D01*
X1140010D01*
Y-626271D01*
Y-625818D01*
X1139557D01*
Y-625364D01*
X1139103D01*
Y-624911D01*
X1138650D01*
Y-624457D01*
Y-624003D01*
X1138196D01*
Y-623550D01*
X1137743D01*
Y-623096D01*
X1137289D01*
Y-622643D01*
Y-622189D01*
X1136835D01*
Y-621736D01*
X1136382D01*
Y-621282D01*
Y-620829D01*
X1135928D01*
Y-620375D01*
X1135475D01*
Y-619921D01*
X1135021D01*
Y-619468D01*
Y-619014D01*
X1134568D01*
Y-618561D01*
X1134114D01*
Y-618107D01*
X1133661D01*
Y-617654D01*
X1133207D01*
Y-618107D01*
Y-618561D01*
X1132754D01*
Y-619014D01*
X1132300D01*
Y-619468D01*
X1131846D01*
Y-619921D01*
Y-620375D01*
X1131393D01*
Y-620829D01*
X1130939D01*
Y-621282D01*
Y-621736D01*
X1130486D01*
Y-622189D01*
X1130032D01*
Y-622643D01*
X1129579D01*
Y-623096D01*
Y-623550D01*
X1129125D01*
Y-624003D01*
X1128671D01*
Y-624457D01*
Y-624911D01*
X1128218D01*
Y-625364D01*
X1127764D01*
Y-625818D01*
X1127311D01*
Y-626271D01*
Y-626725D01*
X1126857D01*
Y-627178D01*
X1126404D01*
Y-627632D01*
Y-628086D01*
X1125950D01*
Y-628539D01*
X1125497D01*
Y-628993D01*
X1125043D01*
Y-629446D01*
Y-629900D01*
X1124589D01*
Y-630353D01*
X1124136D01*
Y-630807D01*
Y-631260D01*
X1123682D01*
Y-631714D01*
X1110529D01*
Y-631260D01*
X1110983D01*
Y-630807D01*
X1111436D01*
Y-630353D01*
Y-629900D01*
X1111890D01*
Y-629446D01*
X1112344D01*
Y-628993D01*
X1112797D01*
Y-628539D01*
Y-628086D01*
X1113251D01*
Y-627632D01*
X1113704D01*
Y-627178D01*
Y-626725D01*
X1114158D01*
Y-626271D01*
X1114611D01*
Y-625818D01*
X1115065D01*
Y-625364D01*
X1115518D01*
Y-624911D01*
Y-624457D01*
X1115972D01*
Y-624003D01*
X1116425D01*
Y-623550D01*
Y-623096D01*
X1116879D01*
Y-622643D01*
X1117333D01*
Y-622189D01*
X1117786D01*
Y-621736D01*
Y-621282D01*
X1118240D01*
Y-620829D01*
X1118693D01*
Y-620375D01*
X1119147D01*
Y-619921D01*
Y-619468D01*
X1119600D01*
Y-619014D01*
X1120054D01*
Y-618561D01*
X1120508D01*
Y-618107D01*
Y-617654D01*
X1120961D01*
Y-617200D01*
X1121415D01*
Y-616747D01*
X1121868D01*
Y-616293D01*
Y-615839D01*
X1122322D01*
Y-615386D01*
X1122775D01*
Y-614932D01*
X1123229D01*
Y-614479D01*
Y-614025D01*
X1123682D01*
Y-613572D01*
X1124136D01*
Y-613118D01*
X1124589D01*
Y-612665D01*
Y-612211D01*
X1125043D01*
Y-611758D01*
X1125497D01*
Y-611304D01*
Y-610850D01*
X1125950D01*
Y-610397D01*
X1126404D01*
Y-609943D01*
X1126857D01*
Y-609490D01*
Y-609036D01*
X1126404D01*
Y-608583D01*
X1125950D01*
Y-608129D01*
X1125497D01*
Y-607675D01*
Y-607222D01*
X1125043D01*
Y-606768D01*
X1124589D01*
Y-606315D01*
X1124136D01*
Y-605861D01*
Y-605408D01*
X1123682D01*
Y-604954D01*
X1123229D01*
Y-604501D01*
Y-604047D01*
X1122775D01*
Y-603593D01*
X1122322D01*
Y-603140D01*
X1121868D01*
Y-602686D01*
Y-602233D01*
X1121415D01*
Y-601779D01*
X1120961D01*
Y-601326D01*
X1120508D01*
Y-600872D01*
Y-600419D01*
X1120054D01*
Y-599965D01*
X1119600D01*
Y-599511D01*
Y-599058D01*
X1119147D01*
Y-598604D01*
X1118693D01*
Y-598151D01*
X1118240D01*
Y-597697D01*
Y-597244D01*
X1117786D01*
Y-596790D01*
X1117333D01*
Y-596337D01*
X1116879D01*
Y-595883D01*
Y-595429D01*
X1116425D01*
Y-594976D01*
X1115972D01*
Y-594522D01*
Y-594069D01*
X1115518D01*
Y-593615D01*
X1115065D01*
Y-593162D01*
X1114611D01*
Y-592708D01*
Y-592254D01*
X1114158D01*
Y-591801D01*
X1113704D01*
Y-591347D01*
X1113251D01*
Y-590894D01*
Y-590440D01*
X1112797D01*
Y-589987D01*
X1112344D01*
Y-589533D01*
Y-589080D01*
X1111890D01*
Y-588626D01*
X1111436D01*
Y-588172D01*
X1110983D01*
Y-587719D01*
X1125043D01*
Y-588172D01*
X1125497D01*
Y-588626D01*
X1125950D01*
Y-589080D01*
Y-589533D01*
X1126404D01*
Y-589987D01*
X1126857D01*
Y-590440D01*
X1127311D01*
Y-590894D01*
Y-591347D01*
X1127764D01*
Y-591801D01*
X1128218D01*
Y-592254D01*
Y-592708D01*
X1128671D01*
Y-593162D01*
X1129125D01*
Y-593615D01*
Y-594069D01*
X1129579D01*
Y-594522D01*
X1130032D01*
Y-594976D01*
X1130486D01*
Y-595429D01*
Y-595883D01*
X1130939D01*
Y-596337D01*
X1131393D01*
Y-596790D01*
Y-597244D01*
X1131846D01*
Y-597697D01*
X1132300D01*
Y-598151D01*
X1132754D01*
Y-598604D01*
Y-599058D01*
X1133207D01*
Y-599511D01*
X1133661D01*
Y-599965D01*
Y-600419D01*
X1134114D01*
Y-600872D01*
X1134568D01*
Y-601326D01*
X1135021D01*
Y-600872D01*
X1135475D01*
Y-600419D01*
Y-599965D01*
X1135928D01*
Y-599511D01*
X1136382D01*
Y-599058D01*
X1136835D01*
Y-598604D01*
Y-598151D01*
X1137289D01*
Y-597697D01*
X1137743D01*
Y-597244D01*
Y-596790D01*
X1138196D01*
Y-596337D01*
X1138650D01*
Y-595883D01*
X1139103D01*
Y-595429D01*
Y-594976D01*
X1139557D01*
Y-594522D01*
X1140010D01*
Y-594069D01*
Y-593615D01*
X1140464D01*
Y-593162D01*
X1140918D01*
Y-592708D01*
X1141371D01*
Y-592254D01*
Y-591801D01*
X1141825D01*
Y-591347D01*
X1142278D01*
Y-590894D01*
Y-590440D01*
X1142732D01*
Y-589987D01*
X1143185D01*
Y-589533D01*
X1143639D01*
Y-589080D01*
Y-588626D01*
X1144092D01*
Y-588172D01*
X1144546D01*
Y-587719D01*
X1157245D01*
Y-588172D01*
D02*
G37*
%LPC*%
G36*
X919582Y-566855D02*
X917314D01*
Y-567309D01*
X915500D01*
Y-567762D01*
X914593D01*
Y-568216D01*
X913686D01*
Y-568670D01*
X912779D01*
Y-569123D01*
X912325D01*
Y-569577D01*
X911872D01*
Y-570030D01*
X911418D01*
Y-570484D01*
X910965D01*
Y-570937D01*
Y-571391D01*
X910511D01*
Y-571844D01*
X910058D01*
Y-572298D01*
Y-572752D01*
X909604D01*
Y-573205D01*
Y-573659D01*
Y-574112D01*
Y-574566D01*
X909150D01*
Y-575019D01*
Y-575473D01*
Y-575927D01*
Y-576380D01*
Y-576834D01*
Y-577287D01*
Y-577741D01*
Y-578194D01*
X909604D01*
Y-578648D01*
Y-579101D01*
Y-579555D01*
X910058D01*
Y-580009D01*
Y-580462D01*
X910511D01*
Y-580916D01*
Y-581369D01*
X910965D01*
Y-581823D01*
X911418D01*
Y-582276D01*
X911872D01*
Y-582730D01*
X912325D01*
Y-583183D01*
X912779D01*
Y-583637D01*
X913232D01*
Y-584090D01*
X914139D01*
Y-584544D01*
X915047D01*
Y-584998D01*
X916407D01*
Y-585451D01*
X920489D01*
Y-584998D01*
X921850D01*
Y-584544D01*
X922757D01*
Y-584090D01*
X923664D01*
Y-583637D01*
X924118D01*
Y-583183D01*
X924571D01*
Y-582730D01*
X925478D01*
Y-582276D01*
Y-581823D01*
X925932D01*
Y-581369D01*
X926385D01*
Y-580916D01*
Y-580462D01*
X926839D01*
Y-580009D01*
Y-579555D01*
X927293D01*
Y-579101D01*
Y-578648D01*
Y-578194D01*
X927746D01*
Y-577741D01*
Y-577287D01*
Y-576834D01*
Y-576380D01*
Y-575927D01*
Y-575473D01*
Y-575019D01*
Y-574566D01*
X927293D01*
Y-574112D01*
Y-573659D01*
Y-573205D01*
Y-572752D01*
X926839D01*
Y-572298D01*
Y-571844D01*
X926385D01*
Y-571391D01*
Y-570937D01*
X925932D01*
Y-570484D01*
X925478D01*
Y-570030D01*
X925025D01*
Y-569577D01*
X924571D01*
Y-569123D01*
X924118D01*
Y-568670D01*
X923211D01*
Y-568216D01*
X922757D01*
Y-567762D01*
X921396D01*
Y-567309D01*
X919582D01*
Y-566855D01*
D02*
G37*
G36*
X1014375Y-596790D02*
X1010293D01*
Y-597244D01*
X1008479D01*
Y-597697D01*
X1007119D01*
Y-598151D01*
X1006211D01*
Y-598604D01*
X1005758D01*
Y-599058D01*
X1004851D01*
Y-599511D01*
X1004397D01*
Y-599965D01*
X1003944D01*
Y-600419D01*
Y-600872D01*
X1003490D01*
Y-601326D01*
X1003036D01*
Y-601779D01*
Y-602233D01*
X1002583D01*
Y-602686D01*
Y-603140D01*
X1002129D01*
Y-603593D01*
Y-604047D01*
Y-604501D01*
X1001676D01*
Y-604954D01*
Y-605408D01*
Y-605861D01*
Y-606315D01*
Y-606768D01*
X1001222D01*
Y-607222D01*
Y-607675D01*
Y-608129D01*
Y-608583D01*
Y-609036D01*
Y-609490D01*
Y-609943D01*
Y-610397D01*
Y-610850D01*
Y-611304D01*
Y-611758D01*
Y-612211D01*
Y-612665D01*
X1001676D01*
Y-613118D01*
Y-613572D01*
Y-614025D01*
Y-614479D01*
Y-614932D01*
X1002129D01*
Y-615386D01*
Y-615839D01*
Y-616293D01*
X1002583D01*
Y-616747D01*
Y-617200D01*
X1003036D01*
Y-617654D01*
Y-618107D01*
X1003490D01*
Y-618561D01*
X1003944D01*
Y-619014D01*
X1004397D01*
Y-619468D01*
X1004851D01*
Y-619921D01*
X1005304D01*
Y-620375D01*
X1005758D01*
Y-620829D01*
X1006665D01*
Y-621282D01*
X1007572D01*
Y-621736D01*
X1008479D01*
Y-622189D01*
X1010747D01*
Y-622643D01*
X1013922D01*
Y-622189D01*
X1016190D01*
Y-621736D01*
X1017550D01*
Y-621282D01*
X1018457D01*
Y-620829D01*
X1018911D01*
Y-620375D01*
X1019818D01*
Y-619921D01*
X1020272D01*
Y-619468D01*
X1020725D01*
Y-619014D01*
X1021179D01*
Y-618561D01*
Y-618107D01*
X1021632D01*
Y-617654D01*
X1022086D01*
Y-617200D01*
Y-616747D01*
X1022539D01*
Y-616293D01*
Y-615839D01*
Y-615386D01*
X1022993D01*
Y-614932D01*
Y-614479D01*
Y-614025D01*
Y-613572D01*
X1023447D01*
Y-613118D01*
Y-612665D01*
Y-612211D01*
Y-611758D01*
Y-611304D01*
Y-610850D01*
Y-610397D01*
Y-609943D01*
Y-609490D01*
Y-609036D01*
Y-608583D01*
Y-608129D01*
Y-607675D01*
Y-607222D01*
Y-606768D01*
Y-606315D01*
Y-605861D01*
Y-605408D01*
X1022993D01*
Y-604954D01*
Y-604501D01*
Y-604047D01*
Y-603593D01*
X1022539D01*
Y-603140D01*
Y-602686D01*
X1022086D01*
Y-602233D01*
Y-601779D01*
X1021632D01*
Y-601326D01*
Y-600872D01*
X1021179D01*
Y-600419D01*
X1020725D01*
Y-599965D01*
X1020272D01*
Y-599511D01*
X1019818D01*
Y-599058D01*
X1019364D01*
Y-598604D01*
X1018457D01*
Y-598151D01*
X1017550D01*
Y-597697D01*
X1016643D01*
Y-597244D01*
X1014375D01*
Y-596790D01*
D02*
G37*
G36*
X1088305D02*
X1083769D01*
Y-597244D01*
X1081955D01*
Y-597697D01*
X1080595D01*
Y-598151D01*
X1079688D01*
Y-598604D01*
X1079234D01*
Y-599058D01*
X1078780D01*
Y-599511D01*
X1078327D01*
Y-599965D01*
X1077873D01*
Y-600419D01*
X1077420D01*
Y-600872D01*
X1076966D01*
Y-601326D01*
X1076513D01*
Y-601779D01*
Y-602233D01*
X1076059D01*
Y-602686D01*
Y-603140D01*
X1075605D01*
Y-603593D01*
Y-604047D01*
Y-604501D01*
X1075152D01*
Y-604954D01*
Y-605408D01*
Y-605861D01*
Y-606315D01*
Y-606768D01*
Y-607222D01*
Y-607675D01*
X1074698D01*
Y-608129D01*
Y-608583D01*
Y-609036D01*
Y-609490D01*
Y-609943D01*
Y-610397D01*
Y-610850D01*
Y-611304D01*
X1075152D01*
Y-611758D01*
Y-612211D01*
Y-612665D01*
Y-613118D01*
Y-613572D01*
Y-614025D01*
Y-614479D01*
X1075605D01*
Y-614932D01*
Y-615386D01*
Y-615839D01*
X1076059D01*
Y-616293D01*
Y-616747D01*
Y-617200D01*
X1076513D01*
Y-617654D01*
X1076966D01*
Y-618107D01*
Y-618561D01*
X1077420D01*
Y-619014D01*
X1077873D01*
Y-619468D01*
X1078327D01*
Y-619921D01*
X1078780D01*
Y-620375D01*
X1079234D01*
Y-620829D01*
X1080141D01*
Y-621282D01*
X1081048D01*
Y-621736D01*
X1082409D01*
Y-622189D01*
X1084677D01*
Y-622643D01*
X1087398D01*
Y-622189D01*
X1089666D01*
Y-621736D01*
X1091026D01*
Y-621282D01*
X1091934D01*
Y-620829D01*
X1092841D01*
Y-620375D01*
X1093294D01*
Y-619921D01*
X1093748D01*
Y-619468D01*
X1094201D01*
Y-619014D01*
X1094655D01*
Y-618561D01*
X1095108D01*
Y-618107D01*
Y-617654D01*
X1095562D01*
Y-617200D01*
X1096015D01*
Y-616747D01*
Y-616293D01*
Y-615839D01*
X1096469D01*
Y-615386D01*
Y-614932D01*
Y-614479D01*
X1096923D01*
Y-614025D01*
Y-613572D01*
Y-613118D01*
Y-612665D01*
Y-612211D01*
X1097376D01*
Y-611758D01*
Y-611304D01*
Y-610850D01*
Y-610397D01*
Y-609943D01*
Y-609490D01*
Y-609036D01*
Y-608583D01*
Y-608129D01*
Y-607675D01*
Y-607222D01*
X1096923D01*
Y-606768D01*
Y-606315D01*
Y-605861D01*
Y-605408D01*
Y-604954D01*
Y-604501D01*
X1096469D01*
Y-604047D01*
Y-603593D01*
Y-603140D01*
X1096015D01*
Y-602686D01*
Y-602233D01*
X1095562D01*
Y-601779D01*
Y-601326D01*
X1095108D01*
Y-600872D01*
X1094655D01*
Y-600419D01*
X1094201D01*
Y-599965D01*
X1093748D01*
Y-599511D01*
X1093294D01*
Y-599058D01*
X1092841D01*
Y-598604D01*
X1091934D01*
Y-598151D01*
X1091480D01*
Y-597697D01*
X1090119D01*
Y-597244D01*
X1088305D01*
Y-596790D01*
D02*
G37*
%LPD*%
D10*
X2159332Y-75588D02*
Y-81687D01*
X2157299Y-75588D02*
X2161364D01*
X2163543Y-77621D02*
X2162962Y-77911D01*
X2162381Y-78492D01*
X2162091Y-79363D01*
Y-79944D01*
X2162381Y-80815D01*
X2162962Y-81396D01*
X2163543Y-81687D01*
X2164414D01*
X2164995Y-81396D01*
X2165576Y-80815D01*
X2165866Y-79944D01*
Y-79363D01*
X2165576Y-78492D01*
X2164995Y-77911D01*
X2164414Y-77621D01*
X2163543D01*
X2167202D02*
Y-83720D01*
Y-78492D02*
X2167783Y-77911D01*
X2168363Y-77621D01*
X2169235D01*
X2169816Y-77911D01*
X2170396Y-78492D01*
X2170687Y-79363D01*
Y-79944D01*
X2170396Y-80815D01*
X2169816Y-81396D01*
X2169235Y-81687D01*
X2168363D01*
X2167783Y-81396D01*
X2167202Y-80815D01*
X2176785Y-78783D02*
X2179399D01*
X2180270Y-78492D01*
X2180561Y-78202D01*
X2180851Y-77621D01*
Y-76750D01*
X2180561Y-76169D01*
X2180270Y-75878D01*
X2179399Y-75588D01*
X2176785D01*
Y-81687D01*
X2185701Y-77621D02*
Y-81687D01*
Y-78492D02*
X2185120Y-77911D01*
X2184539Y-77621D01*
X2183668D01*
X2183087Y-77911D01*
X2182507Y-78492D01*
X2182216Y-79363D01*
Y-79944D01*
X2182507Y-80815D01*
X2183087Y-81396D01*
X2183668Y-81687D01*
X2184539D01*
X2185120Y-81396D01*
X2185701Y-80815D01*
X2190522Y-78492D02*
X2190232Y-77911D01*
X2189360Y-77621D01*
X2188489D01*
X2187618Y-77911D01*
X2187328Y-78492D01*
X2187618Y-79073D01*
X2188199Y-79363D01*
X2189651Y-79654D01*
X2190232Y-79944D01*
X2190522Y-80525D01*
Y-80815D01*
X2190232Y-81396D01*
X2189360Y-81687D01*
X2188489D01*
X2187618Y-81396D01*
X2187328Y-80815D01*
X2192671Y-75588D02*
Y-80525D01*
X2192961Y-81396D01*
X2193542Y-81687D01*
X2194123D01*
X2191800Y-77621D02*
X2193833D01*
X2194994Y-79363D02*
X2198479D01*
Y-78783D01*
X2198189Y-78202D01*
X2197899Y-77911D01*
X2197318Y-77621D01*
X2196446D01*
X2195866Y-77911D01*
X2195285Y-78492D01*
X2194994Y-79363D01*
Y-79944D01*
X2195285Y-80815D01*
X2195866Y-81396D01*
X2196446Y-81687D01*
X2197318D01*
X2197899Y-81396D01*
X2198479Y-80815D01*
X-329019Y1104464D02*
X-331342Y1110563D01*
X-333665Y1104464D01*
X-332794Y1106497D02*
X-329890D01*
X-333665Y570813D02*
Y564714D01*
Y570813D02*
X-331052D01*
X-330180Y570523D01*
X-329890Y570232D01*
X-329600Y569651D01*
Y569071D01*
X-329890Y568490D01*
X-330180Y568199D01*
X-331052Y567909D01*
X-333665D02*
X-331052D01*
X-330180Y567618D01*
X-329890Y567328D01*
X-329600Y566747D01*
Y565876D01*
X-329890Y565295D01*
X-330180Y565005D01*
X-331052Y564714D01*
X-333665D01*
X-329309Y29611D02*
X-329600Y30192D01*
X-330180Y30773D01*
X-330761Y31063D01*
X-331923D01*
X-332504Y30773D01*
X-333084Y30192D01*
X-333375Y29611D01*
X-333665Y28740D01*
Y27288D01*
X-333375Y26416D01*
X-333084Y25836D01*
X-332504Y25255D01*
X-331923Y24964D01*
X-330761D01*
X-330180Y25255D01*
X-329600Y25836D01*
X-329309Y26416D01*
X-333665Y-507417D02*
Y-513516D01*
Y-507417D02*
X-331632D01*
X-330761Y-507707D01*
X-330180Y-508288D01*
X-329890Y-508869D01*
X-329600Y-509740D01*
Y-511192D01*
X-329890Y-512064D01*
X-330180Y-512644D01*
X-330761Y-513225D01*
X-331632Y-513516D01*
X-333665D01*
X-9476Y-740227D02*
X-8895Y-739936D01*
X-8024Y-739065D01*
Y-745164D01*
X689483Y-740517D02*
Y-740227D01*
X689773Y-739646D01*
X690064Y-739355D01*
X690645Y-739065D01*
X691806D01*
X692387Y-739355D01*
X692678Y-739646D01*
X692968Y-740227D01*
Y-740807D01*
X692678Y-741388D01*
X692097Y-742260D01*
X689193Y-745164D01*
X693258D01*
X1387003Y-739065D02*
X1390198D01*
X1388456Y-741388D01*
X1389327D01*
X1389908Y-741679D01*
X1390198Y-741969D01*
X1390488Y-742840D01*
Y-743421D01*
X1390198Y-744292D01*
X1389617Y-744873D01*
X1388746Y-745164D01*
X1387875D01*
X1387003Y-744873D01*
X1386713Y-744583D01*
X1386423Y-744002D01*
X2088083Y-739065D02*
X2085179Y-743131D01*
X2089536D01*
X2088083Y-739065D02*
Y-745164D01*
X-9476Y1367973D02*
X-8895Y1368264D01*
X-8024Y1369135D01*
Y1363036D01*
X689483Y1367683D02*
Y1367973D01*
X689773Y1368554D01*
X690064Y1368845D01*
X690645Y1369135D01*
X691806D01*
X692387Y1368845D01*
X692678Y1368554D01*
X692968Y1367973D01*
Y1367393D01*
X692678Y1366812D01*
X692097Y1365941D01*
X689193Y1363036D01*
X693258D01*
X1387003Y1369135D02*
X1390198D01*
X1388456Y1366812D01*
X1389327D01*
X1389908Y1366521D01*
X1390198Y1366231D01*
X1390488Y1365360D01*
Y1364779D01*
X1390198Y1363908D01*
X1389617Y1363327D01*
X1388746Y1363036D01*
X1387875D01*
X1387003Y1363327D01*
X1386713Y1363617D01*
X1386423Y1364198D01*
X2088083Y1369135D02*
X2085179Y1365069D01*
X2089536D01*
X2088083Y1369135D02*
Y1363036D01*
X2414181Y1104464D02*
X2411858Y1110563D01*
X2409535Y1104464D01*
X2410406Y1106497D02*
X2413310D01*
X2409535Y570813D02*
Y564714D01*
Y570813D02*
X2412148D01*
X2413020Y570523D01*
X2413310Y570232D01*
X2413600Y569651D01*
Y569071D01*
X2413310Y568490D01*
X2413020Y568199D01*
X2412148Y567909D01*
X2409535D02*
X2412148D01*
X2413020Y567618D01*
X2413310Y567328D01*
X2413600Y566747D01*
Y565876D01*
X2413310Y565295D01*
X2413020Y565005D01*
X2412148Y564714D01*
X2409535D01*
X2413891Y29611D02*
X2413600Y30192D01*
X2413020Y30773D01*
X2412439Y31063D01*
X2411277D01*
X2410696Y30773D01*
X2410116Y30192D01*
X2409825Y29611D01*
X2409535Y28740D01*
Y27288D01*
X2409825Y26416D01*
X2410116Y25836D01*
X2410696Y25255D01*
X2411277Y24964D01*
X2412439D01*
X2413020Y25255D01*
X2413600Y25836D01*
X2413891Y26416D01*
X2409535Y-507417D02*
Y-513516D01*
Y-507417D02*
X2411568D01*
X2412439Y-507707D01*
X2413020Y-508288D01*
X2413310Y-508869D01*
X2413600Y-509740D01*
Y-511192D01*
X2413310Y-512064D01*
X2413020Y-512644D01*
X2412439Y-513225D01*
X2411568Y-513516D01*
X2409535D01*
X2103959Y225656D02*
Y219557D01*
X2107444D01*
X2112758D02*
X2110435Y225656D01*
X2108112Y219557D01*
X2108983Y221590D02*
X2111887D01*
X2114181Y225656D02*
X2116505Y222752D01*
Y219557D01*
X2118828Y225656D02*
X2116505Y222752D01*
X2123387Y225656D02*
X2119612D01*
Y219557D01*
X2123387D01*
X2119612Y222752D02*
X2121935D01*
X2124404Y225656D02*
Y219557D01*
Y225656D02*
X2127018D01*
X2127889Y225366D01*
X2128179Y225075D01*
X2128470Y224494D01*
Y223914D01*
X2128179Y223333D01*
X2127889Y223042D01*
X2127018Y222752D01*
X2124404D01*
X2126437D02*
X2128470Y219557D01*
X2134626Y225656D02*
Y221300D01*
X2134917Y220429D01*
X2135498Y219848D01*
X2136369Y219557D01*
X2136950D01*
X2137821Y219848D01*
X2138402Y220429D01*
X2138692Y221300D01*
Y225656D01*
X2144442Y224785D02*
X2143862Y225366D01*
X2142990Y225656D01*
X2141829D01*
X2140957Y225366D01*
X2140376Y224785D01*
Y224204D01*
X2140667Y223623D01*
X2140957Y223333D01*
X2141538Y223042D01*
X2143281Y222461D01*
X2143862Y222171D01*
X2144152Y221881D01*
X2144442Y221300D01*
Y220429D01*
X2143862Y219848D01*
X2142990Y219557D01*
X2141829D01*
X2140957Y219848D01*
X2140376Y220429D01*
X2150454Y219557D02*
X2148131Y225656D01*
X2145807Y219557D01*
X2146678Y221590D02*
X2149583D01*
X2156233Y224204D02*
X2155943Y224785D01*
X2155362Y225366D01*
X2154781Y225656D01*
X2153619D01*
X2153038Y225366D01*
X2152458Y224785D01*
X2152167Y224204D01*
X2151877Y223333D01*
Y221881D01*
X2152167Y221009D01*
X2152458Y220429D01*
X2153038Y219848D01*
X2153619Y219557D01*
X2154781D01*
X2155362Y219848D01*
X2155943Y220429D01*
X2156233Y221009D01*
Y221881D01*
X2154781D02*
X2156233D01*
X2161402Y225656D02*
X2157627D01*
Y219557D01*
X2161402D01*
X2157627Y222752D02*
X2159950D01*
X1895245Y1304016D02*
Y1310114D01*
X1898294D01*
X1899310Y1309098D01*
Y1307065D01*
X1898294Y1306049D01*
X1895245D01*
X1897277D02*
X1899310Y1304016D01*
X1905408Y1310114D02*
X1901343D01*
Y1304016D01*
X1905408D01*
X1901343Y1307065D02*
X1903375D01*
X1907441Y1310114D02*
Y1306049D01*
X1909473Y1304016D01*
X1911506Y1306049D01*
Y1310114D01*
X1913539D02*
X1915571D01*
X1914555D01*
Y1304016D01*
X1913539D01*
X1915571D01*
X1922686Y1309098D02*
X1921669Y1310114D01*
X1919637D01*
X1918620Y1309098D01*
Y1308082D01*
X1919637Y1307065D01*
X1921669D01*
X1922686Y1306049D01*
Y1305033D01*
X1921669Y1304016D01*
X1919637D01*
X1918620Y1305033D01*
X1924718Y1310114D02*
X1926751D01*
X1925735D01*
Y1304016D01*
X1924718D01*
X1926751D01*
X1932849Y1310114D02*
X1930816D01*
X1929800Y1309098D01*
Y1305033D01*
X1930816Y1304016D01*
X1932849D01*
X1933865Y1305033D01*
Y1309098D01*
X1932849Y1310114D01*
X1935898Y1304016D02*
Y1310114D01*
X1939963Y1304016D01*
Y1310114D01*
X1537105Y1260836D02*
Y1266934D01*
X1540154D01*
X1541170Y1265918D01*
Y1263885D01*
X1540154Y1262869D01*
X1537105D01*
X1539137D02*
X1541170Y1260836D01*
X1547268Y1266934D02*
X1543203D01*
Y1260836D01*
X1547268D01*
X1543203Y1263885D02*
X1545235D01*
X1549301Y1266934D02*
Y1262869D01*
X1551333Y1260836D01*
X1553366Y1262869D01*
Y1266934D01*
X1646325D02*
Y1260836D01*
X1649374D01*
X1650390Y1261853D01*
Y1265918D01*
X1649374Y1266934D01*
X1646325D01*
X1656488D02*
X1652423D01*
Y1260836D01*
X1656488D01*
X1652423Y1263885D02*
X1654455D01*
X1662586Y1265918D02*
X1661570Y1266934D01*
X1659537D01*
X1658521Y1265918D01*
Y1264902D01*
X1659537Y1263885D01*
X1661570D01*
X1662586Y1262869D01*
Y1261853D01*
X1661570Y1260836D01*
X1659537D01*
X1658521Y1261853D01*
X1668684Y1265918D02*
X1667668Y1266934D01*
X1665635D01*
X1664619Y1265918D01*
Y1261853D01*
X1665635Y1260836D01*
X1667668D01*
X1668684Y1261853D01*
X1670717Y1260836D02*
Y1266934D01*
X1673766D01*
X1674782Y1265918D01*
Y1263885D01*
X1673766Y1262869D01*
X1670717D01*
X1672749D02*
X1674782Y1260836D01*
X1676815Y1266934D02*
X1678847D01*
X1677831D01*
Y1260836D01*
X1676815D01*
X1678847D01*
X1681896D02*
Y1266934D01*
X1684945D01*
X1685962Y1265918D01*
Y1263885D01*
X1684945Y1262869D01*
X1681896D01*
X1687994Y1266934D02*
X1692060D01*
X1690027D01*
Y1260836D01*
X1694092Y1266934D02*
X1696125D01*
X1695109D01*
Y1260836D01*
X1694092D01*
X1696125D01*
X1702223Y1266934D02*
X1700190D01*
X1699174Y1265918D01*
Y1261853D01*
X1700190Y1260836D01*
X1702223D01*
X1703239Y1261853D01*
Y1265918D01*
X1702223Y1266934D01*
X1705272Y1260836D02*
Y1266934D01*
X1709337Y1260836D01*
Y1266934D01*
X2144165D02*
Y1260836D01*
X2147214D01*
X2148230Y1261853D01*
Y1265918D01*
X2147214Y1266934D01*
X2144165D01*
X2150263Y1260836D02*
Y1264902D01*
X2152295Y1266934D01*
X2154328Y1264902D01*
Y1260836D01*
Y1263885D01*
X2150263D01*
X2156361Y1266934D02*
X2160426D01*
X2158393D01*
Y1260836D01*
X2166524Y1266934D02*
X2162459D01*
Y1260836D01*
X2166524D01*
X2162459Y1263885D02*
X2164491D01*
X2304185Y1266934D02*
Y1260836D01*
X2307234D01*
X2308250Y1261853D01*
Y1262869D01*
X2307234Y1263885D01*
X2304185D01*
X2307234D01*
X2308250Y1264902D01*
Y1265918D01*
X2307234Y1266934D01*
X2304185D01*
X2310283D02*
Y1265918D01*
X2312315Y1263885D01*
X2314348Y1265918D01*
Y1266934D01*
X2312315Y1263885D02*
Y1260836D01*
X1537105Y1222736D02*
Y1228834D01*
X1540154D01*
X1541170Y1227818D01*
Y1225785D01*
X1540154Y1224769D01*
X1537105D01*
X1539137D02*
X1541170Y1222736D01*
X1546252D02*
X1544219D01*
X1543203Y1223753D01*
Y1225785D01*
X1544219Y1226802D01*
X1546252D01*
X1547268Y1225785D01*
Y1224769D01*
X1543203D01*
X1549301Y1226802D02*
X1551333Y1222736D01*
X1553366Y1226802D01*
X1555399Y1222736D02*
X1557431D01*
X1556415D01*
Y1228834D01*
X1555399Y1227818D01*
X1646325Y1228834D02*
X1648357D01*
X1647341D01*
Y1222736D01*
X1646325D01*
X1648357D01*
X1651406D02*
Y1226802D01*
X1654455D01*
X1655472Y1225785D01*
Y1222736D01*
X1657504D02*
X1659537D01*
X1658521D01*
Y1226802D01*
X1657504D01*
X1663602Y1227818D02*
Y1226802D01*
X1662586D01*
X1664619D01*
X1663602D01*
Y1223753D01*
X1664619Y1222736D01*
X1667668D02*
X1669700D01*
X1668684D01*
Y1226802D01*
X1667668D01*
X1673766D02*
X1675798D01*
X1676815Y1225785D01*
Y1222736D01*
X1673766D01*
X1672749Y1223753D01*
X1673766Y1224769D01*
X1676815D01*
X1678847Y1222736D02*
X1680880D01*
X1679864D01*
Y1228834D01*
X1678847D01*
X1690027Y1222736D02*
Y1228834D01*
X1693076D01*
X1694092Y1227818D01*
Y1225785D01*
X1693076Y1224769D01*
X1690027D01*
X1692060D02*
X1694092Y1222736D01*
X1699174D02*
X1697141D01*
X1696125Y1223753D01*
Y1225785D01*
X1697141Y1226802D01*
X1699174D01*
X1700190Y1225785D01*
Y1224769D01*
X1696125D01*
X1702223Y1222736D02*
X1704256D01*
X1703239D01*
Y1228834D01*
X1702223D01*
X1710354Y1222736D02*
X1708321D01*
X1707305Y1223753D01*
Y1225785D01*
X1708321Y1226802D01*
X1710354D01*
X1711370Y1225785D01*
Y1224769D01*
X1707305D01*
X1714419Y1226802D02*
X1716452D01*
X1717468Y1225785D01*
Y1222736D01*
X1714419D01*
X1713403Y1223753D01*
X1714419Y1224769D01*
X1717468D01*
X1719501Y1222736D02*
X1722550D01*
X1723566Y1223753D01*
X1722550Y1224769D01*
X1720517D01*
X1719501Y1225785D01*
X1720517Y1226802D01*
X1723566D01*
X1728648Y1222736D02*
X1726615D01*
X1725599Y1223753D01*
Y1225785D01*
X1726615Y1226802D01*
X1728648D01*
X1729664Y1225785D01*
Y1224769D01*
X1725599D01*
X2123845Y1225278D02*
X2124861Y1226294D01*
X2126894D01*
X2127910Y1225278D01*
Y1221213D01*
X2126894Y1220196D01*
X2124861D01*
X2123845Y1221213D01*
Y1225278D01*
X2132992Y1220196D02*
Y1226294D01*
X2129943Y1223245D01*
X2134008D01*
X2136041Y1220196D02*
X2140106Y1224262D01*
X2142139Y1220196D02*
X2144171D01*
X2143155D01*
Y1226294D01*
X2142139Y1225278D01*
X2147220Y1221213D02*
X2148237Y1220196D01*
X2150269D01*
X2151286Y1221213D01*
Y1225278D01*
X2150269Y1226294D01*
X2148237D01*
X2147220Y1225278D01*
Y1224262D01*
X2148237Y1223245D01*
X2151286D01*
X2153318Y1220196D02*
X2157384Y1224262D01*
X2163482Y1220196D02*
X2159416D01*
X2163482Y1224262D01*
Y1225278D01*
X2162465Y1226294D01*
X2160433D01*
X2159416Y1225278D01*
X2165514D02*
X2166531Y1226294D01*
X2168563D01*
X2169580Y1225278D01*
Y1221213D01*
X2168563Y1220196D01*
X2166531D01*
X2165514Y1221213D01*
Y1225278D01*
X2175678Y1220196D02*
X2171612D01*
X2175678Y1224262D01*
Y1225278D01*
X2174661Y1226294D01*
X2172629D01*
X2171612Y1225278D01*
X2180759Y1220196D02*
Y1226294D01*
X2177710Y1223245D01*
X2181776D01*
X2291485Y1222736D02*
Y1226802D01*
X2293517Y1228834D01*
X2295550Y1226802D01*
Y1222736D01*
Y1225785D01*
X2291485D01*
X2301648Y1227818D02*
X2300632Y1228834D01*
X2298599D01*
X2297583Y1227818D01*
Y1226802D01*
X2298599Y1225785D01*
X2300632D01*
X2301648Y1224769D01*
Y1223753D01*
X2300632Y1222736D01*
X2298599D01*
X2297583Y1223753D01*
X2306730Y1228834D02*
X2304697D01*
X2303681Y1227818D01*
Y1223753D01*
X2304697Y1222736D01*
X2306730D01*
X2307746Y1223753D01*
Y1227818D01*
X2306730Y1228834D01*
X2309779D02*
Y1222736D01*
Y1225785D01*
X2313844D01*
Y1228834D01*
Y1222736D01*
X1642706Y1160474D02*
X1638641D01*
Y1154377D01*
X1642706D01*
X1638641Y1157426D02*
X1640673D01*
X1648804Y1159458D02*
X1647788Y1160474D01*
X1645755D01*
X1644739Y1159458D01*
Y1158442D01*
X1645755Y1157426D01*
X1647788D01*
X1648804Y1156409D01*
Y1155393D01*
X1647788Y1154377D01*
X1645755D01*
X1644739Y1155393D01*
X1656935Y1154377D02*
Y1160474D01*
X1659984D01*
X1661000Y1159458D01*
Y1157426D01*
X1659984Y1156409D01*
X1656935D01*
X1658967D02*
X1661000Y1154377D01*
X1666082D02*
X1664049D01*
X1663033Y1155393D01*
Y1157426D01*
X1664049Y1158442D01*
X1666082D01*
X1667098Y1157426D01*
Y1156409D01*
X1663033D01*
X1669131Y1154377D02*
X1671163D01*
X1670147D01*
Y1160474D01*
X1669131D01*
X1677261Y1154377D02*
X1675229D01*
X1674212Y1155393D01*
Y1157426D01*
X1675229Y1158442D01*
X1677261D01*
X1678278Y1157426D01*
Y1156409D01*
X1674212D01*
X1681327Y1158442D02*
X1683359D01*
X1684376Y1157426D01*
Y1154377D01*
X1681327D01*
X1680310Y1155393D01*
X1681327Y1156409D01*
X1684376D01*
X1686408Y1154377D02*
X1689458D01*
X1690474Y1155393D01*
X1689458Y1156409D01*
X1687425D01*
X1686408Y1157426D01*
X1687425Y1158442D01*
X1690474D01*
X1695556Y1154377D02*
X1693523D01*
X1692506Y1155393D01*
Y1157426D01*
X1693523Y1158442D01*
X1695556D01*
X1696572Y1157426D01*
Y1156409D01*
X1692506D01*
X1529421Y1154377D02*
Y1160474D01*
X1532470D01*
X1533486Y1159458D01*
Y1157426D01*
X1532470Y1156409D01*
X1529421D01*
X1531453D02*
X1533486Y1154377D01*
X1538568D02*
X1536535D01*
X1535519Y1155393D01*
Y1157426D01*
X1536535Y1158442D01*
X1538568D01*
X1539584Y1157426D01*
Y1156409D01*
X1535519D01*
X1541617Y1158442D02*
X1543649Y1154377D01*
X1545682Y1158442D01*
X1553813Y1160474D02*
Y1154377D01*
X1556862D01*
X1557878Y1155393D01*
Y1156409D01*
X1556862Y1157426D01*
X1553813D01*
X1556862D01*
X1557878Y1158442D01*
Y1159458D01*
X1556862Y1160474D01*
X1553813D01*
X1318665Y-688866D02*
Y-693947D01*
X1319681Y-694964D01*
X1321714D01*
X1322730Y-693947D01*
Y-688866D01*
X1324763D02*
Y-694964D01*
X1327812D01*
X1328828Y-693947D01*
Y-692931D01*
X1327812Y-691915D01*
X1324763D01*
X1327812D01*
X1328828Y-690898D01*
Y-689882D01*
X1327812Y-688866D01*
X1324763D01*
X1330861D02*
X1334926Y-694964D01*
Y-688866D02*
X1330861Y-694964D01*
X1336959Y-688866D02*
Y-694964D01*
Y-691915D01*
X1341024D01*
Y-688866D01*
Y-694964D01*
X1347122Y-688866D02*
X1345089Y-689882D01*
X1343057Y-691915D01*
Y-693947D01*
X1344073Y-694964D01*
X1346106D01*
X1347122Y-693947D01*
Y-692931D01*
X1346106Y-691915D01*
X1343057D01*
X1349155Y-689882D02*
X1350171Y-688866D01*
X1352204D01*
X1353220Y-689882D01*
Y-693947D01*
X1352204Y-694964D01*
X1350171D01*
X1349155Y-693947D01*
Y-689882D01*
X1355253Y-691915D02*
X1359318D01*
X1361351Y-689882D02*
X1362367Y-688866D01*
X1364400D01*
X1365416Y-689882D01*
Y-693947D01*
X1364400Y-694964D01*
X1362367D01*
X1361351Y-693947D01*
Y-689882D01*
X1367449D02*
X1368465Y-688866D01*
X1370498D01*
X1371514Y-689882D01*
Y-693947D01*
X1370498Y-694964D01*
X1368465D01*
X1367449Y-693947D01*
Y-689882D01*
X1373547D02*
X1374563Y-688866D01*
X1376596D01*
X1377612Y-689882D01*
Y-693947D01*
X1376596Y-694964D01*
X1374563D01*
X1373547Y-693947D01*
Y-689882D01*
X1379645Y-694964D02*
X1381677D01*
X1380661D01*
Y-688866D01*
X1379645Y-689882D01*
X1384726Y-694964D02*
X1386759D01*
X1385743D01*
Y-688866D01*
X1384726Y-689882D01*
X1392857Y-694964D02*
Y-688866D01*
X1389808Y-691915D01*
X1393873D01*
X1399971Y-688866D02*
X1395906D01*
Y-691915D01*
X1397939Y-690898D01*
X1398955D01*
X1399971Y-691915D01*
Y-693947D01*
X1398955Y-694964D01*
X1396922D01*
X1395906Y-693947D01*
X1749450Y-617746D02*
X1745385D01*
Y-623844D01*
X1749450D01*
X1745385Y-620795D02*
X1747417D01*
X1751483Y-617746D02*
Y-621811D01*
X1753515Y-623844D01*
X1755548Y-621811D01*
Y-617746D01*
X1757581D02*
Y-623844D01*
Y-621811D01*
X1761646Y-617746D01*
X1758597Y-620795D01*
X1761646Y-623844D01*
X1763679Y-620795D02*
X1767744D01*
X1769777Y-623844D02*
Y-617746D01*
X1773842Y-623844D01*
Y-617746D01*
X1778924D02*
X1776891D01*
X1775875Y-618762D01*
Y-622827D01*
X1776891Y-623844D01*
X1778924D01*
X1779940Y-622827D01*
Y-618762D01*
X1778924Y-617746D01*
X1781973Y-623844D02*
Y-617746D01*
X1785022D01*
X1786038Y-618762D01*
Y-620795D01*
X1785022Y-621811D01*
X1781973D01*
X1784005D02*
X1786038Y-623844D01*
X1788071D02*
Y-619778D01*
X1790103Y-617746D01*
X1792136Y-619778D01*
Y-623844D01*
Y-620795D01*
X1788071D01*
X1794169D02*
X1798234D01*
X1800267Y-617746D02*
Y-623844D01*
X1802299Y-621811D01*
X1804332Y-623844D01*
Y-617746D01*
X1809414Y-623844D02*
Y-617746D01*
X1806365Y-620795D01*
X1810430D01*
X1812463Y-618762D02*
X1813479Y-617746D01*
X1815512D01*
X1816528Y-618762D01*
Y-622827D01*
X1815512Y-623844D01*
X1813479D01*
X1812463Y-622827D01*
Y-618762D01*
X2239965Y-622634D02*
Y-616536D01*
X2243014D01*
X2244030Y-617552D01*
Y-619585D01*
X2243014Y-620601D01*
X2239965D01*
X2241997D02*
X2244030Y-622634D01*
X2249112D02*
X2247079D01*
X2246063Y-621617D01*
Y-619585D01*
X2247079Y-618568D01*
X2249112D01*
X2250128Y-619585D01*
Y-620601D01*
X2246063D01*
X2252161Y-618568D02*
X2254193Y-622634D01*
X2256226Y-618568D01*
X2264357Y-616536D02*
Y-622634D01*
X2267406D01*
X2268422Y-621617D01*
Y-620601D01*
X2267406Y-619585D01*
X2264357D01*
X2267406D01*
X2268422Y-618568D01*
Y-617552D01*
X2267406Y-616536D01*
X2264357D01*
X1745385Y-556786D02*
X1749450D01*
X1747417D01*
Y-562884D01*
X1755548Y-556786D02*
X1751483D01*
Y-562884D01*
X1755548D01*
X1751483Y-559835D02*
X1753515D01*
X1757581D02*
X1761646D01*
X1767744Y-556786D02*
X1763679D01*
Y-562884D01*
X1767744D01*
X1763679Y-559835D02*
X1765711D01*
X1773842Y-557802D02*
X1772826Y-556786D01*
X1770793D01*
X1769777Y-557802D01*
Y-561867D01*
X1770793Y-562884D01*
X1772826D01*
X1773842Y-561867D01*
Y-559835D01*
X1771809D01*
X1775875Y-557802D02*
X1776891Y-556786D01*
X1778924D01*
X1779940Y-557802D01*
Y-558818D01*
X1778924Y-559835D01*
X1777907D01*
X1778924D01*
X1779940Y-560851D01*
Y-561867D01*
X1778924Y-562884D01*
X1776891D01*
X1775875Y-561867D01*
X1366925Y-562884D02*
Y-558818D01*
X1368957Y-556786D01*
X1370990Y-558818D01*
Y-562884D01*
Y-559835D01*
X1366925D01*
X1377088Y-557802D02*
X1376072Y-556786D01*
X1374039D01*
X1373023Y-557802D01*
Y-558818D01*
X1374039Y-559835D01*
X1376072D01*
X1377088Y-560851D01*
Y-561867D01*
X1376072Y-562884D01*
X1374039D01*
X1373023Y-561867D01*
X1382170Y-556786D02*
X1380137D01*
X1379121Y-557802D01*
Y-561867D01*
X1380137Y-562884D01*
X1382170D01*
X1383186Y-561867D01*
Y-557802D01*
X1382170Y-556786D01*
X1385219D02*
Y-562884D01*
Y-559835D01*
X1389284D01*
Y-556786D01*
Y-562884D01*
X1634327Y-600384D02*
Y-594286D01*
X1637376D01*
X1638392Y-595302D01*
Y-597335D01*
X1637376Y-598351D01*
X1634327D01*
X1644490Y-595302D02*
X1643474Y-594286D01*
X1641441D01*
X1640425Y-595302D01*
Y-599367D01*
X1641441Y-600384D01*
X1643474D01*
X1644490Y-599367D01*
X1646523Y-594286D02*
Y-600384D01*
X1649572D01*
X1650588Y-599367D01*
Y-598351D01*
X1649572Y-597335D01*
X1646523D01*
X1649572D01*
X1650588Y-596318D01*
Y-595302D01*
X1649572Y-594286D01*
X1646523D01*
X1658719Y-600384D02*
Y-594286D01*
X1662784Y-600384D01*
Y-594286D01*
X1664817Y-600384D02*
Y-596318D01*
X1666849Y-594286D01*
X1668882Y-596318D01*
Y-600384D01*
Y-597335D01*
X1664817D01*
X1670915Y-600384D02*
Y-594286D01*
X1672947Y-596318D01*
X1674980Y-594286D01*
Y-600384D01*
X1681078Y-594286D02*
X1677013D01*
Y-600384D01*
X1681078D01*
X1677013Y-597335D02*
X1679045D01*
X1683111Y-596318D02*
X1684127D01*
Y-597335D01*
X1683111D01*
Y-596318D01*
Y-599367D02*
X1684127D01*
Y-600384D01*
X1683111D01*
Y-599367D01*
X2253325Y-693602D02*
X2255357D01*
X2254341D01*
Y-687504D01*
X2253325Y-688520D01*
X2258406Y-689536D02*
X2259423D01*
Y-690553D01*
X2258406D01*
Y-689536D01*
Y-692585D02*
X2259423D01*
Y-693602D01*
X2258406D01*
Y-692585D01*
X2263488Y-693602D02*
X2265521D01*
X2264504D01*
Y-687504D01*
X2263488Y-688520D01*
X2170268Y-661342D02*
X2169252Y-660326D01*
X2167219D01*
X2166203Y-661342D01*
Y-662358D01*
X2167219Y-663375D01*
X2169252D01*
X2170268Y-664391D01*
Y-665407D01*
X2169252Y-666424D01*
X2167219D01*
X2166203Y-665407D01*
X2176366Y-661342D02*
X2175350Y-660326D01*
X2173317D01*
X2172301Y-661342D01*
Y-665407D01*
X2173317Y-666424D01*
X2175350D01*
X2176366Y-665407D01*
X2178399Y-666424D02*
Y-662358D01*
X2180431Y-660326D01*
X2182464Y-662358D01*
Y-666424D01*
Y-663375D01*
X2178399D01*
X2184497Y-660326D02*
Y-666424D01*
X2188562D01*
X2194660Y-660326D02*
X2190595D01*
Y-666424D01*
X2194660D01*
X2190595Y-663375D02*
X2192627D01*
X2196693Y-662358D02*
X2197709D01*
Y-663375D01*
X2196693D01*
Y-662358D01*
Y-665407D02*
X2197709D01*
Y-666424D01*
X2196693D01*
Y-665407D01*
X1637690Y-658386D02*
X1633625D01*
Y-661435D01*
X1635657D01*
X1633625D01*
Y-664484D01*
X1639723Y-658386D02*
X1641755D01*
X1640739D01*
Y-664484D01*
X1639723D01*
X1641755D01*
X1644804Y-658386D02*
Y-664484D01*
X1648870D01*
X1654968Y-658386D02*
X1650902D01*
Y-664484D01*
X1654968D01*
X1650902Y-661435D02*
X1652935D01*
X1663098Y-664484D02*
Y-658386D01*
X1667164Y-664484D01*
Y-658386D01*
X1669196Y-664484D02*
Y-660418D01*
X1671229Y-658386D01*
X1673262Y-660418D01*
Y-664484D01*
Y-661435D01*
X1669196D01*
X1675294Y-664484D02*
Y-658386D01*
X1677327Y-660418D01*
X1679360Y-658386D01*
Y-664484D01*
X1685458Y-658386D02*
X1681392D01*
Y-664484D01*
X1685458D01*
X1681392Y-661435D02*
X1683425D01*
X1687490Y-660418D02*
X1688507D01*
Y-661435D01*
X1687490D01*
Y-660418D01*
Y-663467D02*
X1688507D01*
Y-664484D01*
X1687490D01*
Y-663467D01*
X1635597Y-546028D02*
Y-539930D01*
X1638646D01*
X1639662Y-540946D01*
Y-542979D01*
X1638646Y-543995D01*
X1635597D01*
X1641695Y-546028D02*
Y-539930D01*
X1644744D01*
X1645760Y-540946D01*
Y-542979D01*
X1644744Y-543995D01*
X1641695D01*
X1643727D02*
X1645760Y-546028D01*
X1650842Y-539930D02*
X1648809D01*
X1647793Y-540946D01*
Y-545011D01*
X1648809Y-546028D01*
X1650842D01*
X1651858Y-545011D01*
Y-540946D01*
X1650842Y-539930D01*
X1657956D02*
X1655923D01*
X1656940D01*
Y-545011D01*
X1655923Y-546028D01*
X1654907D01*
X1653891Y-545011D01*
X1664054Y-539930D02*
X1659989D01*
Y-546028D01*
X1664054D01*
X1659989Y-542979D02*
X1662021D01*
X1670152Y-540946D02*
X1669136Y-539930D01*
X1667103D01*
X1666087Y-540946D01*
Y-545011D01*
X1667103Y-546028D01*
X1669136D01*
X1670152Y-545011D01*
X1672185Y-539930D02*
X1676250D01*
X1674217D01*
Y-546028D01*
X1678283Y-541962D02*
X1679299D01*
Y-542979D01*
X1678283D01*
Y-541962D01*
Y-545011D02*
X1679299D01*
Y-546028D01*
X1678283D01*
Y-545011D01*
X1254598Y-540184D02*
X1250533D01*
Y-546282D01*
X1254598D01*
X1250533Y-543233D02*
X1252565D01*
X1256631Y-546282D02*
Y-540184D01*
X1260696Y-546282D01*
Y-540184D01*
X1266794Y-541200D02*
X1265778Y-540184D01*
X1263745D01*
X1262729Y-541200D01*
Y-545265D01*
X1263745Y-546282D01*
X1265778D01*
X1266794Y-545265D01*
Y-543233D01*
X1264761D01*
X1268827Y-540184D02*
X1270859D01*
X1269843D01*
Y-546282D01*
X1268827D01*
X1270859D01*
X1273908D02*
Y-540184D01*
X1277974Y-546282D01*
Y-540184D01*
X1284072D02*
X1280006D01*
Y-546282D01*
X1284072D01*
X1280006Y-543233D02*
X1282039D01*
X1290170Y-540184D02*
X1286104D01*
Y-546282D01*
X1290170D01*
X1286104Y-543233D02*
X1288137D01*
X1292202Y-546282D02*
Y-540184D01*
X1295251D01*
X1296268Y-541200D01*
Y-543233D01*
X1295251Y-544249D01*
X1292202D01*
X1294235D02*
X1296268Y-546282D01*
X1298300Y-542216D02*
X1299317D01*
Y-543233D01*
X1298300D01*
Y-542216D01*
Y-545265D02*
X1299317D01*
Y-546282D01*
X1298300D01*
Y-545265D01*
X1252625Y-658386D02*
Y-664484D01*
X1255674D01*
X1256690Y-663467D01*
Y-659402D01*
X1255674Y-658386D01*
X1252625D01*
X1258723D02*
Y-664484D01*
X1260755Y-662451D01*
X1262788Y-664484D01*
Y-658386D01*
X1268886Y-659402D02*
X1267870Y-658386D01*
X1265837D01*
X1264821Y-659402D01*
Y-663467D01*
X1265837Y-664484D01*
X1267870D01*
X1268886Y-663467D01*
Y-661435D01*
X1266853D01*
X1277017Y-664484D02*
Y-658386D01*
X1281082Y-664484D01*
Y-658386D01*
X1286164D02*
X1284131D01*
X1283115Y-659402D01*
Y-663467D01*
X1284131Y-664484D01*
X1286164D01*
X1287180Y-663467D01*
Y-659402D01*
X1286164Y-658386D01*
X1289213Y-660418D02*
X1290229D01*
Y-661435D01*
X1289213D01*
Y-660418D01*
Y-663467D02*
X1290229D01*
Y-664484D01*
X1289213D01*
Y-663467D01*
X2167473Y-603686D02*
Y-597588D01*
X2170522D01*
X2171538Y-598604D01*
Y-600637D01*
X2170522Y-601653D01*
X2167473D01*
X2169505D02*
X2171538Y-603686D01*
X2177636Y-597588D02*
X2173571D01*
Y-603686D01*
X2177636D01*
X2173571Y-600637D02*
X2175603D01*
X2179669Y-597588D02*
Y-601653D01*
X2181701Y-603686D01*
X2183734Y-601653D01*
Y-597588D01*
X2185767Y-599620D02*
X2186783D01*
Y-600637D01*
X2185767D01*
Y-599620D01*
Y-602669D02*
X2186783D01*
Y-603686D01*
X2185767D01*
Y-602669D01*
X1251295Y-595302D02*
Y-601400D01*
X1254344D01*
X1255360Y-600383D01*
Y-596318D01*
X1254344Y-595302D01*
X1251295D01*
X1257393Y-601400D02*
Y-597334D01*
X1259425Y-595302D01*
X1261458Y-597334D01*
Y-601400D01*
Y-598351D01*
X1257393D01*
X1263491Y-595302D02*
X1267556D01*
X1265523D01*
Y-601400D01*
X1273654Y-595302D02*
X1269589D01*
Y-601400D01*
X1273654D01*
X1269589Y-598351D02*
X1271621D01*
X1275687Y-597334D02*
X1276703D01*
Y-598351D01*
X1275687D01*
Y-597334D01*
Y-600383D02*
X1276703D01*
Y-601400D01*
X1275687D01*
Y-600383D01*
X1323745Y-618762D02*
X1324761Y-617746D01*
X1326794D01*
X1327810Y-618762D01*
Y-622827D01*
X1326794Y-623844D01*
X1324761D01*
X1323745Y-622827D01*
Y-618762D01*
X1332892Y-623844D02*
Y-617746D01*
X1329843Y-620795D01*
X1333908D01*
X1335941Y-623844D02*
X1340006Y-619778D01*
X1342039Y-623844D02*
X1344071D01*
X1343055D01*
Y-617746D01*
X1342039Y-618762D01*
X1347120Y-622827D02*
X1348137Y-623844D01*
X1350169D01*
X1351186Y-622827D01*
Y-618762D01*
X1350169Y-617746D01*
X1348137D01*
X1347120Y-618762D01*
Y-619778D01*
X1348137Y-620795D01*
X1351186D01*
X1353218Y-623844D02*
X1357284Y-619778D01*
X1363382Y-623844D02*
X1359316D01*
X1363382Y-619778D01*
Y-618762D01*
X1362365Y-617746D01*
X1360333D01*
X1359316Y-618762D01*
X1365414D02*
X1366431Y-617746D01*
X1368463D01*
X1369480Y-618762D01*
Y-622827D01*
X1368463Y-623844D01*
X1366431D01*
X1365414Y-622827D01*
Y-618762D01*
X1375578Y-623844D02*
X1371512D01*
X1375578Y-619778D01*
Y-618762D01*
X1374561Y-617746D01*
X1372529D01*
X1371512Y-618762D01*
X1380659Y-623844D02*
Y-617746D01*
X1377610Y-620795D01*
X1381676D01*
X1660550Y-686326D02*
X1656485D01*
Y-692424D01*
X1660550D01*
X1656485Y-689375D02*
X1658517D01*
X1662583Y-686326D02*
Y-690391D01*
X1664615Y-692424D01*
X1666648Y-690391D01*
Y-686326D01*
X1668681D02*
Y-692424D01*
Y-690391D01*
X1672746Y-686326D01*
X1669697Y-689375D01*
X1672746Y-692424D01*
X1674779Y-689375D02*
X1678844D01*
X1680877Y-692424D02*
Y-686326D01*
X1684942Y-692424D01*
Y-686326D01*
X1690024D02*
X1687991D01*
X1686975Y-687342D01*
Y-691407D01*
X1687991Y-692424D01*
X1690024D01*
X1691040Y-691407D01*
Y-687342D01*
X1690024Y-686326D01*
X1693073Y-692424D02*
Y-686326D01*
X1696122D01*
X1697138Y-687342D01*
Y-689375D01*
X1696122Y-690391D01*
X1693073D01*
X1695105D02*
X1697138Y-692424D01*
X1699171D02*
Y-688358D01*
X1701203Y-686326D01*
X1703236Y-688358D01*
Y-692424D01*
Y-689375D01*
X1699171D01*
X1705269D02*
X1709334D01*
X1711367Y-686326D02*
Y-692424D01*
X1713399Y-690391D01*
X1715432Y-692424D01*
Y-686326D01*
X1720514Y-692424D02*
Y-686326D01*
X1717465Y-689375D01*
X1721530D01*
X1723563Y-687342D02*
X1724579Y-686326D01*
X1726612D01*
X1727628Y-687342D01*
Y-691407D01*
X1726612Y-692424D01*
X1724579D01*
X1723563Y-691407D01*
Y-687342D01*
X1729661Y-692424D02*
Y-691407D01*
X1730677D01*
Y-692424D01*
X1729661D01*
X1734742D02*
Y-686326D01*
X1737791D01*
X1738808Y-687342D01*
Y-689375D01*
X1737791Y-690391D01*
X1734742D01*
X1744906Y-688358D02*
X1741857D01*
X1740840Y-689375D01*
Y-691407D01*
X1741857Y-692424D01*
X1744906D01*
X1746938Y-686326D02*
Y-692424D01*
X1749987D01*
X1751004Y-691407D01*
Y-690391D01*
Y-689375D01*
X1749987Y-688358D01*
X1746938D01*
X1753036Y-686326D02*
Y-692424D01*
X1756085D01*
X1757102Y-691407D01*
Y-687342D01*
X1756085Y-686326D01*
X1753036D01*
X1760151Y-692424D02*
X1762183D01*
X1763200Y-691407D01*
Y-689375D01*
X1762183Y-688358D01*
X1760151D01*
X1759134Y-689375D01*
Y-691407D01*
X1760151Y-692424D01*
X1769298Y-688358D02*
X1766249D01*
X1765232Y-689375D01*
Y-691407D01*
X1766249Y-692424D01*
X1769298D01*
X960903Y-681101D02*
X960612Y-680520D01*
X960032Y-679939D01*
X959451Y-679649D01*
X958289D01*
X957708Y-679939D01*
X957127Y-680520D01*
X956837Y-681101D01*
X956547Y-681972D01*
Y-683424D01*
X956837Y-684296D01*
X957127Y-684876D01*
X957708Y-685457D01*
X958289Y-685748D01*
X959451D01*
X960032Y-685457D01*
X960612Y-684876D01*
X960903Y-684296D01*
X964359Y-679649D02*
X963778Y-679939D01*
X963197Y-680520D01*
X962907Y-681101D01*
X962616Y-681972D01*
Y-683424D01*
X962907Y-684296D01*
X963197Y-684876D01*
X963778Y-685457D01*
X964359Y-685748D01*
X965520D01*
X966101Y-685457D01*
X966682Y-684876D01*
X966973Y-684296D01*
X967263Y-683424D01*
Y-681972D01*
X966973Y-681101D01*
X966682Y-680520D01*
X966101Y-679939D01*
X965520Y-679649D01*
X964359D01*
X968686D02*
Y-685748D01*
Y-679649D02*
X972752Y-685748D01*
Y-679649D02*
Y-685748D01*
X974436Y-679649D02*
Y-685748D01*
Y-679649D02*
X978212D01*
X974436Y-682553D02*
X976759D01*
X978908Y-679649D02*
Y-685748D01*
X980186Y-679649D02*
Y-685748D01*
Y-679649D02*
X982219D01*
X983090Y-679939D01*
X983671Y-680520D01*
X983962Y-681101D01*
X984252Y-681972D01*
Y-683424D01*
X983962Y-684296D01*
X983671Y-684876D01*
X983090Y-685457D01*
X982219Y-685748D01*
X980186D01*
X989392Y-679649D02*
X985617D01*
Y-685748D01*
X989392D01*
X985617Y-682553D02*
X987940D01*
X990409Y-679649D02*
Y-685748D01*
Y-679649D02*
X994475Y-685748D01*
Y-679649D02*
Y-685748D01*
X998192Y-679649D02*
Y-685748D01*
X996159Y-679649D02*
X1000225D01*
X1000951D02*
Y-685748D01*
X1006875D02*
X1004552Y-679649D01*
X1002229Y-685748D01*
X1003100Y-683715D02*
X1006004D01*
X1008298Y-679649D02*
Y-685748D01*
X1011783D01*
X2291485Y1184636D02*
Y1188702D01*
X2293517Y1190734D01*
X2295550Y1188702D01*
Y1184636D01*
Y1187685D01*
X2291485D01*
X2301648Y1189718D02*
X2300632Y1190734D01*
X2298599D01*
X2297583Y1189718D01*
Y1188702D01*
X2298599Y1187685D01*
X2300632D01*
X2301648Y1186669D01*
Y1185653D01*
X2300632Y1184636D01*
X2298599D01*
X2297583Y1185653D01*
X2306730Y1190734D02*
X2304697D01*
X2303681Y1189718D01*
Y1185653D01*
X2304697Y1184636D01*
X2306730D01*
X2307746Y1185653D01*
Y1189718D01*
X2306730Y1190734D01*
X2309779D02*
Y1184636D01*
Y1187685D01*
X2313844D01*
Y1190734D01*
Y1184636D01*
X2123845Y1187178D02*
X2124861Y1188194D01*
X2126894D01*
X2127910Y1187178D01*
Y1183113D01*
X2126894Y1182096D01*
X2124861D01*
X2123845Y1183113D01*
Y1187178D01*
X2129943Y1188194D02*
X2134008D01*
Y1187178D01*
X2129943Y1183113D01*
Y1182096D01*
X2136041D02*
X2140106Y1186162D01*
X2142139Y1182096D02*
X2144171D01*
X2143155D01*
Y1188194D01*
X2142139Y1187178D01*
X2147220Y1183113D02*
X2148237Y1182096D01*
X2150269D01*
X2151286Y1183113D01*
Y1187178D01*
X2150269Y1188194D01*
X2148237D01*
X2147220Y1187178D01*
Y1186162D01*
X2148237Y1185145D01*
X2151286D01*
X2153318Y1182096D02*
X2157384Y1186162D01*
X2163482Y1182096D02*
X2159416D01*
X2163482Y1186162D01*
Y1187178D01*
X2162465Y1188194D01*
X2160433D01*
X2159416Y1187178D01*
X2165514D02*
X2166531Y1188194D01*
X2168563D01*
X2169580Y1187178D01*
Y1183113D01*
X2168563Y1182096D01*
X2166531D01*
X2165514Y1183113D01*
Y1187178D01*
X2175678Y1182096D02*
X2171612D01*
X2175678Y1186162D01*
Y1187178D01*
X2174661Y1188194D01*
X2172629D01*
X2171612Y1187178D01*
X2180759Y1182096D02*
Y1188194D01*
X2177710Y1185145D01*
X2181776D01*
D12*
X2091259Y-64415D02*
X2324939D01*
X2091259Y-88545D02*
X2324939D01*
Y-64415D01*
D14*
X2103959Y212445D02*
X2299539D01*
X2350339Y-496844D02*
Y249916D01*
X2063319D02*
X2350339D01*
X2063319Y-496844D02*
Y249916D01*
Y-496844D02*
X2350339D01*
D16*
X-301915Y-710874D02*
X2390485D01*
X-301915D02*
Y1346526D01*
X-352655Y-761004D02*
Y1397996D01*
X-352715Y857576D02*
X-301915D01*
X-352715Y317826D02*
X-301915D01*
X-352715Y-221924D02*
X-301915D01*
X345785Y-761674D02*
Y-710874D01*
X1044285Y-761674D02*
Y-710874D01*
X1742785Y-761674D02*
Y-710874D01*
X-301915Y1346526D02*
X2390485D01*
X345785D02*
Y1397326D01*
X1044285Y1346526D02*
Y1397326D01*
X1742785Y1346526D02*
Y1397326D01*
X-352655Y1397996D02*
X2441345D01*
Y-761004D02*
Y1397996D01*
X2390485Y-710874D02*
Y1346526D01*
Y857576D02*
X2441285D01*
X2390485Y317826D02*
X2441285D01*
X2390485Y-221924D02*
X2441285D01*
X-352655Y-761004D02*
X2441345D01*
X1516785Y1131296D02*
Y1347196D01*
Y1131296D02*
X2390545D01*
X1516785Y1169396D02*
X2390485D01*
X1516785Y1245596D02*
X2390545D01*
X1516785Y1207496D02*
X2390485D01*
X1516785Y1288776D02*
X2390485D01*
X1608225Y1131296D02*
Y1288776D01*
X2103525Y1131296D02*
Y1288776D01*
X2273705Y1131296D02*
Y1288776D01*
X1628485Y-558474D02*
Y-521898D01*
X1247485D02*
X1628485D01*
X818285D02*
X1247485D01*
X1628485Y-710874D02*
Y-558474D01*
X2161885Y-710874D02*
Y-581080D01*
X1247485Y-710874D02*
Y-521898D01*
X2390485Y-710874D02*
Y-521898D01*
X1628485D02*
X2390485D01*
X1247485Y-580318D02*
X2390485D01*
X1247485Y-643564D02*
X2390485D01*
X1247485Y-710874D02*
X2390485D01*
X818285D02*
Y-521898D01*
Y-710874D02*
X1247485D01*
D21*
X2115389Y-76480D02*
D03*
D22*
X-0Y30000D02*
G03*
X30000Y0I30000J-0D01*
G01*
X30000Y700000D02*
G03*
X-0Y670000I-1J-29999D01*
G01*
X1000000Y670000D02*
G03*
X970000Y700000I-30000J0D01*
G01*
X970000Y0D02*
G03*
X1000000Y30000I0J30000D01*
G01*
X-0Y30000D02*
Y670000D01*
X30000Y700000D02*
X970000D01*
X1000000Y30000D02*
Y670000D01*
X30000Y0D02*
X970000Y0D01*
D23*
X394490Y210828D02*
D03*
X562122Y297466D02*
D03*
D24*
X512854Y511810D02*
D03*
X486854D02*
D03*
D25*
X635932Y202292D02*
D03*
Y215792D02*
D03*
X625432Y202292D02*
D03*
Y215792D02*
D03*
D26*
X588000Y73550D02*
D03*
X596000D02*
D03*
X652000D02*
D03*
X644000D02*
D03*
X348000D02*
D03*
X356000D02*
D03*
X412000D02*
D03*
X404000D02*
D03*
D27*
X602500D02*
D03*
X607500D02*
D03*
X612500D02*
D03*
X617500D02*
D03*
X637500D02*
D03*
X632500D02*
D03*
X627500D02*
D03*
X622500D02*
D03*
X362500D02*
D03*
X367500D02*
D03*
X372500D02*
D03*
X377500D02*
D03*
X397500D02*
D03*
X392500D02*
D03*
X387500D02*
D03*
X382500D02*
D03*
D28*
X417082Y645650D02*
D03*
Y675150D02*
D03*
X583466Y645650D02*
D03*
Y675150D02*
D03*
D29*
X432082Y660400D02*
D03*
X568466D02*
D03*
D30*
X767500Y24530D02*
D03*
Y74530D02*
D03*
Y49530D02*
D03*
X712500D02*
D03*
Y74530D02*
D03*
Y24530D02*
D03*
D31*
X426138Y308252D02*
D03*
Y301752D02*
D03*
Y295252D02*
D03*
X445138D02*
D03*
Y301752D02*
D03*
Y308252D02*
D03*
D32*
X617300Y113684D02*
D03*
X627300D02*
D03*
Y100184D02*
D03*
X622300D02*
D03*
X617300D02*
D03*
X376508Y98406D02*
D03*
X381508D02*
D03*
X386508D02*
D03*
Y111906D02*
D03*
X376508D02*
D03*
D33*
X452682Y172872D02*
D03*
X427682D02*
D03*
Y191872D02*
D03*
X452682D02*
D03*
Y182372D02*
D03*
D34*
X873190Y606650D02*
D03*
Y600150D02*
D03*
Y593650D02*
D03*
Y587150D02*
D03*
X833690D02*
D03*
Y593650D02*
D03*
Y600150D02*
D03*
Y606650D02*
D03*
X644460Y371700D02*
D03*
Y365200D02*
D03*
Y358700D02*
D03*
Y352200D02*
D03*
X683960D02*
D03*
Y358700D02*
D03*
Y365200D02*
D03*
Y371700D02*
D03*
X644460Y408530D02*
D03*
Y402030D02*
D03*
Y395530D02*
D03*
Y389030D02*
D03*
X683960D02*
D03*
Y395530D02*
D03*
Y402030D02*
D03*
Y408530D02*
D03*
D35*
X565000Y473710D02*
D03*
Y461010D02*
D03*
Y448310D02*
D03*
Y435610D02*
D03*
X635000Y473710D02*
D03*
Y461010D02*
D03*
Y448310D02*
D03*
Y435610D02*
D03*
X471000D02*
D03*
Y448310D02*
D03*
Y461010D02*
D03*
Y473710D02*
D03*
X401000Y435610D02*
D03*
Y448310D02*
D03*
Y461010D02*
D03*
Y473710D02*
D03*
D36*
X801240Y615950D02*
D03*
X816740D02*
D03*
D37*
X883040Y48514D02*
D03*
X874640D02*
D03*
X739530Y639000D02*
D03*
X731130D02*
D03*
X814460D02*
D03*
X806060D02*
D03*
X663330D02*
D03*
X654930D02*
D03*
D38*
X793750Y36046D02*
D03*
Y65046D02*
D03*
X865124Y180870D02*
D03*
Y151870D02*
D03*
X430050Y108690D02*
D03*
Y137690D02*
D03*
X687070Y90700D02*
D03*
Y61700D02*
D03*
D39*
X380580Y680720D02*
D03*
X324580D02*
D03*
D40*
X337580Y641970D02*
D03*
X347580D02*
D03*
X357580D02*
D03*
X367580D02*
D03*
D41*
X813100Y514650D02*
D03*
X711500D02*
D03*
X813100Y485350D02*
D03*
X711500D02*
D03*
X838500Y514650D02*
D03*
X863900D02*
D03*
X736900D02*
D03*
X762300D02*
D03*
X686100D02*
D03*
X838500Y485350D02*
D03*
X863900D02*
D03*
X736900Y485350D02*
D03*
X762300Y485350D02*
D03*
X686100D02*
D03*
X787700Y514650D02*
D03*
Y485350D02*
D03*
Y256750D02*
D03*
Y286050D02*
D03*
X686100Y256750D02*
D03*
X863900D02*
D03*
X838500D02*
D03*
X686100Y286050D02*
D03*
X863900D02*
D03*
X838500D02*
D03*
X711500Y256750D02*
D03*
X813100D02*
D03*
X711500Y286050D02*
D03*
X813100D02*
D03*
X736900Y256750D02*
D03*
X736900Y286050D02*
D03*
X762300Y256750D02*
D03*
Y286050D02*
D03*
X212300Y286050D02*
D03*
Y256750D02*
D03*
X313900Y286050D02*
D03*
X237700D02*
D03*
X263100Y286050D02*
D03*
X136100Y286050D02*
D03*
X161500D02*
D03*
X313900Y256750D02*
D03*
X237700D02*
D03*
X263100D02*
D03*
X136100D02*
D03*
X161500D02*
D03*
X288500Y286050D02*
D03*
X186900D02*
D03*
X288500Y256750D02*
D03*
X186900D02*
D03*
X212300Y514650D02*
D03*
Y485350D02*
D03*
X313900Y514650D02*
D03*
X237700D02*
D03*
X263100Y514650D02*
D03*
X136100Y514650D02*
D03*
X161500D02*
D03*
X313900Y485350D02*
D03*
X237700D02*
D03*
X263100D02*
D03*
X136100D02*
D03*
X161500D02*
D03*
X288500Y514650D02*
D03*
X186900D02*
D03*
X288500Y485350D02*
D03*
X186900D02*
D03*
D42*
X790448Y88028D02*
D03*
Y106028D02*
D03*
X785650Y142350D02*
D03*
Y124350D02*
D03*
X710720Y124570D02*
D03*
Y106570D02*
D03*
X761746Y192676D02*
D03*
Y210676D02*
D03*
X742950D02*
D03*
Y192676D02*
D03*
D43*
X495950Y123190D02*
D03*
X481950D02*
D03*
X817280Y129540D02*
D03*
X802280D02*
D03*
X452006Y353822D02*
D03*
X466006D02*
D03*
X547794Y354076D02*
D03*
X533794D02*
D03*
X480202Y191008D02*
D03*
X466202D02*
D03*
D44*
X803720Y572770D02*
D03*
X811720D02*
D03*
X452818Y161500D02*
D03*
X444818D02*
D03*
X458180Y546100D02*
D03*
X450180D02*
D03*
X458152Y537718D02*
D03*
X450152D02*
D03*
X471008Y546100D02*
D03*
X479008D02*
D03*
X471008Y537718D02*
D03*
X479008D02*
D03*
X526888Y132080D02*
D03*
X534888D02*
D03*
Y123190D02*
D03*
X526888D02*
D03*
X517490Y149860D02*
D03*
X525490D02*
D03*
X595722Y289814D02*
D03*
X603722D02*
D03*
Y298196D02*
D03*
X595722D02*
D03*
Y280924D02*
D03*
X603722D02*
D03*
X458308Y291592D02*
D03*
X466308D02*
D03*
X345278Y565150D02*
D03*
X353278D02*
D03*
X345342Y581914D02*
D03*
X353342D02*
D03*
X520854Y526034D02*
D03*
X512854D02*
D03*
X478882D02*
D03*
X486882D02*
D03*
X598770Y545080D02*
D03*
X606770D02*
D03*
X598770Y519684D02*
D03*
X606770D02*
D03*
X598770Y532380D02*
D03*
X606770D02*
D03*
X404586Y557784D02*
D03*
X396586D02*
D03*
X404586Y570484D02*
D03*
X396586D02*
D03*
X404586Y595884D02*
D03*
X396586D02*
D03*
X404586Y583184D02*
D03*
X396586D02*
D03*
X431256Y94234D02*
D03*
X423256D02*
D03*
X606516Y595884D02*
D03*
X598516D02*
D03*
X671162Y94155D02*
D03*
X663162D02*
D03*
X606516Y583184D02*
D03*
X598516D02*
D03*
X400712Y506984D02*
D03*
X392712D02*
D03*
X400776Y519684D02*
D03*
X392776D02*
D03*
X392712Y532384D02*
D03*
X400712D02*
D03*
X807148Y196850D02*
D03*
X799148D02*
D03*
X809970Y142240D02*
D03*
X801970D02*
D03*
X829020D02*
D03*
X821020D02*
D03*
X825210Y205740D02*
D03*
X817210D02*
D03*
X825210Y196850D02*
D03*
X817210D02*
D03*
X448882Y151130D02*
D03*
X456882D02*
D03*
X474154Y175514D02*
D03*
X466154D02*
D03*
X474054Y166576D02*
D03*
X466054D02*
D03*
X474064Y157544D02*
D03*
X466064D02*
D03*
X499328Y457200D02*
D03*
X491328D02*
D03*
X371440Y448310D02*
D03*
X379440D02*
D03*
Y465836D02*
D03*
X371440D02*
D03*
Y457200D02*
D03*
X379440D02*
D03*
X499328Y439674D02*
D03*
X491328D02*
D03*
X535358Y460886D02*
D03*
X543358D02*
D03*
X663028Y463377D02*
D03*
X655028D02*
D03*
X669055Y431594D02*
D03*
X677055D02*
D03*
X663028Y454233D02*
D03*
X655028D02*
D03*
X669055Y440484D02*
D03*
X677055D02*
D03*
X535358Y478412D02*
D03*
X543358D02*
D03*
Y469522D02*
D03*
X535358D02*
D03*
X828230Y354330D02*
D03*
X820230D02*
D03*
X828230Y367030D02*
D03*
X820230D02*
D03*
X828230Y379730D02*
D03*
X820230D02*
D03*
X828230Y392430D02*
D03*
X820230D02*
D03*
X828230Y405130D02*
D03*
X820230D02*
D03*
Y417830D02*
D03*
X828230D02*
D03*
X591150Y251714D02*
D03*
X599150D02*
D03*
X591150Y260604D02*
D03*
X599150D02*
D03*
X403698Y303022D02*
D03*
X411698D02*
D03*
X466308Y309372D02*
D03*
X458308D02*
D03*
X411698Y294132D02*
D03*
X403698D02*
D03*
X458308Y300482D02*
D03*
X466308D02*
D03*
X411698Y311912D02*
D03*
X403698D02*
D03*
X634888Y127508D02*
D03*
X626888D02*
D03*
X778320Y599440D02*
D03*
X786320D02*
D03*
Y590550D02*
D03*
X778320D02*
D03*
X786320Y580390D02*
D03*
X778320D02*
D03*
X895794Y30000D02*
D03*
X887794D02*
D03*
X131790Y642818D02*
D03*
X123790D02*
D03*
X114010D02*
D03*
X106010D02*
D03*
X731080Y630000D02*
D03*
X739080D02*
D03*
X874586Y77216D02*
D03*
X882586D02*
D03*
X806010Y630000D02*
D03*
X814010D02*
D03*
X131726Y633674D02*
D03*
X123726D02*
D03*
X114010D02*
D03*
X106010D02*
D03*
X541390Y260915D02*
D03*
X549389D02*
D03*
X566026Y260918D02*
D03*
X558026D02*
D03*
X618250Y127508D02*
D03*
X610250D02*
D03*
X711390Y305054D02*
D03*
X703390D02*
D03*
X703644Y465582D02*
D03*
X711644D02*
D03*
X288608Y467106D02*
D03*
X296608D02*
D03*
X288608Y306832D02*
D03*
X296608D02*
D03*
X372300Y621030D02*
D03*
X364300D02*
D03*
X423256Y85344D02*
D03*
X431256D02*
D03*
X663162Y85265D02*
D03*
X671162D02*
D03*
X803720Y599440D02*
D03*
X811720D02*
D03*
X803720Y590550D02*
D03*
X811720D02*
D03*
X803720Y581660D02*
D03*
X811720D02*
D03*
X400654Y545084D02*
D03*
X392654D02*
D03*
X606770Y570484D02*
D03*
X598770D02*
D03*
X599024Y506984D02*
D03*
X607024D02*
D03*
X910780Y675640D02*
D03*
X902780D02*
D03*
X787590Y614680D02*
D03*
X779590D02*
D03*
X927480Y675640D02*
D03*
X919480D02*
D03*
X663130Y630000D02*
D03*
X655130D02*
D03*
X491328Y448310D02*
D03*
X499328D02*
D03*
X773240Y464312D02*
D03*
X781240D02*
D03*
D45*
X720500Y403860D02*
D03*
X711500D02*
D03*
X598270Y557784D02*
D03*
X607270D02*
D03*
X625204Y620522D02*
D03*
X616204D02*
D03*
X807930Y205740D02*
D03*
X798930D02*
D03*
X600130Y328930D02*
D03*
X591130D02*
D03*
Y320040D02*
D03*
X600130D02*
D03*
X711500Y367030D02*
D03*
X720500D02*
D03*
X711500Y354330D02*
D03*
X720500D02*
D03*
Y391160D02*
D03*
X711500D02*
D03*
X720500Y378460D02*
D03*
X711500D02*
D03*
X720500Y416560D02*
D03*
X711500D02*
D03*
X880210Y670306D02*
D03*
X889210D02*
D03*
X879956Y630174D02*
D03*
X888956D02*
D03*
X883594Y58166D02*
D03*
X874594D02*
D03*
X381580Y621030D02*
D03*
X390580D02*
D03*
D46*
X483390Y142240D02*
D03*
Y148240D02*
D03*
D47*
X589026Y196342D02*
D03*
D48*
X608526Y208842D02*
D03*
Y203842D02*
D03*
Y198842D02*
D03*
Y193842D02*
D03*
Y188842D02*
D03*
Y183842D02*
D03*
X569526D02*
D03*
Y188842D02*
D03*
Y193842D02*
D03*
Y198842D02*
D03*
Y203842D02*
D03*
Y208842D02*
D03*
D49*
X601526Y176842D02*
D03*
X596526D02*
D03*
X591526D02*
D03*
X586526D02*
D03*
X581526D02*
D03*
X576526D02*
D03*
Y215842D02*
D03*
X581526D02*
D03*
X586526D02*
D03*
X591526D02*
D03*
X596526D02*
D03*
X601526D02*
D03*
D50*
X701881Y155588D02*
D03*
D51*
X716881Y163088D02*
D03*
Y158088D02*
D03*
Y153088D02*
D03*
Y148088D02*
D03*
X686881D02*
D03*
Y153088D02*
D03*
Y158088D02*
D03*
Y163088D02*
D03*
D52*
X709381Y140588D02*
D03*
X704381D02*
D03*
X699381D02*
D03*
X694381D02*
D03*
Y170588D02*
D03*
X699381D02*
D03*
X704381D02*
D03*
X709381D02*
D03*
D53*
X502930Y174102D02*
D03*
D54*
X495430Y160102D02*
D03*
X500430D02*
D03*
X510430D02*
D03*
X505430D02*
D03*
X510430Y188102D02*
D03*
X505430D02*
D03*
X495430D02*
D03*
X500430D02*
D03*
D55*
X516930Y166602D02*
D03*
Y171602D02*
D03*
Y181602D02*
D03*
Y176602D02*
D03*
X488930Y181602D02*
D03*
Y176602D02*
D03*
Y166602D02*
D03*
Y171602D02*
D03*
D56*
X375835Y200820D02*
D03*
Y205820D02*
D03*
Y210820D02*
D03*
Y215820D02*
D03*
Y220820D02*
D03*
X413145D02*
D03*
Y215820D02*
D03*
Y210820D02*
D03*
Y205820D02*
D03*
Y200820D02*
D03*
D57*
X384490Y229475D02*
D03*
X389490D02*
D03*
X394490D02*
D03*
X399490D02*
D03*
X404490D02*
D03*
Y192165D02*
D03*
X399490D02*
D03*
X394490D02*
D03*
X389490D02*
D03*
D58*
X384490D02*
D03*
D59*
X847520Y652190D02*
D03*
X806020D02*
D03*
X847520Y673690D02*
D03*
X806020D02*
D03*
X772590D02*
D03*
X731090D02*
D03*
Y652190D02*
D03*
X772590D02*
D03*
X697660D02*
D03*
X656160D02*
D03*
X697660Y673690D02*
D03*
X656160D02*
D03*
D60*
X505400Y616400D02*
D03*
Y605400D02*
D03*
Y627400D02*
D03*
Y649400D02*
D03*
X494400Y616400D02*
D03*
X543900Y561400D02*
D03*
Y572400D02*
D03*
Y583400D02*
D03*
Y594400D02*
D03*
Y605400D02*
D03*
Y616400D02*
D03*
Y627400D02*
D03*
Y638400D02*
D03*
Y649400D02*
D03*
Y660400D02*
D03*
Y675400D02*
D03*
Y690400D02*
D03*
X532900Y561400D02*
D03*
Y572400D02*
D03*
Y583400D02*
D03*
Y594400D02*
D03*
Y605400D02*
D03*
Y616400D02*
D03*
Y627400D02*
D03*
Y638400D02*
D03*
Y649400D02*
D03*
Y660400D02*
D03*
X532900Y690400D02*
D03*
X521900Y561400D02*
D03*
Y572400D02*
D03*
Y594400D02*
D03*
Y605400D02*
D03*
Y616400D02*
D03*
Y627400D02*
D03*
Y638400D02*
D03*
Y649400D02*
D03*
Y660400D02*
D03*
X510900Y561400D02*
D03*
Y572400D02*
D03*
Y583400D02*
D03*
X499900Y561400D02*
D03*
Y572400D02*
D03*
Y583400D02*
D03*
X494400Y605400D02*
D03*
Y627400D02*
D03*
X499900Y660400D02*
D03*
X488900Y561400D02*
D03*
Y572400D02*
D03*
Y583400D02*
D03*
X477900Y561400D02*
D03*
Y572400D02*
D03*
Y594400D02*
D03*
Y605400D02*
D03*
Y616400D02*
D03*
Y627400D02*
D03*
Y638400D02*
D03*
Y649400D02*
D03*
Y660400D02*
D03*
X466900Y561400D02*
D03*
Y572400D02*
D03*
Y583400D02*
D03*
Y594400D02*
D03*
Y605400D02*
D03*
Y616400D02*
D03*
Y627400D02*
D03*
Y638400D02*
D03*
Y649400D02*
D03*
Y660400D02*
D03*
X466900Y690400D02*
D03*
X455900Y561400D02*
D03*
Y572400D02*
D03*
Y583400D02*
D03*
Y594400D02*
D03*
Y605400D02*
D03*
Y616400D02*
D03*
Y627400D02*
D03*
Y638400D02*
D03*
Y649400D02*
D03*
Y660400D02*
D03*
X455900Y675400D02*
D03*
Y690400D02*
D03*
X494400Y649400D02*
D03*
X874674Y67818D02*
D03*
X884174D02*
D03*
X362816Y125222D02*
D03*
X372316D02*
D03*
X390858D02*
D03*
X381358D02*
D03*
X692610Y128270D02*
D03*
X683110D02*
D03*
X524840Y140970D02*
D03*
X534340D02*
D03*
D61*
X297600Y583080D02*
D03*
X160100D02*
D03*
Y666080D02*
D03*
X297600D02*
D03*
D62*
X273800Y640080D02*
D03*
X262800D02*
D03*
X251800D02*
D03*
X240800D02*
D03*
X229800D02*
D03*
X218800D02*
D03*
X207800D02*
D03*
X196800D02*
D03*
D63*
X80250Y118700D02*
D03*
X29750D02*
D03*
X80250Y144100D02*
D03*
X29750D02*
D03*
X80250Y169500D02*
D03*
X29750D02*
D03*
X80250Y194900D02*
D03*
X29750D02*
D03*
X80250Y220300D02*
D03*
X29750D02*
D03*
X80250Y245700D02*
D03*
X29750D02*
D03*
X80250Y271100D02*
D03*
X29750D02*
D03*
X80250Y296500D02*
D03*
X29750D02*
D03*
X80250Y321900D02*
D03*
X29750D02*
D03*
X80250Y347300D02*
D03*
X29750D02*
D03*
X80250Y372700D02*
D03*
X29750D02*
D03*
X80250Y398100D02*
D03*
X29750D02*
D03*
X80250Y423500D02*
D03*
X29750D02*
D03*
X80250Y448900D02*
D03*
X29750D02*
D03*
X80250Y474300D02*
D03*
X29750D02*
D03*
X80250Y499700D02*
D03*
X29750D02*
D03*
X80250Y525100D02*
D03*
X29750D02*
D03*
X80250Y550500D02*
D03*
X29750D02*
D03*
X80250Y575900D02*
D03*
X29750D02*
D03*
X80250Y601300D02*
D03*
X29750D02*
D03*
X970250Y118700D02*
D03*
X919750D02*
D03*
X970250Y144100D02*
D03*
X919750D02*
D03*
X970250Y169500D02*
D03*
X919750D02*
D03*
X970250Y194900D02*
D03*
X919750D02*
D03*
X970250Y220300D02*
D03*
X919750D02*
D03*
X970250Y245700D02*
D03*
X919750D02*
D03*
X970250Y271100D02*
D03*
X919750D02*
D03*
X970250Y296500D02*
D03*
X919750D02*
D03*
X970250Y321900D02*
D03*
X919750D02*
D03*
X970250Y347300D02*
D03*
X919750D02*
D03*
X970250Y372700D02*
D03*
X919750D02*
D03*
X970250Y398100D02*
D03*
X919750D02*
D03*
X970250Y423500D02*
D03*
X919750D02*
D03*
X970250Y448900D02*
D03*
X919750D02*
D03*
X970250Y474300D02*
D03*
X919750D02*
D03*
X970250Y499700D02*
D03*
X919750D02*
D03*
X970250Y525100D02*
D03*
X919750D02*
D03*
X970250Y550500D02*
D03*
X919750D02*
D03*
X970250Y575900D02*
D03*
X919750D02*
D03*
X970250Y601300D02*
D03*
X919750D02*
D03*
D64*
X465720Y127322D02*
D03*
Y135822D02*
D03*
X451220Y127322D02*
D03*
Y135822D02*
D03*
D65*
X880528Y643106D02*
D03*
X889028D02*
D03*
Y657606D02*
D03*
X880528D02*
D03*
D66*
X739000Y403860D02*
D03*
X752000D02*
D03*
X898548Y18034D02*
D03*
X885548D02*
D03*
X739000Y367030D02*
D03*
X752000D02*
D03*
X739000Y354330D02*
D03*
X752000D02*
D03*
X739000Y391160D02*
D03*
X752000D02*
D03*
X739000Y378460D02*
D03*
X752000D02*
D03*
X739000Y416560D02*
D03*
X752000D02*
D03*
D67*
X703962Y185420D02*
D03*
X716462D02*
D03*
D68*
X417350Y254650D02*
D03*
Y240650D02*
D03*
X411000Y119000D02*
D03*
Y105000D02*
D03*
X652018Y119000D02*
D03*
Y105000D02*
D03*
D69*
X557558Y671620D02*
D03*
Y677120D02*
D03*
X442496Y665944D02*
D03*
Y660444D02*
D03*
X557558Y665944D02*
D03*
Y660444D02*
D03*
X644398Y207728D02*
D03*
Y202228D02*
D03*
X442468Y672636D02*
D03*
Y678136D02*
D03*
D70*
X455400Y406500D02*
D03*
X430000Y373500D02*
D03*
X404600Y406500D02*
D03*
X595400D02*
D03*
X570000Y373500D02*
D03*
X544600Y406500D02*
D03*
D71*
X315184Y359156D02*
D03*
Y371856D02*
D03*
Y384556D02*
D03*
Y397256D02*
D03*
Y409956D02*
D03*
X276184D02*
D03*
Y397256D02*
D03*
Y384556D02*
D03*
Y371856D02*
D03*
Y359156D02*
D03*
D72*
X788850Y156780D02*
D03*
X798350D02*
D03*
X807850D02*
D03*
X788850Y183580D02*
D03*
X798350D02*
D03*
X807850D02*
D03*
D73*
X798350Y170180D02*
D03*
D74*
X744982Y162590D02*
D03*
Y134590D02*
D03*
D75*
X785650Y220860D02*
D03*
Y205860D02*
D03*
X506250Y149240D02*
D03*
Y135240D02*
D03*
D76*
X631146Y223774D02*
D03*
X625646D02*
D03*
D77*
X461480Y30840D02*
D03*
X528480D02*
D03*
D78*
X484980Y53340D02*
D03*
X504980D02*
D03*
D79*
X137900Y678180D02*
D03*
X99900D02*
D03*
D80*
X128900Y655180D02*
D03*
X123900D02*
D03*
X118900D02*
D03*
X113900D02*
D03*
X108900D02*
D03*
D81*
X908480Y640080D02*
D03*
X919480D02*
D03*
Y658380D02*
D03*
X908480D02*
D03*
D82*
X420020Y507032D02*
D03*
Y519732D02*
D03*
Y532432D02*
D03*
Y545132D02*
D03*
Y557832D02*
D03*
Y570532D02*
D03*
Y583232D02*
D03*
Y595932D02*
D03*
X379020Y583232D02*
D03*
Y570532D02*
D03*
Y545132D02*
D03*
Y532432D02*
D03*
Y519732D02*
D03*
Y507032D02*
D03*
Y557832D02*
D03*
Y595932D02*
D03*
X842190Y417830D02*
D03*
Y405130D02*
D03*
Y367030D02*
D03*
Y354330D02*
D03*
X801190D02*
D03*
Y367030D02*
D03*
Y405130D02*
D03*
Y417830D02*
D03*
X842190Y392430D02*
D03*
Y379730D02*
D03*
X801190D02*
D03*
Y392430D02*
D03*
X579984Y595930D02*
D03*
Y583230D02*
D03*
Y570530D02*
D03*
Y557830D02*
D03*
Y545130D02*
D03*
Y532430D02*
D03*
Y519730D02*
D03*
Y507030D02*
D03*
X620984D02*
D03*
Y519730D02*
D03*
Y532430D02*
D03*
Y545130D02*
D03*
Y557830D02*
D03*
Y570530D02*
D03*
Y583230D02*
D03*
Y595930D02*
D03*
D83*
X493650Y405500D02*
D03*
X506350D02*
D03*
Y364500D02*
D03*
X493650D02*
D03*
D84*
X524538Y507568D02*
D03*
Y517068D02*
D03*
X475008Y516814D02*
D03*
Y507314D02*
D03*
X696750Y109880D02*
D03*
Y119380D02*
D03*
D85*
X411000Y128080D02*
D03*
Y136080D02*
D03*
X664718Y116650D02*
D03*
Y124650D02*
D03*
X527304Y171132D02*
D03*
Y163132D02*
D03*
X501170Y205930D02*
D03*
Y197930D02*
D03*
X510060Y205930D02*
D03*
Y197930D02*
D03*
X485422Y473774D02*
D03*
Y481774D02*
D03*
X494312D02*
D03*
Y473774D02*
D03*
X545366Y439428D02*
D03*
Y447428D02*
D03*
X536476Y439428D02*
D03*
Y447428D02*
D03*
X614172Y165290D02*
D03*
Y157290D02*
D03*
X578640Y268414D02*
D03*
Y260414D02*
D03*
X557304Y201740D02*
D03*
Y209740D02*
D03*
X557276Y193738D02*
D03*
Y185738D02*
D03*
X389410Y243650D02*
D03*
Y251650D02*
D03*
X398300Y243650D02*
D03*
Y251650D02*
D03*
X407190Y243650D02*
D03*
Y251650D02*
D03*
X605818Y230950D02*
D03*
Y238950D02*
D03*
X424970Y222060D02*
D03*
Y230060D02*
D03*
X397510Y85662D02*
D03*
Y93662D02*
D03*
X364744Y85408D02*
D03*
Y93408D02*
D03*
X637540Y93916D02*
D03*
Y85916D02*
D03*
X604012Y91948D02*
D03*
Y99948D02*
D03*
X691670Y184214D02*
D03*
Y192214D02*
D03*
X459232Y102934D02*
D03*
Y110934D02*
D03*
X530860Y187896D02*
D03*
Y179896D02*
D03*
X492280Y148780D02*
D03*
Y140780D02*
D03*
X512090Y473774D02*
D03*
Y481774D02*
D03*
X503460D02*
D03*
Y473774D02*
D03*
X527586Y439428D02*
D03*
Y447428D02*
D03*
X518442Y439428D02*
D03*
Y447428D02*
D03*
X654840Y427928D02*
D03*
Y435928D02*
D03*
X576862Y152464D02*
D03*
Y160464D02*
D03*
X595376D02*
D03*
Y152464D02*
D03*
X551970Y174180D02*
D03*
Y166180D02*
D03*
X586740Y152464D02*
D03*
Y160464D02*
D03*
X567972D02*
D03*
Y152464D02*
D03*
X604774Y160464D02*
D03*
Y152464D02*
D03*
X437162Y242634D02*
D03*
Y250634D02*
D03*
X428018Y242634D02*
D03*
Y250634D02*
D03*
X649160Y173473D02*
D03*
Y165473D02*
D03*
X355120Y545148D02*
D03*
Y553148D02*
D03*
X549389Y252918D02*
D03*
Y260918D02*
D03*
X558026Y252918D02*
D03*
Y260918D02*
D03*
X640270Y173473D02*
D03*
Y165473D02*
D03*
X682780Y184214D02*
D03*
Y192214D02*
D03*
X673890D02*
D03*
Y184214D02*
D03*
X348234Y612712D02*
D03*
Y620712D02*
D03*
X441452Y519748D02*
D03*
Y527748D02*
D03*
X654840Y443928D02*
D03*
Y435928D02*
D03*
X414020Y172910D02*
D03*
Y164910D02*
D03*
D86*
X706716Y214376D02*
D03*
X678716D02*
D03*
D87*
X519064Y123190D02*
D03*
X505064D02*
D03*
X604690Y270764D02*
D03*
X590690D02*
D03*
D88*
X495808Y525598D02*
D03*
Y534598D02*
D03*
X503936Y525598D02*
D03*
Y534598D02*
D03*
X614962Y230450D02*
D03*
Y239450D02*
D03*
X371630Y252150D02*
D03*
Y243150D02*
D03*
X380520D02*
D03*
Y252150D02*
D03*
X868708Y657788D02*
D03*
Y648788D02*
D03*
X348234Y604702D02*
D03*
Y595702D02*
D03*
D89*
X845140Y69518D02*
D03*
Y28018D02*
D03*
X823640Y69518D02*
D03*
Y28018D02*
D03*
D90*
X543475Y307434D02*
D03*
D91*
Y302434D02*
D03*
Y297434D02*
D03*
Y292434D02*
D03*
Y287434D02*
D03*
X580785D02*
D03*
Y292434D02*
D03*
Y297434D02*
D03*
Y302434D02*
D03*
Y307434D02*
D03*
D92*
X552130Y278779D02*
D03*
X557130D02*
D03*
X562130D02*
D03*
X567130D02*
D03*
X572130D02*
D03*
Y316089D02*
D03*
X567130D02*
D03*
X562130D02*
D03*
X557130D02*
D03*
X552130D02*
D03*
M02*
