G04*
G04 #@! TF.GenerationSoftware,Altium Limited,Altium Designer,24.5.2 (23)*
G04*
G04 Layer_Color=16711935*
%FSLAX44Y44*%
%MOMM*%
G71*
G04*
G04 #@! TF.SameCoordinates,06A8B94F-9278-456E-AD24-3EE51E5687D5*
G04*
G04*
G04 #@! TF.FilePolarity,Positive*
G04*
G01*
G75*
%ADD11C,0.1270*%
%ADD15C,0.1000*%
%ADD18C,0.1500*%
%ADD19C,0.2000*%
%ADD21C,0.0500*%
%ADD24R,4.8260X2.4130*%
%ADD25C,0.2540*%
%ADD252C,0.0254*%
%ADD253C,0.0508*%
%ADD280C,0.0000*%
%ADD281C,0.0500*%
G36*
X931375Y-543270D02*
X935910D01*
Y-543724D01*
X938632D01*
Y-544178D01*
X940899D01*
Y-544631D01*
X942713D01*
Y-545085D01*
X944528D01*
Y-545538D01*
X945888D01*
Y-545992D01*
X947249D01*
Y-546445D01*
X948610D01*
Y-546899D01*
X949517D01*
Y-547352D01*
X950878D01*
Y-547806D01*
X951785D01*
Y-548260D01*
X952692D01*
Y-548713D01*
X953599D01*
Y-549167D01*
X954506D01*
Y-549620D01*
X955413D01*
Y-550074D01*
X955867D01*
Y-550527D01*
X956774D01*
Y-550981D01*
X957681D01*
Y-551435D01*
X958135D01*
Y-551888D01*
X959042D01*
Y-552342D01*
X959495D01*
Y-552795D01*
X960402D01*
Y-553249D01*
X960856D01*
Y-553702D01*
X961309D01*
Y-554156D01*
X962216D01*
Y-554609D01*
X962670D01*
Y-555063D01*
X963123D01*
Y-555517D01*
X963577D01*
Y-555970D01*
X964484D01*
Y-556424D01*
X964938D01*
Y-556877D01*
X965391D01*
Y-557331D01*
X965845D01*
Y-557784D01*
X966298D01*
Y-558238D01*
X966752D01*
Y-558691D01*
X967206D01*
Y-559145D01*
X967659D01*
Y-559599D01*
X968113D01*
Y-560052D01*
X968566D01*
Y-560506D01*
X969020D01*
Y-560959D01*
X969473D01*
Y-561413D01*
Y-561866D01*
X969927D01*
Y-562320D01*
X970380D01*
Y-562773D01*
X970834D01*
Y-563227D01*
X971288D01*
Y-563680D01*
Y-564134D01*
X971741D01*
Y-564588D01*
X972195D01*
Y-565041D01*
X972648D01*
Y-565495D01*
Y-565948D01*
X973102D01*
Y-566402D01*
X973555D01*
Y-566855D01*
Y-567309D01*
X974009D01*
Y-567762D01*
X974463D01*
Y-568216D01*
Y-568670D01*
X974916D01*
Y-569123D01*
X975370D01*
Y-569577D01*
Y-570030D01*
X975823D01*
Y-570484D01*
Y-570937D01*
X976277D01*
Y-571391D01*
Y-571844D01*
X976730D01*
Y-572298D01*
Y-572752D01*
X977184D01*
Y-573205D01*
Y-573659D01*
X977637D01*
Y-574112D01*
Y-574566D01*
X978091D01*
Y-575019D01*
Y-575473D01*
X978544D01*
Y-575927D01*
Y-576380D01*
Y-576834D01*
X978998D01*
Y-577287D01*
Y-577741D01*
X979452D01*
Y-578194D01*
Y-578648D01*
Y-579101D01*
X979905D01*
Y-579555D01*
Y-580009D01*
Y-580462D01*
X980359D01*
Y-580916D01*
Y-581369D01*
Y-581823D01*
Y-582276D01*
X980812D01*
Y-582730D01*
Y-583183D01*
Y-583637D01*
Y-584090D01*
X981266D01*
Y-584544D01*
Y-584998D01*
Y-585451D01*
Y-585905D01*
X981719D01*
Y-586358D01*
Y-586812D01*
Y-587265D01*
Y-587719D01*
Y-588172D01*
Y-588626D01*
Y-589080D01*
X982173D01*
Y-589533D01*
Y-589987D01*
Y-590440D01*
Y-590894D01*
Y-591347D01*
Y-591801D01*
Y-592254D01*
Y-592708D01*
Y-593162D01*
Y-593615D01*
Y-594069D01*
X982626D01*
Y-594522D01*
Y-594976D01*
Y-595429D01*
Y-595883D01*
Y-596337D01*
Y-596790D01*
Y-597244D01*
Y-597697D01*
Y-598151D01*
Y-598604D01*
X982173D01*
Y-599058D01*
Y-599511D01*
Y-599965D01*
Y-600419D01*
Y-600872D01*
Y-601326D01*
Y-601779D01*
Y-602233D01*
Y-602686D01*
Y-603140D01*
Y-603593D01*
X981719D01*
Y-604047D01*
Y-604501D01*
Y-604954D01*
Y-605408D01*
Y-605861D01*
Y-606315D01*
X981266D01*
Y-606768D01*
Y-607222D01*
Y-607675D01*
Y-608129D01*
Y-608583D01*
X980812D01*
Y-609036D01*
Y-609490D01*
Y-609943D01*
Y-610397D01*
X980359D01*
Y-610850D01*
Y-611304D01*
Y-611758D01*
Y-612211D01*
X979905D01*
Y-612665D01*
Y-613118D01*
Y-613572D01*
X979452D01*
Y-614025D01*
Y-614479D01*
X978998D01*
Y-614932D01*
Y-615386D01*
Y-615839D01*
X978544D01*
Y-616293D01*
Y-616747D01*
X978091D01*
Y-617200D01*
Y-617654D01*
Y-618107D01*
X977637D01*
Y-618561D01*
Y-619014D01*
X977184D01*
Y-619468D01*
Y-619921D01*
X976730D01*
Y-620375D01*
Y-620829D01*
X976277D01*
Y-621282D01*
Y-621736D01*
X975823D01*
Y-621282D01*
Y-620829D01*
Y-620375D01*
Y-619921D01*
Y-619468D01*
Y-619014D01*
Y-618561D01*
Y-618107D01*
Y-617654D01*
Y-617200D01*
Y-616747D01*
Y-616293D01*
Y-615839D01*
Y-615386D01*
Y-614932D01*
Y-614479D01*
Y-614025D01*
Y-613572D01*
Y-613118D01*
Y-612665D01*
Y-612211D01*
Y-611758D01*
Y-611304D01*
Y-610850D01*
Y-610397D01*
Y-609943D01*
Y-609490D01*
Y-609036D01*
Y-608583D01*
Y-608129D01*
Y-607675D01*
Y-607222D01*
Y-606768D01*
Y-606315D01*
Y-605861D01*
Y-605408D01*
Y-604954D01*
Y-604501D01*
Y-604047D01*
Y-603593D01*
Y-603140D01*
Y-602686D01*
Y-602233D01*
Y-601779D01*
Y-601326D01*
Y-600872D01*
Y-600419D01*
Y-599965D01*
Y-599511D01*
Y-599058D01*
Y-598604D01*
Y-598151D01*
Y-597697D01*
Y-597244D01*
Y-596790D01*
Y-596337D01*
Y-595883D01*
Y-595429D01*
Y-594976D01*
Y-594522D01*
Y-594069D01*
Y-593615D01*
Y-593162D01*
Y-592708D01*
Y-592254D01*
Y-591801D01*
Y-591347D01*
Y-590894D01*
Y-590440D01*
Y-589987D01*
Y-589533D01*
Y-589080D01*
Y-588626D01*
Y-588172D01*
Y-587719D01*
Y-587265D01*
X963123D01*
Y-587719D01*
Y-588172D01*
Y-588626D01*
Y-589080D01*
Y-589533D01*
Y-589987D01*
Y-590440D01*
Y-590894D01*
Y-591347D01*
Y-591801D01*
Y-592254D01*
Y-592708D01*
Y-593162D01*
Y-593615D01*
Y-594069D01*
Y-594522D01*
Y-594976D01*
Y-595429D01*
Y-595883D01*
Y-596337D01*
Y-596790D01*
Y-597244D01*
Y-597697D01*
Y-598151D01*
Y-598604D01*
Y-599058D01*
Y-599511D01*
Y-599965D01*
Y-600419D01*
Y-600872D01*
Y-601326D01*
Y-601779D01*
Y-602233D01*
Y-602686D01*
Y-603140D01*
Y-603593D01*
Y-604047D01*
Y-604501D01*
Y-604954D01*
Y-605408D01*
Y-605861D01*
Y-606315D01*
Y-606768D01*
Y-607222D01*
Y-607675D01*
Y-608129D01*
Y-608583D01*
Y-609036D01*
Y-609490D01*
Y-609943D01*
Y-610397D01*
Y-610850D01*
Y-611304D01*
Y-611758D01*
Y-612211D01*
Y-612665D01*
Y-613118D01*
Y-613572D01*
Y-614025D01*
Y-614479D01*
Y-614932D01*
X962670D01*
Y-615386D01*
Y-615839D01*
Y-616293D01*
Y-616747D01*
X962216D01*
Y-617200D01*
Y-617654D01*
X961763D01*
Y-618107D01*
Y-618561D01*
X961309D01*
Y-619014D01*
X960856D01*
Y-619468D01*
X960402D01*
Y-619921D01*
X959949D01*
Y-620375D01*
X959495D01*
Y-620829D01*
X958588D01*
Y-621282D01*
X957227D01*
Y-621736D01*
X950878D01*
Y-621282D01*
X949517D01*
Y-620829D01*
X948610D01*
Y-620375D01*
X948156D01*
Y-619921D01*
X947703D01*
Y-619468D01*
X947249D01*
Y-619014D01*
Y-618561D01*
X946796D01*
Y-618107D01*
Y-617654D01*
X946342D01*
Y-617200D01*
Y-616747D01*
Y-616293D01*
Y-615839D01*
X945888D01*
Y-615386D01*
Y-614932D01*
Y-614479D01*
Y-614025D01*
Y-613572D01*
Y-613118D01*
Y-612665D01*
Y-612211D01*
Y-611758D01*
Y-611304D01*
Y-610850D01*
Y-610397D01*
Y-609943D01*
Y-609490D01*
Y-609036D01*
Y-608583D01*
Y-608129D01*
Y-607675D01*
Y-607222D01*
Y-606768D01*
Y-606315D01*
Y-605861D01*
Y-605408D01*
Y-604954D01*
Y-604501D01*
Y-604047D01*
Y-603593D01*
Y-603140D01*
Y-602686D01*
Y-602233D01*
Y-601779D01*
Y-601326D01*
Y-600872D01*
Y-600419D01*
Y-599965D01*
Y-599511D01*
Y-599058D01*
Y-598604D01*
Y-598151D01*
Y-597697D01*
Y-597244D01*
Y-596790D01*
Y-596337D01*
Y-595883D01*
Y-595429D01*
Y-594976D01*
Y-594522D01*
Y-594069D01*
Y-593615D01*
Y-593162D01*
Y-592708D01*
Y-592254D01*
Y-591801D01*
Y-591347D01*
Y-590894D01*
Y-590440D01*
Y-589987D01*
Y-589533D01*
Y-589080D01*
Y-588626D01*
Y-588172D01*
Y-587719D01*
Y-587265D01*
X933189D01*
Y-587719D01*
Y-588172D01*
Y-588626D01*
Y-589080D01*
Y-589533D01*
Y-589987D01*
Y-590440D01*
Y-590894D01*
Y-591347D01*
Y-591801D01*
Y-592254D01*
Y-592708D01*
Y-593162D01*
Y-593615D01*
Y-594069D01*
Y-594522D01*
Y-594976D01*
Y-595429D01*
Y-595883D01*
Y-596337D01*
Y-596790D01*
Y-597244D01*
Y-597697D01*
Y-598151D01*
Y-598604D01*
Y-599058D01*
Y-599511D01*
Y-599965D01*
Y-600419D01*
Y-600872D01*
Y-601326D01*
Y-601779D01*
Y-602233D01*
Y-602686D01*
Y-603140D01*
Y-603593D01*
Y-604047D01*
Y-604501D01*
Y-604954D01*
Y-605408D01*
Y-605861D01*
Y-606315D01*
Y-606768D01*
Y-607222D01*
Y-607675D01*
Y-608129D01*
Y-608583D01*
Y-609036D01*
Y-609490D01*
Y-609943D01*
Y-610397D01*
Y-610850D01*
Y-611304D01*
Y-611758D01*
Y-612211D01*
Y-612665D01*
Y-613118D01*
Y-613572D01*
Y-614025D01*
Y-614479D01*
Y-614932D01*
Y-615386D01*
Y-615839D01*
Y-616293D01*
Y-616747D01*
Y-617200D01*
Y-617654D01*
Y-618107D01*
Y-618561D01*
Y-619014D01*
Y-619468D01*
Y-619921D01*
Y-620375D01*
X933642D01*
Y-620829D01*
Y-621282D01*
Y-621736D01*
Y-622189D01*
X934096D01*
Y-622643D01*
Y-623096D01*
Y-623550D01*
X934549D01*
Y-624003D01*
Y-624457D01*
Y-624911D01*
X935003D01*
Y-625364D01*
Y-625818D01*
X935457D01*
Y-626271D01*
X935910D01*
Y-626725D01*
Y-627178D01*
X936364D01*
Y-627632D01*
X936817D01*
Y-628086D01*
X937271D01*
Y-628539D01*
X937724D01*
Y-628993D01*
X938178D01*
Y-629446D01*
X938632D01*
Y-629900D01*
X939539D01*
Y-630353D01*
X939992D01*
Y-630807D01*
X940899D01*
Y-631260D01*
X941806D01*
Y-631714D01*
X942713D01*
Y-632168D01*
X944074D01*
Y-632621D01*
X945888D01*
Y-633075D01*
X954960D01*
Y-632621D01*
X956774D01*
Y-632168D01*
X957681D01*
Y-631714D01*
X959042D01*
Y-631260D01*
X959495D01*
Y-630807D01*
X960402D01*
Y-630353D01*
X960856D01*
Y-629900D01*
X961309D01*
Y-629446D01*
X962216D01*
Y-628993D01*
X962670D01*
Y-628539D01*
X963123D01*
Y-628086D01*
Y-627632D01*
X963577D01*
Y-628086D01*
Y-628539D01*
Y-628993D01*
Y-629446D01*
Y-629900D01*
Y-630353D01*
Y-630807D01*
Y-631260D01*
Y-631714D01*
Y-632168D01*
X968566D01*
Y-632621D01*
X968113D01*
Y-633075D01*
X967659D01*
Y-633528D01*
X967206D01*
Y-633982D01*
X966752D01*
Y-634435D01*
X966298D01*
Y-634889D01*
X965845D01*
Y-635342D01*
X965391D01*
Y-635796D01*
X964938D01*
Y-636250D01*
X964031D01*
Y-636703D01*
X963577D01*
Y-637157D01*
X963123D01*
Y-637610D01*
X962670D01*
Y-638064D01*
X961763D01*
Y-638517D01*
X961309D01*
Y-638971D01*
X960856D01*
Y-639424D01*
X959949D01*
Y-639878D01*
X959495D01*
Y-640331D01*
X958588D01*
Y-640785D01*
X958135D01*
Y-641239D01*
X957227D01*
Y-641692D01*
X956774D01*
Y-642146D01*
X955867D01*
Y-642599D01*
X954960D01*
Y-643053D01*
X954052D01*
Y-643506D01*
X953599D01*
Y-643960D01*
X952692D01*
Y-644414D01*
X951331D01*
Y-644867D01*
X950424D01*
Y-645321D01*
X949517D01*
Y-645774D01*
X948156D01*
Y-646228D01*
X947249D01*
Y-646681D01*
X945888D01*
Y-647135D01*
X944074D01*
Y-647588D01*
X942713D01*
Y-648042D01*
X940899D01*
Y-648495D01*
X938178D01*
Y-648949D01*
X935003D01*
Y-649403D01*
X923211D01*
Y-648949D01*
X920036D01*
Y-648495D01*
X917768D01*
Y-648042D01*
X915954D01*
Y-647588D01*
X914139D01*
Y-647135D01*
X912779D01*
Y-646681D01*
X911418D01*
Y-646228D01*
X910058D01*
Y-645774D01*
X909150D01*
Y-645321D01*
X907790D01*
Y-644867D01*
X906883D01*
Y-644414D01*
X905975D01*
Y-643960D01*
X905068D01*
Y-643506D01*
X904161D01*
Y-643053D01*
X903254D01*
Y-642599D01*
X902347D01*
Y-642146D01*
X901893D01*
Y-641692D01*
X900986D01*
Y-641239D01*
X900079D01*
Y-640785D01*
X899626D01*
Y-640331D01*
X898719D01*
Y-639878D01*
X898265D01*
Y-639424D01*
X897812D01*
Y-638971D01*
X896904D01*
Y-638517D01*
X896451D01*
Y-638064D01*
X895997D01*
Y-637610D01*
X895090D01*
Y-637157D01*
X894637D01*
Y-636703D01*
X894183D01*
Y-636250D01*
X893729D01*
Y-635796D01*
X893276D01*
Y-635342D01*
X892822D01*
Y-634889D01*
X892369D01*
Y-634435D01*
X891915D01*
Y-633982D01*
X891462D01*
Y-633528D01*
X891008D01*
Y-633075D01*
X890555D01*
Y-632621D01*
X890101D01*
Y-632168D01*
X889648D01*
Y-631714D01*
X889194D01*
Y-631260D01*
X888740D01*
Y-630807D01*
X888287D01*
Y-630353D01*
X887833D01*
Y-629900D01*
Y-629446D01*
X887380D01*
Y-628993D01*
X886926D01*
Y-628539D01*
X886473D01*
Y-628086D01*
X886019D01*
Y-627632D01*
Y-627178D01*
X885565D01*
Y-626725D01*
X885112D01*
Y-626271D01*
Y-625818D01*
X884658D01*
Y-625364D01*
X884205D01*
Y-624911D01*
Y-624457D01*
X883751D01*
Y-624003D01*
X883298D01*
Y-623550D01*
Y-623096D01*
X882844D01*
Y-622643D01*
Y-622189D01*
X882391D01*
Y-621736D01*
Y-621282D01*
X881937D01*
Y-620829D01*
Y-620375D01*
X881484D01*
Y-619921D01*
Y-619468D01*
X881030D01*
Y-619014D01*
Y-618561D01*
X880576D01*
Y-618107D01*
Y-617654D01*
X880123D01*
Y-617200D01*
Y-616747D01*
X879669D01*
Y-616293D01*
Y-615839D01*
Y-615386D01*
X879216D01*
Y-614932D01*
Y-614479D01*
Y-614025D01*
X878762D01*
Y-613572D01*
Y-613118D01*
X878309D01*
Y-612665D01*
Y-612211D01*
Y-611758D01*
Y-611304D01*
X877855D01*
Y-610850D01*
Y-610397D01*
Y-609943D01*
X877402D01*
Y-609490D01*
Y-609036D01*
Y-608583D01*
Y-608129D01*
X876948D01*
Y-607675D01*
Y-607222D01*
Y-606768D01*
Y-606315D01*
Y-605861D01*
X876494D01*
Y-605408D01*
Y-604954D01*
Y-604501D01*
Y-604047D01*
Y-603593D01*
Y-603140D01*
Y-602686D01*
X876041D01*
Y-602233D01*
Y-601779D01*
Y-601326D01*
Y-600872D01*
Y-600419D01*
Y-599965D01*
Y-599511D01*
Y-599058D01*
Y-598604D01*
Y-598151D01*
X875587D01*
Y-597697D01*
Y-597244D01*
Y-596790D01*
Y-596337D01*
Y-595883D01*
Y-595429D01*
Y-594976D01*
Y-594522D01*
Y-594069D01*
X876041D01*
Y-593615D01*
Y-593162D01*
Y-592708D01*
Y-592254D01*
Y-591801D01*
Y-591347D01*
Y-590894D01*
Y-590440D01*
Y-589987D01*
X876494D01*
Y-589533D01*
Y-589080D01*
Y-588626D01*
Y-588172D01*
Y-587719D01*
Y-587265D01*
Y-586812D01*
X876948D01*
Y-586358D01*
Y-585905D01*
Y-585451D01*
Y-584998D01*
Y-584544D01*
X877402D01*
Y-584090D01*
Y-583637D01*
Y-583183D01*
Y-582730D01*
X877855D01*
Y-582276D01*
Y-581823D01*
Y-581369D01*
Y-580916D01*
X878309D01*
Y-580462D01*
Y-580009D01*
Y-579555D01*
X878762D01*
Y-579101D01*
Y-578648D01*
Y-578194D01*
X879216D01*
Y-577741D01*
Y-577287D01*
X879669D01*
Y-576834D01*
Y-576380D01*
Y-575927D01*
X880123D01*
Y-575473D01*
Y-575019D01*
X880576D01*
Y-574566D01*
Y-574112D01*
Y-573659D01*
X881030D01*
Y-573205D01*
Y-572752D01*
X881484D01*
Y-572298D01*
Y-571844D01*
X881937D01*
Y-571391D01*
Y-570937D01*
X882391D01*
Y-570484D01*
X882844D01*
Y-570030D01*
Y-569577D01*
X883298D01*
Y-569123D01*
Y-568670D01*
X883751D01*
Y-568216D01*
X884205D01*
Y-567762D01*
Y-567309D01*
X884658D01*
Y-566855D01*
X885112D01*
Y-566402D01*
Y-565948D01*
X885565D01*
Y-565495D01*
X886019D01*
Y-565041D01*
Y-564588D01*
X886473D01*
Y-564134D01*
X886926D01*
Y-563680D01*
X887380D01*
Y-563227D01*
Y-562773D01*
X887833D01*
Y-562320D01*
X888287D01*
Y-561866D01*
X888740D01*
Y-561413D01*
X889194D01*
Y-560959D01*
X889648D01*
Y-560506D01*
X890101D01*
Y-560052D01*
X890555D01*
Y-559599D01*
Y-559145D01*
X891008D01*
Y-558691D01*
X891462D01*
Y-558238D01*
X891915D01*
Y-557784D01*
X892822D01*
Y-557331D01*
X893276D01*
Y-556877D01*
X893729D01*
Y-556424D01*
X894183D01*
Y-555970D01*
X894637D01*
Y-555517D01*
X895090D01*
Y-555063D01*
X895544D01*
Y-554609D01*
X896451D01*
Y-554156D01*
X896904D01*
Y-553702D01*
X897358D01*
Y-553249D01*
X898265D01*
Y-552795D01*
X898719D01*
Y-552342D01*
X899626D01*
Y-551888D01*
X900079D01*
Y-551435D01*
X900986D01*
Y-550981D01*
X901440D01*
Y-550527D01*
X902347D01*
Y-550074D01*
X903254D01*
Y-549620D01*
X903708D01*
Y-549167D01*
X905068D01*
Y-548713D01*
X905975D01*
Y-548260D01*
X906883D01*
Y-547806D01*
X907790D01*
Y-547352D01*
X908697D01*
Y-546899D01*
X910058D01*
Y-546445D01*
X910965D01*
Y-545992D01*
X912325D01*
Y-545538D01*
X913686D01*
Y-545085D01*
X915500D01*
Y-544631D01*
X917314D01*
Y-544178D01*
X919582D01*
Y-543724D01*
X922757D01*
Y-543270D01*
X927293D01*
Y-542817D01*
X931375D01*
Y-543270D01*
D02*
G37*
G36*
X1001676Y-570484D02*
Y-570937D01*
Y-571391D01*
Y-571844D01*
Y-572298D01*
Y-572752D01*
Y-573205D01*
Y-573659D01*
Y-574112D01*
Y-574566D01*
Y-575019D01*
Y-575473D01*
Y-575927D01*
Y-576380D01*
Y-576834D01*
Y-577287D01*
Y-577741D01*
Y-578194D01*
Y-578648D01*
Y-579101D01*
Y-579555D01*
Y-580009D01*
Y-580462D01*
Y-580916D01*
Y-581369D01*
Y-581823D01*
Y-582276D01*
Y-582730D01*
Y-583183D01*
Y-583637D01*
Y-584090D01*
Y-584544D01*
Y-584998D01*
Y-585451D01*
Y-585905D01*
Y-586358D01*
Y-586812D01*
Y-587265D01*
Y-587719D01*
Y-588172D01*
Y-588626D01*
Y-589080D01*
Y-589533D01*
Y-589987D01*
Y-590440D01*
Y-590894D01*
Y-591347D01*
Y-591801D01*
Y-592254D01*
Y-592708D01*
X1002583D01*
Y-592254D01*
X1003036D01*
Y-591801D01*
X1003490D01*
Y-591347D01*
X1003944D01*
Y-590894D01*
X1004397D01*
Y-590440D01*
X1004851D01*
Y-589987D01*
X1005304D01*
Y-589533D01*
X1006211D01*
Y-589080D01*
X1006665D01*
Y-588626D01*
X1007572D01*
Y-588172D01*
X1008479D01*
Y-587719D01*
X1009840D01*
Y-587265D01*
X1011654D01*
Y-586812D01*
X1020272D01*
Y-587265D01*
X1022086D01*
Y-587719D01*
X1023447D01*
Y-588172D01*
X1024807D01*
Y-588626D01*
X1025714D01*
Y-589080D01*
X1026168D01*
Y-589533D01*
X1027075D01*
Y-589987D01*
X1027529D01*
Y-590440D01*
X1028436D01*
Y-590894D01*
X1028889D01*
Y-591347D01*
X1029343D01*
Y-591801D01*
X1029796D01*
Y-592254D01*
X1030250D01*
Y-592708D01*
X1030703D01*
Y-593162D01*
Y-593615D01*
X1031157D01*
Y-594069D01*
X1031610D01*
Y-594522D01*
X1032064D01*
Y-594976D01*
Y-595429D01*
X1032518D01*
Y-595883D01*
Y-596337D01*
X1032971D01*
Y-596790D01*
Y-597244D01*
X1033425D01*
Y-597697D01*
Y-598151D01*
X1033878D01*
Y-598604D01*
Y-599058D01*
Y-599511D01*
X1034332D01*
Y-599965D01*
Y-600419D01*
Y-600872D01*
Y-601326D01*
X1034785D01*
Y-601779D01*
Y-602233D01*
Y-602686D01*
Y-603140D01*
Y-603593D01*
X1035239D01*
Y-604047D01*
Y-604501D01*
Y-604954D01*
Y-605408D01*
Y-605861D01*
Y-606315D01*
Y-606768D01*
Y-607222D01*
Y-607675D01*
X1035693D01*
Y-608129D01*
X1035239D01*
Y-608583D01*
Y-609036D01*
Y-609490D01*
Y-609943D01*
Y-610397D01*
Y-610850D01*
Y-611304D01*
Y-611758D01*
Y-612211D01*
Y-612665D01*
Y-613118D01*
Y-613572D01*
Y-614025D01*
Y-614479D01*
Y-614932D01*
Y-615386D01*
Y-615839D01*
X1034785D01*
Y-616293D01*
Y-616747D01*
Y-617200D01*
Y-617654D01*
Y-618107D01*
X1034332D01*
Y-618561D01*
Y-619014D01*
Y-619468D01*
X1033878D01*
Y-619921D01*
Y-620375D01*
Y-620829D01*
X1033425D01*
Y-621282D01*
Y-621736D01*
Y-622189D01*
X1032971D01*
Y-622643D01*
Y-623096D01*
X1032518D01*
Y-623550D01*
Y-624003D01*
X1032064D01*
Y-624457D01*
X1031610D01*
Y-624911D01*
Y-625364D01*
X1031157D01*
Y-625818D01*
X1030703D01*
Y-626271D01*
X1030250D01*
Y-626725D01*
X1029796D01*
Y-627178D01*
Y-627632D01*
X1028889D01*
Y-628086D01*
X1028436D01*
Y-628539D01*
X1027982D01*
Y-628993D01*
X1027529D01*
Y-629446D01*
X1026621D01*
Y-629900D01*
X1026168D01*
Y-630353D01*
X1025261D01*
Y-630807D01*
X1024354D01*
Y-631260D01*
X1023447D01*
Y-631714D01*
X1022086D01*
Y-632168D01*
X1019818D01*
Y-632621D01*
X1012108D01*
Y-632168D01*
X1009840D01*
Y-631714D01*
X1008933D01*
Y-631260D01*
X1007572D01*
Y-630807D01*
X1007119D01*
Y-630353D01*
X1006211D01*
Y-629900D01*
X1005758D01*
Y-629446D01*
X1004851D01*
Y-628993D01*
X1004397D01*
Y-628539D01*
X1003944D01*
Y-628086D01*
X1003490D01*
Y-627632D01*
X1003036D01*
Y-627178D01*
X1002583D01*
Y-626725D01*
X1002129D01*
Y-626271D01*
Y-625818D01*
X1001222D01*
Y-626271D01*
Y-626725D01*
Y-627178D01*
Y-627632D01*
Y-628086D01*
Y-628539D01*
Y-628993D01*
Y-629446D01*
Y-629900D01*
Y-630353D01*
Y-630807D01*
Y-631260D01*
Y-631714D01*
X989883D01*
Y-631260D01*
Y-630807D01*
Y-630353D01*
Y-629900D01*
Y-629446D01*
Y-628993D01*
Y-628539D01*
Y-628086D01*
Y-627632D01*
Y-627178D01*
Y-626725D01*
Y-626271D01*
Y-625818D01*
Y-625364D01*
Y-624911D01*
Y-624457D01*
Y-624003D01*
Y-623550D01*
Y-623096D01*
Y-622643D01*
Y-622189D01*
Y-621736D01*
Y-621282D01*
Y-620829D01*
Y-620375D01*
Y-619921D01*
Y-619468D01*
Y-619014D01*
Y-618561D01*
Y-618107D01*
Y-617654D01*
Y-617200D01*
Y-616747D01*
Y-616293D01*
Y-615839D01*
Y-615386D01*
Y-614932D01*
Y-614479D01*
Y-614025D01*
Y-613572D01*
Y-613118D01*
Y-612665D01*
Y-612211D01*
Y-611758D01*
Y-611304D01*
Y-610850D01*
Y-610397D01*
Y-609943D01*
Y-609490D01*
Y-609036D01*
Y-608583D01*
Y-608129D01*
Y-607675D01*
Y-607222D01*
Y-606768D01*
Y-606315D01*
Y-605861D01*
Y-605408D01*
Y-604954D01*
Y-604501D01*
Y-604047D01*
Y-603593D01*
Y-603140D01*
Y-602686D01*
Y-602233D01*
Y-601779D01*
Y-601326D01*
Y-600872D01*
Y-600419D01*
Y-599965D01*
Y-599511D01*
Y-599058D01*
Y-598604D01*
Y-598151D01*
Y-597697D01*
Y-597244D01*
Y-596790D01*
Y-596337D01*
Y-595883D01*
Y-595429D01*
Y-594976D01*
Y-594522D01*
Y-594069D01*
Y-593615D01*
Y-593162D01*
Y-592708D01*
Y-592254D01*
Y-591801D01*
Y-591347D01*
Y-590894D01*
Y-590440D01*
Y-589987D01*
Y-589533D01*
Y-589080D01*
Y-588626D01*
Y-588172D01*
Y-587719D01*
Y-587265D01*
Y-586812D01*
Y-586358D01*
Y-585905D01*
Y-585451D01*
Y-584998D01*
Y-584544D01*
Y-584090D01*
Y-583637D01*
Y-583183D01*
Y-582730D01*
Y-582276D01*
Y-581823D01*
Y-581369D01*
Y-580916D01*
Y-580462D01*
Y-580009D01*
Y-579555D01*
Y-579101D01*
Y-578648D01*
Y-578194D01*
Y-577741D01*
Y-577287D01*
Y-576834D01*
Y-576380D01*
Y-575927D01*
Y-575473D01*
Y-575019D01*
Y-574566D01*
Y-574112D01*
Y-573659D01*
Y-573205D01*
Y-572752D01*
Y-572298D01*
Y-571844D01*
Y-571391D01*
Y-570937D01*
Y-570484D01*
Y-570030D01*
X1001676D01*
Y-570484D01*
D02*
G37*
G36*
X1055195D02*
Y-570937D01*
Y-571391D01*
Y-571844D01*
Y-572298D01*
Y-572752D01*
Y-573205D01*
Y-573659D01*
Y-574112D01*
Y-574566D01*
Y-575019D01*
Y-575473D01*
Y-575927D01*
Y-576380D01*
Y-576834D01*
Y-577287D01*
Y-577741D01*
Y-578194D01*
Y-578648D01*
Y-579101D01*
Y-579555D01*
Y-580009D01*
Y-580462D01*
Y-580916D01*
Y-581369D01*
Y-581823D01*
Y-582276D01*
Y-582730D01*
Y-583183D01*
Y-583637D01*
Y-584090D01*
Y-584544D01*
Y-584998D01*
Y-585451D01*
Y-585905D01*
Y-586358D01*
Y-586812D01*
Y-587265D01*
Y-587719D01*
Y-588172D01*
Y-588626D01*
Y-589080D01*
Y-589533D01*
Y-589987D01*
Y-590440D01*
Y-590894D01*
Y-591347D01*
Y-591801D01*
Y-592254D01*
Y-592708D01*
Y-593162D01*
Y-593615D01*
Y-594069D01*
Y-594522D01*
Y-594976D01*
Y-595429D01*
Y-595883D01*
Y-596337D01*
Y-596790D01*
Y-597244D01*
Y-597697D01*
Y-598151D01*
Y-598604D01*
Y-599058D01*
Y-599511D01*
Y-599965D01*
Y-600419D01*
Y-600872D01*
Y-601326D01*
Y-601779D01*
Y-602233D01*
Y-602686D01*
Y-603140D01*
Y-603593D01*
Y-604047D01*
Y-604501D01*
Y-604954D01*
Y-605408D01*
Y-605861D01*
Y-606315D01*
Y-606768D01*
Y-607222D01*
Y-607675D01*
Y-608129D01*
Y-608583D01*
Y-609036D01*
Y-609490D01*
Y-609943D01*
Y-610397D01*
Y-610850D01*
Y-611304D01*
Y-611758D01*
Y-612211D01*
Y-612665D01*
Y-613118D01*
Y-613572D01*
Y-614025D01*
Y-614479D01*
Y-614932D01*
Y-615386D01*
Y-615839D01*
Y-616293D01*
Y-616747D01*
Y-617200D01*
Y-617654D01*
Y-618107D01*
Y-618561D01*
Y-619014D01*
Y-619468D01*
Y-619921D01*
Y-620375D01*
Y-620829D01*
Y-621282D01*
Y-621736D01*
Y-622189D01*
Y-622643D01*
Y-623096D01*
Y-623550D01*
Y-624003D01*
Y-624457D01*
Y-624911D01*
Y-625364D01*
Y-625818D01*
Y-626271D01*
Y-626725D01*
Y-627178D01*
Y-627632D01*
Y-628086D01*
Y-628539D01*
Y-628993D01*
Y-629446D01*
Y-629900D01*
Y-630353D01*
Y-630807D01*
Y-631260D01*
Y-631714D01*
X1043857D01*
Y-631260D01*
Y-630807D01*
Y-630353D01*
Y-629900D01*
Y-629446D01*
Y-628993D01*
Y-628539D01*
Y-628086D01*
Y-627632D01*
Y-627178D01*
Y-626725D01*
Y-626271D01*
Y-625818D01*
Y-625364D01*
Y-624911D01*
Y-624457D01*
Y-624003D01*
Y-623550D01*
Y-623096D01*
Y-622643D01*
Y-622189D01*
Y-621736D01*
Y-621282D01*
Y-620829D01*
Y-620375D01*
Y-619921D01*
Y-619468D01*
Y-619014D01*
Y-618561D01*
Y-618107D01*
Y-617654D01*
Y-617200D01*
Y-616747D01*
Y-616293D01*
Y-615839D01*
Y-615386D01*
Y-614932D01*
Y-614479D01*
Y-614025D01*
Y-613572D01*
Y-613118D01*
Y-612665D01*
Y-612211D01*
Y-611758D01*
Y-611304D01*
Y-610850D01*
Y-610397D01*
Y-609943D01*
Y-609490D01*
Y-609036D01*
Y-608583D01*
Y-608129D01*
Y-607675D01*
Y-607222D01*
Y-606768D01*
Y-606315D01*
Y-605861D01*
Y-605408D01*
Y-604954D01*
Y-604501D01*
Y-604047D01*
Y-603593D01*
Y-603140D01*
Y-602686D01*
Y-602233D01*
Y-601779D01*
Y-601326D01*
Y-600872D01*
Y-600419D01*
Y-599965D01*
Y-599511D01*
Y-599058D01*
Y-598604D01*
Y-598151D01*
Y-597697D01*
Y-597244D01*
Y-596790D01*
Y-596337D01*
Y-595883D01*
Y-595429D01*
Y-594976D01*
Y-594522D01*
Y-594069D01*
Y-593615D01*
Y-593162D01*
Y-592708D01*
Y-592254D01*
Y-591801D01*
Y-591347D01*
Y-590894D01*
Y-590440D01*
Y-589987D01*
Y-589533D01*
Y-589080D01*
Y-588626D01*
Y-588172D01*
Y-587719D01*
Y-587265D01*
Y-586812D01*
Y-586358D01*
Y-585905D01*
Y-585451D01*
Y-584998D01*
Y-584544D01*
Y-584090D01*
Y-583637D01*
Y-583183D01*
Y-582730D01*
Y-582276D01*
Y-581823D01*
Y-581369D01*
Y-580916D01*
Y-580462D01*
Y-580009D01*
Y-579555D01*
Y-579101D01*
Y-578648D01*
Y-578194D01*
Y-577741D01*
Y-577287D01*
Y-576834D01*
Y-576380D01*
Y-575927D01*
Y-575473D01*
Y-575019D01*
Y-574566D01*
Y-574112D01*
Y-573659D01*
Y-573205D01*
Y-572752D01*
Y-572298D01*
Y-571844D01*
Y-571391D01*
Y-570937D01*
Y-570484D01*
Y-570030D01*
X1055195D01*
Y-570484D01*
D02*
G37*
G36*
X1091480Y-587265D02*
X1093748D01*
Y-587719D01*
X1095108D01*
Y-588172D01*
X1096469D01*
Y-588626D01*
X1097376D01*
Y-589080D01*
X1098283D01*
Y-589533D01*
X1099190D01*
Y-589987D01*
X1100098D01*
Y-590440D01*
X1100551D01*
Y-590894D01*
X1101458D01*
Y-591347D01*
X1101912D01*
Y-591801D01*
X1102365D01*
Y-592254D01*
X1102819D01*
Y-592708D01*
X1103272D01*
Y-593162D01*
X1103726D01*
Y-593615D01*
X1104180D01*
Y-594069D01*
X1104633D01*
Y-594522D01*
X1105087D01*
Y-594976D01*
Y-595429D01*
X1105540D01*
Y-595883D01*
X1105994D01*
Y-596337D01*
Y-596790D01*
X1106447D01*
Y-597244D01*
Y-597697D01*
X1106901D01*
Y-598151D01*
Y-598604D01*
X1107354D01*
Y-599058D01*
Y-599511D01*
X1107808D01*
Y-599965D01*
Y-600419D01*
Y-600872D01*
X1108261D01*
Y-601326D01*
Y-601779D01*
Y-602233D01*
Y-602686D01*
Y-603140D01*
X1108715D01*
Y-603593D01*
Y-604047D01*
Y-604501D01*
Y-604954D01*
Y-605408D01*
Y-605861D01*
Y-606315D01*
X1109169D01*
Y-606768D01*
Y-607222D01*
Y-607675D01*
Y-608129D01*
Y-608583D01*
Y-609036D01*
Y-609490D01*
Y-609943D01*
Y-610397D01*
Y-610850D01*
Y-611304D01*
Y-611758D01*
Y-612211D01*
Y-612665D01*
Y-613118D01*
X1108715D01*
Y-613572D01*
Y-614025D01*
Y-614479D01*
Y-614932D01*
Y-615386D01*
Y-615839D01*
Y-616293D01*
X1108261D01*
Y-616747D01*
Y-617200D01*
Y-617654D01*
Y-618107D01*
X1107808D01*
Y-618561D01*
Y-619014D01*
Y-619468D01*
X1107354D01*
Y-619921D01*
Y-620375D01*
Y-620829D01*
X1106901D01*
Y-621282D01*
Y-621736D01*
X1106447D01*
Y-622189D01*
Y-622643D01*
X1105994D01*
Y-623096D01*
Y-623550D01*
X1105540D01*
Y-624003D01*
X1105087D01*
Y-624457D01*
X1104633D01*
Y-624911D01*
Y-625364D01*
X1104180D01*
Y-625818D01*
X1103726D01*
Y-626271D01*
X1103272D01*
Y-626725D01*
X1102819D01*
Y-627178D01*
X1102365D01*
Y-627632D01*
X1101912D01*
Y-628086D01*
X1101005D01*
Y-628539D01*
X1100551D01*
Y-628993D01*
X1099644D01*
Y-629446D01*
X1099190D01*
Y-629900D01*
X1098283D01*
Y-630353D01*
X1097376D01*
Y-630807D01*
X1096015D01*
Y-631260D01*
X1094655D01*
Y-631714D01*
X1093294D01*
Y-632168D01*
X1091026D01*
Y-632621D01*
X1081502D01*
Y-632168D01*
X1078780D01*
Y-631714D01*
X1076966D01*
Y-631260D01*
X1076059D01*
Y-630807D01*
X1074698D01*
Y-630353D01*
X1073791D01*
Y-629900D01*
X1072884D01*
Y-629446D01*
X1072430D01*
Y-628993D01*
X1071523D01*
Y-628539D01*
X1071070D01*
Y-628086D01*
X1070163D01*
Y-627632D01*
X1069709D01*
Y-627178D01*
X1069256D01*
Y-626725D01*
X1068802D01*
Y-626271D01*
X1068348D01*
Y-625818D01*
X1067895D01*
Y-625364D01*
X1067441D01*
Y-624911D01*
Y-624457D01*
X1066988D01*
Y-624003D01*
X1066534D01*
Y-623550D01*
X1066081D01*
Y-623096D01*
Y-622643D01*
X1065627D01*
Y-622189D01*
Y-621736D01*
X1065174D01*
Y-621282D01*
Y-620829D01*
X1064720D01*
Y-620375D01*
Y-619921D01*
Y-619468D01*
X1064267D01*
Y-619014D01*
Y-618561D01*
Y-618107D01*
X1063813D01*
Y-617654D01*
Y-617200D01*
Y-616747D01*
Y-616293D01*
X1063359D01*
Y-615839D01*
Y-615386D01*
Y-614932D01*
Y-614479D01*
Y-614025D01*
Y-613572D01*
Y-613118D01*
Y-612665D01*
X1062906D01*
Y-612211D01*
Y-611758D01*
Y-611304D01*
Y-610850D01*
Y-610397D01*
Y-609943D01*
Y-609490D01*
Y-609036D01*
Y-608583D01*
Y-608129D01*
Y-607675D01*
Y-607222D01*
Y-606768D01*
X1063359D01*
Y-606315D01*
Y-605861D01*
Y-605408D01*
Y-604954D01*
Y-604501D01*
Y-604047D01*
Y-603593D01*
Y-603140D01*
X1063813D01*
Y-602686D01*
Y-602233D01*
Y-601779D01*
Y-601326D01*
X1064267D01*
Y-600872D01*
Y-600419D01*
Y-599965D01*
X1064720D01*
Y-599511D01*
Y-599058D01*
Y-598604D01*
X1065174D01*
Y-598151D01*
Y-597697D01*
X1065627D01*
Y-597244D01*
Y-596790D01*
X1066081D01*
Y-596337D01*
Y-595883D01*
X1066534D01*
Y-595429D01*
X1066988D01*
Y-594976D01*
Y-594522D01*
X1067441D01*
Y-594069D01*
X1067895D01*
Y-593615D01*
X1068348D01*
Y-593162D01*
X1068802D01*
Y-592708D01*
X1069256D01*
Y-592254D01*
X1069709D01*
Y-591801D01*
X1070163D01*
Y-591347D01*
X1070616D01*
Y-590894D01*
X1071523D01*
Y-590440D01*
X1071977D01*
Y-589987D01*
X1072884D01*
Y-589533D01*
X1073791D01*
Y-589080D01*
X1074698D01*
Y-588626D01*
X1075605D01*
Y-588172D01*
X1076966D01*
Y-587719D01*
X1078327D01*
Y-587265D01*
X1080595D01*
Y-586812D01*
X1091480D01*
Y-587265D01*
D02*
G37*
G36*
X1157245Y-588172D02*
X1156792D01*
Y-588626D01*
Y-589080D01*
X1156338D01*
Y-589533D01*
X1155885D01*
Y-589987D01*
X1155431D01*
Y-590440D01*
Y-590894D01*
X1154978D01*
Y-591347D01*
X1154524D01*
Y-591801D01*
Y-592254D01*
X1154071D01*
Y-592708D01*
X1153617D01*
Y-593162D01*
X1153164D01*
Y-593615D01*
Y-594069D01*
X1152710D01*
Y-594522D01*
X1152256D01*
Y-594976D01*
X1151803D01*
Y-595429D01*
Y-595883D01*
X1151349D01*
Y-596337D01*
X1150896D01*
Y-596790D01*
X1150442D01*
Y-597244D01*
Y-597697D01*
X1149989D01*
Y-598151D01*
X1149535D01*
Y-598604D01*
Y-599058D01*
X1149081D01*
Y-599511D01*
X1148628D01*
Y-599965D01*
X1148174D01*
Y-600419D01*
Y-600872D01*
X1147721D01*
Y-601326D01*
X1147267D01*
Y-601779D01*
X1146814D01*
Y-602233D01*
Y-602686D01*
X1146360D01*
Y-603140D01*
X1145907D01*
Y-603593D01*
Y-604047D01*
X1145453D01*
Y-604501D01*
X1144999D01*
Y-604954D01*
X1144546D01*
Y-605408D01*
Y-605861D01*
X1144092D01*
Y-606315D01*
X1143639D01*
Y-606768D01*
X1143185D01*
Y-607222D01*
Y-607675D01*
X1142732D01*
Y-608129D01*
X1142278D01*
Y-608583D01*
X1141825D01*
Y-609036D01*
Y-609490D01*
Y-609943D01*
X1142278D01*
Y-610397D01*
Y-610850D01*
X1142732D01*
Y-611304D01*
X1143185D01*
Y-611758D01*
X1143639D01*
Y-612211D01*
Y-612665D01*
X1144092D01*
Y-613118D01*
X1144546D01*
Y-613572D01*
X1144999D01*
Y-614025D01*
Y-614479D01*
X1145453D01*
Y-614932D01*
X1145907D01*
Y-615386D01*
Y-615839D01*
X1146360D01*
Y-616293D01*
X1146814D01*
Y-616747D01*
X1147267D01*
Y-617200D01*
Y-617654D01*
X1147721D01*
Y-618107D01*
X1148174D01*
Y-618561D01*
X1148628D01*
Y-619014D01*
Y-619468D01*
X1149081D01*
Y-619921D01*
X1149535D01*
Y-620375D01*
X1149989D01*
Y-620829D01*
Y-621282D01*
X1150442D01*
Y-621736D01*
X1150896D01*
Y-622189D01*
X1151349D01*
Y-622643D01*
Y-623096D01*
X1151803D01*
Y-623550D01*
X1152256D01*
Y-624003D01*
X1152710D01*
Y-624457D01*
Y-624911D01*
X1153164D01*
Y-625364D01*
X1153617D01*
Y-625818D01*
X1154071D01*
Y-626271D01*
Y-626725D01*
X1154524D01*
Y-627178D01*
X1154978D01*
Y-627632D01*
Y-628086D01*
X1155431D01*
Y-628539D01*
X1155885D01*
Y-628993D01*
X1156338D01*
Y-629446D01*
Y-629900D01*
X1156792D01*
Y-630353D01*
X1157245D01*
Y-630807D01*
X1157699D01*
Y-631260D01*
X1158153D01*
Y-631714D01*
X1143639D01*
Y-631260D01*
Y-630807D01*
X1143185D01*
Y-630353D01*
X1142732D01*
Y-629900D01*
X1142278D01*
Y-629446D01*
Y-628993D01*
X1141825D01*
Y-628539D01*
X1141371D01*
Y-628086D01*
X1140918D01*
Y-627632D01*
Y-627178D01*
X1140464D01*
Y-626725D01*
X1140010D01*
Y-626271D01*
Y-625818D01*
X1139557D01*
Y-625364D01*
X1139103D01*
Y-624911D01*
X1138650D01*
Y-624457D01*
Y-624003D01*
X1138196D01*
Y-623550D01*
X1137743D01*
Y-623096D01*
X1137289D01*
Y-622643D01*
Y-622189D01*
X1136835D01*
Y-621736D01*
X1136382D01*
Y-621282D01*
Y-620829D01*
X1135928D01*
Y-620375D01*
X1135475D01*
Y-619921D01*
X1135021D01*
Y-619468D01*
Y-619014D01*
X1134568D01*
Y-618561D01*
X1134114D01*
Y-618107D01*
X1133661D01*
Y-617654D01*
X1133207D01*
Y-618107D01*
Y-618561D01*
X1132754D01*
Y-619014D01*
X1132300D01*
Y-619468D01*
X1131846D01*
Y-619921D01*
Y-620375D01*
X1131393D01*
Y-620829D01*
X1130939D01*
Y-621282D01*
Y-621736D01*
X1130486D01*
Y-622189D01*
X1130032D01*
Y-622643D01*
X1129579D01*
Y-623096D01*
Y-623550D01*
X1129125D01*
Y-624003D01*
X1128671D01*
Y-624457D01*
Y-624911D01*
X1128218D01*
Y-625364D01*
X1127764D01*
Y-625818D01*
X1127311D01*
Y-626271D01*
Y-626725D01*
X1126857D01*
Y-627178D01*
X1126404D01*
Y-627632D01*
Y-628086D01*
X1125950D01*
Y-628539D01*
X1125497D01*
Y-628993D01*
X1125043D01*
Y-629446D01*
Y-629900D01*
X1124589D01*
Y-630353D01*
X1124136D01*
Y-630807D01*
Y-631260D01*
X1123682D01*
Y-631714D01*
X1110529D01*
Y-631260D01*
X1110983D01*
Y-630807D01*
X1111436D01*
Y-630353D01*
Y-629900D01*
X1111890D01*
Y-629446D01*
X1112344D01*
Y-628993D01*
X1112797D01*
Y-628539D01*
Y-628086D01*
X1113251D01*
Y-627632D01*
X1113704D01*
Y-627178D01*
Y-626725D01*
X1114158D01*
Y-626271D01*
X1114611D01*
Y-625818D01*
X1115065D01*
Y-625364D01*
X1115518D01*
Y-624911D01*
Y-624457D01*
X1115972D01*
Y-624003D01*
X1116425D01*
Y-623550D01*
Y-623096D01*
X1116879D01*
Y-622643D01*
X1117333D01*
Y-622189D01*
X1117786D01*
Y-621736D01*
Y-621282D01*
X1118240D01*
Y-620829D01*
X1118693D01*
Y-620375D01*
X1119147D01*
Y-619921D01*
Y-619468D01*
X1119600D01*
Y-619014D01*
X1120054D01*
Y-618561D01*
X1120508D01*
Y-618107D01*
Y-617654D01*
X1120961D01*
Y-617200D01*
X1121415D01*
Y-616747D01*
X1121868D01*
Y-616293D01*
Y-615839D01*
X1122322D01*
Y-615386D01*
X1122775D01*
Y-614932D01*
X1123229D01*
Y-614479D01*
Y-614025D01*
X1123682D01*
Y-613572D01*
X1124136D01*
Y-613118D01*
X1124589D01*
Y-612665D01*
Y-612211D01*
X1125043D01*
Y-611758D01*
X1125497D01*
Y-611304D01*
Y-610850D01*
X1125950D01*
Y-610397D01*
X1126404D01*
Y-609943D01*
X1126857D01*
Y-609490D01*
Y-609036D01*
X1126404D01*
Y-608583D01*
X1125950D01*
Y-608129D01*
X1125497D01*
Y-607675D01*
Y-607222D01*
X1125043D01*
Y-606768D01*
X1124589D01*
Y-606315D01*
X1124136D01*
Y-605861D01*
Y-605408D01*
X1123682D01*
Y-604954D01*
X1123229D01*
Y-604501D01*
Y-604047D01*
X1122775D01*
Y-603593D01*
X1122322D01*
Y-603140D01*
X1121868D01*
Y-602686D01*
Y-602233D01*
X1121415D01*
Y-601779D01*
X1120961D01*
Y-601326D01*
X1120508D01*
Y-600872D01*
Y-600419D01*
X1120054D01*
Y-599965D01*
X1119600D01*
Y-599511D01*
Y-599058D01*
X1119147D01*
Y-598604D01*
X1118693D01*
Y-598151D01*
X1118240D01*
Y-597697D01*
Y-597244D01*
X1117786D01*
Y-596790D01*
X1117333D01*
Y-596337D01*
X1116879D01*
Y-595883D01*
Y-595429D01*
X1116425D01*
Y-594976D01*
X1115972D01*
Y-594522D01*
Y-594069D01*
X1115518D01*
Y-593615D01*
X1115065D01*
Y-593162D01*
X1114611D01*
Y-592708D01*
Y-592254D01*
X1114158D01*
Y-591801D01*
X1113704D01*
Y-591347D01*
X1113251D01*
Y-590894D01*
Y-590440D01*
X1112797D01*
Y-589987D01*
X1112344D01*
Y-589533D01*
Y-589080D01*
X1111890D01*
Y-588626D01*
X1111436D01*
Y-588172D01*
X1110983D01*
Y-587719D01*
X1125043D01*
Y-588172D01*
X1125497D01*
Y-588626D01*
X1125950D01*
Y-589080D01*
Y-589533D01*
X1126404D01*
Y-589987D01*
X1126857D01*
Y-590440D01*
X1127311D01*
Y-590894D01*
Y-591347D01*
X1127764D01*
Y-591801D01*
X1128218D01*
Y-592254D01*
Y-592708D01*
X1128671D01*
Y-593162D01*
X1129125D01*
Y-593615D01*
Y-594069D01*
X1129579D01*
Y-594522D01*
X1130032D01*
Y-594976D01*
X1130486D01*
Y-595429D01*
Y-595883D01*
X1130939D01*
Y-596337D01*
X1131393D01*
Y-596790D01*
Y-597244D01*
X1131846D01*
Y-597697D01*
X1132300D01*
Y-598151D01*
X1132754D01*
Y-598604D01*
Y-599058D01*
X1133207D01*
Y-599511D01*
X1133661D01*
Y-599965D01*
Y-600419D01*
X1134114D01*
Y-600872D01*
X1134568D01*
Y-601326D01*
X1135021D01*
Y-600872D01*
X1135475D01*
Y-600419D01*
Y-599965D01*
X1135928D01*
Y-599511D01*
X1136382D01*
Y-599058D01*
X1136835D01*
Y-598604D01*
Y-598151D01*
X1137289D01*
Y-597697D01*
X1137743D01*
Y-597244D01*
Y-596790D01*
X1138196D01*
Y-596337D01*
X1138650D01*
Y-595883D01*
X1139103D01*
Y-595429D01*
Y-594976D01*
X1139557D01*
Y-594522D01*
X1140010D01*
Y-594069D01*
Y-593615D01*
X1140464D01*
Y-593162D01*
X1140918D01*
Y-592708D01*
X1141371D01*
Y-592254D01*
Y-591801D01*
X1141825D01*
Y-591347D01*
X1142278D01*
Y-590894D01*
Y-590440D01*
X1142732D01*
Y-589987D01*
X1143185D01*
Y-589533D01*
X1143639D01*
Y-589080D01*
Y-588626D01*
X1144092D01*
Y-588172D01*
X1144546D01*
Y-587719D01*
X1157245D01*
Y-588172D01*
D02*
G37*
%LPC*%
G36*
X919582Y-566855D02*
X917314D01*
Y-567309D01*
X915500D01*
Y-567762D01*
X914593D01*
Y-568216D01*
X913686D01*
Y-568670D01*
X912779D01*
Y-569123D01*
X912325D01*
Y-569577D01*
X911872D01*
Y-570030D01*
X911418D01*
Y-570484D01*
X910965D01*
Y-570937D01*
Y-571391D01*
X910511D01*
Y-571844D01*
X910058D01*
Y-572298D01*
Y-572752D01*
X909604D01*
Y-573205D01*
Y-573659D01*
Y-574112D01*
Y-574566D01*
X909150D01*
Y-575019D01*
Y-575473D01*
Y-575927D01*
Y-576380D01*
Y-576834D01*
Y-577287D01*
Y-577741D01*
Y-578194D01*
X909604D01*
Y-578648D01*
Y-579101D01*
Y-579555D01*
X910058D01*
Y-580009D01*
Y-580462D01*
X910511D01*
Y-580916D01*
Y-581369D01*
X910965D01*
Y-581823D01*
X911418D01*
Y-582276D01*
X911872D01*
Y-582730D01*
X912325D01*
Y-583183D01*
X912779D01*
Y-583637D01*
X913232D01*
Y-584090D01*
X914139D01*
Y-584544D01*
X915047D01*
Y-584998D01*
X916407D01*
Y-585451D01*
X920489D01*
Y-584998D01*
X921850D01*
Y-584544D01*
X922757D01*
Y-584090D01*
X923664D01*
Y-583637D01*
X924118D01*
Y-583183D01*
X924571D01*
Y-582730D01*
X925478D01*
Y-582276D01*
Y-581823D01*
X925932D01*
Y-581369D01*
X926385D01*
Y-580916D01*
Y-580462D01*
X926839D01*
Y-580009D01*
Y-579555D01*
X927293D01*
Y-579101D01*
Y-578648D01*
Y-578194D01*
X927746D01*
Y-577741D01*
Y-577287D01*
Y-576834D01*
Y-576380D01*
Y-575927D01*
Y-575473D01*
Y-575019D01*
Y-574566D01*
X927293D01*
Y-574112D01*
Y-573659D01*
Y-573205D01*
Y-572752D01*
X926839D01*
Y-572298D01*
Y-571844D01*
X926385D01*
Y-571391D01*
Y-570937D01*
X925932D01*
Y-570484D01*
X925478D01*
Y-570030D01*
X925025D01*
Y-569577D01*
X924571D01*
Y-569123D01*
X924118D01*
Y-568670D01*
X923211D01*
Y-568216D01*
X922757D01*
Y-567762D01*
X921396D01*
Y-567309D01*
X919582D01*
Y-566855D01*
D02*
G37*
G36*
X1014375Y-596790D02*
X1010293D01*
Y-597244D01*
X1008479D01*
Y-597697D01*
X1007119D01*
Y-598151D01*
X1006211D01*
Y-598604D01*
X1005758D01*
Y-599058D01*
X1004851D01*
Y-599511D01*
X1004397D01*
Y-599965D01*
X1003944D01*
Y-600419D01*
Y-600872D01*
X1003490D01*
Y-601326D01*
X1003036D01*
Y-601779D01*
Y-602233D01*
X1002583D01*
Y-602686D01*
Y-603140D01*
X1002129D01*
Y-603593D01*
Y-604047D01*
Y-604501D01*
X1001676D01*
Y-604954D01*
Y-605408D01*
Y-605861D01*
Y-606315D01*
Y-606768D01*
X1001222D01*
Y-607222D01*
Y-607675D01*
Y-608129D01*
Y-608583D01*
Y-609036D01*
Y-609490D01*
Y-609943D01*
Y-610397D01*
Y-610850D01*
Y-611304D01*
Y-611758D01*
Y-612211D01*
Y-612665D01*
X1001676D01*
Y-613118D01*
Y-613572D01*
Y-614025D01*
Y-614479D01*
Y-614932D01*
X1002129D01*
Y-615386D01*
Y-615839D01*
Y-616293D01*
X1002583D01*
Y-616747D01*
Y-617200D01*
X1003036D01*
Y-617654D01*
Y-618107D01*
X1003490D01*
Y-618561D01*
X1003944D01*
Y-619014D01*
X1004397D01*
Y-619468D01*
X1004851D01*
Y-619921D01*
X1005304D01*
Y-620375D01*
X1005758D01*
Y-620829D01*
X1006665D01*
Y-621282D01*
X1007572D01*
Y-621736D01*
X1008479D01*
Y-622189D01*
X1010747D01*
Y-622643D01*
X1013922D01*
Y-622189D01*
X1016190D01*
Y-621736D01*
X1017550D01*
Y-621282D01*
X1018457D01*
Y-620829D01*
X1018911D01*
Y-620375D01*
X1019818D01*
Y-619921D01*
X1020272D01*
Y-619468D01*
X1020725D01*
Y-619014D01*
X1021179D01*
Y-618561D01*
Y-618107D01*
X1021632D01*
Y-617654D01*
X1022086D01*
Y-617200D01*
Y-616747D01*
X1022539D01*
Y-616293D01*
Y-615839D01*
Y-615386D01*
X1022993D01*
Y-614932D01*
Y-614479D01*
Y-614025D01*
Y-613572D01*
X1023447D01*
Y-613118D01*
Y-612665D01*
Y-612211D01*
Y-611758D01*
Y-611304D01*
Y-610850D01*
Y-610397D01*
Y-609943D01*
Y-609490D01*
Y-609036D01*
Y-608583D01*
Y-608129D01*
Y-607675D01*
Y-607222D01*
Y-606768D01*
Y-606315D01*
Y-605861D01*
Y-605408D01*
X1022993D01*
Y-604954D01*
Y-604501D01*
Y-604047D01*
Y-603593D01*
X1022539D01*
Y-603140D01*
Y-602686D01*
X1022086D01*
Y-602233D01*
Y-601779D01*
X1021632D01*
Y-601326D01*
Y-600872D01*
X1021179D01*
Y-600419D01*
X1020725D01*
Y-599965D01*
X1020272D01*
Y-599511D01*
X1019818D01*
Y-599058D01*
X1019364D01*
Y-598604D01*
X1018457D01*
Y-598151D01*
X1017550D01*
Y-597697D01*
X1016643D01*
Y-597244D01*
X1014375D01*
Y-596790D01*
D02*
G37*
G36*
X1088305D02*
X1083769D01*
Y-597244D01*
X1081955D01*
Y-597697D01*
X1080595D01*
Y-598151D01*
X1079688D01*
Y-598604D01*
X1079234D01*
Y-599058D01*
X1078780D01*
Y-599511D01*
X1078327D01*
Y-599965D01*
X1077873D01*
Y-600419D01*
X1077420D01*
Y-600872D01*
X1076966D01*
Y-601326D01*
X1076513D01*
Y-601779D01*
Y-602233D01*
X1076059D01*
Y-602686D01*
Y-603140D01*
X1075605D01*
Y-603593D01*
Y-604047D01*
Y-604501D01*
X1075152D01*
Y-604954D01*
Y-605408D01*
Y-605861D01*
Y-606315D01*
Y-606768D01*
Y-607222D01*
Y-607675D01*
X1074698D01*
Y-608129D01*
Y-608583D01*
Y-609036D01*
Y-609490D01*
Y-609943D01*
Y-610397D01*
Y-610850D01*
Y-611304D01*
X1075152D01*
Y-611758D01*
Y-612211D01*
Y-612665D01*
Y-613118D01*
Y-613572D01*
Y-614025D01*
Y-614479D01*
X1075605D01*
Y-614932D01*
Y-615386D01*
Y-615839D01*
X1076059D01*
Y-616293D01*
Y-616747D01*
Y-617200D01*
X1076513D01*
Y-617654D01*
X1076966D01*
Y-618107D01*
Y-618561D01*
X1077420D01*
Y-619014D01*
X1077873D01*
Y-619468D01*
X1078327D01*
Y-619921D01*
X1078780D01*
Y-620375D01*
X1079234D01*
Y-620829D01*
X1080141D01*
Y-621282D01*
X1081048D01*
Y-621736D01*
X1082409D01*
Y-622189D01*
X1084677D01*
Y-622643D01*
X1087398D01*
Y-622189D01*
X1089666D01*
Y-621736D01*
X1091026D01*
Y-621282D01*
X1091934D01*
Y-620829D01*
X1092841D01*
Y-620375D01*
X1093294D01*
Y-619921D01*
X1093748D01*
Y-619468D01*
X1094201D01*
Y-619014D01*
X1094655D01*
Y-618561D01*
X1095108D01*
Y-618107D01*
Y-617654D01*
X1095562D01*
Y-617200D01*
X1096015D01*
Y-616747D01*
Y-616293D01*
Y-615839D01*
X1096469D01*
Y-615386D01*
Y-614932D01*
Y-614479D01*
X1096923D01*
Y-614025D01*
Y-613572D01*
Y-613118D01*
Y-612665D01*
Y-612211D01*
X1097376D01*
Y-611758D01*
Y-611304D01*
Y-610850D01*
Y-610397D01*
Y-609943D01*
Y-609490D01*
Y-609036D01*
Y-608583D01*
Y-608129D01*
Y-607675D01*
Y-607222D01*
X1096923D01*
Y-606768D01*
Y-606315D01*
Y-605861D01*
Y-605408D01*
Y-604954D01*
Y-604501D01*
X1096469D01*
Y-604047D01*
Y-603593D01*
Y-603140D01*
X1096015D01*
Y-602686D01*
Y-602233D01*
X1095562D01*
Y-601779D01*
Y-601326D01*
X1095108D01*
Y-600872D01*
X1094655D01*
Y-600419D01*
X1094201D01*
Y-599965D01*
X1093748D01*
Y-599511D01*
X1093294D01*
Y-599058D01*
X1092841D01*
Y-598604D01*
X1091934D01*
Y-598151D01*
X1091480D01*
Y-597697D01*
X1090119D01*
Y-597244D01*
X1088305D01*
Y-596790D01*
D02*
G37*
%LPD*%
D11*
X2161945Y39471D02*
X2159622Y45570D01*
X2157299Y39471D01*
X2158170Y41504D02*
X2161074D01*
X2166563Y42666D02*
X2166272Y43247D01*
X2165401Y43537D01*
X2164530D01*
X2163659Y43247D01*
X2163368Y42666D01*
X2163659Y42085D01*
X2164240Y41795D01*
X2165692Y41504D01*
X2166272Y41214D01*
X2166563Y40633D01*
Y40343D01*
X2166272Y39762D01*
X2165401Y39471D01*
X2164530D01*
X2163659Y39762D01*
X2163368Y40343D01*
X2171035Y42666D02*
X2170745Y43247D01*
X2169874Y43537D01*
X2169002D01*
X2168131Y43247D01*
X2167841Y42666D01*
X2168131Y42085D01*
X2168712Y41795D01*
X2170164Y41504D01*
X2170745Y41214D01*
X2171035Y40633D01*
Y40343D01*
X2170745Y39762D01*
X2169874Y39471D01*
X2169002D01*
X2168131Y39762D01*
X2167841Y40343D01*
X2172313Y41795D02*
X2175798D01*
Y42375D01*
X2175508Y42956D01*
X2175217Y43247D01*
X2174636Y43537D01*
X2173765D01*
X2173184Y43247D01*
X2172603Y42666D01*
X2172313Y41795D01*
Y41214D01*
X2172603Y40343D01*
X2173184Y39762D01*
X2173765Y39471D01*
X2174636D01*
X2175217Y39762D01*
X2175798Y40343D01*
X2177105Y43537D02*
Y39471D01*
Y42375D02*
X2177976Y43247D01*
X2178557Y43537D01*
X2179428D01*
X2180009Y43247D01*
X2180300Y42375D01*
Y39471D01*
Y42375D02*
X2181171Y43247D01*
X2181752Y43537D01*
X2182623D01*
X2183204Y43247D01*
X2183494Y42375D01*
Y39471D01*
X2185411Y45570D02*
Y39471D01*
Y42666D02*
X2185992Y43247D01*
X2186572Y43537D01*
X2187444D01*
X2188024Y43247D01*
X2188605Y42666D01*
X2188896Y41795D01*
Y41214D01*
X2188605Y40343D01*
X2188024Y39762D01*
X2187444Y39471D01*
X2186572D01*
X2185992Y39762D01*
X2185411Y40343D01*
X2190203Y45570D02*
Y39471D01*
X2191771Y43537D02*
X2193513Y39471D01*
X2195256Y43537D02*
X2193513Y39471D01*
X2192932Y38310D01*
X2192352Y37729D01*
X2191771Y37438D01*
X2191480D01*
X2203097Y45570D02*
Y39471D01*
X2201064Y45570D02*
X2205130D01*
X2207308Y43537D02*
X2206727Y43247D01*
X2206146Y42666D01*
X2205856Y41795D01*
Y41214D01*
X2206146Y40343D01*
X2206727Y39762D01*
X2207308Y39471D01*
X2208179D01*
X2208760Y39762D01*
X2209341Y40343D01*
X2209631Y41214D01*
Y41795D01*
X2209341Y42666D01*
X2208760Y43247D01*
X2208179Y43537D01*
X2207308D01*
X2210967D02*
Y37438D01*
Y42666D02*
X2211548Y43247D01*
X2212129Y43537D01*
X2213000D01*
X2213581Y43247D01*
X2214162Y42666D01*
X2214452Y41795D01*
Y41214D01*
X2214162Y40343D01*
X2213581Y39762D01*
X2213000Y39471D01*
X2212129D01*
X2211548Y39762D01*
X2210967Y40343D01*
X-329019Y1104464D02*
X-331342Y1110563D01*
X-333665Y1104464D01*
X-332794Y1106497D02*
X-329890D01*
X-333665Y570813D02*
Y564714D01*
Y570813D02*
X-331052D01*
X-330180Y570523D01*
X-329890Y570232D01*
X-329600Y569651D01*
Y569071D01*
X-329890Y568490D01*
X-330180Y568199D01*
X-331052Y567909D01*
X-333665D02*
X-331052D01*
X-330180Y567618D01*
X-329890Y567328D01*
X-329600Y566747D01*
Y565876D01*
X-329890Y565295D01*
X-330180Y565005D01*
X-331052Y564714D01*
X-333665D01*
X-329309Y29611D02*
X-329600Y30192D01*
X-330180Y30773D01*
X-330761Y31063D01*
X-331923D01*
X-332504Y30773D01*
X-333084Y30192D01*
X-333375Y29611D01*
X-333665Y28740D01*
Y27288D01*
X-333375Y26416D01*
X-333084Y25836D01*
X-332504Y25255D01*
X-331923Y24964D01*
X-330761D01*
X-330180Y25255D01*
X-329600Y25836D01*
X-329309Y26416D01*
X-333665Y-507417D02*
Y-513516D01*
Y-507417D02*
X-331632D01*
X-330761Y-507707D01*
X-330180Y-508288D01*
X-329890Y-508869D01*
X-329600Y-509740D01*
Y-511192D01*
X-329890Y-512064D01*
X-330180Y-512644D01*
X-330761Y-513225D01*
X-331632Y-513516D01*
X-333665D01*
X-9476Y-740227D02*
X-8895Y-739936D01*
X-8024Y-739065D01*
Y-745164D01*
X689483Y-740517D02*
Y-740227D01*
X689773Y-739646D01*
X690064Y-739355D01*
X690645Y-739065D01*
X691806D01*
X692387Y-739355D01*
X692678Y-739646D01*
X692968Y-740227D01*
Y-740807D01*
X692678Y-741388D01*
X692097Y-742260D01*
X689193Y-745164D01*
X693258D01*
X1387003Y-739065D02*
X1390198D01*
X1388456Y-741388D01*
X1389327D01*
X1389908Y-741679D01*
X1390198Y-741969D01*
X1390488Y-742840D01*
Y-743421D01*
X1390198Y-744292D01*
X1389617Y-744873D01*
X1388746Y-745164D01*
X1387875D01*
X1387003Y-744873D01*
X1386713Y-744583D01*
X1386423Y-744002D01*
X2088083Y-739065D02*
X2085179Y-743131D01*
X2089536D01*
X2088083Y-739065D02*
Y-745164D01*
X-9476Y1367973D02*
X-8895Y1368264D01*
X-8024Y1369135D01*
Y1363036D01*
X689483Y1367683D02*
Y1367973D01*
X689773Y1368554D01*
X690064Y1368845D01*
X690645Y1369135D01*
X691806D01*
X692387Y1368845D01*
X692678Y1368554D01*
X692968Y1367973D01*
Y1367393D01*
X692678Y1366812D01*
X692097Y1365941D01*
X689193Y1363036D01*
X693258D01*
X1387003Y1369135D02*
X1390198D01*
X1388456Y1366812D01*
X1389327D01*
X1389908Y1366521D01*
X1390198Y1366231D01*
X1390488Y1365360D01*
Y1364779D01*
X1390198Y1363908D01*
X1389617Y1363327D01*
X1388746Y1363036D01*
X1387875D01*
X1387003Y1363327D01*
X1386713Y1363617D01*
X1386423Y1364198D01*
X2088083Y1369135D02*
X2085179Y1365069D01*
X2089536D01*
X2088083Y1369135D02*
Y1363036D01*
X2414181Y1104464D02*
X2411858Y1110563D01*
X2409535Y1104464D01*
X2410406Y1106497D02*
X2413310D01*
X2409535Y570813D02*
Y564714D01*
Y570813D02*
X2412148D01*
X2413020Y570523D01*
X2413310Y570232D01*
X2413600Y569651D01*
Y569071D01*
X2413310Y568490D01*
X2413020Y568199D01*
X2412148Y567909D01*
X2409535D02*
X2412148D01*
X2413020Y567618D01*
X2413310Y567328D01*
X2413600Y566747D01*
Y565876D01*
X2413310Y565295D01*
X2413020Y565005D01*
X2412148Y564714D01*
X2409535D01*
X2413891Y29611D02*
X2413600Y30192D01*
X2413020Y30773D01*
X2412439Y31063D01*
X2411277D01*
X2410696Y30773D01*
X2410116Y30192D01*
X2409825Y29611D01*
X2409535Y28740D01*
Y27288D01*
X2409825Y26416D01*
X2410116Y25836D01*
X2410696Y25255D01*
X2411277Y24964D01*
X2412439D01*
X2413020Y25255D01*
X2413600Y25836D01*
X2413891Y26416D01*
X2409535Y-507417D02*
Y-513516D01*
Y-507417D02*
X2411568D01*
X2412439Y-507707D01*
X2413020Y-508288D01*
X2413310Y-508869D01*
X2413600Y-509740D01*
Y-511192D01*
X2413310Y-512064D01*
X2413020Y-512644D01*
X2412439Y-513225D01*
X2411568Y-513516D01*
X2409535D01*
X2103959Y225656D02*
Y219557D01*
X2107444D01*
X2112758D02*
X2110435Y225656D01*
X2108112Y219557D01*
X2108983Y221590D02*
X2111887D01*
X2114181Y225656D02*
X2116505Y222752D01*
Y219557D01*
X2118828Y225656D02*
X2116505Y222752D01*
X2123387Y225656D02*
X2119612D01*
Y219557D01*
X2123387D01*
X2119612Y222752D02*
X2121935D01*
X2124404Y225656D02*
Y219557D01*
Y225656D02*
X2127018D01*
X2127889Y225366D01*
X2128179Y225075D01*
X2128470Y224494D01*
Y223914D01*
X2128179Y223333D01*
X2127889Y223042D01*
X2127018Y222752D01*
X2124404D01*
X2126437D02*
X2128470Y219557D01*
X2134626Y225656D02*
Y221300D01*
X2134917Y220429D01*
X2135498Y219848D01*
X2136369Y219557D01*
X2136950D01*
X2137821Y219848D01*
X2138402Y220429D01*
X2138692Y221300D01*
Y225656D01*
X2144442Y224785D02*
X2143862Y225366D01*
X2142990Y225656D01*
X2141829D01*
X2140957Y225366D01*
X2140376Y224785D01*
Y224204D01*
X2140667Y223623D01*
X2140957Y223333D01*
X2141538Y223042D01*
X2143281Y222461D01*
X2143862Y222171D01*
X2144152Y221881D01*
X2144442Y221300D01*
Y220429D01*
X2143862Y219848D01*
X2142990Y219557D01*
X2141829D01*
X2140957Y219848D01*
X2140376Y220429D01*
X2150454Y219557D02*
X2148131Y225656D01*
X2145807Y219557D01*
X2146678Y221590D02*
X2149583D01*
X2156233Y224204D02*
X2155943Y224785D01*
X2155362Y225366D01*
X2154781Y225656D01*
X2153619D01*
X2153038Y225366D01*
X2152458Y224785D01*
X2152167Y224204D01*
X2151877Y223333D01*
Y221881D01*
X2152167Y221009D01*
X2152458Y220429D01*
X2153038Y219848D01*
X2153619Y219557D01*
X2154781D01*
X2155362Y219848D01*
X2155943Y220429D01*
X2156233Y221009D01*
Y221881D01*
X2154781D02*
X2156233D01*
X2161402Y225656D02*
X2157627D01*
Y219557D01*
X2161402D01*
X2157627Y222752D02*
X2159950D01*
X1895245Y1304016D02*
Y1310114D01*
X1898294D01*
X1899310Y1309098D01*
Y1307065D01*
X1898294Y1306049D01*
X1895245D01*
X1897277D02*
X1899310Y1304016D01*
X1905408Y1310114D02*
X1901343D01*
Y1304016D01*
X1905408D01*
X1901343Y1307065D02*
X1903375D01*
X1907441Y1310114D02*
Y1306049D01*
X1909473Y1304016D01*
X1911506Y1306049D01*
Y1310114D01*
X1913539D02*
X1915571D01*
X1914555D01*
Y1304016D01*
X1913539D01*
X1915571D01*
X1922686Y1309098D02*
X1921669Y1310114D01*
X1919637D01*
X1918620Y1309098D01*
Y1308082D01*
X1919637Y1307065D01*
X1921669D01*
X1922686Y1306049D01*
Y1305033D01*
X1921669Y1304016D01*
X1919637D01*
X1918620Y1305033D01*
X1924718Y1310114D02*
X1926751D01*
X1925735D01*
Y1304016D01*
X1924718D01*
X1926751D01*
X1932849Y1310114D02*
X1930816D01*
X1929800Y1309098D01*
Y1305033D01*
X1930816Y1304016D01*
X1932849D01*
X1933865Y1305033D01*
Y1309098D01*
X1932849Y1310114D01*
X1935898Y1304016D02*
Y1310114D01*
X1939963Y1304016D01*
Y1310114D01*
X1537105Y1260836D02*
Y1266934D01*
X1540154D01*
X1541170Y1265918D01*
Y1263885D01*
X1540154Y1262869D01*
X1537105D01*
X1539137D02*
X1541170Y1260836D01*
X1547268Y1266934D02*
X1543203D01*
Y1260836D01*
X1547268D01*
X1543203Y1263885D02*
X1545235D01*
X1549301Y1266934D02*
Y1262869D01*
X1551333Y1260836D01*
X1553366Y1262869D01*
Y1266934D01*
X1646325D02*
Y1260836D01*
X1649374D01*
X1650390Y1261853D01*
Y1265918D01*
X1649374Y1266934D01*
X1646325D01*
X1656488D02*
X1652423D01*
Y1260836D01*
X1656488D01*
X1652423Y1263885D02*
X1654455D01*
X1662586Y1265918D02*
X1661570Y1266934D01*
X1659537D01*
X1658521Y1265918D01*
Y1264902D01*
X1659537Y1263885D01*
X1661570D01*
X1662586Y1262869D01*
Y1261853D01*
X1661570Y1260836D01*
X1659537D01*
X1658521Y1261853D01*
X1668684Y1265918D02*
X1667668Y1266934D01*
X1665635D01*
X1664619Y1265918D01*
Y1261853D01*
X1665635Y1260836D01*
X1667668D01*
X1668684Y1261853D01*
X1670717Y1260836D02*
Y1266934D01*
X1673766D01*
X1674782Y1265918D01*
Y1263885D01*
X1673766Y1262869D01*
X1670717D01*
X1672749D02*
X1674782Y1260836D01*
X1676815Y1266934D02*
X1678847D01*
X1677831D01*
Y1260836D01*
X1676815D01*
X1678847D01*
X1681896D02*
Y1266934D01*
X1684945D01*
X1685962Y1265918D01*
Y1263885D01*
X1684945Y1262869D01*
X1681896D01*
X1687994Y1266934D02*
X1692060D01*
X1690027D01*
Y1260836D01*
X1694092Y1266934D02*
X1696125D01*
X1695109D01*
Y1260836D01*
X1694092D01*
X1696125D01*
X1702223Y1266934D02*
X1700190D01*
X1699174Y1265918D01*
Y1261853D01*
X1700190Y1260836D01*
X1702223D01*
X1703239Y1261853D01*
Y1265918D01*
X1702223Y1266934D01*
X1705272Y1260836D02*
Y1266934D01*
X1709337Y1260836D01*
Y1266934D01*
X2144165D02*
Y1260836D01*
X2147214D01*
X2148230Y1261853D01*
Y1265918D01*
X2147214Y1266934D01*
X2144165D01*
X2150263Y1260836D02*
Y1264902D01*
X2152295Y1266934D01*
X2154328Y1264902D01*
Y1260836D01*
Y1263885D01*
X2150263D01*
X2156361Y1266934D02*
X2160426D01*
X2158393D01*
Y1260836D01*
X2166524Y1266934D02*
X2162459D01*
Y1260836D01*
X2166524D01*
X2162459Y1263885D02*
X2164491D01*
X2304185Y1266934D02*
Y1260836D01*
X2307234D01*
X2308250Y1261853D01*
Y1262869D01*
X2307234Y1263885D01*
X2304185D01*
X2307234D01*
X2308250Y1264902D01*
Y1265918D01*
X2307234Y1266934D01*
X2304185D01*
X2310283D02*
Y1265918D01*
X2312315Y1263885D01*
X2314348Y1265918D01*
Y1266934D01*
X2312315Y1263885D02*
Y1260836D01*
X1537105Y1222736D02*
Y1228834D01*
X1540154D01*
X1541170Y1227818D01*
Y1225785D01*
X1540154Y1224769D01*
X1537105D01*
X1539137D02*
X1541170Y1222736D01*
X1546252D02*
X1544219D01*
X1543203Y1223753D01*
Y1225785D01*
X1544219Y1226802D01*
X1546252D01*
X1547268Y1225785D01*
Y1224769D01*
X1543203D01*
X1549301Y1226802D02*
X1551333Y1222736D01*
X1553366Y1226802D01*
X1555399Y1222736D02*
X1557431D01*
X1556415D01*
Y1228834D01*
X1555399Y1227818D01*
X1646325Y1222736D02*
Y1228834D01*
X1649374D01*
X1650390Y1227818D01*
Y1225785D01*
X1649374Y1224769D01*
X1646325D01*
X1652423Y1226802D02*
Y1222736D01*
Y1224769D01*
X1653439Y1225785D01*
X1654455Y1226802D01*
X1655472D01*
X1659537Y1222736D02*
X1661570D01*
X1662586Y1223753D01*
Y1225785D01*
X1661570Y1226802D01*
X1659537D01*
X1658521Y1225785D01*
Y1223753D01*
X1659537Y1222736D01*
X1665635Y1227818D02*
Y1226802D01*
X1664619D01*
X1666651D01*
X1665635D01*
Y1223753D01*
X1666651Y1222736D01*
X1670717D02*
X1672749D01*
X1673766Y1223753D01*
Y1225785D01*
X1672749Y1226802D01*
X1670717D01*
X1669700Y1225785D01*
Y1223753D01*
X1670717Y1222736D01*
X1676815Y1227818D02*
Y1226802D01*
X1675798D01*
X1677831D01*
X1676815D01*
Y1223753D01*
X1677831Y1222736D01*
X1680880Y1226802D02*
Y1223753D01*
X1681896Y1222736D01*
X1684945D01*
Y1221720D01*
X1683929Y1220704D01*
X1682913D01*
X1684945Y1222736D02*
Y1226802D01*
X1686978Y1220704D02*
Y1226802D01*
X1690027D01*
X1691043Y1225785D01*
Y1223753D01*
X1690027Y1222736D01*
X1686978D01*
X1696125D02*
X1694092D01*
X1693076Y1223753D01*
Y1225785D01*
X1694092Y1226802D01*
X1696125D01*
X1697141Y1225785D01*
Y1224769D01*
X1693076D01*
X1705272Y1222736D02*
Y1228834D01*
X1708321D01*
X1709337Y1227818D01*
Y1225785D01*
X1708321Y1224769D01*
X1705272D01*
X1707305D02*
X1709337Y1222736D01*
X1714419D02*
X1712386D01*
X1711370Y1223753D01*
Y1225785D01*
X1712386Y1226802D01*
X1714419D01*
X1715435Y1225785D01*
Y1224769D01*
X1711370D01*
X1717468Y1222736D02*
X1719501D01*
X1718484D01*
Y1228834D01*
X1717468D01*
X1725599Y1222736D02*
X1723566D01*
X1722550Y1223753D01*
Y1225785D01*
X1723566Y1226802D01*
X1725599D01*
X1726615Y1225785D01*
Y1224769D01*
X1722550D01*
X1729664Y1226802D02*
X1731697D01*
X1732713Y1225785D01*
Y1222736D01*
X1729664D01*
X1728648Y1223753D01*
X1729664Y1224769D01*
X1732713D01*
X1734746Y1222736D02*
X1737795D01*
X1738811Y1223753D01*
X1737795Y1224769D01*
X1735762D01*
X1734746Y1225785D01*
X1735762Y1226802D01*
X1738811D01*
X1743893Y1222736D02*
X1741860D01*
X1740844Y1223753D01*
Y1225785D01*
X1741860Y1226802D01*
X1743893D01*
X1744909Y1225785D01*
Y1224769D01*
X1740844D01*
X2127910Y1220196D02*
X2123845D01*
X2127910Y1224262D01*
Y1225278D01*
X2126894Y1226294D01*
X2124861D01*
X2123845Y1225278D01*
X2129943D02*
X2130959Y1226294D01*
X2132992D01*
X2134008Y1225278D01*
Y1221213D01*
X2132992Y1220196D01*
X2130959D01*
X2129943Y1221213D01*
Y1225278D01*
X2140106Y1220196D02*
X2136041D01*
X2140106Y1224262D01*
Y1225278D01*
X2139090Y1226294D01*
X2137057D01*
X2136041Y1225278D01*
X2146204Y1220196D02*
X2142139D01*
X2146204Y1224262D01*
Y1225278D01*
X2145188Y1226294D01*
X2143155D01*
X2142139Y1225278D01*
X2148237Y1223245D02*
X2152302D01*
X2154335Y1220196D02*
X2156367D01*
X2155351D01*
Y1226294D01*
X2154335Y1225278D01*
X2159416Y1220196D02*
X2161449D01*
X2160433D01*
Y1226294D01*
X2159416Y1225278D01*
X2164498Y1223245D02*
X2168563D01*
X2174661Y1220196D02*
X2170596D01*
X2174661Y1224262D01*
Y1225278D01*
X2173645Y1226294D01*
X2171612D01*
X2170596Y1225278D01*
X2176694D02*
X2177710Y1226294D01*
X2179743D01*
X2180759Y1225278D01*
Y1224262D01*
X2179743Y1223245D01*
X2180759Y1222229D01*
Y1221213D01*
X2179743Y1220196D01*
X2177710D01*
X2176694Y1221213D01*
Y1222229D01*
X2177710Y1223245D01*
X2176694Y1224262D01*
Y1225278D01*
X2177710Y1223245D02*
X2179743D01*
X2291485Y1228834D02*
Y1222736D01*
Y1225785D01*
X2292501Y1226802D01*
X2294534D01*
X2295550Y1225785D01*
Y1222736D01*
X2298599Y1226802D02*
X2300632D01*
X2301648Y1225785D01*
Y1222736D01*
X2298599D01*
X2297583Y1223753D01*
X2298599Y1224769D01*
X2301648D01*
X2303681Y1228834D02*
Y1222736D01*
X2306730D01*
X2307746Y1223753D01*
Y1224769D01*
Y1225785D01*
X2306730Y1226802D01*
X2303681D01*
X2313844Y1228834D02*
Y1222736D01*
X2310795D01*
X2309779Y1223753D01*
Y1225785D01*
X2310795Y1226802D01*
X2313844D01*
X1638641Y1154377D02*
Y1160474D01*
X1641690D01*
X1642706Y1159458D01*
Y1157426D01*
X1641690Y1156409D01*
X1638641D01*
X1644739Y1158442D02*
Y1154377D01*
Y1156409D01*
X1645755Y1157426D01*
X1646771Y1158442D01*
X1647788D01*
X1651853Y1154377D02*
X1653886D01*
X1654902Y1155393D01*
Y1157426D01*
X1653886Y1158442D01*
X1651853D01*
X1650837Y1157426D01*
Y1155393D01*
X1651853Y1154377D01*
X1657951Y1159458D02*
Y1158442D01*
X1656935D01*
X1658967D01*
X1657951D01*
Y1155393D01*
X1658967Y1154377D01*
X1663033D02*
X1665065D01*
X1666082Y1155393D01*
Y1157426D01*
X1665065Y1158442D01*
X1663033D01*
X1662016Y1157426D01*
Y1155393D01*
X1663033Y1154377D01*
X1669131Y1159458D02*
Y1158442D01*
X1668114D01*
X1670147D01*
X1669131D01*
Y1155393D01*
X1670147Y1154377D01*
X1673196Y1158442D02*
Y1155393D01*
X1674212Y1154377D01*
X1677261D01*
Y1153360D01*
X1676245Y1152344D01*
X1675229D01*
X1677261Y1154377D02*
Y1158442D01*
X1679294Y1152344D02*
Y1158442D01*
X1682343D01*
X1683359Y1157426D01*
Y1155393D01*
X1682343Y1154377D01*
X1679294D01*
X1688441D02*
X1686408D01*
X1685392Y1155393D01*
Y1157426D01*
X1686408Y1158442D01*
X1688441D01*
X1689458Y1157426D01*
Y1156409D01*
X1685392D01*
X1697588Y1154377D02*
Y1160474D01*
X1700637D01*
X1701653Y1159458D01*
Y1157426D01*
X1700637Y1156409D01*
X1697588D01*
X1699621D02*
X1701653Y1154377D01*
X1706735D02*
X1704702D01*
X1703686Y1155393D01*
Y1157426D01*
X1704702Y1158442D01*
X1706735D01*
X1707751Y1157426D01*
Y1156409D01*
X1703686D01*
X1709784Y1154377D02*
X1711817D01*
X1710800D01*
Y1160474D01*
X1709784D01*
X1717915Y1154377D02*
X1715882D01*
X1714866Y1155393D01*
Y1157426D01*
X1715882Y1158442D01*
X1717915D01*
X1718931Y1157426D01*
Y1156409D01*
X1714866D01*
X1721980Y1158442D02*
X1724013D01*
X1725029Y1157426D01*
Y1154377D01*
X1721980D01*
X1720964Y1155393D01*
X1721980Y1156409D01*
X1725029D01*
X1727062Y1154377D02*
X1730111D01*
X1731127Y1155393D01*
X1730111Y1156409D01*
X1728078D01*
X1727062Y1157426D01*
X1728078Y1158442D01*
X1731127D01*
X1736209Y1154377D02*
X1734176D01*
X1733160Y1155393D01*
Y1157426D01*
X1734176Y1158442D01*
X1736209D01*
X1737225Y1157426D01*
Y1156409D01*
X1733160D01*
X1529421Y1154377D02*
Y1160474D01*
X1532470D01*
X1533486Y1159458D01*
Y1157426D01*
X1532470Y1156409D01*
X1529421D01*
X1531453D02*
X1533486Y1154377D01*
X1538568D02*
X1536535D01*
X1535519Y1155393D01*
Y1157426D01*
X1536535Y1158442D01*
X1538568D01*
X1539584Y1157426D01*
Y1156409D01*
X1535519D01*
X1541617Y1158442D02*
X1543649Y1154377D01*
X1545682Y1158442D01*
X1553813Y1160474D02*
Y1154377D01*
X1556862D01*
X1557878Y1155393D01*
Y1156409D01*
X1556862Y1157426D01*
X1553813D01*
X1556862D01*
X1557878Y1158442D01*
Y1159458D01*
X1556862Y1160474D01*
X1553813D01*
X2291485Y1146536D02*
Y1147553D01*
X2292501D01*
Y1146536D01*
X2291485D01*
X2296566D02*
Y1152634D01*
X2299615D01*
X2300632Y1151618D01*
Y1149585D01*
X2299615Y1148569D01*
X2296566D01*
X2298599D02*
X2300632Y1146536D01*
X2305713D02*
X2303681D01*
X2302664Y1147553D01*
Y1149585D01*
X2303681Y1150602D01*
X2305713D01*
X2306730Y1149585D01*
Y1148569D01*
X2302664D01*
X2308762Y1146536D02*
X2310795D01*
X2309779D01*
Y1152634D01*
X2308762D01*
X2316893Y1146536D02*
X2314860D01*
X2313844Y1147553D01*
Y1149585D01*
X2314860Y1150602D01*
X2316893D01*
X2317909Y1149585D01*
Y1148569D01*
X2313844D01*
X2320958Y1150602D02*
X2322991D01*
X2324007Y1149585D01*
Y1146536D01*
X2320958D01*
X2319942Y1147553D01*
X2320958Y1148569D01*
X2324007D01*
X2326040Y1146536D02*
X2329089D01*
X2330105Y1147553D01*
X2329089Y1148569D01*
X2327056D01*
X2326040Y1149585D01*
X2327056Y1150602D01*
X2330105D01*
X2335187Y1146536D02*
X2333154D01*
X2332138Y1147553D01*
Y1149585D01*
X2333154Y1150602D01*
X2335187D01*
X2336203Y1149585D01*
Y1148569D01*
X2332138D01*
X2338236Y1152634D02*
Y1146536D01*
X2341285D01*
X2342301Y1147553D01*
Y1148569D01*
X2341285Y1149585D01*
X2338236D01*
X2341285D01*
X2342301Y1150602D01*
Y1151618D01*
X2341285Y1152634D01*
X2338236D01*
X2344334Y1150602D02*
Y1147553D01*
X2345350Y1146536D01*
X2348399D01*
Y1145520D01*
X2347383Y1144504D01*
X2346367D01*
X2348399Y1146536D02*
Y1150602D01*
X2350432Y1151618D02*
X2351448Y1152634D01*
X2353481D01*
X2354497Y1151618D01*
Y1150602D01*
X2353481Y1149585D01*
X2352465D01*
X2353481D01*
X2354497Y1148569D01*
Y1147553D01*
X2353481Y1146536D01*
X2351448D01*
X2350432Y1147553D01*
X1318665Y-688866D02*
Y-693947D01*
X1319681Y-694964D01*
X1321714D01*
X1322730Y-693947D01*
Y-688866D01*
X1324763D02*
Y-694964D01*
X1327812D01*
X1328828Y-693947D01*
Y-692931D01*
X1327812Y-691915D01*
X1324763D01*
X1327812D01*
X1328828Y-690898D01*
Y-689882D01*
X1327812Y-688866D01*
X1324763D01*
X1330861D02*
X1334926Y-694964D01*
Y-688866D02*
X1330861Y-694964D01*
X1336959Y-688866D02*
Y-694964D01*
Y-691915D01*
X1341024D01*
Y-688866D01*
Y-694964D01*
X1347122Y-688866D02*
X1345089Y-689882D01*
X1343057Y-691915D01*
Y-693947D01*
X1344073Y-694964D01*
X1346106D01*
X1347122Y-693947D01*
Y-692931D01*
X1346106Y-691915D01*
X1343057D01*
X1349155Y-689882D02*
X1350171Y-688866D01*
X1352204D01*
X1353220Y-689882D01*
Y-693947D01*
X1352204Y-694964D01*
X1350171D01*
X1349155Y-693947D01*
Y-689882D01*
X1355253Y-691915D02*
X1359318D01*
X1361351Y-689882D02*
X1362367Y-688866D01*
X1364400D01*
X1365416Y-689882D01*
Y-693947D01*
X1364400Y-694964D01*
X1362367D01*
X1361351Y-693947D01*
Y-689882D01*
X1367449D02*
X1368465Y-688866D01*
X1370498D01*
X1371514Y-689882D01*
Y-693947D01*
X1370498Y-694964D01*
X1368465D01*
X1367449Y-693947D01*
Y-689882D01*
X1373547D02*
X1374563Y-688866D01*
X1376596D01*
X1377612Y-689882D01*
Y-693947D01*
X1376596Y-694964D01*
X1374563D01*
X1373547Y-693947D01*
Y-689882D01*
X1379645Y-694964D02*
X1381677D01*
X1380661D01*
Y-688866D01*
X1379645Y-689882D01*
X1384726D02*
X1385743Y-688866D01*
X1387775D01*
X1388792Y-689882D01*
Y-693947D01*
X1387775Y-694964D01*
X1385743D01*
X1384726Y-693947D01*
Y-689882D01*
X1390824Y-694964D02*
X1392857D01*
X1391841D01*
Y-688866D01*
X1390824Y-689882D01*
X1399971Y-694964D02*
X1395906D01*
X1399971Y-690898D01*
Y-689882D01*
X1398955Y-688866D01*
X1396922D01*
X1395906Y-689882D01*
X1745385Y-623844D02*
Y-617746D01*
X1748434D01*
X1749450Y-618762D01*
Y-620795D01*
X1748434Y-621811D01*
X1745385D01*
X1755548Y-618762D02*
X1754532Y-617746D01*
X1752499D01*
X1751483Y-618762D01*
Y-622827D01*
X1752499Y-623844D01*
X1754532D01*
X1755548Y-622827D01*
X1757581Y-617746D02*
Y-623844D01*
X1760630D01*
X1761646Y-622827D01*
Y-621811D01*
X1760630Y-620795D01*
X1757581D01*
X1760630D01*
X1761646Y-619778D01*
Y-618762D01*
X1760630Y-617746D01*
X1757581D01*
X1763679Y-620795D02*
X1767744D01*
X1773842Y-617746D02*
X1769777D01*
Y-623844D01*
X1773842D01*
X1769777Y-620795D02*
X1771809D01*
X1775875Y-617746D02*
Y-621811D01*
X1777907Y-623844D01*
X1779940Y-621811D01*
Y-617746D01*
X1781973D02*
Y-623844D01*
Y-621811D01*
X1786038Y-617746D01*
X1782989Y-620795D01*
X1786038Y-623844D01*
X1788071Y-620795D02*
X1792136D01*
X1794169Y-617746D02*
X1796201D01*
X1795185D01*
Y-623844D01*
X1794169D01*
X1796201D01*
X1799250D02*
Y-617746D01*
X1802299D01*
X1803316Y-618762D01*
Y-620795D01*
X1802299Y-621811D01*
X1799250D01*
X1801283D02*
X1803316Y-623844D01*
X1805348Y-617746D02*
X1807381D01*
X1806365D01*
Y-623844D01*
X1805348D01*
X1807381D01*
X1814495Y-618762D02*
X1813479Y-617746D01*
X1811446D01*
X1810430Y-618762D01*
Y-619778D01*
X1811446Y-620795D01*
X1813479D01*
X1814495Y-621811D01*
Y-622827D01*
X1813479Y-623844D01*
X1811446D01*
X1810430Y-622827D01*
X1816528Y-620795D02*
X1820593D01*
X1822626Y-617746D02*
Y-623844D01*
X1824659Y-621811D01*
X1826691Y-623844D01*
Y-617746D01*
X1828724Y-623844D02*
X1830757D01*
X1829740D01*
Y-617746D01*
X1828724Y-618762D01*
X2239965Y-622634D02*
Y-616536D01*
X2243014D01*
X2244030Y-617552D01*
Y-619585D01*
X2243014Y-620601D01*
X2239965D01*
X2241997D02*
X2244030Y-622634D01*
X2249112D02*
X2247079D01*
X2246063Y-621617D01*
Y-619585D01*
X2247079Y-618568D01*
X2249112D01*
X2250128Y-619585D01*
Y-620601D01*
X2246063D01*
X2252161Y-618568D02*
X2254193Y-622634D01*
X2256226Y-618568D01*
X2264357Y-616536D02*
Y-622634D01*
X2267406D01*
X2268422Y-621617D01*
Y-620601D01*
X2267406Y-619585D01*
X2264357D01*
X2267406D01*
X2268422Y-618568D01*
Y-617552D01*
X2267406Y-616536D01*
X2264357D01*
X1749450Y-556786D02*
X1745385D01*
Y-562884D01*
X1749450D01*
X1745385Y-559835D02*
X1747417D01*
X1751483Y-556786D02*
Y-560851D01*
X1753515Y-562884D01*
X1755548Y-560851D01*
Y-556786D01*
X1757581D02*
Y-562884D01*
Y-560851D01*
X1761646Y-556786D01*
X1758597Y-559835D01*
X1761646Y-562884D01*
X1763679Y-559835D02*
X1767744D01*
X1769777Y-556786D02*
X1771809D01*
X1770793D01*
Y-562884D01*
X1769777D01*
X1771809D01*
X1774858D02*
Y-556786D01*
X1777907D01*
X1778924Y-557802D01*
Y-559835D01*
X1777907Y-560851D01*
X1774858D01*
X1776891D02*
X1778924Y-562884D01*
X1780956Y-556786D02*
X1782989D01*
X1781973D01*
Y-562884D01*
X1780956D01*
X1782989D01*
X1790103Y-557802D02*
X1789087Y-556786D01*
X1787054D01*
X1786038Y-557802D01*
Y-558818D01*
X1787054Y-559835D01*
X1789087D01*
X1790103Y-560851D01*
Y-561867D01*
X1789087Y-562884D01*
X1787054D01*
X1786038Y-561867D01*
X1792136Y-559835D02*
X1796201D01*
X1798234Y-556786D02*
Y-562884D01*
X1800267Y-560851D01*
X1802299Y-562884D01*
Y-556786D01*
X1804332Y-562884D02*
X1806365D01*
X1805348D01*
Y-556786D01*
X1804332Y-557802D01*
X1366925Y-556786D02*
Y-562884D01*
Y-559835D01*
X1367941Y-558818D01*
X1369974D01*
X1370990Y-559835D01*
Y-562884D01*
X1374039Y-558818D02*
X1376072D01*
X1377088Y-559835D01*
Y-562884D01*
X1374039D01*
X1373023Y-561867D01*
X1374039Y-560851D01*
X1377088D01*
X1379121Y-556786D02*
Y-562884D01*
X1382170D01*
X1383186Y-561867D01*
Y-560851D01*
Y-559835D01*
X1382170Y-558818D01*
X1379121D01*
X1389284Y-556786D02*
Y-562884D01*
X1386235D01*
X1385219Y-561867D01*
Y-559835D01*
X1386235Y-558818D01*
X1389284D01*
X1634327Y-600384D02*
Y-594286D01*
X1637376D01*
X1638392Y-595302D01*
Y-597335D01*
X1637376Y-598351D01*
X1634327D01*
X1644490Y-595302D02*
X1643474Y-594286D01*
X1641441D01*
X1640425Y-595302D01*
Y-599367D01*
X1641441Y-600384D01*
X1643474D01*
X1644490Y-599367D01*
X1646523Y-594286D02*
Y-600384D01*
X1649572D01*
X1650588Y-599367D01*
Y-598351D01*
X1649572Y-597335D01*
X1646523D01*
X1649572D01*
X1650588Y-596318D01*
Y-595302D01*
X1649572Y-594286D01*
X1646523D01*
X1658719Y-600384D02*
Y-594286D01*
X1662784Y-600384D01*
Y-594286D01*
X1664817Y-600384D02*
Y-596318D01*
X1666849Y-594286D01*
X1668882Y-596318D01*
Y-600384D01*
Y-597335D01*
X1664817D01*
X1670915Y-600384D02*
Y-594286D01*
X1672947Y-596318D01*
X1674980Y-594286D01*
Y-600384D01*
X1681078Y-594286D02*
X1677013D01*
Y-600384D01*
X1681078D01*
X1677013Y-597335D02*
X1679045D01*
X1683111Y-596318D02*
X1684127D01*
Y-597335D01*
X1683111D01*
Y-596318D01*
Y-599367D02*
X1684127D01*
Y-600384D01*
X1683111D01*
Y-599367D01*
X2253325Y-693602D02*
X2255357D01*
X2254341D01*
Y-687504D01*
X2253325Y-688520D01*
X2258406Y-689536D02*
X2259423D01*
Y-690553D01*
X2258406D01*
Y-689536D01*
Y-692585D02*
X2259423D01*
Y-693602D01*
X2258406D01*
Y-692585D01*
X2263488Y-693602D02*
X2265521D01*
X2264504D01*
Y-687504D01*
X2263488Y-688520D01*
X2170268Y-661342D02*
X2169252Y-660326D01*
X2167219D01*
X2166203Y-661342D01*
Y-662358D01*
X2167219Y-663375D01*
X2169252D01*
X2170268Y-664391D01*
Y-665407D01*
X2169252Y-666424D01*
X2167219D01*
X2166203Y-665407D01*
X2176366Y-661342D02*
X2175350Y-660326D01*
X2173317D01*
X2172301Y-661342D01*
Y-665407D01*
X2173317Y-666424D01*
X2175350D01*
X2176366Y-665407D01*
X2178399Y-666424D02*
Y-662358D01*
X2180431Y-660326D01*
X2182464Y-662358D01*
Y-666424D01*
Y-663375D01*
X2178399D01*
X2184497Y-660326D02*
Y-666424D01*
X2188562D01*
X2194660Y-660326D02*
X2190595D01*
Y-666424D01*
X2194660D01*
X2190595Y-663375D02*
X2192627D01*
X2196693Y-662358D02*
X2197709D01*
Y-663375D01*
X2196693D01*
Y-662358D01*
Y-665407D02*
X2197709D01*
Y-666424D01*
X2196693D01*
Y-665407D01*
X1637690Y-658386D02*
X1633625D01*
Y-661435D01*
X1635657D01*
X1633625D01*
Y-664484D01*
X1639723Y-658386D02*
X1641755D01*
X1640739D01*
Y-664484D01*
X1639723D01*
X1641755D01*
X1644804Y-658386D02*
Y-664484D01*
X1648870D01*
X1654968Y-658386D02*
X1650902D01*
Y-664484D01*
X1654968D01*
X1650902Y-661435D02*
X1652935D01*
X1663098Y-664484D02*
Y-658386D01*
X1667164Y-664484D01*
Y-658386D01*
X1669196Y-664484D02*
Y-660418D01*
X1671229Y-658386D01*
X1673262Y-660418D01*
Y-664484D01*
Y-661435D01*
X1669196D01*
X1675294Y-664484D02*
Y-658386D01*
X1677327Y-660418D01*
X1679360Y-658386D01*
Y-664484D01*
X1685458Y-658386D02*
X1681392D01*
Y-664484D01*
X1685458D01*
X1681392Y-661435D02*
X1683425D01*
X1687490Y-660418D02*
X1688507D01*
Y-661435D01*
X1687490D01*
Y-660418D01*
Y-663467D02*
X1688507D01*
Y-664484D01*
X1687490D01*
Y-663467D01*
X1635597Y-546028D02*
Y-539930D01*
X1638646D01*
X1639662Y-540946D01*
Y-542979D01*
X1638646Y-543995D01*
X1635597D01*
X1641695Y-546028D02*
Y-539930D01*
X1644744D01*
X1645760Y-540946D01*
Y-542979D01*
X1644744Y-543995D01*
X1641695D01*
X1643727D02*
X1645760Y-546028D01*
X1650842Y-539930D02*
X1648809D01*
X1647793Y-540946D01*
Y-545011D01*
X1648809Y-546028D01*
X1650842D01*
X1651858Y-545011D01*
Y-540946D01*
X1650842Y-539930D01*
X1657956D02*
X1655923D01*
X1656940D01*
Y-545011D01*
X1655923Y-546028D01*
X1654907D01*
X1653891Y-545011D01*
X1664054Y-539930D02*
X1659989D01*
Y-546028D01*
X1664054D01*
X1659989Y-542979D02*
X1662021D01*
X1670152Y-540946D02*
X1669136Y-539930D01*
X1667103D01*
X1666087Y-540946D01*
Y-545011D01*
X1667103Y-546028D01*
X1669136D01*
X1670152Y-545011D01*
X1672185Y-539930D02*
X1676250D01*
X1674217D01*
Y-546028D01*
X1678283Y-541962D02*
X1679299D01*
Y-542979D01*
X1678283D01*
Y-541962D01*
Y-545011D02*
X1679299D01*
Y-546028D01*
X1678283D01*
Y-545011D01*
X1254598Y-540184D02*
X1250533D01*
Y-546282D01*
X1254598D01*
X1250533Y-543233D02*
X1252565D01*
X1256631Y-546282D02*
Y-540184D01*
X1260696Y-546282D01*
Y-540184D01*
X1266794Y-541200D02*
X1265778Y-540184D01*
X1263745D01*
X1262729Y-541200D01*
Y-545265D01*
X1263745Y-546282D01*
X1265778D01*
X1266794Y-545265D01*
Y-543233D01*
X1264761D01*
X1268827Y-540184D02*
X1270859D01*
X1269843D01*
Y-546282D01*
X1268827D01*
X1270859D01*
X1273908D02*
Y-540184D01*
X1277974Y-546282D01*
Y-540184D01*
X1284072D02*
X1280006D01*
Y-546282D01*
X1284072D01*
X1280006Y-543233D02*
X1282039D01*
X1290170Y-540184D02*
X1286104D01*
Y-546282D01*
X1290170D01*
X1286104Y-543233D02*
X1288137D01*
X1292202Y-546282D02*
Y-540184D01*
X1295251D01*
X1296268Y-541200D01*
Y-543233D01*
X1295251Y-544249D01*
X1292202D01*
X1294235D02*
X1296268Y-546282D01*
X1298300Y-542216D02*
X1299317D01*
Y-543233D01*
X1298300D01*
Y-542216D01*
Y-545265D02*
X1299317D01*
Y-546282D01*
X1298300D01*
Y-545265D01*
X1252625Y-658386D02*
Y-664484D01*
X1255674D01*
X1256690Y-663467D01*
Y-659402D01*
X1255674Y-658386D01*
X1252625D01*
X1258723D02*
Y-664484D01*
X1260755Y-662451D01*
X1262788Y-664484D01*
Y-658386D01*
X1268886Y-659402D02*
X1267870Y-658386D01*
X1265837D01*
X1264821Y-659402D01*
Y-663467D01*
X1265837Y-664484D01*
X1267870D01*
X1268886Y-663467D01*
Y-661435D01*
X1266853D01*
X1277017Y-664484D02*
Y-658386D01*
X1281082Y-664484D01*
Y-658386D01*
X1286164D02*
X1284131D01*
X1283115Y-659402D01*
Y-663467D01*
X1284131Y-664484D01*
X1286164D01*
X1287180Y-663467D01*
Y-659402D01*
X1286164Y-658386D01*
X1289213Y-660418D02*
X1290229D01*
Y-661435D01*
X1289213D01*
Y-660418D01*
Y-663467D02*
X1290229D01*
Y-664484D01*
X1289213D01*
Y-663467D01*
X2167473Y-603686D02*
Y-597588D01*
X2170522D01*
X2171538Y-598604D01*
Y-600637D01*
X2170522Y-601653D01*
X2167473D01*
X2169505D02*
X2171538Y-603686D01*
X2177636Y-597588D02*
X2173571D01*
Y-603686D01*
X2177636D01*
X2173571Y-600637D02*
X2175603D01*
X2179669Y-597588D02*
Y-601653D01*
X2181701Y-603686D01*
X2183734Y-601653D01*
Y-597588D01*
X2185767Y-599620D02*
X2186783D01*
Y-600637D01*
X2185767D01*
Y-599620D01*
Y-602669D02*
X2186783D01*
Y-603686D01*
X2185767D01*
Y-602669D01*
X1251295Y-595302D02*
Y-601400D01*
X1254344D01*
X1255360Y-600383D01*
Y-596318D01*
X1254344Y-595302D01*
X1251295D01*
X1257393Y-601400D02*
Y-597334D01*
X1259425Y-595302D01*
X1261458Y-597334D01*
Y-601400D01*
Y-598351D01*
X1257393D01*
X1263491Y-595302D02*
X1267556D01*
X1265523D01*
Y-601400D01*
X1273654Y-595302D02*
X1269589D01*
Y-601400D01*
X1273654D01*
X1269589Y-598351D02*
X1271621D01*
X1275687Y-597334D02*
X1276703D01*
Y-598351D01*
X1275687D01*
Y-597334D01*
Y-600383D02*
X1276703D01*
Y-601400D01*
X1275687D01*
Y-600383D01*
X1327810Y-623844D02*
X1323745D01*
X1327810Y-619778D01*
Y-618762D01*
X1326794Y-617746D01*
X1324761D01*
X1323745Y-618762D01*
X1329843D02*
X1330859Y-617746D01*
X1332892D01*
X1333908Y-618762D01*
Y-622827D01*
X1332892Y-623844D01*
X1330859D01*
X1329843Y-622827D01*
Y-618762D01*
X1340006Y-623844D02*
X1335941D01*
X1340006Y-619778D01*
Y-618762D01*
X1338990Y-617746D01*
X1336957D01*
X1335941Y-618762D01*
X1342039D02*
X1343055Y-617746D01*
X1345088D01*
X1346104Y-618762D01*
Y-619778D01*
X1345088Y-620795D01*
X1344071D01*
X1345088D01*
X1346104Y-621811D01*
Y-622827D01*
X1345088Y-623844D01*
X1343055D01*
X1342039Y-622827D01*
X1348137Y-620795D02*
X1352202D01*
X1354235Y-618762D02*
X1355251Y-617746D01*
X1357284D01*
X1358300Y-618762D01*
Y-622827D01*
X1357284Y-623844D01*
X1355251D01*
X1354235Y-622827D01*
Y-618762D01*
X1364398Y-617746D02*
X1360333D01*
Y-620795D01*
X1362365Y-619778D01*
X1363382D01*
X1364398Y-620795D01*
Y-622827D01*
X1363382Y-623844D01*
X1361349D01*
X1360333Y-622827D01*
X1366431Y-620795D02*
X1370496D01*
X1372529Y-623844D02*
X1374561D01*
X1373545D01*
Y-617746D01*
X1372529Y-618762D01*
X1377610Y-617746D02*
X1381676D01*
Y-618762D01*
X1377610Y-622827D01*
Y-623844D01*
X1660550Y-686326D02*
X1656485D01*
Y-692424D01*
X1660550D01*
X1656485Y-689375D02*
X1658517D01*
X1662583Y-686326D02*
Y-690391D01*
X1664615Y-692424D01*
X1666648Y-690391D01*
Y-686326D01*
X1668681D02*
Y-692424D01*
Y-690391D01*
X1672746Y-686326D01*
X1669697Y-689375D01*
X1672746Y-692424D01*
X1674779Y-689375D02*
X1678844D01*
X1680877Y-686326D02*
X1682909D01*
X1681893D01*
Y-692424D01*
X1680877D01*
X1682909D01*
X1685958D02*
Y-686326D01*
X1689007D01*
X1690024Y-687342D01*
Y-689375D01*
X1689007Y-690391D01*
X1685958D01*
X1687991D02*
X1690024Y-692424D01*
X1692056Y-686326D02*
X1694089D01*
X1693073D01*
Y-692424D01*
X1692056D01*
X1694089D01*
X1701203Y-687342D02*
X1700187Y-686326D01*
X1698154D01*
X1697138Y-687342D01*
Y-688358D01*
X1698154Y-689375D01*
X1700187D01*
X1701203Y-690391D01*
Y-691407D01*
X1700187Y-692424D01*
X1698154D01*
X1697138Y-691407D01*
X1703236Y-689375D02*
X1707301D01*
X1709334Y-686326D02*
Y-692424D01*
X1711367Y-690391D01*
X1713399Y-692424D01*
Y-686326D01*
X1715432Y-692424D02*
X1717465D01*
X1716448D01*
Y-686326D01*
X1715432Y-687342D01*
X1720514Y-692424D02*
Y-691407D01*
X1721530D01*
Y-692424D01*
X1720514D01*
X1725595D02*
Y-686326D01*
X1728644D01*
X1729661Y-687342D01*
Y-689375D01*
X1728644Y-690391D01*
X1725595D01*
X1735759Y-688358D02*
X1732710D01*
X1731693Y-689375D01*
Y-691407D01*
X1732710Y-692424D01*
X1735759D01*
X1737791Y-686326D02*
Y-692424D01*
X1740840D01*
X1741857Y-691407D01*
Y-690391D01*
Y-689375D01*
X1740840Y-688358D01*
X1737791D01*
X1743889Y-686326D02*
Y-692424D01*
X1746938D01*
X1747955Y-691407D01*
Y-687342D01*
X1746938Y-686326D01*
X1743889D01*
X1751004Y-692424D02*
X1753036D01*
X1754053Y-691407D01*
Y-689375D01*
X1753036Y-688358D01*
X1751004D01*
X1749987Y-689375D01*
Y-691407D01*
X1751004Y-692424D01*
X1760151Y-688358D02*
X1757102D01*
X1756085Y-689375D01*
Y-691407D01*
X1757102Y-692424D01*
X1760151D01*
X960903Y-681101D02*
X960612Y-680520D01*
X960032Y-679939D01*
X959451Y-679649D01*
X958289D01*
X957708Y-679939D01*
X957127Y-680520D01*
X956837Y-681101D01*
X956547Y-681972D01*
Y-683424D01*
X956837Y-684296D01*
X957127Y-684876D01*
X957708Y-685457D01*
X958289Y-685748D01*
X959451D01*
X960032Y-685457D01*
X960612Y-684876D01*
X960903Y-684296D01*
X964359Y-679649D02*
X963778Y-679939D01*
X963197Y-680520D01*
X962907Y-681101D01*
X962616Y-681972D01*
Y-683424D01*
X962907Y-684296D01*
X963197Y-684876D01*
X963778Y-685457D01*
X964359Y-685748D01*
X965520D01*
X966101Y-685457D01*
X966682Y-684876D01*
X966973Y-684296D01*
X967263Y-683424D01*
Y-681972D01*
X966973Y-681101D01*
X966682Y-680520D01*
X966101Y-679939D01*
X965520Y-679649D01*
X964359D01*
X968686D02*
Y-685748D01*
Y-679649D02*
X972752Y-685748D01*
Y-679649D02*
Y-685748D01*
X974436Y-679649D02*
Y-685748D01*
Y-679649D02*
X978212D01*
X974436Y-682553D02*
X976759D01*
X978908Y-679649D02*
Y-685748D01*
X980186Y-679649D02*
Y-685748D01*
Y-679649D02*
X982219D01*
X983090Y-679939D01*
X983671Y-680520D01*
X983962Y-681101D01*
X984252Y-681972D01*
Y-683424D01*
X983962Y-684296D01*
X983671Y-684876D01*
X983090Y-685457D01*
X982219Y-685748D01*
X980186D01*
X989392Y-679649D02*
X985617D01*
Y-685748D01*
X989392D01*
X985617Y-682553D02*
X987940D01*
X990409Y-679649D02*
Y-685748D01*
Y-679649D02*
X994475Y-685748D01*
Y-679649D02*
Y-685748D01*
X998192Y-679649D02*
Y-685748D01*
X996159Y-679649D02*
X1000225D01*
X1000951D02*
Y-685748D01*
X1006875D02*
X1004552Y-679649D01*
X1002229Y-685748D01*
X1003100Y-683715D02*
X1006004D01*
X1008298Y-679649D02*
Y-685748D01*
X1011783D01*
X2291485Y1190734D02*
Y1184636D01*
Y1187685D01*
X2292501Y1188702D01*
X2294534D01*
X2295550Y1187685D01*
Y1184636D01*
X2298599Y1188702D02*
X2300632D01*
X2301648Y1187685D01*
Y1184636D01*
X2298599D01*
X2297583Y1185653D01*
X2298599Y1186669D01*
X2301648D01*
X2303681Y1190734D02*
Y1184636D01*
X2306730D01*
X2307746Y1185653D01*
Y1186669D01*
Y1187685D01*
X2306730Y1188702D01*
X2303681D01*
X2313844Y1190734D02*
Y1184636D01*
X2310795D01*
X2309779Y1185653D01*
Y1187685D01*
X2310795Y1188702D01*
X2313844D01*
X2127910Y1182096D02*
X2123845D01*
X2127910Y1186162D01*
Y1187178D01*
X2126894Y1188194D01*
X2124861D01*
X2123845Y1187178D01*
X2129943D02*
X2130959Y1188194D01*
X2132992D01*
X2134008Y1187178D01*
Y1183113D01*
X2132992Y1182096D01*
X2130959D01*
X2129943Y1183113D01*
Y1187178D01*
X2140106Y1182096D02*
X2136041D01*
X2140106Y1186162D01*
Y1187178D01*
X2139090Y1188194D01*
X2137057D01*
X2136041Y1187178D01*
X2142139D02*
X2143155Y1188194D01*
X2145188D01*
X2146204Y1187178D01*
Y1186162D01*
X2145188Y1185145D01*
X2144171D01*
X2145188D01*
X2146204Y1184129D01*
Y1183113D01*
X2145188Y1182096D01*
X2143155D01*
X2142139Y1183113D01*
X2148237Y1185145D02*
X2152302D01*
X2154335Y1187178D02*
X2155351Y1188194D01*
X2157384D01*
X2158400Y1187178D01*
Y1183113D01*
X2157384Y1182096D01*
X2155351D01*
X2154335Y1183113D01*
Y1187178D01*
X2164498Y1188194D02*
X2160433D01*
Y1185145D01*
X2162465Y1186162D01*
X2163482D01*
X2164498Y1185145D01*
Y1183113D01*
X2163482Y1182096D01*
X2161449D01*
X2160433Y1183113D01*
X2166531Y1185145D02*
X2170596D01*
X2172629Y1182096D02*
X2174661D01*
X2173645D01*
Y1188194D01*
X2172629Y1187178D01*
X2177710Y1188194D02*
X2181776D01*
Y1187178D01*
X2177710Y1183113D01*
Y1182096D01*
D15*
X189582Y702806D02*
G03*
X189582Y702806I-5000J0D01*
G01*
X458574Y814592D02*
G03*
X458574Y814592I-5000J0D01*
G01*
X903095Y551663D02*
G03*
X903095Y551663I-5000J0D01*
G01*
X404954Y782274D02*
G03*
X404954Y782274I-5000J0D01*
G01*
X552214Y68226D02*
G03*
X550652Y61538I11106J-6120D01*
G01*
X550918Y56832D02*
G03*
X550652Y61538I-36417J303D01*
G01*
X550208Y28113D02*
G03*
X550918Y56832I-245933J20444D01*
G01*
X540520Y1256D02*
G03*
X550208Y28113I-74500J42050D01*
G01*
X367388Y61538D02*
G03*
X365827Y68226I-12668J569D01*
G01*
X367388Y61538D02*
G03*
X367122Y56832I36151J-4403D01*
G01*
D02*
G03*
X367832Y28113I246642J-8275D01*
G01*
D02*
G03*
X377520Y1256I84188J15193D01*
G01*
X889798Y1026226D02*
G03*
X889798Y1026226I-5000J0D01*
G01*
X451868Y341892D02*
Y358132D01*
X422368Y341892D02*
X451868D01*
X422368D02*
Y358132D01*
X451868D01*
X442368D02*
X451868Y348632D01*
X176460Y209918D02*
X181490Y204888D01*
X163370Y209918D02*
X181490D01*
X163370Y189799D02*
Y209918D01*
Y189799D02*
X181490D01*
Y209918D01*
X875489Y506391D02*
Y523891D01*
X841989Y506391D02*
Y523891D01*
Y506391D02*
X875489D01*
X841989Y523891D02*
X875489D01*
X544574Y805592D02*
Y905592D01*
X444574Y805592D02*
Y905592D01*
X544574D01*
X444574Y805592D02*
X544574D01*
X877095Y560663D02*
X907095D01*
X877095Y530663D02*
X907095D01*
Y560663D01*
X877095Y530663D02*
Y560663D01*
X408954Y760274D02*
Y791274D01*
X387954Y760274D02*
Y791274D01*
Y760274D02*
X408954D01*
X387954Y791274D02*
X408954D01*
X377520Y1156D02*
X540520D01*
Y257156D01*
X377520Y1156D02*
Y257156D01*
X540520D01*
X390920D02*
Y269156D01*
X394920D01*
Y257156D02*
Y269156D01*
X413320Y257156D02*
Y269156D01*
X409320D02*
X413320D01*
X409320Y257156D02*
Y269156D01*
X425320Y257156D02*
Y269156D01*
X421320D02*
X425320D01*
X421320Y257156D02*
Y269156D01*
X435520Y257156D02*
Y269156D01*
X431520D02*
X435520D01*
X431520Y257156D02*
Y269156D01*
X445720Y257156D02*
Y269156D01*
X441720D02*
X445720D01*
X441720Y257156D02*
Y269156D01*
X455920Y257156D02*
Y269156D01*
X451920D02*
X455920D01*
X451920Y257156D02*
Y269156D01*
X466120Y257156D02*
Y269156D01*
X462120D02*
X466120D01*
X462120Y257156D02*
Y269156D01*
X476320Y257156D02*
Y269156D01*
X472320D02*
X476320D01*
X472320Y257156D02*
Y269156D01*
X486520Y257156D02*
Y269156D01*
X482520D02*
X486520D01*
X482520Y257156D02*
Y269156D01*
X496720Y257156D02*
Y269156D01*
X492720D02*
X496720D01*
X492720Y257156D02*
Y269156D01*
X508720Y257156D02*
Y269156D01*
X504720D02*
X508720D01*
X504720Y257156D02*
Y269156D01*
X527120Y257156D02*
Y269156D01*
X523120D02*
X527120D01*
X523120Y257156D02*
Y269156D01*
X900814Y104322D02*
X918314D01*
X900814Y137822D02*
X918314D01*
X900814Y104322D02*
Y137822D01*
X918314Y104322D02*
Y137822D01*
X222374Y299348D02*
X239874D01*
X222374Y332848D02*
X239874D01*
X222374Y299348D02*
Y332848D01*
X239874Y299348D02*
Y332848D01*
X40713Y111776D02*
X58213D01*
X40713Y78276D02*
X58213D01*
Y111776D01*
X40713Y78276D02*
Y111776D01*
D18*
X-301915Y-710874D02*
X2390485D01*
X-301915D02*
Y1346526D01*
X-352655Y-761004D02*
Y1397996D01*
X-352715Y857576D02*
X-301915D01*
X-352715Y317826D02*
X-301915D01*
X-352715Y-221924D02*
X-301915D01*
X345785Y-761674D02*
Y-710874D01*
X1044285Y-761674D02*
Y-710874D01*
X1742785Y-761674D02*
Y-710874D01*
X-301915Y1346526D02*
X2390485D01*
X345785D02*
Y1397326D01*
X1044285Y1346526D02*
Y1397326D01*
X1742785Y1346526D02*
Y1397326D01*
X-352655Y1397996D02*
X2441345D01*
Y-761004D02*
Y1397996D01*
X2390485Y-710874D02*
Y1346526D01*
Y857576D02*
X2441285D01*
X2390485Y317826D02*
X2441285D01*
X2390485Y-221924D02*
X2441285D01*
X-352655Y-761004D02*
X2441345D01*
X1516785Y1131296D02*
Y1347196D01*
Y1131296D02*
X2390545D01*
X1516785Y1169396D02*
X2390485D01*
X1516785Y1245596D02*
X2390545D01*
X1516785Y1207496D02*
X2390485D01*
X1516785Y1288776D02*
X2390485D01*
X1608225Y1131296D02*
Y1288776D01*
X2103525Y1131296D02*
Y1288776D01*
X2273705Y1131296D02*
Y1288776D01*
X1628485Y-558474D02*
Y-521898D01*
X1247485D02*
X1628485D01*
X818285D02*
X1247485D01*
X1628485Y-710874D02*
Y-558474D01*
X2161885Y-710874D02*
Y-581080D01*
X1247485Y-710874D02*
Y-521898D01*
X2390485Y-710874D02*
Y-521898D01*
X1628485D02*
X2390485D01*
X1247485Y-580318D02*
X2390485D01*
X1247485Y-643564D02*
X2390485D01*
X1247485Y-710874D02*
X2390485D01*
X818285D02*
Y-521898D01*
Y-710874D02*
X1247485D01*
D19*
X839772Y428648D02*
X847772D01*
X839772Y415648D02*
Y428648D01*
Y415648D02*
X847772D01*
Y428648D01*
X593994Y140122D02*
X619994D01*
Y180762D01*
X593994D02*
X619994D01*
X593994Y140122D02*
Y180762D01*
X315197Y176736D02*
Y217376D01*
X341197D01*
Y176736D02*
Y217376D01*
X315197Y176736D02*
X341197D01*
X782019Y76970D02*
Y102970D01*
X741379D02*
X782019D01*
X741379Y76970D02*
Y102970D01*
Y76970D02*
X782019D01*
X216996Y231394D02*
X242996D01*
Y272034D01*
X216996D02*
X242996D01*
X216996Y231394D02*
Y272034D01*
X805954Y428648D02*
X813954D01*
X805954Y415648D02*
Y428648D01*
Y415648D02*
X813954D01*
Y428648D01*
X825227Y415648D02*
Y428648D01*
X817227Y415648D02*
X825227D01*
X817227D02*
Y428648D01*
X825227D01*
X794682D02*
X802682D01*
X794682Y415648D02*
Y428648D01*
Y415648D02*
X802682D01*
Y428648D01*
X836499Y415648D02*
Y428648D01*
X828500Y415648D02*
X836499D01*
X828500D02*
Y428648D01*
X836499D01*
X2324939Y32613D02*
Y56743D01*
X2091259Y32613D02*
X2324939D01*
X2091259D02*
Y56743D01*
X2324939D01*
D21*
X432964Y778692D02*
G03*
X432964Y778692I-2000J0D01*
G01*
X426464Y781692D02*
G03*
X428464Y783692I0J2000D01*
G01*
Y749692D02*
G03*
X426464Y751692I-2000J0D01*
G01*
X453464D02*
G03*
X451464Y749692I0J-2000D01*
G01*
Y783692D02*
G03*
X453464Y781692I2000J0D01*
G01*
X882799Y78901D02*
G03*
X882799Y78901I-3900J0D01*
G01*
X789130Y119802D02*
G03*
X789130Y119802I-1250J0D01*
G01*
X275951Y852110D02*
G03*
X275951Y852110I-3758J0D01*
G01*
X767382Y867680D02*
G03*
X767382Y867680I-1275J0D01*
G01*
X338463Y454802D02*
G03*
X338463Y454802I-1481J0D01*
G01*
X769699Y219086D02*
G03*
X769699Y219086I-1250J0D01*
G01*
X69716Y1055744D02*
G03*
X69716Y1055744I-1626J0D01*
G01*
X644870Y77652D02*
G03*
X644870Y77652I-2540J0D01*
G01*
X263564D02*
G03*
X263564Y77652I-2540J0D01*
G01*
X767382Y903240D02*
G03*
X767382Y903240I-1275J0D01*
G01*
Y832120D02*
G03*
X767382Y832120I-1275J0D01*
G01*
X133116Y77652D02*
G03*
X133116Y77652I-2540J0D01*
G01*
X807354Y482854D02*
G03*
X807354Y482854I-6000J0D01*
G01*
X550360Y627802D02*
G03*
X550360Y627802I-6000J0D01*
G01*
X737504Y588010D02*
G03*
X737504Y588010I-6000J0D01*
G01*
X534304Y399288D02*
G03*
X534304Y399288I-6000J0D01*
G01*
X488584Y515112D02*
G03*
X488584Y515112I-6000J0D01*
G01*
X662828Y609346D02*
G03*
X662828Y609346I-6000J0D01*
G01*
X267096Y543560D02*
G03*
X267096Y543560I-6000J0D01*
G01*
X453464Y751692D02*
Y781692D01*
X428464Y749692D02*
X451465D01*
X426464Y751692D02*
Y781692D01*
X428464Y783692D02*
X451465D01*
X423662Y1025239D02*
Y1041239D01*
X390662Y1025239D02*
Y1041239D01*
Y1025239D02*
X423662D01*
X390662Y1041239D02*
X423662D01*
X707857Y317500D02*
X737857D01*
X707857Y362500D02*
X737857D01*
X707857Y317500D02*
Y362500D01*
X737857Y317500D02*
Y362500D01*
X896418Y417922D02*
X926418D01*
X896418Y462922D02*
X926418D01*
X896418Y417922D02*
Y462922D01*
X926418Y417922D02*
Y462922D01*
X31058Y561504D02*
Y651504D01*
X93060D01*
Y561504D02*
Y651504D01*
X31058Y561504D02*
X93060D01*
X884899Y48903D02*
Y84901D01*
X794902Y48903D02*
X884899D01*
X794902D02*
Y84901D01*
X884899D01*
X790320Y117902D02*
Y134402D01*
X777820Y117902D02*
Y134402D01*
Y117902D02*
X790320D01*
X777820Y134402D02*
X790320D01*
X196462Y138792D02*
X213462D01*
X196462Y152292D02*
X213462D01*
X196462Y138792D02*
Y152292D01*
X213462Y138792D02*
Y152292D01*
X63632Y364512D02*
Y378012D01*
X84632Y364512D02*
Y378012D01*
X63632Y364512D02*
X84632D01*
X63632Y378012D02*
X84632D01*
X484728Y451094D02*
Y481594D01*
X498728Y451094D02*
Y481594D01*
X484728D02*
X498728D01*
X484728Y451094D02*
X498728D01*
X193332Y694056D02*
Y756057D01*
X131332Y694056D02*
Y756057D01*
Y694056D02*
X193332D01*
X131332Y756057D02*
X193332D01*
X71005Y891716D02*
Y897716D01*
X63005Y891716D02*
Y897716D01*
Y891716D02*
X71005D01*
X63005Y897716D02*
X71005D01*
X112824Y105475D02*
X118824D01*
X112824Y113475D02*
X118824D01*
X112824Y105475D02*
Y113475D01*
X118824Y105475D02*
Y113475D01*
X291942Y661258D02*
Y864458D01*
X266442Y661258D02*
X291942D01*
X266442D02*
Y864458D01*
X291942D01*
X279954Y1250180D02*
X305354D01*
X305354Y1069840D02*
Y1278120D01*
X279954Y1069840D02*
X305354D01*
X279954D02*
Y1278120D01*
X305354D01*
X763858Y848180D02*
Y870180D01*
X777357Y848180D02*
Y870180D01*
X763858D02*
X777357D01*
X763858Y848180D02*
X777357D01*
X51035Y397078D02*
Y406578D01*
X68035Y397078D02*
Y406578D01*
X51035D02*
X68035D01*
X51035Y397078D02*
X68035D01*
X377927Y796514D02*
X383927D01*
X377927Y785514D02*
X383927D01*
Y796514D01*
X377927Y785514D02*
Y796514D01*
X234816Y1154108D02*
X240816D01*
X234816Y1165108D02*
X240816D01*
X234816Y1154108D02*
Y1165108D01*
X240816Y1154108D02*
Y1165108D01*
X579906Y414274D02*
X720906D01*
X579906D02*
Y555274D01*
X720906D01*
Y414274D02*
Y555274D01*
X330524Y501900D02*
X380524D01*
Y451900D02*
Y501900D01*
X330524Y451900D02*
X380524D01*
X330524D02*
Y501900D01*
X764890Y192700D02*
Y223150D01*
X795310D01*
X764890Y192700D02*
X795310D01*
Y223150D01*
X919029Y591600D02*
Y727600D01*
X774029D02*
X919029D01*
X774029Y591600D02*
Y727600D01*
Y591600D02*
X919029D01*
X136446Y258446D02*
Y274446D01*
Y258446D02*
X144446D01*
Y274446D01*
X136446D02*
X144446D01*
X137906Y267716D02*
X142986D01*
X137906Y265176D02*
X140446Y267716D01*
X142986Y265176D01*
X137906D02*
X142986D01*
X54201Y1041603D02*
Y1058203D01*
Y1041603D02*
X70802D01*
Y1058203D01*
X54201D02*
X70802D01*
X537312Y1086122D02*
X544312Y1093622D01*
Y1086122D02*
Y1295122D01*
X398312D02*
X544312D01*
X398312Y1086122D02*
Y1295122D01*
Y1086122D02*
X544312D01*
X826352Y163142D02*
Y183142D01*
X810352Y163142D02*
Y183142D01*
X826352D01*
X810352Y163142D02*
X826352D01*
X464421Y767572D02*
X473420D01*
X464421Y750572D02*
Y767572D01*
X473420Y750572D02*
Y767572D01*
X464421Y750572D02*
X473420D01*
X334422Y112408D02*
Y129908D01*
X324422Y112408D02*
X334422D01*
X324422D02*
Y129908D01*
X334422D01*
X335708Y407922D02*
Y418422D01*
X330208Y407922D02*
Y418422D01*
X335708D01*
X330208Y407922D02*
X335708D01*
X249138Y968643D02*
X325338Y968642D01*
X828060Y756688D02*
Y791188D01*
X896060Y756688D02*
Y791188D01*
X828060D02*
X896060D01*
X828060Y756688D02*
X896060D01*
X625062Y-78D02*
Y81722D01*
X714462D01*
Y-78D02*
Y81722D01*
X625062Y-78D02*
X714462D01*
X243756D02*
X333157D01*
Y81722D01*
X243756D02*
X333157D01*
X243756Y-78D02*
Y81722D01*
X791466Y238692D02*
Y272692D01*
X764466Y238692D02*
Y272692D01*
X791466D01*
X764466Y238692D02*
X791466D01*
X571445Y616670D02*
Y631170D01*
X593445Y616670D02*
Y631170D01*
X571445D02*
X593445D01*
X571445Y616670D02*
X593445D01*
X811356Y126869D02*
Y148869D01*
X825856Y126869D02*
Y148869D01*
X811356Y126869D02*
X825856D01*
X811356Y148869D02*
X825856D01*
X884761Y522506D02*
X894261D01*
X884761Y505006D02*
X894261D01*
Y522506D01*
X884761Y505006D02*
Y522506D01*
X391548Y523126D02*
X401048D01*
X391548Y540626D02*
X401048D01*
X391548Y523126D02*
Y540626D01*
X401048Y523126D02*
Y540626D01*
X111052Y1111546D02*
X117052D01*
X111052Y1100546D02*
Y1111546D01*
Y1100546D02*
X117052D01*
Y1111546D01*
X349666Y428508D02*
Y440508D01*
X342666Y428508D02*
Y440508D01*
X349666D01*
X342666Y428508D02*
X349666D01*
X530263Y508166D02*
X536263D01*
X530263Y497166D02*
Y508166D01*
Y497166D02*
X536263D01*
Y508166D01*
X732608Y170132D02*
X743608D01*
Y164132D02*
Y170132D01*
X732608Y164132D02*
X743608D01*
X732608D02*
Y170132D01*
X757757Y606142D02*
X765757D01*
X757757Y590142D02*
X765757D01*
Y606142D01*
X757757Y590142D02*
Y606142D01*
X660954Y1250180D02*
X686354D01*
X686355Y1069840D02*
Y1278120D01*
X660955Y1069840D02*
X686355D01*
X660955D02*
Y1278120D01*
X686355D01*
X838755D02*
X864155D01*
X838755Y1069840D02*
Y1278120D01*
Y1069840D02*
X864155D01*
Y1278120D01*
X838754Y1250180D02*
X864154D01*
Y310180D02*
X889554D01*
X889555Y129840D02*
Y338120D01*
X864155Y129840D02*
X889555D01*
X864155D02*
Y338120D01*
X889555D01*
X635555Y1278120D02*
X660955D01*
X635555Y1069840D02*
Y1278120D01*
Y1069840D02*
X660955D01*
Y1278120D01*
X635554Y1250180D02*
X660954D01*
X864154D02*
X889554D01*
X889555Y1069840D02*
Y1278120D01*
X864155Y1069840D02*
X889555D01*
X864155D02*
Y1278120D01*
X889555D01*
X660955Y338120D02*
X686355D01*
X660955Y129840D02*
Y338120D01*
Y129840D02*
X686355D01*
Y338120D01*
X660954Y310180D02*
X686354D01*
X838755Y338120D02*
X864155D01*
X838755Y129840D02*
Y338120D01*
Y129840D02*
X864155D01*
Y338120D01*
X838754Y310180D02*
X864154D01*
X520854Y757112D02*
Y766112D01*
X503854D02*
X520854D01*
X503854Y757112D02*
X520854D01*
X503854D02*
Y766112D01*
X519808Y773090D02*
X530808D01*
X519808Y779090D02*
X530808D01*
Y773090D02*
Y779090D01*
X519808Y773090D02*
Y779090D01*
X535420Y847552D02*
Y858552D01*
X529420Y847552D02*
X535420D01*
X529420D02*
Y858552D01*
X535420D01*
X511934Y781726D02*
X522934D01*
X511934D02*
Y787726D01*
X522934D01*
Y781726D02*
Y787726D01*
X525634Y824232D02*
X534634D01*
Y841232D01*
X525634Y824232D02*
Y841232D01*
X534634D01*
X526784Y847552D02*
Y858552D01*
X520784Y847552D02*
X526784D01*
X520784D02*
Y858552D01*
X526784D01*
X520784Y874808D02*
X526784D01*
X520784Y863808D02*
X526784D01*
Y874808D01*
X520784Y863808D02*
Y874808D01*
Y880064D02*
X526784D01*
X520784Y891064D02*
X526784D01*
X520784Y880064D02*
Y891064D01*
X526784Y880064D02*
Y891064D01*
X511575Y922442D02*
X522574D01*
X511575D02*
Y928442D01*
X522574D01*
Y922442D02*
Y928442D01*
X495424Y773090D02*
X506424D01*
X495424D02*
Y779090D01*
X506424D01*
Y773090D02*
Y779090D01*
X482334Y752302D02*
Y763302D01*
X476334Y752302D02*
Y763302D01*
X482334D01*
X476334Y752302D02*
X482334D01*
X495424Y781726D02*
X506424D01*
X495424D02*
Y787726D01*
X506424D01*
Y781726D02*
Y787726D01*
X468246Y781472D02*
X479246D01*
X468246D02*
Y787472D01*
X479246D01*
Y781472D02*
Y787472D01*
X468246Y772836D02*
X479246D01*
X468246D02*
Y778836D01*
X479246D01*
Y772836D02*
Y778836D01*
X435734Y743530D02*
X446735D01*
Y737530D02*
Y743530D01*
X435734Y737530D02*
X446735D01*
X435734D02*
Y743530D01*
X416255Y801792D02*
Y807792D01*
X405254Y801792D02*
Y807792D01*
Y801792D02*
X416255D01*
X405254Y807792D02*
X416255D01*
X403044Y740810D02*
X409044D01*
Y751810D01*
X403044D02*
X409044D01*
X403044Y740810D02*
Y751810D01*
X414612Y762462D02*
X420612D01*
Y773462D01*
X414612D02*
X420612D01*
X414612Y762462D02*
Y773462D01*
X386996Y736281D02*
Y742281D01*
X397997Y736281D02*
Y742281D01*
X386996D02*
X397997D01*
X386996Y736281D02*
X397997D01*
X503004Y815802D02*
Y826802D01*
X509004D01*
Y815802D02*
Y826802D01*
X503004Y815802D02*
X509004D01*
X490074Y924434D02*
Y935434D01*
X484074Y924434D02*
X490074D01*
X484074D02*
Y935434D01*
X490074D01*
X473580Y887802D02*
X484580D01*
Y881802D02*
Y887802D01*
X473580Y881802D02*
X484580D01*
X473580D02*
Y887802D01*
X430614Y800562D02*
X436614D01*
Y811562D01*
X430614D02*
X436614D01*
X430614Y800562D02*
Y811562D01*
X436614Y899622D02*
Y910622D01*
X430614Y899622D02*
X436614D01*
X430614D02*
Y910622D01*
X436614D01*
X421724Y881842D02*
X427724D01*
Y892842D01*
X421724D02*
X427724D01*
X421724Y881842D02*
Y892842D01*
X400174Y810682D02*
Y816682D01*
X411175Y810682D02*
Y816682D01*
X400174D02*
X411175D01*
X400174Y810682D02*
X411175D01*
X410588Y855132D02*
Y861132D01*
Y855132D02*
X421589D01*
Y861132D01*
X410588D02*
X421589D01*
X387220Y807792D02*
X398220D01*
X387220Y801792D02*
X398220D01*
X387220D02*
Y807792D01*
X398220Y801792D02*
Y807792D01*
X578815Y830092D02*
Y836092D01*
X567814D02*
X578815D01*
X567814Y830092D02*
Y836092D01*
Y830092D02*
X578815D01*
X561424Y898684D02*
X567424D01*
X561424Y887684D02*
Y898684D01*
Y887684D02*
X567424D01*
Y898684D01*
X490812Y732744D02*
Y743744D01*
X496812Y732744D02*
Y743744D01*
X490812Y732744D02*
X496812D01*
X490812Y743744D02*
X496812D01*
X482430Y732744D02*
Y743744D01*
X488430Y732744D02*
Y743744D01*
X482430Y732744D02*
X488430D01*
X482430Y743744D02*
X488430D01*
X310420Y428840D02*
Y439840D01*
X316420D01*
Y428840D02*
Y439840D01*
X310420Y428840D02*
X316420D01*
X572910Y601548D02*
Y611048D01*
X590410Y601548D02*
Y611048D01*
X572910D02*
X590410D01*
X572910Y601548D02*
X590410D01*
X288880Y930138D02*
Y939638D01*
X271880Y930138D02*
Y939638D01*
Y930138D02*
X288880D01*
X271880Y939638D02*
X288880D01*
X176288Y166880D02*
X182288D01*
Y177880D01*
X176288D02*
X182288D01*
X176288Y166880D02*
Y177880D01*
X339944Y126912D02*
X345944D01*
X339944Y115912D02*
Y126912D01*
Y115912D02*
X345944D01*
Y126912D01*
X223314Y94242D02*
X229314D01*
X223314Y105241D02*
X229314D01*
X223314Y94242D02*
Y105241D01*
X229314Y94242D02*
Y105241D01*
X223116Y70874D02*
X229116D01*
X223116Y81873D02*
X229116D01*
X223116Y70874D02*
Y81873D01*
X229116Y70874D02*
Y81873D01*
X229500Y715700D02*
Y721700D01*
X218500Y715700D02*
Y721700D01*
Y715700D02*
X229500D01*
X218500Y721700D02*
X229500D01*
X273150Y1026069D02*
X290150D01*
X273150Y1035569D02*
X290150D01*
Y1026069D02*
Y1035569D01*
X273150Y1026069D02*
Y1035569D01*
X57885Y449388D02*
X73885D01*
Y457388D01*
X57885D02*
X73885D01*
X57885Y449388D02*
Y457388D01*
X64615Y450848D02*
Y455928D01*
Y453388D02*
X67155Y450848D01*
X64615Y453388D02*
X67155Y455928D01*
Y450848D02*
Y455928D01*
X236632Y188710D02*
Y206209D01*
X226632Y188710D02*
X236632D01*
X226632D02*
Y206209D01*
X236632D01*
X238284Y157392D02*
X244284D01*
X238284Y146392D02*
Y157392D01*
Y146392D02*
X244284D01*
Y157392D01*
X635554Y310180D02*
X660954D01*
X660955Y129840D02*
Y338120D01*
X635555Y129840D02*
X660955D01*
X635555D02*
Y338120D01*
X660955D01*
X249253Y872376D02*
X325453Y872376D01*
X613338Y925390D02*
X630338D01*
X613338Y934890D02*
X630338D01*
Y925390D02*
Y934890D01*
X613338Y925390D02*
Y934890D01*
Y897563D02*
X630338D01*
X613338Y907063D02*
X630338D01*
Y897563D02*
Y907063D01*
X613338Y897563D02*
Y907063D01*
Y883791D02*
X630338D01*
X613338Y893291D02*
X630338D01*
Y883791D02*
Y893291D01*
X613338Y883791D02*
Y893291D01*
Y911477D02*
X630338D01*
X613338Y920977D02*
X630338D01*
Y911477D02*
Y920977D01*
X613338Y911477D02*
Y920977D01*
X72017Y648464D02*
Y654464D01*
X64017Y648464D02*
Y654464D01*
Y648464D02*
X72017D01*
X64017Y654464D02*
X72017D01*
X763858Y883740D02*
Y905740D01*
X777357Y883740D02*
Y905740D01*
X763858D02*
X777357D01*
X763858Y883740D02*
X777357D01*
X763858Y812620D02*
Y834620D01*
X777357Y812620D02*
Y834620D01*
X763858D02*
X777357D01*
X763858Y812620D02*
X777357D01*
X836564Y885240D02*
Y891240D01*
X847564Y885240D02*
Y891240D01*
X836564D02*
X847564D01*
X836564Y885240D02*
X847564D01*
X862004Y897240D02*
X878004D01*
Y905240D01*
X862004D02*
X878004D01*
X862004Y897240D02*
Y905240D01*
X868734Y898700D02*
Y903780D01*
Y901240D02*
X871274Y898700D01*
X868734Y901240D02*
X871274Y903780D01*
Y898700D02*
Y903780D01*
X862004Y848680D02*
X878004D01*
Y856680D01*
X862004D02*
X878004D01*
X862004Y848680D02*
Y856680D01*
X868734Y850140D02*
Y855220D01*
Y852680D02*
X871274Y850140D01*
X868734Y852680D02*
X871274Y855220D01*
Y850140D02*
Y855220D01*
X862004Y861680D02*
X878004D01*
Y869680D01*
X862004D02*
X878004D01*
X862004Y861680D02*
Y869680D01*
X868734Y863140D02*
Y868220D01*
Y865680D02*
X871274Y863140D01*
X868734Y865680D02*
X871274Y868220D01*
Y863140D02*
Y868220D01*
X862004Y813120D02*
X878004D01*
Y821120D01*
X862004D02*
X878004D01*
X862004Y813120D02*
Y821120D01*
X868734Y814580D02*
Y819660D01*
Y817120D02*
X871274Y814580D01*
X868734Y817120D02*
X871274Y819660D01*
Y814580D02*
Y819660D01*
X836564Y898240D02*
X847564D01*
X836564Y904240D02*
X847564D01*
Y898240D02*
Y904240D01*
X836564Y898240D02*
Y904240D01*
Y849680D02*
X847564D01*
X836564Y855680D02*
X847564D01*
Y849680D02*
Y855680D01*
X836564Y849680D02*
Y855680D01*
Y862680D02*
X847564D01*
X836564Y868680D02*
X847564D01*
Y862680D02*
Y868680D01*
X836564Y862680D02*
Y868680D01*
Y814120D02*
X847564D01*
X836564Y820120D02*
X847564D01*
Y814120D02*
Y820120D01*
X836564Y814120D02*
Y820120D01*
Y827120D02*
X847564D01*
X836564Y833120D02*
X847564D01*
Y827120D02*
Y833120D01*
X836564Y827120D02*
Y833120D01*
X871274Y827580D02*
Y832660D01*
X868734Y830120D02*
X871274Y832660D01*
X868734Y830120D02*
X871274Y827580D01*
X868734D02*
Y832660D01*
X862004Y826120D02*
Y834120D01*
X878004D01*
Y826120D02*
Y834120D01*
X862004Y826120D02*
X878004D01*
X95685Y1046649D02*
Y1052649D01*
X84685Y1046649D02*
Y1052649D01*
Y1046649D02*
X95685D01*
X84685Y1052649D02*
X95685D01*
Y1036489D02*
Y1042489D01*
X84685Y1036489D02*
Y1042489D01*
Y1036489D02*
X95685D01*
X84685Y1042489D02*
X95685D01*
X84685Y1062809D02*
X95685D01*
X84685Y1056809D02*
X95685D01*
X84685D02*
Y1062809D01*
X95685Y1056809D02*
Y1062809D01*
X72021Y775680D02*
Y781680D01*
X64021Y775680D02*
Y781680D01*
Y775680D02*
X72021D01*
X64021Y781680D02*
X72021D01*
X31062Y689228D02*
Y779228D01*
X93064D01*
Y689228D02*
Y779228D01*
X31062Y689228D02*
X93064D01*
X31062Y805264D02*
Y895264D01*
X93064D01*
Y805264D02*
Y895264D01*
X31062Y805264D02*
X93064D01*
X503110Y292629D02*
Y303629D01*
X497110Y292629D02*
X503110D01*
X497110D02*
Y303629D01*
X503110D01*
X438086Y292629D02*
Y303629D01*
X432086Y292629D02*
X438086D01*
X432086D02*
Y303629D01*
X438086D01*
X492823Y1019088D02*
X503824D01*
X492823D02*
Y1025088D01*
X503824D01*
Y1019088D02*
Y1025088D01*
X472051Y1018032D02*
Y1024032D01*
Y1018032D02*
X483051D01*
Y1024032D01*
X472051D02*
X483051D01*
X390740Y1012332D02*
X401740D01*
X390740D02*
Y1018332D01*
X401740D01*
Y1012332D02*
Y1018332D01*
X413600Y1012332D02*
Y1018332D01*
Y1012332D02*
X424600D01*
Y1018332D01*
X413600D02*
X424600D01*
X550678Y750026D02*
X585178D01*
X550678Y682026D02*
X585178D01*
Y750026D01*
X550678Y682026D02*
Y750026D01*
X51354Y310180D02*
X76754D01*
X76754Y129840D02*
Y338120D01*
X51354Y129840D02*
X76754D01*
X51354D02*
Y338120D01*
X76754D01*
X279954D02*
X305354D01*
X279954Y129840D02*
Y338120D01*
Y129840D02*
X305354D01*
Y338120D01*
X279954Y310180D02*
X305354D01*
X76754Y338120D02*
X102155D01*
X76754Y129840D02*
Y338120D01*
Y129840D02*
X102155D01*
Y338120D01*
X76754Y310180D02*
X102154D01*
X254555Y338120D02*
X279954D01*
X254555Y129840D02*
Y338120D01*
Y129840D02*
X279954D01*
Y338120D01*
X254554Y310180D02*
X279954D01*
X76754Y1250180D02*
X102154D01*
X102155Y1069840D02*
Y1278120D01*
X76754Y1069840D02*
X102155D01*
X76754D02*
Y1278120D01*
X102155D01*
X254554Y1250180D02*
X279954D01*
X279954Y1069840D02*
Y1278120D01*
X254555Y1069840D02*
X279954D01*
X254555D02*
Y1278120D01*
X279954D01*
X51354Y1250180D02*
X76754D01*
X76754Y1069840D02*
Y1278120D01*
X51354Y1069840D02*
X76754D01*
X51354D02*
Y1278120D01*
X76754D01*
X613338Y765613D02*
X630338D01*
X613338Y775112D02*
X630338D01*
Y765613D02*
Y775112D01*
X613338Y765613D02*
Y775112D01*
X546638Y787320D02*
X552638D01*
X546638Y776320D02*
X552638D01*
Y787320D01*
X546638Y776320D02*
Y787320D01*
X613338Y778957D02*
X630338D01*
X613338Y788457D02*
X630338D01*
Y778957D02*
Y788457D01*
X613338Y778957D02*
Y788457D01*
Y792301D02*
X630338D01*
X613338Y801802D02*
X630338D01*
Y792301D02*
Y801802D01*
X613338Y792301D02*
Y801802D01*
Y805646D02*
X630338D01*
X613338Y815146D02*
X630338D01*
Y805646D02*
Y815146D01*
X613338Y805646D02*
Y815146D01*
Y818991D02*
X630338D01*
X613338Y828491D02*
X630338D01*
Y818991D02*
Y828491D01*
X613338Y818991D02*
Y828491D01*
Y832335D02*
X630338D01*
X613338Y841835D02*
X630338D01*
Y832335D02*
Y841835D01*
X613338Y832335D02*
Y841835D01*
Y856246D02*
X630338D01*
X613338Y865745D02*
X630338D01*
Y856246D02*
Y865745D01*
X613338Y856246D02*
Y865745D01*
Y870018D02*
X630338D01*
X613338Y879518D02*
X630338D01*
Y870018D02*
Y879518D01*
X613338Y870018D02*
Y879518D01*
X772154Y1232730D02*
Y1242230D01*
X755154Y1232730D02*
Y1242230D01*
Y1232730D02*
X772154D01*
X755154Y1242230D02*
X772154D01*
X536480Y787320D02*
X542480D01*
X536480Y776320D02*
X542480D01*
Y787320D01*
X536480Y776320D02*
Y787320D01*
X520986Y731608D02*
X526986D01*
X520986Y742608D02*
X526986D01*
X520986Y731608D02*
Y742608D01*
X526986Y731608D02*
Y742608D01*
X772154Y1258130D02*
Y1267630D01*
X755154Y1258130D02*
Y1267630D01*
Y1258130D02*
X772154D01*
X755154Y1267630D02*
X772154D01*
X485829Y1030304D02*
Y1041304D01*
X479829Y1030304D02*
Y1041304D01*
X485829D01*
X479829Y1030304D02*
X485829D01*
X494973D02*
Y1041304D01*
X488973Y1030304D02*
Y1041304D01*
X494973D01*
X488973Y1030304D02*
X494973D01*
X519311Y946184D02*
X528810D01*
X519311Y963184D02*
X528810D01*
X519311Y946184D02*
Y963184D01*
X528810Y946184D02*
Y963184D01*
X505538Y946184D02*
X515038D01*
X505538Y963184D02*
X515038D01*
X505538Y946184D02*
Y963184D01*
X515038Y946184D02*
Y963184D01*
X491765Y946184D02*
X501265D01*
X491765Y963184D02*
X501265D01*
X491765Y946184D02*
Y963184D01*
X501265Y946184D02*
Y963184D01*
X477993Y946184D02*
X487493D01*
X477993Y963184D02*
X487493D01*
X477993Y946184D02*
Y963184D01*
X487493Y946184D02*
Y963184D01*
X473720Y946184D02*
Y963184D01*
X464221Y946184D02*
Y963184D01*
X473720D01*
X464221Y946184D02*
X473720D01*
X450448D02*
X459948D01*
X450448Y963184D02*
X459948D01*
X450448Y946184D02*
Y963184D01*
X459948Y946184D02*
Y963184D01*
X396306Y947133D02*
Y956633D01*
X379306Y947133D02*
Y956633D01*
Y947133D02*
X396306D01*
X379306Y956633D02*
X396306D01*
Y929353D02*
Y938853D01*
X379306Y929353D02*
Y938853D01*
Y929353D02*
X396306D01*
X379306Y938853D02*
X396306D01*
Y911573D02*
Y921073D01*
X379306Y911573D02*
Y921073D01*
Y911573D02*
X396306D01*
X379306Y921073D02*
X396306D01*
Y893793D02*
Y903293D01*
X379306Y893793D02*
Y903293D01*
Y893793D02*
X396306D01*
X379306Y903293D02*
X396306D01*
Y876013D02*
Y885513D01*
X379306Y876013D02*
Y885513D01*
Y876013D02*
X396306D01*
X379306Y885513D02*
X396306D01*
Y858233D02*
Y867733D01*
X379306Y858233D02*
Y867733D01*
Y858233D02*
X396306D01*
X379306Y867733D02*
X396306D01*
Y840453D02*
Y849953D01*
X379306Y840453D02*
Y849953D01*
Y840453D02*
X396306D01*
X379306Y849953D02*
X396306D01*
Y822673D02*
Y832173D01*
X379306Y822673D02*
Y832173D01*
Y822673D02*
X396306D01*
X379306Y832173D02*
X396306D01*
X852896Y395023D02*
Y485023D01*
X914898D01*
Y395023D02*
Y485023D01*
X852896Y395023D02*
X914898D01*
X862004Y884240D02*
X878004D01*
Y892240D01*
X862004D02*
X878004D01*
X862004Y884240D02*
Y892240D01*
X868734Y885700D02*
Y890780D01*
Y888240D02*
X871274Y885700D01*
X868734Y888240D02*
X871274Y890780D01*
Y885700D02*
Y890780D01*
X154238Y231788D02*
Y249288D01*
X163738Y231788D02*
Y249288D01*
X154238Y231788D02*
X163738D01*
X154238Y249288D02*
X163738D01*
X162516Y153556D02*
X172015D01*
X162516Y171056D02*
X172015D01*
X162516Y153556D02*
Y171056D01*
X172015Y153556D02*
Y171056D01*
X165254Y1242230D02*
X182254D01*
X165254Y1232730D02*
X182254D01*
X165254D02*
Y1242230D01*
X182254Y1232730D02*
Y1242230D01*
X519655Y700072D02*
Y706072D01*
X530655Y700072D02*
Y706072D01*
X519655D02*
X530655D01*
X519655Y700072D02*
X530655D01*
X165254Y1267630D02*
X182254D01*
X165254Y1258130D02*
X182254D01*
X165254D02*
Y1267630D01*
X182254Y1258130D02*
Y1267630D01*
X229500Y703010D02*
Y709010D01*
X218500Y703010D02*
Y709010D01*
Y703010D02*
X229500D01*
X218500Y709010D02*
X229500D01*
Y728410D02*
Y734410D01*
X218500Y728410D02*
Y734410D01*
Y728410D02*
X229500D01*
X218500Y734410D02*
X229500D01*
Y741110D02*
Y747110D01*
X218500Y741110D02*
Y747110D01*
Y741110D02*
X229500D01*
X218500Y747110D02*
X229500D01*
X67392Y411216D02*
Y420716D01*
X50392Y411216D02*
Y420716D01*
Y411216D02*
X67392D01*
X50392Y420716D02*
X67392D01*
X76808Y397500D02*
Y407000D01*
X93808Y397500D02*
Y407000D01*
X76808D02*
X93808D01*
X76808Y397500D02*
X93808D01*
X93164Y411273D02*
Y420772D01*
X76165Y411273D02*
Y420772D01*
Y411273D02*
X93164D01*
X76165Y420772D02*
X93164D01*
X44736Y439840D02*
X50736D01*
X44736Y428840D02*
X50736D01*
Y439840D01*
X44736Y428840D02*
Y439840D01*
X47042Y359372D02*
X58042D01*
X47042Y365372D02*
X58042D01*
Y359372D02*
Y365372D01*
X47042Y359372D02*
Y365372D01*
X462670Y1076887D02*
Y1080187D01*
Y1076887D02*
X468970D01*
Y1080187D01*
X462670D02*
X468970D01*
X769573Y880110D02*
X780573D01*
Y874110D02*
Y880110D01*
X769573Y874110D02*
X780573D01*
X769573D02*
Y880110D01*
Y844296D02*
X780573D01*
Y838296D02*
Y844296D01*
X769573Y838296D02*
X780573D01*
X769573D02*
Y844296D01*
Y809072D02*
X780573D01*
Y803072D02*
Y809072D01*
X769573Y803072D02*
X780573D01*
X769573D02*
Y809072D01*
X333843Y429008D02*
Y440008D01*
X339843D01*
Y429008D02*
Y440008D01*
X333843Y429008D02*
X339843D01*
X386250Y510012D02*
Y521012D01*
X380250Y510012D02*
X386250D01*
X380250D02*
Y521012D01*
X386250D01*
X361859Y400729D02*
X372859D01*
X361859D02*
Y406729D01*
X372859D01*
Y400729D02*
Y406729D01*
X382687Y400729D02*
Y406729D01*
Y400729D02*
X393687D01*
Y406729D01*
X382687D02*
X393687D01*
X386993Y746622D02*
X397993D01*
X386993Y752623D02*
X397993D01*
Y746622D02*
Y752623D01*
X386993Y746622D02*
Y752623D01*
X173672Y232752D02*
Y243752D01*
X167672Y232752D02*
X173672D01*
X167672D02*
Y243752D01*
X173672D01*
X662718Y374738D02*
X668718D01*
Y385738D01*
X662718D02*
X668718D01*
X662718Y374738D02*
Y385738D01*
X572848Y577082D02*
Y587082D01*
X555348D02*
X572848D01*
X555348Y577082D02*
Y587082D01*
Y577082D02*
X572848D01*
X611116Y738172D02*
X622116D01*
X611116Y744172D02*
X622116D01*
Y738172D02*
Y744172D01*
X611116Y738172D02*
Y744172D01*
X532020Y681570D02*
Y692570D01*
X526020Y681570D02*
Y692570D01*
X532020D01*
X526020Y681570D02*
X532020D01*
X611116Y725536D02*
X622116D01*
X611116Y731535D02*
X622116D01*
Y725536D02*
Y731535D01*
X611116Y725536D02*
Y731535D01*
X927926Y1102756D02*
Y1147756D01*
X897926Y1102756D02*
Y1147756D01*
X927926D01*
X897926Y1102756D02*
X927926D01*
X62070Y476628D02*
X68070D01*
Y487628D01*
X62070D02*
X68070D01*
X62070Y476628D02*
Y487628D01*
X60078Y494383D02*
Y500383D01*
Y494383D02*
X71078D01*
Y500383D01*
X60078D02*
X71078D01*
X60332Y505290D02*
X71332D01*
X60332Y511290D02*
X71332D01*
Y505290D02*
Y511290D01*
X60332Y505290D02*
Y511290D01*
X60332Y521450D02*
X71332D01*
X60332Y515450D02*
X71332D01*
X60332D02*
Y521450D01*
X71332Y515450D02*
Y521450D01*
X54354Y476838D02*
Y487838D01*
X48354Y476838D02*
Y487838D01*
X54354D01*
X48354Y476838D02*
X54354D01*
X764892Y134405D02*
Y143905D01*
X747392Y134405D02*
Y143905D01*
Y134405D02*
X764892D01*
X747392Y143905D02*
X764892D01*
X720704Y130950D02*
Y148450D01*
X711204Y130950D02*
Y148450D01*
X720704D01*
X711204Y130950D02*
X720704D01*
X747797Y106420D02*
X765297D01*
X747797D02*
Y116420D01*
X765297D01*
Y106420D02*
Y116420D01*
X755800Y402010D02*
Y408009D01*
X744800D02*
X755800D01*
X744800Y402010D02*
Y408009D01*
Y402010D02*
X755800D01*
X21388Y903173D02*
Y909173D01*
X32388Y903173D02*
Y909173D01*
X21388D02*
X32388D01*
X21388Y903173D02*
X32388D01*
X21388Y675094D02*
Y681094D01*
X32388Y675094D02*
Y681094D01*
X21388D02*
X32388D01*
X21388Y675094D02*
X32388D01*
X320801Y429008D02*
Y440008D01*
X326800D01*
Y429008D02*
Y440008D01*
X320801Y429008D02*
X326800D01*
X298248Y456273D02*
X309248D01*
Y450274D02*
Y456273D01*
X298248Y450274D02*
X309248D01*
X298248D02*
Y456273D01*
X540672Y613294D02*
X562672D01*
X540672Y598794D02*
X562672D01*
X540672D02*
Y613294D01*
X562672Y598794D02*
Y613294D01*
X586280Y595275D02*
X592280D01*
X586280Y584276D02*
Y595275D01*
Y584276D02*
X592280D01*
Y595275D01*
X668286Y599324D02*
X674286D01*
X668286Y588324D02*
Y599324D01*
Y588324D02*
X674286D01*
Y599324D01*
X746676Y546610D02*
Y557610D01*
X740676Y546610D02*
X746676D01*
X740676D02*
Y557610D01*
X746676D01*
X753396Y504532D02*
X759396D01*
Y515532D01*
X753396D02*
X759396D01*
X753396Y504532D02*
Y515532D01*
X770024Y488490D02*
Y494490D01*
X759024D02*
X770024D01*
X759024Y488490D02*
Y494490D01*
Y488490D02*
X770024D01*
X683038Y376262D02*
X689038D01*
Y387262D01*
X683038D02*
X689038D01*
X683038Y376262D02*
Y387262D01*
X618284Y598844D02*
X624284D01*
X618284Y587844D02*
Y598844D01*
Y587844D02*
X624284D01*
Y598844D01*
X542576Y439586D02*
X548576D01*
X542576Y428586D02*
Y439586D01*
Y428586D02*
X548576D01*
Y439586D01*
X538492Y464314D02*
X544492D01*
Y475314D01*
X538492D02*
X544492D01*
X538492Y464314D02*
Y475314D01*
X540036Y508166D02*
X546036D01*
X540036Y497166D02*
Y508166D01*
Y497166D02*
X546036D01*
Y508166D01*
X670916Y379500D02*
X676916D01*
Y390500D01*
X670916D02*
X676916D01*
X670916Y379500D02*
Y390500D01*
X716404Y334497D02*
X733904D01*
X716404Y343997D02*
X733904D01*
Y334497D02*
Y343997D01*
X716404Y334497D02*
Y343997D01*
X742380Y371908D02*
Y389408D01*
X751880Y371908D02*
Y389408D01*
X742380Y371908D02*
X751880D01*
X742380Y389408D02*
X751880D01*
X744800Y411782D02*
X755800D01*
X744800D02*
Y417782D01*
X755800D01*
Y411782D02*
Y417782D01*
X527748Y460336D02*
Y471336D01*
X521748Y460336D02*
X527748D01*
X521748D02*
Y471336D01*
X527748D01*
X517975Y460336D02*
Y471336D01*
X511976Y460336D02*
X517975D01*
X511976D02*
Y471336D01*
X517975D01*
X605116Y351584D02*
Y357584D01*
Y351584D02*
X616116D01*
Y357584D01*
X605116D02*
X616116D01*
X599352Y351838D02*
Y357838D01*
X588352D02*
X599352D01*
X588352Y351838D02*
Y357838D01*
Y351838D02*
X599352D01*
X505278Y605584D02*
X516278D01*
X505278D02*
Y611584D01*
X516278D01*
Y605584D02*
Y611584D01*
X488768Y446992D02*
X499768D01*
Y440992D02*
Y446992D01*
X488768Y440992D02*
X499768D01*
X488768D02*
Y446992D01*
X647224Y380072D02*
Y391072D01*
X653224D01*
Y380072D02*
Y391072D01*
X647224Y380072D02*
X653224D01*
X608028Y582002D02*
Y593002D01*
X602028Y582002D02*
X608028D01*
X602028D02*
Y593002D01*
X608028D01*
X724976Y139306D02*
X734476D01*
X724976Y121806D02*
X734476D01*
Y139306D01*
X724976Y121806D02*
Y139306D01*
X602912Y114048D02*
Y125048D01*
X596912Y114048D02*
X602912D01*
X596912D02*
Y125048D01*
X602912D01*
X633477Y984923D02*
X639477D01*
Y995923D01*
X633477D02*
X639477D01*
X633477Y984923D02*
Y995923D01*
X637565Y1051383D02*
Y1062383D01*
X643565D01*
Y1051383D02*
Y1062383D01*
X637565Y1051383D02*
X643565D01*
X325798Y1172322D02*
Y1183323D01*
X319798Y1172322D02*
X325798D01*
X319798D02*
Y1183323D01*
X325798D01*
X580696Y1052792D02*
X591696D01*
X580696D02*
Y1058792D01*
X591696D01*
Y1052792D02*
Y1058792D01*
X760458Y176427D02*
X794458D01*
X760458Y149427D02*
X794458D01*
X760458D02*
Y176427D01*
X794458Y149427D02*
Y176427D01*
X808840Y207254D02*
Y216754D01*
X826340Y207254D02*
Y216754D01*
X808840D02*
X826340D01*
X808840Y207254D02*
X826340D01*
X808276Y290958D02*
Y306958D01*
Y290958D02*
X816276D01*
Y306958D01*
X808276D02*
X816276D01*
X809736Y300228D02*
X814816D01*
X809736Y297688D02*
X812276Y300228D01*
X814816Y297688D01*
X809736D02*
X814816D01*
X520798Y506810D02*
Y516810D01*
X503298D02*
X520798D01*
X503298Y506810D02*
Y516810D01*
Y506810D02*
X520798D01*
X731357Y379978D02*
Y389978D01*
X713858D02*
X731357D01*
X713858Y379978D02*
Y389978D01*
Y379978D02*
X731357D01*
X607960Y105190D02*
Y122690D01*
X617960D01*
Y105190D02*
Y122690D01*
X607960Y105190D02*
X617960D01*
X113308Y-78D02*
Y81722D01*
X202708D01*
Y-78D02*
Y81722D01*
X113308Y-78D02*
X202708D01*
X432174Y409510D02*
Y419011D01*
X449174Y409510D02*
Y419011D01*
X432174D02*
X449174D01*
X432174Y409510D02*
X449174D01*
X474947Y409016D02*
Y418516D01*
X457947Y409016D02*
Y418516D01*
Y409016D02*
X474947D01*
X457947Y418516D02*
X474947D01*
X399091Y410527D02*
Y420027D01*
X382091Y410527D02*
Y420027D01*
Y410527D02*
X399091D01*
X382091Y420027D02*
X399091D01*
X356319Y410527D02*
Y420027D01*
X373319Y410527D02*
Y420027D01*
X356319D02*
X373319D01*
X356319Y410527D02*
X373319D01*
X877328Y955004D02*
X883328D01*
X877328Y944004D02*
X883328D01*
Y955004D01*
X877328Y944004D02*
Y955004D01*
X866152D02*
X872152D01*
X866152Y944004D02*
X872152D01*
Y955004D01*
X866152Y944004D02*
Y955004D01*
X853960D02*
X859960D01*
X853960Y944004D02*
X859960D01*
Y955004D01*
X853960Y944004D02*
Y955004D01*
X840498D02*
X846498D01*
X840498Y944004D02*
X846498D01*
Y955004D01*
X840498Y944004D02*
Y955004D01*
X744116Y175467D02*
Y181467D01*
X733116Y175467D02*
Y181467D01*
Y175467D02*
X744116D01*
X733116Y181467D02*
X744116D01*
X746334Y185625D02*
Y195124D01*
X729334Y185625D02*
Y195124D01*
Y185625D02*
X746334D01*
X729334Y195124D02*
X746334D01*
X572548Y675806D02*
X578548D01*
X572548Y664806D02*
X578548D01*
Y675806D01*
X572548Y664806D02*
Y675806D01*
X611116Y687626D02*
Y693626D01*
X622116Y687626D02*
Y693626D01*
X611116D02*
X622116D01*
X611116Y687626D02*
X622116D01*
X540330Y762829D02*
X551330D01*
X540330Y756829D02*
X551330D01*
X540330D02*
Y762829D01*
X551330Y756829D02*
Y762829D01*
X562936Y799798D02*
X573936D01*
X562936Y793798D02*
X573936D01*
X562936D02*
Y799798D01*
X573936Y793798D02*
Y799798D01*
X797468Y291980D02*
X803468D01*
X797468Y302980D02*
X803468D01*
X797468Y291980D02*
Y302980D01*
X803468Y291980D02*
Y302980D01*
X349353Y557635D02*
X355353D01*
X349353Y568635D02*
X355353D01*
X349353Y557635D02*
Y568635D01*
X355353Y557635D02*
Y568635D01*
X562936Y789677D02*
X573936D01*
X562936Y783677D02*
X573936D01*
X562936D02*
Y789677D01*
X573936Y783677D02*
Y789677D01*
X854254Y116802D02*
Y122802D01*
X865254Y116802D02*
Y122802D01*
X854254D02*
X865254D01*
X854254Y116802D02*
X865254D01*
X21388Y913216D02*
Y919216D01*
X32388Y913216D02*
Y919216D01*
X21388D02*
X32388D01*
X21388Y913216D02*
X32388D01*
X21388Y665051D02*
Y671051D01*
X32388Y665051D02*
Y671051D01*
X21388D02*
X32388D01*
X21388Y665051D02*
X32388D01*
X583256Y288553D02*
Y294553D01*
X594256Y288553D02*
Y294553D01*
X583256D02*
X594256D01*
X583256Y288553D02*
X594256D01*
X354734Y289764D02*
Y295764D01*
X343734Y289764D02*
Y295764D01*
Y289764D02*
X354734D01*
X343734Y295764D02*
X354734D01*
X323160Y396034D02*
X334160D01*
X323160Y402034D02*
X334160D01*
Y396034D02*
Y402034D01*
X323160Y396034D02*
Y402034D01*
X431271Y448248D02*
Y454249D01*
X442271Y448248D02*
Y454249D01*
X431271D02*
X442271D01*
X431271Y448248D02*
X442271D01*
X431271Y460618D02*
Y466618D01*
X442271Y460618D02*
Y466618D01*
X431271D02*
X442271D01*
X431271Y460618D02*
X442271D01*
X387442Y568635D02*
X393442D01*
X387442Y557635D02*
X393442D01*
Y568635D01*
X387442Y557635D02*
Y568635D01*
X400139D02*
X406138D01*
X400139Y557635D02*
X406138D01*
Y568635D01*
X400139Y557635D02*
Y568635D01*
X374709Y539498D02*
Y550498D01*
X380709Y539498D02*
Y550498D01*
X374709Y539498D02*
X380709D01*
X374709Y550498D02*
X380709D01*
X362771Y539498D02*
Y550498D01*
X368771Y539498D02*
Y550498D01*
X362771Y539498D02*
X368771D01*
X362771Y550498D02*
X368771D01*
X270914Y525574D02*
Y531574D01*
X259914Y525574D02*
Y531574D01*
Y525574D02*
X270914D01*
X259914Y531574D02*
X270914D01*
X327677Y320596D02*
Y326596D01*
X338677Y320596D02*
Y326596D01*
X327677D02*
X338677D01*
X327677Y320596D02*
X338677D01*
X397569Y315634D02*
X403569D01*
X397569Y304634D02*
X403569D01*
Y315634D01*
X397569Y304634D02*
Y315634D01*
X343420Y527638D02*
X349420D01*
X343420Y516638D02*
X349420D01*
Y527638D01*
X343420Y516638D02*
Y527638D01*
X393752Y462242D02*
Y468242D01*
X404752Y462242D02*
Y468242D01*
X393752D02*
X404752D01*
X393752Y462242D02*
X404752D01*
X308740Y459956D02*
Y465956D01*
X297740Y459956D02*
Y465956D01*
Y459956D02*
X308740D01*
X297740Y465956D02*
X308740D01*
X535597Y322374D02*
Y328374D01*
X546597Y322374D02*
Y328374D01*
X535597D02*
X546597D01*
X535597Y322374D02*
X546597D01*
X541962Y315888D02*
X547962D01*
X541962Y304888D02*
X547962D01*
Y315888D01*
X541962Y304888D02*
Y315888D01*
X431271Y497725D02*
Y503725D01*
X442271Y497725D02*
Y503725D01*
X431271D02*
X442271D01*
X431271Y497725D02*
X442271D01*
X431271Y472987D02*
Y478987D01*
X442271Y472987D02*
Y478987D01*
X431271D02*
X442271D01*
X431271Y472987D02*
X442271D01*
X431271Y485356D02*
Y491356D01*
X442271Y485356D02*
Y491356D01*
X431271D02*
X442271D01*
X431271Y485356D02*
X442271D01*
X270406Y505508D02*
Y511508D01*
X259406Y505508D02*
Y511508D01*
Y505508D02*
X270406D01*
X259406Y511508D02*
X270406D01*
X292738Y495008D02*
Y501008D01*
X281738Y495008D02*
Y501008D01*
Y495008D02*
X292738D01*
X281738Y501008D02*
X292738D01*
X431271Y522463D02*
Y528464D01*
X442271Y522463D02*
Y528464D01*
X431271D02*
X442271D01*
X431271Y522463D02*
X442271D01*
X292738Y505930D02*
Y511930D01*
X281738Y505930D02*
Y511930D01*
Y505930D02*
X292738D01*
X281738Y511930D02*
X292738D01*
X270406Y495466D02*
Y501465D01*
X259406Y495466D02*
Y501465D01*
Y495466D02*
X270406D01*
X259406Y501465D02*
X270406D01*
X360596Y521718D02*
Y532718D01*
X354596Y521718D02*
Y532718D01*
X360596D01*
X354596Y521718D02*
X360596D01*
X292738Y483578D02*
Y489578D01*
X281738Y483578D02*
Y489578D01*
Y483578D02*
X292738D01*
X281738Y489578D02*
X292738D01*
Y472402D02*
Y478402D01*
X281738Y472402D02*
Y478402D01*
Y472402D02*
X292738D01*
X281738Y478402D02*
X292738D01*
X431271Y510094D02*
Y516094D01*
X442271Y510094D02*
Y516094D01*
X431271D02*
X442271D01*
X431271Y510094D02*
X442271D01*
X292992Y516090D02*
Y522090D01*
X281992Y516090D02*
Y522090D01*
Y516090D02*
X292992D01*
X281992Y522090D02*
X292992D01*
X508794Y489038D02*
X514794D01*
X508794Y500038D02*
X514794D01*
X508794Y489038D02*
Y500038D01*
X514794Y489038D02*
Y500038D01*
X512096Y586828D02*
X518096D01*
X512096Y597828D02*
X518096D01*
X512096Y586828D02*
Y597828D01*
X518096Y586828D02*
Y597828D01*
X492284Y557936D02*
X498284D01*
X492284Y568936D02*
X498284D01*
X492284Y557936D02*
Y568936D01*
X498284Y557936D02*
Y568936D01*
X567880Y376008D02*
Y387008D01*
X561880Y376008D02*
Y387008D01*
X567880D01*
X561880Y376008D02*
X567880D01*
X568112Y397344D02*
X574113D01*
X568112Y408344D02*
X574113D01*
X568112Y397344D02*
Y408344D01*
X574113Y397344D02*
Y408344D01*
X491042Y581392D02*
X500542D01*
X491042Y598392D02*
X500542D01*
X491042Y581392D02*
Y598392D01*
X500542Y581392D02*
Y598392D01*
X558070Y408344D02*
X564070D01*
X558070Y397344D02*
X564070D01*
Y408344D01*
X558070Y397344D02*
Y408344D01*
X482254Y553348D02*
Y570348D01*
X472754Y553348D02*
Y570348D01*
X482254D01*
X472754Y553348D02*
X482254D01*
X472500Y579120D02*
X482000D01*
X472500Y596121D02*
X482000D01*
X472500Y579120D02*
Y596121D01*
X482000Y579120D02*
Y596121D01*
X508032Y569634D02*
X514032D01*
X508032Y558634D02*
X514032D01*
Y569634D01*
X508032Y558634D02*
Y569634D01*
X493300Y500038D02*
X499300D01*
X493300Y489038D02*
X499300D01*
Y500038D01*
X493300Y489038D02*
Y500038D01*
X778066Y466179D02*
X789066D01*
X778066Y460179D02*
X789066D01*
X778066D02*
Y466179D01*
X789066Y460179D02*
Y466179D01*
X490961Y416442D02*
X500461D01*
X490961Y433442D02*
X500461D01*
X490961Y416442D02*
Y433442D01*
X500461Y416442D02*
Y433442D01*
X776628Y450136D02*
Y456136D01*
X765628Y450136D02*
Y456136D01*
Y450136D02*
X776628D01*
X765628Y456136D02*
X776628D01*
X653066Y591224D02*
X659066D01*
X653066Y580224D02*
X659066D01*
Y591224D01*
X653066Y580224D02*
Y591224D01*
X776973Y549359D02*
X782973D01*
X776973Y538359D02*
X782973D01*
Y549359D01*
X776973Y538359D02*
Y549359D01*
X784932Y506682D02*
X795932D01*
X784932Y500682D02*
X795932D01*
X784932D02*
Y506682D01*
X795932Y500682D02*
Y506682D01*
X527356Y548094D02*
X538356D01*
X527356Y554094D02*
X538356D01*
Y548094D02*
Y554094D01*
X527356Y548094D02*
Y554094D01*
X519756Y428256D02*
X530756D01*
X519756Y434256D02*
X530756D01*
Y428256D02*
Y434256D01*
X519756Y428256D02*
Y434256D01*
X527356Y535983D02*
X538356D01*
X527356Y541983D02*
X538356D01*
Y535983D02*
Y541983D01*
X527356Y535983D02*
Y541983D01*
X776256Y422490D02*
Y433490D01*
X782256Y422490D02*
Y433490D01*
X776256Y422490D02*
X782256D01*
X776256Y433490D02*
X782256D01*
X556450Y376008D02*
Y387008D01*
X550450Y376008D02*
Y387008D01*
X556450D01*
X550450Y376008D02*
X556450D01*
X504734Y416442D02*
X514234D01*
X504734Y433442D02*
X514234D01*
X504734Y416442D02*
Y433442D01*
X514234Y416442D02*
Y433442D01*
X807244Y395125D02*
X813244D01*
X807244Y406125D02*
X813244D01*
X807244Y395125D02*
Y406125D01*
X813244Y395125D02*
Y406125D01*
X818674Y395125D02*
X824674D01*
X818674Y406125D02*
X824674D01*
X818674Y395125D02*
Y406125D01*
X824674Y395125D02*
Y406125D01*
X654122Y361373D02*
Y367374D01*
X665122Y361373D02*
Y367374D01*
X654122D02*
X665122D01*
X654122Y361373D02*
X665122D01*
X796297Y395125D02*
X802297D01*
X796297Y406125D02*
X802297D01*
X796297Y395125D02*
Y406125D01*
X802297Y395125D02*
Y406125D01*
X682895Y361236D02*
Y367236D01*
X671895Y361236D02*
Y367236D01*
Y361236D02*
X682895D01*
X671895Y367236D02*
X682895D01*
X830104Y395125D02*
X836104D01*
X830104Y406125D02*
X836104D01*
X830104Y395125D02*
Y406125D01*
X836104Y395125D02*
Y406125D01*
X595812Y101004D02*
X601812D01*
X595812Y90004D02*
X601812D01*
Y101004D01*
X595812Y90004D02*
Y101004D01*
X626005Y377786D02*
X632005D01*
X626005Y388786D02*
X632005D01*
X626005Y377786D02*
Y388786D01*
X632005Y377786D02*
Y388786D01*
X585769Y90004D02*
X591769D01*
X585769Y101004D02*
X591769D01*
X585769Y90004D02*
Y101004D01*
X591769Y90004D02*
Y101004D01*
X636048Y377786D02*
X642048D01*
X636048Y388786D02*
X642048D01*
X636048Y377786D02*
Y388786D01*
X642048Y377786D02*
Y388786D01*
X840157Y395125D02*
X846157D01*
X840157Y406125D02*
X846157D01*
X840157Y395125D02*
Y406125D01*
X846157Y395125D02*
Y406125D01*
X298568Y557635D02*
X304568D01*
X298568Y568635D02*
X304568D01*
X298568Y557635D02*
Y568635D01*
X304568Y557635D02*
Y568635D01*
X517938Y713574D02*
X523938D01*
X517938Y724574D02*
X523938D01*
X517938Y713574D02*
Y724574D01*
X523938Y713574D02*
Y724574D01*
X783906Y520357D02*
Y531357D01*
X777906Y520357D02*
Y531357D01*
X783906D01*
X777906Y520357D02*
X783906D01*
X788210Y520357D02*
Y531357D01*
X794210Y520357D02*
Y531357D01*
X788210Y520357D02*
X794210D01*
X788210Y531357D02*
X794210D01*
X640124Y614260D02*
Y625260D01*
X634124Y614260D02*
Y625260D01*
X640124D01*
X634124Y614260D02*
X640124D01*
X630081D02*
Y625260D01*
X624081Y614260D02*
Y625260D01*
X630081D01*
X624081Y614260D02*
X630081D01*
X515978Y681247D02*
X521978D01*
X515978Y692247D02*
X521978D01*
X515978Y681247D02*
Y692247D01*
X521978Y681247D02*
Y692247D01*
X756992Y429308D02*
Y435308D01*
X767992Y429308D02*
Y435308D01*
X756992D02*
X767992D01*
X756992Y429308D02*
X767992D01*
X767992Y439351D02*
Y445350D01*
X756992Y439351D02*
Y445350D01*
Y439351D02*
X767992D01*
X756992Y445350D02*
X767992D01*
X605452Y959868D02*
Y970868D01*
X599452Y959868D02*
Y970868D01*
X605452D01*
X599452Y959868D02*
X605452D01*
X588296Y989164D02*
X594296D01*
X588296Y1000164D02*
X594296D01*
X588296Y989164D02*
Y1000164D01*
X594296Y989164D02*
Y1000164D01*
X646112Y1023644D02*
Y1034644D01*
X640112Y1023644D02*
Y1034644D01*
X646112D01*
X640112Y1023644D02*
X646112D01*
X690754Y1056094D02*
Y1062094D01*
X679754Y1056094D02*
Y1062094D01*
Y1056094D02*
X690754D01*
X679754Y1062094D02*
X690754D01*
X327418Y1201246D02*
X333418D01*
X327418Y1190246D02*
X333418D01*
Y1201246D01*
X327418Y1190246D02*
Y1201246D01*
X322496Y1122682D02*
Y1133682D01*
X316496Y1122682D02*
Y1133682D01*
X322496D01*
X316496Y1122682D02*
X322496D01*
X541794Y1048006D02*
X547794D01*
X541794Y1059006D02*
X547794D01*
X541794Y1048006D02*
Y1059006D01*
X547794Y1048006D02*
Y1059006D01*
X551486Y1064476D02*
Y1070476D01*
X562486Y1064476D02*
Y1070476D01*
X551486D02*
X562486D01*
X551486Y1064476D02*
X562486D01*
X342404Y1191340D02*
X348404D01*
X342404Y1180340D02*
X348404D01*
Y1191340D01*
X342404Y1180340D02*
Y1191340D01*
X357644D02*
X363644D01*
X357644Y1180340D02*
X363644D01*
Y1191340D01*
X357644Y1180340D02*
Y1191340D01*
X412835Y557635D02*
X418835D01*
X412835Y568635D02*
X418835D01*
X412835Y557635D02*
Y568635D01*
X418835Y557635D02*
Y568635D01*
X425531Y557635D02*
X431531D01*
X425531Y568635D02*
X431531D01*
X425531Y557635D02*
Y568635D01*
X431531Y557635D02*
Y568635D01*
X384877Y1062698D02*
Y1068698D01*
X395877Y1062698D02*
Y1068698D01*
X384877D02*
X395877D01*
X384877Y1062698D02*
X395877D01*
X423144Y1056198D02*
Y1067198D01*
X417144Y1056198D02*
Y1067198D01*
X423144D01*
X417144Y1056198D02*
X423144D01*
X418644Y1068698D02*
X429644D01*
X418644Y1062698D02*
X429644D01*
X418644D02*
Y1068698D01*
X429644Y1062698D02*
Y1068698D01*
X323961Y557635D02*
X329961D01*
X323961Y568635D02*
X329961D01*
X323961Y557635D02*
Y568635D01*
X329961Y557635D02*
Y568635D01*
X311264Y557635D02*
X317264D01*
X311264Y568635D02*
X317264D01*
X311264Y557635D02*
Y568635D01*
X317264Y557635D02*
Y568635D01*
X438228Y557635D02*
X444227D01*
X438228Y568635D02*
X444227D01*
X438228Y557635D02*
Y568635D01*
X444227Y557635D02*
Y568635D01*
X336657Y557635D02*
X342657D01*
X336657Y568635D02*
X342657D01*
X336657Y557635D02*
Y568635D01*
X342657Y557635D02*
Y568635D01*
X374746Y557635D02*
X380746D01*
X374746Y568635D02*
X380746D01*
X374746Y557635D02*
Y568635D01*
X380746Y557635D02*
Y568635D01*
X362050Y557635D02*
X368050D01*
X362050Y568635D02*
X368050D01*
X362050Y557635D02*
Y568635D01*
X368050Y557635D02*
Y568635D01*
X391446Y1056200D02*
X397446D01*
X391446Y1067200D02*
X397446D01*
X391446Y1056200D02*
Y1067200D01*
X397446Y1056200D02*
Y1067200D01*
X388302Y351121D02*
Y362121D01*
X382302Y351121D02*
X388302D01*
X382302D02*
Y362121D01*
X388302D01*
X605129Y320382D02*
Y331382D01*
X611129D01*
Y320382D02*
Y331382D01*
X605129Y320382D02*
X611129D01*
X831548Y972976D02*
Y1034976D01*
X893548Y972976D02*
Y1034976D01*
X831548Y972976D02*
X893548D01*
X831548Y1034976D02*
X893548D01*
X754297Y703422D02*
Y709423D01*
X765297Y703422D02*
Y709423D01*
X754297D02*
X765297D01*
X754297Y703422D02*
X765297D01*
X754297Y686201D02*
Y692201D01*
X765297Y686201D02*
Y692201D01*
X754297D02*
X765297D01*
X754297Y686201D02*
X765297D01*
X754297Y668980D02*
Y674980D01*
X765297Y668980D02*
Y674980D01*
X754297D02*
X765297D01*
X754297Y668980D02*
X765297D01*
X754297Y651759D02*
Y657759D01*
X765297Y651759D02*
Y657759D01*
X754297D02*
X765297D01*
X754297Y651759D02*
X765297D01*
X754297Y634538D02*
Y640538D01*
X765297Y634538D02*
Y640538D01*
X754297D02*
X765297D01*
X754297Y634538D02*
X765297D01*
X754297Y617317D02*
Y623316D01*
X765297Y617317D02*
Y623316D01*
X754297D02*
X765297D01*
X754297Y617317D02*
X765297D01*
X811074Y196183D02*
X822074D01*
X811074D02*
Y202183D01*
X822074D01*
Y196183D02*
Y202183D01*
X437824Y403993D02*
X448824D01*
Y397994D02*
Y403993D01*
X437824Y397994D02*
X448824D01*
X437824D02*
Y403993D01*
X458297D02*
X469296D01*
Y397994D02*
Y403993D01*
X458297Y397994D02*
X469296D01*
X458297D02*
Y403993D01*
X918034Y515891D02*
Y525391D01*
X900534Y515891D02*
Y525391D01*
Y515891D02*
X918034D01*
X900534Y525391D02*
X918034D01*
X859322Y556844D02*
Y562844D01*
X870322Y556844D02*
Y562844D01*
X859322D02*
X870322D01*
X859322Y556844D02*
X870322D01*
X859322Y546801D02*
Y552801D01*
X870322Y546801D02*
Y552801D01*
X859322D02*
X870322D01*
X859322Y546801D02*
X870322D01*
X889044Y569938D02*
Y575938D01*
X900044Y569938D02*
Y575938D01*
X889044D02*
X900044D01*
X889044Y569938D02*
X900044D01*
X871272Y569821D02*
Y575821D01*
X882272Y569821D02*
Y575821D01*
X871272D02*
X882272D01*
X871272Y569821D02*
X882272D01*
X841550Y556476D02*
Y562476D01*
X852550Y556476D02*
Y562476D01*
X841550D02*
X852550D01*
X841550Y556476D02*
X852550D01*
X841550Y546433D02*
Y552433D01*
X852550Y546433D02*
Y552433D01*
X841550D02*
X852550D01*
X841550Y546433D02*
X852550D01*
X816895Y513376D02*
Y529376D01*
X808895D02*
X816895D01*
X808895Y513376D02*
Y529376D01*
Y513376D02*
X816895D01*
X810355Y520106D02*
X815434D01*
X812895D02*
X815434Y522646D01*
X810355D02*
X812895Y520106D01*
X810355Y522646D02*
X815434D01*
X821702Y504446D02*
X827702D01*
X821702Y515446D02*
X827702D01*
X821702Y504446D02*
Y515446D01*
X827702Y504446D02*
Y515446D01*
X662806Y98152D02*
Y111652D01*
X679806Y98152D02*
Y111652D01*
X662806Y98152D02*
X679806D01*
X662806Y111652D02*
X679806D01*
X149726Y107042D02*
Y120542D01*
X166726Y107042D02*
Y120542D01*
X149726Y107042D02*
X166726D01*
X149726Y120542D02*
X166726D01*
X597000Y675806D02*
X603000D01*
X597000Y664806D02*
X603000D01*
Y675806D01*
X597000Y664806D02*
Y675806D01*
X611116Y712899D02*
Y718899D01*
X622116Y712899D02*
Y718899D01*
X611116D02*
X622116D01*
X611116Y712899D02*
X622116D01*
X554768Y675806D02*
X560768D01*
X554768Y664806D02*
X560768D01*
Y675806D01*
X554768Y664806D02*
Y675806D01*
X611116Y700263D02*
Y706263D01*
X622116Y700263D02*
Y706263D01*
X611116D02*
X622116D01*
X611116Y700263D02*
X622116D01*
X573936Y763436D02*
Y769435D01*
X562936Y763436D02*
Y769435D01*
Y763436D02*
X573936D01*
X562936Y769435D02*
X573936D01*
Y773556D02*
Y779556D01*
X562936Y773556D02*
Y779556D01*
Y773556D02*
X573936D01*
X562936Y779556D02*
X573936D01*
X137192Y300954D02*
X143192D01*
X137192Y289954D02*
X143192D01*
Y300954D01*
X137192Y289954D02*
Y300954D01*
X880910Y498983D02*
X888911D01*
X880910Y492984D02*
X888911D01*
X880910D02*
Y498983D01*
X888911Y492984D02*
Y498983D01*
X453057Y1043753D02*
Y1053253D01*
X470557Y1043753D02*
Y1053253D01*
X453057D02*
X470557D01*
X453057Y1043753D02*
X470557D01*
X453057Y1060526D02*
Y1070026D01*
X470557Y1060526D02*
Y1070026D01*
X453057D02*
X470557D01*
X453057Y1060526D02*
X470557D01*
X139986Y200572D02*
X145986D01*
X139986Y189572D02*
X145986D01*
Y200572D01*
X139986Y189572D02*
Y200572D01*
X172500Y715700D02*
Y721700D01*
X161500Y715700D02*
Y721700D01*
Y715700D02*
X172500D01*
X161500Y721700D02*
X172500D01*
Y703010D02*
Y709010D01*
X161500Y703010D02*
Y709010D01*
Y703010D02*
X172500D01*
X161500Y709010D02*
X172500D01*
Y728410D02*
Y734410D01*
X161500Y728410D02*
Y734410D01*
Y728410D02*
X172500D01*
X161500Y734410D02*
X172500D01*
Y741110D02*
Y747110D01*
X161500Y741110D02*
Y747110D01*
Y741110D02*
X172500D01*
X161500Y747110D02*
X172500D01*
X122984Y676568D02*
X128984D01*
X122984Y665568D02*
X128984D01*
Y676568D01*
X122984Y665568D02*
Y676568D01*
X112570Y676314D02*
X118570D01*
X112570Y665314D02*
X118570D01*
Y676314D01*
X112570Y665314D02*
Y676314D01*
D24*
X2115389Y44678D02*
D03*
D25*
X2103959Y212445D02*
X2299539D01*
X2350339Y-496844D02*
Y249916D01*
X2063319D02*
X2350339D01*
X2063319Y-496844D02*
Y249916D01*
Y-496844D02*
X2350339D01*
D252*
X585502Y362966D02*
X617506D01*
Y387858D01*
X585502D02*
X617506D01*
X585502Y362966D02*
Y387858D01*
X559215Y1035399D02*
X571914Y1048099D01*
X559215Y1031589D02*
X572677D01*
Y1048099D01*
X559215D02*
X572677D01*
X559215Y1031589D02*
Y1048099D01*
X568217Y308696D02*
Y339683D01*
X585234D01*
Y308696D02*
Y339683D01*
X568217Y308696D02*
X585234D01*
Y335746D02*
X591712D01*
Y331683D02*
Y335746D01*
X585234Y331683D02*
X591712D01*
X585234D02*
Y335746D01*
Y316696D02*
X591712D01*
Y312633D02*
Y316696D01*
X585234Y312633D02*
X591712D01*
X585234D02*
Y316696D01*
X561740Y312759D02*
X568217D01*
X561740D02*
Y316824D01*
X568217D01*
Y312759D02*
Y316824D01*
X561740Y322158D02*
X568217D01*
X561740D02*
Y326222D01*
X568217D01*
Y322158D02*
Y326222D01*
X561740Y331555D02*
X568217D01*
X561740D02*
Y335620D01*
X568217D01*
Y331555D02*
Y335620D01*
X703564Y352080D02*
X728456D01*
Y372146D01*
X703564D02*
X728456D01*
X703564Y352080D02*
Y372146D01*
X740441Y18382D02*
X765841D01*
X740441D02*
Y69182D01*
X765841D01*
Y18382D02*
Y69182D01*
X360297Y308696D02*
Y339683D01*
X377314D01*
Y308696D02*
Y339683D01*
X360297Y308696D02*
X377314D01*
Y335746D02*
X383792D01*
Y331683D02*
Y335746D01*
X377314Y331683D02*
X383792D01*
X377314D02*
Y335746D01*
Y316696D02*
X383792D01*
Y312633D02*
Y316696D01*
X377314Y312633D02*
X383792D01*
X377314D02*
Y316696D01*
X353820Y312759D02*
X360297D01*
X353820D02*
Y316824D01*
X360297D01*
Y312759D02*
Y316824D01*
X353820Y322158D02*
X360297D01*
X353820D02*
Y326222D01*
X360297D01*
Y322158D02*
Y326222D01*
X353820Y331555D02*
X360297D01*
X353820D02*
Y335620D01*
X360297D01*
Y331555D02*
Y335620D01*
X604854Y996577D02*
X621364D01*
Y983115D02*
Y996577D01*
X604854Y983115D02*
X621364D01*
X604854D02*
Y996577D01*
X608664D02*
X621364Y983877D01*
X657697Y1038139D02*
X670397Y1050839D01*
X657697Y1034329D02*
X671159D01*
Y1050839D01*
X657697D02*
X671159D01*
X657697Y1034329D02*
Y1050839D01*
X331388Y1143295D02*
Y1159805D01*
X344850D01*
Y1143295D02*
Y1159805D01*
X331388Y1143295D02*
X344850D01*
X331388Y1147105D02*
X344088Y1159805D01*
D253*
X325338Y968642D02*
Y1019442D01*
X249138D02*
X325338D01*
X249138Y968643D02*
Y1019442D01*
X788154Y1019290D02*
Y1273290D01*
X813554D01*
Y1019290D02*
Y1273290D01*
X788154Y1019290D02*
X813554D01*
X203554Y1019294D02*
X228954D01*
Y1273294D01*
X203554D02*
X228954D01*
X203554Y1019294D02*
Y1273294D01*
X711954Y1019294D02*
Y1273294D01*
X737354D01*
Y1019294D02*
Y1273294D01*
X711954Y1019294D02*
X737354D01*
X127354D02*
X152754D01*
Y1273294D01*
X127354D02*
X152754D01*
X127354Y1019294D02*
Y1273294D01*
X249253Y872376D02*
Y923176D01*
X325453D01*
Y872376D02*
Y923176D01*
X203554Y765330D02*
Y1019330D01*
X228954D01*
Y765330D02*
Y1019330D01*
X203554Y765330D02*
X228954D01*
X127554D02*
Y1019330D01*
X152954D01*
Y765330D02*
Y1019330D01*
X127554Y765330D02*
X152954D01*
X788154Y763590D02*
X813554D01*
Y1017590D01*
X788154D02*
X813554D01*
X788154Y763590D02*
Y1017590D01*
X711954Y763594D02*
X737354D01*
Y1017594D01*
X711954D02*
X737354D01*
X711954Y763594D02*
Y1017594D01*
D280*
X602266Y375412D02*
G03*
X602266Y375412I-762J0D01*
G01*
X573677Y339683D02*
G03*
X579773Y339683I3048J0D01*
G01*
X736953Y214290D02*
G03*
X736953Y214290I-762J0D01*
G01*
X365757Y339683D02*
G03*
X371853Y339683I3048J0D01*
G01*
D281*
X339810Y1232120D02*
Y1262120D01*
X370810D01*
Y1232120D02*
Y1262120D01*
X339810Y1232120D02*
X370810D01*
X602810Y1232120D02*
Y1262120D01*
X571810Y1232120D02*
X602810D01*
X571810D02*
Y1262120D01*
X602810D01*
M02*
