G04*
G04 #@! TF.GenerationSoftware,Altium Limited,Altium Designer,24.5.2 (23)*
G04*
G04 Layer_Color=128*
%FSLAX44Y44*%
%MOMM*%
G71*
G04*
G04 #@! TF.SameCoordinates,06A8B94F-9278-456E-AD24-3EE51E5687D5*
G04*
G04*
G04 #@! TF.FilePolarity,Positive*
G04*
G01*
G75*
%ADD11C,0.1270*%
%ADD18C,0.1500*%
%ADD25C,0.2540*%
%ADD253C,0.0508*%
G36*
X931375Y-543270D02*
X935910D01*
Y-543724D01*
X938632D01*
Y-544178D01*
X940899D01*
Y-544631D01*
X942713D01*
Y-545085D01*
X944528D01*
Y-545538D01*
X945888D01*
Y-545992D01*
X947249D01*
Y-546445D01*
X948610D01*
Y-546899D01*
X949517D01*
Y-547352D01*
X950878D01*
Y-547806D01*
X951785D01*
Y-548260D01*
X952692D01*
Y-548713D01*
X953599D01*
Y-549167D01*
X954506D01*
Y-549620D01*
X955413D01*
Y-550074D01*
X955867D01*
Y-550527D01*
X956774D01*
Y-550981D01*
X957681D01*
Y-551435D01*
X958135D01*
Y-551888D01*
X959042D01*
Y-552342D01*
X959495D01*
Y-552795D01*
X960402D01*
Y-553249D01*
X960856D01*
Y-553702D01*
X961309D01*
Y-554156D01*
X962216D01*
Y-554609D01*
X962670D01*
Y-555063D01*
X963123D01*
Y-555517D01*
X963577D01*
Y-555970D01*
X964484D01*
Y-556424D01*
X964938D01*
Y-556877D01*
X965391D01*
Y-557331D01*
X965845D01*
Y-557784D01*
X966298D01*
Y-558238D01*
X966752D01*
Y-558691D01*
X967206D01*
Y-559145D01*
X967659D01*
Y-559599D01*
X968113D01*
Y-560052D01*
X968566D01*
Y-560506D01*
X969020D01*
Y-560959D01*
X969473D01*
Y-561413D01*
Y-561866D01*
X969927D01*
Y-562320D01*
X970380D01*
Y-562773D01*
X970834D01*
Y-563227D01*
X971288D01*
Y-563680D01*
Y-564134D01*
X971741D01*
Y-564588D01*
X972195D01*
Y-565041D01*
X972648D01*
Y-565495D01*
Y-565948D01*
X973102D01*
Y-566402D01*
X973555D01*
Y-566855D01*
Y-567309D01*
X974009D01*
Y-567762D01*
X974463D01*
Y-568216D01*
Y-568670D01*
X974916D01*
Y-569123D01*
X975370D01*
Y-569577D01*
Y-570030D01*
X975823D01*
Y-570484D01*
Y-570937D01*
X976277D01*
Y-571391D01*
Y-571844D01*
X976730D01*
Y-572298D01*
Y-572752D01*
X977184D01*
Y-573205D01*
Y-573659D01*
X977637D01*
Y-574112D01*
Y-574566D01*
X978091D01*
Y-575019D01*
Y-575473D01*
X978544D01*
Y-575927D01*
Y-576380D01*
Y-576834D01*
X978998D01*
Y-577287D01*
Y-577741D01*
X979452D01*
Y-578194D01*
Y-578648D01*
Y-579101D01*
X979905D01*
Y-579555D01*
Y-580009D01*
Y-580462D01*
X980359D01*
Y-580916D01*
Y-581369D01*
Y-581823D01*
Y-582276D01*
X980812D01*
Y-582730D01*
Y-583183D01*
Y-583637D01*
Y-584090D01*
X981266D01*
Y-584544D01*
Y-584998D01*
Y-585451D01*
Y-585905D01*
X981719D01*
Y-586358D01*
Y-586812D01*
Y-587265D01*
Y-587719D01*
Y-588172D01*
Y-588626D01*
Y-589080D01*
X982173D01*
Y-589533D01*
Y-589987D01*
Y-590440D01*
Y-590894D01*
Y-591347D01*
Y-591801D01*
Y-592254D01*
Y-592708D01*
Y-593162D01*
Y-593615D01*
Y-594069D01*
X982626D01*
Y-594522D01*
Y-594976D01*
Y-595429D01*
Y-595883D01*
Y-596337D01*
Y-596790D01*
Y-597244D01*
Y-597697D01*
Y-598151D01*
Y-598604D01*
X982173D01*
Y-599058D01*
Y-599511D01*
Y-599965D01*
Y-600419D01*
Y-600872D01*
Y-601326D01*
Y-601779D01*
Y-602233D01*
Y-602686D01*
Y-603140D01*
Y-603593D01*
X981719D01*
Y-604047D01*
Y-604501D01*
Y-604954D01*
Y-605408D01*
Y-605861D01*
Y-606315D01*
X981266D01*
Y-606768D01*
Y-607222D01*
Y-607675D01*
Y-608129D01*
Y-608583D01*
X980812D01*
Y-609036D01*
Y-609490D01*
Y-609943D01*
Y-610397D01*
X980359D01*
Y-610850D01*
Y-611304D01*
Y-611758D01*
Y-612211D01*
X979905D01*
Y-612665D01*
Y-613118D01*
Y-613572D01*
X979452D01*
Y-614025D01*
Y-614479D01*
X978998D01*
Y-614932D01*
Y-615386D01*
Y-615839D01*
X978544D01*
Y-616293D01*
Y-616747D01*
X978091D01*
Y-617200D01*
Y-617654D01*
Y-618107D01*
X977637D01*
Y-618561D01*
Y-619014D01*
X977184D01*
Y-619468D01*
Y-619921D01*
X976730D01*
Y-620375D01*
Y-620829D01*
X976277D01*
Y-621282D01*
Y-621736D01*
X975823D01*
Y-621282D01*
Y-620829D01*
Y-620375D01*
Y-619921D01*
Y-619468D01*
Y-619014D01*
Y-618561D01*
Y-618107D01*
Y-617654D01*
Y-617200D01*
Y-616747D01*
Y-616293D01*
Y-615839D01*
Y-615386D01*
Y-614932D01*
Y-614479D01*
Y-614025D01*
Y-613572D01*
Y-613118D01*
Y-612665D01*
Y-612211D01*
Y-611758D01*
Y-611304D01*
Y-610850D01*
Y-610397D01*
Y-609943D01*
Y-609490D01*
Y-609036D01*
Y-608583D01*
Y-608129D01*
Y-607675D01*
Y-607222D01*
Y-606768D01*
Y-606315D01*
Y-605861D01*
Y-605408D01*
Y-604954D01*
Y-604501D01*
Y-604047D01*
Y-603593D01*
Y-603140D01*
Y-602686D01*
Y-602233D01*
Y-601779D01*
Y-601326D01*
Y-600872D01*
Y-600419D01*
Y-599965D01*
Y-599511D01*
Y-599058D01*
Y-598604D01*
Y-598151D01*
Y-597697D01*
Y-597244D01*
Y-596790D01*
Y-596337D01*
Y-595883D01*
Y-595429D01*
Y-594976D01*
Y-594522D01*
Y-594069D01*
Y-593615D01*
Y-593162D01*
Y-592708D01*
Y-592254D01*
Y-591801D01*
Y-591347D01*
Y-590894D01*
Y-590440D01*
Y-589987D01*
Y-589533D01*
Y-589080D01*
Y-588626D01*
Y-588172D01*
Y-587719D01*
Y-587265D01*
X963123D01*
Y-587719D01*
Y-588172D01*
Y-588626D01*
Y-589080D01*
Y-589533D01*
Y-589987D01*
Y-590440D01*
Y-590894D01*
Y-591347D01*
Y-591801D01*
Y-592254D01*
Y-592708D01*
Y-593162D01*
Y-593615D01*
Y-594069D01*
Y-594522D01*
Y-594976D01*
Y-595429D01*
Y-595883D01*
Y-596337D01*
Y-596790D01*
Y-597244D01*
Y-597697D01*
Y-598151D01*
Y-598604D01*
Y-599058D01*
Y-599511D01*
Y-599965D01*
Y-600419D01*
Y-600872D01*
Y-601326D01*
Y-601779D01*
Y-602233D01*
Y-602686D01*
Y-603140D01*
Y-603593D01*
Y-604047D01*
Y-604501D01*
Y-604954D01*
Y-605408D01*
Y-605861D01*
Y-606315D01*
Y-606768D01*
Y-607222D01*
Y-607675D01*
Y-608129D01*
Y-608583D01*
Y-609036D01*
Y-609490D01*
Y-609943D01*
Y-610397D01*
Y-610850D01*
Y-611304D01*
Y-611758D01*
Y-612211D01*
Y-612665D01*
Y-613118D01*
Y-613572D01*
Y-614025D01*
Y-614479D01*
Y-614932D01*
X962670D01*
Y-615386D01*
Y-615839D01*
Y-616293D01*
Y-616747D01*
X962216D01*
Y-617200D01*
Y-617654D01*
X961763D01*
Y-618107D01*
Y-618561D01*
X961309D01*
Y-619014D01*
X960856D01*
Y-619468D01*
X960402D01*
Y-619921D01*
X959949D01*
Y-620375D01*
X959495D01*
Y-620829D01*
X958588D01*
Y-621282D01*
X957227D01*
Y-621736D01*
X950878D01*
Y-621282D01*
X949517D01*
Y-620829D01*
X948610D01*
Y-620375D01*
X948156D01*
Y-619921D01*
X947703D01*
Y-619468D01*
X947249D01*
Y-619014D01*
Y-618561D01*
X946796D01*
Y-618107D01*
Y-617654D01*
X946342D01*
Y-617200D01*
Y-616747D01*
Y-616293D01*
Y-615839D01*
X945888D01*
Y-615386D01*
Y-614932D01*
Y-614479D01*
Y-614025D01*
Y-613572D01*
Y-613118D01*
Y-612665D01*
Y-612211D01*
Y-611758D01*
Y-611304D01*
Y-610850D01*
Y-610397D01*
Y-609943D01*
Y-609490D01*
Y-609036D01*
Y-608583D01*
Y-608129D01*
Y-607675D01*
Y-607222D01*
Y-606768D01*
Y-606315D01*
Y-605861D01*
Y-605408D01*
Y-604954D01*
Y-604501D01*
Y-604047D01*
Y-603593D01*
Y-603140D01*
Y-602686D01*
Y-602233D01*
Y-601779D01*
Y-601326D01*
Y-600872D01*
Y-600419D01*
Y-599965D01*
Y-599511D01*
Y-599058D01*
Y-598604D01*
Y-598151D01*
Y-597697D01*
Y-597244D01*
Y-596790D01*
Y-596337D01*
Y-595883D01*
Y-595429D01*
Y-594976D01*
Y-594522D01*
Y-594069D01*
Y-593615D01*
Y-593162D01*
Y-592708D01*
Y-592254D01*
Y-591801D01*
Y-591347D01*
Y-590894D01*
Y-590440D01*
Y-589987D01*
Y-589533D01*
Y-589080D01*
Y-588626D01*
Y-588172D01*
Y-587719D01*
Y-587265D01*
X933189D01*
Y-587719D01*
Y-588172D01*
Y-588626D01*
Y-589080D01*
Y-589533D01*
Y-589987D01*
Y-590440D01*
Y-590894D01*
Y-591347D01*
Y-591801D01*
Y-592254D01*
Y-592708D01*
Y-593162D01*
Y-593615D01*
Y-594069D01*
Y-594522D01*
Y-594976D01*
Y-595429D01*
Y-595883D01*
Y-596337D01*
Y-596790D01*
Y-597244D01*
Y-597697D01*
Y-598151D01*
Y-598604D01*
Y-599058D01*
Y-599511D01*
Y-599965D01*
Y-600419D01*
Y-600872D01*
Y-601326D01*
Y-601779D01*
Y-602233D01*
Y-602686D01*
Y-603140D01*
Y-603593D01*
Y-604047D01*
Y-604501D01*
Y-604954D01*
Y-605408D01*
Y-605861D01*
Y-606315D01*
Y-606768D01*
Y-607222D01*
Y-607675D01*
Y-608129D01*
Y-608583D01*
Y-609036D01*
Y-609490D01*
Y-609943D01*
Y-610397D01*
Y-610850D01*
Y-611304D01*
Y-611758D01*
Y-612211D01*
Y-612665D01*
Y-613118D01*
Y-613572D01*
Y-614025D01*
Y-614479D01*
Y-614932D01*
Y-615386D01*
Y-615839D01*
Y-616293D01*
Y-616747D01*
Y-617200D01*
Y-617654D01*
Y-618107D01*
Y-618561D01*
Y-619014D01*
Y-619468D01*
Y-619921D01*
Y-620375D01*
X933642D01*
Y-620829D01*
Y-621282D01*
Y-621736D01*
Y-622189D01*
X934096D01*
Y-622643D01*
Y-623096D01*
Y-623550D01*
X934549D01*
Y-624003D01*
Y-624457D01*
Y-624911D01*
X935003D01*
Y-625364D01*
Y-625818D01*
X935457D01*
Y-626271D01*
X935910D01*
Y-626725D01*
Y-627178D01*
X936364D01*
Y-627632D01*
X936817D01*
Y-628086D01*
X937271D01*
Y-628539D01*
X937724D01*
Y-628993D01*
X938178D01*
Y-629446D01*
X938632D01*
Y-629900D01*
X939539D01*
Y-630353D01*
X939992D01*
Y-630807D01*
X940899D01*
Y-631260D01*
X941806D01*
Y-631714D01*
X942713D01*
Y-632168D01*
X944074D01*
Y-632621D01*
X945888D01*
Y-633075D01*
X954960D01*
Y-632621D01*
X956774D01*
Y-632168D01*
X957681D01*
Y-631714D01*
X959042D01*
Y-631260D01*
X959495D01*
Y-630807D01*
X960402D01*
Y-630353D01*
X960856D01*
Y-629900D01*
X961309D01*
Y-629446D01*
X962216D01*
Y-628993D01*
X962670D01*
Y-628539D01*
X963123D01*
Y-628086D01*
Y-627632D01*
X963577D01*
Y-628086D01*
Y-628539D01*
Y-628993D01*
Y-629446D01*
Y-629900D01*
Y-630353D01*
Y-630807D01*
Y-631260D01*
Y-631714D01*
Y-632168D01*
X968566D01*
Y-632621D01*
X968113D01*
Y-633075D01*
X967659D01*
Y-633528D01*
X967206D01*
Y-633982D01*
X966752D01*
Y-634435D01*
X966298D01*
Y-634889D01*
X965845D01*
Y-635342D01*
X965391D01*
Y-635796D01*
X964938D01*
Y-636250D01*
X964031D01*
Y-636703D01*
X963577D01*
Y-637157D01*
X963123D01*
Y-637610D01*
X962670D01*
Y-638064D01*
X961763D01*
Y-638517D01*
X961309D01*
Y-638971D01*
X960856D01*
Y-639424D01*
X959949D01*
Y-639878D01*
X959495D01*
Y-640331D01*
X958588D01*
Y-640785D01*
X958135D01*
Y-641239D01*
X957227D01*
Y-641692D01*
X956774D01*
Y-642146D01*
X955867D01*
Y-642599D01*
X954960D01*
Y-643053D01*
X954052D01*
Y-643506D01*
X953599D01*
Y-643960D01*
X952692D01*
Y-644414D01*
X951331D01*
Y-644867D01*
X950424D01*
Y-645321D01*
X949517D01*
Y-645774D01*
X948156D01*
Y-646228D01*
X947249D01*
Y-646681D01*
X945888D01*
Y-647135D01*
X944074D01*
Y-647588D01*
X942713D01*
Y-648042D01*
X940899D01*
Y-648495D01*
X938178D01*
Y-648949D01*
X935003D01*
Y-649403D01*
X923211D01*
Y-648949D01*
X920036D01*
Y-648495D01*
X917768D01*
Y-648042D01*
X915954D01*
Y-647588D01*
X914139D01*
Y-647135D01*
X912779D01*
Y-646681D01*
X911418D01*
Y-646228D01*
X910058D01*
Y-645774D01*
X909150D01*
Y-645321D01*
X907790D01*
Y-644867D01*
X906883D01*
Y-644414D01*
X905975D01*
Y-643960D01*
X905068D01*
Y-643506D01*
X904161D01*
Y-643053D01*
X903254D01*
Y-642599D01*
X902347D01*
Y-642146D01*
X901893D01*
Y-641692D01*
X900986D01*
Y-641239D01*
X900079D01*
Y-640785D01*
X899626D01*
Y-640331D01*
X898719D01*
Y-639878D01*
X898265D01*
Y-639424D01*
X897812D01*
Y-638971D01*
X896904D01*
Y-638517D01*
X896451D01*
Y-638064D01*
X895997D01*
Y-637610D01*
X895090D01*
Y-637157D01*
X894637D01*
Y-636703D01*
X894183D01*
Y-636250D01*
X893729D01*
Y-635796D01*
X893276D01*
Y-635342D01*
X892822D01*
Y-634889D01*
X892369D01*
Y-634435D01*
X891915D01*
Y-633982D01*
X891462D01*
Y-633528D01*
X891008D01*
Y-633075D01*
X890555D01*
Y-632621D01*
X890101D01*
Y-632168D01*
X889648D01*
Y-631714D01*
X889194D01*
Y-631260D01*
X888740D01*
Y-630807D01*
X888287D01*
Y-630353D01*
X887833D01*
Y-629900D01*
Y-629446D01*
X887380D01*
Y-628993D01*
X886926D01*
Y-628539D01*
X886473D01*
Y-628086D01*
X886019D01*
Y-627632D01*
Y-627178D01*
X885565D01*
Y-626725D01*
X885112D01*
Y-626271D01*
Y-625818D01*
X884658D01*
Y-625364D01*
X884205D01*
Y-624911D01*
Y-624457D01*
X883751D01*
Y-624003D01*
X883298D01*
Y-623550D01*
Y-623096D01*
X882844D01*
Y-622643D01*
Y-622189D01*
X882391D01*
Y-621736D01*
Y-621282D01*
X881937D01*
Y-620829D01*
Y-620375D01*
X881484D01*
Y-619921D01*
Y-619468D01*
X881030D01*
Y-619014D01*
Y-618561D01*
X880576D01*
Y-618107D01*
Y-617654D01*
X880123D01*
Y-617200D01*
Y-616747D01*
X879669D01*
Y-616293D01*
Y-615839D01*
Y-615386D01*
X879216D01*
Y-614932D01*
Y-614479D01*
Y-614025D01*
X878762D01*
Y-613572D01*
Y-613118D01*
X878309D01*
Y-612665D01*
Y-612211D01*
Y-611758D01*
Y-611304D01*
X877855D01*
Y-610850D01*
Y-610397D01*
Y-609943D01*
X877402D01*
Y-609490D01*
Y-609036D01*
Y-608583D01*
Y-608129D01*
X876948D01*
Y-607675D01*
Y-607222D01*
Y-606768D01*
Y-606315D01*
Y-605861D01*
X876494D01*
Y-605408D01*
Y-604954D01*
Y-604501D01*
Y-604047D01*
Y-603593D01*
Y-603140D01*
Y-602686D01*
X876041D01*
Y-602233D01*
Y-601779D01*
Y-601326D01*
Y-600872D01*
Y-600419D01*
Y-599965D01*
Y-599511D01*
Y-599058D01*
Y-598604D01*
Y-598151D01*
X875587D01*
Y-597697D01*
Y-597244D01*
Y-596790D01*
Y-596337D01*
Y-595883D01*
Y-595429D01*
Y-594976D01*
Y-594522D01*
Y-594069D01*
X876041D01*
Y-593615D01*
Y-593162D01*
Y-592708D01*
Y-592254D01*
Y-591801D01*
Y-591347D01*
Y-590894D01*
Y-590440D01*
Y-589987D01*
X876494D01*
Y-589533D01*
Y-589080D01*
Y-588626D01*
Y-588172D01*
Y-587719D01*
Y-587265D01*
Y-586812D01*
X876948D01*
Y-586358D01*
Y-585905D01*
Y-585451D01*
Y-584998D01*
Y-584544D01*
X877402D01*
Y-584090D01*
Y-583637D01*
Y-583183D01*
Y-582730D01*
X877855D01*
Y-582276D01*
Y-581823D01*
Y-581369D01*
Y-580916D01*
X878309D01*
Y-580462D01*
Y-580009D01*
Y-579555D01*
X878762D01*
Y-579101D01*
Y-578648D01*
Y-578194D01*
X879216D01*
Y-577741D01*
Y-577287D01*
X879669D01*
Y-576834D01*
Y-576380D01*
Y-575927D01*
X880123D01*
Y-575473D01*
Y-575019D01*
X880576D01*
Y-574566D01*
Y-574112D01*
Y-573659D01*
X881030D01*
Y-573205D01*
Y-572752D01*
X881484D01*
Y-572298D01*
Y-571844D01*
X881937D01*
Y-571391D01*
Y-570937D01*
X882391D01*
Y-570484D01*
X882844D01*
Y-570030D01*
Y-569577D01*
X883298D01*
Y-569123D01*
Y-568670D01*
X883751D01*
Y-568216D01*
X884205D01*
Y-567762D01*
Y-567309D01*
X884658D01*
Y-566855D01*
X885112D01*
Y-566402D01*
Y-565948D01*
X885565D01*
Y-565495D01*
X886019D01*
Y-565041D01*
Y-564588D01*
X886473D01*
Y-564134D01*
X886926D01*
Y-563680D01*
X887380D01*
Y-563227D01*
Y-562773D01*
X887833D01*
Y-562320D01*
X888287D01*
Y-561866D01*
X888740D01*
Y-561413D01*
X889194D01*
Y-560959D01*
X889648D01*
Y-560506D01*
X890101D01*
Y-560052D01*
X890555D01*
Y-559599D01*
Y-559145D01*
X891008D01*
Y-558691D01*
X891462D01*
Y-558238D01*
X891915D01*
Y-557784D01*
X892822D01*
Y-557331D01*
X893276D01*
Y-556877D01*
X893729D01*
Y-556424D01*
X894183D01*
Y-555970D01*
X894637D01*
Y-555517D01*
X895090D01*
Y-555063D01*
X895544D01*
Y-554609D01*
X896451D01*
Y-554156D01*
X896904D01*
Y-553702D01*
X897358D01*
Y-553249D01*
X898265D01*
Y-552795D01*
X898719D01*
Y-552342D01*
X899626D01*
Y-551888D01*
X900079D01*
Y-551435D01*
X900986D01*
Y-550981D01*
X901440D01*
Y-550527D01*
X902347D01*
Y-550074D01*
X903254D01*
Y-549620D01*
X903708D01*
Y-549167D01*
X905068D01*
Y-548713D01*
X905975D01*
Y-548260D01*
X906883D01*
Y-547806D01*
X907790D01*
Y-547352D01*
X908697D01*
Y-546899D01*
X910058D01*
Y-546445D01*
X910965D01*
Y-545992D01*
X912325D01*
Y-545538D01*
X913686D01*
Y-545085D01*
X915500D01*
Y-544631D01*
X917314D01*
Y-544178D01*
X919582D01*
Y-543724D01*
X922757D01*
Y-543270D01*
X927293D01*
Y-542817D01*
X931375D01*
Y-543270D01*
D02*
G37*
G36*
X1001676Y-570484D02*
Y-570937D01*
Y-571391D01*
Y-571844D01*
Y-572298D01*
Y-572752D01*
Y-573205D01*
Y-573659D01*
Y-574112D01*
Y-574566D01*
Y-575019D01*
Y-575473D01*
Y-575927D01*
Y-576380D01*
Y-576834D01*
Y-577287D01*
Y-577741D01*
Y-578194D01*
Y-578648D01*
Y-579101D01*
Y-579555D01*
Y-580009D01*
Y-580462D01*
Y-580916D01*
Y-581369D01*
Y-581823D01*
Y-582276D01*
Y-582730D01*
Y-583183D01*
Y-583637D01*
Y-584090D01*
Y-584544D01*
Y-584998D01*
Y-585451D01*
Y-585905D01*
Y-586358D01*
Y-586812D01*
Y-587265D01*
Y-587719D01*
Y-588172D01*
Y-588626D01*
Y-589080D01*
Y-589533D01*
Y-589987D01*
Y-590440D01*
Y-590894D01*
Y-591347D01*
Y-591801D01*
Y-592254D01*
Y-592708D01*
X1002583D01*
Y-592254D01*
X1003036D01*
Y-591801D01*
X1003490D01*
Y-591347D01*
X1003944D01*
Y-590894D01*
X1004397D01*
Y-590440D01*
X1004851D01*
Y-589987D01*
X1005304D01*
Y-589533D01*
X1006211D01*
Y-589080D01*
X1006665D01*
Y-588626D01*
X1007572D01*
Y-588172D01*
X1008479D01*
Y-587719D01*
X1009840D01*
Y-587265D01*
X1011654D01*
Y-586812D01*
X1020272D01*
Y-587265D01*
X1022086D01*
Y-587719D01*
X1023447D01*
Y-588172D01*
X1024807D01*
Y-588626D01*
X1025714D01*
Y-589080D01*
X1026168D01*
Y-589533D01*
X1027075D01*
Y-589987D01*
X1027529D01*
Y-590440D01*
X1028436D01*
Y-590894D01*
X1028889D01*
Y-591347D01*
X1029343D01*
Y-591801D01*
X1029796D01*
Y-592254D01*
X1030250D01*
Y-592708D01*
X1030703D01*
Y-593162D01*
Y-593615D01*
X1031157D01*
Y-594069D01*
X1031610D01*
Y-594522D01*
X1032064D01*
Y-594976D01*
Y-595429D01*
X1032518D01*
Y-595883D01*
Y-596337D01*
X1032971D01*
Y-596790D01*
Y-597244D01*
X1033425D01*
Y-597697D01*
Y-598151D01*
X1033878D01*
Y-598604D01*
Y-599058D01*
Y-599511D01*
X1034332D01*
Y-599965D01*
Y-600419D01*
Y-600872D01*
Y-601326D01*
X1034785D01*
Y-601779D01*
Y-602233D01*
Y-602686D01*
Y-603140D01*
Y-603593D01*
X1035239D01*
Y-604047D01*
Y-604501D01*
Y-604954D01*
Y-605408D01*
Y-605861D01*
Y-606315D01*
Y-606768D01*
Y-607222D01*
Y-607675D01*
X1035693D01*
Y-608129D01*
X1035239D01*
Y-608583D01*
Y-609036D01*
Y-609490D01*
Y-609943D01*
Y-610397D01*
Y-610850D01*
Y-611304D01*
Y-611758D01*
Y-612211D01*
Y-612665D01*
Y-613118D01*
Y-613572D01*
Y-614025D01*
Y-614479D01*
Y-614932D01*
Y-615386D01*
Y-615839D01*
X1034785D01*
Y-616293D01*
Y-616747D01*
Y-617200D01*
Y-617654D01*
Y-618107D01*
X1034332D01*
Y-618561D01*
Y-619014D01*
Y-619468D01*
X1033878D01*
Y-619921D01*
Y-620375D01*
Y-620829D01*
X1033425D01*
Y-621282D01*
Y-621736D01*
Y-622189D01*
X1032971D01*
Y-622643D01*
Y-623096D01*
X1032518D01*
Y-623550D01*
Y-624003D01*
X1032064D01*
Y-624457D01*
X1031610D01*
Y-624911D01*
Y-625364D01*
X1031157D01*
Y-625818D01*
X1030703D01*
Y-626271D01*
X1030250D01*
Y-626725D01*
X1029796D01*
Y-627178D01*
Y-627632D01*
X1028889D01*
Y-628086D01*
X1028436D01*
Y-628539D01*
X1027982D01*
Y-628993D01*
X1027529D01*
Y-629446D01*
X1026621D01*
Y-629900D01*
X1026168D01*
Y-630353D01*
X1025261D01*
Y-630807D01*
X1024354D01*
Y-631260D01*
X1023447D01*
Y-631714D01*
X1022086D01*
Y-632168D01*
X1019818D01*
Y-632621D01*
X1012108D01*
Y-632168D01*
X1009840D01*
Y-631714D01*
X1008933D01*
Y-631260D01*
X1007572D01*
Y-630807D01*
X1007119D01*
Y-630353D01*
X1006211D01*
Y-629900D01*
X1005758D01*
Y-629446D01*
X1004851D01*
Y-628993D01*
X1004397D01*
Y-628539D01*
X1003944D01*
Y-628086D01*
X1003490D01*
Y-627632D01*
X1003036D01*
Y-627178D01*
X1002583D01*
Y-626725D01*
X1002129D01*
Y-626271D01*
Y-625818D01*
X1001222D01*
Y-626271D01*
Y-626725D01*
Y-627178D01*
Y-627632D01*
Y-628086D01*
Y-628539D01*
Y-628993D01*
Y-629446D01*
Y-629900D01*
Y-630353D01*
Y-630807D01*
Y-631260D01*
Y-631714D01*
X989883D01*
Y-631260D01*
Y-630807D01*
Y-630353D01*
Y-629900D01*
Y-629446D01*
Y-628993D01*
Y-628539D01*
Y-628086D01*
Y-627632D01*
Y-627178D01*
Y-626725D01*
Y-626271D01*
Y-625818D01*
Y-625364D01*
Y-624911D01*
Y-624457D01*
Y-624003D01*
Y-623550D01*
Y-623096D01*
Y-622643D01*
Y-622189D01*
Y-621736D01*
Y-621282D01*
Y-620829D01*
Y-620375D01*
Y-619921D01*
Y-619468D01*
Y-619014D01*
Y-618561D01*
Y-618107D01*
Y-617654D01*
Y-617200D01*
Y-616747D01*
Y-616293D01*
Y-615839D01*
Y-615386D01*
Y-614932D01*
Y-614479D01*
Y-614025D01*
Y-613572D01*
Y-613118D01*
Y-612665D01*
Y-612211D01*
Y-611758D01*
Y-611304D01*
Y-610850D01*
Y-610397D01*
Y-609943D01*
Y-609490D01*
Y-609036D01*
Y-608583D01*
Y-608129D01*
Y-607675D01*
Y-607222D01*
Y-606768D01*
Y-606315D01*
Y-605861D01*
Y-605408D01*
Y-604954D01*
Y-604501D01*
Y-604047D01*
Y-603593D01*
Y-603140D01*
Y-602686D01*
Y-602233D01*
Y-601779D01*
Y-601326D01*
Y-600872D01*
Y-600419D01*
Y-599965D01*
Y-599511D01*
Y-599058D01*
Y-598604D01*
Y-598151D01*
Y-597697D01*
Y-597244D01*
Y-596790D01*
Y-596337D01*
Y-595883D01*
Y-595429D01*
Y-594976D01*
Y-594522D01*
Y-594069D01*
Y-593615D01*
Y-593162D01*
Y-592708D01*
Y-592254D01*
Y-591801D01*
Y-591347D01*
Y-590894D01*
Y-590440D01*
Y-589987D01*
Y-589533D01*
Y-589080D01*
Y-588626D01*
Y-588172D01*
Y-587719D01*
Y-587265D01*
Y-586812D01*
Y-586358D01*
Y-585905D01*
Y-585451D01*
Y-584998D01*
Y-584544D01*
Y-584090D01*
Y-583637D01*
Y-583183D01*
Y-582730D01*
Y-582276D01*
Y-581823D01*
Y-581369D01*
Y-580916D01*
Y-580462D01*
Y-580009D01*
Y-579555D01*
Y-579101D01*
Y-578648D01*
Y-578194D01*
Y-577741D01*
Y-577287D01*
Y-576834D01*
Y-576380D01*
Y-575927D01*
Y-575473D01*
Y-575019D01*
Y-574566D01*
Y-574112D01*
Y-573659D01*
Y-573205D01*
Y-572752D01*
Y-572298D01*
Y-571844D01*
Y-571391D01*
Y-570937D01*
Y-570484D01*
Y-570030D01*
X1001676D01*
Y-570484D01*
D02*
G37*
G36*
X1055195D02*
Y-570937D01*
Y-571391D01*
Y-571844D01*
Y-572298D01*
Y-572752D01*
Y-573205D01*
Y-573659D01*
Y-574112D01*
Y-574566D01*
Y-575019D01*
Y-575473D01*
Y-575927D01*
Y-576380D01*
Y-576834D01*
Y-577287D01*
Y-577741D01*
Y-578194D01*
Y-578648D01*
Y-579101D01*
Y-579555D01*
Y-580009D01*
Y-580462D01*
Y-580916D01*
Y-581369D01*
Y-581823D01*
Y-582276D01*
Y-582730D01*
Y-583183D01*
Y-583637D01*
Y-584090D01*
Y-584544D01*
Y-584998D01*
Y-585451D01*
Y-585905D01*
Y-586358D01*
Y-586812D01*
Y-587265D01*
Y-587719D01*
Y-588172D01*
Y-588626D01*
Y-589080D01*
Y-589533D01*
Y-589987D01*
Y-590440D01*
Y-590894D01*
Y-591347D01*
Y-591801D01*
Y-592254D01*
Y-592708D01*
Y-593162D01*
Y-593615D01*
Y-594069D01*
Y-594522D01*
Y-594976D01*
Y-595429D01*
Y-595883D01*
Y-596337D01*
Y-596790D01*
Y-597244D01*
Y-597697D01*
Y-598151D01*
Y-598604D01*
Y-599058D01*
Y-599511D01*
Y-599965D01*
Y-600419D01*
Y-600872D01*
Y-601326D01*
Y-601779D01*
Y-602233D01*
Y-602686D01*
Y-603140D01*
Y-603593D01*
Y-604047D01*
Y-604501D01*
Y-604954D01*
Y-605408D01*
Y-605861D01*
Y-606315D01*
Y-606768D01*
Y-607222D01*
Y-607675D01*
Y-608129D01*
Y-608583D01*
Y-609036D01*
Y-609490D01*
Y-609943D01*
Y-610397D01*
Y-610850D01*
Y-611304D01*
Y-611758D01*
Y-612211D01*
Y-612665D01*
Y-613118D01*
Y-613572D01*
Y-614025D01*
Y-614479D01*
Y-614932D01*
Y-615386D01*
Y-615839D01*
Y-616293D01*
Y-616747D01*
Y-617200D01*
Y-617654D01*
Y-618107D01*
Y-618561D01*
Y-619014D01*
Y-619468D01*
Y-619921D01*
Y-620375D01*
Y-620829D01*
Y-621282D01*
Y-621736D01*
Y-622189D01*
Y-622643D01*
Y-623096D01*
Y-623550D01*
Y-624003D01*
Y-624457D01*
Y-624911D01*
Y-625364D01*
Y-625818D01*
Y-626271D01*
Y-626725D01*
Y-627178D01*
Y-627632D01*
Y-628086D01*
Y-628539D01*
Y-628993D01*
Y-629446D01*
Y-629900D01*
Y-630353D01*
Y-630807D01*
Y-631260D01*
Y-631714D01*
X1043857D01*
Y-631260D01*
Y-630807D01*
Y-630353D01*
Y-629900D01*
Y-629446D01*
Y-628993D01*
Y-628539D01*
Y-628086D01*
Y-627632D01*
Y-627178D01*
Y-626725D01*
Y-626271D01*
Y-625818D01*
Y-625364D01*
Y-624911D01*
Y-624457D01*
Y-624003D01*
Y-623550D01*
Y-623096D01*
Y-622643D01*
Y-622189D01*
Y-621736D01*
Y-621282D01*
Y-620829D01*
Y-620375D01*
Y-619921D01*
Y-619468D01*
Y-619014D01*
Y-618561D01*
Y-618107D01*
Y-617654D01*
Y-617200D01*
Y-616747D01*
Y-616293D01*
Y-615839D01*
Y-615386D01*
Y-614932D01*
Y-614479D01*
Y-614025D01*
Y-613572D01*
Y-613118D01*
Y-612665D01*
Y-612211D01*
Y-611758D01*
Y-611304D01*
Y-610850D01*
Y-610397D01*
Y-609943D01*
Y-609490D01*
Y-609036D01*
Y-608583D01*
Y-608129D01*
Y-607675D01*
Y-607222D01*
Y-606768D01*
Y-606315D01*
Y-605861D01*
Y-605408D01*
Y-604954D01*
Y-604501D01*
Y-604047D01*
Y-603593D01*
Y-603140D01*
Y-602686D01*
Y-602233D01*
Y-601779D01*
Y-601326D01*
Y-600872D01*
Y-600419D01*
Y-599965D01*
Y-599511D01*
Y-599058D01*
Y-598604D01*
Y-598151D01*
Y-597697D01*
Y-597244D01*
Y-596790D01*
Y-596337D01*
Y-595883D01*
Y-595429D01*
Y-594976D01*
Y-594522D01*
Y-594069D01*
Y-593615D01*
Y-593162D01*
Y-592708D01*
Y-592254D01*
Y-591801D01*
Y-591347D01*
Y-590894D01*
Y-590440D01*
Y-589987D01*
Y-589533D01*
Y-589080D01*
Y-588626D01*
Y-588172D01*
Y-587719D01*
Y-587265D01*
Y-586812D01*
Y-586358D01*
Y-585905D01*
Y-585451D01*
Y-584998D01*
Y-584544D01*
Y-584090D01*
Y-583637D01*
Y-583183D01*
Y-582730D01*
Y-582276D01*
Y-581823D01*
Y-581369D01*
Y-580916D01*
Y-580462D01*
Y-580009D01*
Y-579555D01*
Y-579101D01*
Y-578648D01*
Y-578194D01*
Y-577741D01*
Y-577287D01*
Y-576834D01*
Y-576380D01*
Y-575927D01*
Y-575473D01*
Y-575019D01*
Y-574566D01*
Y-574112D01*
Y-573659D01*
Y-573205D01*
Y-572752D01*
Y-572298D01*
Y-571844D01*
Y-571391D01*
Y-570937D01*
Y-570484D01*
Y-570030D01*
X1055195D01*
Y-570484D01*
D02*
G37*
G36*
X1091480Y-587265D02*
X1093748D01*
Y-587719D01*
X1095108D01*
Y-588172D01*
X1096469D01*
Y-588626D01*
X1097376D01*
Y-589080D01*
X1098283D01*
Y-589533D01*
X1099190D01*
Y-589987D01*
X1100098D01*
Y-590440D01*
X1100551D01*
Y-590894D01*
X1101458D01*
Y-591347D01*
X1101912D01*
Y-591801D01*
X1102365D01*
Y-592254D01*
X1102819D01*
Y-592708D01*
X1103272D01*
Y-593162D01*
X1103726D01*
Y-593615D01*
X1104180D01*
Y-594069D01*
X1104633D01*
Y-594522D01*
X1105087D01*
Y-594976D01*
Y-595429D01*
X1105540D01*
Y-595883D01*
X1105994D01*
Y-596337D01*
Y-596790D01*
X1106447D01*
Y-597244D01*
Y-597697D01*
X1106901D01*
Y-598151D01*
Y-598604D01*
X1107354D01*
Y-599058D01*
Y-599511D01*
X1107808D01*
Y-599965D01*
Y-600419D01*
Y-600872D01*
X1108261D01*
Y-601326D01*
Y-601779D01*
Y-602233D01*
Y-602686D01*
Y-603140D01*
X1108715D01*
Y-603593D01*
Y-604047D01*
Y-604501D01*
Y-604954D01*
Y-605408D01*
Y-605861D01*
Y-606315D01*
X1109169D01*
Y-606768D01*
Y-607222D01*
Y-607675D01*
Y-608129D01*
Y-608583D01*
Y-609036D01*
Y-609490D01*
Y-609943D01*
Y-610397D01*
Y-610850D01*
Y-611304D01*
Y-611758D01*
Y-612211D01*
Y-612665D01*
Y-613118D01*
X1108715D01*
Y-613572D01*
Y-614025D01*
Y-614479D01*
Y-614932D01*
Y-615386D01*
Y-615839D01*
Y-616293D01*
X1108261D01*
Y-616747D01*
Y-617200D01*
Y-617654D01*
Y-618107D01*
X1107808D01*
Y-618561D01*
Y-619014D01*
Y-619468D01*
X1107354D01*
Y-619921D01*
Y-620375D01*
Y-620829D01*
X1106901D01*
Y-621282D01*
Y-621736D01*
X1106447D01*
Y-622189D01*
Y-622643D01*
X1105994D01*
Y-623096D01*
Y-623550D01*
X1105540D01*
Y-624003D01*
X1105087D01*
Y-624457D01*
X1104633D01*
Y-624911D01*
Y-625364D01*
X1104180D01*
Y-625818D01*
X1103726D01*
Y-626271D01*
X1103272D01*
Y-626725D01*
X1102819D01*
Y-627178D01*
X1102365D01*
Y-627632D01*
X1101912D01*
Y-628086D01*
X1101005D01*
Y-628539D01*
X1100551D01*
Y-628993D01*
X1099644D01*
Y-629446D01*
X1099190D01*
Y-629900D01*
X1098283D01*
Y-630353D01*
X1097376D01*
Y-630807D01*
X1096015D01*
Y-631260D01*
X1094655D01*
Y-631714D01*
X1093294D01*
Y-632168D01*
X1091026D01*
Y-632621D01*
X1081502D01*
Y-632168D01*
X1078780D01*
Y-631714D01*
X1076966D01*
Y-631260D01*
X1076059D01*
Y-630807D01*
X1074698D01*
Y-630353D01*
X1073791D01*
Y-629900D01*
X1072884D01*
Y-629446D01*
X1072430D01*
Y-628993D01*
X1071523D01*
Y-628539D01*
X1071070D01*
Y-628086D01*
X1070163D01*
Y-627632D01*
X1069709D01*
Y-627178D01*
X1069256D01*
Y-626725D01*
X1068802D01*
Y-626271D01*
X1068348D01*
Y-625818D01*
X1067895D01*
Y-625364D01*
X1067441D01*
Y-624911D01*
Y-624457D01*
X1066988D01*
Y-624003D01*
X1066534D01*
Y-623550D01*
X1066081D01*
Y-623096D01*
Y-622643D01*
X1065627D01*
Y-622189D01*
Y-621736D01*
X1065174D01*
Y-621282D01*
Y-620829D01*
X1064720D01*
Y-620375D01*
Y-619921D01*
Y-619468D01*
X1064267D01*
Y-619014D01*
Y-618561D01*
Y-618107D01*
X1063813D01*
Y-617654D01*
Y-617200D01*
Y-616747D01*
Y-616293D01*
X1063359D01*
Y-615839D01*
Y-615386D01*
Y-614932D01*
Y-614479D01*
Y-614025D01*
Y-613572D01*
Y-613118D01*
Y-612665D01*
X1062906D01*
Y-612211D01*
Y-611758D01*
Y-611304D01*
Y-610850D01*
Y-610397D01*
Y-609943D01*
Y-609490D01*
Y-609036D01*
Y-608583D01*
Y-608129D01*
Y-607675D01*
Y-607222D01*
Y-606768D01*
X1063359D01*
Y-606315D01*
Y-605861D01*
Y-605408D01*
Y-604954D01*
Y-604501D01*
Y-604047D01*
Y-603593D01*
Y-603140D01*
X1063813D01*
Y-602686D01*
Y-602233D01*
Y-601779D01*
Y-601326D01*
X1064267D01*
Y-600872D01*
Y-600419D01*
Y-599965D01*
X1064720D01*
Y-599511D01*
Y-599058D01*
Y-598604D01*
X1065174D01*
Y-598151D01*
Y-597697D01*
X1065627D01*
Y-597244D01*
Y-596790D01*
X1066081D01*
Y-596337D01*
Y-595883D01*
X1066534D01*
Y-595429D01*
X1066988D01*
Y-594976D01*
Y-594522D01*
X1067441D01*
Y-594069D01*
X1067895D01*
Y-593615D01*
X1068348D01*
Y-593162D01*
X1068802D01*
Y-592708D01*
X1069256D01*
Y-592254D01*
X1069709D01*
Y-591801D01*
X1070163D01*
Y-591347D01*
X1070616D01*
Y-590894D01*
X1071523D01*
Y-590440D01*
X1071977D01*
Y-589987D01*
X1072884D01*
Y-589533D01*
X1073791D01*
Y-589080D01*
X1074698D01*
Y-588626D01*
X1075605D01*
Y-588172D01*
X1076966D01*
Y-587719D01*
X1078327D01*
Y-587265D01*
X1080595D01*
Y-586812D01*
X1091480D01*
Y-587265D01*
D02*
G37*
G36*
X1157245Y-588172D02*
X1156792D01*
Y-588626D01*
Y-589080D01*
X1156338D01*
Y-589533D01*
X1155885D01*
Y-589987D01*
X1155431D01*
Y-590440D01*
Y-590894D01*
X1154978D01*
Y-591347D01*
X1154524D01*
Y-591801D01*
Y-592254D01*
X1154071D01*
Y-592708D01*
X1153617D01*
Y-593162D01*
X1153164D01*
Y-593615D01*
Y-594069D01*
X1152710D01*
Y-594522D01*
X1152256D01*
Y-594976D01*
X1151803D01*
Y-595429D01*
Y-595883D01*
X1151349D01*
Y-596337D01*
X1150896D01*
Y-596790D01*
X1150442D01*
Y-597244D01*
Y-597697D01*
X1149989D01*
Y-598151D01*
X1149535D01*
Y-598604D01*
Y-599058D01*
X1149081D01*
Y-599511D01*
X1148628D01*
Y-599965D01*
X1148174D01*
Y-600419D01*
Y-600872D01*
X1147721D01*
Y-601326D01*
X1147267D01*
Y-601779D01*
X1146814D01*
Y-602233D01*
Y-602686D01*
X1146360D01*
Y-603140D01*
X1145907D01*
Y-603593D01*
Y-604047D01*
X1145453D01*
Y-604501D01*
X1144999D01*
Y-604954D01*
X1144546D01*
Y-605408D01*
Y-605861D01*
X1144092D01*
Y-606315D01*
X1143639D01*
Y-606768D01*
X1143185D01*
Y-607222D01*
Y-607675D01*
X1142732D01*
Y-608129D01*
X1142278D01*
Y-608583D01*
X1141825D01*
Y-609036D01*
Y-609490D01*
Y-609943D01*
X1142278D01*
Y-610397D01*
Y-610850D01*
X1142732D01*
Y-611304D01*
X1143185D01*
Y-611758D01*
X1143639D01*
Y-612211D01*
Y-612665D01*
X1144092D01*
Y-613118D01*
X1144546D01*
Y-613572D01*
X1144999D01*
Y-614025D01*
Y-614479D01*
X1145453D01*
Y-614932D01*
X1145907D01*
Y-615386D01*
Y-615839D01*
X1146360D01*
Y-616293D01*
X1146814D01*
Y-616747D01*
X1147267D01*
Y-617200D01*
Y-617654D01*
X1147721D01*
Y-618107D01*
X1148174D01*
Y-618561D01*
X1148628D01*
Y-619014D01*
Y-619468D01*
X1149081D01*
Y-619921D01*
X1149535D01*
Y-620375D01*
X1149989D01*
Y-620829D01*
Y-621282D01*
X1150442D01*
Y-621736D01*
X1150896D01*
Y-622189D01*
X1151349D01*
Y-622643D01*
Y-623096D01*
X1151803D01*
Y-623550D01*
X1152256D01*
Y-624003D01*
X1152710D01*
Y-624457D01*
Y-624911D01*
X1153164D01*
Y-625364D01*
X1153617D01*
Y-625818D01*
X1154071D01*
Y-626271D01*
Y-626725D01*
X1154524D01*
Y-627178D01*
X1154978D01*
Y-627632D01*
Y-628086D01*
X1155431D01*
Y-628539D01*
X1155885D01*
Y-628993D01*
X1156338D01*
Y-629446D01*
Y-629900D01*
X1156792D01*
Y-630353D01*
X1157245D01*
Y-630807D01*
X1157699D01*
Y-631260D01*
X1158153D01*
Y-631714D01*
X1143639D01*
Y-631260D01*
Y-630807D01*
X1143185D01*
Y-630353D01*
X1142732D01*
Y-629900D01*
X1142278D01*
Y-629446D01*
Y-628993D01*
X1141825D01*
Y-628539D01*
X1141371D01*
Y-628086D01*
X1140918D01*
Y-627632D01*
Y-627178D01*
X1140464D01*
Y-626725D01*
X1140010D01*
Y-626271D01*
Y-625818D01*
X1139557D01*
Y-625364D01*
X1139103D01*
Y-624911D01*
X1138650D01*
Y-624457D01*
Y-624003D01*
X1138196D01*
Y-623550D01*
X1137743D01*
Y-623096D01*
X1137289D01*
Y-622643D01*
Y-622189D01*
X1136835D01*
Y-621736D01*
X1136382D01*
Y-621282D01*
Y-620829D01*
X1135928D01*
Y-620375D01*
X1135475D01*
Y-619921D01*
X1135021D01*
Y-619468D01*
Y-619014D01*
X1134568D01*
Y-618561D01*
X1134114D01*
Y-618107D01*
X1133661D01*
Y-617654D01*
X1133207D01*
Y-618107D01*
Y-618561D01*
X1132754D01*
Y-619014D01*
X1132300D01*
Y-619468D01*
X1131846D01*
Y-619921D01*
Y-620375D01*
X1131393D01*
Y-620829D01*
X1130939D01*
Y-621282D01*
Y-621736D01*
X1130486D01*
Y-622189D01*
X1130032D01*
Y-622643D01*
X1129579D01*
Y-623096D01*
Y-623550D01*
X1129125D01*
Y-624003D01*
X1128671D01*
Y-624457D01*
Y-624911D01*
X1128218D01*
Y-625364D01*
X1127764D01*
Y-625818D01*
X1127311D01*
Y-626271D01*
Y-626725D01*
X1126857D01*
Y-627178D01*
X1126404D01*
Y-627632D01*
Y-628086D01*
X1125950D01*
Y-628539D01*
X1125497D01*
Y-628993D01*
X1125043D01*
Y-629446D01*
Y-629900D01*
X1124589D01*
Y-630353D01*
X1124136D01*
Y-630807D01*
Y-631260D01*
X1123682D01*
Y-631714D01*
X1110529D01*
Y-631260D01*
X1110983D01*
Y-630807D01*
X1111436D01*
Y-630353D01*
Y-629900D01*
X1111890D01*
Y-629446D01*
X1112344D01*
Y-628993D01*
X1112797D01*
Y-628539D01*
Y-628086D01*
X1113251D01*
Y-627632D01*
X1113704D01*
Y-627178D01*
Y-626725D01*
X1114158D01*
Y-626271D01*
X1114611D01*
Y-625818D01*
X1115065D01*
Y-625364D01*
X1115518D01*
Y-624911D01*
Y-624457D01*
X1115972D01*
Y-624003D01*
X1116425D01*
Y-623550D01*
Y-623096D01*
X1116879D01*
Y-622643D01*
X1117333D01*
Y-622189D01*
X1117786D01*
Y-621736D01*
Y-621282D01*
X1118240D01*
Y-620829D01*
X1118693D01*
Y-620375D01*
X1119147D01*
Y-619921D01*
Y-619468D01*
X1119600D01*
Y-619014D01*
X1120054D01*
Y-618561D01*
X1120508D01*
Y-618107D01*
Y-617654D01*
X1120961D01*
Y-617200D01*
X1121415D01*
Y-616747D01*
X1121868D01*
Y-616293D01*
Y-615839D01*
X1122322D01*
Y-615386D01*
X1122775D01*
Y-614932D01*
X1123229D01*
Y-614479D01*
Y-614025D01*
X1123682D01*
Y-613572D01*
X1124136D01*
Y-613118D01*
X1124589D01*
Y-612665D01*
Y-612211D01*
X1125043D01*
Y-611758D01*
X1125497D01*
Y-611304D01*
Y-610850D01*
X1125950D01*
Y-610397D01*
X1126404D01*
Y-609943D01*
X1126857D01*
Y-609490D01*
Y-609036D01*
X1126404D01*
Y-608583D01*
X1125950D01*
Y-608129D01*
X1125497D01*
Y-607675D01*
Y-607222D01*
X1125043D01*
Y-606768D01*
X1124589D01*
Y-606315D01*
X1124136D01*
Y-605861D01*
Y-605408D01*
X1123682D01*
Y-604954D01*
X1123229D01*
Y-604501D01*
Y-604047D01*
X1122775D01*
Y-603593D01*
X1122322D01*
Y-603140D01*
X1121868D01*
Y-602686D01*
Y-602233D01*
X1121415D01*
Y-601779D01*
X1120961D01*
Y-601326D01*
X1120508D01*
Y-600872D01*
Y-600419D01*
X1120054D01*
Y-599965D01*
X1119600D01*
Y-599511D01*
Y-599058D01*
X1119147D01*
Y-598604D01*
X1118693D01*
Y-598151D01*
X1118240D01*
Y-597697D01*
Y-597244D01*
X1117786D01*
Y-596790D01*
X1117333D01*
Y-596337D01*
X1116879D01*
Y-595883D01*
Y-595429D01*
X1116425D01*
Y-594976D01*
X1115972D01*
Y-594522D01*
Y-594069D01*
X1115518D01*
Y-593615D01*
X1115065D01*
Y-593162D01*
X1114611D01*
Y-592708D01*
Y-592254D01*
X1114158D01*
Y-591801D01*
X1113704D01*
Y-591347D01*
X1113251D01*
Y-590894D01*
Y-590440D01*
X1112797D01*
Y-589987D01*
X1112344D01*
Y-589533D01*
Y-589080D01*
X1111890D01*
Y-588626D01*
X1111436D01*
Y-588172D01*
X1110983D01*
Y-587719D01*
X1125043D01*
Y-588172D01*
X1125497D01*
Y-588626D01*
X1125950D01*
Y-589080D01*
Y-589533D01*
X1126404D01*
Y-589987D01*
X1126857D01*
Y-590440D01*
X1127311D01*
Y-590894D01*
Y-591347D01*
X1127764D01*
Y-591801D01*
X1128218D01*
Y-592254D01*
Y-592708D01*
X1128671D01*
Y-593162D01*
X1129125D01*
Y-593615D01*
Y-594069D01*
X1129579D01*
Y-594522D01*
X1130032D01*
Y-594976D01*
X1130486D01*
Y-595429D01*
Y-595883D01*
X1130939D01*
Y-596337D01*
X1131393D01*
Y-596790D01*
Y-597244D01*
X1131846D01*
Y-597697D01*
X1132300D01*
Y-598151D01*
X1132754D01*
Y-598604D01*
Y-599058D01*
X1133207D01*
Y-599511D01*
X1133661D01*
Y-599965D01*
Y-600419D01*
X1134114D01*
Y-600872D01*
X1134568D01*
Y-601326D01*
X1135021D01*
Y-600872D01*
X1135475D01*
Y-600419D01*
Y-599965D01*
X1135928D01*
Y-599511D01*
X1136382D01*
Y-599058D01*
X1136835D01*
Y-598604D01*
Y-598151D01*
X1137289D01*
Y-597697D01*
X1137743D01*
Y-597244D01*
Y-596790D01*
X1138196D01*
Y-596337D01*
X1138650D01*
Y-595883D01*
X1139103D01*
Y-595429D01*
Y-594976D01*
X1139557D01*
Y-594522D01*
X1140010D01*
Y-594069D01*
Y-593615D01*
X1140464D01*
Y-593162D01*
X1140918D01*
Y-592708D01*
X1141371D01*
Y-592254D01*
Y-591801D01*
X1141825D01*
Y-591347D01*
X1142278D01*
Y-590894D01*
Y-590440D01*
X1142732D01*
Y-589987D01*
X1143185D01*
Y-589533D01*
X1143639D01*
Y-589080D01*
Y-588626D01*
X1144092D01*
Y-588172D01*
X1144546D01*
Y-587719D01*
X1157245D01*
Y-588172D01*
D02*
G37*
%LPC*%
G36*
X919582Y-566855D02*
X917314D01*
Y-567309D01*
X915500D01*
Y-567762D01*
X914593D01*
Y-568216D01*
X913686D01*
Y-568670D01*
X912779D01*
Y-569123D01*
X912325D01*
Y-569577D01*
X911872D01*
Y-570030D01*
X911418D01*
Y-570484D01*
X910965D01*
Y-570937D01*
Y-571391D01*
X910511D01*
Y-571844D01*
X910058D01*
Y-572298D01*
Y-572752D01*
X909604D01*
Y-573205D01*
Y-573659D01*
Y-574112D01*
Y-574566D01*
X909150D01*
Y-575019D01*
Y-575473D01*
Y-575927D01*
Y-576380D01*
Y-576834D01*
Y-577287D01*
Y-577741D01*
Y-578194D01*
X909604D01*
Y-578648D01*
Y-579101D01*
Y-579555D01*
X910058D01*
Y-580009D01*
Y-580462D01*
X910511D01*
Y-580916D01*
Y-581369D01*
X910965D01*
Y-581823D01*
X911418D01*
Y-582276D01*
X911872D01*
Y-582730D01*
X912325D01*
Y-583183D01*
X912779D01*
Y-583637D01*
X913232D01*
Y-584090D01*
X914139D01*
Y-584544D01*
X915047D01*
Y-584998D01*
X916407D01*
Y-585451D01*
X920489D01*
Y-584998D01*
X921850D01*
Y-584544D01*
X922757D01*
Y-584090D01*
X923664D01*
Y-583637D01*
X924118D01*
Y-583183D01*
X924571D01*
Y-582730D01*
X925478D01*
Y-582276D01*
Y-581823D01*
X925932D01*
Y-581369D01*
X926385D01*
Y-580916D01*
Y-580462D01*
X926839D01*
Y-580009D01*
Y-579555D01*
X927293D01*
Y-579101D01*
Y-578648D01*
Y-578194D01*
X927746D01*
Y-577741D01*
Y-577287D01*
Y-576834D01*
Y-576380D01*
Y-575927D01*
Y-575473D01*
Y-575019D01*
Y-574566D01*
X927293D01*
Y-574112D01*
Y-573659D01*
Y-573205D01*
Y-572752D01*
X926839D01*
Y-572298D01*
Y-571844D01*
X926385D01*
Y-571391D01*
Y-570937D01*
X925932D01*
Y-570484D01*
X925478D01*
Y-570030D01*
X925025D01*
Y-569577D01*
X924571D01*
Y-569123D01*
X924118D01*
Y-568670D01*
X923211D01*
Y-568216D01*
X922757D01*
Y-567762D01*
X921396D01*
Y-567309D01*
X919582D01*
Y-566855D01*
D02*
G37*
G36*
X1014375Y-596790D02*
X1010293D01*
Y-597244D01*
X1008479D01*
Y-597697D01*
X1007119D01*
Y-598151D01*
X1006211D01*
Y-598604D01*
X1005758D01*
Y-599058D01*
X1004851D01*
Y-599511D01*
X1004397D01*
Y-599965D01*
X1003944D01*
Y-600419D01*
Y-600872D01*
X1003490D01*
Y-601326D01*
X1003036D01*
Y-601779D01*
Y-602233D01*
X1002583D01*
Y-602686D01*
Y-603140D01*
X1002129D01*
Y-603593D01*
Y-604047D01*
Y-604501D01*
X1001676D01*
Y-604954D01*
Y-605408D01*
Y-605861D01*
Y-606315D01*
Y-606768D01*
X1001222D01*
Y-607222D01*
Y-607675D01*
Y-608129D01*
Y-608583D01*
Y-609036D01*
Y-609490D01*
Y-609943D01*
Y-610397D01*
Y-610850D01*
Y-611304D01*
Y-611758D01*
Y-612211D01*
Y-612665D01*
X1001676D01*
Y-613118D01*
Y-613572D01*
Y-614025D01*
Y-614479D01*
Y-614932D01*
X1002129D01*
Y-615386D01*
Y-615839D01*
Y-616293D01*
X1002583D01*
Y-616747D01*
Y-617200D01*
X1003036D01*
Y-617654D01*
Y-618107D01*
X1003490D01*
Y-618561D01*
X1003944D01*
Y-619014D01*
X1004397D01*
Y-619468D01*
X1004851D01*
Y-619921D01*
X1005304D01*
Y-620375D01*
X1005758D01*
Y-620829D01*
X1006665D01*
Y-621282D01*
X1007572D01*
Y-621736D01*
X1008479D01*
Y-622189D01*
X1010747D01*
Y-622643D01*
X1013922D01*
Y-622189D01*
X1016190D01*
Y-621736D01*
X1017550D01*
Y-621282D01*
X1018457D01*
Y-620829D01*
X1018911D01*
Y-620375D01*
X1019818D01*
Y-619921D01*
X1020272D01*
Y-619468D01*
X1020725D01*
Y-619014D01*
X1021179D01*
Y-618561D01*
Y-618107D01*
X1021632D01*
Y-617654D01*
X1022086D01*
Y-617200D01*
Y-616747D01*
X1022539D01*
Y-616293D01*
Y-615839D01*
Y-615386D01*
X1022993D01*
Y-614932D01*
Y-614479D01*
Y-614025D01*
Y-613572D01*
X1023447D01*
Y-613118D01*
Y-612665D01*
Y-612211D01*
Y-611758D01*
Y-611304D01*
Y-610850D01*
Y-610397D01*
Y-609943D01*
Y-609490D01*
Y-609036D01*
Y-608583D01*
Y-608129D01*
Y-607675D01*
Y-607222D01*
Y-606768D01*
Y-606315D01*
Y-605861D01*
Y-605408D01*
X1022993D01*
Y-604954D01*
Y-604501D01*
Y-604047D01*
Y-603593D01*
X1022539D01*
Y-603140D01*
Y-602686D01*
X1022086D01*
Y-602233D01*
Y-601779D01*
X1021632D01*
Y-601326D01*
Y-600872D01*
X1021179D01*
Y-600419D01*
X1020725D01*
Y-599965D01*
X1020272D01*
Y-599511D01*
X1019818D01*
Y-599058D01*
X1019364D01*
Y-598604D01*
X1018457D01*
Y-598151D01*
X1017550D01*
Y-597697D01*
X1016643D01*
Y-597244D01*
X1014375D01*
Y-596790D01*
D02*
G37*
G36*
X1088305D02*
X1083769D01*
Y-597244D01*
X1081955D01*
Y-597697D01*
X1080595D01*
Y-598151D01*
X1079688D01*
Y-598604D01*
X1079234D01*
Y-599058D01*
X1078780D01*
Y-599511D01*
X1078327D01*
Y-599965D01*
X1077873D01*
Y-600419D01*
X1077420D01*
Y-600872D01*
X1076966D01*
Y-601326D01*
X1076513D01*
Y-601779D01*
Y-602233D01*
X1076059D01*
Y-602686D01*
Y-603140D01*
X1075605D01*
Y-603593D01*
Y-604047D01*
Y-604501D01*
X1075152D01*
Y-604954D01*
Y-605408D01*
Y-605861D01*
Y-606315D01*
Y-606768D01*
Y-607222D01*
Y-607675D01*
X1074698D01*
Y-608129D01*
Y-608583D01*
Y-609036D01*
Y-609490D01*
Y-609943D01*
Y-610397D01*
Y-610850D01*
Y-611304D01*
X1075152D01*
Y-611758D01*
Y-612211D01*
Y-612665D01*
Y-613118D01*
Y-613572D01*
Y-614025D01*
Y-614479D01*
X1075605D01*
Y-614932D01*
Y-615386D01*
Y-615839D01*
X1076059D01*
Y-616293D01*
Y-616747D01*
Y-617200D01*
X1076513D01*
Y-617654D01*
X1076966D01*
Y-618107D01*
Y-618561D01*
X1077420D01*
Y-619014D01*
X1077873D01*
Y-619468D01*
X1078327D01*
Y-619921D01*
X1078780D01*
Y-620375D01*
X1079234D01*
Y-620829D01*
X1080141D01*
Y-621282D01*
X1081048D01*
Y-621736D01*
X1082409D01*
Y-622189D01*
X1084677D01*
Y-622643D01*
X1087398D01*
Y-622189D01*
X1089666D01*
Y-621736D01*
X1091026D01*
Y-621282D01*
X1091934D01*
Y-620829D01*
X1092841D01*
Y-620375D01*
X1093294D01*
Y-619921D01*
X1093748D01*
Y-619468D01*
X1094201D01*
Y-619014D01*
X1094655D01*
Y-618561D01*
X1095108D01*
Y-618107D01*
Y-617654D01*
X1095562D01*
Y-617200D01*
X1096015D01*
Y-616747D01*
Y-616293D01*
Y-615839D01*
X1096469D01*
Y-615386D01*
Y-614932D01*
Y-614479D01*
X1096923D01*
Y-614025D01*
Y-613572D01*
Y-613118D01*
Y-612665D01*
Y-612211D01*
X1097376D01*
Y-611758D01*
Y-611304D01*
Y-610850D01*
Y-610397D01*
Y-609943D01*
Y-609490D01*
Y-609036D01*
Y-608583D01*
Y-608129D01*
Y-607675D01*
Y-607222D01*
X1096923D01*
Y-606768D01*
Y-606315D01*
Y-605861D01*
Y-605408D01*
Y-604954D01*
Y-604501D01*
X1096469D01*
Y-604047D01*
Y-603593D01*
Y-603140D01*
X1096015D01*
Y-602686D01*
Y-602233D01*
X1095562D01*
Y-601779D01*
Y-601326D01*
X1095108D01*
Y-600872D01*
X1094655D01*
Y-600419D01*
X1094201D01*
Y-599965D01*
X1093748D01*
Y-599511D01*
X1093294D01*
Y-599058D01*
X1092841D01*
Y-598604D01*
X1091934D01*
Y-598151D01*
X1091480D01*
Y-597697D01*
X1090119D01*
Y-597244D01*
X1088305D01*
Y-596790D01*
D02*
G37*
%LPD*%
D11*
X-329019Y1104464D02*
X-331342Y1110563D01*
X-333665Y1104464D01*
X-332794Y1106497D02*
X-329890D01*
X-333665Y570813D02*
Y564714D01*
Y570813D02*
X-331052D01*
X-330180Y570523D01*
X-329890Y570232D01*
X-329600Y569651D01*
Y569071D01*
X-329890Y568490D01*
X-330180Y568199D01*
X-331052Y567909D01*
X-333665D02*
X-331052D01*
X-330180Y567618D01*
X-329890Y567328D01*
X-329600Y566747D01*
Y565876D01*
X-329890Y565295D01*
X-330180Y565005D01*
X-331052Y564714D01*
X-333665D01*
X-329309Y29611D02*
X-329600Y30192D01*
X-330180Y30773D01*
X-330761Y31063D01*
X-331923D01*
X-332504Y30773D01*
X-333084Y30192D01*
X-333375Y29611D01*
X-333665Y28740D01*
Y27288D01*
X-333375Y26416D01*
X-333084Y25836D01*
X-332504Y25255D01*
X-331923Y24964D01*
X-330761D01*
X-330180Y25255D01*
X-329600Y25836D01*
X-329309Y26416D01*
X-333665Y-507417D02*
Y-513516D01*
Y-507417D02*
X-331632D01*
X-330761Y-507707D01*
X-330180Y-508288D01*
X-329890Y-508869D01*
X-329600Y-509740D01*
Y-511192D01*
X-329890Y-512064D01*
X-330180Y-512644D01*
X-330761Y-513225D01*
X-331632Y-513516D01*
X-333665D01*
X-9476Y-740227D02*
X-8895Y-739936D01*
X-8024Y-739065D01*
Y-745164D01*
X689483Y-740517D02*
Y-740227D01*
X689773Y-739646D01*
X690064Y-739355D01*
X690645Y-739065D01*
X691806D01*
X692387Y-739355D01*
X692678Y-739646D01*
X692968Y-740227D01*
Y-740807D01*
X692678Y-741388D01*
X692097Y-742260D01*
X689193Y-745164D01*
X693258D01*
X1387003Y-739065D02*
X1390198D01*
X1388456Y-741388D01*
X1389327D01*
X1389908Y-741679D01*
X1390198Y-741969D01*
X1390488Y-742840D01*
Y-743421D01*
X1390198Y-744292D01*
X1389617Y-744873D01*
X1388746Y-745164D01*
X1387875D01*
X1387003Y-744873D01*
X1386713Y-744583D01*
X1386423Y-744002D01*
X2088083Y-739065D02*
X2085179Y-743131D01*
X2089536D01*
X2088083Y-739065D02*
Y-745164D01*
X-9476Y1367973D02*
X-8895Y1368264D01*
X-8024Y1369135D01*
Y1363036D01*
X689483Y1367683D02*
Y1367973D01*
X689773Y1368554D01*
X690064Y1368845D01*
X690645Y1369135D01*
X691806D01*
X692387Y1368845D01*
X692678Y1368554D01*
X692968Y1367973D01*
Y1367393D01*
X692678Y1366812D01*
X692097Y1365941D01*
X689193Y1363036D01*
X693258D01*
X1387003Y1369135D02*
X1390198D01*
X1388456Y1366812D01*
X1389327D01*
X1389908Y1366521D01*
X1390198Y1366231D01*
X1390488Y1365360D01*
Y1364779D01*
X1390198Y1363908D01*
X1389617Y1363327D01*
X1388746Y1363036D01*
X1387875D01*
X1387003Y1363327D01*
X1386713Y1363617D01*
X1386423Y1364198D01*
X2088083Y1369135D02*
X2085179Y1365069D01*
X2089536D01*
X2088083Y1369135D02*
Y1363036D01*
X2414181Y1104464D02*
X2411858Y1110563D01*
X2409535Y1104464D01*
X2410406Y1106497D02*
X2413310D01*
X2409535Y570813D02*
Y564714D01*
Y570813D02*
X2412148D01*
X2413020Y570523D01*
X2413310Y570232D01*
X2413600Y569651D01*
Y569071D01*
X2413310Y568490D01*
X2413020Y568199D01*
X2412148Y567909D01*
X2409535D02*
X2412148D01*
X2413020Y567618D01*
X2413310Y567328D01*
X2413600Y566747D01*
Y565876D01*
X2413310Y565295D01*
X2413020Y565005D01*
X2412148Y564714D01*
X2409535D01*
X2413891Y29611D02*
X2413600Y30192D01*
X2413020Y30773D01*
X2412439Y31063D01*
X2411277D01*
X2410696Y30773D01*
X2410116Y30192D01*
X2409825Y29611D01*
X2409535Y28740D01*
Y27288D01*
X2409825Y26416D01*
X2410116Y25836D01*
X2410696Y25255D01*
X2411277Y24964D01*
X2412439D01*
X2413020Y25255D01*
X2413600Y25836D01*
X2413891Y26416D01*
X2409535Y-507417D02*
Y-513516D01*
Y-507417D02*
X2411568D01*
X2412439Y-507707D01*
X2413020Y-508288D01*
X2413310Y-508869D01*
X2413600Y-509740D01*
Y-511192D01*
X2413310Y-512064D01*
X2413020Y-512644D01*
X2412439Y-513225D01*
X2411568Y-513516D01*
X2409535D01*
X2103959Y225656D02*
Y219557D01*
X2107444D01*
X2112758D02*
X2110435Y225656D01*
X2108112Y219557D01*
X2108983Y221590D02*
X2111887D01*
X2114181Y225656D02*
X2116505Y222752D01*
Y219557D01*
X2118828Y225656D02*
X2116505Y222752D01*
X2123387Y225656D02*
X2119612D01*
Y219557D01*
X2123387D01*
X2119612Y222752D02*
X2121935D01*
X2124404Y225656D02*
Y219557D01*
Y225656D02*
X2127018D01*
X2127889Y225366D01*
X2128179Y225075D01*
X2128470Y224494D01*
Y223914D01*
X2128179Y223333D01*
X2127889Y223042D01*
X2127018Y222752D01*
X2124404D01*
X2126437D02*
X2128470Y219557D01*
X2134626Y225656D02*
Y221300D01*
X2134917Y220429D01*
X2135498Y219848D01*
X2136369Y219557D01*
X2136950D01*
X2137821Y219848D01*
X2138402Y220429D01*
X2138692Y221300D01*
Y225656D01*
X2144442Y224785D02*
X2143862Y225366D01*
X2142990Y225656D01*
X2141829D01*
X2140957Y225366D01*
X2140376Y224785D01*
Y224204D01*
X2140667Y223623D01*
X2140957Y223333D01*
X2141538Y223042D01*
X2143281Y222461D01*
X2143862Y222171D01*
X2144152Y221881D01*
X2144442Y221300D01*
Y220429D01*
X2143862Y219848D01*
X2142990Y219557D01*
X2141829D01*
X2140957Y219848D01*
X2140376Y220429D01*
X2150454Y219557D02*
X2148131Y225656D01*
X2145807Y219557D01*
X2146678Y221590D02*
X2149583D01*
X2156233Y224204D02*
X2155943Y224785D01*
X2155362Y225366D01*
X2154781Y225656D01*
X2153619D01*
X2153038Y225366D01*
X2152458Y224785D01*
X2152167Y224204D01*
X2151877Y223333D01*
Y221881D01*
X2152167Y221009D01*
X2152458Y220429D01*
X2153038Y219848D01*
X2153619Y219557D01*
X2154781D01*
X2155362Y219848D01*
X2155943Y220429D01*
X2156233Y221009D01*
Y221881D01*
X2154781D02*
X2156233D01*
X2161402Y225656D02*
X2157627D01*
Y219557D01*
X2161402D01*
X2157627Y222752D02*
X2159950D01*
X1895245Y1304016D02*
Y1310114D01*
X1898294D01*
X1899310Y1309098D01*
Y1307065D01*
X1898294Y1306049D01*
X1895245D01*
X1897277D02*
X1899310Y1304016D01*
X1905408Y1310114D02*
X1901343D01*
Y1304016D01*
X1905408D01*
X1901343Y1307065D02*
X1903375D01*
X1907441Y1310114D02*
Y1306049D01*
X1909473Y1304016D01*
X1911506Y1306049D01*
Y1310114D01*
X1913539D02*
X1915571D01*
X1914555D01*
Y1304016D01*
X1913539D01*
X1915571D01*
X1922686Y1309098D02*
X1921669Y1310114D01*
X1919637D01*
X1918620Y1309098D01*
Y1308082D01*
X1919637Y1307065D01*
X1921669D01*
X1922686Y1306049D01*
Y1305033D01*
X1921669Y1304016D01*
X1919637D01*
X1918620Y1305033D01*
X1924718Y1310114D02*
X1926751D01*
X1925735D01*
Y1304016D01*
X1924718D01*
X1926751D01*
X1932849Y1310114D02*
X1930816D01*
X1929800Y1309098D01*
Y1305033D01*
X1930816Y1304016D01*
X1932849D01*
X1933865Y1305033D01*
Y1309098D01*
X1932849Y1310114D01*
X1935898Y1304016D02*
Y1310114D01*
X1939963Y1304016D01*
Y1310114D01*
X1537105Y1260836D02*
Y1266934D01*
X1540154D01*
X1541170Y1265918D01*
Y1263885D01*
X1540154Y1262869D01*
X1537105D01*
X1539137D02*
X1541170Y1260836D01*
X1547268Y1266934D02*
X1543203D01*
Y1260836D01*
X1547268D01*
X1543203Y1263885D02*
X1545235D01*
X1549301Y1266934D02*
Y1262869D01*
X1551333Y1260836D01*
X1553366Y1262869D01*
Y1266934D01*
X1646325D02*
Y1260836D01*
X1649374D01*
X1650390Y1261853D01*
Y1265918D01*
X1649374Y1266934D01*
X1646325D01*
X1656488D02*
X1652423D01*
Y1260836D01*
X1656488D01*
X1652423Y1263885D02*
X1654455D01*
X1662586Y1265918D02*
X1661570Y1266934D01*
X1659537D01*
X1658521Y1265918D01*
Y1264902D01*
X1659537Y1263885D01*
X1661570D01*
X1662586Y1262869D01*
Y1261853D01*
X1661570Y1260836D01*
X1659537D01*
X1658521Y1261853D01*
X1668684Y1265918D02*
X1667668Y1266934D01*
X1665635D01*
X1664619Y1265918D01*
Y1261853D01*
X1665635Y1260836D01*
X1667668D01*
X1668684Y1261853D01*
X1670717Y1260836D02*
Y1266934D01*
X1673766D01*
X1674782Y1265918D01*
Y1263885D01*
X1673766Y1262869D01*
X1670717D01*
X1672749D02*
X1674782Y1260836D01*
X1676815Y1266934D02*
X1678847D01*
X1677831D01*
Y1260836D01*
X1676815D01*
X1678847D01*
X1681896D02*
Y1266934D01*
X1684945D01*
X1685962Y1265918D01*
Y1263885D01*
X1684945Y1262869D01*
X1681896D01*
X1687994Y1266934D02*
X1692060D01*
X1690027D01*
Y1260836D01*
X1694092Y1266934D02*
X1696125D01*
X1695109D01*
Y1260836D01*
X1694092D01*
X1696125D01*
X1702223Y1266934D02*
X1700190D01*
X1699174Y1265918D01*
Y1261853D01*
X1700190Y1260836D01*
X1702223D01*
X1703239Y1261853D01*
Y1265918D01*
X1702223Y1266934D01*
X1705272Y1260836D02*
Y1266934D01*
X1709337Y1260836D01*
Y1266934D01*
X2144165D02*
Y1260836D01*
X2147214D01*
X2148230Y1261853D01*
Y1265918D01*
X2147214Y1266934D01*
X2144165D01*
X2150263Y1260836D02*
Y1264902D01*
X2152295Y1266934D01*
X2154328Y1264902D01*
Y1260836D01*
Y1263885D01*
X2150263D01*
X2156361Y1266934D02*
X2160426D01*
X2158393D01*
Y1260836D01*
X2166524Y1266934D02*
X2162459D01*
Y1260836D01*
X2166524D01*
X2162459Y1263885D02*
X2164491D01*
X2304185Y1266934D02*
Y1260836D01*
X2307234D01*
X2308250Y1261853D01*
Y1262869D01*
X2307234Y1263885D01*
X2304185D01*
X2307234D01*
X2308250Y1264902D01*
Y1265918D01*
X2307234Y1266934D01*
X2304185D01*
X2310283D02*
Y1265918D01*
X2312315Y1263885D01*
X2314348Y1265918D01*
Y1266934D01*
X2312315Y1263885D02*
Y1260836D01*
X1537105Y1222736D02*
Y1228834D01*
X1540154D01*
X1541170Y1227818D01*
Y1225785D01*
X1540154Y1224769D01*
X1537105D01*
X1539137D02*
X1541170Y1222736D01*
X1546252D02*
X1544219D01*
X1543203Y1223753D01*
Y1225785D01*
X1544219Y1226802D01*
X1546252D01*
X1547268Y1225785D01*
Y1224769D01*
X1543203D01*
X1549301Y1226802D02*
X1551333Y1222736D01*
X1553366Y1226802D01*
X1555399Y1222736D02*
X1557431D01*
X1556415D01*
Y1228834D01*
X1555399Y1227818D01*
X1646325Y1222736D02*
Y1228834D01*
X1649374D01*
X1650390Y1227818D01*
Y1225785D01*
X1649374Y1224769D01*
X1646325D01*
X1652423Y1226802D02*
Y1222736D01*
Y1224769D01*
X1653439Y1225785D01*
X1654455Y1226802D01*
X1655472D01*
X1659537Y1222736D02*
X1661570D01*
X1662586Y1223753D01*
Y1225785D01*
X1661570Y1226802D01*
X1659537D01*
X1658521Y1225785D01*
Y1223753D01*
X1659537Y1222736D01*
X1665635Y1227818D02*
Y1226802D01*
X1664619D01*
X1666651D01*
X1665635D01*
Y1223753D01*
X1666651Y1222736D01*
X1670717D02*
X1672749D01*
X1673766Y1223753D01*
Y1225785D01*
X1672749Y1226802D01*
X1670717D01*
X1669700Y1225785D01*
Y1223753D01*
X1670717Y1222736D01*
X1676815Y1227818D02*
Y1226802D01*
X1675798D01*
X1677831D01*
X1676815D01*
Y1223753D01*
X1677831Y1222736D01*
X1680880Y1226802D02*
Y1223753D01*
X1681896Y1222736D01*
X1684945D01*
Y1221720D01*
X1683929Y1220704D01*
X1682913D01*
X1684945Y1222736D02*
Y1226802D01*
X1686978Y1220704D02*
Y1226802D01*
X1690027D01*
X1691043Y1225785D01*
Y1223753D01*
X1690027Y1222736D01*
X1686978D01*
X1696125D02*
X1694092D01*
X1693076Y1223753D01*
Y1225785D01*
X1694092Y1226802D01*
X1696125D01*
X1697141Y1225785D01*
Y1224769D01*
X1693076D01*
X1705272Y1222736D02*
Y1228834D01*
X1708321D01*
X1709337Y1227818D01*
Y1225785D01*
X1708321Y1224769D01*
X1705272D01*
X1707305D02*
X1709337Y1222736D01*
X1714419D02*
X1712386D01*
X1711370Y1223753D01*
Y1225785D01*
X1712386Y1226802D01*
X1714419D01*
X1715435Y1225785D01*
Y1224769D01*
X1711370D01*
X1717468Y1222736D02*
X1719501D01*
X1718484D01*
Y1228834D01*
X1717468D01*
X1725599Y1222736D02*
X1723566D01*
X1722550Y1223753D01*
Y1225785D01*
X1723566Y1226802D01*
X1725599D01*
X1726615Y1225785D01*
Y1224769D01*
X1722550D01*
X1729664Y1226802D02*
X1731697D01*
X1732713Y1225785D01*
Y1222736D01*
X1729664D01*
X1728648Y1223753D01*
X1729664Y1224769D01*
X1732713D01*
X1734746Y1222736D02*
X1737795D01*
X1738811Y1223753D01*
X1737795Y1224769D01*
X1735762D01*
X1734746Y1225785D01*
X1735762Y1226802D01*
X1738811D01*
X1743893Y1222736D02*
X1741860D01*
X1740844Y1223753D01*
Y1225785D01*
X1741860Y1226802D01*
X1743893D01*
X1744909Y1225785D01*
Y1224769D01*
X1740844D01*
X2127910Y1220196D02*
X2123845D01*
X2127910Y1224262D01*
Y1225278D01*
X2126894Y1226294D01*
X2124861D01*
X2123845Y1225278D01*
X2129943D02*
X2130959Y1226294D01*
X2132992D01*
X2134008Y1225278D01*
Y1221213D01*
X2132992Y1220196D01*
X2130959D01*
X2129943Y1221213D01*
Y1225278D01*
X2140106Y1220196D02*
X2136041D01*
X2140106Y1224262D01*
Y1225278D01*
X2139090Y1226294D01*
X2137057D01*
X2136041Y1225278D01*
X2146204Y1220196D02*
X2142139D01*
X2146204Y1224262D01*
Y1225278D01*
X2145188Y1226294D01*
X2143155D01*
X2142139Y1225278D01*
X2148237Y1223245D02*
X2152302D01*
X2154335Y1220196D02*
X2156367D01*
X2155351D01*
Y1226294D01*
X2154335Y1225278D01*
X2159416Y1220196D02*
X2161449D01*
X2160433D01*
Y1226294D01*
X2159416Y1225278D01*
X2164498Y1223245D02*
X2168563D01*
X2174661Y1220196D02*
X2170596D01*
X2174661Y1224262D01*
Y1225278D01*
X2173645Y1226294D01*
X2171612D01*
X2170596Y1225278D01*
X2176694D02*
X2177710Y1226294D01*
X2179743D01*
X2180759Y1225278D01*
Y1224262D01*
X2179743Y1223245D01*
X2180759Y1222229D01*
Y1221213D01*
X2179743Y1220196D01*
X2177710D01*
X2176694Y1221213D01*
Y1222229D01*
X2177710Y1223245D01*
X2176694Y1224262D01*
Y1225278D01*
X2177710Y1223245D02*
X2179743D01*
X2291485Y1228834D02*
Y1222736D01*
Y1225785D01*
X2292501Y1226802D01*
X2294534D01*
X2295550Y1225785D01*
Y1222736D01*
X2298599Y1226802D02*
X2300632D01*
X2301648Y1225785D01*
Y1222736D01*
X2298599D01*
X2297583Y1223753D01*
X2298599Y1224769D01*
X2301648D01*
X2303681Y1228834D02*
Y1222736D01*
X2306730D01*
X2307746Y1223753D01*
Y1224769D01*
Y1225785D01*
X2306730Y1226802D01*
X2303681D01*
X2313844Y1228834D02*
Y1222736D01*
X2310795D01*
X2309779Y1223753D01*
Y1225785D01*
X2310795Y1226802D01*
X2313844D01*
X1638641Y1154377D02*
Y1160474D01*
X1641690D01*
X1642706Y1159458D01*
Y1157426D01*
X1641690Y1156409D01*
X1638641D01*
X1644739Y1158442D02*
Y1154377D01*
Y1156409D01*
X1645755Y1157426D01*
X1646771Y1158442D01*
X1647788D01*
X1651853Y1154377D02*
X1653886D01*
X1654902Y1155393D01*
Y1157426D01*
X1653886Y1158442D01*
X1651853D01*
X1650837Y1157426D01*
Y1155393D01*
X1651853Y1154377D01*
X1657951Y1159458D02*
Y1158442D01*
X1656935D01*
X1658967D01*
X1657951D01*
Y1155393D01*
X1658967Y1154377D01*
X1663033D02*
X1665065D01*
X1666082Y1155393D01*
Y1157426D01*
X1665065Y1158442D01*
X1663033D01*
X1662016Y1157426D01*
Y1155393D01*
X1663033Y1154377D01*
X1669131Y1159458D02*
Y1158442D01*
X1668114D01*
X1670147D01*
X1669131D01*
Y1155393D01*
X1670147Y1154377D01*
X1673196Y1158442D02*
Y1155393D01*
X1674212Y1154377D01*
X1677261D01*
Y1153360D01*
X1676245Y1152344D01*
X1675229D01*
X1677261Y1154377D02*
Y1158442D01*
X1679294Y1152344D02*
Y1158442D01*
X1682343D01*
X1683359Y1157426D01*
Y1155393D01*
X1682343Y1154377D01*
X1679294D01*
X1688441D02*
X1686408D01*
X1685392Y1155393D01*
Y1157426D01*
X1686408Y1158442D01*
X1688441D01*
X1689458Y1157426D01*
Y1156409D01*
X1685392D01*
X1697588Y1154377D02*
Y1160474D01*
X1700637D01*
X1701653Y1159458D01*
Y1157426D01*
X1700637Y1156409D01*
X1697588D01*
X1699621D02*
X1701653Y1154377D01*
X1706735D02*
X1704702D01*
X1703686Y1155393D01*
Y1157426D01*
X1704702Y1158442D01*
X1706735D01*
X1707751Y1157426D01*
Y1156409D01*
X1703686D01*
X1709784Y1154377D02*
X1711817D01*
X1710800D01*
Y1160474D01*
X1709784D01*
X1717915Y1154377D02*
X1715882D01*
X1714866Y1155393D01*
Y1157426D01*
X1715882Y1158442D01*
X1717915D01*
X1718931Y1157426D01*
Y1156409D01*
X1714866D01*
X1721980Y1158442D02*
X1724013D01*
X1725029Y1157426D01*
Y1154377D01*
X1721980D01*
X1720964Y1155393D01*
X1721980Y1156409D01*
X1725029D01*
X1727062Y1154377D02*
X1730111D01*
X1731127Y1155393D01*
X1730111Y1156409D01*
X1728078D01*
X1727062Y1157426D01*
X1728078Y1158442D01*
X1731127D01*
X1736209Y1154377D02*
X1734176D01*
X1733160Y1155393D01*
Y1157426D01*
X1734176Y1158442D01*
X1736209D01*
X1737225Y1157426D01*
Y1156409D01*
X1733160D01*
X1529421Y1154377D02*
Y1160474D01*
X1532470D01*
X1533486Y1159458D01*
Y1157426D01*
X1532470Y1156409D01*
X1529421D01*
X1531453D02*
X1533486Y1154377D01*
X1538568D02*
X1536535D01*
X1535519Y1155393D01*
Y1157426D01*
X1536535Y1158442D01*
X1538568D01*
X1539584Y1157426D01*
Y1156409D01*
X1535519D01*
X1541617Y1158442D02*
X1543649Y1154377D01*
X1545682Y1158442D01*
X1553813Y1160474D02*
Y1154377D01*
X1556862D01*
X1557878Y1155393D01*
Y1156409D01*
X1556862Y1157426D01*
X1553813D01*
X1556862D01*
X1557878Y1158442D01*
Y1159458D01*
X1556862Y1160474D01*
X1553813D01*
X2291485Y1146536D02*
Y1147553D01*
X2292501D01*
Y1146536D01*
X2291485D01*
X2296566D02*
Y1152634D01*
X2299615D01*
X2300632Y1151618D01*
Y1149585D01*
X2299615Y1148569D01*
X2296566D01*
X2298599D02*
X2300632Y1146536D01*
X2305713D02*
X2303681D01*
X2302664Y1147553D01*
Y1149585D01*
X2303681Y1150602D01*
X2305713D01*
X2306730Y1149585D01*
Y1148569D01*
X2302664D01*
X2308762Y1146536D02*
X2310795D01*
X2309779D01*
Y1152634D01*
X2308762D01*
X2316893Y1146536D02*
X2314860D01*
X2313844Y1147553D01*
Y1149585D01*
X2314860Y1150602D01*
X2316893D01*
X2317909Y1149585D01*
Y1148569D01*
X2313844D01*
X2320958Y1150602D02*
X2322991D01*
X2324007Y1149585D01*
Y1146536D01*
X2320958D01*
X2319942Y1147553D01*
X2320958Y1148569D01*
X2324007D01*
X2326040Y1146536D02*
X2329089D01*
X2330105Y1147553D01*
X2329089Y1148569D01*
X2327056D01*
X2326040Y1149585D01*
X2327056Y1150602D01*
X2330105D01*
X2335187Y1146536D02*
X2333154D01*
X2332138Y1147553D01*
Y1149585D01*
X2333154Y1150602D01*
X2335187D01*
X2336203Y1149585D01*
Y1148569D01*
X2332138D01*
X2338236Y1152634D02*
Y1146536D01*
X2341285D01*
X2342301Y1147553D01*
Y1148569D01*
X2341285Y1149585D01*
X2338236D01*
X2341285D01*
X2342301Y1150602D01*
Y1151618D01*
X2341285Y1152634D01*
X2338236D01*
X2344334Y1150602D02*
Y1147553D01*
X2345350Y1146536D01*
X2348399D01*
Y1145520D01*
X2347383Y1144504D01*
X2346367D01*
X2348399Y1146536D02*
Y1150602D01*
X2350432Y1151618D02*
X2351448Y1152634D01*
X2353481D01*
X2354497Y1151618D01*
Y1150602D01*
X2353481Y1149585D01*
X2352465D01*
X2353481D01*
X2354497Y1148569D01*
Y1147553D01*
X2353481Y1146536D01*
X2351448D01*
X2350432Y1147553D01*
X1318665Y-688866D02*
Y-693947D01*
X1319681Y-694964D01*
X1321714D01*
X1322730Y-693947D01*
Y-688866D01*
X1324763D02*
Y-694964D01*
X1327812D01*
X1328828Y-693947D01*
Y-692931D01*
X1327812Y-691915D01*
X1324763D01*
X1327812D01*
X1328828Y-690898D01*
Y-689882D01*
X1327812Y-688866D01*
X1324763D01*
X1330861D02*
X1334926Y-694964D01*
Y-688866D02*
X1330861Y-694964D01*
X1336959Y-688866D02*
Y-694964D01*
Y-691915D01*
X1341024D01*
Y-688866D01*
Y-694964D01*
X1347122Y-688866D02*
X1345089Y-689882D01*
X1343057Y-691915D01*
Y-693947D01*
X1344073Y-694964D01*
X1346106D01*
X1347122Y-693947D01*
Y-692931D01*
X1346106Y-691915D01*
X1343057D01*
X1349155Y-689882D02*
X1350171Y-688866D01*
X1352204D01*
X1353220Y-689882D01*
Y-693947D01*
X1352204Y-694964D01*
X1350171D01*
X1349155Y-693947D01*
Y-689882D01*
X1355253Y-691915D02*
X1359318D01*
X1361351Y-689882D02*
X1362367Y-688866D01*
X1364400D01*
X1365416Y-689882D01*
Y-693947D01*
X1364400Y-694964D01*
X1362367D01*
X1361351Y-693947D01*
Y-689882D01*
X1367449D02*
X1368465Y-688866D01*
X1370498D01*
X1371514Y-689882D01*
Y-693947D01*
X1370498Y-694964D01*
X1368465D01*
X1367449Y-693947D01*
Y-689882D01*
X1373547D02*
X1374563Y-688866D01*
X1376596D01*
X1377612Y-689882D01*
Y-693947D01*
X1376596Y-694964D01*
X1374563D01*
X1373547Y-693947D01*
Y-689882D01*
X1379645Y-694964D02*
X1381677D01*
X1380661D01*
Y-688866D01*
X1379645Y-689882D01*
X1384726D02*
X1385743Y-688866D01*
X1387775D01*
X1388792Y-689882D01*
Y-693947D01*
X1387775Y-694964D01*
X1385743D01*
X1384726Y-693947D01*
Y-689882D01*
X1390824Y-694964D02*
X1392857D01*
X1391841D01*
Y-688866D01*
X1390824Y-689882D01*
X1399971Y-694964D02*
X1395906D01*
X1399971Y-690898D01*
Y-689882D01*
X1398955Y-688866D01*
X1396922D01*
X1395906Y-689882D01*
X1745385Y-623844D02*
Y-617746D01*
X1748434D01*
X1749450Y-618762D01*
Y-620795D01*
X1748434Y-621811D01*
X1745385D01*
X1755548Y-618762D02*
X1754532Y-617746D01*
X1752499D01*
X1751483Y-618762D01*
Y-622827D01*
X1752499Y-623844D01*
X1754532D01*
X1755548Y-622827D01*
X1757581Y-617746D02*
Y-623844D01*
X1760630D01*
X1761646Y-622827D01*
Y-621811D01*
X1760630Y-620795D01*
X1757581D01*
X1760630D01*
X1761646Y-619778D01*
Y-618762D01*
X1760630Y-617746D01*
X1757581D01*
X1763679Y-620795D02*
X1767744D01*
X1773842Y-617746D02*
X1769777D01*
Y-623844D01*
X1773842D01*
X1769777Y-620795D02*
X1771809D01*
X1775875Y-617746D02*
Y-621811D01*
X1777907Y-623844D01*
X1779940Y-621811D01*
Y-617746D01*
X1781973D02*
Y-623844D01*
Y-621811D01*
X1786038Y-617746D01*
X1782989Y-620795D01*
X1786038Y-623844D01*
X1788071Y-620795D02*
X1792136D01*
X1794169Y-617746D02*
X1796201D01*
X1795185D01*
Y-623844D01*
X1794169D01*
X1796201D01*
X1799250D02*
Y-617746D01*
X1802299D01*
X1803316Y-618762D01*
Y-620795D01*
X1802299Y-621811D01*
X1799250D01*
X1801283D02*
X1803316Y-623844D01*
X1805348Y-617746D02*
X1807381D01*
X1806365D01*
Y-623844D01*
X1805348D01*
X1807381D01*
X1814495Y-618762D02*
X1813479Y-617746D01*
X1811446D01*
X1810430Y-618762D01*
Y-619778D01*
X1811446Y-620795D01*
X1813479D01*
X1814495Y-621811D01*
Y-622827D01*
X1813479Y-623844D01*
X1811446D01*
X1810430Y-622827D01*
X1816528Y-620795D02*
X1820593D01*
X1822626Y-617746D02*
Y-623844D01*
X1824659Y-621811D01*
X1826691Y-623844D01*
Y-617746D01*
X1828724Y-623844D02*
X1830757D01*
X1829740D01*
Y-617746D01*
X1828724Y-618762D01*
X2239965Y-622634D02*
Y-616536D01*
X2243014D01*
X2244030Y-617552D01*
Y-619585D01*
X2243014Y-620601D01*
X2239965D01*
X2241997D02*
X2244030Y-622634D01*
X2249112D02*
X2247079D01*
X2246063Y-621617D01*
Y-619585D01*
X2247079Y-618568D01*
X2249112D01*
X2250128Y-619585D01*
Y-620601D01*
X2246063D01*
X2252161Y-618568D02*
X2254193Y-622634D01*
X2256226Y-618568D01*
X2264357Y-616536D02*
Y-622634D01*
X2267406D01*
X2268422Y-621617D01*
Y-620601D01*
X2267406Y-619585D01*
X2264357D01*
X2267406D01*
X2268422Y-618568D01*
Y-617552D01*
X2267406Y-616536D01*
X2264357D01*
X1749450Y-556786D02*
X1745385D01*
Y-562884D01*
X1749450D01*
X1745385Y-559835D02*
X1747417D01*
X1751483Y-556786D02*
Y-560851D01*
X1753515Y-562884D01*
X1755548Y-560851D01*
Y-556786D01*
X1757581D02*
Y-562884D01*
Y-560851D01*
X1761646Y-556786D01*
X1758597Y-559835D01*
X1761646Y-562884D01*
X1763679Y-559835D02*
X1767744D01*
X1769777Y-556786D02*
X1771809D01*
X1770793D01*
Y-562884D01*
X1769777D01*
X1771809D01*
X1774858D02*
Y-556786D01*
X1777907D01*
X1778924Y-557802D01*
Y-559835D01*
X1777907Y-560851D01*
X1774858D01*
X1776891D02*
X1778924Y-562884D01*
X1780956Y-556786D02*
X1782989D01*
X1781973D01*
Y-562884D01*
X1780956D01*
X1782989D01*
X1790103Y-557802D02*
X1789087Y-556786D01*
X1787054D01*
X1786038Y-557802D01*
Y-558818D01*
X1787054Y-559835D01*
X1789087D01*
X1790103Y-560851D01*
Y-561867D01*
X1789087Y-562884D01*
X1787054D01*
X1786038Y-561867D01*
X1792136Y-559835D02*
X1796201D01*
X1798234Y-556786D02*
Y-562884D01*
X1800267Y-560851D01*
X1802299Y-562884D01*
Y-556786D01*
X1804332Y-562884D02*
X1806365D01*
X1805348D01*
Y-556786D01*
X1804332Y-557802D01*
X1366925Y-556786D02*
Y-562884D01*
Y-559835D01*
X1367941Y-558818D01*
X1369974D01*
X1370990Y-559835D01*
Y-562884D01*
X1374039Y-558818D02*
X1376072D01*
X1377088Y-559835D01*
Y-562884D01*
X1374039D01*
X1373023Y-561867D01*
X1374039Y-560851D01*
X1377088D01*
X1379121Y-556786D02*
Y-562884D01*
X1382170D01*
X1383186Y-561867D01*
Y-560851D01*
Y-559835D01*
X1382170Y-558818D01*
X1379121D01*
X1389284Y-556786D02*
Y-562884D01*
X1386235D01*
X1385219Y-561867D01*
Y-559835D01*
X1386235Y-558818D01*
X1389284D01*
X1634327Y-600384D02*
Y-594286D01*
X1637376D01*
X1638392Y-595302D01*
Y-597335D01*
X1637376Y-598351D01*
X1634327D01*
X1644490Y-595302D02*
X1643474Y-594286D01*
X1641441D01*
X1640425Y-595302D01*
Y-599367D01*
X1641441Y-600384D01*
X1643474D01*
X1644490Y-599367D01*
X1646523Y-594286D02*
Y-600384D01*
X1649572D01*
X1650588Y-599367D01*
Y-598351D01*
X1649572Y-597335D01*
X1646523D01*
X1649572D01*
X1650588Y-596318D01*
Y-595302D01*
X1649572Y-594286D01*
X1646523D01*
X1658719Y-600384D02*
Y-594286D01*
X1662784Y-600384D01*
Y-594286D01*
X1664817Y-600384D02*
Y-596318D01*
X1666849Y-594286D01*
X1668882Y-596318D01*
Y-600384D01*
Y-597335D01*
X1664817D01*
X1670915Y-600384D02*
Y-594286D01*
X1672947Y-596318D01*
X1674980Y-594286D01*
Y-600384D01*
X1681078Y-594286D02*
X1677013D01*
Y-600384D01*
X1681078D01*
X1677013Y-597335D02*
X1679045D01*
X1683111Y-596318D02*
X1684127D01*
Y-597335D01*
X1683111D01*
Y-596318D01*
Y-599367D02*
X1684127D01*
Y-600384D01*
X1683111D01*
Y-599367D01*
X2253325Y-693602D02*
X2255357D01*
X2254341D01*
Y-687504D01*
X2253325Y-688520D01*
X2258406Y-689536D02*
X2259423D01*
Y-690553D01*
X2258406D01*
Y-689536D01*
Y-692585D02*
X2259423D01*
Y-693602D01*
X2258406D01*
Y-692585D01*
X2263488Y-693602D02*
X2265521D01*
X2264504D01*
Y-687504D01*
X2263488Y-688520D01*
X2170268Y-661342D02*
X2169252Y-660326D01*
X2167219D01*
X2166203Y-661342D01*
Y-662358D01*
X2167219Y-663375D01*
X2169252D01*
X2170268Y-664391D01*
Y-665407D01*
X2169252Y-666424D01*
X2167219D01*
X2166203Y-665407D01*
X2176366Y-661342D02*
X2175350Y-660326D01*
X2173317D01*
X2172301Y-661342D01*
Y-665407D01*
X2173317Y-666424D01*
X2175350D01*
X2176366Y-665407D01*
X2178399Y-666424D02*
Y-662358D01*
X2180431Y-660326D01*
X2182464Y-662358D01*
Y-666424D01*
Y-663375D01*
X2178399D01*
X2184497Y-660326D02*
Y-666424D01*
X2188562D01*
X2194660Y-660326D02*
X2190595D01*
Y-666424D01*
X2194660D01*
X2190595Y-663375D02*
X2192627D01*
X2196693Y-662358D02*
X2197709D01*
Y-663375D01*
X2196693D01*
Y-662358D01*
Y-665407D02*
X2197709D01*
Y-666424D01*
X2196693D01*
Y-665407D01*
X1637690Y-658386D02*
X1633625D01*
Y-661435D01*
X1635657D01*
X1633625D01*
Y-664484D01*
X1639723Y-658386D02*
X1641755D01*
X1640739D01*
Y-664484D01*
X1639723D01*
X1641755D01*
X1644804Y-658386D02*
Y-664484D01*
X1648870D01*
X1654968Y-658386D02*
X1650902D01*
Y-664484D01*
X1654968D01*
X1650902Y-661435D02*
X1652935D01*
X1663098Y-664484D02*
Y-658386D01*
X1667164Y-664484D01*
Y-658386D01*
X1669196Y-664484D02*
Y-660418D01*
X1671229Y-658386D01*
X1673262Y-660418D01*
Y-664484D01*
Y-661435D01*
X1669196D01*
X1675294Y-664484D02*
Y-658386D01*
X1677327Y-660418D01*
X1679360Y-658386D01*
Y-664484D01*
X1685458Y-658386D02*
X1681392D01*
Y-664484D01*
X1685458D01*
X1681392Y-661435D02*
X1683425D01*
X1687490Y-660418D02*
X1688507D01*
Y-661435D01*
X1687490D01*
Y-660418D01*
Y-663467D02*
X1688507D01*
Y-664484D01*
X1687490D01*
Y-663467D01*
X1635597Y-546028D02*
Y-539930D01*
X1638646D01*
X1639662Y-540946D01*
Y-542979D01*
X1638646Y-543995D01*
X1635597D01*
X1641695Y-546028D02*
Y-539930D01*
X1644744D01*
X1645760Y-540946D01*
Y-542979D01*
X1644744Y-543995D01*
X1641695D01*
X1643727D02*
X1645760Y-546028D01*
X1650842Y-539930D02*
X1648809D01*
X1647793Y-540946D01*
Y-545011D01*
X1648809Y-546028D01*
X1650842D01*
X1651858Y-545011D01*
Y-540946D01*
X1650842Y-539930D01*
X1657956D02*
X1655923D01*
X1656940D01*
Y-545011D01*
X1655923Y-546028D01*
X1654907D01*
X1653891Y-545011D01*
X1664054Y-539930D02*
X1659989D01*
Y-546028D01*
X1664054D01*
X1659989Y-542979D02*
X1662021D01*
X1670152Y-540946D02*
X1669136Y-539930D01*
X1667103D01*
X1666087Y-540946D01*
Y-545011D01*
X1667103Y-546028D01*
X1669136D01*
X1670152Y-545011D01*
X1672185Y-539930D02*
X1676250D01*
X1674217D01*
Y-546028D01*
X1678283Y-541962D02*
X1679299D01*
Y-542979D01*
X1678283D01*
Y-541962D01*
Y-545011D02*
X1679299D01*
Y-546028D01*
X1678283D01*
Y-545011D01*
X1254598Y-540184D02*
X1250533D01*
Y-546282D01*
X1254598D01*
X1250533Y-543233D02*
X1252565D01*
X1256631Y-546282D02*
Y-540184D01*
X1260696Y-546282D01*
Y-540184D01*
X1266794Y-541200D02*
X1265778Y-540184D01*
X1263745D01*
X1262729Y-541200D01*
Y-545265D01*
X1263745Y-546282D01*
X1265778D01*
X1266794Y-545265D01*
Y-543233D01*
X1264761D01*
X1268827Y-540184D02*
X1270859D01*
X1269843D01*
Y-546282D01*
X1268827D01*
X1270859D01*
X1273908D02*
Y-540184D01*
X1277974Y-546282D01*
Y-540184D01*
X1284072D02*
X1280006D01*
Y-546282D01*
X1284072D01*
X1280006Y-543233D02*
X1282039D01*
X1290170Y-540184D02*
X1286104D01*
Y-546282D01*
X1290170D01*
X1286104Y-543233D02*
X1288137D01*
X1292202Y-546282D02*
Y-540184D01*
X1295251D01*
X1296268Y-541200D01*
Y-543233D01*
X1295251Y-544249D01*
X1292202D01*
X1294235D02*
X1296268Y-546282D01*
X1298300Y-542216D02*
X1299317D01*
Y-543233D01*
X1298300D01*
Y-542216D01*
Y-545265D02*
X1299317D01*
Y-546282D01*
X1298300D01*
Y-545265D01*
X1252625Y-658386D02*
Y-664484D01*
X1255674D01*
X1256690Y-663467D01*
Y-659402D01*
X1255674Y-658386D01*
X1252625D01*
X1258723D02*
Y-664484D01*
X1260755Y-662451D01*
X1262788Y-664484D01*
Y-658386D01*
X1268886Y-659402D02*
X1267870Y-658386D01*
X1265837D01*
X1264821Y-659402D01*
Y-663467D01*
X1265837Y-664484D01*
X1267870D01*
X1268886Y-663467D01*
Y-661435D01*
X1266853D01*
X1277017Y-664484D02*
Y-658386D01*
X1281082Y-664484D01*
Y-658386D01*
X1286164D02*
X1284131D01*
X1283115Y-659402D01*
Y-663467D01*
X1284131Y-664484D01*
X1286164D01*
X1287180Y-663467D01*
Y-659402D01*
X1286164Y-658386D01*
X1289213Y-660418D02*
X1290229D01*
Y-661435D01*
X1289213D01*
Y-660418D01*
Y-663467D02*
X1290229D01*
Y-664484D01*
X1289213D01*
Y-663467D01*
X2167473Y-603686D02*
Y-597588D01*
X2170522D01*
X2171538Y-598604D01*
Y-600637D01*
X2170522Y-601653D01*
X2167473D01*
X2169505D02*
X2171538Y-603686D01*
X2177636Y-597588D02*
X2173571D01*
Y-603686D01*
X2177636D01*
X2173571Y-600637D02*
X2175603D01*
X2179669Y-597588D02*
Y-601653D01*
X2181701Y-603686D01*
X2183734Y-601653D01*
Y-597588D01*
X2185767Y-599620D02*
X2186783D01*
Y-600637D01*
X2185767D01*
Y-599620D01*
Y-602669D02*
X2186783D01*
Y-603686D01*
X2185767D01*
Y-602669D01*
X1251295Y-595302D02*
Y-601400D01*
X1254344D01*
X1255360Y-600383D01*
Y-596318D01*
X1254344Y-595302D01*
X1251295D01*
X1257393Y-601400D02*
Y-597334D01*
X1259425Y-595302D01*
X1261458Y-597334D01*
Y-601400D01*
Y-598351D01*
X1257393D01*
X1263491Y-595302D02*
X1267556D01*
X1265523D01*
Y-601400D01*
X1273654Y-595302D02*
X1269589D01*
Y-601400D01*
X1273654D01*
X1269589Y-598351D02*
X1271621D01*
X1275687Y-597334D02*
X1276703D01*
Y-598351D01*
X1275687D01*
Y-597334D01*
Y-600383D02*
X1276703D01*
Y-601400D01*
X1275687D01*
Y-600383D01*
X1327810Y-623844D02*
X1323745D01*
X1327810Y-619778D01*
Y-618762D01*
X1326794Y-617746D01*
X1324761D01*
X1323745Y-618762D01*
X1329843D02*
X1330859Y-617746D01*
X1332892D01*
X1333908Y-618762D01*
Y-622827D01*
X1332892Y-623844D01*
X1330859D01*
X1329843Y-622827D01*
Y-618762D01*
X1340006Y-623844D02*
X1335941D01*
X1340006Y-619778D01*
Y-618762D01*
X1338990Y-617746D01*
X1336957D01*
X1335941Y-618762D01*
X1342039D02*
X1343055Y-617746D01*
X1345088D01*
X1346104Y-618762D01*
Y-619778D01*
X1345088Y-620795D01*
X1344071D01*
X1345088D01*
X1346104Y-621811D01*
Y-622827D01*
X1345088Y-623844D01*
X1343055D01*
X1342039Y-622827D01*
X1348137Y-620795D02*
X1352202D01*
X1354235Y-618762D02*
X1355251Y-617746D01*
X1357284D01*
X1358300Y-618762D01*
Y-622827D01*
X1357284Y-623844D01*
X1355251D01*
X1354235Y-622827D01*
Y-618762D01*
X1364398Y-617746D02*
X1360333D01*
Y-620795D01*
X1362365Y-619778D01*
X1363382D01*
X1364398Y-620795D01*
Y-622827D01*
X1363382Y-623844D01*
X1361349D01*
X1360333Y-622827D01*
X1366431Y-620795D02*
X1370496D01*
X1372529Y-623844D02*
X1374561D01*
X1373545D01*
Y-617746D01*
X1372529Y-618762D01*
X1377610Y-617746D02*
X1381676D01*
Y-618762D01*
X1377610Y-622827D01*
Y-623844D01*
X1660550Y-686326D02*
X1656485D01*
Y-692424D01*
X1660550D01*
X1656485Y-689375D02*
X1658517D01*
X1662583Y-686326D02*
Y-690391D01*
X1664615Y-692424D01*
X1666648Y-690391D01*
Y-686326D01*
X1668681D02*
Y-692424D01*
Y-690391D01*
X1672746Y-686326D01*
X1669697Y-689375D01*
X1672746Y-692424D01*
X1674779Y-689375D02*
X1678844D01*
X1680877Y-686326D02*
X1682909D01*
X1681893D01*
Y-692424D01*
X1680877D01*
X1682909D01*
X1685958D02*
Y-686326D01*
X1689007D01*
X1690024Y-687342D01*
Y-689375D01*
X1689007Y-690391D01*
X1685958D01*
X1687991D02*
X1690024Y-692424D01*
X1692056Y-686326D02*
X1694089D01*
X1693073D01*
Y-692424D01*
X1692056D01*
X1694089D01*
X1701203Y-687342D02*
X1700187Y-686326D01*
X1698154D01*
X1697138Y-687342D01*
Y-688358D01*
X1698154Y-689375D01*
X1700187D01*
X1701203Y-690391D01*
Y-691407D01*
X1700187Y-692424D01*
X1698154D01*
X1697138Y-691407D01*
X1703236Y-689375D02*
X1707301D01*
X1709334Y-686326D02*
Y-692424D01*
X1711367Y-690391D01*
X1713399Y-692424D01*
Y-686326D01*
X1715432Y-692424D02*
X1717465D01*
X1716448D01*
Y-686326D01*
X1715432Y-687342D01*
X1720514Y-692424D02*
Y-691407D01*
X1721530D01*
Y-692424D01*
X1720514D01*
X1725595D02*
Y-686326D01*
X1728644D01*
X1729661Y-687342D01*
Y-689375D01*
X1728644Y-690391D01*
X1725595D01*
X1735759Y-688358D02*
X1732710D01*
X1731693Y-689375D01*
Y-691407D01*
X1732710Y-692424D01*
X1735759D01*
X1737791Y-686326D02*
Y-692424D01*
X1740840D01*
X1741857Y-691407D01*
Y-690391D01*
Y-689375D01*
X1740840Y-688358D01*
X1737791D01*
X1743889Y-686326D02*
Y-692424D01*
X1746938D01*
X1747955Y-691407D01*
Y-687342D01*
X1746938Y-686326D01*
X1743889D01*
X1751004Y-692424D02*
X1753036D01*
X1754053Y-691407D01*
Y-689375D01*
X1753036Y-688358D01*
X1751004D01*
X1749987Y-689375D01*
Y-691407D01*
X1751004Y-692424D01*
X1760151Y-688358D02*
X1757102D01*
X1756085Y-689375D01*
Y-691407D01*
X1757102Y-692424D01*
X1760151D01*
X960903Y-681101D02*
X960612Y-680520D01*
X960032Y-679939D01*
X959451Y-679649D01*
X958289D01*
X957708Y-679939D01*
X957127Y-680520D01*
X956837Y-681101D01*
X956547Y-681972D01*
Y-683424D01*
X956837Y-684296D01*
X957127Y-684876D01*
X957708Y-685457D01*
X958289Y-685748D01*
X959451D01*
X960032Y-685457D01*
X960612Y-684876D01*
X960903Y-684296D01*
X964359Y-679649D02*
X963778Y-679939D01*
X963197Y-680520D01*
X962907Y-681101D01*
X962616Y-681972D01*
Y-683424D01*
X962907Y-684296D01*
X963197Y-684876D01*
X963778Y-685457D01*
X964359Y-685748D01*
X965520D01*
X966101Y-685457D01*
X966682Y-684876D01*
X966973Y-684296D01*
X967263Y-683424D01*
Y-681972D01*
X966973Y-681101D01*
X966682Y-680520D01*
X966101Y-679939D01*
X965520Y-679649D01*
X964359D01*
X968686D02*
Y-685748D01*
Y-679649D02*
X972752Y-685748D01*
Y-679649D02*
Y-685748D01*
X974436Y-679649D02*
Y-685748D01*
Y-679649D02*
X978212D01*
X974436Y-682553D02*
X976759D01*
X978908Y-679649D02*
Y-685748D01*
X980186Y-679649D02*
Y-685748D01*
Y-679649D02*
X982219D01*
X983090Y-679939D01*
X983671Y-680520D01*
X983962Y-681101D01*
X984252Y-681972D01*
Y-683424D01*
X983962Y-684296D01*
X983671Y-684876D01*
X983090Y-685457D01*
X982219Y-685748D01*
X980186D01*
X989392Y-679649D02*
X985617D01*
Y-685748D01*
X989392D01*
X985617Y-682553D02*
X987940D01*
X990409Y-679649D02*
Y-685748D01*
Y-679649D02*
X994475Y-685748D01*
Y-679649D02*
Y-685748D01*
X998192Y-679649D02*
Y-685748D01*
X996159Y-679649D02*
X1000225D01*
X1000951D02*
Y-685748D01*
X1006875D02*
X1004552Y-679649D01*
X1002229Y-685748D01*
X1003100Y-683715D02*
X1006004D01*
X1008298Y-679649D02*
Y-685748D01*
X1011783D01*
X2291485Y1190734D02*
Y1184636D01*
Y1187685D01*
X2292501Y1188702D01*
X2294534D01*
X2295550Y1187685D01*
Y1184636D01*
X2298599Y1188702D02*
X2300632D01*
X2301648Y1187685D01*
Y1184636D01*
X2298599D01*
X2297583Y1185653D01*
X2298599Y1186669D01*
X2301648D01*
X2303681Y1190734D02*
Y1184636D01*
X2306730D01*
X2307746Y1185653D01*
Y1186669D01*
Y1187685D01*
X2306730Y1188702D01*
X2303681D01*
X2313844Y1190734D02*
Y1184636D01*
X2310795D01*
X2309779Y1185653D01*
Y1187685D01*
X2310795Y1188702D01*
X2313844D01*
X2127910Y1182096D02*
X2123845D01*
X2127910Y1186162D01*
Y1187178D01*
X2126894Y1188194D01*
X2124861D01*
X2123845Y1187178D01*
X2129943D02*
X2130959Y1188194D01*
X2132992D01*
X2134008Y1187178D01*
Y1183113D01*
X2132992Y1182096D01*
X2130959D01*
X2129943Y1183113D01*
Y1187178D01*
X2140106Y1182096D02*
X2136041D01*
X2140106Y1186162D01*
Y1187178D01*
X2139090Y1188194D01*
X2137057D01*
X2136041Y1187178D01*
X2142139D02*
X2143155Y1188194D01*
X2145188D01*
X2146204Y1187178D01*
Y1186162D01*
X2145188Y1185145D01*
X2144171D01*
X2145188D01*
X2146204Y1184129D01*
Y1183113D01*
X2145188Y1182096D01*
X2143155D01*
X2142139Y1183113D01*
X2148237Y1185145D02*
X2152302D01*
X2154335Y1187178D02*
X2155351Y1188194D01*
X2157384D01*
X2158400Y1187178D01*
Y1183113D01*
X2157384Y1182096D01*
X2155351D01*
X2154335Y1183113D01*
Y1187178D01*
X2164498Y1188194D02*
X2160433D01*
Y1185145D01*
X2162465Y1186162D01*
X2163482D01*
X2164498Y1185145D01*
Y1183113D01*
X2163482Y1182096D01*
X2161449D01*
X2160433Y1183113D01*
X2166531Y1185145D02*
X2170596D01*
X2172629Y1182096D02*
X2174661D01*
X2173645D01*
Y1188194D01*
X2172629Y1187178D01*
X2177710Y1188194D02*
X2181776D01*
Y1187178D01*
X2177710Y1183113D01*
Y1182096D01*
D18*
X-301915Y-710874D02*
X2390485D01*
X-301915D02*
Y1346526D01*
X-352655Y-761004D02*
Y1397996D01*
X-352715Y857576D02*
X-301915D01*
X-352715Y317826D02*
X-301915D01*
X-352715Y-221924D02*
X-301915D01*
X345785Y-761674D02*
Y-710874D01*
X1044285Y-761674D02*
Y-710874D01*
X1742785Y-761674D02*
Y-710874D01*
X-301915Y1346526D02*
X2390485D01*
X345785D02*
Y1397326D01*
X1044285Y1346526D02*
Y1397326D01*
X1742785Y1346526D02*
Y1397326D01*
X-352655Y1397996D02*
X2441345D01*
Y-761004D02*
Y1397996D01*
X2390485Y-710874D02*
Y1346526D01*
Y857576D02*
X2441285D01*
X2390485Y317826D02*
X2441285D01*
X2390485Y-221924D02*
X2441285D01*
X-352655Y-761004D02*
X2441345D01*
X1516785Y1131296D02*
Y1347196D01*
Y1131296D02*
X2390545D01*
X1516785Y1169396D02*
X2390485D01*
X1516785Y1245596D02*
X2390545D01*
X1516785Y1207496D02*
X2390485D01*
X1516785Y1288776D02*
X2390485D01*
X1608225Y1131296D02*
Y1288776D01*
X2103525Y1131296D02*
Y1288776D01*
X2273705Y1131296D02*
Y1288776D01*
X1628485Y-558474D02*
Y-521898D01*
X1247485D02*
X1628485D01*
X818285D02*
X1247485D01*
X1628485Y-710874D02*
Y-558474D01*
X2161885Y-710874D02*
Y-581080D01*
X1247485Y-710874D02*
Y-521898D01*
X2390485Y-710874D02*
Y-521898D01*
X1628485D02*
X2390485D01*
X1247485Y-580318D02*
X2390485D01*
X1247485Y-643564D02*
X2390485D01*
X1247485Y-710874D02*
X2390485D01*
X818285D02*
Y-521898D01*
Y-710874D02*
X1247485D01*
D25*
X2103959Y212445D02*
X2299539D01*
X2350339Y-496844D02*
Y249916D01*
X2063319D02*
X2350339D01*
X2063319Y-496844D02*
Y249916D01*
Y-496844D02*
X2350339D01*
D253*
X613490Y663194D02*
X623490D01*
X618490Y658194D02*
Y668194D01*
X537290Y653034D02*
X547290D01*
X542290Y648034D02*
Y658034D01*
X537290Y673354D02*
X547290D01*
X542290Y668354D02*
Y678354D01*
X287654Y1085080D02*
X297654D01*
X292654Y1080080D02*
Y1090080D01*
X287654Y1110480D02*
X297654D01*
X292654Y1105480D02*
Y1115480D01*
X287654Y1186680D02*
X297654D01*
X292654Y1181680D02*
Y1191680D01*
X287654Y1212080D02*
X297654D01*
X292654Y1207080D02*
Y1217080D01*
X287654Y1262880D02*
X297654D01*
X292654Y1257880D02*
Y1267880D01*
X287654Y1237480D02*
X297654D01*
X292654Y1232480D02*
Y1242480D01*
X287654Y1135880D02*
X297654D01*
X292654Y1130880D02*
Y1140880D01*
X287654Y1161280D02*
X297654D01*
X292654Y1156280D02*
Y1166280D01*
X795854Y1260590D02*
X805854D01*
X800854Y1255590D02*
Y1265590D01*
X795854Y1031990D02*
X805854D01*
X800854Y1026990D02*
Y1036990D01*
X795854Y1057390D02*
X805854D01*
X800854Y1052390D02*
Y1062390D01*
X795854Y1082790D02*
X805854D01*
X800854Y1077790D02*
Y1087790D01*
X795854Y1108190D02*
X805854D01*
X800854Y1103190D02*
Y1113190D01*
X795854Y1133590D02*
X805854D01*
X800854Y1128590D02*
Y1138590D01*
X795854Y1235190D02*
X805854D01*
X800854Y1230190D02*
Y1240190D01*
X795854Y1184390D02*
X805854D01*
X800854Y1179390D02*
Y1189390D01*
X795854Y1209790D02*
X805854D01*
X800854Y1204790D02*
Y1214790D01*
X795854Y1158990D02*
X805854D01*
X800854Y1153990D02*
Y1163990D01*
X747426Y56482D02*
X758856D01*
X753140Y50767D02*
Y62197D01*
X747426Y31082D02*
X758856D01*
X753140Y25367D02*
Y36797D01*
X623562Y74122D02*
X629562D01*
X626562Y71122D02*
Y77122D01*
X709962Y74122D02*
X715962D01*
X712962Y71122D02*
Y77122D01*
X630762Y54122D02*
X636762D01*
X633762Y51122D02*
Y57122D01*
X703262Y54122D02*
X708262D01*
X705762Y51622D02*
Y56622D01*
X623062Y23622D02*
X630062D01*
X626562Y20122D02*
Y27122D01*
X709462Y23622D02*
X716462D01*
X712962Y20122D02*
Y27122D01*
X626312Y68122D02*
X633312D01*
X629812Y64622D02*
Y71622D01*
X706212Y68122D02*
X713212D01*
X709712Y64622D02*
Y71622D01*
X324907Y68122D02*
X331906D01*
X328406Y64622D02*
Y71622D01*
X245006Y68122D02*
X252006D01*
X248506Y64622D02*
Y71622D01*
X328156Y23622D02*
X335156D01*
X331656Y20122D02*
Y27122D01*
X241756Y23622D02*
X248756D01*
X245257Y20122D02*
Y27122D01*
X321956Y54122D02*
X326956D01*
X324456Y51622D02*
Y56622D01*
X249456Y54122D02*
X255456D01*
X252456Y51122D02*
Y57122D01*
X328656Y74122D02*
X334656D01*
X331656Y71122D02*
Y77122D01*
X242257Y74122D02*
X248256D01*
X245257Y71122D02*
Y77122D01*
X508520Y54956D02*
X536520D01*
X522520Y40956D02*
Y68956D01*
X381520Y54956D02*
X409520D01*
X395520Y40956D02*
Y68956D01*
X668654Y1135880D02*
X678654D01*
X673654Y1130880D02*
Y1140880D01*
X668654Y1161280D02*
X678654D01*
X673654Y1156280D02*
Y1166280D01*
X668654Y1212080D02*
X678654D01*
X673654Y1207080D02*
Y1217080D01*
X668654Y1186680D02*
X678654D01*
X673654Y1181680D02*
Y1191680D01*
X668654Y1237480D02*
X678654D01*
X673654Y1232480D02*
Y1242480D01*
X668654Y1085080D02*
X678654D01*
X673654Y1080080D02*
Y1090080D01*
X668654Y1110480D02*
X678654D01*
X673654Y1105480D02*
Y1115480D01*
X668654Y1262880D02*
X678654D01*
X673654Y1257880D02*
Y1267880D01*
X846454Y1237480D02*
X856454D01*
X851454Y1232480D02*
Y1242480D01*
X846454Y1262880D02*
X856454D01*
X851454Y1257880D02*
Y1267880D01*
X846454Y1186680D02*
X856454D01*
X851454Y1181680D02*
Y1191680D01*
X846454Y1212080D02*
X856454D01*
X851454Y1207080D02*
Y1217080D01*
X846454Y1135880D02*
X856454D01*
X851454Y1130880D02*
Y1140880D01*
X846454Y1161280D02*
X856454D01*
X851454Y1156280D02*
Y1166280D01*
X846454Y1085080D02*
X856454D01*
X851454Y1080080D02*
Y1090080D01*
X846454Y1110480D02*
X856454D01*
X851454Y1105480D02*
Y1115480D01*
X871854Y145080D02*
X881854D01*
X876854Y140080D02*
Y150080D01*
X871854Y170480D02*
X881854D01*
X876854Y165480D02*
Y175480D01*
X871854Y246680D02*
X881854D01*
X876854Y241680D02*
Y251680D01*
X871854Y322880D02*
X881854D01*
X876854Y317880D02*
Y327880D01*
X871854Y297480D02*
X881854D01*
X876854Y292480D02*
Y302480D01*
X871854Y195880D02*
X881854D01*
X876854Y190880D02*
Y200880D01*
X871854Y221280D02*
X881854D01*
X876854Y216280D02*
Y226280D01*
X871854Y272080D02*
X881854D01*
X876854Y267080D02*
Y277080D01*
X211254Y1235194D02*
X221254D01*
X216254Y1230194D02*
Y1240194D01*
X211254Y1031994D02*
X221254D01*
X216254Y1026994D02*
Y1036994D01*
X211254Y1209794D02*
X221254D01*
X216254Y1204794D02*
Y1214794D01*
X211254Y1184394D02*
X221254D01*
X216254Y1179394D02*
Y1189394D01*
X211254Y1158994D02*
X221254D01*
X216254Y1153994D02*
Y1163994D01*
X211254Y1133594D02*
X221254D01*
X216254Y1128594D02*
Y1138594D01*
X211254Y1108194D02*
X221254D01*
X216254Y1103194D02*
Y1113194D01*
X211254Y1082794D02*
X221254D01*
X216254Y1077794D02*
Y1087794D01*
X211254Y1057394D02*
X221254D01*
X216254Y1052394D02*
Y1062394D01*
X211254Y1260594D02*
X221254D01*
X216254Y1255594D02*
Y1265594D01*
X719654Y1235194D02*
X729654D01*
X724654Y1230194D02*
Y1240194D01*
X719654Y1158994D02*
X729654D01*
X724654Y1153994D02*
Y1163994D01*
X719654Y1133594D02*
X729654D01*
X724654Y1128594D02*
Y1138594D01*
X719654Y1108194D02*
X729654D01*
X724654Y1103194D02*
Y1113194D01*
X719654Y1082794D02*
X729654D01*
X724654Y1077794D02*
Y1087794D01*
X719654Y1057394D02*
X729654D01*
X724654Y1052394D02*
Y1062394D01*
X719654Y1031994D02*
X729654D01*
X724654Y1026994D02*
Y1036994D01*
X719654Y1260594D02*
X729654D01*
X724654Y1255594D02*
Y1265594D01*
X719654Y1184394D02*
X729654D01*
X724654Y1179394D02*
Y1189394D01*
X719654Y1209794D02*
X729654D01*
X724654Y1204794D02*
Y1214794D01*
X135054Y1235194D02*
X145054D01*
X140054Y1230194D02*
Y1240194D01*
X135054Y1031994D02*
X145054D01*
X140054Y1026994D02*
Y1036994D01*
X135054Y1184394D02*
X145054D01*
X140054Y1179394D02*
Y1189394D01*
X135054Y1158994D02*
X145054D01*
X140054Y1153994D02*
Y1163994D01*
X135054Y1133594D02*
X145054D01*
X140054Y1128594D02*
Y1138594D01*
X135054Y1108194D02*
X145054D01*
X140054Y1103194D02*
Y1113194D01*
X135054Y1082794D02*
X145054D01*
X140054Y1077794D02*
Y1087794D01*
X135054Y1057394D02*
X145054D01*
X140054Y1052394D02*
Y1062394D01*
X135054Y1260594D02*
X145054D01*
X140054Y1255594D02*
Y1265594D01*
X135054Y1209794D02*
X145054D01*
X140054Y1204794D02*
Y1214794D01*
X643254Y1135880D02*
X653254D01*
X648254Y1130880D02*
Y1140880D01*
X643254Y1161280D02*
X653254D01*
X648254Y1156280D02*
Y1166280D01*
X643254Y1212080D02*
X653254D01*
X648254Y1207080D02*
Y1217080D01*
X643254Y1186680D02*
X653254D01*
X648254Y1181680D02*
Y1191680D01*
X643254Y1237480D02*
X653254D01*
X648254Y1232480D02*
Y1242480D01*
X643254Y1085080D02*
X653254D01*
X648254Y1080080D02*
Y1090080D01*
X643254Y1110480D02*
X653254D01*
X648254Y1105480D02*
Y1115480D01*
X643254Y1262880D02*
X653254D01*
X648254Y1257880D02*
Y1267880D01*
X871854Y1237480D02*
X881854D01*
X876854Y1232480D02*
Y1242480D01*
X871854Y1262880D02*
X881854D01*
X876854Y1257880D02*
Y1267880D01*
X871854Y1186680D02*
X881854D01*
X876854Y1181680D02*
Y1191680D01*
X871854Y1212080D02*
X881854D01*
X876854Y1207080D02*
Y1217080D01*
X871854Y1135880D02*
X881854D01*
X876854Y1130880D02*
Y1140880D01*
X871854Y1161280D02*
X881854D01*
X876854Y1156280D02*
Y1166280D01*
X871854Y1085080D02*
X881854D01*
X876854Y1080080D02*
Y1090080D01*
X871854Y1110480D02*
X881854D01*
X876854Y1105480D02*
Y1115480D01*
X668654Y246680D02*
X678654D01*
X673654Y241680D02*
Y251680D01*
X668654Y272080D02*
X678654D01*
X673654Y267080D02*
Y277080D01*
X668654Y145080D02*
X678654D01*
X673654Y140080D02*
Y150080D01*
X668654Y170480D02*
X678654D01*
X673654Y165480D02*
Y175480D01*
X668654Y322880D02*
X678654D01*
X673654Y317880D02*
Y327880D01*
X668654Y195880D02*
X678654D01*
X673654Y190880D02*
Y200880D01*
X668654Y221280D02*
X678654D01*
X673654Y216280D02*
Y226280D01*
X668654Y297480D02*
X678654D01*
X673654Y292480D02*
Y302480D01*
X846454Y145080D02*
X856454D01*
X851454Y140080D02*
Y150080D01*
X846454Y170480D02*
X856454D01*
X851454Y165480D02*
Y175480D01*
X846454Y246680D02*
X856454D01*
X851454Y241680D02*
Y251680D01*
X846454Y322880D02*
X856454D01*
X851454Y317880D02*
Y327880D01*
X846454Y297480D02*
X856454D01*
X851454Y292480D02*
Y302480D01*
X846454Y195880D02*
X856454D01*
X851454Y190880D02*
Y200880D01*
X846454Y221280D02*
X856454D01*
X851454Y216280D02*
Y226280D01*
X846454Y272080D02*
X856454D01*
X851454Y267080D02*
Y277080D01*
X643254Y246680D02*
X653254D01*
X648254Y241680D02*
Y251680D01*
X643254Y272080D02*
X653254D01*
X648254Y267080D02*
Y277080D01*
X643254Y145080D02*
X653254D01*
X648254Y140080D02*
Y150080D01*
X643254Y170480D02*
X653254D01*
X648254Y165480D02*
Y175480D01*
X643254Y322880D02*
X653254D01*
X648254Y317880D02*
Y327880D01*
X643254Y195880D02*
X653254D01*
X648254Y190880D02*
Y200880D01*
X643254Y221280D02*
X653254D01*
X648254Y216280D02*
Y226280D01*
X643254Y297480D02*
X653254D01*
X648254Y292480D02*
Y302480D01*
X59054Y322880D02*
X69054D01*
X64054Y317880D02*
Y327880D01*
X59054Y195880D02*
X69054D01*
X64054Y190880D02*
Y200880D01*
X59054Y221280D02*
X69054D01*
X64054Y216280D02*
Y226280D01*
X59054Y297480D02*
X69054D01*
X64054Y292480D02*
Y302480D01*
X59054Y246680D02*
X69054D01*
X64054Y241680D02*
Y251680D01*
X59054Y272080D02*
X69054D01*
X64054Y267080D02*
Y277080D01*
X59054Y145080D02*
X69054D01*
X64054Y140080D02*
Y150080D01*
X59054Y170480D02*
X69054D01*
X64054Y165480D02*
Y175480D01*
X287654Y145080D02*
X297654D01*
X292654Y140080D02*
Y150080D01*
X287654Y221280D02*
X297654D01*
X292654Y216280D02*
Y226280D01*
X287654Y195880D02*
X297654D01*
X292654Y190880D02*
Y200880D01*
X287654Y297480D02*
X297654D01*
X292654Y292480D02*
Y302480D01*
X287654Y322880D02*
X297654D01*
X292654Y317880D02*
Y327880D01*
X287654Y272080D02*
X297654D01*
X292654Y267080D02*
Y277080D01*
X287654Y246680D02*
X297654D01*
X292654Y241680D02*
Y251680D01*
X287654Y170480D02*
X297654D01*
X292654Y165480D02*
Y175480D01*
X84454Y170480D02*
X94454D01*
X89454Y165480D02*
Y175480D01*
X84454Y145080D02*
X94454D01*
X89454Y140080D02*
Y150080D01*
X84454Y272080D02*
X94454D01*
X89454Y267080D02*
Y277080D01*
X84454Y246680D02*
X94454D01*
X89454Y241680D02*
Y251680D01*
X84454Y297480D02*
X94454D01*
X89454Y292480D02*
Y302480D01*
X84454Y221280D02*
X94454D01*
X89454Y216280D02*
Y226280D01*
X84454Y195880D02*
X94454D01*
X89454Y190880D02*
Y200880D01*
X84454Y322880D02*
X94454D01*
X89454Y317880D02*
Y327880D01*
X262254Y145080D02*
X272254D01*
X267254Y140080D02*
Y150080D01*
X262254Y221280D02*
X272254D01*
X267254Y216280D02*
Y226280D01*
X262254Y195880D02*
X272254D01*
X267254Y190880D02*
Y200880D01*
X262254Y297480D02*
X272254D01*
X267254Y292480D02*
Y302480D01*
X262254Y322880D02*
X272254D01*
X267254Y317880D02*
Y327880D01*
X262254Y272080D02*
X272254D01*
X267254Y267080D02*
Y277080D01*
X262254Y246680D02*
X272254D01*
X267254Y241680D02*
Y251680D01*
X262254Y170480D02*
X272254D01*
X267254Y165480D02*
Y175480D01*
X84454Y1110480D02*
X94454D01*
X89454Y1105480D02*
Y1115480D01*
X84454Y1085080D02*
X94454D01*
X89454Y1080080D02*
Y1090080D01*
X84454Y1212080D02*
X94454D01*
X89454Y1207080D02*
Y1217080D01*
X84454Y1186680D02*
X94454D01*
X89454Y1181680D02*
Y1191680D01*
X84454Y1262880D02*
X94454D01*
X89454Y1257880D02*
Y1267880D01*
X84454Y1135880D02*
X94454D01*
X89454Y1130880D02*
Y1140880D01*
X84454Y1161280D02*
X94454D01*
X89454Y1156280D02*
Y1166280D01*
X84454Y1237480D02*
X94454D01*
X89454Y1232480D02*
Y1242480D01*
X262254Y1085080D02*
X272254D01*
X267254Y1080080D02*
Y1090080D01*
X262254Y1110480D02*
X272254D01*
X267254Y1105480D02*
Y1115480D01*
X262254Y1186680D02*
X272254D01*
X267254Y1181680D02*
Y1191680D01*
X262254Y1212080D02*
X272254D01*
X267254Y1207080D02*
Y1217080D01*
X262254Y1262880D02*
X272254D01*
X267254Y1257880D02*
Y1267880D01*
X262254Y1237480D02*
X272254D01*
X267254Y1232480D02*
Y1242480D01*
X262254Y1135880D02*
X272254D01*
X267254Y1130880D02*
Y1140880D01*
X262254Y1161280D02*
X272254D01*
X267254Y1156280D02*
Y1166280D01*
X59054Y1110480D02*
X69054D01*
X64054Y1105480D02*
Y1115480D01*
X59054Y1085080D02*
X69054D01*
X64054Y1080080D02*
Y1090080D01*
X59054Y1212080D02*
X69054D01*
X64054Y1207080D02*
Y1217080D01*
X59054Y1186680D02*
X69054D01*
X64054Y1181680D02*
Y1191680D01*
X59054Y1262880D02*
X69054D01*
X64054Y1257880D02*
Y1267880D01*
X59054Y1135880D02*
X69054D01*
X64054Y1130880D02*
Y1140880D01*
X59054Y1161280D02*
X69054D01*
X64054Y1156280D02*
Y1166280D01*
X59054Y1237480D02*
X69054D01*
X64054Y1232480D02*
Y1242480D01*
X211254Y778030D02*
X221254D01*
X216254Y773030D02*
Y783030D01*
X211254Y828830D02*
X221254D01*
X216254Y823830D02*
Y833830D01*
X211254Y1006630D02*
X221254D01*
X216254Y1001630D02*
Y1011630D01*
X211254Y981230D02*
X221254D01*
X216254Y976230D02*
Y986230D01*
X211254Y955830D02*
X221254D01*
X216254Y950830D02*
Y960830D01*
X211254Y930430D02*
X221254D01*
X216254Y925430D02*
Y935430D01*
X211254Y854230D02*
X221254D01*
X216254Y849230D02*
Y859230D01*
X211254Y879630D02*
X221254D01*
X216254Y874630D02*
Y884630D01*
X211254Y905030D02*
X221254D01*
X216254Y900030D02*
Y910030D01*
X211254Y803430D02*
X221254D01*
X216254Y798430D02*
Y808430D01*
X135254Y778030D02*
X145254D01*
X140254Y773030D02*
Y783030D01*
X135254Y905030D02*
X145254D01*
X140254Y900030D02*
Y910030D01*
X135254Y828830D02*
X145254D01*
X140254Y823830D02*
Y833830D01*
X135254Y1006630D02*
X145254D01*
X140254Y1001630D02*
Y1011630D01*
X135254Y981230D02*
X145254D01*
X140254Y976230D02*
Y986230D01*
X135254Y955830D02*
X145254D01*
X140254Y950830D02*
Y960830D01*
X135254Y803430D02*
X145254D01*
X140254Y798430D02*
Y808430D01*
X135254Y854230D02*
X145254D01*
X140254Y849230D02*
Y859230D01*
X135254Y879630D02*
X145254D01*
X140254Y874630D02*
Y884630D01*
X135254Y930430D02*
X145254D01*
X140254Y925430D02*
Y935430D01*
X795854Y852490D02*
X805854D01*
X800854Y847490D02*
Y857490D01*
X795854Y877890D02*
X805854D01*
X800854Y872890D02*
Y882890D01*
X795854Y928690D02*
X805854D01*
X800854Y923690D02*
Y933690D01*
X795854Y801690D02*
X805854D01*
X800854Y796690D02*
Y806690D01*
X795854Y776290D02*
X805854D01*
X800854Y771290D02*
Y781290D01*
X795854Y1004890D02*
X805854D01*
X800854Y999890D02*
Y1009890D01*
X795854Y979490D02*
X805854D01*
X800854Y974490D02*
Y984490D01*
X795854Y954090D02*
X805854D01*
X800854Y949090D02*
Y959090D01*
X795854Y827090D02*
X805854D01*
X800854Y822090D02*
Y832090D01*
X795854Y903290D02*
X805854D01*
X800854Y898290D02*
Y908290D01*
X719654Y801694D02*
X729654D01*
X724654Y796694D02*
Y806694D01*
X719654Y776294D02*
X729654D01*
X724654Y771294D02*
Y781294D01*
X719654Y877894D02*
X729654D01*
X724654Y872894D02*
Y882894D01*
X719654Y852494D02*
X729654D01*
X724654Y847494D02*
Y857494D01*
X719654Y827094D02*
X729654D01*
X724654Y822094D02*
Y832094D01*
X719654Y1004894D02*
X729654D01*
X724654Y999894D02*
Y1009894D01*
X719654Y979494D02*
X729654D01*
X724654Y974494D02*
Y984494D01*
X719654Y954094D02*
X729654D01*
X724654Y949094D02*
Y959094D01*
X719654Y928694D02*
X729654D01*
X724654Y923694D02*
Y933694D01*
X719654Y903294D02*
X729654D01*
X724654Y898294D02*
Y908294D01*
X111808Y74122D02*
X117808D01*
X114808Y71122D02*
Y77122D01*
X198208Y74122D02*
X204208D01*
X201208Y71122D02*
Y77122D01*
X119008Y54122D02*
X125008D01*
X122008Y51122D02*
Y57122D01*
X191508Y54122D02*
X196508D01*
X194008Y51622D02*
Y56622D01*
X111308Y23622D02*
X118308D01*
X114808Y20122D02*
Y27122D01*
X197708Y23622D02*
X204708D01*
X201208Y20122D02*
Y27122D01*
X114558Y68122D02*
X121558D01*
X118058Y64622D02*
Y71622D01*
X194458Y68122D02*
X201458D01*
X197958Y64622D02*
Y71622D01*
X490284Y612394D02*
X500284D01*
X495284Y607394D02*
Y617394D01*
X500444Y536194D02*
X510444D01*
X505444Y531194D02*
Y541194D01*
X480124Y536194D02*
X490124D01*
X485124Y531194D02*
Y541194D01*
X37072Y984504D02*
X101072D01*
X69072Y952504D02*
Y1016504D01*
X900072Y26094D02*
X930072D01*
X915072Y11094D02*
Y41094D01*
X11072Y1273294D02*
X41072D01*
X26072Y1258294D02*
Y1288294D01*
X11072Y26094D02*
X41072D01*
X26072Y11094D02*
Y41094D01*
X900072Y1273294D02*
X930072D01*
X915072Y1258294D02*
Y1288294D01*
X397454Y780774D02*
X399454D01*
X398454Y779774D02*
Y781774D01*
X397454Y770774D02*
X399454D01*
X398454Y769774D02*
Y771774D01*
X336593Y1077421D02*
X339133D01*
X337863Y1076151D02*
Y1078690D01*
X344569Y1088102D02*
X347109D01*
X345839Y1086833D02*
Y1089372D01*
X553046Y1290108D02*
X555586D01*
X554316Y1288839D02*
Y1291378D01*
X544810Y1256620D02*
X547810D01*
X546310Y1255120D02*
Y1258120D01*
X545040Y1268620D02*
X547580D01*
X546310Y1267350D02*
Y1269890D01*
X545040Y1280620D02*
X547580D01*
X546310Y1279350D02*
Y1281890D01*
X553040Y1280620D02*
X555580D01*
X554310Y1279350D02*
Y1281890D01*
X553040Y1268620D02*
X555580D01*
X554310Y1267350D02*
Y1269890D01*
X552810Y1256620D02*
X555810D01*
X554310Y1255120D02*
Y1258120D01*
X561040Y1268620D02*
X563580D01*
X562310Y1267350D02*
Y1269890D01*
X561040Y1280620D02*
X563580D01*
X562310Y1279350D02*
Y1281890D01*
X561046Y1290108D02*
X563586D01*
X562316Y1288839D02*
Y1291378D01*
X569046Y1290108D02*
X571586D01*
X570316Y1288839D02*
Y1291378D01*
X569040Y1280620D02*
X571580D01*
X570310Y1279350D02*
Y1281890D01*
X371040Y1280620D02*
X373580D01*
X372310Y1279350D02*
Y1281890D01*
X371034Y1290108D02*
X373573D01*
X372304Y1288839D02*
Y1291378D01*
X379034Y1290108D02*
X381573D01*
X380303Y1288839D02*
Y1291378D01*
X379040Y1280620D02*
X381580D01*
X380310Y1279350D02*
Y1281890D01*
X379040Y1268620D02*
X381580D01*
X380310Y1267350D02*
Y1269890D01*
X386810Y1256620D02*
X389810D01*
X388310Y1255120D02*
Y1258120D01*
X387040Y1268620D02*
X389580D01*
X388310Y1267350D02*
Y1269890D01*
X387040Y1280620D02*
X389580D01*
X388310Y1279350D02*
Y1281890D01*
X395040Y1280620D02*
X397580D01*
X396310Y1279350D02*
Y1281890D01*
X395040Y1268620D02*
X397580D01*
X396310Y1267350D02*
Y1269890D01*
X394810Y1256620D02*
X397810D01*
X396310Y1255120D02*
Y1258120D01*
X24800Y815670D02*
X27340D01*
X26070Y814400D02*
Y816940D01*
X913800Y815670D02*
X916340D01*
X915070Y814400D02*
Y816940D01*
X815342Y642359D02*
X817883D01*
X816612Y641089D02*
Y643630D01*
X701902Y671394D02*
X704442D01*
X703172Y670124D02*
Y672664D01*
X246809Y1177760D02*
X249349D01*
X248079Y1176490D02*
Y1179030D01*
X51590Y678317D02*
X54130D01*
X52860Y677048D02*
Y679587D01*
X182320Y689102D02*
X184860D01*
X183589Y687832D02*
Y690372D01*
X157682Y690118D02*
X160222D01*
X158952Y688848D02*
Y691388D01*
X147268Y751840D02*
X149808D01*
X148538Y750570D02*
Y753110D01*
X150876Y738886D02*
X153416D01*
X152146Y737616D02*
Y740156D01*
X182046Y724916D02*
X184586D01*
X183316Y723646D02*
Y726186D01*
X153416Y711962D02*
X155956D01*
X154686Y710692D02*
Y713232D01*
X113364Y706037D02*
X115904D01*
X114634Y704767D02*
Y707307D01*
X113042Y718734D02*
X115582D01*
X114312Y717464D02*
Y720004D01*
X113292Y731437D02*
X115831D01*
X114562Y730167D02*
Y732707D01*
X113042Y744134D02*
X115582D01*
X114312Y742864D02*
Y745404D01*
X591820Y669544D02*
X594360D01*
X593090Y668274D02*
Y670814D01*
X21336Y403352D02*
X23876D01*
X22606Y402082D02*
Y404622D01*
X17018Y351536D02*
X19558D01*
X18288Y350266D02*
Y352806D01*
X912368Y370332D02*
X914908D01*
X913638Y369062D02*
Y371602D01*
X320548Y512318D02*
X323088D01*
X321818Y511048D02*
Y513588D01*
X420370Y537210D02*
X422910D01*
X421640Y535940D02*
Y538480D01*
X731266Y221742D02*
X733806D01*
X732536Y220472D02*
Y223012D01*
X513231Y970939D02*
X515771D01*
X514501Y969669D02*
Y972209D01*
X568672Y954786D02*
X571212D01*
X569942Y953516D02*
Y956056D01*
X221864Y594754D02*
X224364D01*
X223114Y593504D02*
Y596004D01*
X198496Y611264D02*
X200996D01*
X199746Y610014D02*
Y612514D01*
X292338Y110744D02*
X294878D01*
X293608Y109474D02*
Y112014D01*
X285226Y120904D02*
X287766D01*
X286496Y119634D02*
Y122174D01*
X280546Y53848D02*
X283086D01*
X281816Y52578D02*
Y55118D01*
X293877Y72872D02*
X296417D01*
X295147Y71602D02*
Y74142D01*
X290198Y53850D02*
X292738D01*
X291468Y52580D02*
Y55120D01*
X279653Y72872D02*
X282193D01*
X280923Y71602D02*
Y74142D01*
X814796Y112690D02*
X817336D01*
X816066Y111420D02*
Y113960D01*
X597916Y212090D02*
X600456D01*
X599186Y210820D02*
Y213360D01*
X316738Y111506D02*
X319278D01*
X318008Y110236D02*
Y112776D01*
X343916Y248412D02*
X346456D01*
X345186Y247142D02*
Y249682D01*
X343662Y268478D02*
X346202D01*
X344932Y267208D02*
Y269748D01*
X229616Y141478D02*
X232156D01*
X230886Y140208D02*
Y142748D01*
X229616Y153924D02*
X232156D01*
X230886Y152654D02*
Y155194D01*
X719582Y106934D02*
X722122D01*
X720852Y105664D02*
Y108204D01*
X910082Y557784D02*
X912622D01*
X911352Y556514D02*
Y559054D01*
X908304Y533400D02*
X910844D01*
X909574Y532130D02*
Y534670D01*
X908050Y167894D02*
X910590D01*
X909320Y166624D02*
Y169164D01*
X418592Y1006602D02*
X421132D01*
X419862Y1005332D02*
Y1007872D01*
X399226Y1007000D02*
X401766D01*
X400496Y1005730D02*
Y1008270D01*
X500364Y548894D02*
X502904D01*
X501634Y547624D02*
Y550164D01*
X579120Y656658D02*
X581660D01*
X580390Y655388D02*
Y657928D01*
X553720Y656658D02*
X556260D01*
X554990Y655388D02*
Y657928D01*
X562356Y684276D02*
X564896D01*
X563626Y683006D02*
Y685546D01*
X563880Y695960D02*
X566420D01*
X565150Y694690D02*
Y697230D01*
X529600Y741203D02*
X532140D01*
X530870Y739933D02*
Y742473D01*
X582168Y40132D02*
X584708D01*
X583438Y38862D02*
Y41402D01*
X607568Y40132D02*
X610108D01*
X608838Y38862D02*
Y41402D01*
X581152Y65024D02*
X583692D01*
X582422Y63754D02*
Y66294D01*
X606552Y65024D02*
X609092D01*
X607822Y63754D02*
Y66294D01*
X344932Y71120D02*
X347472D01*
X346202Y69850D02*
Y72390D01*
X344932Y45720D02*
X347472D01*
X346202Y44450D02*
Y46990D01*
X82804Y39624D02*
X85344D01*
X84074Y38354D02*
Y40894D01*
X57404Y39624D02*
X59944D01*
X58674Y38354D02*
Y40894D01*
X81280Y60198D02*
X83820D01*
X82550Y58928D02*
Y61468D01*
X55880Y60198D02*
X58420D01*
X57150Y58928D02*
Y61468D01*
X86360Y10668D02*
X88900D01*
X87630Y9398D02*
Y11938D01*
X60960Y10668D02*
X63500D01*
X62230Y9398D02*
Y11938D01*
X827604Y9197D02*
X830144D01*
X828874Y7927D02*
Y10467D01*
X7101Y1005028D02*
X9641D01*
X8371Y1003758D02*
Y1006298D01*
X7101Y979628D02*
X9641D01*
X8371Y978358D02*
Y980898D01*
X7101Y954228D02*
X9641D01*
X8371Y952958D02*
Y955498D01*
X930656Y266192D02*
X933196D01*
X931926Y264922D02*
Y267462D01*
X930656Y240792D02*
X933196D01*
X931926Y239522D02*
Y242062D01*
X930656Y215392D02*
X933196D01*
X931926Y214122D02*
Y216662D01*
X930656Y393192D02*
X933196D01*
X931926Y391922D02*
Y394462D01*
X930656Y367792D02*
X933196D01*
X931926Y366522D02*
Y369062D01*
X930656Y342392D02*
X933196D01*
X931926Y341122D02*
Y343662D01*
X930656Y316992D02*
X933196D01*
X931926Y315722D02*
Y318262D01*
X930656Y291592D02*
X933196D01*
X931926Y290322D02*
Y292862D01*
X136906Y37846D02*
X139446D01*
X138176Y36576D02*
Y39116D01*
X263906Y41910D02*
X266446D01*
X265176Y40640D02*
Y43180D01*
X309880Y43688D02*
X312420D01*
X311150Y42418D02*
Y44958D01*
X222504Y53086D02*
X225044D01*
X223774Y51816D02*
Y54356D01*
X645668Y89916D02*
X648208D01*
X646938Y88646D02*
Y91186D01*
X643890Y53848D02*
X646430D01*
X645160Y52578D02*
Y55118D01*
X694182Y56642D02*
X696722D01*
X695452Y55372D02*
Y57912D01*
X693420Y94234D02*
X695960D01*
X694690Y92964D02*
Y95504D01*
X224846Y88714D02*
X227386D01*
X226116Y87444D02*
Y89984D01*
X572262Y590296D02*
X574802D01*
X573532Y589026D02*
Y591566D01*
X465582Y1138684D02*
X468122D01*
X466852Y1137414D02*
Y1139954D01*
X465582Y1146684D02*
X468122D01*
X466852Y1145414D02*
Y1147954D01*
X465582Y1175004D02*
X468122D01*
X466852Y1173734D02*
Y1176274D01*
X465582Y1154684D02*
X468122D01*
X466852Y1153414D02*
Y1155954D01*
X465582Y1162684D02*
X468122D01*
X466852Y1161414D02*
Y1163954D01*
X488900Y1204620D02*
X491440D01*
X490170Y1203350D02*
Y1205890D01*
X486040Y1215620D02*
X488580D01*
X487310Y1214350D02*
Y1216890D01*
X497040Y1215620D02*
X499580D01*
X498310Y1214350D02*
Y1216890D01*
X658368Y595630D02*
X660908D01*
X659638Y594360D02*
Y596900D01*
X642112Y605564D02*
X644652D01*
X643382Y604294D02*
Y606834D01*
X606552Y517906D02*
X609092D01*
X607822Y516636D02*
Y519176D01*
X611378Y536956D02*
X613918D01*
X612648Y535686D02*
Y538226D01*
X771906Y517398D02*
X774446D01*
X773176Y516128D02*
Y518668D01*
X779018Y553974D02*
X781558D01*
X780288Y552704D02*
Y555244D01*
X214389Y544527D02*
X216889D01*
X215639Y543277D02*
Y545777D01*
X658392Y836094D02*
X660932D01*
X659662Y834824D02*
Y837364D01*
X632206Y850138D02*
X634746D01*
X633476Y848868D02*
Y851408D01*
X114554Y119535D02*
X117094D01*
X115824Y118265D02*
Y120805D01*
X372584Y1161966D02*
X375124D01*
X373854Y1160696D02*
Y1163236D01*
X382524Y1161038D02*
X385064D01*
X383794Y1159768D02*
Y1162308D01*
X351028Y1176528D02*
X353568D01*
X352298Y1175258D02*
Y1177798D01*
X627532Y588940D02*
X630072D01*
X628802Y587670D02*
Y590210D01*
X619252Y604774D02*
X621792D01*
X620522Y603504D02*
Y606044D01*
X603758Y597154D02*
X606298D01*
X605028Y595884D02*
Y598424D01*
X597408Y600202D02*
X599948D01*
X598678Y598932D02*
Y601472D01*
X610684Y588940D02*
X613224D01*
X611954Y587670D02*
Y590210D01*
X593598Y613156D02*
X596138D01*
X594868Y611886D02*
Y614426D01*
Y606044D02*
X597408D01*
X596138Y604774D02*
Y607314D01*
X805688Y382778D02*
X808228D01*
X806958Y381508D02*
Y384048D01*
X837692Y348488D02*
X840232D01*
X838962Y347218D02*
Y349758D01*
X788107Y366029D02*
X790647D01*
X789377Y364759D02*
Y367299D01*
X794512Y345694D02*
X797052D01*
X795782Y344424D02*
Y346964D01*
X554736Y535178D02*
X557276D01*
X556006Y533908D02*
Y536448D01*
X713740Y446786D02*
X716280D01*
X715010Y445516D02*
Y448056D01*
X587502Y421640D02*
X590042D01*
X588772Y420370D02*
Y422910D01*
X718820Y565150D02*
X721360D01*
X720090Y563880D02*
Y566420D01*
X575056Y559562D02*
X577596D01*
X576326Y558292D02*
Y560832D01*
X409468Y693674D02*
X411968D01*
X410718Y692424D02*
Y694924D01*
X380766Y697738D02*
X383266D01*
X382016Y696488D02*
Y698988D01*
X408960Y644398D02*
X411460D01*
X410210Y643148D02*
Y645648D01*
X381020Y644144D02*
X383520D01*
X382270Y642894D02*
Y645394D01*
X596450Y348767D02*
X598990D01*
X597720Y347497D02*
Y350037D01*
X605214Y348513D02*
X607754D01*
X606484Y347243D02*
Y349783D01*
X600710Y393192D02*
X603250D01*
X601980Y391922D02*
Y394462D01*
X143474Y148250D02*
X146014D01*
X144744Y146980D02*
Y149520D01*
X633968Y92202D02*
X636508D01*
X635238Y90932D02*
Y93472D01*
X636254Y100076D02*
X638794D01*
X637524Y98806D02*
Y101346D01*
X609854Y171196D02*
X612394D01*
X611124Y169926D02*
Y172466D01*
X610362Y195580D02*
X612902D01*
X611632Y194310D02*
Y196850D01*
X725428Y647954D02*
X727928D01*
X726678Y646704D02*
Y649204D01*
X637290Y677926D02*
X639790D01*
X638540Y676676D02*
Y679176D01*
X641608Y753872D02*
X644108D01*
X642858Y752622D02*
Y755122D01*
X593602Y820674D02*
X596102D01*
X594852Y819424D02*
Y821924D01*
X605286Y817118D02*
X607786D01*
X606536Y815868D02*
Y818368D01*
X581664Y853186D02*
X584164D01*
X582914Y851936D02*
Y854436D01*
X593856Y846074D02*
X596356D01*
X595106Y844824D02*
Y847324D01*
X537468Y885952D02*
X539968D01*
X538718Y884702D02*
Y887202D01*
X537468Y899668D02*
X539968D01*
X538718Y898418D02*
Y900918D01*
X495050Y978662D02*
X497550D01*
X496300Y977412D02*
Y979912D01*
X494796Y1079754D02*
X497296D01*
X496046Y1078504D02*
Y1081004D01*
X494542Y1052830D02*
X497042D01*
X495792Y1051580D02*
Y1054080D01*
X506988Y1082040D02*
X509488D01*
X508238Y1080790D02*
Y1083290D01*
X506734Y1061720D02*
X509234D01*
X507984Y1060470D02*
Y1062970D01*
X747018Y662686D02*
X749518D01*
X748268Y661436D02*
Y663936D01*
X769370Y646938D02*
X771870D01*
X770620Y645688D02*
Y648188D01*
X736096Y679450D02*
X738596D01*
X737346Y678200D02*
Y680700D01*
X727714Y662940D02*
X730214D01*
X728964Y661690D02*
Y664190D01*
X687836Y706882D02*
X690336D01*
X689086Y705632D02*
Y708132D01*
X645926Y700786D02*
X648426D01*
X647176Y699536D02*
Y702036D01*
X646434Y729742D02*
X648934D01*
X647684Y728492D02*
Y730992D01*
X677930Y719328D02*
X680430D01*
X679180Y718078D02*
Y720578D01*
X686312Y767588D02*
X688812D01*
X687562Y766338D02*
Y768838D01*
X665691Y675491D02*
X668191D01*
X666941Y674241D02*
Y676741D01*
X674386Y778500D02*
X676886D01*
X675636Y777250D02*
Y779750D01*
X614903Y849453D02*
X617403D01*
X616153Y848203D02*
Y850703D01*
X506734Y1044194D02*
X509234D01*
X507984Y1042944D02*
Y1045444D01*
X799322Y287528D02*
X801862D01*
X800592Y286258D02*
Y288798D01*
X596376Y827532D02*
X598916D01*
X597646Y826262D02*
Y828802D01*
X552688Y1181862D02*
X555228D01*
X553958Y1180592D02*
Y1183132D01*
X550910Y1035304D02*
X553450D01*
X552180Y1034034D02*
Y1036574D01*
X880094Y629412D02*
X882634D01*
X881364Y628142D02*
Y630682D01*
X821674Y668274D02*
X824214D01*
X822944Y667004D02*
Y669544D01*
X786876Y668782D02*
X789416D01*
X788146Y667512D02*
Y670052D01*
X832088Y678434D02*
X834628D01*
X833358Y677164D02*
Y679704D01*
X769334Y654717D02*
X771874D01*
X770604Y653447D02*
Y655987D01*
X769334Y689168D02*
X771874D01*
X770604Y687898D02*
Y690438D01*
X769334Y637505D02*
X771874D01*
X770604Y636235D02*
Y638774D01*
X769334Y620283D02*
X771874D01*
X770604Y619013D02*
Y621553D01*
X769334Y671947D02*
X771874D01*
X770604Y670677D02*
Y673217D01*
X831834Y625348D02*
X834374D01*
X833104Y624078D02*
Y626618D01*
X832850Y665988D02*
X835390D01*
X834120Y664718D02*
Y667258D01*
X769334Y706389D02*
X771874D01*
X770604Y705119D02*
Y707659D01*
X839200Y602996D02*
X841740D01*
X840470Y601726D02*
Y604266D01*
X776970Y447802D02*
X779510D01*
X778240Y446532D02*
Y449072D01*
X752840Y523494D02*
X755380D01*
X754110Y522224D02*
Y524764D01*
X171242Y349493D02*
X173782D01*
X172512Y348223D02*
Y350763D01*
X582152Y434848D02*
X584692D01*
X583422Y433578D02*
Y436118D01*
X479155Y683409D02*
X481655D01*
X480405Y682159D02*
Y684659D01*
X406914Y620348D02*
X409414D01*
X408164Y619098D02*
Y621598D01*
X381914Y620348D02*
X384414D01*
X383164Y619098D02*
Y621598D01*
X356914Y620348D02*
X359414D01*
X358164Y619098D02*
Y621598D01*
X331914Y620348D02*
X334414D01*
X333164Y619098D02*
Y621598D01*
X306915Y620348D02*
X309414D01*
X308165Y619098D02*
Y621598D01*
X281915Y620348D02*
X284414D01*
X283165Y619098D02*
Y621598D01*
X256915Y620348D02*
X259414D01*
X258165Y619098D02*
Y621598D01*
X195956Y587134D02*
X198456D01*
X197206Y585884D02*
Y588384D01*
X195956Y562134D02*
X198456D01*
X197206Y560884D02*
Y563384D01*
X195956Y512134D02*
X198456D01*
X197206Y510884D02*
Y513384D01*
X195956Y487134D02*
X198456D01*
X197206Y485884D02*
Y488384D01*
X195956Y462134D02*
X198456D01*
X197206Y460884D02*
Y463384D01*
X195956Y437134D02*
X198456D01*
X197206Y435884D02*
Y438384D01*
X195956Y412134D02*
X198456D01*
X197206Y410884D02*
Y413384D01*
X195956Y387134D02*
X198456D01*
X197206Y385884D02*
Y388384D01*
X195956Y362134D02*
X198456D01*
X197206Y360884D02*
Y363384D01*
X195956Y287134D02*
X198456D01*
X197206Y285884D02*
Y288384D01*
X195956Y237134D02*
X198456D01*
X197206Y235884D02*
Y238384D01*
X195956Y162134D02*
X198456D01*
X197206Y160884D02*
Y163384D01*
X229399Y116012D02*
X231899D01*
X230649Y114762D02*
Y117262D01*
X254399Y116012D02*
X256899D01*
X255649Y114762D02*
Y117262D01*
X278653Y109951D02*
X281153D01*
X279903Y108701D02*
Y111201D01*
X300547Y109105D02*
X303047D01*
X301797Y107855D02*
Y110355D01*
X291431Y132384D02*
X293931D01*
X292681Y131134D02*
Y133634D01*
X241516Y134446D02*
X244016D01*
X242766Y133196D02*
Y135696D01*
X214389Y169527D02*
X216889D01*
X215639Y168277D02*
Y170777D01*
X214389Y344527D02*
X216889D01*
X215639Y343277D02*
Y345777D01*
X214389Y394527D02*
X216889D01*
X215639Y393277D02*
Y395777D01*
X214389Y419527D02*
X216889D01*
X215639Y418277D02*
Y420777D01*
X214389Y444527D02*
X216889D01*
X215639Y443277D02*
Y445777D01*
X214389Y469527D02*
X216889D01*
X215639Y468277D02*
Y470777D01*
X214389Y494527D02*
X216889D01*
X215639Y493277D02*
Y495777D01*
X214389Y569527D02*
X216889D01*
X215639Y568277D02*
Y570777D01*
X270751Y601914D02*
X273251D01*
X272001Y600664D02*
Y603164D01*
X295751Y601914D02*
X298251D01*
X297001Y600664D02*
Y603164D01*
X320751Y601914D02*
X323251D01*
X322001Y600664D02*
Y603164D01*
X345751Y601914D02*
X348251D01*
X347001Y600664D02*
Y603164D01*
X395751Y601914D02*
X398251D01*
X397001Y600664D02*
Y603164D01*
X420751Y601914D02*
X423251D01*
X422001Y600664D02*
Y603164D01*
X497588Y692213D02*
X500088D01*
X498838Y690963D02*
Y693463D01*
X497588Y717213D02*
X500088D01*
X498838Y715963D02*
Y718463D01*
X190230Y479298D02*
X192770D01*
X191500Y478028D02*
Y480568D01*
X694928Y646938D02*
X697468D01*
X696198Y645668D02*
Y648208D01*
X666226Y650240D02*
X668766D01*
X667496Y648970D02*
Y651510D01*
X664448Y660400D02*
X666988D01*
X665718Y659130D02*
Y661670D01*
X707882Y648208D02*
X710422D01*
X709152Y646938D02*
Y649478D01*
X709406Y638810D02*
X711946D01*
X710676Y637540D02*
Y640080D01*
X652002Y673100D02*
X654542D01*
X653272Y671830D02*
Y674370D01*
X685276Y38100D02*
X687816D01*
X686546Y36830D02*
Y39370D01*
X386064Y540258D02*
X388604D01*
X387334Y538988D02*
Y541528D01*
X397240Y513080D02*
X399780D01*
X398510Y511810D02*
Y514350D01*
X380984Y526034D02*
X383524D01*
X382254Y524764D02*
Y527304D01*
X150352Y173990D02*
X152892D01*
X151622Y172720D02*
Y175260D01*
X571535Y314673D02*
X574075D01*
X572805Y313403D02*
Y315943D01*
X347456Y314706D02*
X349996D01*
X348726Y313436D02*
Y315976D01*
X678672Y419862D02*
X681212D01*
X679942Y418592D02*
Y421132D01*
X189468Y156210D02*
X192008D01*
X190738Y154940D02*
Y157480D01*
X246110Y146558D02*
X248650D01*
X247380Y145288D02*
Y147828D01*
X631682Y1052830D02*
X634222D01*
X632952Y1051560D02*
Y1054100D01*
X626348Y1046734D02*
X628888D01*
X627618Y1045464D02*
Y1048004D01*
X192262Y171196D02*
X194802D01*
X193532Y169926D02*
Y172466D01*
X227492Y871639D02*
X230032D01*
X228762Y870369D02*
Y872909D01*
X546795Y377508D02*
X549334D01*
X548064Y376238D02*
Y378778D01*
X502396Y497840D02*
X504936D01*
X503666Y496570D02*
Y499110D01*
X605266Y436626D02*
X607806D01*
X606536Y435356D02*
Y437896D01*
X597900Y445770D02*
X600440D01*
X599170Y444500D02*
Y447040D01*
X588756Y449580D02*
X591296D01*
X590026Y448310D02*
Y450850D01*
X710168Y459994D02*
X712708D01*
X711438Y458724D02*
Y461264D01*
X770839Y432054D02*
X773379D01*
X772109Y430784D02*
Y433324D01*
X587994Y115062D02*
X590534D01*
X589264Y113792D02*
Y116332D01*
X587740Y106426D02*
X590280D01*
X589010Y105156D02*
Y107696D01*
X651240Y100076D02*
X653780D01*
X652510Y98806D02*
Y101346D01*
X301990Y1194308D02*
X304530D01*
X303260Y1193038D02*
Y1195578D01*
X32572Y949504D02*
X35572D01*
X34072Y948004D02*
Y951004D01*
X94218Y934466D02*
X96758D01*
X95488Y933196D02*
Y935736D01*
X99586Y1033900D02*
X102126D01*
X100856Y1032630D02*
Y1035170D01*
X53981Y1061566D02*
X56521D01*
X55251Y1060296D02*
Y1062836D01*
X99801Y1054220D02*
X102341D01*
X101071Y1052950D02*
Y1055490D01*
X99293Y1044050D02*
X101833D01*
X100563Y1042780D02*
Y1045320D01*
X700516Y478338D02*
X703056D01*
X701786Y477068D02*
Y479608D01*
X605012Y457200D02*
X607552D01*
X606282Y455930D02*
Y458470D01*
X254184Y508508D02*
X256724D01*
X255454Y507238D02*
Y509778D01*
X254184Y498465D02*
X256724D01*
X255454Y497195D02*
Y499735D01*
X453375Y842574D02*
X455874D01*
X454624Y841324D02*
Y843824D01*
X453375Y742574D02*
X455874D01*
X454624Y741324D02*
Y743824D01*
X453375Y717574D02*
X455874D01*
X454624Y716324D02*
Y718824D01*
X453375Y692574D02*
X455874D01*
X454624Y691324D02*
Y693824D01*
X453375Y667574D02*
X455874D01*
X454624Y666324D02*
Y668824D01*
X466621Y653162D02*
X469121D01*
X467871Y651912D02*
Y654412D01*
X466621Y678162D02*
X469121D01*
X467871Y676912D02*
Y679412D01*
X466621Y703162D02*
X469121D01*
X467871Y701912D02*
Y704412D01*
X466621Y728162D02*
X469121D01*
X467871Y726912D02*
Y729412D01*
X466621Y828162D02*
X469121D01*
X467871Y826912D02*
Y829412D01*
X466094Y901446D02*
X468594D01*
X467344Y900196D02*
Y902696D01*
X393024Y372776D02*
X395524D01*
X394274Y371526D02*
Y374026D01*
X417820Y369589D02*
X420320D01*
X419070Y368339D02*
Y370839D01*
X406491Y347304D02*
X408991D01*
X407741Y346054D02*
Y348554D01*
X406745Y322305D02*
X409245D01*
X407995Y321055D02*
Y323555D01*
X462043Y298258D02*
X464543D01*
X463293Y297008D02*
Y299508D01*
X389986Y424364D02*
X392486D01*
X391236Y423114D02*
Y425613D01*
X394016Y431125D02*
X396516D01*
X395266Y429875D02*
Y432375D01*
X443312Y425231D02*
X445812D01*
X444562Y423981D02*
Y426481D01*
X492757Y303029D02*
X495257D01*
X494007Y301779D02*
Y304279D01*
X473070Y318438D02*
X475570D01*
X474320Y317188D02*
Y319688D01*
X454180Y334813D02*
X456680D01*
X455430Y333563D02*
Y336063D01*
X461090Y358839D02*
X463590D01*
X462340Y357589D02*
Y360089D01*
X460797Y383838D02*
X463297D01*
X462047Y382588D02*
Y385088D01*
X459648Y431364D02*
X462148D01*
X460898Y430114D02*
Y432614D01*
X415845Y447978D02*
X418345D01*
X417095Y446728D02*
Y449228D01*
X390845Y447978D02*
X393345D01*
X392095Y446728D02*
Y449228D01*
X624228Y353694D02*
X626728D01*
X625478Y352444D02*
Y354944D01*
X642222Y336339D02*
X644722D01*
X643472Y335089D02*
Y337589D01*
X688448Y322773D02*
X690948D01*
X689698Y321523D02*
Y324023D01*
X688448Y272773D02*
X690948D01*
X689698Y271523D02*
Y274023D01*
X688448Y247773D02*
X690948D01*
X689698Y246523D02*
Y249023D01*
X688448Y197773D02*
X690948D01*
X689698Y196523D02*
Y199023D01*
X688448Y172773D02*
X690948D01*
X689698Y171523D02*
Y174023D01*
X688448Y147773D02*
X690948D01*
X689698Y146523D02*
Y149023D01*
X670911Y129956D02*
X673411D01*
X672161Y128706D02*
Y131206D01*
X687395Y115356D02*
X689895D01*
X688645Y114106D02*
Y116606D01*
X706882Y156182D02*
X709382D01*
X708132Y154932D02*
Y157432D01*
X706882Y231182D02*
X709382D01*
X708132Y229932D02*
Y232432D01*
X706882Y256182D02*
X709382D01*
X708132Y254932D02*
Y257432D01*
X706882Y281182D02*
X709382D01*
X708132Y279932D02*
Y282432D01*
X641993Y362267D02*
X644493D01*
X643243Y361017D02*
Y363517D01*
X473018Y1033872D02*
X475518D01*
X474268Y1032622D02*
Y1035122D01*
X453442Y1001340D02*
X455942D01*
X454692Y1000090D02*
Y1002590D01*
X403442Y1001340D02*
X405942D01*
X404692Y1000090D02*
Y1002590D01*
X334456Y983456D02*
X336956D01*
X335706Y982206D02*
Y984706D01*
X330762Y958731D02*
X333262D01*
X332012Y957481D02*
Y959981D01*
X330762Y933731D02*
X333262D01*
X332012Y932481D02*
Y934981D01*
X330762Y883731D02*
X333262D01*
X332012Y882481D02*
Y884981D01*
X330762Y833731D02*
X333262D01*
X332012Y832481D02*
Y834981D01*
X330762Y808731D02*
X333262D01*
X332012Y807481D02*
Y809981D01*
X330762Y783731D02*
X333262D01*
X332012Y782481D02*
Y784981D01*
X330762Y758731D02*
X333262D01*
X332012Y757481D02*
Y759981D01*
X330762Y733731D02*
X333262D01*
X332012Y732481D02*
Y734981D01*
X330762Y683731D02*
X333262D01*
X332012Y682481D02*
Y684981D01*
X329825Y658748D02*
X332325D01*
X331075Y657498D02*
Y659998D01*
X308170Y646256D02*
X310670D01*
X309420Y645006D02*
Y647506D01*
X283170Y646256D02*
X285670D01*
X284420Y645006D02*
Y647506D01*
X208170Y646256D02*
X210670D01*
X209420Y645006D02*
Y647506D01*
X158170Y646256D02*
X160670D01*
X159420Y645006D02*
Y647506D01*
X116023Y624639D02*
X118523D01*
X117273Y623389D02*
Y625889D01*
X112700Y599860D02*
X115200D01*
X113950Y598610D02*
Y601110D01*
X112700Y574860D02*
X115200D01*
X113950Y573610D02*
Y576110D01*
X112700Y549860D02*
X115200D01*
X113950Y548610D02*
Y551110D01*
X112700Y524860D02*
X115200D01*
X113950Y523610D02*
Y526110D01*
X112700Y499860D02*
X115200D01*
X113950Y498610D02*
Y501110D01*
X112700Y474860D02*
X115200D01*
X113950Y473610D02*
Y476110D01*
X112700Y449860D02*
X115200D01*
X113950Y448610D02*
Y451110D01*
X112700Y399860D02*
X115200D01*
X113950Y398610D02*
Y401110D01*
X112700Y374860D02*
X115200D01*
X113950Y373610D02*
Y376110D01*
X112700Y349860D02*
X115200D01*
X113950Y348610D02*
Y351110D01*
X112700Y224860D02*
X115200D01*
X113950Y223610D02*
Y226110D01*
X140509Y108479D02*
X143009D01*
X141759Y107229D02*
Y109729D01*
X153293Y36588D02*
X155793D01*
X154543Y35338D02*
Y37838D01*
X169131Y123581D02*
X171630D01*
X170381Y122331D02*
Y124831D01*
X131134Y155287D02*
X133634D01*
X132384Y154037D02*
Y156537D01*
X131134Y180287D02*
X133634D01*
X132384Y179037D02*
Y181537D01*
X131134Y255287D02*
X133634D01*
X132384Y254037D02*
Y256537D01*
X131134Y280287D02*
X133634D01*
X132384Y279037D02*
Y281537D01*
X131134Y355287D02*
X133634D01*
X132384Y354037D02*
Y356537D01*
X131134Y380287D02*
X133634D01*
X132384Y379037D02*
Y381537D01*
X131134Y405287D02*
X133634D01*
X132384Y404037D02*
Y406537D01*
X131134Y430287D02*
X133634D01*
X132384Y429037D02*
Y431537D01*
X131134Y455287D02*
X133634D01*
X132384Y454037D02*
Y456537D01*
X131134Y480287D02*
X133634D01*
X132384Y479037D02*
Y481537D01*
X131134Y505287D02*
X133634D01*
X132384Y504037D02*
Y506537D01*
X131134Y530287D02*
X133634D01*
X132384Y529037D02*
Y531537D01*
X131134Y555287D02*
X133634D01*
X132384Y554037D02*
Y556537D01*
X131134Y580287D02*
X133634D01*
X132384Y579037D02*
Y581537D01*
X193678Y627822D02*
X196178D01*
X194928Y626572D02*
Y629072D01*
X218678Y627822D02*
X221178D01*
X219928Y626572D02*
Y629072D01*
X243678Y627822D02*
X246178D01*
X244928Y626572D02*
Y629072D01*
X340374Y640780D02*
X342874D01*
X341624Y639530D02*
Y642030D01*
X349196Y689191D02*
X351696D01*
X350446Y687941D02*
Y690441D01*
X349196Y714191D02*
X351696D01*
X350446Y712941D02*
Y715441D01*
X349196Y739191D02*
X351696D01*
X350446Y737941D02*
Y740441D01*
X349196Y764191D02*
X351696D01*
X350446Y762941D02*
Y765441D01*
X349196Y789191D02*
X351696D01*
X350446Y787941D02*
Y790441D01*
X349196Y839191D02*
X351696D01*
X350446Y837941D02*
Y840441D01*
X349196Y914191D02*
X351696D01*
X350446Y912941D02*
Y915441D01*
X349196Y964191D02*
X351696D01*
X350446Y962941D02*
Y965441D01*
X365770Y982906D02*
X368270D01*
X367020Y981656D02*
Y984156D01*
X415770Y982906D02*
X418270D01*
X417020Y981656D02*
Y984156D01*
X136128Y207264D02*
X138668D01*
X137398Y205994D02*
Y208534D01*
X745982Y156951D02*
X748522D01*
X747252Y155681D02*
Y158221D01*
X143261Y224014D02*
X145801D01*
X144531Y222744D02*
Y225284D01*
X155199Y224268D02*
X157739D01*
X156469Y222998D02*
Y225538D01*
X393938Y479298D02*
X396478D01*
X395208Y478028D02*
Y480568D01*
X703588Y951492D02*
X706128D01*
X704858Y950222D02*
Y952762D01*
X655304Y803910D02*
X657844D01*
X656574Y802640D02*
Y805180D01*
X722360Y618998D02*
X724900D01*
X723630Y617728D02*
Y620268D01*
X771382Y421132D02*
X773922D01*
X772652Y419862D02*
Y422402D01*
X784844Y432054D02*
X787384D01*
X786114Y430784D02*
Y433324D01*
X740902Y449580D02*
X743442D01*
X742172Y448310D02*
Y450850D01*
X569452Y413004D02*
X571992D01*
X570722Y411734D02*
Y414274D01*
X554212Y406654D02*
X556752D01*
X555482Y405384D02*
Y407924D01*
X786360Y457421D02*
X788901D01*
X787630Y456151D02*
Y458691D01*
X713978Y508000D02*
X716518D01*
X715248Y506730D02*
Y509270D01*
X689340Y516890D02*
X691880D01*
X690610Y515620D02*
Y518160D01*
X630158Y456438D02*
X632698D01*
X631428Y455168D02*
Y457708D01*
X277098Y844804D02*
X279638D01*
X278368Y843534D02*
Y846074D01*
X274050Y380238D02*
X276590D01*
X275320Y378968D02*
Y381508D01*
X624570Y344678D02*
X627110D01*
X625840Y343408D02*
Y345948D01*
X61706Y123190D02*
X64246D01*
X62976Y121920D02*
Y124460D01*
X73339Y125620D02*
X75879D01*
X74609Y124350D02*
Y126890D01*
X89087Y125112D02*
X91627D01*
X90357Y123842D02*
Y126382D01*
X101584Y117208D02*
X104124D01*
X102854Y115938D02*
Y118478D01*
X675602Y72872D02*
X678142D01*
X676872Y71602D02*
Y74142D01*
X661428Y72872D02*
X663968D01*
X662698Y71602D02*
Y74142D01*
X661854Y53850D02*
X664394D01*
X663124Y52580D02*
Y55120D01*
X671504Y53850D02*
X674044D01*
X672774Y52580D02*
Y55120D01*
X163429Y72872D02*
X165969D01*
X164699Y71602D02*
Y74142D01*
X149205Y72872D02*
X151745D01*
X150475Y71602D02*
Y74142D01*
X263890Y51054D02*
X266430D01*
X265160Y49784D02*
Y52324D01*
X226131Y44616D02*
X228671D01*
X227402Y43347D02*
Y45887D01*
X303006Y56896D02*
X305546D01*
X304276Y55626D02*
Y58166D01*
X269110Y56292D02*
X271650D01*
X270380Y55022D02*
Y57562D01*
X316924Y96266D02*
X319464D01*
X318194Y94996D02*
Y97536D01*
X271656Y92710D02*
X274196D01*
X272926Y91440D02*
Y93980D01*
X320678Y88646D02*
X323218D01*
X321948Y87376D02*
Y89916D01*
X313312Y57912D02*
X315852D01*
X314582Y56642D02*
Y59182D01*
X258448Y57658D02*
X260988D01*
X259718Y56388D02*
Y58928D01*
X260988Y88392D02*
X263528D01*
X262258Y87122D02*
Y89662D01*
X54086Y425958D02*
X56626D01*
X55356Y424688D02*
Y427228D01*
X52308Y391922D02*
X54848D01*
X53578Y390652D02*
Y393192D01*
X43164Y341122D02*
X45704D01*
X44434Y339852D02*
Y342392D01*
X130032Y110744D02*
X132572D01*
X131302Y109474D02*
Y112014D01*
X174482Y38955D02*
X177022D01*
X175752Y37685D02*
Y40225D01*
X130540Y88392D02*
X133080D01*
X131810Y87122D02*
Y89662D01*
X128000Y57658D02*
X130540D01*
X129270Y56388D02*
Y58928D01*
X182864Y57912D02*
X185404D01*
X184134Y56642D02*
Y59182D01*
X190230Y88646D02*
X192770D01*
X191500Y87376D02*
Y89916D01*
X159750Y53850D02*
X162290D01*
X161020Y52580D02*
Y55120D01*
X150098Y53848D02*
X152638D01*
X151368Y52578D02*
Y55118D01*
X124190Y99568D02*
X126730D01*
X125460Y98298D02*
Y100838D01*
X137144Y118618D02*
X139684D01*
X138414Y117348D02*
Y119888D01*
X141208Y92710D02*
X143748D01*
X142478Y91440D02*
Y93980D01*
X215630Y140462D02*
X218170D01*
X216900Y139192D02*
Y141732D01*
X230108Y163830D02*
X232648D01*
X231378Y162560D02*
Y165100D01*
X321294Y234696D02*
X323834D01*
X322564Y233426D02*
Y235966D01*
X341868Y111760D02*
X344408D01*
X343138Y110490D02*
Y113030D01*
X333003Y234696D02*
X335543D01*
X334273Y233426D02*
Y235966D01*
X435606Y371064D02*
X438146D01*
X436876Y369795D02*
Y372335D01*
X690962Y870466D02*
X693502D01*
X692232Y869196D02*
Y871736D01*
X697986Y879102D02*
X700526D01*
X699256Y877832D02*
Y880372D01*
X690200Y997720D02*
X692740D01*
X691470Y996450D02*
Y998990D01*
X496346Y990152D02*
X498886D01*
X497616Y988882D02*
Y991422D01*
X560562Y1136904D02*
X563102D01*
X561832Y1135634D02*
Y1138174D01*
X565388Y1115822D02*
X567928D01*
X566658Y1114552D02*
Y1117092D01*
X566404Y1125474D02*
X568944D01*
X567674Y1124204D02*
Y1126744D01*
X551418D02*
X553958D01*
X552688Y1125474D02*
Y1128014D01*
X552180Y1138174D02*
X554720D01*
X553450Y1136904D02*
Y1139444D01*
X569706Y1136904D02*
X572246D01*
X570976Y1135634D02*
Y1138174D01*
X767826Y938784D02*
X770366D01*
X769096Y937514D02*
Y940054D01*
X832850Y645668D02*
X835390D01*
X834120Y644398D02*
Y646938D01*
X833358Y691896D02*
X835898D01*
X834628Y690626D02*
Y693166D01*
X500872Y1125474D02*
X503412D01*
X502142Y1124204D02*
Y1126744D01*
X496046Y1143000D02*
X498586D01*
X497316Y1141730D02*
Y1144270D01*
X492236Y1132078D02*
X494776D01*
X493506Y1130808D02*
Y1133348D01*
X598916Y995172D02*
X601456D01*
X600186Y993902D02*
Y996442D01*
X642096Y994156D02*
X644636D01*
X643366Y992886D02*
Y995426D01*
X618474Y972058D02*
X621014D01*
X619744Y970788D02*
Y973328D01*
X605012Y974090D02*
X607552D01*
X606282Y972820D02*
Y975360D01*
X585708Y982980D02*
X588248D01*
X586978Y981710D02*
Y984250D01*
X563356Y1024382D02*
X565896D01*
X564626Y1023112D02*
Y1025652D01*
X574532Y1023366D02*
X577072D01*
X575802Y1022096D02*
Y1024636D01*
X580374Y1029462D02*
X582914D01*
X581644Y1028192D02*
Y1030732D01*
X561578Y1077722D02*
X564118D01*
X562848Y1076452D02*
Y1078992D01*
X567674Y1073404D02*
X570214D01*
X568944Y1072134D02*
Y1074674D01*
X553704Y1074928D02*
X556244D01*
X554974Y1073658D02*
Y1076198D01*
X594333Y1006003D02*
X596873D01*
X595603Y1004733D02*
Y1007273D01*
X596873Y983905D02*
X599413D01*
X598143Y982635D02*
Y985175D01*
X603985Y980603D02*
X606525D01*
X605255Y979333D02*
Y981873D01*
X530082Y940562D02*
X532622D01*
X531352Y939292D02*
Y941832D01*
X522970Y934212D02*
X525510D01*
X524240Y932942D02*
Y935482D01*
X507730Y1022096D02*
X510270D01*
X509000Y1020826D02*
Y1023366D01*
X759190Y811276D02*
X761730D01*
X760460Y810006D02*
Y812546D01*
X320278Y676148D02*
X322818D01*
X321548Y674878D02*
Y677418D01*
X311388Y660908D02*
X313928D01*
X312658Y659638D02*
Y662178D01*
X297672Y652272D02*
X300212D01*
X298942Y651002D02*
Y653542D01*
X325104Y693674D02*
X327644D01*
X326374Y692404D02*
Y694944D01*
X767806Y895010D02*
X770346D01*
X769076Y893740D02*
Y896280D01*
X771128Y950976D02*
X773668D01*
X772398Y949706D02*
Y952246D01*
X690281Y454554D02*
X692821D01*
X691551Y453284D02*
Y455824D01*
X673592Y473964D02*
X676132D01*
X674862Y472694D02*
Y475234D01*
X619348Y548932D02*
X621888D01*
X620618Y547662D02*
Y550202D01*
X624824Y516890D02*
X627364D01*
X626094Y515620D02*
Y518160D01*
X629142Y537718D02*
X631682D01*
X630412Y536448D02*
Y538988D01*
X633714Y548386D02*
X636254D01*
X634984Y547116D02*
Y549656D01*
X695944Y529590D02*
X698484D01*
X697214Y528320D02*
Y530860D01*
X749518Y546776D02*
X752058D01*
X750788Y545506D02*
Y548046D01*
X699500Y522478D02*
X702040D01*
X700770Y521208D02*
Y523748D01*
X732012Y604774D02*
X734552D01*
X733282Y603504D02*
Y606044D01*
X549132Y616458D02*
X551672D01*
X550402Y615188D02*
Y617728D01*
X586470Y493776D02*
X589010D01*
X587740Y492506D02*
Y495046D01*
X486902Y505968D02*
X489442D01*
X488172Y504698D02*
Y507238D01*
X557768Y504952D02*
X560308D01*
X559038Y503682D02*
Y506222D01*
X445424Y536064D02*
X447964D01*
X446694Y534794D02*
Y537334D01*
X724392Y150622D02*
X726932D01*
X725662Y149352D02*
Y151892D01*
X773160Y172466D02*
X775700D01*
X774430Y171196D02*
Y173736D01*
X773668Y151892D02*
X776208D01*
X774938Y150622D02*
Y153162D01*
X870387Y773176D02*
X872926D01*
X871656Y771906D02*
Y774446D01*
X850630Y737616D02*
X853170D01*
X851900Y736346D02*
Y738886D01*
X885682Y769366D02*
X888222D01*
X886952Y768096D02*
Y770636D01*
X860028Y769620D02*
X862568D01*
X861298Y768350D02*
Y770890D01*
X848090Y769366D02*
X850630D01*
X849360Y768096D02*
Y770636D01*
X841232Y737870D02*
X843772D01*
X842502Y736600D02*
Y739140D01*
X887206Y811022D02*
X889746D01*
X888476Y809752D02*
Y812292D01*
X822690Y774446D02*
X825230D01*
X823960Y773176D02*
Y775716D01*
X684006Y651510D02*
X686546D01*
X685276Y650240D02*
Y652780D01*
X700770Y630428D02*
X703310D01*
X702040Y629158D02*
Y631698D01*
X658606Y573278D02*
X661146D01*
X659876Y572008D02*
Y574548D01*
X481314Y604774D02*
X483854D01*
X482584Y603504D02*
Y606044D01*
X714994Y577342D02*
X717534D01*
X716264Y576072D02*
Y578612D01*
X466582Y574802D02*
X469122D01*
X467852Y573532D02*
Y576072D01*
X450326Y565150D02*
X452866D01*
X451596Y563880D02*
Y566420D01*
X680958Y435610D02*
X683498D01*
X682228Y434340D02*
Y436880D01*
X593836Y519430D02*
X596376D01*
X595106Y518160D02*
Y520700D01*
X468360Y562102D02*
X470900D01*
X469630Y560832D02*
Y563372D01*
X805144Y442128D02*
X807684D01*
X806414Y440858D02*
Y443398D01*
X681720Y580898D02*
X684260D01*
X682990Y579628D02*
Y582168D01*
X682482Y593344D02*
X685022D01*
X683752Y592074D02*
Y594614D01*
X709660Y585724D02*
X712200D01*
X710930Y584454D02*
Y586994D01*
X652744Y542712D02*
X655284D01*
X654014Y541442D02*
Y543982D01*
X644382Y535178D02*
X646922D01*
X645652Y533908D02*
Y536448D01*
X841740Y440436D02*
X844280D01*
X843010Y439166D02*
Y441706D01*
X829274Y440858D02*
X831814D01*
X830544Y439588D02*
Y442128D01*
X656574Y549656D02*
X659114D01*
X657844Y548386D02*
Y550926D01*
X678926Y548132D02*
X681466D01*
X680196Y546862D02*
Y549402D01*
X767826Y485648D02*
X770366D01*
X769096Y484378D02*
Y486918D01*
X743442Y503174D02*
X745982D01*
X744712Y501904D02*
Y504444D01*
X838692Y375666D02*
X841232D01*
X839962Y374396D02*
Y376936D01*
X364474Y1115822D02*
X367014D01*
X365744Y1114552D02*
Y1117092D01*
X367268Y1123696D02*
X369808D01*
X368538Y1122426D02*
Y1124966D01*
X330946Y1020318D02*
X333486D01*
X332216Y1019048D02*
Y1021588D01*
X750845Y832432D02*
X753385D01*
X752115Y831162D02*
Y833702D01*
X770961Y1128801D02*
X773501D01*
X772231Y1127531D02*
Y1130071D01*
X723699Y312780D02*
X726239D01*
X724969Y311510D02*
Y314050D01*
X182864Y1245616D02*
X185404D01*
X184134Y1244346D02*
Y1246886D01*
X875014Y487934D02*
X877554D01*
X876284Y486664D02*
Y489204D01*
X733536Y299466D02*
X736076D01*
X734806Y298196D02*
Y300736D01*
X859950Y411024D02*
X862490D01*
X861220Y409754D02*
Y412294D01*
X859266Y468630D02*
X861806D01*
X860536Y467360D02*
Y469900D01*
X873989Y495984D02*
X876529D01*
X875259Y494714D02*
Y497253D01*
X897366Y502666D02*
X899906D01*
X898636Y501396D02*
Y503936D01*
X900414Y508762D02*
X902954D01*
X901684Y507492D02*
Y510032D01*
X469884Y1121156D02*
X472424D01*
X471154Y1119886D02*
Y1122426D01*
X468860Y1073611D02*
X471400D01*
X470130Y1072341D02*
Y1074881D01*
X312404Y948182D02*
X314944D01*
X313674Y946912D02*
Y949452D01*
X294624Y952246D02*
X297164D01*
X295894Y950976D02*
Y953516D01*
X450326Y1029716D02*
X452866D01*
X451596Y1028446D02*
Y1030986D01*
X438134D02*
X440674D01*
X439404Y1029716D02*
Y1032256D01*
X469630Y1056894D02*
X472170D01*
X470900Y1055624D02*
Y1058164D01*
X721064Y124056D02*
X723604D01*
X722334Y122786D02*
Y125326D01*
X729472Y145796D02*
X732012D01*
X730742Y144526D02*
Y147066D01*
X740980Y139249D02*
X743520D01*
X742250Y137979D02*
Y140519D01*
X725916Y167155D02*
X728456D01*
X727186Y165886D02*
Y168426D01*
X727440Y179324D02*
X729980D01*
X728710Y178054D02*
Y180594D01*
X774176Y229362D02*
X776716D01*
X775446Y228092D02*
Y230632D01*
X767318Y229362D02*
X769858D01*
X768588Y228092D02*
Y230632D01*
X48447Y120680D02*
X50987D01*
X49717Y119410D02*
Y121950D01*
X467344Y1015238D02*
X469884D01*
X468614Y1013968D02*
Y1016508D01*
X442960Y1011682D02*
X445500D01*
X444230Y1010412D02*
Y1012952D01*
X440674Y1018794D02*
X443214D01*
X441944Y1017524D02*
Y1020064D01*
X468983Y1040638D02*
X471523D01*
X470253Y1039368D02*
Y1041908D01*
X468486Y1083711D02*
X471026D01*
X469756Y1082441D02*
Y1084981D01*
X477504Y1064768D02*
X480044D01*
X478774Y1063498D02*
Y1066038D01*
X326628Y206248D02*
X329168D01*
X327898Y204978D02*
Y207518D01*
X642858Y1040384D02*
X645398D01*
X644128Y1039114D02*
Y1041654D01*
X354060Y513080D02*
X356600D01*
X355330Y511810D02*
Y514350D01*
X308086Y519684D02*
X310626D01*
X309356Y518414D02*
Y520954D01*
X306054Y534670D02*
X308594D01*
X307324Y533400D02*
Y535940D01*
X253032Y528401D02*
X255572D01*
X254302Y527132D02*
Y529672D01*
X329676Y453390D02*
X332216D01*
X330946Y452120D02*
Y454660D01*
X185912Y204978D02*
X188452D01*
X187182Y203708D02*
Y206248D01*
X160512Y198120D02*
X163052D01*
X161782Y196850D02*
Y199390D01*
X874252Y545660D02*
X876792D01*
X875522Y544390D02*
Y546930D01*
X906764Y545660D02*
X909304D01*
X908034Y544390D02*
Y546930D01*
X910828Y511556D02*
X913368D01*
X912098Y510286D02*
Y512826D01*
X911844Y573024D02*
X914384D01*
X913114Y571754D02*
Y574294D01*
X526446Y411988D02*
X528986D01*
X527716Y410718D02*
Y413258D01*
X607726Y419354D02*
X610266D01*
X608996Y418084D02*
Y420624D01*
X665892Y613410D02*
X668432D01*
X667162Y612140D02*
Y614680D01*
X818372Y290830D02*
X820912D01*
X819642Y289560D02*
Y292100D01*
X141950Y339258D02*
X144490D01*
X143220Y337988D02*
Y340528D01*
X384266Y1133008D02*
X386806D01*
X385536Y1131738D02*
Y1134278D01*
X593582Y1120902D02*
X596122D01*
X594852Y1119632D02*
Y1122172D01*
X575294Y1120648D02*
X577834D01*
X576564Y1119378D02*
Y1121918D01*
X618474Y1224280D02*
X621014D01*
X619744Y1223010D02*
Y1225550D01*
X593836Y1131570D02*
X596376D01*
X595106Y1130300D02*
Y1132840D01*
X702294Y1145794D02*
X704834D01*
X703564Y1144524D02*
Y1147064D01*
X717534Y686816D02*
X720074D01*
X718804Y685546D02*
Y688086D01*
X820404Y957326D02*
X822944D01*
X821674Y956056D02*
Y958596D01*
X664976Y907604D02*
X667516D01*
X666246Y906334D02*
Y908874D01*
X608040Y962320D02*
X610580D01*
X609310Y961050D02*
Y963590D01*
X687562Y1040130D02*
X690102D01*
X688832Y1038860D02*
Y1041400D01*
X687452Y830284D02*
X689992D01*
X688722Y829014D02*
Y831554D01*
X670798Y850138D02*
X673338D01*
X672068Y848868D02*
Y851408D01*
X678672Y878840D02*
X681212D01*
X679942Y877570D02*
Y880110D01*
X634984Y1025398D02*
X637524D01*
X636254Y1024128D02*
Y1026668D01*
X655050Y1030986D02*
X657590D01*
X656320Y1029716D02*
Y1032256D01*
X747973Y620156D02*
X750513D01*
X749243Y618886D02*
Y621426D01*
X747973Y637377D02*
X750513D01*
X749243Y636107D02*
Y638647D01*
X747810Y654651D02*
X750350D01*
X749080Y653382D02*
Y655921D01*
X747556Y671924D02*
X750096D01*
X748826Y670654D02*
Y673194D01*
X747973Y689041D02*
X750513D01*
X749243Y687771D02*
Y690311D01*
X747973Y706262D02*
X750513D01*
X749243Y704992D02*
Y707532D01*
X749538Y611378D02*
X752078D01*
X750808Y610108D02*
Y612648D01*
Y602996D02*
X753348D01*
X752078Y601726D02*
Y604266D01*
X881367Y678511D02*
X883907D01*
X882637Y677241D02*
Y679781D01*
X878529Y692800D02*
X881069D01*
X879799Y691530D02*
Y694070D01*
X698992Y798576D02*
X701532D01*
X700262Y797306D02*
Y799846D01*
X683244Y1045210D02*
X685784D01*
X684514Y1043940D02*
Y1046480D01*
X582660Y1166622D02*
X585200D01*
X583930Y1165352D02*
Y1167892D01*
X600186Y1161542D02*
X602726D01*
X601456Y1160272D02*
Y1162812D01*
X569706Y1152652D02*
X572246D01*
X570976Y1151382D02*
Y1153922D01*
X557006Y1151128D02*
X559546D01*
X558276Y1149858D02*
Y1152398D01*
X488900Y1196620D02*
X491440D01*
X490170Y1195350D02*
Y1197890D01*
X496900Y1196620D02*
X499440D01*
X498170Y1195350D02*
Y1197890D01*
X448294Y1192784D02*
X450834D01*
X449564Y1191514D02*
Y1194054D01*
X441182Y1197864D02*
X443722D01*
X442452Y1196594D02*
Y1199134D01*
X174538Y56134D02*
X177078D01*
X175808Y54864D02*
Y57404D01*
X323326Y405130D02*
X325866D01*
X324596Y403860D02*
Y406400D01*
X535827Y332597D02*
X538367D01*
X537097Y331327D02*
Y333867D01*
X327390Y329738D02*
X329930D01*
X328660Y328468D02*
Y331008D01*
X308848Y484632D02*
X311388D01*
X310118Y483362D02*
Y485902D01*
X282686Y466852D02*
X285226D01*
X283956Y465582D02*
Y468122D01*
X317230Y467614D02*
X319770D01*
X318500Y466344D02*
Y468884D01*
X597953Y291592D02*
X600493D01*
X599223Y290322D02*
Y292862D01*
X337243Y293116D02*
X339783D01*
X338513Y291846D02*
Y294386D01*
X376613Y352552D02*
X379153D01*
X377883Y351282D02*
Y353822D01*
X384032Y370078D02*
X386572D01*
X385302Y368808D02*
Y371348D01*
X606790Y316484D02*
X609330D01*
X608060Y315214D02*
Y317754D01*
X612685Y329946D02*
X615225D01*
X613955Y328676D02*
Y331216D01*
X483382Y233598D02*
X485922D01*
X484652Y232327D02*
Y234867D01*
X507100Y297195D02*
X509640D01*
X508370Y295925D02*
Y298465D01*
X427212Y290322D02*
X429752D01*
X428482Y289052D02*
Y291592D01*
X428676Y307340D02*
X431217D01*
X429947Y306070D02*
Y308610D01*
X452650Y233718D02*
X455190D01*
X453920Y232448D02*
Y234988D01*
X419084Y302006D02*
X421624D01*
X420354Y300736D02*
Y303276D01*
X662162Y1028192D02*
X664702D01*
X663432Y1026922D02*
Y1029462D01*
X664702Y1020826D02*
X667242D01*
X665972Y1019556D02*
Y1022096D01*
X139430Y307340D02*
X141970D01*
X140700Y306070D02*
Y308610D01*
X174228Y155702D02*
X176768D01*
X175498Y154432D02*
Y156972D01*
X186420Y163068D02*
X188960D01*
X187690Y161798D02*
Y164338D01*
X57134Y355600D02*
X59674D01*
X58404Y354330D02*
Y356870D01*
X529320Y716280D02*
X531860D01*
X530590Y715010D02*
Y717550D01*
X529574Y728980D02*
X532114D01*
X530844Y727710D02*
Y730250D01*
X505444Y1153160D02*
X507984D01*
X506714Y1151890D02*
Y1154430D01*
X505444Y1163828D02*
X507984D01*
X506714Y1162558D02*
Y1165098D01*
X505190Y1173988D02*
X507730D01*
X506460Y1172718D02*
Y1175258D01*
X506968Y1184402D02*
X509508D01*
X508238Y1183132D02*
Y1185672D01*
X547354Y1175258D02*
X549894D01*
X548624Y1173988D02*
Y1176528D01*
X495246Y970466D02*
X497786D01*
X496516Y969196D02*
Y971736D01*
X469867Y932961D02*
X472407D01*
X471137Y931691D02*
Y934231D01*
X753602Y1148334D02*
X756142D01*
X754872Y1147064D02*
Y1149604D01*
X659763Y778716D02*
X662303D01*
X661033Y777446D02*
Y779986D01*
X686546Y788162D02*
X689086D01*
X687816Y786892D02*
Y789432D01*
X374634Y1080262D02*
X377174D01*
X375904Y1078992D02*
Y1081532D01*
X364728Y1085088D02*
X367268D01*
X365998Y1083818D02*
Y1086358D01*
X383778Y1099312D02*
X386318D01*
X385048Y1098042D02*
Y1100582D01*
X320258Y1235624D02*
X322798D01*
X321528Y1234354D02*
Y1236894D01*
X198674Y752594D02*
X201214D01*
X199944Y751324D02*
Y753864D01*
X379912Y1231958D02*
X382452D01*
X381182Y1230688D02*
Y1233228D01*
X538210Y793750D02*
X540750D01*
X539480Y792480D02*
Y795020D01*
X52760Y509582D02*
X55300D01*
X54030Y508312D02*
Y510852D01*
X542548Y595462D02*
X545088D01*
X543818Y594192D02*
Y596732D01*
X533470Y606532D02*
X536010D01*
X534740Y605262D02*
Y607802D01*
X511794Y722630D02*
X514334D01*
X513064Y721360D02*
Y723900D01*
X494522Y408686D02*
X497062D01*
X495792Y407416D02*
Y409956D01*
X517753Y674302D02*
X520293D01*
X519023Y673031D02*
Y675572D01*
X646414Y652526D02*
X648954D01*
X647684Y651256D02*
Y653796D01*
X519922Y709168D02*
X522462D01*
X521192Y707898D02*
Y710438D01*
X530336Y532384D02*
X532876D01*
X531606Y531114D02*
Y533654D01*
X530082Y557022D02*
X532622D01*
X531352Y555752D02*
Y558292D01*
X554974Y761492D02*
X557514D01*
X556244Y760222D02*
Y762762D01*
X625840Y690880D02*
X628380D01*
X627110Y689610D02*
Y692150D01*
X576818Y776478D02*
X579358D01*
X578088Y775208D02*
Y777748D01*
X576818Y766064D02*
X579358D01*
X578088Y764794D02*
Y767334D01*
X563102Y709676D02*
X565642D01*
X564372Y708406D02*
Y710946D01*
X562594Y722122D02*
X565134D01*
X563864Y720852D02*
Y723392D01*
X552942Y752856D02*
X555482D01*
X554212Y751586D02*
Y754126D01*
X562607Y734741D02*
X565147D01*
X563877Y733471D02*
Y736011D01*
X562607Y747441D02*
X565147D01*
X563877Y746171D02*
Y748711D01*
X625840Y748030D02*
X628380D01*
X627110Y746760D02*
Y749300D01*
X625586Y716026D02*
X628126D01*
X626856Y714756D02*
Y717296D01*
X625586Y703072D02*
X628126D01*
X626856Y701802D02*
Y704342D01*
X600994Y690502D02*
X603534D01*
X602264Y689232D02*
Y691772D01*
X600994Y703202D02*
X603534D01*
X602264Y701932D02*
Y704472D01*
X600994Y715902D02*
X603534D01*
X602264Y714632D02*
Y717172D01*
X600994Y728602D02*
X603534D01*
X602264Y727332D02*
Y729872D01*
X600994Y741048D02*
X603534D01*
X602264Y739778D02*
Y742318D01*
X527678Y677418D02*
X530219D01*
X528949Y676148D02*
Y678688D01*
X548218Y770818D02*
X550757D01*
X549487Y769548D02*
Y772088D01*
X538210Y770450D02*
X540750D01*
X539480Y769180D02*
Y771720D01*
X548116Y791972D02*
X550656D01*
X549386Y790702D02*
Y793242D01*
X686999Y439111D02*
X689538D01*
X688269Y437841D02*
Y440381D01*
X184367Y148823D02*
X186907D01*
X185637Y147553D02*
Y150093D01*
X167144Y262798D02*
X169684D01*
X168414Y261528D02*
Y264068D01*
X269533Y815188D02*
X272073D01*
X270803Y813917D02*
Y816458D01*
X438622Y1072048D02*
X441162D01*
X439892Y1070778D02*
Y1073318D01*
X242459Y890775D02*
X244999D01*
X243729Y889505D02*
Y892045D01*
X425668Y597068D02*
X428208D01*
X426938Y595798D02*
Y598338D01*
X426704Y574643D02*
X429244D01*
X427974Y573373D02*
Y575913D01*
X415000Y574763D02*
X417540D01*
X416270Y573493D02*
Y576033D01*
X402300Y574463D02*
X404840D01*
X403570Y573193D02*
Y575733D01*
X351085Y574524D02*
X353625D01*
X352355Y573254D02*
Y575794D01*
X340344Y574548D02*
X342884D01*
X341614Y573278D02*
Y575818D01*
X446770Y597916D02*
X449310D01*
X448040Y596646D02*
Y599186D01*
X440674Y574802D02*
X443214D01*
X441944Y573532D02*
Y576072D01*
X388858Y573786D02*
X391398D01*
X390128Y572516D02*
Y575056D01*
X384032Y1058164D02*
X386572D01*
X385302Y1056894D02*
Y1059434D01*
X501380Y473456D02*
X503920D01*
X502650Y472186D02*
Y474726D01*
X473186Y456692D02*
X475726D01*
X474456Y455422D02*
Y457962D01*
X77343Y517652D02*
X79883D01*
X78613Y516382D02*
Y518922D01*
X55222Y501687D02*
X57762D01*
X56492Y500416D02*
Y502957D01*
X70360Y478028D02*
X72901D01*
X71631Y476758D02*
Y479298D01*
X51768Y493515D02*
X54308D01*
X53038Y492244D02*
Y494785D01*
X474138Y400731D02*
X476678D01*
X475408Y399460D02*
Y402001D01*
X479218Y413938D02*
X481758D01*
X480488Y412668D02*
Y415209D01*
X426260Y414609D02*
X428800D01*
X427530Y413340D02*
Y415880D01*
X431340Y400894D02*
X433880D01*
X432610Y399623D02*
Y402164D01*
X275638Y519258D02*
X278178D01*
X276908Y517988D02*
Y520527D01*
X148807Y198918D02*
X151347D01*
X150077Y197648D02*
Y200188D01*
X87104Y453336D02*
X89644D01*
X88374Y452066D02*
Y454607D01*
X552180Y430022D02*
X554720D01*
X553450Y428752D02*
Y431292D01*
X538464Y437896D02*
X541004D01*
X539734Y436626D02*
Y439166D01*
X468360Y588264D02*
X470900D01*
X469630Y586994D02*
Y589534D01*
X502411Y521020D02*
X504951D01*
X503681Y519750D02*
Y522290D01*
X541258Y490982D02*
X543798D01*
X542528Y489712D02*
Y492252D01*
X541766Y513398D02*
X544306D01*
X543036Y512128D02*
Y514668D01*
X531860Y513398D02*
X534400D01*
X533130Y512128D02*
Y514668D01*
X535712Y479241D02*
X538252D01*
X536982Y477971D02*
Y480511D01*
X548158Y467811D02*
X550698D01*
X549428Y466541D02*
Y469081D01*
X508492Y411988D02*
X511032D01*
X509762Y410718D02*
Y413258D01*
X483346Y443992D02*
X485886D01*
X484616Y442722D02*
Y445262D01*
X520176Y424942D02*
X522716D01*
X521446Y423672D02*
Y426212D01*
X505167Y444118D02*
X507707D01*
X506437Y442848D02*
Y445387D01*
X517108Y490523D02*
X519648D01*
X518378Y489254D02*
Y491794D01*
X492216Y458130D02*
X494756D01*
X493486Y456860D02*
Y459400D01*
X519922Y477520D02*
X522462D01*
X521192Y476250D02*
Y478790D01*
X511540Y477012D02*
X514080D01*
X512810Y475742D02*
Y478282D01*
X533638Y430530D02*
X536178D01*
X534908Y429260D02*
Y431800D01*
X628126Y429260D02*
X630666D01*
X629396Y427990D02*
Y430530D01*
X624316Y418846D02*
X626856D01*
X625586Y417576D02*
Y420116D01*
X765540Y466344D02*
X768080D01*
X766810Y465074D02*
Y467614D01*
X758860Y481584D02*
X761400D01*
X760130Y480314D02*
Y482854D01*
X782558Y477520D02*
X785098D01*
X783828Y476250D02*
Y478790D01*
X789670Y476504D02*
X792210D01*
X790940Y475234D02*
Y477774D01*
X760968Y504952D02*
X763508D01*
X762238Y503682D02*
Y506222D01*
X799068Y503682D02*
X801608D01*
X800338Y502412D02*
Y504952D01*
X754872Y530606D02*
X757412D01*
X756142Y529336D02*
Y531876D01*
X583930Y533654D02*
X586470D01*
X585200Y532384D02*
Y534924D01*
X582660Y507746D02*
X585200D01*
X583930Y506476D02*
Y509016D01*
X692134Y467360D02*
X694674D01*
X693404Y466090D02*
Y468630D01*
X750046Y426466D02*
X752586D01*
X751316Y425196D02*
Y427736D01*
X771636Y442214D02*
X774176D01*
X772906Y440944D02*
Y443484D01*
X691372Y386080D02*
X693912D01*
X692642Y384810D02*
Y387350D01*
X692388Y376682D02*
X694928D01*
X693658Y375412D02*
Y377952D01*
X712962Y363474D02*
X715502D01*
X714232Y362204D02*
Y364744D01*
X694166Y425450D02*
X696706D01*
X695436Y424180D02*
Y426720D01*
X703056Y421386D02*
X705596D01*
X704326Y420116D02*
Y422656D01*
X686546Y421894D02*
X689086D01*
X687816Y420624D02*
Y423164D01*
X678926Y375158D02*
X681466D01*
X680196Y373888D02*
Y376428D01*
X670798Y375158D02*
X673338D01*
X672068Y373888D02*
Y376428D01*
X654542Y380492D02*
X657082D01*
X655812Y379222D02*
Y381762D01*
X656828Y390144D02*
X659368D01*
X658098Y388874D02*
Y391414D01*
X693150Y361188D02*
X695690D01*
X694420Y359918D02*
Y362458D01*
X760206Y414528D02*
X762746D01*
X761476Y413258D02*
Y415798D01*
X759698Y404876D02*
X762238D01*
X760968Y403606D02*
Y406146D01*
X753404Y371182D02*
X755944D01*
X754674Y369912D02*
Y372452D01*
X533892Y468376D02*
X536432D01*
X535162Y467106D02*
Y469646D01*
X606028Y150114D02*
X608568D01*
X607298Y148844D02*
Y151384D01*
X687054Y365252D02*
X689594D01*
X688324Y363982D02*
Y366522D01*
X641334Y419354D02*
X643874D01*
X642604Y418084D02*
Y420624D01*
X625840Y331724D02*
X628380D01*
X627110Y330454D02*
Y332994D01*
X429244Y1051306D02*
X431784D01*
X430514Y1050036D02*
Y1052576D01*
X403590Y1059942D02*
X406130D01*
X404860Y1058672D02*
Y1061212D01*
X378444Y1054608D02*
X380984D01*
X379714Y1053338D02*
Y1055878D01*
X358378Y1035812D02*
X360918D01*
X359648Y1034542D02*
Y1037082D01*
X343392Y1030986D02*
X345932D01*
X344662Y1029716D02*
Y1032256D01*
X332724Y575056D02*
X335264D01*
X333994Y573786D02*
Y576326D01*
X305800Y579374D02*
X308340D01*
X307070Y578104D02*
Y580644D01*
X394192Y589788D02*
X396732D01*
X395462Y588518D02*
Y591058D01*
X384794Y584708D02*
X387334D01*
X386064Y583438D02*
Y585978D01*
X407146Y601726D02*
X409686D01*
X408416Y600456D02*
Y602996D01*
X447532Y578104D02*
X450072D01*
X448802Y576834D02*
Y579374D01*
X623046Y393700D02*
X625586D01*
X624316Y392430D02*
Y394970D01*
X467852Y547624D02*
X470392D01*
X469122Y546354D02*
Y548894D01*
X506980Y553666D02*
X509520D01*
X508250Y552396D02*
Y554936D01*
X510524Y575564D02*
X513064D01*
X511794Y574294D02*
Y576834D01*
X517902Y582114D02*
X520442D01*
X519172Y580844D02*
Y583384D01*
X515616Y614372D02*
X518156D01*
X516886Y613102D02*
Y615642D01*
X515858Y567944D02*
X518398D01*
X517128Y566674D02*
Y569214D01*
X507718Y601640D02*
X510258D01*
X508988Y600370D02*
Y602910D01*
X17510Y370078D02*
X20050D01*
X18780Y368808D02*
Y371348D01*
X15490Y381149D02*
X18030D01*
X16760Y379879D02*
Y382419D01*
X264652Y370078D02*
X267192D01*
X265922Y368808D02*
Y371348D01*
X259584Y380895D02*
X262124D01*
X260854Y379625D02*
Y382165D01*
X898128Y380492D02*
X900668D01*
X899398Y379222D02*
Y381762D01*
X894318Y367030D02*
X896858D01*
X895588Y365760D02*
Y368300D01*
X628380Y323596D02*
X630920D01*
X629650Y322326D02*
Y324866D01*
X774938Y165608D02*
X777478D01*
X776208Y164338D02*
Y166878D01*
X745768Y260113D02*
X748308D01*
X747038Y258843D02*
Y261383D01*
X750406Y222146D02*
X752946D01*
X751676Y220877D02*
Y223417D01*
X746998Y297434D02*
X749538D01*
X748268Y296164D02*
Y298704D01*
X870676Y359070D02*
X873216D01*
X871946Y357800D02*
Y360340D01*
X698210Y351450D02*
X700750D01*
X699480Y350180D02*
Y352720D01*
X681834Y757730D02*
X684374D01*
X683104Y756460D02*
Y759000D01*
X679548Y737156D02*
X682088D01*
X680818Y735886D02*
Y738426D01*
X674736Y708079D02*
X677276D01*
X676006Y706809D02*
Y709349D01*
X402828Y415544D02*
X405368D01*
X404098Y414274D02*
Y416814D01*
X396362Y403606D02*
X398901D01*
X397631Y402336D02*
Y404876D01*
X356462Y403860D02*
X359002D01*
X357732Y402590D02*
Y405130D01*
X350504Y415544D02*
X353044D01*
X351774Y414274D02*
Y416814D01*
X312404Y424752D02*
X314944D01*
X313674Y423482D02*
Y426022D01*
X322310Y425006D02*
X324850D01*
X323580Y423736D02*
Y426276D01*
X337296Y423926D02*
X339836D01*
X338566Y422656D02*
Y425196D01*
X345424Y424942D02*
X347964D01*
X346694Y423672D02*
Y426212D01*
X178038Y234950D02*
X180578D01*
X179308Y233680D02*
Y236220D01*
X168132Y250444D02*
X170672D01*
X169402Y249174D02*
Y251714D01*
X157464Y255270D02*
X160004D01*
X158734Y254000D02*
Y256540D01*
X10927Y252970D02*
X13467D01*
X12197Y251700D02*
Y254240D01*
X181107Y211060D02*
X183647D01*
X182377Y209790D02*
Y212330D01*
X186476Y96266D02*
X189016D01*
X187746Y94996D02*
Y97536D01*
X229854Y172466D02*
X232394D01*
X231124Y171196D02*
Y173736D01*
X228076Y180086D02*
X230616D01*
X229346Y178816D02*
Y181356D01*
X138662Y56292D02*
X141202D01*
X139932Y55022D02*
Y57562D01*
X327794Y93980D02*
X330334D01*
X329064Y92710D02*
Y95250D01*
X327540Y103124D02*
X330080D01*
X328810Y101854D02*
Y104394D01*
X600694Y195834D02*
X603234D01*
X601964Y194564D02*
Y197104D01*
X598170Y169418D02*
X600710D01*
X599440Y168148D02*
Y170688D01*
X664702Y117094D02*
X667242D01*
X665972Y115824D02*
Y118364D01*
X598662Y109366D02*
X601202D01*
X599932Y108096D02*
Y110636D01*
X621522Y101092D02*
X624062D01*
X622792Y99822D02*
Y102362D01*
X611362Y92202D02*
X613902D01*
X612632Y90932D02*
Y93472D01*
X685276Y100584D02*
X687816D01*
X686546Y99314D02*
Y101854D01*
X683752Y56134D02*
X686292D01*
X685022Y54864D02*
Y57404D01*
X650732Y56896D02*
X653272D01*
X652002Y55626D02*
Y58166D01*
X727166Y108118D02*
X729706D01*
X728436Y106848D02*
Y109388D01*
X715736Y99228D02*
X718276D01*
X717006Y97958D02*
Y100498D01*
X714466Y113706D02*
X717006D01*
X715736Y112436D02*
Y114976D01*
X799556Y110912D02*
X802096D01*
X800826Y109642D02*
Y112182D01*
X827096Y96552D02*
X829636D01*
X828366Y95282D02*
Y97822D01*
X799664Y98076D02*
X802204D01*
X800934Y96806D02*
Y99346D01*
X847562Y119548D02*
X850102D01*
X848832Y118278D02*
Y120818D01*
X769662Y133518D02*
X772202D01*
X770932Y132248D02*
Y134788D01*
X829528Y121326D02*
X832068D01*
X830798Y120056D02*
Y122596D01*
X162475Y352793D02*
X165015D01*
X163745Y351523D02*
Y354063D01*
X171242Y397422D02*
X173782D01*
X172512Y396152D02*
Y398692D01*
X899124Y180762D02*
X901664D01*
X900394Y179492D02*
Y182032D01*
X899632Y197018D02*
X902172D01*
X900902Y195748D02*
Y198288D01*
X899378Y218354D02*
X901918D01*
X900648Y217084D02*
Y219624D01*
X792444Y191430D02*
X794984D01*
X793714Y190160D02*
Y192700D01*
X775680Y182540D02*
X778220D01*
X776950Y181270D02*
Y183810D01*
X769330Y187112D02*
X771870D01*
X770600Y185842D02*
Y188382D01*
X781976Y186150D02*
X784516D01*
X783246Y184880D02*
Y187420D01*
X827996Y129454D02*
X830536D01*
X829266Y128184D02*
Y130724D01*
X806676Y128946D02*
X809216D01*
X807946Y127676D02*
Y130216D01*
X759932Y182032D02*
X762472D01*
X761202Y180762D02*
Y183302D01*
X826734Y201590D02*
X829274D01*
X828004Y200320D02*
Y202860D01*
X829266Y212258D02*
X831806D01*
X830536Y210988D02*
Y213528D01*
X796254Y251882D02*
X798794D01*
X797524Y250612D02*
Y253152D01*
X810986Y239944D02*
X813526D01*
X812256Y238674D02*
Y241214D01*
X798286Y233340D02*
X800826D01*
X799556Y232070D02*
Y234610D01*
X822670Y237658D02*
X825210D01*
X823940Y236388D02*
Y238928D01*
X756376Y261280D02*
X758916D01*
X757646Y260010D02*
Y262550D01*
X794165Y266868D02*
X796705D01*
X795435Y265598D02*
Y268138D01*
X776188Y281846D02*
X778728D01*
X777458Y280576D02*
Y283116D01*
X829143Y506177D02*
X831683D01*
X830413Y504907D02*
Y507447D01*
X546826Y582336D02*
X549366D01*
X548096Y581066D02*
Y583606D01*
X554446Y572176D02*
X556986D01*
X555716Y570906D02*
Y573446D01*
X793260Y566248D02*
X795800D01*
X794530Y564978D02*
Y567518D01*
X792444Y577002D02*
X794984D01*
X793714Y575732D02*
Y578272D01*
X842957Y573192D02*
X845497D01*
X844227Y571922D02*
Y574462D01*
X823940Y573192D02*
X826480D01*
X825210Y571922D02*
Y574462D01*
X862802Y533568D02*
X865342D01*
X864072Y532298D02*
Y534838D01*
X873978Y534076D02*
X876518D01*
X875248Y532806D02*
Y535346D01*
X836386Y549824D02*
X838926D01*
X837656Y548554D02*
Y551094D01*
X836386Y558460D02*
X838926D01*
X837656Y557190D02*
Y559730D01*
X886424Y566080D02*
X888964D01*
X887694Y564810D02*
Y567350D01*
X871184Y578526D02*
X873724D01*
X872454Y577256D02*
Y579796D01*
X691860Y599862D02*
X694400D01*
X693130Y598592D02*
Y601132D01*
X747232Y508676D02*
X749772D01*
X748502Y507406D02*
Y509946D01*
X211038Y717464D02*
X213578D01*
X212308Y716194D02*
Y718734D01*
X211292Y702732D02*
X213832D01*
X212562Y701462D02*
Y704002D01*
X211546Y688000D02*
X214086D01*
X212816Y686730D02*
Y689270D01*
X211800Y674030D02*
X214340D01*
X213070Y672760D02*
Y675300D01*
X633937Y980517D02*
X636477D01*
X635207Y979247D02*
Y981787D01*
X769592Y126152D02*
X772132D01*
X770862Y124882D02*
Y127422D01*
X25110Y160653D02*
X27650D01*
X26380Y159383D02*
Y161923D01*
X153380Y148504D02*
X155920D01*
X154650Y147234D02*
Y149774D01*
X173954Y182032D02*
X176494D01*
X175224Y180762D02*
Y183302D01*
X181676Y181976D02*
X184216D01*
X182946Y180706D02*
Y183246D01*
X75930Y439928D02*
X78470D01*
X77200Y438658D02*
Y441198D01*
X98516Y415966D02*
X101056D01*
X99786Y414696D02*
Y417236D01*
X98291Y402250D02*
X100830D01*
X99560Y400980D02*
Y403520D01*
X83288Y669292D02*
X85828D01*
X84558Y668022D02*
Y670562D01*
X35194Y668138D02*
X37734D01*
X36464Y666868D02*
Y669408D01*
X35194Y906260D02*
X37734D01*
X36464Y904990D02*
Y907530D01*
X35194Y916302D02*
X37734D01*
X36464Y915032D02*
Y917572D01*
X37916Y878447D02*
X40456D01*
X39186Y877177D02*
Y879716D01*
X39080Y588686D02*
X41620D01*
X40350Y587416D02*
Y589956D01*
X38064Y635168D02*
X40604D01*
X39334Y633898D02*
Y636438D01*
X62448Y645074D02*
X64988D01*
X63718Y643804D02*
Y646344D01*
X62471Y773231D02*
X65011D01*
X63741Y771961D02*
Y774501D01*
X620704Y1095306D02*
X623244D01*
X621974Y1094036D02*
Y1096576D01*
X628106Y161204D02*
X630646D01*
X629376Y159934D02*
Y162474D01*
X118198Y1094864D02*
X120738D01*
X119468Y1093594D02*
Y1096134D01*
X707899Y528951D02*
X710439D01*
X709169Y527681D02*
Y530221D01*
X702850Y551936D02*
X705390D01*
X704120Y550666D02*
Y553206D01*
X661634Y441112D02*
X664174D01*
X662904Y439842D02*
Y442382D01*
X604339Y503664D02*
X606879D01*
X605609Y502394D02*
Y504934D01*
X665630Y418172D02*
X668170D01*
X666900Y416902D02*
Y419442D01*
X759424Y543128D02*
X761964D01*
X760694Y541858D02*
Y544398D01*
X711296Y519344D02*
X713837D01*
X712567Y518074D02*
Y520614D01*
X663158Y588940D02*
X665698D01*
X664428Y587670D02*
Y590210D01*
X598642Y576494D02*
X601182D01*
X599912Y575224D02*
Y577764D01*
X573278Y597408D02*
X575818D01*
X574548Y596138D02*
Y598678D01*
X464784Y493690D02*
X467324D01*
X466054Y492420D02*
Y494960D01*
X459958Y507660D02*
X462498D01*
X461228Y506390D02*
Y508930D01*
X466816Y471338D02*
X469356D01*
X468086Y470068D02*
Y472608D01*
X557494Y451018D02*
X560034D01*
X558764Y449748D02*
Y452288D01*
X557748Y459908D02*
X560288D01*
X559018Y458638D02*
Y461178D01*
X738850Y429682D02*
X741390D01*
X740120Y428412D02*
Y430952D01*
X739124Y339248D02*
X741664D01*
X740394Y337977D02*
Y340518D01*
X748756Y557190D02*
X751296D01*
X750026Y555920D02*
Y558460D01*
X670016Y604670D02*
X672556D01*
X671286Y603400D02*
Y605940D01*
X670778Y484546D02*
X673318D01*
X672048Y483276D02*
Y485816D01*
X648934Y462194D02*
X651474D01*
X650204Y460924D02*
Y463464D01*
X648680Y508676D02*
X651220D01*
X649950Y507406D02*
Y509946D01*
X626074Y484546D02*
X628614D01*
X627344Y483276D02*
Y485816D01*
X930474Y418878D02*
X933014D01*
X931744Y417608D02*
Y420148D01*
X930474Y444278D02*
X933014D01*
X931744Y443008D02*
Y445548D01*
X930474Y520478D02*
X933014D01*
X931744Y519208D02*
Y521748D01*
X930474Y469678D02*
X933014D01*
X931744Y468408D02*
Y470948D01*
X930474Y495078D02*
X933014D01*
X931744Y493808D02*
Y496348D01*
X930474Y545878D02*
X933014D01*
X931744Y544608D02*
Y547148D01*
X340832Y589448D02*
X343372D01*
X342102Y588178D02*
Y590718D01*
X352516Y596052D02*
X355056D01*
X353786Y594782D02*
Y597322D01*
X324830Y574208D02*
X327370D01*
X326100Y572938D02*
Y575478D01*
X313146Y574208D02*
X315686D01*
X314416Y572938D02*
Y575478D01*
X376581Y575159D02*
X379120D01*
X377850Y573889D02*
Y576428D01*
X299938Y573954D02*
X302478D01*
X301208Y572684D02*
Y575224D01*
X402300Y589448D02*
X404840D01*
X403570Y588178D02*
Y590718D01*
X415000Y596814D02*
X417540D01*
X416270Y595544D02*
Y598084D01*
X424061Y525416D02*
X426601D01*
X425331Y524146D02*
Y526686D01*
X424061Y513047D02*
X426601D01*
X425331Y511777D02*
Y514317D01*
X424497Y500447D02*
X427037D01*
X425767Y499177D02*
Y501717D01*
X424061Y488309D02*
X426601D01*
X425331Y487039D02*
Y489579D01*
X424243Y476063D02*
X426783D01*
X425513Y474793D02*
Y477333D01*
X424561Y463570D02*
X427101D01*
X425831Y462300D02*
Y464840D01*
X424325Y450965D02*
X426865D01*
X425595Y449695D02*
Y452235D01*
X373684Y518922D02*
X376224D01*
X374954Y517652D02*
Y520192D01*
X389600Y498262D02*
X392140D01*
X390870Y496992D02*
Y499532D01*
X402046Y496738D02*
X404586D01*
X403316Y495468D02*
Y498008D01*
X445576Y525550D02*
X448116D01*
X446846Y524280D02*
Y526820D01*
X445076Y513181D02*
X447616D01*
X446346Y511911D02*
Y514451D01*
X445902Y500581D02*
X448442D01*
X447172Y499311D02*
Y501851D01*
X445076Y488442D02*
X447616D01*
X446346Y487172D02*
Y489712D01*
X445648Y475689D02*
X448188D01*
X446918Y474419D02*
Y476959D01*
X445076Y463704D02*
X447616D01*
X446346Y462434D02*
Y464974D01*
X445576Y451335D02*
X448116D01*
X446846Y450065D02*
Y452605D01*
X399506Y485308D02*
X402046D01*
X400776Y484038D02*
Y486578D01*
X404332Y475148D02*
X406872D01*
X405602Y473878D02*
Y476418D01*
X414746Y471338D02*
X417286D01*
X416016Y470068D02*
Y472608D01*
X408396Y464734D02*
X410936D01*
X409666Y463464D02*
Y466004D01*
X297990Y526878D02*
X300530D01*
X299260Y525607D02*
Y528148D01*
X275171Y527070D02*
X277711D01*
X276441Y525800D02*
Y528340D01*
X342610Y510454D02*
X345150D01*
X343880Y509184D02*
Y511724D01*
X365470Y517566D02*
X368010D01*
X366740Y516296D02*
Y518836D01*
X273014Y485054D02*
X275554D01*
X274284Y483784D02*
Y486324D01*
X298411Y496738D02*
X300951D01*
X299681Y495468D02*
Y498008D01*
X298411Y506942D02*
X300951D01*
X299681Y505672D02*
Y508212D01*
X275892Y508843D02*
X278432D01*
X277162Y507574D02*
Y510113D01*
X276582Y497922D02*
X279122D01*
X277852Y496652D02*
Y499192D01*
X276392Y475316D02*
X278932D01*
X277662Y474046D02*
Y476586D01*
X356346Y538734D02*
X358886D01*
X357616Y537464D02*
Y540004D01*
X370550Y526456D02*
X373090D01*
X371820Y525186D02*
Y527726D01*
X290794Y453304D02*
X293334D01*
X292064Y452034D02*
Y454574D01*
X291048Y462956D02*
X293588D01*
X292318Y461686D02*
Y464226D01*
X363184Y575224D02*
X365724D01*
X364454Y573954D02*
Y576494D01*
X588736Y1063158D02*
X591276D01*
X590006Y1061888D02*
Y1064428D01*
X574766Y1068746D02*
X577306D01*
X576036Y1067476D02*
Y1070016D01*
X315686Y1193968D02*
X318226D01*
X316956Y1192698D02*
Y1195238D01*
X321782Y1199556D02*
X324322D01*
X323052Y1198286D02*
Y1200826D01*
X317718Y1139104D02*
X320258D01*
X318988Y1137834D02*
Y1140374D01*
X324830Y1122848D02*
X327370D01*
X326100Y1121578D02*
Y1124118D01*
X323052Y1159170D02*
X325592D01*
X324322Y1157900D02*
Y1160440D01*
X338292Y1170600D02*
X340832D01*
X339562Y1169330D02*
Y1171870D01*
X316956Y1168568D02*
X319496D01*
X318226Y1167298D02*
Y1169838D01*
X321274Y1188380D02*
X323814D01*
X322544Y1187110D02*
Y1189650D01*
X313400Y1205652D02*
X315940D01*
X314670Y1204382D02*
Y1206922D01*
X320512Y1212256D02*
X323052D01*
X321782Y1210986D02*
Y1213526D01*
X325084Y1221908D02*
X327624D01*
X326354Y1220638D02*
Y1223178D01*
X307304Y1242736D02*
X309844D01*
X308574Y1241466D02*
Y1244006D01*
X621326Y1008781D02*
X623866D01*
X622596Y1007511D02*
Y1010051D01*
X596191Y1016492D02*
X598731D01*
X597461Y1015222D02*
Y1017762D01*
X630724Y1001669D02*
X633264D01*
X631994Y1000399D02*
Y1002939D01*
X626332Y977867D02*
X628872D01*
X627602Y976597D02*
Y979137D01*
X632193Y1033186D02*
X634733D01*
X633463Y1031916D02*
Y1034456D01*
X674865Y1051474D02*
X677405D01*
X676135Y1050204D02*
Y1052744D01*
X685787Y1052236D02*
X688327D01*
X687057Y1050966D02*
Y1053506D01*
X653529Y1052236D02*
X656069D01*
X654799Y1050966D02*
Y1053506D01*
X644362Y1070270D02*
X646902D01*
X645632Y1069000D02*
Y1071540D01*
X596125Y1056808D02*
X598665D01*
X597395Y1055538D02*
Y1058078D01*
X584038Y1049110D02*
X586578D01*
X585308Y1047840D02*
Y1050380D01*
X595363Y1040044D02*
X597903D01*
X596633Y1038774D02*
Y1041314D01*
X593357Y1048452D02*
X595896D01*
X594627Y1047182D02*
Y1049722D01*
X421881Y939968D02*
X424421D01*
X423151Y938698D02*
Y941238D01*
X372351Y827700D02*
X374891D01*
X373621Y826430D02*
Y828970D01*
X371589Y844972D02*
X374129D01*
X372859Y843702D02*
Y846242D01*
X372097Y862752D02*
X374637D01*
X373367Y861482D02*
Y864022D01*
X372097Y880278D02*
X374637D01*
X373367Y879008D02*
Y881548D01*
X372351Y898566D02*
X374891D01*
X373621Y897296D02*
Y899836D01*
X372351Y916346D02*
X374891D01*
X373621Y915076D02*
Y917616D01*
X372351Y933872D02*
X374891D01*
X373621Y932602D02*
Y935142D01*
X371843Y952160D02*
X374383D01*
X373113Y950890D02*
Y953430D01*
X277945Y665394D02*
X280485D01*
X279215Y664124D02*
Y666664D01*
X277863Y687492D02*
X280403D01*
X279133Y686222D02*
Y688762D01*
X278117Y710860D02*
X280657D01*
X279387Y709590D02*
Y712130D01*
X278879Y738546D02*
X281419D01*
X280149Y737276D02*
Y739816D01*
X277895Y763113D02*
X280435D01*
X279165Y761843D02*
Y764383D01*
X278117Y786806D02*
X280657D01*
X279387Y785536D02*
Y788076D01*
X279641Y815508D02*
X282181D01*
X280911Y814238D02*
Y816778D01*
X911085Y1075350D02*
X913625D01*
X912355Y1074080D02*
Y1076620D01*
X327139Y1138596D02*
X329679D01*
X328409Y1137326D02*
Y1139866D01*
X367779Y1172886D02*
X370319D01*
X369049Y1171616D02*
Y1174156D01*
X330334Y1178982D02*
X332873D01*
X331604Y1177712D02*
Y1180252D01*
X351015Y1158003D02*
X353555D01*
X352285Y1156733D02*
Y1159273D01*
X345935Y1165520D02*
X348475D01*
X347205Y1164250D02*
Y1166790D01*
X370550Y1152312D02*
X373090D01*
X371820Y1151042D02*
Y1153582D01*
X363438Y1161964D02*
X365978D01*
X364708Y1160694D02*
Y1163234D01*
X381980Y1145200D02*
X384520D01*
X383250Y1143930D02*
Y1146470D01*
X854714Y658536D02*
X857254D01*
X855984Y657266D02*
Y659806D01*
X854714Y669100D02*
X857254D01*
X855984Y667830D02*
Y670370D01*
X854714Y625100D02*
X857254D01*
X855984Y623830D02*
Y626370D01*
X854714Y680100D02*
X857254D01*
X855984Y678830D02*
Y681370D01*
X854714Y614100D02*
X857254D01*
X855984Y612830D02*
Y615370D01*
X854714Y691100D02*
X857254D01*
X855984Y689830D02*
Y692370D01*
X854714Y646938D02*
X857254D01*
X855984Y645668D02*
Y648208D01*
X769655Y606206D02*
X772195D01*
X770925Y604936D02*
Y607476D01*
X854903Y635930D02*
X857443D01*
X856173Y634660D02*
Y637200D01*
X857978Y714924D02*
X860518D01*
X859248Y713654D02*
Y716194D01*
X769584Y828462D02*
X772124D01*
X770854Y827192D02*
Y829732D01*
X767044Y858688D02*
X769584D01*
X768314Y857418D02*
Y859958D01*
X575216Y1050350D02*
X577757D01*
X576487Y1049080D02*
Y1051620D01*
X559272Y1054268D02*
X561812D01*
X560542Y1052998D02*
Y1055538D01*
X467700Y968503D02*
X470240D01*
X468970Y967233D02*
Y969773D01*
X453928Y968412D02*
X456468D01*
X455198Y967142D02*
Y969682D01*
X679040Y729536D02*
X681580D01*
X680310Y728266D02*
Y730806D01*
X636234Y810682D02*
X638774D01*
X637504Y809412D02*
Y811952D01*
X880328Y1050966D02*
X882868D01*
X881598Y1049696D02*
Y1052236D01*
X867374Y1051220D02*
X869914D01*
X868644Y1049950D02*
Y1052490D01*
X853658Y1051220D02*
X856198D01*
X854928Y1049950D02*
Y1052490D01*
X841466Y1051220D02*
X844006D01*
X842736Y1049950D02*
Y1052490D01*
X906614Y1245994D02*
X909154D01*
X907884Y1244724D02*
Y1247264D01*
X12788Y230756D02*
X15328D01*
X14058Y229486D02*
Y232026D01*
X10888Y1148590D02*
X13428D01*
X12158Y1147320D02*
Y1149861D01*
X15582Y1223388D02*
X18122D01*
X16852Y1222118D02*
Y1224658D01*
X498586Y308778D02*
X501126D01*
X499856Y307508D02*
Y310048D01*
X611362Y969518D02*
X613902D01*
X612632Y968248D02*
Y970788D01*
X336791Y1129452D02*
X339331D01*
X338061Y1128182D02*
Y1130722D01*
X341109Y1135040D02*
X343649D01*
X342379Y1133770D02*
Y1136310D01*
X410174Y865292D02*
X412714D01*
X411444Y864022D02*
Y866562D01*
X416524Y756834D02*
X419064D01*
X417794Y755564D02*
Y758104D01*
X376138Y784012D02*
X378678D01*
X377408Y782742D02*
Y785282D01*
X428680Y1059238D02*
X431220D01*
X429950Y1057968D02*
Y1060508D01*
X450388Y1122672D02*
X452928D01*
X451658Y1121402D02*
Y1123942D01*
X344642Y1038266D02*
X347182D01*
X345912Y1036996D02*
Y1039536D01*
X352516Y1040806D02*
X355056D01*
X353786Y1039536D02*
Y1042076D01*
X353532Y1066968D02*
X356072D01*
X354802Y1065698D02*
Y1068238D01*
X365216Y1071032D02*
X367756D01*
X366486Y1069762D02*
Y1072302D01*
X346166Y1119800D02*
X348706D01*
X347436Y1118530D02*
Y1121070D01*
X400094Y1066796D02*
X402634D01*
X401364Y1065526D02*
Y1068066D01*
X294858Y940984D02*
X297398D01*
X296128Y939714D02*
Y942254D01*
Y1032678D02*
X298668D01*
X297398Y1031408D02*
Y1033948D01*
X270220Y968416D02*
X272760D01*
X271490Y967146D02*
Y969686D01*
X294858Y931078D02*
X297398D01*
X296128Y929808D02*
Y932348D01*
X296636Y1023534D02*
X299176D01*
X297906Y1022264D02*
Y1024804D01*
X311622Y963590D02*
X314162D01*
X312892Y962320D02*
Y964860D01*
X301357Y979042D02*
X303897D01*
X302627Y977772D02*
Y980312D01*
X311622Y991784D02*
X314162D01*
X312892Y990514D02*
Y993054D01*
X271132Y979042D02*
X273672D01*
X272402Y977772D02*
Y980312D01*
X260822Y992546D02*
X263362D01*
X262092Y991276D02*
Y993816D01*
X311114Y896788D02*
X313654D01*
X312384Y895518D02*
Y898058D01*
X311876Y866816D02*
X314416D01*
X313146Y865546D02*
Y868086D01*
X260314Y867070D02*
X262854D01*
X261584Y865800D02*
Y868340D01*
X260568Y896280D02*
X263108D01*
X261838Y895010D02*
Y897550D01*
X270778Y882776D02*
X273318D01*
X272048Y881506D02*
Y884046D01*
X300104Y882776D02*
X302644D01*
X301374Y881506D02*
Y884046D01*
X245582Y928284D02*
X248122D01*
X246852Y927014D02*
Y929554D01*
X245836Y1032170D02*
X248376D01*
X247106Y1030900D02*
Y1033440D01*
X246090Y952414D02*
X248630D01*
X247360Y951144D02*
Y953684D01*
X246344Y962320D02*
X248884D01*
X247614Y961050D02*
Y963590D01*
X245582Y937174D02*
X248122D01*
X246852Y935904D02*
Y938444D01*
X245836Y1025058D02*
X248376D01*
X247106Y1023788D02*
Y1026328D01*
X246598Y1046394D02*
X249138D01*
X247868Y1045124D02*
Y1047664D01*
X246344Y1054268D02*
X248884D01*
X247614Y1052998D02*
Y1055538D01*
X366255Y1188634D02*
X368795D01*
X367525Y1187364D02*
Y1189904D01*
X349840Y1194702D02*
X352380D01*
X351110Y1193432D02*
Y1195972D01*
X381495Y1183300D02*
X384035D01*
X382765Y1182030D02*
Y1184570D01*
X374129Y1199556D02*
X376669D01*
X375399Y1198286D02*
Y1200826D01*
X644726Y715947D02*
X647266D01*
X645996Y714677D02*
Y717217D01*
X880582Y1071741D02*
X883122D01*
X881852Y1070471D02*
Y1073011D01*
X867120Y1071995D02*
X869660D01*
X868390Y1070725D02*
Y1073266D01*
X854166Y1071995D02*
X856706D01*
X855436Y1070725D02*
Y1073266D01*
X840958Y1071995D02*
X843498D01*
X842228Y1070725D02*
Y1073266D01*
Y939460D02*
X844768D01*
X843498Y938190D02*
Y940730D01*
X867882Y939206D02*
X870422D01*
X869152Y937936D02*
Y940476D01*
X855690Y938952D02*
X858230D01*
X856960Y937682D02*
Y940222D01*
X879058Y938698D02*
X881598D01*
X880328Y937428D02*
Y939968D01*
X778736Y1237077D02*
X781276D01*
X780006Y1235807D02*
Y1238347D01*
X636920Y823740D02*
X639460D01*
X638190Y822470D02*
Y825011D01*
X929486Y1007610D02*
X932026D01*
X930756Y1006340D02*
Y1008880D01*
X601436Y1078652D02*
X603976D01*
X602706Y1077382D02*
Y1079922D01*
X521040Y1268620D02*
X523580D01*
X522310Y1267350D02*
Y1269890D01*
X419040Y1268620D02*
X421580D01*
X420310Y1267350D02*
Y1269890D01*
X240577Y881481D02*
X243117D01*
X241847Y880211D02*
Y882751D01*
X241303Y777982D02*
X243843D01*
X242573Y776712D02*
Y779252D01*
X241202Y804305D02*
X243742D01*
X242472Y803035D02*
Y805575D01*
X578064Y1096632D02*
X580604D01*
X579334Y1095362D02*
Y1097902D01*
X423650Y967150D02*
X426190D01*
X424920Y965880D02*
Y968420D01*
X258340Y1224230D02*
X260881D01*
X259611Y1222960D02*
Y1225500D01*
X117258Y1235751D02*
X119798D01*
X118528Y1234481D02*
Y1237020D01*
X193394Y993640D02*
X195934D01*
X194664Y992370D02*
Y994910D01*
X163422Y993640D02*
X165962D01*
X164692Y992370D02*
Y994910D01*
X192217Y839630D02*
X194757D01*
X193487Y838360D02*
Y840900D01*
X189786Y816042D02*
X192326D01*
X191056Y814772D02*
Y817312D01*
X167200Y835770D02*
X169740D01*
X168470Y834500D02*
Y837040D01*
X166342Y865361D02*
X168882D01*
X167612Y864091D02*
Y866631D01*
X165484Y894238D02*
X168024D01*
X166754Y892968D02*
Y895508D01*
X772006Y1225288D02*
X774546D01*
X773276Y1224018D02*
Y1226558D01*
X746860Y1225796D02*
X749400D01*
X748130Y1224526D02*
Y1227066D01*
X350366Y1125974D02*
X352906D01*
X351636Y1124704D02*
Y1127244D01*
X494320Y809110D02*
X496860D01*
X495590Y807840D02*
Y810380D01*
X492298Y824266D02*
X494838D01*
X493568Y822996D02*
Y825536D01*
X478890Y933442D02*
X481430D01*
X480160Y932172D02*
Y934712D01*
X926692Y1062982D02*
X929232D01*
X927962Y1061712D02*
Y1064252D01*
X497540Y1230620D02*
X500080D01*
X498810Y1229350D02*
Y1231890D01*
X487540Y1230620D02*
X490080D01*
X488810Y1229350D02*
Y1231890D01*
X475540Y1230620D02*
X478080D01*
X476810Y1229350D02*
Y1231890D01*
X464540Y1230620D02*
X467080D01*
X465810Y1229350D02*
Y1231890D01*
X453540Y1230620D02*
X456080D01*
X454810Y1229350D02*
Y1231890D01*
X442540Y1230620D02*
X445080D01*
X443810Y1229350D02*
Y1231890D01*
X497540Y1241620D02*
X500080D01*
X498810Y1240350D02*
Y1242890D01*
X487540Y1241620D02*
X490080D01*
X488810Y1240350D02*
Y1242890D01*
X475540Y1241620D02*
X478080D01*
X476810Y1240350D02*
Y1242890D01*
X464540Y1241620D02*
X467080D01*
X465810Y1240350D02*
Y1242890D01*
X453540Y1241620D02*
X456080D01*
X454810Y1240350D02*
Y1242890D01*
X442540Y1241620D02*
X445080D01*
X443810Y1240350D02*
Y1242890D01*
X516730Y1288120D02*
X519270D01*
X518000Y1286850D02*
Y1289390D01*
X423350Y1288120D02*
X425890D01*
X424620Y1286850D02*
Y1289390D01*
X419506Y916112D02*
X422046D01*
X420776Y914842D02*
Y917382D01*
X47286Y368464D02*
X49826D01*
X48556Y367194D02*
Y369734D01*
X66362Y389148D02*
X68902D01*
X67632Y387878D02*
Y390418D01*
X70192Y732660D02*
X72732D01*
X71462Y731390D02*
Y733930D01*
X580986Y913762D02*
X583526D01*
X582256Y912492D02*
Y915032D01*
X561304Y1089828D02*
X563844D01*
X562574Y1088558D02*
Y1091098D01*
X423506Y949322D02*
X426046D01*
X424776Y948052D02*
Y950592D01*
X194906Y1010282D02*
X197446D01*
X196176Y1009012D02*
Y1011552D01*
X194906Y893442D02*
X197446D01*
X196176Y892172D02*
Y894712D01*
X159346Y959482D02*
X161886D01*
X160616Y958212D02*
Y960752D01*
X78066Y1172842D02*
X80606D01*
X79336Y1171572D02*
Y1174112D01*
X78066Y1096642D02*
X80606D01*
X79336Y1095372D02*
Y1097912D01*
X154266Y1259202D02*
X156806D01*
X155536Y1257932D02*
Y1260472D01*
X194906Y1132202D02*
X197446D01*
X196176Y1130932D02*
Y1133472D01*
X194906Y1223642D02*
X197446D01*
X196176Y1222372D02*
Y1224912D01*
X199986Y1183002D02*
X202526D01*
X201256Y1181732D02*
Y1184272D01*
X159346Y1183002D02*
X161886D01*
X160616Y1181732D02*
Y1184272D01*
X107633Y1208829D02*
X110174D01*
X108904Y1207559D02*
Y1210098D01*
X107633Y1264708D02*
X110174D01*
X108904Y1263438D02*
Y1265978D01*
X619848Y1264536D02*
X622388D01*
X621118Y1263266D02*
Y1265806D01*
X741514Y1219070D02*
X744054D01*
X742784Y1217800D02*
Y1220340D01*
X835748Y1204592D02*
X838288D01*
X837018Y1203322D02*
Y1205862D01*
X768946Y1157602D02*
X771486D01*
X770216Y1156332D02*
Y1158872D01*
X32346Y1081402D02*
X34886D01*
X33616Y1080132D02*
Y1082672D01*
X32346Y1233802D02*
X34886D01*
X33616Y1232532D02*
Y1235072D01*
X32346Y1132202D02*
X34886D01*
X33616Y1130932D02*
Y1133472D01*
X32346Y1208402D02*
X34886D01*
X33616Y1207132D02*
Y1209672D01*
X32346Y1106802D02*
X34886D01*
X33616Y1105532D02*
Y1108072D01*
X32346Y1183002D02*
X34886D01*
X33616Y1181732D02*
Y1184272D01*
X32346Y1157602D02*
X34886D01*
X33616Y1156332D02*
Y1158872D01*
X586040Y1272783D02*
X588580D01*
X587310Y1271513D02*
Y1274053D01*
X601131Y1263495D02*
X603671D01*
X602401Y1262225D02*
Y1264765D01*
X570905Y1263495D02*
X573445D01*
X572175Y1262225D02*
Y1264765D01*
X361918Y1282120D02*
X364458D01*
X363188Y1280850D02*
Y1283390D01*
X445720Y1136040D02*
X448260D01*
X446990Y1134770D02*
Y1137310D01*
X445720Y1128420D02*
X448260D01*
X446990Y1127150D02*
Y1129690D01*
X478740Y1125880D02*
X481280D01*
X480010Y1124610D02*
Y1127150D01*
X488900Y1138580D02*
X491440D01*
X490170Y1137310D02*
Y1139850D01*
X496900Y1161440D02*
X499440D01*
X498170Y1160170D02*
Y1162710D01*
X488900Y1161440D02*
X491440D01*
X490170Y1160170D02*
Y1162710D01*
X488900Y1153440D02*
X491440D01*
X490170Y1152170D02*
Y1154710D01*
X496900Y1153440D02*
X499440D01*
X498170Y1152170D02*
Y1154710D01*
X496900Y1181760D02*
X499440D01*
X498170Y1180490D02*
Y1183030D01*
X488900Y1181760D02*
X491440D01*
X490170Y1180490D02*
Y1183030D01*
X488900Y1173760D02*
X491440D01*
X490170Y1172490D02*
Y1175030D01*
X496900Y1173760D02*
X499440D01*
X498170Y1172490D02*
Y1175030D01*
X496900Y1204620D02*
X499440D01*
X498170Y1203350D02*
Y1205890D01*
X446193Y1205287D02*
X448732D01*
X447463Y1204017D02*
Y1206557D01*
X438192Y1205287D02*
X440732D01*
X439463Y1204017D02*
Y1206557D01*
X474040Y1196620D02*
X476580D01*
X475310Y1195350D02*
Y1197890D01*
X466040Y1196620D02*
X468580D01*
X467310Y1195350D02*
Y1197890D01*
X466040Y1204620D02*
X468580D01*
X467310Y1203350D02*
Y1205890D01*
X474040Y1204620D02*
X476580D01*
X475310Y1203350D02*
Y1205890D01*
X475040Y1215620D02*
X477580D01*
X476310Y1214350D02*
Y1216890D01*
X464040Y1215620D02*
X466580D01*
X465310Y1214350D02*
Y1216890D01*
X453040Y1215620D02*
X455580D01*
X454310Y1214350D02*
Y1216890D01*
X442040Y1215620D02*
X444580D01*
X443310Y1214350D02*
Y1216890D01*
X402810Y1256620D02*
X405810D01*
X404310Y1255120D02*
Y1258120D01*
X411040Y1256620D02*
X413580D01*
X412310Y1255350D02*
Y1257890D01*
X403040Y1268620D02*
X405580D01*
X404310Y1267350D02*
Y1269890D01*
X411040Y1268620D02*
X413580D01*
X412310Y1267350D02*
Y1269890D01*
X419040Y1256620D02*
X421580D01*
X420310Y1255350D02*
Y1257890D01*
X521040Y1256620D02*
X523580D01*
X522310Y1255350D02*
Y1257890D01*
X529040Y1256620D02*
X531580D01*
X530310Y1255350D02*
Y1257890D01*
X537040Y1256620D02*
X539580D01*
X538310Y1255350D02*
Y1257890D01*
X529040Y1268620D02*
X531580D01*
X530310Y1267350D02*
Y1269890D01*
X537040Y1268620D02*
X539580D01*
X538310Y1267350D02*
Y1269890D01*
X415040Y1277120D02*
X417580D01*
X416310Y1275850D02*
Y1278390D01*
X525040Y1277120D02*
X527580D01*
X526310Y1275850D02*
Y1278390D01*
X429040Y1255620D02*
X431580D01*
X430310Y1254350D02*
Y1256890D01*
X442040Y1255620D02*
X444580D01*
X443310Y1254350D02*
Y1256890D01*
X453040Y1255620D02*
X455580D01*
X454310Y1254350D02*
Y1256890D01*
X464040Y1255620D02*
X466580D01*
X465310Y1254350D02*
Y1256890D01*
X475040Y1255620D02*
X477580D01*
X476310Y1254350D02*
Y1256890D01*
X487040Y1255620D02*
X489580D01*
X488310Y1254350D02*
Y1256890D01*
X497040Y1255620D02*
X499580D01*
X498310Y1254350D02*
Y1256890D01*
X508040Y1255620D02*
X510580D01*
X509310Y1254350D02*
Y1256890D01*
X930474Y114078D02*
X933014D01*
X931744Y112808D02*
Y115348D01*
X930474Y88678D02*
X933014D01*
X931744Y87408D02*
Y89948D01*
X930474Y63278D02*
X933014D01*
X931744Y62008D02*
Y64548D01*
X930474Y190278D02*
X933014D01*
X931744Y189008D02*
Y191548D01*
X930474Y164878D02*
X933014D01*
X931744Y163608D02*
Y166148D01*
X930474Y139478D02*
X933014D01*
X931744Y138208D02*
Y140748D01*
X930474Y596678D02*
X933014D01*
X931744Y595408D02*
Y597948D01*
X930474Y571278D02*
X933014D01*
X931744Y570008D02*
Y572548D01*
X930474Y647478D02*
X933014D01*
X931744Y646208D02*
Y648748D01*
X930474Y622078D02*
X933014D01*
X931744Y620808D02*
Y623348D01*
X930474Y749078D02*
X933014D01*
X931744Y747808D02*
Y750348D01*
X930474Y723678D02*
X933014D01*
X931744Y722408D02*
Y724948D01*
X930474Y799878D02*
X933014D01*
X931744Y798608D02*
Y801148D01*
X930474Y698278D02*
X933014D01*
X931744Y697008D02*
Y699548D01*
X930474Y774478D02*
X933014D01*
X931744Y773208D02*
Y775748D01*
X930474Y672878D02*
X933014D01*
X931744Y671608D02*
Y674148D01*
X930474Y850678D02*
X933014D01*
X931744Y849408D02*
Y851948D01*
X930474Y825278D02*
X933014D01*
X931744Y824008D02*
Y826548D01*
X930474Y901478D02*
X933014D01*
X931744Y900208D02*
Y902748D01*
X930474Y876078D02*
X933014D01*
X931744Y874808D02*
Y877348D01*
X930474Y1079278D02*
X933014D01*
X931744Y1078008D02*
Y1080548D01*
X930474Y977678D02*
X933014D01*
X931744Y976408D02*
Y978948D01*
X930474Y952278D02*
X933014D01*
X931744Y951008D02*
Y953548D01*
X930474Y1028478D02*
X933014D01*
X931744Y1027208D02*
Y1029748D01*
X930474Y926878D02*
X933014D01*
X931744Y925608D02*
Y928148D01*
X930474Y1155478D02*
X933014D01*
X931744Y1154208D02*
Y1156748D01*
X930474Y1130078D02*
X933014D01*
X931744Y1128808D02*
Y1131348D01*
X930474Y1206278D02*
X933014D01*
X931744Y1205008D02*
Y1207548D01*
X930474Y1104678D02*
X933014D01*
X931744Y1103408D02*
Y1105948D01*
X930474Y1180878D02*
X933014D01*
X931744Y1179608D02*
Y1182148D01*
X930474Y1231678D02*
X933014D01*
X931744Y1230408D02*
Y1232948D01*
X895325Y1289662D02*
X897865D01*
X896595Y1288392D02*
Y1290932D01*
X844233Y1290108D02*
X846774D01*
X845503Y1288839D02*
Y1291378D01*
X869633Y1290108D02*
X872173D01*
X870903Y1288839D02*
Y1291378D01*
X818833Y1290108D02*
X821374D01*
X820104Y1288839D02*
Y1291378D01*
X590233Y1290108D02*
X592774D01*
X591503Y1288839D02*
Y1291378D01*
X666433Y1290108D02*
X668973D01*
X667703Y1288839D02*
Y1291378D01*
X641033Y1290108D02*
X643574D01*
X642303Y1288839D02*
Y1291378D01*
X615634Y1290108D02*
X618173D01*
X616903Y1288839D02*
Y1291378D01*
X742634Y1290108D02*
X745173D01*
X743904Y1288839D02*
Y1291378D01*
X717234Y1290108D02*
X719773D01*
X718503Y1288839D02*
Y1291378D01*
X793434Y1290108D02*
X795974D01*
X794704Y1288839D02*
Y1291378D01*
X691833Y1290108D02*
X694373D01*
X693103Y1288839D02*
Y1291378D01*
X768034Y1290108D02*
X770574D01*
X769304Y1288839D02*
Y1291378D01*
X209233Y1290108D02*
X211773D01*
X210504Y1288839D02*
Y1291378D01*
X107633Y1290108D02*
X110174D01*
X108904Y1288839D02*
Y1291378D01*
X183834Y1290108D02*
X186374D01*
X185103Y1288839D02*
Y1291378D01*
X82233Y1290108D02*
X84774D01*
X83504Y1288839D02*
Y1291378D01*
X158434Y1290108D02*
X160973D01*
X159704Y1288839D02*
Y1291378D01*
X56834Y1290108D02*
X59373D01*
X58103Y1288839D02*
Y1291378D01*
X133034Y1290108D02*
X135574D01*
X134304Y1288839D02*
Y1291378D01*
X361633Y1290108D02*
X364174D01*
X362904Y1288839D02*
Y1291378D01*
X260033Y1290108D02*
X262574D01*
X261304Y1288839D02*
Y1291378D01*
X336233Y1290108D02*
X338773D01*
X337504Y1288839D02*
Y1291378D01*
X234634Y1290108D02*
X237174D01*
X235903Y1288839D02*
Y1291378D01*
X310833Y1290108D02*
X313374D01*
X312104Y1288839D02*
Y1291378D01*
X285434Y1290108D02*
X287973D01*
X286703Y1288839D02*
Y1291378D01*
X387034Y1290108D02*
X389574D01*
X388303Y1288839D02*
Y1291378D01*
X6004Y1253797D02*
X8544D01*
X7274Y1252527D02*
Y1255067D01*
X895004Y9197D02*
X897544D01*
X896274Y7927D02*
Y10467D01*
X802204Y9197D02*
X804744D01*
X803474Y7927D02*
Y10467D01*
X776804Y9197D02*
X779344D01*
X778074Y7927D02*
Y10467D01*
X853004Y9197D02*
X855544D01*
X854274Y7927D02*
Y10467D01*
X673004Y9197D02*
X675544D01*
X674274Y7927D02*
Y10467D01*
X596804Y9197D02*
X599344D01*
X598074Y7927D02*
Y10467D01*
X698404Y9197D02*
X700944D01*
X699674Y7927D02*
Y10467D01*
X647604Y9197D02*
X650144D01*
X648874Y7927D02*
Y10467D01*
X749204Y9197D02*
X751744D01*
X750474Y7927D02*
Y10467D01*
X234604Y9197D02*
X237144D01*
X235874Y7927D02*
Y10467D01*
X285404Y9197D02*
X287944D01*
X286674Y7927D02*
Y10467D01*
X218404Y9197D02*
X220944D01*
X219674Y7927D02*
Y10467D01*
X142204Y9197D02*
X144744D01*
X143474Y7927D02*
Y10467D01*
X167604Y9197D02*
X170144D01*
X168874Y7927D02*
Y10467D01*
X209204Y9197D02*
X211744D01*
X210474Y7927D02*
Y10467D01*
X6946Y1157602D02*
X9486D01*
X8216Y1156332D02*
Y1158872D01*
X6946Y1183002D02*
X9486D01*
X8216Y1181732D02*
Y1184272D01*
X6946Y1106802D02*
X9486D01*
X8216Y1105532D02*
Y1108072D01*
X6946Y1208402D02*
X9486D01*
X8216Y1207132D02*
Y1209672D01*
X6946Y1132202D02*
X9486D01*
X8216Y1130932D02*
Y1133472D01*
X6946Y1233802D02*
X9486D01*
X8216Y1232532D02*
Y1235072D01*
X6946Y1030602D02*
X9486D01*
X8216Y1029332D02*
Y1031872D01*
X6946Y1056002D02*
X9486D01*
X8216Y1054732D02*
Y1057272D01*
X6946Y1081402D02*
X9486D01*
X8216Y1080132D02*
Y1082672D01*
X6946Y903602D02*
X9486D01*
X8216Y902332D02*
Y904872D01*
X6946Y827402D02*
X9486D01*
X8216Y826132D02*
Y828672D01*
X6946Y929002D02*
X9486D01*
X8216Y927732D02*
Y930272D01*
X6946Y852802D02*
X9486D01*
X8216Y851532D02*
Y854072D01*
X6946Y878202D02*
X9486D01*
X8216Y876932D02*
Y879472D01*
X6946Y751202D02*
X9486D01*
X8216Y749932D02*
Y752472D01*
X6946Y675002D02*
X9486D01*
X8216Y673732D02*
Y676272D01*
X6946Y776602D02*
X9486D01*
X8216Y775332D02*
Y777872D01*
X6946Y700402D02*
X9486D01*
X8216Y699132D02*
Y701672D01*
X6946Y802002D02*
X9486D01*
X8216Y800732D02*
Y803272D01*
X6946Y725802D02*
X9486D01*
X8216Y724532D02*
Y727072D01*
X6946Y598802D02*
X9486D01*
X8216Y597532D02*
Y600072D01*
X6946Y624202D02*
X9486D01*
X8216Y622932D02*
Y625472D01*
X6946Y548002D02*
X9486D01*
X8216Y546732D02*
Y549272D01*
X6946Y649602D02*
X9486D01*
X8216Y648332D02*
Y650872D01*
X6946Y573402D02*
X9486D01*
X8216Y572132D02*
Y574672D01*
X6946Y446402D02*
X9486D01*
X8216Y445132D02*
Y447672D01*
X6946Y370202D02*
X9486D01*
X8216Y368932D02*
Y371472D01*
X6946Y471802D02*
X9486D01*
X8216Y470532D02*
Y473072D01*
X6946Y395602D02*
X9486D01*
X8216Y394332D02*
Y396872D01*
X6946Y497202D02*
X9486D01*
X8216Y495932D02*
Y498472D01*
X6946Y421002D02*
X9486D01*
X8216Y419732D02*
Y422272D01*
X6946Y522602D02*
X9486D01*
X8216Y521332D02*
Y523872D01*
X6946Y294002D02*
X9486D01*
X8216Y292732D02*
Y295272D01*
X6946Y319402D02*
X9486D01*
X8216Y318132D02*
Y320672D01*
X6946Y243202D02*
X9486D01*
X8216Y241932D02*
Y244472D01*
X6946Y344802D02*
X9486D01*
X8216Y343532D02*
Y346072D01*
X6946Y268602D02*
X9486D01*
X8216Y267332D02*
Y269872D01*
X6946Y141602D02*
X9486D01*
X8216Y140332D02*
Y142872D01*
X6946Y73294D02*
X9486D01*
X8216Y72024D02*
Y74564D01*
X6946Y167002D02*
X9486D01*
X8216Y165732D02*
Y168272D01*
X6946Y192402D02*
X9486D01*
X8216Y191132D02*
Y193672D01*
X6946Y116202D02*
X9486D01*
X8216Y114932D02*
Y117472D01*
X6946Y217802D02*
X9486D01*
X8216Y216532D02*
Y219072D01*
X215912Y1279245D02*
X218452D01*
X217182Y1277975D02*
Y1280515D01*
X233751Y1277095D02*
X236291D01*
X235021Y1275825D02*
Y1278365D01*
X193462Y1103290D02*
X195962D01*
X194712Y1102040D02*
Y1104540D01*
X168462Y1103290D02*
X170962D01*
X169712Y1102040D02*
Y1104540D01*
X169076Y1090018D02*
X171576D01*
X170326Y1088768D02*
Y1091268D01*
X194076Y1090018D02*
X196576D01*
X195326Y1088768D02*
Y1091268D01*
X743915Y1126623D02*
X746415D01*
X745165Y1125373D02*
Y1127873D01*
X409842Y850274D02*
X412382D01*
X411112Y849004D02*
Y851544D01*
X420002Y794394D02*
X422542D01*
X421272Y793124D02*
Y795664D01*
X422542Y807094D02*
X425082D01*
X423812Y805824D02*
Y808364D01*
X503822Y746134D02*
X506362D01*
X505092Y744864D02*
Y747404D01*
X38296Y824606D02*
X40835D01*
X39565Y823336D02*
Y825876D01*
X38318Y762676D02*
X40858D01*
X39588Y761406D02*
Y763946D01*
X551845Y84997D02*
X554845D01*
X553345Y83497D02*
Y86497D01*
X551845Y24997D02*
X554845D01*
X553345Y23497D02*
Y26497D01*
X531845Y84997D02*
X534845D01*
X533345Y83497D02*
Y86497D01*
X531845Y24997D02*
X534845D01*
X533345Y23497D02*
Y26497D01*
X511845Y84997D02*
X514845D01*
X513345Y83497D02*
Y86497D01*
X511845Y24997D02*
X514845D01*
X513345Y23497D02*
Y26497D01*
X491845Y84997D02*
X494845D01*
X493345Y83497D02*
Y86497D01*
X491845Y64997D02*
X494845D01*
X493345Y63497D02*
Y66497D01*
X491845Y44997D02*
X494845D01*
X493345Y43497D02*
Y46497D01*
X491845Y24997D02*
X494845D01*
X493345Y23497D02*
Y26497D01*
X471845Y84997D02*
X474845D01*
X473345Y83497D02*
Y86497D01*
X471845Y64997D02*
X474845D01*
X473345Y63497D02*
Y66497D01*
X471845Y24997D02*
X474845D01*
X473345Y23497D02*
Y26497D01*
X451845Y84997D02*
X454845D01*
X453345Y83497D02*
Y86497D01*
X451845Y64997D02*
X454845D01*
X453345Y63497D02*
Y66497D01*
X451845Y24997D02*
X454845D01*
X453345Y23497D02*
Y26497D01*
X431845Y84997D02*
X434845D01*
X433345Y83497D02*
Y86497D01*
X431845Y64997D02*
X434845D01*
X433345Y63497D02*
Y66497D01*
X431845Y24997D02*
X434845D01*
X433345Y23497D02*
Y26497D01*
X411845Y84997D02*
X414845D01*
X413345Y83497D02*
Y86497D01*
X411845Y64997D02*
X414845D01*
X413345Y63497D02*
Y66497D01*
X411845Y44997D02*
X414845D01*
X413345Y43497D02*
Y46497D01*
X411845Y24997D02*
X414845D01*
X413345Y23497D02*
Y26497D01*
X391845Y84997D02*
X394845D01*
X393345Y83497D02*
Y86497D01*
X391845Y24997D02*
X394845D01*
X393345Y23497D02*
Y26497D01*
X371845Y84997D02*
X374845D01*
X373345Y83497D02*
Y86497D01*
X351845Y24997D02*
X354845D01*
X353345Y23497D02*
Y26497D01*
X369510Y22126D02*
X372050D01*
X370780Y20856D02*
Y23396D01*
X318964Y13490D02*
X321504D01*
X320234Y12220D02*
Y14760D01*
X310582Y13744D02*
X313122D01*
X311852Y12474D02*
Y15014D01*
X297882Y13998D02*
X300422D01*
X299152Y12728D02*
Y15268D01*
X523549Y925442D02*
X526089D01*
X524819Y924172D02*
Y926712D01*
X471618Y879630D02*
X474158D01*
X472888Y878360D02*
Y880900D01*
X418786Y852452D02*
X421326D01*
X420056Y851182D02*
Y853722D01*
X387304Y775666D02*
X389844D01*
X388574Y774396D02*
Y776936D01*
X407624Y775920D02*
X410164D01*
X408894Y774650D02*
Y777190D01*
X520400Y770586D02*
X522940D01*
X521670Y769316D02*
Y771856D01*
X503636Y770332D02*
X506176D01*
X504906Y769062D02*
Y771602D01*
X381462Y739090D02*
X384002D01*
X382732Y737820D02*
Y740360D01*
X381208Y750266D02*
X383748D01*
X382478Y748996D02*
Y751536D01*
X438450Y1133340D02*
X440990D01*
X439720Y1132070D02*
Y1134610D01*
X500426Y896104D02*
X502966D01*
X501696Y894834D02*
Y897374D01*
X561132Y1233162D02*
X563672D01*
X562402Y1231892D02*
Y1234432D01*
X558030Y1222102D02*
X560570D01*
X559300Y1220832D02*
Y1223372D01*
X390698Y1227066D02*
X393238D01*
X391968Y1225796D02*
Y1228336D01*
X477672Y839658D02*
X480212D01*
X478942Y838388D02*
Y840928D01*
X477418Y871408D02*
X479958D01*
X478688Y870138D02*
Y872678D01*
X482338Y902704D02*
X484878D01*
X483608Y901434D02*
Y903974D01*
X570984Y899148D02*
X573524D01*
X572254Y897878D02*
Y900418D01*
X569968Y888988D02*
X572508D01*
X571238Y887718D02*
Y890258D01*
X560868Y833092D02*
X563408D01*
X562138Y831822D02*
Y834362D01*
X785217Y806072D02*
X787757D01*
X786487Y804802D02*
Y807342D01*
X785217Y841296D02*
X787757D01*
X786487Y840026D02*
Y842566D01*
X785217Y877110D02*
X787757D01*
X786487Y875840D02*
Y878380D01*
X641704Y854448D02*
X644244D01*
X642974Y853178D02*
Y855718D01*
X640434Y879086D02*
X642974D01*
X641704Y877816D02*
Y880356D01*
X434640Y1152942D02*
X437180D01*
X435910Y1151672D02*
Y1154212D01*
X438450Y1158530D02*
X440990D01*
X439720Y1157260D02*
Y1159800D01*
X392984Y1161324D02*
X395524D01*
X394254Y1160054D02*
Y1162594D01*
X383078Y756702D02*
X385618D01*
X384348Y755432D02*
Y757972D01*
X411272Y739684D02*
X413812D01*
X412542Y738414D02*
Y740954D01*
X411272Y750606D02*
X413812D01*
X412542Y749336D02*
Y751876D01*
X902762Y1116874D02*
X905302D01*
X904032Y1115604D02*
Y1118144D01*
X902762Y1128812D02*
X905302D01*
X904032Y1127542D02*
Y1130082D01*
X902762Y1140750D02*
X905302D01*
X904032Y1139480D02*
Y1142020D01*
X513052Y825302D02*
X515592D01*
X514322Y824032D02*
Y826572D01*
X480868Y855508D02*
X483408D01*
X482138Y854238D02*
Y856778D01*
X493314Y884210D02*
X495854D01*
X494584Y882940D02*
Y885480D01*
X471460Y892422D02*
X474000D01*
X472730Y891152D02*
Y893692D01*
X565704Y857286D02*
X568244D01*
X566974Y856016D02*
Y858556D01*
X581706Y833156D02*
X584246D01*
X582976Y831886D02*
Y834426D01*
X530906Y864054D02*
X533446D01*
X532176Y862784D02*
Y865324D01*
X525572Y811566D02*
X528112D01*
X526842Y810296D02*
Y812836D01*
X416352Y888782D02*
X418892D01*
X417622Y887512D02*
Y890052D01*
X63546Y528864D02*
X66086D01*
X64816Y527594D02*
Y530134D01*
X820212Y1248192D02*
X822752D01*
X821482Y1246922D02*
Y1249462D01*
X433699Y1127314D02*
X436239D01*
X434969Y1126044D02*
Y1128584D01*
X442588Y1149080D02*
X445128D01*
X443858Y1147810D02*
Y1150350D01*
X450208Y1157970D02*
X452748D01*
X451478Y1156700D02*
Y1159240D01*
X570949Y1234245D02*
X573489D01*
X572219Y1232975D02*
Y1235515D01*
X601175Y1234245D02*
X603715D01*
X602445Y1232975D02*
Y1235515D01*
X354040Y1272783D02*
X356580D01*
X355310Y1271513D02*
Y1274053D01*
X369131Y1263495D02*
X371671D01*
X370401Y1262225D02*
Y1264765D01*
X338905Y1263495D02*
X341445D01*
X340175Y1262225D02*
Y1264765D01*
X369416Y1233884D02*
X371956D01*
X370686Y1232614D02*
Y1235154D01*
X339190Y1233884D02*
X341730D01*
X340460Y1232614D02*
Y1235154D01*
X354281Y1224596D02*
X356821D01*
X355551Y1223326D02*
Y1225866D01*
X524695Y762004D02*
X527235D01*
X525965Y760734D02*
Y763274D01*
X476943Y748542D02*
X479483D01*
X478213Y747272D02*
Y749812D01*
X467799Y746256D02*
X470339D01*
X469069Y744986D02*
Y747526D01*
X763937Y841416D02*
X766477D01*
X765207Y840146D02*
Y842686D01*
Y800014D02*
X767747D01*
X766477Y798744D02*
Y801284D01*
X44946Y162484D02*
X47486D01*
X46216Y161214D02*
Y163754D01*
X884990Y865530D02*
X887530D01*
X886260Y864260D02*
Y866800D01*
X884990Y817270D02*
X887530D01*
X886260Y816000D02*
Y818540D01*
X884990Y852830D02*
X887530D01*
X886260Y851560D02*
Y854100D01*
X884990Y829970D02*
X887530D01*
X886260Y828700D02*
Y831240D01*
X884990Y901090D02*
X887530D01*
X886260Y899820D02*
Y902360D01*
X884990Y888390D02*
X887530D01*
X886260Y887120D02*
Y889660D01*
X410254Y820595D02*
X412794D01*
X411524Y819325D02*
Y821865D01*
X238993Y1222982D02*
X241534D01*
X240264Y1221712D02*
Y1224252D01*
X528864Y819464D02*
X531404D01*
X530134Y818194D02*
Y820734D01*
X423604Y898110D02*
X426144D01*
X424874Y896840D02*
Y899380D01*
X522514Y896332D02*
X525054D01*
X523784Y895062D02*
Y897602D01*
X639830Y902016D02*
X642370D01*
X641100Y900746D02*
Y903286D01*
X390631Y1205750D02*
X393172D01*
X391902Y1204480D02*
Y1207020D01*
X639322Y916748D02*
X641862D01*
X640592Y915478D02*
Y918018D01*
X640084Y888808D02*
X642624D01*
X641354Y887538D02*
Y890078D01*
X549448Y1227750D02*
X551988D01*
X550718Y1226480D02*
Y1229020D01*
X660094Y751888D02*
X662634D01*
X661364Y750618D02*
Y753158D01*
X549448Y1216750D02*
X551988D01*
X550718Y1215480D02*
Y1218020D01*
X557068Y1211102D02*
X559608D01*
X558338Y1209832D02*
Y1212372D01*
X638814Y930464D02*
X641354D01*
X640084Y929194D02*
Y931734D01*
X825174Y1275138D02*
X827714D01*
X826444Y1273868D02*
Y1276408D01*
X390656Y1139760D02*
X393196D01*
X391926Y1138490D02*
Y1141030D01*
X646460Y741048D02*
X649000D01*
X647730Y739778D02*
Y742318D01*
X646804Y766448D02*
X649344D01*
X648074Y765178D02*
Y767718D01*
X481874Y892422D02*
X484414D01*
X483144Y891152D02*
Y893692D01*
X511804Y932300D02*
X514344D01*
X513074Y931030D02*
Y933570D01*
X439202Y901122D02*
X441742D01*
X440472Y899852D02*
Y902392D01*
X439202Y810152D02*
X441742D01*
X440472Y808882D02*
Y811422D01*
X512164Y777868D02*
X514704D01*
X513434Y776598D02*
Y779138D01*
X475534Y902708D02*
X478074D01*
X476804Y901438D02*
Y903978D01*
X456474Y884802D02*
X459014D01*
X457744Y883532D02*
Y886072D01*
X763941Y877050D02*
X766481D01*
X765211Y875780D02*
Y878320D01*
M02*
