G04*
G04 #@! TF.GenerationSoftware,Altium Limited,Altium Designer,24.5.2 (23)*
G04*
G04 Layer_Color=0*
%FSLAX44Y44*%
%MOMM*%
G71*
G04*
G04 #@! TF.SameCoordinates,06A8B94F-9278-456E-AD24-3EE51E5687D5*
G04*
G04*
G04 #@! TF.FilePolarity,Positive*
G04*
G01*
G75*
%ADD11C,0.1270*%
%ADD15C,0.1000*%
%ADD18C,0.1500*%
%ADD19C,0.2000*%
%ADD21C,0.0500*%
%ADD22C,0.0100*%
%ADD24R,4.8260X2.4130*%
%ADD25C,0.2540*%
%ADD282C,0.0050*%
G36*
X931375Y-543270D02*
X935910D01*
Y-543724D01*
X938632D01*
Y-544178D01*
X940899D01*
Y-544631D01*
X942713D01*
Y-545085D01*
X944528D01*
Y-545538D01*
X945888D01*
Y-545992D01*
X947249D01*
Y-546445D01*
X948610D01*
Y-546899D01*
X949517D01*
Y-547352D01*
X950878D01*
Y-547806D01*
X951785D01*
Y-548260D01*
X952692D01*
Y-548713D01*
X953599D01*
Y-549167D01*
X954506D01*
Y-549620D01*
X955413D01*
Y-550074D01*
X955867D01*
Y-550527D01*
X956774D01*
Y-550981D01*
X957681D01*
Y-551435D01*
X958135D01*
Y-551888D01*
X959042D01*
Y-552342D01*
X959495D01*
Y-552795D01*
X960402D01*
Y-553249D01*
X960856D01*
Y-553702D01*
X961309D01*
Y-554156D01*
X962216D01*
Y-554609D01*
X962670D01*
Y-555063D01*
X963123D01*
Y-555517D01*
X963577D01*
Y-555970D01*
X964484D01*
Y-556424D01*
X964938D01*
Y-556877D01*
X965391D01*
Y-557331D01*
X965845D01*
Y-557784D01*
X966298D01*
Y-558238D01*
X966752D01*
Y-558691D01*
X967206D01*
Y-559145D01*
X967659D01*
Y-559599D01*
X968113D01*
Y-560052D01*
X968566D01*
Y-560506D01*
X969020D01*
Y-560959D01*
X969473D01*
Y-561413D01*
Y-561866D01*
X969927D01*
Y-562320D01*
X970380D01*
Y-562773D01*
X970834D01*
Y-563227D01*
X971288D01*
Y-563680D01*
Y-564134D01*
X971741D01*
Y-564588D01*
X972195D01*
Y-565041D01*
X972648D01*
Y-565495D01*
Y-565948D01*
X973102D01*
Y-566402D01*
X973555D01*
Y-566855D01*
Y-567309D01*
X974009D01*
Y-567762D01*
X974463D01*
Y-568216D01*
Y-568670D01*
X974916D01*
Y-569123D01*
X975370D01*
Y-569577D01*
Y-570030D01*
X975823D01*
Y-570484D01*
Y-570937D01*
X976277D01*
Y-571391D01*
Y-571844D01*
X976730D01*
Y-572298D01*
Y-572752D01*
X977184D01*
Y-573205D01*
Y-573659D01*
X977637D01*
Y-574112D01*
Y-574566D01*
X978091D01*
Y-575019D01*
Y-575473D01*
X978544D01*
Y-575927D01*
Y-576380D01*
Y-576834D01*
X978998D01*
Y-577287D01*
Y-577741D01*
X979452D01*
Y-578194D01*
Y-578648D01*
Y-579101D01*
X979905D01*
Y-579555D01*
Y-580009D01*
Y-580462D01*
X980359D01*
Y-580916D01*
Y-581369D01*
Y-581823D01*
Y-582276D01*
X980812D01*
Y-582730D01*
Y-583183D01*
Y-583637D01*
Y-584090D01*
X981266D01*
Y-584544D01*
Y-584998D01*
Y-585451D01*
Y-585905D01*
X981719D01*
Y-586358D01*
Y-586812D01*
Y-587265D01*
Y-587719D01*
Y-588172D01*
Y-588626D01*
Y-589080D01*
X982173D01*
Y-589533D01*
Y-589987D01*
Y-590440D01*
Y-590894D01*
Y-591347D01*
Y-591801D01*
Y-592254D01*
Y-592708D01*
Y-593162D01*
Y-593615D01*
Y-594069D01*
X982626D01*
Y-594522D01*
Y-594976D01*
Y-595429D01*
Y-595883D01*
Y-596337D01*
Y-596790D01*
Y-597244D01*
Y-597697D01*
Y-598151D01*
Y-598604D01*
X982173D01*
Y-599058D01*
Y-599511D01*
Y-599965D01*
Y-600419D01*
Y-600872D01*
Y-601326D01*
Y-601779D01*
Y-602233D01*
Y-602686D01*
Y-603140D01*
Y-603593D01*
X981719D01*
Y-604047D01*
Y-604501D01*
Y-604954D01*
Y-605408D01*
Y-605861D01*
Y-606315D01*
X981266D01*
Y-606768D01*
Y-607222D01*
Y-607675D01*
Y-608129D01*
Y-608583D01*
X980812D01*
Y-609036D01*
Y-609490D01*
Y-609943D01*
Y-610397D01*
X980359D01*
Y-610850D01*
Y-611304D01*
Y-611758D01*
Y-612211D01*
X979905D01*
Y-612665D01*
Y-613118D01*
Y-613572D01*
X979452D01*
Y-614025D01*
Y-614479D01*
X978998D01*
Y-614932D01*
Y-615386D01*
Y-615839D01*
X978544D01*
Y-616293D01*
Y-616747D01*
X978091D01*
Y-617200D01*
Y-617654D01*
Y-618107D01*
X977637D01*
Y-618561D01*
Y-619014D01*
X977184D01*
Y-619468D01*
Y-619921D01*
X976730D01*
Y-620375D01*
Y-620829D01*
X976277D01*
Y-621282D01*
Y-621736D01*
X975823D01*
Y-621282D01*
Y-620829D01*
Y-620375D01*
Y-619921D01*
Y-619468D01*
Y-619014D01*
Y-618561D01*
Y-618107D01*
Y-617654D01*
Y-617200D01*
Y-616747D01*
Y-616293D01*
Y-615839D01*
Y-615386D01*
Y-614932D01*
Y-614479D01*
Y-614025D01*
Y-613572D01*
Y-613118D01*
Y-612665D01*
Y-612211D01*
Y-611758D01*
Y-611304D01*
Y-610850D01*
Y-610397D01*
Y-609943D01*
Y-609490D01*
Y-609036D01*
Y-608583D01*
Y-608129D01*
Y-607675D01*
Y-607222D01*
Y-606768D01*
Y-606315D01*
Y-605861D01*
Y-605408D01*
Y-604954D01*
Y-604501D01*
Y-604047D01*
Y-603593D01*
Y-603140D01*
Y-602686D01*
Y-602233D01*
Y-601779D01*
Y-601326D01*
Y-600872D01*
Y-600419D01*
Y-599965D01*
Y-599511D01*
Y-599058D01*
Y-598604D01*
Y-598151D01*
Y-597697D01*
Y-597244D01*
Y-596790D01*
Y-596337D01*
Y-595883D01*
Y-595429D01*
Y-594976D01*
Y-594522D01*
Y-594069D01*
Y-593615D01*
Y-593162D01*
Y-592708D01*
Y-592254D01*
Y-591801D01*
Y-591347D01*
Y-590894D01*
Y-590440D01*
Y-589987D01*
Y-589533D01*
Y-589080D01*
Y-588626D01*
Y-588172D01*
Y-587719D01*
Y-587265D01*
X963123D01*
Y-587719D01*
Y-588172D01*
Y-588626D01*
Y-589080D01*
Y-589533D01*
Y-589987D01*
Y-590440D01*
Y-590894D01*
Y-591347D01*
Y-591801D01*
Y-592254D01*
Y-592708D01*
Y-593162D01*
Y-593615D01*
Y-594069D01*
Y-594522D01*
Y-594976D01*
Y-595429D01*
Y-595883D01*
Y-596337D01*
Y-596790D01*
Y-597244D01*
Y-597697D01*
Y-598151D01*
Y-598604D01*
Y-599058D01*
Y-599511D01*
Y-599965D01*
Y-600419D01*
Y-600872D01*
Y-601326D01*
Y-601779D01*
Y-602233D01*
Y-602686D01*
Y-603140D01*
Y-603593D01*
Y-604047D01*
Y-604501D01*
Y-604954D01*
Y-605408D01*
Y-605861D01*
Y-606315D01*
Y-606768D01*
Y-607222D01*
Y-607675D01*
Y-608129D01*
Y-608583D01*
Y-609036D01*
Y-609490D01*
Y-609943D01*
Y-610397D01*
Y-610850D01*
Y-611304D01*
Y-611758D01*
Y-612211D01*
Y-612665D01*
Y-613118D01*
Y-613572D01*
Y-614025D01*
Y-614479D01*
Y-614932D01*
X962670D01*
Y-615386D01*
Y-615839D01*
Y-616293D01*
Y-616747D01*
X962216D01*
Y-617200D01*
Y-617654D01*
X961763D01*
Y-618107D01*
Y-618561D01*
X961309D01*
Y-619014D01*
X960856D01*
Y-619468D01*
X960402D01*
Y-619921D01*
X959949D01*
Y-620375D01*
X959495D01*
Y-620829D01*
X958588D01*
Y-621282D01*
X957227D01*
Y-621736D01*
X950878D01*
Y-621282D01*
X949517D01*
Y-620829D01*
X948610D01*
Y-620375D01*
X948156D01*
Y-619921D01*
X947703D01*
Y-619468D01*
X947249D01*
Y-619014D01*
Y-618561D01*
X946796D01*
Y-618107D01*
Y-617654D01*
X946342D01*
Y-617200D01*
Y-616747D01*
Y-616293D01*
Y-615839D01*
X945888D01*
Y-615386D01*
Y-614932D01*
Y-614479D01*
Y-614025D01*
Y-613572D01*
Y-613118D01*
Y-612665D01*
Y-612211D01*
Y-611758D01*
Y-611304D01*
Y-610850D01*
Y-610397D01*
Y-609943D01*
Y-609490D01*
Y-609036D01*
Y-608583D01*
Y-608129D01*
Y-607675D01*
Y-607222D01*
Y-606768D01*
Y-606315D01*
Y-605861D01*
Y-605408D01*
Y-604954D01*
Y-604501D01*
Y-604047D01*
Y-603593D01*
Y-603140D01*
Y-602686D01*
Y-602233D01*
Y-601779D01*
Y-601326D01*
Y-600872D01*
Y-600419D01*
Y-599965D01*
Y-599511D01*
Y-599058D01*
Y-598604D01*
Y-598151D01*
Y-597697D01*
Y-597244D01*
Y-596790D01*
Y-596337D01*
Y-595883D01*
Y-595429D01*
Y-594976D01*
Y-594522D01*
Y-594069D01*
Y-593615D01*
Y-593162D01*
Y-592708D01*
Y-592254D01*
Y-591801D01*
Y-591347D01*
Y-590894D01*
Y-590440D01*
Y-589987D01*
Y-589533D01*
Y-589080D01*
Y-588626D01*
Y-588172D01*
Y-587719D01*
Y-587265D01*
X933189D01*
Y-587719D01*
Y-588172D01*
Y-588626D01*
Y-589080D01*
Y-589533D01*
Y-589987D01*
Y-590440D01*
Y-590894D01*
Y-591347D01*
Y-591801D01*
Y-592254D01*
Y-592708D01*
Y-593162D01*
Y-593615D01*
Y-594069D01*
Y-594522D01*
Y-594976D01*
Y-595429D01*
Y-595883D01*
Y-596337D01*
Y-596790D01*
Y-597244D01*
Y-597697D01*
Y-598151D01*
Y-598604D01*
Y-599058D01*
Y-599511D01*
Y-599965D01*
Y-600419D01*
Y-600872D01*
Y-601326D01*
Y-601779D01*
Y-602233D01*
Y-602686D01*
Y-603140D01*
Y-603593D01*
Y-604047D01*
Y-604501D01*
Y-604954D01*
Y-605408D01*
Y-605861D01*
Y-606315D01*
Y-606768D01*
Y-607222D01*
Y-607675D01*
Y-608129D01*
Y-608583D01*
Y-609036D01*
Y-609490D01*
Y-609943D01*
Y-610397D01*
Y-610850D01*
Y-611304D01*
Y-611758D01*
Y-612211D01*
Y-612665D01*
Y-613118D01*
Y-613572D01*
Y-614025D01*
Y-614479D01*
Y-614932D01*
Y-615386D01*
Y-615839D01*
Y-616293D01*
Y-616747D01*
Y-617200D01*
Y-617654D01*
Y-618107D01*
Y-618561D01*
Y-619014D01*
Y-619468D01*
Y-619921D01*
Y-620375D01*
X933642D01*
Y-620829D01*
Y-621282D01*
Y-621736D01*
Y-622189D01*
X934096D01*
Y-622643D01*
Y-623096D01*
Y-623550D01*
X934549D01*
Y-624003D01*
Y-624457D01*
Y-624911D01*
X935003D01*
Y-625364D01*
Y-625818D01*
X935457D01*
Y-626271D01*
X935910D01*
Y-626725D01*
Y-627178D01*
X936364D01*
Y-627632D01*
X936817D01*
Y-628086D01*
X937271D01*
Y-628539D01*
X937724D01*
Y-628993D01*
X938178D01*
Y-629446D01*
X938632D01*
Y-629900D01*
X939539D01*
Y-630353D01*
X939992D01*
Y-630807D01*
X940899D01*
Y-631260D01*
X941806D01*
Y-631714D01*
X942713D01*
Y-632168D01*
X944074D01*
Y-632621D01*
X945888D01*
Y-633075D01*
X954960D01*
Y-632621D01*
X956774D01*
Y-632168D01*
X957681D01*
Y-631714D01*
X959042D01*
Y-631260D01*
X959495D01*
Y-630807D01*
X960402D01*
Y-630353D01*
X960856D01*
Y-629900D01*
X961309D01*
Y-629446D01*
X962216D01*
Y-628993D01*
X962670D01*
Y-628539D01*
X963123D01*
Y-628086D01*
Y-627632D01*
X963577D01*
Y-628086D01*
Y-628539D01*
Y-628993D01*
Y-629446D01*
Y-629900D01*
Y-630353D01*
Y-630807D01*
Y-631260D01*
Y-631714D01*
Y-632168D01*
X968566D01*
Y-632621D01*
X968113D01*
Y-633075D01*
X967659D01*
Y-633528D01*
X967206D01*
Y-633982D01*
X966752D01*
Y-634435D01*
X966298D01*
Y-634889D01*
X965845D01*
Y-635342D01*
X965391D01*
Y-635796D01*
X964938D01*
Y-636250D01*
X964031D01*
Y-636703D01*
X963577D01*
Y-637157D01*
X963123D01*
Y-637610D01*
X962670D01*
Y-638064D01*
X961763D01*
Y-638517D01*
X961309D01*
Y-638971D01*
X960856D01*
Y-639424D01*
X959949D01*
Y-639878D01*
X959495D01*
Y-640331D01*
X958588D01*
Y-640785D01*
X958135D01*
Y-641239D01*
X957227D01*
Y-641692D01*
X956774D01*
Y-642146D01*
X955867D01*
Y-642599D01*
X954960D01*
Y-643053D01*
X954052D01*
Y-643506D01*
X953599D01*
Y-643960D01*
X952692D01*
Y-644414D01*
X951331D01*
Y-644867D01*
X950424D01*
Y-645321D01*
X949517D01*
Y-645774D01*
X948156D01*
Y-646228D01*
X947249D01*
Y-646681D01*
X945888D01*
Y-647135D01*
X944074D01*
Y-647588D01*
X942713D01*
Y-648042D01*
X940899D01*
Y-648495D01*
X938178D01*
Y-648949D01*
X935003D01*
Y-649403D01*
X923211D01*
Y-648949D01*
X920036D01*
Y-648495D01*
X917768D01*
Y-648042D01*
X915954D01*
Y-647588D01*
X914139D01*
Y-647135D01*
X912779D01*
Y-646681D01*
X911418D01*
Y-646228D01*
X910058D01*
Y-645774D01*
X909150D01*
Y-645321D01*
X907790D01*
Y-644867D01*
X906883D01*
Y-644414D01*
X905975D01*
Y-643960D01*
X905068D01*
Y-643506D01*
X904161D01*
Y-643053D01*
X903254D01*
Y-642599D01*
X902347D01*
Y-642146D01*
X901893D01*
Y-641692D01*
X900986D01*
Y-641239D01*
X900079D01*
Y-640785D01*
X899626D01*
Y-640331D01*
X898719D01*
Y-639878D01*
X898265D01*
Y-639424D01*
X897812D01*
Y-638971D01*
X896904D01*
Y-638517D01*
X896451D01*
Y-638064D01*
X895997D01*
Y-637610D01*
X895090D01*
Y-637157D01*
X894637D01*
Y-636703D01*
X894183D01*
Y-636250D01*
X893729D01*
Y-635796D01*
X893276D01*
Y-635342D01*
X892822D01*
Y-634889D01*
X892369D01*
Y-634435D01*
X891915D01*
Y-633982D01*
X891462D01*
Y-633528D01*
X891008D01*
Y-633075D01*
X890555D01*
Y-632621D01*
X890101D01*
Y-632168D01*
X889648D01*
Y-631714D01*
X889194D01*
Y-631260D01*
X888740D01*
Y-630807D01*
X888287D01*
Y-630353D01*
X887833D01*
Y-629900D01*
Y-629446D01*
X887380D01*
Y-628993D01*
X886926D01*
Y-628539D01*
X886473D01*
Y-628086D01*
X886019D01*
Y-627632D01*
Y-627178D01*
X885565D01*
Y-626725D01*
X885112D01*
Y-626271D01*
Y-625818D01*
X884658D01*
Y-625364D01*
X884205D01*
Y-624911D01*
Y-624457D01*
X883751D01*
Y-624003D01*
X883298D01*
Y-623550D01*
Y-623096D01*
X882844D01*
Y-622643D01*
Y-622189D01*
X882391D01*
Y-621736D01*
Y-621282D01*
X881937D01*
Y-620829D01*
Y-620375D01*
X881484D01*
Y-619921D01*
Y-619468D01*
X881030D01*
Y-619014D01*
Y-618561D01*
X880576D01*
Y-618107D01*
Y-617654D01*
X880123D01*
Y-617200D01*
Y-616747D01*
X879669D01*
Y-616293D01*
Y-615839D01*
Y-615386D01*
X879216D01*
Y-614932D01*
Y-614479D01*
Y-614025D01*
X878762D01*
Y-613572D01*
Y-613118D01*
X878309D01*
Y-612665D01*
Y-612211D01*
Y-611758D01*
Y-611304D01*
X877855D01*
Y-610850D01*
Y-610397D01*
Y-609943D01*
X877402D01*
Y-609490D01*
Y-609036D01*
Y-608583D01*
Y-608129D01*
X876948D01*
Y-607675D01*
Y-607222D01*
Y-606768D01*
Y-606315D01*
Y-605861D01*
X876494D01*
Y-605408D01*
Y-604954D01*
Y-604501D01*
Y-604047D01*
Y-603593D01*
Y-603140D01*
Y-602686D01*
X876041D01*
Y-602233D01*
Y-601779D01*
Y-601326D01*
Y-600872D01*
Y-600419D01*
Y-599965D01*
Y-599511D01*
Y-599058D01*
Y-598604D01*
Y-598151D01*
X875587D01*
Y-597697D01*
Y-597244D01*
Y-596790D01*
Y-596337D01*
Y-595883D01*
Y-595429D01*
Y-594976D01*
Y-594522D01*
Y-594069D01*
X876041D01*
Y-593615D01*
Y-593162D01*
Y-592708D01*
Y-592254D01*
Y-591801D01*
Y-591347D01*
Y-590894D01*
Y-590440D01*
Y-589987D01*
X876494D01*
Y-589533D01*
Y-589080D01*
Y-588626D01*
Y-588172D01*
Y-587719D01*
Y-587265D01*
Y-586812D01*
X876948D01*
Y-586358D01*
Y-585905D01*
Y-585451D01*
Y-584998D01*
Y-584544D01*
X877402D01*
Y-584090D01*
Y-583637D01*
Y-583183D01*
Y-582730D01*
X877855D01*
Y-582276D01*
Y-581823D01*
Y-581369D01*
Y-580916D01*
X878309D01*
Y-580462D01*
Y-580009D01*
Y-579555D01*
X878762D01*
Y-579101D01*
Y-578648D01*
Y-578194D01*
X879216D01*
Y-577741D01*
Y-577287D01*
X879669D01*
Y-576834D01*
Y-576380D01*
Y-575927D01*
X880123D01*
Y-575473D01*
Y-575019D01*
X880576D01*
Y-574566D01*
Y-574112D01*
Y-573659D01*
X881030D01*
Y-573205D01*
Y-572752D01*
X881484D01*
Y-572298D01*
Y-571844D01*
X881937D01*
Y-571391D01*
Y-570937D01*
X882391D01*
Y-570484D01*
X882844D01*
Y-570030D01*
Y-569577D01*
X883298D01*
Y-569123D01*
Y-568670D01*
X883751D01*
Y-568216D01*
X884205D01*
Y-567762D01*
Y-567309D01*
X884658D01*
Y-566855D01*
X885112D01*
Y-566402D01*
Y-565948D01*
X885565D01*
Y-565495D01*
X886019D01*
Y-565041D01*
Y-564588D01*
X886473D01*
Y-564134D01*
X886926D01*
Y-563680D01*
X887380D01*
Y-563227D01*
Y-562773D01*
X887833D01*
Y-562320D01*
X888287D01*
Y-561866D01*
X888740D01*
Y-561413D01*
X889194D01*
Y-560959D01*
X889648D01*
Y-560506D01*
X890101D01*
Y-560052D01*
X890555D01*
Y-559599D01*
Y-559145D01*
X891008D01*
Y-558691D01*
X891462D01*
Y-558238D01*
X891915D01*
Y-557784D01*
X892822D01*
Y-557331D01*
X893276D01*
Y-556877D01*
X893729D01*
Y-556424D01*
X894183D01*
Y-555970D01*
X894637D01*
Y-555517D01*
X895090D01*
Y-555063D01*
X895544D01*
Y-554609D01*
X896451D01*
Y-554156D01*
X896904D01*
Y-553702D01*
X897358D01*
Y-553249D01*
X898265D01*
Y-552795D01*
X898719D01*
Y-552342D01*
X899626D01*
Y-551888D01*
X900079D01*
Y-551435D01*
X900986D01*
Y-550981D01*
X901440D01*
Y-550527D01*
X902347D01*
Y-550074D01*
X903254D01*
Y-549620D01*
X903708D01*
Y-549167D01*
X905068D01*
Y-548713D01*
X905975D01*
Y-548260D01*
X906883D01*
Y-547806D01*
X907790D01*
Y-547352D01*
X908697D01*
Y-546899D01*
X910058D01*
Y-546445D01*
X910965D01*
Y-545992D01*
X912325D01*
Y-545538D01*
X913686D01*
Y-545085D01*
X915500D01*
Y-544631D01*
X917314D01*
Y-544178D01*
X919582D01*
Y-543724D01*
X922757D01*
Y-543270D01*
X927293D01*
Y-542817D01*
X931375D01*
Y-543270D01*
D02*
G37*
G36*
X1001676Y-570484D02*
Y-570937D01*
Y-571391D01*
Y-571844D01*
Y-572298D01*
Y-572752D01*
Y-573205D01*
Y-573659D01*
Y-574112D01*
Y-574566D01*
Y-575019D01*
Y-575473D01*
Y-575927D01*
Y-576380D01*
Y-576834D01*
Y-577287D01*
Y-577741D01*
Y-578194D01*
Y-578648D01*
Y-579101D01*
Y-579555D01*
Y-580009D01*
Y-580462D01*
Y-580916D01*
Y-581369D01*
Y-581823D01*
Y-582276D01*
Y-582730D01*
Y-583183D01*
Y-583637D01*
Y-584090D01*
Y-584544D01*
Y-584998D01*
Y-585451D01*
Y-585905D01*
Y-586358D01*
Y-586812D01*
Y-587265D01*
Y-587719D01*
Y-588172D01*
Y-588626D01*
Y-589080D01*
Y-589533D01*
Y-589987D01*
Y-590440D01*
Y-590894D01*
Y-591347D01*
Y-591801D01*
Y-592254D01*
Y-592708D01*
X1002583D01*
Y-592254D01*
X1003036D01*
Y-591801D01*
X1003490D01*
Y-591347D01*
X1003944D01*
Y-590894D01*
X1004397D01*
Y-590440D01*
X1004851D01*
Y-589987D01*
X1005304D01*
Y-589533D01*
X1006211D01*
Y-589080D01*
X1006665D01*
Y-588626D01*
X1007572D01*
Y-588172D01*
X1008479D01*
Y-587719D01*
X1009840D01*
Y-587265D01*
X1011654D01*
Y-586812D01*
X1020272D01*
Y-587265D01*
X1022086D01*
Y-587719D01*
X1023447D01*
Y-588172D01*
X1024807D01*
Y-588626D01*
X1025714D01*
Y-589080D01*
X1026168D01*
Y-589533D01*
X1027075D01*
Y-589987D01*
X1027529D01*
Y-590440D01*
X1028436D01*
Y-590894D01*
X1028889D01*
Y-591347D01*
X1029343D01*
Y-591801D01*
X1029796D01*
Y-592254D01*
X1030250D01*
Y-592708D01*
X1030703D01*
Y-593162D01*
Y-593615D01*
X1031157D01*
Y-594069D01*
X1031610D01*
Y-594522D01*
X1032064D01*
Y-594976D01*
Y-595429D01*
X1032518D01*
Y-595883D01*
Y-596337D01*
X1032971D01*
Y-596790D01*
Y-597244D01*
X1033425D01*
Y-597697D01*
Y-598151D01*
X1033878D01*
Y-598604D01*
Y-599058D01*
Y-599511D01*
X1034332D01*
Y-599965D01*
Y-600419D01*
Y-600872D01*
Y-601326D01*
X1034785D01*
Y-601779D01*
Y-602233D01*
Y-602686D01*
Y-603140D01*
Y-603593D01*
X1035239D01*
Y-604047D01*
Y-604501D01*
Y-604954D01*
Y-605408D01*
Y-605861D01*
Y-606315D01*
Y-606768D01*
Y-607222D01*
Y-607675D01*
X1035693D01*
Y-608129D01*
X1035239D01*
Y-608583D01*
Y-609036D01*
Y-609490D01*
Y-609943D01*
Y-610397D01*
Y-610850D01*
Y-611304D01*
Y-611758D01*
Y-612211D01*
Y-612665D01*
Y-613118D01*
Y-613572D01*
Y-614025D01*
Y-614479D01*
Y-614932D01*
Y-615386D01*
Y-615839D01*
X1034785D01*
Y-616293D01*
Y-616747D01*
Y-617200D01*
Y-617654D01*
Y-618107D01*
X1034332D01*
Y-618561D01*
Y-619014D01*
Y-619468D01*
X1033878D01*
Y-619921D01*
Y-620375D01*
Y-620829D01*
X1033425D01*
Y-621282D01*
Y-621736D01*
Y-622189D01*
X1032971D01*
Y-622643D01*
Y-623096D01*
X1032518D01*
Y-623550D01*
Y-624003D01*
X1032064D01*
Y-624457D01*
X1031610D01*
Y-624911D01*
Y-625364D01*
X1031157D01*
Y-625818D01*
X1030703D01*
Y-626271D01*
X1030250D01*
Y-626725D01*
X1029796D01*
Y-627178D01*
Y-627632D01*
X1028889D01*
Y-628086D01*
X1028436D01*
Y-628539D01*
X1027982D01*
Y-628993D01*
X1027529D01*
Y-629446D01*
X1026621D01*
Y-629900D01*
X1026168D01*
Y-630353D01*
X1025261D01*
Y-630807D01*
X1024354D01*
Y-631260D01*
X1023447D01*
Y-631714D01*
X1022086D01*
Y-632168D01*
X1019818D01*
Y-632621D01*
X1012108D01*
Y-632168D01*
X1009840D01*
Y-631714D01*
X1008933D01*
Y-631260D01*
X1007572D01*
Y-630807D01*
X1007119D01*
Y-630353D01*
X1006211D01*
Y-629900D01*
X1005758D01*
Y-629446D01*
X1004851D01*
Y-628993D01*
X1004397D01*
Y-628539D01*
X1003944D01*
Y-628086D01*
X1003490D01*
Y-627632D01*
X1003036D01*
Y-627178D01*
X1002583D01*
Y-626725D01*
X1002129D01*
Y-626271D01*
Y-625818D01*
X1001222D01*
Y-626271D01*
Y-626725D01*
Y-627178D01*
Y-627632D01*
Y-628086D01*
Y-628539D01*
Y-628993D01*
Y-629446D01*
Y-629900D01*
Y-630353D01*
Y-630807D01*
Y-631260D01*
Y-631714D01*
X989883D01*
Y-631260D01*
Y-630807D01*
Y-630353D01*
Y-629900D01*
Y-629446D01*
Y-628993D01*
Y-628539D01*
Y-628086D01*
Y-627632D01*
Y-627178D01*
Y-626725D01*
Y-626271D01*
Y-625818D01*
Y-625364D01*
Y-624911D01*
Y-624457D01*
Y-624003D01*
Y-623550D01*
Y-623096D01*
Y-622643D01*
Y-622189D01*
Y-621736D01*
Y-621282D01*
Y-620829D01*
Y-620375D01*
Y-619921D01*
Y-619468D01*
Y-619014D01*
Y-618561D01*
Y-618107D01*
Y-617654D01*
Y-617200D01*
Y-616747D01*
Y-616293D01*
Y-615839D01*
Y-615386D01*
Y-614932D01*
Y-614479D01*
Y-614025D01*
Y-613572D01*
Y-613118D01*
Y-612665D01*
Y-612211D01*
Y-611758D01*
Y-611304D01*
Y-610850D01*
Y-610397D01*
Y-609943D01*
Y-609490D01*
Y-609036D01*
Y-608583D01*
Y-608129D01*
Y-607675D01*
Y-607222D01*
Y-606768D01*
Y-606315D01*
Y-605861D01*
Y-605408D01*
Y-604954D01*
Y-604501D01*
Y-604047D01*
Y-603593D01*
Y-603140D01*
Y-602686D01*
Y-602233D01*
Y-601779D01*
Y-601326D01*
Y-600872D01*
Y-600419D01*
Y-599965D01*
Y-599511D01*
Y-599058D01*
Y-598604D01*
Y-598151D01*
Y-597697D01*
Y-597244D01*
Y-596790D01*
Y-596337D01*
Y-595883D01*
Y-595429D01*
Y-594976D01*
Y-594522D01*
Y-594069D01*
Y-593615D01*
Y-593162D01*
Y-592708D01*
Y-592254D01*
Y-591801D01*
Y-591347D01*
Y-590894D01*
Y-590440D01*
Y-589987D01*
Y-589533D01*
Y-589080D01*
Y-588626D01*
Y-588172D01*
Y-587719D01*
Y-587265D01*
Y-586812D01*
Y-586358D01*
Y-585905D01*
Y-585451D01*
Y-584998D01*
Y-584544D01*
Y-584090D01*
Y-583637D01*
Y-583183D01*
Y-582730D01*
Y-582276D01*
Y-581823D01*
Y-581369D01*
Y-580916D01*
Y-580462D01*
Y-580009D01*
Y-579555D01*
Y-579101D01*
Y-578648D01*
Y-578194D01*
Y-577741D01*
Y-577287D01*
Y-576834D01*
Y-576380D01*
Y-575927D01*
Y-575473D01*
Y-575019D01*
Y-574566D01*
Y-574112D01*
Y-573659D01*
Y-573205D01*
Y-572752D01*
Y-572298D01*
Y-571844D01*
Y-571391D01*
Y-570937D01*
Y-570484D01*
Y-570030D01*
X1001676D01*
Y-570484D01*
D02*
G37*
G36*
X1055195D02*
Y-570937D01*
Y-571391D01*
Y-571844D01*
Y-572298D01*
Y-572752D01*
Y-573205D01*
Y-573659D01*
Y-574112D01*
Y-574566D01*
Y-575019D01*
Y-575473D01*
Y-575927D01*
Y-576380D01*
Y-576834D01*
Y-577287D01*
Y-577741D01*
Y-578194D01*
Y-578648D01*
Y-579101D01*
Y-579555D01*
Y-580009D01*
Y-580462D01*
Y-580916D01*
Y-581369D01*
Y-581823D01*
Y-582276D01*
Y-582730D01*
Y-583183D01*
Y-583637D01*
Y-584090D01*
Y-584544D01*
Y-584998D01*
Y-585451D01*
Y-585905D01*
Y-586358D01*
Y-586812D01*
Y-587265D01*
Y-587719D01*
Y-588172D01*
Y-588626D01*
Y-589080D01*
Y-589533D01*
Y-589987D01*
Y-590440D01*
Y-590894D01*
Y-591347D01*
Y-591801D01*
Y-592254D01*
Y-592708D01*
Y-593162D01*
Y-593615D01*
Y-594069D01*
Y-594522D01*
Y-594976D01*
Y-595429D01*
Y-595883D01*
Y-596337D01*
Y-596790D01*
Y-597244D01*
Y-597697D01*
Y-598151D01*
Y-598604D01*
Y-599058D01*
Y-599511D01*
Y-599965D01*
Y-600419D01*
Y-600872D01*
Y-601326D01*
Y-601779D01*
Y-602233D01*
Y-602686D01*
Y-603140D01*
Y-603593D01*
Y-604047D01*
Y-604501D01*
Y-604954D01*
Y-605408D01*
Y-605861D01*
Y-606315D01*
Y-606768D01*
Y-607222D01*
Y-607675D01*
Y-608129D01*
Y-608583D01*
Y-609036D01*
Y-609490D01*
Y-609943D01*
Y-610397D01*
Y-610850D01*
Y-611304D01*
Y-611758D01*
Y-612211D01*
Y-612665D01*
Y-613118D01*
Y-613572D01*
Y-614025D01*
Y-614479D01*
Y-614932D01*
Y-615386D01*
Y-615839D01*
Y-616293D01*
Y-616747D01*
Y-617200D01*
Y-617654D01*
Y-618107D01*
Y-618561D01*
Y-619014D01*
Y-619468D01*
Y-619921D01*
Y-620375D01*
Y-620829D01*
Y-621282D01*
Y-621736D01*
Y-622189D01*
Y-622643D01*
Y-623096D01*
Y-623550D01*
Y-624003D01*
Y-624457D01*
Y-624911D01*
Y-625364D01*
Y-625818D01*
Y-626271D01*
Y-626725D01*
Y-627178D01*
Y-627632D01*
Y-628086D01*
Y-628539D01*
Y-628993D01*
Y-629446D01*
Y-629900D01*
Y-630353D01*
Y-630807D01*
Y-631260D01*
Y-631714D01*
X1043857D01*
Y-631260D01*
Y-630807D01*
Y-630353D01*
Y-629900D01*
Y-629446D01*
Y-628993D01*
Y-628539D01*
Y-628086D01*
Y-627632D01*
Y-627178D01*
Y-626725D01*
Y-626271D01*
Y-625818D01*
Y-625364D01*
Y-624911D01*
Y-624457D01*
Y-624003D01*
Y-623550D01*
Y-623096D01*
Y-622643D01*
Y-622189D01*
Y-621736D01*
Y-621282D01*
Y-620829D01*
Y-620375D01*
Y-619921D01*
Y-619468D01*
Y-619014D01*
Y-618561D01*
Y-618107D01*
Y-617654D01*
Y-617200D01*
Y-616747D01*
Y-616293D01*
Y-615839D01*
Y-615386D01*
Y-614932D01*
Y-614479D01*
Y-614025D01*
Y-613572D01*
Y-613118D01*
Y-612665D01*
Y-612211D01*
Y-611758D01*
Y-611304D01*
Y-610850D01*
Y-610397D01*
Y-609943D01*
Y-609490D01*
Y-609036D01*
Y-608583D01*
Y-608129D01*
Y-607675D01*
Y-607222D01*
Y-606768D01*
Y-606315D01*
Y-605861D01*
Y-605408D01*
Y-604954D01*
Y-604501D01*
Y-604047D01*
Y-603593D01*
Y-603140D01*
Y-602686D01*
Y-602233D01*
Y-601779D01*
Y-601326D01*
Y-600872D01*
Y-600419D01*
Y-599965D01*
Y-599511D01*
Y-599058D01*
Y-598604D01*
Y-598151D01*
Y-597697D01*
Y-597244D01*
Y-596790D01*
Y-596337D01*
Y-595883D01*
Y-595429D01*
Y-594976D01*
Y-594522D01*
Y-594069D01*
Y-593615D01*
Y-593162D01*
Y-592708D01*
Y-592254D01*
Y-591801D01*
Y-591347D01*
Y-590894D01*
Y-590440D01*
Y-589987D01*
Y-589533D01*
Y-589080D01*
Y-588626D01*
Y-588172D01*
Y-587719D01*
Y-587265D01*
Y-586812D01*
Y-586358D01*
Y-585905D01*
Y-585451D01*
Y-584998D01*
Y-584544D01*
Y-584090D01*
Y-583637D01*
Y-583183D01*
Y-582730D01*
Y-582276D01*
Y-581823D01*
Y-581369D01*
Y-580916D01*
Y-580462D01*
Y-580009D01*
Y-579555D01*
Y-579101D01*
Y-578648D01*
Y-578194D01*
Y-577741D01*
Y-577287D01*
Y-576834D01*
Y-576380D01*
Y-575927D01*
Y-575473D01*
Y-575019D01*
Y-574566D01*
Y-574112D01*
Y-573659D01*
Y-573205D01*
Y-572752D01*
Y-572298D01*
Y-571844D01*
Y-571391D01*
Y-570937D01*
Y-570484D01*
Y-570030D01*
X1055195D01*
Y-570484D01*
D02*
G37*
G36*
X1091480Y-587265D02*
X1093748D01*
Y-587719D01*
X1095108D01*
Y-588172D01*
X1096469D01*
Y-588626D01*
X1097376D01*
Y-589080D01*
X1098283D01*
Y-589533D01*
X1099190D01*
Y-589987D01*
X1100098D01*
Y-590440D01*
X1100551D01*
Y-590894D01*
X1101458D01*
Y-591347D01*
X1101912D01*
Y-591801D01*
X1102365D01*
Y-592254D01*
X1102819D01*
Y-592708D01*
X1103272D01*
Y-593162D01*
X1103726D01*
Y-593615D01*
X1104180D01*
Y-594069D01*
X1104633D01*
Y-594522D01*
X1105087D01*
Y-594976D01*
Y-595429D01*
X1105540D01*
Y-595883D01*
X1105994D01*
Y-596337D01*
Y-596790D01*
X1106447D01*
Y-597244D01*
Y-597697D01*
X1106901D01*
Y-598151D01*
Y-598604D01*
X1107354D01*
Y-599058D01*
Y-599511D01*
X1107808D01*
Y-599965D01*
Y-600419D01*
Y-600872D01*
X1108261D01*
Y-601326D01*
Y-601779D01*
Y-602233D01*
Y-602686D01*
Y-603140D01*
X1108715D01*
Y-603593D01*
Y-604047D01*
Y-604501D01*
Y-604954D01*
Y-605408D01*
Y-605861D01*
Y-606315D01*
X1109169D01*
Y-606768D01*
Y-607222D01*
Y-607675D01*
Y-608129D01*
Y-608583D01*
Y-609036D01*
Y-609490D01*
Y-609943D01*
Y-610397D01*
Y-610850D01*
Y-611304D01*
Y-611758D01*
Y-612211D01*
Y-612665D01*
Y-613118D01*
X1108715D01*
Y-613572D01*
Y-614025D01*
Y-614479D01*
Y-614932D01*
Y-615386D01*
Y-615839D01*
Y-616293D01*
X1108261D01*
Y-616747D01*
Y-617200D01*
Y-617654D01*
Y-618107D01*
X1107808D01*
Y-618561D01*
Y-619014D01*
Y-619468D01*
X1107354D01*
Y-619921D01*
Y-620375D01*
Y-620829D01*
X1106901D01*
Y-621282D01*
Y-621736D01*
X1106447D01*
Y-622189D01*
Y-622643D01*
X1105994D01*
Y-623096D01*
Y-623550D01*
X1105540D01*
Y-624003D01*
X1105087D01*
Y-624457D01*
X1104633D01*
Y-624911D01*
Y-625364D01*
X1104180D01*
Y-625818D01*
X1103726D01*
Y-626271D01*
X1103272D01*
Y-626725D01*
X1102819D01*
Y-627178D01*
X1102365D01*
Y-627632D01*
X1101912D01*
Y-628086D01*
X1101005D01*
Y-628539D01*
X1100551D01*
Y-628993D01*
X1099644D01*
Y-629446D01*
X1099190D01*
Y-629900D01*
X1098283D01*
Y-630353D01*
X1097376D01*
Y-630807D01*
X1096015D01*
Y-631260D01*
X1094655D01*
Y-631714D01*
X1093294D01*
Y-632168D01*
X1091026D01*
Y-632621D01*
X1081502D01*
Y-632168D01*
X1078780D01*
Y-631714D01*
X1076966D01*
Y-631260D01*
X1076059D01*
Y-630807D01*
X1074698D01*
Y-630353D01*
X1073791D01*
Y-629900D01*
X1072884D01*
Y-629446D01*
X1072430D01*
Y-628993D01*
X1071523D01*
Y-628539D01*
X1071070D01*
Y-628086D01*
X1070163D01*
Y-627632D01*
X1069709D01*
Y-627178D01*
X1069256D01*
Y-626725D01*
X1068802D01*
Y-626271D01*
X1068348D01*
Y-625818D01*
X1067895D01*
Y-625364D01*
X1067441D01*
Y-624911D01*
Y-624457D01*
X1066988D01*
Y-624003D01*
X1066534D01*
Y-623550D01*
X1066081D01*
Y-623096D01*
Y-622643D01*
X1065627D01*
Y-622189D01*
Y-621736D01*
X1065174D01*
Y-621282D01*
Y-620829D01*
X1064720D01*
Y-620375D01*
Y-619921D01*
Y-619468D01*
X1064267D01*
Y-619014D01*
Y-618561D01*
Y-618107D01*
X1063813D01*
Y-617654D01*
Y-617200D01*
Y-616747D01*
Y-616293D01*
X1063359D01*
Y-615839D01*
Y-615386D01*
Y-614932D01*
Y-614479D01*
Y-614025D01*
Y-613572D01*
Y-613118D01*
Y-612665D01*
X1062906D01*
Y-612211D01*
Y-611758D01*
Y-611304D01*
Y-610850D01*
Y-610397D01*
Y-609943D01*
Y-609490D01*
Y-609036D01*
Y-608583D01*
Y-608129D01*
Y-607675D01*
Y-607222D01*
Y-606768D01*
X1063359D01*
Y-606315D01*
Y-605861D01*
Y-605408D01*
Y-604954D01*
Y-604501D01*
Y-604047D01*
Y-603593D01*
Y-603140D01*
X1063813D01*
Y-602686D01*
Y-602233D01*
Y-601779D01*
Y-601326D01*
X1064267D01*
Y-600872D01*
Y-600419D01*
Y-599965D01*
X1064720D01*
Y-599511D01*
Y-599058D01*
Y-598604D01*
X1065174D01*
Y-598151D01*
Y-597697D01*
X1065627D01*
Y-597244D01*
Y-596790D01*
X1066081D01*
Y-596337D01*
Y-595883D01*
X1066534D01*
Y-595429D01*
X1066988D01*
Y-594976D01*
Y-594522D01*
X1067441D01*
Y-594069D01*
X1067895D01*
Y-593615D01*
X1068348D01*
Y-593162D01*
X1068802D01*
Y-592708D01*
X1069256D01*
Y-592254D01*
X1069709D01*
Y-591801D01*
X1070163D01*
Y-591347D01*
X1070616D01*
Y-590894D01*
X1071523D01*
Y-590440D01*
X1071977D01*
Y-589987D01*
X1072884D01*
Y-589533D01*
X1073791D01*
Y-589080D01*
X1074698D01*
Y-588626D01*
X1075605D01*
Y-588172D01*
X1076966D01*
Y-587719D01*
X1078327D01*
Y-587265D01*
X1080595D01*
Y-586812D01*
X1091480D01*
Y-587265D01*
D02*
G37*
G36*
X1157245Y-588172D02*
X1156792D01*
Y-588626D01*
Y-589080D01*
X1156338D01*
Y-589533D01*
X1155885D01*
Y-589987D01*
X1155431D01*
Y-590440D01*
Y-590894D01*
X1154978D01*
Y-591347D01*
X1154524D01*
Y-591801D01*
Y-592254D01*
X1154071D01*
Y-592708D01*
X1153617D01*
Y-593162D01*
X1153164D01*
Y-593615D01*
Y-594069D01*
X1152710D01*
Y-594522D01*
X1152256D01*
Y-594976D01*
X1151803D01*
Y-595429D01*
Y-595883D01*
X1151349D01*
Y-596337D01*
X1150896D01*
Y-596790D01*
X1150442D01*
Y-597244D01*
Y-597697D01*
X1149989D01*
Y-598151D01*
X1149535D01*
Y-598604D01*
Y-599058D01*
X1149081D01*
Y-599511D01*
X1148628D01*
Y-599965D01*
X1148174D01*
Y-600419D01*
Y-600872D01*
X1147721D01*
Y-601326D01*
X1147267D01*
Y-601779D01*
X1146814D01*
Y-602233D01*
Y-602686D01*
X1146360D01*
Y-603140D01*
X1145907D01*
Y-603593D01*
Y-604047D01*
X1145453D01*
Y-604501D01*
X1144999D01*
Y-604954D01*
X1144546D01*
Y-605408D01*
Y-605861D01*
X1144092D01*
Y-606315D01*
X1143639D01*
Y-606768D01*
X1143185D01*
Y-607222D01*
Y-607675D01*
X1142732D01*
Y-608129D01*
X1142278D01*
Y-608583D01*
X1141825D01*
Y-609036D01*
Y-609490D01*
Y-609943D01*
X1142278D01*
Y-610397D01*
Y-610850D01*
X1142732D01*
Y-611304D01*
X1143185D01*
Y-611758D01*
X1143639D01*
Y-612211D01*
Y-612665D01*
X1144092D01*
Y-613118D01*
X1144546D01*
Y-613572D01*
X1144999D01*
Y-614025D01*
Y-614479D01*
X1145453D01*
Y-614932D01*
X1145907D01*
Y-615386D01*
Y-615839D01*
X1146360D01*
Y-616293D01*
X1146814D01*
Y-616747D01*
X1147267D01*
Y-617200D01*
Y-617654D01*
X1147721D01*
Y-618107D01*
X1148174D01*
Y-618561D01*
X1148628D01*
Y-619014D01*
Y-619468D01*
X1149081D01*
Y-619921D01*
X1149535D01*
Y-620375D01*
X1149989D01*
Y-620829D01*
Y-621282D01*
X1150442D01*
Y-621736D01*
X1150896D01*
Y-622189D01*
X1151349D01*
Y-622643D01*
Y-623096D01*
X1151803D01*
Y-623550D01*
X1152256D01*
Y-624003D01*
X1152710D01*
Y-624457D01*
Y-624911D01*
X1153164D01*
Y-625364D01*
X1153617D01*
Y-625818D01*
X1154071D01*
Y-626271D01*
Y-626725D01*
X1154524D01*
Y-627178D01*
X1154978D01*
Y-627632D01*
Y-628086D01*
X1155431D01*
Y-628539D01*
X1155885D01*
Y-628993D01*
X1156338D01*
Y-629446D01*
Y-629900D01*
X1156792D01*
Y-630353D01*
X1157245D01*
Y-630807D01*
X1157699D01*
Y-631260D01*
X1158153D01*
Y-631714D01*
X1143639D01*
Y-631260D01*
Y-630807D01*
X1143185D01*
Y-630353D01*
X1142732D01*
Y-629900D01*
X1142278D01*
Y-629446D01*
Y-628993D01*
X1141825D01*
Y-628539D01*
X1141371D01*
Y-628086D01*
X1140918D01*
Y-627632D01*
Y-627178D01*
X1140464D01*
Y-626725D01*
X1140010D01*
Y-626271D01*
Y-625818D01*
X1139557D01*
Y-625364D01*
X1139103D01*
Y-624911D01*
X1138650D01*
Y-624457D01*
Y-624003D01*
X1138196D01*
Y-623550D01*
X1137743D01*
Y-623096D01*
X1137289D01*
Y-622643D01*
Y-622189D01*
X1136835D01*
Y-621736D01*
X1136382D01*
Y-621282D01*
Y-620829D01*
X1135928D01*
Y-620375D01*
X1135475D01*
Y-619921D01*
X1135021D01*
Y-619468D01*
Y-619014D01*
X1134568D01*
Y-618561D01*
X1134114D01*
Y-618107D01*
X1133661D01*
Y-617654D01*
X1133207D01*
Y-618107D01*
Y-618561D01*
X1132754D01*
Y-619014D01*
X1132300D01*
Y-619468D01*
X1131846D01*
Y-619921D01*
Y-620375D01*
X1131393D01*
Y-620829D01*
X1130939D01*
Y-621282D01*
Y-621736D01*
X1130486D01*
Y-622189D01*
X1130032D01*
Y-622643D01*
X1129579D01*
Y-623096D01*
Y-623550D01*
X1129125D01*
Y-624003D01*
X1128671D01*
Y-624457D01*
Y-624911D01*
X1128218D01*
Y-625364D01*
X1127764D01*
Y-625818D01*
X1127311D01*
Y-626271D01*
Y-626725D01*
X1126857D01*
Y-627178D01*
X1126404D01*
Y-627632D01*
Y-628086D01*
X1125950D01*
Y-628539D01*
X1125497D01*
Y-628993D01*
X1125043D01*
Y-629446D01*
Y-629900D01*
X1124589D01*
Y-630353D01*
X1124136D01*
Y-630807D01*
Y-631260D01*
X1123682D01*
Y-631714D01*
X1110529D01*
Y-631260D01*
X1110983D01*
Y-630807D01*
X1111436D01*
Y-630353D01*
Y-629900D01*
X1111890D01*
Y-629446D01*
X1112344D01*
Y-628993D01*
X1112797D01*
Y-628539D01*
Y-628086D01*
X1113251D01*
Y-627632D01*
X1113704D01*
Y-627178D01*
Y-626725D01*
X1114158D01*
Y-626271D01*
X1114611D01*
Y-625818D01*
X1115065D01*
Y-625364D01*
X1115518D01*
Y-624911D01*
Y-624457D01*
X1115972D01*
Y-624003D01*
X1116425D01*
Y-623550D01*
Y-623096D01*
X1116879D01*
Y-622643D01*
X1117333D01*
Y-622189D01*
X1117786D01*
Y-621736D01*
Y-621282D01*
X1118240D01*
Y-620829D01*
X1118693D01*
Y-620375D01*
X1119147D01*
Y-619921D01*
Y-619468D01*
X1119600D01*
Y-619014D01*
X1120054D01*
Y-618561D01*
X1120508D01*
Y-618107D01*
Y-617654D01*
X1120961D01*
Y-617200D01*
X1121415D01*
Y-616747D01*
X1121868D01*
Y-616293D01*
Y-615839D01*
X1122322D01*
Y-615386D01*
X1122775D01*
Y-614932D01*
X1123229D01*
Y-614479D01*
Y-614025D01*
X1123682D01*
Y-613572D01*
X1124136D01*
Y-613118D01*
X1124589D01*
Y-612665D01*
Y-612211D01*
X1125043D01*
Y-611758D01*
X1125497D01*
Y-611304D01*
Y-610850D01*
X1125950D01*
Y-610397D01*
X1126404D01*
Y-609943D01*
X1126857D01*
Y-609490D01*
Y-609036D01*
X1126404D01*
Y-608583D01*
X1125950D01*
Y-608129D01*
X1125497D01*
Y-607675D01*
Y-607222D01*
X1125043D01*
Y-606768D01*
X1124589D01*
Y-606315D01*
X1124136D01*
Y-605861D01*
Y-605408D01*
X1123682D01*
Y-604954D01*
X1123229D01*
Y-604501D01*
Y-604047D01*
X1122775D01*
Y-603593D01*
X1122322D01*
Y-603140D01*
X1121868D01*
Y-602686D01*
Y-602233D01*
X1121415D01*
Y-601779D01*
X1120961D01*
Y-601326D01*
X1120508D01*
Y-600872D01*
Y-600419D01*
X1120054D01*
Y-599965D01*
X1119600D01*
Y-599511D01*
Y-599058D01*
X1119147D01*
Y-598604D01*
X1118693D01*
Y-598151D01*
X1118240D01*
Y-597697D01*
Y-597244D01*
X1117786D01*
Y-596790D01*
X1117333D01*
Y-596337D01*
X1116879D01*
Y-595883D01*
Y-595429D01*
X1116425D01*
Y-594976D01*
X1115972D01*
Y-594522D01*
Y-594069D01*
X1115518D01*
Y-593615D01*
X1115065D01*
Y-593162D01*
X1114611D01*
Y-592708D01*
Y-592254D01*
X1114158D01*
Y-591801D01*
X1113704D01*
Y-591347D01*
X1113251D01*
Y-590894D01*
Y-590440D01*
X1112797D01*
Y-589987D01*
X1112344D01*
Y-589533D01*
Y-589080D01*
X1111890D01*
Y-588626D01*
X1111436D01*
Y-588172D01*
X1110983D01*
Y-587719D01*
X1125043D01*
Y-588172D01*
X1125497D01*
Y-588626D01*
X1125950D01*
Y-589080D01*
Y-589533D01*
X1126404D01*
Y-589987D01*
X1126857D01*
Y-590440D01*
X1127311D01*
Y-590894D01*
Y-591347D01*
X1127764D01*
Y-591801D01*
X1128218D01*
Y-592254D01*
Y-592708D01*
X1128671D01*
Y-593162D01*
X1129125D01*
Y-593615D01*
Y-594069D01*
X1129579D01*
Y-594522D01*
X1130032D01*
Y-594976D01*
X1130486D01*
Y-595429D01*
Y-595883D01*
X1130939D01*
Y-596337D01*
X1131393D01*
Y-596790D01*
Y-597244D01*
X1131846D01*
Y-597697D01*
X1132300D01*
Y-598151D01*
X1132754D01*
Y-598604D01*
Y-599058D01*
X1133207D01*
Y-599511D01*
X1133661D01*
Y-599965D01*
Y-600419D01*
X1134114D01*
Y-600872D01*
X1134568D01*
Y-601326D01*
X1135021D01*
Y-600872D01*
X1135475D01*
Y-600419D01*
Y-599965D01*
X1135928D01*
Y-599511D01*
X1136382D01*
Y-599058D01*
X1136835D01*
Y-598604D01*
Y-598151D01*
X1137289D01*
Y-597697D01*
X1137743D01*
Y-597244D01*
Y-596790D01*
X1138196D01*
Y-596337D01*
X1138650D01*
Y-595883D01*
X1139103D01*
Y-595429D01*
Y-594976D01*
X1139557D01*
Y-594522D01*
X1140010D01*
Y-594069D01*
Y-593615D01*
X1140464D01*
Y-593162D01*
X1140918D01*
Y-592708D01*
X1141371D01*
Y-592254D01*
Y-591801D01*
X1141825D01*
Y-591347D01*
X1142278D01*
Y-590894D01*
Y-590440D01*
X1142732D01*
Y-589987D01*
X1143185D01*
Y-589533D01*
X1143639D01*
Y-589080D01*
Y-588626D01*
X1144092D01*
Y-588172D01*
X1144546D01*
Y-587719D01*
X1157245D01*
Y-588172D01*
D02*
G37*
%LPC*%
G36*
X919582Y-566855D02*
X917314D01*
Y-567309D01*
X915500D01*
Y-567762D01*
X914593D01*
Y-568216D01*
X913686D01*
Y-568670D01*
X912779D01*
Y-569123D01*
X912325D01*
Y-569577D01*
X911872D01*
Y-570030D01*
X911418D01*
Y-570484D01*
X910965D01*
Y-570937D01*
Y-571391D01*
X910511D01*
Y-571844D01*
X910058D01*
Y-572298D01*
Y-572752D01*
X909604D01*
Y-573205D01*
Y-573659D01*
Y-574112D01*
Y-574566D01*
X909150D01*
Y-575019D01*
Y-575473D01*
Y-575927D01*
Y-576380D01*
Y-576834D01*
Y-577287D01*
Y-577741D01*
Y-578194D01*
X909604D01*
Y-578648D01*
Y-579101D01*
Y-579555D01*
X910058D01*
Y-580009D01*
Y-580462D01*
X910511D01*
Y-580916D01*
Y-581369D01*
X910965D01*
Y-581823D01*
X911418D01*
Y-582276D01*
X911872D01*
Y-582730D01*
X912325D01*
Y-583183D01*
X912779D01*
Y-583637D01*
X913232D01*
Y-584090D01*
X914139D01*
Y-584544D01*
X915047D01*
Y-584998D01*
X916407D01*
Y-585451D01*
X920489D01*
Y-584998D01*
X921850D01*
Y-584544D01*
X922757D01*
Y-584090D01*
X923664D01*
Y-583637D01*
X924118D01*
Y-583183D01*
X924571D01*
Y-582730D01*
X925478D01*
Y-582276D01*
Y-581823D01*
X925932D01*
Y-581369D01*
X926385D01*
Y-580916D01*
Y-580462D01*
X926839D01*
Y-580009D01*
Y-579555D01*
X927293D01*
Y-579101D01*
Y-578648D01*
Y-578194D01*
X927746D01*
Y-577741D01*
Y-577287D01*
Y-576834D01*
Y-576380D01*
Y-575927D01*
Y-575473D01*
Y-575019D01*
Y-574566D01*
X927293D01*
Y-574112D01*
Y-573659D01*
Y-573205D01*
Y-572752D01*
X926839D01*
Y-572298D01*
Y-571844D01*
X926385D01*
Y-571391D01*
Y-570937D01*
X925932D01*
Y-570484D01*
X925478D01*
Y-570030D01*
X925025D01*
Y-569577D01*
X924571D01*
Y-569123D01*
X924118D01*
Y-568670D01*
X923211D01*
Y-568216D01*
X922757D01*
Y-567762D01*
X921396D01*
Y-567309D01*
X919582D01*
Y-566855D01*
D02*
G37*
G36*
X1014375Y-596790D02*
X1010293D01*
Y-597244D01*
X1008479D01*
Y-597697D01*
X1007119D01*
Y-598151D01*
X1006211D01*
Y-598604D01*
X1005758D01*
Y-599058D01*
X1004851D01*
Y-599511D01*
X1004397D01*
Y-599965D01*
X1003944D01*
Y-600419D01*
Y-600872D01*
X1003490D01*
Y-601326D01*
X1003036D01*
Y-601779D01*
Y-602233D01*
X1002583D01*
Y-602686D01*
Y-603140D01*
X1002129D01*
Y-603593D01*
Y-604047D01*
Y-604501D01*
X1001676D01*
Y-604954D01*
Y-605408D01*
Y-605861D01*
Y-606315D01*
Y-606768D01*
X1001222D01*
Y-607222D01*
Y-607675D01*
Y-608129D01*
Y-608583D01*
Y-609036D01*
Y-609490D01*
Y-609943D01*
Y-610397D01*
Y-610850D01*
Y-611304D01*
Y-611758D01*
Y-612211D01*
Y-612665D01*
X1001676D01*
Y-613118D01*
Y-613572D01*
Y-614025D01*
Y-614479D01*
Y-614932D01*
X1002129D01*
Y-615386D01*
Y-615839D01*
Y-616293D01*
X1002583D01*
Y-616747D01*
Y-617200D01*
X1003036D01*
Y-617654D01*
Y-618107D01*
X1003490D01*
Y-618561D01*
X1003944D01*
Y-619014D01*
X1004397D01*
Y-619468D01*
X1004851D01*
Y-619921D01*
X1005304D01*
Y-620375D01*
X1005758D01*
Y-620829D01*
X1006665D01*
Y-621282D01*
X1007572D01*
Y-621736D01*
X1008479D01*
Y-622189D01*
X1010747D01*
Y-622643D01*
X1013922D01*
Y-622189D01*
X1016190D01*
Y-621736D01*
X1017550D01*
Y-621282D01*
X1018457D01*
Y-620829D01*
X1018911D01*
Y-620375D01*
X1019818D01*
Y-619921D01*
X1020272D01*
Y-619468D01*
X1020725D01*
Y-619014D01*
X1021179D01*
Y-618561D01*
Y-618107D01*
X1021632D01*
Y-617654D01*
X1022086D01*
Y-617200D01*
Y-616747D01*
X1022539D01*
Y-616293D01*
Y-615839D01*
Y-615386D01*
X1022993D01*
Y-614932D01*
Y-614479D01*
Y-614025D01*
Y-613572D01*
X1023447D01*
Y-613118D01*
Y-612665D01*
Y-612211D01*
Y-611758D01*
Y-611304D01*
Y-610850D01*
Y-610397D01*
Y-609943D01*
Y-609490D01*
Y-609036D01*
Y-608583D01*
Y-608129D01*
Y-607675D01*
Y-607222D01*
Y-606768D01*
Y-606315D01*
Y-605861D01*
Y-605408D01*
X1022993D01*
Y-604954D01*
Y-604501D01*
Y-604047D01*
Y-603593D01*
X1022539D01*
Y-603140D01*
Y-602686D01*
X1022086D01*
Y-602233D01*
Y-601779D01*
X1021632D01*
Y-601326D01*
Y-600872D01*
X1021179D01*
Y-600419D01*
X1020725D01*
Y-599965D01*
X1020272D01*
Y-599511D01*
X1019818D01*
Y-599058D01*
X1019364D01*
Y-598604D01*
X1018457D01*
Y-598151D01*
X1017550D01*
Y-597697D01*
X1016643D01*
Y-597244D01*
X1014375D01*
Y-596790D01*
D02*
G37*
G36*
X1088305D02*
X1083769D01*
Y-597244D01*
X1081955D01*
Y-597697D01*
X1080595D01*
Y-598151D01*
X1079688D01*
Y-598604D01*
X1079234D01*
Y-599058D01*
X1078780D01*
Y-599511D01*
X1078327D01*
Y-599965D01*
X1077873D01*
Y-600419D01*
X1077420D01*
Y-600872D01*
X1076966D01*
Y-601326D01*
X1076513D01*
Y-601779D01*
Y-602233D01*
X1076059D01*
Y-602686D01*
Y-603140D01*
X1075605D01*
Y-603593D01*
Y-604047D01*
Y-604501D01*
X1075152D01*
Y-604954D01*
Y-605408D01*
Y-605861D01*
Y-606315D01*
Y-606768D01*
Y-607222D01*
Y-607675D01*
X1074698D01*
Y-608129D01*
Y-608583D01*
Y-609036D01*
Y-609490D01*
Y-609943D01*
Y-610397D01*
Y-610850D01*
Y-611304D01*
X1075152D01*
Y-611758D01*
Y-612211D01*
Y-612665D01*
Y-613118D01*
Y-613572D01*
Y-614025D01*
Y-614479D01*
X1075605D01*
Y-614932D01*
Y-615386D01*
Y-615839D01*
X1076059D01*
Y-616293D01*
Y-616747D01*
Y-617200D01*
X1076513D01*
Y-617654D01*
X1076966D01*
Y-618107D01*
Y-618561D01*
X1077420D01*
Y-619014D01*
X1077873D01*
Y-619468D01*
X1078327D01*
Y-619921D01*
X1078780D01*
Y-620375D01*
X1079234D01*
Y-620829D01*
X1080141D01*
Y-621282D01*
X1081048D01*
Y-621736D01*
X1082409D01*
Y-622189D01*
X1084677D01*
Y-622643D01*
X1087398D01*
Y-622189D01*
X1089666D01*
Y-621736D01*
X1091026D01*
Y-621282D01*
X1091934D01*
Y-620829D01*
X1092841D01*
Y-620375D01*
X1093294D01*
Y-619921D01*
X1093748D01*
Y-619468D01*
X1094201D01*
Y-619014D01*
X1094655D01*
Y-618561D01*
X1095108D01*
Y-618107D01*
Y-617654D01*
X1095562D01*
Y-617200D01*
X1096015D01*
Y-616747D01*
Y-616293D01*
Y-615839D01*
X1096469D01*
Y-615386D01*
Y-614932D01*
Y-614479D01*
X1096923D01*
Y-614025D01*
Y-613572D01*
Y-613118D01*
Y-612665D01*
Y-612211D01*
X1097376D01*
Y-611758D01*
Y-611304D01*
Y-610850D01*
Y-610397D01*
Y-609943D01*
Y-609490D01*
Y-609036D01*
Y-608583D01*
Y-608129D01*
Y-607675D01*
Y-607222D01*
X1096923D01*
Y-606768D01*
Y-606315D01*
Y-605861D01*
Y-605408D01*
Y-604954D01*
Y-604501D01*
X1096469D01*
Y-604047D01*
Y-603593D01*
Y-603140D01*
X1096015D01*
Y-602686D01*
Y-602233D01*
X1095562D01*
Y-601779D01*
Y-601326D01*
X1095108D01*
Y-600872D01*
X1094655D01*
Y-600419D01*
X1094201D01*
Y-599965D01*
X1093748D01*
Y-599511D01*
X1093294D01*
Y-599058D01*
X1092841D01*
Y-598604D01*
X1091934D01*
Y-598151D01*
X1091480D01*
Y-597697D01*
X1090119D01*
Y-597244D01*
X1088305D01*
Y-596790D01*
D02*
G37*
%LPD*%
D11*
X2161655Y-46814D02*
X2161364Y-46233D01*
X2160784Y-45652D01*
X2160203Y-45362D01*
X2159041D01*
X2158460Y-45652D01*
X2157879Y-46233D01*
X2157589Y-46814D01*
X2157299Y-47685D01*
Y-49137D01*
X2157589Y-50009D01*
X2157879Y-50589D01*
X2158460Y-51170D01*
X2159041Y-51460D01*
X2160203D01*
X2160784Y-51170D01*
X2161364Y-50589D01*
X2161655Y-50009D01*
X2164820Y-47395D02*
X2164240Y-47685D01*
X2163659Y-48266D01*
X2163368Y-49137D01*
Y-49718D01*
X2163659Y-50589D01*
X2164240Y-51170D01*
X2164820Y-51460D01*
X2165692D01*
X2166272Y-51170D01*
X2166853Y-50589D01*
X2167144Y-49718D01*
Y-49137D01*
X2166853Y-48266D01*
X2166272Y-47685D01*
X2165692Y-47395D01*
X2164820D01*
X2168480D02*
Y-50299D01*
X2168770Y-51170D01*
X2169351Y-51460D01*
X2170222D01*
X2170803Y-51170D01*
X2171674Y-50299D01*
Y-47395D02*
Y-51460D01*
X2174143Y-45362D02*
Y-50299D01*
X2174433Y-51170D01*
X2175014Y-51460D01*
X2175595D01*
X2173271Y-47395D02*
X2175304D01*
X2176466D02*
Y-51460D01*
Y-49137D02*
X2176756Y-48266D01*
X2177337Y-47685D01*
X2177918Y-47395D01*
X2178789D01*
X2179632D02*
X2181374Y-51460D01*
X2183116Y-47395D02*
X2181374Y-51460D01*
X2180793Y-52622D01*
X2180212Y-53203D01*
X2179632Y-53493D01*
X2179341D01*
X2187618Y-47395D02*
Y-51460D01*
Y-48266D02*
X2187037Y-47685D01*
X2186456Y-47395D01*
X2185585D01*
X2185004Y-47685D01*
X2184423Y-48266D01*
X2184133Y-49137D01*
Y-49718D01*
X2184423Y-50589D01*
X2185004Y-51170D01*
X2185585Y-51460D01*
X2186456D01*
X2187037Y-51170D01*
X2187618Y-50589D01*
X2189244Y-47395D02*
Y-51460D01*
Y-49137D02*
X2189535Y-48266D01*
X2190115Y-47685D01*
X2190696Y-47395D01*
X2191567D01*
X2195604Y-45362D02*
Y-51460D01*
Y-48266D02*
X2195023Y-47685D01*
X2194443Y-47395D01*
X2193571D01*
X2192991Y-47685D01*
X2192410Y-48266D01*
X2192119Y-49137D01*
Y-49718D01*
X2192410Y-50589D01*
X2192991Y-51170D01*
X2193571Y-51460D01*
X2194443D01*
X2195023Y-51170D01*
X2195604Y-50589D01*
X2202022Y-45362D02*
Y-51460D01*
Y-45362D02*
X2204636D01*
X2205507Y-45652D01*
X2205798Y-45943D01*
X2206088Y-46523D01*
Y-47104D01*
X2205798Y-47685D01*
X2205507Y-47976D01*
X2204636Y-48266D01*
X2202022D02*
X2204636D01*
X2205507Y-48556D01*
X2205798Y-48847D01*
X2206088Y-49428D01*
Y-50299D01*
X2205798Y-50880D01*
X2205507Y-51170D01*
X2204636Y-51460D01*
X2202022D01*
X2208905Y-47395D02*
X2208324Y-47685D01*
X2207744Y-48266D01*
X2207453Y-49137D01*
Y-49718D01*
X2207744Y-50589D01*
X2208324Y-51170D01*
X2208905Y-51460D01*
X2209776D01*
X2210357Y-51170D01*
X2210938Y-50589D01*
X2211228Y-49718D01*
Y-49137D01*
X2210938Y-48266D01*
X2210357Y-47685D01*
X2209776Y-47395D01*
X2208905D01*
X2213436Y-45362D02*
Y-50299D01*
X2213726Y-51170D01*
X2214307Y-51460D01*
X2214888D01*
X2212564Y-47395D02*
X2214597D01*
X2216630Y-45362D02*
Y-50299D01*
X2216920Y-51170D01*
X2217501Y-51460D01*
X2218082D01*
X2215759Y-47395D02*
X2217792D01*
X2220405D02*
X2219825Y-47685D01*
X2219244Y-48266D01*
X2218953Y-49137D01*
Y-49718D01*
X2219244Y-50589D01*
X2219825Y-51170D01*
X2220405Y-51460D01*
X2221277D01*
X2221858Y-51170D01*
X2222438Y-50589D01*
X2222729Y-49718D01*
Y-49137D01*
X2222438Y-48266D01*
X2221858Y-47685D01*
X2221277Y-47395D01*
X2220405D01*
X2224065D02*
Y-51460D01*
Y-48556D02*
X2224936Y-47685D01*
X2225517Y-47395D01*
X2226388D01*
X2226969Y-47685D01*
X2227259Y-48556D01*
Y-51460D01*
Y-48556D02*
X2228130Y-47685D01*
X2228711Y-47395D01*
X2229583D01*
X2230163Y-47685D01*
X2230454Y-48556D01*
Y-51460D01*
X-329019Y1104464D02*
X-331342Y1110563D01*
X-333665Y1104464D01*
X-332794Y1106497D02*
X-329890D01*
X-333665Y570813D02*
Y564714D01*
Y570813D02*
X-331052D01*
X-330180Y570523D01*
X-329890Y570232D01*
X-329600Y569651D01*
Y569071D01*
X-329890Y568490D01*
X-330180Y568199D01*
X-331052Y567909D01*
X-333665D02*
X-331052D01*
X-330180Y567618D01*
X-329890Y567328D01*
X-329600Y566747D01*
Y565876D01*
X-329890Y565295D01*
X-330180Y565005D01*
X-331052Y564714D01*
X-333665D01*
X-329309Y29611D02*
X-329600Y30192D01*
X-330180Y30773D01*
X-330761Y31063D01*
X-331923D01*
X-332504Y30773D01*
X-333084Y30192D01*
X-333375Y29611D01*
X-333665Y28740D01*
Y27288D01*
X-333375Y26416D01*
X-333084Y25836D01*
X-332504Y25255D01*
X-331923Y24964D01*
X-330761D01*
X-330180Y25255D01*
X-329600Y25836D01*
X-329309Y26416D01*
X-333665Y-507417D02*
Y-513516D01*
Y-507417D02*
X-331632D01*
X-330761Y-507707D01*
X-330180Y-508288D01*
X-329890Y-508869D01*
X-329600Y-509740D01*
Y-511192D01*
X-329890Y-512064D01*
X-330180Y-512644D01*
X-330761Y-513225D01*
X-331632Y-513516D01*
X-333665D01*
X-9476Y-740227D02*
X-8895Y-739936D01*
X-8024Y-739065D01*
Y-745164D01*
X689483Y-740517D02*
Y-740227D01*
X689773Y-739646D01*
X690064Y-739355D01*
X690645Y-739065D01*
X691806D01*
X692387Y-739355D01*
X692678Y-739646D01*
X692968Y-740227D01*
Y-740807D01*
X692678Y-741388D01*
X692097Y-742260D01*
X689193Y-745164D01*
X693258D01*
X1387003Y-739065D02*
X1390198D01*
X1388456Y-741388D01*
X1389327D01*
X1389908Y-741679D01*
X1390198Y-741969D01*
X1390488Y-742840D01*
Y-743421D01*
X1390198Y-744292D01*
X1389617Y-744873D01*
X1388746Y-745164D01*
X1387875D01*
X1387003Y-744873D01*
X1386713Y-744583D01*
X1386423Y-744002D01*
X2088083Y-739065D02*
X2085179Y-743131D01*
X2089536D01*
X2088083Y-739065D02*
Y-745164D01*
X-9476Y1367973D02*
X-8895Y1368264D01*
X-8024Y1369135D01*
Y1363036D01*
X689483Y1367683D02*
Y1367973D01*
X689773Y1368554D01*
X690064Y1368845D01*
X690645Y1369135D01*
X691806D01*
X692387Y1368845D01*
X692678Y1368554D01*
X692968Y1367973D01*
Y1367393D01*
X692678Y1366812D01*
X692097Y1365941D01*
X689193Y1363036D01*
X693258D01*
X1387003Y1369135D02*
X1390198D01*
X1388456Y1366812D01*
X1389327D01*
X1389908Y1366521D01*
X1390198Y1366231D01*
X1390488Y1365360D01*
Y1364779D01*
X1390198Y1363908D01*
X1389617Y1363327D01*
X1388746Y1363036D01*
X1387875D01*
X1387003Y1363327D01*
X1386713Y1363617D01*
X1386423Y1364198D01*
X2088083Y1369135D02*
X2085179Y1365069D01*
X2089536D01*
X2088083Y1369135D02*
Y1363036D01*
X2414181Y1104464D02*
X2411858Y1110563D01*
X2409535Y1104464D01*
X2410406Y1106497D02*
X2413310D01*
X2409535Y570813D02*
Y564714D01*
Y570813D02*
X2412148D01*
X2413020Y570523D01*
X2413310Y570232D01*
X2413600Y569651D01*
Y569071D01*
X2413310Y568490D01*
X2413020Y568199D01*
X2412148Y567909D01*
X2409535D02*
X2412148D01*
X2413020Y567618D01*
X2413310Y567328D01*
X2413600Y566747D01*
Y565876D01*
X2413310Y565295D01*
X2413020Y565005D01*
X2412148Y564714D01*
X2409535D01*
X2413891Y29611D02*
X2413600Y30192D01*
X2413020Y30773D01*
X2412439Y31063D01*
X2411277D01*
X2410696Y30773D01*
X2410116Y30192D01*
X2409825Y29611D01*
X2409535Y28740D01*
Y27288D01*
X2409825Y26416D01*
X2410116Y25836D01*
X2410696Y25255D01*
X2411277Y24964D01*
X2412439D01*
X2413020Y25255D01*
X2413600Y25836D01*
X2413891Y26416D01*
X2409535Y-507417D02*
Y-513516D01*
Y-507417D02*
X2411568D01*
X2412439Y-507707D01*
X2413020Y-508288D01*
X2413310Y-508869D01*
X2413600Y-509740D01*
Y-511192D01*
X2413310Y-512064D01*
X2413020Y-512644D01*
X2412439Y-513225D01*
X2411568Y-513516D01*
X2409535D01*
X2103959Y225656D02*
Y219557D01*
X2107444D01*
X2112758D02*
X2110435Y225656D01*
X2108112Y219557D01*
X2108983Y221590D02*
X2111887D01*
X2114181Y225656D02*
X2116505Y222752D01*
Y219557D01*
X2118828Y225656D02*
X2116505Y222752D01*
X2123387Y225656D02*
X2119612D01*
Y219557D01*
X2123387D01*
X2119612Y222752D02*
X2121935D01*
X2124404Y225656D02*
Y219557D01*
Y225656D02*
X2127018D01*
X2127889Y225366D01*
X2128179Y225075D01*
X2128470Y224494D01*
Y223914D01*
X2128179Y223333D01*
X2127889Y223042D01*
X2127018Y222752D01*
X2124404D01*
X2126437D02*
X2128470Y219557D01*
X2134626Y225656D02*
Y221300D01*
X2134917Y220429D01*
X2135498Y219848D01*
X2136369Y219557D01*
X2136950D01*
X2137821Y219848D01*
X2138402Y220429D01*
X2138692Y221300D01*
Y225656D01*
X2144442Y224785D02*
X2143862Y225366D01*
X2142990Y225656D01*
X2141829D01*
X2140957Y225366D01*
X2140376Y224785D01*
Y224204D01*
X2140667Y223623D01*
X2140957Y223333D01*
X2141538Y223042D01*
X2143281Y222461D01*
X2143862Y222171D01*
X2144152Y221881D01*
X2144442Y221300D01*
Y220429D01*
X2143862Y219848D01*
X2142990Y219557D01*
X2141829D01*
X2140957Y219848D01*
X2140376Y220429D01*
X2150454Y219557D02*
X2148131Y225656D01*
X2145807Y219557D01*
X2146678Y221590D02*
X2149583D01*
X2156233Y224204D02*
X2155943Y224785D01*
X2155362Y225366D01*
X2154781Y225656D01*
X2153619D01*
X2153038Y225366D01*
X2152458Y224785D01*
X2152167Y224204D01*
X2151877Y223333D01*
Y221881D01*
X2152167Y221009D01*
X2152458Y220429D01*
X2153038Y219848D01*
X2153619Y219557D01*
X2154781D01*
X2155362Y219848D01*
X2155943Y220429D01*
X2156233Y221009D01*
Y221881D01*
X2154781D02*
X2156233D01*
X2161402Y225656D02*
X2157627D01*
Y219557D01*
X2161402D01*
X2157627Y222752D02*
X2159950D01*
X1895245Y1304016D02*
Y1310114D01*
X1898294D01*
X1899310Y1309098D01*
Y1307065D01*
X1898294Y1306049D01*
X1895245D01*
X1897277D02*
X1899310Y1304016D01*
X1905408Y1310114D02*
X1901343D01*
Y1304016D01*
X1905408D01*
X1901343Y1307065D02*
X1903375D01*
X1907441Y1310114D02*
Y1306049D01*
X1909473Y1304016D01*
X1911506Y1306049D01*
Y1310114D01*
X1913539D02*
X1915571D01*
X1914555D01*
Y1304016D01*
X1913539D01*
X1915571D01*
X1922686Y1309098D02*
X1921669Y1310114D01*
X1919637D01*
X1918620Y1309098D01*
Y1308082D01*
X1919637Y1307065D01*
X1921669D01*
X1922686Y1306049D01*
Y1305033D01*
X1921669Y1304016D01*
X1919637D01*
X1918620Y1305033D01*
X1924718Y1310114D02*
X1926751D01*
X1925735D01*
Y1304016D01*
X1924718D01*
X1926751D01*
X1932849Y1310114D02*
X1930816D01*
X1929800Y1309098D01*
Y1305033D01*
X1930816Y1304016D01*
X1932849D01*
X1933865Y1305033D01*
Y1309098D01*
X1932849Y1310114D01*
X1935898Y1304016D02*
Y1310114D01*
X1939963Y1304016D01*
Y1310114D01*
X1537105Y1260836D02*
Y1266934D01*
X1540154D01*
X1541170Y1265918D01*
Y1263885D01*
X1540154Y1262869D01*
X1537105D01*
X1539137D02*
X1541170Y1260836D01*
X1547268Y1266934D02*
X1543203D01*
Y1260836D01*
X1547268D01*
X1543203Y1263885D02*
X1545235D01*
X1549301Y1266934D02*
Y1262869D01*
X1551333Y1260836D01*
X1553366Y1262869D01*
Y1266934D01*
X1646325D02*
Y1260836D01*
X1649374D01*
X1650390Y1261853D01*
Y1265918D01*
X1649374Y1266934D01*
X1646325D01*
X1656488D02*
X1652423D01*
Y1260836D01*
X1656488D01*
X1652423Y1263885D02*
X1654455D01*
X1662586Y1265918D02*
X1661570Y1266934D01*
X1659537D01*
X1658521Y1265918D01*
Y1264902D01*
X1659537Y1263885D01*
X1661570D01*
X1662586Y1262869D01*
Y1261853D01*
X1661570Y1260836D01*
X1659537D01*
X1658521Y1261853D01*
X1668684Y1265918D02*
X1667668Y1266934D01*
X1665635D01*
X1664619Y1265918D01*
Y1261853D01*
X1665635Y1260836D01*
X1667668D01*
X1668684Y1261853D01*
X1670717Y1260836D02*
Y1266934D01*
X1673766D01*
X1674782Y1265918D01*
Y1263885D01*
X1673766Y1262869D01*
X1670717D01*
X1672749D02*
X1674782Y1260836D01*
X1676815Y1266934D02*
X1678847D01*
X1677831D01*
Y1260836D01*
X1676815D01*
X1678847D01*
X1681896D02*
Y1266934D01*
X1684945D01*
X1685962Y1265918D01*
Y1263885D01*
X1684945Y1262869D01*
X1681896D01*
X1687994Y1266934D02*
X1692060D01*
X1690027D01*
Y1260836D01*
X1694092Y1266934D02*
X1696125D01*
X1695109D01*
Y1260836D01*
X1694092D01*
X1696125D01*
X1702223Y1266934D02*
X1700190D01*
X1699174Y1265918D01*
Y1261853D01*
X1700190Y1260836D01*
X1702223D01*
X1703239Y1261853D01*
Y1265918D01*
X1702223Y1266934D01*
X1705272Y1260836D02*
Y1266934D01*
X1709337Y1260836D01*
Y1266934D01*
X2144165D02*
Y1260836D01*
X2147214D01*
X2148230Y1261853D01*
Y1265918D01*
X2147214Y1266934D01*
X2144165D01*
X2150263Y1260836D02*
Y1264902D01*
X2152295Y1266934D01*
X2154328Y1264902D01*
Y1260836D01*
Y1263885D01*
X2150263D01*
X2156361Y1266934D02*
X2160426D01*
X2158393D01*
Y1260836D01*
X2166524Y1266934D02*
X2162459D01*
Y1260836D01*
X2166524D01*
X2162459Y1263885D02*
X2164491D01*
X2304185Y1266934D02*
Y1260836D01*
X2307234D01*
X2308250Y1261853D01*
Y1262869D01*
X2307234Y1263885D01*
X2304185D01*
X2307234D01*
X2308250Y1264902D01*
Y1265918D01*
X2307234Y1266934D01*
X2304185D01*
X2310283D02*
Y1265918D01*
X2312315Y1263885D01*
X2314348Y1265918D01*
Y1266934D01*
X2312315Y1263885D02*
Y1260836D01*
X1537105Y1222736D02*
Y1228834D01*
X1540154D01*
X1541170Y1227818D01*
Y1225785D01*
X1540154Y1224769D01*
X1537105D01*
X1539137D02*
X1541170Y1222736D01*
X1546252D02*
X1544219D01*
X1543203Y1223753D01*
Y1225785D01*
X1544219Y1226802D01*
X1546252D01*
X1547268Y1225785D01*
Y1224769D01*
X1543203D01*
X1549301Y1226802D02*
X1551333Y1222736D01*
X1553366Y1226802D01*
X1555399Y1222736D02*
X1557431D01*
X1556415D01*
Y1228834D01*
X1555399Y1227818D01*
X1646325Y1222736D02*
Y1228834D01*
X1649374D01*
X1650390Y1227818D01*
Y1225785D01*
X1649374Y1224769D01*
X1646325D01*
X1652423Y1226802D02*
Y1222736D01*
Y1224769D01*
X1653439Y1225785D01*
X1654455Y1226802D01*
X1655472D01*
X1659537Y1222736D02*
X1661570D01*
X1662586Y1223753D01*
Y1225785D01*
X1661570Y1226802D01*
X1659537D01*
X1658521Y1225785D01*
Y1223753D01*
X1659537Y1222736D01*
X1665635Y1227818D02*
Y1226802D01*
X1664619D01*
X1666651D01*
X1665635D01*
Y1223753D01*
X1666651Y1222736D01*
X1670717D02*
X1672749D01*
X1673766Y1223753D01*
Y1225785D01*
X1672749Y1226802D01*
X1670717D01*
X1669700Y1225785D01*
Y1223753D01*
X1670717Y1222736D01*
X1676815Y1227818D02*
Y1226802D01*
X1675798D01*
X1677831D01*
X1676815D01*
Y1223753D01*
X1677831Y1222736D01*
X1680880Y1226802D02*
Y1223753D01*
X1681896Y1222736D01*
X1684945D01*
Y1221720D01*
X1683929Y1220704D01*
X1682913D01*
X1684945Y1222736D02*
Y1226802D01*
X1686978Y1220704D02*
Y1226802D01*
X1690027D01*
X1691043Y1225785D01*
Y1223753D01*
X1690027Y1222736D01*
X1686978D01*
X1696125D02*
X1694092D01*
X1693076Y1223753D01*
Y1225785D01*
X1694092Y1226802D01*
X1696125D01*
X1697141Y1225785D01*
Y1224769D01*
X1693076D01*
X1705272Y1222736D02*
Y1228834D01*
X1708321D01*
X1709337Y1227818D01*
Y1225785D01*
X1708321Y1224769D01*
X1705272D01*
X1707305D02*
X1709337Y1222736D01*
X1714419D02*
X1712386D01*
X1711370Y1223753D01*
Y1225785D01*
X1712386Y1226802D01*
X1714419D01*
X1715435Y1225785D01*
Y1224769D01*
X1711370D01*
X1717468Y1222736D02*
X1719501D01*
X1718484D01*
Y1228834D01*
X1717468D01*
X1725599Y1222736D02*
X1723566D01*
X1722550Y1223753D01*
Y1225785D01*
X1723566Y1226802D01*
X1725599D01*
X1726615Y1225785D01*
Y1224769D01*
X1722550D01*
X1729664Y1226802D02*
X1731697D01*
X1732713Y1225785D01*
Y1222736D01*
X1729664D01*
X1728648Y1223753D01*
X1729664Y1224769D01*
X1732713D01*
X1734746Y1222736D02*
X1737795D01*
X1738811Y1223753D01*
X1737795Y1224769D01*
X1735762D01*
X1734746Y1225785D01*
X1735762Y1226802D01*
X1738811D01*
X1743893Y1222736D02*
X1741860D01*
X1740844Y1223753D01*
Y1225785D01*
X1741860Y1226802D01*
X1743893D01*
X1744909Y1225785D01*
Y1224769D01*
X1740844D01*
X2127910Y1220196D02*
X2123845D01*
X2127910Y1224262D01*
Y1225278D01*
X2126894Y1226294D01*
X2124861D01*
X2123845Y1225278D01*
X2129943D02*
X2130959Y1226294D01*
X2132992D01*
X2134008Y1225278D01*
Y1221213D01*
X2132992Y1220196D01*
X2130959D01*
X2129943Y1221213D01*
Y1225278D01*
X2140106Y1220196D02*
X2136041D01*
X2140106Y1224262D01*
Y1225278D01*
X2139090Y1226294D01*
X2137057D01*
X2136041Y1225278D01*
X2146204Y1220196D02*
X2142139D01*
X2146204Y1224262D01*
Y1225278D01*
X2145188Y1226294D01*
X2143155D01*
X2142139Y1225278D01*
X2148237Y1223245D02*
X2152302D01*
X2154335Y1220196D02*
X2156367D01*
X2155351D01*
Y1226294D01*
X2154335Y1225278D01*
X2159416Y1220196D02*
X2161449D01*
X2160433D01*
Y1226294D01*
X2159416Y1225278D01*
X2164498Y1223245D02*
X2168563D01*
X2174661Y1220196D02*
X2170596D01*
X2174661Y1224262D01*
Y1225278D01*
X2173645Y1226294D01*
X2171612D01*
X2170596Y1225278D01*
X2176694D02*
X2177710Y1226294D01*
X2179743D01*
X2180759Y1225278D01*
Y1224262D01*
X2179743Y1223245D01*
X2180759Y1222229D01*
Y1221213D01*
X2179743Y1220196D01*
X2177710D01*
X2176694Y1221213D01*
Y1222229D01*
X2177710Y1223245D01*
X2176694Y1224262D01*
Y1225278D01*
X2177710Y1223245D02*
X2179743D01*
X2291485Y1228834D02*
Y1222736D01*
Y1225785D01*
X2292501Y1226802D01*
X2294534D01*
X2295550Y1225785D01*
Y1222736D01*
X2298599Y1226802D02*
X2300632D01*
X2301648Y1225785D01*
Y1222736D01*
X2298599D01*
X2297583Y1223753D01*
X2298599Y1224769D01*
X2301648D01*
X2303681Y1228834D02*
Y1222736D01*
X2306730D01*
X2307746Y1223753D01*
Y1224769D01*
Y1225785D01*
X2306730Y1226802D01*
X2303681D01*
X2313844Y1228834D02*
Y1222736D01*
X2310795D01*
X2309779Y1223753D01*
Y1225785D01*
X2310795Y1226802D01*
X2313844D01*
X1638641Y1154377D02*
Y1160474D01*
X1641690D01*
X1642706Y1159458D01*
Y1157426D01*
X1641690Y1156409D01*
X1638641D01*
X1644739Y1158442D02*
Y1154377D01*
Y1156409D01*
X1645755Y1157426D01*
X1646771Y1158442D01*
X1647788D01*
X1651853Y1154377D02*
X1653886D01*
X1654902Y1155393D01*
Y1157426D01*
X1653886Y1158442D01*
X1651853D01*
X1650837Y1157426D01*
Y1155393D01*
X1651853Y1154377D01*
X1657951Y1159458D02*
Y1158442D01*
X1656935D01*
X1658967D01*
X1657951D01*
Y1155393D01*
X1658967Y1154377D01*
X1663033D02*
X1665065D01*
X1666082Y1155393D01*
Y1157426D01*
X1665065Y1158442D01*
X1663033D01*
X1662016Y1157426D01*
Y1155393D01*
X1663033Y1154377D01*
X1669131Y1159458D02*
Y1158442D01*
X1668114D01*
X1670147D01*
X1669131D01*
Y1155393D01*
X1670147Y1154377D01*
X1673196Y1158442D02*
Y1155393D01*
X1674212Y1154377D01*
X1677261D01*
Y1153360D01*
X1676245Y1152344D01*
X1675229D01*
X1677261Y1154377D02*
Y1158442D01*
X1679294Y1152344D02*
Y1158442D01*
X1682343D01*
X1683359Y1157426D01*
Y1155393D01*
X1682343Y1154377D01*
X1679294D01*
X1688441D02*
X1686408D01*
X1685392Y1155393D01*
Y1157426D01*
X1686408Y1158442D01*
X1688441D01*
X1689458Y1157426D01*
Y1156409D01*
X1685392D01*
X1697588Y1154377D02*
Y1160474D01*
X1700637D01*
X1701653Y1159458D01*
Y1157426D01*
X1700637Y1156409D01*
X1697588D01*
X1699621D02*
X1701653Y1154377D01*
X1706735D02*
X1704702D01*
X1703686Y1155393D01*
Y1157426D01*
X1704702Y1158442D01*
X1706735D01*
X1707751Y1157426D01*
Y1156409D01*
X1703686D01*
X1709784Y1154377D02*
X1711817D01*
X1710800D01*
Y1160474D01*
X1709784D01*
X1717915Y1154377D02*
X1715882D01*
X1714866Y1155393D01*
Y1157426D01*
X1715882Y1158442D01*
X1717915D01*
X1718931Y1157426D01*
Y1156409D01*
X1714866D01*
X1721980Y1158442D02*
X1724013D01*
X1725029Y1157426D01*
Y1154377D01*
X1721980D01*
X1720964Y1155393D01*
X1721980Y1156409D01*
X1725029D01*
X1727062Y1154377D02*
X1730111D01*
X1731127Y1155393D01*
X1730111Y1156409D01*
X1728078D01*
X1727062Y1157426D01*
X1728078Y1158442D01*
X1731127D01*
X1736209Y1154377D02*
X1734176D01*
X1733160Y1155393D01*
Y1157426D01*
X1734176Y1158442D01*
X1736209D01*
X1737225Y1157426D01*
Y1156409D01*
X1733160D01*
X1529421Y1154377D02*
Y1160474D01*
X1532470D01*
X1533486Y1159458D01*
Y1157426D01*
X1532470Y1156409D01*
X1529421D01*
X1531453D02*
X1533486Y1154377D01*
X1538568D02*
X1536535D01*
X1535519Y1155393D01*
Y1157426D01*
X1536535Y1158442D01*
X1538568D01*
X1539584Y1157426D01*
Y1156409D01*
X1535519D01*
X1541617Y1158442D02*
X1543649Y1154377D01*
X1545682Y1158442D01*
X1553813Y1160474D02*
Y1154377D01*
X1556862D01*
X1557878Y1155393D01*
Y1156409D01*
X1556862Y1157426D01*
X1553813D01*
X1556862D01*
X1557878Y1158442D01*
Y1159458D01*
X1556862Y1160474D01*
X1553813D01*
X2291485Y1146536D02*
Y1147553D01*
X2292501D01*
Y1146536D01*
X2291485D01*
X2296566D02*
Y1152634D01*
X2299615D01*
X2300632Y1151618D01*
Y1149585D01*
X2299615Y1148569D01*
X2296566D01*
X2298599D02*
X2300632Y1146536D01*
X2305713D02*
X2303681D01*
X2302664Y1147553D01*
Y1149585D01*
X2303681Y1150602D01*
X2305713D01*
X2306730Y1149585D01*
Y1148569D01*
X2302664D01*
X2308762Y1146536D02*
X2310795D01*
X2309779D01*
Y1152634D01*
X2308762D01*
X2316893Y1146536D02*
X2314860D01*
X2313844Y1147553D01*
Y1149585D01*
X2314860Y1150602D01*
X2316893D01*
X2317909Y1149585D01*
Y1148569D01*
X2313844D01*
X2320958Y1150602D02*
X2322991D01*
X2324007Y1149585D01*
Y1146536D01*
X2320958D01*
X2319942Y1147553D01*
X2320958Y1148569D01*
X2324007D01*
X2326040Y1146536D02*
X2329089D01*
X2330105Y1147553D01*
X2329089Y1148569D01*
X2327056D01*
X2326040Y1149585D01*
X2327056Y1150602D01*
X2330105D01*
X2335187Y1146536D02*
X2333154D01*
X2332138Y1147553D01*
Y1149585D01*
X2333154Y1150602D01*
X2335187D01*
X2336203Y1149585D01*
Y1148569D01*
X2332138D01*
X2338236Y1152634D02*
Y1146536D01*
X2341285D01*
X2342301Y1147553D01*
Y1148569D01*
X2341285Y1149585D01*
X2338236D01*
X2341285D01*
X2342301Y1150602D01*
Y1151618D01*
X2341285Y1152634D01*
X2338236D01*
X2344334Y1150602D02*
Y1147553D01*
X2345350Y1146536D01*
X2348399D01*
Y1145520D01*
X2347383Y1144504D01*
X2346367D01*
X2348399Y1146536D02*
Y1150602D01*
X2350432Y1151618D02*
X2351448Y1152634D01*
X2353481D01*
X2354497Y1151618D01*
Y1150602D01*
X2353481Y1149585D01*
X2352465D01*
X2353481D01*
X2354497Y1148569D01*
Y1147553D01*
X2353481Y1146536D01*
X2351448D01*
X2350432Y1147553D01*
X1318665Y-688866D02*
Y-693947D01*
X1319681Y-694964D01*
X1321714D01*
X1322730Y-693947D01*
Y-688866D01*
X1324763D02*
Y-694964D01*
X1327812D01*
X1328828Y-693947D01*
Y-692931D01*
X1327812Y-691915D01*
X1324763D01*
X1327812D01*
X1328828Y-690898D01*
Y-689882D01*
X1327812Y-688866D01*
X1324763D01*
X1330861D02*
X1334926Y-694964D01*
Y-688866D02*
X1330861Y-694964D01*
X1336959Y-688866D02*
Y-694964D01*
Y-691915D01*
X1341024D01*
Y-688866D01*
Y-694964D01*
X1347122Y-688866D02*
X1345089Y-689882D01*
X1343057Y-691915D01*
Y-693947D01*
X1344073Y-694964D01*
X1346106D01*
X1347122Y-693947D01*
Y-692931D01*
X1346106Y-691915D01*
X1343057D01*
X1349155Y-689882D02*
X1350171Y-688866D01*
X1352204D01*
X1353220Y-689882D01*
Y-693947D01*
X1352204Y-694964D01*
X1350171D01*
X1349155Y-693947D01*
Y-689882D01*
X1355253Y-691915D02*
X1359318D01*
X1361351Y-689882D02*
X1362367Y-688866D01*
X1364400D01*
X1365416Y-689882D01*
Y-693947D01*
X1364400Y-694964D01*
X1362367D01*
X1361351Y-693947D01*
Y-689882D01*
X1367449D02*
X1368465Y-688866D01*
X1370498D01*
X1371514Y-689882D01*
Y-693947D01*
X1370498Y-694964D01*
X1368465D01*
X1367449Y-693947D01*
Y-689882D01*
X1373547D02*
X1374563Y-688866D01*
X1376596D01*
X1377612Y-689882D01*
Y-693947D01*
X1376596Y-694964D01*
X1374563D01*
X1373547Y-693947D01*
Y-689882D01*
X1379645Y-694964D02*
X1381677D01*
X1380661D01*
Y-688866D01*
X1379645Y-689882D01*
X1384726D02*
X1385743Y-688866D01*
X1387775D01*
X1388792Y-689882D01*
Y-693947D01*
X1387775Y-694964D01*
X1385743D01*
X1384726Y-693947D01*
Y-689882D01*
X1390824Y-694964D02*
X1392857D01*
X1391841D01*
Y-688866D01*
X1390824Y-689882D01*
X1399971Y-694964D02*
X1395906D01*
X1399971Y-690898D01*
Y-689882D01*
X1398955Y-688866D01*
X1396922D01*
X1395906Y-689882D01*
X1745385Y-623844D02*
Y-617746D01*
X1748434D01*
X1749450Y-618762D01*
Y-620795D01*
X1748434Y-621811D01*
X1745385D01*
X1755548Y-618762D02*
X1754532Y-617746D01*
X1752499D01*
X1751483Y-618762D01*
Y-622827D01*
X1752499Y-623844D01*
X1754532D01*
X1755548Y-622827D01*
X1757581Y-617746D02*
Y-623844D01*
X1760630D01*
X1761646Y-622827D01*
Y-621811D01*
X1760630Y-620795D01*
X1757581D01*
X1760630D01*
X1761646Y-619778D01*
Y-618762D01*
X1760630Y-617746D01*
X1757581D01*
X1763679Y-620795D02*
X1767744D01*
X1773842Y-617746D02*
X1769777D01*
Y-623844D01*
X1773842D01*
X1769777Y-620795D02*
X1771809D01*
X1775875Y-617746D02*
Y-621811D01*
X1777907Y-623844D01*
X1779940Y-621811D01*
Y-617746D01*
X1781973D02*
Y-623844D01*
Y-621811D01*
X1786038Y-617746D01*
X1782989Y-620795D01*
X1786038Y-623844D01*
X1788071Y-620795D02*
X1792136D01*
X1794169Y-617746D02*
X1796201D01*
X1795185D01*
Y-623844D01*
X1794169D01*
X1796201D01*
X1799250D02*
Y-617746D01*
X1802299D01*
X1803316Y-618762D01*
Y-620795D01*
X1802299Y-621811D01*
X1799250D01*
X1801283D02*
X1803316Y-623844D01*
X1805348Y-617746D02*
X1807381D01*
X1806365D01*
Y-623844D01*
X1805348D01*
X1807381D01*
X1814495Y-618762D02*
X1813479Y-617746D01*
X1811446D01*
X1810430Y-618762D01*
Y-619778D01*
X1811446Y-620795D01*
X1813479D01*
X1814495Y-621811D01*
Y-622827D01*
X1813479Y-623844D01*
X1811446D01*
X1810430Y-622827D01*
X1816528Y-620795D02*
X1820593D01*
X1822626Y-617746D02*
Y-623844D01*
X1824659Y-621811D01*
X1826691Y-623844D01*
Y-617746D01*
X1828724Y-623844D02*
X1830757D01*
X1829740D01*
Y-617746D01*
X1828724Y-618762D01*
X2239965Y-622634D02*
Y-616536D01*
X2243014D01*
X2244030Y-617552D01*
Y-619585D01*
X2243014Y-620601D01*
X2239965D01*
X2241997D02*
X2244030Y-622634D01*
X2249112D02*
X2247079D01*
X2246063Y-621617D01*
Y-619585D01*
X2247079Y-618568D01*
X2249112D01*
X2250128Y-619585D01*
Y-620601D01*
X2246063D01*
X2252161Y-618568D02*
X2254193Y-622634D01*
X2256226Y-618568D01*
X2264357Y-616536D02*
Y-622634D01*
X2267406D01*
X2268422Y-621617D01*
Y-620601D01*
X2267406Y-619585D01*
X2264357D01*
X2267406D01*
X2268422Y-618568D01*
Y-617552D01*
X2267406Y-616536D01*
X2264357D01*
X1749450Y-556786D02*
X1745385D01*
Y-562884D01*
X1749450D01*
X1745385Y-559835D02*
X1747417D01*
X1751483Y-556786D02*
Y-560851D01*
X1753515Y-562884D01*
X1755548Y-560851D01*
Y-556786D01*
X1757581D02*
Y-562884D01*
Y-560851D01*
X1761646Y-556786D01*
X1758597Y-559835D01*
X1761646Y-562884D01*
X1763679Y-559835D02*
X1767744D01*
X1769777Y-556786D02*
X1771809D01*
X1770793D01*
Y-562884D01*
X1769777D01*
X1771809D01*
X1774858D02*
Y-556786D01*
X1777907D01*
X1778924Y-557802D01*
Y-559835D01*
X1777907Y-560851D01*
X1774858D01*
X1776891D02*
X1778924Y-562884D01*
X1780956Y-556786D02*
X1782989D01*
X1781973D01*
Y-562884D01*
X1780956D01*
X1782989D01*
X1790103Y-557802D02*
X1789087Y-556786D01*
X1787054D01*
X1786038Y-557802D01*
Y-558818D01*
X1787054Y-559835D01*
X1789087D01*
X1790103Y-560851D01*
Y-561867D01*
X1789087Y-562884D01*
X1787054D01*
X1786038Y-561867D01*
X1792136Y-559835D02*
X1796201D01*
X1798234Y-556786D02*
Y-562884D01*
X1800267Y-560851D01*
X1802299Y-562884D01*
Y-556786D01*
X1804332Y-562884D02*
X1806365D01*
X1805348D01*
Y-556786D01*
X1804332Y-557802D01*
X1366925Y-556786D02*
Y-562884D01*
Y-559835D01*
X1367941Y-558818D01*
X1369974D01*
X1370990Y-559835D01*
Y-562884D01*
X1374039Y-558818D02*
X1376072D01*
X1377088Y-559835D01*
Y-562884D01*
X1374039D01*
X1373023Y-561867D01*
X1374039Y-560851D01*
X1377088D01*
X1379121Y-556786D02*
Y-562884D01*
X1382170D01*
X1383186Y-561867D01*
Y-560851D01*
Y-559835D01*
X1382170Y-558818D01*
X1379121D01*
X1389284Y-556786D02*
Y-562884D01*
X1386235D01*
X1385219Y-561867D01*
Y-559835D01*
X1386235Y-558818D01*
X1389284D01*
X1634327Y-600384D02*
Y-594286D01*
X1637376D01*
X1638392Y-595302D01*
Y-597335D01*
X1637376Y-598351D01*
X1634327D01*
X1644490Y-595302D02*
X1643474Y-594286D01*
X1641441D01*
X1640425Y-595302D01*
Y-599367D01*
X1641441Y-600384D01*
X1643474D01*
X1644490Y-599367D01*
X1646523Y-594286D02*
Y-600384D01*
X1649572D01*
X1650588Y-599367D01*
Y-598351D01*
X1649572Y-597335D01*
X1646523D01*
X1649572D01*
X1650588Y-596318D01*
Y-595302D01*
X1649572Y-594286D01*
X1646523D01*
X1658719Y-600384D02*
Y-594286D01*
X1662784Y-600384D01*
Y-594286D01*
X1664817Y-600384D02*
Y-596318D01*
X1666849Y-594286D01*
X1668882Y-596318D01*
Y-600384D01*
Y-597335D01*
X1664817D01*
X1670915Y-600384D02*
Y-594286D01*
X1672947Y-596318D01*
X1674980Y-594286D01*
Y-600384D01*
X1681078Y-594286D02*
X1677013D01*
Y-600384D01*
X1681078D01*
X1677013Y-597335D02*
X1679045D01*
X1683111Y-596318D02*
X1684127D01*
Y-597335D01*
X1683111D01*
Y-596318D01*
Y-599367D02*
X1684127D01*
Y-600384D01*
X1683111D01*
Y-599367D01*
X2253325Y-693602D02*
X2255357D01*
X2254341D01*
Y-687504D01*
X2253325Y-688520D01*
X2258406Y-689536D02*
X2259423D01*
Y-690553D01*
X2258406D01*
Y-689536D01*
Y-692585D02*
X2259423D01*
Y-693602D01*
X2258406D01*
Y-692585D01*
X2263488Y-693602D02*
X2265521D01*
X2264504D01*
Y-687504D01*
X2263488Y-688520D01*
X2170268Y-661342D02*
X2169252Y-660326D01*
X2167219D01*
X2166203Y-661342D01*
Y-662358D01*
X2167219Y-663375D01*
X2169252D01*
X2170268Y-664391D01*
Y-665407D01*
X2169252Y-666424D01*
X2167219D01*
X2166203Y-665407D01*
X2176366Y-661342D02*
X2175350Y-660326D01*
X2173317D01*
X2172301Y-661342D01*
Y-665407D01*
X2173317Y-666424D01*
X2175350D01*
X2176366Y-665407D01*
X2178399Y-666424D02*
Y-662358D01*
X2180431Y-660326D01*
X2182464Y-662358D01*
Y-666424D01*
Y-663375D01*
X2178399D01*
X2184497Y-660326D02*
Y-666424D01*
X2188562D01*
X2194660Y-660326D02*
X2190595D01*
Y-666424D01*
X2194660D01*
X2190595Y-663375D02*
X2192627D01*
X2196693Y-662358D02*
X2197709D01*
Y-663375D01*
X2196693D01*
Y-662358D01*
Y-665407D02*
X2197709D01*
Y-666424D01*
X2196693D01*
Y-665407D01*
X1637690Y-658386D02*
X1633625D01*
Y-661435D01*
X1635657D01*
X1633625D01*
Y-664484D01*
X1639723Y-658386D02*
X1641755D01*
X1640739D01*
Y-664484D01*
X1639723D01*
X1641755D01*
X1644804Y-658386D02*
Y-664484D01*
X1648870D01*
X1654968Y-658386D02*
X1650902D01*
Y-664484D01*
X1654968D01*
X1650902Y-661435D02*
X1652935D01*
X1663098Y-664484D02*
Y-658386D01*
X1667164Y-664484D01*
Y-658386D01*
X1669196Y-664484D02*
Y-660418D01*
X1671229Y-658386D01*
X1673262Y-660418D01*
Y-664484D01*
Y-661435D01*
X1669196D01*
X1675294Y-664484D02*
Y-658386D01*
X1677327Y-660418D01*
X1679360Y-658386D01*
Y-664484D01*
X1685458Y-658386D02*
X1681392D01*
Y-664484D01*
X1685458D01*
X1681392Y-661435D02*
X1683425D01*
X1687490Y-660418D02*
X1688507D01*
Y-661435D01*
X1687490D01*
Y-660418D01*
Y-663467D02*
X1688507D01*
Y-664484D01*
X1687490D01*
Y-663467D01*
X1635597Y-546028D02*
Y-539930D01*
X1638646D01*
X1639662Y-540946D01*
Y-542979D01*
X1638646Y-543995D01*
X1635597D01*
X1641695Y-546028D02*
Y-539930D01*
X1644744D01*
X1645760Y-540946D01*
Y-542979D01*
X1644744Y-543995D01*
X1641695D01*
X1643727D02*
X1645760Y-546028D01*
X1650842Y-539930D02*
X1648809D01*
X1647793Y-540946D01*
Y-545011D01*
X1648809Y-546028D01*
X1650842D01*
X1651858Y-545011D01*
Y-540946D01*
X1650842Y-539930D01*
X1657956D02*
X1655923D01*
X1656940D01*
Y-545011D01*
X1655923Y-546028D01*
X1654907D01*
X1653891Y-545011D01*
X1664054Y-539930D02*
X1659989D01*
Y-546028D01*
X1664054D01*
X1659989Y-542979D02*
X1662021D01*
X1670152Y-540946D02*
X1669136Y-539930D01*
X1667103D01*
X1666087Y-540946D01*
Y-545011D01*
X1667103Y-546028D01*
X1669136D01*
X1670152Y-545011D01*
X1672185Y-539930D02*
X1676250D01*
X1674217D01*
Y-546028D01*
X1678283Y-541962D02*
X1679299D01*
Y-542979D01*
X1678283D01*
Y-541962D01*
Y-545011D02*
X1679299D01*
Y-546028D01*
X1678283D01*
Y-545011D01*
X1254598Y-540184D02*
X1250533D01*
Y-546282D01*
X1254598D01*
X1250533Y-543233D02*
X1252565D01*
X1256631Y-546282D02*
Y-540184D01*
X1260696Y-546282D01*
Y-540184D01*
X1266794Y-541200D02*
X1265778Y-540184D01*
X1263745D01*
X1262729Y-541200D01*
Y-545265D01*
X1263745Y-546282D01*
X1265778D01*
X1266794Y-545265D01*
Y-543233D01*
X1264761D01*
X1268827Y-540184D02*
X1270859D01*
X1269843D01*
Y-546282D01*
X1268827D01*
X1270859D01*
X1273908D02*
Y-540184D01*
X1277974Y-546282D01*
Y-540184D01*
X1284072D02*
X1280006D01*
Y-546282D01*
X1284072D01*
X1280006Y-543233D02*
X1282039D01*
X1290170Y-540184D02*
X1286104D01*
Y-546282D01*
X1290170D01*
X1286104Y-543233D02*
X1288137D01*
X1292202Y-546282D02*
Y-540184D01*
X1295251D01*
X1296268Y-541200D01*
Y-543233D01*
X1295251Y-544249D01*
X1292202D01*
X1294235D02*
X1296268Y-546282D01*
X1298300Y-542216D02*
X1299317D01*
Y-543233D01*
X1298300D01*
Y-542216D01*
Y-545265D02*
X1299317D01*
Y-546282D01*
X1298300D01*
Y-545265D01*
X1252625Y-658386D02*
Y-664484D01*
X1255674D01*
X1256690Y-663467D01*
Y-659402D01*
X1255674Y-658386D01*
X1252625D01*
X1258723D02*
Y-664484D01*
X1260755Y-662451D01*
X1262788Y-664484D01*
Y-658386D01*
X1268886Y-659402D02*
X1267870Y-658386D01*
X1265837D01*
X1264821Y-659402D01*
Y-663467D01*
X1265837Y-664484D01*
X1267870D01*
X1268886Y-663467D01*
Y-661435D01*
X1266853D01*
X1277017Y-664484D02*
Y-658386D01*
X1281082Y-664484D01*
Y-658386D01*
X1286164D02*
X1284131D01*
X1283115Y-659402D01*
Y-663467D01*
X1284131Y-664484D01*
X1286164D01*
X1287180Y-663467D01*
Y-659402D01*
X1286164Y-658386D01*
X1289213Y-660418D02*
X1290229D01*
Y-661435D01*
X1289213D01*
Y-660418D01*
Y-663467D02*
X1290229D01*
Y-664484D01*
X1289213D01*
Y-663467D01*
X2167473Y-603686D02*
Y-597588D01*
X2170522D01*
X2171538Y-598604D01*
Y-600637D01*
X2170522Y-601653D01*
X2167473D01*
X2169505D02*
X2171538Y-603686D01*
X2177636Y-597588D02*
X2173571D01*
Y-603686D01*
X2177636D01*
X2173571Y-600637D02*
X2175603D01*
X2179669Y-597588D02*
Y-601653D01*
X2181701Y-603686D01*
X2183734Y-601653D01*
Y-597588D01*
X2185767Y-599620D02*
X2186783D01*
Y-600637D01*
X2185767D01*
Y-599620D01*
Y-602669D02*
X2186783D01*
Y-603686D01*
X2185767D01*
Y-602669D01*
X1251295Y-595302D02*
Y-601400D01*
X1254344D01*
X1255360Y-600383D01*
Y-596318D01*
X1254344Y-595302D01*
X1251295D01*
X1257393Y-601400D02*
Y-597334D01*
X1259425Y-595302D01*
X1261458Y-597334D01*
Y-601400D01*
Y-598351D01*
X1257393D01*
X1263491Y-595302D02*
X1267556D01*
X1265523D01*
Y-601400D01*
X1273654Y-595302D02*
X1269589D01*
Y-601400D01*
X1273654D01*
X1269589Y-598351D02*
X1271621D01*
X1275687Y-597334D02*
X1276703D01*
Y-598351D01*
X1275687D01*
Y-597334D01*
Y-600383D02*
X1276703D01*
Y-601400D01*
X1275687D01*
Y-600383D01*
X1327810Y-623844D02*
X1323745D01*
X1327810Y-619778D01*
Y-618762D01*
X1326794Y-617746D01*
X1324761D01*
X1323745Y-618762D01*
X1329843D02*
X1330859Y-617746D01*
X1332892D01*
X1333908Y-618762D01*
Y-622827D01*
X1332892Y-623844D01*
X1330859D01*
X1329843Y-622827D01*
Y-618762D01*
X1340006Y-623844D02*
X1335941D01*
X1340006Y-619778D01*
Y-618762D01*
X1338990Y-617746D01*
X1336957D01*
X1335941Y-618762D01*
X1342039D02*
X1343055Y-617746D01*
X1345088D01*
X1346104Y-618762D01*
Y-619778D01*
X1345088Y-620795D01*
X1344071D01*
X1345088D01*
X1346104Y-621811D01*
Y-622827D01*
X1345088Y-623844D01*
X1343055D01*
X1342039Y-622827D01*
X1348137Y-620795D02*
X1352202D01*
X1354235Y-618762D02*
X1355251Y-617746D01*
X1357284D01*
X1358300Y-618762D01*
Y-622827D01*
X1357284Y-623844D01*
X1355251D01*
X1354235Y-622827D01*
Y-618762D01*
X1364398Y-617746D02*
X1360333D01*
Y-620795D01*
X1362365Y-619778D01*
X1363382D01*
X1364398Y-620795D01*
Y-622827D01*
X1363382Y-623844D01*
X1361349D01*
X1360333Y-622827D01*
X1366431Y-620795D02*
X1370496D01*
X1372529Y-623844D02*
X1374561D01*
X1373545D01*
Y-617746D01*
X1372529Y-618762D01*
X1377610Y-617746D02*
X1381676D01*
Y-618762D01*
X1377610Y-622827D01*
Y-623844D01*
X1660550Y-686326D02*
X1656485D01*
Y-692424D01*
X1660550D01*
X1656485Y-689375D02*
X1658517D01*
X1662583Y-686326D02*
Y-690391D01*
X1664615Y-692424D01*
X1666648Y-690391D01*
Y-686326D01*
X1668681D02*
Y-692424D01*
Y-690391D01*
X1672746Y-686326D01*
X1669697Y-689375D01*
X1672746Y-692424D01*
X1674779Y-689375D02*
X1678844D01*
X1680877Y-686326D02*
X1682909D01*
X1681893D01*
Y-692424D01*
X1680877D01*
X1682909D01*
X1685958D02*
Y-686326D01*
X1689007D01*
X1690024Y-687342D01*
Y-689375D01*
X1689007Y-690391D01*
X1685958D01*
X1687991D02*
X1690024Y-692424D01*
X1692056Y-686326D02*
X1694089D01*
X1693073D01*
Y-692424D01*
X1692056D01*
X1694089D01*
X1701203Y-687342D02*
X1700187Y-686326D01*
X1698154D01*
X1697138Y-687342D01*
Y-688358D01*
X1698154Y-689375D01*
X1700187D01*
X1701203Y-690391D01*
Y-691407D01*
X1700187Y-692424D01*
X1698154D01*
X1697138Y-691407D01*
X1703236Y-689375D02*
X1707301D01*
X1709334Y-686326D02*
Y-692424D01*
X1711367Y-690391D01*
X1713399Y-692424D01*
Y-686326D01*
X1715432Y-692424D02*
X1717465D01*
X1716448D01*
Y-686326D01*
X1715432Y-687342D01*
X1720514Y-692424D02*
Y-691407D01*
X1721530D01*
Y-692424D01*
X1720514D01*
X1725595D02*
Y-686326D01*
X1728644D01*
X1729661Y-687342D01*
Y-689375D01*
X1728644Y-690391D01*
X1725595D01*
X1735759Y-688358D02*
X1732710D01*
X1731693Y-689375D01*
Y-691407D01*
X1732710Y-692424D01*
X1735759D01*
X1737791Y-686326D02*
Y-692424D01*
X1740840D01*
X1741857Y-691407D01*
Y-690391D01*
Y-689375D01*
X1740840Y-688358D01*
X1737791D01*
X1743889Y-686326D02*
Y-692424D01*
X1746938D01*
X1747955Y-691407D01*
Y-687342D01*
X1746938Y-686326D01*
X1743889D01*
X1751004Y-692424D02*
X1753036D01*
X1754053Y-691407D01*
Y-689375D01*
X1753036Y-688358D01*
X1751004D01*
X1749987Y-689375D01*
Y-691407D01*
X1751004Y-692424D01*
X1760151Y-688358D02*
X1757102D01*
X1756085Y-689375D01*
Y-691407D01*
X1757102Y-692424D01*
X1760151D01*
X960903Y-681101D02*
X960612Y-680520D01*
X960032Y-679939D01*
X959451Y-679649D01*
X958289D01*
X957708Y-679939D01*
X957127Y-680520D01*
X956837Y-681101D01*
X956547Y-681972D01*
Y-683424D01*
X956837Y-684296D01*
X957127Y-684876D01*
X957708Y-685457D01*
X958289Y-685748D01*
X959451D01*
X960032Y-685457D01*
X960612Y-684876D01*
X960903Y-684296D01*
X964359Y-679649D02*
X963778Y-679939D01*
X963197Y-680520D01*
X962907Y-681101D01*
X962616Y-681972D01*
Y-683424D01*
X962907Y-684296D01*
X963197Y-684876D01*
X963778Y-685457D01*
X964359Y-685748D01*
X965520D01*
X966101Y-685457D01*
X966682Y-684876D01*
X966973Y-684296D01*
X967263Y-683424D01*
Y-681972D01*
X966973Y-681101D01*
X966682Y-680520D01*
X966101Y-679939D01*
X965520Y-679649D01*
X964359D01*
X968686D02*
Y-685748D01*
Y-679649D02*
X972752Y-685748D01*
Y-679649D02*
Y-685748D01*
X974436Y-679649D02*
Y-685748D01*
Y-679649D02*
X978212D01*
X974436Y-682553D02*
X976759D01*
X978908Y-679649D02*
Y-685748D01*
X980186Y-679649D02*
Y-685748D01*
Y-679649D02*
X982219D01*
X983090Y-679939D01*
X983671Y-680520D01*
X983962Y-681101D01*
X984252Y-681972D01*
Y-683424D01*
X983962Y-684296D01*
X983671Y-684876D01*
X983090Y-685457D01*
X982219Y-685748D01*
X980186D01*
X989392Y-679649D02*
X985617D01*
Y-685748D01*
X989392D01*
X985617Y-682553D02*
X987940D01*
X990409Y-679649D02*
Y-685748D01*
Y-679649D02*
X994475Y-685748D01*
Y-679649D02*
Y-685748D01*
X998192Y-679649D02*
Y-685748D01*
X996159Y-679649D02*
X1000225D01*
X1000951D02*
Y-685748D01*
X1006875D02*
X1004552Y-679649D01*
X1002229Y-685748D01*
X1003100Y-683715D02*
X1006004D01*
X1008298Y-679649D02*
Y-685748D01*
X1011783D01*
X2291485Y1190734D02*
Y1184636D01*
Y1187685D01*
X2292501Y1188702D01*
X2294534D01*
X2295550Y1187685D01*
Y1184636D01*
X2298599Y1188702D02*
X2300632D01*
X2301648Y1187685D01*
Y1184636D01*
X2298599D01*
X2297583Y1185653D01*
X2298599Y1186669D01*
X2301648D01*
X2303681Y1190734D02*
Y1184636D01*
X2306730D01*
X2307746Y1185653D01*
Y1186669D01*
Y1187685D01*
X2306730Y1188702D01*
X2303681D01*
X2313844Y1190734D02*
Y1184636D01*
X2310795D01*
X2309779Y1185653D01*
Y1187685D01*
X2310795Y1188702D01*
X2313844D01*
X2127910Y1182096D02*
X2123845D01*
X2127910Y1186162D01*
Y1187178D01*
X2126894Y1188194D01*
X2124861D01*
X2123845Y1187178D01*
X2129943D02*
X2130959Y1188194D01*
X2132992D01*
X2134008Y1187178D01*
Y1183113D01*
X2132992Y1182096D01*
X2130959D01*
X2129943Y1183113D01*
Y1187178D01*
X2140106Y1182096D02*
X2136041D01*
X2140106Y1186162D01*
Y1187178D01*
X2139090Y1188194D01*
X2137057D01*
X2136041Y1187178D01*
X2142139D02*
X2143155Y1188194D01*
X2145188D01*
X2146204Y1187178D01*
Y1186162D01*
X2145188Y1185145D01*
X2144171D01*
X2145188D01*
X2146204Y1184129D01*
Y1183113D01*
X2145188Y1182096D01*
X2143155D01*
X2142139Y1183113D01*
X2148237Y1185145D02*
X2152302D01*
X2154335Y1187178D02*
X2155351Y1188194D01*
X2157384D01*
X2158400Y1187178D01*
Y1183113D01*
X2157384Y1182096D01*
X2155351D01*
X2154335Y1183113D01*
Y1187178D01*
X2164498Y1188194D02*
X2160433D01*
Y1185145D01*
X2162465Y1186162D01*
X2163482D01*
X2164498Y1185145D01*
Y1183113D01*
X2163482Y1182096D01*
X2161449D01*
X2160433Y1183113D01*
X2166531Y1185145D02*
X2170596D01*
X2172629Y1182096D02*
X2174661D01*
X2173645D01*
Y1188194D01*
X2172629Y1187178D01*
X2177710Y1188194D02*
X2181776D01*
Y1187178D01*
X2177710Y1183113D01*
Y1182096D01*
D15*
X600948Y1174068D02*
Y1184068D01*
X595948Y1179068D02*
X605948D01*
X150860Y221030D02*
Y231030D01*
X145860Y226030D02*
X155860D01*
X145332Y174158D02*
X155332D01*
X150332Y169158D02*
Y179158D01*
X821146Y567430D02*
Y577430D01*
X816146Y572430D02*
X826146D01*
D18*
X-301915Y-710874D02*
X2390485D01*
X-301915D02*
Y1346526D01*
X-352655Y-761004D02*
Y1397996D01*
X-352715Y857576D02*
X-301915D01*
X-352715Y317826D02*
X-301915D01*
X-352715Y-221924D02*
X-301915D01*
X345785Y-761674D02*
Y-710874D01*
X1044285Y-761674D02*
Y-710874D01*
X1742785Y-761674D02*
Y-710874D01*
X-301915Y1346526D02*
X2390485D01*
X345785D02*
Y1397326D01*
X1044285Y1346526D02*
Y1397326D01*
X1742785Y1346526D02*
Y1397326D01*
X-352655Y1397996D02*
X2441345D01*
Y-761004D02*
Y1397996D01*
X2390485Y-710874D02*
Y1346526D01*
Y857576D02*
X2441285D01*
X2390485Y317826D02*
X2441285D01*
X2390485Y-221924D02*
X2441285D01*
X-352655Y-761004D02*
X2441345D01*
X1516785Y1131296D02*
Y1347196D01*
Y1131296D02*
X2390545D01*
X1516785Y1169396D02*
X2390485D01*
X1516785Y1245596D02*
X2390545D01*
X1516785Y1207496D02*
X2390485D01*
X1516785Y1288776D02*
X2390485D01*
X1608225Y1131296D02*
Y1288776D01*
X2103525Y1131296D02*
Y1288776D01*
X2273705Y1131296D02*
Y1288776D01*
X1628485Y-558474D02*
Y-521898D01*
X1247485D02*
X1628485D01*
X818285D02*
X1247485D01*
X1628485Y-710874D02*
Y-558474D01*
X2161885Y-710874D02*
Y-581080D01*
X1247485Y-710874D02*
Y-521898D01*
X2390485Y-710874D02*
Y-521898D01*
X1628485D02*
X2390485D01*
X1247485Y-580318D02*
X2390485D01*
X1247485Y-643564D02*
X2390485D01*
X1247485Y-710874D02*
X2390485D01*
X818285D02*
Y-521898D01*
Y-710874D02*
X1247485D01*
D19*
X2091259Y-58319D02*
X2324939D01*
X2091259D02*
Y-34189D01*
X2324939Y-58319D02*
Y-34189D01*
X2091259D02*
X2324939D01*
D21*
X535940Y682244D02*
G03*
X529590Y675894I0J-6350D01*
G01*
Y650494D02*
G03*
X535940Y644144I6350J0D01*
G01*
X628650Y658114D02*
G03*
X628650Y668274I-3810J5080D01*
G01*
X609600Y680974D02*
G03*
X605790Y682244I-3810J-5080D01*
G01*
Y644144D02*
G03*
X609600Y645414I0J6350D01*
G01*
X476234Y529844D02*
G03*
X482584Y523494I6350J0D01*
G01*
X507984D02*
G03*
X514334Y529844I0J6350D01*
G01*
X500364Y622554D02*
G03*
X490204Y622554I-5080J-3810D01*
G01*
X477504Y603504D02*
G03*
X476234Y599694I5080J-3810D01*
G01*
X514334D02*
G03*
X513064Y603504I-6350J0D01*
G01*
X912926Y1122256D02*
Y1128256D01*
X909926Y1125256D02*
X915926D01*
X529590Y650494D02*
Y675894D01*
X535940Y682244D02*
X605790D01*
X535940Y644144D02*
X605790D01*
X609600Y680974D02*
X628650Y668274D01*
X609600Y645414D02*
X628650Y658114D01*
X572948Y1222068D02*
X628948D01*
X572948Y1136068D02*
X628948D01*
X572948D02*
Y1222068D01*
X628948Y1136068D02*
Y1222068D01*
X827408Y632197D02*
Y693197D01*
X781408Y632197D02*
X827408D01*
X781408D02*
Y693197D01*
X827408D01*
X730804Y293720D02*
Y305720D01*
X706804Y293720D02*
Y305720D01*
X730804D01*
X706804Y293720D02*
X730804D01*
X714054Y299720D02*
X723554D01*
X718804Y294970D02*
Y304470D01*
X863410Y665734D02*
X873410D01*
X868410Y660734D02*
Y670734D01*
X859910Y651234D02*
Y680234D01*
X876910Y651234D02*
Y680234D01*
X859910D02*
X876910D01*
X859910Y651234D02*
X876910D01*
X147366Y291434D02*
Y303434D01*
X123366Y291434D02*
Y303434D01*
X147366D01*
X123366Y291434D02*
X147366D01*
X130616Y297434D02*
X140116D01*
X135366Y292684D02*
Y302184D01*
X147112Y317596D02*
Y329596D01*
X123112Y317596D02*
Y329596D01*
X147112D01*
X123112Y317596D02*
X147112D01*
X130362Y323596D02*
X139862D01*
X135112Y318846D02*
Y328346D01*
X730804Y318866D02*
Y330866D01*
X706804Y318866D02*
Y330866D01*
X730804D01*
X706804Y318866D02*
X730804D01*
X714054Y324866D02*
X723554D01*
X718804Y320116D02*
Y329616D01*
X567928Y700326D02*
Y706326D01*
X564928Y703326D02*
X570928D01*
X559928Y699326D02*
X575928D01*
X559928Y707326D02*
X575928D01*
X559928Y699326D02*
Y707326D01*
X575928Y699326D02*
Y707326D01*
X567928Y751888D02*
Y757888D01*
X564928Y754888D02*
X570928D01*
X559928Y750888D02*
X575928D01*
X559928Y758888D02*
X575928D01*
X559928Y750888D02*
Y758888D01*
X575928Y750888D02*
Y758888D01*
Y725107D02*
Y733107D01*
X559928Y725107D02*
Y733107D01*
X575928D01*
X559928Y725107D02*
X575928D01*
X564928Y729107D02*
X570928D01*
X567928Y726107D02*
Y732107D01*
X139360Y249030D02*
X162360D01*
X139360Y203030D02*
X162360D01*
X139360D02*
Y249030D01*
X162360Y203030D02*
Y249030D01*
X161832Y151158D02*
Y197158D01*
X138832Y151158D02*
Y197158D01*
Y151158D02*
X161832D01*
X138832Y197158D02*
X161832D01*
X407400Y1142580D02*
Y1154580D01*
X431400Y1142580D02*
Y1154580D01*
X407400Y1142580D02*
X431400D01*
X407400Y1154580D02*
X431400D01*
X414650Y1148580D02*
X424150D01*
X419400Y1143830D02*
Y1153330D01*
X839228Y1060618D02*
X845228D01*
X842228Y1057618D02*
Y1063618D01*
X838228Y1052618D02*
Y1068618D01*
X846228Y1052618D02*
Y1068618D01*
X838228D02*
X846228D01*
X838228Y1052618D02*
X846228D01*
X852351Y1060618D02*
X858351D01*
X855351Y1057618D02*
Y1063618D01*
X851351Y1052618D02*
Y1068618D01*
X859351Y1052618D02*
Y1068618D01*
X851351D02*
X859351D01*
X851351Y1052618D02*
X859351D01*
X865475Y1060618D02*
X871475D01*
X868475Y1057618D02*
Y1063618D01*
X864475Y1052618D02*
Y1068618D01*
X872475Y1052618D02*
Y1068618D01*
X864475D02*
X872475D01*
X864475Y1052618D02*
X872475D01*
X878598Y1060618D02*
X884598D01*
X881598Y1057618D02*
Y1063618D01*
X877598Y1052618D02*
Y1068618D01*
X885598Y1052618D02*
Y1068618D01*
X877598D02*
X885598D01*
X877598Y1052618D02*
X885598D01*
X202402Y714464D02*
Y720464D01*
X199402Y717464D02*
X205402D01*
X194402Y713464D02*
X210402D01*
X194402Y721464D02*
X210402D01*
X194402Y713464D02*
Y721464D01*
X210402Y713464D02*
Y721464D01*
X202402Y670522D02*
Y676522D01*
X199402Y673522D02*
X205402D01*
X194402Y669522D02*
X210402D01*
X194402Y677522D02*
X210402D01*
X194402Y669522D02*
Y677522D01*
X210402Y669522D02*
Y677522D01*
X202402Y699817D02*
Y705817D01*
X199402Y702817D02*
X205402D01*
X194402Y698817D02*
X210402D01*
X194402Y706817D02*
X210402D01*
X194402Y698817D02*
Y706817D01*
X210402Y698817D02*
Y706817D01*
X202402Y685169D02*
Y691169D01*
X199402Y688169D02*
X205402D01*
X194402Y684169D02*
X210402D01*
X194402Y692169D02*
X210402D01*
X194402Y684169D02*
Y692169D01*
X210402Y684169D02*
Y692169D01*
X567928Y738997D02*
Y744997D01*
X564928Y741997D02*
X570928D01*
X559928Y745997D02*
X575928D01*
X559928Y737998D02*
X575928D01*
Y745997D01*
X559928Y737998D02*
Y745997D01*
X567928Y713216D02*
Y719216D01*
X564928Y716216D02*
X570928D01*
X559928Y712216D02*
X575928D01*
X559928Y720216D02*
X575928D01*
X559928Y712216D02*
Y720216D01*
X575928Y712216D02*
Y720216D01*
X347806Y546086D02*
X359806D01*
X347806Y570086D02*
X359806D01*
Y546086D02*
Y570086D01*
X347806Y546086D02*
Y570086D01*
X353806Y553336D02*
Y562836D01*
X349056Y558086D02*
X358556D01*
X464965Y472857D02*
Y478857D01*
X461965Y475857D02*
X467965D01*
X456965Y479857D02*
X472965D01*
X456965Y471857D02*
X472965D01*
Y479857D01*
X456965Y471857D02*
Y479857D01*
X464457Y484541D02*
Y490541D01*
X461457Y487541D02*
X467457D01*
X456457Y491541D02*
X472457D01*
X456457Y483541D02*
X472457D01*
Y491541D01*
X456457Y483541D02*
Y491541D01*
X463695Y497495D02*
Y503495D01*
X460695Y500495D02*
X466695D01*
X455695Y504495D02*
X471695D01*
X455695Y496495D02*
X471695D01*
Y504495D01*
X455695Y496495D02*
Y504495D01*
X436771Y533309D02*
Y539309D01*
X433771Y536309D02*
X439771D01*
X428771Y540309D02*
X444771D01*
X428771Y532309D02*
X444771D01*
Y540309D01*
X428771Y532309D02*
Y540309D01*
X361914Y523710D02*
Y529710D01*
X358914Y526710D02*
X364914D01*
X353914Y530710D02*
X369914D01*
X353914Y522710D02*
X369914D01*
Y530710D01*
X353914Y522710D02*
Y530710D01*
X287492Y524218D02*
Y530218D01*
X284492Y527218D02*
X290492D01*
X279492Y523218D02*
X295492D01*
X279492Y531218D02*
X295492D01*
X279492Y523218D02*
Y531218D01*
X295492Y523218D02*
Y531218D01*
X798146Y583930D02*
X844146D01*
X798146Y560930D02*
X844146D01*
Y583930D01*
X798146Y560930D02*
Y583930D01*
X658904Y422190D02*
X666904D01*
X658904Y438190D02*
X666904D01*
Y422190D02*
Y438190D01*
X658904Y422190D02*
Y438190D01*
X662904Y427190D02*
Y433190D01*
X659904Y430190D02*
X665904D01*
X668947Y422888D02*
X676947D01*
X668947Y438888D02*
X676947D01*
Y422888D02*
Y438888D01*
X668947Y422888D02*
Y438888D01*
X672947Y427888D02*
Y433888D01*
X669947Y430888D02*
X675947D01*
X588440Y524251D02*
Y532251D01*
X604440Y524251D02*
Y532251D01*
X588440Y524251D02*
X604440D01*
X588440Y532251D02*
X604440D01*
X593440Y528251D02*
X599440D01*
X596440Y525251D02*
Y531251D01*
X604356Y534294D02*
Y542294D01*
X588356Y534294D02*
Y542294D01*
X604356D01*
X588356Y534294D02*
X604356D01*
X593356Y538294D02*
X599356D01*
X596356Y535294D02*
Y541294D01*
X588376Y425514D02*
Y433514D01*
X604376Y425514D02*
Y433514D01*
X588376Y425514D02*
X604376D01*
X588376Y433514D02*
X604376D01*
X593376Y429514D02*
X599376D01*
X596376Y426514D02*
Y432514D01*
X587614Y435673D02*
Y443674D01*
X603614Y435673D02*
Y443674D01*
X587614Y435673D02*
X603614D01*
X587614Y443674D02*
X603614D01*
X592614Y439674D02*
X598614D01*
X595614Y436674D02*
Y442673D01*
X586263Y499036D02*
Y507036D01*
X602263Y499036D02*
Y507036D01*
X586263Y499036D02*
X602263D01*
X586263Y507036D02*
X602263D01*
X591263Y503036D02*
X597263D01*
X594263Y500036D02*
Y506036D01*
X602263Y509078D02*
Y517078D01*
X586263Y509078D02*
Y517078D01*
X602263D01*
X586263Y509078D02*
X602263D01*
X591263Y513078D02*
X597263D01*
X594263Y510078D02*
Y516078D01*
X633254Y526796D02*
X639254D01*
X636254Y523796D02*
Y529796D01*
X640254Y518796D02*
Y534796D01*
X632254Y518796D02*
Y534796D01*
Y518796D02*
X640254D01*
X632254Y534796D02*
X640254D01*
X623211Y526796D02*
X629211D01*
X626211Y523796D02*
Y529796D01*
X630211Y518796D02*
Y534796D01*
X622211Y518796D02*
Y534796D01*
Y518796D02*
X630211D01*
X622211Y534796D02*
X630211D01*
X619798Y458846D02*
Y464846D01*
X616798Y461846D02*
X622798D01*
X611798Y465846D02*
X627798D01*
X611798Y457846D02*
X627798D01*
Y465846D01*
X611798Y457846D02*
Y465846D01*
X619490Y448803D02*
Y454804D01*
X616490Y451804D02*
X622490D01*
X611490Y447803D02*
X627490D01*
X611490Y455803D02*
X627490D01*
X611490Y447803D02*
Y455803D01*
X627490Y447803D02*
Y455803D01*
X681905Y464312D02*
X687905D01*
X684904Y461312D02*
Y467312D01*
X680904Y456312D02*
Y472312D01*
X688904Y456312D02*
Y472312D01*
X680904D02*
X688904D01*
X680904Y456312D02*
X688904D01*
X671862Y464312D02*
X677862D01*
X674862Y461312D02*
Y467312D01*
X670862Y456312D02*
Y472312D01*
X678862Y456312D02*
Y472312D01*
X670862D02*
X678862D01*
X670862Y456312D02*
X678862D01*
X694718Y548426D02*
X702718D01*
X694718Y532426D02*
X702718D01*
X694718D02*
Y548426D01*
X702718Y532426D02*
Y548426D01*
X698718Y537426D02*
Y543426D01*
X695718Y540426D02*
X701718D01*
X704761Y532426D02*
X712760D01*
X704761Y548426D02*
X712760D01*
Y532426D02*
Y548426D01*
X704761Y532426D02*
Y548426D01*
X708761Y537426D02*
Y543426D01*
X705760Y540426D02*
X711760D01*
X705898Y497840D02*
X711898D01*
X708898Y494840D02*
Y500840D01*
X704898Y489840D02*
Y505840D01*
X712898Y489840D02*
Y505840D01*
X704898D02*
X712898D01*
X704898Y489840D02*
X712898D01*
X715940Y497840D02*
X721941D01*
X718941Y494840D02*
Y500840D01*
X714940Y489840D02*
Y505840D01*
X722941Y489840D02*
Y505840D01*
X714940D02*
X722941D01*
X714940Y489840D02*
X722941D01*
X686638Y611582D02*
X692638D01*
X689638Y608582D02*
Y614582D01*
X685638Y603582D02*
Y619582D01*
X693638Y603582D02*
Y619582D01*
X685638D02*
X693638D01*
X685638Y603582D02*
X693638D01*
X696681Y611582D02*
X702681D01*
X699680Y608582D02*
Y614582D01*
X703680Y603582D02*
Y619582D01*
X695680Y603582D02*
Y619582D01*
Y603582D02*
X703680D01*
X695680Y619582D02*
X703680D01*
X336816Y1182538D02*
X342816D01*
X339816Y1179538D02*
Y1185538D01*
X335816Y1174538D02*
Y1190538D01*
X343816Y1174538D02*
Y1190538D01*
X335816D02*
X343816D01*
X335816Y1174538D02*
X343816D01*
X376927Y1180536D02*
X384927D01*
X376927Y1164536D02*
X384927D01*
X376927D02*
Y1180536D01*
X384927Y1164536D02*
Y1180536D01*
X380927Y1169536D02*
Y1175536D01*
X377927Y1172536D02*
X383927D01*
X408963Y546086D02*
X420963D01*
X408963Y570086D02*
X420963D01*
Y546086D02*
Y570086D01*
X408963Y546086D02*
Y570086D01*
X414963Y553336D02*
Y562836D01*
X410213Y558086D02*
X419713D01*
X422736Y546086D02*
X434736D01*
X422736Y570086D02*
X434736D01*
Y546086D02*
Y570086D01*
X422736Y546086D02*
Y570086D01*
X428736Y553336D02*
Y562836D01*
X423986Y558086D02*
X433486D01*
X375334Y1061054D02*
Y1073054D01*
X399334Y1061054D02*
Y1073054D01*
X375334Y1061054D02*
X399334D01*
X375334Y1073054D02*
X399334D01*
X382584Y1067054D02*
X392084D01*
X387334Y1062304D02*
Y1071804D01*
X466644Y1068928D02*
Y1080928D01*
X442644Y1068928D02*
Y1080928D01*
X466644D01*
X442644Y1068928D02*
X466644D01*
X449894Y1074928D02*
X459394D01*
X454644Y1070178D02*
Y1079678D01*
X320120Y546086D02*
X332120D01*
X320120Y570086D02*
X332120D01*
Y546086D02*
Y570086D01*
X320120Y546086D02*
Y570086D01*
X326120Y553336D02*
Y562836D01*
X321370Y558086D02*
X330870D01*
X306348Y546086D02*
X318347D01*
X306348Y570086D02*
X318347D01*
Y546086D02*
Y570086D01*
X306348Y546086D02*
Y570086D01*
X312348Y553336D02*
Y562836D01*
X307598Y558086D02*
X317097D01*
X436706Y546086D02*
X448706D01*
X436706Y570086D02*
X448706D01*
Y546086D02*
Y570086D01*
X436706Y546086D02*
Y570086D01*
X442706Y553336D02*
Y562836D01*
X437956Y558086D02*
X447456D01*
X333893Y546086D02*
X345892D01*
X333893Y570086D02*
X345892D01*
Y546086D02*
Y570086D01*
X333893Y546086D02*
Y570086D01*
X339893Y553336D02*
Y562836D01*
X335143Y558086D02*
X344642D01*
X375549Y546086D02*
X387548D01*
X375549Y570086D02*
X387548D01*
Y546086D02*
Y570086D01*
X375549Y546086D02*
Y570086D01*
X381549Y553336D02*
Y562836D01*
X376799Y558086D02*
X386298D01*
X361776Y546086D02*
X373776D01*
X361776Y570086D02*
X373776D01*
Y546086D02*
Y570086D01*
X361776Y546086D02*
Y570086D01*
X367776Y553336D02*
Y562836D01*
X363026Y558086D02*
X372526D01*
X292434Y546038D02*
X304434D01*
X292434Y570038D02*
X304434D01*
Y546038D02*
Y570038D01*
X292434Y546038D02*
Y570038D01*
X298434Y553288D02*
Y562788D01*
X293684Y558038D02*
X303184D01*
X482584Y523494D02*
X507984D01*
X476234Y529844D02*
Y599694D01*
X514334Y529844D02*
Y599694D01*
X477504Y603504D02*
X490204Y622554D01*
X500364D02*
X513064Y603504D01*
X603522Y984703D02*
X611522D01*
X603522Y1000703D02*
X611522D01*
Y984703D02*
Y1000703D01*
X603522Y984703D02*
Y1000703D01*
X607522Y989703D02*
Y995703D01*
X604522Y992703D02*
X610522D01*
X615630Y998989D02*
X623630D01*
X615630Y982989D02*
X623630D01*
X615630D02*
Y998989D01*
X623630Y982989D02*
Y998989D01*
X619630Y987989D02*
Y993989D01*
X616630Y990989D02*
X622630D01*
X565178Y1067602D02*
X573178D01*
X565178Y1051602D02*
X573178D01*
X565178D02*
Y1067602D01*
X573178Y1051602D02*
Y1067602D01*
X569178Y1056602D02*
Y1062602D01*
X566178Y1059602D02*
X572178D01*
X578640Y1067856D02*
X586640D01*
X578640Y1051856D02*
X586640D01*
X578640D02*
Y1067856D01*
X586640Y1051856D02*
Y1067856D01*
X582640Y1056856D02*
Y1062856D01*
X579640Y1059856D02*
X585640D01*
D22*
X844342Y607000D02*
Y613000D01*
X841342Y610000D02*
X847342D01*
X418142Y1135783D02*
X419742D01*
X418942Y1134983D02*
Y1136583D01*
X38728Y163510D02*
Y169510D01*
X35728Y166510D02*
X41728D01*
X585454Y1127300D02*
Y1133300D01*
X582454Y1130300D02*
X588454D01*
X585454Y1117978D02*
Y1123978D01*
X582454Y1120977D02*
X588454D01*
X619002Y166256D02*
X625002D01*
X622001Y163256D02*
Y169256D01*
X879888Y667258D02*
X885888D01*
X882888Y664258D02*
Y670258D01*
X619001Y1106206D02*
X625001D01*
X622001Y1103206D02*
Y1109206D01*
X426914Y1130433D02*
Y1136433D01*
X423914Y1133433D02*
X429914D01*
X844342Y688642D02*
Y694642D01*
X841342Y691642D02*
X847342D01*
X844342Y676110D02*
Y682110D01*
X841342Y679110D02*
X847342D01*
X841342Y666000D02*
X847342D01*
X844342Y663000D02*
Y669000D01*
Y642668D02*
Y648668D01*
X841342Y645668D02*
X847342D01*
X844342Y622348D02*
Y628348D01*
X841342Y625348D02*
X847342D01*
D24*
X2115389Y-46254D02*
D03*
D25*
X2103959Y212445D02*
X2299539D01*
X2350339Y-496844D02*
Y249916D01*
X2063319D02*
X2350339D01*
X2063319Y-496844D02*
Y249916D01*
Y-496844D02*
X2350339D01*
D282*
X836742Y606000D02*
X851942D01*
X836742Y614000D02*
X851942D01*
X836742Y606000D02*
Y614000D01*
X851942Y606000D02*
Y614000D01*
X421592Y1131633D02*
Y1139933D01*
X416292Y1131633D02*
Y1139933D01*
X416442Y1130533D02*
X421442D01*
X416442Y1141033D02*
X421442D01*
X416292Y1139933D02*
X416442D01*
Y1141033D01*
X416292Y1131633D02*
X416442D01*
Y1130533D02*
Y1131633D01*
X421442Y1139933D02*
X421592D01*
X421442D02*
Y1141033D01*
Y1131633D02*
X421592D01*
X421442Y1130533D02*
Y1131633D01*
X34728Y158910D02*
X42728D01*
X34728Y174110D02*
X42728D01*
Y158910D02*
Y174110D01*
X34728Y158910D02*
Y174110D01*
X577854Y1134300D02*
X593054D01*
X577854Y1126300D02*
X593054D01*
Y1134300D01*
X577854Y1126300D02*
Y1134300D01*
Y1124977D02*
X593054D01*
X577854Y1116977D02*
X593054D01*
Y1124977D01*
X577854Y1116977D02*
Y1124977D01*
X618002Y158656D02*
Y173856D01*
X626002Y158656D02*
Y173856D01*
X618002D02*
X626002D01*
X618002Y158656D02*
X626002D01*
X878888Y659658D02*
Y674858D01*
X886888Y659658D02*
Y674858D01*
X878888D02*
X886888D01*
X878888Y659658D02*
X886888D01*
X618001Y1098606D02*
Y1113806D01*
X626001Y1098606D02*
Y1113806D01*
X618001D02*
X626001D01*
X618001Y1098606D02*
X626001D01*
X422914Y1141033D02*
X430914D01*
X422914Y1125833D02*
X430914D01*
X422914D02*
Y1141033D01*
X430914Y1125833D02*
Y1141033D01*
X836742Y687642D02*
X851942D01*
X836742Y695642D02*
X851942D01*
X836742Y687642D02*
Y695642D01*
X851942Y687642D02*
Y695642D01*
X836742Y675110D02*
X851942D01*
X836742Y683110D02*
X851942D01*
X836742Y675110D02*
Y683110D01*
X851942Y675110D02*
Y683110D01*
Y662000D02*
Y670000D01*
X836742Y662000D02*
Y670000D01*
X851942D01*
X836742Y662000D02*
X851942D01*
X836742Y641668D02*
X851942D01*
X836742Y649668D02*
X851942D01*
X836742Y641668D02*
Y649668D01*
X851942Y641668D02*
Y649668D01*
X836742Y621348D02*
X851942D01*
X836742Y629348D02*
X851942D01*
X836742Y621348D02*
Y629348D01*
X851942Y621348D02*
Y629348D01*
M02*
