G04*
G04 #@! TF.GenerationSoftware,Altium Limited,Altium Designer,24.5.2 (23)*
G04*
G04 Layer_Color=8388736*
%FSLAX44Y44*%
%MOMM*%
G71*
G04*
G04 #@! TF.SameCoordinates,06A8B94F-9278-456E-AD24-3EE51E5687D5*
G04*
G04*
G04 #@! TF.FilePolarity,Negative*
G04*
G01*
G75*
%ADD11C,0.1270*%
%ADD18C,0.1500*%
%ADD19C,0.2000*%
%ADD24R,4.8260X2.4130*%
%ADD25C,0.2540*%
%ADD27R,1.2954X2.4892*%
%ADD28R,1.1500X1.4000*%
%ADD32R,0.2200X0.4500*%
%ADD33R,2.2000X1.0500*%
%ADD35R,3.0000X4.5000*%
%ADD36R,1.3000X1.5500*%
%ADD38R,1.2000X2.5000*%
%ADD39R,0.6000X1.1500*%
%ADD40R,0.8000X0.5500*%
%ADD41R,0.4500X0.3000*%
%ADD43R,0.6000X0.5500*%
%ADD44R,0.9000X0.8000*%
%ADD45R,1.2700X0.7600*%
%ADD46R,1.5000X1.1000*%
%ADD47R,0.2500X0.6500*%
%ADD52R,0.6600X0.4000*%
%ADD53R,1.2500X1.7500*%
%ADD54R,0.7500X0.9000*%
%ADD55R,0.5500X0.5200*%
%ADD56R,1.4500X0.2700*%
%ADD57R,0.2700X1.4500*%
%ADD58R,3.2100X3.2100*%
%ADD59R,1.2000X0.3000*%
%ADD60R,0.3000X1.2000*%
%ADD61R,3.1000X3.1000*%
%ADD63R,0.2600X0.7600*%
G04:AMPARAMS|DCode=64|XSize=0.6mm|YSize=0.24mm|CornerRadius=0.06mm|HoleSize=0mm|Usage=FLASHONLY|Rotation=270.000|XOffset=0mm|YOffset=0mm|HoleType=Round|Shape=RoundedRectangle|*
%AMROUNDEDRECTD64*
21,1,0.6000,0.1200,0,0,270.0*
21,1,0.4800,0.2400,0,0,270.0*
1,1,0.1200,-0.0600,-0.2400*
1,1,0.1200,-0.0600,0.2400*
1,1,0.1200,0.0600,0.2400*
1,1,0.1200,0.0600,-0.2400*
%
%ADD64ROUNDEDRECTD64*%
G04:AMPARAMS|DCode=65|XSize=0.6mm|YSize=0.24mm|CornerRadius=0.06mm|HoleSize=0mm|Usage=FLASHONLY|Rotation=180.000|XOffset=0mm|YOffset=0mm|HoleType=Round|Shape=RoundedRectangle|*
%AMROUNDEDRECTD65*
21,1,0.6000,0.1200,0,0,180.0*
21,1,0.4800,0.2400,0,0,180.0*
1,1,0.1200,-0.2400,0.0600*
1,1,0.1200,0.2400,0.0600*
1,1,0.1200,0.2400,-0.0600*
1,1,0.1200,-0.2400,-0.0600*
%
%ADD65ROUNDEDRECTD65*%
G04:AMPARAMS|DCode=66|XSize=1.68mm|YSize=1.68mm|CornerRadius=0.084mm|HoleSize=0mm|Usage=FLASHONLY|Rotation=0.000|XOffset=0mm|YOffset=0mm|HoleType=Round|Shape=RoundedRectangle|*
%AMROUNDEDRECTD66*
21,1,1.6800,1.5120,0,0,0.0*
21,1,1.5120,1.6800,0,0,0.0*
1,1,0.1680,0.7560,-0.7560*
1,1,0.1680,-0.7560,-0.7560*
1,1,0.1680,-0.7560,0.7560*
1,1,0.1680,0.7560,0.7560*
%
%ADD66ROUNDEDRECTD66*%
G04:AMPARAMS|DCode=67|XSize=0.7397mm|YSize=0.2425mm|CornerRadius=0.1212mm|HoleSize=0mm|Usage=FLASHONLY|Rotation=0.000|XOffset=0mm|YOffset=0mm|HoleType=Round|Shape=RoundedRectangle|*
%AMROUNDEDRECTD67*
21,1,0.7397,0.0000,0,0,0.0*
21,1,0.4972,0.2425,0,0,0.0*
1,1,0.2425,0.2486,0.0000*
1,1,0.2425,-0.2486,0.0000*
1,1,0.2425,-0.2486,0.0000*
1,1,0.2425,0.2486,0.0000*
%
%ADD67ROUNDEDRECTD67*%
G04:AMPARAMS|DCode=68|XSize=0.2425mm|YSize=0.7397mm|CornerRadius=0.1212mm|HoleSize=0mm|Usage=FLASHONLY|Rotation=0.000|XOffset=0mm|YOffset=0mm|HoleType=Round|Shape=RoundedRectangle|*
%AMROUNDEDRECTD68*
21,1,0.2425,0.4972,0,0,0.0*
21,1,0.0000,0.7397,0,0,0.0*
1,1,0.2425,0.0000,-0.2486*
1,1,0.2425,0.0000,-0.2486*
1,1,0.2425,0.0000,0.2486*
1,1,0.2425,0.0000,0.2486*
%
%ADD68ROUNDEDRECTD68*%
%ADD69R,0.7397X0.2425*%
%ADD70R,1.5000X0.8000*%
%ADD73R,0.6000X0.6000*%
%ADD75R,0.6000X0.6000*%
%ADD76R,0.6223X2.0066*%
%ADD77R,3.4000X0.9800*%
%ADD78R,1.8000X1.0000*%
%ADD79R,0.9000X0.7500*%
%ADD80R,1.0000X0.9500*%
%ADD82R,1.2700X2.2000*%
%ADD83R,0.7600X2.4000*%
%ADD84R,2.1000X1.4000*%
%ADD85R,3.0000X1.0000*%
%ADD86R,0.4500X0.6300*%
%ADD87R,2.6000X1.2200*%
%ADD88R,0.3000X0.7500*%
%ADD89R,1.4500X1.7500*%
%ADD90R,0.2700X0.9000*%
%ADD91R,0.2700X0.8000*%
%ADD92R,2.8000X1.4000*%
%ADD93R,0.9500X1.3500*%
%ADD94R,1.4500X1.1500*%
%ADD95R,1.0000X0.9500*%
%ADD96R,0.6200X0.6200*%
%ADD98R,3.0000X4.9000*%
%ADD100R,0.5200X0.5500*%
%ADD101R,0.6200X0.6200*%
%ADD104R,1.4000X2.1000*%
%ADD105R,2.4000X0.7600*%
%ADD106R,0.3000X0.3000*%
%ADD107R,0.9500X1.0000*%
%ADD108R,1.7500X1.2500*%
%ADD109R,0.9500X1.0000*%
%ADD110R,1.4000X2.8000*%
%ADD111R,0.4500X0.2200*%
%ADD115C,0.7500*%
%ADD116C,0.6096*%
%ADD117R,1.2500X1.5000*%
%ADD118R,1.1000X1.6500*%
%ADD119R,0.8000X0.3200*%
%ADD120R,0.7000X0.3200*%
%ADD121R,0.3200X0.5500*%
%ADD122R,1.1500X1.1000*%
%ADD123R,1.4000X1.6500*%
%ADD124R,1.4000X1.6000*%
%ADD125R,1.3000X2.6000*%
%ADD126R,0.7000X1.2500*%
%ADD127R,0.9000X0.6500*%
%ADD128R,0.5500X0.4000*%
%ADD129R,0.4000X0.5500*%
%ADD130R,0.7000X0.6500*%
%ADD131R,1.0000X0.9000*%
%ADD132R,1.3700X0.8600*%
%ADD133R,0.3500X0.7500*%
%ADD134R,0.4600X0.3500*%
%ADD135R,0.4500X0.4600*%
%ADD136R,0.9000X0.9000*%
%ADD137R,2.2900X1.1200*%
%ADD138R,0.7600X0.5000*%
%ADD139R,0.8500X1.0000*%
%ADD140R,0.6500X0.6200*%
%ADD141R,1.5500X0.3700*%
%ADD142R,0.3700X1.5500*%
%ADD143R,1.3000X0.4000*%
%ADD144R,0.4000X1.3000*%
%ADD145R,0.8600X0.3600*%
%ADD146R,0.3600X0.8600*%
G04:AMPARAMS|DCode=147|XSize=0.7mm|YSize=0.34mm|CornerRadius=0.11mm|HoleSize=0mm|Usage=FLASHONLY|Rotation=270.000|XOffset=0mm|YOffset=0mm|HoleType=Round|Shape=RoundedRectangle|*
%AMROUNDEDRECTD147*
21,1,0.7000,0.1200,0,0,270.0*
21,1,0.4800,0.3400,0,0,270.0*
1,1,0.2200,-0.0600,-0.2400*
1,1,0.2200,-0.0600,0.2400*
1,1,0.2200,0.0600,0.2400*
1,1,0.2200,0.0600,-0.2400*
%
%ADD147ROUNDEDRECTD147*%
G04:AMPARAMS|DCode=148|XSize=0.7mm|YSize=0.34mm|CornerRadius=0.11mm|HoleSize=0mm|Usage=FLASHONLY|Rotation=180.000|XOffset=0mm|YOffset=0mm|HoleType=Round|Shape=RoundedRectangle|*
%AMROUNDEDRECTD148*
21,1,0.7000,0.1200,0,0,180.0*
21,1,0.4800,0.3400,0,0,180.0*
1,1,0.2200,-0.2400,0.0600*
1,1,0.2200,0.2400,0.0600*
1,1,0.2200,0.2400,-0.0600*
1,1,0.2200,-0.2400,-0.0600*
%
%ADD148ROUNDEDRECTD148*%
%ADD149R,2.0500X2.0500*%
%ADD150R,1.6000X0.9000*%
%ADD151R,2.1000X1.5500*%
%ADD152R,0.9500X0.7500*%
%ADD153R,0.7000X0.7000*%
%ADD154C,0.7000*%
%ADD155R,1.0000X0.8500*%
%ADD156R,1.1000X1.0500*%
%ADD157R,0.6500X0.6000*%
%ADD158R,1.3700X2.3000*%
%ADD159R,0.8600X2.5000*%
%ADD160R,2.2000X1.5000*%
%ADD161C,1.1000*%
%ADD162R,0.5500X0.7300*%
%ADD163R,0.4000X0.8500*%
%ADD164R,0.3700X1.0000*%
%ADD165R,0.3700X0.9000*%
%ADD166R,1.1000X1.0500*%
%ADD167R,0.7000X0.7000*%
%ADD168R,0.7200X0.7200*%
%ADD169R,0.7100X4.7000*%
%ADD170R,0.9100X4.7000*%
%ADD171C,0.3000*%
%ADD172R,0.6200X0.6500*%
%ADD173R,0.7200X0.7200*%
%ADD174R,0.9000X0.9000*%
%ADD175R,0.4600X0.4500*%
%ADD176R,1.5000X2.2000*%
%ADD177R,2.5000X0.8600*%
%ADD178R,1.0500X1.1000*%
%ADD179R,1.0500X1.1000*%
%ADD180R,1.8500X1.3500*%
%ADD181R,0.5500X0.3200*%
%ADD182R,0.3200X0.7000*%
%ADD183R,0.3200X0.8000*%
%ADD184R,0.8600X1.3700*%
%ADD185C,1.6000*%
%ADD186C,1.7000*%
%ADD187R,1.7000X1.7000*%
%ADD188R,1.7000X1.7000*%
%ADD189C,1.6510*%
G04:AMPARAMS|DCode=190|XSize=2.4mm|YSize=1.3mm|CornerRadius=0.65mm|HoleSize=0mm|Usage=FLASHONLY|Rotation=90.000|XOffset=0mm|YOffset=0mm|HoleType=Round|Shape=RoundedRectangle|*
%AMROUNDEDRECTD190*
21,1,2.4000,0.0000,0,0,90.0*
21,1,1.1000,1.3000,0,0,90.0*
1,1,1.3000,0.0000,0.5500*
1,1,1.3000,0.0000,-0.5500*
1,1,1.3000,0.0000,-0.5500*
1,1,1.3000,0.0000,0.5500*
%
%ADD190ROUNDEDRECTD190*%
%ADD191O,0.9500X0.6000*%
G04:AMPARAMS|DCode=192|XSize=2.7mm|YSize=1.4mm|CornerRadius=0.7mm|HoleSize=0mm|Usage=FLASHONLY|Rotation=90.000|XOffset=0mm|YOffset=0mm|HoleType=Round|Shape=RoundedRectangle|*
%AMROUNDEDRECTD192*
21,1,2.7000,0.0000,0,0,90.0*
21,1,1.3000,1.4000,0,0,90.0*
1,1,1.4000,0.0000,0.6500*
1,1,1.4000,0.0000,-0.6500*
1,1,1.4000,0.0000,-0.6500*
1,1,1.4000,0.0000,0.6500*
%
%ADD192ROUNDEDRECTD192*%
G04:AMPARAMS|DCode=193|XSize=1.75mm|YSize=1.2mm|CornerRadius=0.6mm|HoleSize=0mm|Usage=FLASHONLY|Rotation=180.000|XOffset=0mm|YOffset=0mm|HoleType=Round|Shape=RoundedRectangle|*
%AMROUNDEDRECTD193*
21,1,1.7500,0.0000,0,0,180.0*
21,1,0.5500,1.2000,0,0,180.0*
1,1,1.2000,-0.2750,0.0000*
1,1,1.2000,0.2750,0.0000*
1,1,1.2000,0.2750,0.0000*
1,1,1.2000,-0.2750,0.0000*
%
%ADD193ROUNDEDRECTD193*%
%ADD194C,2.9000*%
%ADD195C,8.0000*%
%ADD196C,0.5000*%
%ADD197C,0.1000*%
%ADD198C,4.6000*%
%ADD199C,0.0920*%
G36*
X665532Y811498D02*
X657032D01*
Y822998D01*
X665532D01*
Y811498D01*
D02*
G37*
G36*
Y786098D02*
X657032D01*
Y797598D01*
X665532D01*
Y786098D01*
D02*
G37*
G36*
Y760698D02*
X657032D01*
Y772198D01*
X665532D01*
Y760698D01*
D02*
G37*
G36*
Y735298D02*
X657032D01*
Y746798D01*
X665532D01*
Y735298D01*
D02*
G37*
G36*
Y709898D02*
X657032D01*
Y721398D01*
X665532D01*
Y709898D01*
D02*
G37*
G36*
X1157245Y-588172D02*
X1156792D01*
Y-588626D01*
Y-589080D01*
X1156338D01*
Y-589533D01*
X1155885D01*
Y-589987D01*
X1155431D01*
Y-590440D01*
Y-590894D01*
X1154978D01*
Y-591347D01*
X1154524D01*
Y-591801D01*
Y-592254D01*
X1154071D01*
Y-592708D01*
X1153617D01*
Y-593162D01*
X1153164D01*
Y-593615D01*
Y-594069D01*
X1152710D01*
Y-594522D01*
X1152256D01*
Y-594976D01*
X1151803D01*
Y-595429D01*
Y-595883D01*
X1151349D01*
Y-596337D01*
X1150896D01*
Y-596790D01*
X1150442D01*
Y-597244D01*
Y-597697D01*
X1149989D01*
Y-598151D01*
X1149535D01*
Y-598604D01*
Y-599058D01*
X1149081D01*
Y-599511D01*
X1148628D01*
Y-599965D01*
X1148174D01*
Y-600419D01*
Y-600872D01*
X1147721D01*
Y-601326D01*
X1147267D01*
Y-601779D01*
X1146814D01*
Y-602233D01*
Y-602686D01*
X1146360D01*
Y-603140D01*
X1145907D01*
Y-603593D01*
Y-604047D01*
X1145453D01*
Y-604501D01*
X1144999D01*
Y-604954D01*
X1144546D01*
Y-605408D01*
Y-605861D01*
X1144092D01*
Y-606315D01*
X1143639D01*
Y-606768D01*
X1143185D01*
Y-607222D01*
Y-607675D01*
X1142732D01*
Y-608129D01*
X1142278D01*
Y-608583D01*
X1141825D01*
Y-609036D01*
Y-609490D01*
Y-609943D01*
X1142278D01*
Y-610397D01*
Y-610850D01*
X1142732D01*
Y-611304D01*
X1143185D01*
Y-611758D01*
X1143639D01*
Y-612211D01*
Y-612665D01*
X1144092D01*
Y-613118D01*
X1144546D01*
Y-613572D01*
X1144999D01*
Y-614025D01*
Y-614479D01*
X1145453D01*
Y-614932D01*
X1145907D01*
Y-615386D01*
Y-615839D01*
X1146360D01*
Y-616293D01*
X1146814D01*
Y-616747D01*
X1147267D01*
Y-617200D01*
Y-617654D01*
X1147721D01*
Y-618107D01*
X1148174D01*
Y-618561D01*
X1148628D01*
Y-619014D01*
Y-619468D01*
X1149081D01*
Y-619921D01*
X1149535D01*
Y-620375D01*
X1149989D01*
Y-620829D01*
Y-621282D01*
X1150442D01*
Y-621736D01*
X1150896D01*
Y-622189D01*
X1151349D01*
Y-622643D01*
Y-623096D01*
X1151803D01*
Y-623550D01*
X1152256D01*
Y-624003D01*
X1152710D01*
Y-624457D01*
Y-624911D01*
X1153164D01*
Y-625364D01*
X1153617D01*
Y-625818D01*
X1154071D01*
Y-626271D01*
Y-626725D01*
X1154524D01*
Y-627178D01*
X1154978D01*
Y-627632D01*
Y-628086D01*
X1155431D01*
Y-628539D01*
X1155885D01*
Y-628993D01*
X1156338D01*
Y-629446D01*
Y-629900D01*
X1156792D01*
Y-630353D01*
X1157245D01*
Y-630807D01*
X1157699D01*
Y-631260D01*
X1158153D01*
Y-631714D01*
X1143639D01*
Y-631260D01*
Y-630807D01*
X1143185D01*
Y-630353D01*
X1142732D01*
Y-629900D01*
X1142278D01*
Y-629446D01*
Y-628993D01*
X1141825D01*
Y-628539D01*
X1141371D01*
Y-628086D01*
X1140918D01*
Y-627632D01*
Y-627178D01*
X1140464D01*
Y-626725D01*
X1140010D01*
Y-626271D01*
Y-625818D01*
X1139557D01*
Y-625364D01*
X1139103D01*
Y-624911D01*
X1138650D01*
Y-624457D01*
Y-624003D01*
X1138196D01*
Y-623550D01*
X1137743D01*
Y-623096D01*
X1137289D01*
Y-622643D01*
Y-622189D01*
X1136835D01*
Y-621736D01*
X1136382D01*
Y-621282D01*
Y-620829D01*
X1135928D01*
Y-620375D01*
X1135475D01*
Y-619921D01*
X1135021D01*
Y-619468D01*
Y-619014D01*
X1134568D01*
Y-618561D01*
X1134114D01*
Y-618107D01*
X1133661D01*
Y-617654D01*
X1133207D01*
Y-618107D01*
Y-618561D01*
X1132754D01*
Y-619014D01*
X1132300D01*
Y-619468D01*
X1131846D01*
Y-619921D01*
Y-620375D01*
X1131393D01*
Y-620829D01*
X1130939D01*
Y-621282D01*
Y-621736D01*
X1130486D01*
Y-622189D01*
X1130032D01*
Y-622643D01*
X1129579D01*
Y-623096D01*
Y-623550D01*
X1129125D01*
Y-624003D01*
X1128671D01*
Y-624457D01*
Y-624911D01*
X1128218D01*
Y-625364D01*
X1127764D01*
Y-625818D01*
X1127311D01*
Y-626271D01*
Y-626725D01*
X1126857D01*
Y-627178D01*
X1126404D01*
Y-627632D01*
Y-628086D01*
X1125950D01*
Y-628539D01*
X1125497D01*
Y-628993D01*
X1125043D01*
Y-629446D01*
Y-629900D01*
X1124589D01*
Y-630353D01*
X1124136D01*
Y-630807D01*
Y-631260D01*
X1123682D01*
Y-631714D01*
X1110529D01*
Y-631260D01*
X1110983D01*
Y-630807D01*
X1111436D01*
Y-630353D01*
Y-629900D01*
X1111890D01*
Y-629446D01*
X1112344D01*
Y-628993D01*
X1112797D01*
Y-628539D01*
Y-628086D01*
X1113251D01*
Y-627632D01*
X1113704D01*
Y-627178D01*
Y-626725D01*
X1114158D01*
Y-626271D01*
X1114611D01*
Y-625818D01*
X1115065D01*
Y-625364D01*
X1115518D01*
Y-624911D01*
Y-624457D01*
X1115972D01*
Y-624003D01*
X1116425D01*
Y-623550D01*
Y-623096D01*
X1116879D01*
Y-622643D01*
X1117333D01*
Y-622189D01*
X1117786D01*
Y-621736D01*
Y-621282D01*
X1118240D01*
Y-620829D01*
X1118693D01*
Y-620375D01*
X1119147D01*
Y-619921D01*
Y-619468D01*
X1119600D01*
Y-619014D01*
X1120054D01*
Y-618561D01*
X1120508D01*
Y-618107D01*
Y-617654D01*
X1120961D01*
Y-617200D01*
X1121415D01*
Y-616747D01*
X1121868D01*
Y-616293D01*
Y-615839D01*
X1122322D01*
Y-615386D01*
X1122775D01*
Y-614932D01*
X1123229D01*
Y-614479D01*
Y-614025D01*
X1123682D01*
Y-613572D01*
X1124136D01*
Y-613118D01*
X1124589D01*
Y-612665D01*
Y-612211D01*
X1125043D01*
Y-611758D01*
X1125497D01*
Y-611304D01*
Y-610850D01*
X1125950D01*
Y-610397D01*
X1126404D01*
Y-609943D01*
X1126857D01*
Y-609490D01*
Y-609036D01*
X1126404D01*
Y-608583D01*
X1125950D01*
Y-608129D01*
X1125497D01*
Y-607675D01*
Y-607222D01*
X1125043D01*
Y-606768D01*
X1124589D01*
Y-606315D01*
X1124136D01*
Y-605861D01*
Y-605408D01*
X1123682D01*
Y-604954D01*
X1123229D01*
Y-604501D01*
Y-604047D01*
X1122775D01*
Y-603593D01*
X1122322D01*
Y-603140D01*
X1121868D01*
Y-602686D01*
Y-602233D01*
X1121415D01*
Y-601779D01*
X1120961D01*
Y-601326D01*
X1120508D01*
Y-600872D01*
Y-600419D01*
X1120054D01*
Y-599965D01*
X1119600D01*
Y-599511D01*
Y-599058D01*
X1119147D01*
Y-598604D01*
X1118693D01*
Y-598151D01*
X1118240D01*
Y-597697D01*
Y-597244D01*
X1117786D01*
Y-596790D01*
X1117333D01*
Y-596337D01*
X1116879D01*
Y-595883D01*
Y-595429D01*
X1116425D01*
Y-594976D01*
X1115972D01*
Y-594522D01*
Y-594069D01*
X1115518D01*
Y-593615D01*
X1115065D01*
Y-593162D01*
X1114611D01*
Y-592708D01*
Y-592254D01*
X1114158D01*
Y-591801D01*
X1113704D01*
Y-591347D01*
X1113251D01*
Y-590894D01*
Y-590440D01*
X1112797D01*
Y-589987D01*
X1112344D01*
Y-589533D01*
Y-589080D01*
X1111890D01*
Y-588626D01*
X1111436D01*
Y-588172D01*
X1110983D01*
Y-587719D01*
X1125043D01*
Y-588172D01*
X1125497D01*
Y-588626D01*
X1125950D01*
Y-589080D01*
Y-589533D01*
X1126404D01*
Y-589987D01*
X1126857D01*
Y-590440D01*
X1127311D01*
Y-590894D01*
Y-591347D01*
X1127764D01*
Y-591801D01*
X1128218D01*
Y-592254D01*
Y-592708D01*
X1128671D01*
Y-593162D01*
X1129125D01*
Y-593615D01*
Y-594069D01*
X1129579D01*
Y-594522D01*
X1130032D01*
Y-594976D01*
X1130486D01*
Y-595429D01*
Y-595883D01*
X1130939D01*
Y-596337D01*
X1131393D01*
Y-596790D01*
Y-597244D01*
X1131846D01*
Y-597697D01*
X1132300D01*
Y-598151D01*
X1132754D01*
Y-598604D01*
Y-599058D01*
X1133207D01*
Y-599511D01*
X1133661D01*
Y-599965D01*
Y-600419D01*
X1134114D01*
Y-600872D01*
X1134568D01*
Y-601326D01*
X1135021D01*
Y-600872D01*
X1135475D01*
Y-600419D01*
Y-599965D01*
X1135928D01*
Y-599511D01*
X1136382D01*
Y-599058D01*
X1136835D01*
Y-598604D01*
Y-598151D01*
X1137289D01*
Y-597697D01*
X1137743D01*
Y-597244D01*
Y-596790D01*
X1138196D01*
Y-596337D01*
X1138650D01*
Y-595883D01*
X1139103D01*
Y-595429D01*
Y-594976D01*
X1139557D01*
Y-594522D01*
X1140010D01*
Y-594069D01*
Y-593615D01*
X1140464D01*
Y-593162D01*
X1140918D01*
Y-592708D01*
X1141371D01*
Y-592254D01*
Y-591801D01*
X1141825D01*
Y-591347D01*
X1142278D01*
Y-590894D01*
Y-590440D01*
X1142732D01*
Y-589987D01*
X1143185D01*
Y-589533D01*
X1143639D01*
Y-589080D01*
Y-588626D01*
X1144092D01*
Y-588172D01*
X1144546D01*
Y-587719D01*
X1157245D01*
Y-588172D01*
D02*
G37*
G36*
X931375Y-543270D02*
X935910D01*
Y-543724D01*
X938632D01*
Y-544178D01*
X940899D01*
Y-544631D01*
X942713D01*
Y-545085D01*
X944528D01*
Y-545538D01*
X945888D01*
Y-545992D01*
X947249D01*
Y-546445D01*
X948610D01*
Y-546899D01*
X949517D01*
Y-547352D01*
X950878D01*
Y-547806D01*
X951785D01*
Y-548260D01*
X952692D01*
Y-548713D01*
X953599D01*
Y-549167D01*
X954506D01*
Y-549620D01*
X955413D01*
Y-550074D01*
X955867D01*
Y-550527D01*
X956774D01*
Y-550981D01*
X957681D01*
Y-551435D01*
X958135D01*
Y-551888D01*
X959042D01*
Y-552342D01*
X959495D01*
Y-552795D01*
X960402D01*
Y-553249D01*
X960856D01*
Y-553702D01*
X961309D01*
Y-554156D01*
X962216D01*
Y-554609D01*
X962670D01*
Y-555063D01*
X963123D01*
Y-555517D01*
X963577D01*
Y-555970D01*
X964484D01*
Y-556424D01*
X964938D01*
Y-556877D01*
X965391D01*
Y-557331D01*
X965845D01*
Y-557784D01*
X966298D01*
Y-558238D01*
X966752D01*
Y-558691D01*
X967206D01*
Y-559145D01*
X967659D01*
Y-559599D01*
X968113D01*
Y-560052D01*
X968566D01*
Y-560506D01*
X969020D01*
Y-560959D01*
X969473D01*
Y-561413D01*
Y-561866D01*
X969927D01*
Y-562320D01*
X970380D01*
Y-562773D01*
X970834D01*
Y-563227D01*
X971288D01*
Y-563680D01*
Y-564134D01*
X971741D01*
Y-564588D01*
X972195D01*
Y-565041D01*
X972648D01*
Y-565495D01*
Y-565948D01*
X973102D01*
Y-566402D01*
X973555D01*
Y-566855D01*
Y-567309D01*
X974009D01*
Y-567762D01*
X974463D01*
Y-568216D01*
Y-568670D01*
X974916D01*
Y-569123D01*
X975370D01*
Y-569577D01*
Y-570030D01*
X975823D01*
Y-570484D01*
Y-570937D01*
X976277D01*
Y-571391D01*
Y-571844D01*
X976730D01*
Y-572298D01*
Y-572752D01*
X977184D01*
Y-573205D01*
Y-573659D01*
X977637D01*
Y-574112D01*
Y-574566D01*
X978091D01*
Y-575019D01*
Y-575473D01*
X978544D01*
Y-575927D01*
Y-576380D01*
Y-576834D01*
X978998D01*
Y-577287D01*
Y-577741D01*
X979452D01*
Y-578194D01*
Y-578648D01*
Y-579101D01*
X979905D01*
Y-579555D01*
Y-580009D01*
Y-580462D01*
X980359D01*
Y-580916D01*
Y-581369D01*
Y-581823D01*
Y-582276D01*
X980812D01*
Y-582730D01*
Y-583183D01*
Y-583637D01*
Y-584090D01*
X981266D01*
Y-584544D01*
Y-584998D01*
Y-585451D01*
Y-585905D01*
X981719D01*
Y-586358D01*
Y-586812D01*
Y-587265D01*
Y-587719D01*
Y-588172D01*
Y-588626D01*
Y-589080D01*
X982173D01*
Y-589533D01*
Y-589987D01*
Y-590440D01*
Y-590894D01*
Y-591347D01*
Y-591801D01*
Y-592254D01*
Y-592708D01*
Y-593162D01*
Y-593615D01*
Y-594069D01*
X982626D01*
Y-594522D01*
Y-594976D01*
Y-595429D01*
Y-595883D01*
Y-596337D01*
Y-596790D01*
Y-597244D01*
Y-597697D01*
Y-598151D01*
Y-598604D01*
X982173D01*
Y-599058D01*
Y-599511D01*
Y-599965D01*
Y-600419D01*
Y-600872D01*
Y-601326D01*
Y-601779D01*
Y-602233D01*
Y-602686D01*
Y-603140D01*
Y-603593D01*
X981719D01*
Y-604047D01*
Y-604501D01*
Y-604954D01*
Y-605408D01*
Y-605861D01*
Y-606315D01*
X981266D01*
Y-606768D01*
Y-607222D01*
Y-607675D01*
Y-608129D01*
Y-608583D01*
X980812D01*
Y-609036D01*
Y-609490D01*
Y-609943D01*
Y-610397D01*
X980359D01*
Y-610850D01*
Y-611304D01*
Y-611758D01*
Y-612211D01*
X979905D01*
Y-612665D01*
Y-613118D01*
Y-613572D01*
X979452D01*
Y-614025D01*
Y-614479D01*
X978998D01*
Y-614932D01*
Y-615386D01*
Y-615839D01*
X978544D01*
Y-616293D01*
Y-616747D01*
X978091D01*
Y-617200D01*
Y-617654D01*
Y-618107D01*
X977637D01*
Y-618561D01*
Y-619014D01*
X977184D01*
Y-619468D01*
Y-619921D01*
X976730D01*
Y-620375D01*
Y-620829D01*
X976277D01*
Y-621282D01*
Y-621736D01*
X975823D01*
Y-621282D01*
Y-620829D01*
Y-620375D01*
Y-619921D01*
Y-619468D01*
Y-619014D01*
Y-618561D01*
Y-618107D01*
Y-617654D01*
Y-617200D01*
Y-616747D01*
Y-616293D01*
Y-615839D01*
Y-615386D01*
Y-614932D01*
Y-614479D01*
Y-614025D01*
Y-613572D01*
Y-613118D01*
Y-612665D01*
Y-612211D01*
Y-611758D01*
Y-611304D01*
Y-610850D01*
Y-610397D01*
Y-609943D01*
Y-609490D01*
Y-609036D01*
Y-608583D01*
Y-608129D01*
Y-607675D01*
Y-607222D01*
Y-606768D01*
Y-606315D01*
Y-605861D01*
Y-605408D01*
Y-604954D01*
Y-604501D01*
Y-604047D01*
Y-603593D01*
Y-603140D01*
Y-602686D01*
Y-602233D01*
Y-601779D01*
Y-601326D01*
Y-600872D01*
Y-600419D01*
Y-599965D01*
Y-599511D01*
Y-599058D01*
Y-598604D01*
Y-598151D01*
Y-597697D01*
Y-597244D01*
Y-596790D01*
Y-596337D01*
Y-595883D01*
Y-595429D01*
Y-594976D01*
Y-594522D01*
Y-594069D01*
Y-593615D01*
Y-593162D01*
Y-592708D01*
Y-592254D01*
Y-591801D01*
Y-591347D01*
Y-590894D01*
Y-590440D01*
Y-589987D01*
Y-589533D01*
Y-589080D01*
Y-588626D01*
Y-588172D01*
Y-587719D01*
Y-587265D01*
X963123D01*
Y-587719D01*
Y-588172D01*
Y-588626D01*
Y-589080D01*
Y-589533D01*
Y-589987D01*
Y-590440D01*
Y-590894D01*
Y-591347D01*
Y-591801D01*
Y-592254D01*
Y-592708D01*
Y-593162D01*
Y-593615D01*
Y-594069D01*
Y-594522D01*
Y-594976D01*
Y-595429D01*
Y-595883D01*
Y-596337D01*
Y-596790D01*
Y-597244D01*
Y-597697D01*
Y-598151D01*
Y-598604D01*
Y-599058D01*
Y-599511D01*
Y-599965D01*
Y-600419D01*
Y-600872D01*
Y-601326D01*
Y-601779D01*
Y-602233D01*
Y-602686D01*
Y-603140D01*
Y-603593D01*
Y-604047D01*
Y-604501D01*
Y-604954D01*
Y-605408D01*
Y-605861D01*
Y-606315D01*
Y-606768D01*
Y-607222D01*
Y-607675D01*
Y-608129D01*
Y-608583D01*
Y-609036D01*
Y-609490D01*
Y-609943D01*
Y-610397D01*
Y-610850D01*
Y-611304D01*
Y-611758D01*
Y-612211D01*
Y-612665D01*
Y-613118D01*
Y-613572D01*
Y-614025D01*
Y-614479D01*
Y-614932D01*
X962670D01*
Y-615386D01*
Y-615839D01*
Y-616293D01*
Y-616747D01*
X962216D01*
Y-617200D01*
Y-617654D01*
X961763D01*
Y-618107D01*
Y-618561D01*
X961309D01*
Y-619014D01*
X960856D01*
Y-619468D01*
X960402D01*
Y-619921D01*
X959949D01*
Y-620375D01*
X959495D01*
Y-620829D01*
X958588D01*
Y-621282D01*
X957227D01*
Y-621736D01*
X950878D01*
Y-621282D01*
X949517D01*
Y-620829D01*
X948610D01*
Y-620375D01*
X948156D01*
Y-619921D01*
X947703D01*
Y-619468D01*
X947249D01*
Y-619014D01*
Y-618561D01*
X946796D01*
Y-618107D01*
Y-617654D01*
X946342D01*
Y-617200D01*
Y-616747D01*
Y-616293D01*
Y-615839D01*
X945888D01*
Y-615386D01*
Y-614932D01*
Y-614479D01*
Y-614025D01*
Y-613572D01*
Y-613118D01*
Y-612665D01*
Y-612211D01*
Y-611758D01*
Y-611304D01*
Y-610850D01*
Y-610397D01*
Y-609943D01*
Y-609490D01*
Y-609036D01*
Y-608583D01*
Y-608129D01*
Y-607675D01*
Y-607222D01*
Y-606768D01*
Y-606315D01*
Y-605861D01*
Y-605408D01*
Y-604954D01*
Y-604501D01*
Y-604047D01*
Y-603593D01*
Y-603140D01*
Y-602686D01*
Y-602233D01*
Y-601779D01*
Y-601326D01*
Y-600872D01*
Y-600419D01*
Y-599965D01*
Y-599511D01*
Y-599058D01*
Y-598604D01*
Y-598151D01*
Y-597697D01*
Y-597244D01*
Y-596790D01*
Y-596337D01*
Y-595883D01*
Y-595429D01*
Y-594976D01*
Y-594522D01*
Y-594069D01*
Y-593615D01*
Y-593162D01*
Y-592708D01*
Y-592254D01*
Y-591801D01*
Y-591347D01*
Y-590894D01*
Y-590440D01*
Y-589987D01*
Y-589533D01*
Y-589080D01*
Y-588626D01*
Y-588172D01*
Y-587719D01*
Y-587265D01*
X933189D01*
Y-587719D01*
Y-588172D01*
Y-588626D01*
Y-589080D01*
Y-589533D01*
Y-589987D01*
Y-590440D01*
Y-590894D01*
Y-591347D01*
Y-591801D01*
Y-592254D01*
Y-592708D01*
Y-593162D01*
Y-593615D01*
Y-594069D01*
Y-594522D01*
Y-594976D01*
Y-595429D01*
Y-595883D01*
Y-596337D01*
Y-596790D01*
Y-597244D01*
Y-597697D01*
Y-598151D01*
Y-598604D01*
Y-599058D01*
Y-599511D01*
Y-599965D01*
Y-600419D01*
Y-600872D01*
Y-601326D01*
Y-601779D01*
Y-602233D01*
Y-602686D01*
Y-603140D01*
Y-603593D01*
Y-604047D01*
Y-604501D01*
Y-604954D01*
Y-605408D01*
Y-605861D01*
Y-606315D01*
Y-606768D01*
Y-607222D01*
Y-607675D01*
Y-608129D01*
Y-608583D01*
Y-609036D01*
Y-609490D01*
Y-609943D01*
Y-610397D01*
Y-610850D01*
Y-611304D01*
Y-611758D01*
Y-612211D01*
Y-612665D01*
Y-613118D01*
Y-613572D01*
Y-614025D01*
Y-614479D01*
Y-614932D01*
Y-615386D01*
Y-615839D01*
Y-616293D01*
Y-616747D01*
Y-617200D01*
Y-617654D01*
Y-618107D01*
Y-618561D01*
Y-619014D01*
Y-619468D01*
Y-619921D01*
Y-620375D01*
X933642D01*
Y-620829D01*
Y-621282D01*
Y-621736D01*
Y-622189D01*
X934096D01*
Y-622643D01*
Y-623096D01*
Y-623550D01*
X934549D01*
Y-624003D01*
Y-624457D01*
Y-624911D01*
X935003D01*
Y-625364D01*
Y-625818D01*
X935457D01*
Y-626271D01*
X935910D01*
Y-626725D01*
Y-627178D01*
X936364D01*
Y-627632D01*
X936817D01*
Y-628086D01*
X937271D01*
Y-628539D01*
X937724D01*
Y-628993D01*
X938178D01*
Y-629446D01*
X938632D01*
Y-629900D01*
X939539D01*
Y-630353D01*
X939992D01*
Y-630807D01*
X940899D01*
Y-631260D01*
X941806D01*
Y-631714D01*
X942713D01*
Y-632168D01*
X944074D01*
Y-632621D01*
X945888D01*
Y-633075D01*
X954960D01*
Y-632621D01*
X956774D01*
Y-632168D01*
X957681D01*
Y-631714D01*
X959042D01*
Y-631260D01*
X959495D01*
Y-630807D01*
X960402D01*
Y-630353D01*
X960856D01*
Y-629900D01*
X961309D01*
Y-629446D01*
X962216D01*
Y-628993D01*
X962670D01*
Y-628539D01*
X963123D01*
Y-628086D01*
Y-627632D01*
X963577D01*
Y-628086D01*
Y-628539D01*
Y-628993D01*
Y-629446D01*
Y-629900D01*
Y-630353D01*
Y-630807D01*
Y-631260D01*
Y-631714D01*
Y-632168D01*
X968566D01*
Y-632621D01*
X968113D01*
Y-633075D01*
X967659D01*
Y-633528D01*
X967206D01*
Y-633982D01*
X966752D01*
Y-634435D01*
X966298D01*
Y-634889D01*
X965845D01*
Y-635342D01*
X965391D01*
Y-635796D01*
X964938D01*
Y-636250D01*
X964031D01*
Y-636703D01*
X963577D01*
Y-637157D01*
X963123D01*
Y-637610D01*
X962670D01*
Y-638064D01*
X961763D01*
Y-638517D01*
X961309D01*
Y-638971D01*
X960856D01*
Y-639424D01*
X959949D01*
Y-639878D01*
X959495D01*
Y-640331D01*
X958588D01*
Y-640785D01*
X958135D01*
Y-641239D01*
X957227D01*
Y-641692D01*
X956774D01*
Y-642146D01*
X955867D01*
Y-642599D01*
X954960D01*
Y-643053D01*
X954052D01*
Y-643506D01*
X953599D01*
Y-643960D01*
X952692D01*
Y-644414D01*
X951331D01*
Y-644867D01*
X950424D01*
Y-645321D01*
X949517D01*
Y-645774D01*
X948156D01*
Y-646228D01*
X947249D01*
Y-646681D01*
X945888D01*
Y-647135D01*
X944074D01*
Y-647588D01*
X942713D01*
Y-648042D01*
X940899D01*
Y-648495D01*
X938178D01*
Y-648949D01*
X935003D01*
Y-649403D01*
X923211D01*
Y-648949D01*
X920036D01*
Y-648495D01*
X917768D01*
Y-648042D01*
X915954D01*
Y-647588D01*
X914139D01*
Y-647135D01*
X912779D01*
Y-646681D01*
X911418D01*
Y-646228D01*
X910058D01*
Y-645774D01*
X909150D01*
Y-645321D01*
X907790D01*
Y-644867D01*
X906883D01*
Y-644414D01*
X905975D01*
Y-643960D01*
X905068D01*
Y-643506D01*
X904161D01*
Y-643053D01*
X903254D01*
Y-642599D01*
X902347D01*
Y-642146D01*
X901893D01*
Y-641692D01*
X900986D01*
Y-641239D01*
X900079D01*
Y-640785D01*
X899626D01*
Y-640331D01*
X898719D01*
Y-639878D01*
X898265D01*
Y-639424D01*
X897812D01*
Y-638971D01*
X896904D01*
Y-638517D01*
X896451D01*
Y-638064D01*
X895997D01*
Y-637610D01*
X895090D01*
Y-637157D01*
X894637D01*
Y-636703D01*
X894183D01*
Y-636250D01*
X893729D01*
Y-635796D01*
X893276D01*
Y-635342D01*
X892822D01*
Y-634889D01*
X892369D01*
Y-634435D01*
X891915D01*
Y-633982D01*
X891462D01*
Y-633528D01*
X891008D01*
Y-633075D01*
X890555D01*
Y-632621D01*
X890101D01*
Y-632168D01*
X889648D01*
Y-631714D01*
X889194D01*
Y-631260D01*
X888740D01*
Y-630807D01*
X888287D01*
Y-630353D01*
X887833D01*
Y-629900D01*
Y-629446D01*
X887380D01*
Y-628993D01*
X886926D01*
Y-628539D01*
X886473D01*
Y-628086D01*
X886019D01*
Y-627632D01*
Y-627178D01*
X885565D01*
Y-626725D01*
X885112D01*
Y-626271D01*
Y-625818D01*
X884658D01*
Y-625364D01*
X884205D01*
Y-624911D01*
Y-624457D01*
X883751D01*
Y-624003D01*
X883298D01*
Y-623550D01*
Y-623096D01*
X882844D01*
Y-622643D01*
Y-622189D01*
X882391D01*
Y-621736D01*
Y-621282D01*
X881937D01*
Y-620829D01*
Y-620375D01*
X881484D01*
Y-619921D01*
Y-619468D01*
X881030D01*
Y-619014D01*
Y-618561D01*
X880576D01*
Y-618107D01*
Y-617654D01*
X880123D01*
Y-617200D01*
Y-616747D01*
X879669D01*
Y-616293D01*
Y-615839D01*
Y-615386D01*
X879216D01*
Y-614932D01*
Y-614479D01*
Y-614025D01*
X878762D01*
Y-613572D01*
Y-613118D01*
X878309D01*
Y-612665D01*
Y-612211D01*
Y-611758D01*
Y-611304D01*
X877855D01*
Y-610850D01*
Y-610397D01*
Y-609943D01*
X877402D01*
Y-609490D01*
Y-609036D01*
Y-608583D01*
Y-608129D01*
X876948D01*
Y-607675D01*
Y-607222D01*
Y-606768D01*
Y-606315D01*
Y-605861D01*
X876494D01*
Y-605408D01*
Y-604954D01*
Y-604501D01*
Y-604047D01*
Y-603593D01*
Y-603140D01*
Y-602686D01*
X876041D01*
Y-602233D01*
Y-601779D01*
Y-601326D01*
Y-600872D01*
Y-600419D01*
Y-599965D01*
Y-599511D01*
Y-599058D01*
Y-598604D01*
Y-598151D01*
X875587D01*
Y-597697D01*
Y-597244D01*
Y-596790D01*
Y-596337D01*
Y-595883D01*
Y-595429D01*
Y-594976D01*
Y-594522D01*
Y-594069D01*
X876041D01*
Y-593615D01*
Y-593162D01*
Y-592708D01*
Y-592254D01*
Y-591801D01*
Y-591347D01*
Y-590894D01*
Y-590440D01*
Y-589987D01*
X876494D01*
Y-589533D01*
Y-589080D01*
Y-588626D01*
Y-588172D01*
Y-587719D01*
Y-587265D01*
Y-586812D01*
X876948D01*
Y-586358D01*
Y-585905D01*
Y-585451D01*
Y-584998D01*
Y-584544D01*
X877402D01*
Y-584090D01*
Y-583637D01*
Y-583183D01*
Y-582730D01*
X877855D01*
Y-582276D01*
Y-581823D01*
Y-581369D01*
Y-580916D01*
X878309D01*
Y-580462D01*
Y-580009D01*
Y-579555D01*
X878762D01*
Y-579101D01*
Y-578648D01*
Y-578194D01*
X879216D01*
Y-577741D01*
Y-577287D01*
X879669D01*
Y-576834D01*
Y-576380D01*
Y-575927D01*
X880123D01*
Y-575473D01*
Y-575019D01*
X880576D01*
Y-574566D01*
Y-574112D01*
Y-573659D01*
X881030D01*
Y-573205D01*
Y-572752D01*
X881484D01*
Y-572298D01*
Y-571844D01*
X881937D01*
Y-571391D01*
Y-570937D01*
X882391D01*
Y-570484D01*
X882844D01*
Y-570030D01*
Y-569577D01*
X883298D01*
Y-569123D01*
Y-568670D01*
X883751D01*
Y-568216D01*
X884205D01*
Y-567762D01*
Y-567309D01*
X884658D01*
Y-566855D01*
X885112D01*
Y-566402D01*
Y-565948D01*
X885565D01*
Y-565495D01*
X886019D01*
Y-565041D01*
Y-564588D01*
X886473D01*
Y-564134D01*
X886926D01*
Y-563680D01*
X887380D01*
Y-563227D01*
Y-562773D01*
X887833D01*
Y-562320D01*
X888287D01*
Y-561866D01*
X888740D01*
Y-561413D01*
X889194D01*
Y-560959D01*
X889648D01*
Y-560506D01*
X890101D01*
Y-560052D01*
X890555D01*
Y-559599D01*
Y-559145D01*
X891008D01*
Y-558691D01*
X891462D01*
Y-558238D01*
X891915D01*
Y-557784D01*
X892822D01*
Y-557331D01*
X893276D01*
Y-556877D01*
X893729D01*
Y-556424D01*
X894183D01*
Y-555970D01*
X894637D01*
Y-555517D01*
X895090D01*
Y-555063D01*
X895544D01*
Y-554609D01*
X896451D01*
Y-554156D01*
X896904D01*
Y-553702D01*
X897358D01*
Y-553249D01*
X898265D01*
Y-552795D01*
X898719D01*
Y-552342D01*
X899626D01*
Y-551888D01*
X900079D01*
Y-551435D01*
X900986D01*
Y-550981D01*
X901440D01*
Y-550527D01*
X902347D01*
Y-550074D01*
X903254D01*
Y-549620D01*
X903708D01*
Y-549167D01*
X905068D01*
Y-548713D01*
X905975D01*
Y-548260D01*
X906883D01*
Y-547806D01*
X907790D01*
Y-547352D01*
X908697D01*
Y-546899D01*
X910058D01*
Y-546445D01*
X910965D01*
Y-545992D01*
X912325D01*
Y-545538D01*
X913686D01*
Y-545085D01*
X915500D01*
Y-544631D01*
X917314D01*
Y-544178D01*
X919582D01*
Y-543724D01*
X922757D01*
Y-543270D01*
X927293D01*
Y-542817D01*
X931375D01*
Y-543270D01*
D02*
G37*
G36*
X1055195Y-570484D02*
Y-570937D01*
Y-571391D01*
Y-571844D01*
Y-572298D01*
Y-572752D01*
Y-573205D01*
Y-573659D01*
Y-574112D01*
Y-574566D01*
Y-575019D01*
Y-575473D01*
Y-575927D01*
Y-576380D01*
Y-576834D01*
Y-577287D01*
Y-577741D01*
Y-578194D01*
Y-578648D01*
Y-579101D01*
Y-579555D01*
Y-580009D01*
Y-580462D01*
Y-580916D01*
Y-581369D01*
Y-581823D01*
Y-582276D01*
Y-582730D01*
Y-583183D01*
Y-583637D01*
Y-584090D01*
Y-584544D01*
Y-584998D01*
Y-585451D01*
Y-585905D01*
Y-586358D01*
Y-586812D01*
Y-587265D01*
Y-587719D01*
Y-588172D01*
Y-588626D01*
Y-589080D01*
Y-589533D01*
Y-589987D01*
Y-590440D01*
Y-590894D01*
Y-591347D01*
Y-591801D01*
Y-592254D01*
Y-592708D01*
Y-593162D01*
Y-593615D01*
Y-594069D01*
Y-594522D01*
Y-594976D01*
Y-595429D01*
Y-595883D01*
Y-596337D01*
Y-596790D01*
Y-597244D01*
Y-597697D01*
Y-598151D01*
Y-598604D01*
Y-599058D01*
Y-599511D01*
Y-599965D01*
Y-600419D01*
Y-600872D01*
Y-601326D01*
Y-601779D01*
Y-602233D01*
Y-602686D01*
Y-603140D01*
Y-603593D01*
Y-604047D01*
Y-604501D01*
Y-604954D01*
Y-605408D01*
Y-605861D01*
Y-606315D01*
Y-606768D01*
Y-607222D01*
Y-607675D01*
Y-608129D01*
Y-608583D01*
Y-609036D01*
Y-609490D01*
Y-609943D01*
Y-610397D01*
Y-610850D01*
Y-611304D01*
Y-611758D01*
Y-612211D01*
Y-612665D01*
Y-613118D01*
Y-613572D01*
Y-614025D01*
Y-614479D01*
Y-614932D01*
Y-615386D01*
Y-615839D01*
Y-616293D01*
Y-616747D01*
Y-617200D01*
Y-617654D01*
Y-618107D01*
Y-618561D01*
Y-619014D01*
Y-619468D01*
Y-619921D01*
Y-620375D01*
Y-620829D01*
Y-621282D01*
Y-621736D01*
Y-622189D01*
Y-622643D01*
Y-623096D01*
Y-623550D01*
Y-624003D01*
Y-624457D01*
Y-624911D01*
Y-625364D01*
Y-625818D01*
Y-626271D01*
Y-626725D01*
Y-627178D01*
Y-627632D01*
Y-628086D01*
Y-628539D01*
Y-628993D01*
Y-629446D01*
Y-629900D01*
Y-630353D01*
Y-630807D01*
Y-631260D01*
Y-631714D01*
X1043857D01*
Y-631260D01*
Y-630807D01*
Y-630353D01*
Y-629900D01*
Y-629446D01*
Y-628993D01*
Y-628539D01*
Y-628086D01*
Y-627632D01*
Y-627178D01*
Y-626725D01*
Y-626271D01*
Y-625818D01*
Y-625364D01*
Y-624911D01*
Y-624457D01*
Y-624003D01*
Y-623550D01*
Y-623096D01*
Y-622643D01*
Y-622189D01*
Y-621736D01*
Y-621282D01*
Y-620829D01*
Y-620375D01*
Y-619921D01*
Y-619468D01*
Y-619014D01*
Y-618561D01*
Y-618107D01*
Y-617654D01*
Y-617200D01*
Y-616747D01*
Y-616293D01*
Y-615839D01*
Y-615386D01*
Y-614932D01*
Y-614479D01*
Y-614025D01*
Y-613572D01*
Y-613118D01*
Y-612665D01*
Y-612211D01*
Y-611758D01*
Y-611304D01*
Y-610850D01*
Y-610397D01*
Y-609943D01*
Y-609490D01*
Y-609036D01*
Y-608583D01*
Y-608129D01*
Y-607675D01*
Y-607222D01*
Y-606768D01*
Y-606315D01*
Y-605861D01*
Y-605408D01*
Y-604954D01*
Y-604501D01*
Y-604047D01*
Y-603593D01*
Y-603140D01*
Y-602686D01*
Y-602233D01*
Y-601779D01*
Y-601326D01*
Y-600872D01*
Y-600419D01*
Y-599965D01*
Y-599511D01*
Y-599058D01*
Y-598604D01*
Y-598151D01*
Y-597697D01*
Y-597244D01*
Y-596790D01*
Y-596337D01*
Y-595883D01*
Y-595429D01*
Y-594976D01*
Y-594522D01*
Y-594069D01*
Y-593615D01*
Y-593162D01*
Y-592708D01*
Y-592254D01*
Y-591801D01*
Y-591347D01*
Y-590894D01*
Y-590440D01*
Y-589987D01*
Y-589533D01*
Y-589080D01*
Y-588626D01*
Y-588172D01*
Y-587719D01*
Y-587265D01*
Y-586812D01*
Y-586358D01*
Y-585905D01*
Y-585451D01*
Y-584998D01*
Y-584544D01*
Y-584090D01*
Y-583637D01*
Y-583183D01*
Y-582730D01*
Y-582276D01*
Y-581823D01*
Y-581369D01*
Y-580916D01*
Y-580462D01*
Y-580009D01*
Y-579555D01*
Y-579101D01*
Y-578648D01*
Y-578194D01*
Y-577741D01*
Y-577287D01*
Y-576834D01*
Y-576380D01*
Y-575927D01*
Y-575473D01*
Y-575019D01*
Y-574566D01*
Y-574112D01*
Y-573659D01*
Y-573205D01*
Y-572752D01*
Y-572298D01*
Y-571844D01*
Y-571391D01*
Y-570937D01*
Y-570484D01*
Y-570030D01*
X1055195D01*
Y-570484D01*
D02*
G37*
G36*
X1091480Y-587265D02*
X1093748D01*
Y-587719D01*
X1095108D01*
Y-588172D01*
X1096469D01*
Y-588626D01*
X1097376D01*
Y-589080D01*
X1098283D01*
Y-589533D01*
X1099190D01*
Y-589987D01*
X1100098D01*
Y-590440D01*
X1100551D01*
Y-590894D01*
X1101458D01*
Y-591347D01*
X1101912D01*
Y-591801D01*
X1102365D01*
Y-592254D01*
X1102819D01*
Y-592708D01*
X1103272D01*
Y-593162D01*
X1103726D01*
Y-593615D01*
X1104180D01*
Y-594069D01*
X1104633D01*
Y-594522D01*
X1105087D01*
Y-594976D01*
Y-595429D01*
X1105540D01*
Y-595883D01*
X1105994D01*
Y-596337D01*
Y-596790D01*
X1106447D01*
Y-597244D01*
Y-597697D01*
X1106901D01*
Y-598151D01*
Y-598604D01*
X1107354D01*
Y-599058D01*
Y-599511D01*
X1107808D01*
Y-599965D01*
Y-600419D01*
Y-600872D01*
X1108261D01*
Y-601326D01*
Y-601779D01*
Y-602233D01*
Y-602686D01*
Y-603140D01*
X1108715D01*
Y-603593D01*
Y-604047D01*
Y-604501D01*
Y-604954D01*
Y-605408D01*
Y-605861D01*
Y-606315D01*
X1109169D01*
Y-606768D01*
Y-607222D01*
Y-607675D01*
Y-608129D01*
Y-608583D01*
Y-609036D01*
Y-609490D01*
Y-609943D01*
Y-610397D01*
Y-610850D01*
Y-611304D01*
Y-611758D01*
Y-612211D01*
Y-612665D01*
Y-613118D01*
X1108715D01*
Y-613572D01*
Y-614025D01*
Y-614479D01*
Y-614932D01*
Y-615386D01*
Y-615839D01*
Y-616293D01*
X1108261D01*
Y-616747D01*
Y-617200D01*
Y-617654D01*
Y-618107D01*
X1107808D01*
Y-618561D01*
Y-619014D01*
Y-619468D01*
X1107354D01*
Y-619921D01*
Y-620375D01*
Y-620829D01*
X1106901D01*
Y-621282D01*
Y-621736D01*
X1106447D01*
Y-622189D01*
Y-622643D01*
X1105994D01*
Y-623096D01*
Y-623550D01*
X1105540D01*
Y-624003D01*
X1105087D01*
Y-624457D01*
X1104633D01*
Y-624911D01*
Y-625364D01*
X1104180D01*
Y-625818D01*
X1103726D01*
Y-626271D01*
X1103272D01*
Y-626725D01*
X1102819D01*
Y-627178D01*
X1102365D01*
Y-627632D01*
X1101912D01*
Y-628086D01*
X1101005D01*
Y-628539D01*
X1100551D01*
Y-628993D01*
X1099644D01*
Y-629446D01*
X1099190D01*
Y-629900D01*
X1098283D01*
Y-630353D01*
X1097376D01*
Y-630807D01*
X1096015D01*
Y-631260D01*
X1094655D01*
Y-631714D01*
X1093294D01*
Y-632168D01*
X1091026D01*
Y-632621D01*
X1081502D01*
Y-632168D01*
X1078780D01*
Y-631714D01*
X1076966D01*
Y-631260D01*
X1076059D01*
Y-630807D01*
X1074698D01*
Y-630353D01*
X1073791D01*
Y-629900D01*
X1072884D01*
Y-629446D01*
X1072430D01*
Y-628993D01*
X1071523D01*
Y-628539D01*
X1071070D01*
Y-628086D01*
X1070163D01*
Y-627632D01*
X1069709D01*
Y-627178D01*
X1069256D01*
Y-626725D01*
X1068802D01*
Y-626271D01*
X1068348D01*
Y-625818D01*
X1067895D01*
Y-625364D01*
X1067441D01*
Y-624911D01*
Y-624457D01*
X1066988D01*
Y-624003D01*
X1066534D01*
Y-623550D01*
X1066081D01*
Y-623096D01*
Y-622643D01*
X1065627D01*
Y-622189D01*
Y-621736D01*
X1065174D01*
Y-621282D01*
Y-620829D01*
X1064720D01*
Y-620375D01*
Y-619921D01*
Y-619468D01*
X1064267D01*
Y-619014D01*
Y-618561D01*
Y-618107D01*
X1063813D01*
Y-617654D01*
Y-617200D01*
Y-616747D01*
Y-616293D01*
X1063359D01*
Y-615839D01*
Y-615386D01*
Y-614932D01*
Y-614479D01*
Y-614025D01*
Y-613572D01*
Y-613118D01*
Y-612665D01*
X1062906D01*
Y-612211D01*
Y-611758D01*
Y-611304D01*
Y-610850D01*
Y-610397D01*
Y-609943D01*
Y-609490D01*
Y-609036D01*
Y-608583D01*
Y-608129D01*
Y-607675D01*
Y-607222D01*
Y-606768D01*
X1063359D01*
Y-606315D01*
Y-605861D01*
Y-605408D01*
Y-604954D01*
Y-604501D01*
Y-604047D01*
Y-603593D01*
Y-603140D01*
X1063813D01*
Y-602686D01*
Y-602233D01*
Y-601779D01*
Y-601326D01*
X1064267D01*
Y-600872D01*
Y-600419D01*
Y-599965D01*
X1064720D01*
Y-599511D01*
Y-599058D01*
Y-598604D01*
X1065174D01*
Y-598151D01*
Y-597697D01*
X1065627D01*
Y-597244D01*
Y-596790D01*
X1066081D01*
Y-596337D01*
Y-595883D01*
X1066534D01*
Y-595429D01*
X1066988D01*
Y-594976D01*
Y-594522D01*
X1067441D01*
Y-594069D01*
X1067895D01*
Y-593615D01*
X1068348D01*
Y-593162D01*
X1068802D01*
Y-592708D01*
X1069256D01*
Y-592254D01*
X1069709D01*
Y-591801D01*
X1070163D01*
Y-591347D01*
X1070616D01*
Y-590894D01*
X1071523D01*
Y-590440D01*
X1071977D01*
Y-589987D01*
X1072884D01*
Y-589533D01*
X1073791D01*
Y-589080D01*
X1074698D01*
Y-588626D01*
X1075605D01*
Y-588172D01*
X1076966D01*
Y-587719D01*
X1078327D01*
Y-587265D01*
X1080595D01*
Y-586812D01*
X1091480D01*
Y-587265D01*
D02*
G37*
G36*
X1001676Y-570484D02*
Y-570937D01*
Y-571391D01*
Y-571844D01*
Y-572298D01*
Y-572752D01*
Y-573205D01*
Y-573659D01*
Y-574112D01*
Y-574566D01*
Y-575019D01*
Y-575473D01*
Y-575927D01*
Y-576380D01*
Y-576834D01*
Y-577287D01*
Y-577741D01*
Y-578194D01*
Y-578648D01*
Y-579101D01*
Y-579555D01*
Y-580009D01*
Y-580462D01*
Y-580916D01*
Y-581369D01*
Y-581823D01*
Y-582276D01*
Y-582730D01*
Y-583183D01*
Y-583637D01*
Y-584090D01*
Y-584544D01*
Y-584998D01*
Y-585451D01*
Y-585905D01*
Y-586358D01*
Y-586812D01*
Y-587265D01*
Y-587719D01*
Y-588172D01*
Y-588626D01*
Y-589080D01*
Y-589533D01*
Y-589987D01*
Y-590440D01*
Y-590894D01*
Y-591347D01*
Y-591801D01*
Y-592254D01*
Y-592708D01*
X1002583D01*
Y-592254D01*
X1003036D01*
Y-591801D01*
X1003490D01*
Y-591347D01*
X1003944D01*
Y-590894D01*
X1004397D01*
Y-590440D01*
X1004851D01*
Y-589987D01*
X1005304D01*
Y-589533D01*
X1006211D01*
Y-589080D01*
X1006665D01*
Y-588626D01*
X1007572D01*
Y-588172D01*
X1008479D01*
Y-587719D01*
X1009840D01*
Y-587265D01*
X1011654D01*
Y-586812D01*
X1020272D01*
Y-587265D01*
X1022086D01*
Y-587719D01*
X1023447D01*
Y-588172D01*
X1024807D01*
Y-588626D01*
X1025714D01*
Y-589080D01*
X1026168D01*
Y-589533D01*
X1027075D01*
Y-589987D01*
X1027529D01*
Y-590440D01*
X1028436D01*
Y-590894D01*
X1028889D01*
Y-591347D01*
X1029343D01*
Y-591801D01*
X1029796D01*
Y-592254D01*
X1030250D01*
Y-592708D01*
X1030703D01*
Y-593162D01*
Y-593615D01*
X1031157D01*
Y-594069D01*
X1031610D01*
Y-594522D01*
X1032064D01*
Y-594976D01*
Y-595429D01*
X1032518D01*
Y-595883D01*
Y-596337D01*
X1032971D01*
Y-596790D01*
Y-597244D01*
X1033425D01*
Y-597697D01*
Y-598151D01*
X1033878D01*
Y-598604D01*
Y-599058D01*
Y-599511D01*
X1034332D01*
Y-599965D01*
Y-600419D01*
Y-600872D01*
Y-601326D01*
X1034785D01*
Y-601779D01*
Y-602233D01*
Y-602686D01*
Y-603140D01*
Y-603593D01*
X1035239D01*
Y-604047D01*
Y-604501D01*
Y-604954D01*
Y-605408D01*
Y-605861D01*
Y-606315D01*
Y-606768D01*
Y-607222D01*
Y-607675D01*
X1035693D01*
Y-608129D01*
X1035239D01*
Y-608583D01*
Y-609036D01*
Y-609490D01*
Y-609943D01*
Y-610397D01*
Y-610850D01*
Y-611304D01*
Y-611758D01*
Y-612211D01*
Y-612665D01*
Y-613118D01*
Y-613572D01*
Y-614025D01*
Y-614479D01*
Y-614932D01*
Y-615386D01*
Y-615839D01*
X1034785D01*
Y-616293D01*
Y-616747D01*
Y-617200D01*
Y-617654D01*
Y-618107D01*
X1034332D01*
Y-618561D01*
Y-619014D01*
Y-619468D01*
X1033878D01*
Y-619921D01*
Y-620375D01*
Y-620829D01*
X1033425D01*
Y-621282D01*
Y-621736D01*
Y-622189D01*
X1032971D01*
Y-622643D01*
Y-623096D01*
X1032518D01*
Y-623550D01*
Y-624003D01*
X1032064D01*
Y-624457D01*
X1031610D01*
Y-624911D01*
Y-625364D01*
X1031157D01*
Y-625818D01*
X1030703D01*
Y-626271D01*
X1030250D01*
Y-626725D01*
X1029796D01*
Y-627178D01*
Y-627632D01*
X1028889D01*
Y-628086D01*
X1028436D01*
Y-628539D01*
X1027982D01*
Y-628993D01*
X1027529D01*
Y-629446D01*
X1026621D01*
Y-629900D01*
X1026168D01*
Y-630353D01*
X1025261D01*
Y-630807D01*
X1024354D01*
Y-631260D01*
X1023447D01*
Y-631714D01*
X1022086D01*
Y-632168D01*
X1019818D01*
Y-632621D01*
X1012108D01*
Y-632168D01*
X1009840D01*
Y-631714D01*
X1008933D01*
Y-631260D01*
X1007572D01*
Y-630807D01*
X1007119D01*
Y-630353D01*
X1006211D01*
Y-629900D01*
X1005758D01*
Y-629446D01*
X1004851D01*
Y-628993D01*
X1004397D01*
Y-628539D01*
X1003944D01*
Y-628086D01*
X1003490D01*
Y-627632D01*
X1003036D01*
Y-627178D01*
X1002583D01*
Y-626725D01*
X1002129D01*
Y-626271D01*
Y-625818D01*
X1001222D01*
Y-626271D01*
Y-626725D01*
Y-627178D01*
Y-627632D01*
Y-628086D01*
Y-628539D01*
Y-628993D01*
Y-629446D01*
Y-629900D01*
Y-630353D01*
Y-630807D01*
Y-631260D01*
Y-631714D01*
X989883D01*
Y-631260D01*
Y-630807D01*
Y-630353D01*
Y-629900D01*
Y-629446D01*
Y-628993D01*
Y-628539D01*
Y-628086D01*
Y-627632D01*
Y-627178D01*
Y-626725D01*
Y-626271D01*
Y-625818D01*
Y-625364D01*
Y-624911D01*
Y-624457D01*
Y-624003D01*
Y-623550D01*
Y-623096D01*
Y-622643D01*
Y-622189D01*
Y-621736D01*
Y-621282D01*
Y-620829D01*
Y-620375D01*
Y-619921D01*
Y-619468D01*
Y-619014D01*
Y-618561D01*
Y-618107D01*
Y-617654D01*
Y-617200D01*
Y-616747D01*
Y-616293D01*
Y-615839D01*
Y-615386D01*
Y-614932D01*
Y-614479D01*
Y-614025D01*
Y-613572D01*
Y-613118D01*
Y-612665D01*
Y-612211D01*
Y-611758D01*
Y-611304D01*
Y-610850D01*
Y-610397D01*
Y-609943D01*
Y-609490D01*
Y-609036D01*
Y-608583D01*
Y-608129D01*
Y-607675D01*
Y-607222D01*
Y-606768D01*
Y-606315D01*
Y-605861D01*
Y-605408D01*
Y-604954D01*
Y-604501D01*
Y-604047D01*
Y-603593D01*
Y-603140D01*
Y-602686D01*
Y-602233D01*
Y-601779D01*
Y-601326D01*
Y-600872D01*
Y-600419D01*
Y-599965D01*
Y-599511D01*
Y-599058D01*
Y-598604D01*
Y-598151D01*
Y-597697D01*
Y-597244D01*
Y-596790D01*
Y-596337D01*
Y-595883D01*
Y-595429D01*
Y-594976D01*
Y-594522D01*
Y-594069D01*
Y-593615D01*
Y-593162D01*
Y-592708D01*
Y-592254D01*
Y-591801D01*
Y-591347D01*
Y-590894D01*
Y-590440D01*
Y-589987D01*
Y-589533D01*
Y-589080D01*
Y-588626D01*
Y-588172D01*
Y-587719D01*
Y-587265D01*
Y-586812D01*
Y-586358D01*
Y-585905D01*
Y-585451D01*
Y-584998D01*
Y-584544D01*
Y-584090D01*
Y-583637D01*
Y-583183D01*
Y-582730D01*
Y-582276D01*
Y-581823D01*
Y-581369D01*
Y-580916D01*
Y-580462D01*
Y-580009D01*
Y-579555D01*
Y-579101D01*
Y-578648D01*
Y-578194D01*
Y-577741D01*
Y-577287D01*
Y-576834D01*
Y-576380D01*
Y-575927D01*
Y-575473D01*
Y-575019D01*
Y-574566D01*
Y-574112D01*
Y-573659D01*
Y-573205D01*
Y-572752D01*
Y-572298D01*
Y-571844D01*
Y-571391D01*
Y-570937D01*
Y-570484D01*
Y-570030D01*
X1001676D01*
Y-570484D01*
D02*
G37*
%LPC*%
G36*
X919582Y-566855D02*
X917314D01*
Y-567309D01*
X915500D01*
Y-567762D01*
X914593D01*
Y-568216D01*
X913686D01*
Y-568670D01*
X912779D01*
Y-569123D01*
X912325D01*
Y-569577D01*
X911872D01*
Y-570030D01*
X911418D01*
Y-570484D01*
X910965D01*
Y-570937D01*
Y-571391D01*
X910511D01*
Y-571844D01*
X910058D01*
Y-572298D01*
Y-572752D01*
X909604D01*
Y-573205D01*
Y-573659D01*
Y-574112D01*
Y-574566D01*
X909150D01*
Y-575019D01*
Y-575473D01*
Y-575927D01*
Y-576380D01*
Y-576834D01*
Y-577287D01*
Y-577741D01*
Y-578194D01*
X909604D01*
Y-578648D01*
Y-579101D01*
Y-579555D01*
X910058D01*
Y-580009D01*
Y-580462D01*
X910511D01*
Y-580916D01*
Y-581369D01*
X910965D01*
Y-581823D01*
X911418D01*
Y-582276D01*
X911872D01*
Y-582730D01*
X912325D01*
Y-583183D01*
X912779D01*
Y-583637D01*
X913232D01*
Y-584090D01*
X914139D01*
Y-584544D01*
X915047D01*
Y-584998D01*
X916407D01*
Y-585451D01*
X920489D01*
Y-584998D01*
X921850D01*
Y-584544D01*
X922757D01*
Y-584090D01*
X923664D01*
Y-583637D01*
X924118D01*
Y-583183D01*
X924571D01*
Y-582730D01*
X925478D01*
Y-582276D01*
Y-581823D01*
X925932D01*
Y-581369D01*
X926385D01*
Y-580916D01*
Y-580462D01*
X926839D01*
Y-580009D01*
Y-579555D01*
X927293D01*
Y-579101D01*
Y-578648D01*
Y-578194D01*
X927746D01*
Y-577741D01*
Y-577287D01*
Y-576834D01*
Y-576380D01*
Y-575927D01*
Y-575473D01*
Y-575019D01*
Y-574566D01*
X927293D01*
Y-574112D01*
Y-573659D01*
Y-573205D01*
Y-572752D01*
X926839D01*
Y-572298D01*
Y-571844D01*
X926385D01*
Y-571391D01*
Y-570937D01*
X925932D01*
Y-570484D01*
X925478D01*
Y-570030D01*
X925025D01*
Y-569577D01*
X924571D01*
Y-569123D01*
X924118D01*
Y-568670D01*
X923211D01*
Y-568216D01*
X922757D01*
Y-567762D01*
X921396D01*
Y-567309D01*
X919582D01*
Y-566855D01*
D02*
G37*
G36*
X1088305Y-596790D02*
X1083769D01*
Y-597244D01*
X1081955D01*
Y-597697D01*
X1080595D01*
Y-598151D01*
X1079688D01*
Y-598604D01*
X1079234D01*
Y-599058D01*
X1078780D01*
Y-599511D01*
X1078327D01*
Y-599965D01*
X1077873D01*
Y-600419D01*
X1077420D01*
Y-600872D01*
X1076966D01*
Y-601326D01*
X1076513D01*
Y-601779D01*
Y-602233D01*
X1076059D01*
Y-602686D01*
Y-603140D01*
X1075605D01*
Y-603593D01*
Y-604047D01*
Y-604501D01*
X1075152D01*
Y-604954D01*
Y-605408D01*
Y-605861D01*
Y-606315D01*
Y-606768D01*
Y-607222D01*
Y-607675D01*
X1074698D01*
Y-608129D01*
Y-608583D01*
Y-609036D01*
Y-609490D01*
Y-609943D01*
Y-610397D01*
Y-610850D01*
Y-611304D01*
X1075152D01*
Y-611758D01*
Y-612211D01*
Y-612665D01*
Y-613118D01*
Y-613572D01*
Y-614025D01*
Y-614479D01*
X1075605D01*
Y-614932D01*
Y-615386D01*
Y-615839D01*
X1076059D01*
Y-616293D01*
Y-616747D01*
Y-617200D01*
X1076513D01*
Y-617654D01*
X1076966D01*
Y-618107D01*
Y-618561D01*
X1077420D01*
Y-619014D01*
X1077873D01*
Y-619468D01*
X1078327D01*
Y-619921D01*
X1078780D01*
Y-620375D01*
X1079234D01*
Y-620829D01*
X1080141D01*
Y-621282D01*
X1081048D01*
Y-621736D01*
X1082409D01*
Y-622189D01*
X1084677D01*
Y-622643D01*
X1087398D01*
Y-622189D01*
X1089666D01*
Y-621736D01*
X1091026D01*
Y-621282D01*
X1091934D01*
Y-620829D01*
X1092841D01*
Y-620375D01*
X1093294D01*
Y-619921D01*
X1093748D01*
Y-619468D01*
X1094201D01*
Y-619014D01*
X1094655D01*
Y-618561D01*
X1095108D01*
Y-618107D01*
Y-617654D01*
X1095562D01*
Y-617200D01*
X1096015D01*
Y-616747D01*
Y-616293D01*
Y-615839D01*
X1096469D01*
Y-615386D01*
Y-614932D01*
Y-614479D01*
X1096923D01*
Y-614025D01*
Y-613572D01*
Y-613118D01*
Y-612665D01*
Y-612211D01*
X1097376D01*
Y-611758D01*
Y-611304D01*
Y-610850D01*
Y-610397D01*
Y-609943D01*
Y-609490D01*
Y-609036D01*
Y-608583D01*
Y-608129D01*
Y-607675D01*
Y-607222D01*
X1096923D01*
Y-606768D01*
Y-606315D01*
Y-605861D01*
Y-605408D01*
Y-604954D01*
Y-604501D01*
X1096469D01*
Y-604047D01*
Y-603593D01*
Y-603140D01*
X1096015D01*
Y-602686D01*
Y-602233D01*
X1095562D01*
Y-601779D01*
Y-601326D01*
X1095108D01*
Y-600872D01*
X1094655D01*
Y-600419D01*
X1094201D01*
Y-599965D01*
X1093748D01*
Y-599511D01*
X1093294D01*
Y-599058D01*
X1092841D01*
Y-598604D01*
X1091934D01*
Y-598151D01*
X1091480D01*
Y-597697D01*
X1090119D01*
Y-597244D01*
X1088305D01*
Y-596790D01*
D02*
G37*
G36*
X1014375D02*
X1010293D01*
Y-597244D01*
X1008479D01*
Y-597697D01*
X1007119D01*
Y-598151D01*
X1006211D01*
Y-598604D01*
X1005758D01*
Y-599058D01*
X1004851D01*
Y-599511D01*
X1004397D01*
Y-599965D01*
X1003944D01*
Y-600419D01*
Y-600872D01*
X1003490D01*
Y-601326D01*
X1003036D01*
Y-601779D01*
Y-602233D01*
X1002583D01*
Y-602686D01*
Y-603140D01*
X1002129D01*
Y-603593D01*
Y-604047D01*
Y-604501D01*
X1001676D01*
Y-604954D01*
Y-605408D01*
Y-605861D01*
Y-606315D01*
Y-606768D01*
X1001222D01*
Y-607222D01*
Y-607675D01*
Y-608129D01*
Y-608583D01*
Y-609036D01*
Y-609490D01*
Y-609943D01*
Y-610397D01*
Y-610850D01*
Y-611304D01*
Y-611758D01*
Y-612211D01*
Y-612665D01*
X1001676D01*
Y-613118D01*
Y-613572D01*
Y-614025D01*
Y-614479D01*
Y-614932D01*
X1002129D01*
Y-615386D01*
Y-615839D01*
Y-616293D01*
X1002583D01*
Y-616747D01*
Y-617200D01*
X1003036D01*
Y-617654D01*
Y-618107D01*
X1003490D01*
Y-618561D01*
X1003944D01*
Y-619014D01*
X1004397D01*
Y-619468D01*
X1004851D01*
Y-619921D01*
X1005304D01*
Y-620375D01*
X1005758D01*
Y-620829D01*
X1006665D01*
Y-621282D01*
X1007572D01*
Y-621736D01*
X1008479D01*
Y-622189D01*
X1010747D01*
Y-622643D01*
X1013922D01*
Y-622189D01*
X1016190D01*
Y-621736D01*
X1017550D01*
Y-621282D01*
X1018457D01*
Y-620829D01*
X1018911D01*
Y-620375D01*
X1019818D01*
Y-619921D01*
X1020272D01*
Y-619468D01*
X1020725D01*
Y-619014D01*
X1021179D01*
Y-618561D01*
Y-618107D01*
X1021632D01*
Y-617654D01*
X1022086D01*
Y-617200D01*
Y-616747D01*
X1022539D01*
Y-616293D01*
Y-615839D01*
Y-615386D01*
X1022993D01*
Y-614932D01*
Y-614479D01*
Y-614025D01*
Y-613572D01*
X1023447D01*
Y-613118D01*
Y-612665D01*
Y-612211D01*
Y-611758D01*
Y-611304D01*
Y-610850D01*
Y-610397D01*
Y-609943D01*
Y-609490D01*
Y-609036D01*
Y-608583D01*
Y-608129D01*
Y-607675D01*
Y-607222D01*
Y-606768D01*
Y-606315D01*
Y-605861D01*
Y-605408D01*
X1022993D01*
Y-604954D01*
Y-604501D01*
Y-604047D01*
Y-603593D01*
X1022539D01*
Y-603140D01*
Y-602686D01*
X1022086D01*
Y-602233D01*
Y-601779D01*
X1021632D01*
Y-601326D01*
Y-600872D01*
X1021179D01*
Y-600419D01*
X1020725D01*
Y-599965D01*
X1020272D01*
Y-599511D01*
X1019818D01*
Y-599058D01*
X1019364D01*
Y-598604D01*
X1018457D01*
Y-598151D01*
X1017550D01*
Y-597697D01*
X1016643D01*
Y-597244D01*
X1014375D01*
Y-596790D01*
D02*
G37*
%LPD*%
D11*
X2159332Y-135532D02*
Y-141631D01*
X2157299Y-135532D02*
X2161364D01*
X2163543Y-137565D02*
X2162962Y-137855D01*
X2162381Y-138436D01*
X2162091Y-139307D01*
Y-139888D01*
X2162381Y-140759D01*
X2162962Y-141340D01*
X2163543Y-141631D01*
X2164414D01*
X2164995Y-141340D01*
X2165576Y-140759D01*
X2165866Y-139888D01*
Y-139307D01*
X2165576Y-138436D01*
X2164995Y-137855D01*
X2164414Y-137565D01*
X2163543D01*
X2167202D02*
Y-143664D01*
Y-138436D02*
X2167783Y-137855D01*
X2168363Y-137565D01*
X2169235D01*
X2169816Y-137855D01*
X2170396Y-138436D01*
X2170687Y-139307D01*
Y-139888D01*
X2170396Y-140759D01*
X2169816Y-141340D01*
X2169235Y-141631D01*
X2168363D01*
X2167783Y-141340D01*
X2167202Y-140759D01*
X2180851Y-136403D02*
X2180270Y-135822D01*
X2179399Y-135532D01*
X2178237D01*
X2177366Y-135822D01*
X2176785Y-136403D01*
Y-136984D01*
X2177076Y-137565D01*
X2177366Y-137855D01*
X2177947Y-138146D01*
X2179690Y-138727D01*
X2180270Y-139017D01*
X2180561Y-139307D01*
X2180851Y-139888D01*
Y-140759D01*
X2180270Y-141340D01*
X2179399Y-141631D01*
X2178237D01*
X2177366Y-141340D01*
X2176785Y-140759D01*
X2183668Y-137565D02*
X2183087Y-137855D01*
X2182507Y-138436D01*
X2182216Y-139307D01*
Y-139888D01*
X2182507Y-140759D01*
X2183087Y-141340D01*
X2183668Y-141631D01*
X2184539D01*
X2185120Y-141340D01*
X2185701Y-140759D01*
X2185992Y-139888D01*
Y-139307D01*
X2185701Y-138436D01*
X2185120Y-137855D01*
X2184539Y-137565D01*
X2183668D01*
X2187328Y-135532D02*
Y-141631D01*
X2192090Y-135532D02*
Y-141631D01*
Y-138436D02*
X2191509Y-137855D01*
X2190929Y-137565D01*
X2190057D01*
X2189476Y-137855D01*
X2188896Y-138436D01*
X2188605Y-139307D01*
Y-139888D01*
X2188896Y-140759D01*
X2189476Y-141340D01*
X2190057Y-141631D01*
X2190929D01*
X2191509Y-141340D01*
X2192090Y-140759D01*
X2193716Y-139307D02*
X2197202D01*
Y-138727D01*
X2196911Y-138146D01*
X2196621Y-137855D01*
X2196040Y-137565D01*
X2195169D01*
X2194588Y-137855D01*
X2194007Y-138436D01*
X2193716Y-139307D01*
Y-139888D01*
X2194007Y-140759D01*
X2194588Y-141340D01*
X2195169Y-141631D01*
X2196040D01*
X2196621Y-141340D01*
X2197202Y-140759D01*
X2198508Y-137565D02*
Y-141631D01*
Y-139307D02*
X2198799Y-138436D01*
X2199380Y-137855D01*
X2199960Y-137565D01*
X2200832D01*
X-329019Y1104464D02*
X-331342Y1110563D01*
X-333665Y1104464D01*
X-332794Y1106497D02*
X-329890D01*
X-333665Y570813D02*
Y564714D01*
Y570813D02*
X-331052D01*
X-330180Y570523D01*
X-329890Y570232D01*
X-329600Y569651D01*
Y569071D01*
X-329890Y568490D01*
X-330180Y568199D01*
X-331052Y567909D01*
X-333665D02*
X-331052D01*
X-330180Y567618D01*
X-329890Y567328D01*
X-329600Y566747D01*
Y565876D01*
X-329890Y565295D01*
X-330180Y565005D01*
X-331052Y564714D01*
X-333665D01*
X-329309Y29611D02*
X-329600Y30192D01*
X-330180Y30773D01*
X-330761Y31063D01*
X-331923D01*
X-332504Y30773D01*
X-333084Y30192D01*
X-333375Y29611D01*
X-333665Y28740D01*
Y27288D01*
X-333375Y26416D01*
X-333084Y25836D01*
X-332504Y25255D01*
X-331923Y24964D01*
X-330761D01*
X-330180Y25255D01*
X-329600Y25836D01*
X-329309Y26416D01*
X-333665Y-507417D02*
Y-513516D01*
Y-507417D02*
X-331632D01*
X-330761Y-507707D01*
X-330180Y-508288D01*
X-329890Y-508869D01*
X-329600Y-509740D01*
Y-511192D01*
X-329890Y-512064D01*
X-330180Y-512644D01*
X-330761Y-513225D01*
X-331632Y-513516D01*
X-333665D01*
X-9476Y-740227D02*
X-8895Y-739936D01*
X-8024Y-739065D01*
Y-745164D01*
X689483Y-740517D02*
Y-740227D01*
X689773Y-739646D01*
X690064Y-739355D01*
X690645Y-739065D01*
X691806D01*
X692387Y-739355D01*
X692678Y-739646D01*
X692968Y-740227D01*
Y-740807D01*
X692678Y-741388D01*
X692097Y-742260D01*
X689193Y-745164D01*
X693258D01*
X1387003Y-739065D02*
X1390198D01*
X1388456Y-741388D01*
X1389327D01*
X1389908Y-741679D01*
X1390198Y-741969D01*
X1390488Y-742840D01*
Y-743421D01*
X1390198Y-744292D01*
X1389617Y-744873D01*
X1388746Y-745164D01*
X1387875D01*
X1387003Y-744873D01*
X1386713Y-744583D01*
X1386423Y-744002D01*
X2088083Y-739065D02*
X2085179Y-743131D01*
X2089536D01*
X2088083Y-739065D02*
Y-745164D01*
X-9476Y1367973D02*
X-8895Y1368264D01*
X-8024Y1369135D01*
Y1363036D01*
X689483Y1367683D02*
Y1367973D01*
X689773Y1368554D01*
X690064Y1368845D01*
X690645Y1369135D01*
X691806D01*
X692387Y1368845D01*
X692678Y1368554D01*
X692968Y1367973D01*
Y1367393D01*
X692678Y1366812D01*
X692097Y1365941D01*
X689193Y1363036D01*
X693258D01*
X1387003Y1369135D02*
X1390198D01*
X1388456Y1366812D01*
X1389327D01*
X1389908Y1366521D01*
X1390198Y1366231D01*
X1390488Y1365360D01*
Y1364779D01*
X1390198Y1363908D01*
X1389617Y1363327D01*
X1388746Y1363036D01*
X1387875D01*
X1387003Y1363327D01*
X1386713Y1363617D01*
X1386423Y1364198D01*
X2088083Y1369135D02*
X2085179Y1365069D01*
X2089536D01*
X2088083Y1369135D02*
Y1363036D01*
X2414181Y1104464D02*
X2411858Y1110563D01*
X2409535Y1104464D01*
X2410406Y1106497D02*
X2413310D01*
X2409535Y570813D02*
Y564714D01*
Y570813D02*
X2412148D01*
X2413020Y570523D01*
X2413310Y570232D01*
X2413600Y569651D01*
Y569071D01*
X2413310Y568490D01*
X2413020Y568199D01*
X2412148Y567909D01*
X2409535D02*
X2412148D01*
X2413020Y567618D01*
X2413310Y567328D01*
X2413600Y566747D01*
Y565876D01*
X2413310Y565295D01*
X2413020Y565005D01*
X2412148Y564714D01*
X2409535D01*
X2413891Y29611D02*
X2413600Y30192D01*
X2413020Y30773D01*
X2412439Y31063D01*
X2411277D01*
X2410696Y30773D01*
X2410116Y30192D01*
X2409825Y29611D01*
X2409535Y28740D01*
Y27288D01*
X2409825Y26416D01*
X2410116Y25836D01*
X2410696Y25255D01*
X2411277Y24964D01*
X2412439D01*
X2413020Y25255D01*
X2413600Y25836D01*
X2413891Y26416D01*
X2409535Y-507417D02*
Y-513516D01*
Y-507417D02*
X2411568D01*
X2412439Y-507707D01*
X2413020Y-508288D01*
X2413310Y-508869D01*
X2413600Y-509740D01*
Y-511192D01*
X2413310Y-512064D01*
X2413020Y-512644D01*
X2412439Y-513225D01*
X2411568Y-513516D01*
X2409535D01*
X2103959Y225656D02*
Y219557D01*
X2107444D01*
X2112758D02*
X2110435Y225656D01*
X2108112Y219557D01*
X2108983Y221590D02*
X2111887D01*
X2114181Y225656D02*
X2116505Y222752D01*
Y219557D01*
X2118828Y225656D02*
X2116505Y222752D01*
X2123387Y225656D02*
X2119612D01*
Y219557D01*
X2123387D01*
X2119612Y222752D02*
X2121935D01*
X2124404Y225656D02*
Y219557D01*
Y225656D02*
X2127018D01*
X2127889Y225366D01*
X2128179Y225075D01*
X2128470Y224494D01*
Y223914D01*
X2128179Y223333D01*
X2127889Y223042D01*
X2127018Y222752D01*
X2124404D01*
X2126437D02*
X2128470Y219557D01*
X2134626Y225656D02*
Y221300D01*
X2134917Y220429D01*
X2135498Y219848D01*
X2136369Y219557D01*
X2136950D01*
X2137821Y219848D01*
X2138402Y220429D01*
X2138692Y221300D01*
Y225656D01*
X2144442Y224785D02*
X2143862Y225366D01*
X2142990Y225656D01*
X2141829D01*
X2140957Y225366D01*
X2140376Y224785D01*
Y224204D01*
X2140667Y223623D01*
X2140957Y223333D01*
X2141538Y223042D01*
X2143281Y222461D01*
X2143862Y222171D01*
X2144152Y221881D01*
X2144442Y221300D01*
Y220429D01*
X2143862Y219848D01*
X2142990Y219557D01*
X2141829D01*
X2140957Y219848D01*
X2140376Y220429D01*
X2150454Y219557D02*
X2148131Y225656D01*
X2145807Y219557D01*
X2146678Y221590D02*
X2149583D01*
X2156233Y224204D02*
X2155943Y224785D01*
X2155362Y225366D01*
X2154781Y225656D01*
X2153619D01*
X2153038Y225366D01*
X2152458Y224785D01*
X2152167Y224204D01*
X2151877Y223333D01*
Y221881D01*
X2152167Y221009D01*
X2152458Y220429D01*
X2153038Y219848D01*
X2153619Y219557D01*
X2154781D01*
X2155362Y219848D01*
X2155943Y220429D01*
X2156233Y221009D01*
Y221881D01*
X2154781D02*
X2156233D01*
X2161402Y225656D02*
X2157627D01*
Y219557D01*
X2161402D01*
X2157627Y222752D02*
X2159950D01*
X1895245Y1304016D02*
Y1310114D01*
X1898294D01*
X1899310Y1309098D01*
Y1307065D01*
X1898294Y1306049D01*
X1895245D01*
X1897277D02*
X1899310Y1304016D01*
X1905408Y1310114D02*
X1901343D01*
Y1304016D01*
X1905408D01*
X1901343Y1307065D02*
X1903375D01*
X1907441Y1310114D02*
Y1306049D01*
X1909473Y1304016D01*
X1911506Y1306049D01*
Y1310114D01*
X1913539D02*
X1915571D01*
X1914555D01*
Y1304016D01*
X1913539D01*
X1915571D01*
X1922686Y1309098D02*
X1921669Y1310114D01*
X1919637D01*
X1918620Y1309098D01*
Y1308082D01*
X1919637Y1307065D01*
X1921669D01*
X1922686Y1306049D01*
Y1305033D01*
X1921669Y1304016D01*
X1919637D01*
X1918620Y1305033D01*
X1924718Y1310114D02*
X1926751D01*
X1925735D01*
Y1304016D01*
X1924718D01*
X1926751D01*
X1932849Y1310114D02*
X1930816D01*
X1929800Y1309098D01*
Y1305033D01*
X1930816Y1304016D01*
X1932849D01*
X1933865Y1305033D01*
Y1309098D01*
X1932849Y1310114D01*
X1935898Y1304016D02*
Y1310114D01*
X1939963Y1304016D01*
Y1310114D01*
X1537105Y1260836D02*
Y1266934D01*
X1540154D01*
X1541170Y1265918D01*
Y1263885D01*
X1540154Y1262869D01*
X1537105D01*
X1539137D02*
X1541170Y1260836D01*
X1547268Y1266934D02*
X1543203D01*
Y1260836D01*
X1547268D01*
X1543203Y1263885D02*
X1545235D01*
X1549301Y1266934D02*
Y1262869D01*
X1551333Y1260836D01*
X1553366Y1262869D01*
Y1266934D01*
X1646325D02*
Y1260836D01*
X1649374D01*
X1650390Y1261853D01*
Y1265918D01*
X1649374Y1266934D01*
X1646325D01*
X1656488D02*
X1652423D01*
Y1260836D01*
X1656488D01*
X1652423Y1263885D02*
X1654455D01*
X1662586Y1265918D02*
X1661570Y1266934D01*
X1659537D01*
X1658521Y1265918D01*
Y1264902D01*
X1659537Y1263885D01*
X1661570D01*
X1662586Y1262869D01*
Y1261853D01*
X1661570Y1260836D01*
X1659537D01*
X1658521Y1261853D01*
X1668684Y1265918D02*
X1667668Y1266934D01*
X1665635D01*
X1664619Y1265918D01*
Y1261853D01*
X1665635Y1260836D01*
X1667668D01*
X1668684Y1261853D01*
X1670717Y1260836D02*
Y1266934D01*
X1673766D01*
X1674782Y1265918D01*
Y1263885D01*
X1673766Y1262869D01*
X1670717D01*
X1672749D02*
X1674782Y1260836D01*
X1676815Y1266934D02*
X1678847D01*
X1677831D01*
Y1260836D01*
X1676815D01*
X1678847D01*
X1681896D02*
Y1266934D01*
X1684945D01*
X1685962Y1265918D01*
Y1263885D01*
X1684945Y1262869D01*
X1681896D01*
X1687994Y1266934D02*
X1692060D01*
X1690027D01*
Y1260836D01*
X1694092Y1266934D02*
X1696125D01*
X1695109D01*
Y1260836D01*
X1694092D01*
X1696125D01*
X1702223Y1266934D02*
X1700190D01*
X1699174Y1265918D01*
Y1261853D01*
X1700190Y1260836D01*
X1702223D01*
X1703239Y1261853D01*
Y1265918D01*
X1702223Y1266934D01*
X1705272Y1260836D02*
Y1266934D01*
X1709337Y1260836D01*
Y1266934D01*
X2144165D02*
Y1260836D01*
X2147214D01*
X2148230Y1261853D01*
Y1265918D01*
X2147214Y1266934D01*
X2144165D01*
X2150263Y1260836D02*
Y1264902D01*
X2152295Y1266934D01*
X2154328Y1264902D01*
Y1260836D01*
Y1263885D01*
X2150263D01*
X2156361Y1266934D02*
X2160426D01*
X2158393D01*
Y1260836D01*
X2166524Y1266934D02*
X2162459D01*
Y1260836D01*
X2166524D01*
X2162459Y1263885D02*
X2164491D01*
X2304185Y1266934D02*
Y1260836D01*
X2307234D01*
X2308250Y1261853D01*
Y1262869D01*
X2307234Y1263885D01*
X2304185D01*
X2307234D01*
X2308250Y1264902D01*
Y1265918D01*
X2307234Y1266934D01*
X2304185D01*
X2310283D02*
Y1265918D01*
X2312315Y1263885D01*
X2314348Y1265918D01*
Y1266934D01*
X2312315Y1263885D02*
Y1260836D01*
X1537105Y1222736D02*
Y1228834D01*
X1540154D01*
X1541170Y1227818D01*
Y1225785D01*
X1540154Y1224769D01*
X1537105D01*
X1539137D02*
X1541170Y1222736D01*
X1546252D02*
X1544219D01*
X1543203Y1223753D01*
Y1225785D01*
X1544219Y1226802D01*
X1546252D01*
X1547268Y1225785D01*
Y1224769D01*
X1543203D01*
X1549301Y1226802D02*
X1551333Y1222736D01*
X1553366Y1226802D01*
X1555399Y1222736D02*
X1557431D01*
X1556415D01*
Y1228834D01*
X1555399Y1227818D01*
X1646325Y1222736D02*
Y1228834D01*
X1649374D01*
X1650390Y1227818D01*
Y1225785D01*
X1649374Y1224769D01*
X1646325D01*
X1652423Y1226802D02*
Y1222736D01*
Y1224769D01*
X1653439Y1225785D01*
X1654455Y1226802D01*
X1655472D01*
X1659537Y1222736D02*
X1661570D01*
X1662586Y1223753D01*
Y1225785D01*
X1661570Y1226802D01*
X1659537D01*
X1658521Y1225785D01*
Y1223753D01*
X1659537Y1222736D01*
X1665635Y1227818D02*
Y1226802D01*
X1664619D01*
X1666651D01*
X1665635D01*
Y1223753D01*
X1666651Y1222736D01*
X1670717D02*
X1672749D01*
X1673766Y1223753D01*
Y1225785D01*
X1672749Y1226802D01*
X1670717D01*
X1669700Y1225785D01*
Y1223753D01*
X1670717Y1222736D01*
X1676815Y1227818D02*
Y1226802D01*
X1675798D01*
X1677831D01*
X1676815D01*
Y1223753D01*
X1677831Y1222736D01*
X1680880Y1226802D02*
Y1223753D01*
X1681896Y1222736D01*
X1684945D01*
Y1221720D01*
X1683929Y1220704D01*
X1682913D01*
X1684945Y1222736D02*
Y1226802D01*
X1686978Y1220704D02*
Y1226802D01*
X1690027D01*
X1691043Y1225785D01*
Y1223753D01*
X1690027Y1222736D01*
X1686978D01*
X1696125D02*
X1694092D01*
X1693076Y1223753D01*
Y1225785D01*
X1694092Y1226802D01*
X1696125D01*
X1697141Y1225785D01*
Y1224769D01*
X1693076D01*
X1705272Y1222736D02*
Y1228834D01*
X1708321D01*
X1709337Y1227818D01*
Y1225785D01*
X1708321Y1224769D01*
X1705272D01*
X1707305D02*
X1709337Y1222736D01*
X1714419D02*
X1712386D01*
X1711370Y1223753D01*
Y1225785D01*
X1712386Y1226802D01*
X1714419D01*
X1715435Y1225785D01*
Y1224769D01*
X1711370D01*
X1717468Y1222736D02*
X1719501D01*
X1718484D01*
Y1228834D01*
X1717468D01*
X1725599Y1222736D02*
X1723566D01*
X1722550Y1223753D01*
Y1225785D01*
X1723566Y1226802D01*
X1725599D01*
X1726615Y1225785D01*
Y1224769D01*
X1722550D01*
X1729664Y1226802D02*
X1731697D01*
X1732713Y1225785D01*
Y1222736D01*
X1729664D01*
X1728648Y1223753D01*
X1729664Y1224769D01*
X1732713D01*
X1734746Y1222736D02*
X1737795D01*
X1738811Y1223753D01*
X1737795Y1224769D01*
X1735762D01*
X1734746Y1225785D01*
X1735762Y1226802D01*
X1738811D01*
X1743893Y1222736D02*
X1741860D01*
X1740844Y1223753D01*
Y1225785D01*
X1741860Y1226802D01*
X1743893D01*
X1744909Y1225785D01*
Y1224769D01*
X1740844D01*
X2127910Y1220196D02*
X2123845D01*
X2127910Y1224262D01*
Y1225278D01*
X2126894Y1226294D01*
X2124861D01*
X2123845Y1225278D01*
X2129943D02*
X2130959Y1226294D01*
X2132992D01*
X2134008Y1225278D01*
Y1221213D01*
X2132992Y1220196D01*
X2130959D01*
X2129943Y1221213D01*
Y1225278D01*
X2140106Y1220196D02*
X2136041D01*
X2140106Y1224262D01*
Y1225278D01*
X2139090Y1226294D01*
X2137057D01*
X2136041Y1225278D01*
X2146204Y1220196D02*
X2142139D01*
X2146204Y1224262D01*
Y1225278D01*
X2145188Y1226294D01*
X2143155D01*
X2142139Y1225278D01*
X2148237Y1223245D02*
X2152302D01*
X2154335Y1220196D02*
X2156367D01*
X2155351D01*
Y1226294D01*
X2154335Y1225278D01*
X2159416Y1220196D02*
X2161449D01*
X2160433D01*
Y1226294D01*
X2159416Y1225278D01*
X2164498Y1223245D02*
X2168563D01*
X2174661Y1220196D02*
X2170596D01*
X2174661Y1224262D01*
Y1225278D01*
X2173645Y1226294D01*
X2171612D01*
X2170596Y1225278D01*
X2176694D02*
X2177710Y1226294D01*
X2179743D01*
X2180759Y1225278D01*
Y1224262D01*
X2179743Y1223245D01*
X2180759Y1222229D01*
Y1221213D01*
X2179743Y1220196D01*
X2177710D01*
X2176694Y1221213D01*
Y1222229D01*
X2177710Y1223245D01*
X2176694Y1224262D01*
Y1225278D01*
X2177710Y1223245D02*
X2179743D01*
X2291485Y1228834D02*
Y1222736D01*
Y1225785D01*
X2292501Y1226802D01*
X2294534D01*
X2295550Y1225785D01*
Y1222736D01*
X2298599Y1226802D02*
X2300632D01*
X2301648Y1225785D01*
Y1222736D01*
X2298599D01*
X2297583Y1223753D01*
X2298599Y1224769D01*
X2301648D01*
X2303681Y1228834D02*
Y1222736D01*
X2306730D01*
X2307746Y1223753D01*
Y1224769D01*
Y1225785D01*
X2306730Y1226802D01*
X2303681D01*
X2313844Y1228834D02*
Y1222736D01*
X2310795D01*
X2309779Y1223753D01*
Y1225785D01*
X2310795Y1226802D01*
X2313844D01*
X1638641Y1154377D02*
Y1160474D01*
X1641690D01*
X1642706Y1159458D01*
Y1157426D01*
X1641690Y1156409D01*
X1638641D01*
X1644739Y1158442D02*
Y1154377D01*
Y1156409D01*
X1645755Y1157426D01*
X1646771Y1158442D01*
X1647788D01*
X1651853Y1154377D02*
X1653886D01*
X1654902Y1155393D01*
Y1157426D01*
X1653886Y1158442D01*
X1651853D01*
X1650837Y1157426D01*
Y1155393D01*
X1651853Y1154377D01*
X1657951Y1159458D02*
Y1158442D01*
X1656935D01*
X1658967D01*
X1657951D01*
Y1155393D01*
X1658967Y1154377D01*
X1663033D02*
X1665065D01*
X1666082Y1155393D01*
Y1157426D01*
X1665065Y1158442D01*
X1663033D01*
X1662016Y1157426D01*
Y1155393D01*
X1663033Y1154377D01*
X1669131Y1159458D02*
Y1158442D01*
X1668114D01*
X1670147D01*
X1669131D01*
Y1155393D01*
X1670147Y1154377D01*
X1673196Y1158442D02*
Y1155393D01*
X1674212Y1154377D01*
X1677261D01*
Y1153360D01*
X1676245Y1152344D01*
X1675229D01*
X1677261Y1154377D02*
Y1158442D01*
X1679294Y1152344D02*
Y1158442D01*
X1682343D01*
X1683359Y1157426D01*
Y1155393D01*
X1682343Y1154377D01*
X1679294D01*
X1688441D02*
X1686408D01*
X1685392Y1155393D01*
Y1157426D01*
X1686408Y1158442D01*
X1688441D01*
X1689458Y1157426D01*
Y1156409D01*
X1685392D01*
X1697588Y1154377D02*
Y1160474D01*
X1700637D01*
X1701653Y1159458D01*
Y1157426D01*
X1700637Y1156409D01*
X1697588D01*
X1699621D02*
X1701653Y1154377D01*
X1706735D02*
X1704702D01*
X1703686Y1155393D01*
Y1157426D01*
X1704702Y1158442D01*
X1706735D01*
X1707751Y1157426D01*
Y1156409D01*
X1703686D01*
X1709784Y1154377D02*
X1711817D01*
X1710800D01*
Y1160474D01*
X1709784D01*
X1717915Y1154377D02*
X1715882D01*
X1714866Y1155393D01*
Y1157426D01*
X1715882Y1158442D01*
X1717915D01*
X1718931Y1157426D01*
Y1156409D01*
X1714866D01*
X1721980Y1158442D02*
X1724013D01*
X1725029Y1157426D01*
Y1154377D01*
X1721980D01*
X1720964Y1155393D01*
X1721980Y1156409D01*
X1725029D01*
X1727062Y1154377D02*
X1730111D01*
X1731127Y1155393D01*
X1730111Y1156409D01*
X1728078D01*
X1727062Y1157426D01*
X1728078Y1158442D01*
X1731127D01*
X1736209Y1154377D02*
X1734176D01*
X1733160Y1155393D01*
Y1157426D01*
X1734176Y1158442D01*
X1736209D01*
X1737225Y1157426D01*
Y1156409D01*
X1733160D01*
X1529421Y1154377D02*
Y1160474D01*
X1532470D01*
X1533486Y1159458D01*
Y1157426D01*
X1532470Y1156409D01*
X1529421D01*
X1531453D02*
X1533486Y1154377D01*
X1538568D02*
X1536535D01*
X1535519Y1155393D01*
Y1157426D01*
X1536535Y1158442D01*
X1538568D01*
X1539584Y1157426D01*
Y1156409D01*
X1535519D01*
X1541617Y1158442D02*
X1543649Y1154377D01*
X1545682Y1158442D01*
X1553813Y1160474D02*
Y1154377D01*
X1556862D01*
X1557878Y1155393D01*
Y1156409D01*
X1556862Y1157426D01*
X1553813D01*
X1556862D01*
X1557878Y1158442D01*
Y1159458D01*
X1556862Y1160474D01*
X1553813D01*
X2291485Y1146536D02*
Y1147553D01*
X2292501D01*
Y1146536D01*
X2291485D01*
X2296566D02*
Y1152634D01*
X2299615D01*
X2300632Y1151618D01*
Y1149585D01*
X2299615Y1148569D01*
X2296566D01*
X2298599D02*
X2300632Y1146536D01*
X2305713D02*
X2303681D01*
X2302664Y1147553D01*
Y1149585D01*
X2303681Y1150602D01*
X2305713D01*
X2306730Y1149585D01*
Y1148569D01*
X2302664D01*
X2308762Y1146536D02*
X2310795D01*
X2309779D01*
Y1152634D01*
X2308762D01*
X2316893Y1146536D02*
X2314860D01*
X2313844Y1147553D01*
Y1149585D01*
X2314860Y1150602D01*
X2316893D01*
X2317909Y1149585D01*
Y1148569D01*
X2313844D01*
X2320958Y1150602D02*
X2322991D01*
X2324007Y1149585D01*
Y1146536D01*
X2320958D01*
X2319942Y1147553D01*
X2320958Y1148569D01*
X2324007D01*
X2326040Y1146536D02*
X2329089D01*
X2330105Y1147553D01*
X2329089Y1148569D01*
X2327056D01*
X2326040Y1149585D01*
X2327056Y1150602D01*
X2330105D01*
X2335187Y1146536D02*
X2333154D01*
X2332138Y1147553D01*
Y1149585D01*
X2333154Y1150602D01*
X2335187D01*
X2336203Y1149585D01*
Y1148569D01*
X2332138D01*
X2338236Y1152634D02*
Y1146536D01*
X2341285D01*
X2342301Y1147553D01*
Y1148569D01*
X2341285Y1149585D01*
X2338236D01*
X2341285D01*
X2342301Y1150602D01*
Y1151618D01*
X2341285Y1152634D01*
X2338236D01*
X2344334Y1150602D02*
Y1147553D01*
X2345350Y1146536D01*
X2348399D01*
Y1145520D01*
X2347383Y1144504D01*
X2346367D01*
X2348399Y1146536D02*
Y1150602D01*
X2350432Y1151618D02*
X2351448Y1152634D01*
X2353481D01*
X2354497Y1151618D01*
Y1150602D01*
X2353481Y1149585D01*
X2352465D01*
X2353481D01*
X2354497Y1148569D01*
Y1147553D01*
X2353481Y1146536D01*
X2351448D01*
X2350432Y1147553D01*
X1318665Y-688866D02*
Y-693947D01*
X1319681Y-694964D01*
X1321714D01*
X1322730Y-693947D01*
Y-688866D01*
X1324763D02*
Y-694964D01*
X1327812D01*
X1328828Y-693947D01*
Y-692931D01*
X1327812Y-691915D01*
X1324763D01*
X1327812D01*
X1328828Y-690898D01*
Y-689882D01*
X1327812Y-688866D01*
X1324763D01*
X1330861D02*
X1334926Y-694964D01*
Y-688866D02*
X1330861Y-694964D01*
X1336959Y-688866D02*
Y-694964D01*
Y-691915D01*
X1341024D01*
Y-688866D01*
Y-694964D01*
X1347122Y-688866D02*
X1345089Y-689882D01*
X1343057Y-691915D01*
Y-693947D01*
X1344073Y-694964D01*
X1346106D01*
X1347122Y-693947D01*
Y-692931D01*
X1346106Y-691915D01*
X1343057D01*
X1349155Y-689882D02*
X1350171Y-688866D01*
X1352204D01*
X1353220Y-689882D01*
Y-693947D01*
X1352204Y-694964D01*
X1350171D01*
X1349155Y-693947D01*
Y-689882D01*
X1355253Y-691915D02*
X1359318D01*
X1361351Y-689882D02*
X1362367Y-688866D01*
X1364400D01*
X1365416Y-689882D01*
Y-693947D01*
X1364400Y-694964D01*
X1362367D01*
X1361351Y-693947D01*
Y-689882D01*
X1367449D02*
X1368465Y-688866D01*
X1370498D01*
X1371514Y-689882D01*
Y-693947D01*
X1370498Y-694964D01*
X1368465D01*
X1367449Y-693947D01*
Y-689882D01*
X1373547D02*
X1374563Y-688866D01*
X1376596D01*
X1377612Y-689882D01*
Y-693947D01*
X1376596Y-694964D01*
X1374563D01*
X1373547Y-693947D01*
Y-689882D01*
X1379645Y-694964D02*
X1381677D01*
X1380661D01*
Y-688866D01*
X1379645Y-689882D01*
X1384726D02*
X1385743Y-688866D01*
X1387775D01*
X1388792Y-689882D01*
Y-693947D01*
X1387775Y-694964D01*
X1385743D01*
X1384726Y-693947D01*
Y-689882D01*
X1390824Y-694964D02*
X1392857D01*
X1391841D01*
Y-688866D01*
X1390824Y-689882D01*
X1399971Y-694964D02*
X1395906D01*
X1399971Y-690898D01*
Y-689882D01*
X1398955Y-688866D01*
X1396922D01*
X1395906Y-689882D01*
X1745385Y-623844D02*
Y-617746D01*
X1748434D01*
X1749450Y-618762D01*
Y-620795D01*
X1748434Y-621811D01*
X1745385D01*
X1755548Y-618762D02*
X1754532Y-617746D01*
X1752499D01*
X1751483Y-618762D01*
Y-622827D01*
X1752499Y-623844D01*
X1754532D01*
X1755548Y-622827D01*
X1757581Y-617746D02*
Y-623844D01*
X1760630D01*
X1761646Y-622827D01*
Y-621811D01*
X1760630Y-620795D01*
X1757581D01*
X1760630D01*
X1761646Y-619778D01*
Y-618762D01*
X1760630Y-617746D01*
X1757581D01*
X1763679Y-620795D02*
X1767744D01*
X1773842Y-617746D02*
X1769777D01*
Y-623844D01*
X1773842D01*
X1769777Y-620795D02*
X1771809D01*
X1775875Y-617746D02*
Y-621811D01*
X1777907Y-623844D01*
X1779940Y-621811D01*
Y-617746D01*
X1781973D02*
Y-623844D01*
Y-621811D01*
X1786038Y-617746D01*
X1782989Y-620795D01*
X1786038Y-623844D01*
X1788071Y-620795D02*
X1792136D01*
X1794169Y-617746D02*
X1796201D01*
X1795185D01*
Y-623844D01*
X1794169D01*
X1796201D01*
X1799250D02*
Y-617746D01*
X1802299D01*
X1803316Y-618762D01*
Y-620795D01*
X1802299Y-621811D01*
X1799250D01*
X1801283D02*
X1803316Y-623844D01*
X1805348Y-617746D02*
X1807381D01*
X1806365D01*
Y-623844D01*
X1805348D01*
X1807381D01*
X1814495Y-618762D02*
X1813479Y-617746D01*
X1811446D01*
X1810430Y-618762D01*
Y-619778D01*
X1811446Y-620795D01*
X1813479D01*
X1814495Y-621811D01*
Y-622827D01*
X1813479Y-623844D01*
X1811446D01*
X1810430Y-622827D01*
X1816528Y-620795D02*
X1820593D01*
X1822626Y-617746D02*
Y-623844D01*
X1824659Y-621811D01*
X1826691Y-623844D01*
Y-617746D01*
X1828724Y-623844D02*
X1830757D01*
X1829740D01*
Y-617746D01*
X1828724Y-618762D01*
X2239965Y-622634D02*
Y-616536D01*
X2243014D01*
X2244030Y-617552D01*
Y-619585D01*
X2243014Y-620601D01*
X2239965D01*
X2241997D02*
X2244030Y-622634D01*
X2249112D02*
X2247079D01*
X2246063Y-621617D01*
Y-619585D01*
X2247079Y-618568D01*
X2249112D01*
X2250128Y-619585D01*
Y-620601D01*
X2246063D01*
X2252161Y-618568D02*
X2254193Y-622634D01*
X2256226Y-618568D01*
X2264357Y-616536D02*
Y-622634D01*
X2267406D01*
X2268422Y-621617D01*
Y-620601D01*
X2267406Y-619585D01*
X2264357D01*
X2267406D01*
X2268422Y-618568D01*
Y-617552D01*
X2267406Y-616536D01*
X2264357D01*
X1749450Y-556786D02*
X1745385D01*
Y-562884D01*
X1749450D01*
X1745385Y-559835D02*
X1747417D01*
X1751483Y-556786D02*
Y-560851D01*
X1753515Y-562884D01*
X1755548Y-560851D01*
Y-556786D01*
X1757581D02*
Y-562884D01*
Y-560851D01*
X1761646Y-556786D01*
X1758597Y-559835D01*
X1761646Y-562884D01*
X1763679Y-559835D02*
X1767744D01*
X1769777Y-556786D02*
X1771809D01*
X1770793D01*
Y-562884D01*
X1769777D01*
X1771809D01*
X1774858D02*
Y-556786D01*
X1777907D01*
X1778924Y-557802D01*
Y-559835D01*
X1777907Y-560851D01*
X1774858D01*
X1776891D02*
X1778924Y-562884D01*
X1780956Y-556786D02*
X1782989D01*
X1781973D01*
Y-562884D01*
X1780956D01*
X1782989D01*
X1790103Y-557802D02*
X1789087Y-556786D01*
X1787054D01*
X1786038Y-557802D01*
Y-558818D01*
X1787054Y-559835D01*
X1789087D01*
X1790103Y-560851D01*
Y-561867D01*
X1789087Y-562884D01*
X1787054D01*
X1786038Y-561867D01*
X1792136Y-559835D02*
X1796201D01*
X1798234Y-556786D02*
Y-562884D01*
X1800267Y-560851D01*
X1802299Y-562884D01*
Y-556786D01*
X1804332Y-562884D02*
X1806365D01*
X1805348D01*
Y-556786D01*
X1804332Y-557802D01*
X1366925Y-556786D02*
Y-562884D01*
Y-559835D01*
X1367941Y-558818D01*
X1369974D01*
X1370990Y-559835D01*
Y-562884D01*
X1374039Y-558818D02*
X1376072D01*
X1377088Y-559835D01*
Y-562884D01*
X1374039D01*
X1373023Y-561867D01*
X1374039Y-560851D01*
X1377088D01*
X1379121Y-556786D02*
Y-562884D01*
X1382170D01*
X1383186Y-561867D01*
Y-560851D01*
Y-559835D01*
X1382170Y-558818D01*
X1379121D01*
X1389284Y-556786D02*
Y-562884D01*
X1386235D01*
X1385219Y-561867D01*
Y-559835D01*
X1386235Y-558818D01*
X1389284D01*
X1634327Y-600384D02*
Y-594286D01*
X1637376D01*
X1638392Y-595302D01*
Y-597335D01*
X1637376Y-598351D01*
X1634327D01*
X1644490Y-595302D02*
X1643474Y-594286D01*
X1641441D01*
X1640425Y-595302D01*
Y-599367D01*
X1641441Y-600384D01*
X1643474D01*
X1644490Y-599367D01*
X1646523Y-594286D02*
Y-600384D01*
X1649572D01*
X1650588Y-599367D01*
Y-598351D01*
X1649572Y-597335D01*
X1646523D01*
X1649572D01*
X1650588Y-596318D01*
Y-595302D01*
X1649572Y-594286D01*
X1646523D01*
X1658719Y-600384D02*
Y-594286D01*
X1662784Y-600384D01*
Y-594286D01*
X1664817Y-600384D02*
Y-596318D01*
X1666849Y-594286D01*
X1668882Y-596318D01*
Y-600384D01*
Y-597335D01*
X1664817D01*
X1670915Y-600384D02*
Y-594286D01*
X1672947Y-596318D01*
X1674980Y-594286D01*
Y-600384D01*
X1681078Y-594286D02*
X1677013D01*
Y-600384D01*
X1681078D01*
X1677013Y-597335D02*
X1679045D01*
X1683111Y-596318D02*
X1684127D01*
Y-597335D01*
X1683111D01*
Y-596318D01*
Y-599367D02*
X1684127D01*
Y-600384D01*
X1683111D01*
Y-599367D01*
X2253325Y-693602D02*
X2255357D01*
X2254341D01*
Y-687504D01*
X2253325Y-688520D01*
X2258406Y-689536D02*
X2259423D01*
Y-690553D01*
X2258406D01*
Y-689536D01*
Y-692585D02*
X2259423D01*
Y-693602D01*
X2258406D01*
Y-692585D01*
X2263488Y-693602D02*
X2265521D01*
X2264504D01*
Y-687504D01*
X2263488Y-688520D01*
X2170268Y-661342D02*
X2169252Y-660326D01*
X2167219D01*
X2166203Y-661342D01*
Y-662358D01*
X2167219Y-663375D01*
X2169252D01*
X2170268Y-664391D01*
Y-665407D01*
X2169252Y-666424D01*
X2167219D01*
X2166203Y-665407D01*
X2176366Y-661342D02*
X2175350Y-660326D01*
X2173317D01*
X2172301Y-661342D01*
Y-665407D01*
X2173317Y-666424D01*
X2175350D01*
X2176366Y-665407D01*
X2178399Y-666424D02*
Y-662358D01*
X2180431Y-660326D01*
X2182464Y-662358D01*
Y-666424D01*
Y-663375D01*
X2178399D01*
X2184497Y-660326D02*
Y-666424D01*
X2188562D01*
X2194660Y-660326D02*
X2190595D01*
Y-666424D01*
X2194660D01*
X2190595Y-663375D02*
X2192627D01*
X2196693Y-662358D02*
X2197709D01*
Y-663375D01*
X2196693D01*
Y-662358D01*
Y-665407D02*
X2197709D01*
Y-666424D01*
X2196693D01*
Y-665407D01*
X1637690Y-658386D02*
X1633625D01*
Y-661435D01*
X1635657D01*
X1633625D01*
Y-664484D01*
X1639723Y-658386D02*
X1641755D01*
X1640739D01*
Y-664484D01*
X1639723D01*
X1641755D01*
X1644804Y-658386D02*
Y-664484D01*
X1648870D01*
X1654968Y-658386D02*
X1650902D01*
Y-664484D01*
X1654968D01*
X1650902Y-661435D02*
X1652935D01*
X1663098Y-664484D02*
Y-658386D01*
X1667164Y-664484D01*
Y-658386D01*
X1669196Y-664484D02*
Y-660418D01*
X1671229Y-658386D01*
X1673262Y-660418D01*
Y-664484D01*
Y-661435D01*
X1669196D01*
X1675294Y-664484D02*
Y-658386D01*
X1677327Y-660418D01*
X1679360Y-658386D01*
Y-664484D01*
X1685458Y-658386D02*
X1681392D01*
Y-664484D01*
X1685458D01*
X1681392Y-661435D02*
X1683425D01*
X1687490Y-660418D02*
X1688507D01*
Y-661435D01*
X1687490D01*
Y-660418D01*
Y-663467D02*
X1688507D01*
Y-664484D01*
X1687490D01*
Y-663467D01*
X1635597Y-546028D02*
Y-539930D01*
X1638646D01*
X1639662Y-540946D01*
Y-542979D01*
X1638646Y-543995D01*
X1635597D01*
X1641695Y-546028D02*
Y-539930D01*
X1644744D01*
X1645760Y-540946D01*
Y-542979D01*
X1644744Y-543995D01*
X1641695D01*
X1643727D02*
X1645760Y-546028D01*
X1650842Y-539930D02*
X1648809D01*
X1647793Y-540946D01*
Y-545011D01*
X1648809Y-546028D01*
X1650842D01*
X1651858Y-545011D01*
Y-540946D01*
X1650842Y-539930D01*
X1657956D02*
X1655923D01*
X1656940D01*
Y-545011D01*
X1655923Y-546028D01*
X1654907D01*
X1653891Y-545011D01*
X1664054Y-539930D02*
X1659989D01*
Y-546028D01*
X1664054D01*
X1659989Y-542979D02*
X1662021D01*
X1670152Y-540946D02*
X1669136Y-539930D01*
X1667103D01*
X1666087Y-540946D01*
Y-545011D01*
X1667103Y-546028D01*
X1669136D01*
X1670152Y-545011D01*
X1672185Y-539930D02*
X1676250D01*
X1674217D01*
Y-546028D01*
X1678283Y-541962D02*
X1679299D01*
Y-542979D01*
X1678283D01*
Y-541962D01*
Y-545011D02*
X1679299D01*
Y-546028D01*
X1678283D01*
Y-545011D01*
X1254598Y-540184D02*
X1250533D01*
Y-546282D01*
X1254598D01*
X1250533Y-543233D02*
X1252565D01*
X1256631Y-546282D02*
Y-540184D01*
X1260696Y-546282D01*
Y-540184D01*
X1266794Y-541200D02*
X1265778Y-540184D01*
X1263745D01*
X1262729Y-541200D01*
Y-545265D01*
X1263745Y-546282D01*
X1265778D01*
X1266794Y-545265D01*
Y-543233D01*
X1264761D01*
X1268827Y-540184D02*
X1270859D01*
X1269843D01*
Y-546282D01*
X1268827D01*
X1270859D01*
X1273908D02*
Y-540184D01*
X1277974Y-546282D01*
Y-540184D01*
X1284072D02*
X1280006D01*
Y-546282D01*
X1284072D01*
X1280006Y-543233D02*
X1282039D01*
X1290170Y-540184D02*
X1286104D01*
Y-546282D01*
X1290170D01*
X1286104Y-543233D02*
X1288137D01*
X1292202Y-546282D02*
Y-540184D01*
X1295251D01*
X1296268Y-541200D01*
Y-543233D01*
X1295251Y-544249D01*
X1292202D01*
X1294235D02*
X1296268Y-546282D01*
X1298300Y-542216D02*
X1299317D01*
Y-543233D01*
X1298300D01*
Y-542216D01*
Y-545265D02*
X1299317D01*
Y-546282D01*
X1298300D01*
Y-545265D01*
X1252625Y-658386D02*
Y-664484D01*
X1255674D01*
X1256690Y-663467D01*
Y-659402D01*
X1255674Y-658386D01*
X1252625D01*
X1258723D02*
Y-664484D01*
X1260755Y-662451D01*
X1262788Y-664484D01*
Y-658386D01*
X1268886Y-659402D02*
X1267870Y-658386D01*
X1265837D01*
X1264821Y-659402D01*
Y-663467D01*
X1265837Y-664484D01*
X1267870D01*
X1268886Y-663467D01*
Y-661435D01*
X1266853D01*
X1277017Y-664484D02*
Y-658386D01*
X1281082Y-664484D01*
Y-658386D01*
X1286164D02*
X1284131D01*
X1283115Y-659402D01*
Y-663467D01*
X1284131Y-664484D01*
X1286164D01*
X1287180Y-663467D01*
Y-659402D01*
X1286164Y-658386D01*
X1289213Y-660418D02*
X1290229D01*
Y-661435D01*
X1289213D01*
Y-660418D01*
Y-663467D02*
X1290229D01*
Y-664484D01*
X1289213D01*
Y-663467D01*
X2167473Y-603686D02*
Y-597588D01*
X2170522D01*
X2171538Y-598604D01*
Y-600637D01*
X2170522Y-601653D01*
X2167473D01*
X2169505D02*
X2171538Y-603686D01*
X2177636Y-597588D02*
X2173571D01*
Y-603686D01*
X2177636D01*
X2173571Y-600637D02*
X2175603D01*
X2179669Y-597588D02*
Y-601653D01*
X2181701Y-603686D01*
X2183734Y-601653D01*
Y-597588D01*
X2185767Y-599620D02*
X2186783D01*
Y-600637D01*
X2185767D01*
Y-599620D01*
Y-602669D02*
X2186783D01*
Y-603686D01*
X2185767D01*
Y-602669D01*
X1251295Y-595302D02*
Y-601400D01*
X1254344D01*
X1255360Y-600383D01*
Y-596318D01*
X1254344Y-595302D01*
X1251295D01*
X1257393Y-601400D02*
Y-597334D01*
X1259425Y-595302D01*
X1261458Y-597334D01*
Y-601400D01*
Y-598351D01*
X1257393D01*
X1263491Y-595302D02*
X1267556D01*
X1265523D01*
Y-601400D01*
X1273654Y-595302D02*
X1269589D01*
Y-601400D01*
X1273654D01*
X1269589Y-598351D02*
X1271621D01*
X1275687Y-597334D02*
X1276703D01*
Y-598351D01*
X1275687D01*
Y-597334D01*
Y-600383D02*
X1276703D01*
Y-601400D01*
X1275687D01*
Y-600383D01*
X1327810Y-623844D02*
X1323745D01*
X1327810Y-619778D01*
Y-618762D01*
X1326794Y-617746D01*
X1324761D01*
X1323745Y-618762D01*
X1329843D02*
X1330859Y-617746D01*
X1332892D01*
X1333908Y-618762D01*
Y-622827D01*
X1332892Y-623844D01*
X1330859D01*
X1329843Y-622827D01*
Y-618762D01*
X1340006Y-623844D02*
X1335941D01*
X1340006Y-619778D01*
Y-618762D01*
X1338990Y-617746D01*
X1336957D01*
X1335941Y-618762D01*
X1342039D02*
X1343055Y-617746D01*
X1345088D01*
X1346104Y-618762D01*
Y-619778D01*
X1345088Y-620795D01*
X1344071D01*
X1345088D01*
X1346104Y-621811D01*
Y-622827D01*
X1345088Y-623844D01*
X1343055D01*
X1342039Y-622827D01*
X1348137Y-620795D02*
X1352202D01*
X1354235Y-618762D02*
X1355251Y-617746D01*
X1357284D01*
X1358300Y-618762D01*
Y-622827D01*
X1357284Y-623844D01*
X1355251D01*
X1354235Y-622827D01*
Y-618762D01*
X1364398Y-617746D02*
X1360333D01*
Y-620795D01*
X1362365Y-619778D01*
X1363382D01*
X1364398Y-620795D01*
Y-622827D01*
X1363382Y-623844D01*
X1361349D01*
X1360333Y-622827D01*
X1366431Y-620795D02*
X1370496D01*
X1372529Y-623844D02*
X1374561D01*
X1373545D01*
Y-617746D01*
X1372529Y-618762D01*
X1377610Y-617746D02*
X1381676D01*
Y-618762D01*
X1377610Y-622827D01*
Y-623844D01*
X1660550Y-686326D02*
X1656485D01*
Y-692424D01*
X1660550D01*
X1656485Y-689375D02*
X1658517D01*
X1662583Y-686326D02*
Y-690391D01*
X1664615Y-692424D01*
X1666648Y-690391D01*
Y-686326D01*
X1668681D02*
Y-692424D01*
Y-690391D01*
X1672746Y-686326D01*
X1669697Y-689375D01*
X1672746Y-692424D01*
X1674779Y-689375D02*
X1678844D01*
X1680877Y-686326D02*
X1682909D01*
X1681893D01*
Y-692424D01*
X1680877D01*
X1682909D01*
X1685958D02*
Y-686326D01*
X1689007D01*
X1690024Y-687342D01*
Y-689375D01*
X1689007Y-690391D01*
X1685958D01*
X1687991D02*
X1690024Y-692424D01*
X1692056Y-686326D02*
X1694089D01*
X1693073D01*
Y-692424D01*
X1692056D01*
X1694089D01*
X1701203Y-687342D02*
X1700187Y-686326D01*
X1698154D01*
X1697138Y-687342D01*
Y-688358D01*
X1698154Y-689375D01*
X1700187D01*
X1701203Y-690391D01*
Y-691407D01*
X1700187Y-692424D01*
X1698154D01*
X1697138Y-691407D01*
X1703236Y-689375D02*
X1707301D01*
X1709334Y-686326D02*
Y-692424D01*
X1711367Y-690391D01*
X1713399Y-692424D01*
Y-686326D01*
X1715432Y-692424D02*
X1717465D01*
X1716448D01*
Y-686326D01*
X1715432Y-687342D01*
X1720514Y-692424D02*
Y-691407D01*
X1721530D01*
Y-692424D01*
X1720514D01*
X1725595D02*
Y-686326D01*
X1728644D01*
X1729661Y-687342D01*
Y-689375D01*
X1728644Y-690391D01*
X1725595D01*
X1735759Y-688358D02*
X1732710D01*
X1731693Y-689375D01*
Y-691407D01*
X1732710Y-692424D01*
X1735759D01*
X1737791Y-686326D02*
Y-692424D01*
X1740840D01*
X1741857Y-691407D01*
Y-690391D01*
Y-689375D01*
X1740840Y-688358D01*
X1737791D01*
X1743889Y-686326D02*
Y-692424D01*
X1746938D01*
X1747955Y-691407D01*
Y-687342D01*
X1746938Y-686326D01*
X1743889D01*
X1751004Y-692424D02*
X1753036D01*
X1754053Y-691407D01*
Y-689375D01*
X1753036Y-688358D01*
X1751004D01*
X1749987Y-689375D01*
Y-691407D01*
X1751004Y-692424D01*
X1760151Y-688358D02*
X1757102D01*
X1756085Y-689375D01*
Y-691407D01*
X1757102Y-692424D01*
X1760151D01*
X960903Y-681101D02*
X960612Y-680520D01*
X960032Y-679939D01*
X959451Y-679649D01*
X958289D01*
X957708Y-679939D01*
X957127Y-680520D01*
X956837Y-681101D01*
X956547Y-681972D01*
Y-683424D01*
X956837Y-684296D01*
X957127Y-684876D01*
X957708Y-685457D01*
X958289Y-685748D01*
X959451D01*
X960032Y-685457D01*
X960612Y-684876D01*
X960903Y-684296D01*
X964359Y-679649D02*
X963778Y-679939D01*
X963197Y-680520D01*
X962907Y-681101D01*
X962616Y-681972D01*
Y-683424D01*
X962907Y-684296D01*
X963197Y-684876D01*
X963778Y-685457D01*
X964359Y-685748D01*
X965520D01*
X966101Y-685457D01*
X966682Y-684876D01*
X966973Y-684296D01*
X967263Y-683424D01*
Y-681972D01*
X966973Y-681101D01*
X966682Y-680520D01*
X966101Y-679939D01*
X965520Y-679649D01*
X964359D01*
X968686D02*
Y-685748D01*
Y-679649D02*
X972752Y-685748D01*
Y-679649D02*
Y-685748D01*
X974436Y-679649D02*
Y-685748D01*
Y-679649D02*
X978212D01*
X974436Y-682553D02*
X976759D01*
X978908Y-679649D02*
Y-685748D01*
X980186Y-679649D02*
Y-685748D01*
Y-679649D02*
X982219D01*
X983090Y-679939D01*
X983671Y-680520D01*
X983962Y-681101D01*
X984252Y-681972D01*
Y-683424D01*
X983962Y-684296D01*
X983671Y-684876D01*
X983090Y-685457D01*
X982219Y-685748D01*
X980186D01*
X989392Y-679649D02*
X985617D01*
Y-685748D01*
X989392D01*
X985617Y-682553D02*
X987940D01*
X990409Y-679649D02*
Y-685748D01*
Y-679649D02*
X994475Y-685748D01*
Y-679649D02*
Y-685748D01*
X998192Y-679649D02*
Y-685748D01*
X996159Y-679649D02*
X1000225D01*
X1000951D02*
Y-685748D01*
X1006875D02*
X1004552Y-679649D01*
X1002229Y-685748D01*
X1003100Y-683715D02*
X1006004D01*
X1008298Y-679649D02*
Y-685748D01*
X1011783D01*
X2291485Y1190734D02*
Y1184636D01*
Y1187685D01*
X2292501Y1188702D01*
X2294534D01*
X2295550Y1187685D01*
Y1184636D01*
X2298599Y1188702D02*
X2300632D01*
X2301648Y1187685D01*
Y1184636D01*
X2298599D01*
X2297583Y1185653D01*
X2298599Y1186669D01*
X2301648D01*
X2303681Y1190734D02*
Y1184636D01*
X2306730D01*
X2307746Y1185653D01*
Y1186669D01*
Y1187685D01*
X2306730Y1188702D01*
X2303681D01*
X2313844Y1190734D02*
Y1184636D01*
X2310795D01*
X2309779Y1185653D01*
Y1187685D01*
X2310795Y1188702D01*
X2313844D01*
X2127910Y1182096D02*
X2123845D01*
X2127910Y1186162D01*
Y1187178D01*
X2126894Y1188194D01*
X2124861D01*
X2123845Y1187178D01*
X2129943D02*
X2130959Y1188194D01*
X2132992D01*
X2134008Y1187178D01*
Y1183113D01*
X2132992Y1182096D01*
X2130959D01*
X2129943Y1183113D01*
Y1187178D01*
X2140106Y1182096D02*
X2136041D01*
X2140106Y1186162D01*
Y1187178D01*
X2139090Y1188194D01*
X2137057D01*
X2136041Y1187178D01*
X2142139D02*
X2143155Y1188194D01*
X2145188D01*
X2146204Y1187178D01*
Y1186162D01*
X2145188Y1185145D01*
X2144171D01*
X2145188D01*
X2146204Y1184129D01*
Y1183113D01*
X2145188Y1182096D01*
X2143155D01*
X2142139Y1183113D01*
X2148237Y1185145D02*
X2152302D01*
X2154335Y1187178D02*
X2155351Y1188194D01*
X2157384D01*
X2158400Y1187178D01*
Y1183113D01*
X2157384Y1182096D01*
X2155351D01*
X2154335Y1183113D01*
Y1187178D01*
X2164498Y1188194D02*
X2160433D01*
Y1185145D01*
X2162465Y1186162D01*
X2163482D01*
X2164498Y1185145D01*
Y1183113D01*
X2163482Y1182096D01*
X2161449D01*
X2160433Y1183113D01*
X2166531Y1185145D02*
X2170596D01*
X2172629Y1182096D02*
X2174661D01*
X2173645D01*
Y1188194D01*
X2172629Y1187178D01*
X2177710Y1188194D02*
X2181776D01*
Y1187178D01*
X2177710Y1183113D01*
Y1182096D01*
D18*
X-301915Y-710874D02*
X2390485D01*
X-301915D02*
Y1346526D01*
X-352655Y-761004D02*
Y1397996D01*
X-352715Y857576D02*
X-301915D01*
X-352715Y317826D02*
X-301915D01*
X-352715Y-221924D02*
X-301915D01*
X345785Y-761674D02*
Y-710874D01*
X1044285Y-761674D02*
Y-710874D01*
X1742785Y-761674D02*
Y-710874D01*
X-301915Y1346526D02*
X2390485D01*
X345785D02*
Y1397326D01*
X1044285Y1346526D02*
Y1397326D01*
X1742785Y1346526D02*
Y1397326D01*
X-352655Y1397996D02*
X2441345D01*
Y-761004D02*
Y1397996D01*
X2390485Y-710874D02*
Y1346526D01*
Y857576D02*
X2441285D01*
X2390485Y317826D02*
X2441285D01*
X2390485Y-221924D02*
X2441285D01*
X-352655Y-761004D02*
X2441345D01*
X1516785Y1131296D02*
Y1347196D01*
Y1131296D02*
X2390545D01*
X1516785Y1169396D02*
X2390485D01*
X1516785Y1245596D02*
X2390545D01*
X1516785Y1207496D02*
X2390485D01*
X1516785Y1288776D02*
X2390485D01*
X1608225Y1131296D02*
Y1288776D01*
X2103525Y1131296D02*
Y1288776D01*
X2273705Y1131296D02*
Y1288776D01*
X1628485Y-558474D02*
Y-521898D01*
X1247485D02*
X1628485D01*
X818285D02*
X1247485D01*
X1628485Y-710874D02*
Y-558474D01*
X2161885Y-710874D02*
Y-581080D01*
X1247485Y-710874D02*
Y-521898D01*
X2390485Y-710874D02*
Y-521898D01*
X1628485D02*
X2390485D01*
X1247485Y-580318D02*
X2390485D01*
X1247485Y-643564D02*
X2390485D01*
X1247485Y-710874D02*
X2390485D01*
X818285D02*
Y-521898D01*
Y-710874D02*
X1247485D01*
D19*
X2091259Y-148489D02*
X2324939D01*
X2091259D02*
Y-124359D01*
X2324939Y-148489D02*
Y-124359D01*
X2091259D02*
X2324939D01*
D24*
X2115389Y-136424D02*
D03*
D25*
X2103959Y212445D02*
X2299539D01*
X2350339Y-496844D02*
Y249916D01*
X2063319D02*
X2350339D01*
X2063319Y-496844D02*
Y249916D01*
Y-496844D02*
X2350339D01*
D27*
X591979Y375412D02*
D03*
X611029D02*
D03*
D28*
X431465Y755692D02*
D03*
X448464Y777692D02*
D03*
D32*
X561945Y1032594D02*
D03*
X660428Y1035334D02*
D03*
X668428Y1049834D02*
D03*
X342118Y1158800D02*
D03*
X334119Y1144300D02*
D03*
D33*
X355310Y1232370D02*
D03*
Y1261870D02*
D03*
X587310Y1261870D02*
D03*
Y1232370D02*
D03*
D35*
X911423Y340000D02*
D03*
X912926Y1125256D02*
D03*
D36*
X39558Y566506D02*
D03*
Y646506D02*
D03*
X39562Y774230D02*
D03*
Y890266D02*
D03*
X861395Y480025D02*
D03*
Y400025D02*
D03*
D38*
X864900Y39402D02*
D03*
Y94402D02*
D03*
X839900Y39402D02*
D03*
Y94402D02*
D03*
D39*
X437118Y362512D02*
D03*
D40*
X564725Y314690D02*
D03*
X356805D02*
D03*
D41*
X777320Y131152D02*
D03*
D43*
X67632Y380512D02*
D03*
D44*
X480728Y456844D02*
D03*
X502728Y466344D02*
D03*
D45*
X124232Y706006D02*
D03*
Y718707D02*
D03*
Y731406D02*
D03*
Y744107D02*
D03*
D46*
X172430Y199858D02*
D03*
D47*
X177430Y210858D02*
D03*
X172430D02*
D03*
Y188859D02*
D03*
X177430D02*
D03*
D52*
X761357Y859180D02*
D03*
Y894740D02*
D03*
Y823620D02*
D03*
D53*
X872739Y515141D02*
D03*
X844739D02*
D03*
D54*
X575160Y606298D02*
D03*
X588160D02*
D03*
X286880Y934888D02*
D03*
X288150Y1030819D02*
D03*
X91808Y402250D02*
D03*
X91164Y416022D02*
D03*
X749642Y139155D02*
D03*
X811090Y212004D02*
D03*
X824090D02*
D03*
X915784Y520641D02*
D03*
X902784D02*
D03*
D55*
X532420Y857052D02*
D03*
X523784D02*
D03*
Y865308D02*
D03*
X479334Y753802D02*
D03*
X406044Y742310D02*
D03*
X506004Y817302D02*
D03*
X487074Y933934D02*
D03*
X433614Y802062D02*
D03*
Y909122D02*
D03*
X424724Y883342D02*
D03*
X564424Y897184D02*
D03*
X313420Y430340D02*
D03*
X179288Y168380D02*
D03*
Y176380D02*
D03*
X342945Y117412D02*
D03*
X226314Y95741D02*
D03*
X226116Y80373D02*
D03*
X241284Y147892D02*
D03*
X336843Y430508D02*
D03*
X383250Y519511D02*
D03*
X170672Y242252D02*
D03*
X529020Y683070D02*
D03*
X65070Y478128D02*
D03*
X323801Y430508D02*
D03*
X650224Y381572D02*
D03*
X605028Y591502D02*
D03*
X599912Y115548D02*
D03*
X636477Y986423D02*
D03*
X640565Y1052883D02*
D03*
X322798Y1181823D02*
D03*
X880328Y945503D02*
D03*
X869152D02*
D03*
X856960D02*
D03*
X843498D02*
D03*
X800469Y293480D02*
D03*
X561070Y406844D02*
D03*
X511032Y568134D02*
D03*
X656066Y589724D02*
D03*
X779973Y547859D02*
D03*
X779256Y431990D02*
D03*
X553450Y377508D02*
D03*
X598812Y99504D02*
D03*
X588769D02*
D03*
X780906Y529857D02*
D03*
X627081Y623760D02*
D03*
X602452Y961368D02*
D03*
X643112Y1025144D02*
D03*
X330418Y1199746D02*
D03*
X544794Y1049506D02*
D03*
X385302Y360621D02*
D03*
X608129Y321882D02*
D03*
X824702Y505946D02*
D03*
X140192Y299454D02*
D03*
D56*
X572656Y459774D02*
D03*
Y454774D02*
D03*
X728156Y424774D02*
D03*
Y429774D02*
D03*
D57*
X625406Y407024D02*
D03*
X645406D02*
D03*
X690406D02*
D03*
X695406D02*
D03*
X705406D02*
D03*
X710406D02*
D03*
X595406Y562524D02*
D03*
D58*
X650406Y484774D02*
D03*
D59*
X437074Y883092D02*
D03*
X552074Y858092D02*
D03*
D60*
X462075Y913092D02*
D03*
X457074Y798092D02*
D03*
X477074D02*
D03*
X522074Y913092D02*
D03*
X502075Y798092D02*
D03*
X507074D02*
D03*
X527074D02*
D03*
D61*
X355524Y476900D02*
D03*
D63*
X338024Y453050D02*
D03*
D64*
X777632Y221910D02*
D03*
X772632D02*
D03*
X787632D02*
D03*
X782632Y193910D02*
D03*
X787632D02*
D03*
X777632D02*
D03*
X772632D02*
D03*
D65*
X794132Y210410D02*
D03*
Y215410D02*
D03*
Y205410D02*
D03*
D66*
X780132Y207910D02*
D03*
D67*
X475599Y855592D02*
D03*
X512909D02*
D03*
Y845592D02*
D03*
Y850592D02*
D03*
X475599D02*
D03*
X512909Y865592D02*
D03*
Y860592D02*
D03*
X475599Y845592D02*
D03*
Y860592D02*
D03*
D68*
X504254Y836937D02*
D03*
X484254Y874247D02*
D03*
X504254D02*
D03*
X499254Y836937D02*
D03*
X494254D02*
D03*
X499254Y874247D02*
D03*
X489254D02*
D03*
X484254Y836937D02*
D03*
X494254Y874247D02*
D03*
X489254Y836937D02*
D03*
D69*
X475599Y865592D02*
D03*
D70*
X867029Y636100D02*
D03*
D73*
X427312Y1115622D02*
D03*
X515312D02*
D03*
X515312Y1236122D02*
D03*
X427312Y1236122D02*
D03*
X460312Y1181122D02*
D03*
X471312Y1104122D02*
D03*
Y1093122D02*
D03*
X460312Y1159122D02*
D03*
Y1137122D02*
D03*
X471312Y1115122D02*
D03*
X460312Y1148122D02*
D03*
X482312Y1181122D02*
D03*
Y1159122D02*
D03*
Y1137122D02*
D03*
Y1148122D02*
D03*
X526312Y1236122D02*
D03*
X537312D02*
D03*
X405312D02*
D03*
X416312Y1236122D02*
D03*
X460312Y1236122D02*
D03*
Y1247122D02*
D03*
X438312Y1236122D02*
D03*
Y1247122D02*
D03*
X449312Y1236122D02*
D03*
Y1247122D02*
D03*
X471312Y1236122D02*
D03*
Y1247122D02*
D03*
X482312Y1236122D02*
D03*
Y1247122D02*
D03*
X493312Y1236122D02*
D03*
Y1247122D02*
D03*
X504312Y1236122D02*
D03*
Y1247122D02*
D03*
X416312D02*
D03*
X526312D02*
D03*
X460312Y1203122D02*
D03*
Y1192122D02*
D03*
X482312Y1203122D02*
D03*
Y1192122D02*
D03*
X405312Y1288122D02*
D03*
Y1277122D02*
D03*
X416312Y1288122D02*
D03*
X526312D02*
D03*
X537312Y1288122D02*
D03*
Y1277122D02*
D03*
X460312Y1225122D02*
D03*
X438312D02*
D03*
X449312D02*
D03*
X471312D02*
D03*
X482312D02*
D03*
X493312D02*
D03*
X504312D02*
D03*
X755050Y405009D02*
D03*
X745550D02*
D03*
X769274Y491490D02*
D03*
X745550Y414782D02*
D03*
X755050D02*
D03*
D75*
X460312Y1170122D02*
D03*
X482312D02*
D03*
X346166Y429758D02*
D03*
X533263Y507416D02*
D03*
X665718Y375488D02*
D03*
X589280Y594525D02*
D03*
X671286Y598574D02*
D03*
X743676Y556860D02*
D03*
X756396Y505282D02*
D03*
X686038Y377012D02*
D03*
X621284Y598094D02*
D03*
X545576Y438836D02*
D03*
X541492Y465064D02*
D03*
X543036Y507416D02*
D03*
X673915Y380250D02*
D03*
X524748Y470586D02*
D03*
X514975D02*
D03*
D76*
X706675Y362113D02*
D03*
X725344D02*
D03*
D77*
X736190Y235284D02*
D03*
Y211584D02*
D03*
D78*
X818352Y181142D02*
D03*
Y165142D02*
D03*
D79*
X889511Y520256D02*
D03*
Y507256D02*
D03*
X158988Y247038D02*
D03*
Y234038D02*
D03*
X167265Y155806D02*
D03*
X715954Y146200D02*
D03*
X729726Y137056D02*
D03*
X477250Y594121D02*
D03*
X509483Y418442D02*
D03*
D80*
X329422Y113158D02*
D03*
X761757Y606142D02*
D03*
X231632Y189459D02*
D03*
X612960Y105940D02*
D03*
D82*
X312638Y977542D02*
D03*
X287238Y1010542D02*
D03*
X287353Y914276D02*
D03*
X312753Y881276D02*
D03*
D83*
X849360Y754438D02*
D03*
X862060D02*
D03*
X887460D02*
D03*
D84*
X607024Y183712D02*
D03*
X328227Y220326D02*
D03*
D85*
X81986Y116586D02*
D03*
Y70586D02*
D03*
D86*
X901595Y559063D02*
D03*
X892095D02*
D03*
X901595Y532263D02*
D03*
X892095D02*
D03*
D87*
Y545663D02*
D03*
D88*
X390954Y761274D02*
D03*
D89*
X398454Y775774D02*
D03*
D90*
X643512Y81122D02*
D03*
X698512D02*
D03*
X317206D02*
D03*
X262206D02*
D03*
X131758D02*
D03*
X186758D02*
D03*
D91*
X696012Y65122D02*
D03*
X641012D02*
D03*
X259706D02*
D03*
X314706D02*
D03*
X184258D02*
D03*
X129258D02*
D03*
D92*
X777966Y269692D02*
D03*
Y241692D02*
D03*
D93*
X574445Y623920D02*
D03*
X590444D02*
D03*
X543672Y606044D02*
D03*
X559672D02*
D03*
D94*
X818606Y128869D02*
D03*
Y146869D02*
D03*
D95*
X396297Y539876D02*
D03*
X747130Y372658D02*
D03*
Y388658D02*
D03*
D96*
X733608Y167132D02*
D03*
X436735Y740530D02*
D03*
X502823Y1022088D02*
D03*
X473051Y1021032D02*
D03*
X400740Y1015332D02*
D03*
X414600Y1015332D02*
D03*
X61078Y497383D02*
D03*
X812074Y199183D02*
D03*
X821074D02*
D03*
X438824Y400993D02*
D03*
X468297D02*
D03*
D98*
X548220Y54956D02*
D03*
X369820D02*
D03*
D100*
X521434Y784726D02*
D03*
X521074Y925442D02*
D03*
X504924Y776090D02*
D03*
Y784726D02*
D03*
X477746Y784472D02*
D03*
Y775836D02*
D03*
X475080Y884802D02*
D03*
X412088Y858132D02*
D03*
X577314Y833092D02*
D03*
X771073Y877110D02*
D03*
Y841296D02*
D03*
Y806072D02*
D03*
X363359Y403729D02*
D03*
X392187D02*
D03*
X388493Y749622D02*
D03*
X69832Y518450D02*
D03*
X30888Y906173D02*
D03*
X299748Y453274D02*
D03*
X606616Y354584D02*
D03*
X597852Y354838D02*
D03*
X514778Y608584D02*
D03*
X490268Y443992D02*
D03*
X590196Y1055792D02*
D03*
X30888Y668051D02*
D03*
X403252Y465242D02*
D03*
X440771Y500725D02*
D03*
Y475987D02*
D03*
X260906Y508508D02*
D03*
X283238Y498008D02*
D03*
X440771Y525463D02*
D03*
X283238Y486578D02*
D03*
Y475402D02*
D03*
X440771Y513094D02*
D03*
X283492Y519090D02*
D03*
X787567Y463179D02*
D03*
X775128Y453136D02*
D03*
X794432Y503682D02*
D03*
X528856Y551094D02*
D03*
X521256Y431256D02*
D03*
X528856Y538983D02*
D03*
X681395Y364236D02*
D03*
X766492Y442351D02*
D03*
X872772Y572821D02*
D03*
X843050Y559476D02*
D03*
Y549433D02*
D03*
X163000Y718700D02*
D03*
Y706010D02*
D03*
Y731410D02*
D03*
Y744110D02*
D03*
D101*
X417612Y763462D02*
D03*
X500110Y302629D02*
D03*
X435086D02*
D03*
D104*
X738429Y90000D02*
D03*
D105*
X548428Y716026D02*
D03*
Y728726D02*
D03*
D106*
X463070Y1078537D02*
D03*
X468570D02*
D03*
D107*
X556098Y582082D02*
D03*
X572098D02*
D03*
X730608Y384979D02*
D03*
D108*
X909564Y107072D02*
D03*
Y135072D02*
D03*
X49463Y109026D02*
D03*
Y81026D02*
D03*
D109*
X733154Y339248D02*
D03*
X453807Y1048503D02*
D03*
X469807D02*
D03*
X453807Y1065276D02*
D03*
X469807D02*
D03*
D110*
X763458Y162927D02*
D03*
X791458D02*
D03*
D111*
X620359Y985846D02*
D03*
X605859Y993846D02*
D03*
D115*
X20920Y1244294D02*
G03*
X20920Y1244294I-3750J0D01*
G01*
X924822D02*
G03*
X924822Y1244294I-3750J0D01*
G01*
X20920Y58294D02*
G03*
X20920Y58294I-3750J0D01*
G01*
D116*
X659675Y715648D02*
G03*
X659675Y715648I-2794J0D01*
G01*
X668484D02*
G03*
X668484Y715648I-2794J0D01*
G01*
Y791848D02*
G03*
X668484Y791848I-2794J0D01*
G01*
X659675D02*
G03*
X659675Y791848I-2794J0D01*
G01*
Y741048D02*
G03*
X659675Y741048I-2794J0D01*
G01*
X668484D02*
G03*
X668484Y741048I-2794J0D01*
G01*
X659675Y766448D02*
G03*
X659675Y766448I-2794J0D01*
G01*
X668484D02*
G03*
X668484Y766448I-2794J0D01*
G01*
Y817248D02*
G03*
X668484Y817248I-2794J0D01*
G01*
X659675D02*
G03*
X659675Y817248I-2794J0D01*
G01*
X261635Y956732D02*
G03*
X261635Y956732I-2794J0D01*
G01*
X264175Y1050885D02*
G03*
X264175Y1050885I-2794J0D01*
G01*
X264734Y1031386D02*
G03*
X264734Y1031386I-2794J0D01*
G01*
X264175D02*
G03*
X264175Y1031386I-2794J0D01*
G01*
X261127Y934320D02*
G03*
X261127Y934320I-2794J0D01*
G01*
X261686D02*
G03*
X261686Y934320I-2794J0D01*
G01*
D117*
X431465Y777692D02*
D03*
X448464Y755692D02*
D03*
D118*
X394162Y1033239D02*
D03*
X420162D02*
D03*
D119*
X561454Y1041844D02*
D03*
X659936Y1044584D02*
D03*
X333627Y1153550D02*
D03*
D120*
X560946Y1037844D02*
D03*
X570946Y1041844D02*
D03*
Y1037844D02*
D03*
X659428Y1040584D02*
D03*
X669428Y1044584D02*
D03*
Y1040584D02*
D03*
X343119Y1149550D02*
D03*
Y1153550D02*
D03*
X333119Y1149550D02*
D03*
D121*
X565946Y1032594D02*
D03*
X569945D02*
D03*
Y1047094D02*
D03*
X565946D02*
D03*
X561945D02*
D03*
X664428Y1035334D02*
D03*
X668428D02*
D03*
X664428Y1049834D02*
D03*
X660428D02*
D03*
X334119Y1158800D02*
D03*
X338119D02*
D03*
X342118Y1144300D02*
D03*
X338119D02*
D03*
D122*
X370310Y1247120D02*
D03*
X572310Y1247120D02*
D03*
D123*
X84558Y646506D02*
D03*
X39562Y694230D02*
D03*
X84562Y774230D02*
D03*
X39562Y810266D02*
D03*
X84562Y890266D02*
D03*
X906396Y480025D02*
D03*
D124*
X84558Y566506D02*
D03*
X84562Y694230D02*
D03*
Y810266D02*
D03*
X906396Y400025D02*
D03*
D125*
X814900Y94402D02*
D03*
Y39402D02*
D03*
D126*
X427618Y337512D02*
D03*
X446618D02*
D03*
X437118D02*
D03*
X446618Y362512D02*
D03*
X427618D02*
D03*
D127*
X588726Y333690D02*
D03*
Y314690D02*
D03*
X564725Y324189D02*
D03*
Y333690D02*
D03*
X380806D02*
D03*
Y314690D02*
D03*
X356805Y324189D02*
D03*
Y333690D02*
D03*
D128*
X790820Y126152D02*
D03*
X777320Y121152D02*
D03*
Y126152D02*
D03*
X790820Y131152D02*
D03*
Y121152D02*
D03*
D129*
X209962Y138792D02*
D03*
Y152292D02*
D03*
X199962D02*
D03*
X204962Y138792D02*
D03*
X199962D02*
D03*
X676306Y98152D02*
D03*
X666306D02*
D03*
Y111652D02*
D03*
X671306D02*
D03*
X676306D02*
D03*
X163226Y107042D02*
D03*
X153226D02*
D03*
Y120542D02*
D03*
X158226D02*
D03*
X163226D02*
D03*
D130*
X80632Y380512D02*
D03*
X74132Y362012D02*
D03*
D131*
X480728Y475844D02*
D03*
D132*
X200432Y706006D02*
D03*
Y718707D02*
D03*
Y731406D02*
D03*
Y744107D02*
D03*
D133*
X167430Y188859D02*
D03*
Y210858D02*
D03*
D134*
X71206Y894715D02*
D03*
X62806D02*
D03*
X72222Y778680D02*
D03*
X63822D02*
D03*
D135*
X115824Y105274D02*
D03*
Y113674D02*
D03*
D136*
X843772Y414648D02*
D03*
Y429648D02*
D03*
X140446Y274446D02*
D03*
Y258446D02*
D03*
X812276Y306958D02*
D03*
Y290958D02*
D03*
X809954Y414648D02*
D03*
Y429648D02*
D03*
X821227D02*
D03*
Y414648D02*
D03*
X798682D02*
D03*
Y429648D02*
D03*
X832499D02*
D03*
Y414648D02*
D03*
X812895Y513376D02*
D03*
Y529376D02*
D03*
D137*
X293842Y673960D02*
D03*
X264542D02*
D03*
X293842Y699360D02*
D03*
X264542D02*
D03*
X293842Y724760D02*
D03*
X264542D02*
D03*
X293842Y750160D02*
D03*
X264542D02*
D03*
X293842Y775559D02*
D03*
X264542D02*
D03*
X293842Y800959D02*
D03*
X264542D02*
D03*
X293842Y826359D02*
D03*
X264542D02*
D03*
X293842Y851759D02*
D03*
X264542D02*
D03*
D138*
X779857Y859180D02*
D03*
Y865680D02*
D03*
Y852680D02*
D03*
X761357Y865680D02*
D03*
Y852680D02*
D03*
Y888240D02*
D03*
Y901240D02*
D03*
X779857Y888240D02*
D03*
Y901240D02*
D03*
Y894740D02*
D03*
Y823620D02*
D03*
Y830120D02*
D03*
Y817120D02*
D03*
X761357Y830120D02*
D03*
Y817120D02*
D03*
D139*
X53035Y401828D02*
D03*
X66035D02*
D03*
X518854Y761612D02*
D03*
X505854D02*
D03*
X273880Y934888D02*
D03*
X275150Y1030819D02*
D03*
X628338Y930140D02*
D03*
X615338D02*
D03*
X628338Y902313D02*
D03*
X615338D02*
D03*
X628338Y888540D02*
D03*
X615338D02*
D03*
X628338Y916226D02*
D03*
X615338D02*
D03*
X628338Y770362D02*
D03*
X615338D02*
D03*
X628338Y783707D02*
D03*
X615338D02*
D03*
X628338Y797052D02*
D03*
X615338D02*
D03*
X628338Y810396D02*
D03*
X615338D02*
D03*
Y823740D02*
D03*
X628338D02*
D03*
Y837085D02*
D03*
X615338D02*
D03*
X628338Y860996D02*
D03*
X615338D02*
D03*
X628338Y874768D02*
D03*
X615338D02*
D03*
X757154Y1237480D02*
D03*
X770154D02*
D03*
Y1262880D02*
D03*
X757154D02*
D03*
X394306Y951882D02*
D03*
X381306D02*
D03*
X394306Y934102D02*
D03*
X381306D02*
D03*
X394306Y916322D02*
D03*
X381306D02*
D03*
X394306Y898542D02*
D03*
X381306D02*
D03*
X394306Y880762D02*
D03*
X381306D02*
D03*
X394306Y862982D02*
D03*
X381306D02*
D03*
X394306Y845202D02*
D03*
X381306D02*
D03*
X394306Y827422D02*
D03*
X381306D02*
D03*
X167254Y1237480D02*
D03*
X180254D02*
D03*
Y1262880D02*
D03*
X167254D02*
D03*
X65392Y415966D02*
D03*
X52392D02*
D03*
X78808Y402250D02*
D03*
X78165Y416022D02*
D03*
X762642Y139155D02*
D03*
X434174Y414260D02*
D03*
X447174D02*
D03*
X472947Y413766D02*
D03*
X459947D02*
D03*
X397091Y415276D02*
D03*
X384091D02*
D03*
X358319D02*
D03*
X371319D02*
D03*
X744334Y190375D02*
D03*
X731334D02*
D03*
D140*
X380928Y787014D02*
D03*
Y794859D02*
D03*
X237816Y1155608D02*
D03*
Y1163608D02*
D03*
X532420Y849052D02*
D03*
X523784D02*
D03*
Y873308D02*
D03*
Y889564D02*
D03*
Y881564D02*
D03*
X479334Y761802D02*
D03*
X406044Y750310D02*
D03*
X506004Y825302D02*
D03*
X487074Y925934D02*
D03*
X433614Y810062D02*
D03*
Y901122D02*
D03*
X424724Y891342D02*
D03*
X564424Y889184D02*
D03*
X493812Y742244D02*
D03*
Y734244D02*
D03*
X485430Y742244D02*
D03*
Y734244D02*
D03*
X313420Y438340D02*
D03*
X342945Y125412D02*
D03*
X226314Y103741D02*
D03*
X226116Y72373D02*
D03*
X241284Y155892D02*
D03*
X549638Y785820D02*
D03*
Y777820D02*
D03*
X539480Y777820D02*
D03*
Y785820D02*
D03*
X523986Y733108D02*
D03*
Y741108D02*
D03*
X482830Y1039804D02*
D03*
Y1031804D02*
D03*
X491974Y1039804D02*
D03*
Y1031804D02*
D03*
X47736Y438340D02*
D03*
Y430340D02*
D03*
X336843Y438508D02*
D03*
X383250Y511511D02*
D03*
X170672Y234252D02*
D03*
X529020Y691070D02*
D03*
X65070Y486128D02*
D03*
X51354Y486338D02*
D03*
Y478338D02*
D03*
X323801Y438508D02*
D03*
X650224Y389572D02*
D03*
X605028Y583502D02*
D03*
X599912Y123548D02*
D03*
X636477Y994423D02*
D03*
X640565Y1060882D02*
D03*
X322798Y1173822D02*
D03*
X880328Y953503D02*
D03*
X869152D02*
D03*
X856960D02*
D03*
X843498D02*
D03*
X575548Y674306D02*
D03*
Y666306D02*
D03*
X800469Y301480D02*
D03*
X352353Y559135D02*
D03*
Y567135D02*
D03*
X390442D02*
D03*
Y559135D02*
D03*
X403139Y567135D02*
D03*
Y559135D02*
D03*
X377709Y540998D02*
D03*
Y548998D02*
D03*
X365771Y540998D02*
D03*
Y548998D02*
D03*
X400569Y314134D02*
D03*
Y306134D02*
D03*
X346420Y526138D02*
D03*
Y518138D02*
D03*
X544962Y314388D02*
D03*
Y306388D02*
D03*
X357596Y531218D02*
D03*
Y523218D02*
D03*
X511794Y490538D02*
D03*
Y498538D02*
D03*
X515096Y588328D02*
D03*
Y596328D02*
D03*
X495284Y559436D02*
D03*
Y567436D02*
D03*
X564880Y385508D02*
D03*
Y377508D02*
D03*
X571113Y398844D02*
D03*
Y406844D02*
D03*
X561070Y398844D02*
D03*
X511032Y560134D02*
D03*
X496300Y498538D02*
D03*
Y490538D02*
D03*
X656066Y581724D02*
D03*
X779973Y539859D02*
D03*
X779256Y423990D02*
D03*
X553450Y385508D02*
D03*
X810244Y396626D02*
D03*
Y404626D02*
D03*
X821674Y396626D02*
D03*
Y404626D02*
D03*
X799297Y396626D02*
D03*
Y404626D02*
D03*
X833104Y396626D02*
D03*
Y404626D02*
D03*
X598812Y91504D02*
D03*
X629005Y387286D02*
D03*
Y379286D02*
D03*
X588769Y91504D02*
D03*
X639048Y387286D02*
D03*
Y379286D02*
D03*
X843157Y396626D02*
D03*
Y404626D02*
D03*
X301568Y559135D02*
D03*
Y567135D02*
D03*
X520938Y715074D02*
D03*
Y723074D02*
D03*
X780906Y521857D02*
D03*
X791210D02*
D03*
Y529857D02*
D03*
X637124Y623760D02*
D03*
Y615760D02*
D03*
X627081D02*
D03*
X518978Y682747D02*
D03*
Y690748D02*
D03*
X602452Y969368D02*
D03*
X591296Y990664D02*
D03*
Y998664D02*
D03*
X643112Y1033144D02*
D03*
X330418Y1191746D02*
D03*
X319496Y1132182D02*
D03*
Y1124182D02*
D03*
X544794Y1057506D02*
D03*
X345404Y1189840D02*
D03*
Y1181840D02*
D03*
X360644Y1189840D02*
D03*
Y1181840D02*
D03*
X415835Y559135D02*
D03*
Y567135D02*
D03*
X428531Y559135D02*
D03*
Y567135D02*
D03*
X420144Y1065698D02*
D03*
Y1057698D02*
D03*
X326961Y559135D02*
D03*
Y567135D02*
D03*
X314264Y559135D02*
D03*
Y567135D02*
D03*
X441227Y559135D02*
D03*
Y567135D02*
D03*
X339657Y559135D02*
D03*
Y567135D02*
D03*
X377746Y559135D02*
D03*
Y567135D02*
D03*
X365050Y559135D02*
D03*
Y567135D02*
D03*
X394446Y1057700D02*
D03*
Y1065700D02*
D03*
X385302Y352621D02*
D03*
X608129Y329882D02*
D03*
X824702Y513946D02*
D03*
X600000Y674306D02*
D03*
Y666306D02*
D03*
X557768Y674306D02*
D03*
Y666306D02*
D03*
X140192Y291454D02*
D03*
X142986Y199072D02*
D03*
Y191072D02*
D03*
X125984Y675068D02*
D03*
Y667068D02*
D03*
X115570Y674814D02*
D03*
Y666814D02*
D03*
D141*
X572656Y544774D02*
D03*
Y539774D02*
D03*
Y534774D02*
D03*
Y529774D02*
D03*
Y524774D02*
D03*
Y519774D02*
D03*
Y514774D02*
D03*
Y509774D02*
D03*
Y504774D02*
D03*
Y499774D02*
D03*
Y494774D02*
D03*
Y489774D02*
D03*
Y484774D02*
D03*
Y479774D02*
D03*
Y474774D02*
D03*
Y469774D02*
D03*
Y464774D02*
D03*
Y449774D02*
D03*
Y444774D02*
D03*
Y439774D02*
D03*
Y434774D02*
D03*
Y429774D02*
D03*
Y424774D02*
D03*
X728156Y434774D02*
D03*
Y439774D02*
D03*
Y444774D02*
D03*
Y449774D02*
D03*
Y454774D02*
D03*
Y459774D02*
D03*
Y464774D02*
D03*
Y469774D02*
D03*
Y474774D02*
D03*
Y479774D02*
D03*
Y484774D02*
D03*
Y489774D02*
D03*
Y494774D02*
D03*
Y499774D02*
D03*
Y504774D02*
D03*
Y509774D02*
D03*
Y514774D02*
D03*
Y519774D02*
D03*
Y524774D02*
D03*
Y529774D02*
D03*
Y534774D02*
D03*
Y539774D02*
D03*
Y544774D02*
D03*
D142*
X590406Y407024D02*
D03*
X595406D02*
D03*
X600406D02*
D03*
X605406D02*
D03*
X610406D02*
D03*
X615406D02*
D03*
X620406D02*
D03*
X630406D02*
D03*
X640406D02*
D03*
X650406D02*
D03*
X655406D02*
D03*
X660406D02*
D03*
X665406D02*
D03*
X670406D02*
D03*
X675406D02*
D03*
X680406D02*
D03*
X685406D02*
D03*
X700406D02*
D03*
X710406Y562524D02*
D03*
X705406D02*
D03*
X700406D02*
D03*
X695406D02*
D03*
X690406D02*
D03*
X685406D02*
D03*
X680406D02*
D03*
X675406D02*
D03*
X670406D02*
D03*
X665406D02*
D03*
X660406D02*
D03*
X655406D02*
D03*
X650406D02*
D03*
X645406D02*
D03*
X640406D02*
D03*
X635406D02*
D03*
X630406D02*
D03*
X625406D02*
D03*
X620406D02*
D03*
X615406D02*
D03*
X610406D02*
D03*
X605406D02*
D03*
X600406D02*
D03*
X590406D02*
D03*
X635406Y407024D02*
D03*
D143*
X552074Y833092D02*
D03*
Y888092D02*
D03*
X437074D02*
D03*
Y858092D02*
D03*
Y828092D02*
D03*
Y823092D02*
D03*
Y833092D02*
D03*
Y893092D02*
D03*
Y818092D02*
D03*
X552074Y873092D02*
D03*
Y818092D02*
D03*
Y823092D02*
D03*
Y828092D02*
D03*
Y843092D02*
D03*
Y848092D02*
D03*
Y863092D02*
D03*
Y868092D02*
D03*
Y878092D02*
D03*
Y883092D02*
D03*
Y893092D02*
D03*
X437074Y878092D02*
D03*
Y873092D02*
D03*
Y868092D02*
D03*
Y863092D02*
D03*
Y853092D02*
D03*
Y848092D02*
D03*
Y843092D02*
D03*
Y838092D02*
D03*
X552074Y853092D02*
D03*
Y838092D02*
D03*
D144*
X487074Y913092D02*
D03*
X517074Y798092D02*
D03*
X472075D02*
D03*
X497074D02*
D03*
X512074D02*
D03*
Y913092D02*
D03*
X462075Y798092D02*
D03*
X467074D02*
D03*
X482075D02*
D03*
X522074D02*
D03*
X487074D02*
D03*
X492075D02*
D03*
X532074D02*
D03*
X507074Y913092D02*
D03*
X502075D02*
D03*
X497074D02*
D03*
X492075D02*
D03*
X482075D02*
D03*
X477074D02*
D03*
X457074D02*
D03*
X467074D02*
D03*
X472075D02*
D03*
X517074D02*
D03*
X527074D02*
D03*
X532074D02*
D03*
D145*
X331674Y459400D02*
D03*
Y464400D02*
D03*
Y469400D02*
D03*
Y474400D02*
D03*
Y479400D02*
D03*
Y484400D02*
D03*
Y489400D02*
D03*
Y494400D02*
D03*
X379374D02*
D03*
Y489400D02*
D03*
Y484400D02*
D03*
Y479400D02*
D03*
Y474400D02*
D03*
Y469400D02*
D03*
Y464400D02*
D03*
Y459400D02*
D03*
D146*
X338024Y500750D02*
D03*
X343024D02*
D03*
X348024D02*
D03*
X353024D02*
D03*
X358024D02*
D03*
X363024D02*
D03*
X368024D02*
D03*
X373024D02*
D03*
Y453050D02*
D03*
X368024D02*
D03*
X363024D02*
D03*
X358024D02*
D03*
X353024D02*
D03*
X348024D02*
D03*
X343024D02*
D03*
D147*
X782632Y221910D02*
D03*
D148*
X794132Y200410D02*
D03*
X766132Y205410D02*
D03*
Y200410D02*
D03*
Y210410D02*
D03*
Y215410D02*
D03*
D149*
X494254Y855592D02*
D03*
D150*
X867029Y691100D02*
D03*
Y680100D02*
D03*
Y669100D02*
D03*
Y647100D02*
D03*
Y625100D02*
D03*
Y614100D02*
D03*
Y658100D02*
D03*
D151*
X893029Y590300D02*
D03*
Y727800D02*
D03*
X810029D02*
D03*
Y590300D02*
D03*
D152*
X55251Y1054152D02*
D03*
Y1045652D02*
D03*
X69752D02*
D03*
Y1054152D02*
D03*
D153*
X515312Y1225122D02*
D03*
Y1214122D02*
D03*
X515312Y1203122D02*
D03*
X515312Y1192122D02*
D03*
Y1181122D02*
D03*
X515312Y1170122D02*
D03*
X515312Y1159122D02*
D03*
X515312Y1148122D02*
D03*
Y1137122D02*
D03*
X515312Y1126122D02*
D03*
X427312Y1225122D02*
D03*
Y1214122D02*
D03*
X427312Y1203122D02*
D03*
X427312Y1192122D02*
D03*
Y1181122D02*
D03*
X427312Y1170122D02*
D03*
X427312Y1159122D02*
D03*
X427312Y1148122D02*
D03*
Y1137122D02*
D03*
X427312Y1126122D02*
D03*
X405312Y1225122D02*
D03*
Y1203122D02*
D03*
X405312Y1192122D02*
D03*
Y1181122D02*
D03*
Y1170122D02*
D03*
Y1159122D02*
D03*
Y1148122D02*
D03*
Y1137122D02*
D03*
Y1126122D02*
D03*
Y1115122D02*
D03*
Y1104122D02*
D03*
Y1093122D02*
D03*
X416312Y1225122D02*
D03*
X416312Y1192122D02*
D03*
Y1181122D02*
D03*
Y1170122D02*
D03*
Y1159122D02*
D03*
Y1148122D02*
D03*
Y1137122D02*
D03*
Y1126122D02*
D03*
Y1115122D02*
D03*
X460312Y1104122D02*
D03*
Y1093122D02*
D03*
X427312Y1104122D02*
D03*
Y1093122D02*
D03*
X438312Y1104122D02*
D03*
Y1093122D02*
D03*
X449312Y1115122D02*
D03*
Y1104122D02*
D03*
Y1093122D02*
D03*
X460312Y1115122D02*
D03*
X482312Y1104122D02*
D03*
Y1093122D02*
D03*
X416312Y1214122D02*
D03*
X493312Y1104122D02*
D03*
Y1093122D02*
D03*
X482312Y1115122D02*
D03*
X504312Y1104122D02*
D03*
Y1093122D02*
D03*
X537312Y1214122D02*
D03*
X526312Y1203122D02*
D03*
X416312Y1104122D02*
D03*
Y1093122D02*
D03*
X493312Y1115122D02*
D03*
X438312Y1115122D02*
D03*
X504312Y1115122D02*
D03*
X515312Y1104122D02*
D03*
Y1093122D02*
D03*
X526312Y1225122D02*
D03*
X526312Y1192122D02*
D03*
Y1181122D02*
D03*
Y1170122D02*
D03*
Y1159122D02*
D03*
Y1148122D02*
D03*
Y1137122D02*
D03*
Y1126122D02*
D03*
Y1115122D02*
D03*
Y1104122D02*
D03*
Y1093122D02*
D03*
X537312Y1225122D02*
D03*
Y1203122D02*
D03*
Y1192122D02*
D03*
Y1181122D02*
D03*
Y1170122D02*
D03*
Y1159122D02*
D03*
Y1148122D02*
D03*
Y1137122D02*
D03*
Y1126122D02*
D03*
Y1115122D02*
D03*
Y1104122D02*
D03*
X405312Y1214122D02*
D03*
X526312D02*
D03*
X416312Y1203122D02*
D03*
X405312Y1247122D02*
D03*
X427312D02*
D03*
X515312D02*
D03*
X537312D02*
D03*
X759774Y491490D02*
D03*
D154*
X537312Y1093122D02*
D03*
X633762Y54122D02*
D03*
X252456D02*
D03*
X122008D02*
D03*
D155*
X468920Y752572D02*
D03*
Y765572D02*
D03*
X530134Y826232D02*
D03*
Y839232D02*
D03*
X524060Y948184D02*
D03*
Y961184D02*
D03*
X510288Y948184D02*
D03*
Y961184D02*
D03*
X496516Y948184D02*
D03*
Y961184D02*
D03*
X482743Y948184D02*
D03*
Y961184D02*
D03*
X468970Y948184D02*
D03*
Y961184D02*
D03*
X455198Y948184D02*
D03*
Y961184D02*
D03*
X167265Y168806D02*
D03*
X715954Y133200D02*
D03*
X729726Y124056D02*
D03*
X495792Y583392D02*
D03*
Y596392D02*
D03*
X477504Y568348D02*
D03*
Y555348D02*
D03*
X477250Y581120D02*
D03*
X495711Y418442D02*
D03*
Y431442D02*
D03*
X509483D02*
D03*
D156*
X329422Y129158D02*
D03*
X761757Y590142D02*
D03*
X231632Y205459D02*
D03*
X612960Y121939D02*
D03*
D157*
X332958Y417672D02*
D03*
Y408672D02*
D03*
D158*
X261838Y977542D02*
D03*
X261953Y881276D02*
D03*
D159*
X836660Y754438D02*
D03*
X874760D02*
D03*
X887460Y793438D02*
D03*
X874760D02*
D03*
X862060D02*
D03*
X849360D02*
D03*
X836660D02*
D03*
D160*
X607024Y139712D02*
D03*
X328227Y176326D02*
D03*
X230026Y230984D02*
D03*
Y274984D02*
D03*
D161*
X17170Y1244294D02*
D03*
X921072Y1244294D02*
D03*
X17170Y58294D02*
D03*
X801354Y482854D02*
D03*
X544360Y627802D02*
D03*
X731504Y588010D02*
D03*
X528304Y399288D02*
D03*
X482584Y515112D02*
D03*
X656828Y609346D02*
D03*
X261096Y543560D02*
D03*
X618490Y663194D02*
D03*
X542290Y653034D02*
D03*
Y673354D02*
D03*
X495284Y612394D02*
D03*
X505444Y536194D02*
D03*
X485124D02*
D03*
D162*
X882595Y559063D02*
D03*
Y532263D02*
D03*
D163*
X405954Y790274D02*
D03*
X400954D02*
D03*
X395954D02*
D03*
X390954D02*
D03*
X395954Y761274D02*
D03*
X400954D02*
D03*
X405954D02*
D03*
D164*
X648512Y81122D02*
D03*
X653512D02*
D03*
X658512D02*
D03*
X663512D02*
D03*
X668512D02*
D03*
X673512D02*
D03*
X678512D02*
D03*
X683512D02*
D03*
X688512D02*
D03*
X693512D02*
D03*
X312206D02*
D03*
X307206D02*
D03*
X302206D02*
D03*
X297206D02*
D03*
X292206D02*
D03*
X287206D02*
D03*
X282206D02*
D03*
X277206D02*
D03*
X272206D02*
D03*
X267206D02*
D03*
X136758D02*
D03*
X141758D02*
D03*
X146758D02*
D03*
X151758D02*
D03*
X156758D02*
D03*
X161758D02*
D03*
X166758D02*
D03*
X171758D02*
D03*
X176758D02*
D03*
X181758D02*
D03*
D165*
X691012Y65122D02*
D03*
X686012D02*
D03*
X681012D02*
D03*
X676012D02*
D03*
X671012D02*
D03*
X666012D02*
D03*
X661012D02*
D03*
X656012D02*
D03*
X651012D02*
D03*
X646012D02*
D03*
X264706D02*
D03*
X269706D02*
D03*
X274706D02*
D03*
X279706D02*
D03*
X284706D02*
D03*
X289706D02*
D03*
X294706D02*
D03*
X299706D02*
D03*
X304706D02*
D03*
X309706D02*
D03*
X179258D02*
D03*
X174258D02*
D03*
X169258D02*
D03*
X164258D02*
D03*
X149258D02*
D03*
X144258D02*
D03*
X139258D02*
D03*
X134258D02*
D03*
X159258D02*
D03*
X154258D02*
D03*
D166*
X396297Y523876D02*
D03*
D167*
X346166Y439258D02*
D03*
X533263Y497916D02*
D03*
X665718Y384988D02*
D03*
X589280Y585025D02*
D03*
X671286Y589074D02*
D03*
X743676Y547360D02*
D03*
X756396Y514782D02*
D03*
X686038Y386512D02*
D03*
X621284Y588594D02*
D03*
X545576Y429336D02*
D03*
X541492Y474564D02*
D03*
X543036Y497916D02*
D03*
X673915Y389750D02*
D03*
X524748Y461086D02*
D03*
X514975D02*
D03*
D168*
X742608Y167132D02*
D03*
X445734Y740530D02*
D03*
X493824Y1022088D02*
D03*
X482051Y1021032D02*
D03*
X391740Y1015332D02*
D03*
X423600Y1015332D02*
D03*
X70078Y497383D02*
D03*
X447824Y400993D02*
D03*
X459296D02*
D03*
D169*
X433520Y261856D02*
D03*
X423320D02*
D03*
X453920D02*
D03*
X484520D02*
D03*
X464120D02*
D03*
X443720D02*
D03*
X494720D02*
D03*
X474320D02*
D03*
D170*
X392920D02*
D03*
X411320D02*
D03*
X506720D02*
D03*
X525120D02*
D03*
D171*
X653782Y715648D02*
D03*
X661282D02*
D03*
X668788D02*
D03*
Y791848D02*
D03*
X661282D02*
D03*
X653782D02*
D03*
Y741048D02*
D03*
X661282D02*
D03*
X668788D02*
D03*
X653782Y766448D02*
D03*
X661282D02*
D03*
X668788D02*
D03*
X661282Y817248D02*
D03*
X668788D02*
D03*
X653782D02*
D03*
X255742Y956732D02*
D03*
X261990D02*
D03*
X258282Y1050885D02*
D03*
X264530D02*
D03*
X265038Y1031386D02*
D03*
X258282D02*
D03*
X255234Y934320D02*
D03*
X261990D02*
D03*
D172*
X521308Y776090D02*
D03*
X529308D02*
D03*
X513434Y784726D02*
D03*
X513074Y925442D02*
D03*
X496924Y776090D02*
D03*
Y784726D02*
D03*
X469746Y784472D02*
D03*
Y775836D02*
D03*
X406754Y804792D02*
D03*
X414754D02*
D03*
X396497Y739281D02*
D03*
X388497D02*
D03*
X483080Y884802D02*
D03*
X409674Y813682D02*
D03*
X401674D02*
D03*
X420088Y858132D02*
D03*
X396720Y804792D02*
D03*
X388720D02*
D03*
X569314Y833092D02*
D03*
X228000Y718700D02*
D03*
X220000D02*
D03*
X846064Y888240D02*
D03*
X838064D02*
D03*
X846064Y901240D02*
D03*
X838064D02*
D03*
X846064Y852680D02*
D03*
X838064D02*
D03*
X846064Y865680D02*
D03*
X838064D02*
D03*
X846064Y817120D02*
D03*
X838064D02*
D03*
X846064Y830120D02*
D03*
X838064D02*
D03*
X94185Y1049648D02*
D03*
X86185D02*
D03*
X94185Y1039488D02*
D03*
X86185D02*
D03*
Y1059808D02*
D03*
X94185D02*
D03*
X521155Y703072D02*
D03*
X529155D02*
D03*
X228000Y706010D02*
D03*
X220000D02*
D03*
X228000Y731410D02*
D03*
X220000D02*
D03*
X228000Y744110D02*
D03*
X220000D02*
D03*
X48542Y362372D02*
D03*
X56542D02*
D03*
X779073Y877110D02*
D03*
Y841296D02*
D03*
Y806072D02*
D03*
X371359Y403729D02*
D03*
X384187D02*
D03*
X396493Y749622D02*
D03*
X620616Y741172D02*
D03*
X612616D02*
D03*
Y728536D02*
D03*
X620616D02*
D03*
X69832Y508290D02*
D03*
X61832D02*
D03*
Y518450D02*
D03*
X22888Y906173D02*
D03*
Y678094D02*
D03*
X30888D02*
D03*
X307748Y453274D02*
D03*
X614616Y354584D02*
D03*
X589852Y354838D02*
D03*
X506778Y608584D02*
D03*
X498268Y443992D02*
D03*
X582196Y1055792D02*
D03*
X742616Y178467D02*
D03*
X734616D02*
D03*
X612616Y690626D02*
D03*
X620616D02*
D03*
X541830Y759829D02*
D03*
X549830D02*
D03*
X572436Y796798D02*
D03*
X564436D02*
D03*
Y786677D02*
D03*
X572436D02*
D03*
X855754Y119802D02*
D03*
X863754D02*
D03*
X22888Y916216D02*
D03*
X30888D02*
D03*
X22888Y668051D02*
D03*
X584756Y291553D02*
D03*
X592756D02*
D03*
X353234Y292764D02*
D03*
X345234D02*
D03*
X332660Y399034D02*
D03*
X324660D02*
D03*
X432771Y451249D02*
D03*
X440771D02*
D03*
X432771Y463618D02*
D03*
X440771D02*
D03*
X269414Y528574D02*
D03*
X261414D02*
D03*
X329177Y323596D02*
D03*
X337177D02*
D03*
X395252Y465242D02*
D03*
X307240Y462956D02*
D03*
X299240D02*
D03*
X537097Y325374D02*
D03*
X545097D02*
D03*
X432771Y500725D02*
D03*
Y475987D02*
D03*
Y488356D02*
D03*
X440771D02*
D03*
X268906Y508508D02*
D03*
X291238Y498008D02*
D03*
X432771Y525463D02*
D03*
X291238Y508930D02*
D03*
X283238D02*
D03*
X268906Y498465D02*
D03*
X260906D02*
D03*
X291238Y486578D02*
D03*
Y475402D02*
D03*
X432771Y513094D02*
D03*
X291492Y519090D02*
D03*
X779566Y463179D02*
D03*
X767128Y453136D02*
D03*
X786432Y503682D02*
D03*
X536856Y551094D02*
D03*
X529256Y431256D02*
D03*
X536856Y538983D02*
D03*
X655622Y364374D02*
D03*
X663622D02*
D03*
X673395Y364236D02*
D03*
X758492Y432308D02*
D03*
X766492D02*
D03*
X758492Y442351D02*
D03*
X689253Y1059094D02*
D03*
X681254D02*
D03*
X552986Y1067476D02*
D03*
X560986D02*
D03*
X386377Y1065698D02*
D03*
X394377D02*
D03*
X420144D02*
D03*
X428144D02*
D03*
X755797Y706423D02*
D03*
X763797D02*
D03*
X755797Y689201D02*
D03*
X763797D02*
D03*
X755797Y671980D02*
D03*
X763797D02*
D03*
X755797Y654759D02*
D03*
X763797D02*
D03*
X755797Y637538D02*
D03*
X763797D02*
D03*
X755797Y620317D02*
D03*
X763797D02*
D03*
X860822Y559844D02*
D03*
X868822D02*
D03*
X860822Y549801D02*
D03*
X868822D02*
D03*
X890545Y572938D02*
D03*
X898544D02*
D03*
X880772Y572821D02*
D03*
X851050Y559476D02*
D03*
Y549433D02*
D03*
X612616Y715899D02*
D03*
X620616D02*
D03*
X612616Y703262D02*
D03*
X620616D02*
D03*
X572436Y766435D02*
D03*
X564436D02*
D03*
X572436Y776556D02*
D03*
X564436D02*
D03*
X171000Y718700D02*
D03*
Y706010D02*
D03*
Y731410D02*
D03*
Y744110D02*
D03*
D173*
X417612Y772462D02*
D03*
X500110Y293629D02*
D03*
X435086Y293629D02*
D03*
D174*
X73885Y453388D02*
D03*
X57885D02*
D03*
X878004Y901240D02*
D03*
X862004D02*
D03*
X878004Y852680D02*
D03*
X862004D02*
D03*
X878004Y865680D02*
D03*
X862004D02*
D03*
X878004Y817120D02*
D03*
X862004D02*
D03*
X878004Y830120D02*
D03*
X862004D02*
D03*
X878004Y888240D02*
D03*
X862004D02*
D03*
D175*
X72218Y651464D02*
D03*
X63818D02*
D03*
X889111Y495984D02*
D03*
X880711D02*
D03*
D176*
X782429Y90000D02*
D03*
D177*
X587428Y690626D02*
D03*
Y728726D02*
D03*
Y741426D02*
D03*
X548428D02*
D03*
Y690626D02*
D03*
X587428Y703326D02*
D03*
Y716026D02*
D03*
X548428Y703326D02*
D03*
D178*
X764547Y111420D02*
D03*
X748547D02*
D03*
X504048Y511811D02*
D03*
X520048D02*
D03*
X714607Y384979D02*
D03*
D179*
X717154Y339248D02*
D03*
D180*
X231124Y302098D02*
D03*
Y330098D02*
D03*
D181*
X620359Y993846D02*
D03*
Y989846D02*
D03*
X605859Y985846D02*
D03*
Y989846D02*
D03*
D182*
X611109Y984846D02*
D03*
X615109D02*
D03*
X611109Y994846D02*
D03*
D183*
X615109Y994338D02*
D03*
D184*
X843498Y965876D02*
D03*
X856198D02*
D03*
X868898D02*
D03*
X881598D02*
D03*
X843498Y1042076D02*
D03*
X856198D02*
D03*
X868898D02*
D03*
X881598D02*
D03*
D185*
X292654Y1085080D02*
D03*
X673654D02*
D03*
X851454D02*
D03*
X876854Y145080D02*
D03*
X216254Y1031994D02*
D03*
X140054D02*
D03*
X648254Y1085080D02*
D03*
X876854D02*
D03*
X673654Y145080D02*
D03*
X851454D02*
D03*
X648254D02*
D03*
X64054D02*
D03*
X292654D02*
D03*
X89454D02*
D03*
X267254D02*
D03*
X89454Y1085080D02*
D03*
X267254D02*
D03*
X64054D02*
D03*
X140254Y778030D02*
D03*
X800854Y852490D02*
D03*
Y877890D02*
D03*
Y801690D02*
D03*
Y776290D02*
D03*
X724654Y776294D02*
D03*
D186*
X292654Y1110480D02*
D03*
Y1186680D02*
D03*
Y1212080D02*
D03*
Y1237480D02*
D03*
Y1135880D02*
D03*
Y1161280D02*
D03*
X800854Y1031990D02*
D03*
Y1057390D02*
D03*
Y1082790D02*
D03*
Y1108190D02*
D03*
Y1133590D02*
D03*
Y1235190D02*
D03*
Y1184390D02*
D03*
Y1209790D02*
D03*
Y1158990D02*
D03*
X673654Y1135880D02*
D03*
Y1161280D02*
D03*
Y1212080D02*
D03*
Y1186680D02*
D03*
Y1237480D02*
D03*
Y1110480D02*
D03*
X851454Y1237480D02*
D03*
Y1186680D02*
D03*
Y1212080D02*
D03*
Y1135880D02*
D03*
Y1161280D02*
D03*
Y1110480D02*
D03*
X876854Y170480D02*
D03*
Y246680D02*
D03*
Y297480D02*
D03*
Y195880D02*
D03*
Y221280D02*
D03*
Y272080D02*
D03*
X216254Y1235194D02*
D03*
Y1209794D02*
D03*
Y1184394D02*
D03*
Y1158994D02*
D03*
Y1133594D02*
D03*
Y1108194D02*
D03*
Y1082794D02*
D03*
Y1057394D02*
D03*
X724654Y1235194D02*
D03*
Y1158994D02*
D03*
Y1133594D02*
D03*
Y1108194D02*
D03*
Y1082794D02*
D03*
Y1057394D02*
D03*
Y1031994D02*
D03*
Y1184394D02*
D03*
Y1209794D02*
D03*
X140054Y1235194D02*
D03*
Y1184394D02*
D03*
Y1158994D02*
D03*
Y1133594D02*
D03*
Y1108194D02*
D03*
Y1082794D02*
D03*
Y1057394D02*
D03*
Y1209794D02*
D03*
X648254Y1135880D02*
D03*
Y1161280D02*
D03*
Y1212080D02*
D03*
Y1186680D02*
D03*
Y1237480D02*
D03*
Y1110480D02*
D03*
X876854Y1237480D02*
D03*
Y1186680D02*
D03*
Y1212080D02*
D03*
Y1135880D02*
D03*
Y1161280D02*
D03*
Y1110480D02*
D03*
X673654Y246680D02*
D03*
Y272080D02*
D03*
Y170480D02*
D03*
Y195880D02*
D03*
Y221280D02*
D03*
Y297480D02*
D03*
X851454Y170480D02*
D03*
Y246680D02*
D03*
Y297480D02*
D03*
Y195880D02*
D03*
Y221280D02*
D03*
Y272080D02*
D03*
X648254Y246680D02*
D03*
Y272080D02*
D03*
Y170480D02*
D03*
Y195880D02*
D03*
Y221280D02*
D03*
Y297480D02*
D03*
X64054Y195880D02*
D03*
Y221280D02*
D03*
Y297480D02*
D03*
Y246680D02*
D03*
Y272080D02*
D03*
Y170480D02*
D03*
X292654Y221280D02*
D03*
Y195880D02*
D03*
Y297480D02*
D03*
Y272080D02*
D03*
Y246680D02*
D03*
Y170480D02*
D03*
X89454D02*
D03*
Y272080D02*
D03*
Y246680D02*
D03*
Y297480D02*
D03*
Y221280D02*
D03*
Y195880D02*
D03*
X267254Y221280D02*
D03*
Y195880D02*
D03*
Y297480D02*
D03*
Y272080D02*
D03*
Y246680D02*
D03*
Y170480D02*
D03*
X89454Y1110480D02*
D03*
Y1212080D02*
D03*
Y1186680D02*
D03*
Y1135880D02*
D03*
Y1161280D02*
D03*
Y1237480D02*
D03*
X267254Y1110480D02*
D03*
Y1186680D02*
D03*
Y1212080D02*
D03*
Y1237480D02*
D03*
Y1135880D02*
D03*
Y1161280D02*
D03*
X64054Y1110480D02*
D03*
Y1212080D02*
D03*
Y1186680D02*
D03*
Y1135880D02*
D03*
Y1161280D02*
D03*
Y1237480D02*
D03*
X216254Y778030D02*
D03*
Y828830D02*
D03*
Y981230D02*
D03*
Y955830D02*
D03*
Y930430D02*
D03*
Y854230D02*
D03*
Y879630D02*
D03*
Y905030D02*
D03*
Y803430D02*
D03*
X140254Y905030D02*
D03*
Y828830D02*
D03*
Y981230D02*
D03*
Y955830D02*
D03*
Y803430D02*
D03*
Y854230D02*
D03*
Y879630D02*
D03*
Y930430D02*
D03*
X800854Y928690D02*
D03*
Y979490D02*
D03*
Y954090D02*
D03*
Y827090D02*
D03*
Y903290D02*
D03*
X724654Y801694D02*
D03*
Y877894D02*
D03*
Y852494D02*
D03*
Y827094D02*
D03*
Y979494D02*
D03*
Y954094D02*
D03*
Y928694D02*
D03*
Y903294D02*
D03*
D187*
X292654Y1262880D02*
D03*
X673654D02*
D03*
X851454D02*
D03*
X876854Y322880D02*
D03*
X648254Y1262880D02*
D03*
X876854D02*
D03*
X673654Y322880D02*
D03*
X851454D02*
D03*
X648254D02*
D03*
X64054D02*
D03*
X292654D02*
D03*
X89454D02*
D03*
X267254D02*
D03*
X89454Y1262880D02*
D03*
X267254D02*
D03*
X64054D02*
D03*
D188*
X800854Y1260590D02*
D03*
X216254Y1260594D02*
D03*
X724654D02*
D03*
X140054D02*
D03*
X216254Y1006630D02*
D03*
X140254D02*
D03*
X800854Y1004890D02*
D03*
X724654Y1004894D02*
D03*
D189*
X753140Y56482D02*
D03*
Y31082D02*
D03*
D190*
X626562Y74122D02*
D03*
X712962D02*
D03*
X331656D02*
D03*
X245257D02*
D03*
X114808D02*
D03*
X201208D02*
D03*
D191*
X705762Y54122D02*
D03*
X324456D02*
D03*
X194008D02*
D03*
D192*
X626562Y23622D02*
D03*
X712962D02*
D03*
X331656D02*
D03*
X245257D02*
D03*
X114808D02*
D03*
X201208D02*
D03*
D193*
X628812Y68122D02*
D03*
X710712D02*
D03*
X329407D02*
D03*
X247506D02*
D03*
X117058D02*
D03*
X198958D02*
D03*
D194*
X522520Y54956D02*
D03*
X395520D02*
D03*
D195*
X69072Y984504D02*
D03*
D196*
X915072Y26094D02*
D03*
D197*
X26072Y1273294D02*
D03*
X915072D02*
D03*
D198*
X26072Y26094D02*
D03*
D199*
X553345Y84997D02*
D03*
Y24997D02*
D03*
X533345Y84997D02*
D03*
Y24997D02*
D03*
X513345Y84997D02*
D03*
Y24997D02*
D03*
X493345Y84997D02*
D03*
Y64997D02*
D03*
Y44997D02*
D03*
Y24997D02*
D03*
X473345Y84997D02*
D03*
Y64997D02*
D03*
Y24997D02*
D03*
X453345Y84997D02*
D03*
Y64997D02*
D03*
Y24997D02*
D03*
X433345Y84997D02*
D03*
Y64997D02*
D03*
Y24997D02*
D03*
X413345Y84997D02*
D03*
Y64997D02*
D03*
Y44997D02*
D03*
Y24997D02*
D03*
X393345Y84997D02*
D03*
Y24997D02*
D03*
X373345Y84997D02*
D03*
X353345Y24997D02*
D03*
M02*
