M48
;Layer_Color=9474304
;FILE_FORMAT=4:4
METRIC,LZ
;TYPE=PLATED
T01F00S00C0.2000
T02F00S00C0.2500
T03F00S00C0.2540
T04F00S00C0.3000
T07F00S00C1.0000
T08F00S00C1.1430
T09F00S00C3.0000
T10F00S00C6.4000
;TYPE=NON_PLATED
T12F00S00C0.6000
T13F00S00C2.8000
T14F00S00C3.0000
%
T01
X00398454Y00770774
Y00780774
T02
X00154543Y00036588
X00141759Y00108479
X00170381Y00123581
X00132384Y00155287
X00197206Y00162134
X00215639Y00169527
X00242766Y00134446
X00230649Y00116012
X00255649
X00279903Y00109951
X00301797Y00109105
X00292681Y00132384
X00672161Y00129956
X00688645Y00115356
X00689698Y00147773
Y00172773
X00708132Y00156182
X00689698Y00197773
Y00247773
Y00272773
X00708132Y00281182
Y00256182
Y00231182
X00689698Y00322773
X00643472Y00336339
X00643243Y00362267
X00625478Y00353694
X0046234Y00358839
X00462047Y00383838
X00460898Y00431364
X00444562Y00425231
X00417095Y00447978
X00392095
X00395266Y00431125
X00391236Y00424364
X00394274Y00372776
X0041907Y00369589
X00407741Y00347304
X00407995Y00322305
X0045543Y00334813
X0047432Y00318438
X00463293Y00298258
X00494007Y00303029
X00197206Y00287134
Y00237134
Y00362134
Y00387134
Y00412134
Y00437134
Y00462134
Y00487134
Y00512134
X00215639Y00494527
Y00469527
Y00444527
Y00419527
Y00394527
Y00344527
Y00544527
Y00569527
X00197206Y00562134
X00132384Y00555287
X0011395Y0054986
Y0052486
X00132384Y00530287
Y00505287
X0011395Y0049986
Y0047486
X00132384Y00480287
Y00455287
X0011395Y0044986
X00132384Y00430287
Y00405287
X0011395Y0039986
Y0037486
X00132384Y00380287
Y00355287
X0011395Y0034986
X00132384Y00280287
Y00255287
X0011395Y0022486
X00132384Y00180287
Y00580287
X0011395Y0057486
Y0059986
X00117273Y00624639
X0015942Y00646256
X0020942
X00219928Y00627822
X00194928
X00199746Y00611264
X00197206Y00587134
X00223114Y00594754
X00244928Y00627822
X00258165Y00620348
X00283165
X00308165
X00333164
X00358164
X00383164
X0038227Y00644144
X0041021Y00644398
X00408164Y00620348
X00397001Y00601914
X00422001
X00347001
X00322001
X00297001
X00272001
X0028442Y00646256
X0030942
X00331075Y00658748
X00332012Y00683731
X00350446Y00689191
Y00714191
Y00739191
X00332012Y00733731
Y00758731
X00350446Y00764191
Y00789191
X00332012Y00783731
Y00808731
Y00833731
X00350446Y00839191
X00332012Y00883731
X00350446Y00914191
X00332012Y00933731
Y00958731
X00350446Y00964191
X00467344Y00901446
X00454624Y00842574
X00467871Y00828162
X00454624Y00742574
Y00717574
X00467871Y00728162
Y00703162
X00454624Y00692574
Y00667574
X00467871Y00678162
X00480405Y00683409
X00498838Y00692213
Y00717213
X00467871Y00653162
X00410718Y00693674
X00382016Y00697738
X00341624Y0064078
X00538718Y00885952
Y00899668
X00582914Y00853186
X00595106Y00846074
X00616153Y00849453
X00606536Y00817118
X00594852Y00820674
X00642858Y00753872
X00647684Y00729742
X00647176Y00700786
X0063854Y00677926
X00666941Y00675491
X00689086Y00706882
X0067918Y00719328
X00687562Y00767588
X00675636Y007785
X00737346Y0067945
X00728964Y0066294
X00726678Y00647954
X00748268Y00662686
X0077062Y00646938
X00745165Y01126623
X00508238Y0108204
X00496046Y01079754
X00495792Y0105283
X00507984Y01044194
Y0106172
X00474268Y01033872
X00454692Y0100134
X00404692
X0041702Y00982906
X0036702
X00335706Y00983456
X004963Y00978662
X00195326Y01090018
X00194712Y0110329
X00169712
X00170326Y01090018
T03
X0006223Y00010668
X0008763
X00084074Y00039624
X0008255Y00060198
X0005715
X00058674Y00039624
X00138176Y00037846
X00139932Y00056292
X0012927Y00057658
X00151368Y00053848
X0016102Y0005385
X00175808Y00056134
X00184134Y00057912
X00175752Y00038955
X00168874Y00009197
X00143474
X00150475Y00072872
X00164699
X00142478Y0009271
X0013181Y00088392
X0012546Y00099568
X00131302Y00110744
X00138414Y00118618
X00115824Y00119535
X00102854Y00117208
X00090357Y00125112
X00074609Y0012562
X00062976Y0012319
X00049717Y0012068
X00046216Y00162484
X0002638Y00160653
X00008216Y00167002
Y00141602
Y00116202
Y00073294
X00144744Y0014825
X0015465Y00148504
X00175498Y00155702
X00185637Y00148823
X00151622Y0017399
X00193532Y00171196
X0018769Y00163068
X00190738Y0015621
X002169Y00140462
X00230886Y00141478
Y00153924
X00231378Y0016383
X00231124Y00172466
X0024738Y00146558
X00286496Y00120904
X00293608Y00110744
X00318008Y00111506
X00318194Y00096266
X00321948Y00088646
X00329064Y0009398
X0032881Y00103124
X00343138Y0011176
X00346202Y0007112
Y0004572
X0031115Y00043688
X00314582Y00057912
X00304276Y00056896
X00291468Y0005385
X00281816Y00053848
X0027038Y00056292
X0026516Y00051054
X00265176Y0004191
X00259718Y00057658
X00262258Y00088392
X00272926Y0009271
X00280923Y00072872
X00295147
X00299152Y00013998
X00311852Y00013744
X00320234Y0001349
X00286674Y00009197
X00235874
X00219674
X00210474
X00227402Y00044616
X00223774Y00053086
X00226116Y00088714
X001915Y00088646
X00187746Y00096266
X0037078Y00022126
X00583438Y00040132
X00582422Y00065024
X00607822
X00608838Y00040132
X00598074Y00009197
X00648874
X00674274
X00699674
X00686546Y000381
X00685022Y00056134
X00695452Y00056642
X00672774Y0005385
X00663124
X00652002Y00056896
X0064516Y00053848
X00662698Y00072872
X00676872
X00686546Y00100584
X0069469Y00094234
X00717006Y00099228
X00720852Y00106934
X00728436Y00108118
X00715736Y00113706
X00722334Y00124056
X00725662Y00150622
X00730742Y00145796
X0074225Y00139249
X00747252Y00156951
X00727186Y00167155
X00776208Y00165608
X0077443Y00172466
X00774938Y00151892
X00770932Y00133518
X00770862Y00126152
X00807946Y00128946
X00829266Y00129454
X00830798Y00121326
X00848832Y00119548
X00816066Y0011269
X00800826Y00110912
X00800934Y00098076
X00828366Y00096552
X00828874Y00009197
X00803474
X00778074
X00750474
X00854274
X00896274
X00931744Y00063278
Y00088678
Y00114078
Y00139478
Y00164878
X0090932Y00167894
X00629376Y00161204
X00611124Y00171196
X0059944Y00169418
X00607298Y00150114
X00599932Y00109366
X0058901Y00106426
X00589264Y00115062
X00612632Y00092202
X00622792Y00101092
X00637524Y00100076
X00635238Y00092202
X00646938Y00089916
X0065251Y00100076
X00665972Y00117094
X0072871Y00179324
X00761202Y00182032
X007706Y00187112
X0077695Y0018254
X00783246Y0018615
X00793714Y0019143
X00828004Y0020159
X00830536Y00212258
X0082394Y00237658
X00812256Y00239944
X00799556Y0023334
X00797524Y00251882
X00795435Y00266868
X00800592Y00287528
X00819642Y0029083
X00777458Y00281846
X00757646Y0026128
X00747038Y00260113
X00748268Y00297434
X00734806Y00299466
X00724969Y0031278
X00740394Y00339248
X00754674Y00371182
X00789377Y00366029
X00795782Y00345694
X00838962Y00348488
X00839962Y00375666
X00806958Y00382778
X00806414Y00442128
X00830544Y00440858
X0084301Y00440436
X00860536Y0046863
X00876284Y00487934
X00875259Y00495984
X00898636Y00502666
X00901684Y00508762
X00912098Y00511556
X00909574Y005334
X00908034Y0054566
X00911352Y00557784
X00887694Y0056608
X00875522Y0054566
X00875248Y00534076
X00864072Y00533568
X00837656Y00549824
Y0055846
X0079453Y00566248
X00780288Y00553974
X00760694Y00543128
X00750788Y00546776
X00750026Y0055719
X00756142Y00530606
X0075411Y00523494
X00748502Y00508676
X00744712Y00503174
X00762238Y00504952
X00773176Y00517398
X00769096Y00485648
X0076013Y00481584
X0076681Y00466344
X00783828Y0047752
X0079094Y00476504
X0078763Y00457421
X0077824Y00447802
X00772906Y00442214
X00772109Y00432054
X00772652Y00421132
X00761476Y00414528
X00760968Y00404876
X00751316Y00426466
X0074012Y00429682
X00742172Y0044958
X0071501Y00446786
X00711438Y00459994
X00691551Y00454554
X00693404Y0046736
X00701786Y00478338
X00674862Y00473964
X00672048Y00484546
X00650204Y00462194
X00631428Y00456438
X00606282Y004572
X0059917Y0044577
X00590026Y0044958
X00588772Y0042164
X00608996Y00419354
X00625586Y00418846
X00629396Y0042926
X00642604Y00419354
X006669Y00418172
X00679942Y00419862
X00687816Y00421894
X00695436Y0042545
X00704326Y00421386
X00688269Y00439111
X00682228Y0043561
X00662904Y00441112
X00658098Y00390144
X00655812Y00380492
X00672068Y00375158
X00680196
X00693658Y00376682
X00692642Y0038608
X00688324Y00365252
X0069442Y00361188
X0069948Y0035145
X00714232Y00363474
X0062584Y00344678
X0062711Y00331724
X0062965Y00323596
X00613955Y00329946
X0060806Y00316484
X00606484Y00348513
X0059772Y00348767
X0060198Y00393192
X00624316Y003937
X00606536Y00436626
X00605609Y00503664
X00607822Y00517906
X00595106Y0051943
X005852Y00533654
X00612648Y00536956
X00630412Y00537718
X00634984Y00548386
X00620618Y00548932
X00626094Y0051689
X0064995Y00508676
X00645652Y00535178
X00654014Y00542712
X00657844Y00549656
X00680196Y00548132
X0070412Y00551936
X00709169Y00528951
X00697214Y0052959
X0070077Y00522478
X00712567Y00519344
X00715248Y00508
X0069061Y0051689
X0072009Y0056515
X00800338Y00503682
X00830413Y00506177
X00931744Y00495078
Y00520478
Y00545878
Y00571278
Y00469678
Y00444278
Y00418878
X00931926Y00393192
Y00367792
X00913638Y00370332
X00895588Y0036703
X00899398Y00380492
X00871946Y0035907
X0086122Y00411024
X00786114Y00432054
X00627344Y00484546
X0058774Y00493776
X00599223Y00291592
X00599186Y0021209
X00601964Y00195834
X00611632Y0019558
X00732536Y00221742
X00751676Y00222146
X00768588Y00229362
X00775446
X00900648Y00218354
X00900902Y00197018
X00900394Y00180762
X00931744Y00190278
X00931926Y00215392
Y00240792
Y00266192
Y00291592
Y00316992
Y00342392
X00572805Y00314673
X00537097Y00332597
X00548064Y00377508
X00555482Y00406654
X00570722Y00413004
X0055345Y00430022
X00534908Y0043053
X00539734Y00437896
X00521446Y00424942
X00527716Y00411988
X00509762
X00495792Y00408686
X00480488Y00413938
X00475408Y00400731
X0043261Y00400894
X0042753Y00414609
X00404098Y00415544
X00397631Y00403606
X00357732Y0040386
X00351774Y00415544
X00346694Y00424942
X00338566Y00423926
X0032358Y00425006
X00313674Y00424752
X00324596Y0040513
X00330946Y0045339
X003185Y00467614
X00310118Y00484632
X00299681Y00496738
Y00506942
X0029926Y00526878
X00307324Y0053467
X00309356Y00519684
X00321818Y00512318
X0034388Y00510454
X0035533Y0051308
X0036674Y00517566
X00374954Y00518922
X0037182Y00526456
X00382254Y00526034
X00387334Y00540258
X00357616Y00538734
X0042164Y0053721
X00425331Y00525416
Y00513047
X00425767Y00500447
X00425331Y00488309
X00425513Y00476063
X00425831Y0046357
X00425595Y00450965
X00446846Y00451335
X00446346Y00463704
X00446918Y00475689
X00446346Y00488442
X00447172Y00500581
X00446346Y00513181
X00446846Y0052555
X00446694Y00536064
X00451596Y0056515
X0046963Y00562102
X00469122Y00547624
X00501634Y00548894
X0050825Y00553666
X00517128Y00567944
X00531352Y00557022
X00531606Y00532384
X0053313Y00513398
X00543036
X00542528Y00490982
X00536982Y00479241
X00535162Y00468376
X00549428Y00467811
X00559018Y00459908
X00558764Y00451018
X00583422Y00434848
X0058393Y00507746
X00559038Y00504952
X00556006Y00535178
X00555716Y00572176
X00576326Y00559562
X00503681Y0052102
X00503666Y0049784
X00518378Y00490523
X00521192Y0047752
X0051281Y00477012
X0050265Y00473456
X00493486Y0045813
X00474456Y00456692
X00468086Y00471338
X00466054Y0049369
X00461228Y0050766
X00488172Y00505968
X00484616Y00443992
X00506437Y00444118
X00409666Y00464734
X00416016Y00471338
X00405602Y00475148
X00395208Y00479298
X00400776Y00485308
X00403316Y00496738
X0039087Y00498262
X0039851Y0051308
X00277162Y00508843
X00276908Y00519258
X00276441Y0052707
X00254302Y00528401
X00255454Y00508508
Y00498465
X00277852Y00497922
X00274284Y00485054
X00277662Y00475316
X00283956Y00466852
X00292318Y00462956
X00292064Y00453304
X0027532Y00380238
X00260854Y00380895
X00265922Y00370078
X0032866Y00329738
X00348726Y00314706
X00338513Y00293116
X00344932Y00268478
X00345186Y00248412
X00334273Y00234696
X00322564
X00327898Y00206248
X00229346Y00180086
X00187182Y00204978
X001915Y00479298
X00385302Y00370078
X00377883Y00352552
X00436876Y00371064
X00429947Y0030734
X00420354Y00302006
X00428482Y00290322
X0045392Y00233718
X00484652Y00233598
X0050837Y00297195
X00499856Y00308778
X001407Y0030734
X0014322Y00339258
X00163745Y00352793
X00172512Y00349493
X00172512Y00397422
X0009956Y0040225
X00099786Y00415966
X000772Y00439928
X00088374Y00453336
X00071631Y00478028
X00053038Y00493515
X00056492Y00501687
X0005403Y00509582
X00064816Y00528864
X00078613Y00517652
X00008216Y00522602
Y00548002
Y00497202
Y00471802
Y00446402
Y00421002
Y00395602
X00022606Y00403352
X0001676Y00381149
X0001878Y00370078
X00008216Y00370202
Y00344802
X00018288Y00351536
X00044434Y00341122
X00058404Y003556
X00048556Y00368464
X00053578Y00391922
X00067632Y00389148
X00055356Y00425958
X00008216Y00319402
Y00294002
Y00268602
X00012197Y0025297
X00008216Y00243202
X00014058Y00230756
X00008216Y00217802
Y00192402
X00137398Y00207264
X00150077Y00198918
X00161782Y0019812
X00175224Y00182032
X00182946Y00181976
X00182377Y0021106
X00179308Y0023495
X00169402Y00250444
X00168414Y00262798
X00158734Y0025527
X00156469Y00224268
X00144531Y00224014
X0004035Y00588686
X00008216Y00598802
Y00624202
Y00649602
Y00675002
Y00700402
Y00725802
Y00751202
Y00776602
Y00802002
Y00827402
Y00852802
Y00878202
Y00903602
Y00929002
X00008371Y00954228
X00036464Y00916302
Y0090626
X00039186Y00878447
X00039565Y00824606
X0002607Y0081567
X00039588Y00762676
X00063741Y00773231
X00071462Y0073266
X00114562Y00731437
X00114312Y00744134
Y00718734
X00114634Y00706037
X00154686Y00711962
X00158952Y00690118
X00183589Y00689102
X00183316Y00724916
X00152146Y00738886
X00148538Y0075184
X0016847Y0083577
X00167612Y00865361
X00166754Y00894238
X00160616Y00959482
X00095488Y00934466
X00084558Y00669292
X0005286Y00678317
X00036464Y00668138
X00039334Y00635168
X00063718Y00645074
X00008216Y00573402
X00301208Y00573954
X0030707Y00579374
X00314416Y00574208
X003261
X00333994Y00575056
X00341614Y00574548
X00352355Y00574524
X00364454Y00575224
X0037785Y00575159
X00390128Y00573786
X0040357Y00574463
X0041627Y00574763
X00427974Y00574643
X00441944Y00574802
X00448802Y00578104
X0044804Y00597916
X00426938Y00597068
X0041627Y00596814
X00408416Y00601726
X0040357Y00589448
X00395462Y00589788
X00386064Y00584708
X00353786Y00596052
X00342102Y00589448
X00312658Y00660908
X00298942Y00652272
X00279215Y00665394
X00279133Y00687492
X00279387Y0071086
X00280149Y00738546
X00279165Y00763113
X00279387Y00786806
X00280911Y00815508
X00270803Y00815188
X00278368Y00844804
X00261584Y0086707
X00272048Y00882776
X00261838Y0089628
X00243729Y00890775
X00241847Y00881481
X00228762Y00871639
X00196176Y00893442
X00193487Y0083963
X00191056Y00816042
X00242472Y00804305
X00242573Y00777982
X00199944Y00752594
X00212308Y00717464
X00212562Y00702732
X00212816Y00688
X0021307Y0067403
X00321548Y00676148
X00326374Y00693674
X00382732Y0073909
X00382478Y00750266
X00384348Y00756702
X00388574Y00775666
X00377408Y00784012
X00408894Y0077592
X00417794Y00756834
X00412542Y00750606
Y00739684
X00469069Y00746256
X00478213Y00748542
X00505092Y00746134
X00504906Y00770332
X00513434Y00777868
X0052167Y00770586
X00525965Y00762004
X0053948Y0077045
X00549487Y00770818
X00556244Y00761492
X00554212Y00752856
X00563877Y00747441
Y00734741
X00563864Y00722122
X00564372Y00709676
X0056515Y0069596
X00563626Y00684276
X0055499Y00656658
X0058039
X00574548Y00597408
X00573532Y00590296
X00548096Y00582336
X00543818Y00595462
X0053474Y00606532
X00550402Y00616458
X00516886Y00614372
X00508988Y0060164
X00511794Y00575564
X00519172Y00582114
X0046963Y00588264
X00467852Y00574802
X00482584Y00604774
X00519023Y00674302
X00528949Y00677418
X00521192Y00709168
X0053059Y0071628
X00530844Y0072898
X0053087Y00741203
X00513064Y0072263
X0053948Y0079375
X00549386Y00791972
X00526842Y00811566
X00530134Y00819464
X00514322Y00825302
X00493568Y00824266
X0049559Y0080911
X00478942Y00839658
X00482138Y00855508
X00478688Y00871408
X00472888Y0087963
X0047273Y00892422
X00483144
X00483608Y00902704
X00476804Y00902708
X00501696Y00896104
X00494584Y0088421
X00457744Y00884802
X00440472Y00901122
X00424874Y0089811
X00417622Y00888782
X00411444Y00865292
X00411112Y00850274
X00420056Y00852452
X00411524Y00820595
X00423812Y00807094
X00421272Y00794394
X00440472Y00810152
X00373621Y008277
X00372859Y00844972
X00373367Y00862752
Y00880278
X00373621Y00898566
Y00916346
Y00933872
X00373113Y0095216
X00424776Y00949322
X00423151Y00939968
X00420776Y00916112
X0042492Y0096715
X00455198Y00968412
X0046897Y00968503
X00471137Y00932961
X0048016Y00933442
X00513074Y009323
X0052424Y00934212
X00524819Y00925442
X00531352Y00940562
X00523784Y00896332
X00532176Y00864054
X00566974Y00857286
X00562138Y00833092
X00582976Y00833156
X00578088Y00776478
Y00766064
X00571238Y00888988
X00572254Y00899148
X00582256Y00913762
X00569942Y00954786
X00313674Y00948182
X00312892Y0096359
X00295894Y00952246
X00296128Y00940984
Y00931078
X00312384Y00896788
X00301374Y00882776
X00313146Y00866816
X00246852Y00928284
Y00937174
X0024736Y00952414
X00247614Y0096232
X0027149Y00968416
X0060931Y0096232
X00640084Y00930464
X00640592Y00916748
X006411Y00902016
X00641354Y00888808
X00641704Y00879086
X00642974Y00854448
X00633476Y00850138
X0063819Y0082374
X00637504Y00810682
X00656574Y0080391
X00661033Y00778716
X00648074Y00766448
X0064773Y00741048
X00661364Y00751888
X00683104Y0075773
X00680818Y00737156
X0068031Y00729536
X00676006Y00708079
X00645996Y00715947
X00626856Y00716026
Y00703072
X0062711Y0069088
X00602264Y00690502
Y00703202
Y00715902
Y00728602
Y00741048
X0062711Y0074803
X00687816Y00788162
X00700262Y00798576
X00688722Y00830284
X00659662Y00836094
X00672068Y00850138
X00679942Y0087884
X00699256Y00879102
X00692232Y00870466
X00666246Y00907604
X00704858Y00951492
X00772398Y00950976
X00769096Y00938784
X00769076Y0089501
X00765211Y0087705
X00786487Y0087711
Y00841296
X00765207Y00841416
X00770854Y00828462
X00752115Y00832432
X0076046Y00811276
X00766477Y00800014
X00786487Y00806072
X0082396Y00774446
X0084936Y00769366
X00861298Y0076962
X00871656Y00773176
X00886952Y00769366
X00888476Y00811022
X0088626Y0081727
Y0082997
Y0085283
Y0086553
Y0088839
Y0090109
X00880328Y00938698
X00869152Y00939206
X0085696Y00938952
X00843498Y0093946
X00821674Y00957326
X00931744Y00952278
Y00926878
Y00901478
Y00876078
Y00850678
Y00825278
Y00799878
Y00774478
Y00749078
Y00723678
Y00698278
Y00672878
Y00647478
Y00622078
Y00596678
X00913114Y00573024
X00872454Y00578526
X00844227Y00573192
X0082521
X00793714Y00577002
X00770925Y00606206
X00770604Y00620283
Y00637505
Y00654717
Y00671947
Y00689168
Y00706389
X00749243Y00706262
Y00689041
X00748826Y00671924
X0074908Y00654651
X00749243Y00637377
Y00620156
X00750808Y00611378
X00752078Y00602996
X00733282Y00604774
X0072363Y00618998
X00710676Y0063881
X00709152Y00648208
X00696198Y00646938
X00685276Y0065151
X00667496Y0065024
X00665718Y006604
X00653272Y006731
X00647684Y00652526
X00643382Y00605564
X00620522Y00604774
X00605028Y00597154
X00598678Y00600202
X00596138Y00606044
X00594868Y00613156
X00611954Y0058894
X00628802
X00664428
X00659638Y0059563
X00671286Y0060467
X00667162Y0061341
X00683752Y00593344
X0068299Y00580898
X0069313Y00599862
X0071093Y00585724
X00716264Y00577342
X00659876Y00573278
X00599912Y00576494
X0059309Y00669544
X00703172Y00671394
X00718804Y00686816
X0070204Y00630428
X00788146Y00668782
X00822944Y00668274
X0083412Y00665988
X00833358Y00678434
X00834628Y00691896
X00855984Y006911
Y006801
Y006691
Y00658536
Y00646938
X00856173Y0063593
X00855984Y006251
Y006141
X0084047Y00602996
X00833104Y00625348
X0083412Y00645668
X00816612Y00642359
X00881364Y00629412
X00882637Y00678511
X00879799Y006928
X00859248Y00714924
X008519Y00737616
X00842502Y0073787
X0091507Y0081567
X00768314Y00858688
X00597646Y00827532
X00606282Y0097409
X00605255Y00980603
X00598143Y00983905
X00586978Y0098298
X00600186Y00995172
X00595603Y01006003
X00597461Y01016492
X00596633Y01040044
X00594627Y01048452
X00585308Y0104911
X00590006Y01063158
X00597395Y01056808
X00602706Y01078652
X00621974Y01095306
X00645632Y0107027
X00654799Y01052236
X00676135Y01051474
X00687057Y01052236
X00684514Y0104521
X00688832Y0104013
X00663432Y01028192
X0065632Y01030986
X00665972Y01020826
X00636254Y01025398
X00633463Y01033186
X00644128Y01040384
X00627618Y01046734
X00632952Y0105283
X00631994Y01001669
X00622596Y01008781
X00643366Y00994156
X00635207Y00980517
X00627602Y00977867
X00619744Y00972058
X00612632Y00969518
X0069147Y0099772
X00703564Y01145794
X00754872Y01148334
X00770216Y01157602
X00772231Y01128801
X00773276Y01225288
X00780006Y01237077
X0074813Y01225796
X00742784Y0121907
X00743904Y01290108
X00718503
X00693103
X00667703
X00642303
X00616903
X00591503
X0058731Y01272783
X00602401Y01263495
X00621118Y01264536
X00619744Y0122428
X00602445Y01234245
X00601456Y01161542
X00595106Y0113157
X00594852Y01120902
X00842228Y01071995
X00855436
X0086839
X00881852Y01071741
X00881598Y01050966
X00868644Y0105122
X00854928
X00842736
X00912355Y0107535
X00931744Y01079278
X00927962Y01062982
X00931744Y01028478
X00930756Y0100761
X00931744Y00977678
Y01104678
Y01130078
Y01155478
Y01180878
Y01206278
Y01231678
X00907884Y01245994
X00896595Y01289662
X00870903Y01290108
X00845503
X00820104
X00826444Y01275138
X00821482Y01248192
X00837018Y01204592
X00794704Y01290108
X00769304
X00904032Y0114075
Y01128812
Y01116874
X00576564Y01120648
X00567674Y01125474
X00566658Y01115822
X00552688Y01126744
X0055345Y01138174
X00561832Y01136904
X00570976
Y01152652
X00558276Y01151128
X00548624Y01175258
X00553958Y01181862
X00558338Y01211102
X005593Y01222102
X00550718Y0121675
Y0122775
X00562402Y01233162
X00572219Y01234245
X00572175Y01263495
X0056231Y0126862
X0055431
X0054631
X0053831
X0053031
X0052231Y0126862
X0052231Y0125662
X0053031
X0053831
X0050931Y0125562
X0049831
X0048831
X0047631
X0046531
X0045431
X0044331
X0043031
X0042031Y0125662
X0041231
Y0126862
X0040431
X0039631
X0038831
X0038031
Y0128062
X0037231
X00372304Y01290108
X00380303
X00388303
X0038831Y0128062
X0039631
X0041631Y0127712
X0042031Y0126862
X0042462Y0128812
X00362904Y01290108
X00363188Y0128212
X0035531Y01272783
X00370401Y01263495
X00370686Y01233884
X00381182Y01231958
X00391968Y01227066
X00391902Y0120575
X00375399Y01199556
X00367525Y01188634
X00369049Y01172886
X00364708Y01161964
X00373854Y01161966
X00383794Y01161038
X00394254Y01161324
X00391926Y0113976
X00385536Y01133008
X0038325Y011452
X0037182Y01152312
X00352285Y01158003
X00347205Y0116552
X00339562Y011706
X00331604Y01178982
X00322544Y0118838
X00316956Y01193968
X00323052Y01199556
X00321782Y01212256
X0031467Y01205652
X0030326Y01194308
X00318226Y01168568
X00324322Y0115917
X00328409Y01138596
X00318988Y01139104
X003261Y01122848
X00338061Y01129452
X00342379Y0113504
X00351636Y01125974
X00347436Y011198
X00365744Y01115822
X00368538Y01123696
X00385048Y01099312
X00375904Y01080262
X00365998Y01085088
X00366486Y01071032
X00354802Y01066968
X00353786Y01040806
X00345912Y01038266
X00344662Y01030986
X00359648Y01035812
X00379714Y01054608
X00385302Y01058164
X0040486Y01059942
X00401364Y01066796
X0042995Y01059238
X00430514Y01051306
X00439404Y01030986
X00451596Y01029716
X00441944Y01018794
X0044423Y01011682
X00468614Y01015238
X00470253Y01040638
X004709Y01056894
X00478774Y01064768
X0047013Y01073611
X00469756Y01083711
X00471154Y01121156
X0048001Y0112588
X00493506Y01132078
X0049017Y0113858
X00497316Y01143
X0049817Y0115344
Y0116144
X0049017
Y0115344
X00506714Y0115316
Y01163828
X0050646Y01173988
X0049817Y0117376
Y0118176
X0049017
Y0117376
Y0119662
Y0120462
X0049817
Y0119662
X0049831Y0121562
X0048731
X0047631
X0046531
X0045431
X0044331
X00439463Y01205287
X00447463
X00442452Y01197864
X00449564Y01192784
X0046731Y0119662
X0047531
Y0120462
X0046731
X0046581Y0123062
X0047681
Y0124162
X0046581
X0045481
Y0123062
X0044381
Y0124162
X0048881
X0049881
Y0123062
X0048881
X00508238Y01184402
X00466852Y01175004
Y01162684
Y01154684
Y01146684
Y01138684
X0044699Y0113604
Y0112842
X00451658Y01122672
X00434969Y01127314
X0043972Y0113334
X00443858Y0114908
X0043591Y01152942
X0043972Y0115853
X00451478Y0115797
X00502142Y01125474
X00562574Y01089828
X00562848Y01077722
X00568944Y01073404
X00576036Y01068746
X00576487Y0105035
X00560542Y01054268
X00554974Y01074928
X0055218Y01035304
X00564626Y01024382
X00575802Y01023366
X00581644Y01029462
X00579334Y01096632
X0058393Y01166622
X0057031Y0128062
X0056231
X0055431
X0054631
X00554316Y01290108
X00562316
X00570316
X00518Y0128812
X0052631Y0127712
X00340175Y01263495
X00337504Y01290108
X00312104
X00286703
X00261304
X00235903
X00235021Y01277095
X00217182Y01279245
X00210504Y01290108
X00196176Y01223642
X00240264Y01222982
X00259611Y0122423
X00248079Y0117776
X00201256Y01183002
X00196176Y01132202
Y01010282
X00194664Y0099364
X00262092Y00992546
X00272402Y00979042
X00302627
X00312892Y00991784
X00297906Y01023534
X00297398Y01032678
X00332216Y01020318
X00337863Y01077421
X00345839Y01088102
X00352298Y01176528
X0035111Y01194702
X00355551Y01224596
X0034046Y01233884
X00321528Y01235624
X00326354Y01221908
X00308574Y01242736
X00382765Y011833
X00439892Y01072048
X00419862Y01006602
X00400496Y01007
X00497616Y00990152
X00496516Y00970466
X00514501Y00970939
X00509Y01022096
X00247106Y01025058
Y0103217
X00247868Y01046394
X00247614Y01054268
X00164692Y0099364
X00100856Y010339
X00100563Y0104405
X00101071Y0105422
X00055251Y01061566
X00033616Y01081402
Y01106802
Y01132202
Y01157602
Y01183002
Y01208402
Y01233802
X00008216
X00016852Y01223388
X00008216Y01208402
Y01183002
Y01157602
X00012158Y0114859
X00008216Y01132202
Y01106802
Y01081402
Y01056002
Y01030602
X00008371Y01005028
Y00979628
X00079336Y01096642
X00119468Y01094864
X00079336Y01172842
X00108904Y01208829
X00118528Y01235751
X00108904Y01264708
Y01290108
X00083504
X00058103
X00134304
X00159704
X00185103
X00184134Y01245616
X00155536Y01259202
X00160616Y01183002
X00007274Y01253797
T04
X00353345Y00024997
X00393345
X00413345
X00433345
X00453345
X00473345
X00493345
X00513345
X00533345
X00553345
Y00084997
X00533345
X00513345
X00493345
Y00064997
Y00044997
X00473345Y00064997
Y00084997
X00453345
Y00064997
X00433345
Y00084997
X00413345
Y00064997
Y00044997
X00393345Y00084997
X00373345
X00034072Y00949504
X0038831Y0125662
X0039631
X0040431
X0054631
X0055431
T07
X00064054Y0014508
Y0017048
X00089454
Y0014508
X00267254
X00292654
Y0017048
X00267254
X00648254
X00673654
Y0014508
X00648254
X00851454
X00876854
Y0017048
X00851454
Y0019588
X00876854
Y0022128
Y0024668
Y0027208
Y0029748
Y0032288
X00851454
Y0029748
Y0027208
Y0024668
Y0022128
X00673654
Y0024668
Y0027208
Y0029748
Y0032288
X00648254
Y0029748
Y0027208
Y0024668
Y0022128
Y0019588
X00673654
X00292654
Y0022128
Y0024668
Y0027208
Y0029748
Y0032288
X00267254
Y0029748
Y0027208
Y0024668
Y0022128
Y0019588
X00485124Y00536194
X00505444
X00089454Y0032288
X00064054
Y0029748
Y0027208
Y0024668
Y0022128
Y0019588
X00089454
Y0022128
Y0024668
Y0027208
Y0029748
X00140254Y0077803
Y0080343
Y0082883
Y0085423
Y0087963
Y0090503
Y0093043
Y0095583
X00216254
Y0093043
Y0090503
Y0087963
Y0085423
Y0082883
Y0080343
Y0077803
X0054229Y00673354
Y00653034
X00495284Y00612394
X0061849Y00663194
X00724654Y00776294
Y00801694
Y00827094
Y00852494
Y00877894
Y00903294
Y00928694
Y00954094
X00800854Y0095409
Y0092869
Y0090329
Y0087789
Y0085249
Y0082709
Y0080169
Y0077629
Y0097949
Y0100489
X00800854Y0103199
Y0105739
Y0108279
Y0110819
Y0113359
Y0115899
Y0118439
Y0120979
Y0123519
Y0126059
X00851454Y0126288
Y0123748
Y0121208
Y0118668
Y0116128
Y0113588
Y0111048
Y0108508
X00876854
Y0111048
Y0113588
Y0116128
Y0118668
Y0121208
Y0123748
Y0126288
X00724654Y01260594
Y01235194
Y01209794
Y01184394
Y01158994
Y01133594
Y01108194
Y01082794
Y01057394
Y01031994
X00724654Y01004894
Y00979494
X00673654Y0108508
Y0111048
Y0113588
Y0116128
Y0118668
Y0121208
Y0123748
Y0126288
X00648254
Y0123748
Y0121208
Y0118668
Y0116128
Y0113588
Y0111048
Y0108508
X00292654
Y0111048
Y0113588
Y0116128
Y0118668
Y0121208
Y0123748
Y0126288
X00267254
Y0123748
Y0121208
Y0118668
Y0116128
Y0113588
Y0111048
Y0108508
X00216254Y01082794
Y01108194
Y01133594
Y01158994
Y01184394
Y01209794
Y01235194
Y01260594
Y01057394
Y01031994
Y0100663
Y0098123
X00140254
Y0100663
X00140054Y01031994
Y01057394
Y01082794
Y01108194
Y01133594
Y01158994
Y01184394
Y01209794
Y01235194
Y01260594
X00089454Y0126288
Y0123748
Y0121208
Y0118668
Y0116128
Y0113588
Y0111048
Y0108508
X00064054
Y0111048
Y0113588
Y0116128
Y0118668
Y0121208
Y0123748
Y0126288
T08
X0075314Y00031082
Y00056482
T09
X00026072Y00026094
T10
X00069072Y00984504
T12
X00122008Y00054122
X00252456
X00633762
T13
X0039552Y00054956
X0052252
T14
X00915072Y00026094
Y01273294
X00026072
M30
