M48
;Layer_Color=9474304
;FILE_FORMAT=4:4
METRIC,LZ
;TYPE=PLATED
T05F00S00C0.6000
T06F00S00C0.7000
;TYPE=NON_PLATED
T11F00S00C0.5000
%
G90
G05
T05
G00X00114808Y00067622
M15
G01Y00080622
M16
G00X00201208Y00067622
M15
G01Y00080622
M16
G00X00245257Y00067622
M15
G01Y00080622
M16
G00X00331656Y00067622
M15
G01Y00080622
M16
G00X00626562Y00067622
M15
G01Y00080622
M16
G00X00712962Y00067622
M15
G01Y00080622
M16
T06
G00X00114808Y00017122
M15
G01Y00030122
M16
G00X00120808Y00068122
M15
G01X00115308
M16
G00X00195208Y00068122
M15
G01X00200708
M16
G00X00201208Y00017122
M15
G01Y00030122
M16
G00X00245257Y00017122
M15
G01Y00030122
M16
G00X00251256Y00068122
M15
G01X00245756
M16
G00X00325657Y00068122
M15
G01X00331156
M16
G00X00331656Y00017122
M15
G01Y00030122
M16
G00X00626562Y00017122
M15
G01Y00030122
M16
G00X00632562Y00068122
M15
G01X00627062
M16
G00X00706962Y00068122
M15
G01X00712462
M16
G00X00712962Y00017122
M15
G01Y00030122
M16
T11
G00X00192258Y00054122
M15
G01X00195758
M16
G00X00322706Y00054122
M15
G01X00326207
M16
G00X00704012Y00054122
M15
G01X00707512
M16
M17
M30
