G04*
G04 #@! TF.GenerationSoftware,Altium Limited,Altium Designer,21.6.4 (81)*
G04*
G04 Layer_Color=255*
%FSLAX44Y44*%
%MOMM*%
G71*
G04*
G04 #@! TF.SameCoordinates,27B0D74A-EB15-4392-BC8F-D98A40C3D817*
G04*
G04*
G04 #@! TF.FilePolarity,Positive*
G04*
G01*
G75*
%ADD42R,0.5200X0.5500*%
%ADD63C,1.4140*%
%ADD64R,1.4140X1.4140*%
%ADD71C,1.0000*%
%ADD72C,1.8000*%
%ADD74C,0.8000*%
%ADD75R,2.4000X0.7600*%
D42*
X290300Y215200D02*
D03*
X298300D02*
D03*
D63*
X615275Y163800D02*
D03*
X589875D02*
D03*
X564475D02*
D03*
X539075D02*
D03*
X513675D02*
D03*
X488275D02*
D03*
X462875D02*
D03*
X437475D02*
D03*
X412075D02*
D03*
X386675D02*
D03*
X361275D02*
D03*
X335875D02*
D03*
X310475D02*
D03*
X285075D02*
D03*
X259675D02*
D03*
Y316200D02*
D03*
X285075D02*
D03*
X310475D02*
D03*
X335875D02*
D03*
X361275D02*
D03*
X386675D02*
D03*
X412075D02*
D03*
X437475D02*
D03*
X462875D02*
D03*
X488275D02*
D03*
X513675D02*
D03*
X539075D02*
D03*
X564475D02*
D03*
X589875D02*
D03*
D64*
X615275D02*
D03*
D71*
X576750Y281500D02*
D03*
X616000Y211000D02*
D03*
X591500Y196000D02*
D03*
X674000Y169000D02*
D03*
X655000Y205000D02*
D03*
X642400Y237900D02*
D03*
X661000Y311000D02*
D03*
X633300Y197800D02*
D03*
X548400Y213400D02*
D03*
X562100Y232700D02*
D03*
X584000Y226000D02*
D03*
X564500Y186500D02*
D03*
X645250Y261500D02*
D03*
X450150Y280500D02*
D03*
X460310Y204300D02*
D03*
X439990D02*
D03*
D72*
X234270Y316200D02*
D03*
X640680D02*
D03*
Y163800D02*
D03*
X234270D02*
D03*
D74*
X456500Y255100D02*
D03*
X443800Y242400D02*
D03*
Y217000D02*
D03*
X456500Y229700D02*
D03*
Y217000D02*
D03*
Y242400D02*
D03*
Y267800D02*
D03*
X443800Y229700D02*
D03*
Y255100D02*
D03*
Y267800D02*
D03*
D75*
X336500Y232200D02*
D03*
Y194100D02*
D03*
Y206800D02*
D03*
Y219500D02*
D03*
X375500Y206800D02*
D03*
Y219500D02*
D03*
Y232200D02*
D03*
X336500Y181400D02*
D03*
X375500D02*
D03*
Y194100D02*
D03*
M02*
