G04*
G04 #@! TF.GenerationSoftware,Altium Limited,Altium Designer,21.6.4 (81)*
G04*
G04 Layer_Color=8388736*
%FSLAX44Y44*%
%MOMM*%
G71*
G04*
G04 #@! TF.SameCoordinates,27B0D74A-EB15-4392-BC8F-D98A40C3D817*
G04*
G04*
G04 #@! TF.FilePolarity,Positive*
G04*
G01*
G75*
%ADD79C,0.0500*%
D79*
X704250Y268750D02*
Y273250D01*
X708750Y268750D02*
Y273250D01*
X704250Y268750D02*
X708750D01*
X704250Y273250D02*
X708750D01*
X704250Y202750D02*
Y207250D01*
X708750Y202750D02*
Y207250D01*
X704250Y202750D02*
X708750D01*
X704250Y207250D02*
X708750D01*
X674250Y268750D02*
Y273250D01*
X678750Y268750D02*
Y273250D01*
X674250Y268750D02*
X678750D01*
X674250Y273250D02*
X678750D01*
X674250Y202750D02*
Y207250D01*
X678750Y202750D02*
Y207250D01*
X674250Y202750D02*
X678750D01*
X674250Y207250D02*
X678750D01*
X689250Y279750D02*
Y284250D01*
X693750Y279750D02*
Y284250D01*
X689250Y279750D02*
X693750D01*
X689250Y284250D02*
X693750D01*
X689250Y191750D02*
Y196250D01*
X693750Y191750D02*
Y196250D01*
X689250Y191750D02*
X693750D01*
X689250Y196250D02*
X693750D01*
X586250Y202750D02*
Y207250D01*
X590750Y202750D02*
Y207250D01*
X586250Y202750D02*
X590750D01*
X586250Y207250D02*
X590750D01*
X674250Y191750D02*
Y196250D01*
X678750Y191750D02*
Y196250D01*
X674250Y191750D02*
X678750D01*
X674250Y196250D02*
X678750D01*
X575250Y246750D02*
Y251250D01*
X579750Y246750D02*
Y251250D01*
X575250Y246750D02*
X579750D01*
X575250Y251250D02*
X579750D01*
X619250Y241250D02*
Y245750D01*
X623750Y241250D02*
Y245750D01*
X619250Y241250D02*
X623750D01*
X619250Y245750D02*
X623750D01*
X704250Y191750D02*
Y196250D01*
X708750Y191750D02*
Y196250D01*
X704250Y191750D02*
X708750D01*
X704250Y196250D02*
X708750D01*
X652250Y279750D02*
Y284250D01*
X656750Y279750D02*
Y284250D01*
X652250Y279750D02*
X656750D01*
X652250Y284250D02*
X656750D01*
X663250Y279760D02*
Y284259D01*
X667750Y279760D02*
Y284259D01*
X663250Y279760D02*
X667750D01*
X663250Y284259D02*
X667750D01*
X674250Y235750D02*
Y240250D01*
X678750Y235750D02*
Y240250D01*
X674250Y235750D02*
X678750D01*
X674250Y240250D02*
X678750D01*
X663250Y213750D02*
Y218250D01*
X667750Y213750D02*
Y218250D01*
X663250Y213750D02*
X667750D01*
X663250Y218250D02*
X667750D01*
X575250Y213750D02*
Y218250D01*
X579750Y213750D02*
Y218250D01*
X575250Y213750D02*
X579750D01*
X575250Y218250D02*
X579750D01*
X575250Y202750D02*
Y207250D01*
X579750Y202750D02*
Y207250D01*
X575250Y202750D02*
X579750D01*
X575250Y207250D02*
X579750D01*
X641250Y191750D02*
Y196250D01*
X645750Y191750D02*
Y196250D01*
X641250Y191750D02*
X645750D01*
X641250Y196250D02*
X645750D01*
X575250D02*
X579750D01*
X575250Y191750D02*
X579750D01*
Y196250D01*
X575250Y191750D02*
Y196250D01*
Y284250D02*
X579750D01*
X575250Y279750D02*
X579750D01*
Y284250D01*
X575250Y279750D02*
Y284250D01*
X586250Y273250D02*
X590750D01*
X586250Y268750D02*
X590750D01*
Y273250D01*
X586250Y268750D02*
Y273250D01*
X674250Y262250D02*
X678750D01*
X674250Y257750D02*
X678750D01*
Y262250D01*
X674250Y257750D02*
Y262250D01*
X704250Y284250D02*
X708750D01*
X704250Y279750D02*
X708750D01*
Y284250D01*
X704250Y279750D02*
Y284250D01*
X674250D02*
X678750D01*
X674250Y279750D02*
X678750D01*
Y284250D01*
X674250Y279750D02*
Y284250D01*
X641250Y273250D02*
X645750D01*
X641250Y268750D02*
X645750D01*
Y273250D01*
X641250Y268750D02*
Y273250D01*
Y284250D02*
X645750D01*
X641250Y279750D02*
X645750D01*
Y284250D01*
X641250Y279750D02*
Y284250D01*
X630250Y273250D02*
X634750D01*
X630250Y268750D02*
X634750D01*
Y273250D01*
X630250Y268750D02*
Y273250D01*
X652250Y273250D02*
X656750D01*
X652250Y268750D02*
X656750D01*
Y273250D01*
X652250Y268750D02*
Y273250D01*
Y218250D02*
X656750D01*
X652250Y213750D02*
X656750D01*
Y218250D01*
X652250Y213750D02*
Y218250D01*
Y262250D02*
X656750D01*
X652250Y257750D02*
X656750D01*
Y262250D01*
X652250Y257750D02*
Y262250D01*
X619250Y218250D02*
X623750D01*
X619250Y213750D02*
X623750D01*
Y218250D01*
X619250Y213750D02*
Y218250D01*
X608250D02*
X612750D01*
X608250Y213750D02*
X612750D01*
Y218250D01*
X608250Y213750D02*
Y218250D01*
X597250Y196250D02*
X601750D01*
X597250Y191750D02*
X601750D01*
Y196250D01*
X597250Y191750D02*
Y196250D01*
X586250D02*
X590750D01*
X586250Y191750D02*
X590750D01*
Y196250D01*
X586250Y191750D02*
Y196250D01*
X619250Y284250D02*
X623750D01*
X619250Y279750D02*
X623750D01*
Y284250D01*
X619250Y279750D02*
Y284250D01*
X608250Y273250D02*
X612750D01*
X608250Y268750D02*
X612750D01*
Y273250D01*
X608250Y268750D02*
Y273250D01*
X601750Y224750D02*
Y229250D01*
X597250Y224750D02*
Y229250D01*
Y224750D02*
X601750D01*
X597250Y229250D02*
X601750D01*
X586250Y240250D02*
X590750D01*
X586250Y235750D02*
X590750D01*
Y240250D01*
X586250Y235750D02*
Y240250D01*
X623750Y257750D02*
Y262250D01*
X619250Y257750D02*
Y262250D01*
Y257750D02*
X623750D01*
X619250Y262250D02*
X623750D01*
X667750Y268750D02*
Y273250D01*
X663250Y268750D02*
Y273250D01*
Y268750D02*
X667750D01*
X663250Y273250D02*
X667750D01*
X579750Y235750D02*
Y240250D01*
X575250Y235750D02*
Y240250D01*
Y235750D02*
X579750D01*
X575250Y240250D02*
X579750D01*
X645750Y213750D02*
Y218250D01*
X641250Y213750D02*
Y218250D01*
Y213750D02*
X645750D01*
X641250Y218250D02*
X645750D01*
X634750Y257750D02*
Y262250D01*
X630250Y257750D02*
Y262250D01*
Y257750D02*
X634750D01*
X630250Y262250D02*
X634750D01*
X645750Y202750D02*
Y207250D01*
X641250Y202750D02*
Y207250D01*
Y202750D02*
X645750D01*
X641250Y207250D02*
X645750D01*
Y257750D02*
Y262250D01*
X641250Y257750D02*
Y262250D01*
Y257750D02*
X645750D01*
X641250Y262250D02*
X645750D01*
X667750Y202750D02*
Y207250D01*
X663250Y202750D02*
Y207250D01*
Y202750D02*
X667750D01*
X663250Y207250D02*
X667750D01*
X656750Y202750D02*
Y207250D01*
X652250Y202750D02*
Y207250D01*
Y202750D02*
X656750D01*
X652250Y207250D02*
X656750D01*
X678750Y213750D02*
Y218250D01*
X674250Y213750D02*
Y218250D01*
Y213750D02*
X678750D01*
X674250Y218250D02*
X678750D01*
X634750Y279750D02*
Y284250D01*
X630250Y279750D02*
Y284250D01*
Y279750D02*
X634750D01*
X630250Y284250D02*
X634750D01*
X579750Y257750D02*
Y262250D01*
X575250Y257750D02*
Y262250D01*
Y257750D02*
X579750D01*
X575250Y262250D02*
X579750D01*
X590750Y279750D02*
Y284250D01*
X586250Y279750D02*
Y284250D01*
Y279750D02*
X590750D01*
X586250Y284250D02*
X590750D01*
X579750Y268750D02*
Y273250D01*
X575250Y268750D02*
Y273250D01*
Y268750D02*
X579750D01*
X575250Y273250D02*
X579750D01*
X590750Y257750D02*
Y262250D01*
X586250Y257750D02*
Y262250D01*
Y257750D02*
X590750D01*
X586250Y262250D02*
X590750D01*
X601750Y279750D02*
Y284250D01*
X597250Y279750D02*
Y284250D01*
Y279750D02*
X601750D01*
X597250Y284250D02*
X601750D01*
X612750Y279750D02*
Y284250D01*
X608250Y279750D02*
Y284250D01*
Y279750D02*
X612750D01*
X608250Y284250D02*
X612750D01*
X667750Y257750D02*
Y262250D01*
X663250Y257750D02*
Y262250D01*
Y257750D02*
X667750D01*
X663250Y262250D02*
X667750D01*
X656750Y191750D02*
Y196250D01*
X652250Y191750D02*
Y196250D01*
Y191750D02*
X656750D01*
X652250Y196250D02*
X656750D01*
X645750Y230250D02*
Y234750D01*
X641250Y230250D02*
Y234750D01*
Y230250D02*
X645750D01*
X641250Y234750D02*
X645750D01*
X601750Y235750D02*
Y240250D01*
X597250Y235750D02*
Y240250D01*
Y235750D02*
X601750D01*
X597250Y240250D02*
X601750D01*
X634750Y213750D02*
Y218250D01*
X630250Y213750D02*
Y218250D01*
Y213750D02*
X634750D01*
X630250Y218250D02*
X634750D01*
Y202750D02*
Y207250D01*
X630250Y202750D02*
Y207250D01*
Y202750D02*
X634750D01*
X630250Y207250D02*
X634750D01*
Y191750D02*
Y196250D01*
X630250Y191750D02*
Y196250D01*
Y191750D02*
X634750D01*
X630250Y196250D02*
X634750D01*
X623750Y191750D02*
Y196250D01*
X619250Y191750D02*
Y196250D01*
Y191750D02*
X623750D01*
X619250Y196250D02*
X623750D01*
Y202750D02*
Y207250D01*
X619250Y202750D02*
Y207250D01*
Y202750D02*
X623750D01*
X619250Y207250D02*
X623750D01*
X612750Y202750D02*
Y207250D01*
X608250Y202750D02*
Y207250D01*
Y202750D02*
X612750D01*
X608250Y207250D02*
X612750D01*
Y191750D02*
Y196250D01*
X608250Y191750D02*
Y196250D01*
Y191750D02*
X612750D01*
X608250Y196250D02*
X612750D01*
X667750Y191750D02*
Y196250D01*
X663250Y191750D02*
Y196250D01*
Y191750D02*
X667750D01*
X663250Y196250D02*
X667750D01*
X623750Y268750D02*
Y273250D01*
X619250Y268750D02*
Y273250D01*
Y268750D02*
X623750D01*
X619250Y273250D02*
X623750D01*
X579750Y224750D02*
Y229250D01*
X575250Y224750D02*
Y229250D01*
Y224750D02*
X579750D01*
X575250Y229250D02*
X579750D01*
X590750Y224750D02*
Y229250D01*
X586250Y224750D02*
Y229250D01*
Y224750D02*
X590750D01*
X586250Y229250D02*
X590750D01*
Y246750D02*
Y251250D01*
X586250Y246750D02*
Y251250D01*
Y246750D02*
X590750D01*
X586250Y251250D02*
X590750D01*
X601750Y246750D02*
Y251250D01*
X597250Y246750D02*
Y251250D01*
Y246750D02*
X601750D01*
X597250Y251250D02*
X601750D01*
X612750Y257750D02*
Y262250D01*
X608250Y257750D02*
Y262250D01*
Y257750D02*
X612750D01*
X608250Y262250D02*
X612750D01*
X601750Y268750D02*
Y273250D01*
X597250Y268750D02*
Y273250D01*
Y268750D02*
X601750D01*
X597250Y273250D02*
X601750D01*
X597250Y202750D02*
X601750D01*
X597250Y207250D02*
X601750D01*
X597250Y202750D02*
Y207250D01*
X601750Y202750D02*
Y207250D01*
X590750Y213750D02*
Y218250D01*
X586250Y213750D02*
Y218250D01*
Y213750D02*
X590750D01*
X586250Y218250D02*
X590750D01*
X619250Y230250D02*
Y234750D01*
X623750Y230250D02*
Y234750D01*
X619250Y230250D02*
X623750D01*
X619250Y234750D02*
X623750D01*
X630250Y230250D02*
Y234750D01*
X634750Y230250D02*
Y234750D01*
X630250Y230250D02*
X634750D01*
X630250Y234750D02*
X634750D01*
X630250Y241250D02*
Y245750D01*
X634750Y241250D02*
Y245750D01*
X630250Y241250D02*
X634750D01*
X630250Y245750D02*
X634750D01*
X641250Y241250D02*
Y245750D01*
X645750Y241250D02*
Y245750D01*
X641250Y241250D02*
X645750D01*
X641250Y245750D02*
X645750D01*
X663250Y241250D02*
Y245750D01*
X667750Y241250D02*
Y245750D01*
X663250Y241250D02*
X667750D01*
X663250Y245750D02*
X667750D01*
X663250Y230250D02*
Y234750D01*
X667750Y230250D02*
Y234750D01*
X663250Y230250D02*
X667750D01*
X663250Y234750D02*
X667750D01*
M02*
