M48
;Layer_Color=9474304
;FILE_FORMAT=4:4
METRIC,LZ
;TYPE=PLATED
T01F00S00C0.1000
T02F00S00C0.2500
T03F00S00C0.2540
T05F00S00C1.0000
T06F00S00C1.0160
T07F00S00C3.0000
;TYPE=NON_PLATED
T08F00S00C0.6500
%
T01
X0047523Y0024976
X0047923
X0048323
X0048723
X0049123
T02
X00063672Y0001019
X00094152
X00119552
X00144952
X00170352
X00153204Y00044806
X00138204
Y00059806
Y00074806
X00123204Y00059806
Y00044806
X00108204
Y00059806
X00093204Y00089806
Y00104806
X00078204
Y00089806
X00048204
Y00104806
X00033204
Y00089806
X000147Y0010101
Y0013149
Y0015689
X00108204Y00149806
X00123204
X00138204
X00195752Y0001019
X00221152
X00246552
X00271952
X00296791Y0001012
X00322752Y0001019
X00318204Y00044806
X00333204
X00348204
X0032008Y0006813
X00409995Y00074465
X00419199Y00074445
X00417495Y0002453
X00405955
X00398952Y0001019
X00424352
X00449752
X00475152
X00500552
X00525952
X00551352
X00576752
X00563892Y000241
X00563984Y000601
X00538956Y0013784
X00528034Y00138094
X0052778Y00148254
X00531082Y00159684
X0053921Y00159938
X00548862
X00549878Y00148762
X00373552Y0001019
X00591992
X0060894Y00010065
X0063942
X0066482
X0069022
X0071562
X0074102
X0076642
X0079182
X0081722
X00842059Y00009995
X0086802Y00010065
X0091882
X0094422
X00918204Y00044806
Y00089806
X00933204
X00948204
X00963204
X00978204
Y00104806
X00963204
X00948204
Y00119806
Y00134806
Y00149806
Y00164806
X00888204Y00119806
X00813204Y00074806
X00798204Y00059806
X00739895Y00081174
X00746394Y00089324
X00752866Y00095085
X00711829Y00039694
X00684429Y0003936
X00690629Y00047016
X00606898Y0005891
X0098645Y00101261
Y00131741
Y00157141
Y00182541
Y00207941
Y00233341
Y00258741
Y00284141
Y00309541
X0098652Y0033438
X0098645Y00360341
Y00385741
Y00411141
Y00436541
Y00461941
Y00487341
Y00512741
Y00538141
Y00563541
X00978204Y00509806
X00948204Y00434806
Y00344806
Y00299806
Y00179806
X00798204Y00299806
X00751656Y00345659
X00753204Y00434806
X00783204
X00798204Y00494806
Y00524806
X00888204
Y00494806
X00498204Y00479806
X00423204Y00449806
X00408204Y00434806
X00383459Y0038781
X0040886Y0031126
X0043647Y0031468
X00434053Y00321945
X0053355Y002999
X0053309Y002542
X0052113Y0022189
X0047158Y0022042
X0030615Y00198044
X00288204Y00194806
X00273204
X0031846Y00179301
X00198204Y00194806
Y00554806
X00273204
X00108204Y00569806
Y00509806
Y00494806
X00123204
Y00464806
X00108204
Y00449806
Y00434806
X00093204
X00063204
X00048204
X000147Y0043629
Y0046169
Y0048709
Y0051249
Y0053789
Y0056329
X00078204Y00509806
X00093204
X00123204Y00389806
Y00374806
X00108204Y00359806
X00078204
X00063204
X00048204
X00033204
X000147Y0036009
Y0038549
Y0041089
X0001477Y00334129
X000147Y0030929
Y0028389
Y0025849
Y0023309
Y0020769
Y0018229
X00048204Y00179806
X00093204
X00108204
X00123204
X00138204
X00153204
X00168204
Y00194806
X00183204
X00153204
X00138204
X00123204
X00108204
Y00210078
Y00224806
Y00254806
X00093204Y00284806
X00078204
X00063204
X00048204
X00123204Y00314806
Y00329806
Y00629806
X00138204
X00153204
Y00674806
X00168204
X00183204
Y00689806
X00168204
X00153204
X00123204
Y00674806
X00108204
Y00689806
X00078204
Y00674806
Y00659806
X00048204Y00629806
X00033204
Y00614806
X000147Y0061409
Y0062933
Y0058869
X00258204Y00629806
X00273204
X00288204
X00303204
X00318204
Y00644806
Y00659806
X00333204
X00348204
X00363204
X00378204
X00393204
Y00674806
Y00689806
X00408204
X00423204
X00438204
X00423204Y00629806
X00408204
X00393204Y00644806
X00378204
X00363204Y00674806
Y00689806
X00348204
Y00674806
X00303204
Y00689806
X00288204
Y00674806
Y00659806
X00303204
Y00644806
X00288204
X00273204
Y00659806
Y00674806
Y00689806
X00258204Y00644806
X00558204Y00689806
X00573204
X00588204
X00603204
X00618204
X00633204
X00648204
X00663204
X00678204
X00693204
X00708204
X00723204
X00738204
X00753204
X00768204
X00783204
X00798204
X00813204
X00828204
X00843204
X00858204
X00873204
X00888204
X00903204
X00918204
X00933204
X00918204Y00674806
Y00659806
X00903204
Y00674806
X00858204
X00828204
Y00659806
Y00614806
X00783204Y00644806
Y00659806
X0078088Y0067369
X00753204Y00674806
X00739861Y0067369
X00753204Y00659806
X00708204
Y00674806
X00693204
Y00659806
Y00644806
X00678204
Y00659806
Y00674806
X00663204
Y00659806
X00648204
Y00674806
X00633204
X00618204
X00588204
X00948204Y00629806
X00963204
X00978204
Y00614806
X00963204
X00948204
Y00599806
X0098645Y00588941
Y00614341
Y00629581
T03
X0002975Y00130806
Y00155956
X00054369Y00143167
X0008025Y00130556
X00099996Y00159097
X00135128Y00090932
X00330127Y00108884
X00357632Y00096266
X00365468Y00093595
X003937Y00107696
X0040038Y00130431
X00408654Y00131998
X00387709Y00134122
X00374376
X0038201Y00143428
X00382012Y00159176
X0037516Y00157672
X00361305Y00161462
X00368554Y00145796
X00335315Y001658
X0031846Y00170623
X00427934Y00141834
X0044137Y00143378
X00445495Y00153202
X004594Y00140504
X0046897Y0014858
X0046704Y00126631
X00466598Y00118618
X00480449Y00131582
X0048928Y0012446
X00495635Y00114602
X00494496Y00150361
X00510845Y00138014
X00507238Y00169495
X00469702Y00173082
X0055632Y0016802
X0056113Y0017168
X005741Y001462
X00582576Y00120176
X00582051Y00094182
X00572465Y00099469
X00564034Y00102904
X00554582Y00097966
X0054531Y0009822
X0053667
X00526792Y00098222
X00530359Y00056251
X0041861Y0005103
X00409603Y0005553
X00409448Y0009017
X00420878
X00423882Y00113277
X00434901Y00109902
X0044094Y00103042
X00447438Y00103124
X00585184Y00083992
X0059462Y00082873
X00600934Y00087216
X00601551Y0010971
X00608243Y00118096
X00591766
X0059177Y00142746
X00608425Y00142663
X00602864Y00152319
X006183Y00152766
X00607822Y00173736
X00598232Y00172094
X00639757Y00140944
X00641296Y00130146
X00650969Y00139339
X0066663Y00146321
Y00165938
X00686927Y00150016
Y001397
Y00130048
X00685929Y00118827
X00704634Y0012624
X007166Y00128572
X00718489Y00135935
X00711Y0014646
X00749046Y00153416
X00748036Y00138132
X0077656Y001397
Y00130048
Y00150016
X00801226Y00147216
X0080749Y00136946
X0081226Y0013111
X008072Y00123225
X00788926Y00120169
X00760126Y00119815
X00725688Y00094888
X0070916Y00095888
X00697706Y00101518
X00670622
X00651224Y00094914
X0064716Y0008958
X006558Y000814
X0067256Y00077134
X00672306Y00068752
X00673676Y00057323
X00636722Y00062542
X00617188Y00063164
X006224Y000849
X00626962Y00101295
X00634745Y00111196
X00648426Y00109867
X00716341Y00085255
X00750228Y0004841
X00784438
X00785599Y0007245
X00787531Y0008183
X00804078Y00087768
X0082946Y0006037
X00822928Y00037256
X0085864Y00044959
X00873884Y00041863
X00886428Y00035478
X00875252Y00017698
X0086802Y0008994
X00852909Y00076888
X00865119Y00130576
X008646Y00140286
X00840612Y00138776
X0083947Y00157226
X00859592Y00166977
X00903309Y00155998
X0091381Y00154222
X00915153Y00105558
X0097Y00130806
X0097025Y00155356
Y00180756
X0096971Y00206166
X0096996Y00231566
X0096968Y00256966
X00969939Y00282387
X0096996Y00307766
X00950309Y00322022
Y00354649
Y00371866
Y00397265
Y004229
X0097025Y00460164
Y00485564
X00939698Y00489149
X0091921Y00510966
X00908545Y00536366
X00894095Y00543413
X00886832Y00560616
X0091921Y00561766
X00941169Y00570267
X0097025Y00562044
Y00536364
X00917226Y00463379
X00880086Y00456662
X00881111Y00445693
X00873921Y00424566
X00876209Y00417319
X00874363Y00403757
X00874457Y00391267
X00873689Y00381776
X00872265Y00371617
X00877612Y0036649
X0087599Y00353737
X00874968Y00342901
X0087195Y00329011
X00890412Y00328153
X00893435Y00348959
X0086538Y00357211
X00824738Y0036195
X00815458Y00356026
X00815086Y00368808
X00796544Y00368046
X00804926Y00340929
X00776897Y0032059
X00777208Y00296556
X00748036Y00300046
X0072405Y00302199
X00710828Y00302335
X00715761Y00312176
X00693666Y0030987
X00690131Y00325716
X00695032Y0033194
X00688431Y0033864
X00658426Y00338
X0063696Y0033184
X0062778Y00333417
X00625727Y00353491
X00627135Y00364621
X00636968Y00382034
X00629666Y00392934
X00630768Y00422096
X00624883Y00443468
X00628722Y00454052
X00619475Y00454995
X00634315Y00459969
X00642139Y00458954
X0066369Y00459969
Y00482303
X00653898Y00480977
X006327Y004839
X006306Y004941
X00628496Y00503978
X0061667Y00502978
X0060978Y0049571
X00594242Y00503065
X0059443Y0054826
X0059338Y00559336
X0060753Y0055106
X0060573Y0054166
X00634397Y0053937
X0063319Y0055366
X00638195Y00566568
X00646324Y00567652
X00659024
X00671724
X00694248Y00566316
X00685308Y00530701
X00674781Y00539641
X0066668Y00544536
X00654568Y00526736
X00666555Y00511474
X0066162Y00501858
X0068536Y00499496
X00696782Y00509333
X00711898Y00539043
X00733915Y0053114
X00751316Y00546471
X00754098Y00560872
X00776327Y00558188
X00784312Y00564608
X00809024Y00570442
X0081167Y00560229
X00822348Y00541927
X0084645Y00532253
X00850898Y00555884
X00850982Y00483151
X00825456Y00482921
X00828105Y00461096
X0084487Y00457466
X00834136Y00434848
X00833556Y00411834
X008382Y00399034
X0085852Y00398272
X00891113Y003981
X00894479Y00390507
X00922222Y00384604
X00891113Y004235
X0086178Y00429656
X00814832Y00405638
X00815086Y00392684
X00797052Y00406146
X00804926Y00448056
X00812337Y00469001
X00792676Y00468033
X0076176Y00462888
X00739628Y00464536
X0072085Y00453701
X00726893Y00442161
X00729877Y00416711
X0071951Y00416307
X00718211Y0040827
X0072856Y00405783
X00728453Y00388644
X00719447Y00386296
X00719594Y00394828
X00714128Y00376936
X0073078Y0037309
X00691013Y0037084
X00665387Y00361216
X00657451Y00381735
X00665692Y00398249
X00666496Y00410972
X00657675Y00417846
X0065824Y0043368
X00663828Y00429089
X00685291Y00461766
X0070336Y00454041
X00771067Y00439872
X00771116Y00381883
X00834016Y00375124
X00851416Y00287873
X0085425Y002712
X00851177Y00263671
X0082588Y0026376
X0082885Y002712
X0080345
X00801878Y00279654
X0077446Y0026376
X00749926Y00261778
X007536Y002383
X00749474Y00229777
X00740432Y00232659
X00722776Y00236686
X0070246Y00236426
X00685768Y00239694
X00686816Y00221996
X00668267Y00217875
Y00203143
X00666464Y00190926
X00688594Y00189738
X00714566Y00182374
X00723513Y00176694
X0074075Y00184512
X00774541Y00191729
X008027Y0018286
X00811046Y00176692
X008218Y001924
X0082623Y00212262
X00838826Y00235998
X00812486Y00239308
X008736Y002305
X0091975Y00231556
X00932159Y00229523
X0091975Y00206156
X0091919Y00177917
X00851288Y00183744
X00848189Y00195517
X00898655Y0026002
X0091975Y00256956
X00919108Y002786
X00893553Y0029104
X0072405Y0027199
X00697533Y00264885
X0068474Y0027076
X0065735Y00261705
X00652434Y00300462
X00626286Y00296898
X0062486Y0030436
X0061722Y00303752
X00607939Y00303887
X00593626Y00319536
X00591569Y003301
X00583872Y00327058
X00594807Y0028576
X00595529Y00240583
X0059581Y002183
X00594352Y00207917
X00598232Y00184632
X00598445Y00178416
X00607482Y00183385
X00616171Y00176261
X0064111Y00202099
X006159Y002584
X0060573Y00446373
X00592712Y0044886
X00592573Y00456759
X00631745Y00520478
X00625822Y00527603
X00630812Y0057181
X00774428Y00499365
X0057229Y00504836
X0057206Y00513616
X00565968Y00510146
X00564366Y00522642
X0055119Y00527496
X0052872Y00525416
X0053379Y00517519
X0053083Y00506746
X00547056Y00497988
X00543814Y00475211
X00543902Y00454595
X00531202Y00454699
X00518502Y00454595
X00505802
X00493014Y00454914
X00480554Y00454939
X00467614Y00454787
X00454914Y00454914
X00442788Y00446339
X00454914Y00432499
X00467614Y00432371
X00480554Y00432524
X00493014Y00432499
X00505834Y00432785
X00518293Y00432759
X00531114Y00432794
X00543814Y00432825
X00557025Y00431648
X0055632Y00421501
X0054645Y00410991
X00530956Y00412515
X00518256
X0050491Y00412061
X00492279
X00499507Y00379559
X00513588Y00388197
X00521334Y00366342
X00530792Y00351552
X00547238Y00343311
X00537229Y0033226
X00541222Y003244
X00547956Y00322882
X00542956Y00315119
X0054716Y00309916
X0053178Y0031437
X0051337Y0031829
X00515874Y0033528
X00498556Y0033765
X00482834Y00329129
X0048832Y0032082
X0045756Y00326136
X0046522Y0033498
X0045031Y00314004
X00445394Y00285676
X0045091Y0027944
X0043191Y0027732
X0043037Y0026934
X00423428Y00263622
X0042338Y0025152
X0043404Y0025082
X0044006Y002433
X00443Y002265
X0045589Y002307
X0046911Y0022741
X00469071Y0021294
X00453763Y00208386
X0044909Y0021492
X0043683Y00209976
X00429736Y00209976
X00422656Y00206502
X00413734Y0020644
X00405098
X00396064Y0020746
X00387901Y00204315
X00392064Y0022036
X00396348Y00230438
X00405955Y00231624
X00420338Y0022124
X00409162Y00184322
X00395446Y0018229
X003529Y00184512
X00349Y00175937
X00308629Y00182467
X0030732Y0021304
X00297738Y00227498
X0028824Y0023185
X0030952Y002352
X0031336Y0027081
X00337603Y00267528
X0034389Y0028527
X00367833Y0029202
X00369697Y00276371
X0038355Y00263005
X004031Y00264954
X0039459Y00292078
X004038Y0030576
X00410729Y00319536
X0039863Y00324
X00389314Y00324162
X00387689Y00331944
X00386296Y00351804
X00407304Y00354552
X00416518Y00367148
X00416849Y00380979
X00442618Y00387247
X00454406Y00379476
X00452144Y00368824
X00474213Y00380983
X0049018Y00362998
X00563122Y00368093
X005726Y003466
X005773Y003388
X005609Y00273614
X005561Y002635
X0054772Y0027866
X0053959Y0027194
X0052843Y0026524
X00534076Y00292522
X0054759Y00248126
X00567624Y00247662
X00572982Y0025276
X00562864Y0022987
X0057066Y00218304
X0056788Y0020474
X0057454
X00559816Y00206248
X0055359Y0020146
X00545081Y0020061
X00538331Y00196565
X00522922Y00199606
X0052957Y0020662
X0051507Y0020983
X0050211Y0021304
X004953Y00199644
X00476702Y00194844
X00461909Y00182088
X00453601Y0018404
X00448532Y00178734
X00490984Y00178638
X00506984Y00178816
X00519746Y00179188
X00554031Y00181329
X00558299Y00196751
X00577076Y00190272
X00549618Y00220504
X005015Y0023658
X0045087Y00254946
X00427232Y00289988
X00385875Y00238386
X003743Y002467
X003524Y00245425
X00274425
X00277295Y00266202
X00250423Y0026754
X0022446Y00267662
X0022473Y00252661
X0020234Y00249231
X00196379Y0025495
X0021207Y00270916
X0020828Y0030099
X0021844Y00307594
X00241508Y00307522
X0023716Y0030002
X00239622Y00319098
X0024437Y00327282
X00244602Y00337312
X00241964Y00361283
X0022439Y00360417
X002271Y00366761
X00234696Y0038989
X00227743Y00400717
X00221507Y00403856
X0021248Y0039116
X00188214
X00196814Y00341122
X00209844Y0034188
X0020638Y00324358
X00200152Y00326898
X00193832Y00324282
X0018723Y00322624
X0027851Y00321225
X00273971Y00313884
Y0030607
X0026256Y00302964
X0028796Y00314163
X0029718Y003302
X00305484Y00330593
X00304038Y00352051
X00326027Y00359737
X0034046Y00369238
X00337354Y00381153
X00355557
X00341194Y0039624
X0034242Y00426198
X00354012Y00430578
X00364844Y00440949
X0037558Y00426779
X00362884Y00417943
X0039069Y0041313
X0038869Y00464301
X00378718Y0046863
X0037004Y00462933
X00364486Y00471413
X00359Y004824
X003646Y004887
X0034706Y004913
X00346007Y00480977
X0034223Y00471879
X00337354Y004627
X0031779Y00448606
X0031965Y00432968
X00293382Y00449445
X00295402Y0046101
X0028102Y00466952
X00271319Y00467337
X00252037Y00469607
X00252038Y00455493
X0026849Y00445745
X00255365Y00425316
X00270945Y00373576
X00268265Y00352956
X00273971Y0033465
X00297125Y00377728
X0033015Y0031818
X00313092Y0030002
X00348724Y0033642
X00355789Y00343467
X00364486Y00345286
X0035327Y005002
X00346714Y0053169
X00340151Y00540002
X00339357Y00549572
X00324104Y0054864
X00301244Y00548894
X00292842Y00530972
X00313404Y00530524
X0031332Y00499396
X00296689Y00499477
X00273173Y00499861
X00274946Y00515093
X0024959Y0051658
X00250423Y00530886
X00224139Y00529885
X0022446Y0049941
X00224956Y00474459
X00215296Y00458651
X00204251Y00460343
X0019545Y00450651
X00199041Y00498982
X00250467Y00498341
X00250498Y00562655
X0035534Y00540316
X00362192Y00533618
X0037004Y00542126
X00391204Y00528354
X00395458Y00520224
X00401967Y00509315
X00421769Y00506967
X00441358Y00510233
X00446334Y0052501
X00442206Y00536898
Y0054528
X00435Y00550761
X00435288Y00559676
X00447286Y00560266
X0042456Y0055406
X00418186Y00569607
X0039284Y00569455
X00395458Y00554376
X00417046Y00487303
X00444359Y00484935
X0046611Y00485607
X00467151Y00506978
X0047581Y00526646
X00485199Y0054328
X00491204Y00542462
X0048832Y00554336
X00513684Y00551765
X0051968Y00534346
X00499261Y0051622
X0055715Y00547736
X0056963Y0054876
X0057186Y00559406
X0055074Y00560626
X00563025Y00487179
X005716Y004869
X005761Y00456759
X00552139Y00459491
X00273568Y0021785
X00247869Y00210667
X00197083Y00209831
X00148132Y00210542
X00162131Y00240425
X00170298Y00247749
X00161162Y00270767
X0018612Y00270096
X0018453Y00310134
X00170298Y0030882
X00168402Y00326644
X00176514Y00325162
X00185166Y00341122
X0014254Y00347448
X00150108Y00356992
X001546Y00367444
X00141638Y00381696
X00134417Y00375856
X0010412Y00377885
X0008025Y00386504
X0008025Y00411304
Y00437044
X0008025Y00461844
X00054469Y00473267
X0006046Y00486892
X00051869Y00499349
X0002975Y00510807
X00023622Y00515112
X0002975Y00536207
X00036088Y00539066
X00053469Y00532637
X00052569Y00552067
X00052839Y00568332
X0002975Y00561607
Y00485407
Y00460007
Y00435356
X00021713Y00438191
X0002975Y00410406
Y00383956
X00021557Y00383162
X00027608Y00355088
X0002286Y00337566
X0002975Y00333756
Y00308356
X00023622Y00311912
X00020012Y00286406
X0002975Y00282956
X00055293Y00282924
X00054969Y00307196
X00050922Y00328664
X00109Y00321225
X00106377Y0029591
X00121855Y00294336
X00122857Y00282541
X00146847Y00284044
X00145638Y0030002
X00145574Y00313512
X0014097Y00320548
X00138638Y00328676
X0013165Y0031307
X0013046Y00305443
X00116078Y00346964
X00105775Y00271226
X0008025Y00257556
Y00232156
Y00206756
Y00181356
X0002975
Y00206756
Y00232156
Y00256956
X00020012Y00256966
X00055069Y0024469
X00054369Y00219267
X00054469Y00394952
X00138204Y00413795
X00152904Y00400614
X0017312Y00428956
X00185477Y0042916
X00184912Y004445
X00185235Y00453398
X0017175Y0045103
X00161752Y0044644
X00152709Y00454488
X00139446Y004445
X00115419Y00447092
X00148705Y00475592
X00148411Y00500706
X0014793Y00530886
X00112626Y00529082
X00107246Y005499
X00079964Y00534768
X00172556Y00467566
X00148411Y00594868
X00150021Y00606477
X00124206Y00602742
X00113525Y00600354
X0011336Y00607846
X0010414Y00610594
X00093614Y00618551
X00087028Y00623781
X0008025Y00612407
Y00587007
X00054786Y00582879
X0002975Y00587007
X00058357Y0061663
X00099749Y00631118
X00097504Y00641776
X00099028Y00658794
X00090157Y00653295
X00137382Y00659048
X00139668Y00641776
X00166116Y00660146
X00174605Y00668479
X00180035Y00652252
X00122694Y00577364
X00216419Y00595457
X00208709Y00606623
X00199041Y00623781
X0022976Y00623255
X00252769Y00606447
X0025346Y0058945
X00257359Y00579569
X00262969Y0059404
X0026822Y00601266
X0027851Y00600033
X00274824Y00588401
X0029673Y006017
X0030836Y0060376
X0031078Y0059572
X0031104Y0058663
X0032455Y0058112
X0033383Y0057954
X0034046Y0057951
X003468Y0058502
X00365301Y00586048
X003685Y00578893
X003658Y0057277
X0037518Y00595136
X0037373Y00604278
X0037363Y0061506
X00366469Y0062513
X0035704Y00628516
X0034705Y00628905
X0033703Y00629603
X003238Y0060207
X0035828Y006034
X00395986Y00594868
X00421135Y00590032
X0043746Y00580314
X00445828Y00595091
X00485616Y00597326
X00486282Y0060319
X00487724Y0061028
X00485266Y00619345
X0048587Y00640506
X00484688Y00659257
X00491458Y00659302
X00506198Y00659638
X00513584Y00648634
X00513328Y0062886
X00510818Y0061028
X00511569Y00601365
X0050603Y0059756
X00497808Y00597326
X0049936Y0058945
X00491712Y00592754
X0051295Y00590836
X0051835Y00586215
X00518382Y00579038
X00525494Y00586404
X00550672Y0059311
X00560092Y00595638
X00558178Y0060481
X00558292Y00615696
X0054991Y00621108
Y00610108
X00555923Y00584419
X00563025Y0057743
X0057023Y00597662
X00564998Y00627717
X0056803Y0064486
X00567404Y006748
X00561308Y00682162
X00551427Y00679901
X005434Y00682162
X00549828Y00689765
X00550132Y00667684
X00543184Y0066789
X00472Y0066
X0045504Y00668398
X00446189Y00667762
X00433038Y00674288
X00441166Y00683178
X00445828Y00690196
X00455155Y00682275
X0041633Y00685286
X00400526Y00675304
X0040086Y00656421
X00400272Y0064457
X00401985Y00634899
X0041633Y00635394
Y0062126
X00429836Y00634492
X00437249Y00637006
X004439Y0063657
X0044429Y0064839
X00432784Y00644824
X0037533Y0063716
X0036633Y0065176
X0032331Y00666668
X00250531Y00659028
X0022446Y0065909
X0021686Y00655318
X0021093Y00660637
X00194026Y00658496
X00499314Y0061028
X0047736Y00579038
X0058233Y0062126
X00593135Y0060481
X00620655Y00604754
X0062003Y0062076
X0062883Y0061966
X0062743Y0062826
X00616755Y00640256
X00616198Y00648345
X00598646Y0064486
X00598138Y006748
X00624691Y00664053
X00646176Y00617728
X00658876
X00671576
X00684276
X00693204Y0062231
X00694807Y00630561
X007011Y00639662
X00721047Y00644767
X00722034Y0067369
X00751277Y00644147
X00752074Y00611697
X00755656Y0058776
X00775952Y00577954
X00791393Y00591142
X00797024Y0061577
X0080602Y00642879
X00790443Y00661817
X00796553Y0067369
X0084752Y00680749
X00876046Y0066421
X00873728Y00636696
X0087774Y00621427
X00846367Y00623106
X00885726Y0058906
X00882795Y00572029
X0091921Y00587166
X00926169Y00585387
X00950806Y00586074
X0097025Y00587007
X0097025Y00613156
X00925369Y00613952
X00912239Y00631767
X00775646Y00631151
X00697333Y00614832
X00697918Y00601888
X00697992Y00590042
X00699875Y00574817
X0068526Y00578264
X0071716Y00573425
X00725168Y00583921
X00640899Y00604543
X00612258Y00579405
X00588066Y00577357
T05
X0022939Y0033122
Y0035154
X0022964Y0041986
Y0044018
X0015344Y0043002
X0015319Y0034138
T06
X0048339Y001016
X0050879
T07
X0004Y00055
X0096
X0004Y00665
X0096
T08
X0059056Y0006221
X0064836
M30
